OFF
263 360 0


28.6433 36.8505 3.4978
28.6433 36.8505 3.4978
28.7333 36.9271 3.4196
28.8085 36.9921 3.3526
28.8736 37.0493 3.2933
28.9319 37.101 3.2392
28.9859 37.1494 3.1883
29.0372 37.1958 3.1392
29.0875 37.2417 3.0905
29.1381 37.2882 3.0408
29.1904 37.3368 2.9887
29.2461 37.3889 2.9326
29.3073 37.4466 2.8702
29.3767 37.5128 2.7983
29.4585 37.5915 2.7122
29.4585 37.5915 2.7122
29.4431 37.5223 2.8376
29.4303 37.4657 2.9402
29.4193 37.417 3.0283
29.4094 37.3734 3.1075
29.4001 37.3327 3.1813
29.391 37.2934 3.2526
29.3819 37.2541 3.3239
29.3725 37.2135 3.3977
29.3622 37.1699 3.4769
29.3508 37.1214 3.5652
29.3373 37.065 3.6678
29.3207 36.9962 3.7931
29.1904 36.965 3.7412
29.0963 36.9434 3.7022
29.0174 36.9259 3.6686
28.9429 36.9099 3.6361
28.8643 36.8936 3.601
28.7711 36.8749 3.5582
28.6433 36.8505 3.4978
28.9675 37.1137 3.2445
29.0031 37.1263 3.25
29.0556 37.1926 3.1617
29.0739 37.1894 3.1841
29.1393 37.2689 3.0809
29.1406 37.2499 3.1203
29.2283 37.3513 2.9927
29.2109 37.3146 3.0513
29.3712 37.3748 3.071
29.3241 37.3335 3.1128
29.3565 37.306 3.1967
29.3134 37.2796 3.2119
29.3425 37.2412 3.3152
29.3031 37.2283 3.3064
29.3271 37.171 3.4436
29.2916 37.1722 3.41
29.0372 36.9646 3.6072
29.0575 37.0045 3.5441
28.9082 36.9377 3.5494
28.9532 36.983 3.4967
28.8634 37.0222 3.3393
28.9188 37.0525 3.3259
28.9747 37.0832 3.3124
29.3346 37.4514 2.8844
29.294 37.3925 2.9674
29.2549 37.3356 3.0475
29.389 37.4595 2.9162
29.3369 37.3989 2.9922
29.2866 37.3405 3.0656
29.3074 37.0825 3.6057
29.2766 37.1004 3.5422
29.2451 37.1187 3.4772
29.1039 36.9793 3.6359
29.1117 37.0163 3.5676
29.1197 37.0544 3.4972
28.723 36.9022 3.4614
28.8042 36.9548 3.4245
28.8869 37.0085 3.3872
28.7997 36.9673 3.3955
28.8669 37.0079 3.3712
28.935 37.0492 3.3467
29.0041 37.0911 3.322
29.0128 37.154 3.2023
29.0395 37.1586 3.2163
29.0661 37.1632 3.2303
29.0927 37.1677 3.2442
29.1825 37.3087 3.0384
29.1748 37.2812 3.087
29.1672 37.2543 3.1346
29.1598 37.228 3.1813
29.4005 37.5145 2.8158
29.345 37.4409 2.9147
29.292 37.3706 3.0096
29.2411 37.3033 3.1005
29.3795 37.4141 2.9992
29.3301 37.364 3.0566
29.2821 37.3152 3.1125
29.2353 37.2679 3.167
29.3637 37.3393 3.1359
29.3186 37.3058 3.1638
29.2743 37.2728 3.1914
29.2307 37.2403 3.2186
29.3351 37.2075 3.377
29.2976 37.2014 3.3561
29.2599 37.1953 3.3352
29.2219 37.1892 3.3142
29.294 37.0237 3.7133
29.2664 37.0522 3.631
29.2378 37.0816 3.5459
29.2081 37.1122 3.4578
28.9743 36.9513 3.5794
29.0066 36.9938 3.5213
29.0398 37.0375 3.4615
29.074 37.0826 3.4001
28.9184 37.0703 3.2897
28.9634 37.0914 3.286
29.0086 37.1126 3.2824
29.054 37.1339 3.2789
29.0996 37.1553 3.2754
29.0974 37.2306 3.1216
29.1073 37.2196 3.1524
29.117 37.2087 3.1828
29.1266 37.1979 3.2129
29.136 37.1873 3.2426
29.2782 37.3981 2.9422
29.25 37.3511 3.0121
29.2227 37.3056 3.0799
29.1962 37.2614 3.1458
29.1704 37.2185 3.2097
29.3496 37.2737 3.2558
29.3083 37.2541 3.2589
29.2673 37.2346 3.2622
29.2265 37.2153 3.2654
29.1858 37.196 3.2687
29.3181 37.1302 3.5183
29.2848 37.1392 3.4707
29.2509 37.1483 3.4223
29.2164 37.1577 3.373
29.1812 37.1671 3.3229
29.1836 36.9974 3.6692
29.1765 37.0309 3.5949
29.1691 37.0655 3.5181
29.1615 37.1013 3.4388
29.1536 37.1384 3.3568
28.8299 36.9223 3.5129
28.8901 36.9707 3.4668
28.9516 37.0203 3.4196
29.0146 37.0711 3.3715
29.0791 37.1233 3.3223
28.723 36.9022 3.4614
28.8042 36.9548 3.4245
28.8869 37.0085 3.3872
28.9712 37.0634 3.3494
29.0573 37.1194 3.311
29.1454 37.1768 3.272
29.1454 37.1768 3.272
29.6864 37.7504 7.114
29.6864 37.7504 7.114
29.7189 37.8678 7.2073
29.7448 37.9655 7.2865
29.7664 38.0499 7.3559
29.7849 38.1248 7.4183
29.8013 38.193 7.4758
29.8162 38.2564 7.5298
29.83 38.3166 7.5813
29.843 38.3747 7.6315
29.8555 38.4317 7.6812
29.8678 38.4887 7.7311
29.88 38.5466 7.7821
29.8925 38.6064 7.8351
29.9053 38.6693 7.8911
29.9187 38.7366 7.9514
29.9331 38.8101 8.0176
29.9489 38.892 8.0918
29.9665 38.9857 8.1772
29.9868 39.0958 8.2781
29.9868 39.0958 8.2781
29.9862 39.1577 8.3508
29.9855 39.2195 8.4234
29.9849 39.2814 8.4961
29.9842 39.3433 8.5688
29.9835 39.4052 8.6414
29.9829 39.4671 8.7141
29.9822 39.529 8.7868
29.9816 39.5909 8.8594
29.9809 39.6528 8.9321
29.9803 39.7147 9.0048
29.9796 39.7766 9.0774
29.979 39.8385 9.1501
29.9783 39.9004 9.2228
29.9776 39.9623 9.2954
29.977 40.0242 9.3681
29.9763 40.0861 9.4407
29.9757 40.148 9.5134
29.975 40.2099 9.5861
29.9744 40.2718 9.6587
29.9737 40.3337 9.7314
29.9731 40.3956 9.8041
29.9724 40.4575 9.8767
29.9717 40.5194 9.9494
29.9711 40.5813 10.0221
29.9704 40.6432 10.0947
29.9698 40.7051 10.1674
29.9691 40.767 10.2401
29.9685 40.8288 10.3127
29.9678 40.8907 10.3854
29.9672 40.9526 10.4581
29.9665 41.0145 10.5307
29.9658 41.0764 10.6034
29.9652 41.1383 10.676
29.9645 41.2002 10.7487
29.9639 41.2621 10.8214
29.9632 41.324 10.894
29.8801 41.2078 10.869
29.8163 41.1186 10.8497
29.7623 41.043 10.8332
29.7124 40.973 10.818
29.6625 40.9031 10.8027
29.6085 40.8274 10.7862
29.545 40.7382 10.7665
29.4622 40.6219 10.7408
29.4622 40.6219 10.7408
29.45 40.5281 10.6482
29.4383 40.4383 10.5594
29.4272 40.352 10.4741
29.4165 40.2689 10.3917
29.4063 40.1886 10.3121
29.3965 40.1108 10.2348
29.387 40.0352 10.1597
29.3778 39.9616 10.0863
29.369 39.8897 10.0147
29.3604 39.8194 9.9444
29.352 39.7503 9.8754
29.3439 39.6825 9.8073
29.336 39.6156 9.7402
29.3283 39.5495 9.6737
29.3208 39.484 9.6077
29.3135 39.4192 9.5421
29.3063 39.3546 9.4767
29.2993 39.2904 9.4114
29.2926 39.2263 9.346
29.2859 39.1622 9.2803
29.2795 39.098 9.2143
29.2733 39.0335 9.1478
29.2674 38.9688 9.0805
29.2617 38.9036 9.0124
29.2563 38.8379 8.9434
29.2513 38.7717 8.8731
29.2467 38.7048 8.8015
29.2428 38.6372 8.7283
29.2395 38.569 8.6535
29.2372 38.5001 8.5767
29.236 38.4308 8.4978
29.2363 38.3611 8.4167
29.2385 38.2916 8.3331
29.2431 38.2227 8.247
29.251 38.1552 8.1584
29.2628 38.0901 8.0673
29.2795 38.0287 7.9739
29.302 37.9722 7.8787
29.331 37.9218 7.7821
29.3665 37.8785 7.6849
29.4085 37.8425 7.5877
29.4562 37.8135 7.491
29.5088 37.7906 7.3952
29.5652 37.7731 7.3004
29.6246 37.76 7.2067
29.6864 37.7504 7.114
3 31 30 105 0.8022039531013334 0.5426516770235731 0.5680844874058312
3 29 67 30 0.8022039531013334 0.5426516770235731 0.5680844874058312
3 20 45 21 0.8022039531013334 0.5426516770235731 0.5680844874058312
3 93 45 20 0.8022039531013334 0.5426516770235731 0.5680844874058312
3 21 45 124 0.8022039531013334 0.5426516770235731 0.5680844874058312
3 135 102 103 0.8022039531013334 0.5426516770235731 0.5680844874058312
3 141 140 54 0.8022039531013334 0.5426516770235731 0.5680844874058312
3 27 26 101 0.8022039531013334 0.5426516770235731 0.5680844874058312
3 26 102 101 0.8022039531013334 0.5426516770235731 0.5680844874058312
3 12 58 13 0.8022039531013334 0.5426516770235731 0.5680844874058312
3 11 119 12 0.8022039531013334 0.5426516770235731 0.5680844874058312
3 12 86 58 0.8022039531013334 0.5426516770235731 0.5680844874058312
3 119 86 12 0.8022039531013334 0.5426516770235731 0.5680844874058312
3 122 83 84 0.8022039531013334 0.5426516770235731 0.5680844874058312
3 122 96 92 0.8022039531013334 0.5426516770235731 0.5680844874058312
3 84 96 122 0.8022039531013334 0.5426516770235731 0.5680844874058312
3 8 114 40 0.8022039531013334 0.5426516770235731 0.5680844874058312
3 84 83 40 0.8022039531013334 0.5426516770235731 0.5680844874058312
3 46 124 45 0.8022039531013334 0.5426516770235731 0.5680844874058312
3 71 2 70 0.8022039531013334 0.5426516770235731 0.5680844874058312
3 70 2 0 0.8022039531013334 0.5426516770235731 0.5680844874058312
3 0 33 70 0.8022039531013334 0.5426516770235731 0.5680844874058312
3 139 33 32 0.8022039531013334 0.5426516770235731 0.5680844874058312
3 139 140 71 0.8022039531013334 0.5426516770235731 0.5680844874058312
3 71 70 139 0.8022039531013334 0.5426516770235731 0.5680844874058312
3 139 70 33 0.8022039531013334 0.5426516770235731 0.5680844874058312
3 50 99 132 0.8022039531013334 0.5426516770235731 0.5680844874058312
3 138 108 137 0.8022039531013334 0.5426516770235731 0.5680844874058312
3 137 108 69 0.8022039531013334 0.5426516770235731 0.5680844874058312
3 137 132 138 0.8022039531013334 0.5426516770235731 0.5680844874058312
3 147 75 141 0.8022039531013334 0.5426516770235731 0.5680844874058312
3 4 3 55 0.8022039531013334 0.5426516770235731 0.5680844874058312
3 55 3 74 0.8022039531013334 0.5426516770235731 0.5680844874058312
3 141 75 146 0.8022039531013334 0.5426516770235731 0.5680844874058312
3 146 140 141 0.8022039531013334 0.5426516770235731 0.5680844874058312
3 146 55 74 0.8022039531013334 0.5426516770235731 0.5680844874058312
3 75 55 146 0.8022039531013334 0.5426516770235731 0.5680844874058312
3 71 140 146 0.8022039531013334 0.5426516770235731 0.5680844874058312
3 146 74 71 0.8022039531013334 0.5426516770235731 0.5680844874058312
3 109 5 4 0.8022039531013334 0.5426516770235731 0.5680844874058312
3 71 74 73 0.8022039531013334 0.5426516770235731 0.5680844874058312
3 74 3 73 0.8022039531013334 0.5426516770235731 0.5680844874058312
3 73 2 71 0.8022039531013334 0.5426516770235731 0.5680844874058312
3 73 3 2 0.8022039531013334 0.5426516770235731 0.5680844874058312
3 123 96 84 0.8022039531013334 0.5426516770235731 0.5680844874058312
3 84 117 123 0.8022039531013334 0.5426516770235731 0.5680844874058312
3 123 117 118 0.8022039531013334 0.5426516770235731 0.5680844874058312
3 126 99 48 0.8022039531013334 0.5426516770235731 0.5680844874058312
3 136 135 103 0.8022039531013334 0.5426516770235731 0.5680844874058312
3 136 137 69 0.8022039531013334 0.5426516770235731 0.5680844874058312
3 105 30 51 0.8022039531013334 0.5426516770235731 0.5680844874058312
3 30 67 51 0.8022039531013334 0.5426516770235731 0.5680844874058312
3 106 54 105 0.8022039531013334 0.5426516770235731 0.5680844874058312
3 105 51 106 0.8022039531013334 0.5426516770235731 0.5680844874058312
3 106 51 52 0.8022039531013334 0.5426516770235731 0.5680844874058312
3 69 52 68 0.8022039531013334 0.5426516770235731 0.5680844874058312
3 68 136 69 0.8022039531013334 0.5426516770235731 0.5680844874058312
3 135 136 68 0.8022039531013334 0.5426516770235731 0.5680844874058312
3 67 135 68 0.8022039531013334 0.5426516770235731 0.5680844874058312
3 68 51 67 0.8022039531013334 0.5426516770235731 0.5680844874058312
3 52 51 68 0.8022039531013334 0.5426516770235731 0.5680844874058312
3 102 135 134 0.8022039531013334 0.5426516770235731 0.5680844874058312
3 134 101 102 0.8022039531013334 0.5426516770235731 0.5680844874058312
3 134 135 67 0.8022039531013334 0.5426516770235731 0.5680844874058312
3 67 29 134 0.8022039531013334 0.5426516770235731 0.5680844874058312
3 89 18 17 0.8022039531013334 0.5426516770235731 0.5680844874058312
3 89 86 62 0.8022039531013334 0.5426516770235731 0.5680844874058312
3 18 89 43 0.8022039531013334 0.5426516770235731 0.5680844874058312
3 62 90 43 0.8022039531013334 0.5426516770235731 0.5680844874058312
3 43 89 62 0.8022039531013334 0.5426516770235731 0.5680844874058312
3 87 120 60 0.8022039531013334 0.5426516770235731 0.5680844874058312
3 87 90 62 0.8022039531013334 0.5426516770235731 0.5680844874058312
3 93 43 44 0.8022039531013334 0.5426516770235731 0.5680844874058312
3 44 43 90 0.8022039531013334 0.5426516770235731 0.5680844874058312
3 63 87 60 0.8022039531013334 0.5426516770235731 0.5680844874058312
3 90 87 63 0.8022039531013334 0.5426516770235731 0.5680844874058312
3 63 44 90 0.8022039531013334 0.5426516770235731 0.5680844874058312
3 91 44 63 0.8022039531013334 0.5426516770235731 0.5680844874058312
3 14 13 85 0.8022039531013334 0.5426516770235731 0.5680844874058312
3 85 16 14 0.8022039531013334 0.5426516770235731 0.5680844874058312
3 13 58 85 0.8022039531013334 0.5426516770235731 0.5680844874058312
3 58 86 61 0.8022039531013334 0.5426516770235731 0.5680844874058312
3 61 85 58 0.8022039531013334 0.5426516770235731 0.5680844874058312
3 61 89 17 0.8022039531013334 0.5426516770235731 0.5680844874058312
3 86 89 61 0.8022039531013334 0.5426516770235731 0.5680844874058312
3 17 16 61 0.8022039531013334 0.5426516770235731 0.5680844874058312
3 16 85 61 0.8022039531013334 0.5426516770235731 0.5680844874058312
3 84 40 115 0.8022039531013334 0.5426516770235731 0.5680844874058312
3 115 40 114 0.8022039531013334 0.5426516770235731 0.5680844874058312
3 7 114 8 0.8022039531013334 0.5426516770235731 0.5680844874058312
3 92 91 88 0.8022039531013334 0.5426516770235731 0.5680844874058312
3 88 122 92 0.8022039531013334 0.5426516770235731 0.5680844874058312
3 88 63 60 0.8022039531013334 0.5426516770235731 0.5680844874058312
3 91 63 88 0.8022039531013334 0.5426516770235731 0.5680844874058312
3 118 117 80 0.8022039531013334 0.5426516770235731 0.5680844874058312
3 80 117 38 0.8022039531013334 0.5426516770235731 0.5680844874058312
3 143 108 138 0.8022039531013334 0.5426516770235731 0.5680844874058312
3 92 96 95 0.8022039531013334 0.5426516770235731 0.5680844874058312
3 95 91 92 0.8022039531013334 0.5426516770235731 0.5680844874058312
3 95 96 126 0.8022039531013334 0.5426516770235731 0.5680844874058312
3 53 139 32 0.8022039531013334 0.5426516770235731 0.5680844874058312
3 53 31 105 0.8022039531013334 0.5426516770235731 0.5680844874058312
3 32 31 53 0.8022039531013334 0.5426516770235731 0.5680844874058312
3 105 54 53 0.8022039531013334 0.5426516770235731 0.5680844874058312
3 53 54 140 0.8022039531013334 0.5426516770235731 0.5680844874058312
3 140 139 53 0.8022039531013334 0.5426516770235731 0.5680844874058312
3 149 138 133 0.8022039531013334 0.5426516770235731 0.5680844874058312
3 138 132 133 0.8022039531013334 0.5426516770235731 0.5680844874058312
3 132 137 104 0.8022039531013334 0.5426516770235731 0.5680844874058312
3 137 136 104 0.8022039531013334 0.5426516770235731 0.5680844874058312
3 103 66 104 0.8022039531013334 0.5426516770235731 0.5680844874058312
3 104 136 103 0.8022039531013334 0.5426516770235731 0.5680844874058312
3 76 147 142 0.8022039531013334 0.5426516770235731 0.5680844874058312
3 108 143 142 0.8022039531013334 0.5426516770235731 0.5680844874058312
3 142 147 141 0.8022039531013334 0.5426516770235731 0.5680844874058312
3 4 55 56 0.8022039531013334 0.5426516770235731 0.5680844874058312
3 56 55 75 0.8022039531013334 0.5426516770235731 0.5680844874058312
3 56 109 4 0.8022039531013334 0.5426516770235731 0.5680844874058312
3 128 118 149 0.8022039531013334 0.5426516770235731 0.5680844874058312
3 128 123 118 0.8022039531013334 0.5426516770235731 0.5680844874058312
3 149 133 128 0.8022039531013334 0.5426516770235731 0.5680844874058312
3 98 99 50 0.8022039531013334 0.5426516770235731 0.5680844874058312
3 98 48 99 0.8022039531013334 0.5426516770235731 0.5680844874058312
3 21 124 22 0.8022039531013334 0.5426516770235731 0.5680844874058312
3 126 48 125 0.8022039531013334 0.5426516770235731 0.5680844874058312
3 124 46 125 0.8022039531013334 0.5426516770235731 0.5680844874058312
3 125 95 126 0.8022039531013334 0.5426516770235731 0.5680844874058312
3 46 95 125 0.8022039531013334 0.5426516770235731 0.5680844874058312
3 141 54 107 0.8022039531013334 0.5426516770235731 0.5680844874058312
3 54 106 107 0.8022039531013334 0.5426516770235731 0.5680844874058312
3 107 142 141 0.8022039531013334 0.5426516770235731 0.5680844874058312
3 108 142 107 0.8022039531013334 0.5426516770235731 0.5680844874058312
3 69 108 107 0.8022039531013334 0.5426516770235731 0.5680844874058312
3 107 52 69 0.8022039531013334 0.5426516770235731 0.5680844874058312
3 107 106 52 0.8022039531013334 0.5426516770235731 0.5680844874058312
3 27 101 28 0.8022039531013334 0.5426516770235731 0.5680844874058312
3 101 134 28 0.8022039531013334 0.5426516770235731 0.5680844874058312
3 28 134 29 0.8022039531013334 0.5426516770235731 0.5680844874058312
3 59 41 120 0.8022039531013334 0.5426516770235731 0.5680844874058312
3 120 87 59 0.8022039531013334 0.5426516770235731 0.5680844874058312
3 59 119 11 0.8022039531013334 0.5426516770235731 0.5680844874058312
3 11 41 59 0.8022039531013334 0.5426516770235731 0.5680844874058312
3 59 87 62 0.8022039531013334 0.5426516770235731 0.5680844874058312
3 62 86 59 0.8022039531013334 0.5426516770235731 0.5680844874058312
3 59 86 119 0.8022039531013334 0.5426516770235731 0.5680844874058312
3 93 20 19 0.8022039531013334 0.5426516770235731 0.5680844874058312
3 19 43 93 0.8022039531013334 0.5426516770235731 0.5680844874058312
3 18 43 19 0.8022039531013334 0.5426516770235731 0.5680844874058312
3 94 44 91 0.8022039531013334 0.5426516770235731 0.5680844874058312
3 91 95 94 0.8022039531013334 0.5426516770235731 0.5680844874058312
3 94 95 46 0.8022039531013334 0.5426516770235731 0.5680844874058312
3 94 46 45 0.8022039531013334 0.5426516770235731 0.5680844874058312
3 94 45 93 0.8022039531013334 0.5426516770235731 0.5680844874058312
3 93 44 94 0.8022039531013334 0.5426516770235731 0.5680844874058312
3 38 117 116 0.8022039531013334 0.5426516770235731 0.5680844874058312
3 116 115 38 0.8022039531013334 0.5426516770235731 0.5680844874058312
3 116 117 84 0.8022039531013334 0.5426516770235731 0.5680844874058312
3 84 115 116 0.8022039531013334 0.5426516770235731 0.5680844874058312
3 38 115 37 0.8022039531013334 0.5426516770235731 0.5680844874058312
3 37 115 114 0.8022039531013334 0.5426516770235731 0.5680844874058312
3 114 7 37 0.8022039531013334 0.5426516770235731 0.5680844874058312
3 121 88 60 0.8022039531013334 0.5426516770235731 0.5680844874058312
3 149 118 113 0.8022039531013334 0.5426516770235731 0.5680844874058312
3 118 80 113 0.8022039531013334 0.5426516770235731 0.5680844874058312
3 113 138 149 0.8022039531013334 0.5426516770235731 0.5680844874058312
3 113 143 138 0.8022039531013334 0.5426516770235731 0.5680844874058312
3 113 80 112 0.8022039531013334 0.5426516770235731 0.5680844874058312
3 112 143 113 0.8022039531013334 0.5426516770235731 0.5680844874058312
3 148 143 112 0.8022039531013334 0.5426516770235731 0.5680844874058312
3 76 142 148 0.8022039531013334 0.5426516770235731 0.5680844874058312
3 148 142 143 0.8022039531013334 0.5426516770235731 0.5680844874058312
3 6 5 35 0.8022039531013334 0.5426516770235731 0.5680844874058312
3 35 36 6 0.8022039531013334 0.5426516770235731 0.5680844874058312
3 112 36 111 0.8022039531013334 0.5426516770235731 0.5680844874058312
3 76 148 111 0.8022039531013334 0.5426516770235731 0.5680844874058312
3 111 148 112 0.8022039531013334 0.5426516770235731 0.5680844874058312
3 36 35 111 0.8022039531013334 0.5426516770235731 0.5680844874058312
3 6 36 77 0.8022039531013334 0.5426516770235731 0.5680844874058312
3 77 7 6 0.8022039531013334 0.5426516770235731 0.5680844874058312
3 77 37 7 0.8022039531013334 0.5426516770235731 0.5680844874058312
3 100 132 99 0.8022039531013334 0.5426516770235731 0.5680844874058312
3 100 133 132 0.8022039531013334 0.5426516770235731 0.5680844874058312
3 100 128 133 0.8022039531013334 0.5426516770235731 0.5680844874058312
3 50 130 49 0.8022039531013334 0.5426516770235731 0.5680844874058312
3 49 130 24 0.8022039531013334 0.5426516770235731 0.5680844874058312
3 49 24 23 0.8022039531013334 0.5426516770235731 0.5680844874058312
3 50 132 131 0.8022039531013334 0.5426516770235731 0.5680844874058312
3 132 104 131 0.8022039531013334 0.5426516770235731 0.5680844874058312
3 131 104 66 0.8022039531013334 0.5426516770235731 0.5680844874058312
3 131 130 50 0.8022039531013334 0.5426516770235731 0.5680844874058312
3 66 130 131 0.8022039531013334 0.5426516770235731 0.5680844874058312
3 109 56 57 0.8022039531013334 0.5426516770235731 0.5680844874058312
3 57 147 76 0.8022039531013334 0.5426516770235731 0.5680844874058312
3 75 147 57 0.8022039531013334 0.5426516770235731 0.5680844874058312
3 57 56 75 0.8022039531013334 0.5426516770235731 0.5680844874058312
3 76 111 57 0.8022039531013334 0.5426516770235731 0.5680844874058312
3 96 123 127 0.8022039531013334 0.5426516770235731 0.5680844874058312
3 123 128 127 0.8022039531013334 0.5426516770235731 0.5680844874058312
3 126 96 127 0.8022039531013334 0.5426516770235731 0.5680844874058312
3 128 100 127 0.8022039531013334 0.5426516770235731 0.5680844874058312
3 127 99 126 0.8022039531013334 0.5426516770235731 0.5680844874058312
3 127 100 99 0.8022039531013334 0.5426516770235731 0.5680844874058312
3 47 22 124 0.8022039531013334 0.5426516770235731 0.5680844874058312
3 124 125 47 0.8022039531013334 0.5426516770235731 0.5680844874058312
3 47 125 48 0.8022039531013334 0.5426516770235731 0.5680844874058312
3 48 98 47 0.8022039531013334 0.5426516770235731 0.5680844874058312
3 83 122 82 0.8022039531013334 0.5426516770235731 0.5680844874058312
3 82 40 83 0.8022039531013334 0.5426516770235731 0.5680844874058312
3 122 88 82 0.8022039531013334 0.5426516770235731 0.5680844874058312
3 88 121 82 0.8022039531013334 0.5426516770235731 0.5680844874058312
3 38 37 78 0.8022039531013334 0.5426516770235731 0.5680844874058312
3 37 77 78 0.8022039531013334 0.5426516770235731 0.5680844874058312
3 78 36 112 0.8022039531013334 0.5426516770235731 0.5680844874058312
3 78 77 36 0.8022039531013334 0.5426516770235731 0.5680844874058312
3 65 66 103 0.8022039531013334 0.5426516770235731 0.5680844874058312
3 65 130 66 0.8022039531013334 0.5426516770235731 0.5680844874058312
3 24 130 129 0.8022039531013334 0.5426516770235731 0.5680844874058312
3 129 25 24 0.8022039531013334 0.5426516770235731 0.5680844874058312
3 130 65 129 0.8022039531013334 0.5426516770235731 0.5680844874058312
3 129 65 25 0.8022039531013334 0.5426516770235731 0.5680844874058312
3 109 57 110 0.8022039531013334 0.5426516770235731 0.5680844874058312
3 5 109 110 0.8022039531013334 0.5426516770235731 0.5680844874058312
3 110 35 5 0.8022039531013334 0.5426516770235731 0.5680844874058312
3 110 111 35 0.8022039531013334 0.5426516770235731 0.5680844874058312
3 110 57 111 0.8022039531013334 0.5426516770235731 0.5680844874058312
3 97 47 98 0.8022039531013334 0.5426516770235731 0.5680844874058312
3 97 98 50 0.8022039531013334 0.5426516770235731 0.5680844874058312
3 23 22 97 0.8022039531013334 0.5426516770235731 0.5680844874058312
3 22 47 97 0.8022039531013334 0.5426516770235731 0.5680844874058312
3 50 49 97 0.8022039531013334 0.5426516770235731 0.5680844874058312
3 97 49 23 0.8022039531013334 0.5426516770235731 0.5680844874058312
3 8 40 39 0.8022039531013334 0.5426516770235731 0.5680844874058312
3 40 82 39 0.8022039531013334 0.5426516770235731 0.5680844874058312
3 79 80 38 0.8022039531013334 0.5426516770235731 0.5680844874058312
3 38 78 79 0.8022039531013334 0.5426516770235731 0.5680844874058312
3 112 80 79 0.8022039531013334 0.5426516770235731 0.5680844874058312
3 79 78 112 0.8022039531013334 0.5426516770235731 0.5680844874058312
3 25 65 64 0.8022039531013334 0.5426516770235731 0.5680844874058312
3 64 102 26 0.8022039531013334 0.5426516770235731 0.5680844874058312
3 26 25 64 0.8022039531013334 0.5426516770235731 0.5680844874058312
3 103 102 64 0.8022039531013334 0.5426516770235731 0.5680844874058312
3 64 65 103 0.8022039531013334 0.5426516770235731 0.5680844874058312
3 42 82 121 0.8022039531013334 0.5426516770235731 0.5680844874058312
3 42 81 82 0.8022039531013334 0.5426516770235731 0.5680844874058312
3 42 121 60 0.8022039531013334 0.5426516770235731 0.5680844874058312
3 60 120 42 0.8022039531013334 0.5426516770235731 0.5680844874058312
3 120 41 42 0.8022039531013334 0.5426516770235731 0.5680844874058312
3 8 39 9 0.8022039531013334 0.5426516770235731 0.5680844874058312
3 9 39 82 0.8022039531013334 0.5426516770235731 0.5680844874058312
3 82 81 9 0.8022039531013334 0.5426516770235731 0.5680844874058312
3 10 41 11 0.8022039531013334 0.5426516770235731 0.5680844874058312
3 10 9 81 0.8022039531013334 0.5426516770235731 0.5680844874058312
3 10 42 41 0.8022039531013334 0.5426516770235731 0.5680844874058312
3 81 42 10 0.8022039531013334 0.5426516770235731 0.5680844874058312
3 228 186 187 0.8022039531013334 0.5426516770235731 0.5680844874058312
3 155 258 259 0.8022039531013334 0.5426516770235731 0.5680844874058312
3 256 158 255 0.8022039531013334 0.5426516770235731 0.5680844874058312
3 166 249 165 0.8022039531013334 0.5426516770235731 0.5680844874058312
3 248 249 166 0.8022039531013334 0.5426516770235731 0.5680844874058312
3 160 253 254 0.8022039531013334 0.5426516770235731 0.5680844874058312
3 207 208 206 0.8022039531013334 0.5426516770235731 0.5680844874058312
3 209 210 204 0.8022039531013334 0.5426516770235731 0.5680844874058312
3 217 198 199 0.8022039531013334 0.5426516770235731 0.5680844874058312
3 204 210 203 0.8022039531013334 0.5426516770235731 0.5680844874058312
3 200 201 213 0.8022039531013334 0.5426516770235731 0.5680844874058312
3 189 226 188 0.8022039531013334 0.5426516770235731 0.5680844874058312
3 188 226 227 0.8022039531013334 0.5426516770235731 0.5680844874058312
3 228 187 227 0.8022039531013334 0.5426516770235731 0.5680844874058312
3 187 188 227 0.8022039531013334 0.5426516770235731 0.5680844874058312
3 193 221 222 0.8022039531013334 0.5426516770235731 0.5680844874058312
3 190 191 224 0.8022039531013334 0.5426516770235731 0.5680844874058312
3 224 191 223 0.8022039531013334 0.5426516770235731 0.5680844874058312
3 259 260 154 0.8022039531013334 0.5426516770235731 0.5680844874058312
3 154 155 259 0.8022039531013334 0.5426516770235731 0.5680844874058312
3 258 155 156 0.8022039531013334 0.5426516770235731 0.5680844874058312
3 173 242 243 0.8022039531013334 0.5426516770235731 0.5680844874058312
3 159 160 254 0.8022039531013334 0.5426516770235731 0.5680844874058312
3 254 255 159 0.8022039531013334 0.5426516770235731 0.5680844874058312
3 159 255 158 0.8022039531013334 0.5426516770235731 0.5680844874058312
3 161 252 253 0.8022039531013334 0.5426516770235731 0.5680844874058312
3 253 160 161 0.8022039531013334 0.5426516770235731 0.5680844874058312
3 205 209 204 0.8022039531013334 0.5426516770235731 0.5680844874058312
3 208 209 205 0.8022039531013334 0.5426516770235731 0.5680844874058312
3 205 206 208 0.8022039531013334 0.5426516770235731 0.5680844874058312
3 194 221 193 0.8022039531013334 0.5426516770235731 0.5680844874058312
3 196 219 220 0.8022039531013334 0.5426516770235731 0.5680844874058312
3 197 219 196 0.8022039531013334 0.5426516770235731 0.5680844874058312
3 214 217 199 0.8022039531013334 0.5426516770235731 0.5680844874058312
3 199 200 214 0.8022039531013334 0.5426516770235731 0.5680844874058312
3 214 200 213 0.8022039531013334 0.5426516770235731 0.5680844874058312
3 216 217 214 0.8022039531013334 0.5426516770235731 0.5680844874058312
3 198 217 218 0.8022039531013334 0.5426516770235731 0.5680844874058312
3 218 197 198 0.8022039531013334 0.5426516770235731 0.5680844874058312
3 219 197 218 0.8022039531013334 0.5426516770235731 0.5680844874058312
3 213 201 212 0.8022039531013334 0.5426516770235731 0.5680844874058312
3 201 202 212 0.8022039531013334 0.5426516770235731 0.5680844874058312
3 183 184 231 0.8022039531013334 0.5426516770235731 0.5680844874058312
3 223 191 192 0.8022039531013334 0.5426516770235731 0.5680844874058312
3 193 222 192 0.8022039531013334 0.5426516770235731 0.5680844874058312
3 192 222 223 0.8022039531013334 0.5426516770235731 0.5680844874058312
3 190 224 225 0.8022039531013334 0.5426516770235731 0.5680844874058312
3 225 189 190 0.8022039531013334 0.5426516770235731 0.5680844874058312
3 226 189 225 0.8022039531013334 0.5426516770235731 0.5680844874058312
3 260 261 153 0.8022039531013334 0.5426516770235731 0.5680844874058312
3 153 154 260 0.8022039531013334 0.5426516770235731 0.5680844874058312
3 153 261 151 0.8022039531013334 0.5426516770235731 0.5680844874058312
3 258 156 257 0.8022039531013334 0.5426516770235731 0.5680844874058312
3 157 158 256 0.8022039531013334 0.5426516770235731 0.5680844874058312
3 256 257 157 0.8022039531013334 0.5426516770235731 0.5680844874058312
3 157 257 156 0.8022039531013334 0.5426516770235731 0.5680844874058312
3 181 182 233 0.8022039531013334 0.5426516770235731 0.5680844874058312
3 167 248 166 0.8022039531013334 0.5426516770235731 0.5680844874058312
3 177 178 237 0.8022039531013334 0.5426516770235731 0.5680844874058312
3 237 178 236 0.8022039531013334 0.5426516770235731 0.5680844874058312
3 246 168 245 0.8022039531013334 0.5426516770235731 0.5680844874058312
3 245 168 169 0.8022039531013334 0.5426516770235731 0.5680844874058312
3 173 243 172 0.8022039531013334 0.5426516770235731 0.5680844874058312
3 251 252 162 0.8022039531013334 0.5426516770235731 0.5680844874058312
3 252 161 162 0.8022039531013334 0.5426516770235731 0.5680844874058312
3 196 220 195 0.8022039531013334 0.5426516770235731 0.5680844874058312
3 221 194 195 0.8022039531013334 0.5426516770235731 0.5680844874058312
3 195 220 221 0.8022039531013334 0.5426516770235731 0.5680844874058312
3 211 212 202 0.8022039531013334 0.5426516770235731 0.5680844874058312
3 211 203 210 0.8022039531013334 0.5426516770235731 0.5680844874058312
3 211 202 203 0.8022039531013334 0.5426516770235731 0.5680844874058312
3 183 231 232 0.8022039531013334 0.5426516770235731 0.5680844874058312
3 232 182 183 0.8022039531013334 0.5426516770235731 0.5680844874058312
3 233 182 232 0.8022039531013334 0.5426516770235731 0.5680844874058312
3 229 186 228 0.8022039531013334 0.5426516770235731 0.5680844874058312
3 229 185 186 0.8022039531013334 0.5426516770235731 0.5680844874058312
3 230 184 185 0.8022039531013334 0.5426516770235731 0.5680844874058312
3 230 231 184 0.8022039531013334 0.5426516770235731 0.5680844874058312
3 185 229 230 0.8022039531013334 0.5426516770235731 0.5680844874058312
3 234 181 233 0.8022039531013334 0.5426516770235731 0.5680844874058312
3 234 235 180 0.8022039531013334 0.5426516770235731 0.5680844874058312
3 180 181 234 0.8022039531013334 0.5426516770235731 0.5680844874058312
3 247 168 246 0.8022039531013334 0.5426516770235731 0.5680844874058312
3 247 167 168 0.8022039531013334 0.5426516770235731 0.5680844874058312
3 248 167 247 0.8022039531013334 0.5426516770235731 0.5680844874058312
3 179 236 178 0.8022039531013334 0.5426516770235731 0.5680844874058312
3 180 235 179 0.8022039531013334 0.5426516770235731 0.5680844874058312
3 235 236 179 0.8022039531013334 0.5426516770235731 0.5680844874058312
3 244 245 169 0.8022039531013334 0.5426516770235731 0.5680844874058312
3 244 172 243 0.8022039531013334 0.5426516770235731 0.5680844874058312
3 238 177 237 0.8022039531013334 0.5426516770235731 0.5680844874058312
3 176 177 238 0.8022039531013334 0.5426516770235731 0.5680844874058312
3 238 239 176 0.8022039531013334 0.5426516770235731 0.5680844874058312
3 174 242 173 0.8022039531013334 0.5426516770235731 0.5680844874058312
3 174 241 242 0.8022039531013334 0.5426516770235731 0.5680844874058312
3 163 250 251 0.8022039531013334 0.5426516770235731 0.5680844874058312
3 251 162 163 0.8022039531013334 0.5426516770235731 0.5680844874058312
3 170 244 169 0.8022039531013334 0.5426516770235731 0.5680844874058312
3 172 244 170 0.8022039531013334 0.5426516770235731 0.5680844874058312
3 176 239 175 0.8022039531013334 0.5426516770235731 0.5680844874058312
3 175 239 240 0.8022039531013334 0.5426516770235731 0.5680844874058312
3 240 241 175 0.8022039531013334 0.5426516770235731 0.5680844874058312
3 241 174 175 0.8022039531013334 0.5426516770235731 0.5680844874058312
3 250 163 164 0.8022039531013334 0.5426516770235731 0.5680844874058312
3 164 165 249 0.8022039531013334 0.5426516770235731 0.5680844874058312
3 249 250 164 0.8022039531013334 0.5426516770235731 0.5680844874058312
