OFF
670 1093 0


28.3077 31.9141 6.5231
28.3077 31.9141 6.5231
28.2999 31.9351 6.5236
28.2922 31.956 6.5242
28.3036 31.922 6.5332
28.3151 31.888 6.5421
28.3151 31.888 6.5421
28.3152 31.8878 6.5415
28.3154 31.8876 6.5409
28.3154 31.8876 6.5409
28.3115 31.9008 6.532
28.3077 31.9141 6.5231
28.3086 31.9102 6.5277
28.3095 31.9062 6.5324
28.3154 31.8876 6.5409
28.3154 31.8876 6.5409
28.4436 31.922 6.5789
28.5608 31.9543 6.6143
28.6691 31.9849 6.6477
28.77 32.0141 6.6796
28.865 32.0422 6.7102
28.955 32.0696 6.7398
29.0411 32.0964 6.7688
29.124 32.1229 6.7973
29.2044 32.1492 6.8256
29.2829 32.1756 6.8538
29.36 32.2023 6.8823
29.4363 32.2294 6.9111
29.5123 32.2572 6.9405
29.5884 32.2858 6.9707
29.6651 32.3155 7.0019
29.7429 32.3464 7.0344
29.8222 32.379 7.0685
29.9036 32.4134 7.1044
29.9877 32.4501 7.1426
30.0752 32.4894 7.1834
30.1667 32.5319 7.2273
30.2632 32.578 7.2749
30.3657 32.6286 7.3269
30.4754 32.6845 7.3842
30.4754 32.6845 7.3842
30.433 32.7276 7.5049
30.3908 32.7719 7.6252
30.2759 32.7277 7.5975
30.1681 32.686 7.5691
30.0664 32.6462 7.5398
29.9701 32.6082 7.5098
29.8784 32.5716 7.4788
29.7907 32.5364 7.447
29.7065 32.5022 7.4142
29.6253 32.4689 7.3805
29.5466 32.4363 7.3457
29.4701 32.4043 7.3099
29.3954 32.3728 7.2729
29.3221 32.3416 7.2348
29.2499 32.3106 7.1954
29.1783 32.2796 7.1546
29.1071 32.2486 7.1123
29.0359 32.2172 7.0682
28.9643 32.1854 7.0223
28.8918 32.153 6.9742
28.818 32.1198 6.9236
28.7424 32.0856 6.8702
28.6645 32.05 6.8136
28.5836 32.0129 6.7531
28.499 31.9738 6.6883
28.4099 31.9323 6.6183
28.3151 31.888 6.5421
28.3151 31.888 6.5421
28.3152 31.8878 6.5415
28.3154 31.8876 6.5409
28.6374 31.9831 6.6564
28.7096 32.0105 6.696
28.7781 32.0367 6.7335
28.8431 32.0618 6.7691
28.9052 32.086 6.8031
28.8218 32.0358 6.7126
28.8716 32.0568 6.7442
28.9196 32.0772 6.7747
28.9658 32.097 6.8041
29.0105 32.1163 6.8325
28.9876 32.0855 6.7656
29.0194 32.1012 6.7906
29.0504 32.1165 6.8151
29.0806 32.1315 6.8389
29.1102 32.1463 6.8622
29.1409 32.1339 6.817
29.1576 32.1447 6.8364
29.1741 32.1555 6.8555
29.1903 32.1661 6.8743
29.2063 32.1766 6.8928
29.2864 32.1821 6.8682
29.29 32.1886 6.8825
29.2935 32.195 6.8967
29.2969 32.2014 6.9107
29.3004 32.2077 6.9247
29.4278 32.2316 6.9206
29.4193 32.2337 6.9301
29.4109 32.2358 6.9396
29.4024 32.238 6.949
29.394 32.2401 6.9584
29.5684 32.2834 6.9755
29.5484 32.2811 6.9803
29.5284 32.2789 6.9851
29.5084 32.2766 6.9899
29.4883 32.2744 6.9946
29.7111 32.3392 7.0344
29.6795 32.3321 7.0343
29.6478 32.325 7.0343
29.6162 32.3181 7.0342
29.5845 32.3111 7.0341
29.3903 32.3641 7.2551
29.3852 32.3553 7.2372
29.3801 32.3465 7.2192
29.375 32.3377 7.2011
29.3698 32.3289 7.1829
29.2558 32.3065 7.1831
29.2617 32.3024 7.1707
29.2676 32.2983 7.1583
29.2735 32.2942 7.1459
29.2794 32.2901 7.1335
29.1245 32.2491 7.1061
29.1417 32.2497 7.0998
29.1589 32.2503 7.0937
29.176 32.251 7.0875
29.193 32.2516 7.0814
28.9942 32.1911 7.0232
29.0237 32.1967 7.0241
29.0528 32.2023 7.025
29.0816 32.2079 7.0259
29.11 32.2134 7.0267
28.8623 32.1312 6.9332
28.9056 32.1425 6.9426
28.9478 32.1535 6.9517
28.989 32.1644 6.9606
29.0293 32.1751 6.9692
28.7261 32.0683 6.8341
28.7852 32.086 6.8538
28.8421 32.1032 6.8727
28.897 32.12 6.8909
28.9501 32.1363 6.9085
28.5819 32.0006 6.723
28.66 32.0261 6.7557
28.734 32.0505 6.7866
28.8042 32.074 6.8159
28.8713 32.0965 6.8438
28.4252 31.9259 6.5959
28.5268 31.9612 6.6454
28.621 31.9943 6.6912
28.709 32.0255 6.734
28.7916 32.0551 6.7741
28.4255 31.9255 6.5947
28.5271 31.9608 6.6444
28.6213 31.994 6.6904
28.7093 32.0252 6.7333
28.7918 32.0549 6.7735
28.8697 32.0832 6.8114
29.8591 32.4005 7.099
29.815 32.3879 7.0937
29.771 32.3754 7.0883
29.7272 32.3631 7.0829
29.6835 32.351 7.0775
29.6397 32.3391 7.0721
30.0158 32.4695 7.1716
29.9573 32.4501 7.1601
29.8997 32.4312 7.1486
29.8426 32.4128 7.1372
29.7859 32.3947 7.1259
29.7295 32.377 7.1146
30.185 32.5487 7.255
30.1092 32.5207 7.2357
30.0354 32.4939 7.2169
29.9632 32.468 7.1984
29.8923 32.443 7.1801
29.8221 32.4186 7.162
30.1939 32.6835 7.5492
30.1155 32.6418 7.5029
30.04 32.6022 7.4583
29.9668 32.5643 7.415
29.8953 32.5279 7.3725
29.825 32.4926 7.3308
30.0069 32.6126 7.4993
29.9488 32.5801 7.4597
29.8919 32.5487 7.4209
29.8358 32.5181 7.3826
29.7803 32.4882 7.3446
29.7251 32.4588 7.3068
29.8361 32.5461 7.4448
29.7943 32.5211 7.4111
29.7527 32.4964 7.3776
29.7114 32.4722 7.3443
29.6701 32.4481 7.3109
29.6287 32.4243 7.2775
29.6782 32.4831 7.3859
29.6499 32.4642 7.3576
29.6217 32.4454 7.3292
29.5933 32.4267 7.3008
29.5649 32.4081 7.2722
29.5363 32.3895 7.2435
29.5304 32.4227 7.3226
29.5141 32.4091 7.2995
29.4978 32.3955 7.2762
29.4814 32.3819 7.2529
29.4648 32.3683 7.2293
29.4482 32.3546 7.2056
30.3717 32.6419 7.3531
30.2736 32.6023 7.3235
30.18 32.5651 7.2952
30.0899 32.5299 7.2679
30.0027 32.4964 7.2413
29.9175 32.4642 7.2153
29.8336 32.4331 7.1896
28.9066 32.0609 6.7394
28.947 32.0792 6.7676
28.9861 32.0969 6.795
29.024 32.1143 6.8215
29.0609 32.1313 6.8473
29.0969 32.148 6.8724
29.1319 32.1643 6.8969
29.1661 32.1804 6.9208
30.2948 32.7211 7.5724
30.2042 32.6739 7.5224
30.1179 32.6295 7.4747
30.035 32.5875 7.4287
29.9546 32.5475 7.3841
29.8761 32.509 7.3405
29.7988 32.4717 7.2974
29.7221 32.4354 7.2546
28.795 32.1002 6.8849
28.8458 32.1146 6.8992
28.8951 32.1286 6.913
28.943 32.1423 6.9263
28.9896 32.1558 6.9393
29.035 32.1691 6.952
29.0793 32.1821 6.9643
29.1226 32.195 6.9764
28.5055 31.9643 6.6617
28.5946 31.9944 6.7023
28.6783 32.0229 6.7402
28.757 32.0501 6.7759
28.8316 32.0761 6.8097
28.9025 32.1011 6.8418
28.9701 32.1252 6.8723
29.0349 32.1485 6.9016
28.5356 31.9551 6.6264
28.6214 31.9862 6.6707
28.7019 32.0157 6.7122
28.7778 32.0438 6.7513
28.8497 32.0706 6.7883
28.918 32.0964 6.8234
28.9832 32.1213 6.8569
29.0456 32.1453 6.889
29.1056 32.1687 6.9197
29.2144 32.1579 6.8425
29.2243 32.1666 6.8593
29.2342 32.1751 6.8759
29.2439 32.1836 6.8923
29.2535 32.192 6.9085
29.263 32.2004 6.9246
29.2724 32.2087 6.9405
29.2818 32.2169 6.9563
29.291 32.2251 6.9719
29.498 32.2571 6.9477
29.4837 32.2571 6.9548
29.4695 32.257 6.9619
29.4552 32.257 6.9691
29.441 32.257 6.9762
29.4268 32.257 6.9833
29.4126 32.257 6.9904
29.3983 32.257 6.9975
29.3841 32.2571 7.0046
29.7843 32.3691 7.0659
29.7465 32.3593 7.0632
29.7088 32.3496 7.0606
29.6712 32.3401 7.0579
29.6336 32.3306 7.0553
29.5959 32.3213 7.0526
29.5582 32.312 7.0499
29.5203 32.3028 7.0471
29.4822 32.2937 7.0444
30.0985 32.5076 7.2118
30.0319 32.4842 7.1966
29.9665 32.4616 7.1816
29.9022 32.4396 7.1668
29.8386 32.4182 7.1522
29.7754 32.3973 7.1376
29.7126 32.3768 7.1231
29.6497 32.3565 7.1085
29.5866 32.3365 7.0938
30.3335 32.6812 7.463
30.2394 32.638 7.4233
30.1496 32.5973 7.3853
30.0632 32.5588 7.3487
29.9795 32.5221 7.3131
29.8976 32.4868 7.2782
29.817 32.4526 7.2438
29.7371 32.4193 7.2096
29.6573 32.3866 7.1754
29.9197 32.5788 7.4726
29.8701 32.5503 7.4361
29.8212 32.5224 7.3999
29.7727 32.4951 7.3641
29.7245 32.4682 7.3284
29.6764 32.4416 7.2928
29.6283 32.4153 7.2571
29.5798 32.3892 7.2211
29.5309 32.3631 7.1848
29.6032 32.4526 7.3548
29.5811 32.4364 7.3291
29.5589 32.4203 7.3033
29.5366 32.4042 7.2773
29.5142 32.3881 7.2513
29.4917 32.372 7.225
29.469 32.3559 7.1985
29.446 32.3397 7.1718
29.4229 32.3235 7.1447
29.3225 32.3352 7.2197
29.3229 32.3288 7.2045
29.3233 32.3223 7.1892
29.3237 32.3159 7.1739
29.324 32.3094 7.1585
29.3244 32.303 7.1431
29.3248 32.2965 7.1276
29.3252 32.29 7.112
29.3256 32.2835 7.0964
29.0594 32.2203 7.0654
29.0826 32.2233 7.0626
29.1056 32.2264 7.0599
29.1285 32.2294 7.0571
29.1511 32.2325 7.0544
29.1736 32.2356 7.0517
29.196 32.2387 7.049
29.2182 32.2418 7.0463
29.2402 32.2449 7.0436
29.0655 32.1098 6.7914
29.0895 32.123 6.8135
29.1129 32.136 6.8352
29.136 32.1488 6.8565
29.1586 32.1614 6.8774
29.1808 32.1739 6.8979
29.2027 32.1862 6.9181
29.2242 32.1984 6.938
29.2453 32.2104 6.9575
29.2662 32.2223 6.9768
30.0981 32.6474 7.5248
30.0305 32.6106 7.482
29.9648 32.5753 7.4404
29.9005 32.5412 7.3996
29.8372 32.5081 7.3593
29.7747 32.4758 7.3195
29.7125 32.4441 7.2799
29.6503 32.4129 7.2402
29.5878 32.3819 7.2002
29.5246 32.3511 7.1597
28.6552 32.0352 6.7802
28.7234 32.0566 6.806
28.7885 32.0772 6.8306
28.8508 32.0972 6.8542
28.9107 32.1166 6.8767
28.9684 32.1354 6.8985
29.0241 32.1538 6.9194
29.078 32.1718 6.9397
29.1304 32.1895 6.9594
29.1813 32.2068 6.9784
28.7324 32.0099 6.685
28.7928 32.034 6.7204
28.8504 32.0572 6.7543
28.9056 32.0795 6.7867
28.9587 32.1012 6.8178
29.0098 32.1223 6.8477
29.0591 32.1428 6.8766
29.1069 32.1628 6.9045
29.1533 32.1824 6.9316
29.1983 32.2016 6.9579
29.2423 32.2205 6.9835
29.6393 32.3107 7.0043
29.6135 32.3061 7.0067
29.5877 32.3015 7.0091
29.5619 32.2969 7.0115
29.5361 32.2924 7.0139
29.5103 32.2879 7.0163
29.4844 32.2835 7.0187
29.4585 32.2791 7.0211
29.4324 32.2747 7.0234
29.4063 32.2703 7.0258
29.3801 32.266 7.0282
30.2758 32.5933 7.3019
30.1896 32.56 7.2779
30.1065 32.5283 7.2546
30.0258 32.498 7.232
29.947 32.469 7.2098
29.8695 32.4409 7.1879
29.7929 32.4135 7.1662
29.7168 32.3869 7.1446
29.6406 32.3606 7.1229
29.5641 32.3347 7.101
29.4866 32.309 7.0789
29.7557 32.5142 7.4159
29.7209 32.4924 7.3849
29.6862 32.4708 7.354
29.6516 32.4494 7.3231
29.6168 32.4281 7.2922
29.582 32.4069 7.261
29.5469 32.3858 7.2297
29.5115 32.3647 7.1981
29.4758 32.3435 7.1661
29.4396 32.3223 7.1337
29.4028 32.3009 7.1008
29.4595 32.3932 7.2894
29.4489 32.3821 7.2689
29.4382 32.3709 7.2482
29.4275 32.3597 7.2274
29.4167 32.3485 7.2065
29.4058 32.3373 7.1855
29.3949 32.3261 7.1642
29.3839 32.3148 7.1429
29.3728 32.3034 7.1213
29.3615 32.292 7.0996
29.3502 32.2806 7.0776
28.9286 32.1615 6.9792
28.9648 32.1698 6.9841
29.0003 32.178 6.989
29.0351 32.1862 6.9937
29.0694 32.1943 6.9983
29.1031 32.2023 7.0029
29.1364 32.2103 7.0074
29.1692 32.2182 7.0118
29.2015 32.2261 7.0162
29.2335 32.234 7.0205
29.265 32.2418 7.0247
29.3574 32.2066 6.8942
29.3548 32.2109 6.906
29.3523 32.2152 6.9178
29.3497 32.2194 6.9296
29.3472 32.2237 6.9413
29.3446 32.2279 6.9529
29.3421 32.2322 6.9645
29.3396 32.2364 6.976
29.3371 32.2406 6.9875
29.3346 32.2448 6.9989
29.3321 32.249 7.0103
29.3297 32.2532 7.0217
29.9362 32.4339 7.1342
29.8851 32.4181 7.1258
29.8345 32.4026 7.1176
29.7843 32.3873 7.1093
29.7342 32.3724 7.101
29.6842 32.3576 7.0928
29.6342 32.343 7.0845
29.5841 32.3286 7.0761
29.5337 32.3143 7.0677
29.4829 32.3 7.0592
29.4317 32.2858 7.0506
29.3798 32.2716 7.0419
29.1899 32.2778 7.1452
29.2013 32.2761 7.1358
29.2128 32.2743 7.1265
29.2243 32.2725 7.1171
29.2357 32.2708 7.1078
29.2472 32.2691 7.0984
29.2586 32.2674 7.0891
29.2701 32.2657 7.0797
29.2815 32.264 7.0704
29.2929 32.2623 7.061
29.3043 32.2607 7.0517
29.3158 32.2591 7.0423
29.3272 32.2574 7.033
30.4754 32.6845 7.3842
30.4754 32.6845 7.3842
30.433 32.7276 7.5049
30.4754 32.6845 7.3842
30.4754 32.6845 7.3842
30.4945 32.8079 7.3331
30.5115 32.9209 7.2878
30.5267 33.0257 7.2471
30.5406 33.1241 7.2103
30.5532 33.2173 7.1766
30.5649 33.3065 7.1457
30.5758 33.3927 7.1169
30.586 33.4768 7.0901
30.5956 33.5594 7.0648
30.6048 33.6414 7.0409
30.6135 33.7233 7.0181
30.6219 33.8059 6.9963
30.6301 33.8898 6.9752
30.638 33.9758 6.9547
30.6458 34.0647 6.9346
30.6536 34.1574 6.9149
30.6613 34.255 6.8953
30.6691 34.3588 6.8757
30.677 34.4703 6.856
30.6852 34.5914 6.8358
30.6936 34.7246 6.8151
30.6936 34.7246 6.8151
30.6705 34.7312 6.8806
30.6474 34.7377 6.946
30.6243 34.7443 7.0115
30.6011 34.7508 7.0769
30.5799 34.6345 7.1342
30.561 34.5261 7.1852
30.5439 34.424 7.231
30.5285 34.3268 7.2724
30.5144 34.2334 7.3101
30.5014 34.143 7.3445
30.4895 34.0545 7.3761
30.4785 33.9674 7.4053
30.4683 33.881 7.4322
30.4587 33.7947 7.4571
30.4498 33.7078 7.4802
30.4415 33.6196 7.5017
30.4337 33.5297 7.5216
30.4264 33.4371 7.5402
30.4195 33.3412 7.5574
30.413 33.241 7.5733
30.4069 33.1354 7.5881
30.4012 33.0232 7.6016
30.3958 32.9027 7.614
30.3908 32.7719 7.6252
30.6936 34.7246 6.8151
30.6936 34.7246 6.8151
30.6295 34.8124 6.7494
30.5646 34.9008 6.6853
30.5486 34.8856 6.8005
30.5382 34.8735 6.8832
30.5254 34.8549 6.9984
30.5254 34.8549 6.9984
30.563 34.803 7.0381
30.6011 34.7508 7.0769
30.6011 34.7508 7.0769
30.6243 34.7443 7.0115
30.6474 34.7377 6.946
30.6705 34.7312 6.8806
30.6936 34.7246 6.8151
30.1225 35.1825 6.6531
30.1225 35.1825 6.6531
30.2027 35.1176 6.7293
30.2647 35.0672 6.7856
30.32 35.0223 6.8339
30.3758 34.9769 6.8808
30.44 34.9246 6.9327
30.5254 34.8549 6.9984
30.5254 34.8549 6.9984
30.5382 34.8735 6.8832
30.5486 34.8856 6.8005
30.5646 34.9008 6.6853
30.4749 34.9744 6.6079
30.4029 35.0322 6.5481
30.3401 35.0817 6.4973
30.2811 35.1275 6.4508
30.2215 35.1732 6.405
30.1567 35.2221 6.3564
30.0806 35.2786 6.3008
29.9826 35.35 6.2315
29.9826 35.35 6.2315
30.0245 35.3017 6.3545
30.0538 35.2669 6.4422
30.0827 35.232 6.5299
30.1225 35.1825 6.6531
30.1512 35.1669 6.6451
30.2651 35.0744 6.7518
30.2655 35.0816 6.7176
30.3546 35.002 6.8283
30.3331 35.0272 6.7753
30.4843 34.9202 6.829
30.4304 34.9663 6.7751
30.5041 34.9425 6.6704
30.4442 34.9835 6.6558
30.3752 35.0468 6.5612
30.3477 35.0612 6.5743
30.2781 35.1226 6.4841
30.2752 35.1178 6.5169
30.1798 35.1975 6.4099
30.2023 35.1735 6.4622
30.0757 35.2605 6.4087
30.1252 35.2203 6.4614
30.1201 35.2061 6.5467
30.1571 35.1803 6.5634
30.3096 35.0384 6.7906
30.2991 35.0545 6.7469
30.2884 35.0707 6.7027
30.4745 34.9053 6.9215
30.4235 34.955 6.845
30.3721 35.0044 6.7685
30.4922 34.93 6.7626
30.4359 34.9738 6.7251
30.3797 35.0172 6.6877
30.3251 35.0862 6.5209
30.3102 35.0906 6.5442
30.2954 35.0949 6.5673
30.1203 35.242 6.3668
30.1585 35.2063 6.4307
30.1955 35.1714 6.4929
30.0979 35.2335 6.4773
30.141 35.2006 6.5119
30.1834 35.1679 6.5459
30.2153 35.1148 6.7064
30.2279 35.1121 6.6833
30.2406 35.1092 6.66
30.2534 35.1063 6.6365
30.4062 34.9604 6.8697
30.3721 34.996 6.8064
30.3375 35.0316 6.7427
30.3023 35.0673 6.6782
30.4326 35.0008 6.6089
30.3907 35.0269 6.6098
30.3491 35.0526 6.6108
30.3076 35.0781 6.6118
30.2309 35.1589 6.448
30.24 35.1448 6.4902
30.249 35.1309 6.5317
30.2577 35.1171 6.5725
30.0446 35.2975 6.3139
30.1035 35.247 6.3926
30.1598 35.1981 6.4682
30.2139 35.1503 6.5414
30.1512 35.1669 6.6451
30.1799 35.1512 6.637
30.2086 35.1353 6.629
30.2374 35.1194 6.6209
30.2663 35.1034 6.6128
30.1225 35.1825 6.6531
30.1225 35.1825 6.6531
30.0188 35.1359 6.6446
29.917 35.0914 6.6337
29.8163 35.0492 6.6201
29.7165 35.0093 6.603
29.6173 34.9721 6.5817
29.5189 34.9381 6.5554
29.4214 34.9079 6.523
29.3254 34.8822 6.4841
29.2317 34.8614 6.4385
29.141 34.8457 6.3864
29.0537 34.8348 6.3287
28.9701 34.8283 6.2664
28.8899 34.8255 6.2007
28.8128 34.8256 6.1324
28.7383 34.8282 6.0621
28.6658 34.8327 5.9902
28.5948 34.8388 5.9166
28.5246 34.8463 5.8414
28.4546 34.8549 5.7643
28.3842 34.8647 5.6848
28.3127 34.8756 5.6024
28.2395 34.8875 5.5164
28.1636 34.9007 5.4261
28.2875 34.9395 5.4663
28.3996 34.9739 5.5041
28.5026 35.0047 5.5401
28.5981 35.0327 5.5747
28.6879 35.0583 5.6082
28.7732 35.0822 5.641
28.855 35.1045 5.6734
28.9343 35.1256 5.7058
29.0119 35.1458 5.7384
29.0886 35.1652 5.7716
29.1652 35.1841 5.8056
29.2423 35.2025 5.8408
29.3207 35.2207 5.8776
29.4011 35.2387 5.9165
29.4845 35.2567 5.958
29.5716 35.2748 6.0027
29.6636 35.2931 6.0513
29.7618 35.3117 6.1048
29.8675 35.3307 6.1644
29.9826 35.35 6.2315
29.9826 35.35 6.2315
30.0245 35.3017 6.3545
30.0538 35.2669 6.4422
30.0827 35.232 6.5299
30.1225 35.1825 6.6531
3 3 4 2 0.23224997764228805 0.2864105071059576 0.0522551591915037
3 2 4 0 0.23224997764228805 0.2864105071059576 0.0522551591915037
3 6 13 4 0.23224997764228805 0.2864105071059576 0.0522551591915037
3 6 10 13 0.23224997764228805 0.2864105071059576 0.0522551591915037
3 0 4 12 0.23224997764228805 0.2864105071059576 0.0522551591915037
3 4 13 12 0.23224997764228805 0.2864105071059576 0.0522551591915037
3 12 10 0 0.23224997764228805 0.2864105071059576 0.0522551591915037
3 13 10 12 0.23224997764228805 0.2864105071059576 0.0522551591915037
3 8 10 7 0.23224997764228805 0.2864105071059576 0.0522551591915037
3 10 6 7 0.23224997764228805 0.2864105071059576 0.0522551591915037
3 41 289 39 0.23224997764228805 0.2864105071059576 0.0522551591915037
3 220 41 42 0.23224997764228805 0.2864105071059576 0.0522551591915037
3 289 41 220 0.23224997764228805 0.2864105071059576 0.0522551591915037
3 57 58 325 0.23224997764228805 0.2864105071059576 0.0522551591915037
3 118 319 117 0.23224997764228805 0.2864105071059576 0.0522551591915037
3 151 69 15 0.23224997764228805 0.2864105071059576 0.0522551591915037
3 15 16 151 0.23224997764228805 0.2864105071059576 0.0522551591915037
3 67 69 151 0.23224997764228805 0.2864105071059576 0.0522551591915037
3 176 44 344 0.23224997764228805 0.2864105071059576 0.0522551591915037
3 44 45 344 0.23224997764228805 0.2864105071059576 0.0522551591915037
3 43 220 42 0.23224997764228805 0.2864105071059576 0.0522551591915037
3 221 290 289 0.23224997764228805 0.2864105071059576 0.0522551591915037
3 289 220 221 0.23224997764228805 0.2864105071059576 0.0522551591915037
3 51 52 199 0.23224997764228805 0.2864105071059576 0.0522551591915037
3 394 297 352 0.23224997764228805 0.2864105071059576 0.0522551591915037
3 395 394 352 0.23224997764228805 0.2864105071059576 0.0522551591915037
3 397 48 49 0.23224997764228805 0.2864105071059576 0.0522551591915037
3 119 118 457 0.23224997764228805 0.2864105071059576 0.0522551591915037
3 335 334 23 0.23224997764228805 0.2864105071059576 0.0522551591915037
3 67 151 66 0.23224997764228805 0.2864105071059576 0.0522551591915037
3 244 16 17 0.23224997764228805 0.2864105071059576 0.0522551591915037
3 175 44 176 0.23224997764228805 0.2864105071059576 0.0522551591915037
3 176 221 175 0.23224997764228805 0.2864105071059576 0.0522551591915037
3 175 43 44 0.23224997764228805 0.2864105071059576 0.0522551591915037
3 220 43 175 0.23224997764228805 0.2864105071059576 0.0522551591915037
3 175 221 220 0.23224997764228805 0.2864105071059576 0.0522551591915037
3 200 199 52 0.23224997764228805 0.2864105071059576 0.0522551591915037
3 303 227 350 0.23224997764228805 0.2864105071059576 0.0522551591915037
3 352 297 351 0.23224997764228805 0.2864105071059576 0.0522551591915037
3 227 303 351 0.23224997764228805 0.2864105071059576 0.0522551591915037
3 351 303 192 0.23224997764228805 0.2864105071059576 0.0522551591915037
3 296 227 351 0.23224997764228805 0.2864105071059576 0.0522551591915037
3 351 297 296 0.23224997764228805 0.2864105071059576 0.0522551591915037
3 297 394 286 0.23224997764228805 0.2864105071059576 0.0522551591915037
3 168 286 446 0.23224997764228805 0.2864105071059576 0.0522551591915037
3 353 395 352 0.23224997764228805 0.2864105071059576 0.0522551591915037
3 417 418 453 0.23224997764228805 0.2864105071059576 0.0522551591915037
3 417 416 322 0.23224997764228805 0.2864105071059576 0.0522551591915037
3 350 227 186 0.23224997764228805 0.2864105071059576 0.0522551591915037
3 186 303 350 0.23224997764228805 0.2864105071059576 0.0522551591915037
3 302 186 349 0.23224997764228805 0.2864105071059576 0.0522551591915037
3 398 397 49 0.23224997764228805 0.2864105071059576 0.0522551591915037
3 47 48 187 0.23224997764228805 0.2864105071059576 0.0522551591915037
3 48 397 188 0.23224997764228805 0.2864105071059576 0.0522551591915037
3 188 187 48 0.23224997764228805 0.2864105071059576 0.0522551591915037
3 185 302 349 0.23224997764228805 0.2864105071059576 0.0522551591915037
3 301 302 185 0.23224997764228805 0.2864105071059576 0.0522551591915037
3 320 319 118 0.23224997764228805 0.2864105071059576 0.0522551591915037
3 118 119 320 0.23224997764228805 0.2864105071059576 0.0522551591915037
3 320 115 319 0.23224997764228805 0.2864105071059576 0.0522551591915037
3 418 417 324 0.23224997764228805 0.2864105071059576 0.0522551591915037
3 457 118 456 0.23224997764228805 0.2864105071059576 0.0522551591915037
3 118 117 456 0.23224997764228805 0.2864105071059576 0.0522551591915037
3 117 455 456 0.23224997764228805 0.2864105071059576 0.0522551591915037
3 56 123 454 0.23224997764228805 0.2864105071059576 0.0522551591915037
3 123 455 454 0.23224997764228805 0.2864105071059576 0.0522551591915037
3 454 55 56 0.23224997764228805 0.2864105071059576 0.0522551591915037
3 325 58 128 0.23224997764228805 0.2864105071059576 0.0522551591915037
3 457 456 125 0.23224997764228805 0.2864105071059576 0.0522551591915037
3 54 55 316 0.23224997764228805 0.2864105071059576 0.0522551591915037
3 318 117 319 0.23224997764228805 0.2864105071059576 0.0522551591915037
3 319 115 318 0.23224997764228805 0.2864105071059576 0.0522551591915037
3 156 357 240 0.23224997764228805 0.2864105071059576 0.0522551591915037
3 156 145 357 0.23224997764228805 0.2864105071059576 0.0522551591915037
3 76 19 20 0.23224997764228805 0.2864105071059576 0.0522551591915037
3 20 366 76 0.23224997764228805 0.2864105071059576 0.0522551591915037
3 419 59 60 0.23224997764228805 0.2864105071059576 0.0522551591915037
3 134 135 421 0.23224997764228805 0.2864105071059576 0.0522551591915037
3 233 135 134 0.23224997764228805 0.2864105071059576 0.0522551591915037
3 230 140 231 0.23224997764228805 0.2864105071059576 0.0522551591915037
3 23 86 336 0.23224997764228805 0.2864105071059576 0.0522551591915037
3 336 335 23 0.23224997764228805 0.2864105071059576 0.0522551591915037
3 334 335 83 0.23224997764228805 0.2864105071059576 0.0522551591915037
3 368 242 249 0.23224997764228805 0.2864105071059576 0.0522551591915037
3 24 86 23 0.23224997764228805 0.2864105071059576 0.0522551591915037
3 16 244 236 0.23224997764228805 0.2864105071059576 0.0522551591915037
3 295 227 296 0.23224997764228805 0.2864105071059576 0.0522551591915037
3 392 295 296 0.23224997764228805 0.2864105071059576 0.0522551591915037
3 28 102 103 0.23224997764228805 0.2864105071059576 0.0522551591915037
3 103 379 380 0.23224997764228805 0.2864105071059576 0.0522551591915037
3 102 379 103 0.23224997764228805 0.2864105071059576 0.0522551591915037
3 278 379 277 0.23224997764228805 0.2864105071059576 0.0522551591915037
3 380 379 278 0.23224997764228805 0.2864105071059576 0.0522551591915037
3 407 417 453 0.23224997764228805 0.2864105071059576 0.0522551591915037
3 416 417 407 0.23224997764228805 0.2864105071059576 0.0522551591915037
3 406 315 407 0.23224997764228805 0.2864105071059576 0.0522551591915037
3 380 278 279 0.23224997764228805 0.2864105071059576 0.0522551591915037
3 279 278 451 0.23224997764228805 0.2864105071059576 0.0522551591915037
3 53 410 409 0.23224997764228805 0.2864105071059576 0.0522551591915037
3 310 200 201 0.23224997764228805 0.2864105071059576 0.0522551591915037
3 201 200 52 0.23224997764228805 0.2864105071059576 0.0522551591915037
3 309 200 310 0.23224997764228805 0.2864105071059576 0.0522551591915037
3 199 200 309 0.23224997764228805 0.2864105071059576 0.0522551591915037
3 51 199 309 0.23224997764228805 0.2864105071059576 0.0522551591915037
3 307 50 51 0.23224997764228805 0.2864105071059576 0.0522551591915037
3 296 297 393 0.23224997764228805 0.2864105071059576 0.0522551591915037
3 297 286 393 0.23224997764228805 0.2864105071059576 0.0522551591915037
3 393 286 168 0.23224997764228805 0.2864105071059576 0.0522551591915037
3 287 161 447 0.23224997764228805 0.2864105071059576 0.0522551591915037
3 287 448 161 0.23224997764228805 0.2864105071059576 0.0522551591915037
3 394 448 287 0.23224997764228805 0.2864105071059576 0.0522551591915037
3 447 286 287 0.23224997764228805 0.2864105071059576 0.0522551591915037
3 287 286 394 0.23224997764228805 0.2864105071059576 0.0522551591915037
3 447 161 160 0.23224997764228805 0.2864105071059576 0.0522551591915037
3 160 286 447 0.23224997764228805 0.2864105071059576 0.0522551591915037
3 160 446 286 0.23224997764228805 0.2864105071059576 0.0522551591915037
3 395 353 396 0.23224997764228805 0.2864105071059576 0.0522551591915037
3 451 278 396 0.23224997764228805 0.2864105071059576 0.0522551591915037
3 353 405 396 0.23224997764228805 0.2864105071059576 0.0522551591915037
3 396 405 406 0.23224997764228805 0.2864105071059576 0.0522551591915037
3 406 407 396 0.23224997764228805 0.2864105071059576 0.0522551591915037
3 352 403 306 0.23224997764228805 0.2864105071059576 0.0522551591915037
3 306 353 352 0.23224997764228805 0.2864105071059576 0.0522551591915037
3 303 186 191 0.23224997764228805 0.2864105071059576 0.0522551591915037
3 191 302 190 0.23224997764228805 0.2864105071059576 0.0522551591915037
3 186 302 191 0.23224997764228805 0.2864105071059576 0.0522551591915037
3 192 303 191 0.23224997764228805 0.2864105071059576 0.0522551591915037
3 189 398 190 0.23224997764228805 0.2864105071059576 0.0522551591915037
3 189 302 301 0.23224997764228805 0.2864105071059576 0.0522551591915037
3 190 302 189 0.23224997764228805 0.2864105071059576 0.0522551591915037
3 397 398 189 0.23224997764228805 0.2864105071059576 0.0522551591915037
3 301 188 189 0.23224997764228805 0.2864105071059576 0.0522551591915037
3 189 188 397 0.23224997764228805 0.2864105071059576 0.0522551591915037
3 49 50 193 0.23224997764228805 0.2864105071059576 0.0522551591915037
3 193 398 49 0.23224997764228805 0.2864105071059576 0.0522551591915037
3 47 187 299 0.23224997764228805 0.2864105071059576 0.0522551591915037
3 187 188 300 0.23224997764228805 0.2864105071059576 0.0522551591915037
3 184 299 300 0.23224997764228805 0.2864105071059576 0.0522551591915037
3 300 299 187 0.23224997764228805 0.2864105071059576 0.0522551591915037
3 301 184 300 0.23224997764228805 0.2864105071059576 0.0522551591915037
3 300 188 301 0.23224997764228805 0.2864105071059576 0.0522551591915037
3 207 292 208 0.23224997764228805 0.2864105071059576 0.0522551591915037
3 45 46 181 0.23224997764228805 0.2864105071059576 0.0522551591915037
3 291 292 207 0.23224997764228805 0.2864105071059576 0.0522551591915037
3 321 119 120 0.23224997764228805 0.2864105071059576 0.0522551591915037
3 321 320 119 0.23224997764228805 0.2864105071059576 0.0522551591915037
3 321 120 322 0.23224997764228805 0.2864105071059576 0.0522551591915037
3 322 416 321 0.23224997764228805 0.2864105071059576 0.0522551591915037
3 115 320 415 0.23224997764228805 0.2864105071059576 0.0522551591915037
3 415 321 416 0.23224997764228805 0.2864105071059576 0.0522551591915037
3 320 321 415 0.23224997764228805 0.2864105071059576 0.0522551591915037
3 416 407 415 0.23224997764228805 0.2864105071059576 0.0522551591915037
3 415 407 315 0.23224997764228805 0.2864105071059576 0.0522551591915037
3 458 119 457 0.23224997764228805 0.2864105071059576 0.0522551591915037
3 120 119 458 0.23224997764228805 0.2864105071059576 0.0522551591915037
3 457 125 458 0.23224997764228805 0.2864105071059576 0.0522551591915037
3 322 120 323 0.23224997764228805 0.2864105071059576 0.0522551591915037
3 120 324 323 0.23224997764228805 0.2864105071059576 0.0522551591915037
3 323 417 322 0.23224997764228805 0.2864105071059576 0.0522551591915037
3 323 324 417 0.23224997764228805 0.2864105071059576 0.0522551591915037
3 120 460 461 0.23224997764228805 0.2864105071059576 0.0522551591915037
3 461 324 120 0.23224997764228805 0.2864105071059576 0.0522551591915037
3 55 454 116 0.23224997764228805 0.2864105071059576 0.0522551591915037
3 117 318 116 0.23224997764228805 0.2864105071059576 0.0522551591915037
3 116 455 117 0.23224997764228805 0.2864105071059576 0.0522551591915037
3 116 454 455 0.23224997764228805 0.2864105071059576 0.0522551591915037
3 422 421 135 0.23224997764228805 0.2864105071059576 0.0522551591915037
3 56 57 121 0.23224997764228805 0.2864105071059576 0.0522551591915037
3 326 57 325 0.23224997764228805 0.2864105071059576 0.0522551591915037
3 124 456 455 0.23224997764228805 0.2864105071059576 0.0522551591915037
3 124 125 456 0.23224997764228805 0.2864105071059576 0.0522551591915037
3 124 455 123 0.23224997764228805 0.2864105071059576 0.0522551591915037
3 124 330 125 0.23224997764228805 0.2864105071059576 0.0522551591915037
3 374 429 428 0.23224997764228805 0.2864105071059576 0.0522551591915037
3 317 316 55 0.23224997764228805 0.2864105071059576 0.0522551591915037
3 55 116 317 0.23224997764228805 0.2864105071059576 0.0522551591915037
3 317 116 318 0.23224997764228805 0.2864105071059576 0.0522551591915037
3 114 316 317 0.23224997764228805 0.2864105071059576 0.0522551591915037
3 317 115 114 0.23224997764228805 0.2864105071059576 0.0522551591915037
3 317 318 115 0.23224997764228805 0.2864105071059576 0.0522551591915037
3 94 431 432 0.23224997764228805 0.2864105071059576 0.0522551591915037
3 432 99 433 0.23224997764228805 0.2864105071059576 0.0522551591915037
3 430 431 94 0.23224997764228805 0.2864105071059576 0.0522551591915037
3 430 97 431 0.23224997764228805 0.2864105071059576 0.0522551591915037
3 99 432 98 0.23224997764228805 0.2864105071059576 0.0522551591915037
3 431 97 98 0.23224997764228805 0.2864105071059576 0.0522551591915037
3 98 432 431 0.23224997764228805 0.2864105071059576 0.0522551591915037
3 248 156 240 0.23224997764228805 0.2864105071059576 0.0522551591915037
3 132 419 60 0.23224997764228805 0.2864105071059576 0.0522551591915037
3 132 230 231 0.23224997764228805 0.2864105071059576 0.0522551591915037
3 59 419 420 0.23224997764228805 0.2864105071059576 0.0522551591915037
3 420 421 59 0.23224997764228805 0.2864105071059576 0.0522551591915037
3 134 421 420 0.23224997764228805 0.2864105071059576 0.0522551591915037
3 59 421 126 0.23224997764228805 0.2864105071059576 0.0522551591915037
3 58 59 126 0.23224997764228805 0.2864105071059576 0.0522551591915037
3 242 243 359 0.23224997764228805 0.2864105071059576 0.0522551591915037
3 359 140 242 0.23224997764228805 0.2864105071059576 0.0522551591915037
3 145 156 241 0.23224997764228805 0.2864105071059576 0.0522551591915037
3 135 233 234 0.23224997764228805 0.2864105071059576 0.0522551591915037
3 234 422 135 0.23224997764228805 0.2864105071059576 0.0522551591915037
3 84 336 85 0.23224997764228805 0.2864105071059576 0.0522551591915037
3 335 336 84 0.23224997764228805 0.2864105071059576 0.0522551591915037
3 216 83 84 0.23224997764228805 0.2864105071059576 0.0522551591915037
3 84 83 335 0.23224997764228805 0.2864105071059576 0.0522551591915037
3 242 368 250 0.23224997764228805 0.2864105071059576 0.0522551591915037
3 250 243 242 0.23224997764228805 0.2864105071059576 0.0522551591915037
3 250 369 243 0.23224997764228805 0.2864105071059576 0.0522551591915037
3 80 369 250 0.23224997764228805 0.2864105071059576 0.0522551591915037
3 250 368 80 0.23224997764228805 0.2864105071059576 0.0522551591915037
3 22 81 21 0.23224997764228805 0.2864105071059576 0.0522551591915037
3 23 334 22 0.23224997764228805 0.2864105071059576 0.0522551591915037
3 79 368 249 0.23224997764228805 0.2864105071059576 0.0522551591915037
3 25 26 91 0.23224997764228805 0.2864105071059576 0.0522551591915037
3 26 92 91 0.23224997764228805 0.2864105071059576 0.0522551591915037
3 94 258 93 0.23224997764228805 0.2864105071059576 0.0522551591915037
3 93 430 94 0.23224997764228805 0.2864105071059576 0.0522551591915037
3 93 92 26 0.23224997764228805 0.2864105071059576 0.0522551591915037
3 26 430 93 0.23224997764228805 0.2864105071059576 0.0522551591915037
3 146 66 151 0.23224997764228805 0.2864105071059576 0.0522551591915037
3 146 236 66 0.23224997764228805 0.2864105071059576 0.0522551591915037
3 146 151 16 0.23224997764228805 0.2864105071059576 0.0522551591915037
3 16 236 146 0.23224997764228805 0.2864105071059576 0.0522551591915037
3 66 236 65 0.23224997764228805 0.2864105071059576 0.0522551591915037
3 39 289 205 0.23224997764228805 0.2864105071059576 0.0522551591915037
3 289 290 205 0.23224997764228805 0.2864105071059576 0.0522551591915037
3 227 295 226 0.23224997764228805 0.2864105071059576 0.0522551591915037
3 349 186 226 0.23224997764228805 0.2864105071059576 0.0522551591915037
3 226 186 227 0.23224997764228805 0.2864105071059576 0.0522551591915037
3 294 226 295 0.23224997764228805 0.2864105071059576 0.0522551591915037
3 39 205 38 0.23224997764228805 0.2864105071059576 0.0522551591915037
3 391 295 211 0.23224997764228805 0.2864105071059576 0.0522551591915037
3 295 392 211 0.23224997764228805 0.2864105071059576 0.0522551591915037
3 168 446 445 0.23224997764228805 0.2864105071059576 0.0522551591915037
3 277 379 378 0.23224997764228805 0.2864105071059576 0.0522551591915037
3 378 379 102 0.23224997764228805 0.2864105071059576 0.0522551591915037
3 265 264 105 0.23224997764228805 0.2864105071059576 0.0522551591915037
3 27 28 262 0.23224997764228805 0.2864105071059576 0.0522551591915037
3 28 103 262 0.23224997764228805 0.2864105071059576 0.0522551591915037
3 27 264 96 0.23224997764228805 0.2864105071059576 0.0522551591915037
3 97 430 96 0.23224997764228805 0.2864105071059576 0.0522551591915037
3 96 265 97 0.23224997764228805 0.2864105071059576 0.0522551591915037
3 264 265 96 0.23224997764228805 0.2864105071059576 0.0522551591915037
3 96 26 27 0.23224997764228805 0.2864105071059576 0.0522551591915037
3 96 430 26 0.23224997764228805 0.2864105071059576 0.0522551591915037
3 381 105 380 0.23224997764228805 0.2864105071059576 0.0522551591915037
3 380 279 381 0.23224997764228805 0.2864105071059576 0.0522551591915037
3 382 381 279 0.23224997764228805 0.2864105071059576 0.0522551591915037
3 105 381 382 0.23224997764228805 0.2864105071059576 0.0522551591915037
3 382 265 105 0.23224997764228805 0.2864105071059576 0.0522551591915037
3 310 201 311 0.23224997764228805 0.2864105071059576 0.0522551591915037
3 408 201 52 0.23224997764228805 0.2864105071059576 0.0522551591915037
3 52 53 408 0.23224997764228805 0.2864105071059576 0.0522551591915037
3 53 409 408 0.23224997764228805 0.2864105071059576 0.0522551591915037
3 113 112 54 0.23224997764228805 0.2864105071059576 0.0522551591915037
3 54 316 113 0.23224997764228805 0.2864105071059576 0.0522551591915037
3 113 316 114 0.23224997764228805 0.2864105071059576 0.0522551591915037
3 111 53 54 0.23224997764228805 0.2864105071059576 0.0522551591915037
3 54 112 111 0.23224997764228805 0.2864105071059576 0.0522551591915037
3 111 410 53 0.23224997764228805 0.2864105071059576 0.0522551591915037
3 51 309 308 0.23224997764228805 0.2864105071059576 0.0522551591915037
3 308 309 196 0.23224997764228805 0.2864105071059576 0.0522551591915037
3 308 307 51 0.23224997764228805 0.2864105071059576 0.0522551591915037
3 352 351 305 0.23224997764228805 0.2864105071059576 0.0522551591915037
3 305 403 352 0.23224997764228805 0.2864105071059576 0.0522551591915037
3 305 402 403 0.23224997764228805 0.2864105071059576 0.0522551591915037
3 304 351 192 0.23224997764228805 0.2864105071059576 0.0522551591915037
3 192 402 304 0.23224997764228805 0.2864105071059576 0.0522551591915037
3 304 305 351 0.23224997764228805 0.2864105071059576 0.0522551591915037
3 402 305 304 0.23224997764228805 0.2864105071059576 0.0522551591915037
3 196 309 197 0.23224997764228805 0.2864105071059576 0.0522551591915037
3 197 402 196 0.23224997764228805 0.2864105071059576 0.0522551591915037
3 197 309 310 0.23224997764228805 0.2864105071059576 0.0522551591915037
3 403 402 197 0.23224997764228805 0.2864105071059576 0.0522551591915037
3 395 449 288 0.23224997764228805 0.2864105071059576 0.0522551591915037
3 288 449 448 0.23224997764228805 0.2864105071059576 0.0522551591915037
3 394 395 288 0.23224997764228805 0.2864105071059576 0.0522551591915037
3 288 448 394 0.23224997764228805 0.2864105071059576 0.0522551591915037
3 161 448 162 0.23224997764228805 0.2864105071059576 0.0522551591915037
3 448 275 162 0.23224997764228805 0.2864105071059576 0.0522551591915037
3 448 449 276 0.23224997764228805 0.2864105071059576 0.0522551591915037
3 276 275 448 0.23224997764228805 0.2864105071059576 0.0522551591915037
3 276 449 277 0.23224997764228805 0.2864105071059576 0.0522551591915037
3 314 315 406 0.23224997764228805 0.2864105071059576 0.0522551591915037
3 406 405 314 0.23224997764228805 0.2864105071059576 0.0522551591915037
3 395 396 450 0.23224997764228805 0.2864105071059576 0.0522551591915037
3 450 396 278 0.23224997764228805 0.2864105071059576 0.0522551591915037
3 450 278 277 0.23224997764228805 0.2864105071059576 0.0522551591915037
3 277 449 450 0.23224997764228805 0.2864105071059576 0.0522551591915037
3 450 449 395 0.23224997764228805 0.2864105071059576 0.0522551591915037
3 313 314 405 0.23224997764228805 0.2864105071059576 0.0522551591915037
3 404 405 353 0.23224997764228805 0.2864105071059576 0.0522551591915037
3 353 306 404 0.23224997764228805 0.2864105071059576 0.0522551591915037
3 404 313 405 0.23224997764228805 0.2864105071059576 0.0522551591915037
3 312 313 404 0.23224997764228805 0.2864105071059576 0.0522551591915037
3 404 403 312 0.23224997764228805 0.2864105071059576 0.0522551591915037
3 404 306 403 0.23224997764228805 0.2864105071059576 0.0522551591915037
3 50 307 194 0.23224997764228805 0.2864105071059576 0.0522551591915037
3 194 193 50 0.23224997764228805 0.2864105071059576 0.0522551591915037
3 195 308 196 0.23224997764228805 0.2864105071059576 0.0522551591915037
3 307 308 195 0.23224997764228805 0.2864105071059576 0.0522551591915037
3 195 194 307 0.23224997764228805 0.2864105071059576 0.0522551591915037
3 190 398 399 0.23224997764228805 0.2864105071059576 0.0522551591915037
3 398 193 399 0.23224997764228805 0.2864105071059576 0.0522551591915037
3 193 194 399 0.23224997764228805 0.2864105071059576 0.0522551591915037
3 399 191 190 0.23224997764228805 0.2864105071059576 0.0522551591915037
3 183 299 184 0.23224997764228805 0.2864105071059576 0.0522551591915037
3 292 291 223 0.23224997764228805 0.2864105071059576 0.0522551591915037
3 207 386 206 0.23224997764228805 0.2864105071059576 0.0522551591915037
3 206 291 207 0.23224997764228805 0.2864105071059576 0.0522551591915037
3 290 291 206 0.23224997764228805 0.2864105071059576 0.0522551591915037
3 206 205 290 0.23224997764228805 0.2864105071059576 0.0522551591915037
3 386 38 206 0.23224997764228805 0.2864105071059576 0.0522551591915037
3 206 38 205 0.23224997764228805 0.2864105071059576 0.0522551591915037
3 222 291 290 0.23224997764228805 0.2864105071059576 0.0522551591915037
3 222 221 176 0.23224997764228805 0.2864105071059576 0.0522551591915037
3 290 221 222 0.23224997764228805 0.2864105071059576 0.0522551591915037
3 222 223 291 0.23224997764228805 0.2864105071059576 0.0522551591915037
3 459 460 120 0.23224997764228805 0.2864105071059576 0.0522551591915037
3 120 458 459 0.23224997764228805 0.2864105071059576 0.0522551591915037
3 459 125 332 0.23224997764228805 0.2864105071059576 0.0522551591915037
3 459 458 125 0.23224997764228805 0.2864105071059576 0.0522551591915037
3 95 432 433 0.23224997764228805 0.2864105071059576 0.0522551591915037
3 94 432 95 0.23224997764228805 0.2864105071059576 0.0522551591915037
3 95 258 94 0.23224997764228805 0.2864105071059576 0.0522551591915037
3 260 95 261 0.23224997764228805 0.2864105071059576 0.0522551591915037
3 434 95 433 0.23224997764228805 0.2864105071059576 0.0522551591915037
3 433 99 100 0.23224997764228805 0.2864105071059576 0.0522551591915037
3 100 434 433 0.23224997764228805 0.2864105071059576 0.0522551591915037
3 100 99 267 0.23224997764228805 0.2864105071059576 0.0522551591915037
3 267 268 100 0.23224997764228805 0.2864105071059576 0.0522551591915037
3 437 261 436 0.23224997764228805 0.2864105071059576 0.0522551591915037
3 436 100 437 0.23224997764228805 0.2864105071059576 0.0522551591915037
3 437 100 270 0.23224997764228805 0.2864105071059576 0.0522551591915037
3 463 324 462 0.23224997764228805 0.2864105071059576 0.0522551591915037
3 324 461 462 0.23224997764228805 0.2864105071059576 0.0522551591915037
3 462 429 463 0.23224997764228805 0.2864105071059576 0.0522551591915037
3 332 428 333 0.23224997764228805 0.2864105071059576 0.0522551591915037
3 333 428 429 0.23224997764228805 0.2864105071059576 0.0522551591915037
3 333 461 460 0.23224997764228805 0.2864105071059576 0.0522551591915037
3 429 462 333 0.23224997764228805 0.2864105071059576 0.0522551591915037
3 333 462 461 0.23224997764228805 0.2864105071059576 0.0522551591915037
3 333 459 332 0.23224997764228805 0.2864105071059576 0.0522551591915037
3 460 459 333 0.23224997764228805 0.2864105071059576 0.0522551591915037
3 122 121 328 0.23224997764228805 0.2864105071059576 0.0522551591915037
3 122 123 56 0.23224997764228805 0.2864105071059576 0.0522551591915037
3 56 121 122 0.23224997764228805 0.2864105071059576 0.0522551591915037
3 329 328 425 0.23224997764228805 0.2864105071059576 0.0522551591915037
3 123 122 329 0.23224997764228805 0.2864105071059576 0.0522551591915037
3 329 122 328 0.23224997764228805 0.2864105071059576 0.0522551591915037
3 329 124 123 0.23224997764228805 0.2864105071059576 0.0522551591915037
3 330 124 329 0.23224997764228805 0.2864105071059576 0.0522551591915037
3 427 363 374 0.23224997764228805 0.2864105071059576 0.0522551591915037
3 374 428 427 0.23224997764228805 0.2864105071059576 0.0522551591915037
3 427 428 332 0.23224997764228805 0.2864105071059576 0.0522551591915037
3 332 125 331 0.23224997764228805 0.2864105071059576 0.0522551591915037
3 125 330 331 0.23224997764228805 0.2864105071059576 0.0522551591915037
3 331 427 332 0.23224997764228805 0.2864105071059576 0.0522551591915037
3 330 427 331 0.23224997764228805 0.2864105071059576 0.0522551591915037
3 325 128 129 0.23224997764228805 0.2864105071059576 0.0522551591915037
3 129 326 325 0.23224997764228805 0.2864105071059576 0.0522551591915037
3 463 429 464 0.23224997764228805 0.2864105071059576 0.0522551591915037
3 429 465 464 0.23224997764228805 0.2864105071059576 0.0522551591915037
3 464 324 463 0.23224997764228805 0.2864105071059576 0.0522551591915037
3 418 324 464 0.23224997764228805 0.2864105071059576 0.0522551591915037
3 464 465 418 0.23224997764228805 0.2864105071059576 0.0522551591915037
3 441 465 429 0.23224997764228805 0.2864105071059576 0.0522551591915037
3 74 248 240 0.23224997764228805 0.2864105071059576 0.0522551591915037
3 366 248 74 0.23224997764228805 0.2864105071059576 0.0522551591915037
3 20 21 212 0.23224997764228805 0.2864105071059576 0.0522551591915037
3 367 212 78 0.23224997764228805 0.2864105071059576 0.0522551591915037
3 156 248 367 0.23224997764228805 0.2864105071059576 0.0522551591915037
3 133 132 231 0.23224997764228805 0.2864105071059576 0.0522551591915037
3 419 132 133 0.23224997764228805 0.2864105071059576 0.0522551591915037
3 133 420 419 0.23224997764228805 0.2864105071059576 0.0522551591915037
3 134 420 133 0.23224997764228805 0.2864105071059576 0.0522551591915037
3 230 132 131 0.23224997764228805 0.2864105071059576 0.0522551591915037
3 131 60 61 0.23224997764228805 0.2864105071059576 0.0522551591915037
3 131 132 60 0.23224997764228805 0.2864105071059576 0.0522551591915037
3 421 422 127 0.23224997764228805 0.2864105071059576 0.0522551591915037
3 127 126 421 0.23224997764228805 0.2864105071059576 0.0522551591915037
3 127 422 128 0.23224997764228805 0.2864105071059576 0.0522551591915037
3 127 128 58 0.23224997764228805 0.2864105071059576 0.0522551591915037
3 58 126 127 0.23224997764228805 0.2864105071059576 0.0522551591915037
3 232 233 134 0.23224997764228805 0.2864105071059576 0.0522551591915037
3 134 133 232 0.23224997764228805 0.2864105071059576 0.0522551591915037
3 232 133 231 0.23224997764228805 0.2864105071059576 0.0522551591915037
3 231 140 232 0.23224997764228805 0.2864105071059576 0.0522551591915037
3 140 359 232 0.23224997764228805 0.2864105071059576 0.0522551591915037
3 61 62 228 0.23224997764228805 0.2864105071059576 0.0522551591915037
3 357 145 139 0.23224997764228805 0.2864105071059576 0.0522551591915037
3 139 138 357 0.23224997764228805 0.2864105071059576 0.0522551591915037
3 140 230 139 0.23224997764228805 0.2864105071059576 0.0522551591915037
3 361 234 233 0.23224997764228805 0.2864105071059576 0.0522551591915037
3 128 422 423 0.23224997764228805 0.2864105071059576 0.0522551591915037
3 422 234 423 0.23224997764228805 0.2864105071059576 0.0522551591915037
3 423 129 128 0.23224997764228805 0.2864105071059576 0.0522551591915037
3 334 83 82 0.23224997764228805 0.2864105071059576 0.0522551591915037
3 82 22 334 0.23224997764228805 0.2864105071059576 0.0522551591915037
3 81 22 82 0.23224997764228805 0.2864105071059576 0.0522551591915037
3 81 79 213 0.23224997764228805 0.2864105071059576 0.0522551591915037
3 213 79 78 0.23224997764228805 0.2864105071059576 0.0522551591915037
3 21 81 213 0.23224997764228805 0.2864105071059576 0.0522551591915037
3 213 212 21 0.23224997764228805 0.2864105071059576 0.0522551591915037
3 78 212 213 0.23224997764228805 0.2864105071059576 0.0522551591915037
3 86 24 87 0.23224997764228805 0.2864105071059576 0.0522551591915037
3 24 88 87 0.23224997764228805 0.2864105071059576 0.0522551591915037
3 258 342 341 0.23224997764228805 0.2864105071059576 0.0522551591915037
3 364 18 19 0.23224997764228805 0.2864105071059576 0.0522551591915037
3 364 72 18 0.23224997764228805 0.2864105071059576 0.0522551591915037
3 19 73 364 0.23224997764228805 0.2864105071059576 0.0522551591915037
3 19 76 365 0.23224997764228805 0.2864105071059576 0.0522551591915037
3 365 73 19 0.23224997764228805 0.2864105071059576 0.0522551591915037
3 210 295 391 0.23224997764228805 0.2864105071059576 0.0522551591915037
3 210 294 295 0.23224997764228805 0.2864105071059576 0.0522551591915037
3 226 294 180 0.23224997764228805 0.2864105071059576 0.0522551591915037
3 180 185 349 0.23224997764228805 0.2864105071059576 0.0522551591915037
3 349 226 180 0.23224997764228805 0.2864105071059576 0.0522551591915037
3 37 386 207 0.23224997764228805 0.2864105071059576 0.0522551591915037
3 37 38 386 0.23224997764228805 0.2864105071059576 0.0522551591915037
3 207 208 388 0.23224997764228805 0.2864105071059576 0.0522551591915037
3 159 445 446 0.23224997764228805 0.2864105071059576 0.0522551591915037
3 446 160 159 0.23224997764228805 0.2864105071059576 0.0522551591915037
3 285 392 296 0.23224997764228805 0.2864105071059576 0.0522551591915037
3 296 393 285 0.23224997764228805 0.2864105071059576 0.0522551591915037
3 285 393 168 0.23224997764228805 0.2864105071059576 0.0522551591915037
3 168 445 285 0.23224997764228805 0.2864105071059576 0.0522551591915037
3 263 264 27 0.23224997764228805 0.2864105071059576 0.0522551591915037
3 27 262 263 0.23224997764228805 0.2864105071059576 0.0522551591915037
3 105 264 263 0.23224997764228805 0.2864105071059576 0.0522551591915037
3 104 262 103 0.23224997764228805 0.2864105071059576 0.0522551591915037
3 380 105 104 0.23224997764228805 0.2864105071059576 0.0522551591915037
3 104 103 380 0.23224997764228805 0.2864105071059576 0.0522551591915037
3 105 263 104 0.23224997764228805 0.2864105071059576 0.0522551591915037
3 104 263 262 0.23224997764228805 0.2864105071059576 0.0522551591915037
3 452 279 451 0.23224997764228805 0.2864105071059576 0.0522551591915037
3 452 382 279 0.23224997764228805 0.2864105071059576 0.0522551591915037
3 451 396 452 0.23224997764228805 0.2864105071059576 0.0522551591915037
3 452 396 407 0.23224997764228805 0.2864105071059576 0.0522551591915037
3 452 407 453 0.23224997764228805 0.2864105071059576 0.0522551591915037
3 453 384 452 0.23224997764228805 0.2864105071059576 0.0522551591915037
3 265 382 266 0.23224997764228805 0.2864105071059576 0.0522551591915037
3 267 99 266 0.23224997764228805 0.2864105071059576 0.0522551591915037
3 99 98 266 0.23224997764228805 0.2864105071059576 0.0522551591915037
3 266 98 97 0.23224997764228805 0.2864105071059576 0.0522551591915037
3 97 265 266 0.23224997764228805 0.2864105071059576 0.0522551591915037
3 312 403 198 0.23224997764228805 0.2864105071059576 0.0522551591915037
3 198 311 312 0.23224997764228805 0.2864105071059576 0.0522551591915037
3 310 311 198 0.23224997764228805 0.2864105071059576 0.0522551591915037
3 198 197 310 0.23224997764228805 0.2864105071059576 0.0522551591915037
3 403 197 198 0.23224997764228805 0.2864105071059576 0.0522551591915037
3 312 311 202 0.23224997764228805 0.2864105071059576 0.0522551591915037
3 202 311 201 0.23224997764228805 0.2864105071059576 0.0522551591915037
3 202 409 410 0.23224997764228805 0.2864105071059576 0.0522551591915037
3 202 408 409 0.23224997764228805 0.2864105071059576 0.0522551591915037
3 201 408 202 0.23224997764228805 0.2864105071059576 0.0522551591915037
3 114 115 413 0.23224997764228805 0.2864105071059576 0.0522551591915037
3 315 314 413 0.23224997764228805 0.2864105071059576 0.0522551591915037
3 203 313 312 0.23224997764228805 0.2864105071059576 0.0522551591915037
3 312 202 203 0.23224997764228805 0.2864105071059576 0.0522551591915037
3 203 202 410 0.23224997764228805 0.2864105071059576 0.0522551591915037
3 401 195 196 0.23224997764228805 0.2864105071059576 0.0522551591915037
3 401 402 192 0.23224997764228805 0.2864105071059576 0.0522551591915037
3 196 402 401 0.23224997764228805 0.2864105071059576 0.0522551591915037
3 194 195 400 0.23224997764228805 0.2864105071059576 0.0522551591915037
3 191 399 400 0.23224997764228805 0.2864105071059576 0.0522551591915037
3 400 399 194 0.23224997764228805 0.2864105071059576 0.0522551591915037
3 195 401 400 0.23224997764228805 0.2864105071059576 0.0522551591915037
3 192 191 400 0.23224997764228805 0.2864105071059576 0.0522551591915037
3 400 401 192 0.23224997764228805 0.2864105071059576 0.0522551591915037
3 294 209 293 0.23224997764228805 0.2864105071059576 0.0522551591915037
3 224 179 293 0.23224997764228805 0.2864105071059576 0.0522551591915037
3 292 224 293 0.23224997764228805 0.2864105071059576 0.0522551591915037
3 293 208 292 0.23224997764228805 0.2864105071059576 0.0522551591915037
3 389 208 293 0.23224997764228805 0.2864105071059576 0.0522551591915037
3 293 209 389 0.23224997764228805 0.2864105071059576 0.0522551591915037
3 178 224 292 0.23224997764228805 0.2864105071059576 0.0522551591915037
3 292 223 178 0.23224997764228805 0.2864105071059576 0.0522551591915037
3 223 346 178 0.23224997764228805 0.2864105071059576 0.0522551591915037
3 178 346 183 0.23224997764228805 0.2864105071059576 0.0522551591915037
3 223 222 177 0.23224997764228805 0.2864105071059576 0.0522551591915037
3 177 346 223 0.23224997764228805 0.2864105071059576 0.0522551591915037
3 258 95 259 0.23224997764228805 0.2864105071059576 0.0522551591915037
3 259 95 260 0.23224997764228805 0.2864105071059576 0.0522551591915037
3 259 342 258 0.23224997764228805 0.2864105071059576 0.0522551591915037
3 260 342 259 0.23224997764228805 0.2864105071059576 0.0522551591915037
3 343 429 374 0.23224997764228805 0.2864105071059576 0.0522551591915037
3 343 261 429 0.23224997764228805 0.2864105071059576 0.0522551591915037
3 260 261 343 0.23224997764228805 0.2864105071059576 0.0522551591915037
3 374 342 343 0.23224997764228805 0.2864105071059576 0.0522551591915037
3 343 342 260 0.23224997764228805 0.2864105071059576 0.0522551591915037
3 435 100 436 0.23224997764228805 0.2864105071059576 0.0522551591915037
3 434 100 435 0.23224997764228805 0.2864105071059576 0.0522551591915037
3 95 434 435 0.23224997764228805 0.2864105071059576 0.0522551591915037
3 436 261 435 0.23224997764228805 0.2864105071059576 0.0522551591915037
3 435 261 95 0.23224997764228805 0.2864105071059576 0.0522551591915037
3 270 100 269 0.23224997764228805 0.2864105071059576 0.0522551591915037
3 269 100 268 0.23224997764228805 0.2864105071059576 0.0522551591915037
3 269 384 270 0.23224997764228805 0.2864105071059576 0.0522551591915037
3 268 384 269 0.23224997764228805 0.2864105071059576 0.0522551591915037
3 439 261 438 0.23224997764228805 0.2864105071059576 0.0522551591915037
3 261 437 438 0.23224997764228805 0.2864105071059576 0.0522551591915037
3 438 270 439 0.23224997764228805 0.2864105071059576 0.0522551591915037
3 438 437 270 0.23224997764228805 0.2864105071059576 0.0522551591915037
3 426 329 425 0.23224997764228805 0.2864105071059576 0.0522551591915037
3 330 329 426 0.23224997764228805 0.2864105071059576 0.0522551591915037
3 426 427 330 0.23224997764228805 0.2864105071059576 0.0522551591915037
3 425 363 426 0.23224997764228805 0.2864105071059576 0.0522551591915037
3 363 427 426 0.23224997764228805 0.2864105071059576 0.0522551591915037
3 425 328 130 0.23224997764228805 0.2864105071059576 0.0522551591915037
3 440 441 429 0.23224997764228805 0.2864105071059576 0.0522551591915037
3 440 261 439 0.23224997764228805 0.2864105071059576 0.0522551591915037
3 429 261 440 0.23224997764228805 0.2864105071059576 0.0522551591915037
3 439 270 440 0.23224997764228805 0.2864105071059576 0.0522551591915037
3 465 441 466 0.23224997764228805 0.2864105071059576 0.0522551591915037
3 453 418 466 0.23224997764228805 0.2864105071059576 0.0522551591915037
3 418 465 466 0.23224997764228805 0.2864105071059576 0.0522551591915037
3 212 367 77 0.23224997764228805 0.2864105071059576 0.0522551591915037
3 77 366 20 0.23224997764228805 0.2864105071059576 0.0522551591915037
3 20 212 77 0.23224997764228805 0.2864105071059576 0.0522551591915037
3 77 248 366 0.23224997764228805 0.2864105071059576 0.0522551591915037
3 77 367 248 0.23224997764228805 0.2864105071059576 0.0522551591915037
3 156 367 75 0.23224997764228805 0.2864105071059576 0.0522551591915037
3 249 241 75 0.23224997764228805 0.2864105071059576 0.0522551591915037
3 75 241 156 0.23224997764228805 0.2864105071059576 0.0522551591915037
3 75 367 78 0.23224997764228805 0.2864105071059576 0.0522551591915037
3 75 79 249 0.23224997764228805 0.2864105071059576 0.0522551591915037
3 78 79 75 0.23224997764228805 0.2864105071059576 0.0522551591915037
3 360 359 243 0.23224997764228805 0.2864105071059576 0.0522551591915037
3 360 232 359 0.23224997764228805 0.2864105071059576 0.0522551591915037
3 233 232 360 0.23224997764228805 0.2864105071059576 0.0522551591915037
3 243 361 360 0.23224997764228805 0.2864105071059576 0.0522551591915037
3 360 361 233 0.23224997764228805 0.2864105071059576 0.0522551591915037
3 357 138 137 0.23224997764228805 0.2864105071059576 0.0522551591915037
3 138 228 137 0.23224997764228805 0.2864105071059576 0.0522551591915037
3 137 228 62 0.23224997764228805 0.2864105071059576 0.0522551591915037
3 145 241 358 0.23224997764228805 0.2864105071059576 0.0522551591915037
3 358 139 145 0.23224997764228805 0.2864105071059576 0.0522551591915037
3 249 242 358 0.23224997764228805 0.2864105071059576 0.0522551591915037
3 358 241 249 0.23224997764228805 0.2864105071059576 0.0522551591915037
3 242 140 358 0.23224997764228805 0.2864105071059576 0.0522551591915037
3 140 139 358 0.23224997764228805 0.2864105071059576 0.0522551591915037
3 138 139 229 0.23224997764228805 0.2864105071059576 0.0522551591915037
3 229 131 61 0.23224997764228805 0.2864105071059576 0.0522551591915037
3 230 131 229 0.23224997764228805 0.2864105071059576 0.0522551591915037
3 229 139 230 0.23224997764228805 0.2864105071059576 0.0522551591915037
3 61 228 229 0.23224997764228805 0.2864105071059576 0.0522551591915037
3 229 228 138 0.23224997764228805 0.2864105071059576 0.0522551591915037
3 215 82 83 0.23224997764228805 0.2864105071059576 0.0522551591915037
3 215 83 216 0.23224997764228805 0.2864105071059576 0.0522551591915037
3 216 369 215 0.23224997764228805 0.2864105071059576 0.0522551591915037
3 215 369 80 0.23224997764228805 0.2864105071059576 0.0522551591915037
3 80 368 214 0.23224997764228805 0.2864105071059576 0.0522551591915037
3 368 79 214 0.23224997764228805 0.2864105071059576 0.0522551591915037
3 214 215 80 0.23224997764228805 0.2864105071059576 0.0522551591915037
3 82 215 214 0.23224997764228805 0.2864105071059576 0.0522551591915037
3 214 79 81 0.23224997764228805 0.2864105071059576 0.0522551591915037
3 81 82 214 0.23224997764228805 0.2864105071059576 0.0522551591915037
3 25 91 255 0.23224997764228805 0.2864105071059576 0.0522551591915037
3 147 65 236 0.23224997764228805 0.2864105071059576 0.0522551591915037
3 147 237 65 0.23224997764228805 0.2864105071059576 0.0522551591915037
3 245 147 17 0.23224997764228805 0.2864105071059576 0.0522551591915037
3 237 147 245 0.23224997764228805 0.2864105071059576 0.0522551591915037
3 154 73 149 0.23224997764228805 0.2864105071059576 0.0522551591915037
3 154 364 73 0.23224997764228805 0.2864105071059576 0.0522551591915037
3 72 364 154 0.23224997764228805 0.2864105071059576 0.0522551591915037
3 149 238 154 0.23224997764228805 0.2864105071059576 0.0522551591915037
3 366 74 155 0.23224997764228805 0.2864105071059576 0.0522551591915037
3 155 76 366 0.23224997764228805 0.2864105071059576 0.0522551591915037
3 155 365 76 0.23224997764228805 0.2864105071059576 0.0522551591915037
3 149 73 247 0.23224997764228805 0.2864105071059576 0.0522551591915037
3 247 239 149 0.23224997764228805 0.2864105071059576 0.0522551591915037
3 247 155 239 0.23224997764228805 0.2864105071059576 0.0522551591915037
3 73 365 247 0.23224997764228805 0.2864105071059576 0.0522551591915037
3 365 155 247 0.23224997764228805 0.2864105071059576 0.0522551591915037
3 136 62 63 0.23224997764228805 0.2864105071059576 0.0522551591915037
3 136 137 62 0.23224997764228805 0.2864105071059576 0.0522551591915037
3 390 209 294 0.23224997764228805 0.2864105071059576 0.0522551591915037
3 294 210 390 0.23224997764228805 0.2864105071059576 0.0522551591915037
3 283 390 210 0.23224997764228805 0.2864105071059576 0.0522551591915037
3 347 179 224 0.23224997764228805 0.2864105071059576 0.0522551591915037
3 224 178 347 0.23224997764228805 0.2864105071059576 0.0522551591915037
3 347 178 183 0.23224997764228805 0.2864105071059576 0.0522551591915037
3 347 183 184 0.23224997764228805 0.2864105071059576 0.0522551591915037
3 184 179 347 0.23224997764228805 0.2864105071059576 0.0522551591915037
3 185 180 348 0.23224997764228805 0.2864105071059576 0.0522551591915037
3 348 184 301 0.23224997764228805 0.2864105071059576 0.0522551591915037
3 301 185 348 0.23224997764228805 0.2864105071059576 0.0522551591915037
3 348 179 184 0.23224997764228805 0.2864105071059576 0.0522551591915037
3 36 37 169 0.23224997764228805 0.2864105071059576 0.0522551591915037
3 207 388 169 0.23224997764228805 0.2864105071059576 0.0522551591915037
3 169 388 36 0.23224997764228805 0.2864105071059576 0.0522551591915037
3 174 211 392 0.23224997764228805 0.2864105071059576 0.0522551591915037
3 158 271 32 0.23224997764228805 0.2864105071059576 0.0522551591915037
3 158 159 271 0.23224997764228805 0.2864105071059576 0.0522551591915037
3 445 159 158 0.23224997764228805 0.2864105071059576 0.0522551591915037
3 167 285 445 0.23224997764228805 0.2864105071059576 0.0522551591915037
3 445 158 167 0.23224997764228805 0.2864105071059576 0.0522551591915037
3 392 285 167 0.23224997764228805 0.2864105071059576 0.0522551591915037
3 167 174 392 0.23224997764228805 0.2864105071059576 0.0522551591915037
3 385 384 453 0.23224997764228805 0.2864105071059576 0.0522551591915037
3 270 384 385 0.23224997764228805 0.2864105071059576 0.0522551591915037
3 453 466 385 0.23224997764228805 0.2864105071059576 0.0522551591915037
3 385 466 441 0.23224997764228805 0.2864105071059576 0.0522551591915037
3 385 440 270 0.23224997764228805 0.2864105071059576 0.0522551591915037
3 441 440 385 0.23224997764228805 0.2864105071059576 0.0522551591915037
3 382 452 383 0.23224997764228805 0.2864105071059576 0.0522551591915037
3 383 452 384 0.23224997764228805 0.2864105071059576 0.0522551591915037
3 267 266 383 0.23224997764228805 0.2864105071059576 0.0522551591915037
3 383 266 382 0.23224997764228805 0.2864105071059576 0.0522551591915037
3 383 268 267 0.23224997764228805 0.2864105071059576 0.0522551591915037
3 383 384 268 0.23224997764228805 0.2864105071059576 0.0522551591915037
3 101 102 28 0.23224997764228805 0.2864105071059576 0.0522551591915037
3 28 29 101 0.23224997764228805 0.2864105071059576 0.0522551591915037
3 101 378 102 0.23224997764228805 0.2864105071059576 0.0522551591915037
3 274 162 275 0.23224997764228805 0.2864105071059576 0.0522551591915037
3 161 162 274 0.23224997764228805 0.2864105071059576 0.0522551591915037
3 273 160 161 0.23224997764228805 0.2864105071059576 0.0522551591915037
3 161 274 273 0.23224997764228805 0.2864105071059576 0.0522551591915037
3 273 274 107 0.23224997764228805 0.2864105071059576 0.0522551591915037
3 314 313 204 0.23224997764228805 0.2864105071059576 0.0522551591915037
3 313 203 204 0.23224997764228805 0.2864105071059576 0.0522551591915037
3 115 415 414 0.23224997764228805 0.2864105071059576 0.0522551591915037
3 414 413 115 0.23224997764228805 0.2864105071059576 0.0522551591915037
3 414 415 315 0.23224997764228805 0.2864105071059576 0.0522551591915037
3 315 413 414 0.23224997764228805 0.2864105071059576 0.0522551591915037
3 35 163 34 0.23224997764228805 0.2864105071059576 0.0522551591915037
3 47 299 298 0.23224997764228805 0.2864105071059576 0.0522551591915037
3 299 183 298 0.23224997764228805 0.2864105071059576 0.0522551591915037
3 298 46 47 0.23224997764228805 0.2864105071059576 0.0522551591915037
3 181 346 345 0.23224997764228805 0.2864105071059576 0.0522551591915037
3 346 177 345 0.23224997764228805 0.2864105071059576 0.0522551591915037
3 45 181 345 0.23224997764228805 0.2864105071059576 0.0522551591915037
3 345 344 45 0.23224997764228805 0.2864105071059576 0.0522551591915037
3 176 344 345 0.23224997764228805 0.2864105071059576 0.0522551591915037
3 345 222 176 0.23224997764228805 0.2864105071059576 0.0522551591915037
3 345 177 222 0.23224997764228805 0.2864105071059576 0.0522551591915037
3 326 129 327 0.23224997764228805 0.2864105071059576 0.0522551591915037
3 129 130 327 0.23224997764228805 0.2864105071059576 0.0522551591915037
3 327 130 328 0.23224997764228805 0.2864105071059576 0.0522551591915037
3 328 121 327 0.23224997764228805 0.2864105071059576 0.0522551591915037
3 327 121 57 0.23224997764228805 0.2864105071059576 0.0522551591915037
3 57 326 327 0.23224997764228805 0.2864105071059576 0.0522551591915037
3 129 423 424 0.23224997764228805 0.2864105071059576 0.0522551591915037
3 424 130 129 0.23224997764228805 0.2864105071059576 0.0522551591915037
3 425 130 424 0.23224997764228805 0.2864105071059576 0.0522551591915037
3 424 423 234 0.23224997764228805 0.2864105071059576 0.0522551591915037
3 251 361 243 0.23224997764228805 0.2864105071059576 0.0522551591915037
3 251 371 361 0.23224997764228805 0.2864105071059576 0.0522551591915037
3 243 369 251 0.23224997764228805 0.2864105071059576 0.0522551591915037
3 256 91 92 0.23224997764228805 0.2864105071059576 0.0522551591915037
3 256 255 91 0.23224997764228805 0.2864105071059576 0.0522551591915037
3 253 88 24 0.23224997764228805 0.2864105071059576 0.0522551591915037
3 253 24 25 0.23224997764228805 0.2864105071059576 0.0522551591915037
3 152 236 244 0.23224997764228805 0.2864105071059576 0.0522551591915037
3 152 147 236 0.23224997764228805 0.2864105071059576 0.0522551591915037
3 152 244 17 0.23224997764228805 0.2864105071059576 0.0522551591915037
3 17 147 152 0.23224997764228805 0.2864105071059576 0.0522551591915037
3 17 18 71 0.23224997764228805 0.2864105071059576 0.0522551591915037
3 71 245 17 0.23224997764228805 0.2864105071059576 0.0522551591915037
3 148 238 142 0.23224997764228805 0.2864105071059576 0.0522551591915037
3 65 237 141 0.23224997764228805 0.2864105071059576 0.0522551591915037
3 141 64 65 0.23224997764228805 0.2864105071059576 0.0522551591915037
3 237 148 141 0.23224997764228805 0.2864105071059576 0.0522551591915037
3 142 64 141 0.23224997764228805 0.2864105071059576 0.0522551591915037
3 141 148 142 0.23224997764228805 0.2864105071059576 0.0522551591915037
3 63 64 354 0.23224997764228805 0.2864105071059576 0.0522551591915037
3 354 64 142 0.23224997764228805 0.2864105071059576 0.0522551591915037
3 142 238 354 0.23224997764228805 0.2864105071059576 0.0522551591915037
3 72 154 246 0.23224997764228805 0.2864105071059576 0.0522551591915037
3 246 154 238 0.23224997764228805 0.2864105071059576 0.0522551591915037
3 238 148 246 0.23224997764228805 0.2864105071059576 0.0522551591915037
3 18 72 246 0.23224997764228805 0.2864105071059576 0.0522551591915037
3 240 357 144 0.23224997764228805 0.2864105071059576 0.0522551591915037
3 357 137 144 0.23224997764228805 0.2864105071059576 0.0522551591915037
3 355 136 63 0.23224997764228805 0.2864105071059576 0.0522551591915037
3 63 354 355 0.23224997764228805 0.2864105071059576 0.0522551591915037
3 209 390 172 0.23224997764228805 0.2864105071059576 0.0522551591915037
3 173 210 391 0.23224997764228805 0.2864105071059576 0.0522551591915037
3 173 283 210 0.23224997764228805 0.2864105071059576 0.0522551591915037
3 165 443 33 0.23224997764228805 0.2864105071059576 0.0522551591915037
3 165 173 391 0.23224997764228805 0.2864105071059576 0.0522551591915037
3 283 173 165 0.23224997764228805 0.2864105071059576 0.0522551591915037
3 225 180 294 0.23224997764228805 0.2864105071059576 0.0522551591915037
3 225 348 180 0.23224997764228805 0.2864105071059576 0.0522551591915037
3 179 348 225 0.23224997764228805 0.2864105071059576 0.0522551591915037
3 294 293 225 0.23224997764228805 0.2864105071059576 0.0522551591915037
3 225 293 179 0.23224997764228805 0.2864105071059576 0.0522551591915037
3 387 37 207 0.23224997764228805 0.2864105071059576 0.0522551591915037
3 207 169 387 0.23224997764228805 0.2864105071059576 0.0522551591915037
3 387 169 37 0.23224997764228805 0.2864105071059576 0.0522551591915037
3 284 174 166 0.23224997764228805 0.2864105071059576 0.0522551591915037
3 284 165 391 0.23224997764228805 0.2864105071059576 0.0522551591915037
3 391 211 284 0.23224997764228805 0.2864105071059576 0.0522551591915037
3 211 174 284 0.23224997764228805 0.2864105071059576 0.0522551591915037
3 166 443 284 0.23224997764228805 0.2864105071059576 0.0522551591915037
3 443 165 284 0.23224997764228805 0.2864105071059576 0.0522551591915037
3 444 167 158 0.23224997764228805 0.2864105071059576 0.0522551591915037
3 166 174 444 0.23224997764228805 0.2864105071059576 0.0522551591915037
3 174 167 444 0.23224997764228805 0.2864105071059576 0.0522551591915037
3 277 378 110 0.23224997764228805 0.2864105071059576 0.0522551591915037
3 110 276 277 0.23224997764228805 0.2864105071059576 0.0522551591915037
3 29 376 377 0.23224997764228805 0.2864105071059576 0.0522551591915037
3 378 101 377 0.23224997764228805 0.2864105071059576 0.0522551591915037
3 377 101 29 0.23224997764228805 0.2864105071059576 0.0522551591915037
3 377 110 378 0.23224997764228805 0.2864105071059576 0.0522551591915037
3 376 110 377 0.23224997764228805 0.2864105071059576 0.0522551591915037
3 375 29 30 0.23224997764228805 0.2864105071059576 0.0522551591915037
3 375 376 29 0.23224997764228805 0.2864105071059576 0.0522551591915037
3 160 273 272 0.23224997764228805 0.2864105071059576 0.0522551591915037
3 271 159 272 0.23224997764228805 0.2864105071059576 0.0522551591915037
3 272 159 160 0.23224997764228805 0.2864105071059576 0.0522551591915037
3 412 413 314 0.23224997764228805 0.2864105071059576 0.0522551591915037
3 314 204 412 0.23224997764228805 0.2864105071059576 0.0522551591915037
3 412 113 114 0.23224997764228805 0.2864105071059576 0.0522551591915037
3 114 413 412 0.23224997764228805 0.2864105071059576 0.0522551591915037
3 112 113 412 0.23224997764228805 0.2864105071059576 0.0522551591915037
3 280 35 36 0.23224997764228805 0.2864105071059576 0.0522551591915037
3 163 35 281 0.23224997764228805 0.2864105071059576 0.0522551591915037
3 389 209 281 0.23224997764228805 0.2864105071059576 0.0522551591915037
3 209 172 281 0.23224997764228805 0.2864105071059576 0.0522551591915037
3 281 172 163 0.23224997764228805 0.2864105071059576 0.0522551591915037
3 183 346 182 0.23224997764228805 0.2864105071059576 0.0522551591915037
3 182 298 183 0.23224997764228805 0.2864105071059576 0.0522551591915037
3 46 298 182 0.23224997764228805 0.2864105071059576 0.0522551591915037
3 182 181 46 0.23224997764228805 0.2864105071059576 0.0522551591915037
3 182 346 181 0.23224997764228805 0.2864105071059576 0.0522551591915037
3 216 84 217 0.23224997764228805 0.2864105071059576 0.0522551591915037
3 217 84 85 0.23224997764228805 0.2864105071059576 0.0522551591915037
3 218 217 85 0.23224997764228805 0.2864105071059576 0.0522551591915037
3 371 217 218 0.23224997764228805 0.2864105071059576 0.0522551591915037
3 89 338 88 0.23224997764228805 0.2864105071059576 0.0522551591915037
3 88 253 89 0.23224997764228805 0.2864105071059576 0.0522551591915037
3 235 424 234 0.23224997764228805 0.2864105071059576 0.0522551591915037
3 425 424 235 0.23224997764228805 0.2864105071059576 0.0522551591915037
3 235 363 425 0.23224997764228805 0.2864105071059576 0.0522551591915037
3 361 371 252 0.23224997764228805 0.2864105071059576 0.0522551591915037
3 371 218 252 0.23224997764228805 0.2864105071059576 0.0522551591915037
3 252 218 372 0.23224997764228805 0.2864105071059576 0.0522551591915037
3 363 372 373 0.23224997764228805 0.2864105071059576 0.0522551591915037
3 373 341 342 0.23224997764228805 0.2864105071059576 0.0522551591915037
3 374 363 373 0.23224997764228805 0.2864105071059576 0.0522551591915037
3 373 342 374 0.23224997764228805 0.2864105071059576 0.0522551591915037
3 258 341 257 0.23224997764228805 0.2864105071059576 0.0522551591915037
3 257 93 258 0.23224997764228805 0.2864105071059576 0.0522551591915037
3 92 93 257 0.23224997764228805 0.2864105071059576 0.0522551591915037
3 257 256 92 0.23224997764228805 0.2864105071059576 0.0522551591915037
3 237 245 153 0.23224997764228805 0.2864105071059576 0.0522551591915037
3 153 148 237 0.23224997764228805 0.2864105071059576 0.0522551591915037
3 245 71 153 0.23224997764228805 0.2864105071059576 0.0522551591915037
3 153 71 18 0.23224997764228805 0.2864105071059576 0.0522551591915037
3 18 246 153 0.23224997764228805 0.2864105071059576 0.0522551591915037
3 153 246 148 0.23224997764228805 0.2864105071059576 0.0522551591915037
3 239 155 150 0.23224997764228805 0.2864105071059576 0.0522551591915037
3 240 144 150 0.23224997764228805 0.2864105071059576 0.0522551591915037
3 150 74 240 0.23224997764228805 0.2864105071059576 0.0522551591915037
3 150 155 74 0.23224997764228805 0.2864105071059576 0.0522551591915037
3 137 136 356 0.23224997764228805 0.2864105071059576 0.0522551591915037
3 356 144 137 0.23224997764228805 0.2864105071059576 0.0522551591915037
3 136 355 356 0.23224997764228805 0.2864105071059576 0.0522551591915037
3 356 355 239 0.23224997764228805 0.2864105071059576 0.0522551591915037
3 239 150 356 0.23224997764228805 0.2864105071059576 0.0522551591915037
3 356 150 144 0.23224997764228805 0.2864105071059576 0.0522551591915037
3 143 354 238 0.23224997764228805 0.2864105071059576 0.0522551591915037
3 143 355 354 0.23224997764228805 0.2864105071059576 0.0522551591915037
3 143 238 149 0.23224997764228805 0.2864105071059576 0.0522551591915037
3 149 239 143 0.23224997764228805 0.2864105071059576 0.0522551591915037
3 239 355 143 0.23224997764228805 0.2864105071059576 0.0522551591915037
3 34 163 282 0.23224997764228805 0.2864105071059576 0.0522551591915037
3 163 172 282 0.23224997764228805 0.2864105071059576 0.0522551591915037
3 282 172 390 0.23224997764228805 0.2864105071059576 0.0522551591915037
3 157 443 166 0.23224997764228805 0.2864105071059576 0.0522551591915037
3 166 444 157 0.23224997764228805 0.2864105071059576 0.0522551591915037
3 33 443 157 0.23224997764228805 0.2864105071059576 0.0522551591915037
3 32 33 157 0.23224997764228805 0.2864105071059576 0.0522551591915037
3 157 158 32 0.23224997764228805 0.2864105071059576 0.0522551591915037
3 157 444 158 0.23224997764228805 0.2864105071059576 0.0522551591915037
3 376 375 109 0.23224997764228805 0.2864105071059576 0.0522551591915037
3 275 276 109 0.23224997764228805 0.2864105071059576 0.0522551591915037
3 276 110 109 0.23224997764228805 0.2864105071059576 0.0522551591915037
3 109 110 376 0.23224997764228805 0.2864105071059576 0.0522551591915037
3 31 272 273 0.23224997764228805 0.2864105071059576 0.0522551591915037
3 271 272 31 0.23224997764228805 0.2864105071059576 0.0522551591915037
3 32 271 31 0.23224997764228805 0.2864105071059576 0.0522551591915037
3 411 412 204 0.23224997764228805 0.2864105071059576 0.0522551591915037
3 411 203 410 0.23224997764228805 0.2864105071059576 0.0522551591915037
3 411 204 203 0.23224997764228805 0.2864105071059576 0.0522551591915037
3 112 412 411 0.23224997764228805 0.2864105071059576 0.0522551591915037
3 410 111 411 0.23224997764228805 0.2864105071059576 0.0522551591915037
3 411 111 112 0.23224997764228805 0.2864105071059576 0.0522551591915037
3 36 388 170 0.23224997764228805 0.2864105071059576 0.0522551591915037
3 170 280 36 0.23224997764228805 0.2864105071059576 0.0522551591915037
3 170 388 208 0.23224997764228805 0.2864105071059576 0.0522551591915037
3 208 280 170 0.23224997764228805 0.2864105071059576 0.0522551591915037
3 35 280 171 0.23224997764228805 0.2864105071059576 0.0522551591915037
3 389 281 171 0.23224997764228805 0.2864105071059576 0.0522551591915037
3 171 281 35 0.23224997764228805 0.2864105071059576 0.0522551591915037
3 171 208 389 0.23224997764228805 0.2864105071059576 0.0522551591915037
3 171 280 208 0.23224997764228805 0.2864105071059576 0.0522551591915037
3 371 251 370 0.23224997764228805 0.2864105071059576 0.0522551591915037
3 370 217 371 0.23224997764228805 0.2864105071059576 0.0522551591915037
3 216 217 370 0.23224997764228805 0.2864105071059576 0.0522551591915037
3 370 369 216 0.23224997764228805 0.2864105071059576 0.0522551591915037
3 370 251 369 0.23224997764228805 0.2864105071059576 0.0522551591915037
3 337 218 85 0.23224997764228805 0.2864105071059576 0.0522551591915037
3 338 218 337 0.23224997764228805 0.2864105071059576 0.0522551591915037
3 85 336 337 0.23224997764228805 0.2864105071059576 0.0522551591915037
3 337 87 88 0.23224997764228805 0.2864105071059576 0.0522551591915037
3 88 338 337 0.23224997764228805 0.2864105071059576 0.0522551591915037
3 337 336 86 0.23224997764228805 0.2864105071059576 0.0522551591915037
3 86 87 337 0.23224997764228805 0.2864105071059576 0.0522551591915037
3 219 218 338 0.23224997764228805 0.2864105071059576 0.0522551591915037
3 372 218 219 0.23224997764228805 0.2864105071059576 0.0522551591915037
3 219 373 372 0.23224997764228805 0.2864105071059576 0.0522551591915037
3 254 89 253 0.23224997764228805 0.2864105071059576 0.0522551591915037
3 25 255 254 0.23224997764228805 0.2864105071059576 0.0522551591915037
3 254 253 25 0.23224997764228805 0.2864105071059576 0.0522551591915037
3 234 361 362 0.23224997764228805 0.2864105071059576 0.0522551591915037
3 361 252 362 0.23224997764228805 0.2864105071059576 0.0522551591915037
3 362 235 234 0.23224997764228805 0.2864105071059576 0.0522551591915037
3 362 252 372 0.23224997764228805 0.2864105071059576 0.0522551591915037
3 362 372 363 0.23224997764228805 0.2864105071059576 0.0522551591915037
3 363 235 362 0.23224997764228805 0.2864105071059576 0.0522551591915037
3 442 33 34 0.23224997764228805 0.2864105071059576 0.0522551591915037
3 442 165 33 0.23224997764228805 0.2864105071059576 0.0522551591915037
3 283 165 442 0.23224997764228805 0.2864105071059576 0.0522551591915037
3 275 109 108 0.23224997764228805 0.2864105071059576 0.0522551591915037
3 108 109 375 0.23224997764228805 0.2864105071059576 0.0522551591915037
3 108 274 275 0.23224997764228805 0.2864105071059576 0.0522551591915037
3 107 274 108 0.23224997764228805 0.2864105071059576 0.0522551591915037
3 30 107 108 0.23224997764228805 0.2864105071059576 0.0522551591915037
3 108 375 30 0.23224997764228805 0.2864105071059576 0.0522551591915037
3 106 273 107 0.23224997764228805 0.2864105071059576 0.0522551591915037
3 106 31 273 0.23224997764228805 0.2864105071059576 0.0522551591915037
3 106 107 30 0.23224997764228805 0.2864105071059576 0.0522551591915037
3 30 31 106 0.23224997764228805 0.2864105071059576 0.0522551591915037
3 338 89 339 0.23224997764228805 0.2864105071059576 0.0522551591915037
3 339 219 338 0.23224997764228805 0.2864105071059576 0.0522551591915037
3 34 282 164 0.23224997764228805 0.2864105071059576 0.0522551591915037
3 164 442 34 0.23224997764228805 0.2864105071059576 0.0522551591915037
3 283 442 164 0.23224997764228805 0.2864105071059576 0.0522551591915037
3 390 283 164 0.23224997764228805 0.2864105071059576 0.0522551591915037
3 164 282 390 0.23224997764228805 0.2864105071059576 0.0522551591915037
3 219 339 340 0.23224997764228805 0.2864105071059576 0.0522551591915037
3 341 373 340 0.23224997764228805 0.2864105071059576 0.0522551591915037
3 373 219 340 0.23224997764228805 0.2864105071059576 0.0522551591915037
3 340 257 341 0.23224997764228805 0.2864105071059576 0.0522551591915037
3 256 257 340 0.23224997764228805 0.2864105071059576 0.0522551591915037
3 90 339 89 0.23224997764228805 0.2864105071059576 0.0522551591915037
3 90 340 339 0.23224997764228805 0.2864105071059576 0.0522551591915037
3 90 254 255 0.23224997764228805 0.2864105071059576 0.0522551591915037
3 89 254 90 0.23224997764228805 0.2864105071059576 0.0522551591915037
3 255 256 90 0.23224997764228805 0.2864105071059576 0.0522551591915037
3 256 340 90 0.23224997764228805 0.2864105071059576 0.0522551591915037
3 510 479 480 0.23224997764228805 0.2864105071059576 0.0522551591915037
3 517 472 516 0.23224997764228805 0.2864105071059576 0.0522551591915037
3 516 472 473 0.23224997764228805 0.2864105071059576 0.0522551591915037
3 491 499 490 0.23224997764228805 0.2864105071059576 0.0522551591915037
3 491 498 499 0.23224997764228805 0.2864105071059576 0.0522551591915037
3 467 472 469 0.23224997764228805 0.2864105071059576 0.0522551591915037
3 469 472 517 0.23224997764228805 0.2864105071059576 0.0522551591915037
3 511 479 510 0.23224997764228805 0.2864105071059576 0.0522551591915037
3 513 514 476 0.23224997764228805 0.2864105071059576 0.0522551591915037
3 476 477 513 0.23224997764228805 0.2864105071059576 0.0522551591915037
3 477 512 513 0.23224997764228805 0.2864105071059576 0.0522551591915037
3 476 514 475 0.23224997764228805 0.2864105071059576 0.0522551591915037
3 514 474 475 0.23224997764228805 0.2864105071059576 0.0522551591915037
3 515 474 514 0.23224997764228805 0.2864105071059576 0.0522551591915037
3 473 474 515 0.23224997764228805 0.2864105071059576 0.0522551591915037
3 515 516 473 0.23224997764228805 0.2864105071059576 0.0522551591915037
3 510 480 509 0.23224997764228805 0.2864105071059576 0.0522551591915037
3 486 487 503 0.23224997764228805 0.2864105071059576 0.0522551591915037
3 497 498 496 0.23224997764228805 0.2864105071059576 0.0522551591915037
3 498 495 496 0.23224997764228805 0.2864105071059576 0.0522551591915037
3 494 495 498 0.23224997764228805 0.2864105071059576 0.0522551591915037
3 498 491 494 0.23224997764228805 0.2864105071059576 0.0522551591915037
3 494 491 492 0.23224997764228805 0.2864105071059576 0.0522551591915037
3 478 512 477 0.23224997764228805 0.2864105071059576 0.0522551591915037
3 478 511 512 0.23224997764228805 0.2864105071059576 0.0522551591915037
3 479 511 478 0.23224997764228805 0.2864105071059576 0.0522551591915037
3 482 508 481 0.23224997764228805 0.2864105071059576 0.0522551591915037
3 508 509 481 0.23224997764228805 0.2864105071059576 0.0522551591915037
3 481 509 480 0.23224997764228805 0.2864105071059576 0.0522551591915037
3 485 486 504 0.23224997764228805 0.2864105071059576 0.0522551591915037
3 486 503 504 0.23224997764228805 0.2864105071059576 0.0522551591915037
3 502 487 488 0.23224997764228805 0.2864105071059576 0.0522551591915037
3 502 503 487 0.23224997764228805 0.2864105071059576 0.0522551591915037
3 505 484 485 0.23224997764228805 0.2864105071059576 0.0522551591915037
3 485 504 505 0.23224997764228805 0.2864105071059576 0.0522551591915037
3 488 489 501 0.23224997764228805 0.2864105071059576 0.0522551591915037
3 501 502 488 0.23224997764228805 0.2864105071059576 0.0522551591915037
3 483 484 506 0.23224997764228805 0.2864105071059576 0.0522551591915037
3 484 505 506 0.23224997764228805 0.2864105071059576 0.0522551591915037
3 500 501 489 0.23224997764228805 0.2864105071059576 0.0522551591915037
3 490 499 500 0.23224997764228805 0.2864105071059576 0.0522551591915037
3 500 489 490 0.23224997764228805 0.2864105071059576 0.0522551591915037
3 483 506 507 0.23224997764228805 0.2864105071059576 0.0522551591915037
3 482 483 507 0.23224997764228805 0.2864105071059576 0.0522551591915037
3 507 508 482 0.23224997764228805 0.2864105071059576 0.0522551591915037
3 524 530 523 0.23224997764228805 0.2864105071059576 0.0522551591915037
3 522 520 521 0.23224997764228805 0.2864105071059576 0.0522551591915037
3 523 520 522 0.23224997764228805 0.2864105071059576 0.0522551591915037
3 518 520 531 0.23224997764228805 0.2864105071059576 0.0522551591915037
3 531 520 523 0.23224997764228805 0.2864105071059576 0.0522551591915037
3 523 530 531 0.23224997764228805 0.2864105071059576 0.0522551591915037
3 530 524 526 0.23224997764228805 0.2864105071059576 0.0522551591915037
3 529 526 527 0.23224997764228805 0.2864105071059576 0.0522551591915037
3 530 526 529 0.23224997764228805 0.2864105071059576 0.0522551591915037
3 542 543 563 0.23224997764228805 0.2864105071059576 0.0522551591915037
3 544 545 565 0.23224997764228805 0.2864105071059576 0.0522551591915037
3 573 554 555 0.23224997764228805 0.2864105071059576 0.0522551591915037
3 542 563 580 0.23224997764228805 0.2864105071059576 0.0522551591915037
3 540 542 580 0.23224997764228805 0.2864105071059576 0.0522551591915037
3 580 539 540 0.23224997764228805 0.2864105071059576 0.0522551591915037
3 581 563 564 0.23224997764228805 0.2864105071059576 0.0522551591915037
3 539 580 581 0.23224997764228805 0.2864105071059576 0.0522551591915037
3 581 580 563 0.23224997764228805 0.2864105071059576 0.0522551591915037
3 568 606 605 0.23224997764228805 0.2864105071059576 0.0522551591915037
3 603 545 546 0.23224997764228805 0.2864105071059576 0.0522551591915037
3 583 563 543 0.23224997764228805 0.2864105071059576 0.0522551591915037
3 583 543 544 0.23224997764228805 0.2864105071059576 0.0522551591915037
3 544 565 583 0.23224997764228805 0.2864105071059576 0.0522551591915037
3 564 563 583 0.23224997764228805 0.2864105071059576 0.0522551591915037
3 598 606 619 0.23224997764228805 0.2864105071059576 0.0522551591915037
3 595 535 560 0.23224997764228805 0.2864105071059576 0.0522551591915037
3 585 605 602 0.23224997764228805 0.2864105071059576 0.0522551591915037
3 605 606 602 0.23224997764228805 0.2864105071059576 0.0522551591915037
3 606 598 602 0.23224997764228805 0.2864105071059576 0.0522551591915037
3 559 535 536 0.23224997764228805 0.2864105071059576 0.0522551591915037
3 559 560 535 0.23224997764228805 0.2864105071059576 0.0522551591915037
3 579 560 578 0.23224997764228805 0.2864105071059576 0.0522551591915037
3 560 559 578 0.23224997764228805 0.2864105071059576 0.0522551591915037
3 578 559 536 0.23224997764228805 0.2864105071059576 0.0522551591915037
3 552 554 611 0.23224997764228805 0.2864105071059576 0.0522551591915037
3 611 551 552 0.23224997764228805 0.2864105071059576 0.0522551591915037
3 611 554 573 0.23224997764228805 0.2864105071059576 0.0522551591915037
3 573 551 611 0.23224997764228805 0.2864105071059576 0.0522551591915037
3 550 551 589 0.23224997764228805 0.2864105071059576 0.0522551591915037
3 593 576 594 0.23224997764228805 0.2864105071059576 0.0522551591915037
3 609 570 608 0.23224997764228805 0.2864105071059576 0.0522551591915037
3 594 576 616 0.23224997764228805 0.2864105071059576 0.0522551591915037
3 616 617 594 0.23224997764228805 0.2864105071059576 0.0522551591915037
3 599 538 539 0.23224997764228805 0.2864105071059576 0.0522551591915037
3 539 581 599 0.23224997764228805 0.2864105071059576 0.0522551591915037
3 567 568 605 0.23224997764228805 0.2864105071059576 0.0522551591915037
3 546 547 567 0.23224997764228805 0.2864105071059576 0.0522551591915037
3 567 547 586 0.23224997764228805 0.2864105071059576 0.0522551591915037
3 586 568 567 0.23224997764228805 0.2864105071059576 0.0522551591915037
3 604 605 585 0.23224997764228805 0.2864105071059576 0.0522551591915037
3 604 567 605 0.23224997764228805 0.2864105071059576 0.0522551591915037
3 604 603 546 0.23224997764228805 0.2864105071059576 0.0522551591915037
3 546 567 604 0.23224997764228805 0.2864105071059576 0.0522551591915037
3 566 604 585 0.23224997764228805 0.2864105071059576 0.0522551591915037
3 603 604 566 0.23224997764228805 0.2864105071059576 0.0522551591915037
3 566 565 545 0.23224997764228805 0.2864105071059576 0.0522551591915037
3 545 603 566 0.23224997764228805 0.2864105071059576 0.0522551591915037
3 610 570 609 0.23224997764228805 0.2864105071059576 0.0522551591915037
3 618 598 619 0.23224997764228805 0.2864105071059576 0.0522551591915037
3 619 610 618 0.23224997764228805 0.2864105071059576 0.0522551591915037
3 597 618 617 0.23224997764228805 0.2864105071059576 0.0522551591915037
3 598 618 597 0.23224997764228805 0.2864105071059576 0.0522551591915037
3 597 560 579 0.23224997764228805 0.2864105071059576 0.0522551591915037
3 579 602 597 0.23224997764228805 0.2864105071059576 0.0522551591915037
3 597 602 598 0.23224997764228805 0.2864105071059576 0.0522551591915037
3 601 582 585 0.23224997764228805 0.2864105071059576 0.0522551591915037
3 562 582 601 0.23224997764228805 0.2864105071059576 0.0522551591915037
3 601 578 562 0.23224997764228805 0.2864105071059576 0.0522551591915037
3 585 602 601 0.23224997764228805 0.2864105071059576 0.0522551591915037
3 601 602 579 0.23224997764228805 0.2864105071059576 0.0522551591915037
3 579 578 601 0.23224997764228805 0.2864105071059576 0.0522551591915037
3 600 581 564 0.23224997764228805 0.2864105071059576 0.0522551591915037
3 564 582 600 0.23224997764228805 0.2864105071059576 0.0522551591915037
3 600 599 581 0.23224997764228805 0.2864105071059576 0.0522551591915037
3 600 582 562 0.23224997764228805 0.2864105071059576 0.0522551591915037
3 536 537 577 0.23224997764228805 0.2864105071059576 0.0522551591915037
3 577 537 562 0.23224997764228805 0.2864105071059576 0.0522551591915037
3 577 578 536 0.23224997764228805 0.2864105071059576 0.0522551591915037
3 562 578 577 0.23224997764228805 0.2864105071059576 0.0522551591915037
3 550 589 590 0.23224997764228805 0.2864105071059576 0.0522551591915037
3 573 555 592 0.23224997764228805 0.2864105071059576 0.0522551591915037
3 533 576 575 0.23224997764228805 0.2864105071059576 0.0522551591915037
3 576 593 575 0.23224997764228805 0.2864105071059576 0.0522551591915037
3 609 608 614 0.23224997764228805 0.2864105071059576 0.0522551591915037
3 614 610 609 0.23224997764228805 0.2864105071059576 0.0522551591915037
3 594 617 614 0.23224997764228805 0.2864105071059576 0.0522551591915037
3 617 618 614 0.23224997764228805 0.2864105071059576 0.0522551591915037
3 614 618 610 0.23224997764228805 0.2864105071059576 0.0522551591915037
3 572 590 613 0.23224997764228805 0.2864105071059576 0.0522551591915037
3 548 608 569 0.23224997764228805 0.2864105071059576 0.0522551591915037
3 569 608 570 0.23224997764228805 0.2864105071059576 0.0522551591915037
3 569 547 548 0.23224997764228805 0.2864105071059576 0.0522551591915037
3 586 547 569 0.23224997764228805 0.2864105071059576 0.0522551591915037
3 569 570 586 0.23224997764228805 0.2864105071059576 0.0522551591915037
3 558 535 595 0.23224997764228805 0.2864105071059576 0.0522551591915037
3 595 616 558 0.23224997764228805 0.2864105071059576 0.0522551591915037
3 533 535 558 0.23224997764228805 0.2864105071059576 0.0522551591915037
3 558 576 533 0.23224997764228805 0.2864105071059576 0.0522551591915037
3 558 616 576 0.23224997764228805 0.2864105071059576 0.0522551591915037
3 584 566 585 0.23224997764228805 0.2864105071059576 0.0522551591915037
3 584 582 564 0.23224997764228805 0.2864105071059576 0.0522551591915037
3 585 582 584 0.23224997764228805 0.2864105071059576 0.0522551591915037
3 564 583 584 0.23224997764228805 0.2864105071059576 0.0522551591915037
3 584 583 565 0.23224997764228805 0.2864105071059576 0.0522551591915037
3 565 566 584 0.23224997764228805 0.2864105071059576 0.0522551591915037
3 570 610 588 0.23224997764228805 0.2864105071059576 0.0522551591915037
3 606 568 588 0.23224997764228805 0.2864105071059576 0.0522551591915037
3 619 606 588 0.23224997764228805 0.2864105071059576 0.0522551591915037
3 588 610 619 0.23224997764228805 0.2864105071059576 0.0522551591915037
3 596 597 617 0.23224997764228805 0.2864105071059576 0.0522551591915037
3 596 616 595 0.23224997764228805 0.2864105071059576 0.0522551591915037
3 617 616 596 0.23224997764228805 0.2864105071059576 0.0522551591915037
3 595 560 596 0.23224997764228805 0.2864105071059576 0.0522551591915037
3 560 597 596 0.23224997764228805 0.2864105071059576 0.0522551591915037
3 562 537 561 0.23224997764228805 0.2864105071059576 0.0522551591915037
3 561 600 562 0.23224997764228805 0.2864105071059576 0.0522551591915037
3 561 537 538 0.23224997764228805 0.2864105071059576 0.0522551591915037
3 538 599 561 0.23224997764228805 0.2864105071059576 0.0522551591915037
3 599 600 561 0.23224997764228805 0.2864105071059576 0.0522551591915037
3 571 549 550 0.23224997764228805 0.2864105071059576 0.0522551591915037
3 550 590 571 0.23224997764228805 0.2864105071059576 0.0522551591915037
3 571 572 549 0.23224997764228805 0.2864105071059576 0.0522551591915037
3 590 572 571 0.23224997764228805 0.2864105071059576 0.0522551591915037
3 612 590 589 0.23224997764228805 0.2864105071059576 0.0522551591915037
3 612 551 573 0.23224997764228805 0.2864105071059576 0.0522551591915037
3 612 589 551 0.23224997764228805 0.2864105071059576 0.0522551591915037
3 593 592 556 0.23224997764228805 0.2864105071059576 0.0522551591915037
3 556 575 593 0.23224997764228805 0.2864105071059576 0.0522551591915037
3 556 592 555 0.23224997764228805 0.2864105071059576 0.0522551591915037
3 533 575 556 0.23224997764228805 0.2864105071059576 0.0522551591915037
3 549 572 607 0.23224997764228805 0.2864105071059576 0.0522551591915037
3 607 572 608 0.23224997764228805 0.2864105071059576 0.0522551591915037
3 548 549 607 0.23224997764228805 0.2864105071059576 0.0522551591915037
3 607 608 548 0.23224997764228805 0.2864105071059576 0.0522551591915037
3 591 614 608 0.23224997764228805 0.2864105071059576 0.0522551591915037
3 608 572 591 0.23224997764228805 0.2864105071059576 0.0522551591915037
3 594 614 591 0.23224997764228805 0.2864105071059576 0.0522551591915037
3 591 572 613 0.23224997764228805 0.2864105071059576 0.0522551591915037
3 591 593 594 0.23224997764228805 0.2864105071059576 0.0522551591915037
3 613 593 591 0.23224997764228805 0.2864105071059576 0.0522551591915037
3 586 570 587 0.23224997764228805 0.2864105071059576 0.0522551591915037
3 570 588 587 0.23224997764228805 0.2864105071059576 0.0522551591915037
3 587 568 586 0.23224997764228805 0.2864105071059576 0.0522551591915037
3 587 588 568 0.23224997764228805 0.2864105071059576 0.0522551591915037
3 590 612 574 0.23224997764228805 0.2864105071059576 0.0522551591915037
3 613 590 574 0.23224997764228805 0.2864105071059576 0.0522551591915037
3 573 592 574 0.23224997764228805 0.2864105071059576 0.0522551591915037
3 574 612 573 0.23224997764228805 0.2864105071059576 0.0522551591915037
3 574 593 613 0.23224997764228805 0.2864105071059576 0.0522551591915037
3 574 592 593 0.23224997764228805 0.2864105071059576 0.0522551591915037
3 656 632 657 0.23224997764228805 0.2864105071059576 0.0522551591915037
3 660 659 628 0.23224997764228805 0.2864105071059576 0.0522551591915037
3 633 632 656 0.23224997764228805 0.2864105071059576 0.0522551591915037
3 627 661 660 0.23224997764228805 0.2864105071059576 0.0522551591915037
3 660 628 627 0.23224997764228805 0.2864105071059576 0.0522551591915037
3 630 659 658 0.23224997764228805 0.2864105071059576 0.0522551591915037
3 647 646 641 0.23224997764228805 0.2864105071059576 0.0522551591915037
3 641 640 647 0.23224997764228805 0.2864105071059576 0.0522551591915037
3 638 649 639 0.23224997764228805 0.2864105071059576 0.0522551591915037
3 655 633 656 0.23224997764228805 0.2864105071059576 0.0522551591915037
3 634 633 655 0.23224997764228805 0.2864105071059576 0.0522551591915037
3 635 634 654 0.23224997764228805 0.2864105071059576 0.0522551591915037
3 654 653 635 0.23224997764228805 0.2864105071059576 0.0522551591915037
3 634 655 654 0.23224997764228805 0.2864105071059576 0.0522551591915037
3 650 649 638 0.23224997764228805 0.2864105071059576 0.0522551591915037
3 637 650 638 0.23224997764228805 0.2864105071059576 0.0522551591915037
3 651 650 637 0.23224997764228805 0.2864105071059576 0.0522551591915037
3 626 662 661 0.23224997764228805 0.2864105071059576 0.0522551591915037
3 661 627 626 0.23224997764228805 0.2864105071059576 0.0522551591915037
3 629 628 659 0.23224997764228805 0.2864105071059576 0.0522551591915037
3 659 630 629 0.23224997764228805 0.2864105071059576 0.0522551591915037
3 658 657 631 0.23224997764228805 0.2864105071059576 0.0522551591915037
3 631 630 658 0.23224997764228805 0.2864105071059576 0.0522551591915037
3 631 657 632 0.23224997764228805 0.2864105071059576 0.0522551591915037
3 644 643 645 0.23224997764228805 0.2864105071059576 0.0522551591915037
3 641 646 642 0.23224997764228805 0.2864105071059576 0.0522551591915037
3 646 645 642 0.23224997764228805 0.2864105071059576 0.0522551591915037
3 642 645 643 0.23224997764228805 0.2864105071059576 0.0522551591915037
3 648 647 640 0.23224997764228805 0.2864105071059576 0.0522551591915037
3 648 639 649 0.23224997764228805 0.2864105071059576 0.0522551591915037
3 640 639 648 0.23224997764228805 0.2864105071059576 0.0522551591915037
3 652 651 636 0.23224997764228805 0.2864105071059576 0.0522551591915037
3 651 637 636 0.23224997764228805 0.2864105071059576 0.0522551591915037
3 635 653 636 0.23224997764228805 0.2864105071059576 0.0522551591915037
3 636 653 652 0.23224997764228805 0.2864105071059576 0.0522551591915037
3 662 626 625 0.23224997764228805 0.2864105071059576 0.0522551591915037
3 625 663 662 0.23224997764228805 0.2864105071059576 0.0522551591915037
3 624 663 625 0.23224997764228805 0.2864105071059576 0.0522551591915037
3 666 663 624 0.23224997764228805 0.2864105071059576 0.0522551591915037
3 624 667 666 0.23224997764228805 0.2864105071059576 0.0522551591915037
3 664 663 666 0.23224997764228805 0.2864105071059576 0.0522551591915037
3 668 622 620 0.23224997764228805 0.2864105071059576 0.0522551591915037
3 623 667 624 0.23224997764228805 0.2864105071059576 0.0522551591915037
3 623 668 667 0.23224997764228805 0.2864105071059576 0.0522551591915037
3 622 668 623 0.23224997764228805 0.2864105071059576 0.0522551591915037
