OFF
349 362 0


32.845 28.8409 8.1179
32.845 28.8409 8.1179
32.8195 28.8712 8.0851
32.794 28.9014 8.0523
32.7686 28.9317 8.0195
32.845 28.8409 8.1179
32.845 28.8409 8.1179
32.7758 28.8128 8.167
32.7067 28.7848 8.2162
32.6375 28.7567 8.2653
32.5684 28.7287 8.3145
32.4993 28.7006 8.3636
32.4301 28.6726 8.4128
32.361 28.6445 8.4619
32.2919 28.6165 8.5111
32.2227 28.5884 8.5602
32.1536 28.5604 8.6094
32.0845 28.5323 8.6585
32.0153 28.5043 8.7077
31.9462 28.4762 8.7568
31.877 28.4482 8.806
31.8079 28.4202 8.8551
31.7388 28.3921 8.9043
31.6696 28.3641 8.9534
31.6005 28.336 9.0026
31.6005 28.336 9.0026
31.5458 28.3584 8.9856
31.4912 28.3808 8.9686
31.4365 28.4032 8.9516
31.4365 28.4032 8.9516
31.41 28.462 8.8833
31.3835 28.5208 8.8149
31.357 28.5797 8.7466
31.3305 28.6385 8.6782
31.3041 28.6973 8.6098
31.2776 28.7562 8.5415
31.2511 28.815 8.4731
31.2246 28.8738 8.4047
31.1981 28.9327 8.3364
31.1716 28.9915 8.268
31.1451 29.0504 8.1996
31.1187 29.1092 8.1313
31.0922 29.168 8.0629
31.0657 29.2269 7.9945
31.0392 29.2857 7.9262
31.0127 29.3445 7.8578
30.9862 29.4034 7.7894
30.9597 29.4622 7.7211
30.9332 29.521 7.6527
30.9068 29.5799 7.5843
30.8803 29.6387 7.516
30.8538 29.6975 7.4476
30.8538 29.6975 7.4476
31.0225 29.6497 7.4733
31.1564 29.6082 7.4983
31.2688 29.5709 7.5222
31.3669 29.5369 7.5451
31.4549 29.5051 7.567
31.5359 29.475 7.5883
31.6118 29.446 7.6092
31.6843 29.4178 7.63
31.7546 29.3899 7.6507
31.8239 29.3619 7.6717
31.8933 29.3336 7.6932
31.9636 29.3044 7.7155
32.0359 29.274 7.739
32.1115 29.2418 7.7639
32.1917 29.2074 7.7909
32.2781 29.1698 7.8205
32.373 29.1281 7.8535
32.4792 29.081 7.891
32.6006 29.0266 7.9347
31.6005 28.336 9.0026
31.6005 28.336 9.0026
31.6234 28.2483 9.0184
31.6462 28.1605 9.0341
31.6691 28.0728 9.0499
31.692 27.9851 9.0657
31.7148 27.8973 9.0814
31.7377 27.8096 9.0972
31.7605 27.7219 9.113
31.7834 27.6341 9.1287
31.8063 27.5464 9.1445
31.8291 27.4587 9.1603
31.852 27.3709 9.176
31.8749 27.2832 9.1918
31.8977 27.1955 9.2076
31.9206 27.1077 9.2233
31.9434 27.02 9.2391
31.9663 26.9323 9.2549
31.9663 26.9323 9.2549
31.827 26.9112 9.2202
31.7236 26.8969 9.1944
31.5839 26.8795 9.1592
31.5839 26.8795 9.1592
31.4991 26.9076 9.1336
31.4143 26.9357 9.108
31.3294 26.9638 9.0824
31.2446 26.9919 9.0568
31.1598 27.02 9.0311
31.0749 27.0481 9.0055
30.9901 27.0762 8.9799
30.9053 27.1043 8.9543
30.8204 27.1324 8.9287
30.7356 27.1605 8.9031
30.6508 27.1886 8.8774
30.5659 27.2167 8.8518
30.4811 27.2448 8.8262
30.3963 27.2729 8.8006
30.3114 27.301 8.775
30.2266 27.3291 8.7493
30.1417 27.3572 8.7237
30.0569 27.3852 8.6981
29.9721 27.4133 8.6725
29.8872 27.4414 8.6469
29.8024 27.4695 8.6213
29.8802 27.514 8.637
29.958 27.5585 8.6527
30.0358 27.6029 8.6685
30.1137 27.6474 8.6842
30.1915 27.6918 8.6999
30.2693 27.7363 8.7157
30.3471 27.7807 8.7314
30.4249 27.8252 8.7471
30.5027 27.8697 8.7629
30.5805 27.9141 8.7786
30.6584 27.9586 8.7943
30.7362 28.003 8.8101
30.814 28.0475 8.8258
30.8918 28.092 8.8415
30.9696 28.1364 8.8573
31.0474 28.1809 8.873
31.1252 28.2253 8.8887
31.2031 28.2698 8.9044
31.2809 28.3143 8.9202
31.3587 28.3587 8.9359
31.4365 28.4032 8.9516
31.4365 28.4032 8.9516
31.4912 28.3808 8.9686
31.5458 28.3584 8.9856
31.6005 28.336 9.0026
31.4365 28.4032 8.9516
31.4365 28.4032 8.9516
31.41 28.462 8.8833
31.3835 28.5208 8.8149
31.357 28.5797 8.7466
31.3305 28.6385 8.6782
31.3041 28.6973 8.6098
31.2776 28.7562 8.5415
31.2511 28.815 8.4731
31.2246 28.8738 8.4047
31.1981 28.9327 8.3364
31.1716 28.9915 8.268
31.1451 29.0504 8.1996
31.1187 29.1092 8.1313
31.0922 29.168 8.0629
31.0657 29.2269 7.9945
31.0392 29.2857 7.9262
31.0127 29.3445 7.8578
30.9862 29.4034 7.7894
30.9597 29.4622 7.7211
30.9332 29.521 7.6527
30.9068 29.5799 7.5843
30.8803 29.6387 7.516
30.8538 29.6975 7.4476
30.7506 29.6976 7.3765
30.6524 29.6954 7.3107
30.5581 29.6912 7.2493
30.4671 29.6848 7.192
30.3787 29.6764 7.1383
30.2925 29.6659 7.0879
30.2081 29.6535 7.0404
30.1252 29.639 6.9956
30.0434 29.6227 6.9531
29.9625 29.6045 6.9128
29.8821 29.5847 6.8744
29.802 29.5632 6.8375
29.7218 29.54 6.802
29.6412 29.5153 6.7676
29.5597 29.4889 6.7339
29.4769 29.4608 6.7008
29.3921 29.4308 6.6679
29.3048 29.3989 6.6349
29.2142 29.3647 6.6017
29.1194 29.3279 6.5677
29.0195 29.2882 6.5327
28.913 29.2449 6.4962
28.7985 29.1974 6.4578
28.7985 29.1974 6.4578
28.7928 29.0999 6.5369
28.7892 29.0296 6.5943
28.7862 28.9661 6.6464
28.7833 28.896 6.7041
28.78 28.7992 6.7842
28.78 28.7992 6.7842
28.78 28.7992 6.7842
28.7951 28.7351 6.8493
28.8103 28.671 6.9143
28.8254 28.6069 6.9794
28.8406 28.5427 7.0445
28.8557 28.4786 7.1095
28.8709 28.4145 7.1746
28.886 28.3504 7.2396
28.9012 28.2863 7.3047
28.9163 28.2222 7.3697
28.9315 28.158 7.4348
28.9466 28.0939 7.4998
28.9618 28.0298 7.5649
28.9769 27.9657 7.6299
28.9921 27.9016 7.695
29.0072 27.8375 7.7601
29.0224 27.7733 7.8251
29.0375 27.7092 7.8902
29.0527 27.6451 7.9552
29.0678 27.581 8.0203
29.083 27.5169 8.0853
29.0981 27.4528 8.1504
29.1133 27.3886 8.2154
29.1284 27.3245 8.2805
29.1436 27.2604 8.3455
29.2168 27.2837 8.3762
29.29 27.3069 8.4068
29.3632 27.3301 8.4375
29.4364 27.3534 8.4681
29.5096 27.3766 8.4987
29.5828 27.3998 8.5294
29.656 27.4231 8.56
29.7292 27.4463 8.5906
29.8024 27.4695 8.6213
29.8024 27.4695 8.6213
29.8802 27.514 8.637
29.958 27.5585 8.6527
30.0358 27.6029 8.6685
30.1137 27.6474 8.6842
30.1915 27.6918 8.6999
30.2693 27.7363 8.7157
30.3471 27.7807 8.7314
30.4249 27.8252 8.7471
30.5027 27.8697 8.7629
30.5805 27.9141 8.7786
30.6584 27.9586 8.7943
30.7362 28.003 8.8101
30.814 28.0475 8.8258
30.8918 28.092 8.8415
30.9696 28.1364 8.8573
31.0474 28.1809 8.873
31.1252 28.2253 8.8887
31.2031 28.2698 8.9044
31.2809 28.3143 8.9202
31.3587 28.3587 8.9359
31.4365 28.4032 8.9516
31.9663 26.9323 9.2549
31.9663 26.9323 9.2549
31.827 26.9112 9.2202
31.7236 26.8969 9.1944
31.5839 26.8795 9.1592
31.697 26.7954 9.185
31.7823 26.7311 9.2043
31.855 26.6758 9.2206
31.9241 26.623 9.2361
31.9964 26.5672 9.2522
32.0808 26.5017 9.271
32.192 26.4146 9.2955
32.192 26.4146 9.2955
32.1365 26.5413 9.2857
32.0967 26.6323 9.2786
32.0609 26.7144 9.2722
32.0213 26.8054 9.265
31.9663 26.9323 9.2549
31.8799 26.6847 9.227
31.9859 26.604 9.2507
32.0605 26.6525 9.2704
32.0049 26.7819 9.2603
31.858 26.863 9.2266
31.8896 26.8137 9.233
31.6716 26.8398 9.1799
31.7625 26.7986 9.2013
31.7593 26.7751 9.1998
31.823 26.7544 9.215
31.8246 26.7263 9.2146
31.8676 26.7214 9.225
32.0483 26.556 9.2646
32.0165 26.6091 9.2584
32.0894 26.5855 9.2755
32.0436 26.6285 9.2655
31.7789 26.8525 9.2068
31.8359 26.8069 9.2196
31.8946 26.7599 9.2328
31.9319 26.6453 9.2387
31.9397 26.6674 9.2412
31.9475 26.6895 9.2438
32.1294 26.4931 9.2826
32.0692 26.5686 9.2701
32.0111 26.6413 9.258
32.0342 26.7136 9.2656
32.0077 26.7129 9.2591
31.9813 26.7122 9.2527
31.9636 26.8782 9.2528
31.9609 26.8234 9.2507
31.9581 26.7679 9.2485
31.9636 26.8782 9.2528
31.9609 26.8234 9.2507
31.9581 26.7679 9.2485
31.9552 26.7115 9.2463
31.9552 26.7115 9.2463
28.78 28.7992 6.7842
28.78 28.7992 6.7842
28.7833 28.896 6.7041
28.7862 28.9661 6.6464
28.7892 29.0296 6.5943
28.7928 29.0999 6.5369
28.7932 29.1811 6.4399
28.7959 29.1892 6.4489
28.7985 29.1974 6.4578
28.7932 29.1811 6.4399
28.7647 29.0571 6.3865
28.7452 28.97 6.3488
28.726 28.8829 6.311
28.6993 28.7589 6.2568
28.6993 28.7589 6.2568
28.7183 28.7732 6.3836
28.7325 28.782 6.4774
28.7456 28.7885 6.5629
28.7601 28.7942 6.657
28.78 28.7992 6.7842
28.7758 28.9053 6.6434
28.7799 28.9946 6.5702
28.7823 29.0956 6.467
28.7505 28.9546 6.4068
28.7201 28.8155 6.3475
28.7327 28.8243 6.4303
28.7508 28.834 6.5489
28.7733 28.841 6.6963
28.7779 28.9521 6.6049
28.7696 28.9381 6.5633
28.7822 29.0417 6.5318
28.7718 28.983 6.5266
28.7634 29.0126 6.4316
28.7623 28.9683 6.4765
28.7377 28.8968 6.3822
28.7495 28.9105 6.4522
28.7421 28.8298 6.4922
28.7517 28.8772 6.5069
28.7604 28.8377 6.6116
28.7608 28.8809 6.5664
28.7733 28.841 6.6963
28.7671 28.8825 6.6088
28.7613 28.924 6.5213
28.7613 28.924 6.5213
3 50 53 51 0.4277749270225657 0.6265679509604543 0.4590648784516762
3 31 22 21 0.4277749270225657 0.6265679509604543 0.4590648784516762
3 68 13 69 0.4277749270225657 0.6265679509604543 0.4590648784516762
3 68 14 13 0.4277749270225657 0.6265679509604543 0.4590648784516762
3 15 66 37 0.4277749270225657 0.6265679509604543 0.4590648784516762
3 37 65 38 0.4277749270225657 0.6265679509604543 0.4590648784516762
3 66 65 37 0.4277749270225657 0.6265679509604543 0.4590648784516762
3 32 31 21 0.4277749270225657 0.6265679509604543 0.4590648784516762
3 38 65 64 0.4277749270225657 0.6265679509604543 0.4590648784516762
3 53 48 54 0.4277749270225657 0.6265679509604543 0.4590648784516762
3 62 40 63 0.4277749270225657 0.6265679509604543 0.4590648784516762
3 41 40 62 0.4277749270225657 0.6265679509604543 0.4590648784516762
3 53 50 49 0.4277749270225657 0.6265679509604543 0.4590648784516762
3 49 48 53 0.4277749270225657 0.6265679509604543 0.4590648784516762
3 14 68 67 0.4277749270225657 0.6265679509604543 0.4590648784516762
3 67 66 15 0.4277749270225657 0.6265679509604543 0.4590648784516762
3 15 14 67 0.4277749270225657 0.6265679509604543 0.4590648784516762
3 24 23 26 0.4277749270225657 0.6265679509604543 0.4590648784516762
3 22 31 30 0.4277749270225657 0.6265679509604543 0.4590648784516762
3 30 23 22 0.4277749270225657 0.6265679509604543 0.4590648784516762
3 35 17 36 0.4277749270225657 0.6265679509604543 0.4590648784516762
3 71 8 4 0.4277749270225657 0.6265679509604543 0.4590648784516762
3 7 4 8 0.4277749270225657 0.6265679509604543 0.4590648784516762
3 69 13 12 0.4277749270225657 0.6265679509604543 0.4590648784516762
3 12 11 69 0.4277749270225657 0.6265679509604543 0.4590648784516762
3 69 11 70 0.4277749270225657 0.6265679509604543 0.4590648784516762
3 9 8 71 0.4277749270225657 0.6265679509604543 0.4590648784516762
3 39 64 63 0.4277749270225657 0.6265679509604543 0.4590648784516762
3 63 40 39 0.4277749270225657 0.6265679509604543 0.4590648784516762
3 38 64 39 0.4277749270225657 0.6265679509604543 0.4590648784516762
3 58 57 44 0.4277749270225657 0.6265679509604543 0.4590648784516762
3 44 43 58 0.4277749270225657 0.6265679509604543 0.4590648784516762
3 58 43 59 0.4277749270225657 0.6265679509604543 0.4590648784516762
3 27 26 23 0.4277749270225657 0.6265679509604543 0.4590648784516762
3 23 30 27 0.4277749270225657 0.6265679509604543 0.4590648784516762
3 27 30 28 0.4277749270225657 0.6265679509604543 0.4590648784516762
3 16 36 17 0.4277749270225657 0.6265679509604543 0.4590648784516762
3 15 37 16 0.4277749270225657 0.6265679509604543 0.4590648784516762
3 37 36 16 0.4277749270225657 0.6265679509604543 0.4590648784516762
3 18 17 35 0.4277749270225657 0.6265679509604543 0.4590648784516762
3 34 18 35 0.4277749270225657 0.6265679509604543 0.4590648784516762
3 19 18 34 0.4277749270225657 0.6265679509604543 0.4590648784516762
3 20 32 21 0.4277749270225657 0.6265679509604543 0.4590648784516762
3 2 7 0 0.4277749270225657 0.6265679509604543 0.4590648784516762
3 10 70 11 0.4277749270225657 0.6265679509604543 0.4590648784516762
3 71 70 10 0.4277749270225657 0.6265679509604543 0.4590648784516762
3 10 9 71 0.4277749270225657 0.6265679509604543 0.4590648784516762
3 47 54 48 0.4277749270225657 0.6265679509604543 0.4590648784516762
3 44 57 45 0.4277749270225657 0.6265679509604543 0.4590648784516762
3 54 47 55 0.4277749270225657 0.6265679509604543 0.4590648784516762
3 55 47 46 0.4277749270225657 0.6265679509604543 0.4590648784516762
3 41 62 61 0.4277749270225657 0.6265679509604543 0.4590648784516762
3 61 60 41 0.4277749270225657 0.6265679509604543 0.4590648784516762
3 59 43 42 0.4277749270225657 0.6265679509604543 0.4590648784516762
3 42 60 59 0.4277749270225657 0.6265679509604543 0.4590648784516762
3 41 60 42 0.4277749270225657 0.6265679509604543 0.4590648784516762
3 19 34 33 0.4277749270225657 0.6265679509604543 0.4590648784516762
3 32 20 33 0.4277749270225657 0.6265679509604543 0.4590648784516762
3 33 20 19 0.4277749270225657 0.6265679509604543 0.4590648784516762
3 4 7 3 0.4277749270225657 0.6265679509604543 0.4590648784516762
3 7 2 3 0.4277749270225657 0.6265679509604543 0.4590648784516762
3 56 45 57 0.4277749270225657 0.6265679509604543 0.4590648784516762
3 46 45 56 0.4277749270225657 0.6265679509604543 0.4590648784516762
3 56 55 46 0.4277749270225657 0.6265679509604543 0.4590648784516762
3 89 88 91 0.4277749270225657 0.6265679509604543 0.4590648784516762
3 102 128 103 0.4277749270225657 0.6265679509604543 0.4590648784516762
3 120 111 110 0.4277749270225657 0.6265679509604543 0.4590648784516762
3 102 101 129 0.4277749270225657 0.6265679509604543 0.4590648784516762
3 129 128 102 0.4277749270225657 0.6265679509604543 0.4590648784516762
3 109 122 121 0.4277749270225657 0.6265679509604543 0.4590648784516762
3 121 110 109 0.4277749270225657 0.6265679509604543 0.4590648784516762
3 120 110 121 0.4277749270225657 0.6265679509604543 0.4590648784516762
3 114 116 115 0.4277749270225657 0.6265679509604543 0.4590648784516762
3 126 105 104 0.4277749270225657 0.6265679509604543 0.4590648784516762
3 127 103 128 0.4277749270225657 0.6265679509604543 0.4590648784516762
3 126 104 127 0.4277749270225657 0.6265679509604543 0.4590648784516762
3 127 104 103 0.4277749270225657 0.6265679509604543 0.4590648784516762
3 130 129 101 0.4277749270225657 0.6265679509604543 0.4590648784516762
3 125 105 126 0.4277749270225657 0.6265679509604543 0.4590648784516762
3 108 122 109 0.4277749270225657 0.6265679509604543 0.4590648784516762
3 123 107 124 0.4277749270225657 0.6265679509604543 0.4590648784516762
3 122 108 123 0.4277749270225657 0.6265679509604543 0.4590648784516762
3 123 108 107 0.4277749270225657 0.6265679509604543 0.4590648784516762
3 116 114 117 0.4277749270225657 0.6265679509604543 0.4590648784516762
3 112 111 119 0.4277749270225657 0.6265679509604543 0.4590648784516762
3 119 118 112 0.4277749270225657 0.6265679509604543 0.4590648784516762
3 119 111 120 0.4277749270225657 0.6265679509604543 0.4590648784516762
3 124 107 106 0.4277749270225657 0.6265679509604543 0.4590648784516762
3 105 125 106 0.4277749270225657 0.6265679509604543 0.4590648784516762
3 106 125 124 0.4277749270225657 0.6265679509604543 0.4590648784516762
3 93 92 95 0.4277749270225657 0.6265679509604543 0.4590648784516762
3 92 86 95 0.4277749270225657 0.6265679509604543 0.4590648784516762
3 136 135 138 0.4277749270225657 0.6265679509604543 0.4590648784516762
3 135 74 138 0.4277749270225657 0.6265679509604543 0.4590648784516762
3 131 77 132 0.4277749270225657 0.6265679509604543 0.4590648784516762
3 78 77 131 0.4277749270225657 0.6265679509604543 0.4590648784516762
3 131 130 78 0.4277749270225657 0.6265679509604543 0.4590648784516762
3 75 135 134 0.4277749270225657 0.6265679509604543 0.4590648784516762
3 75 74 135 0.4277749270225657 0.6265679509604543 0.4590648784516762
3 101 80 79 0.4277749270225657 0.6265679509604543 0.4590648784516762
3 79 130 101 0.4277749270225657 0.6265679509604543 0.4590648784516762
3 79 78 130 0.4277749270225657 0.6265679509604543 0.4590648784516762
3 87 91 88 0.4277749270225657 0.6265679509604543 0.4590648784516762
3 87 92 91 0.4277749270225657 0.6265679509604543 0.4590648784516762
3 87 86 92 0.4277749270225657 0.6265679509604543 0.4590648784516762
3 112 118 113 0.4277749270225657 0.6265679509604543 0.4590648784516762
3 118 117 113 0.4277749270225657 0.6265679509604543 0.4590648784516762
3 113 117 114 0.4277749270225657 0.6265679509604543 0.4590648784516762
3 100 80 101 0.4277749270225657 0.6265679509604543 0.4590648784516762
3 139 74 72 0.4277749270225657 0.6265679509604543 0.4590648784516762
3 139 138 74 0.4277749270225657 0.6265679509604543 0.4590648784516762
3 76 132 77 0.4277749270225657 0.6265679509604543 0.4590648784516762
3 80 100 81 0.4277749270225657 0.6265679509604543 0.4590648784516762
3 81 100 99 0.4277749270225657 0.6265679509604543 0.4590648784516762
3 97 83 98 0.4277749270225657 0.6265679509604543 0.4590648784516762
3 84 83 97 0.4277749270225657 0.6265679509604543 0.4590648784516762
3 97 96 84 0.4277749270225657 0.6265679509604543 0.4590648784516762
3 132 76 133 0.4277749270225657 0.6265679509604543 0.4590648784516762
3 133 75 134 0.4277749270225657 0.6265679509604543 0.4590648784516762
3 133 76 75 0.4277749270225657 0.6265679509604543 0.4590648784516762
3 82 98 83 0.4277749270225657 0.6265679509604543 0.4590648784516762
3 82 81 99 0.4277749270225657 0.6265679509604543 0.4590648784516762
3 99 98 82 0.4277749270225657 0.6265679509604543 0.4590648784516762
3 85 95 86 0.4277749270225657 0.6265679509604543 0.4590648784516762
3 85 96 95 0.4277749270225657 0.6265679509604543 0.4590648784516762
3 85 84 96 0.4277749270225657 0.6265679509604543 0.4590648784516762
3 205 171 172 0.4277749270225657 0.6265679509604543 0.4590648784516762
3 216 217 222 0.4277749270225657 0.6265679509604543 0.4590648784516762
3 157 171 205 0.4277749270225657 0.6265679509604543 0.4590648784516762
3 181 197 198 0.4277749270225657 0.6265679509604543 0.4590648784516762
3 182 197 181 0.4277749270225657 0.6265679509604543 0.4590648784516762
3 196 197 182 0.4277749270225657 0.6265679509604543 0.4590648784516762
3 219 220 218 0.4277749270225657 0.6265679509604543 0.4590648784516762
3 222 217 221 0.4277749270225657 0.6265679509604543 0.4590648784516762
3 217 218 221 0.4277749270225657 0.6265679509604543 0.4590648784516762
3 221 218 220 0.4277749270225657 0.6265679509604543 0.4590648784516762
3 158 170 171 0.4277749270225657 0.6265679509604543 0.4590648784516762
3 171 157 158 0.4277749270225657 0.6265679509604543 0.4590648784516762
3 169 170 158 0.4277749270225657 0.6265679509604543 0.4590648784516762
3 206 157 205 0.4277749270225657 0.6265679509604543 0.4590648784516762
3 149 150 242 0.4277749270225657 0.6265679509604543 0.4590648784516762
3 176 201 202 0.4277749270225657 0.6265679509604543 0.4590648784516762
3 202 175 176 0.4277749270225657 0.6265679509604543 0.4590648784516762
3 177 201 176 0.4277749270225657 0.6265679509604543 0.4590648784516762
3 177 178 201 0.4277749270225657 0.6265679509604543 0.4590648784516762
3 201 178 200 0.4277749270225657 0.6265679509604543 0.4590648784516762
3 200 178 179 0.4277749270225657 0.6265679509604543 0.4590648784516762
3 179 199 200 0.4277749270225657 0.6265679509604543 0.4590648784516762
3 180 199 179 0.4277749270225657 0.6265679509604543 0.4590648784516762
3 180 181 198 0.4277749270225657 0.6265679509604543 0.4590648784516762
3 198 199 180 0.4277749270225657 0.6265679509604543 0.4590648784516762
3 223 224 215 0.4277749270225657 0.6265679509604543 0.4590648784516762
3 223 216 222 0.4277749270225657 0.6265679509604543 0.4590648784516762
3 215 216 223 0.4277749270225657 0.6265679509604543 0.4590648784516762
3 215 224 214 0.4277749270225657 0.6265679509604543 0.4590648784516762
3 212 213 226 0.4277749270225657 0.6265679509604543 0.4590648784516762
3 230 231 212 0.4277749270225657 0.6265679509604543 0.4590648784516762
3 227 229 230 0.4277749270225657 0.6265679509604543 0.4590648784516762
3 227 212 226 0.4277749270225657 0.6265679509604543 0.4590648784516762
3 230 212 227 0.4277749270225657 0.6265679509604543 0.4590648784516762
3 244 147 148 0.4277749270225657 0.6265679509604543 0.4590648784516762
3 245 147 244 0.4277749270225657 0.6265679509604543 0.4590648784516762
3 246 145 146 0.4277749270225657 0.6265679509604543 0.4590648784516762
3 146 245 246 0.4277749270225657 0.6265679509604543 0.4590648784516762
3 147 245 146 0.4277749270225657 0.6265679509604543 0.4590648784516762
3 207 236 156 0.4277749270225657 0.6265679509604543 0.4590648784516762
3 156 206 207 0.4277749270225657 0.6265679509604543 0.4590648784516762
3 157 206 156 0.4277749270225657 0.6265679509604543 0.4590648784516762
3 238 154 237 0.4277749270225657 0.6265679509604543 0.4590648784516762
3 234 208 209 0.4277749270225657 0.6265679509604543 0.4590648784516762
3 149 242 243 0.4277749270225657 0.6265679509604543 0.4590648784516762
3 243 148 149 0.4277749270225657 0.6265679509604543 0.4590648784516762
3 244 148 243 0.4277749270225657 0.6265679509604543 0.4590648784516762
3 241 150 151 0.4277749270225657 0.6265679509604543 0.4590648784516762
3 241 242 150 0.4277749270225657 0.6265679509604543 0.4590648784516762
3 151 240 241 0.4277749270225657 0.6265679509604543 0.4590648784516762
3 173 174 204 0.4277749270225657 0.6265679509604543 0.4590648784516762
3 205 172 204 0.4277749270225657 0.6265679509604543 0.4590648784516762
3 204 172 173 0.4277749270225657 0.6265679509604543 0.4590648784516762
3 174 175 203 0.4277749270225657 0.6265679509604543 0.4590648784516762
3 175 202 203 0.4277749270225657 0.6265679509604543 0.4590648784516762
3 203 204 174 0.4277749270225657 0.6265679509604543 0.4590648784516762
3 186 190 185 0.4277749270225657 0.6265679509604543 0.4590648784516762
3 186 189 190 0.4277749270225657 0.6265679509604543 0.4590648784516762
3 187 189 186 0.4277749270225657 0.6265679509604543 0.4590648784516762
3 185 190 191 0.4277749270225657 0.6265679509604543 0.4590648784516762
3 191 184 185 0.4277749270225657 0.6265679509604543 0.4590648784516762
3 191 192 184 0.4277749270225657 0.6265679509604543 0.4590648784516762
3 184 192 183 0.4277749270225657 0.6265679509604543 0.4590648784516762
3 183 192 196 0.4277749270225657 0.6265679509604543 0.4590648784516762
3 183 196 182 0.4277749270225657 0.6265679509604543 0.4590648784516762
3 226 213 225 0.4277749270225657 0.6265679509604543 0.4590648784516762
3 213 214 225 0.4277749270225657 0.6265679509604543 0.4590648784516762
3 225 214 224 0.4277749270225657 0.6265679509604543 0.4590648784516762
3 211 231 232 0.4277749270225657 0.6265679509604543 0.4590648784516762
3 211 212 231 0.4277749270225657 0.6265679509604543 0.4590648784516762
3 247 145 246 0.4277749270225657 0.6265679509604543 0.4590648784516762
3 143 249 141 0.4277749270225657 0.6265679509604543 0.4590648784516762
3 248 249 143 0.4277749270225657 0.6265679509604543 0.4590648784516762
3 169 158 159 0.4277749270225657 0.6265679509604543 0.4590648784516762
3 155 156 236 0.4277749270225657 0.6265679509604543 0.4590648784516762
3 236 237 155 0.4277749270225657 0.6265679509604543 0.4590648784516762
3 155 237 154 0.4277749270225657 0.6265679509604543 0.4590648784516762
3 233 234 209 0.4277749270225657 0.6265679509604543 0.4590648784516762
3 207 208 235 0.4277749270225657 0.6265679509604543 0.4590648784516762
3 208 234 235 0.4277749270225657 0.6265679509604543 0.4590648784516762
3 235 236 207 0.4277749270225657 0.6265679509604543 0.4590648784516762
3 152 240 151 0.4277749270225657 0.6265679509604543 0.4590648784516762
3 152 239 240 0.4277749270225657 0.6265679509604543 0.4590648784516762
3 210 211 232 0.4277749270225657 0.6265679509604543 0.4590648784516762
3 210 233 209 0.4277749270225657 0.6265679509604543 0.4590648784516762
3 232 233 210 0.4277749270225657 0.6265679509604543 0.4590648784516762
3 248 143 144 0.4277749270225657 0.6265679509604543 0.4590648784516762
3 145 247 144 0.4277749270225657 0.6265679509604543 0.4590648784516762
3 144 247 248 0.4277749270225657 0.6265679509604543 0.4590648784516762
3 160 167 168 0.4277749270225657 0.6265679509604543 0.4590648784516762
3 169 159 168 0.4277749270225657 0.6265679509604543 0.4590648784516762
3 168 159 160 0.4277749270225657 0.6265679509604543 0.4590648784516762
3 166 162 165 0.4277749270225657 0.6265679509604543 0.4590648784516762
3 161 162 166 0.4277749270225657 0.6265679509604543 0.4590648784516762
3 166 167 161 0.4277749270225657 0.6265679509604543 0.4590648784516762
3 161 167 160 0.4277749270225657 0.6265679509604543 0.4590648784516762
3 239 152 153 0.4277749270225657 0.6265679509604543 0.4590648784516762
3 153 154 238 0.4277749270225657 0.6265679509604543 0.4590648784516762
3 238 239 153 0.4277749270225657 0.6265679509604543 0.4590648784516762
3 164 165 163 0.4277749270225657 0.6265679509604543 0.4590648784516762
3 163 165 162 0.4277749270225657 0.6265679509604543 0.4590648784516762
3 275 254 255 0.4277749270225657 0.6265679509604543 0.4590648784516762
3 285 254 275 0.4277749270225657 0.6265679509604543 0.4590648784516762
3 262 264 291 0.4277749270225657 0.6265679509604543 0.4590648784516762
3 283 264 265 0.4277749270225657 0.6265679509604543 0.4590648784516762
3 283 292 264 0.4277749270225657 0.6265679509604543 0.4590648784516762
3 261 291 264 0.4277749270225657 0.6265679509604543 0.4590648784516762
3 264 292 261 0.4277749270225657 0.6265679509604543 0.4590648784516762
3 262 291 261 0.4277749270225657 0.6265679509604543 0.4590648784516762
3 265 266 271 0.4277749270225657 0.6265679509604543 0.4590648784516762
3 259 269 258 0.4277749270225657 0.6265679509604543 0.4590648784516762
3 280 278 279 0.4277749270225657 0.6265679509604543 0.4590648784516762
3 279 258 280 0.4277749270225657 0.6265679509604543 0.4590648784516762
3 280 258 269 0.4277749270225657 0.6265679509604543 0.4590648784516762
3 280 269 303 0.4277749270225657 0.6265679509604543 0.4590648784516762
3 293 295 296 0.4277749270225657 0.6265679509604543 0.4590648784516762
3 272 266 267 0.4277749270225657 0.6265679509604543 0.4590648784516762
3 272 296 295 0.4277749270225657 0.6265679509604543 0.4590648784516762
3 260 261 281 0.4277749270225657 0.6265679509604543 0.4590648784516762
3 281 261 292 0.4277749270225657 0.6265679509604543 0.4590648784516762
3 281 282 260 0.4277749270225657 0.6265679509604543 0.4590648784516762
3 292 282 281 0.4277749270225657 0.6265679509604543 0.4590648784516762
3 259 260 270 0.4277749270225657 0.6265679509604543 0.4590648784516762
3 260 282 270 0.4277749270225657 0.6265679509604543 0.4590648784516762
3 270 282 293 0.4277749270225657 0.6265679509604543 0.4590648784516762
3 292 283 284 0.4277749270225657 0.6265679509604543 0.4590648784516762
3 284 282 292 0.4277749270225657 0.6265679509604543 0.4590648784516762
3 284 283 265 0.4277749270225657 0.6265679509604543 0.4590648784516762
3 265 271 284 0.4277749270225657 0.6265679509604543 0.4590648784516762
3 293 282 284 0.4277749270225657 0.6265679509604543 0.4590648784516762
3 284 271 293 0.4277749270225657 0.6265679509604543 0.4590648784516762
3 288 269 259 0.4277749270225657 0.6265679509604543 0.4590648784516762
3 288 289 269 0.4277749270225657 0.6265679509604543 0.4590648784516762
3 259 270 288 0.4277749270225657 0.6265679509604543 0.4590648784516762
3 293 289 288 0.4277749270225657 0.6265679509604543 0.4590648784516762
3 288 270 293 0.4277749270225657 0.6265679509604543 0.4590648784516762
3 300 267 251 0.4277749270225657 0.6265679509604543 0.4590648784516762
3 253 254 285 0.4277749270225657 0.6265679509604543 0.4590648784516762
3 279 278 257 0.4277749270225657 0.6265679509604543 0.4590648784516762
3 278 277 257 0.4277749270225657 0.6265679509604543 0.4590648784516762
3 257 258 279 0.4277749270225657 0.6265679509604543 0.4590648784516762
3 290 289 293 0.4277749270225657 0.6265679509604543 0.4590648784516762
3 293 296 290 0.4277749270225657 0.6265679509604543 0.4590648784516762
3 290 296 303 0.4277749270225657 0.6265679509604543 0.4590648784516762
3 303 269 290 0.4277749270225657 0.6265679509604543 0.4590648784516762
3 269 289 290 0.4277749270225657 0.6265679509604543 0.4590648784516762
3 266 272 294 0.4277749270225657 0.6265679509604543 0.4590648784516762
3 294 272 295 0.4277749270225657 0.6265679509604543 0.4590648784516762
3 294 271 266 0.4277749270225657 0.6265679509604543 0.4590648784516762
3 294 295 293 0.4277749270225657 0.6265679509604543 0.4590648784516762
3 293 271 294 0.4277749270225657 0.6265679509604543 0.4590648784516762
3 287 280 303 0.4277749270225657 0.6265679509604543 0.4590648784516762
3 278 280 287 0.4277749270225657 0.6265679509604543 0.4590648784516762
3 287 286 278 0.4277749270225657 0.6265679509604543 0.4590648784516762
3 274 286 287 0.4277749270225657 0.6265679509604543 0.4590648784516762
3 298 300 274 0.4277749270225657 0.6265679509604543 0.4590648784516762
3 298 272 267 0.4277749270225657 0.6265679509604543 0.4590648784516762
3 267 300 298 0.4277749270225657 0.6265679509604543 0.4590648784516762
3 276 277 278 0.4277749270225657 0.6265679509604543 0.4590648784516762
3 278 286 276 0.4277749270225657 0.6265679509604543 0.4590648784516762
3 276 286 285 0.4277749270225657 0.6265679509604543 0.4590648784516762
3 273 286 274 0.4277749270225657 0.6265679509604543 0.4590648784516762
3 274 300 273 0.4277749270225657 0.6265679509604543 0.4590648784516762
3 273 253 285 0.4277749270225657 0.6265679509604543 0.4590648784516762
3 285 286 273 0.4277749270225657 0.6265679509604543 0.4590648784516762
3 273 300 251 0.4277749270225657 0.6265679509604543 0.4590648784516762
3 251 253 273 0.4277749270225657 0.6265679509604543 0.4590648784516762
3 256 275 255 0.4277749270225657 0.6265679509604543 0.4590648784516762
3 256 257 277 0.4277749270225657 0.6265679509604543 0.4590648784516762
3 277 276 256 0.4277749270225657 0.6265679509604543 0.4590648784516762
3 285 275 256 0.4277749270225657 0.6265679509604543 0.4590648784516762
3 256 276 285 0.4277749270225657 0.6265679509604543 0.4590648784516762
3 274 287 299 0.4277749270225657 0.6265679509604543 0.4590648784516762
3 299 298 274 0.4277749270225657 0.6265679509604543 0.4590648784516762
3 272 298 299 0.4277749270225657 0.6265679509604543 0.4590648784516762
3 299 287 303 0.4277749270225657 0.6265679509604543 0.4590648784516762
3 303 296 299 0.4277749270225657 0.6265679509604543 0.4590648784516762
3 296 272 299 0.4277749270225657 0.6265679509604543 0.4590648784516762
3 322 341 321 0.4277749270225657 0.6265679509604543 0.4590648784516762
3 330 320 321 0.4277749270225657 0.6265679509604543 0.4590648784516762
3 321 341 330 0.4277749270225657 0.6265679509604543 0.4590648784516762
3 305 307 345 0.4277749270225657 0.6265679509604543 0.4590648784516762
3 312 311 327 0.4277749270225657 0.6265679509604543 0.4590648784516762
3 313 312 310 0.4277749270225657 0.6265679509604543 0.4590648784516762
3 310 312 327 0.4277749270225657 0.6265679509604543 0.4590648784516762
3 329 320 330 0.4277749270225657 0.6265679509604543 0.4590648784516762
3 318 320 329 0.4277749270225657 0.6265679509604543 0.4590648784516762
3 329 317 318 0.4277749270225657 0.6265679509604543 0.4590648784516762
3 330 340 339 0.4277749270225657 0.6265679509604543 0.4590648784516762
3 339 329 330 0.4277749270225657 0.6265679509604543 0.4590648784516762
3 317 329 339 0.4277749270225657 0.6265679509604543 0.4590648784516762
3 316 317 339 0.4277749270225657 0.6265679509604543 0.4590648784516762
3 305 345 323 0.4277749270225657 0.6265679509604543 0.4590648784516762
3 325 307 308 0.4277749270225657 0.6265679509604543 0.4590648784516762
3 325 345 307 0.4277749270225657 0.6265679509604543 0.4590648784516762
3 325 346 345 0.4277749270225657 0.6265679509604543 0.4590648784516762
3 344 334 347 0.4277749270225657 0.6265679509604543 0.4590648784516762
3 346 334 344 0.4277749270225657 0.6265679509604543 0.4590648784516762
3 316 337 315 0.4277749270225657 0.6265679509604543 0.4590648784516762
3 315 337 327 0.4277749270225657 0.6265679509604543 0.4590648784516762
3 327 311 315 0.4277749270225657 0.6265679509604543 0.4590648784516762
3 328 337 316 0.4277749270225657 0.6265679509604543 0.4590648784516762
3 316 339 328 0.4277749270225657 0.6265679509604543 0.4590648784516762
3 328 339 340 0.4277749270225657 0.6265679509604543 0.4590648784516762
3 327 337 335 0.4277749270225657 0.6265679509604543 0.4590648784516762
3 335 310 327 0.4277749270225657 0.6265679509604543 0.4590648784516762
3 308 326 333 0.4277749270225657 0.6265679509604543 0.4590648784516762
3 326 334 333 0.4277749270225657 0.6265679509604543 0.4590648784516762
3 333 325 308 0.4277749270225657 0.6265679509604543 0.4590648784516762
3 333 334 346 0.4277749270225657 0.6265679509604543 0.4590648784516762
3 346 325 333 0.4277749270225657 0.6265679509604543 0.4590648784516762
3 309 326 308 0.4277749270225657 0.6265679509604543 0.4590648784516762
3 309 335 326 0.4277749270225657 0.6265679509604543 0.4590648784516762
3 310 335 309 0.4277749270225657 0.6265679509604543 0.4590648784516762
3 345 346 343 0.4277749270225657 0.6265679509604543 0.4590648784516762
3 343 323 345 0.4277749270225657 0.6265679509604543 0.4590648784516762
3 322 323 343 0.4277749270225657 0.6265679509604543 0.4590648784516762
3 346 344 343 0.4277749270225657 0.6265679509604543 0.4590648784516762
3 342 344 347 0.4277749270225657 0.6265679509604543 0.4590648784516762
3 347 340 342 0.4277749270225657 0.6265679509604543 0.4590648784516762
3 342 340 330 0.4277749270225657 0.6265679509604543 0.4590648784516762
3 330 341 342 0.4277749270225657 0.6265679509604543 0.4590648784516762
3 331 341 322 0.4277749270225657 0.6265679509604543 0.4590648784516762
3 322 343 331 0.4277749270225657 0.6265679509604543 0.4590648784516762
3 331 343 344 0.4277749270225657 0.6265679509604543 0.4590648784516762
3 331 342 341 0.4277749270225657 0.6265679509604543 0.4590648784516762
3 344 342 331 0.4277749270225657 0.6265679509604543 0.4590648784516762
3 337 328 338 0.4277749270225657 0.6265679509604543 0.4590648784516762
3 338 340 347 0.4277749270225657 0.6265679509604543 0.4590648784516762
3 338 328 340 0.4277749270225657 0.6265679509604543 0.4590648784516762
3 336 335 337 0.4277749270225657 0.6265679509604543 0.4590648784516762
3 337 338 336 0.4277749270225657 0.6265679509604543 0.4590648784516762
3 326 335 336 0.4277749270225657 0.6265679509604543 0.4590648784516762
3 336 334 326 0.4277749270225657 0.6265679509604543 0.4590648784516762
3 347 334 336 0.4277749270225657 0.6265679509604543 0.4590648784516762
3 336 338 347 0.4277749270225657 0.6265679509604543 0.4590648784516762
