OFF
135 155 0


25.6898 32.493 9.3236
25.6898 32.493 9.3236
25.6482 32.5545 9.2148
25.6174 32.5999 9.135
25.5752 32.662 9.0268
25.5449 32.5473 8.9627
25.5225 32.4641 8.9165
25.5028 32.3924 8.8767
25.4829 32.3206 8.8371
25.4594 32.2375 8.7913
25.4264 32.1229 8.7285
25.4264 32.1229 8.7285
25.4734 32.197 8.8287
25.5107 32.2531 8.9097
25.5432 32.3004 8.9818
25.5742 32.344 9.0519
25.6065 32.3879 9.1263
25.6434 32.4358 9.2126
25.6898 32.493 9.3236
25.6026 32.5448 9.1031
25.5321 32.4438 8.9413
25.5025 32.3373 8.8815
25.5472 32.3214 8.9893
25.595 32.3873 9.0982
25.626 32.5121 9.1633
25.6039 32.4698 9.1124
25.5487 32.505 8.9757
25.5524 32.464 8.9882
25.4849 32.2752 8.8468
25.5101 32.3124 8.902
25.4951 32.2441 8.874
25.5166 32.2912 8.9196
25.5706 32.3542 9.0422
25.5669 32.3645 9.0324
25.6582 32.4671 9.2466
25.626 32.4406 9.1692
25.5711 32.5887 9.0227
25.5672 32.5182 9.019
25.5633 32.4505 9.0156
25.5174 32.3906 8.9114
25.5317 32.3889 8.9456
25.5457 32.3871 8.9792
25.4602 32.1894 8.7988
25.4936 32.2551 8.8694
25.5267 32.3204 8.9405
25.5228 32.286 8.935
25.535 32.3189 8.9605
25.5472 32.352 8.9863
25.623 32.4237 9.1633
25.6022 32.4112 9.1135
25.581 32.3984 9.0632
25.6582 32.4671 9.2466
25.626 32.4406 9.1692
25.5931 32.4134 9.0912
25.5594 32.3853 9.0124
25.5594 32.3853 9.0124
25.6898 32.493 9.3236
25.6898 32.493 9.3236
25.6434 32.4358 9.2126
25.6065 32.3879 9.1263
25.5742 32.344 9.0519
25.5432 32.3004 8.9818
25.5107 32.2531 8.9097
25.4734 32.197 8.8287
25.4264 32.1229 8.7285
25.4252 32.12 8.7268
25.424 32.1171 8.7251
25.424 32.1171 8.7251
25.4348 32.0405 8.8208
25.4453 31.9676 8.9128
25.4557 31.898 9.0017
25.466 31.8314 9.0881
25.4763 31.7674 9.1724
25.4867 31.7057 9.2551
25.4972 31.6462 9.3367
25.508 31.5886 9.4176
25.5191 31.533 9.498
25.5306 31.4792 9.5785
25.5426 31.4273 9.6591
25.5553 31.3775 9.7403
25.5687 31.3298 9.8224
25.583 31.2845 9.9055
25.5982 31.2419 9.9897
25.6145 31.2021 10.0752
25.6319 31.1654 10.1621
25.6504 31.1319 10.2503
25.6701 31.1017 10.3397
25.6908 31.0746 10.4302
25.7126 31.0505 10.5219
25.7353 31.0293 10.6146
25.7589 31.0104 10.7084
25.7834 30.9938 10.8034
25.8088 30.9791 10.8999
25.835 30.966 10.9979
25.8621 30.9542 11.0978
25.8901 30.9437 11.2
25.9192 30.9342 11.3048
25.9494 30.9255 11.4129
25.9809 30.9176 11.5248
26.0139 30.9102 11.641
26.0139 30.9102 11.641
26.0459 31.0499 11.6396
26.0689 31.1511 11.6381
26.0887 31.2385 11.6364
26.1084 31.3259 11.6343
26.1311 31.4272 11.6316
26.1621 31.5669 11.6271
26.1621 31.5669 11.6271
26.1446 31.6012 11.5418
26.1272 31.6355 11.4565
26.1097 31.6698 11.3712
26.0922 31.7041 11.2859
26.0747 31.7384 11.2006
26.0572 31.7727 11.1152
26.0397 31.807 11.0299
26.0222 31.8413 10.9446
26.0047 31.8756 10.8593
25.9872 31.9099 10.774
25.9697 31.9442 10.6887
25.9522 31.9785 10.6033
25.9347 32.0128 10.518
25.9172 32.0471 10.4327
25.8997 32.0814 10.3474
25.8822 32.1157 10.2621
25.8647 32.15 10.1768
25.8472 32.1843 10.0914
25.8297 32.2186 10.0061
25.8123 32.2529 9.9208
25.7948 32.2872 9.8355
25.7773 32.3215 9.7502
25.7598 32.3558 9.6649
25.7423 32.3901 9.5796
25.7248 32.4244 9.4942
25.7073 32.4587 9.4089
25.6898 32.493 9.3236
3 2 3 19 0.3604069186932448 0.3205109774079369 0.9026832920899825
3 36 3 4 0.3604069186932448 0.3205109774079369 0.9026832920899825
3 19 3 36 0.3604069186932448 0.3205109774079369 0.9026832920899825
3 42 9 10 0.3604069186932448 0.3205109774079369 0.9026832920899825
3 10 12 42 0.3604069186932448 0.3205109774079369 0.9026832920899825
3 42 12 9 0.3604069186932448 0.3205109774079369 0.9026832920899825
3 14 15 22 0.3604069186932448 0.3205109774079369 0.9026832920899825
3 23 15 16 0.3604069186932448 0.3205109774079369 0.9026832920899825
3 54 47 33 0.3604069186932448 0.3205109774079369 0.9026832920899825
3 33 50 54 0.3604069186932448 0.3205109774079369 0.9026832920899825
3 7 20 6 0.3604069186932448 0.3205109774079369 0.9026832920899825
3 54 50 38 0.3604069186932448 0.3205109774079369 0.9026832920899825
3 5 6 26 0.3604069186932448 0.3205109774079369 0.9026832920899825
3 5 36 4 0.3604069186932448 0.3205109774079369 0.9026832920899825
3 37 25 19 0.3604069186932448 0.3205109774079369 0.9026832920899825
3 37 5 26 0.3604069186932448 0.3205109774079369 0.9026832920899825
3 37 38 25 0.3604069186932448 0.3205109774079369 0.9026832920899825
3 19 36 37 0.3604069186932448 0.3205109774079369 0.9026832920899825
3 36 5 37 0.3604069186932448 0.3205109774079369 0.9026832920899825
3 24 2 19 0.3604069186932448 0.3205109774079369 0.9026832920899825
3 19 25 24 0.3604069186932448 0.3205109774079369 0.9026832920899825
3 16 17 48 0.3604069186932448 0.3205109774079369 0.9026832920899825
3 47 40 44 0.3604069186932448 0.3205109774079369 0.9026832920899825
3 32 33 47 0.3604069186932448 0.3205109774079369 0.9026832920899825
3 47 22 32 0.3604069186932448 0.3205109774079369 0.9026832920899825
3 32 22 15 0.3604069186932448 0.3205109774079369 0.9026832920899825
3 15 23 32 0.3604069186932448 0.3205109774079369 0.9026832920899825
3 32 23 50 0.3604069186932448 0.3205109774079369 0.9026832920899825
3 50 33 32 0.3604069186932448 0.3205109774079369 0.9026832920899825
3 39 20 7 0.3604069186932448 0.3205109774079369 0.9026832920899825
3 39 40 20 0.3604069186932448 0.3205109774079369 0.9026832920899825
3 41 47 54 0.3604069186932448 0.3205109774079369 0.9026832920899825
3 41 40 47 0.3604069186932448 0.3205109774079369 0.9026832920899825
3 20 40 41 0.3604069186932448 0.3205109774079369 0.9026832920899825
3 54 38 41 0.3604069186932448 0.3205109774079369 0.9026832920899825
3 41 38 20 0.3604069186932448 0.3205109774079369 0.9026832920899825
3 53 38 50 0.3604069186932448 0.3205109774079369 0.9026832920899825
3 25 38 53 0.3604069186932448 0.3205109774079369 0.9026832920899825
3 50 23 53 0.3604069186932448 0.3205109774079369 0.9026832920899825
3 20 38 27 0.3604069186932448 0.3205109774079369 0.9026832920899825
3 26 6 27 0.3604069186932448 0.3205109774079369 0.9026832920899825
3 27 6 20 0.3604069186932448 0.3205109774079369 0.9026832920899825
3 27 37 26 0.3604069186932448 0.3205109774079369 0.9026832920899825
3 38 37 27 0.3604069186932448 0.3205109774079369 0.9026832920899825
3 45 13 14 0.3604069186932448 0.3205109774079369 0.9026832920899825
3 31 13 45 0.3604069186932448 0.3205109774079369 0.9026832920899825
3 45 44 31 0.3604069186932448 0.3205109774079369 0.9026832920899825
3 28 8 9 0.3604069186932448 0.3205109774079369 0.9026832920899825
3 52 24 25 0.3604069186932448 0.3205109774079369 0.9026832920899825
3 52 48 17 0.3604069186932448 0.3205109774079369 0.9026832920899825
3 51 17 0 0.3604069186932448 0.3205109774079369 0.9026832920899825
3 0 2 51 0.3604069186932448 0.3205109774079369 0.9026832920899825
3 2 24 51 0.3604069186932448 0.3205109774079369 0.9026832920899825
3 51 52 17 0.3604069186932448 0.3205109774079369 0.9026832920899825
3 24 52 51 0.3604069186932448 0.3205109774079369 0.9026832920899825
3 46 22 47 0.3604069186932448 0.3205109774079369 0.9026832920899825
3 47 44 46 0.3604069186932448 0.3205109774079369 0.9026832920899825
3 14 22 46 0.3604069186932448 0.3205109774079369 0.9026832920899825
3 46 45 14 0.3604069186932448 0.3205109774079369 0.9026832920899825
3 44 45 46 0.3604069186932448 0.3205109774079369 0.9026832920899825
3 31 44 29 0.3604069186932448 0.3205109774079369 0.9026832920899825
3 8 28 29 0.3604069186932448 0.3205109774079369 0.9026832920899825
3 29 28 31 0.3604069186932448 0.3205109774079369 0.9026832920899825
3 21 44 40 0.3604069186932448 0.3205109774079369 0.9026832920899825
3 40 39 21 0.3604069186932448 0.3205109774079369 0.9026832920899825
3 21 29 44 0.3604069186932448 0.3205109774079369 0.9026832920899825
3 21 39 7 0.3604069186932448 0.3205109774079369 0.9026832920899825
3 7 8 21 0.3604069186932448 0.3205109774079369 0.9026832920899825
3 8 29 21 0.3604069186932448 0.3205109774079369 0.9026832920899825
3 49 23 16 0.3604069186932448 0.3205109774079369 0.9026832920899825
3 49 53 23 0.3604069186932448 0.3205109774079369 0.9026832920899825
3 16 48 49 0.3604069186932448 0.3205109774079369 0.9026832920899825
3 25 53 49 0.3604069186932448 0.3205109774079369 0.9026832920899825
3 49 52 25 0.3604069186932448 0.3205109774079369 0.9026832920899825
3 48 52 49 0.3604069186932448 0.3205109774079369 0.9026832920899825
3 12 13 30 0.3604069186932448 0.3205109774079369 0.9026832920899825
3 9 12 30 0.3604069186932448 0.3205109774079369 0.9026832920899825
3 43 13 31 0.3604069186932448 0.3205109774079369 0.9026832920899825
3 31 28 43 0.3604069186932448 0.3205109774079369 0.9026832920899825
3 43 30 13 0.3604069186932448 0.3205109774079369 0.9026832920899825
3 43 28 9 0.3604069186932448 0.3205109774079369 0.9026832920899825
3 9 30 43 0.3604069186932448 0.3205109774079369 0.9026832920899825
3 66 68 65 0.3604069186932448 0.3205109774079369 0.9026832920899825
3 68 64 65 0.3604069186932448 0.3205109774079369 0.9026832920899825
3 75 127 128 0.3604069186932448 0.3205109774079369 0.9026832920899825
3 76 127 75 0.3604069186932448 0.3205109774079369 0.9026832920899825
3 63 64 68 0.3604069186932448 0.3205109774079369 0.9026832920899825
3 69 63 68 0.3604069186932448 0.3205109774079369 0.9026832920899825
3 107 108 105 0.3604069186932448 0.3205109774079369 0.9026832920899825
3 81 82 121 0.3604069186932448 0.3205109774079369 0.9026832920899825
3 122 81 121 0.3604069186932448 0.3205109774079369 0.9026832920899825
3 80 81 122 0.3604069186932448 0.3205109774079369 0.9026832920899825
3 79 124 78 0.3604069186932448 0.3205109774079369 0.9026832920899825
3 62 69 61 0.3604069186932448 0.3205109774079369 0.9026832920899825
3 63 69 62 0.3604069186932448 0.3205109774079369 0.9026832920899825
3 71 59 60 0.3604069186932448 0.3205109774079369 0.9026832920899825
3 131 59 71 0.3604069186932448 0.3205109774079369 0.9026832920899825
3 131 128 56 0.3604069186932448 0.3205109774079369 0.9026832920899825
3 61 69 70 0.3604069186932448 0.3205109774079369 0.9026832920899825
3 71 60 70 0.3604069186932448 0.3205109774079369 0.9026832920899825
3 70 60 61 0.3604069186932448 0.3205109774079369 0.9026832920899825
3 90 115 89 0.3604069186932448 0.3205109774079369 0.9026832920899825
3 89 115 116 0.3604069186932448 0.3205109774079369 0.9026832920899825
3 120 83 84 0.3604069186932448 0.3205109774079369 0.9026832920899825
3 121 82 120 0.3604069186932448 0.3205109774079369 0.9026832920899825
3 82 83 120 0.3604069186932448 0.3205109774079369 0.9026832920899825
3 86 118 85 0.3604069186932448 0.3205109774079369 0.9026832920899825
3 75 128 74 0.3604069186932448 0.3205109774079369 0.9026832920899825
3 124 79 123 0.3604069186932448 0.3205109774079369 0.9026832920899825
3 80 122 123 0.3604069186932448 0.3205109774079369 0.9026832920899825
3 123 79 80 0.3604069186932448 0.3205109774079369 0.9026832920899825
3 127 76 126 0.3604069186932448 0.3205109774079369 0.9026832920899825
3 76 77 126 0.3604069186932448 0.3205109774079369 0.9026832920899825
3 78 124 125 0.3604069186932448 0.3205109774079369 0.9026832920899825
3 125 77 78 0.3604069186932448 0.3205109774079369 0.9026832920899825
3 125 126 77 0.3604069186932448 0.3205109774079369 0.9026832920899825
3 72 131 71 0.3604069186932448 0.3205109774079369 0.9026832920899825
3 130 72 73 0.3604069186932448 0.3205109774079369 0.9026832920899825
3 131 72 130 0.3604069186932448 0.3205109774079369 0.9026832920899825
3 132 58 59 0.3604069186932448 0.3205109774079369 0.9026832920899825
3 59 131 132 0.3604069186932448 0.3205109774079369 0.9026832920899825
3 89 116 88 0.3604069186932448 0.3205109774079369 0.9026832920899825
3 117 86 87 0.3604069186932448 0.3205109774079369 0.9026832920899825
3 117 118 86 0.3604069186932448 0.3205109774079369 0.9026832920899825
3 87 88 117 0.3604069186932448 0.3205109774079369 0.9026832920899825
3 117 88 116 0.3604069186932448 0.3205109774079369 0.9026832920899825
3 98 100 101 0.3604069186932448 0.3205109774079369 0.9026832920899825
3 98 101 97 0.3604069186932448 0.3205109774079369 0.9026832920899825
3 97 101 102 0.3604069186932448 0.3205109774079369 0.9026832920899825
3 119 120 84 0.3604069186932448 0.3205109774079369 0.9026832920899825
3 84 85 119 0.3604069186932448 0.3205109774079369 0.9026832920899825
3 119 85 118 0.3604069186932448 0.3205109774079369 0.9026832920899825
3 129 130 73 0.3604069186932448 0.3205109774079369 0.9026832920899825
3 129 74 128 0.3604069186932448 0.3205109774079369 0.9026832920899825
3 73 74 129 0.3604069186932448 0.3205109774079369 0.9026832920899825
3 56 58 133 0.3604069186932448 0.3205109774079369 0.9026832920899825
3 58 132 133 0.3604069186932448 0.3205109774079369 0.9026832920899825
3 112 93 111 0.3604069186932448 0.3205109774079369 0.9026832920899825
3 91 113 114 0.3604069186932448 0.3205109774079369 0.9026832920899825
3 114 90 91 0.3604069186932448 0.3205109774079369 0.9026832920899825
3 115 90 114 0.3604069186932448 0.3205109774079369 0.9026832920899825
3 92 113 91 0.3604069186932448 0.3205109774079369 0.9026832920899825
3 112 113 92 0.3604069186932448 0.3205109774079369 0.9026832920899825
3 92 93 112 0.3604069186932448 0.3205109774079369 0.9026832920899825
3 95 103 104 0.3604069186932448 0.3205109774079369 0.9026832920899825
3 96 97 102 0.3604069186932448 0.3205109774079369 0.9026832920899825
3 96 103 95 0.3604069186932448 0.3205109774079369 0.9026832920899825
3 102 103 96 0.3604069186932448 0.3205109774079369 0.9026832920899825
3 109 105 108 0.3604069186932448 0.3205109774079369 0.9026832920899825
3 109 104 105 0.3604069186932448 0.3205109774079369 0.9026832920899825
3 110 104 109 0.3604069186932448 0.3205109774079369 0.9026832920899825
3 94 111 93 0.3604069186932448 0.3205109774079369 0.9026832920899825
3 110 111 94 0.3604069186932448 0.3205109774079369 0.9026832920899825
3 95 104 94 0.3604069186932448 0.3205109774079369 0.9026832920899825
3 94 104 110 0.3604069186932448 0.3205109774079369 0.9026832920899825
