OFF
90 116 0


30.8557 30.9356 6.725
30.8557 30.9356 6.725
30.7538 31.0079 6.643
30.679 31.0628 6.5818
30.6171 31.1095 6.5303
30.5606 31.153 6.4828
30.5047 31.1971 6.4353
30.4442 31.2455 6.3833
30.3727 31.304 6.3212
30.2781 31.3833 6.2378
30.2781 31.3833 6.2378
30.3639 31.4563 6.3278
30.4267 31.5095 6.3926
30.5137 31.5829 6.4809
30.5921 31.4972 6.5469
30.6467 31.4357 6.592
30.693 31.3823 6.6295
30.7389 31.3281 6.666
30.7922 31.2634 6.7076
30.8677 31.1686 6.7646
30.8677 31.1686 6.7646
30.8602 31.0523 6.7441
30.8557 30.9356 6.725
30.6186 31.1404 6.5355
30.5352 31.2064 6.4651
30.4792 31.4349 6.4357
30.6407 31.3844 6.5817
30.7103 31.3048 6.6378
30.7217 31.0627 6.6208
30.6894 31.1184 6.5981
30.5766 31.1733 6.5001
30.5924 31.1935 6.5172
30.4398 31.2849 6.3834
30.5037 31.2669 6.4421
30.4342 31.3953 6.3892
30.5004 31.3382 6.4464
30.5999 31.429 6.5482
30.6078 31.3625 6.5492
30.751 31.2561 6.6696
30.7092 31.2486 6.6309
30.8027 31.0957 6.6982
30.7444 31.1401 6.6509
30.6652 31.1048 6.5742
30.6514 31.1471 6.5666
30.6376 31.1899 6.5588
30.4911 31.2423 6.4275
30.5365 31.2392 6.47
30.5807 31.2361 6.511
30.3737 31.3414 6.326
30.4622 31.3028 6.4066
30.5452 31.2669 6.4811
30.5423 31.4898 6.4999
30.57 31.401 6.5178
30.5971 31.3157 6.5347
30.6755 31.3451 6.61
30.6582 31.3079 6.5904
30.641 31.2706 6.5706
30.8085 31.1841 6.7136
30.7484 31.2 6.6612
30.6869 31.2163 6.6071
30.7987 31.0074 6.6836
30.7415 31.0805 6.641
30.6834 31.1554 6.5969
30.7987 31.0074 6.6836
30.7415 31.0805 6.641
30.6834 31.1554 6.5969
30.6238 31.2332 6.5508
30.6238 31.2332 6.5508
30.8557 30.9356 6.725
30.8557 30.9356 6.725
30.9628 30.858 6.7604
31.0481 30.7979 6.7889
31.1222 30.7472 6.8139
31.1915 30.7008 6.8374
31.2614 30.6553 6.8612
31.3369 30.6073 6.8872
31.4251 30.5527 6.9178
31.5377 30.4854 6.9572
31.4548 30.5912 6.9365
31.383 30.6775 6.9177
31.3175 30.7517 6.9
31.2548 30.819 6.8825
31.1921 30.8829 6.8645
31.1263 30.9466 6.8451
31.054 31.0129 6.8232
30.9702 31.0854 6.7972
30.8677 31.1686 6.7646
30.8677 31.1686 6.7646
30.8602 31.0523 6.7441
30.8557 30.9356 6.725
3 11 34 12 0.918469528749025 0.7054850800722756 0.09272318321099215
3 60 2 0 0.918469528749025 0.7054850800722756 0.09272318321099215
3 0 21 60 0.918469528749025 0.7054850800722756 0.09272318321099215
3 24 47 46 0.918469528749025 0.7054850800722756 0.09272318321099215
3 24 6 5 0.918469528749025 0.7054850800722756 0.09272318321099215
3 46 6 24 0.918469528749025 0.7054850800722756 0.09272318321099215
3 46 47 50 0.918469528749025 0.7054850800722756 0.09272318321099215
3 35 33 50 0.918469528749025 0.7054850800722756 0.09272318321099215
3 50 33 46 0.918469528749025 0.7054850800722756 0.09272318321099215
3 46 33 45 0.918469528749025 0.7054850800722756 0.09272318321099215
3 45 6 46 0.918469528749025 0.7054850800722756 0.09272318321099215
3 7 6 45 0.918469528749025 0.7054850800722756 0.09272318321099215
3 56 47 66 0.918469528749025 0.7054850800722756 0.09272318321099215
3 54 17 16 0.918469528749025 0.7054850800722756 0.09272318321099215
3 27 17 54 0.918469528749025 0.7054850800722756 0.09272318321099215
3 12 34 25 0.918469528749025 0.7054850800722756 0.09272318321099215
3 25 34 35 0.918469528749025 0.7054850800722756 0.09272318321099215
3 35 52 25 0.918469528749025 0.7054850800722756 0.09272318321099215
3 36 52 37 0.918469528749025 0.7054850800722756 0.09272318321099215
3 36 15 14 0.918469528749025 0.7054850800722756 0.09272318321099215
3 48 11 9 0.918469528749025 0.7054850800722756 0.09272318321099215
3 34 11 48 0.918469528749025 0.7054850800722756 0.09272318321099215
3 66 47 31 0.918469528749025 0.7054850800722756 0.09272318321099215
3 47 24 31 0.918469528749025 0.7054850800722756 0.09272318321099215
3 38 58 18 0.918469528749025 0.7054850800722756 0.09272318321099215
3 18 17 38 0.918469528749025 0.7054850800722756 0.09272318321099215
3 38 17 27 0.918469528749025 0.7054850800722756 0.09272318321099215
3 66 31 44 0.918469528749025 0.7054850800722756 0.09272318321099215
3 19 18 57 0.918469528749025 0.7054850800722756 0.09272318321099215
3 18 58 57 0.918469528749025 0.7054850800722756 0.09272318321099215
3 2 60 61 0.918469528749025 0.7054850800722756 0.09272318321099215
3 49 45 33 0.918469528749025 0.7054850800722756 0.09272318321099215
3 49 33 35 0.918469528749025 0.7054850800722756 0.09272318321099215
3 49 32 7 0.918469528749025 0.7054850800722756 0.09272318321099215
3 7 45 49 0.918469528749025 0.7054850800722756 0.09272318321099215
3 35 34 49 0.918469528749025 0.7054850800722756 0.09272318321099215
3 34 48 49 0.918469528749025 0.7054850800722756 0.09272318321099215
3 49 48 32 0.918469528749025 0.7054850800722756 0.09272318321099215
3 35 50 53 0.918469528749025 0.7054850800722756 0.09272318321099215
3 53 50 47 0.918469528749025 0.7054850800722756 0.09272318321099215
3 47 56 53 0.918469528749025 0.7054850800722756 0.09272318321099215
3 53 52 35 0.918469528749025 0.7054850800722756 0.09272318321099215
3 37 52 53 0.918469528749025 0.7054850800722756 0.09272318321099215
3 26 54 16 0.918469528749025 0.7054850800722756 0.09272318321099215
3 37 54 26 0.918469528749025 0.7054850800722756 0.09272318321099215
3 16 15 26 0.918469528749025 0.7054850800722756 0.09272318321099215
3 26 36 37 0.918469528749025 0.7054850800722756 0.09272318321099215
3 15 36 26 0.918469528749025 0.7054850800722756 0.09272318321099215
3 13 12 51 0.918469528749025 0.7054850800722756 0.09272318321099215
3 12 25 51 0.918469528749025 0.7054850800722756 0.09272318321099215
3 51 14 13 0.918469528749025 0.7054850800722756 0.09272318321099215
3 51 25 52 0.918469528749025 0.7054850800722756 0.09272318321099215
3 51 36 14 0.918469528749025 0.7054850800722756 0.09272318321099215
3 52 36 51 0.918469528749025 0.7054850800722756 0.09272318321099215
3 7 32 8 0.918469528749025 0.7054850800722756 0.09272318321099215
3 32 48 8 0.918469528749025 0.7054850800722756 0.09272318321099215
3 8 48 9 0.918469528749025 0.7054850800722756 0.09272318321099215
3 30 24 5 0.918469528749025 0.7054850800722756 0.09272318321099215
3 30 31 24 0.918469528749025 0.7054850800722756 0.09272318321099215
3 58 38 39 0.918469528749025 0.7054850800722756 0.09272318321099215
3 39 38 27 0.918469528749025 0.7054850800722756 0.09272318321099215
3 40 21 19 0.918469528749025 0.7054850800722756 0.09272318321099215
3 19 57 40 0.918469528749025 0.7054850800722756 0.09272318321099215
3 40 60 21 0.918469528749025 0.7054850800722756 0.09272318321099215
3 40 61 60 0.918469528749025 0.7054850800722756 0.09272318321099215
3 28 3 2 0.918469528749025 0.7054850800722756 0.09272318321099215
3 2 61 28 0.918469528749025 0.7054850800722756 0.09272318321099215
3 55 53 56 0.918469528749025 0.7054850800722756 0.09272318321099215
3 27 54 55 0.918469528749025 0.7054850800722756 0.09272318321099215
3 55 54 37 0.918469528749025 0.7054850800722756 0.09272318321099215
3 37 53 55 0.918469528749025 0.7054850800722756 0.09272318321099215
3 55 39 27 0.918469528749025 0.7054850800722756 0.09272318321099215
3 56 39 55 0.918469528749025 0.7054850800722756 0.09272318321099215
3 23 44 31 0.918469528749025 0.7054850800722756 0.09272318321099215
3 31 30 23 0.918469528749025 0.7054850800722756 0.09272318321099215
3 5 4 23 0.918469528749025 0.7054850800722756 0.09272318321099215
3 23 30 5 0.918469528749025 0.7054850800722756 0.09272318321099215
3 58 65 41 0.918469528749025 0.7054850800722756 0.09272318321099215
3 61 40 41 0.918469528749025 0.7054850800722756 0.09272318321099215
3 41 57 58 0.918469528749025 0.7054850800722756 0.09272318321099215
3 41 40 57 0.918469528749025 0.7054850800722756 0.09272318321099215
3 58 39 59 0.918469528749025 0.7054850800722756 0.09272318321099215
3 59 65 58 0.918469528749025 0.7054850800722756 0.09272318321099215
3 44 65 59 0.918469528749025 0.7054850800722756 0.09272318321099215
3 66 44 59 0.918469528749025 0.7054850800722756 0.09272318321099215
3 59 56 66 0.918469528749025 0.7054850800722756 0.09272318321099215
3 59 39 56 0.918469528749025 0.7054850800722756 0.09272318321099215
3 42 4 3 0.918469528749025 0.7054850800722756 0.09272318321099215
3 43 65 44 0.918469528749025 0.7054850800722756 0.09272318321099215
3 44 23 43 0.918469528749025 0.7054850800722756 0.09272318321099215
3 43 23 4 0.918469528749025 0.7054850800722756 0.09272318321099215
3 4 42 43 0.918469528749025 0.7054850800722756 0.09272318321099215
3 29 41 65 0.918469528749025 0.7054850800722756 0.09272318321099215
3 65 43 29 0.918469528749025 0.7054850800722756 0.09272318321099215
3 29 43 42 0.918469528749025 0.7054850800722756 0.09272318321099215
3 61 41 29 0.918469528749025 0.7054850800722756 0.09272318321099215
3 29 28 61 0.918469528749025 0.7054850800722756 0.09272318321099215
3 3 28 29 0.918469528749025 0.7054850800722756 0.09272318321099215
3 29 42 3 0.918469528749025 0.7054850800722756 0.09272318321099215
3 68 84 85 0.918469528749025 0.7054850800722756 0.09272318321099215
3 82 71 72 0.918469528749025 0.7054850800722756 0.09272318321099215
3 70 84 68 0.918469528749025 0.7054850800722756 0.09272318321099215
3 83 71 82 0.918469528749025 0.7054850800722756 0.09272318321099215
3 84 70 83 0.918469528749025 0.7054850800722756 0.09272318321099215
3 83 70 71 0.918469528749025 0.7054850800722756 0.09272318321099215
3 88 85 86 0.918469528749025 0.7054850800722756 0.09272318321099215
3 68 85 88 0.918469528749025 0.7054850800722756 0.09272318321099215
3 79 75 78 0.918469528749025 0.7054850800722756 0.09272318321099215
3 73 80 81 0.918469528749025 0.7054850800722756 0.09272318321099215
3 82 72 81 0.918469528749025 0.7054850800722756 0.09272318321099215
3 81 72 73 0.918469528749025 0.7054850800722756 0.09272318321099215
3 74 80 73 0.918469528749025 0.7054850800722756 0.09272318321099215
3 74 75 79 0.918469528749025 0.7054850800722756 0.09272318321099215
3 79 80 74 0.918469528749025 0.7054850800722756 0.09272318321099215
3 77 78 76 0.918469528749025 0.7054850800722756 0.09272318321099215
3 76 78 75 0.918469528749025 0.7054850800722756 0.09272318321099215
