OFF
86 81 0


29.9868 39.0958 8.2781
29.9868 39.0958 8.2781
29.9862 39.1577 8.3508
29.9855 39.2195 8.4234
29.9849 39.2814 8.4961
29.9842 39.3433 8.5688
29.9835 39.4052 8.6414
29.9829 39.4671 8.7141
29.9822 39.529 8.7868
29.9816 39.5909 8.8594
29.9809 39.6528 8.9321
29.9803 39.7147 9.0048
29.9796 39.7766 9.0774
29.979 39.8385 9.1501
29.9783 39.9004 9.2228
29.9776 39.9623 9.2954
29.977 40.0242 9.3681
29.9763 40.0861 9.4407
29.9757 40.148 9.5134
29.975 40.2099 9.5861
29.9744 40.2718 9.6587
29.9737 40.3337 9.7314
29.9731 40.3956 9.8041
29.9724 40.4575 9.8767
29.9717 40.5194 9.9494
29.9711 40.5813 10.0221
29.9704 40.6432 10.0947
29.9698 40.7051 10.1674
29.9691 40.767 10.2401
29.9685 40.8288 10.3127
29.9678 40.8907 10.3854
29.9672 40.9526 10.4581
29.9665 41.0145 10.5307
29.9658 41.0764 10.6034
29.9652 41.1383 10.676
29.9645 41.2002 10.7487
29.9639 41.2621 10.8214
29.9632 41.324 10.894
29.9948 41.181 10.863
30.0231 41.0528 10.8351
30.0487 40.9365 10.8098
30.0722 40.8296 10.7864
30.0941 40.7304 10.7647
30.1145 40.6374 10.7442
30.1339 40.5495 10.7249
30.1524 40.4655 10.7064
30.1701 40.3847 10.6885
30.1873 40.3064 10.6711
30.2041 40.2298 10.6541
30.2207 40.1543 10.6373
30.2371 40.0795 10.6206
30.2535 40.0046 10.6038
30.27 39.9292 10.5869
30.2868 39.8527 10.5696
30.3039 39.7744 10.552
30.3215 39.6938 10.5337
30.3398 39.6101 10.5147
30.3589 39.5223 10.4946
30.3791 39.4296 10.4734
30.4007 39.3307 10.4506
30.4239 39.2241 10.4259
30.4491 39.108 10.3989
30.4768 38.98 10.3688
30.5078 38.8369 10.3349
30.5078 38.8369 10.3349
30.4825 38.8275 10.2084
30.4588 38.8202 10.0913
30.4362 38.8148 9.9817
30.4144 38.8112 9.8782
30.3933 38.8091 9.7795
30.3726 38.8085 9.6844
30.3521 38.8095 9.5921
30.3316 38.812 9.5019
30.3109 38.8162 9.413
30.29 38.8222 9.3247
30.2685 38.8301 9.2367
30.2464 38.8403 9.1483
30.2234 38.8529 9.0592
30.1995 38.8683 8.9688
30.1743 38.887 8.877
30.1477 38.9093 8.7832
30.1196 38.9358 8.6874
30.0896 38.9671 8.5892
30.0577 39.0038 8.4884
30.0235 39.0464 8.3848
29.9868 39.0958 8.2781
3 62 61 66 0.5084258925147408 0.2947234303399293 0.20408363037605393
3 66 61 67 0.5084258925147408 0.2947234303399293 0.20408363037605393
3 5 81 6 0.5084258925147408 0.2947234303399293 0.20408363037605393
3 15 14 58 0.5084258925147408 0.2947234303399293 0.20408363037605393
3 58 57 15 0.5084258925147408 0.2947234303399293 0.20408363037605393
3 56 55 17 0.5084258925147408 0.2947234303399293 0.20408363037605393
3 51 22 21 0.5084258925147408 0.2947234303399293 0.20408363037605393
3 65 62 66 0.5084258925147408 0.2947234303399293 0.20408363037605393
3 64 62 65 0.5084258925147408 0.2947234303399293 0.20408363037605393
3 4 3 83 0.5084258925147408 0.2947234303399293 0.20408363037605393
3 3 84 83 0.5084258925147408 0.2947234303399293 0.20408363037605393
3 81 5 82 0.5084258925147408 0.2947234303399293 0.20408363037605393
3 82 5 4 0.5084258925147408 0.2947234303399293 0.20408363037605393
3 4 83 82 0.5084258925147408 0.2947234303399293 0.20408363037605393
3 6 81 80 0.5084258925147408 0.2947234303399293 0.20408363037605393
3 79 8 7 0.5084258925147408 0.2947234303399293 0.20408363037605393
3 6 80 7 0.5084258925147408 0.2947234303399293 0.20408363037605393
3 7 80 79 0.5084258925147408 0.2947234303399293 0.20408363037605393
3 77 8 78 0.5084258925147408 0.2947234303399293 0.20408363037605393
3 78 8 79 0.5084258925147408 0.2947234303399293 0.20408363037605393
3 73 12 11 0.5084258925147408 0.2947234303399293 0.20408363037605393
3 46 45 27 0.5084258925147408 0.2947234303399293 0.20408363037605393
3 50 22 51 0.5084258925147408 0.2947234303399293 0.20408363037605393
3 16 15 57 0.5084258925147408 0.2947234303399293 0.20408363037605393
3 16 56 17 0.5084258925147408 0.2947234303399293 0.20408363037605393
3 57 56 16 0.5084258925147408 0.2947234303399293 0.20408363037605393
3 58 14 59 0.5084258925147408 0.2947234303399293 0.20408363037605393
3 13 71 14 0.5084258925147408 0.2947234303399293 0.20408363037605393
3 33 40 39 0.5084258925147408 0.2947234303399293 0.20408363037605393
3 42 30 43 0.5084258925147408 0.2947234303399293 0.20408363037605393
3 30 42 31 0.5084258925147408 0.2947234303399293 0.20408363037605393
3 43 30 29 0.5084258925147408 0.2947234303399293 0.20408363037605393
3 29 28 43 0.5084258925147408 0.2947234303399293 0.20408363037605393
3 43 28 44 0.5084258925147408 0.2947234303399293 0.20408363037605393
3 27 45 44 0.5084258925147408 0.2947234303399293 0.20408363037605393
3 44 28 27 0.5084258925147408 0.2947234303399293 0.20408363037605393
3 53 19 54 0.5084258925147408 0.2947234303399293 0.20408363037605393
3 51 21 52 0.5084258925147408 0.2947234303399293 0.20408363037605393
3 20 19 53 0.5084258925147408 0.2947234303399293 0.20408363037605393
3 53 52 20 0.5084258925147408 0.2947234303399293 0.20408363037605393
3 20 52 21 0.5084258925147408 0.2947234303399293 0.20408363037605393
3 0 84 2 0.5084258925147408 0.2947234303399293 0.20408363037605393
3 2 84 3 0.5084258925147408 0.2947234303399293 0.20408363037605393
3 73 11 74 0.5084258925147408 0.2947234303399293 0.20408363037605393
3 74 11 75 0.5084258925147408 0.2947234303399293 0.20408363037605393
3 75 11 10 0.5084258925147408 0.2947234303399293 0.20408363037605393
3 26 25 47 0.5084258925147408 0.2947234303399293 0.20408363037605393
3 47 46 26 0.5084258925147408 0.2947234303399293 0.20408363037605393
3 26 46 27 0.5084258925147408 0.2947234303399293 0.20408363037605393
3 49 24 23 0.5084258925147408 0.2947234303399293 0.20408363037605393
3 22 50 23 0.5084258925147408 0.2947234303399293 0.20408363037605393
3 23 50 49 0.5084258925147408 0.2947234303399293 0.20408363037605393
3 47 25 48 0.5084258925147408 0.2947234303399293 0.20408363037605393
3 25 24 48 0.5084258925147408 0.2947234303399293 0.20408363037605393
3 48 24 49 0.5084258925147408 0.2947234303399293 0.20408363037605393
3 69 59 70 0.5084258925147408 0.2947234303399293 0.20408363037605393
3 14 71 70 0.5084258925147408 0.2947234303399293 0.20408363037605393
3 70 59 14 0.5084258925147408 0.2947234303399293 0.20408363037605393
3 60 59 69 0.5084258925147408 0.2947234303399293 0.20408363037605393
3 60 67 61 0.5084258925147408 0.2947234303399293 0.20408363037605393
3 71 13 72 0.5084258925147408 0.2947234303399293 0.20408363037605393
3 72 12 73 0.5084258925147408 0.2947234303399293 0.20408363037605393
3 72 13 12 0.5084258925147408 0.2947234303399293 0.20408363037605393
3 33 39 34 0.5084258925147408 0.2947234303399293 0.20408363037605393
3 32 40 33 0.5084258925147408 0.2947234303399293 0.20408363037605393
3 41 31 42 0.5084258925147408 0.2947234303399293 0.20408363037605393
3 40 32 41 0.5084258925147408 0.2947234303399293 0.20408363037605393
3 41 32 31 0.5084258925147408 0.2947234303399293 0.20408363037605393
3 17 55 18 0.5084258925147408 0.2947234303399293 0.20408363037605393
3 55 54 18 0.5084258925147408 0.2947234303399293 0.20408363037605393
3 18 54 19 0.5084258925147408 0.2947234303399293 0.20408363037605393
3 75 10 76 0.5084258925147408 0.2947234303399293 0.20408363037605393
3 9 8 77 0.5084258925147408 0.2947234303399293 0.20408363037605393
3 77 76 9 0.5084258925147408 0.2947234303399293 0.20408363037605393
3 9 76 10 0.5084258925147408 0.2947234303399293 0.20408363037605393
3 67 60 68 0.5084258925147408 0.2947234303399293 0.20408363037605393
3 68 60 69 0.5084258925147408 0.2947234303399293 0.20408363037605393
3 37 36 38 0.5084258925147408 0.2947234303399293 0.20408363037605393
3 35 34 39 0.5084258925147408 0.2947234303399293 0.20408363037605393
3 39 38 35 0.5084258925147408 0.2947234303399293 0.20408363037605393
3 35 38 36 0.5084258925147408 0.2947234303399293 0.20408363037605393
