OFF
388 695 0


27.5273 35.695 4.4189
27.5273 35.695 4.4189
27.48 35.77 4.3011
27.4387 35.8352 4.1983
27.402 35.8932 4.1067
27.3687 35.9457 4.0236
27.3379 35.994 3.9469
27.3091 36.0394 3.8748
27.2816 36.0825 3.8062
27.255 36.1241 3.7399
27.229 36.1648 3.6749
27.2032 36.2052 3.6103
27.1772 36.2458 3.5452
27.1506 36.2873 3.4789
27.1232 36.3301 3.4101
27.0943 36.3751 3.3379
27.0635 36.423 3.2609
27.0302 36.4748 3.1775
26.9934 36.5319 3.0855
26.9521 36.5961 2.982
26.9046 36.6697 2.8631
27.0513 36.6783 2.9275
27.1742 36.6863 2.9802
27.2806 36.6939 3.0249
27.3753 36.701 3.0639
27.4615 36.708 3.0987
27.5417 36.7148 3.1305
27.6178 36.7216 3.1601
27.6914 36.7285 3.1882
27.7638 36.7357 3.2153
27.8362 36.7431 3.2418
27.91 36.751 3.2683
27.9865 36.7596 3.2952
28.0673 36.7692 3.3229
28.1546 36.7799 3.352
28.2509 36.7924 3.383
28.36 36.8074 3.4168
28.4877 36.8261 3.4546
28.6433 36.8505 3.4978
28.6433 36.8505 3.4978
28.5561 36.7488 3.5874
28.4826 36.6643 3.6609
28.4183 36.5916 3.7234
28.3608 36.5274 3.778
28.3079 36.4692 3.8269
28.2584 36.4153 3.8718
28.211 36.3644 3.9138
28.1649 36.3154 3.9538
28.1192 36.2673 3.9926
28.073 36.2194 4.0309
28.0256 36.1708 4.0693
27.9759 36.1206 4.1085
27.923 36.0676 4.1493
27.8651 36.0107 4.1925
27.8005 35.9481 4.2392
27.7261 35.8774 4.2909
27.6376 35.795 4.3497
27.5273 35.695 4.4189
27.2767 36.1871 3.671
27.3241 36.2092 3.6672
27.3714 36.2311 3.6635
27.2316 36.2602 3.5549
27.2855 36.2744 3.5645
27.3388 36.2884 3.5739
27.185 36.3358 3.4346
27.2458 36.3414 3.4587
27.3055 36.3468 3.4824
27.559 36.6777 3.1871
27.5759 36.6415 3.2422
27.5924 36.6061 3.2959
27.692 36.6905 3.2375
27.6926 36.6533 3.2858
27.6933 36.6168 3.333
27.8211 36.7041 3.2847
27.8063 36.6657 3.3267
27.7918 36.628 3.368
27.9555 36.7194 3.3317
27.925 36.6798 3.3677
27.8951 36.6407 3.4031
28.1632 36.3661 3.8881
28.1147 36.3679 3.8621
28.0655 36.3696 3.8356
28.0806 36.2779 3.9602
28.0413 36.2886 3.9271
28.0012 36.2994 3.8935
27.996 36.1899 4.0304
27.9658 36.2093 3.9907
27.9349 36.2291 3.9501
27.3469 36.073 3.8516
27.3848 36.1067 3.8283
27.423 36.1405 3.8049
27.4615 36.1744 3.7814
27.2994 36.1502 3.7295
27.3437 36.1761 3.7192
27.388 36.202 3.709
27.4322 36.2277 3.6988
27.134 36.4186 3.3028
27.2026 36.4142 3.3437
27.2696 36.4099 3.3835
27.335 36.4056 3.4224
27.0745 36.5148 3.1491
27.1528 36.4982 3.2106
27.2285 36.4821 3.27
27.3018 36.4665 3.3275
27.4118 36.6648 3.1291
27.4473 36.6296 3.1923
27.4817 36.5954 3.2537
27.5152 36.5622 3.3133
28.1062 36.7383 3.382
28.0585 36.697 3.4116
28.0115 36.6562 3.4409
27.9651 36.6159 3.4699
28.25 36.4612 3.809
28.1914 36.453 3.7908
28.1322 36.4446 3.7724
28.0724 36.4361 3.7539
27.9028 36.0956 4.1038
27.8823 36.1242 4.0573
27.8612 36.1535 4.0095
27.8396 36.1835 3.9606
27.3996 35.9872 3.987
27.4308 36.029 3.9501
27.4625 36.0713 3.9128
27.4946 36.114 3.875
27.5272 36.1572 3.8368
27.0 36.6353 2.9563
27.091 36.6024 3.0454
27.1781 36.5708 3.1305
27.2615 36.5406 3.212
27.3414 36.5114 3.2902
27.2351 36.651 3.0568
27.2937 36.6169 3.1305
27.3503 36.584 3.2017
27.4049 36.5521 3.2703
27.4577 36.5213 3.3367
28.2908 36.7637 3.4396
28.2224 36.7203 3.4622
28.1547 36.6772 3.4846
28.0878 36.6343 3.5069
28.0215 36.5917 3.529
28.3481 36.5717 3.7149
28.2776 36.5516 3.7065
28.2068 36.5312 3.698
28.1356 36.5106 3.6895
28.064 36.4897 3.681
27.7913 35.9863 4.1864
27.7819 36.0255 4.1321
27.7723 36.0657 4.0764
27.7625 36.107 4.0192
27.7524 36.1494 3.9603
27.462 35.8854 4.1472
27.4857 35.9363 4.0951
27.51 35.9881 4.0421
27.5349 36.0409 3.9881
27.5603 36.0946 3.9329
27.5864 36.1494 3.8766
27.2087 36.2975 3.4957
27.2659 36.3074 3.5123
27.3223 36.3172 3.5287
27.378 36.3268 3.5449
27.433 36.3362 3.5609
27.4872 36.3455 3.5767
27.1276 36.6435 3.0114
27.2008 36.6099 3.092
27.2712 36.5777 3.1694
27.3388 36.5466 3.2438
27.404 36.5166 3.3155
27.4669 36.4876 3.3846
27.6266 36.6841 3.2129
27.6352 36.6473 3.2645
27.6436 36.6114 3.3149
27.6518 36.5763 3.3641
27.6598 36.542 3.4123
27.6677 36.5084 3.4594
27.887 36.7115 3.308
27.8645 36.6725 3.347
27.8424 36.6341 3.3854
27.8207 36.5963 3.4231
27.7993 36.5591 3.4603
27.7783 36.5224 3.4969
28.5455 36.8034 3.5118
28.4488 36.7564 3.5258
28.3531 36.7096 3.5398
28.2581 36.6628 3.5537
28.1637 36.6161 3.5677
28.0699 36.5693 3.5816
28.4048 36.637 3.6585
28.3271 36.6096 3.656
28.2493 36.5819 3.6536
28.1714 36.554 3.6513
28.0933 36.5259 3.649
28.015 36.4975 3.6467
28.0389 36.2342 3.9952
28.0041 36.2493 3.9588
27.9686 36.2646 3.9217
27.9324 36.2802 3.8838
27.8954 36.2961 3.8451
27.8576 36.3123 3.8055
27.6425 35.8464 4.2877
27.6476 35.8991 4.224
27.653 35.9532 4.1585
27.6585 36.0088 4.0911
27.6643 36.0661 4.0217
27.6704 36.125 3.95
27.499 35.8249 4.2419
27.5185 35.881 4.1814
27.5385 35.9382 4.1196
27.5592 35.9967 4.0562
27.5804 36.0566 3.9912
27.6024 36.118 3.9246
27.625 36.181 3.8561
27.3723 36.0316 3.9171
27.407 36.0693 3.8871
27.442 36.1072 3.8568
27.4774 36.1454 3.8264
27.5131 36.1838 3.7957
27.5492 36.2226 3.7648
27.5857 36.2616 3.7335
27.2542 36.2236 3.6131
27.3048 36.2418 3.6159
27.3551 36.2598 3.6186
27.4049 36.2776 3.6214
27.4545 36.2952 3.6242
27.5037 36.3126 3.6269
27.5526 36.3299 3.6297
27.1056 36.4645 3.2296
27.1788 36.4544 3.2801
27.2499 36.4445 3.3292
27.3191 36.4348 3.3769
27.3863 36.4254 3.4233
27.4518 36.4161 3.4684
27.5156 36.407 3.5124
27.488 36.6713 3.1594
27.5138 36.6356 3.2183
27.5389 36.6008 3.2757
27.5633 36.567 3.3315
27.5871 36.534 3.3859
27.6103 36.5018 3.4389
27.633 36.4705 3.4905
28.1927 36.7498 3.4095
28.1353 36.7076 3.4358
28.0785 36.6658 3.4618
28.0225 36.6243 3.4875
27.967 36.5831 3.5131
27.9121 36.5421 3.5384
27.8578 36.5015 3.5636
28.4695 36.7127 3.5922
28.3833 36.6765 3.5971
28.2973 36.6403 3.602
28.2116 36.6039 3.6069
28.1261 36.5673 3.6119
28.0406 36.5306 3.617
27.9551 36.4936 3.6221
28.2057 36.4124 3.8498
28.1523 36.4093 3.8276
28.0983 36.4061 3.805
28.0435 36.4029 3.7822
27.988 36.3995 3.759
27.9317 36.396 3.7355
27.8745 36.3923 3.7117
27.8502 36.0436 4.1435
27.835 36.0772 4.0932
27.8193 36.1117 4.0417
27.8033 36.1471 3.9887
27.7869 36.1834 3.9344
27.77 36.2207 3.8785
27.7527 36.259 3.821
27.4292 35.9389 4.0631
27.4568 35.9851 4.0188
27.485 36.032 3.9739
27.5136 36.0795 3.9284
27.5428 36.1277 3.882
27.5725 36.1766 3.835
27.6028 36.2264 3.7871
27.6338 36.2769 3.7383
27.0397 36.5711 3.0591
27.1239 36.547 3.1332
27.2048 36.5238 3.2045
27.2828 36.5014 3.2731
27.358 36.4797 3.3393
27.4305 36.4587 3.4031
27.5007 36.4383 3.4648
27.5685 36.4186 3.5244
27.3285 36.6581 3.0954
27.3747 36.6234 3.1634
27.4195 36.5898 3.2293
27.4629 36.5573 3.2932
27.505 36.5257 3.355
27.5458 36.4951 3.415
27.5854 36.4653 3.4732
27.6239 36.4363 3.5297
28.028 36.7283 3.3562
27.9892 36.6879 3.3891
27.951 36.648 3.4215
27.9133 36.6086 3.4535
27.8762 36.5696 3.4852
27.8396 36.5311 3.5164
27.8034 36.4929 3.5473
27.7678 36.4552 3.5779
28.297 36.5138 3.7644
28.2328 36.5 3.7508
28.1681 36.4859 3.7371
28.1029 36.4717 3.7233
28.0371 36.4572 3.7094
27.9706 36.4424 3.6954
27.9035 36.4274 3.6813
27.8357 36.4121 3.667
27.951 36.144 4.0664
27.9255 36.1679 4.0233
27.8993 36.1923 3.9792
27.8726 36.2174 3.9341
27.8453 36.2429 3.8878
27.8172 36.2692 3.8404
27.7885 36.296 3.7918
27.759 36.3235 3.7419
27.5416 35.7552 4.3509
27.5564 35.8168 4.2812
27.5717 35.8801 4.2095
27.5876 35.9451 4.1358
27.6042 36.012 4.0597
27.6213 36.0809 3.9812
27.6392 36.152 3.9
27.6579 36.2255 3.8159
27.3227 36.1123 3.7894
27.3639 36.1421 3.7727
27.4051 36.1719 3.7559
27.4465 36.2017 3.7391
27.488 36.2315 3.7223
27.5296 36.2613 3.7055
27.5714 36.2911 3.6887
27.6133 36.3209 3.6718
27.6554 36.3508 3.655
27.1603 36.376 3.3707
27.2248 36.3768 3.4028
27.288 36.3775 3.4343
27.35 36.3782 3.4651
27.4107 36.3788 3.4953
27.4702 36.3793 3.5249
27.5287 36.3797 3.5539
27.586 36.3801 3.5825
27.6424 36.3804 3.6105
27.7565 36.6971 3.2613
27.7494 36.6594 3.3064
27.7424 36.6223 3.3506
27.7356 36.5859 3.394
27.7289 36.5502 3.4365
27.7224 36.5151 3.4783
27.7161 36.4806 3.5193
27.7098 36.4468 3.5596
27.7037 36.4135 3.5991
28.4056 36.7809 3.4733
28.3245 36.736 3.4918
28.2441 36.6913 3.5103
28.1645 36.6467 3.5286
28.0855 36.6023 3.5469
28.0071 36.558 3.5652
27.9292 36.5137 3.5834
27.8517 36.4694 3.6016
27.7746 36.4251 3.6198
28.1218 36.3216 3.9247
28.0779 36.3279 3.8951
28.0334 36.3342 3.8649
27.988 36.3406 3.8343
27.9418 36.3471 3.8031
27.8949 36.3536 3.7713
27.847 36.3603 3.7389
27.7982 36.367 3.706
27.7485 36.3738 3.6723
27.7234 35.9217 4.2338
27.7207 35.9671 4.1752
27.718 36.0137 4.1149
27.7152 36.0616 4.0529
27.7124 36.1109 3.9891
27.7095 36.1616 3.9233
27.7066 36.2138 3.8554
27.7037 36.2676 3.7854
27.7008 36.3232 3.713
27.5416 35.7552 4.3509
27.5564 35.8168 4.2812
27.5717 35.8801 4.2095
27.5876 35.9451 4.1358
27.6042 36.012 4.0597
27.6213 36.0809 3.9812
27.6392 36.152 3.9
27.6579 36.2255 3.8159
27.6774 36.3017 3.7287
27.6977 36.3807 3.638
27.6977 36.3807 3.638
3 43 140 299 0.5733470310459323 0.8920051218403475 0.8402382159905228
3 44 112 45 0.5733470310459323 0.8920051218403475 0.8402382159905228
3 43 299 44 0.5733470310459323 0.8920051218403475 0.8402382159905228
3 44 299 112 0.5733470310459323 0.8920051218403475 0.8402382159905228
3 350 37 36 0.5733470310459323 0.8920051218403475 0.8402382159905228
3 180 40 38 0.5733470310459323 0.8920051218403475 0.8402382159905228
3 38 37 180 0.5733470310459323 0.8920051218403475 0.8402382159905228
3 350 36 351 0.5733470310459323 0.8920051218403475 0.8402382159905228
3 141 299 140 0.5733470310459323 0.8920051218403475 0.8402382159905228
3 85 50 49 0.5733470310459323 0.8920051218403475 0.8402382159905228
3 315 56 316 0.5733470310459323 0.8920051218403475 0.8402382159905228
3 316 2 315 0.5733470310459323 0.8920051218403475 0.8402382159905228
3 0 56 315 0.5733470310459323 0.8920051218403475 0.8402382159905228
3 315 2 0 0.5733470310459323 0.8920051218403475 0.8402382159905228
3 316 56 198 0.5733470310459323 0.8920051218403475 0.8402382159905228
3 162 22 21 0.5733470310459323 0.8920051218403475 0.8402382159905228
3 125 21 20 0.5733470310459323 0.8920051218403475 0.8402382159905228
3 20 19 125 0.5733470310459323 0.8920051218403475 0.8402382159905228
3 125 162 21 0.5733470310459323 0.8920051218403475 0.8402382159905228
3 126 162 125 0.5733470310459323 0.8920051218403475 0.8402382159905228
3 275 19 18 0.5733470310459323 0.8920051218403475 0.8402382159905228
3 275 125 19 0.5733470310459323 0.8920051218403475 0.8402382159905228
3 126 125 275 0.5733470310459323 0.8920051218403475 0.8402382159905228
3 29 28 70 0.5733470310459323 0.8920051218403475 0.8402382159905228
3 112 299 300 0.5733470310459323 0.8920051218403475 0.8402382159905228
3 300 141 142 0.5733470310459323 0.8920051218403475 0.8402382159905228
3 299 141 300 0.5733470310459323 0.8920051218403475 0.8402382159905228
3 32 291 33 0.5733470310459323 0.8920051218403475 0.8402382159905228
3 76 291 32 0.5733470310459323 0.8920051218403475 0.8402382159905228
3 31 76 32 0.5733470310459323 0.8920051218403475 0.8402382159905228
3 135 36 35 0.5733470310459323 0.8920051218403475 0.8402382159905228
3 135 351 36 0.5733470310459323 0.8920051218403475 0.8402382159905228
3 142 141 188 0.5733470310459323 0.8920051218403475 0.8402382159905228
3 239 135 35 0.5733470310459323 0.8920051218403475 0.8402382159905228
3 40 180 181 0.5733470310459323 0.8920051218403475 0.8402382159905228
3 181 37 350 0.5733470310459323 0.8920051218403475 0.8402382159905228
3 181 180 37 0.5733470310459323 0.8920051218403475 0.8402382159905228
3 248 247 182 0.5733470310459323 0.8920051218403475 0.8402382159905228
3 247 181 182 0.5733470310459323 0.8920051218403475 0.8402382159905228
3 350 351 182 0.5733470310459323 0.8920051218403475 0.8402382159905228
3 182 181 350 0.5733470310459323 0.8920051218403475 0.8402382159905228
3 187 247 248 0.5733470310459323 0.8920051218403475 0.8402382159905228
3 248 188 187 0.5733470310459323 0.8920051218403475 0.8402382159905228
3 187 141 140 0.5733470310459323 0.8920051218403475 0.8402382159905228
3 187 188 141 0.5733470310459323 0.8920051218403475 0.8402382159905228
3 260 53 52 0.5733470310459323 0.8920051218403475 0.8402382159905228
3 260 146 145 0.5733470310459323 0.8920051218403475 0.8402382159905228
3 145 53 260 0.5733470310459323 0.8920051218403475 0.8402382159905228
3 54 53 145 0.5733470310459323 0.8920051218403475 0.8402382159905228
3 145 369 54 0.5733470310459323 0.8920051218403475 0.8402382159905228
3 146 369 145 0.5733470310459323 0.8920051218403475 0.8402382159905228
3 117 262 261 0.5733470310459323 0.8920051218403475 0.8402382159905228
3 261 262 147 0.5733470310459323 0.8920051218403475 0.8402382159905228
3 147 146 261 0.5733470310459323 0.8920051218403475 0.8402382159905228
3 261 146 260 0.5733470310459323 0.8920051218403475 0.8402382159905228
3 118 262 117 0.5733470310459323 0.8920051218403475 0.8402382159905228
3 117 308 118 0.5733470310459323 0.8920051218403475 0.8402382159905228
3 307 308 117 0.5733470310459323 0.8920051218403475 0.8402382159905228
3 85 308 307 0.5733470310459323 0.8920051218403475 0.8402382159905228
3 51 50 307 0.5733470310459323 0.8920051218403475 0.8402382159905228
3 307 50 85 0.5733470310459323 0.8920051218403475 0.8402382159905228
3 204 2 316 0.5733470310459323 0.8920051218403475 0.8402382159905228
3 204 3 2 0.5733470310459323 0.8920051218403475 0.8402382159905228
3 386 340 331 0.5733470310459323 0.8920051218403475 0.8402382159905228
3 331 376 386 0.5733470310459323 0.8920051218403475 0.8402382159905228
3 218 11 10 0.5733470310459323 0.8920051218403475 0.8402382159905228
3 10 58 218 0.5733470310459323 0.8920051218403475 0.8402382159905228
3 95 327 222 0.5733470310459323 0.8920051218403475 0.8402382159905228
3 325 90 91 0.5733470310459323 0.8920051218403475 0.8402382159905228
3 9 8 323 0.5733470310459323 0.8920051218403475 0.8402382159905228
3 267 5 4 0.5733470310459323 0.8920051218403475 0.8402382159905228
3 120 5 267 0.5733470310459323 0.8920051218403475 0.8402382159905228
3 4 3 150 0.5733470310459323 0.8920051218403475 0.8402382159905228
3 370 369 146 0.5733470310459323 0.8920051218403475 0.8402382159905228
3 370 146 147 0.5733470310459323 0.8920051218403475 0.8402382159905228
3 200 369 370 0.5733470310459323 0.8920051218403475 0.8402382159905228
3 55 198 56 0.5733470310459323 0.8920051218403475 0.8402382159905228
3 55 199 198 0.5733470310459323 0.8920051218403475 0.8402382159905228
3 6 5 120 0.5733470310459323 0.8920051218403475 0.8402382159905228
3 156 13 12 0.5733470310459323 0.8920051218403475 0.8402382159905228
3 14 13 64 0.5733470310459323 0.8920051218403475 0.8402382159905228
3 13 156 64 0.5733470310459323 0.8920051218403475 0.8402382159905228
3 64 156 65 0.5733470310459323 0.8920051218403475 0.8402382159905228
3 283 24 23 0.5733470310459323 0.8920051218403475 0.8402382159905228
3 23 22 130 0.5733470310459323 0.8920051218403475 0.8402382159905228
3 22 162 130 0.5733470310459323 0.8920051218403475 0.8402382159905228
3 130 283 23 0.5733470310459323 0.8920051218403475 0.8402382159905228
3 131 283 130 0.5733470310459323 0.8920051218403475 0.8402382159905228
3 102 101 226 0.5733470310459323 0.8920051218403475 0.8402382159905228
3 16 15 96 0.5733470310459323 0.8920051218403475 0.8402382159905228
3 97 226 96 0.5733470310459323 0.8920051218403475 0.8402382159905228
3 100 18 17 0.5733470310459323 0.8920051218403475 0.8402382159905228
3 100 275 18 0.5733470310459323 0.8920051218403475 0.8402382159905228
3 277 102 128 0.5733470310459323 0.8920051218403475 0.8402382159905228
3 101 102 277 0.5733470310459323 0.8920051218403475 0.8402382159905228
3 17 16 225 0.5733470310459323 0.8920051218403475 0.8402382159905228
3 225 100 17 0.5733470310459323 0.8920051218403475 0.8402382159905228
3 101 100 225 0.5733470310459323 0.8920051218403475 0.8402382159905228
3 226 101 225 0.5733470310459323 0.8920051218403475 0.8402382159905228
3 16 96 225 0.5733470310459323 0.8920051218403475 0.8402382159905228
3 225 96 226 0.5733470310459323 0.8920051218403475 0.8402382159905228
3 249 188 248 0.5733470310459323 0.8920051218403475 0.8402382159905228
3 301 300 142 0.5733470310459323 0.8920051218403475 0.8402382159905228
3 303 302 144 0.5733470310459323 0.8920051218403475 0.8402382159905228
3 144 190 251 0.5733470310459323 0.8920051218403475 0.8402382159905228
3 48 47 359 0.5733470310459323 0.8920051218403475 0.8402382159905228
3 84 362 195 0.5733470310459323 0.8920051218403475 0.8402382159905228
3 363 362 257 0.5733470310459323 0.8920051218403475 0.8402382159905228
3 371 372 202 0.5733470310459323 0.8920051218403475 0.8402382159905228
3 371 370 147 0.5733470310459323 0.8920051218403475 0.8402382159905228
3 149 372 148 0.5733470310459323 0.8920051218403475 0.8402382159905228
3 147 262 148 0.5733470310459323 0.8920051218403475 0.8402382159905228
3 148 371 147 0.5733470310459323 0.8920051218403475 0.8402382159905228
3 372 371 148 0.5733470310459323 0.8920051218403475 0.8402382159905228
3 208 381 202 0.5733470310459323 0.8920051218403475 0.8402382159905228
3 310 195 311 0.5733470310459323 0.8920051218403475 0.8402382159905228
3 311 312 265 0.5733470310459323 0.8920051218403475 0.8402382159905228
3 311 264 310 0.5733470310459323 0.8920051218403475 0.8402382159905228
3 265 264 311 0.5733470310459323 0.8920051218403475 0.8402382159905228
3 266 312 313 0.5733470310459323 0.8920051218403475 0.8402382159905228
3 265 312 266 0.5733470310459323 0.8920051218403475 0.8402382159905228
3 149 264 373 0.5733470310459323 0.8920051218403475 0.8402382159905228
3 373 264 265 0.5733470310459323 0.8920051218403475 0.8402382159905228
3 373 372 149 0.5733470310459323 0.8920051218403475 0.8402382159905228
3 76 31 174 0.5733470310459323 0.8920051218403475 0.8402382159905228
3 174 73 175 0.5733470310459323 0.8920051218403475 0.8402382159905228
3 174 31 30 0.5733470310459323 0.8920051218403475 0.8402382159905228
3 30 73 174 0.5733470310459323 0.8920051218403475 0.8402382159905228
3 184 354 250 0.5733470310459323 0.8920051218403475 0.8402382159905228
3 250 249 184 0.5733470310459323 0.8920051218403475 0.8402382159905228
3 34 239 35 0.5733470310459323 0.8920051218403475 0.8402382159905228
3 352 182 351 0.5733470310459323 0.8920051218403475 0.8402382159905228
3 246 181 247 0.5733470310459323 0.8920051218403475 0.8402382159905228
3 247 41 246 0.5733470310459323 0.8920051218403475 0.8402382159905228
3 40 181 246 0.5733470310459323 0.8920051218403475 0.8402382159905228
3 246 41 40 0.5733470310459323 0.8920051218403475 0.8402382159905228
3 186 41 247 0.5733470310459323 0.8920051218403475 0.8402382159905228
3 247 187 186 0.5733470310459323 0.8920051218403475 0.8402382159905228
3 186 187 140 0.5733470310459323 0.8920051218403475 0.8402382159905228
3 85 49 192 0.5733470310459323 0.8920051218403475 0.8402382159905228
3 192 49 48 0.5733470310459323 0.8920051218403475 0.8402382159905228
3 194 84 195 0.5733470310459323 0.8920051218403475 0.8402382159905228
3 86 308 85 0.5733470310459323 0.8920051218403475 0.8402382159905228
3 85 192 86 0.5733470310459323 0.8920051218403475 0.8402382159905228
3 86 192 193 0.5733470310459323 0.8920051218403475 0.8402382159905228
3 83 194 193 0.5733470310459323 0.8920051218403475 0.8402382159905228
3 84 194 83 0.5733470310459323 0.8920051218403475 0.8402382159905228
3 117 261 116 0.5733470310459323 0.8920051218403475 0.8402382159905228
3 116 52 51 0.5733470310459323 0.8920051218403475 0.8402382159905228
3 260 52 116 0.5733470310459323 0.8920051218403475 0.8402382159905228
3 116 261 260 0.5733470310459323 0.8920051218403475 0.8402382159905228
3 51 307 116 0.5733470310459323 0.8920051218403475 0.8402382159905228
3 116 307 117 0.5733470310459323 0.8920051218403475 0.8402382159905228
3 309 118 308 0.5733470310459323 0.8920051218403475 0.8402382159905228
3 308 86 309 0.5733470310459323 0.8920051218403475 0.8402382159905228
3 310 264 119 0.5733470310459323 0.8920051218403475 0.8402382159905228
3 119 309 310 0.5733470310459323 0.8920051218403475 0.8402382159905228
3 118 309 119 0.5733470310459323 0.8920051218403475 0.8402382159905228
3 386 376 367 0.5733470310459323 0.8920051218403475 0.8402382159905228
3 376 314 367 0.5733470310459323 0.8920051218403475 0.8402382159905228
3 367 314 366 0.5733470310459323 0.8920051218403475 0.8402382159905228
3 340 224 330 0.5733470310459323 0.8920051218403475 0.8402382159905228
3 330 331 340 0.5733470310459323 0.8920051218403475 0.8402382159905228
3 58 93 59 0.5733470310459323 0.8920051218403475 0.8402382159905228
3 217 216 273 0.5733470310459323 0.8920051218403475 0.8402382159905228
3 273 274 217 0.5733470310459323 0.8920051218403475 0.8402382159905228
3 384 274 273 0.5733470310459323 0.8920051218403475 0.8402382159905228
3 216 272 273 0.5733470310459323 0.8920051218403475 0.8402382159905228
3 327 95 326 0.5733470310459323 0.8920051218403475 0.8402382159905228
3 326 91 327 0.5733470310459323 0.8920051218403475 0.8402382159905228
3 325 91 326 0.5733470310459323 0.8920051218403475 0.8402382159905228
3 214 91 90 0.5733470310459323 0.8920051218403475 0.8402382159905228
3 90 213 214 0.5733470310459323 0.8920051218403475 0.8402382159905228
3 215 216 327 0.5733470310459323 0.8920051218403475 0.8402382159905228
3 327 91 215 0.5733470310459323 0.8920051218403475 0.8402382159905228
3 124 272 215 0.5733470310459323 0.8920051218403475 0.8402382159905228
3 215 272 216 0.5733470310459323 0.8920051218403475 0.8402382159905228
3 215 214 124 0.5733470310459323 0.8920051218403475 0.8402382159905228
3 91 214 215 0.5733470310459323 0.8920051218403475 0.8402382159905228
3 324 90 325 0.5733470310459323 0.8920051218403475 0.8402382159905228
3 325 93 324 0.5733470310459323 0.8920051218403475 0.8402382159905228
3 122 121 269 0.5733470310459323 0.8920051218403475 0.8402382159905228
3 153 269 152 0.5733470310459323 0.8920051218403475 0.8402382159905228
3 151 150 206 0.5733470310459323 0.8920051218403475 0.8402382159905228
3 206 152 151 0.5733470310459323 0.8920051218403475 0.8402382159905228
3 151 267 4 0.5733470310459323 0.8920051218403475 0.8402382159905228
3 4 150 151 0.5733470310459323 0.8920051218403475 0.8402382159905228
3 206 150 205 0.5733470310459323 0.8920051218403475 0.8402382159905228
3 3 204 205 0.5733470310459323 0.8920051218403475 0.8402382159905228
3 205 150 3 0.5733470310459323 0.8920051218403475 0.8402382159905228
3 368 369 200 0.5733470310459323 0.8920051218403475 0.8402382159905228
3 200 199 368 0.5733470310459323 0.8920051218403475 0.8402382159905228
3 199 55 368 0.5733470310459323 0.8920051218403475 0.8402382159905228
3 54 369 368 0.5733470310459323 0.8920051218403475 0.8402382159905228
3 368 55 54 0.5733470310459323 0.8920051218403475 0.8402382159905228
3 61 156 12 0.5733470310459323 0.8920051218403475 0.8402382159905228
3 12 11 61 0.5733470310459323 0.8920051218403475 0.8402382159905228
3 11 218 61 0.5733470310459323 0.8920051218403475 0.8402382159905228
3 14 64 332 0.5733470310459323 0.8920051218403475 0.8402382159905228
3 332 15 14 0.5733470310459323 0.8920051218403475 0.8402382159905228
3 332 96 15 0.5733470310459323 0.8920051218403475 0.8402382159905228
3 97 96 332 0.5733470310459323 0.8920051218403475 0.8402382159905228
3 232 26 25 0.5733470310459323 0.8920051218403475 0.8402382159905228
3 27 26 67 0.5733470310459323 0.8920051218403475 0.8402382159905228
3 26 232 67 0.5733470310459323 0.8920051218403475 0.8402382159905228
3 67 232 233 0.5733470310459323 0.8920051218403475 0.8402382159905228
3 333 64 65 0.5733470310459323 0.8920051218403475 0.8402382159905228
3 97 332 333 0.5733470310459323 0.8920051218403475 0.8402382159905228
3 333 332 64 0.5733470310459323 0.8920051218403475 0.8402382159905228
3 142 188 189 0.5733470310459323 0.8920051218403475 0.8402382159905228
3 188 249 189 0.5733470310459323 0.8920051218403475 0.8402382159905228
3 249 250 189 0.5733470310459323 0.8920051218403475 0.8402382159905228
3 189 250 190 0.5733470310459323 0.8920051218403475 0.8402382159905228
3 362 84 361 0.5733470310459323 0.8920051218403475 0.8402382159905228
3 361 83 360 0.5733470310459323 0.8920051218403475 0.8402382159905228
3 84 83 361 0.5733470310459323 0.8920051218403475 0.8402382159905228
3 258 363 257 0.5733470310459323 0.8920051218403475 0.8402382159905228
3 259 366 365 0.5733470310459323 0.8920051218403475 0.8402382159905228
3 365 314 313 0.5733470310459323 0.8920051218403475 0.8402382159905228
3 366 314 365 0.5733470310459323 0.8920051218403475 0.8402382159905228
3 195 362 196 0.5733470310459323 0.8920051218403475 0.8402382159905228
3 362 363 196 0.5733470310459323 0.8920051218403475 0.8402382159905228
3 196 311 195 0.5733470310459323 0.8920051218403475 0.8402382159905228
3 312 311 196 0.5733470310459323 0.8920051218403475 0.8402382159905228
3 370 371 201 0.5733470310459323 0.8920051218403475 0.8402382159905228
3 200 370 201 0.5733470310459323 0.8920051218403475 0.8402382159905228
3 202 381 201 0.5733470310459323 0.8920051218403475 0.8402382159905228
3 201 371 202 0.5733470310459323 0.8920051218403475 0.8402382159905228
3 270 269 153 0.5733470310459323 0.8920051218403475 0.8402382159905228
3 122 269 270 0.5733470310459323 0.8920051218403475 0.8402382159905228
3 111 243 242 0.5733470310459323 0.8920051218403475 0.8402382159905228
3 244 355 243 0.5733470310459323 0.8920051218403475 0.8402382159905228
3 306 366 259 0.5733470310459323 0.8920051218403475 0.8402382159905228
3 306 367 366 0.5733470310459323 0.8920051218403475 0.8402382159905228
3 349 340 386 0.5733470310459323 0.8920051218403475 0.8402382159905228
3 375 274 384 0.5733470310459323 0.8920051218403475 0.8402382159905228
3 375 266 313 0.5733470310459323 0.8920051218403475 0.8402382159905228
3 313 314 375 0.5733470310459323 0.8920051218403475 0.8402382159905228
3 374 373 265 0.5733470310459323 0.8920051218403475 0.8402382159905228
3 265 266 374 0.5733470310459323 0.8920051218403475 0.8402382159905228
3 374 375 384 0.5733470310459323 0.8920051218403475 0.8402382159905228
3 266 375 374 0.5733470310459323 0.8920051218403475 0.8402382159905228
3 346 179 345 0.5733470310459323 0.8920051218403475 0.8402382159905228
3 347 179 346 0.5733470310459323 0.8920051218403475 0.8402382159905228
3 176 78 175 0.5733470310459323 0.8920051218403475 0.8402382159905228
3 177 78 176 0.5733470310459323 0.8920051218403475 0.8402382159905228
3 77 78 293 0.5733470310459323 0.8920051218403475 0.8402382159905228
3 175 78 77 0.5733470310459323 0.8920051218403475 0.8402382159905228
3 77 174 175 0.5733470310459323 0.8920051218403475 0.8402382159905228
3 76 174 77 0.5733470310459323 0.8920051218403475 0.8402382159905228
3 224 223 329 0.5733470310459323 0.8920051218403475 0.8402382159905228
3 329 330 224 0.5733470310459323 0.8920051218403475 0.8402382159905228
3 217 274 329 0.5733470310459323 0.8920051218403475 0.8402382159905228
3 274 330 329 0.5733470310459323 0.8920051218403475 0.8402382159905228
3 110 242 241 0.5733470310459323 0.8920051218403475 0.8402382159905228
3 110 293 111 0.5733470310459323 0.8920051218403475 0.8402382159905228
3 111 242 110 0.5733470310459323 0.8920051218403475 0.8402382159905228
3 185 250 354 0.5733470310459323 0.8920051218403475 0.8402382159905228
3 185 355 251 0.5733470310459323 0.8920051218403475 0.8402382159905228
3 251 190 185 0.5733470310459323 0.8920051218403475 0.8402382159905228
3 190 250 185 0.5733470310459323 0.8920051218403475 0.8402382159905228
3 239 34 108 0.5733470310459323 0.8920051218403475 0.8402382159905228
3 108 33 291 0.5733470310459323 0.8920051218403475 0.8402382159905228
3 108 34 33 0.5733470310459323 0.8920051218403475 0.8402382159905228
3 135 239 136 0.5733470310459323 0.8920051218403475 0.8402382159905228
3 351 135 136 0.5733470310459323 0.8920051218403475 0.8402382159905228
3 136 352 351 0.5733470310459323 0.8920051218403475 0.8402382159905228
3 248 182 183 0.5733470310459323 0.8920051218403475 0.8402382159905228
3 182 352 183 0.5733470310459323 0.8920051218403475 0.8402382159905228
3 183 249 248 0.5733470310459323 0.8920051218403475 0.8402382159905228
3 184 249 183 0.5733470310459323 0.8920051218403475 0.8402382159905228
3 42 140 43 0.5733470310459323 0.8920051218403475 0.8402382159905228
3 42 186 140 0.5733470310459323 0.8920051218403475 0.8402382159905228
3 41 186 42 0.5733470310459323 0.8920051218403475 0.8402382159905228
3 193 194 87 0.5733470310459323 0.8920051218403475 0.8402382159905228
3 87 86 193 0.5733470310459323 0.8920051218403475 0.8402382159905228
3 87 309 86 0.5733470310459323 0.8920051218403475 0.8402382159905228
3 310 309 87 0.5733470310459323 0.8920051218403475 0.8402382159905228
3 87 195 310 0.5733470310459323 0.8920051218403475 0.8402382159905228
3 87 194 195 0.5733470310459323 0.8920051218403475 0.8402382159905228
3 193 192 82 0.5733470310459323 0.8920051218403475 0.8402382159905228
3 82 83 193 0.5733470310459323 0.8920051218403475 0.8402382159905228
3 82 192 48 0.5733470310459323 0.8920051218403475 0.8402382159905228
3 48 359 82 0.5733470310459323 0.8920051218403475 0.8402382159905228
3 82 359 360 0.5733470310459323 0.8920051218403475 0.8402382159905228
3 360 83 82 0.5733470310459323 0.8920051218403475 0.8402382159905228
3 118 119 263 0.5733470310459323 0.8920051218403475 0.8402382159905228
3 262 118 263 0.5733470310459323 0.8920051218403475 0.8402382159905228
3 263 264 149 0.5733470310459323 0.8920051218403475 0.8402382159905228
3 263 119 264 0.5733470310459323 0.8920051218403475 0.8402382159905228
3 149 148 263 0.5733470310459323 0.8920051218403475 0.8402382159905228
3 263 148 262 0.5733470310459323 0.8920051218403475 0.8402382159905228
3 94 95 60 0.5733470310459323 0.8920051218403475 0.8402382159905228
3 60 59 94 0.5733470310459323 0.8920051218403475 0.8402382159905228
3 94 59 93 0.5733470310459323 0.8920051218403475 0.8402382159905228
3 94 93 325 0.5733470310459323 0.8920051218403475 0.8402382159905228
3 325 326 94 0.5733470310459323 0.8920051218403475 0.8402382159905228
3 94 326 95 0.5733470310459323 0.8920051218403475 0.8402382159905228
3 92 93 58 0.5733470310459323 0.8920051218403475 0.8402382159905228
3 10 9 92 0.5733470310459323 0.8920051218403475 0.8402382159905228
3 92 58 10 0.5733470310459323 0.8920051218403475 0.8402382159905228
3 9 323 92 0.5733470310459323 0.8920051218403475 0.8402382159905228
3 323 324 92 0.5733470310459323 0.8920051218403475 0.8402382159905228
3 92 324 93 0.5733470310459323 0.8920051218403475 0.8402382159905228
3 221 95 222 0.5733470310459323 0.8920051218403475 0.8402382159905228
3 60 95 221 0.5733470310459323 0.8920051218403475 0.8402382159905228
3 219 218 58 0.5733470310459323 0.8920051218403475 0.8402382159905228
3 58 59 219 0.5733470310459323 0.8920051218403475 0.8402382159905228
3 211 6 120 0.5733470310459323 0.8920051218403475 0.8402382159905228
3 120 121 211 0.5733470310459323 0.8920051218403475 0.8402382159905228
3 7 6 211 0.5733470310459323 0.8920051218403475 0.8402382159905228
3 207 152 206 0.5733470310459323 0.8920051218403475 0.8402382159905228
3 153 152 207 0.5733470310459323 0.8920051218403475 0.8402382159905228
3 207 208 153 0.5733470310459323 0.8920051218403475 0.8402382159905228
3 381 208 207 0.5733470310459323 0.8920051218403475 0.8402382159905228
3 120 267 268 0.5733470310459323 0.8920051218403475 0.8402382159905228
3 268 152 269 0.5733470310459323 0.8920051218403475 0.8402382159905228
3 267 151 268 0.5733470310459323 0.8920051218403475 0.8402382159905228
3 268 151 152 0.5733470310459323 0.8920051218403475 0.8402382159905228
3 268 121 120 0.5733470310459323 0.8920051218403475 0.8402382159905228
3 268 269 121 0.5733470310459323 0.8920051218403475 0.8402382159905228
3 316 198 317 0.5733470310459323 0.8920051218403475 0.8402382159905228
3 198 199 317 0.5733470310459323 0.8920051218403475 0.8402382159905228
3 317 204 316 0.5733470310459323 0.8920051218403475 0.8402382159905228
3 317 205 204 0.5733470310459323 0.8920051218403475 0.8402382159905228
3 276 127 126 0.5733470310459323 0.8920051218403475 0.8402382159905228
3 126 275 276 0.5733470310459323 0.8920051218403475 0.8402382159905228
3 275 100 276 0.5733470310459323 0.8920051218403475 0.8402382159905228
3 276 100 101 0.5733470310459323 0.8920051218403475 0.8402382159905228
3 101 277 276 0.5733470310459323 0.8920051218403475 0.8402382159905228
3 277 127 276 0.5733470310459323 0.8920051218403475 0.8402382159905228
3 131 130 163 0.5733470310459323 0.8920051218403475 0.8402382159905228
3 163 130 162 0.5733470310459323 0.8920051218403475 0.8402382159905228
3 163 162 126 0.5733470310459323 0.8920051218403475 0.8402382159905228
3 126 127 163 0.5733470310459323 0.8920051218403475 0.8402382159905228
3 164 277 128 0.5733470310459323 0.8920051218403475 0.8402382159905228
3 164 127 277 0.5733470310459323 0.8920051218403475 0.8402382159905228
3 131 163 164 0.5733470310459323 0.8920051218403475 0.8402382159905228
3 164 163 127 0.5733470310459323 0.8920051218403475 0.8402382159905228
3 131 164 132 0.5733470310459323 0.8920051218403475 0.8402382159905228
3 132 164 128 0.5733470310459323 0.8920051218403475 0.8402382159905228
3 27 67 168 0.5733470310459323 0.8920051218403475 0.8402382159905228
3 168 28 27 0.5733470310459323 0.8920051218403475 0.8402382159905228
3 168 70 28 0.5733470310459323 0.8920051218403475 0.8402382159905228
3 339 224 340 0.5733470310459323 0.8920051218403475 0.8402382159905228
3 289 282 290 0.5733470310459323 0.8920051218403475 0.8402382159905228
3 340 349 290 0.5733470310459323 0.8920051218403475 0.8402382159905228
3 290 339 340 0.5733470310459323 0.8920051218403475 0.8402382159905228
3 282 339 290 0.5733470310459323 0.8920051218403475 0.8402382159905228
3 334 333 65 0.5733470310459323 0.8920051218403475 0.8402382159905228
3 143 189 190 0.5733470310459323 0.8920051218403475 0.8402382159905228
3 302 301 143 0.5733470310459323 0.8920051218403475 0.8402382159905228
3 143 301 142 0.5733470310459323 0.8920051218403475 0.8402382159905228
3 142 189 143 0.5733470310459323 0.8920051218403475 0.8402382159905228
3 190 144 143 0.5733470310459323 0.8920051218403475 0.8402382159905228
3 143 144 302 0.5733470310459323 0.8920051218403475 0.8402382159905228
3 114 301 302 0.5733470310459323 0.8920051218403475 0.8402382159905228
3 79 47 46 0.5733470310459323 0.8920051218403475 0.8402382159905228
3 79 359 47 0.5733470310459323 0.8920051218403475 0.8402382159905228
3 45 112 253 0.5733470310459323 0.8920051218403475 0.8402382159905228
3 254 79 253 0.5733470310459323 0.8920051218403475 0.8402382159905228
3 253 46 45 0.5733470310459323 0.8920051218403475 0.8402382159905228
3 253 79 46 0.5733470310459323 0.8920051218403475 0.8402382159905228
3 191 144 251 0.5733470310459323 0.8920051218403475 0.8402382159905228
3 303 144 191 0.5733470310459323 0.8920051218403475 0.8402382159905228
3 259 258 305 0.5733470310459323 0.8920051218403475 0.8402382159905228
3 305 306 259 0.5733470310459323 0.8920051218403475 0.8402382159905228
3 357 306 305 0.5733470310459323 0.8920051218403475 0.8402382159905228
3 363 258 364 0.5733470310459323 0.8920051218403475 0.8402382159905228
3 364 258 259 0.5733470310459323 0.8920051218403475 0.8402382159905228
3 259 365 364 0.5733470310459323 0.8920051218403475 0.8402382159905228
3 123 213 122 0.5733470310459323 0.8920051218403475 0.8402382159905228
3 122 270 123 0.5733470310459323 0.8920051218403475 0.8402382159905228
3 124 214 123 0.5733470310459323 0.8920051218403475 0.8402382159905228
3 123 214 213 0.5733470310459323 0.8920051218403475 0.8402382159905228
3 241 242 138 0.5733470310459323 0.8920051218403475 0.8402382159905228
3 354 138 139 0.5733470310459323 0.8920051218403475 0.8402382159905228
3 139 138 242 0.5733470310459323 0.8920051218403475 0.8402382159905228
3 139 185 354 0.5733470310459323 0.8920051218403475 0.8402382159905228
3 355 185 139 0.5733470310459323 0.8920051218403475 0.8402382159905228
3 139 242 243 0.5733470310459323 0.8920051218403475 0.8402382159905228
3 243 355 139 0.5733470310459323 0.8920051218403475 0.8402382159905228
3 295 244 243 0.5733470310459323 0.8920051218403475 0.8402382159905228
3 297 179 347 0.5733470310459323 0.8920051218403475 0.8402382159905228
3 347 298 297 0.5733470310459323 0.8920051218403475 0.8402382159905228
3 297 357 245 0.5733470310459323 0.8920051218403475 0.8402382159905228
3 297 298 357 0.5733470310459323 0.8920051218403475 0.8402382159905228
3 348 298 347 0.5733470310459323 0.8920051218403475 0.8402382159905228
3 349 298 348 0.5733470310459323 0.8920051218403475 0.8402382159905228
3 347 290 348 0.5733470310459323 0.8920051218403475 0.8402382159905228
3 348 290 349 0.5733470310459323 0.8920051218403475 0.8402382159905228
3 358 306 357 0.5733470310459323 0.8920051218403475 0.8402382159905228
3 357 298 358 0.5733470310459323 0.8920051218403475 0.8402382159905228
3 367 306 358 0.5733470310459323 0.8920051218403475 0.8402382159905228
3 358 298 349 0.5733470310459323 0.8920051218403475 0.8402382159905228
3 386 367 358 0.5733470310459323 0.8920051218403475 0.8402382159905228
3 358 349 386 0.5733470310459323 0.8920051218403475 0.8402382159905228
3 274 375 385 0.5733470310459323 0.8920051218403475 0.8402382159905228
3 385 330 274 0.5733470310459323 0.8920051218403475 0.8402382159905228
3 385 314 376 0.5733470310459323 0.8920051218403475 0.8402382159905228
3 385 375 314 0.5733470310459323 0.8920051218403475 0.8402382159905228
3 376 331 385 0.5733470310459323 0.8920051218403475 0.8402382159905228
3 331 330 385 0.5733470310459323 0.8920051218403475 0.8402382159905228
3 372 373 203 0.5733470310459323 0.8920051218403475 0.8402382159905228
3 202 372 203 0.5733470310459323 0.8920051218403475 0.8402382159905228
3 153 208 154 0.5733470310459323 0.8920051218403475 0.8402382159905228
3 154 270 153 0.5733470310459323 0.8920051218403475 0.8402382159905228
3 210 374 384 0.5733470310459323 0.8920051218403475 0.8402382159905228
3 384 273 210 0.5733470310459323 0.8920051218403475 0.8402382159905228
3 210 273 272 0.5733470310459323 0.8920051218403475 0.8402382159905228
3 271 154 209 0.5733470310459323 0.8920051218403475 0.8402382159905228
3 124 123 271 0.5733470310459323 0.8920051218403475 0.8402382159905228
3 271 123 270 0.5733470310459323 0.8920051218403475 0.8402382159905228
3 270 154 271 0.5733470310459323 0.8920051218403475 0.8402382159905228
3 29 70 341 0.5733470310459323 0.8920051218403475 0.8402382159905228
3 341 342 73 0.5733470310459323 0.8920051218403475 0.8402382159905228
3 341 30 29 0.5733470310459323 0.8920051218403475 0.8402382159905228
3 341 73 30 0.5733470310459323 0.8920051218403475 0.8402382159905228
3 175 73 74 0.5733470310459323 0.8920051218403475 0.8402382159905228
3 73 342 74 0.5733470310459323 0.8920051218403475 0.8402382159905228
3 74 176 175 0.5733470310459323 0.8920051218403475 0.8402382159905228
3 71 341 70 0.5733470310459323 0.8920051218403475 0.8402382159905228
3 342 341 71 0.5733470310459323 0.8920051218403475 0.8402382159905228
3 328 329 223 0.5733470310459323 0.8920051218403475 0.8402382159905228
3 222 327 328 0.5733470310459323 0.8920051218403475 0.8402382159905228
3 328 223 222 0.5733470310459323 0.8920051218403475 0.8402382159905228
3 217 329 328 0.5733470310459323 0.8920051218403475 0.8402382159905228
3 328 216 217 0.5733470310459323 0.8920051218403475 0.8402382159905228
3 327 216 328 0.5733470310459323 0.8920051218403475 0.8402382159905228
3 293 110 292 0.5733470310459323 0.8920051218403475 0.8402382159905228
3 292 77 293 0.5733470310459323 0.8920051218403475 0.8402382159905228
3 291 76 292 0.5733470310459323 0.8920051218403475 0.8402382159905228
3 76 77 292 0.5733470310459323 0.8920051218403475 0.8402382159905228
3 109 108 291 0.5733470310459323 0.8920051218403475 0.8402382159905228
3 109 110 241 0.5733470310459323 0.8920051218403475 0.8402382159905228
3 291 292 109 0.5733470310459323 0.8920051218403475 0.8402382159905228
3 109 292 110 0.5733470310459323 0.8920051218403475 0.8402382159905228
3 240 136 239 0.5733470310459323 0.8920051218403475 0.8402382159905228
3 239 108 240 0.5733470310459323 0.8920051218403475 0.8402382159905228
3 240 109 241 0.5733470310459323 0.8920051218403475 0.8402382159905228
3 108 109 240 0.5733470310459323 0.8920051218403475 0.8402382159905228
3 281 282 289 0.5733470310459323 0.8920051218403475 0.8402382159905228
3 160 221 222 0.5733470310459323 0.8920051218403475 0.8402382159905228
3 62 219 63 0.5733470310459323 0.8920051218403475 0.8402382159905228
3 62 61 218 0.5733470310459323 0.8920051218403475 0.8402382159905228
3 218 219 62 0.5733470310459323 0.8920051218403475 0.8402382159905228
3 220 221 63 0.5733470310459323 0.8920051218403475 0.8402382159905228
3 63 219 220 0.5733470310459323 0.8920051218403475 0.8402382159905228
3 60 221 220 0.5733470310459323 0.8920051218403475 0.8402382159905228
3 220 59 60 0.5733470310459323 0.8920051218403475 0.8402382159905228
3 220 219 59 0.5733470310459323 0.8920051218403475 0.8402382159905228
3 7 211 88 0.5733470310459323 0.8920051218403475 0.8402382159905228
3 88 8 7 0.5733470310459323 0.8920051218403475 0.8402382159905228
3 88 323 8 0.5733470310459323 0.8920051218403475 0.8402382159905228
3 318 199 200 0.5733470310459323 0.8920051218403475 0.8402382159905228
3 318 317 199 0.5733470310459323 0.8920051218403475 0.8402382159905228
3 206 205 318 0.5733470310459323 0.8920051218403475 0.8402382159905228
3 205 317 318 0.5733470310459323 0.8920051218403475 0.8402382159905228
3 200 201 318 0.5733470310459323 0.8920051218403475 0.8402382159905228
3 318 201 381 0.5733470310459323 0.8920051218403475 0.8402382159905228
3 318 207 206 0.5733470310459323 0.8920051218403475 0.8402382159905228
3 381 207 318 0.5733470310459323 0.8920051218403475 0.8402382159905228
3 284 283 131 0.5733470310459323 0.8920051218403475 0.8402382159905228
3 131 132 284 0.5733470310459323 0.8920051218403475 0.8402382159905228
3 233 232 105 0.5733470310459323 0.8920051218403475 0.8402382159905228
3 289 290 238 0.5733470310459323 0.8920051218403475 0.8402382159905228
3 238 290 347 0.5733470310459323 0.8920051218403475 0.8402382159905228
3 66 334 65 0.5733470310459323 0.8920051218403475 0.8402382159905228
3 301 114 113 0.5733470310459323 0.8920051218403475 0.8402382159905228
3 112 300 113 0.5733470310459323 0.8920051218403475 0.8402382159905228
3 300 301 113 0.5733470310459323 0.8920051218403475 0.8402382159905228
3 113 114 254 0.5733470310459323 0.8920051218403475 0.8402382159905228
3 113 253 112 0.5733470310459323 0.8920051218403475 0.8402382159905228
3 254 253 113 0.5733470310459323 0.8920051218403475 0.8402382159905228
3 115 302 303 0.5733470310459323 0.8920051218403475 0.8402382159905228
3 115 114 302 0.5733470310459323 0.8920051218403475 0.8402382159905228
3 357 305 252 0.5733470310459323 0.8920051218403475 0.8402382159905228
3 251 355 252 0.5733470310459323 0.8920051218403475 0.8402382159905228
3 252 191 251 0.5733470310459323 0.8920051218403475 0.8402382159905228
3 304 305 258 0.5733470310459323 0.8920051218403475 0.8402382159905228
3 257 303 304 0.5733470310459323 0.8920051218403475 0.8402382159905228
3 304 258 257 0.5733470310459323 0.8920051218403475 0.8402382159905228
3 303 191 304 0.5733470310459323 0.8920051218403475 0.8402382159905228
3 191 252 304 0.5733470310459323 0.8920051218403475 0.8402382159905228
3 304 252 305 0.5733470310459323 0.8920051218403475 0.8402382159905228
3 197 196 363 0.5733470310459323 0.8920051218403475 0.8402382159905228
3 363 364 197 0.5733470310459323 0.8920051218403475 0.8402382159905228
3 313 312 197 0.5733470310459323 0.8920051218403475 0.8402382159905228
3 312 196 197 0.5733470310459323 0.8920051218403475 0.8402382159905228
3 197 365 313 0.5733470310459323 0.8920051218403475 0.8402382159905228
3 197 364 365 0.5733470310459323 0.8920051218403475 0.8402382159905228
3 178 295 177 0.5733470310459323 0.8920051218403475 0.8402382159905228
3 345 179 178 0.5733470310459323 0.8920051218403475 0.8402382159905228
3 294 78 177 0.5733470310459323 0.8920051218403475 0.8402382159905228
3 177 295 294 0.5733470310459323 0.8920051218403475 0.8402382159905228
3 111 293 294 0.5733470310459323 0.8920051218403475 0.8402382159905228
3 293 78 294 0.5733470310459323 0.8920051218403475 0.8402382159905228
3 294 243 111 0.5733470310459323 0.8920051218403475 0.8402382159905228
3 294 295 243 0.5733470310459323 0.8920051218403475 0.8402382159905228
3 382 208 202 0.5733470310459323 0.8920051218403475 0.8402382159905228
3 202 203 382 0.5733470310459323 0.8920051218403475 0.8402382159905228
3 382 203 209 0.5733470310459323 0.8920051218403475 0.8402382159905228
3 382 154 208 0.5733470310459323 0.8920051218403475 0.8402382159905228
3 209 154 382 0.5733470310459323 0.8920051218403475 0.8402382159905228
3 209 203 321 0.5733470310459323 0.8920051218403475 0.8402382159905228
3 321 203 373 0.5733470310459323 0.8920051218403475 0.8402382159905228
3 373 374 321 0.5733470310459323 0.8920051218403475 0.8402382159905228
3 374 210 321 0.5733470310459323 0.8920051218403475 0.8402382159905228
3 176 74 75 0.5733470310459323 0.8920051218403475 0.8402382159905228
3 177 176 75 0.5733470310459323 0.8920051218403475 0.8402382159905228
3 75 342 343 0.5733470310459323 0.8920051218403475 0.8402382159905228
3 75 74 342 0.5733470310459323 0.8920051218403475 0.8402382159905228
3 72 71 170 0.5733470310459323 0.8920051218403475 0.8402382159905228
3 170 171 72 0.5733470310459323 0.8920051218403475 0.8402382159905228
3 343 342 72 0.5733470310459323 0.8920051218403475 0.8402382159905228
3 342 71 72 0.5733470310459323 0.8920051218403475 0.8402382159905228
3 170 71 169 0.5733470310459323 0.8920051218403475 0.8402382159905228
3 70 168 169 0.5733470310459323 0.8920051218403475 0.8402382159905228
3 169 71 70 0.5733470310459323 0.8920051218403475 0.8402382159905228
3 344 75 343 0.5733470310459323 0.8920051218403475 0.8402382159905228
3 343 72 344 0.5733470310459323 0.8920051218403475 0.8402382159905228
3 344 72 171 0.5733470310459323 0.8920051218403475 0.8402382159905228
3 177 75 344 0.5733470310459323 0.8920051218403475 0.8402382159905228
3 345 178 344 0.5733470310459323 0.8920051218403475 0.8402382159905228
3 344 178 177 0.5733470310459323 0.8920051218403475 0.8402382159905228
3 353 354 184 0.5733470310459323 0.8920051218403475 0.8402382159905228
3 353 138 354 0.5733470310459323 0.8920051218403475 0.8402382159905228
3 184 183 353 0.5733470310459323 0.8920051218403475 0.8402382159905228
3 353 183 352 0.5733470310459323 0.8920051218403475 0.8402382159905228
3 63 221 159 0.5733470310459323 0.8920051218403475 0.8402382159905228
3 221 160 159 0.5733470310459323 0.8920051218403475 0.8402382159905228
3 159 160 336 0.5733470310459323 0.8920051218403475 0.8402382159905228
3 338 339 282 0.5733470310459323 0.8920051218403475 0.8402382159905228
3 224 339 338 0.5733470310459323 0.8920051218403475 0.8402382159905228
3 212 88 211 0.5733470310459323 0.8920051218403475 0.8402382159905228
3 122 213 212 0.5733470310459323 0.8920051218403475 0.8402382159905228
3 212 121 122 0.5733470310459323 0.8920051218403475 0.8402382159905228
3 212 211 121 0.5733470310459323 0.8920051218403475 0.8402382159905228
3 89 213 90 0.5733470310459323 0.8920051218403475 0.8402382159905228
3 90 324 89 0.5733470310459323 0.8920051218403475 0.8402382159905228
3 89 212 213 0.5733470310459323 0.8920051218403475 0.8402382159905228
3 88 212 89 0.5733470310459323 0.8920051218403475 0.8402382159905228
3 89 324 323 0.5733470310459323 0.8920051218403475 0.8402382159905228
3 323 88 89 0.5733470310459323 0.8920051218403475 0.8402382159905228
3 104 232 25 0.5733470310459323 0.8920051218403475 0.8402382159905228
3 25 24 104 0.5733470310459323 0.8920051218403475 0.8402382159905228
3 104 105 232 0.5733470310459323 0.8920051218403475 0.8402382159905228
3 284 105 104 0.5733470310459323 0.8920051218403475 0.8402382159905228
3 24 283 104 0.5733470310459323 0.8920051218403475 0.8402382159905228
3 283 284 104 0.5733470310459323 0.8920051218403475 0.8402382159905228
3 129 133 165 0.5733470310459323 0.8920051218403475 0.8402382159905228
3 165 132 128 0.5733470310459323 0.8920051218403475 0.8402382159905228
3 129 279 166 0.5733470310459323 0.8920051218403475 0.8402382159905228
3 166 133 129 0.5733470310459323 0.8920051218403475 0.8402382159905228
3 279 280 166 0.5733470310459323 0.8920051218403475 0.8402382159905228
3 285 284 132 0.5733470310459323 0.8920051218403475 0.8402382159905228
3 285 105 284 0.5733470310459323 0.8920051218403475 0.8402382159905228
3 132 165 285 0.5733470310459323 0.8920051218403475 0.8402382159905228
3 285 165 133 0.5733470310459323 0.8920051218403475 0.8402382159905228
3 286 166 134 0.5733470310459323 0.8920051218403475 0.8402382159905228
3 133 166 286 0.5733470310459323 0.8920051218403475 0.8402382159905228
3 286 285 133 0.5733470310459323 0.8920051218403475 0.8402382159905228
3 227 226 97 0.5733470310459323 0.8920051218403475 0.8402382159905228
3 227 102 226 0.5733470310459323 0.8920051218403475 0.8402382159905228
3 98 334 99 0.5733470310459323 0.8920051218403475 0.8402382159905228
3 99 228 98 0.5733470310459323 0.8920051218403475 0.8402382159905228
3 333 334 98 0.5733470310459323 0.8920051218403475 0.8402382159905228
3 228 227 98 0.5733470310459323 0.8920051218403475 0.8402382159905228
3 97 333 98 0.5733470310459323 0.8920051218403475 0.8402382159905228
3 98 227 97 0.5733470310459323 0.8920051218403475 0.8402382159905228
3 99 334 335 0.5733470310459323 0.8920051218403475 0.8402382159905228
3 334 66 335 0.5733470310459323 0.8920051218403475 0.8402382159905228
3 335 159 336 0.5733470310459323 0.8920051218403475 0.8402382159905228
3 156 61 157 0.5733470310459323 0.8920051218403475 0.8402382159905228
3 61 62 157 0.5733470310459323 0.8920051218403475 0.8402382159905228
3 65 156 157 0.5733470310459323 0.8920051218403475 0.8402382159905228
3 157 66 65 0.5733470310459323 0.8920051218403475 0.8402382159905228
3 362 361 81 0.5733470310459323 0.8920051218403475 0.8402382159905228
3 81 361 360 0.5733470310459323 0.8920051218403475 0.8402382159905228
3 355 244 356 0.5733470310459323 0.8920051218403475 0.8402382159905228
3 356 252 355 0.5733470310459323 0.8920051218403475 0.8402382159905228
3 356 244 245 0.5733470310459323 0.8920051218403475 0.8402382159905228
3 245 357 356 0.5733470310459323 0.8920051218403475 0.8402382159905228
3 357 252 356 0.5733470310459323 0.8920051218403475 0.8402382159905228
3 296 178 179 0.5733470310459323 0.8920051218403475 0.8402382159905228
3 295 178 296 0.5733470310459323 0.8920051218403475 0.8402382159905228
3 179 297 296 0.5733470310459323 0.8920051218403475 0.8402382159905228
3 296 297 245 0.5733470310459323 0.8920051218403475 0.8402382159905228
3 245 244 296 0.5733470310459323 0.8920051218403475 0.8402382159905228
3 244 295 296 0.5733470310459323 0.8920051218403475 0.8402382159905228
3 155 321 210 0.5733470310459323 0.8920051218403475 0.8402382159905228
3 155 210 272 0.5733470310459323 0.8920051218403475 0.8402382159905228
3 155 271 209 0.5733470310459323 0.8920051218403475 0.8402382159905228
3 209 321 155 0.5733470310459323 0.8920051218403475 0.8402382159905228
3 155 272 124 0.5733470310459323 0.8920051218403475 0.8402382159905228
3 124 271 155 0.5733470310459323 0.8920051218403475 0.8402382159905228
3 170 169 69 0.5733470310459323 0.8920051218403475 0.8402382159905228
3 68 168 67 0.5733470310459323 0.8920051218403475 0.8402382159905228
3 68 169 168 0.5733470310459323 0.8920051218403475 0.8402382159905228
3 68 67 233 0.5733470310459323 0.8920051218403475 0.8402382159905228
3 233 234 68 0.5733470310459323 0.8920051218403475 0.8402382159905228
3 234 69 68 0.5733470310459323 0.8920051218403475 0.8402382159905228
3 68 69 169 0.5733470310459323 0.8920051218403475 0.8402382159905228
3 288 236 287 0.5733470310459323 0.8920051218403475 0.8402382159905228
3 288 281 289 0.5733470310459323 0.8920051218403475 0.8402382159905228
3 171 236 172 0.5733470310459323 0.8920051218403475 0.8402382159905228
3 345 344 172 0.5733470310459323 0.8920051218403475 0.8402382159905228
3 172 344 171 0.5733470310459323 0.8920051218403475 0.8402382159905228
3 136 240 137 0.5733470310459323 0.8920051218403475 0.8402382159905228
3 352 136 137 0.5733470310459323 0.8920051218403475 0.8402382159905228
3 137 353 352 0.5733470310459323 0.8920051218403475 0.8402382159905228
3 137 240 241 0.5733470310459323 0.8920051218403475 0.8402382159905228
3 241 138 137 0.5733470310459323 0.8920051218403475 0.8402382159905228
3 138 353 137 0.5733470310459323 0.8920051218403475 0.8402382159905228
3 229 228 99 0.5733470310459323 0.8920051218403475 0.8402382159905228
3 99 335 229 0.5733470310459323 0.8920051218403475 0.8402382159905228
3 279 228 229 0.5733470310459323 0.8920051218403475 0.8402382159905228
3 229 280 279 0.5733470310459323 0.8920051218403475 0.8402382159905228
3 229 335 336 0.5733470310459323 0.8920051218403475 0.8402382159905228
3 63 159 158 0.5733470310459323 0.8920051218403475 0.8402382159905228
3 66 157 158 0.5733470310459323 0.8920051218403475 0.8402382159905228
3 158 335 66 0.5733470310459323 0.8920051218403475 0.8402382159905228
3 159 335 158 0.5733470310459323 0.8920051218403475 0.8402382159905228
3 158 62 63 0.5733470310459323 0.8920051218403475 0.8402382159905228
3 158 157 62 0.5733470310459323 0.8920051218403475 0.8402382159905228
3 282 281 231 0.5733470310459323 0.8920051218403475 0.8402382159905228
3 231 338 282 0.5733470310459323 0.8920051218403475 0.8402382159905228
3 106 234 233 0.5733470310459323 0.8920051218403475 0.8402382159905228
3 285 286 106 0.5733470310459323 0.8920051218403475 0.8402382159905228
3 233 105 106 0.5733470310459323 0.8920051218403475 0.8402382159905228
3 105 285 106 0.5733470310459323 0.8920051218403475 0.8402382159905228
3 102 227 278 0.5733470310459323 0.8920051218403475 0.8402382159905228
3 128 102 278 0.5733470310459323 0.8920051218403475 0.8402382159905228
3 278 165 128 0.5733470310459323 0.8920051218403475 0.8402382159905228
3 129 165 278 0.5733470310459323 0.8920051218403475 0.8402382159905228
3 103 228 279 0.5733470310459323 0.8920051218403475 0.8402382159905228
3 103 227 228 0.5733470310459323 0.8920051218403475 0.8402382159905228
3 103 278 227 0.5733470310459323 0.8920051218403475 0.8402382159905228
3 103 279 129 0.5733470310459323 0.8920051218403475 0.8402382159905228
3 129 278 103 0.5733470310459323 0.8920051218403475 0.8402382159905228
3 114 115 255 0.5733470310459323 0.8920051218403475 0.8402382159905228
3 254 114 255 0.5733470310459323 0.8920051218403475 0.8402382159905228
3 80 79 254 0.5733470310459323 0.8920051218403475 0.8402382159905228
3 254 255 80 0.5733470310459323 0.8920051218403475 0.8402382159905228
3 80 255 81 0.5733470310459323 0.8920051218403475 0.8402382159905228
3 80 81 360 0.5733470310459323 0.8920051218403475 0.8402382159905228
3 360 359 80 0.5733470310459323 0.8920051218403475 0.8402382159905228
3 359 79 80 0.5733470310459323 0.8920051218403475 0.8402382159905228
3 235 236 171 0.5733470310459323 0.8920051218403475 0.8402382159905228
3 235 171 170 0.5733470310459323 0.8920051218403475 0.8402382159905228
3 170 69 235 0.5733470310459323 0.8920051218403475 0.8402382159905228
3 287 236 235 0.5733470310459323 0.8920051218403475 0.8402382159905228
3 235 69 234 0.5733470310459323 0.8920051218403475 0.8402382159905228
3 167 288 287 0.5733470310459323 0.8920051218403475 0.8402382159905228
3 167 287 134 0.5733470310459323 0.8920051218403475 0.8402382159905228
3 167 280 281 0.5733470310459323 0.8920051218403475 0.8402382159905228
3 281 288 167 0.5733470310459323 0.8920051218403475 0.8402382159905228
3 134 166 167 0.5733470310459323 0.8920051218403475 0.8402382159905228
3 167 166 280 0.5733470310459323 0.8920051218403475 0.8402382159905228
3 289 238 237 0.5733470310459323 0.8920051218403475 0.8402382159905228
3 237 172 236 0.5733470310459323 0.8920051218403475 0.8402382159905228
3 237 288 289 0.5733470310459323 0.8920051218403475 0.8402382159905228
3 236 288 237 0.5733470310459323 0.8920051218403475 0.8402382159905228
3 230 231 281 0.5733470310459323 0.8920051218403475 0.8402382159905228
3 230 229 336 0.5733470310459323 0.8920051218403475 0.8402382159905228
3 281 280 230 0.5733470310459323 0.8920051218403475 0.8402382159905228
3 280 229 230 0.5733470310459323 0.8920051218403475 0.8402382159905228
3 338 231 337 0.5733470310459323 0.8920051218403475 0.8402382159905228
3 336 160 337 0.5733470310459323 0.8920051218403475 0.8402382159905228
3 337 230 336 0.5733470310459323 0.8920051218403475 0.8402382159905228
3 231 230 337 0.5733470310459323 0.8920051218403475 0.8402382159905228
3 256 255 115 0.5733470310459323 0.8920051218403475 0.8402382159905228
3 81 255 256 0.5733470310459323 0.8920051218403475 0.8402382159905228
3 256 303 257 0.5733470310459323 0.8920051218403475 0.8402382159905228
3 256 115 303 0.5733470310459323 0.8920051218403475 0.8402382159905228
3 257 362 256 0.5733470310459323 0.8920051218403475 0.8402382159905228
3 362 81 256 0.5733470310459323 0.8920051218403475 0.8402382159905228
3 287 235 107 0.5733470310459323 0.8920051218403475 0.8402382159905228
3 134 287 107 0.5733470310459323 0.8920051218403475 0.8402382159905228
3 107 286 134 0.5733470310459323 0.8920051218403475 0.8402382159905228
3 107 235 234 0.5733470310459323 0.8920051218403475 0.8402382159905228
3 234 106 107 0.5733470310459323 0.8920051218403475 0.8402382159905228
3 107 106 286 0.5733470310459323 0.8920051218403475 0.8402382159905228
3 173 237 238 0.5733470310459323 0.8920051218403475 0.8402382159905228
3 172 237 173 0.5733470310459323 0.8920051218403475 0.8402382159905228
3 347 346 173 0.5733470310459323 0.8920051218403475 0.8402382159905228
3 173 238 347 0.5733470310459323 0.8920051218403475 0.8402382159905228
3 173 346 345 0.5733470310459323 0.8920051218403475 0.8402382159905228
3 345 172 173 0.5733470310459323 0.8920051218403475 0.8402382159905228
3 161 337 160 0.5733470310459323 0.8920051218403475 0.8402382159905228
3 338 337 161 0.5733470310459323 0.8920051218403475 0.8402382159905228
3 222 223 161 0.5733470310459323 0.8920051218403475 0.8402382159905228
3 161 160 222 0.5733470310459323 0.8920051218403475 0.8402382159905228
3 161 223 224 0.5733470310459323 0.8920051218403475 0.8402382159905228
3 224 338 161 0.5733470310459323 0.8920051218403475 0.8402382159905228
