OFF
101 112 0


30.6936 34.7246 6.8151
30.6936 34.7246 6.8151
30.6295 34.8124 6.7494
30.5646 34.9008 6.6853
30.5486 34.8856 6.8005
30.5382 34.8735 6.8832
30.5254 34.8549 6.9984
30.5254 34.8549 6.9984
30.563 34.803 7.0381
30.6011 34.7508 7.0769
30.6011 34.7508 7.0769
30.6243 34.7443 7.0115
30.6474 34.7377 6.946
30.6705 34.7312 6.8806
30.6936 34.7246 6.8151
30.6936 34.7246 6.8151
30.6936 34.7246 6.8151
30.6705 34.7312 6.8806
30.6474 34.7377 6.946
30.6243 34.7443 7.0115
30.6011 34.7508 7.0769
30.6011 34.7508 7.0769
30.5963 34.7652 7.2103
30.5933 34.776 7.3117
30.5913 34.7854 7.3987
30.5899 34.7943 7.4815
30.5888 34.8037 7.5685
30.5882 34.8147 7.6699
30.5884 34.8291 7.8033
30.5884 34.8291 7.8033
30.5973 34.8328 7.8361
30.6064 34.8366 7.8687
30.6064 34.8366 7.8687
30.645 34.8246 7.7505
30.6746 34.8139 7.6451
30.6978 34.804 7.5486
30.7159 34.7946 7.4578
30.7301 34.7854 7.3702
30.7411 34.7763 7.2833
30.749 34.7669 7.195
30.7541 34.7571 7.1029
30.7562 34.7465 7.004
30.7548 34.7346 6.8948
30.6936 34.7246 6.8151
30.6936 34.7246 6.8151
30.7212 34.7228 6.7926
30.6011 34.7508 7.0769
30.6011 34.7508 7.0769
30.563 34.803 7.0381
30.6011 34.7508 7.0769
30.6011 34.7508 7.0769
30.5963 34.7652 7.2103
30.5933 34.776 7.3117
30.5913 34.7854 7.3987
30.5899 34.7943 7.4815
30.5888 34.8037 7.5685
30.5882 34.8147 7.6699
30.5884 34.8291 7.8033
30.5884 34.8291 7.8033
30.5716 34.839 7.6765
30.56 34.8453 7.5743
30.5512 34.8497 7.4854
30.5442 34.8528 7.4022
30.5382 34.855 7.3189
30.5331 34.8563 7.2296
30.5287 34.8565 7.1268
30.5647 34.805 7.126
30.5931 34.7664 7.1549
30.5863 34.7922 7.3938
30.5843 34.8057 7.5212
30.5561 34.8404 7.459
30.5465 34.8443 7.334
30.5898 34.777 7.2532
30.5835 34.7889 7.2957
30.5852 34.7988 7.4559
30.5805 34.8033 7.4304
30.5834 34.8242 7.6963
30.5789 34.8198 7.5905
30.5712 34.832 7.6022
30.571 34.8253 7.5281
30.5626 34.837 7.5258
30.5654 34.8287 7.4772
30.5426 34.8451 7.2672
30.5521 34.8341 7.3047
30.5878 34.7852 7.3287
30.5822 34.7943 7.3457
30.5767 34.8033 7.3625
30.5836 34.8138 7.5971
30.5793 34.8131 7.5246
30.5752 34.8126 7.4521
30.5509 34.8427 7.3965
30.5577 34.8326 7.3908
30.5644 34.8225 7.3851
30.5393 34.845 7.1909
30.5499 34.8339 7.2542
30.5605 34.823 7.317
30.5931 34.7664 7.1549
30.5855 34.7818 7.231
30.5782 34.7971 7.3057
30.5713 34.8124 7.3793
30.5713 34.8124 7.3793
3 6 12 5 0.09617014972668281 0.29061826759933085 0.021734527812593663
3 4 2 3 0.09617014972668281 0.29061826759933085 0.021734527812593663
3 5 2 4 0.09617014972668281 0.29061826759933085 0.021734527812593663
3 0 2 13 0.09617014972668281 0.29061826759933085 0.021734527812593663
3 13 2 5 0.09617014972668281 0.29061826759933085 0.021734527812593663
3 5 12 13 0.09617014972668281 0.29061826759933085 0.021734527812593663
3 12 6 8 0.09617014972668281 0.29061826759933085 0.021734527812593663
3 11 8 9 0.09617014972668281 0.29061826759933085 0.021734527812593663
3 12 8 11 0.09617014972668281 0.29061826759933085 0.021734527812593663
3 18 42 41 0.09617014972668281 0.29061826759933085 0.021734527812593663
3 26 34 27 0.09617014972668281 0.29061826759933085 0.021734527812593663
3 40 39 20 0.09617014972668281 0.29061826759933085 0.021734527812593663
3 36 24 37 0.09617014972668281 0.29061826759933085 0.021734527812593663
3 20 39 22 0.09617014972668281 0.29061826759933085 0.021734527812593663
3 42 18 17 0.09617014972668281 0.29061826759933085 0.021734527812593663
3 19 18 41 0.09617014972668281 0.29061826759933085 0.021734527812593663
3 41 40 19 0.09617014972668281 0.29061826759933085 0.021734527812593663
3 19 40 20 0.09617014972668281 0.29061826759933085 0.021734527812593663
3 34 26 35 0.09617014972668281 0.29061826759933085 0.021734527812593663
3 33 29 27 0.09617014972668281 0.29061826759933085 0.021734527812593663
3 27 34 33 0.09617014972668281 0.29061826759933085 0.021734527812593663
3 25 24 36 0.09617014972668281 0.29061826759933085 0.021734527812593663
3 36 35 25 0.09617014972668281 0.29061826759933085 0.021734527812593663
3 25 35 26 0.09617014972668281 0.29061826759933085 0.021734527812593663
3 23 37 24 0.09617014972668281 0.29061826759933085 0.021734527812593663
3 45 42 15 0.09617014972668281 0.29061826759933085 0.021734527812593663
3 42 17 15 0.09617014972668281 0.29061826759933085 0.021734527812593663
3 30 33 31 0.09617014972668281 0.29061826759933085 0.021734527812593663
3 29 33 30 0.09617014972668281 0.29061826759933085 0.021734527812593663
3 38 22 39 0.09617014972668281 0.29061826759933085 0.021734527812593663
3 38 23 22 0.09617014972668281 0.29061826759933085 0.021734527812593663
3 37 23 38 0.09617014972668281 0.29061826759933085 0.021734527812593663
3 65 48 66 0.09617014972668281 0.29061826759933085 0.021734527812593663
3 66 48 46 0.09617014972668281 0.29061826759933085 0.021734527812593663
3 67 66 46 0.09617014972668281 0.29061826759933085 0.021734527812593663
3 66 67 93 0.09617014972668281 0.29061826759933085 0.021734527812593663
3 65 66 93 0.09617014972668281 0.29061826759933085 0.021734527812593663
3 93 64 65 0.09617014972668281 0.29061826759933085 0.021734527812593663
3 94 93 97 0.09617014972668281 0.29061826759933085 0.021734527812593663
3 64 93 94 0.09617014972668281 0.29061826759933085 0.021734527812593663
3 97 93 51 0.09617014972668281 0.29061826759933085 0.021734527812593663
3 51 93 67 0.09617014972668281 0.29061826759933085 0.021734527812593663
3 51 67 46 0.09617014972668281 0.29061826759933085 0.021734527812593663
3 81 89 54 0.09617014972668281 0.29061826759933085 0.021734527812593663
3 61 70 81 0.09617014972668281 0.29061826759933085 0.021734527812593663
3 81 70 89 0.09617014972668281 0.29061826759933085 0.021734527812593663
3 64 94 82 0.09617014972668281 0.29061826759933085 0.021734527812593663
3 82 94 83 0.09617014972668281 0.29061826759933085 0.021734527812593663
3 62 70 61 0.09617014972668281 0.29061826759933085 0.021734527812593663
3 89 70 75 0.09617014972668281 0.29061826759933085 0.021734527812593663
3 76 56 57 0.09617014972668281 0.29061826759933085 0.021734527812593663
3 57 59 76 0.09617014972668281 0.29061826759933085 0.021734527812593663
3 76 59 56 0.09617014972668281 0.29061826759933085 0.021734527812593663
3 56 59 78 0.09617014972668281 0.29061826759933085 0.021734527812593663
3 83 71 63 0.09617014972668281 0.29061826759933085 0.021734527812593663
3 63 82 83 0.09617014972668281 0.29061826759933085 0.021734527812593663
3 64 82 63 0.09617014972668281 0.29061826759933085 0.021734527812593663
3 71 62 63 0.09617014972668281 0.29061826759933085 0.021734527812593663
3 83 94 98 0.09617014972668281 0.29061826759933085 0.021734527812593663
3 94 73 98 0.09617014972668281 0.29061826759933085 0.021734527812593663
3 98 73 52 0.09617014972668281 0.29061826759933085 0.021734527812593663
3 72 94 97 0.09617014972668281 0.29061826759933085 0.021734527812593663
3 72 73 94 0.09617014972668281 0.29061826759933085 0.021734527812593663
3 52 73 72 0.09617014972668281 0.29061826759933085 0.021734527812593663
3 97 51 72 0.09617014972668281 0.29061826759933085 0.021734527812593663
3 72 51 52 0.09617014972668281 0.29061826759933085 0.021734527812593663
3 52 53 84 0.09617014972668281 0.29061826759933085 0.021734527812593663
3 53 85 84 0.09617014972668281 0.29061826759933085 0.021734527812593663
3 84 98 52 0.09617014972668281 0.29061826759933085 0.021734527812593663
3 85 98 84 0.09617014972668281 0.29061826759933085 0.021734527812593663
3 74 53 54 0.09617014972668281 0.29061826759933085 0.021734527812593663
3 74 75 53 0.09617014972668281 0.29061826759933085 0.021734527812593663
3 54 89 74 0.09617014972668281 0.29061826759933085 0.021734527812593663
3 89 75 74 0.09617014972668281 0.29061826759933085 0.021734527812593663
3 87 55 56 0.09617014972668281 0.29061826759933085 0.021734527812593663
3 77 55 87 0.09617014972668281 0.29061826759933085 0.021734527812593663
3 56 78 87 0.09617014972668281 0.29061826759933085 0.021734527812593663
3 87 78 77 0.09617014972668281 0.29061826759933085 0.021734527812593663
3 83 98 95 0.09617014972668281 0.29061826759933085 0.021734527812593663
3 95 98 85 0.09617014972668281 0.29061826759933085 0.021734527812593663
3 95 71 83 0.09617014972668281 0.29061826759933085 0.021734527812593663
3 95 86 71 0.09617014972668281 0.29061826759933085 0.021734527812593663
3 85 86 95 0.09617014972668281 0.29061826759933085 0.021734527812593663
3 68 85 53 0.09617014972668281 0.29061826759933085 0.021734527812593663
3 68 86 85 0.09617014972668281 0.29061826759933085 0.021734527812593663
3 99 86 68 0.09617014972668281 0.29061826759933085 0.021734527812593663
3 53 75 68 0.09617014972668281 0.29061826759933085 0.021734527812593663
3 92 91 71 0.09617014972668281 0.29061826759933085 0.021734527812593663
3 92 86 99 0.09617014972668281 0.29061826759933085 0.021734527812593663
3 71 86 92 0.09617014972668281 0.29061826759933085 0.021734527812593663
3 75 91 92 0.09617014972668281 0.29061826759933085 0.021734527812593663
3 99 68 92 0.09617014972668281 0.29061826759933085 0.021734527812593663
3 92 68 75 0.09617014972668281 0.29061826759933085 0.021734527812593663
3 90 75 70 0.09617014972668281 0.29061826759933085 0.021734527812593663
3 90 91 75 0.09617014972668281 0.29061826759933085 0.021734527812593663
3 70 62 90 0.09617014972668281 0.29061826759933085 0.021734527812593663
3 90 62 71 0.09617014972668281 0.29061826759933085 0.021734527812593663
3 71 91 90 0.09617014972668281 0.29061826759933085 0.021734527812593663
3 54 55 69 0.09617014972668281 0.29061826759933085 0.021734527812593663
3 55 88 69 0.09617014972668281 0.29061826759933085 0.021734527812593663
3 69 81 54 0.09617014972668281 0.29061826759933085 0.021734527812593663
3 69 88 81 0.09617014972668281 0.29061826759933085 0.021734527812593663
3 61 81 80 0.09617014972668281 0.29061826759933085 0.021734527812593663
3 81 88 79 0.09617014972668281 0.29061826759933085 0.021734527812593663
3 79 80 81 0.09617014972668281 0.29061826759933085 0.021734527812593663
3 79 88 55 0.09617014972668281 0.29061826759933085 0.021734527812593663
3 61 80 60 0.09617014972668281 0.29061826759933085 0.021734527812593663
3 60 78 59 0.09617014972668281 0.29061826759933085 0.021734527812593663
3 77 78 60 0.09617014972668281 0.29061826759933085 0.021734527812593663
3 80 79 60 0.09617014972668281 0.29061826759933085 0.021734527812593663
3 60 55 77 0.09617014972668281 0.29061826759933085 0.021734527812593663
3 60 79 55 0.09617014972668281 0.29061826759933085 0.021734527812593663
