OFF
546 854 0


27.5516 34.3884 8.678
27.5516 34.3884 8.678
27.484 34.2488 8.6459
27.4304 34.1371 8.6224
27.3854 34.0424 8.6039
27.3457 33.9583 8.5885
27.3093 33.8808 8.5752
27.2747 33.8067 8.5631
27.2408 33.7336 8.5518
27.2063 33.6591 8.5408
27.1702 33.5806 8.53
27.1311 33.4951 8.5188
27.0869 33.3984 8.5069
27.0351 33.2842 8.4938
27.181 33.2962 8.6164
27.0762 33.2192 8.5472
26.9709 33.142 8.4787
27.181 33.2962 8.6164
27.2571 33.3956 8.6552
27.3248 33.4874 8.6897
27.386 33.5732 8.7208
27.442 33.6545 8.7492
27.4937 33.7325 8.7754
27.5421 33.8083 8.7999
27.5878 33.8827 8.823
27.6314 33.9566 8.8449
27.6733 34.0307 8.8659
27.7139 34.1058 8.8863
27.7536 34.1826 8.9061
27.7928 34.2621 8.9256
27.8317 34.3451 8.9449
27.8706 34.4328 8.9642
27.9098 34.5262 8.9834
27.9496 34.627 9.0029
27.9902 34.7368 9.0226
28.032 34.8578 9.0428
28.032 34.8578 9.0428
27.9466 34.77 8.975
27.8808 34.7036 8.9235
27.8236 34.6468 8.8795
27.7688 34.5931 8.8378
27.7106 34.5371 8.7942
27.6422 34.4723 8.7437
27.5516 34.3884 8.678
27.5503 34.3533 8.6837
27.3335 33.8975 8.5923
27.3573 33.9139 8.6092
27.3808 33.9302 8.6259
27.2737 33.7672 8.572
27.3057 33.7999 8.5917
27.3368 33.8318 8.611
27.2132 33.6335 8.5534
27.2543 33.6842 8.576
27.2937 33.7331 8.5979
27.3657 33.9667 8.604
27.3854 33.9749 8.6194
27.4048 33.9831 8.6347
27.4241 33.9912 8.6498
27.1433 33.477 8.5341
27.1961 33.551 8.5601
27.2457 33.6209 8.5848
27.2927 33.6875 8.6086
27.3495 33.5502 8.6945
27.3731 33.6107 8.6993
27.3958 33.6692 8.7042
27.4176 33.7258 8.709
27.4523 33.6958 8.7477
27.4624 33.7363 8.7463
27.4723 33.776 8.745
27.4819 33.8151 8.7438
27.5415 33.832 8.7934
27.541 33.8556 8.7871
27.5404 33.879 8.7807
27.5398 33.9022 8.7745
27.6218 33.9648 8.8342
27.6123 33.973 8.8235
27.6028 33.9812 8.8128
27.5932 33.9894 8.8021
27.6964 34.0991 8.8716
27.6789 34.0924 8.8568
27.6613 34.0857 8.8421
27.6436 34.0791 8.8274
27.7677 34.2399 8.9068
27.7425 34.2177 8.888
27.7173 34.1956 8.8693
27.6919 34.1734 8.8507
27.8375 34.3928 8.9407
27.8045 34.3533 8.9175
27.7716 34.3141 8.8947
27.7387 34.275 8.8722
27.8455 34.6331 8.9026
27.811 34.5645 8.8825
27.7768 34.4975 8.8631
27.743 34.4314 8.8443
27.7457 34.5363 8.8268
27.7227 34.4803 8.8161
27.6999 34.4249 8.8057
27.677 34.37 8.7956
27.4009 34.042 8.6176
27.4163 34.0416 8.6313
27.4316 34.0412 8.6449
27.4467 34.0408 8.6584
27.4618 34.0404 8.6719
27.1369 33.3246 8.5701
27.1928 33.4223 8.5918
27.2446 33.5133 8.6123
27.293 33.5989 8.6319
27.3385 33.6799 8.6507
27.2909 33.4716 8.664
27.3229 33.544 8.6727
27.3533 33.6132 8.6812
27.3824 33.6796 8.6895
27.4102 33.7437 8.6978
27.9072 34.5648 8.9737
27.8657 34.5042 8.9456
27.8247 34.4449 8.9183
27.7841 34.3865 8.8916
27.7436 34.3288 8.8656
27.9782 34.7651 9.0062
27.9265 34.677 8.9718
27.8766 34.5926 8.9394
27.8278 34.5109 8.9084
27.7797 34.4313 8.8786
27.9037 34.6905 8.9476
27.8619 34.6138 8.9215
27.821 34.5394 8.8966
27.7806 34.4667 8.8726
27.7406 34.3951 8.8493
27.6319 34.4288 8.7427
27.6216 34.3855 8.7418
27.6112 34.3423 8.741
27.6008 34.2993 8.7403
27.5902 34.2563 8.7397
27.4411 34.1271 8.6341
27.4518 34.1172 8.6458
27.4624 34.1072 8.6574
27.473 34.0974 8.669
27.4836 34.0875 8.6806
27.4941 34.0777 8.6922
27.244 33.7018 8.5626
27.2804 33.7431 8.5837
27.3155 33.7832 8.6044
27.3495 33.8222 8.6245
27.3825 33.8601 8.6442
27.4146 33.8972 8.6636
27.2259 33.3876 8.6301
27.2679 33.4736 8.6433
27.3072 33.5548 8.656
27.3444 33.6319 8.6684
27.3797 33.7057 8.6804
27.4133 33.7765 8.6923
27.0491 33.2628 8.5117
27.1199 33.3728 8.5421
27.1845 33.474 8.5706
27.2442 33.5679 8.5973
27.2997 33.656 8.6228
27.3518 33.7392 8.6472
27.2259 33.3876 8.6301
27.2679 33.4736 8.6433
27.3072 33.5548 8.656
27.3444 33.6319 8.6684
27.3797 33.7057 8.6804
27.4133 33.7765 8.6923
27.1008 33.3807 8.5235
27.1613 33.4702 8.5515
27.2176 33.5538 8.5779
27.2702 33.6326 8.6031
27.3198 33.7072 8.6273
27.3668 33.7784 8.6506
27.4115 33.8467 8.6732
27.4983 33.7647 8.7713
27.5028 33.7964 8.7673
27.5072 33.8278 8.7634
27.5115 33.8587 8.7596
27.5157 33.8894 8.7559
27.5199 33.9198 8.7523
27.5239 33.9498 8.7487
27.6597 34.0314 8.8532
27.646 34.0322 8.8405
27.6324 34.033 8.8277
27.6187 34.0338 8.815
27.605 34.0346 8.8023
27.5913 34.0354 8.7896
27.5775 34.0362 8.7768
27.8027 34.3145 8.9239
27.7736 34.2839 8.903
27.7446 34.2535 8.8823
27.7155 34.2232 8.8617
27.6862 34.1928 8.8412
27.6568 34.1624 8.8207
27.6271 34.1318 8.8003
27.9425 34.6607 8.99
27.8962 34.5874 8.9589
27.8508 34.5163 8.9292
27.8062 34.4469 8.9004
27.762 34.3787 8.8725
27.7178 34.3111 8.8452
27.6733 34.2438 8.8183
27.7947 34.5836 8.8638
27.7662 34.5216 8.8486
27.7379 34.4606 8.8339
27.7096 34.4003 8.8195
27.6814 34.3404 8.8055
27.653 34.2807 8.7918
27.6244 34.2209 8.7783
27.3033 33.8317 8.5817
27.3311 33.8562 8.6001
27.3584 33.8803 8.6181
27.385 33.9039 8.6359
27.4112 33.9271 8.6535
27.4369 33.95 8.6708
27.4622 33.9726 8.688
27.4871 33.9949 8.705
27.403 33.6246 8.7222
27.4194 33.6745 8.7238
27.4353 33.7233 8.7253
27.4507 33.7709 8.727
27.4657 33.8175 8.7287
27.4804 33.8631 8.7305
27.4946 33.908 8.7324
27.5086 33.9522 8.7344
27.7323 34.1683 8.8894
27.711 34.1541 8.8727
27.6895 34.1398 8.856
27.668 34.1255 8.8393
27.6463 34.1112 8.8226
27.6246 34.0968 8.8059
27.6026 34.0824 8.7891
27.5806 34.0679 8.7723
27.6935 34.4866 8.7879
27.6764 34.4366 8.7818
27.6593 34.387 8.7759
27.6421 34.3375 8.7701
27.6249 34.2882 8.7645
27.6075 34.2389 8.7591
27.59 34.1894 8.7538
27.5722 34.1396 8.7486
27.4893 34.2277 8.6551
27.4945 34.2067 8.6642
27.4998 34.1856 8.6734
27.505 34.1646 8.6826
27.5101 34.1437 8.6918
27.5153 34.1227 8.7011
27.5204 34.1017 8.7104
27.5256 34.0808 8.7197
27.5307 34.0598 8.7291
27.1801 33.5597 8.544
27.2266 33.6211 8.5681
27.2707 33.6797 8.5914
27.3129 33.7359 8.6139
27.3533 33.7901 8.6358
27.3921 33.8425 8.6571
27.4296 33.8933 8.6779
27.466 33.9429 8.6984
27.5013 33.9913 8.7186
27.5826 33.8985 8.8143
27.5774 33.9143 8.8057
27.5721 33.93 8.7972
27.5669 33.9456 8.7887
27.5618 33.9612 8.7802
27.5566 33.9768 8.7718
27.5514 33.9923 8.7634
27.5462 34.0078 8.7551
27.541 34.0233 8.7468
27.8723 34.4759 8.9573
27.8352 34.4265 8.9317
27.7983 34.3777 8.9068
27.7616 34.3294 8.8822
27.7248 34.2813 8.858
27.6879 34.2334 8.834
27.6507 34.1853 8.8101
27.6131 34.137 8.7863
27.5748 34.0882 8.7625
27.5503 34.3533 8.6837
27.5488 34.3184 8.6895
27.5474 34.2835 8.6954
27.5459 34.2487 8.7013
27.5443 34.2139 8.7073
27.5427 34.1791 8.7134
27.5411 34.1442 8.7195
27.5394 34.1092 8.7257
27.5376 34.0741 8.7321
27.5358 34.0387 8.7385
27.5516 34.3884 8.678
27.5516 34.3884 8.678
27.491 34.4784 8.7336
27.435 34.5656 8.7878
27.3833 34.6508 8.841
27.3359 34.7344 8.8935
27.2928 34.8169 8.9456
27.2539 34.8985 8.9976
27.2194 34.9795 9.0495
27.1891 35.0599 9.1015
27.1631 35.1398 9.1535
27.141 35.2193 9.2055
27.1227 35.2982 9.2576
27.1078 35.3766 9.3096
27.0958 35.4545 9.3616
27.0863 35.5322 9.4136
27.0791 35.6097 9.4657
27.0738 35.6873 9.5181
27.0702 35.7653 9.5709
27.0679 35.8441 9.6244
27.067 35.9242 9.6788
27.0671 36.0058 9.7344
27.0684 36.0897 9.7917
27.0706 36.1764 9.8509
27.0737 36.2665 9.9127
27.0779 36.3611 9.9775
27.083 36.4609 10.0459
27.0893 36.5672 10.119
27.0893 36.5672 10.119
27.15 36.5107 10.0862
27.2107 36.4542 10.0534
27.2715 36.3977 10.0206
27.3322 36.3412 9.9878
27.3929 36.2847 9.9549
27.4537 36.2282 9.9221
27.5144 36.1717 9.8893
27.5751 36.1152 9.8565
27.6359 36.0586 9.8237
27.6966 36.0021 9.7909
27.7573 35.9456 9.7581
27.818 35.8891 9.7253
27.8577 35.7818 9.6559
27.8892 35.688 9.595
27.9151 35.6036 9.5399
27.9369 35.5254 9.4887
27.9556 35.451 9.4398
27.972 35.3782 9.3917
27.9866 35.3051 9.3433
27.9995 35.2299 9.2932
28.0108 35.1504 9.2401
28.0204 35.0641 9.1822
28.0278 34.9679 9.1174
28.032 34.8578 9.0428
28.032 34.8578 9.0428
27.9466 34.77 8.975
27.8808 34.7036 8.9235
27.8236 34.6468 8.8795
27.7688 34.5931 8.8378
27.7106 34.5371 8.7942
27.6422 34.4723 8.7437
27.5516 34.3884 8.678
26.9709 33.142 8.4787
26.9709 33.142 8.4787
26.97 33.1411 8.4788
26.9709 33.142 8.4787
26.9709 33.142 8.4787
27.0762 33.2192 8.5472
27.181 33.2962 8.6164
27.181 33.2962 8.6164
27.0898 33.2091 8.6084
27.0231 33.1464 8.6008
26.9561 33.0842 8.5918
26.8636 32.9994 8.5773
26.9163 33.0697 8.5279
26.9691 33.1401 8.4789
26.9919 33.1506 8.5101
27.0446 33.1893 8.5439
27.0995 33.2297 8.5797
27.0518 33.1845 8.5752
26.9844 33.1217 8.5661
26.9396 33.0807 8.5585
26.991 33.1496 8.5102
27.0124 33.1589 8.5407
26.9691 33.1401 8.4789
26.9691 33.1401 8.4789
26.9163 33.0697 8.5279
26.8636 32.9994 8.5773
26.8636 32.9994 8.5773
26.7389 32.945 8.6337
26.6526 32.9099 8.6719
26.5655 32.8763 8.7099
26.437 32.8302 8.7649
26.437 32.8302 8.7649
26.3029 32.8083 8.8085
26.2056 32.7929 8.8405
26.1217 32.7798 8.8683
26.0377 32.7671 8.8962
25.9405 32.7526 8.9288
25.6917 32.755 8.9916
25.8128 32.7965 8.9367
25.9167 32.8313 8.8905
26.0088 32.8616 8.8503
26.0928 32.8887 8.8143
26.1714 32.9136 8.7812
26.2467 32.9371 8.75
26.3206 32.9597 8.7199
26.3948 32.982 8.6902
26.471 33.0045 8.6603
26.5512 33.0276 8.6294
26.6377 33.052 8.5969
26.7332 33.0783 8.5618
26.8419 33.1073 8.523
26.9691 33.1401 8.4789
25.8066 32.7332 8.974
25.7491 32.7441 8.9828
25.6917 32.755 8.9916
26.1648 32.8035 8.8444
26.2071 32.8268 8.8211
26.0171 32.7814 8.8932
26.0912 32.8096 8.859
26.0712 32.8708 8.8296
26.1325 32.88 8.8094
26.2047 32.9141 8.7729
26.2379 32.9145 8.7647
26.3286 32.9526 8.722
26.3367 32.9455 8.724
26.4544 32.9901 8.672
26.4376 32.9756 8.6839
26.594 33.0298 8.6187
26.5499 33.0074 8.6408
26.8256 33.0435 8.5611
26.7352 33.0177 8.5945
26.6448 32.9923 8.6281
26.6773 32.94 8.6499
26.6158 32.9351 8.6661
26.5544 32.9303 8.6824
26.5326 32.883 8.7136
26.4998 32.8897 8.7173
26.467 32.8964 8.7211
26.3142 32.8268 8.7955
26.3254 32.8451 8.7826
26.3365 32.8633 8.7698
25.9129 32.8174 8.8993
26.0094 32.8378 8.8635
26.1029 32.8579 8.8291
26.7645 33.0754 8.5566
26.6869 33.0438 8.5906
26.609 33.0122 8.625
25.817 32.7839 8.9427
25.9361 32.8117 8.8966
26.05 32.8387 8.8529
26.7811 32.985 8.6026
26.6991 32.9709 8.628
26.6172 32.9571 8.6536
26.5351 32.9435 8.6795
26.4255 32.8449 8.7594
26.4141 32.8594 8.7539
26.4028 32.8739 8.7484
26.3915 32.8882 8.743
26.0961 32.7931 8.8671
26.153 32.8187 8.8387
26.2087 32.8437 8.8112
26.2632 32.8684 8.7843
25.9964 32.8459 8.8622
26.0741 32.8602 8.8349
26.1499 32.8745 8.8083
26.2243 32.8886 8.7824
26.2671 32.9337 8.747
26.2876 32.9302 8.7441
26.308 32.9268 8.7411
26.3284 32.9235 8.7382
26.5216 33.0094 8.6461
26.4917 32.9912 8.6629
26.4615 32.9728 8.68
26.4311 32.9542 8.6972
26.8699 33.1022 8.5199
26.7712 33.0648 8.561
26.6724 33.0278 8.6026
26.5729 32.9909 8.6448
26.6053 32.9108 8.6819
26.558 32.9118 8.6919
26.5109 32.9129 8.7019
26.4637 32.9141 8.712
26.4165 32.9154 8.7221
26.2338 32.8142 8.8217
26.2617 32.8352 8.8033
26.2891 32.8559 8.7852
26.3161 32.8764 8.7673
26.3428 32.8967 8.7497
25.817 32.7839 8.9427
25.9361 32.8117 8.8966
26.05 32.8387 8.8529
26.1596 32.8651 8.8112
26.2658 32.891 8.7711
26.14 32.8933 8.8002
26.1866 32.8979 8.7863
26.2328 32.9026 8.7725
26.2786 32.9073 8.759
26.3241 32.912 8.7456
26.3906 32.9713 8.6971
26.3864 32.9605 8.7041
26.3821 32.9496 8.7111
26.3778 32.9387 8.7181
26.3736 32.9278 8.7252
26.6739 33.0516 8.5892
26.6143 33.0248 8.6169
26.5541 32.9981 8.645
26.4933 32.9712 8.6736
26.4318 32.9441 8.7027
25.9093 32.7659 8.9292
26.0077 32.7976 8.8865
26.1023 32.8283 8.8458
26.1937 32.8583 8.8067
26.2826 32.8877 8.7689
26.8699 33.1022 8.5199
26.7712 33.0648 8.561
26.6724 33.0278 8.6026
26.5729 32.9909 8.6448
26.472 32.954 8.688
26.3692 32.9167 8.7324
26.3692 32.9167 8.7324
26.437 32.8302 8.7649
26.437 32.8302 8.7649
26.3297 32.8085 8.8277
26.2545 32.7939 8.8697
26.1865 32.7811 8.9064
26.11 32.7673 8.9463
25.8066 32.7332 8.974
25.9405 32.7526 8.9288
26.0377 32.7671 8.8962
26.1217 32.7798 8.8683
26.2056 32.7929 8.8405
26.3029 32.8083 8.8085
26.437 32.8302 8.7649
25.9984 32.748 9.0019
25.9025 32.7405 8.9878
25.8066 32.7332 8.974
26.2736 32.7999 8.8433
26.1774 32.7817 8.8961
26.0151 32.7627 8.9104
26.1342 32.7808 8.8706
26.2553 32.7998 8.8305
25.9901 32.7546 8.9492
26.223 32.7902 8.8715
26.1912 32.7865 8.8734
26.1263 32.7724 8.9226
26.1427 32.7776 8.899
25.9289 32.7499 8.9394
26.0461 32.7664 8.9066
26.0787 32.7723 8.8891
26.1192 32.7776 8.8821
26.1901 32.7895 8.8521
26.1746 32.7861 8.8636
26.3457 32.8143 8.8009
26.2532 32.7985 8.8376
26.0524 32.7595 8.9592
26.1059 32.7711 8.917
25.9289 32.7499 8.9394
26.0461 32.7664 8.9066
26.3457 32.8143 8.8009
26.2532 32.7985 8.8376
26.1591 32.7828 8.8753
26.1591 32.7828 8.8753
3 15 151 16 0.8687710664668419 0.5547018297011362 0.059307791755580985
3 16 151 13 0.8687710664668419 0.5547018297011362 0.059307791755580985
3 103 15 17 0.8687710664668419 0.5547018297011362 0.059307791755580985
3 151 15 103 0.8687710664668419 0.5547018297011362 0.059307791755580985
3 103 13 151 0.8687710664668419 0.5547018297011362 0.059307791755580985
3 251 150 169 0.8687710664668419 0.5547018297011362 0.059307791755580985
3 35 37 118 0.8687710664668419 0.5547018297011362 0.059307791755580985
3 118 34 35 0.8687710664668419 0.5547018297011362 0.059307791755580985
3 37 34 118 0.8687710664668419 0.5547018297011362 0.059307791755580985
3 119 34 37 0.8687710664668419 0.5547018297011362 0.059307791755580985
3 258 175 73 0.8687710664668419 0.5547018297011362 0.059307791755580985
3 176 175 258 0.8687710664668419 0.5547018297011362 0.059307791755580985
3 217 218 169 0.8687710664668419 0.5547018297011362 0.059307791755580985
3 69 218 217 0.8687710664668419 0.5547018297011362 0.059307791755580985
3 169 150 217 0.8687710664668419 0.5547018297011362 0.059307791755580985
3 252 218 219 0.8687710664668419 0.5547018297011362 0.059307791755580985
3 169 218 252 0.8687710664668419 0.5547018297011362 0.059307791755580985
3 219 218 174 0.8687710664668419 0.5547018297011362 0.059307791755580985
3 174 175 219 0.8687710664668419 0.5547018297011362 0.059307791755580985
3 73 175 174 0.8687710664668419 0.5547018297011362 0.059307791755580985
3 5 46 47 0.8687710664668419 0.5547018297011362 0.059307791755580985
3 5 6 45 0.8687710664668419 0.5547018297011362 0.059307791755580985
3 45 46 5 0.8687710664668419 0.5547018297011362 0.059307791755580985
3 45 6 206 0.8687710664668419 0.5547018297011362 0.059307791755580985
3 4 98 3 0.8687710664668419 0.5547018297011362 0.059307791755580985
3 66 67 215 0.8687710664668419 0.5547018297011362 0.059307791755580985
3 37 38 123 0.8687710664668419 0.5547018297011362 0.059307791755580985
3 123 119 37 0.8687710664668419 0.5547018297011362 0.059307791755580985
3 191 33 34 0.8687710664668419 0.5547018297011362 0.059307791755580985
3 34 119 191 0.8687710664668419 0.5547018297011362 0.059307791755580985
3 229 41 42 0.8687710664668419 0.5547018297011362 0.059307791755580985
3 95 41 229 0.8687710664668419 0.5547018297011362 0.059307791755580985
3 94 41 95 0.8687710664668419 0.5547018297011362 0.059307791755580985
3 95 199 94 0.8687710664668419 0.5547018297011362 0.059307791755580985
3 40 41 94 0.8687710664668419 0.5547018297011362 0.059307791755580985
3 280 281 272 0.8687710664668419 0.5547018297011362 0.059307791755580985
3 276 132 275 0.8687710664668419 0.5547018297011362 0.059307791755580985
3 275 2 276 0.8687710664668419 0.5547018297011362 0.059307791755580985
3 275 274 2 0.8687710664668419 0.5547018297011362 0.059307791755580985
3 0 2 273 0.8687710664668419 0.5547018297011362 0.059307791755580985
3 2 274 273 0.8687710664668419 0.5547018297011362 0.059307791755580985
3 30 31 86 0.8687710664668419 0.5547018297011362 0.059307791755580985
3 219 175 220 0.8687710664668419 0.5547018297011362 0.059307791755580985
3 220 175 176 0.8687710664668419 0.5547018297011362 0.059307791755580985
3 176 258 259 0.8687710664668419 0.5547018297011362 0.059307791755580985
3 258 76 259 0.8687710664668419 0.5547018297011362 0.059307791755580985
3 216 217 150 0.8687710664668419 0.5547018297011362 0.059307791755580985
3 216 215 67 0.8687710664668419 0.5547018297011362 0.059307791755580985
3 253 252 219 0.8687710664668419 0.5547018297011362 0.059307791755580985
3 219 220 253 0.8687710664668419 0.5547018297011362 0.059307791755580985
3 253 220 211 0.8687710664668419 0.5547018297011362 0.059307791755580985
3 144 252 209 0.8687710664668419 0.5547018297011362 0.059307791755580985
3 169 252 144 0.8687710664668419 0.5547018297011362 0.059307791755580985
3 150 251 168 0.8687710664668419 0.5547018297011362 0.059307791755580985
3 112 216 150 0.8687710664668419 0.5547018297011362 0.059307791755580985
3 150 168 112 0.8687710664668419 0.5547018297011362 0.059307791755580985
3 112 168 156 0.8687710664668419 0.5547018297011362 0.059307791755580985
3 65 215 112 0.8687710664668419 0.5547018297011362 0.059307791755580985
3 215 216 112 0.8687710664668419 0.5547018297011362 0.059307791755580985
3 207 45 206 0.8687710664668419 0.5547018297011362 0.059307791755580985
3 46 45 207 0.8687710664668419 0.5547018297011362 0.059307791755580985
3 3 98 133 0.8687710664668419 0.5547018297011362 0.059307791755580985
3 133 239 3 0.8687710664668419 0.5547018297011362 0.059307791755580985
3 171 170 23 0.8687710664668419 0.5547018297011362 0.059307791755580985
3 22 67 66 0.8687710664668419 0.5547018297011362 0.059307791755580985
3 22 170 67 0.8687710664668419 0.5547018297011362 0.059307791755580985
3 23 170 22 0.8687710664668419 0.5547018297011362 0.059307791755580985
3 198 39 40 0.8687710664668419 0.5547018297011362 0.059307791755580985
3 199 91 198 0.8687710664668419 0.5547018297011362 0.059307791755580985
3 40 94 198 0.8687710664668419 0.5547018297011362 0.059307791755580985
3 198 94 199 0.8687710664668419 0.5547018297011362 0.059307791755580985
3 32 33 113 0.8687710664668419 0.5547018297011362 0.059307791755580985
3 113 114 32 0.8687710664668419 0.5547018297011362 0.059307791755580985
3 91 120 124 0.8687710664668419 0.5547018297011362 0.059307791755580985
3 119 123 124 0.8687710664668419 0.5547018297011362 0.059307791755580985
3 125 120 91 0.8687710664668419 0.5547018297011362 0.059307791755580985
3 125 91 199 0.8687710664668419 0.5547018297011362 0.059307791755580985
3 96 200 95 0.8687710664668419 0.5547018297011362 0.059307791755580985
3 95 229 96 0.8687710664668419 0.5547018297011362 0.059307791755580985
3 92 126 121 0.8687710664668419 0.5547018297011362 0.059307791755580985
3 121 125 92 0.8687710664668419 0.5547018297011362 0.059307791755580985
3 92 125 199 0.8687710664668419 0.5547018297011362 0.059307791755580985
3 200 126 92 0.8687710664668419 0.5547018297011362 0.059307791755580985
3 95 200 92 0.8687710664668419 0.5547018297011362 0.059307791755580985
3 92 199 95 0.8687710664668419 0.5547018297011362 0.059307791755580985
3 264 114 121 0.8687710664668419 0.5547018297011362 0.059307791755580985
3 264 31 32 0.8687710664668419 0.5547018297011362 0.059307791755580985
3 32 114 264 0.8687710664668419 0.5547018297011362 0.059307791755580985
3 242 280 279 0.8687710664668419 0.5547018297011362 0.059307791755580985
3 277 132 276 0.8687710664668419 0.5547018297011362 0.059307791755580985
3 277 235 132 0.8687710664668419 0.5547018297011362 0.059307791755580985
3 236 280 272 0.8687710664668419 0.5547018297011362 0.059307791755580985
3 279 280 236 0.8687710664668419 0.5547018297011362 0.059307791755580985
3 31 264 115 0.8687710664668419 0.5547018297011362 0.059307791755580985
3 115 264 121 0.8687710664668419 0.5547018297011362 0.059307791755580985
3 30 86 87 0.8687710664668419 0.5547018297011362 0.059307791755580985
3 254 220 176 0.8687710664668419 0.5547018297011362 0.059307791755580985
3 98 4 56 0.8687710664668419 0.5547018297011362 0.059307791755580985
3 255 24 25 0.8687710664668419 0.5547018297011362 0.059307791755580985
3 25 256 255 0.8687710664668419 0.5547018297011362 0.059307791755580985
3 255 256 73 0.8687710664668419 0.5547018297011362 0.059307791755580985
3 75 76 258 0.8687710664668419 0.5547018297011362 0.059307791755580985
3 261 254 176 0.8687710664668419 0.5547018297011362 0.059307791755580985
3 69 217 68 0.8687710664668419 0.5547018297011362 0.059307791755580985
3 217 216 68 0.8687710664668419 0.5547018297011362 0.059307791755580985
3 68 171 69 0.8687710664668419 0.5547018297011362 0.059307791755580985
3 170 171 68 0.8687710664668419 0.5547018297011362 0.059307791755580985
3 67 170 68 0.8687710664668419 0.5547018297011362 0.059307791755580985
3 68 216 67 0.8687710664668419 0.5547018297011362 0.059307791755580985
3 209 252 210 0.8687710664668419 0.5547018297011362 0.059307791755580985
3 252 253 210 0.8687710664668419 0.5547018297011362 0.059307791755580985
3 210 253 211 0.8687710664668419 0.5547018297011362 0.059307791755580985
3 211 57 210 0.8687710664668419 0.5547018297011362 0.059307791755580985
3 210 56 209 0.8687710664668419 0.5547018297011362 0.059307791755580985
3 57 56 210 0.8687710664668419 0.5547018297011362 0.059307791755580985
3 73 174 72 0.8687710664668419 0.5547018297011362 0.059307791755580985
3 72 255 73 0.8687710664668419 0.5547018297011362 0.059307791755580985
3 72 71 24 0.8687710664668419 0.5547018297011362 0.059307791755580985
3 24 255 72 0.8687710664668419 0.5547018297011362 0.059307791755580985
3 23 24 70 0.8687710664668419 0.5547018297011362 0.059307791755580985
3 24 71 70 0.8687710664668419 0.5547018297011362 0.059307791755580985
3 173 174 218 0.8687710664668419 0.5547018297011362 0.059307791755580985
3 173 72 174 0.8687710664668419 0.5547018297011362 0.059307791755580985
3 71 72 173 0.8687710664668419 0.5547018297011362 0.059307791755580985
3 7 49 205 0.8687710664668419 0.5547018297011362 0.059307791755580985
3 205 6 7 0.8687710664668419 0.5547018297011362 0.059307791755580985
3 206 6 205 0.8687710664668419 0.5547018297011362 0.059307791755580985
3 143 251 169 0.8687710664668419 0.5547018297011362 0.059307791755580985
3 169 144 143 0.8687710664668419 0.5547018297011362 0.059307791755580985
3 143 142 251 0.8687710664668419 0.5547018297011362 0.059307791755580985
3 209 47 208 0.8687710664668419 0.5547018297011362 0.059307791755580985
3 208 144 209 0.8687710664668419 0.5547018297011362 0.059307791755580985
3 208 47 46 0.8687710664668419 0.5547018297011362 0.059307791755580985
3 46 207 208 0.8687710664668419 0.5547018297011362 0.059307791755580985
3 208 143 144 0.8687710664668419 0.5547018297011362 0.059307791755580985
3 207 143 208 0.8687710664668419 0.5547018297011362 0.059307791755580985
3 21 22 66 0.8687710664668419 0.5547018297011362 0.059307791755580985
3 63 64 160 0.8687710664668419 0.5547018297011362 0.059307791755580985
3 154 147 106 0.8687710664668419 0.5547018297011362 0.059307791755580985
3 103 104 152 0.8687710664668419 0.5547018297011362 0.059307791755580985
3 145 103 17 0.8687710664668419 0.5547018297011362 0.059307791755580985
3 145 104 103 0.8687710664668419 0.5547018297011362 0.059307791755580985
3 17 18 145 0.8687710664668419 0.5547018297011362 0.059307791755580985
3 192 113 33 0.8687710664668419 0.5547018297011362 0.059307791755580985
3 120 113 192 0.8687710664668419 0.5547018297011362 0.059307791755580985
3 33 191 192 0.8687710664668419 0.5547018297011362 0.059307791755580985
3 192 191 119 0.8687710664668419 0.5547018297011362 0.059307791755580985
3 119 124 192 0.8687710664668419 0.5547018297011362 0.059307791755580985
3 192 124 120 0.8687710664668419 0.5547018297011362 0.059307791755580985
3 90 198 91 0.8687710664668419 0.5547018297011362 0.059307791755580985
3 91 124 90 0.8687710664668419 0.5547018297011362 0.059307791755580985
3 39 198 90 0.8687710664668419 0.5547018297011362 0.059307791755580985
3 38 39 90 0.8687710664668419 0.5547018297011362 0.059307791755580985
3 90 123 38 0.8687710664668419 0.5547018297011362 0.059307791755580985
3 90 124 123 0.8687710664668419 0.5547018297011362 0.059307791755580985
3 120 125 193 0.8687710664668419 0.5547018297011362 0.059307791755580985
3 193 113 120 0.8687710664668419 0.5547018297011362 0.059307791755580985
3 114 113 193 0.8687710664668419 0.5547018297011362 0.059307791755580985
3 121 114 193 0.8687710664668419 0.5547018297011362 0.059307791755580985
3 193 125 121 0.8687710664668419 0.5547018297011362 0.059307791755580985
3 0 273 129 0.8687710664668419 0.5547018297011362 0.059307791755580985
3 231 129 232 0.8687710664668419 0.5547018297011362 0.059307791755580985
3 230 229 42 0.8687710664668419 0.5547018297011362 0.059307791755580985
3 230 96 229 0.8687710664668419 0.5547018297011362 0.059307791755580985
3 231 96 230 0.8687710664668419 0.5547018297011362 0.059307791755580985
3 231 232 97 0.8687710664668419 0.5547018297011362 0.059307791755580985
3 200 96 93 0.8687710664668419 0.5547018297011362 0.059307791755580985
3 122 126 93 0.8687710664668419 0.5547018297011362 0.059307791755580985
3 93 126 200 0.8687710664668419 0.5547018297011362 0.059307791755580985
3 240 133 134 0.8687710664668419 0.5547018297011362 0.059307791755580985
3 239 133 240 0.8687710664668419 0.5547018297011362 0.059307791755580985
3 244 245 281 0.8687710664668419 0.5547018297011362 0.059307791755580985
3 281 280 244 0.8687710664668419 0.5547018297011362 0.059307791755580985
3 235 277 278 0.8687710664668419 0.5547018297011362 0.059307791755580985
3 279 236 278 0.8687710664668419 0.5547018297011362 0.059307791755580985
3 278 236 235 0.8687710664668419 0.5547018297011362 0.059307791755580985
3 278 277 239 0.8687710664668419 0.5547018297011362 0.059307791755580985
3 239 240 278 0.8687710664668419 0.5547018297011362 0.059307791755580985
3 237 2 3 0.8687710664668419 0.5547018297011362 0.059307791755580985
3 276 2 237 0.8687710664668419 0.5547018297011362 0.059307791755580985
3 237 277 276 0.8687710664668419 0.5547018297011362 0.059307791755580985
3 132 235 234 0.8687710664668419 0.5547018297011362 0.059307791755580985
3 235 204 234 0.8687710664668419 0.5547018297011362 0.059307791755580985
3 270 204 235 0.8687710664668419 0.5547018297011362 0.059307791755580985
3 189 188 270 0.8687710664668419 0.5547018297011362 0.059307791755580985
3 197 204 270 0.8687710664668419 0.5547018297011362 0.059307791755580985
3 270 269 197 0.8687710664668419 0.5547018297011362 0.059307791755580985
3 270 188 269 0.8687710664668419 0.5547018297011362 0.059307791755580985
3 271 236 272 0.8687710664668419 0.5547018297011362 0.059307791755580985
3 235 236 271 0.8687710664668419 0.5547018297011362 0.059307791755580985
3 189 270 271 0.8687710664668419 0.5547018297011362 0.059307791755580985
3 271 270 235 0.8687710664668419 0.5547018297011362 0.059307791755580985
3 227 182 181 0.8687710664668419 0.5547018297011362 0.059307791755580985
3 227 81 226 0.8687710664668419 0.5547018297011362 0.059307791755580985
3 227 271 272 0.8687710664668419 0.5547018297011362 0.059307791755580985
3 226 271 227 0.8687710664668419 0.5547018297011362 0.059307791755580985
3 77 182 183 0.8687710664668419 0.5547018297011362 0.059307791755580985
3 183 261 77 0.8687710664668419 0.5547018297011362 0.059307791755580985
3 181 182 77 0.8687710664668419 0.5547018297011362 0.059307791755580985
3 77 259 76 0.8687710664668419 0.5547018297011362 0.059307791755580985
3 27 28 221 0.8687710664668419 0.5547018297011362 0.059307791755580985
3 28 84 221 0.8687710664668419 0.5547018297011362 0.059307791755580985
3 265 86 31 0.8687710664668419 0.5547018297011362 0.059307791755580985
3 31 115 265 0.8687710664668419 0.5547018297011362 0.059307791755580985
3 117 89 88 0.8687710664668419 0.5547018297011362 0.059307791755580985
3 266 87 86 0.8687710664668419 0.5547018297011362 0.059307791755580985
3 86 265 266 0.8687710664668419 0.5547018297011362 0.059307791755580985
3 211 220 212 0.8687710664668419 0.5547018297011362 0.059307791755580985
3 220 254 212 0.8687710664668419 0.5547018297011362 0.059307791755580985
3 282 254 263 0.8687710664668419 0.5547018297011362 0.059307791755580985
3 263 183 282 0.8687710664668419 0.5547018297011362 0.059307791755580985
3 245 212 282 0.8687710664668419 0.5547018297011362 0.059307791755580985
3 282 212 254 0.8687710664668419 0.5547018297011362 0.059307791755580985
3 281 245 282 0.8687710664668419 0.5547018297011362 0.059307791755580985
3 55 47 209 0.8687710664668419 0.5547018297011362 0.059307791755580985
3 209 56 55 0.8687710664668419 0.5547018297011362 0.059307791755580985
3 55 56 4 0.8687710664668419 0.5547018297011362 0.059307791755580985
3 57 100 99 0.8687710664668419 0.5547018297011362 0.059307791755580985
3 98 56 99 0.8687710664668419 0.5547018297011362 0.059307791755580985
3 99 56 57 0.8687710664668419 0.5547018297011362 0.059307791755580985
3 99 100 134 0.8687710664668419 0.5547018297011362 0.059307791755580985
3 99 133 98 0.8687710664668419 0.5547018297011362 0.059307791755580985
3 134 133 99 0.8687710664668419 0.5547018297011362 0.059307791755580985
3 74 256 25 0.8687710664668419 0.5547018297011362 0.059307791755580985
3 25 26 177 0.8687710664668419 0.5547018297011362 0.059307791755580985
3 76 75 179 0.8687710664668419 0.5547018297011362 0.059307791755580985
3 257 75 258 0.8687710664668419 0.5547018297011362 0.059307791755580985
3 257 258 73 0.8687710664668419 0.5547018297011362 0.059307791755580985
3 73 256 257 0.8687710664668419 0.5547018297011362 0.059307791755580985
3 256 74 257 0.8687710664668419 0.5547018297011362 0.059307791755580985
3 257 74 75 0.8687710664668419 0.5547018297011362 0.059307791755580985
3 262 183 263 0.8687710664668419 0.5547018297011362 0.059307791755580985
3 262 261 183 0.8687710664668419 0.5547018297011362 0.059307791755580985
3 263 254 262 0.8687710664668419 0.5547018297011362 0.059307791755580985
3 254 261 262 0.8687710664668419 0.5547018297011362 0.059307791755580985
3 172 218 69 0.8687710664668419 0.5547018297011362 0.059307791755580985
3 172 173 218 0.8687710664668419 0.5547018297011362 0.059307791755580985
3 69 171 172 0.8687710664668419 0.5547018297011362 0.059307791755580985
3 172 171 23 0.8687710664668419 0.5547018297011362 0.059307791755580985
3 23 70 172 0.8687710664668419 0.5547018297011362 0.059307791755580985
3 172 70 71 0.8687710664668419 0.5547018297011362 0.059307791755580985
3 71 173 172 0.8687710664668419 0.5547018297011362 0.059307791755580985
3 167 53 61 0.8687710664668419 0.5547018297011362 0.059307791755580985
3 48 49 7 0.8687710664668419 0.5547018297011362 0.059307791755580985
3 7 8 48 0.8687710664668419 0.5547018297011362 0.059307791755580985
3 48 141 49 0.8687710664668419 0.5547018297011362 0.059307791755580985
3 250 168 251 0.8687710664668419 0.5547018297011362 0.059307791755580985
3 251 142 250 0.8687710664668419 0.5547018297011362 0.059307791755580985
3 250 142 141 0.8687710664668419 0.5547018297011362 0.059307791755580985
3 156 168 250 0.8687710664668419 0.5547018297011362 0.059307791755580985
3 250 141 156 0.8687710664668419 0.5547018297011362 0.059307791755580985
3 49 141 50 0.8687710664668419 0.5547018297011362 0.059307791755580985
3 141 142 50 0.8687710664668419 0.5547018297011362 0.059307791755580985
3 50 205 49 0.8687710664668419 0.5547018297011362 0.059307791755580985
3 206 205 50 0.8687710664668419 0.5547018297011362 0.059307791755580985
3 50 207 206 0.8687710664668419 0.5547018297011362 0.059307791755580985
3 50 143 207 0.8687710664668419 0.5547018297011362 0.059307791755580985
3 142 143 50 0.8687710664668419 0.5547018297011362 0.059307791755580985
3 139 8 9 0.8687710664668419 0.5547018297011362 0.059307791755580985
3 9 52 139 0.8687710664668419 0.5547018297011362 0.059307791755580985
3 248 52 166 0.8687710664668419 0.5547018297011362 0.059307791755580985
3 61 53 248 0.8687710664668419 0.5547018297011362 0.059307791755580985
3 53 139 248 0.8687710664668419 0.5547018297011362 0.059307791755580985
3 248 139 52 0.8687710664668419 0.5547018297011362 0.059307791755580985
3 60 247 154 0.8687710664668419 0.5547018297011362 0.059307791755580985
3 154 106 60 0.8687710664668419 0.5547018297011362 0.059307791755580985
3 60 106 166 0.8687710664668419 0.5547018297011362 0.059307791755580985
3 166 52 60 0.8687710664668419 0.5547018297011362 0.059307791755580985
3 51 9 10 0.8687710664668419 0.5547018297011362 0.059307791755580985
3 10 247 51 0.8687710664668419 0.5547018297011362 0.059307791755580985
3 51 52 9 0.8687710664668419 0.5547018297011362 0.059307791755580985
3 51 60 52 0.8687710664668419 0.5547018297011362 0.059307791755580985
3 247 60 51 0.8687710664668419 0.5547018297011362 0.059307791755580985
3 214 21 66 0.8687710664668419 0.5547018297011362 0.059307791755580985
3 66 215 214 0.8687710664668419 0.5547018297011362 0.059307791755580985
3 214 215 65 0.8687710664668419 0.5547018297011362 0.059307791755580985
3 213 64 63 0.8687710664668419 0.5547018297011362 0.059307791755580985
3 213 214 64 0.8687710664668419 0.5547018297011362 0.059307791755580985
3 21 214 213 0.8687710664668419 0.5547018297011362 0.059307791755580985
3 61 248 155 0.8687710664668419 0.5547018297011362 0.059307791755580985
3 155 248 166 0.8687710664668419 0.5547018297011362 0.059307791755580985
3 166 106 155 0.8687710664668419 0.5547018297011362 0.059307791755580985
3 155 106 160 0.8687710664668419 0.5547018297011362 0.059307791755580985
3 108 18 19 0.8687710664668419 0.5547018297011362 0.059307791755580985
3 147 62 110 0.8687710664668419 0.5547018297011362 0.059307791755580985
3 110 106 147 0.8687710664668419 0.5547018297011362 0.059307791755580985
3 160 106 110 0.8687710664668419 0.5547018297011362 0.059307791755580985
3 63 160 110 0.8687710664668419 0.5547018297011362 0.059307791755580985
3 110 62 63 0.8687710664668419 0.5547018297011362 0.059307791755580985
3 13 103 163 0.8687710664668419 0.5547018297011362 0.059307791755580985
3 103 152 163 0.8687710664668419 0.5547018297011362 0.059307791755580985
3 12 13 163 0.8687710664668419 0.5547018297011362 0.059307791755580985
3 163 152 12 0.8687710664668419 0.5547018297011362 0.059307791755580985
3 164 152 104 0.8687710664668419 0.5547018297011362 0.059307791755580985
3 104 153 164 0.8687710664668419 0.5547018297011362 0.059307791755580985
3 59 164 153 0.8687710664668419 0.5547018297011362 0.059307791755580985
3 154 247 165 0.8687710664668419 0.5547018297011362 0.059307791755580985
3 247 59 165 0.8687710664668419 0.5547018297011362 0.059307791755580985
3 146 153 104 0.8687710664668419 0.5547018297011362 0.059307791755580985
3 146 18 108 0.8687710664668419 0.5547018297011362 0.059307791755580985
3 146 145 18 0.8687710664668419 0.5547018297011362 0.059307791755580985
3 104 145 146 0.8687710664668419 0.5547018297011362 0.059307791755580985
3 108 147 146 0.8687710664668419 0.5547018297011362 0.059307791755580985
3 203 204 197 0.8687710664668419 0.5547018297011362 0.059307791755580985
3 203 234 204 0.8687710664668419 0.5547018297011362 0.059307791755580985
3 233 203 232 0.8687710664668419 0.5547018297011362 0.059307791755580985
3 132 234 233 0.8687710664668419 0.5547018297011362 0.059307791755580985
3 234 203 233 0.8687710664668419 0.5547018297011362 0.059307791755580985
3 130 129 273 0.8687710664668419 0.5547018297011362 0.059307791755580985
3 130 232 129 0.8687710664668419 0.5547018297011362 0.059307791755580985
3 130 273 274 0.8687710664668419 0.5547018297011362 0.059307791755580985
3 130 233 232 0.8687710664668419 0.5547018297011362 0.059307791755580985
3 128 129 231 0.8687710664668419 0.5547018297011362 0.059307791755580985
3 231 230 128 0.8687710664668419 0.5547018297011362 0.059307791755580985
3 128 230 42 0.8687710664668419 0.5547018297011362 0.059307791755580985
3 128 42 0 0.8687710664668419 0.5547018297011362 0.059307791755580985
3 0 129 128 0.8687710664668419 0.5547018297011362 0.059307791755580985
3 202 97 232 0.8687710664668419 0.5547018297011362 0.059307791755580985
3 202 203 196 0.8687710664668419 0.5547018297011362 0.059307791755580985
3 232 203 202 0.8687710664668419 0.5547018297011362 0.059307791755580985
3 202 196 117 0.8687710664668419 0.5547018297011362 0.059307791755580985
3 195 116 122 0.8687710664668419 0.5547018297011362 0.059307791755580985
3 195 266 116 0.8687710664668419 0.5547018297011362 0.059307791755580985
3 87 266 195 0.8687710664668419 0.5547018297011362 0.059307791755580985
3 241 242 279 0.8687710664668419 0.5547018297011362 0.059307791755580985
3 279 278 241 0.8687710664668419 0.5547018297011362 0.059307791755580985
3 241 278 240 0.8687710664668419 0.5547018297011362 0.059307791755580985
3 241 240 134 0.8687710664668419 0.5547018297011362 0.059307791755580985
3 280 242 243 0.8687710664668419 0.5547018297011362 0.059307791755580985
3 243 244 280 0.8687710664668419 0.5547018297011362 0.059307791755580985
3 134 100 135 0.8687710664668419 0.5547018297011362 0.059307791755580985
3 135 241 134 0.8687710664668419 0.5547018297011362 0.059307791755580985
3 239 277 238 0.8687710664668419 0.5547018297011362 0.059307791755580985
3 277 237 238 0.8687710664668419 0.5547018297011362 0.059307791755580985
3 3 239 238 0.8687710664668419 0.5547018297011362 0.059307791755580985
3 238 237 3 0.8687710664668419 0.5547018297011362 0.059307791755580985
3 189 271 190 0.8687710664668419 0.5547018297011362 0.059307791755580985
3 190 271 226 0.8687710664668419 0.5547018297011362 0.059307791755580985
3 183 182 228 0.8687710664668419 0.5547018297011362 0.059307791755580985
3 182 227 228 0.8687710664668419 0.5547018297011362 0.059307791755580985
3 228 227 272 0.8687710664668419 0.5547018297011362 0.059307791755580985
3 272 281 228 0.8687710664668419 0.5547018297011362 0.059307791755580985
3 281 282 228 0.8687710664668419 0.5547018297011362 0.059307791755580985
3 228 282 183 0.8687710664668419 0.5547018297011362 0.059307791755580985
3 259 77 260 0.8687710664668419 0.5547018297011362 0.059307791755580985
3 260 77 261 0.8687710664668419 0.5547018297011362 0.059307791755580985
3 176 259 260 0.8687710664668419 0.5547018297011362 0.059307791755580985
3 260 261 176 0.8687710664668419 0.5547018297011362 0.059307791755580985
3 78 26 27 0.8687710664668419 0.5547018297011362 0.059307791755580985
3 78 79 26 0.8687710664668419 0.5547018297011362 0.059307791755580985
3 222 221 84 0.8687710664668419 0.5547018297011362 0.059307791755580985
3 27 221 222 0.8687710664668419 0.5547018297011362 0.059307791755580985
3 117 196 268 0.8687710664668419 0.5547018297011362 0.059307791755580985
3 268 89 117 0.8687710664668419 0.5547018297011362 0.059307791755580985
3 197 269 268 0.8687710664668419 0.5547018297011362 0.059307791755580985
3 268 203 197 0.8687710664668419 0.5547018297011362 0.059307791755580985
3 196 203 268 0.8687710664668419 0.5547018297011362 0.059307791755580985
3 269 188 187 0.8687710664668419 0.5547018297011362 0.059307791755580985
3 188 84 187 0.8687710664668419 0.5547018297011362 0.059307791755580985
3 187 268 269 0.8687710664668419 0.5547018297011362 0.059307791755580985
3 122 116 194 0.8687710664668419 0.5547018297011362 0.059307791755580985
3 194 265 115 0.8687710664668419 0.5547018297011362 0.059307791755580985
3 116 266 194 0.8687710664668419 0.5547018297011362 0.059307791755580985
3 194 266 265 0.8687710664668419 0.5547018297011362 0.059307791755580985
3 194 126 122 0.8687710664668419 0.5547018297011362 0.059307791755580985
3 121 126 194 0.8687710664668419 0.5547018297011362 0.059307791755580985
3 194 115 121 0.8687710664668419 0.5547018297011362 0.059307791755580985
3 185 88 89 0.8687710664668419 0.5547018297011362 0.059307791755580985
3 30 87 184 0.8687710664668419 0.5547018297011362 0.059307791755580985
3 87 88 184 0.8687710664668419 0.5547018297011362 0.059307791755580985
3 88 185 184 0.8687710664668419 0.5547018297011362 0.059307791755580985
3 184 29 30 0.8687710664668419 0.5547018297011362 0.059307791755580985
3 184 185 29 0.8687710664668419 0.5547018297011362 0.059307791755580985
3 102 57 211 0.8687710664668419 0.5547018297011362 0.059307791755580985
3 211 212 102 0.8687710664668419 0.5547018297011362 0.059307791755580985
3 5 47 54 0.8687710664668419 0.5547018297011362 0.059307791755580985
3 47 55 54 0.8687710664668419 0.5547018297011362 0.059307791755580985
3 54 4 5 0.8687710664668419 0.5547018297011362 0.059307791755580985
3 54 55 4 0.8687710664668419 0.5547018297011362 0.059307791755580985
3 81 177 80 0.8687710664668419 0.5547018297011362 0.059307791755580985
3 26 79 80 0.8687710664668419 0.5547018297011362 0.059307791755580985
3 80 177 26 0.8687710664668419 0.5547018297011362 0.059307791755580985
3 76 179 180 0.8687710664668419 0.5547018297011362 0.059307791755580985
3 181 77 180 0.8687710664668419 0.5547018297011362 0.059307791755580985
3 180 77 76 0.8687710664668419 0.5547018297011362 0.059307791755580985
3 180 179 81 0.8687710664668419 0.5547018297011362 0.059307791755580985
3 180 227 181 0.8687710664668419 0.5547018297011362 0.059307791755580985
3 81 227 180 0.8687710664668419 0.5547018297011362 0.059307791755580985
3 75 74 178 0.8687710664668419 0.5547018297011362 0.059307791755580985
3 178 179 75 0.8687710664668419 0.5547018297011362 0.059307791755580985
3 178 74 25 0.8687710664668419 0.5547018297011362 0.059307791755580985
3 25 177 178 0.8687710664668419 0.5547018297011362 0.059307791755580985
3 178 177 81 0.8687710664668419 0.5547018297011362 0.059307791755580985
3 81 179 178 0.8687710664668419 0.5547018297011362 0.059307791755580985
3 249 167 156 0.8687710664668419 0.5547018297011362 0.059307791755580985
3 53 167 249 0.8687710664668419 0.5547018297011362 0.059307791755580985
3 156 141 249 0.8687710664668419 0.5547018297011362 0.059307791755580985
3 249 141 53 0.8687710664668419 0.5547018297011362 0.059307791755580985
3 156 167 107 0.8687710664668419 0.5547018297011362 0.059307791755580985
3 107 155 160 0.8687710664668419 0.5547018297011362 0.059307791755580985
3 107 167 61 0.8687710664668419 0.5547018297011362 0.059307791755580985
3 61 155 107 0.8687710664668419 0.5547018297011362 0.059307791755580985
3 53 141 140 0.8687710664668419 0.5547018297011362 0.059307791755580985
3 141 48 140 0.8687710664668419 0.5547018297011362 0.059307791755580985
3 140 48 8 0.8687710664668419 0.5547018297011362 0.059307791755580985
3 8 139 140 0.8687710664668419 0.5547018297011362 0.059307791755580985
3 140 139 53 0.8687710664668419 0.5547018297011362 0.059307791755580985
3 109 62 147 0.8687710664668419 0.5547018297011362 0.059307791755580985
3 109 19 62 0.8687710664668419 0.5547018297011362 0.059307791755580985
3 109 147 108 0.8687710664668419 0.5547018297011362 0.059307791755580985
3 108 19 109 0.8687710664668419 0.5547018297011362 0.059307791755580985
3 62 19 20 0.8687710664668419 0.5547018297011362 0.059307791755580985
3 21 213 20 0.8687710664668419 0.5547018297011362 0.059307791755580985
3 63 62 20 0.8687710664668419 0.5547018297011362 0.059307791755580985
3 20 213 63 0.8687710664668419 0.5547018297011362 0.059307791755580985
3 58 11 12 0.8687710664668419 0.5547018297011362 0.059307791755580985
3 58 164 11 0.8687710664668419 0.5547018297011362 0.059307791755580985
3 12 152 58 0.8687710664668419 0.5547018297011362 0.059307791755580985
3 152 164 58 0.8687710664668419 0.5547018297011362 0.059307791755580985
3 246 247 10 0.8687710664668419 0.5547018297011362 0.059307791755580985
3 246 59 247 0.8687710664668419 0.5547018297011362 0.059307791755580985
3 10 11 246 0.8687710664668419 0.5547018297011362 0.059307791755580985
3 11 164 246 0.8687710664668419 0.5547018297011362 0.059307791755580985
3 164 59 246 0.8687710664668419 0.5547018297011362 0.059307791755580985
3 105 59 153 0.8687710664668419 0.5547018297011362 0.059307791755580985
3 105 165 59 0.8687710664668419 0.5547018297011362 0.059307791755580985
3 153 146 105 0.8687710664668419 0.5547018297011362 0.059307791755580985
3 154 165 105 0.8687710664668419 0.5547018297011362 0.059307791755580985
3 105 147 154 0.8687710664668419 0.5547018297011362 0.059307791755580985
3 105 146 147 0.8687710664668419 0.5547018297011362 0.059307791755580985
3 131 130 274 0.8687710664668419 0.5547018297011362 0.059307791755580985
3 131 275 132 0.8687710664668419 0.5547018297011362 0.059307791755580985
3 274 275 131 0.8687710664668419 0.5547018297011362 0.059307791755580985
3 132 233 131 0.8687710664668419 0.5547018297011362 0.059307791755580985
3 233 130 131 0.8687710664668419 0.5547018297011362 0.059307791755580985
3 117 88 267 0.8687710664668419 0.5547018297011362 0.059307791755580985
3 267 195 117 0.8687710664668419 0.5547018297011362 0.059307791755580985
3 267 88 87 0.8687710664668419 0.5547018297011362 0.059307791755580985
3 87 195 267 0.8687710664668419 0.5547018297011362 0.059307791755580985
3 201 93 96 0.8687710664668419 0.5547018297011362 0.059307791755580985
3 201 96 231 0.8687710664668419 0.5547018297011362 0.059307791755580985
3 231 97 201 0.8687710664668419 0.5547018297011362 0.059307791755580985
3 201 202 117 0.8687710664668419 0.5547018297011362 0.059307791755580985
3 97 202 201 0.8687710664668419 0.5547018297011362 0.059307791755580985
3 223 78 27 0.8687710664668419 0.5547018297011362 0.059307791755580985
3 27 222 223 0.8687710664668419 0.5547018297011362 0.059307791755580985
3 85 84 188 0.8687710664668419 0.5547018297011362 0.059307791755580985
3 85 222 84 0.8687710664668419 0.5547018297011362 0.059307791755580985
3 85 223 222 0.8687710664668419 0.5547018297011362 0.059307791755580985
3 85 188 189 0.8687710664668419 0.5547018297011362 0.059307791755580985
3 189 223 85 0.8687710664668419 0.5547018297011362 0.059307791755580985
3 29 185 82 0.8687710664668419 0.5547018297011362 0.059307791755580985
3 28 29 82 0.8687710664668419 0.5547018297011362 0.059307791755580985
3 138 212 245 0.8687710664668419 0.5547018297011362 0.059307791755580985
3 138 102 212 0.8687710664668419 0.5547018297011362 0.059307791755580985
3 245 244 138 0.8687710664668419 0.5547018297011362 0.059307791755580985
3 244 243 138 0.8687710664668419 0.5547018297011362 0.059307791755580985
3 101 135 100 0.8687710664668419 0.5547018297011362 0.059307791755580985
3 101 100 57 0.8687710664668419 0.5547018297011362 0.059307791755580985
3 57 102 101 0.8687710664668419 0.5547018297011362 0.059307791755580985
3 111 160 64 0.8687710664668419 0.5547018297011362 0.059307791755580985
3 111 107 160 0.8687710664668419 0.5547018297011362 0.059307791755580985
3 93 201 127 0.8687710664668419 0.5547018297011362 0.059307791755580985
3 122 93 127 0.8687710664668419 0.5547018297011362 0.059307791755580985
3 127 195 122 0.8687710664668419 0.5547018297011362 0.059307791755580985
3 117 195 127 0.8687710664668419 0.5547018297011362 0.059307791755580985
3 127 201 117 0.8687710664668419 0.5547018297011362 0.059307791755580985
3 79 78 224 0.8687710664668419 0.5547018297011362 0.059307791755580985
3 78 223 224 0.8687710664668419 0.5547018297011362 0.059307791755580985
3 224 80 79 0.8687710664668419 0.5547018297011362 0.059307791755580985
3 189 190 224 0.8687710664668419 0.5547018297011362 0.059307791755580985
3 224 223 189 0.8687710664668419 0.5547018297011362 0.059307791755580985
3 89 268 186 0.8687710664668419 0.5547018297011362 0.059307791755580985
3 268 187 186 0.8687710664668419 0.5547018297011362 0.059307791755580985
3 186 185 89 0.8687710664668419 0.5547018297011362 0.059307791755580985
3 186 82 185 0.8687710664668419 0.5547018297011362 0.059307791755580985
3 135 101 136 0.8687710664668419 0.5547018297011362 0.059307791755580985
3 136 101 102 0.8687710664668419 0.5547018297011362 0.059307791755580985
3 242 241 136 0.8687710664668419 0.5547018297011362 0.059307791755580985
3 241 135 136 0.8687710664668419 0.5547018297011362 0.059307791755580985
3 137 243 242 0.8687710664668419 0.5547018297011362 0.059307791755580985
3 137 138 243 0.8687710664668419 0.5547018297011362 0.059307791755580985
3 242 136 137 0.8687710664668419 0.5547018297011362 0.059307791755580985
3 102 138 137 0.8687710664668419 0.5547018297011362 0.059307791755580985
3 137 136 102 0.8687710664668419 0.5547018297011362 0.059307791755580985
3 156 107 161 0.8687710664668419 0.5547018297011362 0.059307791755580985
3 107 111 161 0.8687710664668419 0.5547018297011362 0.059307791755580985
3 161 112 156 0.8687710664668419 0.5547018297011362 0.059307791755580985
3 65 112 161 0.8687710664668419 0.5547018297011362 0.059307791755580985
3 161 111 64 0.8687710664668419 0.5547018297011362 0.059307791755580985
3 161 214 65 0.8687710664668419 0.5547018297011362 0.059307791755580985
3 64 214 161 0.8687710664668419 0.5547018297011362 0.059307791755580985
3 80 224 225 0.8687710664668419 0.5547018297011362 0.059307791755580985
3 226 81 225 0.8687710664668419 0.5547018297011362 0.059307791755580985
3 81 80 225 0.8687710664668419 0.5547018297011362 0.059307791755580985
3 225 190 226 0.8687710664668419 0.5547018297011362 0.059307791755580985
3 225 224 190 0.8687710664668419 0.5547018297011362 0.059307791755580985
3 83 186 187 0.8687710664668419 0.5547018297011362 0.059307791755580985
3 82 186 83 0.8687710664668419 0.5547018297011362 0.059307791755580985
3 28 82 83 0.8687710664668419 0.5547018297011362 0.059307791755580985
3 83 84 28 0.8687710664668419 0.5547018297011362 0.059307791755580985
3 83 187 84 0.8687710664668419 0.5547018297011362 0.059307791755580985
3 295 294 329 0.8687710664668419 0.5547018297011362 0.059307791755580985
3 291 332 292 0.8687710664668419 0.5547018297011362 0.059307791755580985
3 328 295 329 0.8687710664668419 0.5547018297011362 0.059307791755580985
3 297 326 298 0.8687710664668419 0.5547018297011362 0.059307791755580985
3 329 294 330 0.8687710664668419 0.5547018297011362 0.059307791755580985
3 295 328 296 0.8687710664668419 0.5547018297011362 0.059307791755580985
3 293 330 294 0.8687710664668419 0.5547018297011362 0.059307791755580985
3 317 316 306 0.8687710664668419 0.5547018297011362 0.059307791755580985
3 322 324 323 0.8687710664668419 0.5547018297011362 0.059307791755580985
3 301 324 322 0.8687710664668419 0.5547018297011362 0.059307791755580985
3 303 319 304 0.8687710664668419 0.5547018297011362 0.059307791755580985
3 320 319 303 0.8687710664668419 0.5547018297011362 0.059307791755580985
3 327 326 297 0.8687710664668419 0.5547018297011362 0.059307791755580985
3 297 296 327 0.8687710664668419 0.5547018297011362 0.059307791755580985
3 327 296 328 0.8687710664668419 0.5547018297011362 0.059307791755580985
3 325 298 326 0.8687710664668419 0.5547018297011362 0.059307791755580985
3 335 334 337 0.8687710664668419 0.5547018297011362 0.059307791755580985
3 337 334 290 0.8687710664668419 0.5547018297011362 0.059307791755580985
3 291 290 333 0.8687710664668419 0.5547018297011362 0.059307791755580985
3 290 334 333 0.8687710664668419 0.5547018297011362 0.059307791755580985
3 333 332 291 0.8687710664668419 0.5547018297011362 0.059307791755580985
3 288 287 339 0.8687710664668419 0.5547018297011362 0.059307791755580985
3 330 293 331 0.8687710664668419 0.5547018297011362 0.059307791755580985
3 331 292 332 0.8687710664668419 0.5547018297011362 0.059307791755580985
3 331 293 292 0.8687710664668419 0.5547018297011362 0.059307791755580985
3 317 306 305 0.8687710664668419 0.5547018297011362 0.059307791755580985
3 301 322 321 0.8687710664668419 0.5547018297011362 0.059307791755580985
3 300 324 301 0.8687710664668419 0.5547018297011362 0.059307791755580985
3 300 325 324 0.8687710664668419 0.5547018297011362 0.059307791755580985
3 339 287 340 0.8687710664668419 0.5547018297011362 0.059307791755580985
3 287 341 340 0.8687710664668419 0.5547018297011362 0.059307791755580985
3 338 288 339 0.8687710664668419 0.5547018297011362 0.059307791755580985
3 308 314 313 0.8687710664668419 0.5547018297011362 0.059307791755580985
3 317 305 318 0.8687710664668419 0.5547018297011362 0.059307791755580985
3 304 319 318 0.8687710664668419 0.5547018297011362 0.059307791755580985
3 318 305 304 0.8687710664668419 0.5547018297011362 0.059307791755580985
3 320 303 302 0.8687710664668419 0.5547018297011362 0.059307791755580985
3 302 321 320 0.8687710664668419 0.5547018297011362 0.059307791755580985
3 301 321 302 0.8687710664668419 0.5547018297011362 0.059307791755580985
3 298 325 299 0.8687710664668419 0.5547018297011362 0.059307791755580985
3 325 300 299 0.8687710664668419 0.5547018297011362 0.059307791755580985
3 342 285 283 0.8687710664668419 0.5547018297011362 0.059307791755580985
3 286 341 287 0.8687710664668419 0.5547018297011362 0.059307791755580985
3 286 342 341 0.8687710664668419 0.5547018297011362 0.059307791755580985
3 285 342 286 0.8687710664668419 0.5547018297011362 0.059307791755580985
3 288 338 289 0.8687710664668419 0.5547018297011362 0.059307791755580985
3 289 337 290 0.8687710664668419 0.5547018297011362 0.059307791755580985
3 289 338 337 0.8687710664668419 0.5547018297011362 0.059307791755580985
3 308 313 309 0.8687710664668419 0.5547018297011362 0.059307791755580985
3 307 314 308 0.8687710664668419 0.5547018297011362 0.059307791755580985
3 307 315 314 0.8687710664668419 0.5547018297011362 0.059307791755580985
3 307 306 316 0.8687710664668419 0.5547018297011362 0.059307791755580985
3 316 315 307 0.8687710664668419 0.5547018297011362 0.059307791755580985
3 310 309 312 0.8687710664668419 0.5547018297011362 0.059307791755580985
3 312 309 313 0.8687710664668419 0.5547018297011362 0.059307791755580985
3 354 363 355 0.8687710664668419 0.5547018297011362 0.059307791755580985
3 353 362 354 0.8687710664668419 0.5547018297011362 0.059307791755580985
3 354 362 363 0.8687710664668419 0.5547018297011362 0.059307791755580985
3 355 363 356 0.8687710664668419 0.5547018297011362 0.059307791755580985
3 356 363 357 0.8687710664668419 0.5547018297011362 0.059307791755580985
3 365 362 353 0.8687710664668419 0.5547018297011362 0.059307791755580985
3 350 349 360 0.8687710664668419 0.5547018297011362 0.059307791755580985
3 360 352 350 0.8687710664668419 0.5547018297011362 0.059307791755580985
3 361 365 353 0.8687710664668419 0.5547018297011362 0.059307791755580985
3 353 352 361 0.8687710664668419 0.5547018297011362 0.059307791755580985
3 361 360 349 0.8687710664668419 0.5547018297011362 0.059307791755580985
3 352 360 361 0.8687710664668419 0.5547018297011362 0.059307791755580985
3 362 365 364 0.8687710664668419 0.5547018297011362 0.059307791755580985
3 357 363 364 0.8687710664668419 0.5547018297011362 0.059307791755580985
3 363 362 364 0.8687710664668419 0.5547018297011362 0.059307791755580985
3 364 346 357 0.8687710664668419 0.5547018297011362 0.059307791755580985
3 344 346 364 0.8687710664668419 0.5547018297011362 0.059307791755580985
3 359 361 349 0.8687710664668419 0.5547018297011362 0.059307791755580985
3 365 361 359 0.8687710664668419 0.5547018297011362 0.059307791755580985
3 359 349 344 0.8687710664668419 0.5547018297011362 0.059307791755580985
3 358 364 365 0.8687710664668419 0.5547018297011362 0.059307791755580985
3 365 359 358 0.8687710664668419 0.5547018297011362 0.059307791755580985
3 344 364 358 0.8687710664668419 0.5547018297011362 0.059307791755580985
3 358 359 344 0.8687710664668419 0.5547018297011362 0.059307791755580985
3 374 423 422 0.8687710664668419 0.5547018297011362 0.059307791755580985
3 397 382 381 0.8687710664668419 0.5547018297011362 0.059307791755580985
3 434 371 369 0.8687710664668419 0.5547018297011362 0.059307791755580985
3 438 423 374 0.8687710664668419 0.5547018297011362 0.059307791755580985
3 374 421 438 0.8687710664668419 0.5547018297011362 0.059307791755580985
3 466 421 465 0.8687710664668419 0.5547018297011362 0.059307791755580985
3 440 421 466 0.8687710664668419 0.5547018297011362 0.059307791755580985
3 467 377 376 0.8687710664668419 0.5547018297011362 0.059307791755580985
3 374 422 376 0.8687710664668419 0.5547018297011362 0.059307791755580985
3 467 376 468 0.8687710664668419 0.5547018297011362 0.059307791755580985
3 468 376 422 0.8687710664668419 0.5547018297011362 0.059307791755580985
3 472 397 396 0.8687710664668419 0.5547018297011362 0.059307791755580985
3 382 397 472 0.8687710664668419 0.5547018297011362 0.059307791755580985
3 415 416 435 0.8687710664668419 0.5547018297011362 0.059307791755580985
3 435 416 371 0.8687710664668419 0.5547018297011362 0.059307791755580985
3 413 434 369 0.8687710664668419 0.5547018297011362 0.059307791755580985
3 369 368 413 0.8687710664668419 0.5547018297011362 0.059307791755580985
3 391 390 454 0.8687710664668419 0.5547018297011362 0.059307791755580985
3 424 470 423 0.8687710664668419 0.5547018297011362 0.059307791755580985
3 424 471 470 0.8687710664668419 0.5547018297011362 0.059307791755580985
3 441 466 502 0.8687710664668419 0.5547018297011362 0.059307791755580985
3 440 466 441 0.8687710664668419 0.5547018297011362 0.059307791755580985
3 502 471 441 0.8687710664668419 0.5547018297011362 0.059307791755580985
3 441 424 440 0.8687710664668419 0.5547018297011362 0.059307791755580985
3 471 424 441 0.8687710664668419 0.5547018297011362 0.059307791755580985
3 467 468 444 0.8687710664668419 0.5547018297011362 0.059307791755580985
3 423 470 469 0.8687710664668419 0.5547018297011362 0.059307791755580985
3 469 422 423 0.8687710664668419 0.5547018297011362 0.059307791755580985
3 469 468 422 0.8687710664668419 0.5547018297011362 0.059307791755580985
3 405 387 386 0.8687710664668419 0.5547018297011362 0.059307791755580985
3 382 472 492 0.8687710664668419 0.5547018297011362 0.059307791755580985
3 492 472 396 0.8687710664668419 0.5547018297011362 0.059307791755580985
3 379 474 401 0.8687710664668419 0.5547018297011362 0.059307791755580985
3 474 493 401 0.8687710664668419 0.5547018297011362 0.059307791755580985
3 437 501 464 0.8687710664668419 0.5547018297011362 0.059307791755580985
3 464 501 465 0.8687710664668419 0.5547018297011362 0.059307791755580985
3 371 434 414 0.8687710664668419 0.5547018297011362 0.059307791755580985
3 414 435 371 0.8687710664668419 0.5547018297011362 0.059307791755580985
3 394 413 458 0.8687710664668419 0.5547018297011362 0.059307791755580985
3 458 413 368 0.8687710664668419 0.5547018297011362 0.059307791755580985
3 366 394 458 0.8687710664668419 0.5547018297011362 0.059307791755580985
3 458 368 366 0.8687710664668419 0.5547018297011362 0.059307791755580985
3 418 461 437 0.8687710664668419 0.5547018297011362 0.059307791755580985
3 437 464 418 0.8687710664668419 0.5547018297011362 0.059307791755580985
3 416 417 372 0.8687710664668419 0.5547018297011362 0.059307791755580985
3 371 416 372 0.8687710664668419 0.5547018297011362 0.059307791755580985
3 415 488 430 0.8687710664668419 0.5547018297011362 0.059307791755580985
3 411 392 391 0.8687710664668419 0.5547018297011362 0.059307791755580985
3 411 488 392 0.8687710664668419 0.5547018297011362 0.059307791755580985
3 411 430 488 0.8687710664668419 0.5547018297011362 0.059307791755580985
3 391 461 411 0.8687710664668419 0.5547018297011362 0.059307791755580985
3 461 430 411 0.8687710664668419 0.5547018297011362 0.059307791755580985
3 490 501 437 0.8687710664668419 0.5547018297011362 0.059307791755580985
3 437 454 490 0.8687710664668419 0.5547018297011362 0.059307791755580985
3 412 461 391 0.8687710664668419 0.5547018297011362 0.059307791755580985
3 391 454 412 0.8687710664668419 0.5547018297011362 0.059307791755580985
3 452 407 388 0.8687710664668419 0.5547018297011362 0.059307791755580985
3 440 424 439 0.8687710664668419 0.5547018297011362 0.059307791755580985
3 439 421 440 0.8687710664668419 0.5547018297011362 0.059307791755580985
3 439 438 421 0.8687710664668419 0.5547018297011362 0.059307791755580985
3 423 438 439 0.8687710664668419 0.5547018297011362 0.059307791755580985
3 439 424 423 0.8687710664668419 0.5547018297011362 0.059307791755580985
3 486 408 502 0.8687710664668419 0.5547018297011362 0.059307791755580985
3 486 485 408 0.8687710664668419 0.5547018297011362 0.059307791755580985
3 502 466 486 0.8687710664668419 0.5547018297011362 0.059307791755580985
3 466 485 486 0.8687710664668419 0.5547018297011362 0.059307791755580985
3 399 378 377 0.8687710664668419 0.5547018297011362 0.059307791755580985
3 399 443 378 0.8687710664668419 0.5547018297011362 0.059307791755580985
3 378 443 494 0.8687710664668419 0.5547018297011362 0.059307791755580985
3 446 473 493 0.8687710664668419 0.5547018297011362 0.059307791755580985
3 384 383 446 0.8687710664668419 0.5547018297011362 0.059307791755580985
3 383 473 446 0.8687710664668419 0.5547018297011362 0.059307791755580985
3 425 383 382 0.8687710664668419 0.5547018297011362 0.059307791755580985
3 382 492 425 0.8687710664668419 0.5547018297011362 0.059307791755580985
3 425 473 383 0.8687710664668419 0.5547018297011362 0.059307791755580985
3 425 492 473 0.8687710664668419 0.5547018297011362 0.059307791755580985
3 380 492 396 0.8687710664668419 0.5547018297011362 0.059307791755580985
3 379 401 380 0.8687710664668419 0.5547018297011362 0.059307791755580985
3 473 492 380 0.8687710664668419 0.5547018297011362 0.059307791755580985
3 493 473 380 0.8687710664668419 0.5547018297011362 0.059307791755580985
3 380 401 493 0.8687710664668419 0.5547018297011362 0.059307791755580985
3 374 373 419 0.8687710664668419 0.5547018297011362 0.059307791755580985
3 428 394 393 0.8687710664668419 0.5547018297011362 0.059307791755580985
3 434 413 498 0.8687710664668419 0.5547018297011362 0.059307791755580985
3 498 414 434 0.8687710664668419 0.5547018297011362 0.059307791755580985
3 498 413 394 0.8687710664668419 0.5547018297011362 0.059307791755580985
3 394 428 498 0.8687710664668419 0.5547018297011362 0.059307791755580985
3 393 414 498 0.8687710664668419 0.5547018297011362 0.059307791755580985
3 498 428 393 0.8687710664668419 0.5547018297011362 0.059307791755580985
3 429 414 393 0.8687710664668419 0.5547018297011362 0.059307791755580985
3 461 418 436 0.8687710664668419 0.5547018297011362 0.059307791755580985
3 436 418 417 0.8687710664668419 0.5547018297011362 0.059307791755580985
3 415 430 436 0.8687710664668419 0.5547018297011362 0.059307791755580985
3 436 430 461 0.8687710664668419 0.5547018297011362 0.059307791755580985
3 436 416 415 0.8687710664668419 0.5547018297011362 0.059307791755580985
3 436 417 416 0.8687710664668419 0.5547018297011362 0.059307791755580985
3 417 418 462 0.8687710664668419 0.5547018297011362 0.059307791755580985
3 373 372 462 0.8687710664668419 0.5547018297011362 0.059307791755580985
3 462 372 417 0.8687710664668419 0.5547018297011362 0.059307791755580985
3 484 485 466 0.8687710664668419 0.5547018297011362 0.059307791755580985
3 408 485 484 0.8687710664668419 0.5547018297011362 0.059307791755580985
3 455 454 390 0.8687710664668419 0.5547018297011362 0.059307791755580985
3 455 490 454 0.8687710664668419 0.5547018297011362 0.059307791755580985
3 390 409 455 0.8687710664668419 0.5547018297011362 0.059307791755580985
3 437 461 489 0.8687710664668419 0.5547018297011362 0.059307791755580985
3 461 412 489 0.8687710664668419 0.5547018297011362 0.059307791755580985
3 489 454 437 0.8687710664668419 0.5547018297011362 0.059307791755580985
3 489 412 454 0.8687710664668419 0.5547018297011362 0.059307791755580985
3 470 471 481 0.8687710664668419 0.5547018297011362 0.059307791755580985
3 408 407 453 0.8687710664668419 0.5547018297011362 0.059307791755580985
3 407 452 453 0.8687710664668419 0.5547018297011362 0.059307791755580985
3 452 481 453 0.8687710664668419 0.5547018297011362 0.059307791755580985
3 502 408 453 0.8687710664668419 0.5547018297011362 0.059307791755580985
3 453 471 502 0.8687710664668419 0.5547018297011362 0.059307791755580985
3 453 481 471 0.8687710664668419 0.5547018297011362 0.059307791755580985
3 451 452 388 0.8687710664668419 0.5547018297011362 0.059307791755580985
3 496 469 470 0.8687710664668419 0.5547018297011362 0.059307791755580985
3 470 481 496 0.8687710664668419 0.5547018297011362 0.059307791755580985
3 406 387 405 0.8687710664668419 0.5547018297011362 0.059307791755580985
3 468 469 445 0.8687710664668419 0.5547018297011362 0.059307791755580985
3 445 476 449 0.8687710664668419 0.5547018297011362 0.059307791755580985
3 469 496 445 0.8687710664668419 0.5547018297011362 0.059307791755580985
3 445 496 476 0.8687710664668419 0.5547018297011362 0.059307791755580985
3 445 444 468 0.8687710664668419 0.5547018297011362 0.059307791755580985
3 445 449 444 0.8687710664668419 0.5547018297011362 0.059307791755580985
3 443 399 400 0.8687710664668419 0.5547018297011362 0.059307791755580985
3 400 399 377 0.8687710664668419 0.5547018297011362 0.059307791755580985
3 400 377 467 0.8687710664668419 0.5547018297011362 0.059307791755580985
3 467 444 400 0.8687710664668419 0.5547018297011362 0.059307791755580985
3 405 386 478 0.8687710664668419 0.5547018297011362 0.059307791755580985
3 478 449 405 0.8687710664668419 0.5547018297011362 0.059307791755580985
3 448 475 478 0.8687710664668419 0.5547018297011362 0.059307791755580985
3 478 477 448 0.8687710664668419 0.5547018297011362 0.059307791755580985
3 386 477 478 0.8687710664668419 0.5547018297011362 0.059307791755580985
3 379 378 442 0.8687710664668419 0.5547018297011362 0.059307791755580985
3 443 475 427 0.8687710664668419 0.5547018297011362 0.059307791755580985
3 427 494 443 0.8687710664668419 0.5547018297011362 0.059307791755580985
3 426 493 474 0.8687710664668419 0.5547018297011362 0.059307791755580985
3 426 446 493 0.8687710664668419 0.5547018297011362 0.059307791755580985
3 426 474 384 0.8687710664668419 0.5547018297011362 0.059307791755580985
3 384 446 426 0.8687710664668419 0.5547018297011362 0.059307791755580985
3 420 419 464 0.8687710664668419 0.5547018297011362 0.059307791755580985
3 465 421 420 0.8687710664668419 0.5547018297011362 0.059307791755580985
3 420 464 465 0.8687710664668419 0.5547018297011362 0.059307791755580985
3 420 421 374 0.8687710664668419 0.5547018297011362 0.059307791755580985
3 374 419 420 0.8687710664668419 0.5547018297011362 0.059307791755580985
3 393 392 487 0.8687710664668419 0.5547018297011362 0.059307791755580985
3 487 429 393 0.8687710664668419 0.5547018297011362 0.059307791755580985
3 435 414 499 0.8687710664668419 0.5547018297011362 0.059307791755580985
3 414 429 499 0.8687710664668419 0.5547018297011362 0.059307791755580985
3 415 435 499 0.8687710664668419 0.5547018297011362 0.059307791755580985
3 429 487 499 0.8687710664668419 0.5547018297011362 0.059307791755580985
3 499 487 392 0.8687710664668419 0.5547018297011362 0.059307791755580985
3 499 488 415 0.8687710664668419 0.5547018297011362 0.059307791755580985
3 392 488 499 0.8687710664668419 0.5547018297011362 0.059307791755580985
3 373 462 463 0.8687710664668419 0.5547018297011362 0.059307791755580985
3 463 462 418 0.8687710664668419 0.5547018297011362 0.059307791755580985
3 463 419 373 0.8687710664668419 0.5547018297011362 0.059307791755580985
3 463 418 464 0.8687710664668419 0.5547018297011362 0.059307791755580985
3 464 419 463 0.8687710664668419 0.5547018297011362 0.059307791755580985
3 491 484 466 0.8687710664668419 0.5547018297011362 0.059307791755580985
3 491 466 465 0.8687710664668419 0.5547018297011362 0.059307791755580985
3 465 501 491 0.8687710664668419 0.5547018297011362 0.059307791755580985
3 501 457 491 0.8687710664668419 0.5547018297011362 0.059307791755580985
3 456 457 501 0.8687710664668419 0.5547018297011362 0.059307791755580985
3 501 490 456 0.8687710664668419 0.5547018297011362 0.059307791755580985
3 490 455 456 0.8687710664668419 0.5547018297011362 0.059307791755580985
3 456 455 409 0.8687710664668419 0.5547018297011362 0.059307791755580985
3 389 409 390 0.8687710664668419 0.5547018297011362 0.059307791755580985
3 452 451 480 0.8687710664668419 0.5547018297011362 0.059307791755580985
3 480 481 452 0.8687710664668419 0.5547018297011362 0.059307791755580985
3 480 496 481 0.8687710664668419 0.5547018297011362 0.059307791755580985
3 476 496 480 0.8687710664668419 0.5547018297011362 0.059307791755580985
3 480 406 476 0.8687710664668419 0.5547018297011362 0.059307791755580985
3 449 476 479 0.8687710664668419 0.5547018297011362 0.059307791755580985
3 476 406 479 0.8687710664668419 0.5547018297011362 0.059307791755580985
3 405 449 479 0.8687710664668419 0.5547018297011362 0.059307791755580985
3 479 406 405 0.8687710664668419 0.5547018297011362 0.059307791755580985
3 495 475 443 0.8687710664668419 0.5547018297011362 0.059307791755580985
3 443 400 495 0.8687710664668419 0.5547018297011362 0.059307791755580985
3 495 400 444 0.8687710664668419 0.5547018297011362 0.059307791755580985
3 495 478 475 0.8687710664668419 0.5547018297011362 0.059307791755580985
3 444 449 495 0.8687710664668419 0.5547018297011362 0.059307791755580985
3 449 478 495 0.8687710664668419 0.5547018297011362 0.059307791755580985
3 402 494 474 0.8687710664668419 0.5547018297011362 0.059307791755580985
3 402 474 379 0.8687710664668419 0.5547018297011362 0.059307791755580985
3 379 442 402 0.8687710664668419 0.5547018297011362 0.059307791755580985
3 378 494 402 0.8687710664668419 0.5547018297011362 0.059307791755580985
3 402 442 378 0.8687710664668419 0.5547018297011362 0.059307791755580985
3 448 477 404 0.8687710664668419 0.5547018297011362 0.059307791755580985
3 404 475 448 0.8687710664668419 0.5547018297011362 0.059307791755580985
3 404 427 475 0.8687710664668419 0.5547018297011362 0.059307791755580985
3 385 477 386 0.8687710664668419 0.5547018297011362 0.059307791755580985
3 385 404 477 0.8687710664668419 0.5547018297011362 0.059307791755580985
3 427 404 385 0.8687710664668419 0.5547018297011362 0.059307791755580985
3 483 491 457 0.8687710664668419 0.5547018297011362 0.059307791755580985
3 484 491 483 0.8687710664668419 0.5547018297011362 0.059307791755580985
3 483 407 408 0.8687710664668419 0.5547018297011362 0.059307791755580985
3 408 484 483 0.8687710664668419 0.5547018297011362 0.059307791755580985
3 388 407 483 0.8687710664668419 0.5547018297011362 0.059307791755580985
3 410 389 457 0.8687710664668419 0.5547018297011362 0.059307791755580985
3 409 389 410 0.8687710664668419 0.5547018297011362 0.059307791755580985
3 457 456 410 0.8687710664668419 0.5547018297011362 0.059307791755580985
3 410 456 409 0.8687710664668419 0.5547018297011362 0.059307791755580985
3 387 406 450 0.8687710664668419 0.5547018297011362 0.059307791755580985
3 406 480 450 0.8687710664668419 0.5547018297011362 0.059307791755580985
3 450 480 451 0.8687710664668419 0.5547018297011362 0.059307791755580985
3 388 387 450 0.8687710664668419 0.5547018297011362 0.059307791755580985
3 450 451 388 0.8687710664668419 0.5547018297011362 0.059307791755580985
3 427 385 403 0.8687710664668419 0.5547018297011362 0.059307791755580985
3 384 474 403 0.8687710664668419 0.5547018297011362 0.059307791755580985
3 403 385 384 0.8687710664668419 0.5547018297011362 0.059307791755580985
3 457 389 482 0.8687710664668419 0.5547018297011362 0.059307791755580985
3 482 483 457 0.8687710664668419 0.5547018297011362 0.059307791755580985
3 482 389 388 0.8687710664668419 0.5547018297011362 0.059307791755580985
3 388 483 482 0.8687710664668419 0.5547018297011362 0.059307791755580985
3 494 427 447 0.8687710664668419 0.5547018297011362 0.059307791755580985
3 427 403 447 0.8687710664668419 0.5547018297011362 0.059307791755580985
3 474 494 447 0.8687710664668419 0.5547018297011362 0.059307791755580985
3 447 403 474 0.8687710664668419 0.5547018297011362 0.059307791755580985
3 507 506 520 0.8687710664668419 0.5547018297011362 0.059307791755580985
3 536 506 504 0.8687710664668419 0.5547018297011362 0.059307791755580985
3 523 513 533 0.8687710664668419 0.5547018297011362 0.059307791755580985
3 509 508 528 0.8687710664668419 0.5547018297011362 0.059307791755580985
3 528 539 509 0.8687710664668419 0.5547018297011362 0.059307791755580985
3 528 533 539 0.8687710664668419 0.5547018297011362 0.059307791755580985
3 507 520 543 0.8687710664668419 0.5547018297011362 0.059307791755580985
3 543 520 524 0.8687710664668419 0.5547018297011362 0.059307791755580985
3 524 514 543 0.8687710664668419 0.5547018297011362 0.059307791755580985
3 526 508 507 0.8687710664668419 0.5547018297011362 0.059307791755580985
3 507 543 526 0.8687710664668419 0.5547018297011362 0.059307791755580985
3 526 543 514 0.8687710664668419 0.5547018297011362 0.059307791755580985
3 515 514 524 0.8687710664668419 0.5547018297011362 0.059307791755580985
3 506 536 515 0.8687710664668419 0.5547018297011362 0.059307791755580985
3 515 536 504 0.8687710664668419 0.5547018297011362 0.059307791755580985
3 515 520 506 0.8687710664668419 0.5547018297011362 0.059307791755580985
3 524 520 515 0.8687710664668419 0.5547018297011362 0.059307791755580985
3 529 528 508 0.8687710664668419 0.5547018297011362 0.059307791755580985
3 523 533 529 0.8687710664668419 0.5547018297011362 0.059307791755580985
3 533 528 529 0.8687710664668419 0.5547018297011362 0.059307791755580985
3 540 525 511 0.8687710664668419 0.5547018297011362 0.059307791755580985
3 540 511 510 0.8687710664668419 0.5547018297011362 0.059307791755580985
3 510 518 540 0.8687710664668419 0.5547018297011362 0.059307791755580985
3 540 518 517 0.8687710664668419 0.5547018297011362 0.059307791755580985
3 517 525 540 0.8687710664668419 0.5547018297011362 0.059307791755580985
3 517 509 538 0.8687710664668419 0.5547018297011362 0.059307791755580985
3 538 525 517 0.8687710664668419 0.5547018297011362 0.059307791755580985
3 509 539 538 0.8687710664668419 0.5547018297011362 0.059307791755580985
3 508 526 527 0.8687710664668419 0.5547018297011362 0.059307791755580985
3 545 535 523 0.8687710664668419 0.5547018297011362 0.059307791755580985
3 523 529 545 0.8687710664668419 0.5547018297011362 0.059307791755580985
3 539 533 532 0.8687710664668419 0.5547018297011362 0.059307791755580985
3 532 533 513 0.8687710664668419 0.5547018297011362 0.059307791755580985
3 513 512 532 0.8687710664668419 0.5547018297011362 0.059307791755580985
3 525 538 522 0.8687710664668419 0.5547018297011362 0.059307791755580985
3 511 525 522 0.8687710664668419 0.5547018297011362 0.059307791755580985
3 522 512 511 0.8687710664668419 0.5547018297011362 0.059307791755580985
3 534 526 514 0.8687710664668419 0.5547018297011362 0.059307791755580985
3 534 527 526 0.8687710664668419 0.5547018297011362 0.059307791755580985
3 535 527 534 0.8687710664668419 0.5547018297011362 0.059307791755580985
3 534 514 513 0.8687710664668419 0.5547018297011362 0.059307791755580985
3 534 513 523 0.8687710664668419 0.5547018297011362 0.059307791755580985
3 523 535 534 0.8687710664668419 0.5547018297011362 0.059307791755580985
3 521 529 508 0.8687710664668419 0.5547018297011362 0.059307791755580985
3 521 545 529 0.8687710664668419 0.5547018297011362 0.059307791755580985
3 508 527 521 0.8687710664668419 0.5547018297011362 0.059307791755580985
3 521 527 535 0.8687710664668419 0.5547018297011362 0.059307791755580985
3 535 545 521 0.8687710664668419 0.5547018297011362 0.059307791755580985
3 541 538 539 0.8687710664668419 0.5547018297011362 0.059307791755580985
3 539 532 541 0.8687710664668419 0.5547018297011362 0.059307791755580985
3 541 532 512 0.8687710664668419 0.5547018297011362 0.059307791755580985
3 541 522 538 0.8687710664668419 0.5547018297011362 0.059307791755580985
3 512 522 541 0.8687710664668419 0.5547018297011362 0.059307791755580985
