OFF
34 28 0


30.5803 34.5229 9.2024
30.5803 34.5229 9.2024
30.5797 34.5783 9.0514
30.5795 34.6182 8.9347
30.5795 34.6492 8.8378
30.5797 34.6749 8.7527
30.58 34.6973 8.6741
30.5803 34.7176 8.5986
30.5809 34.7367 8.5228
30.5815 34.7552 8.4437
30.5824 34.7738 8.3573
30.5836 34.7931 8.258
30.5854 34.8134 8.1367
30.5883 34.835 7.9752
30.585 34.8408 8.0648
30.5817 34.8466 8.1543
30.5785 34.8524 8.2439
30.5752 34.8582 8.3334
30.5719 34.864 8.423
30.5686 34.8697 8.5126
30.5654 34.8755 8.6021
30.5621 34.8813 8.6917
30.5588 34.8871 8.7813
30.5555 34.8929 8.8708
30.5523 34.8987 8.9604
30.549 34.9045 9.05
30.549 34.9045 9.05
30.5579 34.7956 9.0952
30.5642 34.7183 9.1277
30.5704 34.6411 9.1605
30.5792 34.5327 9.207
30.5792 34.5327 9.207
30.5797 34.5278 9.2047
30.5803 34.5229 9.2024
3 3 28 2 0.4476587240420711 0.3428630232319738 0.3578895902268928
3 4 24 3 0.4476587240420711 0.3428630232319738 0.3578895902268928
3 22 4 5 0.4476587240420711 0.3428630232319738 0.3578895902268928
3 3 24 27 0.4476587240420711 0.3428630232319738 0.3578895902268928
3 27 28 3 0.4476587240420711 0.3428630232319738 0.3578895902268928
3 27 24 25 0.4476587240420711 0.3428630232319738 0.3578895902268928
3 0 2 32 0.4476587240420711 0.3428630232319738 0.3578895902268928
3 32 2 31 0.4476587240420711 0.3428630232319738 0.3578895902268928
3 31 2 29 0.4476587240420711 0.3428630232319738 0.3578895902268928
3 29 2 28 0.4476587240420711 0.3428630232319738 0.3578895902268928
3 24 4 23 0.4476587240420711 0.3428630232319738 0.3578895902268928
3 4 22 23 0.4476587240420711 0.3428630232319738 0.3578895902268928
3 19 8 9 0.4476587240420711 0.3428630232319738 0.3578895902268928
3 21 22 5 0.4476587240420711 0.3428630232319738 0.3578895902268928
3 11 15 16 0.4476587240420711 0.3428630232319738 0.3578895902268928
3 11 17 10 0.4476587240420711 0.3428630232319738 0.3578895902268928
3 16 17 11 0.4476587240420711 0.3428630232319738 0.3578895902268928
3 10 17 18 0.4476587240420711 0.3428630232319738 0.3578895902268928
3 18 9 10 0.4476587240420711 0.3428630232319738 0.3578895902268928
3 19 9 18 0.4476587240420711 0.3428630232319738 0.3578895902268928
3 20 8 19 0.4476587240420711 0.3428630232319738 0.3578895902268928
3 12 14 15 0.4476587240420711 0.3428630232319738 0.3578895902268928
3 15 11 12 0.4476587240420711 0.3428630232319738 0.3578895902268928
3 13 14 12 0.4476587240420711 0.3428630232319738 0.3578895902268928
3 8 20 7 0.4476587240420711 0.3428630232319738 0.3578895902268928
3 7 20 21 0.4476587240420711 0.3428630232319738 0.3578895902268928
3 6 21 5 0.4476587240420711 0.3428630232319738 0.3578895902268928
3 6 7 21 0.4476587240420711 0.3428630232319738 0.3578895902268928
