OFF
61 91 0


28.6031 33.7202 12.3231
28.6031 33.7202 12.3231
28.5305 33.7716 12.4439
28.4753 33.8084 12.5315
28.4282 33.8384 12.6036
28.3841 33.8654 12.6693
28.339 33.8921 12.7347
28.2888 33.9207 12.8055
28.2272 33.9546 12.8902
28.1413 33.9997 13.0041
28.1331 33.9334 12.9194
28.1229 33.867 12.8351
28.1229 33.867 12.8351
28.2121 33.8367 12.7381
28.2781 33.8151 12.6669
28.3342 33.7974 12.6067
28.3875 33.781 12.5498
28.444 33.7643 12.4899
28.5111 33.7451 12.4191
28.6031 33.7202 12.3231
28.414 33.835 12.608
28.347 33.875 12.7061
28.3016 33.8175 12.6553
28.3833 33.7918 12.5676
28.4915 33.7844 12.4874
28.4519 33.7975 12.5314
28.3807 33.8552 12.6573
28.3774 33.845 12.6453
28.2645 33.9205 12.8205
28.3008 33.8876 12.7526
28.1958 33.9043 12.841
28.2562 33.8766 12.7655
28.2529 33.8335 12.7082
28.2929 33.8304 12.6787
28.4259 33.7791 12.5224
28.4077 33.7941 12.5551
28.5467 33.7451 12.3958
28.4894 33.7707 12.4695
28.4496 33.8123 12.5536
28.4236 33.8164 12.576
28.3973 33.8204 12.5985
28.3098 33.896 12.7585
28.3304 33.8718 12.7122
28.3507 33.848 12.6664
28.2024 33.9525 12.9026
28.2608 33.9078 12.8055
28.3167 33.8653 12.7119
28.1879 33.8556 12.7792
28.2508 33.8448 12.7251
28.3116 33.8345 12.6725
28.3433 33.8042 12.6104
28.3525 33.811 12.614
28.3616 33.8178 12.6177
28.4768 33.7644 12.4687
28.442 33.784 12.5189
28.4067 33.8041 12.5697
28.5467 33.7451 12.3958
28.4894 33.7707 12.4695
28.4308 33.7972 12.5445
28.3707 33.8246 12.6213
28.3707 33.8246 12.6213
3 10 44 9 0.5152222305846469 0.26888569724789124 0.4939270574504637
3 9 44 8 0.5152222305846469 0.26888569724789124 0.4939270574504637
3 43 5 21 0.5152222305846469 0.26888569724789124 0.4939270574504637
3 7 8 28 0.5152222305846469 0.26888569724789124 0.4939270574504637
3 28 45 7 0.5152222305846469 0.26888569724789124 0.4939270574504637
3 45 28 30 0.5152222305846469 0.26888569724789124 0.4939270574504637
3 30 10 11 0.5152222305846469 0.26888569724789124 0.4939270574504637
3 44 10 30 0.5152222305846469 0.26888569724789124 0.4939270574504637
3 30 8 44 0.5152222305846469 0.26888569724789124 0.4939270574504637
3 30 28 8 0.5152222305846469 0.26888569724789124 0.4939270574504637
3 7 41 6 0.5152222305846469 0.26888569724789124 0.4939270574504637
3 21 5 6 0.5152222305846469 0.26888569724789124 0.4939270574504637
3 40 20 59 0.5152222305846469 0.26888569724789124 0.4939270574504637
3 59 20 27 0.5152222305846469 0.26888569724789124 0.4939270574504637
3 27 43 59 0.5152222305846469 0.26888569724789124 0.4939270574504637
3 59 43 52 0.5152222305846469 0.26888569724789124 0.4939270574504637
3 52 40 59 0.5152222305846469 0.26888569724789124 0.4939270574504637
3 13 48 31 0.5152222305846469 0.26888569724789124 0.4939270574504637
3 36 18 0 0.5152222305846469 0.26888569724789124 0.4939270574504637
3 0 2 36 0.5152222305846469 0.26888569724789124 0.4939270574504637
3 36 2 18 0.5152222305846469 0.26888569724789124 0.4939270574504637
3 24 2 3 0.5152222305846469 0.26888569724789124 0.4939270574504637
3 35 58 55 0.5152222305846469 0.26888569724789124 0.4939270574504637
3 17 24 54 0.5152222305846469 0.26888569724789124 0.4939270574504637
3 46 49 43 0.5152222305846469 0.26888569724789124 0.4939270574504637
3 23 15 16 0.5152222305846469 0.26888569724789124 0.4939270574504637
3 55 40 23 0.5152222305846469 0.26888569724789124 0.4939270574504637
3 16 35 23 0.5152222305846469 0.26888569724789124 0.4939270574504637
3 23 35 55 0.5152222305846469 0.26888569724789124 0.4939270574504637
3 55 58 39 0.5152222305846469 0.26888569724789124 0.4939270574504637
3 39 40 55 0.5152222305846469 0.26888569724789124 0.4939270574504637
3 20 40 39 0.5152222305846469 0.26888569724789124 0.4939270574504637
3 39 4 20 0.5152222305846469 0.26888569724789124 0.4939270574504637
3 5 43 26 0.5152222305846469 0.26888569724789124 0.4939270574504637
3 43 27 26 0.5152222305846469 0.26888569724789124 0.4939270574504637
3 26 27 20 0.5152222305846469 0.26888569724789124 0.4939270574504637
3 20 4 26 0.5152222305846469 0.26888569724789124 0.4939270574504637
3 26 4 5 0.5152222305846469 0.26888569724789124 0.4939270574504637
3 32 13 14 0.5152222305846469 0.26888569724789124 0.4939270574504637
3 48 13 32 0.5152222305846469 0.26888569724789124 0.4939270574504637
3 32 46 48 0.5152222305846469 0.26888569724789124 0.4939270574504637
3 15 23 50 0.5152222305846469 0.26888569724789124 0.4939270574504637
3 43 49 22 0.5152222305846469 0.26888569724789124 0.4939270574504637
3 15 50 22 0.5152222305846469 0.26888569724789124 0.4939270574504637
3 14 15 22 0.5152222305846469 0.26888569724789124 0.4939270574504637
3 47 13 31 0.5152222305846469 0.26888569724789124 0.4939270574504637
3 31 45 47 0.5152222305846469 0.26888569724789124 0.4939270574504637
3 45 30 47 0.5152222305846469 0.26888569724789124 0.4939270574504637
3 47 30 11 0.5152222305846469 0.26888569724789124 0.4939270574504637
3 11 13 47 0.5152222305846469 0.26888569724789124 0.4939270574504637
3 53 17 18 0.5152222305846469 0.26888569724789124 0.4939270574504637
3 53 24 17 0.5152222305846469 0.26888569724789124 0.4939270574504637
3 58 54 25 0.5152222305846469 0.26888569724789124 0.4939270574504637
3 25 24 3 0.5152222305846469 0.26888569724789124 0.4939270574504637
3 25 54 24 0.5152222305846469 0.26888569724789124 0.4939270574504637
3 58 35 34 0.5152222305846469 0.26888569724789124 0.4939270574504637
3 34 54 58 0.5152222305846469 0.26888569724789124 0.4939270574504637
3 34 35 16 0.5152222305846469 0.26888569724789124 0.4939270574504637
3 16 17 34 0.5152222305846469 0.26888569724789124 0.4939270574504637
3 17 54 34 0.5152222305846469 0.26888569724789124 0.4939270574504637
3 29 6 41 0.5152222305846469 0.26888569724789124 0.4939270574504637
3 29 46 6 0.5152222305846469 0.26888569724789124 0.4939270574504637
3 29 45 31 0.5152222305846469 0.26888569724789124 0.4939270574504637
3 31 48 29 0.5152222305846469 0.26888569724789124 0.4939270574504637
3 48 46 29 0.5152222305846469 0.26888569724789124 0.4939270574504637
3 7 45 29 0.5152222305846469 0.26888569724789124 0.4939270574504637
3 29 41 7 0.5152222305846469 0.26888569724789124 0.4939270574504637
3 21 6 42 0.5152222305846469 0.26888569724789124 0.4939270574504637
3 6 46 42 0.5152222305846469 0.26888569724789124 0.4939270574504637
3 42 43 21 0.5152222305846469 0.26888569724789124 0.4939270574504637
3 42 46 43 0.5152222305846469 0.26888569724789124 0.4939270574504637
3 49 46 33 0.5152222305846469 0.26888569724789124 0.4939270574504637
3 46 32 33 0.5152222305846469 0.26888569724789124 0.4939270574504637
3 33 32 14 0.5152222305846469 0.26888569724789124 0.4939270574504637
3 14 22 33 0.5152222305846469 0.26888569724789124 0.4939270574504637
3 33 22 49 0.5152222305846469 0.26888569724789124 0.4939270574504637
3 51 52 43 0.5152222305846469 0.26888569724789124 0.4939270574504637
3 43 22 51 0.5152222305846469 0.26888569724789124 0.4939270574504637
3 51 22 50 0.5152222305846469 0.26888569724789124 0.4939270574504637
3 51 50 23 0.5152222305846469 0.26888569724789124 0.4939270574504637
3 40 52 51 0.5152222305846469 0.26888569724789124 0.4939270574504637
3 51 23 40 0.5152222305846469 0.26888569724789124 0.4939270574504637
3 2 24 37 0.5152222305846469 0.26888569724789124 0.4939270574504637
3 24 53 37 0.5152222305846469 0.26888569724789124 0.4939270574504637
3 18 2 37 0.5152222305846469 0.26888569724789124 0.4939270574504637
3 37 53 18 0.5152222305846469 0.26888569724789124 0.4939270574504637
3 38 39 58 0.5152222305846469 0.26888569724789124 0.4939270574504637
3 58 25 38 0.5152222305846469 0.26888569724789124 0.4939270574504637
3 38 25 3 0.5152222305846469 0.26888569724789124 0.4939270574504637
3 3 4 38 0.5152222305846469 0.26888569724789124 0.4939270574504637
3 4 39 38 0.5152222305846469 0.26888569724789124 0.4939270574504637
