OFF
36 30 0


26.8788 29.2068 11.1782
26.8788 29.2068 11.1782
26.9441 29.2696 11.1432
26.8524 29.2808 11.2075
26.8656 29.2438 11.1928
26.8788 29.2068 11.1782
26.8524 29.2808 11.2075
26.8524 29.2808 11.2075
26.8587 29.419 11.2242
26.8658 29.5396 11.2378
26.8735 29.6478 11.249
26.8819 29.7472 11.2585
26.8908 29.8407 11.2667
26.9006 29.9305 11.2737
26.9113 30.0185 11.2799
26.9231 30.1066 11.2852
26.9365 30.1965 11.2898
26.9519 30.2901 11.2936
26.9698 30.3893 11.2965
26.9911 30.4967 11.2983
27.0171 30.6153 11.2987
27.0494 30.749 11.297
27.0607 30.6208 11.2697
27.0681 30.5066 11.2473
27.0725 30.4029 11.2285
27.0747 30.3068 11.2123
27.0751 30.2161 11.1982
27.074 30.1289 11.1856
27.0717 30.0434 11.1742
27.068 29.958 11.1636
27.0631 29.871 11.1537
27.0567 29.7806 11.1443
27.0486 29.6846 11.1351
27.0385 29.5805 11.1262
27.0256 29.4647 11.1173
27.0092 29.3327 11.1084
3 2 6 4 0.7114918025810716 0.020658185396410733 0.9538806416148107
3 2 4 0 0.7114918025810716 0.020658185396410733 0.9538806416148107
3 12 31 30 0.7114918025810716 0.020658185396410733 0.9538806416148107
3 11 31 12 0.7114918025810716 0.020658185396410733 0.9538806416148107
3 33 9 34 0.7114918025810716 0.020658185396410733 0.9538806416148107
3 8 2 35 0.7114918025810716 0.020658185396410733 0.9538806416148107
3 6 2 8 0.7114918025810716 0.020658185396410733 0.9538806416148107
3 35 34 8 0.7114918025810716 0.020658185396410733 0.9538806416148107
3 34 9 8 0.7114918025810716 0.020658185396410733 0.9538806416148107
3 20 23 22 0.7114918025810716 0.020658185396410733 0.9538806416148107
3 20 22 21 0.7114918025810716 0.020658185396410733 0.9538806416148107
3 16 27 26 0.7114918025810716 0.020658185396410733 0.9538806416148107
3 9 33 10 0.7114918025810716 0.020658185396410733 0.9538806416148107
3 26 25 17 0.7114918025810716 0.020658185396410733 0.9538806416148107
3 17 16 26 0.7114918025810716 0.020658185396410733 0.9538806416148107
3 12 30 13 0.7114918025810716 0.020658185396410733 0.9538806416148107
3 30 29 13 0.7114918025810716 0.020658185396410733 0.9538806416148107
3 28 27 15 0.7114918025810716 0.020658185396410733 0.9538806416148107
3 27 16 15 0.7114918025810716 0.020658185396410733 0.9538806416148107
3 32 10 33 0.7114918025810716 0.020658185396410733 0.9538806416148107
3 31 11 32 0.7114918025810716 0.020658185396410733 0.9538806416148107
3 11 10 32 0.7114918025810716 0.020658185396410733 0.9538806416148107
3 18 25 24 0.7114918025810716 0.020658185396410733 0.9538806416148107
3 18 17 25 0.7114918025810716 0.020658185396410733 0.9538806416148107
3 28 15 14 0.7114918025810716 0.020658185396410733 0.9538806416148107
3 14 29 28 0.7114918025810716 0.020658185396410733 0.9538806416148107
3 14 13 29 0.7114918025810716 0.020658185396410733 0.9538806416148107
3 24 23 19 0.7114918025810716 0.020658185396410733 0.9538806416148107
3 19 18 24 0.7114918025810716 0.020658185396410733 0.9538806416148107
3 23 20 19 0.7114918025810716 0.020658185396410733 0.9538806416148107
