OFF
73 66 0


28.1236 32.0816 10.9723
28.1236 32.0816 10.9723
28.0458 32.1211 10.8559
27.9751 32.1575 10.7488
27.9101 32.1912 10.6494
27.85 32.2228 10.5563
27.7939 32.2527 10.4684
27.7413 32.2811 10.3848
27.6915 32.3083 10.3047
27.6441 32.3345 10.2275
27.5987 32.3599 10.1525
27.5549 32.3848 10.0794
27.5124 32.4092 10.0075
27.471 32.4334 9.9364
27.4303 32.4573 9.8658
27.3902 32.4813 9.7951
27.3504 32.5055 9.7241
27.3107 32.5299 9.6523
27.2707 32.5547 9.5792
27.2304 32.5802 9.5043
27.1894 32.6064 9.4272
27.1474 32.6335 9.3474
27.1042 32.6618 9.264
27.0594 32.6916 9.1765
27.0126 32.723 9.084
26.9633 32.7566 8.9853
26.911 32.7926 8.8794
26.855 32.8316 8.7645
26.7945 32.8743 8.639
26.723 32.8655 8.6641
26.6515 32.8567 8.6893
26.58 32.8479 8.7145
26.5085 32.839 8.7397
26.437 32.8302 8.7649
26.437 32.8302 8.7649
26.437 32.8302 8.7649
26.3297 32.8085 8.8277
26.2545 32.7939 8.8697
26.1865 32.7811 8.9064
26.11 32.7673 8.9463
25.9984 32.748 9.0019
26.1089 32.7268 9.065
26.2132 32.7062 9.1262
26.312 32.6861 9.1859
26.4061 32.6664 9.2445
26.4959 32.6469 9.3023
26.5821 32.6276 9.3596
26.665 32.6084 9.4166
26.7449 32.5892 9.4736
26.8223 32.5699 9.5308
26.8973 32.5504 9.5885
26.9701 32.5308 9.6467
27.0411 32.5108 9.7057
27.1103 32.4905 9.7657
27.1779 32.4699 9.8269
27.244 32.4487 9.8894
27.3089 32.4271 9.9534
27.3726 32.4049 10.019
27.4351 32.382 10.0865
27.4968 32.3585 10.156
27.5576 32.3342 10.2277
27.6178 32.309 10.3018
27.6774 32.283 10.3786
27.7366 32.2559 10.4583
27.7957 32.2278 10.5413
27.8548 32.1984 10.6278
27.9142 32.1677 10.7184
27.974 32.1354 10.8134
28.0346 32.1015 10.9134
28.0962 32.0655 11.0192
28.0962 32.0655 11.0192
28.1099 32.0736 10.9957
28.1236 32.0816 10.9723
3 0 68 71 0.06718079334334848 0.9383525512290506 0.13700791500594134
3 68 70 71 0.06718079334334848 0.9383525512290506 0.13700791500594134
3 2 68 0 0.06718079334334848 0.9383525512290506 0.13700791500594134
3 45 26 44 0.06718079334334848 0.9383525512290506 0.13700791500594134
3 47 48 23 0.06718079334334848 0.9383525512290506 0.13700791500594134
3 25 26 45 0.06718079334334848 0.9383525512290506 0.13700791500594134
3 45 46 25 0.06718079334334848 0.9383525512290506 0.13700791500594134
3 43 44 36 0.06718079334334848 0.9383525512290506 0.13700791500594134
3 21 49 50 0.06718079334334848 0.9383525512290506 0.13700791500594134
3 68 2 67 0.06718079334334848 0.9383525512290506 0.13700791500594134
3 2 3 67 0.06718079334334848 0.9383525512290506 0.13700791500594134
3 46 47 24 0.06718079334334848 0.9383525512290506 0.13700791500594134
3 24 25 46 0.06718079334334848 0.9383525512290506 0.13700791500594134
3 24 47 23 0.06718079334334848 0.9383525512290506 0.13700791500594134
3 37 42 43 0.06718079334334848 0.9383525512290506 0.13700791500594134
3 43 36 37 0.06718079334334848 0.9383525512290506 0.13700791500594134
3 29 27 28 0.06718079334334848 0.9383525512290506 0.13700791500594134
3 32 44 26 0.06718079334334848 0.9383525512290506 0.13700791500594134
3 11 58 59 0.06718079334334848 0.9383525512290506 0.13700791500594134
3 16 17 54 0.06718079334334848 0.9383525512290506 0.13700791500594134
3 12 58 11 0.06718079334334848 0.9383525512290506 0.13700791500594134
3 54 17 53 0.06718079334334848 0.9383525512290506 0.13700791500594134
3 49 21 22 0.06718079334334848 0.9383525512290506 0.13700791500594134
3 23 48 22 0.06718079334334848 0.9383525512290506 0.13700791500594134
3 48 49 22 0.06718079334334848 0.9383525512290506 0.13700791500594134
3 64 65 5 0.06718079334334848 0.9383525512290506 0.13700791500594134
3 5 6 64 0.06718079334334848 0.9383525512290506 0.13700791500594134
3 66 67 3 0.06718079334334848 0.9383525512290506 0.13700791500594134
3 5 65 4 0.06718079334334848 0.9383525512290506 0.13700791500594134
3 4 66 3 0.06718079334334848 0.9383525512290506 0.13700791500594134
3 65 66 4 0.06718079334334848 0.9383525512290506 0.13700791500594134
3 41 42 38 0.06718079334334848 0.9383525512290506 0.13700791500594134
3 42 37 38 0.06718079334334848 0.9383525512290506 0.13700791500594134
3 26 27 31 0.06718079334334848 0.9383525512290506 0.13700791500594134
3 31 32 26 0.06718079334334848 0.9383525512290506 0.13700791500594134
3 33 36 44 0.06718079334334848 0.9383525512290506 0.13700791500594134
3 44 32 33 0.06718079334334848 0.9383525512290506 0.13700791500594134
3 60 9 10 0.06718079334334848 0.9383525512290506 0.13700791500594134
3 11 59 10 0.06718079334334848 0.9383525512290506 0.13700791500594134
3 10 59 60 0.06718079334334848 0.9383525512290506 0.13700791500594134
3 19 51 52 0.06718079334334848 0.9383525512290506 0.13700791500594134
3 61 9 60 0.06718079334334848 0.9383525512290506 0.13700791500594134
3 15 56 14 0.06718079334334848 0.9383525512290506 0.13700791500594134
3 56 15 55 0.06718079334334848 0.9383525512290506 0.13700791500594134
3 55 16 54 0.06718079334334848 0.9383525512290506 0.13700791500594134
3 55 15 16 0.06718079334334848 0.9383525512290506 0.13700791500594134
3 14 56 13 0.06718079334334848 0.9383525512290506 0.13700791500594134
3 63 64 6 0.06718079334334848 0.9383525512290506 0.13700791500594134
3 63 7 62 0.06718079334334848 0.9383525512290506 0.13700791500594134
3 63 6 7 0.06718079334334848 0.9383525512290506 0.13700791500594134
3 40 41 39 0.06718079334334848 0.9383525512290506 0.13700791500594134
3 41 38 39 0.06718079334334848 0.9383525512290506 0.13700791500594134
3 27 29 30 0.06718079334334848 0.9383525512290506 0.13700791500594134
3 30 31 27 0.06718079334334848 0.9383525512290506 0.13700791500594134
3 18 19 52 0.06718079334334848 0.9383525512290506 0.13700791500594134
3 18 53 17 0.06718079334334848 0.9383525512290506 0.13700791500594134
3 52 53 18 0.06718079334334848 0.9383525512290506 0.13700791500594134
3 51 19 20 0.06718079334334848 0.9383525512290506 0.13700791500594134
3 20 21 50 0.06718079334334848 0.9383525512290506 0.13700791500594134
3 50 51 20 0.06718079334334848 0.9383525512290506 0.13700791500594134
3 62 7 8 0.06718079334334848 0.9383525512290506 0.13700791500594134
3 8 61 62 0.06718079334334848 0.9383525512290506 0.13700791500594134
3 9 61 8 0.06718079334334848 0.9383525512290506 0.13700791500594134
3 57 13 56 0.06718079334334848 0.9383525512290506 0.13700791500594134
3 58 12 57 0.06718079334334848 0.9383525512290506 0.13700791500594134
3 12 13 57 0.06718079334334848 0.9383525512290506 0.13700791500594134
