OFF
14 10 0


28.3077 31.9141 6.5231
28.3077 31.9141 6.5231
28.2999 31.9351 6.5236
28.2922 31.956 6.5242
28.3036 31.922 6.5332
28.3151 31.888 6.5421
28.3151 31.888 6.5421
28.3152 31.8878 6.5415
28.3154 31.8876 6.5409
28.3154 31.8876 6.5409
28.3115 31.9008 6.532
28.3077 31.9141 6.5231
28.3086 31.9102 6.5277
28.3095 31.9062 6.5324
3 3 4 2 0.024370194141269397 0.9569905885532209 0.4050794848198679
3 2 4 0 0.024370194141269397 0.9569905885532209 0.4050794848198679
3 6 13 4 0.024370194141269397 0.9569905885532209 0.4050794848198679
3 6 10 13 0.024370194141269397 0.9569905885532209 0.4050794848198679
3 0 4 12 0.024370194141269397 0.9569905885532209 0.4050794848198679
3 4 13 12 0.024370194141269397 0.9569905885532209 0.4050794848198679
3 12 10 0 0.024370194141269397 0.9569905885532209 0.4050794848198679
3 13 10 12 0.024370194141269397 0.9569905885532209 0.4050794848198679
3 8 10 7 0.024370194141269397 0.9569905885532209 0.4050794848198679
3 10 6 7 0.024370194141269397 0.9569905885532209 0.4050794848198679
