OFF
31 24 0


32.9148 32.2527 8.5997
32.9148 32.2527 8.5997
33.0005 32.2205 8.5921
32.9148 32.2527 8.5997
32.9148 32.2527 8.5997
32.8498 32.2552 8.6012
32.7848 32.2578 8.6026
32.7199 32.2603 8.6041
32.6549 32.2629 8.6056
32.6549 32.2629 8.6056
32.5174 32.2198 8.5991
32.4211 32.1904 8.5947
32.3247 32.1616 8.5905
32.1862 32.1216 8.5847
32.2488 31.9974 8.5594
32.2956 31.9019 8.5399
32.3352 31.8193 8.5231
32.3723 31.7404 8.507
32.4105 31.6571 8.4901
32.4539 31.56 8.4704
32.509 31.4326 8.4445
32.509 31.4326 8.4445
32.5915 31.558 8.4679
32.6549 31.6494 8.485
32.7086 31.724 8.4988
32.758 31.7903 8.5111
32.8067 31.8537 8.5229
32.858 31.9187 8.5349
32.9162 31.9903 8.5481
32.9879 32.0758 8.5639
33.0864 32.1888 8.5846
3 29 5 28 0.7062369201338123 0.6290881808469998 0.27423367425414347
3 17 23 24 0.7062369201338123 0.6290881808469998 0.27423367425414347
3 28 5 6 0.7062369201338123 0.6290881808469998 0.27423367425414347
3 5 29 4 0.7062369201338123 0.6290881808469998 0.27423367425414347
3 17 24 16 0.7062369201338123 0.6290881808469998 0.27423367425414347
3 26 27 10 0.7062369201338123 0.6290881808469998 0.27423367425414347
3 10 27 8 0.7062369201338123 0.6290881808469998 0.27423367425414347
3 15 16 10 0.7062369201338123 0.6290881808469998 0.27423367425414347
3 22 19 20 0.7062369201338123 0.6290881808469998 0.27423367425414347
3 18 23 17 0.7062369201338123 0.6290881808469998 0.27423367425414347
3 18 22 23 0.7062369201338123 0.6290881808469998 0.27423367425414347
3 19 22 18 0.7062369201338123 0.6290881808469998 0.27423367425414347
3 7 27 28 0.7062369201338123 0.6290881808469998 0.27423367425414347
3 28 6 7 0.7062369201338123 0.6290881808469998 0.27423367425414347
3 8 27 7 0.7062369201338123 0.6290881808469998 0.27423367425414347
3 2 29 30 0.7062369201338123 0.6290881808469998 0.27423367425414347
3 2 4 29 0.7062369201338123 0.6290881808469998 0.27423367425414347
3 25 16 24 0.7062369201338123 0.6290881808469998 0.27423367425414347
3 26 10 25 0.7062369201338123 0.6290881808469998 0.27423367425414347
3 25 10 16 0.7062369201338123 0.6290881808469998 0.27423367425414347
3 14 15 11 0.7062369201338123 0.6290881808469998 0.27423367425414347
3 15 10 11 0.7062369201338123 0.6290881808469998 0.27423367425414347
3 13 14 12 0.7062369201338123 0.6290881808469998 0.27423367425414347
3 14 11 12 0.7062369201338123 0.6290881808469998 0.27423367425414347
