OFF
285 507 0


28.4549 31.8721 12.1562
28.4549 31.8721 12.1562
28.5095 31.7878 12.2433
28.5595 31.7111 12.3198
28.6062 31.6401 12.3882
28.6505 31.5732 12.4504
28.6933 31.5092 12.5079
28.7352 31.447 12.5615
28.7769 31.3857 12.6124
28.8188 31.3244 12.6611
28.8616 31.2624 12.7083
28.9058 31.1988 12.7545
28.9522 31.1327 12.8002
29.0014 31.063 12.8458
29.0543 30.9887 12.8918
29.112 30.9084 12.9386
29.1759 30.8203 12.9865
29.2475 30.7222 13.0363
29.2475 30.7222 13.0363
29.315 30.7288 12.9213
29.3731 30.7312 12.8252
29.4251 30.7311 12.7412
29.4736 30.7291 12.6644
29.5206 30.7256 12.5913
29.568 30.7207 12.5188
29.6179 30.7141 12.4437
29.6726 30.7055 12.3625
29.7356 30.6939 12.2705
29.8119 30.6778 12.1607
29.8034 30.7222 12.0928
29.7942 30.7668 12.0251
29.7942 30.7668 12.0251
29.6906 30.8563 12.0466
29.5987 30.9353 12.0643
29.5155 31.0063 12.0793
29.4387 31.0715 12.092
29.3668 31.1323 12.103
29.2982 31.1899 12.1126
29.2318 31.2454 12.121
29.1667 31.2995 12.1284
29.1018 31.3531 12.1349
29.0362 31.407 12.1406
28.9689 31.4619 12.1456
28.8989 31.5188 12.1498
28.8251 31.5784 12.1532
28.7458 31.642 12.1558
28.6594 31.7108 12.1573
28.5635 31.7868 12.1576
28.4549 31.8721 12.1562
29.7083 30.7914 12.1381
29.6204 30.8547 12.1798
28.7789 31.4198 12.5448
28.8221 31.3926 12.5281
28.865 31.3653 12.5115
28.8519 31.3111 12.6341
28.885 31.2976 12.607
28.9182 31.284 12.5798
29.4323 30.7865 12.6339
29.3921 30.8419 12.6043
29.3526 30.8955 12.5754
29.5135 30.7812 12.5053
29.4608 30.8391 12.4924
29.4098 30.8946 12.4799
29.6017 30.7713 12.3689
29.5344 30.8331 12.3749
29.47 30.8916 12.3806
29.3368 31.1406 12.1411
29.3076 31.1486 12.1779
29.2793 31.1562 12.2137
29.2187 31.2397 12.1559
29.2059 31.2341 12.1901
29.1933 31.2285 12.2234
29.1044 31.3346 12.1678
29.1069 31.3165 12.2
29.1092 31.2986 12.2316
28.9876 31.4305 12.1773
29.0058 31.3997 12.2084
29.0235 31.3695 12.2387
28.8621 31.5325 12.1847
28.8978 31.4878 12.2152
28.9323 31.4442 12.2448
28.5912 31.7129 12.2652
28.6676 31.6419 12.2857
28.7398 31.5739 12.3052
28.8085 31.5083 12.3239
28.6696 31.588 12.391
28.7306 31.5372 12.3936
28.7896 31.4875 12.3962
28.8471 31.4386 12.3986
28.7429 31.4744 12.4968
28.7916 31.4399 12.4859
28.8395 31.4056 12.4751
28.8869 31.3714 12.4644
28.9292 31.199 12.7179
28.9526 31.1991 12.6811
28.9761 31.1991 12.644
28.9998 31.1989 12.6065
29.0149 31.0779 12.7993
29.0282 31.0927 12.7526
29.0415 31.1074 12.7057
29.0547 31.1221 12.6583
29.1142 30.9412 12.8804
29.116 30.9734 12.8227
29.1176 31.0053 12.7653
29.1188 31.0369 12.7077
29.3448 30.7872 12.7765
29.317 30.8415 12.7291
29.2894 30.8942 12.6826
29.2619 30.9459 12.6368
29.7161 30.7531 12.1962
29.6274 30.8219 12.2289
29.5446 30.8855 12.2591
29.4666 30.9446 12.2875
29.6138 30.9042 12.0966
29.5419 30.9487 12.1432
29.4739 30.9902 12.1871
29.4094 31.0291 12.2285
29.4654 31.0315 12.122
29.4173 31.0554 12.1628
29.3712 31.0782 12.2019
29.3266 31.0999 12.2395
28.7197 31.6467 12.1896
28.7768 31.5854 12.2204
28.8312 31.5263 12.2498
28.8832 31.4689 12.2782
28.5485 31.7825 12.1911
28.6344 31.6989 12.2233
28.7143 31.6201 12.2534
28.7893 31.545 12.2819
29.2346 30.7797 12.9629
29.2216 30.835 12.8918
29.2086 30.8885 12.8223
29.1952 30.9407 12.754
29.1815 30.9921 12.6861
28.6313 31.6485 12.3312
28.6995 31.5883 12.3421
28.7648 31.5299 12.3525
28.8277 31.473 12.3626
28.8886 31.417 12.3725
28.9481 31.3618 12.3821
28.8898 31.2558 12.6765
28.9181 31.2491 12.6445
28.9464 31.2422 12.6123
28.9749 31.2351 12.5798
29.0035 31.2278 12.5469
29.0325 31.2203 12.5136
29.0624 31.012 12.8398
29.0703 31.035 12.7878
29.078 31.0579 12.7357
29.0855 31.0807 12.6833
29.0928 31.1035 12.6305
29.1001 31.1264 12.5769
29.2939 30.785 12.8616
29.273 30.8393 12.8035
29.2521 30.8922 12.7466
29.2312 30.9439 12.6905
29.2101 30.9948 12.6348
29.1887 31.0452 12.5793
29.4729 30.7844 12.5692
29.4266 30.8408 12.5479
29.3813 30.8953 12.5272
29.337 30.9481 12.507
29.2934 30.9996 12.4872
29.2502 31.0499 12.4677
29.6539 30.7637 12.2896
29.5771 30.8285 12.3074
29.5045 30.8891 12.3242
29.4353 30.9462 12.34
29.3689 31.0005 12.3551
29.3047 31.0522 12.3695
29.5364 30.9708 12.1103
29.4772 31.0042 12.1537
29.4208 31.0358 12.195
29.3667 31.0656 12.2343
29.3147 31.094 12.272
29.2644 31.1212 12.3082
29.2769 31.191 12.1489
29.2561 31.192 12.1843
29.2358 31.1929 12.2188
29.2159 31.1937 12.2524
29.1963 31.1944 12.2853
29.1772 31.195 12.3175
29.0467 31.3822 12.1729
29.0569 31.3578 12.2044
29.0668 31.3338 12.2353
29.0765 31.3102 12.2656
29.0859 31.2869 12.2954
29.0951 31.2639 12.3247
28.7937 31.5876 12.1875
28.8394 31.535 12.218
28.8833 31.4841 12.2475
28.9257 31.4343 12.276
28.9667 31.3856 12.3038
29.0066 31.3377 12.331
28.7066 31.5302 12.4458
28.7612 31.488 12.4413
28.8145 31.4462 12.4368
28.8668 31.4048 12.4324
28.9184 31.3635 12.428
28.9694 31.3222 12.4236
29.0201 31.2807 12.4192
28.9707 31.14 12.7588
28.9892 31.1472 12.7171
29.0077 31.1543 12.6751
29.0263 31.1614 12.6327
29.0449 31.1684 12.5897
29.0637 31.1754 12.5461
29.0827 31.1824 12.5017
29.3902 30.7875 12.702
29.356 30.8422 12.6638
29.3223 30.8952 12.6265
29.289 30.9471 12.5898
29.2558 30.9979 12.5536
29.2225 31.0481 12.5178
29.1892 31.0977 12.482
29.6998 30.83 12.0803
29.6126 30.8876 12.131
29.5314 30.9406 12.178
29.4551 30.9898 12.2219
29.3829 31.0357 12.2631
29.314 31.079 12.3023
29.2478 31.1199 12.3396
29.1615 31.2873 12.1622
29.1563 31.2754 12.1953
29.1512 31.2637 12.2277
29.1462 31.2521 12.2595
29.1412 31.2407 12.2906
29.1362 31.2295 12.3213
29.1313 31.2184 12.3514
28.6387 31.7112 12.1909
28.7089 31.6397 12.2222
28.7751 31.5714 12.2519
28.838 31.5056 12.2802
28.8981 31.4419 12.3074
28.9561 31.3795 12.3339
29.0123 31.3181 12.3597
28.5485 31.7825 12.1911
28.6344 31.6989 12.2233
28.7143 31.6201 12.2534
28.7893 31.545 12.2819
28.8604 31.4726 12.309
28.9285 31.4023 12.3352
28.9943 31.3332 12.3606
29.0584 31.2648 12.3855
28.8151 31.3655 12.5903
28.8532 31.3453 12.5683
28.8911 31.3249 12.5462
28.929 31.3043 12.5241
28.967 31.2834 12.5018
29.0051 31.2623 12.4793
29.0435 31.2408 12.4566
29.0822 31.2189 12.4336
29.1711 30.8642 12.9214
29.1661 30.9071 12.8574
29.1609 30.949 12.7942
29.1553 30.9904 12.7313
29.1493 31.0314 12.6685
29.143 31.0723 12.6054
29.1363 31.1132 12.5416
29.1291 31.1546 12.4766
29.5558 30.777 12.4395
29.4963 30.8366 12.4355
29.4389 30.8934 12.4317
29.3833 30.9479 12.4279
29.3292 31.0004 12.4243
29.2762 31.0512 12.4207
29.2241 31.1007 12.4172
29.1726 31.149 12.4137
29.3993 31.0878 12.1322
29.3611 31.1033 12.1708
29.3242 31.1181 12.2081
29.2883 31.1324 12.2442
29.2534 31.1461 12.2792
29.2194 31.1594 12.3132
29.1861 31.1721 12.3463
29.1535 31.1845 12.3786
28.9264 31.4804 12.1813
28.953 31.4429 12.212
28.9789 31.4062 12.2419
29.004 31.3701 12.2711
29.0285 31.3346 12.2998
29.0524 31.2996 12.328
29.0758 31.265 12.3557
29.0988 31.2306 12.3831
29.1214 31.1965 12.4102
3 22 23 158 0.13658213082131854 0.7984143999226273 0.7254842149374755
3 5 6 194 0.13658213082131854 0.7984143999226273 0.7254842149374755
3 5 194 85 0.13658213082131854 0.7984143999226273 0.7254842149374755
3 5 85 4 0.13658213082131854 0.7984143999226273 0.7254842149374755
3 4 85 134 0.13658213082131854 0.7984143999226273 0.7254842149374755
3 105 20 21 0.13658213082131854 0.7984143999226273 0.7254842149374755
3 63 25 26 0.13658213082131854 0.7984143999226273 0.7254842149374755
3 114 33 170 0.13658213082131854 0.7984143999226273 0.7254842149374755
3 9 244 8 0.13658213082131854 0.7984143999226273 0.7254842149374755
3 284 267 275 0.13658213082131854 0.7984143999226273 0.7254842149374755
3 267 274 275 0.13658213082131854 0.7984143999226273 0.7254842149374755
3 275 228 284 0.13658213082131854 0.7984143999226273 0.7254842149374755
3 86 85 194 0.13658213082131854 0.7984143999226273 0.7254842149374755
3 134 85 135 0.13658213082131854 0.7984143999226273 0.7254842149374755
3 85 86 135 0.13658213082131854 0.7984143999226273 0.7254842149374755
3 136 83 135 0.13658213082131854 0.7984143999226273 0.7254842149374755
3 135 86 136 0.13658213082131854 0.7984143999226273 0.7254842149374755
3 129 16 17 0.13658213082131854 0.7984143999226273 0.7254842149374755
3 144 145 249 0.13658213082131854 0.7984143999226273 0.7254842149374755
3 284 228 283 0.13658213082131854 0.7984143999226273 0.7254842149374755
3 283 251 284 0.13658213082131854 0.7984143999226273 0.7254842149374755
3 13 97 12 0.13658213082131854 0.7984143999226273 0.7254842149374755
3 10 11 93 0.13658213082131854 0.7984143999226273 0.7254842149374755
3 263 167 168 0.13658213082131854 0.7984143999226273 0.7254842149374755
3 57 22 158 0.13658213082131854 0.7984143999226273 0.7254842149374755
3 266 274 267 0.13658213082131854 0.7984143999226273 0.7254842149374755
3 266 221 274 0.13658213082131854 0.7984143999226273 0.7254842149374755
3 170 33 34 0.13658213082131854 0.7984143999226273 0.7254842149374755
3 168 167 219 0.13658213082131854 0.7984143999226273 0.7254842149374755
3 31 49 29 0.13658213082131854 0.7984143999226273 0.7254842149374755
3 113 32 33 0.13658213082131854 0.7984143999226273 0.7254842149374755
3 33 114 113 0.13658213082131854 0.7984143999226273 0.7254842149374755
3 26 27 164 0.13658213082131854 0.7984143999226273 0.7254842149374755
3 164 63 26 0.13658213082131854 0.7984143999226273 0.7254842149374755
3 260 24 25 0.13658213082131854 0.7984143999226273 0.7254842149374755
3 25 63 260 0.13658213082131854 0.7984143999226273 0.7254842149374755
3 35 36 268 0.13658213082131854 0.7984143999226273 0.7254842149374755
3 171 114 170 0.13658213082131854 0.7984143999226273 0.7254842149374755
3 170 34 171 0.13658213082131854 0.7984143999226273 0.7254842149374755
3 114 171 217 0.13658213082131854 0.7984143999226273 0.7254842149374755
3 89 194 6 0.13658213082131854 0.7984143999226273 0.7254842149374755
3 245 52 244 0.13658213082131854 0.7984143999226273 0.7254842149374755
3 69 39 222 0.13658213082131854 0.7984143999226273 0.7254842149374755
3 220 221 169 0.13658213082131854 0.7984143999226273 0.7254842149374755
3 220 169 168 0.13658213082131854 0.7984143999226273 0.7254842149374755
3 168 219 220 0.13658213082131854 0.7984143999226273 0.7254842149374755
3 228 275 181 0.13658213082131854 0.7984143999226273 0.7254842149374755
3 181 275 274 0.13658213082131854 0.7984143999226273 0.7254842149374755
3 274 221 273 0.13658213082131854 0.7984143999226273 0.7254842149374755
3 273 181 274 0.13658213082131854 0.7984143999226273 0.7254842149374755
3 180 181 273 0.13658213082131854 0.7984143999226273 0.7254842149374755
3 45 46 121 0.13658213082131854 0.7984143999226273 0.7254842149374755
3 229 46 47 0.13658213082131854 0.7984143999226273 0.7254842149374755
3 229 121 46 0.13658213082131854 0.7984143999226273 0.7254842149374755
3 230 121 229 0.13658213082131854 0.7984143999226273 0.7254842149374755
3 3 4 134 0.13658213082131854 0.7984143999226273 0.7254842149374755
3 134 81 3 0.13658213082131854 0.7984143999226273 0.7254842149374755
3 238 135 83 0.13658213082131854 0.7984143999226273 0.7254842149374755
3 19 129 17 0.13658213082131854 0.7984143999226273 0.7254842149374755
3 129 19 152 0.13658213082131854 0.7984143999226273 0.7254842149374755
3 152 20 105 0.13658213082131854 0.7984143999226273 0.7254842149374755
3 152 19 20 0.13658213082131854 0.7984143999226273 0.7254842149374755
3 16 129 130 0.13658213082131854 0.7984143999226273 0.7254842149374755
3 129 152 130 0.13658213082131854 0.7984143999226273 0.7254842149374755
3 13 14 146 0.13658213082131854 0.7984143999226273 0.7254842149374755
3 147 97 146 0.13658213082131854 0.7984143999226273 0.7254842149374755
3 146 97 13 0.13658213082131854 0.7984143999226273 0.7254842149374755
3 16 130 252 0.13658213082131854 0.7984143999226273 0.7254842149374755
3 252 130 253 0.13658213082131854 0.7984143999226273 0.7254842149374755
3 102 101 253 0.13658213082131854 0.7984143999226273 0.7254842149374755
3 14 101 102 0.13658213082131854 0.7984143999226273 0.7254842149374755
3 102 146 14 0.13658213082131854 0.7984143999226273 0.7254842149374755
3 102 103 147 0.13658213082131854 0.7984143999226273 0.7254842149374755
3 147 146 102 0.13658213082131854 0.7984143999226273 0.7254842149374755
3 248 144 249 0.13658213082131854 0.7984143999226273 0.7254842149374755
3 250 200 249 0.13658213082131854 0.7984143999226273 0.7254842149374755
3 249 145 250 0.13658213082131854 0.7984143999226273 0.7254842149374755
3 145 207 250 0.13658213082131854 0.7984143999226273 0.7254842149374755
3 250 207 251 0.13658213082131854 0.7984143999226273 0.7254842149374755
3 199 139 198 0.13658213082131854 0.7984143999226273 0.7254842149374755
3 249 200 199 0.13658213082131854 0.7984143999226273 0.7254842149374755
3 199 248 249 0.13658213082131854 0.7984143999226273 0.7254842149374755
3 11 12 201 0.13658213082131854 0.7984143999226273 0.7254842149374755
3 201 93 11 0.13658213082131854 0.7984143999226273 0.7254842149374755
3 202 93 201 0.13658213082131854 0.7984143999226273 0.7254842149374755
3 201 12 97 0.13658213082131854 0.7984143999226273 0.7254842149374755
3 111 217 112 0.13658213082131854 0.7984143999226273 0.7254842149374755
3 112 217 218 0.13658213082131854 0.7984143999226273 0.7254842149374755
3 218 219 112 0.13658213082131854 0.7984143999226273 0.7254842149374755
3 112 219 167 0.13658213082131854 0.7984143999226273 0.7254842149374755
3 209 57 58 0.13658213082131854 0.7984143999226273 0.7254842149374755
3 208 21 22 0.13658213082131854 0.7984143999226273 0.7254842149374755
3 22 57 208 0.13658213082131854 0.7984143999226273 0.7254842149374755
3 208 57 209 0.13658213082131854 0.7984143999226273 0.7254842149374755
3 105 21 208 0.13658213082131854 0.7984143999226273 0.7254842149374755
3 214 266 267 0.13658213082131854 0.7984143999226273 0.7254842149374755
3 120 271 174 0.13658213082131854 0.7984143999226273 0.7254842149374755
3 32 113 215 0.13658213082131854 0.7984143999226273 0.7254842149374755
3 215 49 31 0.13658213082131854 0.7984143999226273 0.7254842149374755
3 31 32 215 0.13658213082131854 0.7984143999226273 0.7254842149374755
3 109 164 27 0.13658213082131854 0.7984143999226273 0.7254842149374755
3 109 27 28 0.13658213082131854 0.7984143999226273 0.7254842149374755
3 28 29 109 0.13658213082131854 0.7984143999226273 0.7254842149374755
3 109 29 49 0.13658213082131854 0.7984143999226273 0.7254842149374755
3 50 217 111 0.13658213082131854 0.7984143999226273 0.7254842149374755
3 49 215 50 0.13658213082131854 0.7984143999226273 0.7254842149374755
3 63 164 165 0.13658213082131854 0.7984143999226273 0.7254842149374755
3 117 34 35 0.13658213082131854 0.7984143999226273 0.7254842149374755
3 117 171 34 0.13658213082131854 0.7984143999226273 0.7254842149374755
3 218 217 115 0.13658213082131854 0.7984143999226273 0.7254842149374755
3 115 217 171 0.13658213082131854 0.7984143999226273 0.7254842149374755
3 90 89 51 0.13658213082131854 0.7984143999226273 0.7254842149374755
3 51 52 90 0.13658213082131854 0.7984143999226273 0.7254842149374755
3 51 8 244 0.13658213082131854 0.7984143999226273 0.7254842149374755
3 244 52 51 0.13658213082131854 0.7984143999226273 0.7254842149374755
3 195 86 194 0.13658213082131854 0.7984143999226273 0.7254842149374755
3 194 89 195 0.13658213082131854 0.7984143999226273 0.7254842149374755
3 195 89 90 0.13658213082131854 0.7984143999226273 0.7254842149374755
3 198 139 138 0.13658213082131854 0.7984143999226273 0.7254842149374755
3 138 139 241 0.13658213082131854 0.7984143999226273 0.7254842149374755
3 53 245 246 0.13658213082131854 0.7984143999226273 0.7254842149374755
3 52 245 53 0.13658213082131854 0.7984143999226273 0.7254842149374755
3 10 93 140 0.13658213082131854 0.7984143999226273 0.7254842149374755
3 54 244 9 0.13658213082131854 0.7984143999226273 0.7254842149374755
3 54 245 244 0.13658213082131854 0.7984143999226273 0.7254842149374755
3 9 10 54 0.13658213082131854 0.7984143999226273 0.7254842149374755
3 10 140 54 0.13658213082131854 0.7984143999226273 0.7254842149374755
3 39 69 38 0.13658213082131854 0.7984143999226273 0.7254842149374755
3 221 220 175 0.13658213082131854 0.7984143999226273 0.7254842149374755
3 272 273 175 0.13658213082131854 0.7984143999226273 0.7254842149374755
3 175 273 221 0.13658213082131854 0.7984143999226273 0.7254842149374755
3 175 220 174 0.13658213082131854 0.7984143999226273 0.7254842149374755
3 175 271 272 0.13658213082131854 0.7984143999226273 0.7254842149374755
3 174 271 175 0.13658213082131854 0.7984143999226273 0.7254842149374755
3 178 71 179 0.13658213082131854 0.7984143999226273 0.7254842149374755
3 179 71 180 0.13658213082131854 0.7984143999226273 0.7254842149374755
3 272 178 179 0.13658213082131854 0.7984143999226273 0.7254842149374755
3 179 273 272 0.13658213082131854 0.7984143999226273 0.7254842149374755
3 180 273 179 0.13658213082131854 0.7984143999226273 0.7254842149374755
3 70 71 178 0.13658213082131854 0.7984143999226273 0.7254842149374755
3 178 177 70 0.13658213082131854 0.7984143999226273 0.7254842149374755
3 70 177 69 0.13658213082131854 0.7984143999226273 0.7254842149374755
3 70 69 222 0.13658213082131854 0.7984143999226273 0.7254842149374755
3 236 229 47 0.13658213082131854 0.7984143999226273 0.7254842149374755
3 81 229 236 0.13658213082131854 0.7984143999226273 0.7254842149374755
3 236 47 0 0.13658213082131854 0.7984143999226273 0.7254842149374755
3 230 229 237 0.13658213082131854 0.7984143999226273 0.7254842149374755
3 237 229 81 0.13658213082131854 0.7984143999226273 0.7254842149374755
3 189 44 188 0.13658213082131854 0.7984143999226273 0.7254842149374755
3 188 44 45 0.13658213082131854 0.7984143999226273 0.7254842149374755
3 153 130 152 0.13658213082131854 0.7984143999226273 0.7254842149374755
3 153 152 105 0.13658213082131854 0.7984143999226273 0.7254842149374755
3 253 101 15 0.13658213082131854 0.7984143999226273 0.7254842149374755
3 15 252 253 0.13658213082131854 0.7984143999226273 0.7254842149374755
3 16 252 15 0.13658213082131854 0.7984143999226273 0.7254842149374755
3 15 101 14 0.13658213082131854 0.7984143999226273 0.7254842149374755
3 213 214 258 0.13658213082131854 0.7984143999226273 0.7254842149374755
3 258 157 213 0.13658213082131854 0.7984143999226273 0.7254842149374755
3 96 95 204 0.13658213082131854 0.7984143999226273 0.7254842149374755
3 203 204 95 0.13658213082131854 0.7984143999226273 0.7254842149374755
3 94 93 202 0.13658213082131854 0.7984143999226273 0.7254842149374755
3 202 203 94 0.13658213082131854 0.7984143999226273 0.7254842149374755
3 94 203 95 0.13658213082131854 0.7984143999226273 0.7254842149374755
3 94 95 141 0.13658213082131854 0.7984143999226273 0.7254842149374755
3 94 140 93 0.13658213082131854 0.7984143999226273 0.7254842149374755
3 141 140 94 0.13658213082131854 0.7984143999226273 0.7254842149374755
3 169 221 265 0.13658213082131854 0.7984143999226273 0.7254842149374755
3 221 266 265 0.13658213082131854 0.7984143999226273 0.7254842149374755
3 62 263 161 0.13658213082131854 0.7984143999226273 0.7254842149374755
3 159 57 158 0.13658213082131854 0.7984143999226273 0.7254842149374755
3 159 58 57 0.13658213082131854 0.7984143999226273 0.7254842149374755
3 158 61 159 0.13658213082131854 0.7984143999226273 0.7254842149374755
3 159 61 62 0.13658213082131854 0.7984143999226273 0.7254842149374755
3 59 161 211 0.13658213082131854 0.7984143999226273 0.7254842149374755
3 259 214 267 0.13658213082131854 0.7984143999226273 0.7254842149374755
3 259 267 284 0.13658213082131854 0.7984143999226273 0.7254842149374755
3 207 258 259 0.13658213082131854 0.7984143999226273 0.7254842149374755
3 259 258 214 0.13658213082131854 0.7984143999226273 0.7254842149374755
3 284 251 259 0.13658213082131854 0.7984143999226273 0.7254842149374755
3 251 207 259 0.13658213082131854 0.7984143999226273 0.7254842149374755
3 173 120 174 0.13658213082131854 0.7984143999226273 0.7254842149374755
3 174 220 173 0.13658213082131854 0.7984143999226273 0.7254842149374755
3 173 220 219 0.13658213082131854 0.7984143999226273 0.7254842149374755
3 119 120 173 0.13658213082131854 0.7984143999226273 0.7254842149374755
3 114 217 216 0.13658213082131854 0.7984143999226273 0.7254842149374755
3 217 50 216 0.13658213082131854 0.7984143999226273 0.7254842149374755
3 216 113 114 0.13658213082131854 0.7984143999226273 0.7254842149374755
3 216 215 113 0.13658213082131854 0.7984143999226273 0.7254842149374755
3 216 50 215 0.13658213082131854 0.7984143999226273 0.7254842149374755
3 110 165 164 0.13658213082131854 0.7984143999226273 0.7254842149374755
3 164 109 110 0.13658213082131854 0.7984143999226273 0.7254842149374755
3 110 50 111 0.13658213082131854 0.7984143999226273 0.7254842149374755
3 111 165 110 0.13658213082131854 0.7984143999226273 0.7254842149374755
3 110 109 49 0.13658213082131854 0.7984143999226273 0.7254842149374755
3 49 50 110 0.13658213082131854 0.7984143999226273 0.7254842149374755
3 60 61 158 0.13658213082131854 0.7984143999226273 0.7254842149374755
3 24 260 60 0.13658213082131854 0.7984143999226273 0.7254842149374755
3 158 23 60 0.13658213082131854 0.7984143999226273 0.7254842149374755
3 23 24 60 0.13658213082131854 0.7984143999226273 0.7254842149374755
3 35 268 118 0.13658213082131854 0.7984143999226273 0.7254842149374755
3 118 117 35 0.13658213082131854 0.7984143999226273 0.7254842149374755
3 171 117 118 0.13658213082131854 0.7984143999226273 0.7254842149374755
3 7 89 6 0.13658213082131854 0.7984143999226273 0.7254842149374755
3 7 51 89 0.13658213082131854 0.7984143999226273 0.7254842149374755
3 8 51 7 0.13658213082131854 0.7984143999226273 0.7254842149374755
3 196 195 90 0.13658213082131854 0.7984143999226273 0.7254842149374755
3 246 56 247 0.13658213082131854 0.7984143999226273 0.7254842149374755
3 247 53 246 0.13658213082131854 0.7984143999226273 0.7254842149374755
3 92 53 247 0.13658213082131854 0.7984143999226273 0.7254842149374755
3 198 92 247 0.13658213082131854 0.7984143999226273 0.7254842149374755
3 247 199 198 0.13658213082131854 0.7984143999226273 0.7254842149374755
3 248 199 247 0.13658213082131854 0.7984143999226273 0.7254842149374755
3 241 139 234 0.13658213082131854 0.7984143999226273 0.7254842149374755
3 77 278 279 0.13658213082131854 0.7984143999226273 0.7254842149374755
3 139 199 242 0.13658213082131854 0.7984143999226273 0.7254842149374755
3 242 234 139 0.13658213082131854 0.7984143999226273 0.7254842149374755
3 193 234 242 0.13658213082131854 0.7984143999226273 0.7254842149374755
3 2 236 0 0.13658213082131854 0.7984143999226273 0.7254842149374755
3 2 3 81 0.13658213082131854 0.7984143999226273 0.7254842149374755
3 81 236 2 0.13658213082131854 0.7984143999226273 0.7254842149374755
3 82 81 134 0.13658213082131854 0.7984143999226273 0.7254842149374755
3 82 237 81 0.13658213082131854 0.7984143999226273 0.7254842149374755
3 134 135 82 0.13658213082131854 0.7984143999226273 0.7254842149374755
3 135 238 82 0.13658213082131854 0.7984143999226273 0.7254842149374755
3 82 238 230 0.13658213082131854 0.7984143999226273 0.7254842149374755
3 230 237 82 0.13658213082131854 0.7984143999226273 0.7254842149374755
3 78 44 189 0.13658213082131854 0.7984143999226273 0.7254842149374755
3 78 43 44 0.13658213082131854 0.7984143999226273 0.7254842149374755
3 189 79 78 0.13658213082131854 0.7984143999226273 0.7254842149374755
3 78 79 43 0.13658213082131854 0.7984143999226273 0.7254842149374755
3 239 83 136 0.13658213082131854 0.7984143999226273 0.7254842149374755
3 136 84 239 0.13658213082131854 0.7984143999226273 0.7254842149374755
3 230 238 122 0.13658213082131854 0.7984143999226273 0.7254842149374755
3 122 121 230 0.13658213082131854 0.7984143999226273 0.7254842149374755
3 45 121 122 0.13658213082131854 0.7984143999226273 0.7254842149374755
3 122 188 45 0.13658213082131854 0.7984143999226273 0.7254842149374755
3 189 188 122 0.13658213082131854 0.7984143999226273 0.7254842149374755
3 106 107 154 0.13658213082131854 0.7984143999226273 0.7254842149374755
3 154 153 106 0.13658213082131854 0.7984143999226273 0.7254842149374755
3 106 153 105 0.13658213082131854 0.7984143999226273 0.7254842149374755
3 209 107 106 0.13658213082131854 0.7984143999226273 0.7254842149374755
3 105 208 106 0.13658213082131854 0.7984143999226273 0.7254842149374755
3 106 208 209 0.13658213082131854 0.7984143999226273 0.7254842149374755
3 213 157 212 0.13658213082131854 0.7984143999226273 0.7254842149374755
3 212 162 213 0.13658213082131854 0.7984143999226273 0.7254842149374755
3 211 161 212 0.13658213082131854 0.7984143999226273 0.7254842149374755
3 212 161 162 0.13658213082131854 0.7984143999226273 0.7254842149374755
3 103 102 254 0.13658213082131854 0.7984143999226273 0.7254842149374755
3 254 102 253 0.13658213082131854 0.7984143999226273 0.7254842149374755
3 154 132 131 0.13658213082131854 0.7984143999226273 0.7254842149374755
3 131 153 154 0.13658213082131854 0.7984143999226273 0.7254842149374755
3 131 254 253 0.13658213082131854 0.7984143999226273 0.7254842149374755
3 132 254 131 0.13658213082131854 0.7984143999226273 0.7254842149374755
3 253 130 131 0.13658213082131854 0.7984143999226273 0.7254842149374755
3 130 153 131 0.13658213082131854 0.7984143999226273 0.7254842149374755
3 156 157 256 0.13658213082131854 0.7984143999226273 0.7254842149374755
3 156 212 157 0.13658213082131854 0.7984143999226273 0.7254842149374755
3 204 203 100 0.13658213082131854 0.7984143999226273 0.7254842149374755
3 256 104 255 0.13658213082131854 0.7984143999226273 0.7254842149374755
3 255 104 103 0.13658213082131854 0.7984143999226273 0.7254842149374755
3 103 254 255 0.13658213082131854 0.7984143999226273 0.7254842149374755
3 255 254 132 0.13658213082131854 0.7984143999226273 0.7254842149374755
3 144 248 143 0.13658213082131854 0.7984143999226273 0.7254842149374755
3 96 144 143 0.13658213082131854 0.7984143999226273 0.7254842149374755
3 248 247 143 0.13658213082131854 0.7984143999226273 0.7254842149374755
3 143 247 56 0.13658213082131854 0.7984143999226273 0.7254842149374755
3 141 56 55 0.13658213082131854 0.7984143999226273 0.7254842149374755
3 55 140 141 0.13658213082131854 0.7984143999226273 0.7254842149374755
3 55 54 140 0.13658213082131854 0.7984143999226273 0.7254842149374755
3 245 54 55 0.13658213082131854 0.7984143999226273 0.7254842149374755
3 246 245 55 0.13658213082131854 0.7984143999226273 0.7254842149374755
3 55 56 246 0.13658213082131854 0.7984143999226273 0.7254842149374755
3 168 169 264 0.13658213082131854 0.7984143999226273 0.7254842149374755
3 169 265 264 0.13658213082131854 0.7984143999226273 0.7254842149374755
3 264 263 168 0.13658213082131854 0.7984143999226273 0.7254842149374755
3 264 265 162 0.13658213082131854 0.7984143999226273 0.7254842149374755
3 264 161 263 0.13658213082131854 0.7984143999226273 0.7254842149374755
3 162 161 264 0.13658213082131854 0.7984143999226273 0.7254842149374755
3 213 162 163 0.13658213082131854 0.7984143999226273 0.7254842149374755
3 162 265 163 0.13658213082131854 0.7984143999226273 0.7254842149374755
3 163 265 266 0.13658213082131854 0.7984143999226273 0.7254842149374755
3 163 214 213 0.13658213082131854 0.7984143999226273 0.7254842149374755
3 266 214 163 0.13658213082131854 0.7984143999226273 0.7254842149374755
3 210 107 209 0.13658213082131854 0.7984143999226273 0.7254842149374755
3 209 58 210 0.13658213082131854 0.7984143999226273 0.7254842149374755
3 58 59 210 0.13658213082131854 0.7984143999226273 0.7254842149374755
3 210 59 211 0.13658213082131854 0.7984143999226273 0.7254842149374755
3 58 159 160 0.13658213082131854 0.7984143999226273 0.7254842149374755
3 160 59 58 0.13658213082131854 0.7984143999226273 0.7254842149374755
3 160 159 62 0.13658213082131854 0.7984143999226273 0.7254842149374755
3 62 161 160 0.13658213082131854 0.7984143999226273 0.7254842149374755
3 161 59 160 0.13658213082131854 0.7984143999226273 0.7254842149374755
3 66 36 37 0.13658213082131854 0.7984143999226273 0.7254842149374755
3 37 67 66 0.13658213082131854 0.7984143999226273 0.7254842149374755
3 269 66 67 0.13658213082131854 0.7984143999226273 0.7254842149374755
3 119 118 269 0.13658213082131854 0.7984143999226273 0.7254842149374755
3 269 118 268 0.13658213082131854 0.7984143999226273 0.7254842149374755
3 269 268 36 0.13658213082131854 0.7984143999226273 0.7254842149374755
3 36 66 269 0.13658213082131854 0.7984143999226273 0.7254842149374755
3 271 120 270 0.13658213082131854 0.7984143999226273 0.7254842149374755
3 270 269 67 0.13658213082131854 0.7984143999226273 0.7254842149374755
3 270 120 119 0.13658213082131854 0.7984143999226273 0.7254842149374755
3 119 269 270 0.13658213082131854 0.7984143999226273 0.7254842149374755
3 176 67 37 0.13658213082131854 0.7984143999226273 0.7254842149374755
3 177 67 176 0.13658213082131854 0.7984143999226273 0.7254842149374755
3 37 38 176 0.13658213082131854 0.7984143999226273 0.7254842149374755
3 69 177 176 0.13658213082131854 0.7984143999226273 0.7254842149374755
3 176 38 69 0.13658213082131854 0.7984143999226273 0.7254842149374755
3 68 67 177 0.13658213082131854 0.7984143999226273 0.7254842149374755
3 68 177 178 0.13658213082131854 0.7984143999226273 0.7254842149374755
3 271 270 68 0.13658213082131854 0.7984143999226273 0.7254842149374755
3 68 270 67 0.13658213082131854 0.7984143999226273 0.7254842149374755
3 68 178 272 0.13658213082131854 0.7984143999226273 0.7254842149374755
3 272 271 68 0.13658213082131854 0.7984143999226273 0.7254842149374755
3 62 61 262 0.13658213082131854 0.7984143999226273 0.7254842149374755
3 262 263 62 0.13658213082131854 0.7984143999226273 0.7254842149374755
3 167 263 262 0.13658213082131854 0.7984143999226273 0.7254842149374755
3 262 65 167 0.13658213082131854 0.7984143999226273 0.7254842149374755
3 166 165 111 0.13658213082131854 0.7984143999226273 0.7254842149374755
3 111 112 166 0.13658213082131854 0.7984143999226273 0.7254842149374755
3 166 112 167 0.13658213082131854 0.7984143999226273 0.7254842149374755
3 167 65 166 0.13658213082131854 0.7984143999226273 0.7254842149374755
3 261 60 260 0.13658213082131854 0.7984143999226273 0.7254842149374755
3 61 60 261 0.13658213082131854 0.7984143999226273 0.7254842149374755
3 261 262 61 0.13658213082131854 0.7984143999226273 0.7254842149374755
3 65 262 261 0.13658213082131854 0.7984143999226273 0.7254842149374755
3 116 219 218 0.13658213082131854 0.7984143999226273 0.7254842149374755
3 116 173 219 0.13658213082131854 0.7984143999226273 0.7254842149374755
3 119 173 116 0.13658213082131854 0.7984143999226273 0.7254842149374755
3 88 196 197 0.13658213082131854 0.7984143999226273 0.7254842149374755
3 197 138 88 0.13658213082131854 0.7984143999226273 0.7254842149374755
3 197 92 198 0.13658213082131854 0.7984143999226273 0.7254842149374755
3 198 138 197 0.13658213082131854 0.7984143999226273 0.7254842149374755
3 195 196 87 0.13658213082131854 0.7984143999226273 0.7254842149374755
3 136 86 87 0.13658213082131854 0.7984143999226273 0.7254842149374755
3 86 195 87 0.13658213082131854 0.7984143999226273 0.7254842149374755
3 87 84 136 0.13658213082131854 0.7984143999226273 0.7254842149374755
3 87 196 88 0.13658213082131854 0.7984143999226273 0.7254842149374755
3 189 123 190 0.13658213082131854 0.7984143999226273 0.7254842149374755
3 190 79 189 0.13658213082131854 0.7984143999226273 0.7254842149374755
3 277 75 42 0.13658213082131854 0.7984143999226273 0.7254842149374755
3 42 43 276 0.13658213082131854 0.7984143999226273 0.7254842149374755
3 43 79 276 0.13658213082131854 0.7984143999226273 0.7254842149374755
3 276 277 42 0.13658213082131854 0.7984143999226273 0.7254842149374755
3 79 277 276 0.13658213082131854 0.7984143999226273 0.7254842149374755
3 192 279 278 0.13658213082131854 0.7984143999226273 0.7254842149374755
3 241 234 192 0.13658213082131854 0.7984143999226273 0.7254842149374755
3 192 234 193 0.13658213082131854 0.7984143999226273 0.7254842149374755
3 193 279 192 0.13658213082131854 0.7984143999226273 0.7254842149374755
3 235 199 200 0.13658213082131854 0.7984143999226273 0.7254842149374755
3 235 242 199 0.13658213082131854 0.7984143999226273 0.7254842149374755
3 193 242 235 0.13658213082131854 0.7984143999226273 0.7254842149374755
3 283 282 243 0.13658213082131854 0.7984143999226273 0.7254842149374755
3 251 283 243 0.13658213082131854 0.7984143999226273 0.7254842149374755
3 243 235 200 0.13658213082131854 0.7984143999226273 0.7254842149374755
3 200 250 243 0.13658213082131854 0.7984143999226273 0.7254842149374755
3 243 250 251 0.13658213082131854 0.7984143999226273 0.7254842149374755
3 74 224 223 0.13658213082131854 0.7984143999226273 0.7254842149374755
3 223 70 222 0.13658213082131854 0.7984143999226273 0.7254842149374755
3 71 70 223 0.13658213082131854 0.7984143999226273 0.7254842149374755
3 223 224 71 0.13658213082131854 0.7984143999226273 0.7254842149374755
3 280 279 193 0.13658213082131854 0.7984143999226273 0.7254842149374755
3 77 279 280 0.13658213082131854 0.7984143999226273 0.7254842149374755
3 226 181 180 0.13658213082131854 0.7984143999226273 0.7254842149374755
3 137 240 84 0.13658213082131854 0.7984143999226273 0.7254842149374755
3 137 87 88 0.13658213082131854 0.7984143999226273 0.7254842149374755
3 84 87 137 0.13658213082131854 0.7984143999226273 0.7254842149374755
3 88 138 137 0.13658213082131854 0.7984143999226273 0.7254842149374755
3 138 240 137 0.13658213082131854 0.7984143999226273 0.7254842149374755
3 233 138 241 0.13658213082131854 0.7984143999226273 0.7254842149374755
3 233 240 138 0.13658213082131854 0.7984143999226273 0.7254842149374755
3 231 238 83 0.13658213082131854 0.7984143999226273 0.7254842149374755
3 231 122 238 0.13658213082131854 0.7984143999226273 0.7254842149374755
3 83 239 231 0.13658213082131854 0.7984143999226273 0.7254842149374755
3 231 239 123 0.13658213082131854 0.7984143999226273 0.7254842149374755
3 231 123 189 0.13658213082131854 0.7984143999226273 0.7254842149374755
3 189 122 231 0.13658213082131854 0.7984143999226273 0.7254842149374755
3 154 107 155 0.13658213082131854 0.7984143999226273 0.7254842149374755
3 155 132 154 0.13658213082131854 0.7984143999226273 0.7254842149374755
3 147 103 148 0.13658213082131854 0.7984143999226273 0.7254842149374755
3 103 104 148 0.13658213082131854 0.7984143999226273 0.7254842149374755
3 206 258 207 0.13658213082131854 0.7984143999226273 0.7254842149374755
3 206 151 258 0.13658213082131854 0.7984143999226273 0.7254842149374755
3 206 207 145 0.13658213082131854 0.7984143999226273 0.7254842149374755
3 145 144 206 0.13658213082131854 0.7984143999226273 0.7254842149374755
3 133 156 256 0.13658213082131854 0.7984143999226273 0.7254842149374755
3 256 255 133 0.13658213082131854 0.7984143999226273 0.7254842149374755
3 133 155 156 0.13658213082131854 0.7984143999226273 0.7254842149374755
3 133 255 132 0.13658213082131854 0.7984143999226273 0.7254842149374755
3 132 155 133 0.13658213082131854 0.7984143999226273 0.7254842149374755
3 142 95 96 0.13658213082131854 0.7984143999226273 0.7254842149374755
3 96 143 142 0.13658213082131854 0.7984143999226273 0.7254842149374755
3 141 95 142 0.13658213082131854 0.7984143999226273 0.7254842149374755
3 142 56 141 0.13658213082131854 0.7984143999226273 0.7254842149374755
3 142 143 56 0.13658213082131854 0.7984143999226273 0.7254842149374755
3 64 260 63 0.13658213082131854 0.7984143999226273 0.7254842149374755
3 64 261 260 0.13658213082131854 0.7984143999226273 0.7254842149374755
3 63 165 64 0.13658213082131854 0.7984143999226273 0.7254842149374755
3 165 166 64 0.13658213082131854 0.7984143999226273 0.7254842149374755
3 64 166 65 0.13658213082131854 0.7984143999226273 0.7254842149374755
3 65 261 64 0.13658213082131854 0.7984143999226273 0.7254842149374755
3 172 118 119 0.13658213082131854 0.7984143999226273 0.7254842149374755
3 119 116 172 0.13658213082131854 0.7984143999226273 0.7254842149374755
3 172 115 171 0.13658213082131854 0.7984143999226273 0.7254842149374755
3 171 118 172 0.13658213082131854 0.7984143999226273 0.7254842149374755
3 218 115 172 0.13658213082131854 0.7984143999226273 0.7254842149374755
3 172 116 218 0.13658213082131854 0.7984143999226273 0.7254842149374755
3 91 196 90 0.13658213082131854 0.7984143999226273 0.7254842149374755
3 91 197 196 0.13658213082131854 0.7984143999226273 0.7254842149374755
3 90 52 91 0.13658213082131854 0.7984143999226273 0.7254842149374755
3 52 53 91 0.13658213082131854 0.7984143999226273 0.7254842149374755
3 91 53 92 0.13658213082131854 0.7984143999226273 0.7254842149374755
3 92 197 91 0.13658213082131854 0.7984143999226273 0.7254842149374755
3 232 190 123 0.13658213082131854 0.7984143999226273 0.7254842149374755
3 84 240 232 0.13658213082131854 0.7984143999226273 0.7254842149374755
3 123 239 232 0.13658213082131854 0.7984143999226273 0.7254842149374755
3 232 239 84 0.13658213082131854 0.7984143999226273 0.7254842149374755
3 185 280 281 0.13658213082131854 0.7984143999226273 0.7254842149374755
3 281 243 282 0.13658213082131854 0.7984143999226273 0.7254842149374755
3 235 243 281 0.13658213082131854 0.7984143999226273 0.7254842149374755
3 193 235 281 0.13658213082131854 0.7984143999226273 0.7254842149374755
3 281 280 193 0.13658213082131854 0.7984143999226273 0.7254842149374755
3 74 185 186 0.13658213082131854 0.7984143999226273 0.7254842149374755
3 185 281 186 0.13658213082131854 0.7984143999226273 0.7254842149374755
3 228 181 227 0.13658213082131854 0.7984143999226273 0.7254842149374755
3 181 226 227 0.13658213082131854 0.7984143999226273 0.7254842149374755
3 222 39 72 0.13658213082131854 0.7984143999226273 0.7254842149374755
3 39 40 72 0.13658213082131854 0.7984143999226273 0.7254842149374755
3 184 185 74 0.13658213082131854 0.7984143999226273 0.7254842149374755
3 184 183 77 0.13658213082131854 0.7984143999226273 0.7254842149374755
3 77 280 184 0.13658213082131854 0.7984143999226273 0.7254842149374755
3 184 280 185 0.13658213082131854 0.7984143999226273 0.7254842149374755
3 77 183 76 0.13658213082131854 0.7984143999226273 0.7254842149374755
3 76 278 77 0.13658213082131854 0.7984143999226273 0.7254842149374755
3 76 277 278 0.13658213082131854 0.7984143999226273 0.7254842149374755
3 75 277 76 0.13658213082131854 0.7984143999226273 0.7254842149374755
3 42 75 41 0.13658213082131854 0.7984143999226273 0.7254842149374755
3 75 76 41 0.13658213082131854 0.7984143999226273 0.7254842149374755
3 240 233 124 0.13658213082131854 0.7984143999226273 0.7254842149374755
3 124 232 240 0.13658213082131854 0.7984143999226273 0.7254842149374755
3 190 232 124 0.13658213082131854 0.7984143999226273 0.7254842149374755
3 108 155 107 0.13658213082131854 0.7984143999226273 0.7254842149374755
3 108 210 211 0.13658213082131854 0.7984143999226273 0.7254842149374755
3 107 210 108 0.13658213082131854 0.7984143999226273 0.7254842149374755
3 156 155 108 0.13658213082131854 0.7984143999226273 0.7254842149374755
3 211 212 108 0.13658213082131854 0.7984143999226273 0.7254842149374755
3 212 156 108 0.13658213082131854 0.7984143999226273 0.7254842149374755
3 99 203 202 0.13658213082131854 0.7984143999226273 0.7254842149374755
3 99 100 203 0.13658213082131854 0.7984143999226273 0.7254842149374755
3 151 206 205 0.13658213082131854 0.7984143999226273 0.7254842149374755
3 205 150 151 0.13658213082131854 0.7984143999226273 0.7254842149374755
3 96 204 205 0.13658213082131854 0.7984143999226273 0.7254842149374755
3 204 100 205 0.13658213082131854 0.7984143999226273 0.7254842149374755
3 100 150 205 0.13658213082131854 0.7984143999226273 0.7254842149374755
3 205 144 96 0.13658213082131854 0.7984143999226273 0.7254842149374755
3 205 206 144 0.13658213082131854 0.7984143999226273 0.7254842149374755
3 258 151 257 0.13658213082131854 0.7984143999226273 0.7254842149374755
3 151 150 257 0.13658213082131854 0.7984143999226273 0.7254842149374755
3 157 258 257 0.13658213082131854 0.7984143999226273 0.7254842149374755
3 256 157 257 0.13658213082131854 0.7984143999226273 0.7254842149374755
3 257 150 256 0.13658213082131854 0.7984143999226273 0.7254842149374755
3 74 186 225 0.13658213082131854 0.7984143999226273 0.7254842149374755
3 225 186 226 0.13658213082131854 0.7984143999226273 0.7254842149374755
3 225 224 74 0.13658213082131854 0.7984143999226273 0.7254842149374755
3 71 224 225 0.13658213082131854 0.7984143999226273 0.7254842149374755
3 180 71 225 0.13658213082131854 0.7984143999226273 0.7254842149374755
3 225 226 180 0.13658213082131854 0.7984143999226273 0.7254842149374755
3 226 186 187 0.13658213082131854 0.7984143999226273 0.7254842149374755
3 187 227 226 0.13658213082131854 0.7984143999226273 0.7254842149374755
3 187 281 282 0.13658213082131854 0.7984143999226273 0.7254842149374755
3 187 186 281 0.13658213082131854 0.7984143999226273 0.7254842149374755
3 228 227 187 0.13658213082131854 0.7984143999226273 0.7254842149374755
3 187 283 228 0.13658213082131854 0.7984143999226273 0.7254842149374755
3 187 282 283 0.13658213082131854 0.7984143999226273 0.7254842149374755
3 73 72 183 0.13658213082131854 0.7984143999226273 0.7254842149374755
3 183 184 73 0.13658213082131854 0.7984143999226273 0.7254842149374755
3 73 184 74 0.13658213082131854 0.7984143999226273 0.7254842149374755
3 74 223 73 0.13658213082131854 0.7984143999226273 0.7254842149374755
3 73 223 222 0.13658213082131854 0.7984143999226273 0.7254842149374755
3 222 72 73 0.13658213082131854 0.7984143999226273 0.7254842149374755
3 40 41 182 0.13658213082131854 0.7984143999226273 0.7254842149374755
3 182 72 40 0.13658213082131854 0.7984143999226273 0.7254842149374755
3 183 72 182 0.13658213082131854 0.7984143999226273 0.7254842149374755
3 182 76 183 0.13658213082131854 0.7984143999226273 0.7254842149374755
3 182 41 76 0.13658213082131854 0.7984143999226273 0.7254842149374755
3 278 277 80 0.13658213082131854 0.7984143999226273 0.7254842149374755
3 190 124 80 0.13658213082131854 0.7984143999226273 0.7254842149374755
3 79 190 80 0.13658213082131854 0.7984143999226273 0.7254842149374755
3 80 277 79 0.13658213082131854 0.7984143999226273 0.7254842149374755
3 149 99 148 0.13658213082131854 0.7984143999226273 0.7254842149374755
3 149 148 104 0.13658213082131854 0.7984143999226273 0.7254842149374755
3 149 150 100 0.13658213082131854 0.7984143999226273 0.7254842149374755
3 100 99 149 0.13658213082131854 0.7984143999226273 0.7254842149374755
3 149 104 256 0.13658213082131854 0.7984143999226273 0.7254842149374755
3 256 150 149 0.13658213082131854 0.7984143999226273 0.7254842149374755
3 202 201 98 0.13658213082131854 0.7984143999226273 0.7254842149374755
3 98 99 202 0.13658213082131854 0.7984143999226273 0.7254842149374755
3 98 201 97 0.13658213082131854 0.7984143999226273 0.7254842149374755
3 148 99 98 0.13658213082131854 0.7984143999226273 0.7254842149374755
3 98 97 147 0.13658213082131854 0.7984143999226273 0.7254842149374755
3 147 148 98 0.13658213082131854 0.7984143999226273 0.7254842149374755
3 191 124 233 0.13658213082131854 0.7984143999226273 0.7254842149374755
3 191 80 124 0.13658213082131854 0.7984143999226273 0.7254842149374755
3 241 192 191 0.13658213082131854 0.7984143999226273 0.7254842149374755
3 191 233 241 0.13658213082131854 0.7984143999226273 0.7254842149374755
3 191 192 278 0.13658213082131854 0.7984143999226273 0.7254842149374755
3 278 80 191 0.13658213082131854 0.7984143999226273 0.7254842149374755
