OFF
69 62 0


28.032 34.8578 9.0428
28.032 34.8578 9.0428
28.1181 34.9549 9.087
28.1784 35.024 9.118
28.2323 35.0866 9.1456
28.2919 35.1567 9.1761
28.3755 35.2564 9.2189
28.44 35.2669 9.2531
28.5045 35.2773 9.2873
28.569 35.2877 9.3214
28.6334 35.2981 9.3556
28.6979 35.3085 9.3898
28.6979 35.3085 9.3898
28.7575 35.1825 9.4237
28.807 35.0797 9.4518
28.8502 34.9912 9.4763
28.8896 34.9115 9.4987
28.9271 34.8366 9.5199
28.9642 34.7633 9.541
29.0024 34.6888 9.5626
29.0432 34.61 9.5857
29.0889 34.5231 9.6115
29.1424 34.4229 9.6417
29.2085 34.3013 9.679
29.2085 34.3013 9.679
29.0919 34.2536 9.6177
28.9859 34.2095 9.562
28.8885 34.1684 9.5109
28.7981 34.1296 9.4634
28.7135 34.0927 9.4189
28.6335 34.0572 9.377
28.5574 34.0229 9.337
28.4844 33.9895 9.2987
28.4138 33.9566 9.2616
28.345 33.9241 9.2256
28.2776 33.8918 9.1902
28.211 33.8593 9.1553
28.1448 33.8265 9.1206
28.0786 33.7932 9.0859
28.0118 33.7591 9.0509
27.944 33.724 9.0154
27.8747 33.6875 8.9792
27.8034 33.6495 8.9418
27.7295 33.6094 8.9031
27.6522 33.5669 8.8627
27.5708 33.5215 8.8201
27.4843 33.4725 8.7749
27.3915 33.4193 8.7264
27.291 33.3609 8.6738
27.181 33.2962 8.6164
27.181 33.2962 8.6164
27.2571 33.3956 8.6552
27.3248 33.4874 8.6897
27.386 33.5732 8.7208
27.442 33.6545 8.7492
27.4937 33.7325 8.7754
27.5421 33.8083 8.7999
27.5878 33.8827 8.823
27.6314 33.9566 8.8449
27.6733 34.0307 8.8659
27.7139 34.1058 8.8863
27.7536 34.1826 8.9061
27.7928 34.2621 8.9256
27.8317 34.3451 8.9449
27.8706 34.4328 8.9642
27.9098 34.5262 8.9834
27.9496 34.627 9.0029
27.9902 34.7368 9.0226
28.032 34.8578 9.0428
3 45 54 46 0.042754085365490635 0.14479502325512872 0.6002808525094361
3 62 61 37 0.042754085365490635 0.14479502325512872 0.6002808525094361
3 43 56 44 0.042754085365490635 0.14479502325512872 0.6002808525094361
3 37 61 38 0.042754085365490635 0.14479502325512872 0.6002808525094361
3 34 33 64 0.042754085365490635 0.14479502325512872 0.6002808525094361
3 60 38 61 0.042754085365490635 0.14479502325512872 0.6002808525094361
3 48 47 52 0.042754085365490635 0.14479502325512872 0.6002808525094361
3 21 27 26 0.042754085365490635 0.14479502325512872 0.6002808525094361
3 20 27 21 0.042754085365490635 0.14479502325512872 0.6002808525094361
3 22 25 23 0.042754085365490635 0.14479502325512872 0.6002808525094361
3 22 26 25 0.042754085365490635 0.14479502325512872 0.6002808525094361
3 21 26 22 0.042754085365490635 0.14479502325512872 0.6002808525094361
3 64 33 65 0.042754085365490635 0.14479502325512872 0.6002808525094361
3 36 62 37 0.042754085365490635 0.14479502325512872 0.6002808525094361
3 63 34 64 0.042754085365490635 0.14479502325512872 0.6002808525094361
3 35 34 63 0.042754085365490635 0.14479502325512872 0.6002808525094361
3 63 36 35 0.042754085365490635 0.14479502325512872 0.6002808525094361
3 62 36 63 0.042754085365490635 0.14479502325512872 0.6002808525094361
3 38 60 39 0.042754085365490635 0.14479502325512872 0.6002808525094361
3 58 40 59 0.042754085365490635 0.14479502325512872 0.6002808525094361
3 40 39 59 0.042754085365490635 0.14479502325512872 0.6002808525094361
3 59 39 60 0.042754085365490635 0.14479502325512872 0.6002808525094361
3 32 65 33 0.042754085365490635 0.14479502325512872 0.6002808525094361
3 31 65 32 0.042754085365490635 0.14479502325512872 0.6002808525094361
3 57 56 43 0.042754085365490635 0.14479502325512872 0.6002808525094361
3 43 42 57 0.042754085365490635 0.14479502325512872 0.6002808525094361
3 49 48 51 0.042754085365490635 0.14479502325512872 0.6002808525094361
3 48 52 51 0.042754085365490635 0.14479502325512872 0.6002808525094361
3 53 47 46 0.042754085365490635 0.14479502325512872 0.6002808525094361
3 53 52 47 0.042754085365490635 0.14479502325512872 0.6002808525094361
3 46 54 53 0.042754085365490635 0.14479502325512872 0.6002808525094361
3 10 13 11 0.042754085365490635 0.14479502325512872 0.6002808525094361
3 10 9 13 0.042754085365490635 0.14479502325512872 0.6002808525094361
3 5 7 6 0.042754085365490635 0.14479502325512872 0.6002808525094361
3 19 28 27 0.042754085365490635 0.14479502325512872 0.6002808525094361
3 27 20 19 0.042754085365490635 0.14479502325512872 0.6002808525094361
3 66 31 30 0.042754085365490635 0.14479502325512872 0.6002808525094361
3 66 65 31 0.042754085365490635 0.14479502325512872 0.6002808525094361
3 41 40 58 0.042754085365490635 0.14479502325512872 0.6002808525094361
3 58 57 41 0.042754085365490635 0.14479502325512872 0.6002808525094361
3 41 57 42 0.042754085365490635 0.14479502325512872 0.6002808525094361
3 13 9 8 0.042754085365490635 0.14479502325512872 0.6002808525094361
3 7 5 8 0.042754085365490635 0.14479502325512872 0.6002808525094361
3 17 29 18 0.042754085365490635 0.14479502325512872 0.6002808525094361
3 18 29 28 0.042754085365490635 0.14479502325512872 0.6002808525094361
3 28 19 18 0.042754085365490635 0.14479502325512872 0.6002808525094361
3 55 44 56 0.042754085365490635 0.14479502325512872 0.6002808525094361
3 54 45 55 0.042754085365490635 0.14479502325512872 0.6002808525094361
3 45 44 55 0.042754085365490635 0.14479502325512872 0.6002808525094361
3 67 2 1 0.042754085365490635 0.14479502325512872 0.6002808525094361
3 17 2 67 0.042754085365490635 0.14479502325512872 0.6002808525094361
3 67 29 17 0.042754085365490635 0.14479502325512872 0.6002808525094361
3 30 29 67 0.042754085365490635 0.14479502325512872 0.6002808525094361
3 67 66 30 0.042754085365490635 0.14479502325512872 0.6002808525094361
3 13 8 14 0.042754085365490635 0.14479502325512872 0.6002808525094361
3 14 8 5 0.042754085365490635 0.14479502325512872 0.6002808525094361
3 5 4 14 0.042754085365490635 0.14479502325512872 0.6002808525094361
3 15 14 4 0.042754085365490635 0.14479502325512872 0.6002808525094361
3 4 3 15 0.042754085365490635 0.14479502325512872 0.6002808525094361
3 16 15 3 0.042754085365490635 0.14479502325512872 0.6002808525094361
3 16 2 17 0.042754085365490635 0.14479502325512872 0.6002808525094361
3 16 3 2 0.042754085365490635 0.14479502325512872 0.6002808525094361
