OFF
58 88 0


32.9188 34.8269 12.8481
32.9188 34.8269 12.8481
32.7946 34.7976 12.8272
32.7035 34.7761 12.8119
32.6246 34.7576 12.7987
32.5456 34.7391 12.7855
32.4544 34.7179 12.7702
32.3301 34.6892 12.7494
32.3301 34.6892 12.7494
32.449 34.7364 12.793
32.5428 34.7734 12.827
32.6228 34.8048 12.8556
32.6958 34.8334 12.8815
32.7667 34.861 12.9065
32.8399 34.8894 12.9321
32.9202 34.9205 12.96
33.0147 34.9569 12.9925
33.135 35.0031 13.0337
33.0559 34.9386 12.9659
32.9979 34.8913 12.9161
32.9188 34.8269 12.8481
32.8711 34.8248 12.8511
32.7109 34.7867 12.8238
32.5908 34.7583 12.8033
32.6499 34.8082 12.8566
32.7583 34.8503 12.8947
32.8717 34.894 12.9339
32.9286 34.8723 12.9013
32.6512 34.7725 12.8136
32.6782 34.7876 12.8287
32.4234 34.719 12.775
32.5214 34.7505 12.8018
32.5164 34.7559 12.8088
32.5862 34.776 12.8252
32.5888 34.7843 12.8349
32.6359 34.7955 12.8429
32.8126 34.8713 12.9136
32.7858 34.8535 12.8953
33.0266 34.9532 12.9867
32.9239 34.9059 12.9422
32.9703 34.9067 12.9377
32.8882 34.8761 12.9107
32.7792 34.8029 12.8354
32.7639 34.8082 12.8435
32.7486 34.8134 12.8516
32.5205 34.7417 12.7914
32.5889 34.7664 12.8133
32.6598 34.792 12.8361
32.7052 34.8297 12.8761
32.7146 34.8261 12.8706
32.724 34.8224 12.8651
32.9404 34.9203 12.9574
32.8688 34.8851 12.9236
32.7999 34.8513 12.8911
32.8711 34.8248 12.8511
32.8243 34.8227 12.854
32.7784 34.8207 12.8568
32.7334 34.8187 12.8596
3 18 40 19 0.17066691269246914 0.9640395359107257 0.986071055849874
3 0 19 27 0.17066691269246914 0.9640395359107257 0.986071055849874
3 27 19 40 0.17066691269246914 0.9640395359107257 0.986071055849874
3 4 3 28 0.17066691269246914 0.9640395359107257 0.986071055849874
3 54 2 0 0.17066691269246914 0.9640395359107257 0.986071055849874
3 54 55 2 0.17066691269246914 0.9640395359107257 0.986071055849874
3 14 13 36 0.17066691269246914 0.9640395359107257 0.986071055849874
3 2 55 56 0.17066691269246914 0.9640395359107257 0.986071055849874
3 12 11 24 0.17066691269246914 0.9640395359107257 0.986071055849874
3 24 48 12 0.17066691269246914 0.9640395359107257 0.986071055849874
3 38 40 18 0.17066691269246914 0.9640395359107257 0.986071055849874
3 38 16 40 0.17066691269246914 0.9640395359107257 0.986071055849874
3 38 18 17 0.17066691269246914 0.9640395359107257 0.986071055849874
3 17 16 38 0.17066691269246914 0.9640395359107257 0.986071055849874
3 47 28 29 0.17066691269246914 0.9640395359107257 0.986071055849874
3 29 28 3 0.17066691269246914 0.9640395359107257 0.986071055849874
3 3 22 29 0.17066691269246914 0.9640395359107257 0.986071055849874
3 29 22 49 0.17066691269246914 0.9640395359107257 0.986071055849874
3 49 48 29 0.17066691269246914 0.9640395359107257 0.986071055849874
3 29 24 47 0.17066691269246914 0.9640395359107257 0.986071055849874
3 48 24 29 0.17066691269246914 0.9640395359107257 0.986071055849874
3 35 28 47 0.17066691269246914 0.9640395359107257 0.986071055849874
3 47 24 35 0.17066691269246914 0.9640395359107257 0.986071055849874
3 35 24 11 0.17066691269246914 0.9640395359107257 0.986071055849874
3 4 28 35 0.17066691269246914 0.9640395359107257 0.986071055849874
3 35 33 4 0.17066691269246914 0.9640395359107257 0.986071055849874
3 41 36 54 0.17066691269246914 0.9640395359107257 0.986071055849874
3 0 27 41 0.17066691269246914 0.9640395359107257 0.986071055849874
3 41 54 0 0.17066691269246914 0.9640395359107257 0.986071055849874
3 37 36 13 0.17066691269246914 0.9640395359107257 0.986071055849874
3 7 6 30 0.17066691269246914 0.9640395359107257 0.986071055849874
3 30 9 7 0.17066691269246914 0.9640395359107257 0.986071055849874
3 6 9 30 0.17066691269246914 0.9640395359107257 0.986071055849874
3 10 9 32 0.17066691269246914 0.9640395359107257 0.986071055849874
3 25 48 49 0.17066691269246914 0.9640395359107257 0.986071055849874
3 25 13 12 0.17066691269246914 0.9640395359107257 0.986071055849874
3 12 48 25 0.17066691269246914 0.9640395359107257 0.986071055849874
3 25 37 13 0.17066691269246914 0.9640395359107257 0.986071055849874
3 56 37 25 0.17066691269246914 0.9640395359107257 0.986071055849874
3 50 22 57 0.17066691269246914 0.9640395359107257 0.986071055849874
3 49 22 50 0.17066691269246914 0.9640395359107257 0.986071055849874
3 57 25 50 0.17066691269246914 0.9640395359107257 0.986071055849874
3 50 25 49 0.17066691269246914 0.9640395359107257 0.986071055849874
3 34 11 10 0.17066691269246914 0.9640395359107257 0.986071055849874
3 10 33 34 0.17066691269246914 0.9640395359107257 0.986071055849874
3 34 35 11 0.17066691269246914 0.9640395359107257 0.986071055849874
3 33 35 34 0.17066691269246914 0.9640395359107257 0.986071055849874
3 10 5 23 0.17066691269246914 0.9640395359107257 0.986071055849874
3 23 5 4 0.17066691269246914 0.9640395359107257 0.986071055849874
3 39 27 40 0.17066691269246914 0.9640395359107257 0.986071055849874
3 39 41 27 0.17066691269246914 0.9640395359107257 0.986071055849874
3 2 56 42 0.17066691269246914 0.9640395359107257 0.986071055849874
3 56 43 42 0.17066691269246914 0.9640395359107257 0.986071055849874
3 42 43 22 0.17066691269246914 0.9640395359107257 0.986071055849874
3 42 3 2 0.17066691269246914 0.9640395359107257 0.986071055849874
3 42 22 3 0.17066691269246914 0.9640395359107257 0.986071055849874
3 57 22 44 0.17066691269246914 0.9640395359107257 0.986071055849874
3 22 43 44 0.17066691269246914 0.9640395359107257 0.986071055849874
3 44 43 56 0.17066691269246914 0.9640395359107257 0.986071055849874
3 44 25 57 0.17066691269246914 0.9640395359107257 0.986071055849874
3 56 25 44 0.17066691269246914 0.9640395359107257 0.986071055849874
3 36 37 53 0.17066691269246914 0.9640395359107257 0.986071055849874
3 55 54 53 0.17066691269246914 0.9640395359107257 0.986071055849874
3 54 36 53 0.17066691269246914 0.9640395359107257 0.986071055849874
3 53 56 55 0.17066691269246914 0.9640395359107257 0.986071055849874
3 53 37 56 0.17066691269246914 0.9640395359107257 0.986071055849874
3 31 5 10 0.17066691269246914 0.9640395359107257 0.986071055849874
3 10 32 31 0.17066691269246914 0.9640395359107257 0.986071055849874
3 46 33 10 0.17066691269246914 0.9640395359107257 0.986071055849874
3 10 23 46 0.17066691269246914 0.9640395359107257 0.986071055849874
3 4 33 46 0.17066691269246914 0.9640395359107257 0.986071055849874
3 46 23 4 0.17066691269246914 0.9640395359107257 0.986071055849874
3 51 39 40 0.17066691269246914 0.9640395359107257 0.986071055849874
3 15 39 51 0.17066691269246914 0.9640395359107257 0.986071055849874
3 40 16 51 0.17066691269246914 0.9640395359107257 0.986071055849874
3 16 15 51 0.17066691269246914 0.9640395359107257 0.986071055849874
3 41 39 26 0.17066691269246914 0.9640395359107257 0.986071055849874
3 26 15 14 0.17066691269246914 0.9640395359107257 0.986071055849874
3 26 39 15 0.17066691269246914 0.9640395359107257 0.986071055849874
3 6 5 45 0.17066691269246914 0.9640395359107257 0.986071055849874
3 5 31 45 0.17066691269246914 0.9640395359107257 0.986071055849874
3 45 9 6 0.17066691269246914 0.9640395359107257 0.986071055849874
3 45 32 9 0.17066691269246914 0.9640395359107257 0.986071055849874
3 45 31 32 0.17066691269246914 0.9640395359107257 0.986071055849874
3 52 26 14 0.17066691269246914 0.9640395359107257 0.986071055849874
3 41 26 52 0.17066691269246914 0.9640395359107257 0.986071055849874
3 14 36 52 0.17066691269246914 0.9640395359107257 0.986071055849874
3 36 41 52 0.17066691269246914 0.9640395359107257 0.986071055849874
