OFF
70 62 0


30.8012 29.7938 7.3863
30.8012 29.7938 7.3863
30.7878 29.9017 7.3168
30.779 29.9978 7.256
30.7737 30.0854 7.2017
30.7712 30.167 7.152
30.7709 30.2447 7.1055
30.7728 30.3203 7.061
30.7765 30.3953 7.0176
30.7823 30.4713 6.9744
30.7903 30.55 6.9305
30.8009 30.6331 6.8848
30.8146 30.723 6.8364
30.8324 30.8225 6.7837
30.8557 30.9356 6.725
30.8557 30.9356 6.725
30.7538 31.0079 6.643
30.679 31.0628 6.5818
30.6171 31.1095 6.5303
30.5606 31.153 6.4828
30.5047 31.1971 6.4353
30.4442 31.2455 6.3833
30.3727 31.304 6.3212
30.2781 31.3833 6.2378
30.2781 31.3833 6.2378
30.1541 31.3838 6.1903
30.0303 31.3851 6.1424
30.0303 31.3851 6.1424
29.9449 31.3664 6.1211
29.8596 31.3477 6.0998
29.7742 31.329 6.0785
29.6889 31.3103 6.0572
29.6035 31.2916 6.0359
29.5182 31.2729 6.0146
29.4328 31.2542 5.9933
29.3475 31.2355 5.972
29.2621 31.2167 5.9507
29.1768 31.198 5.9294
29.0914 31.1793 5.9081
29.068 31.0599 5.9705
29.0493 30.9742 6.0146
29.0325 30.9027 6.0509
29.0155 30.8353 6.0847
28.9964 30.764 6.12
28.9718 30.6788 6.1615
28.9342 30.5597 6.2184
28.9342 30.5597 6.2184
29.0488 30.5401 6.2736
29.155 30.5207 6.3257
29.2545 30.5012 6.3752
29.3484 30.4815 6.4227
29.4377 30.4614 6.4687
29.5232 30.4407 6.5136
29.6057 30.4194 6.5577
29.6856 30.3972 6.6014
29.7634 30.3739 6.6449
29.8397 30.3493 6.6886
29.9147 30.3233 6.7327
29.9888 30.2955 6.7775
30.0621 30.2657 6.8232
30.135 30.2338 6.87
30.2077 30.1993 6.9182
30.2802 30.1621 6.9681
30.3528 30.1217 7.0198
30.4256 30.0779 7.0737
30.4988 30.0303 7.13
30.5727 29.9786 7.189
30.6474 29.9223 7.2511
30.7235 29.8609 7.3167
30.8012 29.7938 7.3863
3 17 18 58 0.4824881056953597 0.006052435372982723 0.7719893076207051
3 58 18 19 0.4824881056953597 0.006052435372982723 0.7719893076207051
3 17 12 16 0.4824881056953597 0.006052435372982723 0.7719893076207051
3 12 13 16 0.4824881056953597 0.006052435372982723 0.7719893076207051
3 16 13 14 0.4824881056953597 0.006052435372982723 0.7719893076207051
3 57 58 19 0.4824881056953597 0.006052435372982723 0.7719893076207051
3 44 47 48 0.4824881056953597 0.006052435372982723 0.7719893076207051
3 45 47 44 0.4824881056953597 0.006052435372982723 0.7719893076207051
3 20 21 56 0.4824881056953597 0.006052435372982723 0.7719893076207051
3 56 57 20 0.4824881056953597 0.006052435372982723 0.7719893076207051
3 20 57 19 0.4824881056953597 0.006052435372982723 0.7719893076207051
3 52 31 51 0.4824881056953597 0.006052435372982723 0.7719893076207051
3 52 30 31 0.4824881056953597 0.006052435372982723 0.7719893076207051
3 60 10 11 0.4824881056953597 0.006052435372982723 0.7719893076207051
3 2 68 0 0.4824881056953597 0.006052435372982723 0.7719893076207051
3 7 63 64 0.4824881056953597 0.006052435372982723 0.7719893076207051
3 66 4 5 0.4824881056953597 0.006052435372982723 0.7719893076207051
3 5 65 66 0.4824881056953597 0.006052435372982723 0.7719893076207051
3 33 50 51 0.4824881056953597 0.006052435372982723 0.7719893076207051
3 56 21 55 0.4824881056953597 0.006052435372982723 0.7719893076207051
3 55 21 22 0.4824881056953597 0.006052435372982723 0.7719893076207051
3 8 63 7 0.4824881056953597 0.006052435372982723 0.7719893076207051
3 8 62 63 0.4824881056953597 0.006052435372982723 0.7719893076207051
3 9 62 8 0.4824881056953597 0.006052435372982723 0.7719893076207051
3 59 11 12 0.4824881056953597 0.006052435372982723 0.7719893076207051
3 59 60 11 0.4824881056953597 0.006052435372982723 0.7719893076207051
3 59 12 17 0.4824881056953597 0.006052435372982723 0.7719893076207051
3 17 58 59 0.4824881056953597 0.006052435372982723 0.7719893076207051
3 10 60 61 0.4824881056953597 0.006052435372982723 0.7719893076207051
3 61 9 10 0.4824881056953597 0.006052435372982723 0.7719893076207051
3 61 62 9 0.4824881056953597 0.006052435372982723 0.7719893076207051
3 68 2 67 0.4824881056953597 0.006052435372982723 0.7719893076207051
3 2 3 67 0.4824881056953597 0.006052435372982723 0.7719893076207051
3 67 4 66 0.4824881056953597 0.006052435372982723 0.7719893076207051
3 67 3 4 0.4824881056953597 0.006052435372982723 0.7719893076207051
3 6 64 65 0.4824881056953597 0.006052435372982723 0.7719893076207051
3 65 5 6 0.4824881056953597 0.006052435372982723 0.7719893076207051
3 7 64 6 0.4824881056953597 0.006052435372982723 0.7719893076207051
3 34 41 49 0.4824881056953597 0.006052435372982723 0.7719893076207051
3 35 41 34 0.4824881056953597 0.006052435372982723 0.7719893076207051
3 49 50 34 0.4824881056953597 0.006052435372982723 0.7719893076207051
3 50 33 34 0.4824881056953597 0.006052435372982723 0.7719893076207051
3 51 31 32 0.4824881056953597 0.006052435372982723 0.7719893076207051
3 32 33 51 0.4824881056953597 0.006052435372982723 0.7719893076207051
3 48 49 42 0.4824881056953597 0.006052435372982723 0.7719893076207051
3 49 41 42 0.4824881056953597 0.006052435372982723 0.7719893076207051
3 28 55 22 0.4824881056953597 0.006052435372982723 0.7719893076207051
3 53 29 30 0.4824881056953597 0.006052435372982723 0.7719893076207051
3 30 52 53 0.4824881056953597 0.006052435372982723 0.7719893076207051
3 38 39 37 0.4824881056953597 0.006052435372982723 0.7719893076207051
3 40 41 35 0.4824881056953597 0.006052435372982723 0.7719893076207051
3 43 44 48 0.4824881056953597 0.006052435372982723 0.7719893076207051
3 48 42 43 0.4824881056953597 0.006052435372982723 0.7719893076207051
3 25 22 24 0.4824881056953597 0.006052435372982723 0.7719893076207051
3 25 28 22 0.4824881056953597 0.006052435372982723 0.7719893076207051
3 29 53 54 0.4824881056953597 0.006052435372982723 0.7719893076207051
3 54 28 29 0.4824881056953597 0.006052435372982723 0.7719893076207051
3 55 28 54 0.4824881056953597 0.006052435372982723 0.7719893076207051
3 36 37 39 0.4824881056953597 0.006052435372982723 0.7719893076207051
3 36 40 35 0.4824881056953597 0.006052435372982723 0.7719893076207051
3 39 40 36 0.4824881056953597 0.006052435372982723 0.7719893076207051
3 28 25 27 0.4824881056953597 0.006052435372982723 0.7719893076207051
