OFF
38 31 0


32.3736 33.0121 9.5116
32.3736 33.0121 9.5116
32.473 32.9555 9.4451
32.5584 32.9088 9.3904
32.6347 32.8686 9.3434
32.7054 32.8326 9.3013
32.7732 32.7991 9.2622
32.8406 32.7669 9.2246
32.9098 32.7346 9.1871
32.9836 32.7014 9.1485
33.0652 32.6658 9.1072
33.159 32.6263 9.0614
33.2718 32.5807 9.0087
33.2718 32.5807 9.0087
33.1936 32.5151 8.9267
33.1359 32.4646 8.8637
33.0863 32.4198 8.8078
33.0378 32.3745 8.7514
32.9838 32.3224 8.6864
32.9148 32.2527 8.5997
32.9148 32.2527 8.5997
32.8498 32.2552 8.6012
32.7848 32.2578 8.6026
32.7199 32.2603 8.6041
32.6549 32.2629 8.6056
32.594 32.3443 8.7032
32.5422 32.4101 8.7821
32.4954 32.4668 8.85
32.4509 32.5187 8.9122
32.4063 32.5688 8.9721
32.3592 32.6198 9.0331
32.3066 32.6746 9.0985
32.2444 32.7367 9.1727
32.1655 32.8117 9.262
32.1655 32.8117 9.262
32.2432 32.8847 9.353
32.2985 32.938 9.4194
32.3736 33.0121 9.5116
3 37 36 2 0.25703963063224156 0.8740728109867676 0.32628632563123816
3 16 10 9 0.25703963063224156 0.8740728109867676 0.32628632563123816
3 23 25 24 0.25703963063224156 0.8740728109867676 0.32628632563123816
3 29 28 7 0.25703963063224156 0.8740728109867676 0.32628632563123816
3 6 29 7 0.25703963063224156 0.8740728109867676 0.32628632563123816
3 30 29 6 0.25703963063224156 0.8740728109867676 0.32628632563123816
3 31 4 32 0.25703963063224156 0.8740728109867676 0.32628632563123816
3 11 14 12 0.25703963063224156 0.8740728109867676 0.32628632563123816
3 15 10 16 0.25703963063224156 0.8740728109867676 0.32628632563123816
3 15 11 10 0.25703963063224156 0.8740728109867676 0.32628632563123816
3 14 11 15 0.25703963063224156 0.8740728109867676 0.32628632563123816
3 7 28 8 0.25703963063224156 0.8740728109867676 0.32628632563123816
3 27 8 28 0.25703963063224156 0.8740728109867676 0.32628632563123816
3 9 8 27 0.25703963063224156 0.8740728109867676 0.32628632563123816
3 18 17 25 0.25703963063224156 0.8740728109867676 0.32628632563123816
3 18 21 19 0.25703963063224156 0.8740728109867676 0.32628632563123816
3 3 32 4 0.25703963063224156 0.8740728109867676 0.32628632563123816
3 2 36 3 0.25703963063224156 0.8740728109867676 0.32628632563123816
3 30 6 5 0.25703963063224156 0.8740728109867676 0.32628632563123816
3 31 30 5 0.25703963063224156 0.8740728109867676 0.32628632563123816
3 5 4 31 0.25703963063224156 0.8740728109867676 0.32628632563123816
3 16 9 26 0.25703963063224156 0.8740728109867676 0.32628632563123816
3 9 27 26 0.25703963063224156 0.8740728109867676 0.32628632563123816
3 26 17 16 0.25703963063224156 0.8740728109867676 0.32628632563123816
3 25 17 26 0.25703963063224156 0.8740728109867676 0.32628632563123816
3 21 18 22 0.25703963063224156 0.8740728109867676 0.32628632563123816
3 22 18 25 0.25703963063224156 0.8740728109867676 0.32628632563123816
3 25 23 22 0.25703963063224156 0.8740728109867676 0.32628632563123816
3 35 3 36 0.25703963063224156 0.8740728109867676 0.32628632563123816
3 32 3 35 0.25703963063224156 0.8740728109867676 0.32628632563123816
3 33 32 35 0.25703963063224156 0.8740728109867676 0.32628632563123816
