OFF
20 14 0


28.1629 28.3726 8.9643
28.1629 28.3726 8.9643
28.2483 28.4472 8.8877
28.1629 28.3726 8.9643
28.1629 28.3726 8.9643
28.2193 28.3327 8.932
28.2758 28.2929 8.8997
28.3322 28.253 8.8674
28.3887 28.2131 8.8352
28.4452 28.1732 8.8029
28.5016 28.1333 8.7706
28.5581 28.0934 8.7383
28.6145 28.0535 8.706
28.6145 28.0535 8.706
28.5745 28.1203 8.721
28.5345 28.187 8.736
28.4944 28.2538 8.751
28.4544 28.3205 8.7659
28.4144 28.3873 8.7809
28.3743 28.454 8.7959
3 2 6 19 0.12106674228848069 0.4076375452963594 0.13210110679343545
3 19 6 18 0.12106674228848069 0.4076375452963594 0.13210110679343545
3 2 0 5 0.12106674228848069 0.4076375452963594 0.13210110679343545
3 5 6 2 0.12106674228848069 0.4076375452963594 0.13210110679343545
3 18 6 7 0.12106674228848069 0.4076375452963594 0.13210110679343545
3 8 16 17 0.12106674228848069 0.4076375452963594 0.13210110679343545
3 17 7 8 0.12106674228848069 0.4076375452963594 0.13210110679343545
3 18 7 17 0.12106674228848069 0.4076375452963594 0.13210110679343545
3 9 16 8 0.12106674228848069 0.4076375452963594 0.13210110679343545
3 9 15 16 0.12106674228848069 0.4076375452963594 0.13210110679343545
3 10 15 9 0.12106674228848069 0.4076375452963594 0.13210110679343545
3 14 15 10 0.12106674228848069 0.4076375452963594 0.13210110679343545
3 12 14 11 0.12106674228848069 0.4076375452963594 0.13210110679343545
3 11 14 10 0.12106674228848069 0.4076375452963594 0.13210110679343545
