OFF
430 773 0


27.5813 32.0358 7.7316
27.5813 32.0358 7.7316
27.6769 31.9887 7.6303
27.7447 31.9549 7.5587
27.8058 31.924 7.4946
27.8737 31.8893 7.4235
27.9695 31.8398 7.3237
27.9695 31.8398 7.3237
27.9683 31.7577 7.2324
27.967 31.6986 7.1676
27.9654 31.6392 7.1031
27.9628 31.5555 7.0133
27.9628 31.5555 7.0133
27.8277 31.5297 7.046
27.7126 31.5079 7.0748
27.6112 31.4888 7.1009
27.5193 31.4717 7.1253
27.4337 31.4558 7.1486
27.3521 31.4407 7.1714
27.2724 31.4261 7.1943
27.1927 31.4117 7.2178
27.1113 31.397 7.2425
27.0262 31.3818 7.2692
26.9352 31.3657 7.2986
26.8353 31.3483 7.3321
26.7229 31.3289 7.3713
26.5929 31.3069 7.4187
26.5053 31.3526 7.5178
26.4299 31.3882 7.6006
26.3622 31.4175 7.673
26.299 31.4428 7.7392
26.2375 31.4655 7.8022
26.1753 31.4868 7.8649
26.1096 31.5076 7.9298
26.0374 31.5287 7.9999
25.954 31.551 8.0794
25.8526 31.5752 8.1741
25.8526 31.5752 8.1741
25.9724 31.6259 8.156
26.0824 31.67 8.1379
26.1846 31.7091 8.1197
26.2807 31.7439 8.1013
26.3719 31.7753 8.0827
26.4596 31.8039 8.0638
26.5447 31.8301 8.0444
26.6282 31.8544 8.0245
26.7109 31.8771 8.0037
26.7937 31.8983 7.982
26.8775 31.9185 7.959
26.9632 31.9376 7.9346
27.0516 31.9558 7.9084
27.144 31.9733 7.88
27.2415 31.99 7.8488
27.3456 32.0061 7.8143
27.4581 32.0213 7.7755
27.5813 32.0358 7.7316
27.7216 31.9003 7.5069
27.6417 31.8776 7.5187
27.5655 31.8558 7.5301
27.4928 31.8347 7.5412
27.8601 31.6987 7.216
27.7605 31.6985 7.2614
27.667 31.6981 7.3041
27.5788 31.6974 7.3447
27.4683 31.4931 7.1724
27.4192 31.5136 7.218
27.3718 31.5332 7.2623
27.3258 31.5521 7.3053
27.3189 31.4638 7.2123
27.2866 31.4861 7.2523
27.255 31.5079 7.2915
27.224 31.529 7.33
27.1749 31.4363 7.2532
27.1574 31.4604 7.2881
27.1402 31.484 7.3225
27.1232 31.5073 7.3566
26.2473 31.5057 7.8423
26.3175 31.5239 7.8205
26.3865 31.5414 7.7993
26.4543 31.5584 7.7786
27.6681 31.9283 7.5644
27.595 31.9028 7.57
27.5251 31.8782 7.5754
27.4581 31.8544 7.5807
27.3936 31.8314 7.586
27.6387 31.5273 7.1298
27.5686 31.5454 7.1821
27.5017 31.5625 7.2322
27.4378 31.5786 7.2804
27.3764 31.5939 7.3268
27.0233 31.4081 7.2991
27.0204 31.4341 7.3288
27.0175 31.4598 7.3583
27.0147 31.4853 7.3877
27.0118 31.5105 7.417
26.358 31.4644 7.7284
26.4162 31.4855 7.7179
26.4738 31.5062 7.7076
26.531 31.5266 7.6976
26.5879 31.5466 7.6877
26.1258 31.5452 7.9633
26.2109 31.5607 7.9283
26.2932 31.5753 7.8947
26.3734 31.5892 7.8623
26.452 31.6025 7.8308
26.2588 31.7084 8.0726
26.3305 31.7075 8.0272
26.4002 31.7064 7.9834
26.4682 31.705 7.9409
26.535 31.7033 7.8994
26.427 31.7683 8.0409
26.4808 31.7612 8.0001
26.5337 31.7541 7.9602
26.5858 31.7469 7.9212
26.6372 31.7396 7.8827
26.5837 31.8181 8.007
26.6221 31.8061 7.9702
26.66 31.7942 7.9341
26.6975 31.7822 7.8984
26.7347 31.7703 7.8631
26.7352 31.8608 7.9703
26.7593 31.8446 7.9373
26.7831 31.8286 7.9047
26.8067 31.8125 7.8724
26.8302 31.7966 7.8405
26.8875 31.8984 7.9295
26.8973 31.8785 7.9003
26.9071 31.8587 7.8714
26.9168 31.839 7.8428
26.9264 31.8195 7.8145
27.0464 31.9321 7.8829
27.0412 31.9086 7.8577
27.0361 31.8853 7.8329
27.031 31.8623 7.8084
27.026 31.8395 7.7842
27.2188 31.9625 7.8279
27.1965 31.9354 7.8074
27.1747 31.9088 7.7873
27.1532 31.8826 7.7677
27.1321 31.8568 7.7484
27.863 31.8244 7.3549
27.7634 31.8097 7.3844
27.6698 31.7957 7.4122
27.5813 31.7822 7.4388
27.4974 31.769 7.4642
27.4173 31.7563 7.4886
27.8547 31.5718 7.0794
27.7545 31.5866 7.141
27.6609 31.6 7.1987
27.5729 31.6123 7.2533
27.4898 31.6237 7.3051
27.4107 31.6341 7.3547
26.8484 31.3768 7.356
26.8614 31.4051 7.3799
26.8745 31.4332 7.4038
26.8875 31.4612 7.4277
26.9005 31.4891 7.4515
26.9135 31.5169 7.4755
26.4767 31.4136 7.6018
26.5233 31.4388 7.6031
26.5695 31.4636 7.6045
26.6157 31.4882 7.606
26.6618 31.5127 7.6076
26.708 31.537 7.6092
25.9668 31.5893 8.1163
26.074 31.6019 8.0624
26.1758 31.6133 8.0117
26.2732 31.6238 7.9636
26.3671 31.6334 7.9175
26.4585 31.6422 7.8731
26.0711 31.634 8.1023
26.1649 31.6413 8.0516
26.2547 31.6479 8.0033
26.3414 31.6538 7.9571
26.4255 31.6592 7.9126
26.5078 31.664 7.8694
27.4136 31.9897 7.7605
27.3705 31.9589 7.7459
27.3286 31.9289 7.7318
27.2879 31.8996 7.7182
27.2482 31.871 7.705
27.2094 31.8429 7.6922
27.6082 31.9591 7.6288
27.5425 31.9305 7.6275
27.4794 31.9029 7.6263
27.4187 31.8762 7.6253
27.3601 31.8503 7.6245
27.3033 31.825 7.6237
27.2483 31.8004 7.6231
27.8582 31.6459 7.1588
27.7583 31.6519 7.2108
27.6649 31.6572 7.2598
27.5768 31.6619 7.3063
27.4933 31.6661 7.3505
27.4138 31.6697 7.3928
27.3377 31.673 7.4336
26.6261 31.339 7.4351
26.6592 31.3707 7.4516
26.6921 31.4022 7.468
26.7249 31.4336 7.4845
26.7578 31.4647 7.5011
26.7907 31.4958 7.5178
26.8237 31.5269 7.5346
27.5497 31.5093 7.1517
27.4908 31.5287 7.2005
27.4343 31.5472 7.2475
27.3799 31.5647 7.293
27.3272 31.5816 7.3371
27.2761 31.5977 7.38
27.2264 31.6132 7.422
27.1779 31.6282 7.4631
27.2471 31.45 7.2324
27.2223 31.4732 7.2698
27.1979 31.4959 7.3066
27.174 31.5181 7.3429
27.1505 31.5399 7.3788
27.1272 31.5614 7.4142
27.1043 31.5824 7.4493
27.0816 31.6032 7.4841
26.94 31.393 7.3257
26.9447 31.4201 7.3526
26.9495 31.4469 7.3794
26.9542 31.4736 7.4062
26.959 31.5001 7.433
26.9637 31.5265 7.4597
26.9685 31.5528 7.4865
26.9733 31.579 7.5133
26.3028 31.4857 7.7857
26.3669 31.5052 7.7696
26.43 31.5243 7.7539
26.4924 31.5429 7.7386
26.5544 31.5611 7.7235
26.6161 31.5791 7.7087
26.6777 31.5968 7.694
26.7395 31.6143 7.6795
26.0535 31.5662 8.0336
26.1482 31.5803 7.9902
26.2391 31.5935 7.949
26.327 31.6057 7.9095
26.4125 31.6172 7.8714
26.4963 31.6281 7.8343
26.5789 31.6384 7.7981
26.6608 31.6482 7.7626
26.3448 31.7399 8.057
26.4072 31.7357 8.014
26.4681 31.7314 7.9722
26.5279 31.7269 7.9314
26.5868 31.7223 7.8915
26.6451 31.7175 7.8522
26.7029 31.7124 7.8133
26.7604 31.7072 7.7749
26.6597 31.8402 7.9891
26.6909 31.8261 7.9542
26.7217 31.812 7.9198
26.7522 31.7979 7.8858
26.7825 31.7839 7.8522
26.8126 31.7698 7.8188
26.8426 31.7557 7.7857
26.8726 31.7416 7.7528
26.9657 31.9157 7.907
26.9682 31.8939 7.8798
26.9707 31.8724 7.8529
26.9732 31.851 7.8263
26.9756 31.8298 7.8
26.978 31.8087 7.7739
26.9805 31.7877 7.7481
26.9829 31.7668 7.7225
27.3127 31.9765 7.796
27.2806 31.9476 7.7783
27.2493 31.9193 7.7611
27.2187 31.8916 7.7442
27.1887 31.8643 7.7278
27.1592 31.8375 7.7118
27.1304 31.8111 7.6961
27.102 31.785 7.6807
27.8616 31.7513 7.2736
27.7621 31.745 7.3123
27.6686 31.7389 7.3489
27.5803 31.7328 7.3837
27.4965 31.7268 7.4169
27.4166 31.7207 7.4487
27.34 31.7147 7.4795
27.2663 31.7086 7.5093
27.195 31.7026 7.5383
26.5457 31.3808 7.526
26.5859 31.4087 7.5342
26.6259 31.4364 7.5424
26.6659 31.4639 7.5507
26.7058 31.4912 7.5591
26.7459 31.5185 7.5676
26.7861 31.5458 7.5762
26.8266 31.5731 7.585
26.8674 31.6005 7.5939
26.168 31.6734 8.0877
26.25 31.6763 8.0398
26.3293 31.6787 7.9939
26.4062 31.6807 7.9495
26.4814 31.6823 7.9065
26.5552 31.6836 7.8645
26.6281 31.6845 7.8234
26.7005 31.685 7.7828
26.7727 31.6852 7.7425
27.7806 31.869 7.4434
27.6928 31.8495 7.4624
27.6095 31.8308 7.4806
27.5303 31.8129 7.4981
27.4546 31.7955 7.5149
27.382 31.7786 7.5312
27.3121 31.7621 7.5471
27.2446 31.7459 7.5625
27.1792 31.7301 7.5777
27.1155 31.7145 7.5926
27.3921 31.478 7.1925
27.3517 31.4995 7.2352
27.3125 31.5202 7.2768
27.2743 31.5403 7.3175
27.2369 31.5597 7.3574
27.2004 31.5787 7.3966
27.1645 31.5971 7.4351
27.1292 31.6152 7.4732
27.0945 31.6328 7.5107
27.0602 31.6501 7.548
26.7453 31.359 7.3918
26.7676 31.3888 7.4122
26.7898 31.4184 7.4327
26.812 31.4479 7.4532
26.8342 31.4773 7.4738
26.8565 31.5067 7.4944
26.8788 31.536 7.5152
26.9012 31.5653 7.5361
26.9238 31.5948 7.5572
26.9465 31.6243 7.5784
26.1892 31.5253 7.9007
26.2663 31.5421 7.8727
26.3415 31.5582 7.8456
26.4152 31.5736 7.8193
26.4878 31.5886 7.7937
26.5595 31.603 7.7685
26.6309 31.6171 7.7438
26.7021 31.6308 7.7193
26.7735 31.6443 7.6949
26.8455 31.6576 7.6707
26.5063 31.7942 8.0242
26.5523 31.7846 7.9855
26.5975 31.775 7.9475
26.6421 31.7653 7.9101
26.6863 31.7556 7.8733
26.7302 31.7457 7.8368
26.7738 31.7358 7.8007
26.8174 31.7258 7.7648
26.8609 31.7156 7.7291
26.9045 31.7052 7.6934
27.1304 31.9477 7.8566
27.117 31.9224 7.8337
27.1038 31.8975 7.8112
27.0909 31.8728 7.789
27.0781 31.8485 7.7671
27.0654 31.8244 7.7456
27.053 31.8005 7.7244
27.0406 31.7768 7.7034
27.0284 31.7533 7.6826
27.0164 31.73 7.6621
27.7387 31.5478 7.106
27.6552 31.5644 7.1625
27.5763 31.5799 7.2161
27.5014 31.5943 7.2672
27.4299 31.6078 7.3162
27.3615 31.6204 7.3634
27.2956 31.6324 7.409
27.2318 31.6437 7.4533
27.17 31.6544 7.4966
27.1096 31.6647 7.5389
27.0506 31.6744 7.5806
27.1009 31.4224 7.2752
27.0907 31.4474 7.3075
27.0805 31.4721 7.3396
27.0705 31.4964 7.3714
27.0605 31.5205 7.403
27.0507 31.5443 7.4344
27.0409 31.568 7.4657
27.0312 31.5914 7.497
27.0215 31.6147 7.5281
27.0118 31.6378 7.5593
27.0022 31.6608 7.5905
26.4152 31.4408 7.668
26.4676 31.4638 7.6632
26.5197 31.4863 7.6586
26.5715 31.5086 7.6541
26.6232 31.5307 7.6497
26.6748 31.5527 7.6454
26.7267 31.5745 7.6413
26.7788 31.5962 7.6372
26.8312 31.618 7.6332
26.8843 31.6398 7.6293
26.938 31.6617 7.6255
26.8109 31.8801 7.9505
26.8279 31.8621 7.9193
26.8447 31.8441 7.8886
26.8615 31.8262 7.8581
26.878 31.8084 7.828
26.8945 31.7906 7.798
26.911 31.7729 7.7683
26.9273 31.7551 7.7388
26.9436 31.7374 7.7094
26.9599 31.7196 7.6801
26.9762 31.7017 7.6509
27.5233 32.0018 7.7202
27.4674 31.9691 7.7094
27.4136 31.9374 7.6991
27.3616 31.9066 7.6891
27.3112 31.8767 7.6796
27.2623 31.8475 7.6705
27.2148 31.819 7.6617
27.1684 31.7911 7.6532
27.1231 31.7636 7.645
27.0788 31.7366 7.637
27.0353 31.7101 7.6293
27.5233 32.0018 7.7202
27.4674 31.9691 7.7094
27.4136 31.9374 7.6991
27.3616 31.9066 7.6891
27.3112 31.8767 7.6796
27.2623 31.8475 7.6705
27.2148 31.819 7.6617
27.1684 31.7911 7.6532
27.1231 31.7636 7.645
27.0788 31.7366 7.637
27.0353 31.7101 7.6293
26.9925 31.6838 7.6218
26.9925 31.6838 7.6218
3 80 3 2 0.38366138197577193 0.4723438042081284 0.22291221087261137
3 56 3 80 0.38366138197577193 0.4723438042081284 0.22291221087261137
3 13 362 14 0.38366138197577193 0.4723438042081284 0.22291221087261137
3 190 189 60 0.38366138197577193 0.4723438042081284 0.22291221087261137
3 9 8 60 0.38366138197577193 0.4723438042081284 0.22291221087261137
3 60 189 9 0.38366138197577193 0.4723438042081284 0.22291221087261137
3 146 362 13 0.38366138197577193 0.4723438042081284 0.22291221087261137
3 146 13 11 0.38366138197577193 0.4723438042081284 0.22291221087261137
3 149 191 192 0.38366138197577193 0.4723438042081284 0.22291221087261137
3 192 191 62 0.38366138197577193 0.4723438042081284 0.22291221087261137
3 30 227 31 0.38366138197577193 0.4723438042081284 0.22291221087261137
3 34 33 100 0.38366138197577193 0.4723438042081284 0.22291221087261137
3 274 426 414 0.38366138197577193 0.4723438042081284 0.22291221087261137
3 414 413 274 0.38366138197577193 0.4723438042081284 0.22291221087261137
3 182 2 1 0.38366138197577193 0.4723438042081284 0.22291221087261137
3 80 2 182 0.38366138197577193 0.4723438042081284 0.22291221087261137
3 5 140 6 0.38366138197577193 0.4723438042081284 0.22291221087261137
3 57 56 80 0.38366138197577193 0.4723438042081284 0.22291221087261137
3 148 191 149 0.38366138197577193 0.4723438042081284 0.22291221087261137
3 190 191 148 0.38366138197577193 0.4723438042081284 0.22291221087261137
3 275 60 8 0.38366138197577193 0.4723438042081284 0.22291221087261137
3 275 8 6 0.38366138197577193 0.4723438042081284 0.22291221087261137
3 6 140 275 0.38366138197577193 0.4723438042081284 0.22291221087261137
3 9 189 10 0.38366138197577193 0.4723438042081284 0.22291221087261137
3 189 146 10 0.38366138197577193 0.4723438042081284 0.22291221087261137
3 10 146 11 0.38366138197577193 0.4723438042081284 0.22291221087261137
3 277 141 142 0.38366138197577193 0.4723438042081284 0.22291221087261137
3 367 195 368 0.38366138197577193 0.4723438042081284 0.22291221087261137
3 368 208 367 0.38366138197577193 0.4723438042081284 0.22291221087261137
3 209 208 368 0.38366138197577193 0.4723438042081284 0.22291221087261137
3 318 209 210 0.38366138197577193 0.4723438042081284 0.22291221087261137
3 308 282 281 0.38366138197577193 0.4723438042081284 0.22291221087261137
3 281 282 195 0.38366138197577193 0.4723438042081284 0.22291221087261137
3 416 405 428 0.38366138197577193 0.4723438042081284 0.22291221087261137
3 428 405 394 0.38366138197577193 0.4723438042081284 0.22291221087261137
3 341 340 392 0.38366138197577193 0.4723438042081284 0.22291221087261137
3 162 163 389 0.38366138197577193 0.4723438042081284 0.22291221087261137
3 31 227 76 0.38366138197577193 0.4723438042081284 0.22291221087261137
3 76 32 31 0.38366138197577193 0.4723438042081284 0.22291221087261137
3 103 238 334 0.38366138197577193 0.4723438042081284 0.22291221087261137
3 166 294 171 0.38366138197577193 0.4723438042081284 0.22291221087261137
3 34 100 235 0.38366138197577193 0.4723438042081284 0.22291221087261137
3 235 35 34 0.38366138197577193 0.4723438042081284 0.22291221087261137
3 301 340 341 0.38366138197577193 0.4723438042081284 0.22291221087261137
3 389 163 390 0.38366138197577193 0.4723438042081284 0.22291221087261137
3 390 163 290 0.38366138197577193 0.4723438042081284 0.22291221087261137
3 295 294 172 0.38366138197577193 0.4723438042081284 0.22291221087261137
3 172 166 237 0.38366138197577193 0.4723438042081284 0.22291221087261137
3 294 166 172 0.38366138197577193 0.4723438042081284 0.22291221087261137
3 105 41 40 0.38366138197577193 0.4723438042081284 0.22291221087261137
3 171 294 293 0.38366138197577193 0.4723438042081284 0.22291221087261137
3 293 105 40 0.38366138197577193 0.4723438042081284 0.22291221087261137
3 294 105 293 0.38366138197577193 0.4723438042081284 0.22291221087261137
3 388 162 389 0.38366138197577193 0.4723438042081284 0.22291221087261137
3 251 46 45 0.38366138197577193 0.4723438042081284 0.22291221087261137
3 406 182 1 0.38366138197577193 0.4723438042081284 0.22291221087261137
3 1 54 406 0.38366138197577193 0.4723438042081284 0.22291221087261137
3 406 54 407 0.38366138197577193 0.4723438042081284 0.22291221087261137
3 3 56 4 0.38366138197577193 0.4723438042081284 0.22291221087261137
3 56 57 303 0.38366138197577193 0.4723438042081284 0.22291221087261137
3 142 141 303 0.38366138197577193 0.4723438042081284 0.22291221087261137
3 142 143 278 0.38366138197577193 0.4723438042081284 0.22291221087261137
3 278 277 142 0.38366138197577193 0.4723438042081284 0.22291221087261137
3 304 57 58 0.38366138197577193 0.4723438042081284 0.22291221087261137
3 304 303 57 0.38366138197577193 0.4723438042081284 0.22291221087261137
3 304 143 142 0.38366138197577193 0.4723438042081284 0.22291221087261137
3 142 303 304 0.38366138197577193 0.4723438042081284 0.22291221087261137
3 305 304 58 0.38366138197577193 0.4723438042081284 0.22291221087261137
3 143 304 305 0.38366138197577193 0.4723438042081284 0.22291221087261137
3 184 407 408 0.38366138197577193 0.4723438042081284 0.22291221087261137
3 407 54 176 0.38366138197577193 0.4723438042081284 0.22291221087261137
3 176 408 407 0.38366138197577193 0.4723438042081284 0.22291221087261137
3 177 408 176 0.38366138197577193 0.4723438042081284 0.22291221087261137
3 176 54 53 0.38366138197577193 0.4723438042081284 0.22291221087261137
3 53 177 176 0.38366138197577193 0.4723438042081284 0.22291221087261137
3 272 413 181 0.38366138197577193 0.4723438042081284 0.22291221087261137
3 136 135 352 0.38366138197577193 0.4723438042081284 0.22291221087261137
3 273 413 272 0.38366138197577193 0.4723438042081284 0.22291221087261137
3 273 274 413 0.38366138197577193 0.4723438042081284 0.22291221087261137
3 147 363 362 0.38366138197577193 0.4723438042081284 0.22291221087261137
3 147 148 363 0.38366138197577193 0.4723438042081284 0.22291221087261137
3 190 148 147 0.38366138197577193 0.4723438042081284 0.22291221087261137
3 147 189 190 0.38366138197577193 0.4723438042081284 0.22291221087261137
3 362 146 147 0.38366138197577193 0.4723438042081284 0.22291221087261137
3 147 146 189 0.38366138197577193 0.4723438042081284 0.22291221087261137
3 141 277 276 0.38366138197577193 0.4723438042081284 0.22291221087261137
3 140 141 276 0.38366138197577193 0.4723438042081284 0.22291221087261137
3 276 275 140 0.38366138197577193 0.4723438042081284 0.22291221087261137
3 276 277 62 0.38366138197577193 0.4723438042081284 0.22291221087261137
3 363 86 85 0.38366138197577193 0.4723438042081284 0.22291221087261137
3 15 14 85 0.38366138197577193 0.4723438042081284 0.22291221087261137
3 85 14 362 0.38366138197577193 0.4723438042081284 0.22291221087261137
3 362 363 85 0.38366138197577193 0.4723438042081284 0.22291221087261137
3 203 86 204 0.38366138197577193 0.4723438042081284 0.22291221087261137
3 203 16 15 0.38366138197577193 0.4723438042081284 0.22291221087261137
3 15 85 203 0.38366138197577193 0.4723438042081284 0.22291221087261137
3 203 85 86 0.38366138197577193 0.4723438042081284 0.22291221087261137
3 363 148 364 0.38366138197577193 0.4723438042081284 0.22291221087261137
3 364 86 363 0.38366138197577193 0.4723438042081284 0.22291221087261137
3 364 148 149 0.38366138197577193 0.4723438042081284 0.22291221087261137
3 195 367 194 0.38366138197577193 0.4723438042081284 0.22291221087261137
3 193 194 151 0.38366138197577193 0.4723438042081284 0.22291221087261137
3 151 194 367 0.38366138197577193 0.4723438042081284 0.22291221087261137
3 208 209 317 0.38366138197577193 0.4723438042081284 0.22291221087261137
3 317 209 318 0.38366138197577193 0.4723438042081284 0.22291221087261137
3 318 216 317 0.38366138197577193 0.4723438042081284 0.22291221087261137
3 369 210 209 0.38366138197577193 0.4723438042081284 0.22291221087261137
3 369 209 368 0.38366138197577193 0.4723438042081284 0.22291221087261137
3 282 283 369 0.38366138197577193 0.4723438042081284 0.22291221087261137
3 368 195 369 0.38366138197577193 0.4723438042081284 0.22291221087261137
3 195 282 369 0.38366138197577193 0.4723438042081284 0.22291221087261137
3 308 281 307 0.38366138197577193 0.4723438042081284 0.22291221087261137
3 307 84 308 0.38366138197577193 0.4723438042081284 0.22291221087261137
3 306 84 307 0.38366138197577193 0.4723438042081284 0.22291221087261137
3 414 426 311 0.38366138197577193 0.4723438042081284 0.22291221087261137
3 217 218 379 0.38366138197577193 0.4723438042081284 0.22291221087261137
3 217 216 318 0.38366138197577193 0.4723438042081284 0.22291221087261137
3 75 216 377 0.38366138197577193 0.4723438042081284 0.22291221087261137
3 341 392 393 0.38366138197577193 0.4723438042081284 0.22291221087261137
3 383 416 428 0.38366138197577193 0.4723438042081284 0.22291221087261137
3 428 394 383 0.38366138197577193 0.4723438042081284 0.22291221087261137
3 379 218 380 0.38366138197577193 0.4723438042081284 0.22291221087261137
3 26 25 196 0.38366138197577193 0.4723438042081284 0.22291221087261137
3 25 197 196 0.38366138197577193 0.4723438042081284 0.22291221087261137
3 290 163 289 0.38366138197577193 0.4723438042081284 0.22291221087261137
3 202 291 290 0.38366138197577193 0.4723438042081284 0.22291221087261137
3 327 202 201 0.38366138197577193 0.4723438042081284 0.22291221087261137
3 201 289 200 0.38366138197577193 0.4723438042081284 0.22291221087261137
3 290 289 201 0.38366138197577193 0.4723438042081284 0.22291221087261137
3 201 202 290 0.38366138197577193 0.4723438042081284 0.22291221087261137
3 379 380 225 0.38366138197577193 0.4723438042081284 0.22291221087261137
3 332 100 33 0.38366138197577193 0.4723438042081284 0.22291221087261137
3 332 101 100 0.38366138197577193 0.4723438042081284 0.22291221087261137
3 33 32 332 0.38366138197577193 0.4723438042081284 0.22291221087261137
3 32 76 332 0.38366138197577193 0.4723438042081284 0.22291221087261137
3 332 76 333 0.38366138197577193 0.4723438042081284 0.22291221087261137
3 333 101 332 0.38366138197577193 0.4723438042081284 0.22291221087261137
3 333 76 77 0.38366138197577193 0.4723438042081284 0.22291221087261137
3 77 334 333 0.38366138197577193 0.4723438042081284 0.22291221087261137
3 77 76 227 0.38366138197577193 0.4723438042081284 0.22291221087261137
3 77 78 334 0.38366138197577193 0.4723438042081284 0.22291221087261137
3 333 334 102 0.38366138197577193 0.4723438042081284 0.22291221087261137
3 102 334 238 0.38366138197577193 0.4723438042081284 0.22291221087261137
3 237 101 102 0.38366138197577193 0.4723438042081284 0.22291221087261137
3 102 101 333 0.38366138197577193 0.4723438042081284 0.22291221087261137
3 35 235 164 0.38366138197577193 0.4723438042081284 0.22291221087261137
3 164 235 165 0.38366138197577193 0.4723438042081284 0.22291221087261137
3 36 35 164 0.38366138197577193 0.4723438042081284 0.22291221087261137
3 164 38 36 0.38366138197577193 0.4723438042081284 0.22291221087261137
3 165 235 236 0.38366138197577193 0.4723438042081284 0.22291221087261137
3 236 235 100 0.38366138197577193 0.4723438042081284 0.22291221087261137
3 171 165 236 0.38366138197577193 0.4723438042081284 0.22291221087261137
3 236 166 171 0.38366138197577193 0.4723438042081284 0.22291221087261137
3 100 101 236 0.38366138197577193 0.4723438042081284 0.22291221087261137
3 236 101 237 0.38366138197577193 0.4723438042081284 0.22291221087261137
3 237 166 236 0.38366138197577193 0.4723438042081284 0.22291221087261137
3 391 392 340 0.38366138197577193 0.4723438042081284 0.22291221087261137
3 391 291 392 0.38366138197577193 0.4723438042081284 0.22291221087261137
3 391 390 290 0.38366138197577193 0.4723438042081284 0.22291221087261137
3 290 291 391 0.38366138197577193 0.4723438042081284 0.22291221087261137
3 295 173 107 0.38366138197577193 0.4723438042081284 0.22291221087261137
3 107 173 296 0.38366138197577193 0.4723438042081284 0.22291221087261137
3 41 105 243 0.38366138197577193 0.4723438042081284 0.22291221087261137
3 239 104 169 0.38366138197577193 0.4723438042081284 0.22291221087261137
3 169 104 240 0.38366138197577193 0.4723438042081284 0.22291221087261137
3 39 293 40 0.38366138197577193 0.4723438042081284 0.22291221087261137
3 227 30 95 0.38366138197577193 0.4723438042081284 0.22291221087261137
3 96 95 384 0.38366138197577193 0.4723438042081284 0.22291221087261137
3 336 79 230 0.38366138197577193 0.4723438042081284 0.22291221087261137
3 230 337 336 0.38366138197577193 0.4723438042081284 0.22291221087261137
3 336 337 240 0.38366138197577193 0.4723438042081284 0.22291221087261137
3 240 104 336 0.38366138197577193 0.4723438042081284 0.22291221087261137
3 336 104 79 0.38366138197577193 0.4723438042081284 0.22291221087261137
3 231 337 230 0.38366138197577193 0.4723438042081284 0.22291221087261137
3 389 390 233 0.38366138197577193 0.4723438042081284 0.22291221087261137
3 240 337 241 0.38366138197577193 0.4723438042081284 0.22291221087261137
3 241 337 338 0.38366138197577193 0.4723438042081284 0.22291221087261137
3 338 242 241 0.38366138197577193 0.4723438042081284 0.22291221087261137
3 395 48 47 0.38366138197577193 0.4723438042081284 0.22291221087261137
3 45 44 115 0.38366138197577193 0.4723438042081284 0.22291221087261137
3 182 406 183 0.38366138197577193 0.4723438042081284 0.22291221087261137
3 184 82 183 0.38366138197577193 0.4723438042081284 0.22291221087261137
3 183 407 184 0.38366138197577193 0.4723438042081284 0.22291221087261137
3 183 406 407 0.38366138197577193 0.4723438042081284 0.22291221087261137
3 81 82 58 0.38366138197577193 0.4723438042081284 0.22291221087261137
3 80 182 81 0.38366138197577193 0.4723438042081284 0.22291221087261137
3 182 183 81 0.38366138197577193 0.4723438042081284 0.22291221087261137
3 81 183 82 0.38366138197577193 0.4723438042081284 0.22291221087261137
3 81 57 80 0.38366138197577193 0.4723438042081284 0.22291221087261137
3 58 57 81 0.38366138197577193 0.4723438042081284 0.22291221087261137
3 302 303 141 0.38366138197577193 0.4723438042081284 0.22291221087261137
3 5 4 302 0.38366138197577193 0.4723438042081284 0.22291221087261137
3 302 4 56 0.38366138197577193 0.4723438042081284 0.22291221087261137
3 56 303 302 0.38366138197577193 0.4723438042081284 0.22291221087261137
3 302 141 140 0.38366138197577193 0.4723438042081284 0.22291221087261137
3 140 5 302 0.38366138197577193 0.4723438042081284 0.22291221087261137
3 193 192 63 0.38366138197577193 0.4723438042081284 0.22291221087261137
3 63 192 62 0.38366138197577193 0.4723438042081284 0.22291221087261137
3 62 277 63 0.38366138197577193 0.4723438042081284 0.22291221087261137
3 277 278 63 0.38366138197577193 0.4723438042081284 0.22291221087261137
3 83 84 306 0.38366138197577193 0.4723438042081284 0.22291221087261137
3 83 82 184 0.38366138197577193 0.4723438042081284 0.22291221087261137
3 184 408 185 0.38366138197577193 0.4723438042081284 0.22291221087261137
3 185 83 184 0.38366138197577193 0.4723438042081284 0.22291221087261137
3 84 83 185 0.38366138197577193 0.4723438042081284 0.22291221087261137
3 53 52 267 0.38366138197577193 0.4723438042081284 0.22291221087261137
3 267 177 53 0.38366138197577193 0.4723438042081284 0.22291221087261137
3 267 178 177 0.38366138197577193 0.4723438042081284 0.22291221087261137
3 269 135 136 0.38366138197577193 0.4723438042081284 0.22291221087261137
3 308 188 309 0.38366138197577193 0.4723438042081284 0.22291221087261137
3 309 282 308 0.38366138197577193 0.4723438042081284 0.22291221087261137
3 309 283 282 0.38366138197577193 0.4723438042081284 0.22291221087261137
3 411 181 423 0.38366138197577193 0.4723438042081284 0.22291221087261137
3 423 188 411 0.38366138197577193 0.4723438042081284 0.22291221087261137
3 423 181 413 0.38366138197577193 0.4723438042081284 0.22291221087261137
3 413 188 423 0.38366138197577193 0.4723438042081284 0.22291221087261137
3 421 411 187 0.38366138197577193 0.4723438042081284 0.22291221087261137
3 411 188 187 0.38366138197577193 0.4723438042081284 0.22291221087261137
3 308 84 187 0.38366138197577193 0.4723438042081284 0.22291221087261137
3 187 188 308 0.38366138197577193 0.4723438042081284 0.22291221087261137
3 139 138 355 0.38366138197577193 0.4723438042081284 0.22291221087261137
3 139 273 272 0.38366138197577193 0.4723438042081284 0.22291221087261137
3 137 269 136 0.38366138197577193 0.4723438042081284 0.22291221087261137
3 51 135 52 0.38366138197577193 0.4723438042081284 0.22291221087261137
3 51 352 135 0.38366138197577193 0.4723438042081284 0.22291221087261137
3 50 352 51 0.38366138197577193 0.4723438042081284 0.22291221087261137
3 60 275 61 0.38366138197577193 0.4723438042081284 0.22291221087261137
3 275 276 61 0.38366138197577193 0.4723438042081284 0.22291221087261137
3 190 60 61 0.38366138197577193 0.4723438042081284 0.22291221087261137
3 61 276 62 0.38366138197577193 0.4723438042081284 0.22291221087261137
3 61 191 190 0.38366138197577193 0.4723438042081284 0.22291221087261137
3 62 191 61 0.38366138197577193 0.4723438042081284 0.22291221087261137
3 64 17 16 0.38366138197577193 0.4723438042081284 0.22291221087261137
3 64 203 204 0.38366138197577193 0.4723438042081284 0.22291221087261137
3 16 203 64 0.38366138197577193 0.4723438042081284 0.22291221087261137
3 204 86 87 0.38366138197577193 0.4723438042081284 0.22291221087261137
3 86 364 87 0.38366138197577193 0.4723438042081284 0.22291221087261137
3 149 365 87 0.38366138197577193 0.4723438042081284 0.22291221087261137
3 87 364 149 0.38366138197577193 0.4723438042081284 0.22291221087261137
3 279 194 193 0.38366138197577193 0.4723438042081284 0.22291221087261137
3 193 63 279 0.38366138197577193 0.4723438042081284 0.22291221087261137
3 279 63 278 0.38366138197577193 0.4723438042081284 0.22291221087261137
3 279 278 143 0.38366138197577193 0.4723438042081284 0.22291221087261137
3 150 192 193 0.38366138197577193 0.4723438042081284 0.22291221087261137
3 149 192 150 0.38366138197577193 0.4723438042081284 0.22291221087261137
3 150 365 149 0.38366138197577193 0.4723438042081284 0.22291221087261137
3 319 320 218 0.38366138197577193 0.4723438042081284 0.22291221087261137
3 218 217 319 0.38366138197577193 0.4723438042081284 0.22291221087261137
3 318 210 319 0.38366138197577193 0.4723438042081284 0.22291221087261137
3 319 217 318 0.38366138197577193 0.4723438042081284 0.22291221087261137
3 210 369 370 0.38366138197577193 0.4723438042081284 0.22291221087261137
3 370 369 283 0.38366138197577193 0.4723438042081284 0.22291221087261137
3 370 319 210 0.38366138197577193 0.4723438042081284 0.22291221087261137
3 320 319 370 0.38366138197577193 0.4723438042081284 0.22291221087261137
3 310 413 414 0.38366138197577193 0.4723438042081284 0.22291221087261137
3 414 311 310 0.38366138197577193 0.4723438042081284 0.22291221087261137
3 310 188 413 0.38366138197577193 0.4723438042081284 0.22291221087261137
3 310 309 188 0.38366138197577193 0.4723438042081284 0.22291221087261137
3 283 309 310 0.38366138197577193 0.4723438042081284 0.22291221087261137
3 426 416 372 0.38366138197577193 0.4723438042081284 0.22291221087261137
3 372 311 426 0.38366138197577193 0.4723438042081284 0.22291221087261137
3 416 383 372 0.38366138197577193 0.4723438042081284 0.22291221087261137
3 372 382 321 0.38366138197577193 0.4723438042081284 0.22291221087261137
3 372 383 382 0.38366138197577193 0.4723438042081284 0.22291221087261137
3 75 377 376 0.38366138197577193 0.4723438042081284 0.22291221087261137
3 216 217 378 0.38366138197577193 0.4723438042081284 0.22291221087261137
3 378 377 216 0.38366138197577193 0.4723438042081284 0.22291221087261137
3 378 217 379 0.38366138197577193 0.4723438042081284 0.22291221087261137
3 153 323 152 0.38366138197577193 0.4723438042081284 0.22291221087261137
3 219 153 152 0.38366138197577193 0.4723438042081284 0.22291221087261137
3 220 153 219 0.38366138197577193 0.4723438042081284 0.22291221087261137
3 207 367 208 0.38366138197577193 0.4723438042081284 0.22291221087261137
3 208 315 207 0.38366138197577193 0.4723438042081284 0.22291221087261137
3 207 315 67 0.38366138197577193 0.4723438042081284 0.22291221087261137
3 204 87 205 0.38366138197577193 0.4723438042081284 0.22291221087261137
3 392 291 292 0.38366138197577193 0.4723438042081284 0.22291221087261137
3 292 393 392 0.38366138197577193 0.4723438042081284 0.22291221087261137
3 382 383 331 0.38366138197577193 0.4723438042081284 0.22291221087261137
3 331 383 394 0.38366138197577193 0.4723438042081284 0.22291221087261137
3 394 393 331 0.38366138197577193 0.4723438042081284 0.22291221087261137
3 331 292 330 0.38366138197577193 0.4723438042081284 0.22291221087261137
3 393 292 331 0.38366138197577193 0.4723438042081284 0.22291221087261137
3 321 382 381 0.38366138197577193 0.4723438042081284 0.22291221087261137
3 381 320 321 0.38366138197577193 0.4723438042081284 0.22291221087261137
3 218 320 381 0.38366138197577193 0.4723438042081284 0.22291221087261137
3 381 380 218 0.38366138197577193 0.4723438042081284 0.22291221087261137
3 322 197 25 0.38366138197577193 0.4723438042081284 0.22291221087261137
3 322 25 24 0.38366138197577193 0.4723438042081284 0.22291221087261137
3 322 24 152 0.38366138197577193 0.4723438042081284 0.22291221087261137
3 152 323 322 0.38366138197577193 0.4723438042081284 0.22291221087261137
3 200 289 288 0.38366138197577193 0.4723438042081284 0.22291221087261137
3 287 199 288 0.38366138197577193 0.4723438042081284 0.22291221087261137
3 288 199 200 0.38366138197577193 0.4723438042081284 0.22291221087261137
3 288 162 287 0.38366138197577193 0.4723438042081284 0.22291221087261137
3 163 162 288 0.38366138197577193 0.4723438042081284 0.22291221087261137
3 288 289 163 0.38366138197577193 0.4723438042081284 0.22291221087261137
3 323 199 198 0.38366138197577193 0.4723438042081284 0.22291221087261137
3 197 322 198 0.38366138197577193 0.4723438042081284 0.22291221087261137
3 198 322 323 0.38366138197577193 0.4723438042081284 0.22291221087261137
3 198 199 287 0.38366138197577193 0.4723438042081284 0.22291221087261137
3 327 201 326 0.38366138197577193 0.4723438042081284 0.22291221087261137
3 326 200 325 0.38366138197577193 0.4723438042081284 0.22291221087261137
3 326 201 200 0.38366138197577193 0.4723438042081284 0.22291221087261137
3 330 292 329 0.38366138197577193 0.4723438042081284 0.22291221087261137
3 329 292 291 0.38366138197577193 0.4723438042081284 0.22291221087261137
3 295 172 167 0.38366138197577193 0.4723438042081284 0.22291221087261137
3 167 173 295 0.38366138197577193 0.4723438042081284 0.22291221087261137
3 167 172 237 0.38366138197577193 0.4723438042081284 0.22291221087261137
3 238 173 167 0.38366138197577193 0.4723438042081284 0.22291221087261137
3 237 102 167 0.38366138197577193 0.4723438042081284 0.22291221087261137
3 167 102 238 0.38366138197577193 0.4723438042081284 0.22291221087261137
3 296 173 168 0.38366138197577193 0.4723438042081284 0.22291221087261137
3 168 173 238 0.38366138197577193 0.4723438042081284 0.22291221087261137
3 168 103 239 0.38366138197577193 0.4723438042081284 0.22291221087261137
3 168 238 103 0.38366138197577193 0.4723438042081284 0.22291221087261137
3 103 334 335 0.38366138197577193 0.4723438042081284 0.22291221087261137
3 334 78 335 0.38366138197577193 0.4723438042081284 0.22291221087261137
3 239 103 335 0.38366138197577193 0.4723438042081284 0.22291221087261137
3 335 104 239 0.38366138197577193 0.4723438042081284 0.22291221087261137
3 79 104 335 0.38366138197577193 0.4723438042081284 0.22291221087261137
3 335 78 79 0.38366138197577193 0.4723438042081284 0.22291221087261137
3 79 78 229 0.38366138197577193 0.4723438042081284 0.22291221087261137
3 96 97 229 0.38366138197577193 0.4723438042081284 0.22291221087261137
3 230 79 229 0.38366138197577193 0.4723438042081284 0.22291221087261137
3 229 97 230 0.38366138197577193 0.4723438042081284 0.22291221087261137
3 285 196 197 0.38366138197577193 0.4723438042081284 0.22291221087261137
3 287 162 161 0.38366138197577193 0.4723438042081284 0.22291221087261137
3 161 388 387 0.38366138197577193 0.4723438042081284 0.22291221087261137
3 162 388 161 0.38366138197577193 0.4723438042081284 0.22291221087261137
3 387 386 160 0.38366138197577193 0.4723438042081284 0.22291221087261137
3 386 159 160 0.38366138197577193 0.4723438042081284 0.22291221087261137
3 160 161 387 0.38366138197577193 0.4723438042081284 0.22291221087261137
3 159 285 160 0.38366138197577193 0.4723438042081284 0.22291221087261137
3 170 164 165 0.38366138197577193 0.4723438042081284 0.22291221087261137
3 38 164 170 0.38366138197577193 0.4723438042081284 0.22291221087261137
3 170 39 38 0.38366138197577193 0.4723438042081284 0.22291221087261137
3 293 39 170 0.38366138197577193 0.4723438042081284 0.22291221087261137
3 170 165 171 0.38366138197577193 0.4723438042081284 0.22291221087261137
3 171 293 170 0.38366138197577193 0.4723438042081284 0.22291221087261137
3 244 107 245 0.38366138197577193 0.4723438042081284 0.22291221087261137
3 106 243 105 0.38366138197577193 0.4723438042081284 0.22291221087261137
3 106 294 295 0.38366138197577193 0.4723438042081284 0.22291221087261137
3 106 105 294 0.38366138197577193 0.4723438042081284 0.22291221087261137
3 295 107 106 0.38366138197577193 0.4723438042081284 0.22291221087261137
3 106 107 244 0.38366138197577193 0.4723438042081284 0.22291221087261137
3 244 243 106 0.38366138197577193 0.4723438042081284 0.22291221087261137
3 244 110 42 0.38366138197577193 0.4723438042081284 0.22291221087261137
3 42 243 244 0.38366138197577193 0.4723438042081284 0.22291221087261137
3 42 110 43 0.38366138197577193 0.4723438042081284 0.22291221087261137
3 41 243 42 0.38366138197577193 0.4723438042081284 0.22291221087261137
3 174 169 297 0.38366138197577193 0.4723438042081284 0.22291221087261137
3 239 169 174 0.38366138197577193 0.4723438042081284 0.22291221087261137
3 174 168 239 0.38366138197577193 0.4723438042081284 0.22291221087261137
3 296 168 174 0.38366138197577193 0.4723438042081284 0.22291221087261137
3 158 384 28 0.38366138197577193 0.4723438042081284 0.22291221087261137
3 28 27 158 0.38366138197577193 0.4723438042081284 0.22291221087261137
3 385 97 96 0.38366138197577193 0.4723438042081284 0.22291221087261137
3 96 384 385 0.38366138197577193 0.4723438042081284 0.22291221087261137
3 386 97 385 0.38366138197577193 0.4723438042081284 0.22291221087261137
3 384 158 385 0.38366138197577193 0.4723438042081284 0.22291221087261137
3 385 159 386 0.38366138197577193 0.4723438042081284 0.22291221087261137
3 385 158 159 0.38366138197577193 0.4723438042081284 0.22291221087261137
3 29 95 30 0.38366138197577193 0.4723438042081284 0.22291221087261137
3 29 384 95 0.38366138197577193 0.4723438042081284 0.22291221087261137
3 28 384 29 0.38366138197577193 0.4723438042081284 0.22291221087261137
3 98 386 387 0.38366138197577193 0.4723438042081284 0.22291221087261137
3 98 97 386 0.38366138197577193 0.4723438042081284 0.22291221087261137
3 230 97 98 0.38366138197577193 0.4723438042081284 0.22291221087261137
3 98 231 230 0.38366138197577193 0.4723438042081284 0.22291221087261137
3 232 233 338 0.38366138197577193 0.4723438042081284 0.22291221087261137
3 338 337 232 0.38366138197577193 0.4723438042081284 0.22291221087261137
3 337 231 232 0.38366138197577193 0.4723438042081284 0.22291221087261137
3 232 388 389 0.38366138197577193 0.4723438042081284 0.22291221087261137
3 389 233 232 0.38366138197577193 0.4723438042081284 0.22291221087261137
3 339 242 338 0.38366138197577193 0.4723438042081284 0.22291221087261137
3 338 233 339 0.38366138197577193 0.4723438042081284 0.22291221087261137
3 339 300 242 0.38366138197577193 0.4723438042081284 0.22291221087261137
3 340 301 339 0.38366138197577193 0.4723438042081284 0.22291221087261137
3 301 300 339 0.38366138197577193 0.4723438042081284 0.22291221087261137
3 254 122 253 0.38366138197577193 0.4723438042081284 0.22291221087261137
3 344 345 117 0.38366138197577193 0.4723438042081284 0.22291221087261137
3 299 241 242 0.38366138197577193 0.4723438042081284 0.22291221087261137
3 242 300 299 0.38366138197577193 0.4723438042081284 0.22291221087261137
3 248 247 299 0.38366138197577193 0.4723438042081284 0.22291221087261137
3 113 345 344 0.38366138197577193 0.4723438042081284 0.22291221087261137
3 114 247 248 0.38366138197577193 0.4723438042081284 0.22291221087261137
3 248 346 114 0.38366138197577193 0.4723438042081284 0.22291221087261137
3 114 346 345 0.38366138197577193 0.4723438042081284 0.22291221087261137
3 345 113 114 0.38366138197577193 0.4723438042081284 0.22291221087261137
3 114 113 247 0.38366138197577193 0.4723438042081284 0.22291221087261137
3 175 169 240 0.38366138197577193 0.4723438042081284 0.22291221087261137
3 297 169 175 0.38366138197577193 0.4723438042081284 0.22291221087261137
3 253 122 121 0.38366138197577193 0.4723438042081284 0.22291221087261137
3 121 395 47 0.38366138197577193 0.4723438042081284 0.22291221087261137
3 116 251 45 0.38366138197577193 0.4723438042081284 0.22291221087261137
3 45 115 116 0.38366138197577193 0.4723438042081284 0.22291221087261137
3 344 117 116 0.38366138197577193 0.4723438042081284 0.22291221087261137
3 116 117 251 0.38366138197577193 0.4723438042081284 0.22291221087261137
3 82 83 59 0.38366138197577193 0.4723438042081284 0.22291221087261137
3 58 82 59 0.38366138197577193 0.4723438042081284 0.22291221087261137
3 59 305 58 0.38366138197577193 0.4723438042081284 0.22291221087261137
3 306 305 59 0.38366138197577193 0.4723438042081284 0.22291221087261137
3 59 83 306 0.38366138197577193 0.4723438042081284 0.22291221087261137
3 420 185 408 0.38366138197577193 0.4723438042081284 0.22291221087261137
3 420 178 421 0.38366138197577193 0.4723438042081284 0.22291221087261137
3 420 408 177 0.38366138197577193 0.4723438042081284 0.22291221087261137
3 177 178 420 0.38366138197577193 0.4723438042081284 0.22291221087261137
3 270 137 138 0.38366138197577193 0.4723438042081284 0.22291221087261137
3 269 137 270 0.38366138197577193 0.4723438042081284 0.22291221087261137
3 178 267 268 0.38366138197577193 0.4723438042081284 0.22291221087261137
3 135 269 268 0.38366138197577193 0.4723438042081284 0.22291221087261137
3 52 135 268 0.38366138197577193 0.4723438042081284 0.22291221087261137
3 268 267 52 0.38366138197577193 0.4723438042081284 0.22291221087261137
3 130 352 50 0.38366138197577193 0.4723438042081284 0.22291221087261137
3 352 130 353 0.38366138197577193 0.4723438042081284 0.22291221087261137
3 353 130 131 0.38366138197577193 0.4723438042081284 0.22291221087261137
3 136 352 353 0.38366138197577193 0.4723438042081284 0.22291221087261137
3 353 137 136 0.38366138197577193 0.4723438042081284 0.22291221087261137
3 404 394 405 0.38366138197577193 0.4723438042081284 0.22291221087261137
3 143 305 144 0.38366138197577193 0.4723438042081284 0.22291221087261137
3 144 279 143 0.38366138197577193 0.4723438042081284 0.22291221087261137
3 144 305 306 0.38366138197577193 0.4723438042081284 0.22291221087261137
3 215 317 216 0.38366138197577193 0.4723438042081284 0.22291221087261137
3 215 214 317 0.38366138197577193 0.4723438042081284 0.22291221087261137
3 215 216 75 0.38366138197577193 0.4723438042081284 0.22291221087261137
3 75 214 215 0.38366138197577193 0.4723438042081284 0.22291221087261137
3 317 214 316 0.38366138197577193 0.4723438042081284 0.22291221087261137
3 208 317 316 0.38366138197577193 0.4723438042081284 0.22291221087261137
3 316 315 208 0.38366138197577193 0.4723438042081284 0.22291221087261137
3 320 370 371 0.38366138197577193 0.4723438042081284 0.22291221087261137
3 321 320 371 0.38366138197577193 0.4723438042081284 0.22291221087261137
3 371 370 283 0.38366138197577193 0.4723438042081284 0.22291221087261137
3 371 372 321 0.38366138197577193 0.4723438042081284 0.22291221087261137
3 311 372 371 0.38366138197577193 0.4723438042081284 0.22291221087261137
3 283 310 371 0.38366138197577193 0.4723438042081284 0.22291221087261137
3 371 310 311 0.38366138197577193 0.4723438042081284 0.22291221087261137
3 375 376 92 0.38366138197577193 0.4723438042081284 0.22291221087261137
3 75 376 375 0.38366138197577193 0.4723438042081284 0.22291221087261137
3 323 153 324 0.38366138197577193 0.4723438042081284 0.22291221087261137
3 324 199 323 0.38366138197577193 0.4723438042081284 0.22291221087261137
3 325 200 324 0.38366138197577193 0.4723438042081284 0.22291221087261137
3 200 199 324 0.38366138197577193 0.4723438042081284 0.22291221087261137
3 152 24 23 0.38366138197577193 0.4723438042081284 0.22291221087261137
3 23 219 152 0.38366138197577193 0.4723438042081284 0.22291221087261137
3 373 374 90 0.38366138197577193 0.4723438042081284 0.22291221087261137
3 219 23 90 0.38366138197577193 0.4723438042081284 0.22291221087261137
3 314 315 70 0.38366138197577193 0.4723438042081284 0.22291221087261137
3 67 315 314 0.38366138197577193 0.4723438042081284 0.22291221087261137
3 18 17 312 0.38366138197577193 0.4723438042081284 0.22291221087261137
3 17 64 312 0.38366138197577193 0.4723438042081284 0.22291221087261137
3 330 329 226 0.38366138197577193 0.4723438042081284 0.22291221087261137
3 226 329 225 0.38366138197577193 0.4723438042081284 0.22291221087261137
3 226 331 330 0.38366138197577193 0.4723438042081284 0.22291221087261137
3 226 225 380 0.38366138197577193 0.4723438042081284 0.22291221087261137
3 380 381 226 0.38366138197577193 0.4723438042081284 0.22291221087261137
3 382 331 226 0.38366138197577193 0.4723438042081284 0.22291221087261137
3 226 381 382 0.38366138197577193 0.4723438042081284 0.22291221087261137
3 225 329 157 0.38366138197577193 0.4723438042081284 0.22291221087261137
3 221 220 92 0.38366138197577193 0.4723438042081284 0.22291221087261137
3 94 378 379 0.38366138197577193 0.4723438042081284 0.22291221087261137
3 377 378 94 0.38366138197577193 0.4723438042081284 0.22291221087261137
3 228 229 78 0.38366138197577193 0.4723438042081284 0.22291221087261137
3 227 95 228 0.38366138197577193 0.4723438042081284 0.22291221087261137
3 228 95 96 0.38366138197577193 0.4723438042081284 0.22291221087261137
3 96 229 228 0.38366138197577193 0.4723438042081284 0.22291221087261137
3 228 77 227 0.38366138197577193 0.4723438042081284 0.22291221087261137
3 78 77 228 0.38366138197577193 0.4723438042081284 0.22291221087261137
3 284 285 159 0.38366138197577193 0.4723438042081284 0.22291221087261137
3 284 158 27 0.38366138197577193 0.4723438042081284 0.22291221087261137
3 159 158 284 0.38366138197577193 0.4723438042081284 0.22291221087261137
3 196 285 284 0.38366138197577193 0.4723438042081284 0.22291221087261137
3 284 27 26 0.38366138197577193 0.4723438042081284 0.22291221087261137
3 26 196 284 0.38366138197577193 0.4723438042081284 0.22291221087261137
3 197 198 286 0.38366138197577193 0.4723438042081284 0.22291221087261137
3 286 285 197 0.38366138197577193 0.4723438042081284 0.22291221087261137
3 286 198 287 0.38366138197577193 0.4723438042081284 0.22291221087261137
3 287 161 286 0.38366138197577193 0.4723438042081284 0.22291221087261137
3 286 160 285 0.38366138197577193 0.4723438042081284 0.22291221087261137
3 161 160 286 0.38366138197577193 0.4723438042081284 0.22291221087261137
3 250 300 301 0.38366138197577193 0.4723438042081284 0.22291221087261137
3 249 250 348 0.38366138197577193 0.4723438042081284 0.22291221087261137
3 300 250 249 0.38366138197577193 0.4723438042081284 0.22291221087261137
3 249 346 248 0.38366138197577193 0.4723438042081284 0.22291221087261137
3 248 299 249 0.38366138197577193 0.4723438042081284 0.22291221087261137
3 249 299 300 0.38366138197577193 0.4723438042081284 0.22291221087261137
3 111 110 244 0.38366138197577193 0.4723438042081284 0.22291221087261137
3 244 245 111 0.38366138197577193 0.4723438042081284 0.22291221087261137
3 43 110 111 0.38366138197577193 0.4723438042081284 0.22291221087261137
3 108 107 296 0.38366138197577193 0.4723438042081284 0.22291221087261137
3 108 245 107 0.38366138197577193 0.4723438042081284 0.22291221087261137
3 296 174 108 0.38366138197577193 0.4723438042081284 0.22291221087261137
3 108 174 297 0.38366138197577193 0.4723438042081284 0.22291221087261137
3 99 232 231 0.38366138197577193 0.4723438042081284 0.22291221087261137
3 99 98 387 0.38366138197577193 0.4723438042081284 0.22291221087261137
3 231 98 99 0.38366138197577193 0.4723438042081284 0.22291221087261137
3 387 388 99 0.38366138197577193 0.4723438042081284 0.22291221087261137
3 388 232 99 0.38366138197577193 0.4723438042081284 0.22291221087261137
3 234 233 390 0.38366138197577193 0.4723438042081284 0.22291221087261137
3 234 339 233 0.38366138197577193 0.4723438042081284 0.22291221087261137
3 340 339 234 0.38366138197577193 0.4723438042081284 0.22291221087261137
3 234 391 340 0.38366138197577193 0.4723438042081284 0.22291221087261137
3 390 391 234 0.38366138197577193 0.4723438042081284 0.22291221087261137
3 252 117 253 0.38366138197577193 0.4723438042081284 0.22291221087261137
3 251 117 252 0.38366138197577193 0.4723438042081284 0.22291221087261137
3 46 251 252 0.38366138197577193 0.4723438042081284 0.22291221087261137
3 118 117 345 0.38366138197577193 0.4723438042081284 0.22291221087261137
3 345 346 118 0.38366138197577193 0.4723438042081284 0.22291221087261137
3 253 117 118 0.38366138197577193 0.4723438042081284 0.22291221087261137
3 118 346 119 0.38366138197577193 0.4723438042081284 0.22291221087261137
3 118 254 253 0.38366138197577193 0.4723438042081284 0.22291221087261137
3 119 254 118 0.38366138197577193 0.4723438042081284 0.22291221087261137
3 241 299 298 0.38366138197577193 0.4723438042081284 0.22291221087261137
3 298 299 247 0.38366138197577193 0.4723438042081284 0.22291221087261137
3 240 241 298 0.38366138197577193 0.4723438042081284 0.22291221087261137
3 298 175 240 0.38366138197577193 0.4723438042081284 0.22291221087261137
3 125 49 48 0.38366138197577193 0.4723438042081284 0.22291221087261137
3 48 395 125 0.38366138197577193 0.4723438042081284 0.22291221087261137
3 49 125 259 0.38366138197577193 0.4723438042081284 0.22291221087261137
3 50 49 259 0.38366138197577193 0.4723438042081284 0.22291221087261137
3 259 130 50 0.38366138197577193 0.4723438042081284 0.22291221087261137
3 186 420 421 0.38366138197577193 0.4723438042081284 0.22291221087261137
3 185 420 186 0.38366138197577193 0.4723438042081284 0.22291221087261137
3 421 187 186 0.38366138197577193 0.4723438042081284 0.22291221087261137
3 84 185 186 0.38366138197577193 0.4723438042081284 0.22291221087261137
3 186 187 84 0.38366138197577193 0.4723438042081284 0.22291221087261137
3 180 181 411 0.38366138197577193 0.4723438042081284 0.22291221087261137
3 180 411 421 0.38366138197577193 0.4723438042081284 0.22291221087261137
3 272 181 271 0.38366138197577193 0.4723438042081284 0.22291221087261137
3 271 270 138 0.38366138197577193 0.4723438042081284 0.22291221087261137
3 181 180 271 0.38366138197577193 0.4723438042081284 0.22291221087261137
3 271 180 270 0.38366138197577193 0.4723438042081284 0.22291221087261137
3 271 139 272 0.38366138197577193 0.4723438042081284 0.22291221087261137
3 138 139 271 0.38366138197577193 0.4723438042081284 0.22291221087261137
3 354 353 131 0.38366138197577193 0.4723438042081284 0.22291221087261137
3 355 138 354 0.38366138197577193 0.4723438042081284 0.22291221087261137
3 138 137 354 0.38366138197577193 0.4723438042081284 0.22291221087261137
3 137 353 354 0.38366138197577193 0.4723438042081284 0.22291221087261137
3 132 131 261 0.38366138197577193 0.4723438042081284 0.22291221087261137
3 132 354 131 0.38366138197577193 0.4723438042081284 0.22291221087261137
3 132 133 355 0.38366138197577193 0.4723438042081284 0.22291221087261137
3 355 354 132 0.38366138197577193 0.4723438042081284 0.22291221087261137
3 394 404 351 0.38366138197577193 0.4723438042081284 0.22291221087261137
3 341 393 351 0.38366138197577193 0.4723438042081284 0.22291221087261137
3 351 393 394 0.38366138197577193 0.4723438042081284 0.22291221087261137
3 258 351 402 0.38366138197577193 0.4723438042081284 0.22291221087261137
3 279 144 280 0.38366138197577193 0.4723438042081284 0.22291221087261137
3 194 279 280 0.38366138197577193 0.4723438042081284 0.22291221087261137
3 280 281 195 0.38366138197577193 0.4723438042081284 0.22291221087261137
3 195 194 280 0.38366138197577193 0.4723438042081284 0.22291221087261137
3 73 374 373 0.38366138197577193 0.4723438042081284 0.22291221087261137
3 214 213 71 0.38366138197577193 0.4723438042081284 0.22291221087261137
3 71 316 214 0.38366138197577193 0.4723438042081284 0.22291221087261137
3 71 213 70 0.38366138197577193 0.4723438042081284 0.22291221087261137
3 70 315 71 0.38366138197577193 0.4723438042081284 0.22291221087261137
3 315 316 71 0.38366138197577193 0.4723438042081284 0.22291221087261137
3 91 90 374 0.38366138197577193 0.4723438042081284 0.22291221087261137
3 91 375 92 0.38366138197577193 0.4723438042081284 0.22291221087261137
3 374 375 91 0.38366138197577193 0.4723438042081284 0.22291221087261137
3 92 220 91 0.38366138197577193 0.4723438042081284 0.22291221087261137
3 220 219 91 0.38366138197577193 0.4723438042081284 0.22291221087261137
3 219 90 91 0.38366138197577193 0.4723438042081284 0.22291221087261137
3 21 373 22 0.38366138197577193 0.4723438042081284 0.22291221087261137
3 373 90 22 0.38366138197577193 0.4723438042081284 0.22291221087261137
3 22 90 23 0.38366138197577193 0.4723438042081284 0.22291221087261137
3 89 207 67 0.38366138197577193 0.4723438042081284 0.22291221087261137
3 67 206 89 0.38366138197577193 0.4723438042081284 0.22291221087261137
3 367 207 89 0.38366138197577193 0.4723438042081284 0.22291221087261137
3 89 151 367 0.38366138197577193 0.4723438042081284 0.22291221087261137
3 88 206 205 0.38366138197577193 0.4723438042081284 0.22291221087261137
3 365 150 88 0.38366138197577193 0.4723438042081284 0.22291221087261137
3 88 87 365 0.38366138197577193 0.4723438042081284 0.22291221087261137
3 88 205 87 0.38366138197577193 0.4723438042081284 0.22291221087261137
3 69 314 70 0.38366138197577193 0.4723438042081284 0.22291221087261137
3 313 314 69 0.38366138197577193 0.4723438042081284 0.22291221087261137
3 66 314 313 0.38366138197577193 0.4723438042081284 0.22291221087261137
3 205 206 66 0.38366138197577193 0.4723438042081284 0.22291221087261137
3 66 206 67 0.38366138197577193 0.4723438042081284 0.22291221087261137
3 67 314 66 0.38366138197577193 0.4723438042081284 0.22291221087261137
3 327 157 328 0.38366138197577193 0.4723438042081284 0.22291221087261137
3 328 157 329 0.38366138197577193 0.4723438042081284 0.22291221087261137
3 328 202 327 0.38366138197577193 0.4723438042081284 0.22291221087261137
3 291 202 328 0.38366138197577193 0.4723438042081284 0.22291221087261137
3 328 329 291 0.38366138197577193 0.4723438042081284 0.22291221087261137
3 222 94 223 0.38366138197577193 0.4723438042081284 0.22291221087261137
3 155 326 325 0.38366138197577193 0.4723438042081284 0.22291221087261137
3 155 221 222 0.38366138197577193 0.4723438042081284 0.22291221087261137
3 93 94 222 0.38366138197577193 0.4723438042081284 0.22291221087261137
3 93 221 92 0.38366138197577193 0.4723438042081284 0.22291221087261137
3 222 221 93 0.38366138197577193 0.4723438042081284 0.22291221087261137
3 92 376 93 0.38366138197577193 0.4723438042081284 0.22291221087261137
3 93 376 377 0.38366138197577193 0.4723438042081284 0.22291221087261137
3 377 94 93 0.38366138197577193 0.4723438042081284 0.22291221087261137
3 350 301 341 0.38366138197577193 0.4723438042081284 0.22291221087261137
3 341 351 350 0.38366138197577193 0.4723438042081284 0.22291221087261137
3 350 351 258 0.38366138197577193 0.4723438042081284 0.22291221087261137
3 119 346 347 0.38366138197577193 0.4723438042081284 0.22291221087261137
3 346 249 347 0.38366138197577193 0.4723438042081284 0.22291221087261137
3 347 249 348 0.38366138197577193 0.4723438042081284 0.22291221087261137
3 342 44 43 0.38366138197577193 0.4723438042081284 0.22291221087261137
3 43 111 342 0.38366138197577193 0.4723438042081284 0.22291221087261137
3 245 108 246 0.38366138197577193 0.4723438042081284 0.22291221087261137
3 246 108 297 0.38366138197577193 0.4723438042081284 0.22291221087261137
3 255 254 119 0.38366138197577193 0.4723438042081284 0.22291221087261137
3 119 347 255 0.38366138197577193 0.4723438042081284 0.22291221087261137
3 348 256 255 0.38366138197577193 0.4723438042081284 0.22291221087261137
3 255 347 348 0.38366138197577193 0.4723438042081284 0.22291221087261137
3 349 256 348 0.38366138197577193 0.4723438042081284 0.22291221087261137
3 349 350 258 0.38366138197577193 0.4723438042081284 0.22291221087261137
3 348 250 349 0.38366138197577193 0.4723438042081284 0.22291221087261137
3 349 250 301 0.38366138197577193 0.4723438042081284 0.22291221087261137
3 301 350 349 0.38366138197577193 0.4723438042081284 0.22291221087261137
3 257 258 400 0.38366138197577193 0.4723438042081284 0.22291221087261137
3 257 349 258 0.38366138197577193 0.4723438042081284 0.22291221087261137
3 256 349 257 0.38366138197577193 0.4723438042081284 0.22291221087261137
3 46 252 120 0.38366138197577193 0.4723438042081284 0.22291221087261137
3 47 46 120 0.38366138197577193 0.4723438042081284 0.22291221087261137
3 120 121 47 0.38366138197577193 0.4723438042081284 0.22291221087261137
3 253 121 120 0.38366138197577193 0.4723438042081284 0.22291221087261137
3 120 252 253 0.38366138197577193 0.4723438042081284 0.22291221087261137
3 122 397 396 0.38366138197577193 0.4723438042081284 0.22291221087261137
3 396 121 122 0.38366138197577193 0.4723438042081284 0.22291221087261137
3 395 121 396 0.38366138197577193 0.4723438042081284 0.22291221087261137
3 396 125 395 0.38366138197577193 0.4723438042081284 0.22291221087261137
3 261 127 128 0.38366138197577193 0.4723438042081284 0.22291221087261137
3 399 257 400 0.38366138197577193 0.4723438042081284 0.22291221087261137
3 260 127 261 0.38366138197577193 0.4723438042081284 0.22291221087261137
3 261 131 260 0.38366138197577193 0.4723438042081284 0.22291221087261137
3 131 130 260 0.38366138197577193 0.4723438042081284 0.22291221087261137
3 130 259 260 0.38366138197577193 0.4723438042081284 0.22291221087261137
3 126 259 125 0.38366138197577193 0.4723438042081284 0.22291221087261137
3 126 397 127 0.38366138197577193 0.4723438042081284 0.22291221087261137
3 127 260 126 0.38366138197577193 0.4723438042081284 0.22291221087261137
3 126 260 259 0.38366138197577193 0.4723438042081284 0.22291221087261137
3 126 396 397 0.38366138197577193 0.4723438042081284 0.22291221087261137
3 125 396 126 0.38366138197577193 0.4723438042081284 0.22291221087261137
3 421 178 179 0.38366138197577193 0.4723438042081284 0.22291221087261137
3 179 180 421 0.38366138197577193 0.4723438042081284 0.22291221087261137
3 178 268 179 0.38366138197577193 0.4723438042081284 0.22291221087261137
3 179 268 269 0.38366138197577193 0.4723438042081284 0.22291221087261137
3 269 270 179 0.38366138197577193 0.4723438042081284 0.22291221087261137
3 270 180 179 0.38366138197577193 0.4723438042081284 0.22291221087261137
3 262 263 133 0.38366138197577193 0.4723438042081284 0.22291221087261137
3 262 132 261 0.38366138197577193 0.4723438042081284 0.22291221087261137
3 133 132 262 0.38366138197577193 0.4723438042081284 0.22291221087261137
3 261 128 262 0.38366138197577193 0.4723438042081284 0.22291221087261137
3 133 263 134 0.38366138197577193 0.4723438042081284 0.22291221087261137
3 264 134 263 0.38366138197577193 0.4723438042081284 0.22291221087261137
3 403 351 404 0.38366138197577193 0.4723438042081284 0.22291221087261137
3 403 402 351 0.38366138197577193 0.4723438042081284 0.22291221087261137
3 145 144 306 0.38366138197577193 0.4723438042081284 0.22291221087261137
3 145 280 144 0.38366138197577193 0.4723438042081284 0.22291221087261137
3 306 307 145 0.38366138197577193 0.4723438042081284 0.22291221087261137
3 145 307 281 0.38366138197577193 0.4723438042081284 0.22291221087261137
3 281 280 145 0.38366138197577193 0.4723438042081284 0.22291221087261137
3 213 73 212 0.38366138197577193 0.4723438042081284 0.22291221087261137
3 70 213 212 0.38366138197577193 0.4723438042081284 0.22291221087261137
3 212 69 70 0.38366138197577193 0.4723438042081284 0.22291221087261137
3 374 73 74 0.38366138197577193 0.4723438042081284 0.22291221087261137
3 75 375 74 0.38366138197577193 0.4723438042081284 0.22291221087261137
3 74 375 374 0.38366138197577193 0.4723438042081284 0.22291221087261137
3 74 214 75 0.38366138197577193 0.4723438042081284 0.22291221087261137
3 74 213 214 0.38366138197577193 0.4723438042081284 0.22291221087261137
3 74 73 213 0.38366138197577193 0.4723438042081284 0.22291221087261137
3 72 373 21 0.38366138197577193 0.4723438042081284 0.22291221087261137
3 72 73 373 0.38366138197577193 0.4723438042081284 0.22291221087261137
3 21 20 72 0.38366138197577193 0.4723438042081284 0.22291221087261137
3 72 212 73 0.38366138197577193 0.4723438042081284 0.22291221087261137
3 151 89 366 0.38366138197577193 0.4723438042081284 0.22291221087261137
3 366 88 150 0.38366138197577193 0.4723438042081284 0.22291221087261137
3 366 89 206 0.38366138197577193 0.4723438042081284 0.22291221087261137
3 206 88 366 0.38366138197577193 0.4723438042081284 0.22291221087261137
3 193 151 366 0.38366138197577193 0.4723438042081284 0.22291221087261137
3 366 150 193 0.38366138197577193 0.4723438042081284 0.22291221087261137
3 313 69 68 0.38366138197577193 0.4723438042081284 0.22291221087261137
3 18 312 68 0.38366138197577193 0.4723438042081284 0.22291221087261137
3 68 312 313 0.38366138197577193 0.4723438042081284 0.22291221087261137
3 68 19 18 0.38366138197577193 0.4723438042081284 0.22291221087261137
3 205 66 65 0.38366138197577193 0.4723438042081284 0.22291221087261137
3 65 312 64 0.38366138197577193 0.4723438042081284 0.22291221087261137
3 313 312 65 0.38366138197577193 0.4723438042081284 0.22291221087261137
3 65 66 313 0.38366138197577193 0.4723438042081284 0.22291221087261137
3 65 64 204 0.38366138197577193 0.4723438042081284 0.22291221087261137
3 204 205 65 0.38366138197577193 0.4723438042081284 0.22291221087261137
3 225 157 224 0.38366138197577193 0.4723438042081284 0.22291221087261137
3 157 223 224 0.38366138197577193 0.4723438042081284 0.22291221087261137
3 224 223 94 0.38366138197577193 0.4723438042081284 0.22291221087261137
3 379 225 224 0.38366138197577193 0.4723438042081284 0.22291221087261137
3 224 94 379 0.38366138197577193 0.4723438042081284 0.22291221087261137
3 327 326 156 0.38366138197577193 0.4723438042081284 0.22291221087261137
3 326 155 156 0.38366138197577193 0.4723438042081284 0.22291221087261137
3 156 157 327 0.38366138197577193 0.4723438042081284 0.22291221087261137
3 156 223 157 0.38366138197577193 0.4723438042081284 0.22291221087261137
3 222 223 156 0.38366138197577193 0.4723438042081284 0.22291221087261137
3 156 155 222 0.38366138197577193 0.4723438042081284 0.22291221087261137
3 154 155 325 0.38366138197577193 0.4723438042081284 0.22291221087261137
3 325 324 154 0.38366138197577193 0.4723438042081284 0.22291221087261137
3 154 324 153 0.38366138197577193 0.4723438042081284 0.22291221087261137
3 221 155 154 0.38366138197577193 0.4723438042081284 0.22291221087261137
3 154 153 220 0.38366138197577193 0.4723438042081284 0.22291221087261137
3 220 221 154 0.38366138197577193 0.4723438042081284 0.22291221087261137
3 112 113 344 0.38366138197577193 0.4723438042081284 0.22291221087261137
3 112 246 113 0.38366138197577193 0.4723438042081284 0.22291221087261137
3 112 111 245 0.38366138197577193 0.4723438042081284 0.22291221087261137
3 245 246 112 0.38366138197577193 0.4723438042081284 0.22291221087261137
3 175 298 109 0.38366138197577193 0.4723438042081284 0.22291221087261137
3 297 175 109 0.38366138197577193 0.4723438042081284 0.22291221087261137
3 109 246 297 0.38366138197577193 0.4723438042081284 0.22291221087261137
3 109 298 247 0.38366138197577193 0.4723438042081284 0.22291221087261137
3 247 113 109 0.38366138197577193 0.4723438042081284 0.22291221087261137
3 113 246 109 0.38366138197577193 0.4723438042081284 0.22291221087261137
3 123 397 122 0.38366138197577193 0.4723438042081284 0.22291221087261137
3 122 254 123 0.38366138197577193 0.4723438042081284 0.22291221087261137
3 254 255 123 0.38366138197577193 0.4723438042081284 0.22291221087261137
3 129 264 263 0.38366138197577193 0.4723438042081284 0.22291221087261137
3 129 399 400 0.38366138197577193 0.4723438042081284 0.22291221087261137
3 128 399 129 0.38366138197577193 0.4723438042081284 0.22291221087261137
3 263 262 129 0.38366138197577193 0.4723438042081284 0.22291221087261137
3 129 262 128 0.38366138197577193 0.4723438042081284 0.22291221087261137
3 355 133 356 0.38366138197577193 0.4723438042081284 0.22291221087261137
3 133 134 356 0.38366138197577193 0.4723438042081284 0.22291221087261137
3 356 139 355 0.38366138197577193 0.4723438042081284 0.22291221087261137
3 400 258 401 0.38366138197577193 0.4723438042081284 0.22291221087261137
3 258 402 401 0.38366138197577193 0.4723438042081284 0.22291221087261137
3 401 129 400 0.38366138197577193 0.4723438042081284 0.22291221087261137
3 264 129 401 0.38366138197577193 0.4723438042081284 0.22291221087261137
3 274 273 358 0.38366138197577193 0.4723438042081284 0.22291221087261137
3 402 403 266 0.38366138197577193 0.4723438042081284 0.22291221087261137
3 266 403 404 0.38366138197577193 0.4723438042081284 0.22291221087261137
3 69 212 211 0.38366138197577193 0.4723438042081284 0.22291221087261137
3 19 68 211 0.38366138197577193 0.4723438042081284 0.22291221087261137
3 211 68 69 0.38366138197577193 0.4723438042081284 0.22291221087261137
3 211 20 19 0.38366138197577193 0.4723438042081284 0.22291221087261137
3 211 72 20 0.38366138197577193 0.4723438042081284 0.22291221087261137
3 212 72 211 0.38366138197577193 0.4723438042081284 0.22291221087261137
3 343 342 111 0.38366138197577193 0.4723438042081284 0.22291221087261137
3 111 112 343 0.38366138197577193 0.4723438042081284 0.22291221087261137
3 343 115 44 0.38366138197577193 0.4723438042081284 0.22291221087261137
3 44 342 343 0.38366138197577193 0.4723438042081284 0.22291221087261137
3 343 112 344 0.38366138197577193 0.4723438042081284 0.22291221087261137
3 344 116 343 0.38366138197577193 0.4723438042081284 0.22291221087261137
3 343 116 115 0.38366138197577193 0.4723438042081284 0.22291221087261137
3 397 123 398 0.38366138197577193 0.4723438042081284 0.22291221087261137
3 127 397 398 0.38366138197577193 0.4723438042081284 0.22291221087261137
3 398 128 127 0.38366138197577193 0.4723438042081284 0.22291221087261137
3 398 399 128 0.38366138197577193 0.4723438042081284 0.22291221087261137
3 357 356 134 0.38366138197577193 0.4723438042081284 0.22291221087261137
3 134 358 357 0.38366138197577193 0.4723438042081284 0.22291221087261137
3 357 358 273 0.38366138197577193 0.4723438042081284 0.22291221087261137
3 273 139 357 0.38366138197577193 0.4723438042081284 0.22291221087261137
3 139 356 357 0.38366138197577193 0.4723438042081284 0.22291221087261137
3 402 266 265 0.38366138197577193 0.4723438042081284 0.22291221087261137
3 265 401 402 0.38366138197577193 0.4723438042081284 0.22291221087261137
3 264 401 265 0.38366138197577193 0.4723438042081284 0.22291221087261137
3 134 264 265 0.38366138197577193 0.4723438042081284 0.22291221087261137
3 265 358 134 0.38366138197577193 0.4723438042081284 0.22291221087261137
3 405 416 361 0.38366138197577193 0.4723438042081284 0.22291221087261137
3 361 404 405 0.38366138197577193 0.4723438042081284 0.22291221087261137
3 361 416 426 0.38366138197577193 0.4723438042081284 0.22291221087261137
3 124 398 123 0.38366138197577193 0.4723438042081284 0.22291221087261137
3 124 255 256 0.38366138197577193 0.4723438042081284 0.22291221087261137
3 124 123 255 0.38366138197577193 0.4723438042081284 0.22291221087261137
3 399 398 124 0.38366138197577193 0.4723438042081284 0.22291221087261137
3 256 257 124 0.38366138197577193 0.4723438042081284 0.22291221087261137
3 257 399 124 0.38366138197577193 0.4723438042081284 0.22291221087261137
3 358 265 359 0.38366138197577193 0.4723438042081284 0.22291221087261137
3 359 265 266 0.38366138197577193 0.4723438042081284 0.22291221087261137
3 274 358 359 0.38366138197577193 0.4723438042081284 0.22291221087261137
3 360 359 266 0.38366138197577193 0.4723438042081284 0.22291221087261137
3 360 266 404 0.38366138197577193 0.4723438042081284 0.22291221087261137
3 404 361 360 0.38366138197577193 0.4723438042081284 0.22291221087261137
3 360 361 426 0.38366138197577193 0.4723438042081284 0.22291221087261137
3 426 274 360 0.38366138197577193 0.4723438042081284 0.22291221087261137
3 274 359 360 0.38366138197577193 0.4723438042081284 0.22291221087261137
