OFF
51 46 0


31.1057 29.4444 9.4054
31.1057 29.4444 9.4054
31.0858 29.5735 9.4205
31.0688 29.6926 9.433
31.0543 29.8036 9.4433
31.0418 29.9083 9.4518
31.031 30.0079 9.4586
31.0219 30.1036 9.4641
31.0141 30.1965 9.4682
31.0077 30.2874 9.471
31.0024 30.377 9.4726
30.9984 30.4662 9.473
30.9957 30.5555 9.4722
30.9941 30.6458 9.4699
30.994 30.7377 9.4662
30.9953 30.8318 9.461
30.9983 30.9289 9.4538
31.0031 31.0299 9.4447
31.0101 31.1355 9.4331
31.0195 31.2467 9.4187
31.0319 31.3645 9.401
31.0477 31.4903 9.3794
31.0477 31.4903 9.3794
30.978 31.4015 9.455
30.9185 31.3279 9.5193
30.8658 31.2645 9.5762
30.8175 31.2076 9.6282
30.7719 31.1549 9.6774
30.7273 31.1044 9.7254
30.6824 31.0546 9.7737
30.6358 31.0038 9.8238
30.5859 30.9503 9.8774
30.5304 30.892 9.9369
30.4666 30.8263 10.0054
30.3899 30.749 10.0876
30.4553 30.6403 10.0248
30.5115 30.5453 9.971
30.561 30.4604 9.9235
30.6057 30.3828 9.8808
30.6469 30.3103 9.8414
30.6856 30.2414 9.8045
30.7226 30.1747 9.7691
30.7588 30.1089 9.7346
30.7947 30.0429 9.7004
30.8311 29.9755 9.6658
30.8685 29.9053 9.6303
30.9077 29.8309 9.593
30.9497 29.7505 9.5531
30.9956 29.6616 9.5096
31.0469 29.5611 9.4611
31.1057 29.4444 9.4054
3 2 49 0 0.9813137166957072 0.007405144527860674 0.5065895406356451
3 47 3 4 0.9813137166957072 0.007405144527860674 0.5065895406356451
3 6 45 5 0.9813137166957072 0.007405144527860674 0.5065895406356451
3 48 3 47 0.9813137166957072 0.007405144527860674 0.5065895406356451
3 48 2 3 0.9813137166957072 0.007405144527860674 0.5065895406356451
3 49 2 48 0.9813137166957072 0.007405144527860674 0.5065895406356451
3 44 6 7 0.9813137166957072 0.007405144527860674 0.5065895406356451
3 45 6 44 0.9813137166957072 0.007405144527860674 0.5065895406356451
3 5 45 46 0.9813137166957072 0.007405144527860674 0.5065895406356451
3 46 4 5 0.9813137166957072 0.007405144527860674 0.5065895406356451
3 47 4 46 0.9813137166957072 0.007405144527860674 0.5065895406356451
3 38 39 11 0.9813137166957072 0.007405144527860674 0.5065895406356451
3 11 39 10 0.9813137166957072 0.007405144527860674 0.5065895406356451
3 8 41 42 0.9813137166957072 0.007405144527860674 0.5065895406356451
3 9 41 8 0.9813137166957072 0.007405144527860674 0.5065895406356451
3 18 27 17 0.9813137166957072 0.007405144527860674 0.5065895406356451
3 20 24 19 0.9813137166957072 0.007405144527860674 0.5065895406356451
3 43 44 7 0.9813137166957072 0.007405144527860674 0.5065895406356451
3 43 8 42 0.9813137166957072 0.007405144527860674 0.5065895406356451
3 7 8 43 0.9813137166957072 0.007405144527860674 0.5065895406356451
3 40 10 39 0.9813137166957072 0.007405144527860674 0.5065895406356451
3 40 41 9 0.9813137166957072 0.007405144527860674 0.5065895406356451
3 9 10 40 0.9813137166957072 0.007405144527860674 0.5065895406356451
3 12 13 37 0.9813137166957072 0.007405144527860674 0.5065895406356451
3 12 38 11 0.9813137166957072 0.007405144527860674 0.5065895406356451
3 37 38 12 0.9813137166957072 0.007405144527860674 0.5065895406356451
3 23 20 21 0.9813137166957072 0.007405144527860674 0.5065895406356451
3 24 20 23 0.9813137166957072 0.007405144527860674 0.5065895406356451
3 19 24 25 0.9813137166957072 0.007405144527860674 0.5065895406356451
3 25 18 19 0.9813137166957072 0.007405144527860674 0.5065895406356451
3 34 35 33 0.9813137166957072 0.007405144527860674 0.5065895406356451
3 33 35 32 0.9813137166957072 0.007405144527860674 0.5065895406356451
3 37 13 36 0.9813137166957072 0.007405144527860674 0.5065895406356451
3 32 35 36 0.9813137166957072 0.007405144527860674 0.5065895406356451
3 36 13 14 0.9813137166957072 0.007405144527860674 0.5065895406356451
3 14 32 36 0.9813137166957072 0.007405144527860674 0.5065895406356451
3 29 15 16 0.9813137166957072 0.007405144527860674 0.5065895406356451
3 30 15 29 0.9813137166957072 0.007405144527860674 0.5065895406356451
3 31 32 14 0.9813137166957072 0.007405144527860674 0.5065895406356451
3 14 15 31 0.9813137166957072 0.007405144527860674 0.5065895406356451
3 31 15 30 0.9813137166957072 0.007405144527860674 0.5065895406356451
3 27 18 26 0.9813137166957072 0.007405144527860674 0.5065895406356451
3 18 25 26 0.9813137166957072 0.007405144527860674 0.5065895406356451
3 17 27 28 0.9813137166957072 0.007405144527860674 0.5065895406356451
3 28 16 17 0.9813137166957072 0.007405144527860674 0.5065895406356451
3 28 29 16 0.9813137166957072 0.007405144527860674 0.5065895406356451
