OFF
35 28 0


31.5415 28.5594 9.1066
31.5415 28.5594 9.1066
31.5562 28.5035 9.0806
31.571 28.4477 9.0546
31.5857 28.3918 9.0286
31.6005 28.336 9.0026
31.6005 28.336 9.0026
31.5458 28.3584 8.9856
31.4912 28.3808 8.9686
31.4365 28.4032 8.9516
31.4365 28.4032 8.9516
31.3922 28.4661 8.9654
31.3478 28.5291 8.9792
31.3035 28.592 8.9929
31.2592 28.655 9.0067
31.2148 28.7179 9.0204
31.1705 28.7809 9.0342
31.1516 28.9091 9.1024
31.1397 29.0013 9.1523
31.1308 29.0782 9.1946
31.1235 29.1506 9.2349
31.117 29.2269 9.2782
31.1109 29.3178 9.3306
31.1057 29.4444 9.4054
31.1057 29.4444 9.4054
31.1677 29.3224 9.3654
31.216 29.2265 9.3336
31.2565 29.1453 9.3065
31.2927 29.0722 9.2819
31.3269 29.0027 9.2584
31.361 28.9331 9.2349
31.3968 28.8598 9.2099
31.4363 28.7783 9.182
31.4828 28.6819 9.1489
31.5415 28.5594 9.1066
3 32 14 33 0.4055547216997786 0.1273423105655973 0.569867360732461
3 33 14 13 0.4055547216997786 0.1273423105655973 0.569867360732461
3 0 33 12 0.4055547216997786 0.1273423105655973 0.569867360732461
3 12 33 13 0.4055547216997786 0.1273423105655973 0.569867360732461
3 15 14 32 0.4055547216997786 0.1273423105655973 0.569867360732461
3 32 31 15 0.4055547216997786 0.1273423105655973 0.569867360732461
3 15 31 16 0.4055547216997786 0.1273423105655973 0.569867360732461
3 27 20 19 0.4055547216997786 0.1273423105655973 0.569867360732461
3 30 18 17 0.4055547216997786 0.1273423105655973 0.569867360732461
3 16 31 17 0.4055547216997786 0.1273423105655973 0.569867360732461
3 17 31 30 0.4055547216997786 0.1273423105655973 0.569867360732461
3 3 8 4 0.4055547216997786 0.1273423105655973 0.569867360732461
3 8 7 4 0.4055547216997786 0.1273423105655973 0.569867360732461
3 4 7 5 0.4055547216997786 0.1273423105655973 0.569867360732461
3 11 2 0 0.4055547216997786 0.1273423105655973 0.569867360732461
3 0 12 11 0.4055547216997786 0.1273423105655973 0.569867360732461
3 3 2 11 0.4055547216997786 0.1273423105655973 0.569867360732461
3 9 8 11 0.4055547216997786 0.1273423105655973 0.569867360732461
3 11 8 3 0.4055547216997786 0.1273423105655973 0.569867360732461
3 22 21 26 0.4055547216997786 0.1273423105655973 0.569867360732461
3 26 20 27 0.4055547216997786 0.1273423105655973 0.569867360732461
3 26 21 20 0.4055547216997786 0.1273423105655973 0.569867360732461
3 28 19 18 0.4055547216997786 0.1273423105655973 0.569867360732461
3 27 19 28 0.4055547216997786 0.1273423105655973 0.569867360732461
3 23 22 25 0.4055547216997786 0.1273423105655973 0.569867360732461
3 22 26 25 0.4055547216997786 0.1273423105655973 0.569867360732461
3 29 18 30 0.4055547216997786 0.1273423105655973 0.569867360732461
3 29 28 18 0.4055547216997786 0.1273423105655973 0.569867360732461
