OFF
83 72 0


30.0303 31.3851 6.1424
30.0303 31.3851 6.1424
29.9449 31.3664 6.1211
29.8596 31.3477 6.0998
29.7742 31.329 6.0785
29.6889 31.3103 6.0572
29.6035 31.2916 6.0359
29.5182 31.2729 6.0146
29.4328 31.2542 5.9933
29.3475 31.2355 5.972
29.2621 31.2167 5.9507
29.1768 31.198 5.9294
29.0914 31.1793 5.9081
28.952 31.1742 5.8972
28.8515 31.1702 5.8891
28.7607 31.1664 5.8816
28.6603 31.1619 5.873
28.521 31.1553 5.8608
28.521 31.1553 5.8608
28.521 31.1553 5.8608
28.4882 31.1998 5.9012
28.4555 31.2442 5.9415
28.4227 31.2886 5.9819
28.3899 31.333 6.0223
28.3571 31.3775 6.0627
28.3571 31.3775 6.0627
28.3491 31.4806 6.1594
28.3429 31.5555 6.2296
28.3372 31.6202 6.2902
28.3313 31.6848 6.3508
28.324 31.7597 6.4209
28.3133 31.8628 6.5175
28.3133 31.8628 6.5175
28.3143 31.8752 6.5292
28.3154 31.8876 6.5409
28.3154 31.8876 6.5409
28.4436 31.922 6.5789
28.5608 31.9543 6.6143
28.6691 31.9849 6.6477
28.77 32.0141 6.6796
28.865 32.0422 6.7102
28.955 32.0696 6.7398
29.0411 32.0964 6.7688
29.124 32.1229 6.7973
29.2044 32.1492 6.8256
29.2829 32.1756 6.8538
29.36 32.2023 6.8823
29.4363 32.2294 6.9111
29.5123 32.2572 6.9405
29.5884 32.2858 6.9707
29.6651 32.3155 7.0019
29.7429 32.3464 7.0344
29.8222 32.379 7.0685
29.9036 32.4134 7.1044
29.9877 32.4501 7.1426
30.0752 32.4894 7.1834
30.1667 32.5319 7.2273
30.2632 32.578 7.2749
30.3657 32.6286 7.3269
30.4754 32.6845 7.3842
30.4754 32.6845 7.3842
30.5546 32.6248 7.3315
30.6133 32.5811 7.293
30.6936 32.5222 7.241
30.6936 32.5222 7.241
30.6822 32.4831 7.2037
30.6707 32.4439 7.1663
30.6592 32.4047 7.129
30.6478 32.3655 7.0916
30.5741 32.2824 7.0102
30.5114 32.2076 6.9371
30.4569 32.1389 6.8701
30.4085 32.0745 6.8074
30.3646 32.013 6.7477
30.3241 31.9532 6.6896
30.286 31.894 6.6322
30.2496 31.8342 6.5744
30.2141 31.7727 6.515
30.179 31.7083 6.4529
30.1437 31.6395 6.3866
30.1076 31.5644 6.3144
30.07 31.4807 6.234
30.0303 31.3851 6.1424
3 31 36 33 0.9187198136392084 0.024309230245775026 0.7236160737765984
3 36 34 33 0.9187198136392084 0.024309230245775026 0.7236160737765984
3 61 59 58 0.9187198136392084 0.024309230245775026 0.7236160737765984
3 58 62 61 0.9187198136392084 0.024309230245775026 0.7236160737765984
3 45 5 80 0.9187198136392084 0.024309230245775026 0.7236160737765984
3 26 15 14 0.9187198136392084 0.024309230245775026 0.7236160737765984
3 30 36 31 0.9187198136392084 0.024309230245775026 0.7236160737765984
3 41 8 42 0.9187198136392084 0.024309230245775026 0.7236160737765984
3 36 30 37 0.9187198136392084 0.024309230245775026 0.7236160737765984
3 28 38 37 0.9187198136392084 0.024309230245775026 0.7236160737765984
3 10 40 39 0.9187198136392084 0.024309230245775026 0.7236160737765984
3 13 39 38 0.9187198136392084 0.024309230245775026 0.7236160737765984
3 77 47 78 0.9187198136392084 0.024309230245775026 0.7236160737765984
3 66 62 58 0.9187198136392084 0.024309230245775026 0.7236160737765984
3 57 66 58 0.9187198136392084 0.024309230245775026 0.7236160737765984
3 67 66 57 0.9187198136392084 0.024309230245775026 0.7236160737765984
3 57 68 67 0.9187198136392084 0.024309230245775026 0.7236160737765984
3 57 56 69 0.9187198136392084 0.024309230245775026 0.7236160737765984
3 69 68 57 0.9187198136392084 0.024309230245775026 0.7236160737765984
3 78 47 46 0.9187198136392084 0.024309230245775026 0.7236160737765984
3 69 56 70 0.9187198136392084 0.024309230245775026 0.7236160737765984
3 54 72 71 0.9187198136392084 0.024309230245775026 0.7236160737765984
3 45 80 79 0.9187198136392084 0.024309230245775026 0.7236160737765984
3 79 46 45 0.9187198136392084 0.024309230245775026 0.7236160737765984
3 78 46 79 0.9187198136392084 0.024309230245775026 0.7236160737765984
3 23 26 25 0.9187198136392084 0.024309230245775026 0.7236160737765984
3 15 26 23 0.9187198136392084 0.024309230245775026 0.7236160737765984
3 21 20 16 0.9187198136392084 0.024309230245775026 0.7236160737765984
3 16 20 17 0.9187198136392084 0.024309230245775026 0.7236160737765984
3 28 37 29 0.9187198136392084 0.024309230245775026 0.7236160737765984
3 29 37 30 0.9187198136392084 0.024309230245775026 0.7236160737765984
3 44 5 45 0.9187198136392084 0.024309230245775026 0.7236160737765984
3 44 6 5 0.9187198136392084 0.024309230245775026 0.7236160737765984
3 43 6 44 0.9187198136392084 0.024309230245775026 0.7236160737765984
3 8 41 9 0.9187198136392084 0.024309230245775026 0.7236160737765984
3 9 40 10 0.9187198136392084 0.024309230245775026 0.7236160737765984
3 9 41 40 0.9187198136392084 0.024309230245775026 0.7236160737765984
3 11 13 12 0.9187198136392084 0.024309230245775026 0.7236160737765984
3 39 13 11 0.9187198136392084 0.024309230245775026 0.7236160737765984
3 10 39 11 0.9187198136392084 0.024309230245775026 0.7236160737765984
3 27 38 28 0.9187198136392084 0.024309230245775026 0.7236160737765984
3 27 13 38 0.9187198136392084 0.024309230245775026 0.7236160737765984
3 27 26 14 0.9187198136392084 0.024309230245775026 0.7236160737765984
3 14 13 27 0.9187198136392084 0.024309230245775026 0.7236160737765984
3 74 52 51 0.9187198136392084 0.024309230245775026 0.7236160737765984
3 63 62 65 0.9187198136392084 0.024309230245775026 0.7236160737765984
3 62 66 65 0.9187198136392084 0.024309230245775026 0.7236160737765984
3 81 2 0 0.9187198136392084 0.024309230245775026 0.7236160737765984
3 81 80 3 0.9187198136392084 0.024309230245775026 0.7236160737765984
3 3 2 81 0.9187198136392084 0.024309230245775026 0.7236160737765984
3 73 52 74 0.9187198136392084 0.024309230245775026 0.7236160737765984
3 72 54 53 0.9187198136392084 0.024309230245775026 0.7236160737765984
3 52 73 53 0.9187198136392084 0.024309230245775026 0.7236160737765984
3 53 73 72 0.9187198136392084 0.024309230245775026 0.7236160737765984
3 55 70 56 0.9187198136392084 0.024309230245775026 0.7236160737765984
3 71 70 55 0.9187198136392084 0.024309230245775026 0.7236160737765984
3 55 54 71 0.9187198136392084 0.024309230245775026 0.7236160737765984
3 4 80 5 0.9187198136392084 0.024309230245775026 0.7236160737765984
3 3 80 4 0.9187198136392084 0.024309230245775026 0.7236160737765984
3 7 43 42 0.9187198136392084 0.024309230245775026 0.7236160737765984
3 7 6 43 0.9187198136392084 0.024309230245775026 0.7236160737765984
3 42 8 7 0.9187198136392084 0.024309230245775026 0.7236160737765984
3 15 23 22 0.9187198136392084 0.024309230245775026 0.7236160737765984
3 21 16 22 0.9187198136392084 0.024309230245775026 0.7236160737765984
3 22 16 15 0.9187198136392084 0.024309230245775026 0.7236160737765984
3 50 76 75 0.9187198136392084 0.024309230245775026 0.7236160737765984
3 74 51 75 0.9187198136392084 0.024309230245775026 0.7236160737765984
3 75 51 50 0.9187198136392084 0.024309230245775026 0.7236160737765984
3 49 76 50 0.9187198136392084 0.024309230245775026 0.7236160737765984
3 47 77 48 0.9187198136392084 0.024309230245775026 0.7236160737765984
3 77 76 48 0.9187198136392084 0.024309230245775026 0.7236160737765984
3 76 49 48 0.9187198136392084 0.024309230245775026 0.7236160737765984
