OFF
344 616 0


28.1236 32.0816 10.9723
28.1236 32.0816 10.9723
28.1285 32.089 10.9701
28.1236 32.0816 10.9723
28.1236 32.0816 10.9723
28.1099 32.0736 10.9957
28.1334 32.0964 10.9679
28.1334 32.0964 10.9679
28.1874 32.2163 10.9985
28.2364 32.3256 11.0285
28.2815 32.4264 11.058
28.3234 32.5204 11.0875
28.3629 32.6092 11.1172
28.4004 32.6938 11.1473
28.4364 32.7753 11.1781
28.4713 32.8544 11.2098
28.5054 32.932 11.2428
28.539 33.0088 11.2773
28.5724 33.0854 11.3136
28.6058 33.1624 11.3522
28.6396 33.2405 11.3935
28.6741 33.3205 11.4381
28.7095 33.403 11.4864
28.7463 33.489 11.5394
28.7847 33.5794 11.5979
28.8254 33.6755 11.6631
28.8688 33.7786 11.7364
28.8688 33.7786 11.7364
28.817 33.765 11.8546
28.7798 33.7547 11.9403
28.7478 33.7455 12.0144
28.7161 33.7361 12.0885
28.6795 33.7249 12.1744
28.6295 33.7091 12.293
28.6295 33.7091 12.293
28.5569 33.5957 12.2861
28.4995 33.5043 12.2796
28.4506 33.4254 12.2733
28.4064 33.3528 12.2669
28.3638 33.2819 12.2602
28.3205 33.2088 12.2526
28.2738 33.1288 12.2438
28.2203 33.0356 12.2327
28.1547 32.9188 12.2176
28.1547 32.9188 12.2176
28.0994 32.804 12.1773
28.0597 32.7201 12.1481
28.0056 32.6046 12.1082
28.0056 32.6046 12.1082
28.0203 32.5594 11.9858
28.0321 32.5182 11.8811
28.0419 32.4796 11.7885
28.0504 32.4425 11.704
28.0577 32.4059 11.6246
28.0644 32.3689 11.548
28.0705 32.3306 11.472
28.0762 32.2897 11.3946
28.0816 32.245 11.3135
28.0868 32.1946 11.2263
28.0917 32.136 11.1296
28.6992 33.6501 11.9697
28.6535 33.559 11.9271
28.6101 33.4713 11.8862
28.3978 33.3004 12.1915
28.39 33.2504 12.1195
28.3828 33.2023 12.0505
28.3223 33.1734 12.1792
28.3243 33.1394 12.1089
28.3265 33.1066 12.0413
28.0896 32.4623 11.6243
28.1206 32.5167 11.6241
28.1508 32.5694 11.6238
28.1006 32.3955 11.489
28.13 32.4581 11.5054
28.1586 32.5186 11.5213
28.3246 32.5601 11.1426
28.326 32.599 11.1969
28.3276 32.6375 11.2505
28.3295 32.6755 11.3037
28.3943 32.7145 11.194
28.3884 32.7351 11.2406
28.3827 32.7556 11.2873
28.3771 32.7761 11.334
28.4589 32.8591 11.2491
28.4465 32.8637 11.2887
28.4341 32.8684 11.3286
28.4217 32.873 11.3689
28.5205 32.9989 11.3096
28.5018 32.9888 11.3423
28.4831 32.9786 11.3754
28.4642 32.9682 11.4089
28.5809 33.1381 11.3775
28.5559 33.1135 11.4031
28.5307 33.0886 11.4289
28.5054 33.0634 11.4551
28.642 33.2808 11.4556
28.6099 33.2409 11.4732
28.5779 33.2007 11.4909
28.5457 33.1601 11.5088
28.7282 33.6597 11.9046
28.6795 33.5686 11.8705
28.6332 33.4807 11.8375
28.5889 33.3953 11.8056
28.6372 33.6284 12.1091
28.5979 33.537 12.0475
28.561 33.4499 11.9888
28.5263 33.3663 11.9325
28.4793 33.4336 12.2018
28.4605 33.3663 12.1279
28.4431 33.302 12.0574
28.4268 33.2401 11.9898
28.2341 33.0202 12.1613
28.2476 33.0053 12.0928
28.2607 32.991 12.0271
28.2735 32.9772 11.9637
28.0931 32.742 12.0854
28.1251 32.7628 12.0255
28.1559 32.7827 11.9682
28.1856 32.8017 11.9133
28.0762 32.5282 11.7694
28.1094 32.575 11.751
28.1415 32.6202 11.7332
28.1728 32.6639 11.7159
28.1103 32.3205 11.3488
28.1382 32.3929 11.3827
28.1655 32.4626 11.4153
28.1922 32.53 11.4469
28.2031 32.2951 11.0696
28.2186 32.3702 11.1375
28.2341 32.4423 11.2028
28.2495 32.512 11.266
28.265 32.5796 11.3275
28.2868 32.4772 11.1179
28.2924 32.5268 11.1763
28.2981 32.5753 11.2337
28.3042 32.623 11.2901
28.3104 32.6701 11.3459
28.7053 33.4314 11.5476
28.665 33.3742 11.5557
28.6251 33.317 11.5638
28.5855 33.2597 11.5719
28.5461 33.2022 11.58
28.7728 33.5952 11.6589
28.7222 33.5168 11.6547
28.673 33.4398 11.6506
28.625 33.3637 11.6466
28.5779 33.288 11.6426
28.5292 33.5133 12.2066
28.5036 33.4353 12.1316
28.4798 33.3611 12.0603
28.4575 33.29 11.992
28.4365 33.2214 11.9264
28.1279 32.8158 12.1115
28.1553 32.827 12.0486
28.1817 32.8377 11.9883
28.2072 32.8479 11.9305
28.2319 32.8577 11.8747
28.0581 32.6 11.9429
28.0943 32.6388 11.9018
28.1293 32.6759 11.8624
28.163 32.7116 11.8245
28.1957 32.746 11.788
28.1193 32.2266 11.1875
28.1459 32.3125 11.2424
28.1719 32.3943 11.2949
28.1973 32.4729 11.3453
28.2224 32.5486 11.3939
28.762 33.6703 11.8289
28.7099 33.5792 11.8043
28.6601 33.4911 11.7804
28.6122 33.4051 11.7572
28.5659 33.3206 11.7344
28.5208 33.2371 11.712
28.3604 33.238 12.1858
28.3575 33.1958 12.1146
28.3549 33.1553 12.0463
28.3528 33.1162 11.9804
28.3509 33.0782 11.9167
28.3494 33.0413 11.8549
28.0954 32.4294 11.5564
28.1255 32.4878 11.5645
28.1548 32.5443 11.5723
28.1836 32.5991 11.5799
28.2117 32.6524 11.5873
28.2393 32.7044 11.5945
28.2465 32.3893 11.0936
28.2567 32.4508 11.1565
28.2671 32.5105 11.2178
28.2776 32.5687 11.2775
28.2883 32.6256 11.3362
28.2992 32.6816 11.3939
28.3104 32.737 11.4511
28.4271 32.7877 11.221
28.4179 32.8001 11.2641
28.4087 32.8125 11.3073
28.3997 32.8249 11.3509
28.3907 32.8374 11.3947
28.3818 32.85 11.439
28.3728 32.8627 11.4838
28.5507 33.0683 11.3425
28.529 33.051 11.3717
28.507 33.0335 11.4012
28.4849 33.0157 11.4311
28.4626 32.9976 11.4615
28.44 32.9791 11.4924
28.417 32.9604 11.5238
28.6733 33.3549 11.4996
28.6373 33.3066 11.5127
28.6014 33.2582 11.5258
28.5656 33.2095 11.539
28.5298 33.1602 11.5523
28.4939 33.1104 11.5658
28.4576 33.0598 11.5794
28.809 33.6841 11.7241
28.752 33.5929 11.7122
28.6974 33.5043 11.7006
28.6447 33.4176 11.6892
28.5934 33.3322 11.6781
28.5432 33.2473 11.667
28.4938 33.1624 11.6559
28.5919 33.6115 12.2113
28.5574 33.52 12.1347
28.5254 33.4333 12.0624
28.4955 33.3507 11.9935
28.4675 33.2713 11.9275
28.441 33.1944 11.8637
28.4158 33.1195 11.8017
28.1764 32.917 12.1473
28.1974 32.9152 12.0801
28.2178 32.9135 12.0157
28.2375 32.9118 11.9537
28.2566 32.9101 11.894
28.2753 32.9083 11.8363
28.2936 32.9066 11.7803
28.0679 32.5629 11.851
28.1025 32.6058 11.8221
28.1359 32.6471 11.7943
28.1683 32.6869 11.7674
28.1998 32.7254 11.7413
28.2305 32.7627 11.7161
28.2604 32.7988 11.6916
28.1149 32.2768 11.272
28.1422 32.3553 11.3158
28.1688 32.4306 11.3577
28.1948 32.5031 11.3983
28.2204 32.5733 11.4375
28.2457 32.6415 11.4757
28.2709 32.7082 11.5131
28.3603 32.6389 11.1679
28.3579 32.6682 11.2183
28.3557 32.6974 11.2684
28.3537 32.7264 11.3183
28.352 32.7554 11.3683
28.3504 32.7843 11.4183
28.3491 32.8133 11.4685
28.3479 32.8425 11.5191
28.6113 33.2088 11.4151
28.5829 33.1767 11.4368
28.5543 33.1443 11.4587
28.5256 33.1114 11.4809
28.4966 33.0781 11.5034
28.4674 33.0442 11.5262
28.4378 33.0097 11.5494
28.4078 32.9745 11.573
28.6704 33.6402 12.0345
28.6276 33.549 11.9832
28.5873 33.4616 11.9341
28.549 33.3772 11.8868
28.5124 33.2952 11.841
28.4773 33.215 11.7962
28.4433 33.136 11.7521
28.4103 33.0578 11.7086
28.2812 33.1026 12.1714
28.2886 33.0775 12.1019
28.2958 33.0532 12.0352
28.303 33.0298 11.9708
28.3102 33.0071 11.9085
28.3174 32.985 11.8482
28.3246 32.9634 11.7895
28.3317 32.9424 11.7324
28.0833 32.4949 11.6947
28.1153 32.5455 11.6856
28.1464 32.5945 11.6769
28.1768 32.6419 11.6684
28.2064 32.6879 11.6602
28.2354 32.7327 11.6522
28.2638 32.7764 11.6443
28.2917 32.819 11.6367
28.4899 32.9293 11.2786
28.4744 32.9265 11.3147
28.4588 32.9236 11.3512
28.4431 32.9207 11.3882
28.4274 32.9177 11.4256
28.4115 32.9146 11.4635
28.3954 32.9115 11.5021
28.3792 32.9083 11.5413
28.3628 32.9049 11.5811
28.7384 33.5113 11.6004
28.6932 33.4441 11.6028
28.6489 33.3774 11.6052
28.6053 33.3111 11.6076
28.5621 33.2447 11.61
28.5192 33.178 11.6123
28.4764 33.1107 11.6146
28.4334 33.0424 11.617
28.3901 32.9728 11.6194
28.4366 33.3644 12.1968
28.4236 33.3061 12.1239
28.4116 33.2503 12.0542
28.4003 33.1965 11.9871
28.3899 33.1444 11.9223
28.38 33.0938 11.8595
28.3708 33.0445 11.7983
28.3621 32.9961 11.7385
28.3539 32.9485 11.6797
28.0459 32.6407 12.0495
28.0844 32.675 11.9937
28.1212 32.7076 11.9405
28.1566 32.7387 11.8896
28.1908 32.7685 11.8408
28.2237 32.7971 11.7939
28.2556 32.8246 11.7487
28.2866 32.8511 11.7051
28.3168 32.8767 11.6628
28.1056 32.3596 11.4204
28.1342 32.4267 11.4453
28.1621 32.4916 11.4694
28.1894 32.5544 11.4927
28.2163 32.6155 11.5153
28.2427 32.6749 11.5374
28.2688 32.7331 11.5591
28.2948 32.7901 11.5803
28.3205 32.8462 11.6012
28.1472 32.1805 11.05
28.1701 32.2735 11.1232
28.1924 32.3615 11.1926
28.2143 32.4454 11.259
28.236 32.5261 11.3228
28.2577 32.6042 11.3848
28.2794 32.6802 11.4452
28.3013 32.7548 11.5046
28.3235 32.8284 11.5634
28.3462 32.9015 11.6218
28.3462 32.9015 11.6218
3 5 1 2 0.148499834589363 0.4716336665019576 0.28712841524117994
3 2 6 5 0.148499834589363 0.4716336665019576 0.28712841524117994
3 267 102 62 0.148499834589363 0.4716336665019576 0.28712841524117994
3 33 35 220 0.148499834589363 0.4716336665019576 0.28712841524117994
3 29 30 60 0.148499834589363 0.4716336665019576 0.28712841524117994
3 28 29 167 0.148499834589363 0.4716336665019576 0.28712841524117994
3 101 62 102 0.148499834589363 0.4716336665019576 0.28712841524117994
3 101 170 169 0.148499834589363 0.4716336665019576 0.28712841524117994
3 102 170 101 0.148499834589363 0.4716336665019576 0.28712841524117994
3 62 101 61 0.148499834589363 0.4716336665019576 0.28712841524117994
3 104 222 105 0.148499834589363 0.4716336665019576 0.28712841524117994
3 222 223 105 0.148499834589363 0.4716336665019576 0.28712841524117994
3 106 105 223 0.148499834589363 0.4716336665019576 0.28712841524117994
3 149 223 222 0.148499834589363 0.4716336665019576 0.28712841524117994
3 120 119 281 0.148499834589363 0.4716336665019576 0.28712841524117994
3 282 120 281 0.148499834589363 0.4716336665019576 0.28712841524117994
3 13 14 79 0.148499834589363 0.4716336665019576 0.28712841524117994
3 31 103 264 0.148499834589363 0.4716336665019576 0.28712841524117994
3 60 30 264 0.148499834589363 0.4716336665019576 0.28712841524117994
3 30 31 264 0.148499834589363 0.4716336665019576 0.28712841524117994
3 264 103 104 0.148499834589363 0.4716336665019576 0.28712841524117994
3 33 220 32 0.148499834589363 0.4716336665019576 0.28712841524117994
3 220 103 32 0.148499834589363 0.4716336665019576 0.28712841524117994
3 32 103 31 0.148499834589363 0.4716336665019576 0.28712841524117994
3 268 102 267 0.148499834589363 0.4716336665019576 0.28712841524117994
3 267 106 268 0.148499834589363 0.4716336665019576 0.28712841524117994
3 138 22 137 0.148499834589363 0.4716336665019576 0.28712841524117994
3 206 22 138 0.148499834589363 0.4716336665019576 0.28712841524117994
3 138 207 206 0.148499834589363 0.4716336665019576 0.28712841524117994
3 206 21 22 0.148499834589363 0.4716336665019576 0.28712841524117994
3 207 21 206 0.148499834589363 0.4716336665019576 0.28712841524117994
3 92 257 258 0.148499834589363 0.4716336665019576 0.28712841524117994
3 258 98 259 0.148499834589363 0.4716336665019576 0.28712841524117994
3 92 258 93 0.148499834589363 0.4716336665019576 0.28712841524117994
3 93 258 259 0.148499834589363 0.4716336665019576 0.28712841524117994
3 93 200 92 0.148499834589363 0.4716336665019576 0.28712841524117994
3 201 200 93 0.148499834589363 0.4716336665019576 0.28712841524117994
3 256 19 20 0.148499834589363 0.4716336665019576 0.28712841524117994
3 20 96 256 0.148499834589363 0.4716336665019576 0.28712841524117994
3 256 96 257 0.148499834589363 0.4716336665019576 0.28712841524117994
3 91 257 92 0.148499834589363 0.4716336665019576 0.28712841524117994
3 91 256 257 0.148499834589363 0.4716336665019576 0.28712841524117994
3 19 256 91 0.148499834589363 0.4716336665019576 0.28712841524117994
3 99 29 60 0.148499834589363 0.4716336665019576 0.28712841524117994
3 99 167 29 0.148499834589363 0.4716336665019576 0.28712841524117994
3 62 61 266 0.148499834589363 0.4716336665019576 0.28712841524117994
3 267 62 266 0.148499834589363 0.4716336665019576 0.28712841524117994
3 266 106 267 0.148499834589363 0.4716336665019576 0.28712841524117994
3 105 106 266 0.148499834589363 0.4716336665019576 0.28712841524117994
3 104 103 221 0.148499834589363 0.4716336665019576 0.28712841524117994
3 221 103 220 0.148499834589363 0.4716336665019576 0.28712841524117994
3 221 222 104 0.148499834589363 0.4716336665019576 0.28712841524117994
3 148 149 222 0.148499834589363 0.4716336665019576 0.28712841524117994
3 222 221 148 0.148499834589363 0.4716336665019576 0.28712841524117994
3 273 111 112 0.148499834589363 0.4716336665019576 0.28712841524117994
3 270 172 269 0.148499834589363 0.4716336665019576 0.28712841524117994
3 172 268 269 0.148499834589363 0.4716336665019576 0.28712841524117994
3 269 268 225 0.148499834589363 0.4716336665019576 0.28712841524117994
3 223 149 109 0.148499834589363 0.4716336665019576 0.28712841524117994
3 116 317 117 0.148499834589363 0.4716336665019576 0.28712841524117994
3 315 46 47 0.148499834589363 0.4716336665019576 0.28712841524117994
3 47 49 315 0.148499834589363 0.4716336665019576 0.28712841524117994
3 321 322 233 0.148499834589363 0.4716336665019576 0.28712841524117994
3 177 310 176 0.148499834589363 0.4716336665019576 0.28712841524117994
3 153 152 116 0.148499834589363 0.4716336665019576 0.28712841524117994
3 116 117 153 0.148499834589363 0.4716336665019576 0.28712841524117994
3 153 117 154 0.148499834589363 0.4716336665019576 0.28712841524117994
3 154 229 153 0.148499834589363 0.4716336665019576 0.28712841524117994
3 45 46 115 0.148499834589363 0.4716336665019576 0.28712841524117994
3 115 152 45 0.148499834589363 0.4716336665019576 0.28712841524117994
3 116 152 115 0.148499834589363 0.4716336665019576 0.28712841524117994
3 46 315 115 0.148499834589363 0.4716336665019576 0.28712841524117994
3 112 111 227 0.148499834589363 0.4716336665019576 0.28712841524117994
3 45 152 227 0.148499834589363 0.4716336665019576 0.28712841524117994
3 54 55 72 0.148499834589363 0.4716336665019576 0.28712841524117994
3 280 119 51 0.148499834589363 0.4716336665019576 0.28712841524117994
3 51 52 280 0.148499834589363 0.4716336665019576 0.28712841524117994
3 281 119 280 0.148499834589363 0.4716336665019576 0.28712841524117994
3 240 322 321 0.148499834589363 0.4716336665019576 0.28712841524117994
3 285 238 284 0.148499834589363 0.4716336665019576 0.28712841524117994
3 219 172 270 0.148499834589363 0.4716336665019576 0.28712841524117994
3 270 303 219 0.148499834589363 0.4716336665019576 0.28712841524117994
3 303 302 219 0.148499834589363 0.4716336665019576 0.28712841524117994
3 224 106 223 0.148499834589363 0.4716336665019576 0.28712841524117994
3 224 268 106 0.148499834589363 0.4716336665019576 0.28712841524117994
3 225 268 224 0.148499834589363 0.4716336665019576 0.28712841524117994
3 167 214 213 0.148499834589363 0.4716336665019576 0.28712841524117994
3 213 25 26 0.148499834589363 0.4716336665019576 0.28712841524117994
3 26 28 213 0.148499834589363 0.4716336665019576 0.28712841524117994
3 28 167 213 0.148499834589363 0.4716336665019576 0.28712841524117994
3 24 25 142 0.148499834589363 0.4716336665019576 0.28712841524117994
3 142 143 24 0.148499834589363 0.4716336665019576 0.28712841524117994
3 142 214 143 0.148499834589363 0.4716336665019576 0.28712841524117994
3 25 213 142 0.148499834589363 0.4716336665019576 0.28712841524117994
3 142 213 214 0.148499834589363 0.4716336665019576 0.28712841524117994
3 168 214 167 0.148499834589363 0.4716336665019576 0.28712841524117994
3 167 99 168 0.148499834589363 0.4716336665019576 0.28712841524117994
3 24 143 297 0.148499834589363 0.4716336665019576 0.28712841524117994
3 171 170 102 0.148499834589363 0.4716336665019576 0.28712841524117994
3 102 268 171 0.148499834589363 0.4716336665019576 0.28712841524117994
3 171 268 172 0.148499834589363 0.4716336665019576 0.28712841524117994
3 139 207 138 0.148499834589363 0.4716336665019576 0.28712841524117994
3 172 219 218 0.148499834589363 0.4716336665019576 0.28712841524117994
3 218 219 302 0.148499834589363 0.4716336665019576 0.28712841524117994
3 218 171 172 0.148499834589363 0.4716336665019576 0.28712841524117994
3 146 171 218 0.148499834589363 0.4716336665019576 0.28712841524117994
3 138 137 298 0.148499834589363 0.4716336665019576 0.28712841524117994
3 143 144 298 0.148499834589363 0.4716336665019576 0.28712841524117994
3 298 297 143 0.148499834589363 0.4716336665019576 0.28712841524117994
3 170 171 217 0.148499834589363 0.4716336665019576 0.28712841524117994
3 217 171 146 0.148499834589363 0.4716336665019576 0.28712841524117994
3 215 144 143 0.148499834589363 0.4716336665019576 0.28712841524117994
3 143 214 215 0.148499834589363 0.4716336665019576 0.28712841524117994
3 215 168 169 0.148499834589363 0.4716336665019576 0.28712841524117994
3 214 168 215 0.148499834589363 0.4716336665019576 0.28712841524117994
3 16 17 288 0.148499834589363 0.4716336665019576 0.28712841524117994
3 342 296 305 0.148499834589363 0.4716336665019576 0.28712841524117994
3 293 205 294 0.148499834589363 0.4716336665019576 0.28712841524117994
3 283 183 284 0.148499834589363 0.4716336665019576 0.28712841524117994
3 182 183 283 0.148499834589363 0.4716336665019576 0.28712841524117994
3 328 183 182 0.148499834589363 0.4716336665019576 0.28712841524117994
3 20 21 95 0.148499834589363 0.4716336665019576 0.28712841524117994
3 95 96 20 0.148499834589363 0.4716336665019576 0.28712841524117994
3 95 21 207 0.148499834589363 0.4716336665019576 0.28712841524117994
3 207 96 95 0.148499834589363 0.4716336665019576 0.28712841524117994
3 208 96 207 0.148499834589363 0.4716336665019576 0.28712841524117994
3 207 139 208 0.148499834589363 0.4716336665019576 0.28712841524117994
3 257 96 97 0.148499834589363 0.4716336665019576 0.28712841524117994
3 209 98 97 0.148499834589363 0.4716336665019576 0.28712841524117994
3 97 208 209 0.148499834589363 0.4716336665019576 0.28712841524117994
3 96 208 97 0.148499834589363 0.4716336665019576 0.28712841524117994
3 97 258 257 0.148499834589363 0.4716336665019576 0.28712841524117994
3 98 258 97 0.148499834589363 0.4716336665019576 0.28712841524117994
3 211 302 303 0.148499834589363 0.4716336665019576 0.28712841524117994
3 203 261 204 0.148499834589363 0.4716336665019576 0.28712841524117994
3 205 293 204 0.148499834589363 0.4716336665019576 0.28712841524117994
3 204 293 292 0.148499834589363 0.4716336665019576 0.28712841524117994
3 204 90 203 0.148499834589363 0.4716336665019576 0.28712841524117994
3 292 90 204 0.148499834589363 0.4716336665019576 0.28712841524117994
3 87 288 17 0.148499834589363 0.4716336665019576 0.28712841524117994
3 289 288 87 0.148499834589363 0.4716336665019576 0.28712841524117994
3 94 93 259 0.148499834589363 0.4716336665019576 0.28712841524117994
3 94 261 203 0.148499834589363 0.4716336665019576 0.28712841524117994
3 201 93 94 0.148499834589363 0.4716336665019576 0.28712841524117994
3 92 200 199 0.148499834589363 0.4716336665019576 0.28712841524117994
3 199 91 92 0.148499834589363 0.4716336665019576 0.28712841524117994
3 199 87 17 0.148499834589363 0.4716336665019576 0.28712841524117994
3 200 87 199 0.148499834589363 0.4716336665019576 0.28712841524117994
3 265 266 61 0.148499834589363 0.4716336665019576 0.28712841524117994
3 265 264 104 0.148499834589363 0.4716336665019576 0.28712841524117994
3 104 105 265 0.148499834589363 0.4716336665019576 0.28712841524117994
3 105 266 265 0.148499834589363 0.4716336665019576 0.28712841524117994
3 265 61 60 0.148499834589363 0.4716336665019576 0.28712841524117994
3 60 264 265 0.148499834589363 0.4716336665019576 0.28712841524117994
3 37 107 36 0.148499834589363 0.4716336665019576 0.28712841524117994
3 37 306 107 0.148499834589363 0.4716336665019576 0.28712841524117994
3 38 306 37 0.148499834589363 0.4716336665019576 0.28712841524117994
3 36 107 147 0.148499834589363 0.4716336665019576 0.28712841524117994
3 147 221 220 0.148499834589363 0.4716336665019576 0.28712841524117994
3 107 148 147 0.148499834589363 0.4716336665019576 0.28712841524117994
3 147 148 221 0.148499834589363 0.4716336665019576 0.28712841524117994
3 147 35 36 0.148499834589363 0.4716336665019576 0.28712841524117994
3 147 220 35 0.148499834589363 0.4716336665019576 0.28712841524117994
3 63 38 39 0.148499834589363 0.4716336665019576 0.28712841524117994
3 63 306 38 0.148499834589363 0.4716336665019576 0.28712841524117994
3 307 306 63 0.148499834589363 0.4716336665019576 0.28712841524117994
3 39 173 63 0.148499834589363 0.4716336665019576 0.28712841524117994
3 149 148 108 0.148499834589363 0.4716336665019576 0.28712841524117994
3 108 306 307 0.148499834589363 0.4716336665019576 0.28712841524117994
3 107 306 108 0.148499834589363 0.4716336665019576 0.28712841524117994
3 108 148 107 0.148499834589363 0.4716336665019576 0.28712841524117994
3 307 109 108 0.148499834589363 0.4716336665019576 0.28712841524117994
3 108 109 149 0.148499834589363 0.4716336665019576 0.28712841524117994
3 40 41 66 0.148499834589363 0.4716336665019576 0.28712841524117994
3 40 173 39 0.148499834589363 0.4716336665019576 0.28712841524117994
3 66 173 40 0.148499834589363 0.4716336665019576 0.28712841524117994
3 66 41 272 0.148499834589363 0.4716336665019576 0.28712841524117994
3 111 273 272 0.148499834589363 0.4716336665019576 0.28712841524117994
3 42 111 272 0.148499834589363 0.4716336665019576 0.28712841524117994
3 272 41 42 0.148499834589363 0.4716336665019576 0.28712841524117994
3 223 109 150 0.148499834589363 0.4716336665019576 0.28712841524117994
3 150 224 223 0.148499834589363 0.4716336665019576 0.28712841524117994
3 110 224 150 0.148499834589363 0.4716336665019576 0.28712841524117994
3 66 272 67 0.148499834589363 0.4716336665019576 0.28712841524117994
3 67 272 273 0.148499834589363 0.4716336665019576 0.28712841524117994
3 176 310 309 0.148499834589363 0.4716336665019576 0.28712841524117994
3 110 65 309 0.148499834589363 0.4716336665019576 0.28712841524117994
3 307 63 64 0.148499834589363 0.4716336665019576 0.28712841524117994
3 64 63 173 0.148499834589363 0.4716336665019576 0.28712841524117994
3 308 65 110 0.148499834589363 0.4716336665019576 0.28712841524117994
3 110 150 308 0.148499834589363 0.4716336665019576 0.28712841524117994
3 308 150 109 0.148499834589363 0.4716336665019576 0.28712841524117994
3 308 64 65 0.148499834589363 0.4716336665019576 0.28712841524117994
3 308 109 307 0.148499834589363 0.4716336665019576 0.28712841524117994
3 307 64 308 0.148499834589363 0.4716336665019576 0.28712841524117994
3 234 50 51 0.148499834589363 0.4716336665019576 0.28712841524117994
3 51 119 234 0.148499834589363 0.4716336665019576 0.28712841524117994
3 316 317 116 0.148499834589363 0.4716336665019576 0.28712841524117994
3 116 115 316 0.148499834589363 0.4716336665019576 0.28712841524117994
3 316 115 315 0.148499834589363 0.4716336665019576 0.28712841524117994
3 316 158 317 0.148499834589363 0.4716336665019576 0.28712841524117994
3 322 323 279 0.148499834589363 0.4716336665019576 0.28712841524117994
3 279 233 322 0.148499834589363 0.4716336665019576 0.28712841524117994
3 275 177 176 0.148499834589363 0.4716336665019576 0.28712841524117994
3 225 310 311 0.148499834589363 0.4716336665019576 0.28712841524117994
3 310 177 311 0.148499834589363 0.4716336665019576 0.28712841524117994
3 177 178 311 0.148499834589363 0.4716336665019576 0.28712841524117994
3 152 153 228 0.148499834589363 0.4716336665019576 0.28712841524117994
3 228 227 152 0.148499834589363 0.4716336665019576 0.28712841524117994
3 228 153 229 0.148499834589363 0.4716336665019576 0.28712841524117994
3 112 227 228 0.148499834589363 0.4716336665019576 0.28712841524117994
3 44 111 42 0.148499834589363 0.4716336665019576 0.28712841524117994
3 44 227 111 0.148499834589363 0.4716336665019576 0.28712841524117994
3 45 227 44 0.148499834589363 0.4716336665019576 0.28712841524117994
3 189 338 131 0.148499834589363 0.4716336665019576 0.28712841524117994
3 71 282 281 0.148499834589363 0.4716336665019576 0.28712841524117994
3 71 181 182 0.148499834589363 0.4716336665019576 0.28712841524117994
3 182 283 71 0.148499834589363 0.4716336665019576 0.28712841524117994
3 71 283 282 0.148499834589363 0.4716336665019576 0.28712841524117994
3 125 244 326 0.148499834589363 0.4716336665019576 0.28712841524117994
3 54 72 179 0.148499834589363 0.4716336665019576 0.28712841524117994
3 179 53 54 0.148499834589363 0.4716336665019576 0.28712841524117994
3 281 280 70 0.148499834589363 0.4716336665019576 0.28712841524117994
3 70 71 281 0.148499834589363 0.4716336665019576 0.28712841524117994
3 180 181 70 0.148499834589363 0.4716336665019576 0.28712841524117994
3 181 71 70 0.148499834589363 0.4716336665019576 0.28712841524117994
3 287 240 286 0.148499834589363 0.4716336665019576 0.28712841524117994
3 287 323 322 0.148499834589363 0.4716336665019576 0.28712841524117994
3 322 240 287 0.148499834589363 0.4716336665019576 0.28712841524117994
3 238 285 239 0.148499834589363 0.4716336665019576 0.28712841524117994
3 239 240 321 0.148499834589363 0.4716336665019576 0.28712841524117994
3 286 240 239 0.148499834589363 0.4716336665019576 0.28712841524117994
3 239 285 286 0.148499834589363 0.4716336665019576 0.28712841524117994
3 286 285 184 0.148499834589363 0.4716336665019576 0.28712841524117994
3 284 183 184 0.148499834589363 0.4716336665019576 0.28712841524117994
3 184 285 284 0.148499834589363 0.4716336665019576 0.28712841524117994
3 251 252 136 0.148499834589363 0.4716336665019576 0.28712841524117994
3 79 14 192 0.148499834589363 0.4716336665019576 0.28712841524117994
3 14 15 192 0.148499834589363 0.4716336665019576 0.28712841524117994
3 80 192 193 0.148499834589363 0.4716336665019576 0.28712841524117994
3 79 192 80 0.148499834589363 0.4716336665019576 0.28712841524117994
3 82 252 251 0.148499834589363 0.4716336665019576 0.28712841524117994
3 84 288 289 0.148499834589363 0.4716336665019576 0.28712841524117994
3 248 12 13 0.148499834589363 0.4716336665019576 0.28712841524117994
3 225 224 151 0.148499834589363 0.4716336665019576 0.28712841524117994
3 151 224 110 0.148499834589363 0.4716336665019576 0.28712841524117994
3 110 309 151 0.148499834589363 0.4716336665019576 0.28712841524117994
3 151 310 225 0.148499834589363 0.4716336665019576 0.28712841524117994
3 151 309 310 0.148499834589363 0.4716336665019576 0.28712841524117994
3 100 168 99 0.148499834589363 0.4716336665019576 0.28712841524117994
3 60 61 100 0.148499834589363 0.4716336665019576 0.28712841524117994
3 100 99 60 0.148499834589363 0.4716336665019576 0.28712841524117994
3 100 61 101 0.148499834589363 0.4716336665019576 0.28712841524117994
3 100 101 169 0.148499834589363 0.4716336665019576 0.28712841524117994
3 169 168 100 0.148499834589363 0.4716336665019576 0.28712841524117994
3 23 137 22 0.148499834589363 0.4716336665019576 0.28712841524117994
3 24 297 23 0.148499834589363 0.4716336665019576 0.28712841524117994
3 23 298 137 0.148499834589363 0.4716336665019576 0.28712841524117994
3 297 298 23 0.148499834589363 0.4716336665019576 0.28712841524117994
3 210 141 302 0.148499834589363 0.4716336665019576 0.28712841524117994
3 302 211 210 0.148499834589363 0.4716336665019576 0.28712841524117994
3 210 98 209 0.148499834589363 0.4716336665019576 0.28712841524117994
3 209 141 210 0.148499834589363 0.4716336665019576 0.28712841524117994
3 259 98 210 0.148499834589363 0.4716336665019576 0.28712841524117994
3 210 211 259 0.148499834589363 0.4716336665019576 0.28712841524117994
3 302 141 301 0.148499834589363 0.4716336665019576 0.28712841524117994
3 301 218 302 0.148499834589363 0.4716336665019576 0.28712841524117994
3 146 218 301 0.148499834589363 0.4716336665019576 0.28712841524117994
3 138 298 299 0.148499834589363 0.4716336665019576 0.28712841524117994
3 299 298 144 0.148499834589363 0.4716336665019576 0.28712841524117994
3 299 139 138 0.148499834589363 0.4716336665019576 0.28712841524117994
3 145 299 144 0.148499834589363 0.4716336665019576 0.28712841524117994
3 205 204 262 0.148499834589363 0.4716336665019576 0.28712841524117994
3 262 204 261 0.148499834589363 0.4716336665019576 0.28712841524117994
3 291 86 290 0.148499834589363 0.4716336665019576 0.28712841524117994
3 292 86 291 0.148499834589363 0.4716336665019576 0.28712841524117994
3 291 90 292 0.148499834589363 0.4716336665019576 0.28712841524117994
3 198 293 294 0.148499834589363 0.4716336665019576 0.28712841524117994
3 198 255 254 0.148499834589363 0.4716336665019576 0.28712841524117994
3 122 283 284 0.148499834589363 0.4716336665019576 0.28712841524117994
3 284 238 122 0.148499834589363 0.4716336665019576 0.28712841524117994
3 238 237 122 0.148499834589363 0.4716336665019576 0.28712841524117994
3 183 328 329 0.148499834589363 0.4716336665019576 0.28712841524117994
3 329 184 183 0.148499834589363 0.4716336665019576 0.28712841524117994
3 247 329 246 0.148499834589363 0.4716336665019576 0.28712841524117994
3 246 329 328 0.148499834589363 0.4716336665019576 0.28712841524117994
3 245 338 246 0.148499834589363 0.4716336665019576 0.28712841524117994
3 246 328 245 0.148499834589363 0.4716336665019576 0.28712841524117994
3 296 255 295 0.148499834589363 0.4716336665019576 0.28712841524117994
3 294 205 295 0.148499834589363 0.4716336665019576 0.28712841524117994
3 295 198 294 0.148499834589363 0.4716336665019576 0.28712841524117994
3 255 198 295 0.148499834589363 0.4716336665019576 0.28712841524117994
3 332 296 342 0.148499834589363 0.4716336665019576 0.28712841524117994
3 342 323 332 0.148499834589363 0.4716336665019576 0.28712841524117994
3 323 287 332 0.148499834589363 0.4716336665019576 0.28712841524117994
3 286 184 330 0.148499834589363 0.4716336665019576 0.28712841524117994
3 330 329 247 0.148499834589363 0.4716336665019576 0.28712841524117994
3 184 329 330 0.148499834589363 0.4716336665019576 0.28712841524117994
3 212 211 303 0.148499834589363 0.4716336665019576 0.28712841524117994
3 261 211 212 0.148499834589363 0.4716336665019576 0.28712841524117994
3 212 262 261 0.148499834589363 0.4716336665019576 0.28712841524117994
3 89 291 290 0.148499834589363 0.4716336665019576 0.28712841524117994
3 90 291 89 0.148499834589363 0.4716336665019576 0.28712841524117994
3 260 94 259 0.148499834589363 0.4716336665019576 0.28712841524117994
3 261 94 260 0.148499834589363 0.4716336665019576 0.28712841524117994
3 259 211 260 0.148499834589363 0.4716336665019576 0.28712841524117994
3 260 211 261 0.148499834589363 0.4716336665019576 0.28712841524117994
3 202 94 203 0.148499834589363 0.4716336665019576 0.28712841524117994
3 201 94 202 0.148499834589363 0.4716336665019576 0.28712841524117994
3 203 90 202 0.148499834589363 0.4716336665019576 0.28712841524117994
3 202 89 201 0.148499834589363 0.4716336665019576 0.28712841524117994
3 90 89 202 0.148499834589363 0.4716336665019576 0.28712841524117994
3 19 91 18 0.148499834589363 0.4716336665019576 0.28712841524117994
3 91 199 18 0.148499834589363 0.4716336665019576 0.28712841524117994
3 18 199 17 0.148499834589363 0.4716336665019576 0.28712841524117994
3 176 309 175 0.148499834589363 0.4716336665019576 0.28712841524117994
3 175 309 65 0.148499834589363 0.4716336665019576 0.28712841524117994
3 65 64 174 0.148499834589363 0.4716336665019576 0.28712841524117994
3 174 175 65 0.148499834589363 0.4716336665019576 0.28712841524117994
3 67 175 174 0.148499834589363 0.4716336665019576 0.28712841524117994
3 66 67 174 0.148499834589363 0.4716336665019576 0.28712841524117994
3 174 173 66 0.148499834589363 0.4716336665019576 0.28712841524117994
3 174 64 173 0.148499834589363 0.4716336665019576 0.28712841524117994
3 321 233 232 0.148499834589363 0.4716336665019576 0.28712841524117994
3 236 237 160 0.148499834589363 0.4716336665019576 0.28712841524117994
3 158 234 235 0.148499834589363 0.4716336665019576 0.28712841524117994
3 235 120 236 0.148499834589363 0.4716336665019576 0.28712841524117994
3 119 120 235 0.148499834589363 0.4716336665019576 0.28712841524117994
3 235 234 119 0.148499834589363 0.4716336665019576 0.28712841524117994
3 158 316 157 0.148499834589363 0.4716336665019576 0.28712841524117994
3 157 234 158 0.148499834589363 0.4716336665019576 0.28712841524117994
3 157 315 49 0.148499834589363 0.4716336665019576 0.28712841524117994
3 157 316 315 0.148499834589363 0.4716336665019576 0.28712841524117994
3 49 50 157 0.148499834589363 0.4716336665019576 0.28712841524117994
3 50 234 157 0.148499834589363 0.4716336665019576 0.28712841524117994
3 314 323 342 0.148499834589363 0.4716336665019576 0.28712841524117994
3 314 279 323 0.148499834589363 0.4716336665019576 0.28712841524117994
3 342 305 314 0.148499834589363 0.4716336665019576 0.28712841524117994
3 233 279 278 0.148499834589363 0.4716336665019576 0.28712841524117994
3 277 232 278 0.148499834589363 0.4716336665019576 0.28712841524117994
3 278 232 233 0.148499834589363 0.4716336665019576 0.28712841524117994
3 112 228 113 0.148499834589363 0.4716336665019576 0.28712841524117994
3 113 228 229 0.148499834589363 0.4716336665019576 0.28712841524117994
3 165 244 125 0.148499834589363 0.4716336665019576 0.28712841524117994
3 337 244 165 0.148499834589363 0.4716336665019576 0.28712841524117994
3 130 337 165 0.148499834589363 0.4716336665019576 0.28712841524117994
3 166 244 337 0.148499834589363 0.4716336665019576 0.28712841524117994
3 166 338 245 0.148499834589363 0.4716336665019576 0.28712841524117994
3 166 131 338 0.148499834589363 0.4716336665019576 0.28712841524117994
3 337 131 166 0.148499834589363 0.4716336665019576 0.28712841524117994
3 74 181 180 0.148499834589363 0.4716336665019576 0.28712841524117994
3 125 326 325 0.148499834589363 0.4716336665019576 0.28712841524117994
3 69 70 280 0.148499834589363 0.4716336665019576 0.28712841524117994
3 69 52 53 0.148499834589363 0.4716336665019576 0.28712841524117994
3 69 280 52 0.148499834589363 0.4716336665019576 0.28712841524117994
3 53 179 69 0.148499834589363 0.4716336665019576 0.28712841524117994
3 69 179 180 0.148499834589363 0.4716336665019576 0.28712841524117994
3 180 70 69 0.148499834589363 0.4716336665019576 0.28712841524117994
3 254 191 253 0.148499834589363 0.4716336665019576 0.28712841524117994
3 253 191 252 0.148499834589363 0.4716336665019576 0.28712841524117994
3 252 82 253 0.148499834589363 0.4716336665019576 0.28712841524117994
3 190 136 252 0.148499834589363 0.4716336665019576 0.28712841524117994
3 252 191 190 0.148499834589363 0.4716336665019576 0.28712841524117994
3 190 338 189 0.148499834589363 0.4716336665019576 0.28712841524117994
3 189 136 190 0.148499834589363 0.4716336665019576 0.28712841524117994
3 81 80 193 0.148499834589363 0.4716336665019576 0.28712841524117994
3 81 82 251 0.148499834589363 0.4716336665019576 0.28712841524117994
3 251 250 81 0.148499834589363 0.4716336665019576 0.28712841524117994
3 250 80 81 0.148499834589363 0.4716336665019576 0.28712841524117994
3 83 84 193 0.148499834589363 0.4716336665019576 0.28712841524117994
3 83 192 15 0.148499834589363 0.4716336665019576 0.28712841524117994
3 193 192 83 0.148499834589363 0.4716336665019576 0.28712841524117994
3 288 84 83 0.148499834589363 0.4716336665019576 0.28712841524117994
3 83 15 16 0.148499834589363 0.4716336665019576 0.28712841524117994
3 16 288 83 0.148499834589363 0.4716336665019576 0.28712841524117994
3 290 86 85 0.148499834589363 0.4716336665019576 0.28712841524117994
3 85 289 290 0.148499834589363 0.4716336665019576 0.28712841524117994
3 85 84 289 0.148499834589363 0.4716336665019576 0.28712841524117994
3 11 12 75 0.148499834589363 0.4716336665019576 0.28712841524117994
3 75 133 11 0.148499834589363 0.4716336665019576 0.28712841524117994
3 189 131 135 0.148499834589363 0.4716336665019576 0.28712841524117994
3 249 13 79 0.148499834589363 0.4716336665019576 0.28712841524117994
3 249 248 13 0.148499834589363 0.4716336665019576 0.28712841524117994
3 79 80 249 0.148499834589363 0.4716336665019576 0.28712841524117994
3 249 80 250 0.148499834589363 0.4716336665019576 0.28712841524117994
3 300 217 146 0.148499834589363 0.4716336665019576 0.28712841524117994
3 300 145 217 0.148499834589363 0.4716336665019576 0.28712841524117994
3 139 299 300 0.148499834589363 0.4716336665019576 0.28712841524117994
3 299 145 300 0.148499834589363 0.4716336665019576 0.28712841524117994
3 140 141 209 0.148499834589363 0.4716336665019576 0.28712841524117994
3 140 301 141 0.148499834589363 0.4716336665019576 0.28712841524117994
3 209 208 140 0.148499834589363 0.4716336665019576 0.28712841524117994
3 140 208 139 0.148499834589363 0.4716336665019576 0.28712841524117994
3 139 300 140 0.148499834589363 0.4716336665019576 0.28712841524117994
3 146 301 140 0.148499834589363 0.4716336665019576 0.28712841524117994
3 140 300 146 0.148499834589363 0.4716336665019576 0.28712841524117994
3 216 145 144 0.148499834589363 0.4716336665019576 0.28712841524117994
3 169 170 216 0.148499834589363 0.4716336665019576 0.28712841524117994
3 170 217 216 0.148499834589363 0.4716336665019576 0.28712841524117994
3 217 145 216 0.148499834589363 0.4716336665019576 0.28712841524117994
3 216 215 169 0.148499834589363 0.4716336665019576 0.28712841524117994
3 144 215 216 0.148499834589363 0.4716336665019576 0.28712841524117994
3 205 262 263 0.148499834589363 0.4716336665019576 0.28712841524117994
3 263 295 205 0.148499834589363 0.4716336665019576 0.28712841524117994
3 263 305 296 0.148499834589363 0.4716336665019576 0.28712841524117994
3 296 295 263 0.148499834589363 0.4716336665019576 0.28712841524117994
3 293 198 197 0.148499834589363 0.4716336665019576 0.28712841524117994
3 292 293 197 0.148499834589363 0.4716336665019576 0.28712841524117994
3 197 198 254 0.148499834589363 0.4716336665019576 0.28712841524117994
3 196 86 197 0.148499834589363 0.4716336665019576 0.28712841524117994
3 197 86 292 0.148499834589363 0.4716336665019576 0.28712841524117994
3 197 253 196 0.148499834589363 0.4716336665019576 0.28712841524117994
3 254 253 197 0.148499834589363 0.4716336665019576 0.28712841524117994
3 121 237 236 0.148499834589363 0.4716336665019576 0.28712841524117994
3 121 122 237 0.148499834589363 0.4716336665019576 0.28712841524117994
3 236 120 121 0.148499834589363 0.4716336665019576 0.28712841524117994
3 120 282 121 0.148499834589363 0.4716336665019576 0.28712841524117994
3 282 283 121 0.148499834589363 0.4716336665019576 0.28712841524117994
3 283 122 121 0.148499834589363 0.4716336665019576 0.28712841524117994
3 339 191 247 0.148499834589363 0.4716336665019576 0.28712841524117994
3 247 246 339 0.148499834589363 0.4716336665019576 0.28712841524117994
3 339 190 191 0.148499834589363 0.4716336665019576 0.28712841524117994
3 339 246 338 0.148499834589363 0.4716336665019576 0.28712841524117994
3 338 190 339 0.148499834589363 0.4716336665019576 0.28712841524117994
3 341 255 296 0.148499834589363 0.4716336665019576 0.28712841524117994
3 296 332 341 0.148499834589363 0.4716336665019576 0.28712841524117994
3 340 191 254 0.148499834589363 0.4716336665019576 0.28712841524117994
3 247 191 340 0.148499834589363 0.4716336665019576 0.28712841524117994
3 340 330 247 0.148499834589363 0.4716336665019576 0.28712841524117994
3 254 255 340 0.148499834589363 0.4716336665019576 0.28712841524117994
3 255 341 340 0.148499834589363 0.4716336665019576 0.28712841524117994
3 88 200 201 0.148499834589363 0.4716336665019576 0.28712841524117994
3 201 89 88 0.148499834589363 0.4716336665019576 0.28712841524117994
3 88 87 200 0.148499834589363 0.4716336665019576 0.28712841524117994
3 289 87 88 0.148499834589363 0.4716336665019576 0.28712841524117994
3 290 289 88 0.148499834589363 0.4716336665019576 0.28712841524117994
3 88 89 290 0.148499834589363 0.4716336665019576 0.28712841524117994
3 68 67 273 0.148499834589363 0.4716336665019576 0.28712841524117994
3 68 175 67 0.148499834589363 0.4716336665019576 0.28712841524117994
3 176 175 68 0.148499834589363 0.4716336665019576 0.28712841524117994
3 230 229 154 0.148499834589363 0.4716336665019576 0.28712841524117994
3 154 155 230 0.148499834589363 0.4716336665019576 0.28712841524117994
3 238 239 161 0.148499834589363 0.4716336665019576 0.28712841524117994
3 161 237 238 0.148499834589363 0.4716336665019576 0.28712841524117994
3 161 160 237 0.148499834589363 0.4716336665019576 0.28712841524117994
3 160 161 319 0.148499834589363 0.4716336665019576 0.28712841524117994
3 236 160 159 0.148499834589363 0.4716336665019576 0.28712841524117994
3 159 235 236 0.148499834589363 0.4716336665019576 0.28712841524117994
3 158 235 159 0.148499834589363 0.4716336665019576 0.28712841524117994
3 317 158 159 0.148499834589363 0.4716336665019576 0.28712841524117994
3 312 178 277 0.148499834589363 0.4716336665019576 0.28712841524117994
3 277 278 312 0.148499834589363 0.4716336665019576 0.28712841524117994
3 312 311 178 0.148499834589363 0.4716336665019576 0.28712841524117994
3 6 8 333 0.148499834589363 0.4716336665019576 0.28712841524117994
3 5 6 333 0.148499834589363 0.4716336665019576 0.28712841524117994
3 333 59 5 0.148499834589363 0.4716336665019576 0.28712841524117994
3 127 128 334 0.148499834589363 0.4716336665019576 0.28712841524117994
3 8 9 127 0.148499834589363 0.4716336665019576 0.28712841524117994
3 127 185 128 0.148499834589363 0.4716336665019576 0.28712841524117994
3 9 185 127 0.148499834589363 0.4716336665019576 0.28712841524117994
3 334 333 127 0.148499834589363 0.4716336665019576 0.28712841524117994
3 127 333 8 0.148499834589363 0.4716336665019576 0.28712841524117994
3 243 165 125 0.148499834589363 0.4716336665019576 0.28712841524117994
3 181 74 327 0.148499834589363 0.4716336665019576 0.28712841524117994
3 182 181 327 0.148499834589363 0.4716336665019576 0.28712841524117994
3 327 328 182 0.148499834589363 0.4716336665019576 0.28712841524117994
3 245 328 327 0.148499834589363 0.4716336665019576 0.28712841524117994
3 327 74 326 0.148499834589363 0.4716336665019576 0.28712841524117994
3 73 325 326 0.148499834589363 0.4716336665019576 0.28712841524117994
3 180 179 73 0.148499834589363 0.4716336665019576 0.28712841524117994
3 73 179 72 0.148499834589363 0.4716336665019576 0.28712841524117994
3 72 325 73 0.148499834589363 0.4716336665019576 0.28712841524117994
3 73 74 180 0.148499834589363 0.4716336665019576 0.28712841524117994
3 326 74 73 0.148499834589363 0.4716336665019576 0.28712841524117994
3 55 56 324 0.148499834589363 0.4716336665019576 0.28712841524117994
3 324 72 55 0.148499834589363 0.4716336665019576 0.28712841524117994
3 324 325 72 0.148499834589363 0.4716336665019576 0.28712841524117994
3 194 81 193 0.148499834589363 0.4716336665019576 0.28712841524117994
3 82 81 194 0.148499834589363 0.4716336665019576 0.28712841524117994
3 193 84 194 0.148499834589363 0.4716336665019576 0.28712841524117994
3 84 85 194 0.148499834589363 0.4716336665019576 0.28712841524117994
3 10 185 9 0.148499834589363 0.4716336665019576 0.28712841524117994
3 188 135 131 0.148499834589363 0.4716336665019576 0.28712841524117994
3 188 337 130 0.148499834589363 0.4716336665019576 0.28712841524117994
3 188 131 337 0.148499834589363 0.4716336665019576 0.28712841524117994
3 78 250 251 0.148499834589363 0.4716336665019576 0.28712841524117994
3 251 136 78 0.148499834589363 0.4716336665019576 0.28712841524117994
3 78 136 189 0.148499834589363 0.4716336665019576 0.28712841524117994
3 189 135 78 0.148499834589363 0.4716336665019576 0.28712841524117994
3 262 212 304 0.148499834589363 0.4716336665019576 0.28712841524117994
3 304 263 262 0.148499834589363 0.4716336665019576 0.28712841524117994
3 305 263 304 0.148499834589363 0.4716336665019576 0.28712841524117994
3 304 212 303 0.148499834589363 0.4716336665019576 0.28712841524117994
3 331 332 287 0.148499834589363 0.4716336665019576 0.28712841524117994
3 331 341 332 0.148499834589363 0.4716336665019576 0.28712841524117994
3 331 287 286 0.148499834589363 0.4716336665019576 0.28712841524117994
3 286 330 331 0.148499834589363 0.4716336665019576 0.28712841524117994
3 330 340 331 0.148499834589363 0.4716336665019576 0.28712841524117994
3 331 340 341 0.148499834589363 0.4716336665019576 0.28712841524117994
3 274 113 275 0.148499834589363 0.4716336665019576 0.28712841524117994
3 274 275 176 0.148499834589363 0.4716336665019576 0.28712841524117994
3 176 68 274 0.148499834589363 0.4716336665019576 0.28712841524117994
3 274 68 273 0.148499834589363 0.4716336665019576 0.28712841524117994
3 274 273 112 0.148499834589363 0.4716336665019576 0.28712841524117994
3 112 113 274 0.148499834589363 0.4716336665019576 0.28712841524117994
3 231 232 277 0.148499834589363 0.4716336665019576 0.28712841524117994
3 156 232 231 0.148499834589363 0.4716336665019576 0.28712841524117994
3 231 155 156 0.148499834589363 0.4716336665019576 0.28712841524117994
3 231 230 155 0.148499834589363 0.4716336665019576 0.28712841524117994
3 318 117 317 0.148499834589363 0.4716336665019576 0.28712841524117994
3 160 319 318 0.148499834589363 0.4716336665019576 0.28712841524117994
3 317 159 318 0.148499834589363 0.4716336665019576 0.28712841524117994
3 318 159 160 0.148499834589363 0.4716336665019576 0.28712841524117994
3 156 155 118 0.148499834589363 0.4716336665019576 0.28712841524117994
3 118 319 156 0.148499834589363 0.4716336665019576 0.28712841524117994
3 118 318 319 0.148499834589363 0.4716336665019576 0.28712841524117994
3 117 318 118 0.148499834589363 0.4716336665019576 0.28712841524117994
3 154 117 118 0.148499834589363 0.4716336665019576 0.28712841524117994
3 118 155 154 0.148499834589363 0.4716336665019576 0.28712841524117994
3 156 319 320 0.148499834589363 0.4716336665019576 0.28712841524117994
3 321 232 320 0.148499834589363 0.4716336665019576 0.28712841524117994
3 320 232 156 0.148499834589363 0.4716336665019576 0.28712841524117994
3 320 319 161 0.148499834589363 0.4716336665019576 0.28712841524117994
3 320 239 321 0.148499834589363 0.4716336665019576 0.28712841524117994
3 320 161 239 0.148499834589363 0.4716336665019576 0.28712841524117994
3 311 312 226 0.148499834589363 0.4716336665019576 0.28712841524117994
3 225 311 226 0.148499834589363 0.4716336665019576 0.28712841524117994
3 270 269 226 0.148499834589363 0.4716336665019576 0.28712841524117994
3 226 269 225 0.148499834589363 0.4716336665019576 0.28712841524117994
3 305 304 271 0.148499834589363 0.4716336665019576 0.28712841524117994
3 270 226 271 0.148499834589363 0.4716336665019576 0.28712841524117994
3 271 226 312 0.148499834589363 0.4716336665019576 0.28712841524117994
3 271 303 270 0.148499834589363 0.4716336665019576 0.28712841524117994
3 271 304 303 0.148499834589363 0.4716336665019576 0.28712841524117994
3 313 278 279 0.148499834589363 0.4716336665019576 0.28712841524117994
3 313 312 278 0.148499834589363 0.4716336665019576 0.28712841524117994
3 313 271 312 0.148499834589363 0.4716336665019576 0.28712841524117994
3 279 314 313 0.148499834589363 0.4716336665019576 0.28712841524117994
3 313 314 305 0.148499834589363 0.4716336665019576 0.28712841524117994
3 305 271 313 0.148499834589363 0.4716336665019576 0.28712841524117994
3 334 128 335 0.148499834589363 0.4716336665019576 0.28712841524117994
3 335 163 334 0.148499834589363 0.4716336665019576 0.28712841524117994
3 128 129 335 0.148499834589363 0.4716336665019576 0.28712841524117994
3 334 163 162 0.148499834589363 0.4716336665019576 0.28712841524117994
3 162 333 334 0.148499834589363 0.4716336665019576 0.28712841524117994
3 59 333 162 0.148499834589363 0.4716336665019576 0.28712841524117994
3 123 324 56 0.148499834589363 0.4716336665019576 0.28712841524117994
3 125 325 124 0.148499834589363 0.4716336665019576 0.28712841524117994
3 124 243 125 0.148499834589363 0.4716336665019576 0.28712841524117994
3 325 324 124 0.148499834589363 0.4716336665019576 0.28712841524117994
3 242 243 124 0.148499834589363 0.4716336665019576 0.28712841524117994
3 124 123 242 0.148499834589363 0.4716336665019576 0.28712841524117994
3 324 123 124 0.148499834589363 0.4716336665019576 0.28712841524117994
3 245 327 126 0.148499834589363 0.4716336665019576 0.28712841524117994
3 126 166 245 0.148499834589363 0.4716336665019576 0.28712841524117994
3 244 166 126 0.148499834589363 0.4716336665019576 0.28712841524117994
3 126 326 244 0.148499834589363 0.4716336665019576 0.28712841524117994
3 126 327 326 0.148499834589363 0.4716336665019576 0.28712841524117994
3 82 194 195 0.148499834589363 0.4716336665019576 0.28712841524117994
3 196 253 195 0.148499834589363 0.4716336665019576 0.28712841524117994
3 195 253 82 0.148499834589363 0.4716336665019576 0.28712841524117994
3 195 86 196 0.148499834589363 0.4716336665019576 0.28712841524117994
3 195 85 86 0.148499834589363 0.4716336665019576 0.28712841524117994
3 195 194 85 0.148499834589363 0.4716336665019576 0.28712841524117994
3 128 185 186 0.148499834589363 0.4716336665019576 0.28712841524117994
3 186 129 128 0.148499834589363 0.4716336665019576 0.28712841524117994
3 187 188 130 0.148499834589363 0.4716336665019576 0.28712841524117994
3 187 186 133 0.148499834589363 0.4716336665019576 0.28712841524117994
3 129 186 187 0.148499834589363 0.4716336665019576 0.28712841524117994
3 77 78 135 0.148499834589363 0.4716336665019576 0.28712841524117994
3 77 249 250 0.148499834589363 0.4716336665019576 0.28712841524117994
3 250 78 77 0.148499834589363 0.4716336665019576 0.28712841524117994
3 276 231 277 0.148499834589363 0.4716336665019576 0.28712841524117994
3 277 178 276 0.148499834589363 0.4716336665019576 0.28712841524117994
3 276 178 177 0.148499834589363 0.4716336665019576 0.28712841524117994
3 177 275 276 0.148499834589363 0.4716336665019576 0.28712841524117994
3 336 335 129 0.148499834589363 0.4716336665019576 0.28712841524117994
3 130 165 336 0.148499834589363 0.4716336665019576 0.28712841524117994
3 336 187 130 0.148499834589363 0.4716336665019576 0.28712841524117994
3 129 187 336 0.148499834589363 0.4716336665019576 0.28712841524117994
3 242 163 164 0.148499834589363 0.4716336665019576 0.28712841524117994
3 163 335 164 0.148499834589363 0.4716336665019576 0.28712841524117994
3 335 336 164 0.148499834589363 0.4716336665019576 0.28712841524117994
3 164 243 242 0.148499834589363 0.4716336665019576 0.28712841524117994
3 165 243 164 0.148499834589363 0.4716336665019576 0.28712841524117994
3 164 336 165 0.148499834589363 0.4716336665019576 0.28712841524117994
3 57 123 56 0.148499834589363 0.4716336665019576 0.28712841524117994
3 185 10 132 0.148499834589363 0.4716336665019576 0.28712841524117994
3 132 186 185 0.148499834589363 0.4716336665019576 0.28712841524117994
3 132 10 11 0.148499834589363 0.4716336665019576 0.28712841524117994
3 11 133 132 0.148499834589363 0.4716336665019576 0.28712841524117994
3 133 186 132 0.148499834589363 0.4716336665019576 0.28712841524117994
3 133 75 76 0.148499834589363 0.4716336665019576 0.28712841524117994
3 12 248 76 0.148499834589363 0.4716336665019576 0.28712841524117994
3 76 75 12 0.148499834589363 0.4716336665019576 0.28712841524117994
3 248 249 76 0.148499834589363 0.4716336665019576 0.28712841524117994
3 249 77 76 0.148499834589363 0.4716336665019576 0.28712841524117994
3 135 188 134 0.148499834589363 0.4716336665019576 0.28712841524117994
3 134 77 135 0.148499834589363 0.4716336665019576 0.28712841524117994
3 134 76 77 0.148499834589363 0.4716336665019576 0.28712841524117994
3 133 76 134 0.148499834589363 0.4716336665019576 0.28712841524117994
3 134 187 133 0.148499834589363 0.4716336665019576 0.28712841524117994
3 188 187 134 0.148499834589363 0.4716336665019576 0.28712841524117994
3 230 231 114 0.148499834589363 0.4716336665019576 0.28712841524117994
3 231 276 114 0.148499834589363 0.4716336665019576 0.28712841524117994
3 114 276 275 0.148499834589363 0.4716336665019576 0.28712841524117994
3 275 113 114 0.148499834589363 0.4716336665019576 0.28712841524117994
3 114 113 229 0.148499834589363 0.4716336665019576 0.28712841524117994
3 229 230 114 0.148499834589363 0.4716336665019576 0.28712841524117994
3 123 57 241 0.148499834589363 0.4716336665019576 0.28712841524117994
3 241 163 242 0.148499834589363 0.4716336665019576 0.28712841524117994
3 242 123 241 0.148499834589363 0.4716336665019576 0.28712841524117994
3 241 162 163 0.148499834589363 0.4716336665019576 0.28712841524117994
3 59 162 58 0.148499834589363 0.4716336665019576 0.28712841524117994
3 162 241 58 0.148499834589363 0.4716336665019576 0.28712841524117994
3 58 241 57 0.148499834589363 0.4716336665019576 0.28712841524117994
