OFF
70 63 0


28.6145 28.0535 8.706
28.6145 28.0535 8.706
28.5745 28.1203 8.721
28.5345 28.187 8.736
28.4944 28.2538 8.751
28.4544 28.3205 8.7659
28.4144 28.3873 8.7809
28.3743 28.454 8.7959
28.3343 28.5208 8.8108
28.3343 28.5208 8.8108
28.3259 28.5478 8.7904
28.3175 28.5748 8.7699
28.3175 28.5748 8.7699
28.3365 28.6088 8.6433
28.3547 28.6385 8.527
28.3724 28.6648 8.4188
28.3899 28.688 8.317
28.4072 28.7088 8.2202
28.4245 28.7273 8.1273
28.4421 28.7438 8.0373
28.46 28.7586 7.9492
28.4785 28.7717 7.8624
28.4976 28.7833 7.7761
28.5176 28.7933 7.6896
28.5387 28.8017 7.6023
28.5611 28.8086 7.5136
28.585 28.8138 7.4226
28.6107 28.8171 7.3289
28.6385 28.8185 7.2314
28.6689 28.8178 7.1293
28.7022 28.8145 7.0217
28.739 28.8085 6.9072
28.78 28.7992 6.7842
28.78 28.7992 6.7842
28.7951 28.7351 6.8493
28.8103 28.671 6.9143
28.8254 28.6069 6.9794
28.8406 28.5427 7.0445
28.8557 28.4786 7.1095
28.8709 28.4145 7.1746
28.886 28.3504 7.2396
28.9012 28.2863 7.3047
28.9163 28.2222 7.3697
28.9315 28.158 7.4348
28.9466 28.0939 7.4998
28.9618 28.0298 7.5649
28.9769 27.9657 7.6299
28.9921 27.9016 7.695
29.0072 27.8375 7.7601
29.0224 27.7733 7.8251
29.0375 27.7092 7.8902
29.0527 27.6451 7.9552
29.0678 27.581 8.0203
29.083 27.5169 8.0853
29.0981 27.4528 8.1504
29.1133 27.3886 8.2154
29.1284 27.3245 8.2805
29.1436 27.2604 8.3455
29.0995 27.3265 8.3756
29.0554 27.3926 8.4056
29.0113 27.4587 8.4357
28.9672 27.5248 8.4657
28.9231 27.5909 8.4958
28.879 27.657 8.5258
28.835 27.7231 8.5558
28.7909 27.7891 8.5859
28.7468 27.8552 8.6159
28.7027 27.9213 8.646
28.6586 27.9874 8.676
28.6145 28.0535 8.706
3 26 40 39 0.24479198053503748 0.22954714950664246 0.5933408353249263
3 38 37 28 0.24479198053503748 0.22954714950664246 0.5933408353249263
3 20 19 45 0.24479198053503748 0.22954714950664246 0.5933408353249263
3 66 48 67 0.24479198053503748 0.22954714950664246 0.5933408353249263
3 22 43 23 0.24479198053503748 0.22954714950664246 0.5933408353249263
3 27 26 39 0.24479198053503748 0.22954714950664246 0.5933408353249263
3 39 38 27 0.24479198053503748 0.22954714950664246 0.5933408353249263
3 27 38 28 0.24479198053503748 0.22954714950664246 0.5933408353249263
3 28 37 29 0.24479198053503748 0.22954714950664246 0.5933408353249263
3 44 43 22 0.24479198053503748 0.22954714950664246 0.5933408353249263
3 24 41 25 0.24479198053503748 0.22954714950664246 0.5933408353249263
3 40 26 25 0.24479198053503748 0.22954714950664246 0.5933408353249263
3 25 41 40 0.24479198053503748 0.22954714950664246 0.5933408353249263
3 45 19 46 0.24479198053503748 0.22954714950664246 0.5933408353249263
3 19 18 46 0.24479198053503748 0.22954714950664246 0.5933408353249263
3 47 67 48 0.24479198053503748 0.22954714950664246 0.5933408353249263
3 47 46 18 0.24479198053503748 0.22954714950664246 0.5933408353249263
3 68 18 17 0.24479198053503748 0.22954714950664246 0.5933408353249263
3 68 47 18 0.24479198053503748 0.22954714950664246 0.5933408353249263
3 67 47 68 0.24479198053503748 0.22954714950664246 0.5933408353249263
3 7 10 8 0.24479198053503748 0.22954714950664246 0.5933408353249263
3 32 31 34 0.24479198053503748 0.22954714950664246 0.5933408353249263
3 34 31 35 0.24479198053503748 0.22954714950664246 0.5933408353249263
3 36 29 37 0.24479198053503748 0.22954714950664246 0.5933408353249263
3 42 41 24 0.24479198053503748 0.22954714950664246 0.5933408353249263
3 42 23 43 0.24479198053503748 0.22954714950664246 0.5933408353249263
3 24 23 42 0.24479198053503748 0.22954714950664246 0.5933408353249263
3 21 20 45 0.24479198053503748 0.22954714950664246 0.5933408353249263
3 45 44 21 0.24479198053503748 0.22954714950664246 0.5933408353249263
3 21 44 22 0.24479198053503748 0.22954714950664246 0.5933408353249263
3 11 10 13 0.24479198053503748 0.22954714950664246 0.5933408353249263
3 10 7 13 0.24479198053503748 0.22954714950664246 0.5933408353249263
3 7 6 13 0.24479198053503748 0.22954714950664246 0.5933408353249263
3 2 68 17 0.24479198053503748 0.22954714950664246 0.5933408353249263
3 0 68 2 0.24479198053503748 0.22954714950664246 0.5933408353249263
3 53 61 54 0.24479198053503748 0.22954714950664246 0.5933408353249263
3 55 59 56 0.24479198053503748 0.22954714950664246 0.5933408353249263
3 49 48 66 0.24479198053503748 0.22954714950664246 0.5933408353249263
3 62 61 53 0.24479198053503748 0.22954714950664246 0.5933408353249263
3 64 51 50 0.24479198053503748 0.22954714950664246 0.5933408353249263
3 30 36 35 0.24479198053503748 0.22954714950664246 0.5933408353249263
3 29 36 30 0.24479198053503748 0.22954714950664246 0.5933408353249263
3 35 31 30 0.24479198053503748 0.22954714950664246 0.5933408353249263
3 14 6 5 0.24479198053503748 0.22954714950664246 0.5933408353249263
3 14 13 6 0.24479198053503748 0.22954714950664246 0.5933408353249263
3 5 4 14 0.24479198053503748 0.22954714950664246 0.5933408353249263
3 60 59 55 0.24479198053503748 0.22954714950664246 0.5933408353249263
3 55 54 60 0.24479198053503748 0.22954714950664246 0.5933408353249263
3 60 54 61 0.24479198053503748 0.22954714950664246 0.5933408353249263
3 52 62 53 0.24479198053503748 0.22954714950664246 0.5933408353249263
3 57 56 58 0.24479198053503748 0.22954714950664246 0.5933408353249263
3 58 56 59 0.24479198053503748 0.22954714950664246 0.5933408353249263
3 65 64 50 0.24479198053503748 0.22954714950664246 0.5933408353249263
3 65 49 66 0.24479198053503748 0.22954714950664246 0.5933408353249263
3 50 49 65 0.24479198053503748 0.22954714950664246 0.5933408353249263
3 51 64 63 0.24479198053503748 0.22954714950664246 0.5933408353249263
3 63 52 51 0.24479198053503748 0.22954714950664246 0.5933408353249263
3 62 52 63 0.24479198053503748 0.22954714950664246 0.5933408353249263
3 15 4 3 0.24479198053503748 0.22954714950664246 0.5933408353249263
3 15 14 4 0.24479198053503748 0.22954714950664246 0.5933408353249263
3 16 15 3 0.24479198053503748 0.22954714950664246 0.5933408353249263
3 16 2 17 0.24479198053503748 0.22954714950664246 0.5933408353249263
3 3 2 16 0.24479198053503748 0.22954714950664246 0.5933408353249263
