OFF
112 106 0


29.6864 37.7504 7.114
29.6864 37.7504 7.114
29.7189 37.8678 7.2073
29.7448 37.9655 7.2865
29.7664 38.0499 7.3559
29.7849 38.1248 7.4183
29.8013 38.193 7.4758
29.8162 38.2564 7.5298
29.83 38.3166 7.5813
29.843 38.3747 7.6315
29.8555 38.4317 7.6812
29.8678 38.4887 7.7311
29.88 38.5466 7.7821
29.8925 38.6064 7.8351
29.9053 38.6693 7.8911
29.9187 38.7366 7.9514
29.9331 38.8101 8.0176
29.9489 38.892 8.0918
29.9665 38.9857 8.1772
29.9868 39.0958 8.2781
29.9868 39.0958 8.2781
29.9862 39.1577 8.3508
29.9855 39.2195 8.4234
29.9849 39.2814 8.4961
29.9842 39.3433 8.5688
29.9835 39.4052 8.6414
29.9829 39.4671 8.7141
29.9822 39.529 8.7868
29.9816 39.5909 8.8594
29.9809 39.6528 8.9321
29.9803 39.7147 9.0048
29.9796 39.7766 9.0774
29.979 39.8385 9.1501
29.9783 39.9004 9.2228
29.9776 39.9623 9.2954
29.977 40.0242 9.3681
29.9763 40.0861 9.4407
29.9757 40.148 9.5134
29.975 40.2099 9.5861
29.9744 40.2718 9.6587
29.9737 40.3337 9.7314
29.9731 40.3956 9.8041
29.9724 40.4575 9.8767
29.9717 40.5194 9.9494
29.9711 40.5813 10.0221
29.9704 40.6432 10.0947
29.9698 40.7051 10.1674
29.9691 40.767 10.2401
29.9685 40.8288 10.3127
29.9678 40.8907 10.3854
29.9672 40.9526 10.4581
29.9665 41.0145 10.5307
29.9658 41.0764 10.6034
29.9652 41.1383 10.676
29.9645 41.2002 10.7487
29.9639 41.2621 10.8214
29.9632 41.324 10.894
29.8801 41.2078 10.869
29.8163 41.1186 10.8497
29.7623 41.043 10.8332
29.7124 40.973 10.818
29.6625 40.9031 10.8027
29.6085 40.8274 10.7862
29.545 40.7382 10.7665
29.4622 40.6219 10.7408
29.4622 40.6219 10.7408
29.45 40.5281 10.6482
29.4383 40.4383 10.5594
29.4272 40.352 10.4741
29.4165 40.2689 10.3917
29.4063 40.1886 10.3121
29.3965 40.1108 10.2348
29.387 40.0352 10.1597
29.3778 39.9616 10.0863
29.369 39.8897 10.0147
29.3604 39.8194 9.9444
29.352 39.7503 9.8754
29.3439 39.6825 9.8073
29.336 39.6156 9.7402
29.3283 39.5495 9.6737
29.3208 39.484 9.6077
29.3135 39.4192 9.5421
29.3063 39.3546 9.4767
29.2993 39.2904 9.4114
29.2926 39.2263 9.346
29.2859 39.1622 9.2803
29.2795 39.098 9.2143
29.2733 39.0335 9.1478
29.2674 38.9688 9.0805
29.2617 38.9036 9.0124
29.2563 38.8379 8.9434
29.2513 38.7717 8.8731
29.2467 38.7048 8.8015
29.2428 38.6372 8.7283
29.2395 38.569 8.6535
29.2372 38.5001 8.5767
29.236 38.4308 8.4978
29.2363 38.3611 8.4167
29.2385 38.2916 8.3331
29.2431 38.2227 8.247
29.251 38.1552 8.1584
29.2628 38.0901 8.0673
29.2795 38.0287 7.9739
29.302 37.9722 7.8787
29.331 37.9218 7.7821
29.3665 37.8785 7.6849
29.4085 37.8425 7.5877
29.4562 37.8135 7.491
29.5088 37.7906 7.3952
29.5652 37.7731 7.3004
29.6246 37.76 7.2067
29.6864 37.7504 7.114
3 77 35 36 0.3140267330480183 0.11431845447243472 0.09590850234385673
3 4 107 108 0.3140267330480183 0.11431845447243472 0.09590850234385673
3 105 7 104 0.3140267330480183 0.11431845447243472 0.09590850234385673
3 15 98 14 0.3140267330480183 0.11431845447243472 0.09590850234385673
3 97 98 15 0.3140267330480183 0.11431845447243472 0.09590850234385673
3 9 102 103 0.3140267330480183 0.11431845447243472 0.09590850234385673
3 56 57 55 0.3140267330480183 0.11431845447243472 0.09590850234385673
3 58 59 53 0.3140267330480183 0.11431845447243472 0.09590850234385673
3 66 47 48 0.3140267330480183 0.11431845447243472 0.09590850234385673
3 53 59 52 0.3140267330480183 0.11431845447243472 0.09590850234385673
3 49 50 62 0.3140267330480183 0.11431845447243472 0.09590850234385673
3 38 75 37 0.3140267330480183 0.11431845447243472 0.09590850234385673
3 37 75 76 0.3140267330480183 0.11431845447243472 0.09590850234385673
3 77 36 76 0.3140267330480183 0.11431845447243472 0.09590850234385673
3 36 37 76 0.3140267330480183 0.11431845447243472 0.09590850234385673
3 42 70 71 0.3140267330480183 0.11431845447243472 0.09590850234385673
3 39 40 73 0.3140267330480183 0.11431845447243472 0.09590850234385673
3 73 40 72 0.3140267330480183 0.11431845447243472 0.09590850234385673
3 108 109 3 0.3140267330480183 0.11431845447243472 0.09590850234385673
3 3 4 108 0.3140267330480183 0.11431845447243472 0.09590850234385673
3 107 4 5 0.3140267330480183 0.11431845447243472 0.09590850234385673
3 22 91 92 0.3140267330480183 0.11431845447243472 0.09590850234385673
3 8 9 103 0.3140267330480183 0.11431845447243472 0.09590850234385673
3 103 104 8 0.3140267330480183 0.11431845447243472 0.09590850234385673
3 8 104 7 0.3140267330480183 0.11431845447243472 0.09590850234385673
3 10 101 102 0.3140267330480183 0.11431845447243472 0.09590850234385673
3 102 9 10 0.3140267330480183 0.11431845447243472 0.09590850234385673
3 54 58 53 0.3140267330480183 0.11431845447243472 0.09590850234385673
3 57 58 54 0.3140267330480183 0.11431845447243472 0.09590850234385673
3 54 55 57 0.3140267330480183 0.11431845447243472 0.09590850234385673
3 43 70 42 0.3140267330480183 0.11431845447243472 0.09590850234385673
3 45 68 69 0.3140267330480183 0.11431845447243472 0.09590850234385673
3 46 68 45 0.3140267330480183 0.11431845447243472 0.09590850234385673
3 63 66 48 0.3140267330480183 0.11431845447243472 0.09590850234385673
3 48 49 63 0.3140267330480183 0.11431845447243472 0.09590850234385673
3 63 49 62 0.3140267330480183 0.11431845447243472 0.09590850234385673
3 65 66 63 0.3140267330480183 0.11431845447243472 0.09590850234385673
3 47 66 67 0.3140267330480183 0.11431845447243472 0.09590850234385673
3 67 46 47 0.3140267330480183 0.11431845447243472 0.09590850234385673
3 68 46 67 0.3140267330480183 0.11431845447243472 0.09590850234385673
3 62 50 61 0.3140267330480183 0.11431845447243472 0.09590850234385673
3 50 51 61 0.3140267330480183 0.11431845447243472 0.09590850234385673
3 32 33 80 0.3140267330480183 0.11431845447243472 0.09590850234385673
3 72 40 41 0.3140267330480183 0.11431845447243472 0.09590850234385673
3 42 71 41 0.3140267330480183 0.11431845447243472 0.09590850234385673
3 41 71 72 0.3140267330480183 0.11431845447243472 0.09590850234385673
3 39 73 74 0.3140267330480183 0.11431845447243472 0.09590850234385673
3 74 38 39 0.3140267330480183 0.11431845447243472 0.09590850234385673
3 75 38 74 0.3140267330480183 0.11431845447243472 0.09590850234385673
3 109 110 2 0.3140267330480183 0.11431845447243472 0.09590850234385673
3 2 3 109 0.3140267330480183 0.11431845447243472 0.09590850234385673
3 2 110 0 0.3140267330480183 0.11431845447243472 0.09590850234385673
3 107 5 106 0.3140267330480183 0.11431845447243472 0.09590850234385673
3 6 7 105 0.3140267330480183 0.11431845447243472 0.09590850234385673
3 105 106 6 0.3140267330480183 0.11431845447243472 0.09590850234385673
3 6 106 5 0.3140267330480183 0.11431845447243472 0.09590850234385673
3 30 31 82 0.3140267330480183 0.11431845447243472 0.09590850234385673
3 16 97 15 0.3140267330480183 0.11431845447243472 0.09590850234385673
3 26 27 86 0.3140267330480183 0.11431845447243472 0.09590850234385673
3 86 27 85 0.3140267330480183 0.11431845447243472 0.09590850234385673
3 95 17 94 0.3140267330480183 0.11431845447243472 0.09590850234385673
3 94 17 18 0.3140267330480183 0.11431845447243472 0.09590850234385673
3 22 92 21 0.3140267330480183 0.11431845447243472 0.09590850234385673
3 100 101 11 0.3140267330480183 0.11431845447243472 0.09590850234385673
3 101 10 11 0.3140267330480183 0.11431845447243472 0.09590850234385673
3 45 69 44 0.3140267330480183 0.11431845447243472 0.09590850234385673
3 70 43 44 0.3140267330480183 0.11431845447243472 0.09590850234385673
3 44 69 70 0.3140267330480183 0.11431845447243472 0.09590850234385673
3 60 61 51 0.3140267330480183 0.11431845447243472 0.09590850234385673
3 60 52 59 0.3140267330480183 0.11431845447243472 0.09590850234385673
3 60 51 52 0.3140267330480183 0.11431845447243472 0.09590850234385673
3 32 80 81 0.3140267330480183 0.11431845447243472 0.09590850234385673
3 81 31 32 0.3140267330480183 0.11431845447243472 0.09590850234385673
3 82 31 81 0.3140267330480183 0.11431845447243472 0.09590850234385673
3 78 35 77 0.3140267330480183 0.11431845447243472 0.09590850234385673
3 78 34 35 0.3140267330480183 0.11431845447243472 0.09590850234385673
3 79 33 34 0.3140267330480183 0.11431845447243472 0.09590850234385673
3 79 80 33 0.3140267330480183 0.11431845447243472 0.09590850234385673
3 34 78 79 0.3140267330480183 0.11431845447243472 0.09590850234385673
3 83 30 82 0.3140267330480183 0.11431845447243472 0.09590850234385673
3 83 84 29 0.3140267330480183 0.11431845447243472 0.09590850234385673
3 29 30 83 0.3140267330480183 0.11431845447243472 0.09590850234385673
3 96 17 95 0.3140267330480183 0.11431845447243472 0.09590850234385673
3 96 16 17 0.3140267330480183 0.11431845447243472 0.09590850234385673
3 97 16 96 0.3140267330480183 0.11431845447243472 0.09590850234385673
3 28 85 27 0.3140267330480183 0.11431845447243472 0.09590850234385673
3 29 84 28 0.3140267330480183 0.11431845447243472 0.09590850234385673
3 84 85 28 0.3140267330480183 0.11431845447243472 0.09590850234385673
3 93 94 18 0.3140267330480183 0.11431845447243472 0.09590850234385673
3 93 21 92 0.3140267330480183 0.11431845447243472 0.09590850234385673
3 87 26 86 0.3140267330480183 0.11431845447243472 0.09590850234385673
3 25 26 87 0.3140267330480183 0.11431845447243472 0.09590850234385673
3 87 88 25 0.3140267330480183 0.11431845447243472 0.09590850234385673
3 23 91 22 0.3140267330480183 0.11431845447243472 0.09590850234385673
3 23 90 91 0.3140267330480183 0.11431845447243472 0.09590850234385673
3 12 99 100 0.3140267330480183 0.11431845447243472 0.09590850234385673
3 100 11 12 0.3140267330480183 0.11431845447243472 0.09590850234385673
3 19 93 18 0.3140267330480183 0.11431845447243472 0.09590850234385673
3 21 93 19 0.3140267330480183 0.11431845447243472 0.09590850234385673
3 25 88 24 0.3140267330480183 0.11431845447243472 0.09590850234385673
3 24 88 89 0.3140267330480183 0.11431845447243472 0.09590850234385673
3 89 90 24 0.3140267330480183 0.11431845447243472 0.09590850234385673
3 90 23 24 0.3140267330480183 0.11431845447243472 0.09590850234385673
3 99 12 13 0.3140267330480183 0.11431845447243472 0.09590850234385673
3 13 14 98 0.3140267330480183 0.11431845447243472 0.09590850234385673
3 98 99 13 0.3140267330480183 0.11431845447243472 0.09590850234385673
