OFF
54 77 0


31.9663 26.9323 9.2549
31.9663 26.9323 9.2549
31.827 26.9112 9.2202
31.7236 26.8969 9.1944
31.5839 26.8795 9.1592
31.697 26.7954 9.185
31.7823 26.7311 9.2043
31.855 26.6758 9.2206
31.9241 26.623 9.2361
31.9964 26.5672 9.2522
32.0808 26.5017 9.271
32.192 26.4146 9.2955
32.192 26.4146 9.2955
32.1365 26.5413 9.2857
32.0967 26.6323 9.2786
32.0609 26.7144 9.2722
32.0213 26.8054 9.265
31.9663 26.9323 9.2549
31.8799 26.6847 9.227
31.9859 26.604 9.2507
32.0605 26.6525 9.2704
32.0049 26.7819 9.2603
31.858 26.863 9.2266
31.8896 26.8137 9.233
31.6716 26.8398 9.1799
31.7625 26.7986 9.2013
31.7593 26.7751 9.1998
31.823 26.7544 9.215
31.8246 26.7263 9.2146
31.8676 26.7214 9.225
32.0483 26.556 9.2646
32.0165 26.6091 9.2584
32.0894 26.5855 9.2755
32.0436 26.6285 9.2655
31.7789 26.8525 9.2068
31.8359 26.8069 9.2196
31.8946 26.7599 9.2328
31.9319 26.6453 9.2387
31.9397 26.6674 9.2412
31.9475 26.6895 9.2438
32.1294 26.4931 9.2826
32.0692 26.5686 9.2701
32.0111 26.6413 9.258
32.0342 26.7136 9.2656
32.0077 26.7129 9.2591
31.9813 26.7122 9.2527
31.9636 26.8782 9.2528
31.9609 26.8234 9.2507
31.9581 26.7679 9.2485
31.9636 26.8782 9.2528
31.9609 26.8234 9.2507
31.9581 26.7679 9.2485
31.9552 26.7115 9.2463
31.9552 26.7115 9.2463
3 24 3 4 0.7919882235546571 0.7697627449299723 0.8840819738491281
3 34 3 24 0.7919882235546571 0.7697627449299723 0.8840819738491281
3 11 13 40 0.7919882235546571 0.7697627449299723 0.8840819738491281
3 32 13 14 0.7919882235546571 0.7697627449299723 0.8840819738491281
3 32 41 13 0.7919882235546571 0.7697627449299723 0.8840819738491281
3 10 40 13 0.7919882235546571 0.7697627449299723 0.8840819738491281
3 13 41 10 0.7919882235546571 0.7697627449299723 0.8840819738491281
3 11 40 10 0.7919882235546571 0.7697627449299723 0.8840819738491281
3 14 15 20 0.7919882235546571 0.7697627449299723 0.8840819738491281
3 8 18 7 0.7919882235546571 0.7697627449299723 0.8840819738491281
3 29 27 28 0.7919882235546571 0.7697627449299723 0.8840819738491281
3 28 7 29 0.7919882235546571 0.7697627449299723 0.8840819738491281
3 29 7 18 0.7919882235546571 0.7697627449299723 0.8840819738491281
3 29 18 52 0.7919882235546571 0.7697627449299723 0.8840819738491281
3 42 44 45 0.7919882235546571 0.7697627449299723 0.8840819738491281
3 21 15 16 0.7919882235546571 0.7697627449299723 0.8840819738491281
3 21 45 44 0.7919882235546571 0.7697627449299723 0.8840819738491281
3 9 10 30 0.7919882235546571 0.7697627449299723 0.8840819738491281
3 30 10 41 0.7919882235546571 0.7697627449299723 0.8840819738491281
3 30 31 9 0.7919882235546571 0.7697627449299723 0.8840819738491281
3 41 31 30 0.7919882235546571 0.7697627449299723 0.8840819738491281
3 8 9 19 0.7919882235546571 0.7697627449299723 0.8840819738491281
3 9 31 19 0.7919882235546571 0.7697627449299723 0.8840819738491281
3 19 31 42 0.7919882235546571 0.7697627449299723 0.8840819738491281
3 41 32 33 0.7919882235546571 0.7697627449299723 0.8840819738491281
3 33 31 41 0.7919882235546571 0.7697627449299723 0.8840819738491281
3 33 32 14 0.7919882235546571 0.7697627449299723 0.8840819738491281
3 14 20 33 0.7919882235546571 0.7697627449299723 0.8840819738491281
3 42 31 33 0.7919882235546571 0.7697627449299723 0.8840819738491281
3 33 20 42 0.7919882235546571 0.7697627449299723 0.8840819738491281
3 37 18 8 0.7919882235546571 0.7697627449299723 0.8840819738491281
3 37 38 18 0.7919882235546571 0.7697627449299723 0.8840819738491281
3 8 19 37 0.7919882235546571 0.7697627449299723 0.8840819738491281
3 42 38 37 0.7919882235546571 0.7697627449299723 0.8840819738491281
3 37 19 42 0.7919882235546571 0.7697627449299723 0.8840819738491281
3 49 16 0 0.7919882235546571 0.7697627449299723 0.8840819738491281
3 2 3 34 0.7919882235546571 0.7697627449299723 0.8840819738491281
3 28 27 6 0.7919882235546571 0.7697627449299723 0.8840819738491281
3 27 26 6 0.7919882235546571 0.7697627449299723 0.8840819738491281
3 6 7 28 0.7919882235546571 0.7697627449299723 0.8840819738491281
3 39 38 42 0.7919882235546571 0.7697627449299723 0.8840819738491281
3 42 45 39 0.7919882235546571 0.7697627449299723 0.8840819738491281
3 39 45 52 0.7919882235546571 0.7697627449299723 0.8840819738491281
3 52 18 39 0.7919882235546571 0.7697627449299723 0.8840819738491281
3 18 38 39 0.7919882235546571 0.7697627449299723 0.8840819738491281
3 15 21 43 0.7919882235546571 0.7697627449299723 0.8840819738491281
3 43 21 44 0.7919882235546571 0.7697627449299723 0.8840819738491281
3 43 20 15 0.7919882235546571 0.7697627449299723 0.8840819738491281
3 43 44 42 0.7919882235546571 0.7697627449299723 0.8840819738491281
3 42 20 43 0.7919882235546571 0.7697627449299723 0.8840819738491281
3 36 29 52 0.7919882235546571 0.7697627449299723 0.8840819738491281
3 27 29 36 0.7919882235546571 0.7697627449299723 0.8840819738491281
3 36 35 27 0.7919882235546571 0.7697627449299723 0.8840819738491281
3 23 35 36 0.7919882235546571 0.7697627449299723 0.8840819738491281
3 47 49 23 0.7919882235546571 0.7697627449299723 0.8840819738491281
3 47 21 16 0.7919882235546571 0.7697627449299723 0.8840819738491281
3 16 49 47 0.7919882235546571 0.7697627449299723 0.8840819738491281
3 25 26 27 0.7919882235546571 0.7697627449299723 0.8840819738491281
3 27 35 25 0.7919882235546571 0.7697627449299723 0.8840819738491281
3 25 35 34 0.7919882235546571 0.7697627449299723 0.8840819738491281
3 22 35 23 0.7919882235546571 0.7697627449299723 0.8840819738491281
3 23 49 22 0.7919882235546571 0.7697627449299723 0.8840819738491281
3 22 2 34 0.7919882235546571 0.7697627449299723 0.8840819738491281
3 34 35 22 0.7919882235546571 0.7697627449299723 0.8840819738491281
3 22 49 0 0.7919882235546571 0.7697627449299723 0.8840819738491281
3 0 2 22 0.7919882235546571 0.7697627449299723 0.8840819738491281
3 5 24 4 0.7919882235546571 0.7697627449299723 0.8840819738491281
3 5 6 26 0.7919882235546571 0.7697627449299723 0.8840819738491281
3 26 25 5 0.7919882235546571 0.7697627449299723 0.8840819738491281
3 34 24 5 0.7919882235546571 0.7697627449299723 0.8840819738491281
3 5 25 34 0.7919882235546571 0.7697627449299723 0.8840819738491281
3 23 36 48 0.7919882235546571 0.7697627449299723 0.8840819738491281
3 48 47 23 0.7919882235546571 0.7697627449299723 0.8840819738491281
3 21 47 48 0.7919882235546571 0.7697627449299723 0.8840819738491281
3 48 36 52 0.7919882235546571 0.7697627449299723 0.8840819738491281
3 52 45 48 0.7919882235546571 0.7697627449299723 0.8840819738491281
3 45 21 48 0.7919882235546571 0.7697627449299723 0.8840819738491281
