OFF
43 37 0


25.7524 30.0204 11.9455
25.7524 30.0204 11.9455
25.6753 30.1347 12.0096
25.6176 30.2166 12.0577
25.5689 30.2835 12.0985
25.5236 30.344 12.1365
25.4778 30.4038 12.1751
25.4272 30.4683 12.2179
25.3654 30.5447 12.2702
25.2801 30.6469 12.3427
25.3777 30.6721 12.25
25.4579 30.6948 12.1737
25.5276 30.716 12.1074
25.5911 30.7366 12.0468
25.6517 30.7575 11.9889
25.7121 30.7796 11.9311
25.7749 30.8039 11.8709
25.8432 30.8321 11.8054
25.921 30.8662 11.7306
26.0139 30.9102 11.641
26.0139 30.9102 11.641
26.0423 30.775 11.6239
26.0674 30.6603 11.6083
26.0904 30.5595 11.5938
26.1119 30.4682 11.58
26.1327 30.383 11.5665
26.1532 30.3013 11.553
26.1739 30.2209 11.5392
26.1954 30.1397 11.5247
26.2183 30.0555 11.5091
26.2435 29.9657 11.4918
26.2719 29.8672 11.4721
26.305 29.7558 11.4489
26.345 29.6255 11.4205
26.345 29.6255 11.4205
26.2535 29.6965 11.5008
26.1796 29.7512 11.566
26.1148 29.7971 11.6232
26.0539 29.8385 11.6771
25.9925 29.8786 11.7316
25.9262 29.9201 11.7905
25.8493 29.966 11.859
25.7524 30.0204 11.9455
3 17 22 21 0.9562388522560371 0.5942627761849143 0.931040307265311
3 36 32 31 0.9562388522560371 0.5942627761849143 0.931040307265311
3 18 21 19 0.9562388522560371 0.5942627761849143 0.931040307265311
3 18 17 21 0.9562388522560371 0.5942627761849143 0.931040307265311
3 41 26 0 0.9562388522560371 0.5942627761849143 0.931040307265311
3 28 40 39 0.9562388522560371 0.5942627761849143 0.931040307265311
3 39 29 28 0.9562388522560371 0.5942627761849143 0.931040307265311
3 38 29 39 0.9562388522560371 0.5942627761849143 0.931040307265311
3 37 36 31 0.9562388522560371 0.5942627761849143 0.931040307265311
3 33 32 35 0.9562388522560371 0.5942627761849143 0.931040307265311
3 32 36 35 0.9562388522560371 0.5942627761849143 0.931040307265311
3 7 12 11 0.9562388522560371 0.5942627761849143 0.931040307265311
3 6 12 7 0.9562388522560371 0.5942627761849143 0.931040307265311
3 13 12 6 0.9562388522560371 0.5942627761849143 0.931040307265311
3 22 17 16 0.9562388522560371 0.5942627761849143 0.931040307265311
3 16 23 22 0.9562388522560371 0.5942627761849143 0.931040307265311
3 15 23 16 0.9562388522560371 0.5942627761849143 0.931040307265311
3 4 15 14 0.9562388522560371 0.5942627761849143 0.931040307265311
3 4 23 15 0.9562388522560371 0.5942627761849143 0.931040307265311
3 27 40 28 0.9562388522560371 0.5942627761849143 0.931040307265311
3 27 41 40 0.9562388522560371 0.5942627761849143 0.931040307265311
3 26 41 27 0.9562388522560371 0.5942627761849143 0.931040307265311
3 30 29 38 0.9562388522560371 0.5942627761849143 0.931040307265311
3 38 37 30 0.9562388522560371 0.5942627761849143 0.931040307265311
3 30 37 31 0.9562388522560371 0.5942627761849143 0.931040307265311
3 23 4 24 0.9562388522560371 0.5942627761849143 0.931040307265311
3 11 10 8 0.9562388522560371 0.5942627761849143 0.931040307265311
3 8 7 11 0.9562388522560371 0.5942627761849143 0.931040307265311
3 8 10 9 0.9562388522560371 0.5942627761849143 0.931040307265311
3 5 4 14 0.9562388522560371 0.5942627761849143 0.931040307265311
3 14 13 5 0.9562388522560371 0.5942627761849143 0.931040307265311
3 5 13 6 0.9562388522560371 0.5942627761849143 0.931040307265311
3 2 26 25 0.9562388522560371 0.5942627761849143 0.931040307265311
3 0 26 2 0.9562388522560371 0.5942627761849143 0.931040307265311
3 3 24 4 0.9562388522560371 0.5942627761849143 0.931040307265311
3 25 24 3 0.9562388522560371 0.5942627761849143 0.931040307265311
3 3 2 25 0.9562388522560371 0.5942627761849143 0.931040307265311
