OFF
247 431 0


29.7942 30.7668 12.0251
29.7942 30.7668 12.0251
29.9116 30.747 12.0201
29.7942 30.7668 12.0251
29.7942 30.7668 12.0251
29.7213 30.7838 11.9103
29.6596 30.7989 11.8148
29.6052 30.8126 11.7319
29.5554 30.8255 11.6572
29.5084 30.8381 11.5874
29.4624 30.8507 11.5202
29.4161 30.8636 11.4533
29.3679 30.8774 11.3845
29.3162 30.8926 11.3116
29.2586 30.9098 11.2316
29.192 30.9303 11.1405
29.1116 30.9556 11.0324
29.2312 30.9276 11.0751
29.3316 30.9049 11.1086
29.4202 30.8855 11.1363
29.502 30.868 11.1604
29.5809 30.8517 11.1821
29.6602 30.8357 11.2026
29.7434 30.8195 11.2226
29.8345 30.8022 11.2428
29.9389 30.7831 11.2639
30.065 30.7611 11.2865
30.065 30.7611 11.2865
30.1911 30.7373 11.344
30.277 30.7215 11.3853
30.3623 30.7061 11.428
30.4853 30.6844 11.4925
30.4853 30.6844 11.4925
30.531 30.6702 11.6257
30.5638 30.6605 11.7228
30.6085 30.6479 11.8565
30.6085 30.6479 11.8565
30.4851 30.6637 11.8895
30.3956 30.6756 11.9136
30.3183 30.6861 11.9345
30.2412 30.6969 11.9555
30.152 30.7097 11.9799
30.0291 30.728 12.014
29.5462 30.8313 11.583
29.584 30.8246 11.5785
29.6219 30.818 11.574
29.4643 30.8538 11.4636
29.5123 30.8441 11.4739
29.5603 30.8345 11.4842
29.3762 30.879 11.338
29.4357 30.8657 11.3641
29.4949 30.8528 11.3901
29.5412 30.8574 11.2037
29.5801 30.847 11.2467
29.6188 30.8368 11.2894
29.6815 30.829 11.2409
29.7028 30.8225 11.2791
29.724 30.816 11.3173
30.3275 30.6876 11.8677
30.262 30.6994 11.8235
30.1986 30.711 11.7808
30.1937 30.7062 11.9056
30.1476 30.7154 11.8573
30.1027 30.7246 11.8102
29.6325 30.8087 11.7114
29.6599 30.8048 11.6908
29.6872 30.801 11.6703
29.7145 30.7972 11.6498
29.2683 30.9112 11.1875
29.343 30.893 11.2335
29.4165 30.8754 11.2787
29.4891 30.8584 11.3235
29.391 30.8893 11.1587
29.4494 30.8743 11.2079
29.5072 30.8598 11.2566
29.5645 30.8456 11.3048
29.8364 30.7994 11.2769
29.8383 30.7967 11.3108
29.8402 30.794 11.3446
29.8421 30.7914 11.3783
30.2265 30.7279 11.4045
30.177 30.7343 11.4233
30.1284 30.7406 11.4417
30.0807 30.747 11.4598
30.4727 30.6745 11.7003
30.3856 30.6882 11.6788
30.302 30.7016 11.6581
30.2215 30.7147 11.6382
30.4044 30.6773 11.8458
30.3272 30.6905 11.804
30.253 30.7035 11.7639
30.1814 30.7164 11.7252
29.9046 30.7503 11.9645
29.8977 30.7536 11.91
29.8909 30.757 11.8563
29.8841 30.7604 11.8034
29.8775 30.764 11.7512
29.8009 30.7677 11.9694
29.8075 30.7687 11.9147
29.8139 30.7698 11.8607
29.8204 30.7711 11.8073
29.8267 30.7725 11.7545
29.7361 30.783 11.869
29.7508 30.7822 11.828
29.7654 30.7815 11.7873
29.7799 30.7809 11.7469
29.7943 30.7804 11.7066
29.3032 30.9088 11.1299
29.3736 30.8908 11.1834
29.4428 30.8735 11.236
29.5111 30.8568 11.2879
29.5789 30.8406 11.3394
30.0405 30.7629 11.3164
30.0163 30.7647 11.3459
29.9923 30.7667 11.3752
29.9685 30.7686 11.4043
29.9448 30.7706 11.4331
30.4065 30.6953 11.4992
30.3304 30.706 11.5058
30.2568 30.7166 11.5121
30.1853 30.7271 11.5182
30.1158 30.7375 11.5242
30.008 30.7335 11.9584
29.9873 30.739 11.9041
29.9671 30.7446 11.8508
29.9472 30.7502 11.7985
29.9276 30.7558 11.7469
29.5881 30.8202 11.645
29.6208 30.8149 11.6328
29.6536 30.8096 11.6206
29.6863 30.8045 11.6084
29.7191 30.7993 11.5962
29.7521 30.7942 11.5839
29.4217 30.8658 11.4026
29.4752 30.8545 11.4205
29.5285 30.8433 11.4384
29.5818 30.8323 11.4563
29.6352 30.8215 11.4742
29.6887 30.8108 11.4922
29.6111 30.8431 11.2228
29.6412 30.8346 11.2633
29.6711 30.8264 11.3037
29.701 30.8182 11.344
29.731 30.8102 11.3843
29.7609 30.8023 11.4246
29.9291 30.7825 11.2959
29.9193 30.7819 11.3276
29.9095 30.7813 11.3593
29.8998 30.7809 11.3907
29.8901 30.7804 11.4221
29.8805 30.7801 11.4534
30.3006 30.7143 11.4424
30.2404 30.7225 11.4564
30.1818 30.7306 11.47
30.1243 30.7387 11.4834
30.0681 30.7467 11.4965
30.0128 30.7548 11.5093
30.5095 30.6636 11.816
30.4156 30.6788 11.7776
30.3262 30.6937 11.741
30.2405 30.7083 11.7059
30.1581 30.7227 11.6722
30.0784 30.7369 11.6396
30.1158 30.7174 11.9278
30.0805 30.7251 11.8769
30.0461 30.7328 11.8273
30.0124 30.7405 11.7786
29.9793 30.7481 11.7309
29.9467 30.7558 11.6839
29.6811 30.7964 11.7848
29.7026 30.794 11.7549
29.7239 30.7917 11.725
29.7452 30.7895 11.6953
29.7665 30.7873 11.6656
29.7878 30.7852 11.636
29.809 30.7831 11.6063
29.3259 30.8938 11.2674
29.3924 30.8783 11.3027
29.4581 30.8633 11.3376
29.5234 30.8486 11.3723
29.5884 30.8343 11.4069
29.6536 30.8202 11.4415
29.719 30.8064 11.4763
29.4689 30.8725 11.1827
29.5171 30.86 11.2285
29.5649 30.8478 11.274
29.6125 30.8358 11.3193
29.66 30.8241 11.3644
29.7075 30.8127 11.4097
29.7552 30.8014 11.455
30.4452 30.6829 11.6158
30.3628 30.6954 11.6062
30.2835 30.7077 11.597
30.2068 30.7198 11.5881
30.1324 30.7317 11.5794
30.0599 30.7436 11.571
29.9891 30.7555 11.5628
29.5053 30.8424 11.5231
29.5482 30.8342 11.5261
29.5911 30.8262 11.529
29.634 30.8182 11.5319
29.6771 30.8103 11.5349
29.7203 30.8025 11.5378
29.7638 30.7947 11.5408
29.8075 30.7869 11.5438
29.1996 30.9325 11.0935
29.2848 30.9106 11.1527
29.3678 30.8899 11.2104
29.4492 30.87 11.267
29.5296 30.8508 11.3229
29.6096 30.8323 11.3785
29.6895 30.8143 11.4341
29.77 30.7966 11.4901
29.7554 30.8147 11.2587
29.7675 30.81 11.2948
29.7795 30.8054 11.3307
29.7915 30.8009 11.3667
29.8035 30.7964 11.4026
29.8155 30.792 11.4385
29.8275 30.7877 11.4745
29.8395 30.7834 11.5106
30.1514 30.7419 11.3677
30.1124 30.7464 11.3911
30.0739 30.751 11.4141
30.0359 30.7556 11.4368
29.9983 30.7602 11.4592
29.9612 30.7649 11.4814
29.9244 30.7696 11.5034
29.8879 30.7744 11.5252
30.2607 30.6968 11.8866
30.205 30.7073 11.8403
30.151 30.7177 11.7954
30.0984 30.728 11.7518
30.0471 30.7383 11.7092
29.9969 30.7485 11.6675
29.9477 30.7587 11.6266
29.8993 30.769 11.5865
29.8009 30.7677 11.9694
29.8075 30.7687 11.9147
29.8139 30.7698 11.8607
29.8204 30.7711 11.8073
29.8267 30.7725 11.7545
29.833 30.774 11.7022
29.8392 30.7756 11.6502
29.8454 30.7774 11.5984
29.8516 30.7792 11.5468
29.8516 30.7792 11.5468
3 16 15 205 0.5493709476361418 0.33757873724298326 0.6668572822455088
3 205 17 16 0.5493709476361418 0.33757873724298326 0.6668572822455088
3 15 17 205 0.5493709476361418 0.33757873724298326 0.6668572822455088
3 206 17 15 0.5493709476361418 0.33757873724298326 0.6668572822455088
3 33 32 190 0.5493709476361418 0.33757873724298326 0.6668572822455088
3 28 27 221 0.5493709476361418 0.33757873724298326 0.6668572822455088
3 15 14 68 0.5493709476361418 0.33757873724298326 0.6668572822455088
3 68 206 15 0.5493709476361418 0.33757873724298326 0.6668572822455088
3 5 97 98 0.5493709476361418 0.33757873724298326 0.6668572822455088
3 0 97 5 0.5493709476361418 0.33757873724298326 0.6668572822455088
3 41 40 61 0.5493709476361418 0.33757873724298326 0.6668572822455088
3 38 58 39 0.5493709476361418 0.33757873724298326 0.6668572822455088
3 35 157 37 0.5493709476361418 0.33757873724298326 0.6668572822455088
3 34 157 35 0.5493709476361418 0.33757873724298326 0.6668572822455088
3 86 159 85 0.5493709476361418 0.33757873724298326 0.6668572822455088
3 190 32 117 0.5493709476361418 0.33757873724298326 0.6668572822455088
3 191 85 190 0.5493709476361418 0.33757873724298326 0.6668572822455088
3 86 85 191 0.5493709476361418 0.33757873724298326 0.6668572822455088
3 190 117 191 0.5493709476361418 0.33757873724298326 0.6668572822455088
3 191 117 118 0.5493709476361418 0.33757873724298326 0.6668572822455088
3 86 191 192 0.5493709476361418 0.33757873724298326 0.6668572822455088
3 192 191 118 0.5493709476361418 0.33757873724298326 0.6668572822455088
3 125 167 126 0.5493709476361418 0.33757873724298326 0.6668572822455088
3 126 167 168 0.5493709476361418 0.33757873724298326 0.6668572822455088
3 7 6 169 0.5493709476361418 0.33757873724298326 0.6668572822455088
3 17 206 107 0.5493709476361418 0.33757873724298326 0.6668572822455088
3 107 18 17 0.5493709476361418 0.33757873724298326 0.6668572822455088
3 231 91 232 0.5493709476361418 0.33757873724298326 0.6668572822455088
3 232 91 161 0.5493709476361418 0.33757873724298326 0.6668572822455088
3 41 61 163 0.5493709476361418 0.33757873724298326 0.6668572822455088
3 169 6 103 0.5493709476361418 0.33757873724298326 0.6668572822455088
3 158 85 159 0.5493709476361418 0.33757873724298326 0.6668572822455088
3 119 192 118 0.5493709476361418 0.33757873724298326 0.6668572822455088
3 118 117 30 0.5493709476361418 0.33757873724298326 0.6668572822455088
3 30 117 32 0.5493709476361418 0.33757873724298326 0.6668572822455088
3 112 25 145 0.5493709476361418 0.33757873724298326 0.6668572822455088
3 145 113 112 0.5493709476361418 0.33757873724298326 0.6668572822455088
3 27 25 112 0.5493709476361418 0.33757873724298326 0.6668572822455088
3 28 221 81 0.5493709476361418 0.33757873724298326 0.6668572822455088
3 223 112 113 0.5493709476361418 0.33757873724298326 0.6668572822455088
3 139 140 22 0.5493709476361418 0.33757873724298326 0.6668572822455088
3 53 140 139 0.5493709476361418 0.33757873724298326 0.6668572822455088
3 181 180 136 0.5493709476361418 0.33757873724298326 0.6668572822455088
3 136 180 135 0.5493709476361418 0.33757873724298326 0.6668572822455088
3 51 134 135 0.5493709476361418 0.33757873724298326 0.6668572822455088
3 175 204 132 0.5493709476361418 0.33757873724298326 0.6668572822455088
3 175 243 244 0.5493709476361418 0.33757873724298326 0.6668572822455088
3 245 204 244 0.5493709476361418 0.33757873724298326 0.6668572822455088
3 244 204 175 0.5493709476361418 0.33757873724298326 0.6668572822455088
3 96 126 168 0.5493709476361418 0.33757873724298326 0.6668572822455088
3 162 161 194 0.5493709476361418 0.33757873724298326 0.6668572822455088
3 64 7 169 0.5493709476361418 0.33757873724298326 0.6668572822455088
3 226 156 225 0.5493709476361418 0.33757873724298326 0.6668572822455088
3 196 156 226 0.5493709476361418 0.33757873724298326 0.6668572822455088
3 145 25 76 0.5493709476361418 0.33757873724298326 0.6668572822455088
3 76 25 24 0.5493709476361418 0.33757873724298326 0.6668572822455088
3 142 187 188 0.5493709476361418 0.33757873724298326 0.6668572822455088
3 218 149 79 0.5493709476361418 0.33757873724298326 0.6668572822455088
3 133 134 50 0.5493709476361418 0.33757873724298326 0.6668572822455088
3 134 51 50 0.5493709476361418 0.33757873724298326 0.6668572822455088
3 133 50 12 0.5493709476361418 0.33757873724298326 0.6668572822455088
3 10 46 11 0.5493709476361418 0.33757873724298326 0.6668572822455088
3 133 12 11 0.5493709476361418 0.33757873724298326 0.6668572822455088
3 11 134 133 0.5493709476361418 0.33757873724298326 0.6668572822455088
3 46 134 11 0.5493709476361418 0.33757873724298326 0.6668572822455088
3 230 231 62 0.5493709476361418 0.33757873724298326 0.6668572822455088
3 62 61 230 0.5493709476361418 0.33757873724298326 0.6668572822455088
3 164 163 62 0.5493709476361418 0.33757873724298326 0.6668572822455088
3 62 163 61 0.5493709476361418 0.33757873724298326 0.6668572822455088
3 58 59 229 0.5493709476361418 0.33757873724298326 0.6668572822455088
3 40 39 229 0.5493709476361418 0.33757873724298326 0.6668572822455088
3 229 39 58 0.5493709476361418 0.33757873724298326 0.6668572822455088
3 229 61 40 0.5493709476361418 0.33757873724298326 0.6668572822455088
3 230 61 229 0.5493709476361418 0.33757873724298326 0.6668572822455088
3 229 59 230 0.5493709476361418 0.33757873724298326 0.6668572822455088
3 91 231 60 0.5493709476361418 0.33757873724298326 0.6668572822455088
3 60 90 91 0.5493709476361418 0.33757873724298326 0.6668572822455088
3 60 231 230 0.5493709476361418 0.33757873724298326 0.6668572822455088
3 230 59 60 0.5493709476361418 0.33757873724298326 0.6668572822455088
3 59 90 60 0.5493709476361418 0.33757873724298326 0.6668572822455088
3 86 192 87 0.5493709476361418 0.33757873724298326 0.6668572822455088
3 166 165 232 0.5493709476361418 0.33757873724298326 0.6668572822455088
3 166 167 125 0.5493709476361418 0.33757873724298326 0.6668572822455088
3 125 94 124 0.5493709476361418 0.33757873724298326 0.6668572822455088
3 124 166 125 0.5493709476361418 0.33757873724298326 0.6668572822455088
3 165 166 124 0.5493709476361418 0.33757873724298326 0.6668572822455088
3 102 5 98 0.5493709476361418 0.33757873724298326 0.6668572822455088
3 6 5 102 0.5493709476361418 0.33757873724298326 0.6668572822455088
3 102 103 6 0.5493709476361418 0.33757873724298326 0.6668572822455088
3 89 158 159 0.5493709476361418 0.33757873724298326 0.6668572822455088
3 89 59 58 0.5493709476361418 0.33757873724298326 0.6668572822455088
3 159 90 89 0.5493709476361418 0.33757873724298326 0.6668572822455088
3 89 90 59 0.5493709476361418 0.33757873724298326 0.6668572822455088
3 85 158 84 0.5493709476361418 0.33757873724298326 0.6668572822455088
3 190 85 84 0.5493709476361418 0.33757873724298326 0.6668572822455088
3 157 34 84 0.5493709476361418 0.33757873724298326 0.6668572822455088
3 84 158 157 0.5493709476361418 0.33757873724298326 0.6668572822455088
3 84 33 190 0.5493709476361418 0.33757873724298326 0.6668572822455088
3 84 34 33 0.5493709476361418 0.33757873724298326 0.6668572822455088
3 120 119 152 0.5493709476361418 0.33757873724298326 0.6668572822455088
3 118 30 151 0.5493709476361418 0.33757873724298326 0.6668572822455088
3 151 119 118 0.5493709476361418 0.33757873724298326 0.6668572822455088
3 152 119 151 0.5493709476361418 0.33757873724298326 0.6668572822455088
3 128 44 127 0.5493709476361418 0.33757873724298326 0.6668572822455088
3 127 64 128 0.5493709476361418 0.33757873724298326 0.6668572822455088
3 8 7 127 0.5493709476361418 0.33757873724298326 0.6668572822455088
3 7 64 127 0.5493709476361418 0.33757873724298326 0.6668572822455088
3 9 197 10 0.5493709476361418 0.33757873724298326 0.6668572822455088
3 197 9 43 0.5493709476361418 0.33757873724298326 0.6668572822455088
3 43 9 8 0.5493709476361418 0.33757873724298326 0.6668572822455088
3 8 127 43 0.5493709476361418 0.33757873724298326 0.6668572822455088
3 43 127 44 0.5493709476361418 0.33757873724298326 0.6668572822455088
3 54 140 53 0.5493709476361418 0.33757873724298326 0.6668572822455088
3 54 75 186 0.5493709476361418 0.33757873724298326 0.6668572822455088
3 186 75 111 0.5493709476361418 0.33757873724298326 0.6668572822455088
3 24 23 213 0.5493709476361418 0.33757873724298326 0.6668572822455088
3 213 76 24 0.5493709476361418 0.33757873724298326 0.6668572822455088
3 181 136 137 0.5493709476361418 0.33757873724298326 0.6668572822455088
3 137 136 199 0.5493709476361418 0.33757873724298326 0.6668572822455088
3 48 136 135 0.5493709476361418 0.33757873724298326 0.6668572822455088
3 199 136 48 0.5493709476361418 0.33757873724298326 0.6668572822455088
3 172 106 173 0.5493709476361418 0.33757873724298326 0.6668572822455088
3 203 132 204 0.5493709476361418 0.33757873724298326 0.6668572822455088
3 131 201 130 0.5493709476361418 0.33757873724298326 0.6668572822455088
3 189 188 211 0.5493709476361418 0.33757873724298326 0.6668572822455088
3 211 187 181 0.5493709476361418 0.33757873724298326 0.6668572822455088
3 211 188 187 0.5493709476361418 0.33757873724298326 0.6668572822455088
3 199 44 45 0.5493709476361418 0.33757873724298326 0.6668572822455088
3 45 130 201 0.5493709476361418 0.33757873724298326 0.6668572822455088
3 45 44 128 0.5493709476361418 0.33757873724298326 0.6668572822455088
3 242 106 241 0.5493709476361418 0.33757873724298326 0.6668572822455088
3 243 106 242 0.5493709476361418 0.33757873724298326 0.6668572822455088
3 241 96 242 0.5493709476361418 0.33757873724298326 0.6668572822455088
3 168 243 242 0.5493709476361418 0.33757873724298326 0.6668572822455088
3 242 96 168 0.5493709476361418 0.33757873724298326 0.6668572822455088
3 105 106 172 0.5493709476361418 0.33757873724298326 0.6668572822455088
3 241 106 105 0.5493709476361418 0.33757873724298326 0.6668572822455088
3 236 244 243 0.5493709476361418 0.33757873724298326 0.6668572822455088
3 236 228 245 0.5493709476361418 0.33757873724298326 0.6668572822455088
3 245 244 236 0.5493709476361418 0.33757873724298326 0.6668572822455088
3 224 115 225 0.5493709476361418 0.33757873724298326 0.6668572822455088
3 225 156 224 0.5493709476361418 0.33757873724298326 0.6668572822455088
3 224 156 155 0.5493709476361418 0.33757873724298326 0.6668572822455088
3 168 167 234 0.5493709476361418 0.33757873724298326 0.6668572822455088
3 195 156 196 0.5493709476361418 0.33757873724298326 0.6668572822455088
3 155 156 195 0.5493709476361418 0.33757873724298326 0.6668572822455088
3 196 234 195 0.5493709476361418 0.33757873724298326 0.6668572822455088
3 195 234 162 0.5493709476361418 0.33757873724298326 0.6668572822455088
3 195 162 194 0.5493709476361418 0.33757873724298326 0.6668572822455088
3 232 161 233 0.5493709476361418 0.33757873724298326 0.6668572822455088
3 161 162 233 0.5493709476361418 0.33757873724298326 0.6668572822455088
3 162 234 233 0.5493709476361418 0.33757873724298326 0.6668572822455088
3 233 234 167 0.5493709476361418 0.33757873724298326 0.6668572822455088
3 233 166 232 0.5493709476361418 0.33757873724298326 0.6668572822455088
3 167 166 233 0.5493709476361418 0.33757873724298326 0.6668572822455088
3 128 64 65 0.5493709476361418 0.33757873724298326 0.6668572822455088
3 196 226 227 0.5493709476361418 0.33757873724298326 0.6668572822455088
3 228 236 227 0.5493709476361418 0.33757873724298326 0.6668572822455088
3 227 236 196 0.5493709476361418 0.33757873724298326 0.6668572822455088
3 116 227 226 0.5493709476361418 0.33757873724298326 0.6668572822455088
3 116 226 225 0.5493709476361418 0.33757873724298326 0.6668572822455088
3 225 115 116 0.5493709476361418 0.33757873724298326 0.6668572822455088
3 147 78 79 0.5493709476361418 0.33757873724298326 0.6668572822455088
3 215 78 77 0.5493709476361418 0.33757873724298326 0.6668572822455088
3 145 76 77 0.5493709476361418 0.33757873724298326 0.6668572822455088
3 142 188 143 0.5493709476361418 0.33757873724298326 0.6668572822455088
3 215 57 143 0.5493709476361418 0.33757873724298326 0.6668572822455088
3 143 57 142 0.5493709476361418 0.33757873724298326 0.6668572822455088
3 245 228 220 0.5493709476361418 0.33757873724298326 0.6668572822455088
3 220 204 245 0.5493709476361418 0.33757873724298326 0.6668572822455088
3 178 51 71 0.5493709476361418 0.33757873724298326 0.6668572822455088
3 178 50 51 0.5493709476361418 0.33757873724298326 0.6668572822455088
3 177 50 178 0.5493709476361418 0.33757873724298326 0.6668572822455088
3 49 177 13 0.5493709476361418 0.33757873724298326 0.6668572822455088
3 13 12 49 0.5493709476361418 0.33757873724298326 0.6668572822455088
3 49 50 177 0.5493709476361418 0.33757873724298326 0.6668572822455088
3 49 12 50 0.5493709476361418 0.33757873724298326 0.6668572822455088
3 53 139 21 0.5493709476361418 0.33757873724298326 0.6668572822455088
3 21 139 22 0.5493709476361418 0.33757873724298326 0.6668572822455088
3 18 107 108 0.5493709476361418 0.33757873724298326 0.6668572822455088
3 108 107 206 0.5493709476361418 0.33757873724298326 0.6668572822455088
3 206 68 69 0.5493709476361418 0.33757873724298326 0.6668572822455088
3 69 108 206 0.5493709476361418 0.33757873724298326 0.6668572822455088
3 207 108 69 0.5493709476361418 0.33757873724298326 0.6668572822455088
3 69 68 14 0.5493709476361418 0.33757873724298326 0.6668572822455088
3 63 62 231 0.5493709476361418 0.33757873724298326 0.6668572822455088
3 63 231 232 0.5493709476361418 0.33757873724298326 0.6668572822455088
3 232 165 63 0.5493709476361418 0.33757873724298326 0.6668572822455088
3 63 165 164 0.5493709476361418 0.33757873724298326 0.6668572822455088
3 164 62 63 0.5493709476361418 0.33757873724298326 0.6668572822455088
3 86 87 160 0.5493709476361418 0.33757873724298326 0.6668572822455088
3 160 159 86 0.5493709476361418 0.33757873724298326 0.6668572822455088
3 160 90 159 0.5493709476361418 0.33757873724298326 0.6668572822455088
3 91 90 160 0.5493709476361418 0.33757873724298326 0.6668572822455088
3 160 161 91 0.5493709476361418 0.33757873724298326 0.6668572822455088
3 160 87 161 0.5493709476361418 0.33757873724298326 0.6668572822455088
3 164 165 123 0.5493709476361418 0.33757873724298326 0.6668572822455088
3 165 124 123 0.5493709476361418 0.33757873724298326 0.6668572822455088
3 95 96 241 0.5493709476361418 0.33757873724298326 0.6668572822455088
3 241 240 95 0.5493709476361418 0.33757873724298326 0.6668572822455088
3 95 240 94 0.5493709476361418 0.33757873724298326 0.6668572822455088
3 95 94 125 0.5493709476361418 0.33757873724298326 0.6668572822455088
3 125 126 95 0.5493709476361418 0.33757873724298326 0.6668572822455088
3 126 96 95 0.5493709476361418 0.33757873724298326 0.6668572822455088
3 99 240 103 0.5493709476361418 0.33757873724298326 0.6668572822455088
3 99 102 98 0.5493709476361418 0.33757873724298326 0.6668572822455088
3 103 102 99 0.5493709476361418 0.33757873724298326 0.6668572822455088
3 94 240 99 0.5493709476361418 0.33757873724298326 0.6668572822455088
3 88 89 58 0.5493709476361418 0.33757873724298326 0.6668572822455088
3 158 89 88 0.5493709476361418 0.33757873724298326 0.6668572822455088
3 88 58 38 0.5493709476361418 0.33757873724298326 0.6668572822455088
3 38 37 88 0.5493709476361418 0.33757873724298326 0.6668572822455088
3 88 37 157 0.5493709476361418 0.33757873724298326 0.6668572822455088
3 157 158 88 0.5493709476361418 0.33757873724298326 0.6668572822455088
3 152 81 153 0.5493709476361418 0.33757873724298326 0.6668572822455088
3 153 120 152 0.5493709476361418 0.33757873724298326 0.6668572822455088
3 154 120 153 0.5493709476361418 0.33757873724298326 0.6668572822455088
3 153 82 154 0.5493709476361418 0.33757873724298326 0.6668572822455088
3 81 82 153 0.5493709476361418 0.33757873724298326 0.6668572822455088
3 193 87 192 0.5493709476361418 0.33757873724298326 0.6668572822455088
3 192 119 193 0.5493709476361418 0.33757873724298326 0.6668572822455088
3 119 120 193 0.5493709476361418 0.33757873724298326 0.6668572822455088
3 193 120 194 0.5493709476361418 0.33757873724298326 0.6668572822455088
3 194 161 193 0.5493709476361418 0.33757873724298326 0.6668572822455088
3 161 87 193 0.5493709476361418 0.33757873724298326 0.6668572822455088
3 29 151 30 0.5493709476361418 0.33757873724298326 0.6668572822455088
3 152 151 29 0.5493709476361418 0.33757873724298326 0.6668572822455088
3 83 82 223 0.5493709476361418 0.33757873724298326 0.6668572822455088
3 223 224 83 0.5493709476361418 0.33757873724298326 0.6668572822455088
3 83 224 155 0.5493709476361418 0.33757873724298326 0.6668572822455088
3 83 155 154 0.5493709476361418 0.33757873724298326 0.6668572822455088
3 154 82 83 0.5493709476361418 0.33757873724298326 0.6668572822455088
3 223 82 222 0.5493709476361418 0.33757873724298326 0.6668572822455088
3 112 223 222 0.5493709476361418 0.33757873724298326 0.6668572822455088
3 222 81 221 0.5493709476361418 0.33757873724298326 0.6668572822455088
3 222 82 81 0.5493709476361418 0.33757873724298326 0.6668572822455088
3 222 221 27 0.5493709476361418 0.33757873724298326 0.6668572822455088
3 27 112 222 0.5493709476361418 0.33757873724298326 0.6668572822455088
3 185 54 53 0.5493709476361418 0.33757873724298326 0.6668572822455088
3 75 54 185 0.5493709476361418 0.33757873724298326 0.6668572822455088
3 185 110 75 0.5493709476361418 0.33757873724298326 0.6668572822455088
3 74 110 185 0.5493709476361418 0.33757873724298326 0.6668572822455088
3 140 54 141 0.5493709476361418 0.33757873724298326 0.6668572822455088
3 142 57 141 0.5493709476361418 0.33757873724298326 0.6668572822455088
3 141 54 186 0.5493709476361418 0.33757873724298326 0.6668572822455088
3 186 187 141 0.5493709476361418 0.33757873724298326 0.6668572822455088
3 141 187 142 0.5493709476361418 0.33757873724298326 0.6668572822455088
3 210 111 180 0.5493709476361418 0.33757873724298326 0.6668572822455088
3 210 180 181 0.5493709476361418 0.33757873724298326 0.6668572822455088
3 181 187 210 0.5493709476361418 0.33757873724298326 0.6668572822455088
3 210 187 186 0.5493709476361418 0.33757873724298326 0.6668572822455088
3 186 111 210 0.5493709476361418 0.33757873724298326 0.6668572822455088
3 180 111 179 0.5493709476361418 0.33757873724298326 0.6668572822455088
3 135 180 179 0.5493709476361418 0.33757873724298326 0.6668572822455088
3 179 51 135 0.5493709476361418 0.33757873724298326 0.6668572822455088
3 71 51 179 0.5493709476361418 0.33757873724298326 0.6668572822455088
3 214 57 215 0.5493709476361418 0.33757873724298326 0.6668572822455088
3 214 213 57 0.5493709476361418 0.33757873724298326 0.6668572822455088
3 76 213 214 0.5493709476361418 0.33757873724298326 0.6668572822455088
3 215 77 214 0.5493709476361418 0.33757873724298326 0.6668572822455088
3 214 77 76 0.5493709476361418 0.33757873724298326 0.6668572822455088
3 200 137 199 0.5493709476361418 0.33757873724298326 0.6668572822455088
3 199 45 200 0.5493709476361418 0.33757873724298326 0.6668572822455088
3 200 45 201 0.5493709476361418 0.33757873724298326 0.6668572822455088
3 47 48 135 0.5493709476361418 0.33757873724298326 0.6668572822455088
3 135 134 47 0.5493709476361418 0.33757873724298326 0.6668572822455088
3 47 134 46 0.5493709476361418 0.33757873724298326 0.6668572822455088
3 47 46 10 0.5493709476361418 0.33757873724298326 0.6668572822455088
3 10 197 47 0.5493709476361418 0.33757873724298326 0.6668572822455088
3 199 48 198 0.5493709476361418 0.33757873724298326 0.6668572822455088
3 197 43 198 0.5493709476361418 0.33757873724298326 0.6668572822455088
3 198 47 197 0.5493709476361418 0.33757873724298326 0.6668572822455088
3 48 47 198 0.5493709476361418 0.33757873724298326 0.6668572822455088
3 198 44 199 0.5493709476361418 0.33757873724298326 0.6668572822455088
3 198 43 44 0.5493709476361418 0.33757873724298326 0.6668572822455088
3 174 132 131 0.5493709476361418 0.33757873724298326 0.6668572822455088
3 175 132 174 0.5493709476361418 0.33757873724298326 0.6668572822455088
3 174 243 175 0.5493709476361418 0.33757873724298326 0.6668572822455088
3 174 106 243 0.5493709476361418 0.33757873724298326 0.6668572822455088
3 174 173 106 0.5493709476361418 0.33757873724298326 0.6668572822455088
3 212 218 189 0.5493709476361418 0.33757873724298326 0.6668572822455088
3 219 218 212 0.5493709476361418 0.33757873724298326 0.6668572822455088
3 212 203 204 0.5493709476361418 0.33757873724298326 0.6668572822455088
3 204 220 212 0.5493709476361418 0.33757873724298326 0.6668572822455088
3 212 220 219 0.5493709476361418 0.33757873724298326 0.6668572822455088
3 66 130 129 0.5493709476361418 0.33757873724298326 0.6668572822455088
3 128 65 129 0.5493709476361418 0.33757873724298326 0.6668572822455088
3 129 65 66 0.5493709476361418 0.33757873724298326 0.6668572822455088
3 129 45 128 0.5493709476361418 0.33757873724298326 0.6668572822455088
3 130 45 129 0.5493709476361418 0.33757873724298326 0.6668572822455088
3 103 240 104 0.5493709476361418 0.33757873724298326 0.6668572822455088
3 169 103 104 0.5493709476361418 0.33757873724298326 0.6668572822455088
3 104 240 241 0.5493709476361418 0.33757873724298326 0.6668572822455088
3 241 105 104 0.5493709476361418 0.33757873724298326 0.6668572822455088
3 115 224 114 0.5493709476361418 0.33757873724298326 0.6668572822455088
3 114 147 115 0.5493709476361418 0.33757873724298326 0.6668572822455088
3 114 223 113 0.5493709476361418 0.33757873724298326 0.6668572822455088
3 114 224 223 0.5493709476361418 0.33757873724298326 0.6668572822455088
3 196 236 235 0.5493709476361418 0.33757873724298326 0.6668572822455088
3 235 234 196 0.5493709476361418 0.33757873724298326 0.6668572822455088
3 168 234 235 0.5493709476361418 0.33757873724298326 0.6668572822455088
3 235 243 168 0.5493709476361418 0.33757873724298326 0.6668572822455088
3 235 236 243 0.5493709476361418 0.33757873724298326 0.6668572822455088
3 121 195 194 0.5493709476361418 0.33757873724298326 0.6668572822455088
3 155 195 121 0.5493709476361418 0.33757873724298326 0.6668572822455088
3 154 155 121 0.5493709476361418 0.33757873724298326 0.6668572822455088
3 194 120 121 0.5493709476361418 0.33757873724298326 0.6668572822455088
3 121 120 154 0.5493709476361418 0.33757873724298326 0.6668572822455088
3 170 64 169 0.5493709476361418 0.33757873724298326 0.6668572822455088
3 170 65 64 0.5493709476361418 0.33757873724298326 0.6668572822455088
3 169 104 170 0.5493709476361418 0.33757873724298326 0.6668572822455088
3 150 116 149 0.5493709476361418 0.33757873724298326 0.6668572822455088
3 227 116 150 0.5493709476361418 0.33757873724298326 0.6668572822455088
3 228 227 150 0.5493709476361418 0.33757873724298326 0.6668572822455088
3 150 220 228 0.5493709476361418 0.33757873724298326 0.6668572822455088
3 219 220 150 0.5493709476361418 0.33757873724298326 0.6668572822455088
3 149 218 150 0.5493709476361418 0.33757873724298326 0.6668572822455088
3 150 218 219 0.5493709476361418 0.33757873724298326 0.6668572822455088
3 79 149 148 0.5493709476361418 0.33757873724298326 0.6668572822455088
3 148 147 79 0.5493709476361418 0.33757873724298326 0.6668572822455088
3 149 116 148 0.5493709476361418 0.33757873724298326 0.6668572822455088
3 148 116 115 0.5493709476361418 0.33757873724298326 0.6668572822455088
3 115 147 148 0.5493709476361418 0.33757873724298326 0.6668572822455088
3 78 147 146 0.5493709476361418 0.33757873724298326 0.6668572822455088
3 146 77 78 0.5493709476361418 0.33757873724298326 0.6668572822455088
3 145 77 146 0.5493709476361418 0.33757873724298326 0.6668572822455088
3 147 114 146 0.5493709476361418 0.33757873724298326 0.6668572822455088
3 146 113 145 0.5493709476361418 0.33757873724298326 0.6668572822455088
3 146 114 113 0.5493709476361418 0.33757873724298326 0.6668572822455088
3 144 188 189 0.5493709476361418 0.33757873724298326 0.6668572822455088
3 144 143 188 0.5493709476361418 0.33757873724298326 0.6668572822455088
3 189 218 144 0.5493709476361418 0.33757873724298326 0.6668572822455088
3 53 21 52 0.5493709476361418 0.33757873724298326 0.6668572822455088
3 52 21 20 0.5493709476361418 0.33757873724298326 0.6668572822455088
3 73 108 207 0.5493709476361418 0.33757873724298326 0.6668572822455088
3 207 109 73 0.5493709476361418 0.33757873724298326 0.6668572822455088
3 177 178 70 0.5493709476361418 0.33757873724298326 0.6668572822455088
3 70 109 207 0.5493709476361418 0.33757873724298326 0.6668572822455088
3 70 69 177 0.5493709476361418 0.33757873724298326 0.6668572822455088
3 207 69 70 0.5493709476361418 0.33757873724298326 0.6668572822455088
3 208 110 74 0.5493709476361418 0.33757873724298326 0.6668572822455088
3 74 109 208 0.5493709476361418 0.33757873724298326 0.6668572822455088
3 109 70 208 0.5493709476361418 0.33757873724298326 0.6668572822455088
3 71 110 208 0.5493709476361418 0.33757873724298326 0.6668572822455088
3 208 178 71 0.5493709476361418 0.33757873724298326 0.6668572822455088
3 208 70 178 0.5493709476361418 0.33757873724298326 0.6668572822455088
3 14 13 176 0.5493709476361418 0.33757873724298326 0.6668572822455088
3 176 69 14 0.5493709476361418 0.33757873724298326 0.6668572822455088
3 13 177 176 0.5493709476361418 0.33757873724298326 0.6668572822455088
3 177 69 176 0.5493709476361418 0.33757873724298326 0.6668572822455088
3 122 163 164 0.5493709476361418 0.33757873724298326 0.6668572822455088
3 164 123 122 0.5493709476361418 0.33757873724298326 0.6668572822455088
3 98 97 92 0.5493709476361418 0.33757873724298326 0.6668572822455088
3 92 122 123 0.5493709476361418 0.33757873724298326 0.6668572822455088
3 93 124 94 0.5493709476361418 0.33757873724298326 0.6668572822455088
3 93 123 124 0.5493709476361418 0.33757873724298326 0.6668572822455088
3 93 92 123 0.5493709476361418 0.33757873724298326 0.6668572822455088
3 98 92 93 0.5493709476361418 0.33757873724298326 0.6668572822455088
3 93 99 98 0.5493709476361418 0.33757873724298326 0.6668572822455088
3 94 99 93 0.5493709476361418 0.33757873724298326 0.6668572822455088
3 80 81 152 0.5493709476361418 0.33757873724298326 0.6668572822455088
3 152 29 80 0.5493709476361418 0.33757873724298326 0.6668572822455088
3 28 81 80 0.5493709476361418 0.33757873724298326 0.6668572822455088
3 80 29 28 0.5493709476361418 0.33757873724298326 0.6668572822455088
3 140 141 55 0.5493709476361418 0.33757873724298326 0.6668572822455088
3 55 23 22 0.5493709476361418 0.33757873724298326 0.6668572822455088
3 22 140 55 0.5493709476361418 0.33757873724298326 0.6668572822455088
3 71 179 209 0.5493709476361418 0.33757873724298326 0.6668572822455088
3 209 110 71 0.5493709476361418 0.33757873724298326 0.6668572822455088
3 75 110 209 0.5493709476361418 0.33757873724298326 0.6668572822455088
3 209 111 75 0.5493709476361418 0.33757873724298326 0.6668572822455088
3 209 179 111 0.5493709476361418 0.33757873724298326 0.6668572822455088
3 67 174 131 0.5493709476361418 0.33757873724298326 0.6668572822455088
3 173 174 67 0.5493709476361418 0.33757873724298326 0.6668572822455088
3 131 130 67 0.5493709476361418 0.33757873724298326 0.6668572822455088
3 67 130 66 0.5493709476361418 0.33757873724298326 0.6668572822455088
3 67 66 172 0.5493709476361418 0.33757873724298326 0.6668572822455088
3 172 173 67 0.5493709476361418 0.33757873724298326 0.6668572822455088
3 203 212 202 0.5493709476361418 0.33757873724298326 0.6668572822455088
3 202 201 131 0.5493709476361418 0.33757873724298326 0.6668572822455088
3 131 132 202 0.5493709476361418 0.33757873724298326 0.6668572822455088
3 132 203 202 0.5493709476361418 0.33757873724298326 0.6668572822455088
3 171 104 105 0.5493709476361418 0.33757873724298326 0.6668572822455088
3 171 170 104 0.5493709476361418 0.33757873724298326 0.6668572822455088
3 171 105 172 0.5493709476361418 0.33757873724298326 0.6668572822455088
3 172 66 171 0.5493709476361418 0.33757873724298326 0.6668572822455088
3 66 65 171 0.5493709476361418 0.33757873724298326 0.6668572822455088
3 65 170 171 0.5493709476361418 0.33757873724298326 0.6668572822455088
3 217 218 79 0.5493709476361418 0.33757873724298326 0.6668572822455088
3 217 144 218 0.5493709476361418 0.33757873724298326 0.6668572822455088
3 53 52 184 0.5493709476361418 0.33757873724298326 0.6668572822455088
3 184 185 53 0.5493709476361418 0.33757873724298326 0.6668572822455088
3 74 185 184 0.5493709476361418 0.33757873724298326 0.6668572822455088
3 184 109 74 0.5493709476361418 0.33757873724298326 0.6668572822455088
3 184 73 109 0.5493709476361418 0.33757873724298326 0.6668572822455088
3 184 52 20 0.5493709476361418 0.33757873724298326 0.6668572822455088
3 18 108 72 0.5493709476361418 0.33757873724298326 0.6668572822455088
3 72 19 18 0.5493709476361418 0.33757873724298326 0.6668572822455088
3 108 73 72 0.5493709476361418 0.33757873724298326 0.6668572822455088
3 72 73 19 0.5493709476361418 0.33757873724298326 0.6668572822455088
3 20 19 183 0.5493709476361418 0.33757873724298326 0.6668572822455088
3 19 73 183 0.5493709476361418 0.33757873724298326 0.6668572822455088
3 183 184 20 0.5493709476361418 0.33757873724298326 0.6668572822455088
3 73 184 183 0.5493709476361418 0.33757873724298326 0.6668572822455088
3 41 163 42 0.5493709476361418 0.33757873724298326 0.6668572822455088
3 163 122 42 0.5493709476361418 0.33757873724298326 0.6668572822455088
3 56 141 57 0.5493709476361418 0.33757873724298326 0.6668572822455088
3 56 55 141 0.5493709476361418 0.33757873724298326 0.6668572822455088
3 57 213 56 0.5493709476361418 0.33757873724298326 0.6668572822455088
3 56 213 23 0.5493709476361418 0.33757873724298326 0.6668572822455088
3 23 55 56 0.5493709476361418 0.33757873724298326 0.6668572822455088
3 182 212 189 0.5493709476361418 0.33757873724298326 0.6668572822455088
3 182 202 212 0.5493709476361418 0.33757873724298326 0.6668572822455088
3 189 211 182 0.5493709476361418 0.33757873724298326 0.6668572822455088
3 79 78 216 0.5493709476361418 0.33757873724298326 0.6668572822455088
3 216 217 79 0.5493709476361418 0.33757873724298326 0.6668572822455088
3 216 78 215 0.5493709476361418 0.33757873724298326 0.6668572822455088
3 215 143 216 0.5493709476361418 0.33757873724298326 0.6668572822455088
3 143 144 216 0.5493709476361418 0.33757873724298326 0.6668572822455088
3 144 217 216 0.5493709476361418 0.33757873724298326 0.6668572822455088
3 122 92 2 0.5493709476361418 0.33757873724298326 0.6668572822455088
3 2 42 122 0.5493709476361418 0.33757873724298326 0.6668572822455088
3 2 97 0 0.5493709476361418 0.33757873724298326 0.6668572822455088
3 2 92 97 0.5493709476361418 0.33757873724298326 0.6668572822455088
3 201 202 138 0.5493709476361418 0.33757873724298326 0.6668572822455088
3 202 182 138 0.5493709476361418 0.33757873724298326 0.6668572822455088
3 138 200 201 0.5493709476361418 0.33757873724298326 0.6668572822455088
3 137 200 138 0.5493709476361418 0.33757873724298326 0.6668572822455088
3 181 137 138 0.5493709476361418 0.33757873724298326 0.6668572822455088
3 138 211 181 0.5493709476361418 0.33757873724298326 0.6668572822455088
3 138 182 211 0.5493709476361418 0.33757873724298326 0.6668572822455088
