OFF
516 940 0


32.2505 33.3575 12.5148
32.2505 33.3575 12.5148
32.2802 33.4383 12.4233
32.3075 33.5116 12.3351
32.3328 33.5785 12.2497
32.3564 33.6401 12.1667
32.3786 33.6971 12.0857
32.3995 33.75 12.0062
32.4194 33.7997 11.9279
32.4384 33.8464 11.8502
32.4567 33.8906 11.7727
32.4744 33.9327 11.695
32.4916 33.973 11.6166
32.5084 34.0117 11.5371
32.5251 34.0491 11.4558
32.5415 34.0853 11.3723
32.5579 34.1205 11.2859
32.5743 34.1548 11.1959
32.5907 34.1883 11.1017
32.6073 34.2209 11.0023
32.6241 34.2527 10.8968
32.6412 34.2834 10.7841
32.6585 34.313 10.663
32.6585 34.313 10.663
32.7049 34.417 10.7554
32.7402 34.4952 10.8251
32.7704 34.5618 10.8847
32.7992 34.625 10.9414
32.8297 34.6913 11.001
32.8655 34.769 11.0709
32.9134 34.872 11.1639
32.9074 34.8623 11.3217
32.9036 34.8552 11.4525
32.9011 34.8498 11.5651
32.8995 34.8455 11.6653
32.8985 34.842 11.7569
32.898 34.8391 11.8427
32.8979 34.8366 11.925
32.8982 34.8344 12.0056
32.8988 34.8326 12.0863
32.8997 34.8309 12.1688
32.901 34.8295 12.2549
32.9028 34.8283 12.3468
32.9052 34.8273 12.4473
32.9084 34.8267 12.5602
32.9127 34.8265 12.691
32.9188 34.8269 12.8481
32.9188 34.8269 12.8481
32.8571 34.6948 12.8179
32.805 34.5827 12.7924
32.7596 34.4848 12.7701
32.719 34.3968 12.75
32.6816 34.3158 12.7316
32.6466 34.2395 12.7142
32.613 34.1662 12.6976
32.5801 34.0943 12.6813
32.5474 34.0224 12.6649
32.5141 33.9491 12.6483
32.4795 33.8727 12.631
32.4429 33.7915 12.6126
32.4033 33.7031 12.5927
32.3594 33.6045 12.5704
32.3093 33.4915 12.545
32.2505 33.3575 12.5148
32.8733 34.7863 11.8541
32.8493 34.7349 11.8652
32.8259 34.6847 11.876
32.8032 34.6358 11.8864
32.8732 34.7812 12.0014
32.8489 34.7295 11.9972
32.8253 34.6792 11.9931
32.8024 34.6304 11.9891
32.8741 34.7771 12.1483
32.8494 34.725 12.1285
32.8255 34.6746 12.1093
32.8023 34.6257 12.0908
32.8764 34.7737 12.3081
32.851 34.7211 12.2708
32.8265 34.6704 12.2348
32.8029 34.6214 12.2001
32.6776 34.3137 12.659
32.6736 34.3115 12.5883
32.6698 34.3091 12.5192
32.6662 34.3066 12.4518
32.6153 34.178 12.6309
32.6176 34.1894 12.5654
32.6199 34.2004 12.5009
32.6222 34.2109 12.4374
32.5554 34.0467 12.6036
32.5633 34.0704 12.5429
32.5712 34.0936 12.4828
32.579 34.1163 12.4232
32.453 33.8781 11.8582
32.4679 33.9106 11.8664
32.4832 33.9438 11.8748
32.4989 33.9778 11.8834
32.5149 34.0126 11.8922
32.4864 33.9582 11.7143
32.4987 33.9843 11.7341
32.5113 34.011 11.7543
32.5242 34.0383 11.7749
32.5374 34.0662 11.7961
32.518 34.0318 11.5681
32.5278 34.0522 11.5997
32.5378 34.073 11.6321
32.5481 34.0943 11.6652
32.5586 34.116 11.699
32.5487 34.1005 11.4158
32.556 34.1158 11.4601
32.5635 34.1314 11.5054
32.5712 34.1471 11.5515
32.5791 34.1631 11.5986
32.759 34.5416 10.9768
32.7478 34.5209 11.068
32.7367 34.4998 11.1584
32.7258 34.4781 11.2482
32.7149 34.4559 11.3375
32.8127 34.6584 11.0865
32.7961 34.6254 11.1705
32.7797 34.5922 11.2533
32.7635 34.5589 11.3349
32.7475 34.5254 11.4155
32.8749 34.7931 11.6935
32.851 34.7419 11.7209
32.8276 34.6917 11.7476
32.8048 34.6427 11.7736
32.7826 34.5946 11.7989
32.8807 34.7711 12.4986
32.8542 34.7177 12.4396
32.8288 34.6665 12.383
32.8045 34.6173 12.3286
32.7811 34.57 12.2764
32.7477 34.4658 12.6906
32.7363 34.4473 12.6138
32.7252 34.4292 12.5394
32.7145 34.4115 12.4673
32.7042 34.3942 12.3975
32.4929 33.909 12.575
32.5063 33.9449 12.5192
32.5196 33.9803 12.4635
32.5329 34.0152 12.4078
32.5462 34.0497 12.3522
32.3551 33.6312 12.2292
32.3778 33.6847 12.2082
32.401 33.7391 12.1866
32.4248 33.7945 12.1645
32.4492 33.8509 12.1416
32.4742 33.9084 12.1181
32.3975 33.7402 12.0769
32.4168 33.7841 12.0679
32.4366 33.829 12.0586
32.4569 33.8748 12.049
32.4776 33.9216 12.0391
32.499 33.9694 12.0288
32.4353 33.8349 11.9303
32.4516 33.8709 11.9328
32.4684 33.9077 11.9354
32.4855 33.9453 11.938
32.5031 33.9839 11.9406
32.5211 34.0234 11.9432
32.579 34.1656 11.2533
32.5839 34.1763 11.3116
32.5888 34.187 11.3709
32.5939 34.1977 11.4312
32.5992 34.2083 11.4926
32.6045 34.2189 11.5551
32.6095 34.2278 11.0756
32.6118 34.2343 11.1497
32.6142 34.2406 11.2247
32.6167 34.2465 11.3007
32.6192 34.2521 11.3779
32.6219 34.2574 11.4562
32.8765 34.7975 11.6027
32.8525 34.7464 11.6392
32.829 34.6962 11.6748
32.8062 34.647 11.7096
32.7838 34.5987 11.7435
32.762 34.5512 11.7765
32.8345 34.6529 12.7294
32.8129 34.6128 12.6447
32.7923 34.5742 12.5636
32.7726 34.5371 12.4858
32.7536 34.5013 12.4112
32.7355 34.4668 12.3394
32.4222 33.7521 12.5424
32.4413 33.8008 12.4918
32.4604 33.8492 12.441
32.4796 33.8975 12.3898
32.499 33.9456 12.3381
32.5185 33.9937 12.286
32.3064 33.5029 12.3904
32.3331 33.5681 12.3566
32.3603 33.6341 12.3221
32.3882 33.701 12.2866
32.4167 33.7689 12.2501
32.4459 33.8378 12.2126
32.4759 33.9079 12.174
32.6407 34.2869 10.8763
32.6402 34.2898 10.9689
32.6399 34.292 11.0621
32.6396 34.2936 11.1562
32.6394 34.2946 11.2511
32.6393 34.2949 11.3472
32.6392 34.2946 11.4447
32.7315 34.4812 10.9204
32.7229 34.4667 11.015
32.7145 34.4515 11.1091
32.7061 34.4357 11.2029
32.6977 34.4192 11.2966
32.6895 34.402 11.3902
32.6812 34.3841 11.4839
32.8878 34.8197 11.2389
32.8628 34.7683 11.3119
32.8384 34.7176 11.3831
32.8146 34.6675 11.4526
32.7913 34.618 11.5205
32.7685 34.5689 11.5869
32.7462 34.5204 11.652
32.8788 34.803 11.5005
32.8546 34.7519 11.5473
32.8311 34.7016 11.5929
32.808 34.6522 11.6374
32.7855 34.6036 11.6809
32.7635 34.5558 11.7234
32.7419 34.5086 11.7649
32.8735 34.7791 12.0741
32.849 34.7272 12.0622
32.8253 34.6768 12.0507
32.8022 34.628 12.0395
32.7799 34.5805 12.0286
32.7582 34.5343 12.0181
32.7371 34.4894 12.0077
32.8889 34.7696 12.7536
32.8605 34.7151 12.6638
32.8336 34.6631 12.5784
32.808 34.6134 12.497
32.7836 34.5659 12.4194
32.7603 34.5204 12.3452
32.7381 34.4768 12.2742
32.3344 33.5549 12.5013
32.3597 33.6184 12.4571
32.3854 33.6821 12.4121
32.4115 33.7462 12.3662
32.4381 33.8107 12.3195
32.4651 33.8757 12.2718
32.4927 33.9412 12.2231
32.6993 34.4101 10.8542
32.6937 34.4025 10.9527
32.6881 34.3942 11.051
32.6827 34.3851 11.1493
32.6773 34.3752 11.2479
32.6719 34.3646 11.3468
32.6666 34.3531 11.4464
32.6613 34.3408 11.5467
32.8731 34.7836 11.9285
32.849 34.7321 11.9319
32.8255 34.6819 11.9352
32.8027 34.633 11.9384
32.7805 34.5853 11.9415
32.7589 34.5388 11.9444
32.7378 34.4935 11.9472
32.7173 34.4492 11.95
32.8782 34.7723 12.398
32.8523 34.7194 12.3505
32.8275 34.6684 12.3049
32.8035 34.6193 12.261
32.7805 34.572 12.2186
32.7583 34.5263 12.1778
32.7369 34.4822 12.1384
32.7162 34.4396 12.1003
32.7112 34.3868 12.6742
32.7038 34.3768 12.6006
32.6965 34.367 12.529
32.6895 34.3573 12.4593
32.6827 34.3477 12.3915
32.6761 34.3382 12.3254
32.6697 34.3287 12.2609
32.6635 34.3193 12.1979
32.5854 34.1125 12.6173
32.5905 34.1301 12.5542
32.5957 34.1473 12.4919
32.6007 34.164 12.4304
32.6058 34.1802 12.3696
32.6108 34.1959 12.3094
32.6157 34.2113 12.2499
32.6207 34.2262 12.1909
32.459 33.834 12.5594
32.4752 33.8761 12.5062
32.4913 33.9179 12.4528
32.5075 33.9593 12.3993
32.5238 34.0003 12.3455
32.5401 34.0412 12.2916
32.5565 34.0817 12.2373
32.573 34.1221 12.1827
32.3316 33.5699 12.3085
32.3563 33.6289 12.2813
32.3814 33.6888 12.2533
32.4072 33.7496 12.2246
32.4335 33.8115 12.195
32.4606 33.8745 12.1646
32.4884 33.9387 12.1333
32.5169 34.0042 12.1009
32.5463 34.0712 12.0675
32.4169 33.789 12.0031
32.4347 33.8289 11.9999
32.4529 33.8695 11.9965
32.4715 33.9111 11.993
32.4907 33.9536 11.9894
32.5103 33.9972 11.9857
32.5305 34.0417 11.9818
32.5512 34.0874 11.9778
32.5725 34.1342 11.9736
32.5024 33.9957 11.6417
32.5134 34.0189 11.6673
32.5247 34.0426 11.6935
32.5363 34.0668 11.7204
32.5481 34.0915 11.7478
32.5603 34.1169 11.7759
32.5727 34.1428 11.8047
32.5855 34.1693 11.8342
32.5987 34.1965 11.8644
32.5639 34.1334 11.3361
32.57 34.1464 11.3873
32.5762 34.1595 11.4393
32.5826 34.1726 11.4924
32.5891 34.1859 11.5465
32.5959 34.1992 11.6017
32.6028 34.2127 11.6581
32.6098 34.2263 11.7157
32.6171 34.24 11.7746
32.625 34.2578 10.9791
32.626 34.2624 11.062
32.627 34.2666 11.1458
32.6281 34.2703 11.2305
32.6293 34.2735 11.3162
32.6306 34.2763 11.4032
32.6319 34.2786 11.4915
32.6334 34.2803 11.5814
32.6349 34.2816 11.673
32.845 34.728 11.152
32.8248 34.6872 11.2315
32.8051 34.6466 11.3094
32.7857 34.6062 11.386
32.7666 34.5658 11.4612
32.7478 34.5255 11.5352
32.7294 34.4852 11.6082
32.7111 34.4449 11.6801
32.6931 34.4044 11.7512
32.7883 34.5533 12.7087
32.7722 34.5249 12.6283
32.7567 34.4974 12.5508
32.7419 34.4707 12.4761
32.7275 34.4449 12.404
32.7137 34.4197 12.3343
32.7004 34.3953 12.2669
32.6876 34.3715 12.2017
32.6751 34.3484 12.1385
32.3769 33.6878 12.1522
32.3979 33.7363 12.1372
32.4193 33.7857 12.1218
32.4413 33.836 12.106
32.4639 33.8875 12.0897
32.487 33.94 12.0729
32.5107 33.9936 12.0556
32.5351 34.0485 12.0377
32.5602 34.1047 12.0193
32.5861 34.1624 12.0002
32.5334 34.0666 11.4929
32.542 34.0845 11.5308
32.5508 34.1026 11.5695
32.5597 34.1211 11.609
32.5689 34.1398 11.6494
32.5783 34.159 11.6906
32.588 34.1785 11.7329
32.5979 34.1984 11.7761
32.608 34.2187 11.8204
32.6185 34.2394 11.8658
32.6565 34.3151 10.7661
32.6547 34.3164 10.8694
32.6529 34.3168 10.973
32.6512 34.3165 11.0771
32.6496 34.3153 11.182
32.648 34.3133 11.2879
32.6465 34.3104 11.3951
32.6451 34.3067 11.5038
32.6438 34.302 11.6144
32.6425 34.2964 11.727
32.7852 34.5987 11.0303
32.7714 34.5721 11.1181
32.7577 34.5451 11.2049
32.7443 34.5178 11.2907
32.7309 34.4901 11.3758
32.7177 34.462 11.4603
32.7047 34.4334 11.5442
32.6917 34.4043 11.6277
32.6787 34.3747 11.711
32.6659 34.3445 11.794
32.8739 34.7895 11.7764
32.8499 34.7381 11.7955
32.8266 34.688 11.8139
32.8039 34.639 11.8319
32.7817 34.5911 11.8494
32.76 34.5442 11.8665
32.7389 34.4983 11.8831
32.7182 34.4534 11.8992
32.6981 34.4093 11.915
32.6784 34.3661 11.9304
32.8841 34.7701 12.6148
32.8568 34.7163 12.542
32.8308 34.6647 12.4724
32.8059 34.6153 12.4059
32.7821 34.5679 12.3421
32.7593 34.5224 12.281
32.7374 34.4786 12.2222
32.7165 34.4365 12.1658
32.6963 34.3958 12.1115
32.6769 34.3566 12.0592
32.5248 33.9794 12.5896
32.5354 34.0091 12.5313
32.546 34.0384 12.4734
32.5565 34.0671 12.4157
32.5671 34.0954 12.3583
32.5775 34.1233 12.3011
32.588 34.1507 12.2441
32.5984 34.1777 12.1871
32.6089 34.2043 12.1303
32.6193 34.2306 12.0736
32.279 33.4293 12.4752
32.308 33.5016 12.4347
32.3375 33.5745 12.3932
32.3677 33.648 12.3508
32.3985 33.7225 12.3072
32.4301 33.798 12.2623
32.4625 33.8746 12.2161
32.4958 33.9526 12.1685
32.5302 34.0322 12.1192
32.5656 34.1135 12.0681
32.4699 33.9191 11.7864
32.4835 33.9483 11.8003
32.4975 33.9781 11.8146
32.5117 34.0087 11.8292
32.5264 34.04 11.8442
32.5414 34.072 11.8595
32.5568 34.1049 11.8752
32.5726 34.1385 11.8913
32.5888 34.173 11.9078
32.6055 34.2085 11.9247
32.6226 34.2448 11.9421
32.5942 34.197 11.1667
32.5978 34.2056 11.2326
32.6015 34.214 11.2995
32.6053 34.2223 11.3674
32.6092 34.2303 11.4365
32.6132 34.2382 11.5068
32.6174 34.246 11.5783
32.6216 34.2535 11.6514
32.626 34.2609 11.7259
32.6306 34.2682 11.8021
32.6353 34.2753 11.8801
32.8823 34.8101 11.3819
32.8579 34.7589 11.4406
32.834 34.7085 11.4978
32.8107 34.6588 11.5536
32.7879 34.6098 11.6082
32.7656 34.5615 11.6615
32.7437 34.5137 11.7137
32.7223 34.4665 11.7649
32.7012 34.4198 11.815
32.6805 34.3735 11.8642
32.6602 34.3277 11.9125
32.8751 34.7753 12.2257
32.85 34.723 12.1975
32.8259 34.6724 12.1702
32.8025 34.6235 12.1438
32.7799 34.5761 12.1183
32.758 34.5302 12.0936
32.7368 34.4858 12.0696
32.7163 34.4426 12.0464
32.6964 34.4007 12.0238
32.6771 34.3601 12.002
32.6584 34.3206 11.9807
32.6458 34.2446 12.6447
32.6452 34.2495 12.5766
32.6445 34.254 12.5099
32.6439 34.2582 12.4445
32.6433 34.2621 12.3803
32.6428 34.2657 12.3173
32.6423 34.2691 12.2553
32.6418 34.2722 12.1944
32.6414 34.275 12.1345
32.6409 34.2777 12.0755
32.6406 34.28 12.0173
32.3812 33.6604 12.5233
32.4033 33.7162 12.4757
32.4256 33.7719 12.4276
32.4481 33.8276 12.3789
32.4709 33.8835 12.3296
32.4939 33.9394 12.2795
32.5173 33.9956 12.2287
32.541 34.0521 12.177
32.5652 34.1089 12.1243
32.5897 34.1661 12.0707
32.6147 34.2239 12.0159
32.279 33.4293 12.4752
32.308 33.5016 12.4347
32.3375 33.5745 12.3932
32.3677 33.648 12.3508
32.3985 33.7225 12.3072
32.4301 33.798 12.2623
32.4625 33.8746 12.2161
32.4958 33.9526 12.1685
32.5302 34.0322 12.1192
32.5656 34.1135 12.0681
32.6022 34.1967 12.0151
32.6402 34.2822 11.96
32.6402 34.2822 11.96
3 56 88 55 0.8732897244975387 0.08660800171010463 0.6257159945723785
3 72 39 40 0.8732897244975387 0.08660800171010463 0.6257159945723785
3 391 116 390 0.8732897244975387 0.08660800171010463 0.6257159945723785
3 30 339 29 0.8732897244975387 0.08660800171010463 0.6257159945723785
3 28 29 117 0.8732897244975387 0.08660800171010463 0.6257159945723785
3 117 29 339 0.8732897244975387 0.08660800171010463 0.6257159945723785
3 377 24 246 0.8732897244975387 0.08660800171010463 0.6257159945723785
3 377 21 23 0.8732897244975387 0.08660800171010463 0.6257159945723785
3 23 24 377 0.8732897244975387 0.08660800171010463 0.6257159945723785
3 459 31 32 0.8732897244975387 0.08660800171010463 0.6257159945723785
3 33 218 32 0.8732897244975387 0.08660800171010463 0.6257159945723785
3 211 339 30 0.8732897244975387 0.08660800171010463 0.6257159945723785
3 30 31 211 0.8732897244975387 0.08660800171010463 0.6257159945723785
3 172 218 33 0.8732897244975387 0.08660800171010463 0.6257159945723785
3 33 34 172 0.8732897244975387 0.08660800171010463 0.6257159945723785
3 394 346 395 0.8732897244975387 0.08660800171010463 0.6257159945723785
3 395 346 347 0.8732897244975387 0.08660800171010463 0.6257159945723785
3 317 106 373 0.8732897244975387 0.08660800171010463 0.6257159945723785
3 239 61 62 0.8732897244975387 0.08660800171010463 0.6257159945723785
3 55 88 278 0.8732897244975387 0.08660800171010463 0.6257159945723785
3 491 480 416 0.8732897244975387 0.08660800171010463 0.6257159945723785
3 470 40 41 0.8732897244975387 0.08660800171010463 0.6257159945723785
3 470 72 40 0.8732897244975387 0.08660800171010463 0.6257159945723785
3 467 404 468 0.8732897244975387 0.08660800171010463 0.6257159945723785
3 46 232 45 0.8732897244975387 0.08660800171010463 0.6257159945723785
3 389 114 388 0.8732897244975387 0.08660800171010463 0.6257159945723785
3 394 253 393 0.8732897244975387 0.08660800171010463 0.6257159945723785
3 392 344 393 0.8732897244975387 0.08660800171010463 0.6257159945723785
3 246 247 378 0.8732897244975387 0.08660800171010463 0.6257159945723785
3 378 377 246 0.8732897244975387 0.08660800171010463 0.6257159945723785
3 21 377 378 0.8732897244975387 0.08660800171010463 0.6257159945723785
3 28 117 387 0.8732897244975387 0.08660800171010463 0.6257159945723785
3 387 117 388 0.8732897244975387 0.08660800171010463 0.6257159945723785
3 204 247 246 0.8732897244975387 0.08660800171010463 0.6257159945723785
3 36 37 64 0.8732897244975387 0.08660800171010463 0.6257159945723785
3 397 35 36 0.8732897244975387 0.08660800171010463 0.6257159945723785
3 36 64 397 0.8732897244975387 0.08660800171010463 0.6257159945723785
3 177 176 126 0.8732897244975387 0.08660800171010463 0.6257159945723785
3 447 458 515 0.8732897244975387 0.08660800171010463 0.6257159945723785
3 480 491 515 0.8732897244975387 0.08660800171010463 0.6257159945723785
3 376 458 447 0.8732897244975387 0.08660800171010463 0.6257159945723785
3 215 214 462 0.8732897244975387 0.08660800171010463 0.6257159945723785
3 392 391 121 0.8732897244975387 0.08660800171010463 0.6257159945723785
3 222 221 175 0.8732897244975387 0.08660800171010463 0.6257159945723785
3 175 176 222 0.8732897244975387 0.08660800171010463 0.6257159945723785
3 125 176 175 0.8732897244975387 0.08660800171010463 0.6257159945723785
3 125 126 176 0.8732897244975387 0.08660800171010463 0.6257159945723785
3 345 393 344 0.8732897244975387 0.08660800171010463 0.6257159945723785
3 345 346 394 0.8732897244975387 0.08660800171010463 0.6257159945723785
3 394 393 345 0.8732897244975387 0.08660800171010463 0.6257159945723785
3 457 376 375 0.8732897244975387 0.08660800171010463 0.6257159945723785
3 458 376 457 0.8732897244975387 0.08660800171010463 0.6257159945723785
3 372 373 106 0.8732897244975387 0.08660800171010463 0.6257159945723785
3 316 106 317 0.8732897244975387 0.08660800171010463 0.6257159945723785
3 317 101 316 0.8732897244975387 0.08660800171010463 0.6257159945723785
3 503 62 0 0.8732897244975387 0.08660800171010463 0.6257159945723785
3 0 2 503 0.8732897244975387 0.08660800171010463 0.6257159945723785
3 504 503 2 0.8732897244975387 0.08660800171010463 0.6257159945723785
3 504 239 62 0.8732897244975387 0.08660800171010463 0.6257159945723785
3 62 503 504 0.8732897244975387 0.08660800171010463 0.6257159945723785
3 85 482 84 0.8732897244975387 0.08660800171010463 0.6257159945723785
3 85 84 279 0.8732897244975387 0.08660800171010463 0.6257159945723785
3 279 84 278 0.8732897244975387 0.08660800171010463 0.6257159945723785
3 311 444 445 0.8732897244975387 0.08660800171010463 0.6257159945723785
3 41 42 76 0.8732897244975387 0.08660800171010463 0.6257159945723785
3 76 470 41 0.8732897244975387 0.08660800171010463 0.6257159945723785
3 39 72 225 0.8732897244975387 0.08660800171010463 0.6257159945723785
3 38 39 225 0.8732897244975387 0.08660800171010463 0.6257159945723785
3 254 37 38 0.8732897244975387 0.08660800171010463 0.6257159945723785
3 64 37 254 0.8732897244975387 0.08660800171010463 0.6257159945723785
3 468 404 405 0.8732897244975387 0.08660800171010463 0.6257159945723785
3 405 406 468 0.8732897244975387 0.08660800171010463 0.6257159945723785
3 49 50 348 0.8732897244975387 0.08660800171010463 0.6257159945723785
3 348 178 49 0.8732897244975387 0.08660800171010463 0.6257159945723785
3 115 389 390 0.8732897244975387 0.08660800171010463 0.6257159945723785
3 114 389 115 0.8732897244975387 0.08660800171010463 0.6257159945723785
3 390 116 115 0.8732897244975387 0.08660800171010463 0.6257159945723785
3 116 208 115 0.8732897244975387 0.08660800171010463 0.6257159945723785
3 209 208 116 0.8732897244975387 0.08660800171010463 0.6257159945723785
3 209 391 392 0.8732897244975387 0.08660800171010463 0.6257159945723785
3 116 391 209 0.8732897244975387 0.08660800171010463 0.6257159945723785
3 337 384 253 0.8732897244975387 0.08660800171010463 0.6257159945723785
3 213 214 342 0.8732897244975387 0.08660800171010463 0.6257159945723785
3 342 341 213 0.8732897244975387 0.08660800171010463 0.6257159945723785
3 218 172 219 0.8732897244975387 0.08660800171010463 0.6257159945723785
3 172 173 219 0.8732897244975387 0.08660800171010463 0.6257159945723785
3 330 198 199 0.8732897244975387 0.08660800171010463 0.6257159945723785
3 19 20 330 0.8732897244975387 0.08660800171010463 0.6257159945723785
3 20 198 330 0.8732897244975387 0.08660800171010463 0.6257159945723785
3 197 198 20 0.8732897244975387 0.08660800171010463 0.6257159945723785
3 197 20 21 0.8732897244975387 0.08660800171010463 0.6257159945723785
3 21 378 197 0.8732897244975387 0.08660800171010463 0.6257159945723785
3 205 248 247 0.8732897244975387 0.08660800171010463 0.6257159945723785
3 247 204 205 0.8732897244975387 0.08660800171010463 0.6257159945723785
3 205 204 112 0.8732897244975387 0.08660800171010463 0.6257159945723785
3 199 198 379 0.8732897244975387 0.08660800171010463 0.6257159945723785
3 247 248 379 0.8732897244975387 0.08660800171010463 0.6257159945723785
3 379 378 247 0.8732897244975387 0.08660800171010463 0.6257159945723785
3 379 197 378 0.8732897244975387 0.08660800171010463 0.6257159945723785
3 198 197 379 0.8732897244975387 0.08660800171010463 0.6257159945723785
3 246 24 25 0.8732897244975387 0.08660800171010463 0.6257159945723785
3 25 204 246 0.8732897244975387 0.08660800171010463 0.6257159945723785
3 212 213 341 0.8732897244975387 0.08660800171010463 0.6257159945723785
3 459 213 212 0.8732897244975387 0.08660800171010463 0.6257159945723785
3 212 31 459 0.8732897244975387 0.08660800171010463 0.6257159945723785
3 212 211 31 0.8732897244975387 0.08660800171010463 0.6257159945723785
3 118 389 388 0.8732897244975387 0.08660800171010463 0.6257159945723785
3 388 117 118 0.8732897244975387 0.08660800171010463 0.6257159945723785
3 118 117 339 0.8732897244975387 0.08660800171010463 0.6257159945723785
3 120 341 342 0.8732897244975387 0.08660800171010463 0.6257159945723785
3 342 121 120 0.8732897244975387 0.08660800171010463 0.6257159945723785
3 120 391 390 0.8732897244975387 0.08660800171010463 0.6257159945723785
3 120 121 391 0.8732897244975387 0.08660800171010463 0.6257159945723785
3 220 221 462 0.8732897244975387 0.08660800171010463 0.6257159945723785
3 220 219 173 0.8732897244975387 0.08660800171010463 0.6257159945723785
3 398 123 397 0.8732897244975387 0.08660800171010463 0.6257159945723785
3 397 64 398 0.8732897244975387 0.08660800171010463 0.6257159945723785
3 175 221 174 0.8732897244975387 0.08660800171010463 0.6257159945723785
3 173 123 174 0.8732897244975387 0.08660800171010463 0.6257159945723785
3 221 220 174 0.8732897244975387 0.08660800171010463 0.6257159945723785
3 174 220 173 0.8732897244975387 0.08660800171010463 0.6257159945723785
3 122 35 397 0.8732897244975387 0.08660800171010463 0.6257159945723785
3 397 123 122 0.8732897244975387 0.08660800171010463 0.6257159945723785
3 122 34 35 0.8732897244975387 0.08660800171010463 0.6257159945723785
3 122 123 173 0.8732897244975387 0.08660800171010463 0.6257159945723785
3 122 172 34 0.8732897244975387 0.08660800171010463 0.6257159945723785
3 122 173 172 0.8732897244975387 0.08660800171010463 0.6257159945723785
3 375 319 374 0.8732897244975387 0.08660800171010463 0.6257159945723785
3 137 57 58 0.8732897244975387 0.08660800171010463 0.6257159945723785
3 469 515 458 0.8732897244975387 0.08660800171010463 0.6257159945723785
3 469 458 468 0.8732897244975387 0.08660800171010463 0.6257159945723785
3 468 406 469 0.8732897244975387 0.08660800171010463 0.6257159945723785
3 469 406 480 0.8732897244975387 0.08660800171010463 0.6257159945723785
3 480 515 469 0.8732897244975387 0.08660800171010463 0.6257159945723785
3 445 444 320 0.8732897244975387 0.08660800171010463 0.6257159945723785
3 320 444 319 0.8732897244975387 0.08660800171010463 0.6257159945723785
3 320 319 375 0.8732897244975387 0.08660800171010463 0.6257159945723785
3 375 376 320 0.8732897244975387 0.08660800171010463 0.6257159945723785
3 463 222 464 0.8732897244975387 0.08660800171010463 0.6257159945723785
3 221 222 463 0.8732897244975387 0.08660800171010463 0.6257159945723785
3 462 221 463 0.8732897244975387 0.08660800171010463 0.6257159945723785
3 463 215 462 0.8732897244975387 0.08660800171010463 0.6257159945723785
3 342 214 343 0.8732897244975387 0.08660800171010463 0.6257159945723785
3 214 215 343 0.8732897244975387 0.08660800171010463 0.6257159945723785
3 343 121 342 0.8732897244975387 0.08660800171010463 0.6257159945723785
3 343 215 344 0.8732897244975387 0.08660800171010463 0.6257159945723785
3 343 344 392 0.8732897244975387 0.08660800171010463 0.6257159945723785
3 392 121 343 0.8732897244975387 0.08660800171010463 0.6257159945723785
3 399 125 124 0.8732897244975387 0.08660800171010463 0.6257159945723785
3 124 398 399 0.8732897244975387 0.08660800171010463 0.6257159945723785
3 123 398 124 0.8732897244975387 0.08660800171010463 0.6257159945723785
3 124 125 175 0.8732897244975387 0.08660800171010463 0.6257159945723785
3 175 174 124 0.8732897244975387 0.08660800171010463 0.6257159945723785
3 124 174 123 0.8732897244975387 0.08660800171010463 0.6257159945723785
3 223 176 177 0.8732897244975387 0.08660800171010463 0.6257159945723785
3 223 465 464 0.8732897244975387 0.08660800171010463 0.6257159945723785
3 464 222 223 0.8732897244975387 0.08660800171010463 0.6257159945723785
3 223 222 176 0.8732897244975387 0.08660800171010463 0.6257159945723785
3 346 345 217 0.8732897244975387 0.08660800171010463 0.6257159945723785
3 217 465 346 0.8732897244975387 0.08660800171010463 0.6257159945723785
3 464 465 217 0.8732897244975387 0.08660800171010463 0.6257159945723785
3 224 223 177 0.8732897244975387 0.08660800171010463 0.6257159945723785
3 465 223 224 0.8732897244975387 0.08660800171010463 0.6257159945723785
3 386 338 395 0.8732897244975387 0.08660800171010463 0.6257159945723785
3 441 101 442 0.8732897244975387 0.08660800171010463 0.6257159945723785
3 10 11 437 0.8732897244975387 0.08660800171010463 0.6257159945723785
3 312 11 12 0.8732897244975387 0.08660800171010463 0.6257159945723785
3 106 316 315 0.8732897244975387 0.08660800171010463 0.6257159945723785
3 315 105 106 0.8732897244975387 0.08660800171010463 0.6257159945723785
3 314 105 315 0.8732897244975387 0.08660800171010463 0.6257159945723785
3 315 99 314 0.8732897244975387 0.08660800171010463 0.6257159945723785
3 190 2 3 0.8732897244975387 0.08660800171010463 0.6257159945723785
3 190 504 2 0.8732897244975387 0.08660800171010463 0.6257159945723785
3 445 320 446 0.8732897244975387 0.08660800171010463 0.6257159945723785
3 446 376 447 0.8732897244975387 0.08660800171010463 0.6257159945723785
3 446 320 376 0.8732897244975387 0.08660800171010463 0.6257159945723785
3 444 311 310 0.8732897244975387 0.08660800171010463 0.6257159945723785
3 38 225 68 0.8732897244975387 0.08660800171010463 0.6257159945723785
3 68 254 38 0.8732897244975387 0.08660800171010463 0.6257159945723785
3 399 66 400 0.8732897244975387 0.08660800171010463 0.6257159945723785
3 400 125 399 0.8732897244975387 0.08660800171010463 0.6257159945723785
3 126 125 400 0.8732897244975387 0.08660800171010463 0.6257159945723785
3 67 400 66 0.8732897244975387 0.08660800171010463 0.6257159945723785
3 64 254 65 0.8732897244975387 0.08660800171010463 0.6257159945723785
3 65 398 64 0.8732897244975387 0.08660800171010463 0.6257159945723785
3 65 66 399 0.8732897244975387 0.08660800171010463 0.6257159945723785
3 399 398 65 0.8732897244975387 0.08660800171010463 0.6257159945723785
3 73 225 72 0.8732897244975387 0.08660800171010463 0.6257159945723785
3 406 405 478 0.8732897244975387 0.08660800171010463 0.6257159945723785
3 179 178 348 0.8732897244975387 0.08660800171010463 0.6257159945723785
3 179 180 234 0.8732897244975387 0.08660800171010463 0.6257159945723785
3 232 178 233 0.8732897244975387 0.08660800171010463 0.6257159945723785
3 233 45 232 0.8732897244975387 0.08660800171010463 0.6257159945723785
3 178 179 233 0.8732897244975387 0.08660800171010463 0.6257159945723785
3 233 179 234 0.8732897244975387 0.08660800171010463 0.6257159945723785
3 234 408 233 0.8732897244975387 0.08660800171010463 0.6257159945723785
3 48 178 232 0.8732897244975387 0.08660800171010463 0.6257159945723785
3 48 49 178 0.8732897244975387 0.08660800171010463 0.6257159945723785
3 48 232 46 0.8732897244975387 0.08660800171010463 0.6257159945723785
3 55 278 54 0.8732897244975387 0.08660800171010463 0.6257159945723785
3 278 84 54 0.8732897244975387 0.08660800171010463 0.6257159945723785
3 481 84 482 0.8732897244975387 0.08660800171010463 0.6257159945723785
3 481 482 81 0.8732897244975387 0.08660800171010463 0.6257159945723785
3 481 54 84 0.8732897244975387 0.08660800171010463 0.6257159945723785
3 53 54 481 0.8732897244975387 0.08660800171010463 0.6257159945723785
3 349 133 350 0.8732897244975387 0.08660800171010463 0.6257159945723785
3 350 180 349 0.8732897244975387 0.08660800171010463 0.6257159945723785
3 349 179 348 0.8732897244975387 0.08660800171010463 0.6257159945723785
3 180 179 349 0.8732897244975387 0.08660800171010463 0.6257159945723785
3 50 51 132 0.8732897244975387 0.08660800171010463 0.6257159945723785
3 133 349 132 0.8732897244975387 0.08660800171010463 0.6257159945723785
3 348 50 132 0.8732897244975387 0.08660800171010463 0.6257159945723785
3 132 349 348 0.8732897244975387 0.08660800171010463 0.6257159945723785
3 210 209 392 0.8732897244975387 0.08660800171010463 0.6257159945723785
3 392 393 210 0.8732897244975387 0.08660800171010463 0.6257159945723785
3 210 393 253 0.8732897244975387 0.08660800171010463 0.6257159945723785
3 253 384 210 0.8732897244975387 0.08660800171010463 0.6257159945723785
3 250 208 251 0.8732897244975387 0.08660800171010463 0.6257159945723785
3 208 209 251 0.8732897244975387 0.08660800171010463 0.6257159945723785
3 385 253 394 0.8732897244975387 0.08660800171010463 0.6257159945723785
3 385 337 253 0.8732897244975387 0.08660800171010463 0.6257159945723785
3 394 395 385 0.8732897244975387 0.08660800171010463 0.6257159945723785
3 395 338 385 0.8732897244975387 0.08660800171010463 0.6257159945723785
3 385 338 455 0.8732897244975387 0.08660800171010463 0.6257159945723785
3 455 337 385 0.8732897244975387 0.08660800171010463 0.6257159945723785
3 218 219 461 0.8732897244975387 0.08660800171010463 0.6257159945723785
3 462 214 461 0.8732897244975387 0.08660800171010463 0.6257159945723785
3 461 220 462 0.8732897244975387 0.08660800171010463 0.6257159945723785
3 219 220 461 0.8732897244975387 0.08660800171010463 0.6257159945723785
3 248 205 206 0.8732897244975387 0.08660800171010463 0.6257159945723785
3 206 249 248 0.8732897244975387 0.08660800171010463 0.6257159945723785
3 199 379 380 0.8732897244975387 0.08660800171010463 0.6257159945723785
3 380 379 248 0.8732897244975387 0.08660800171010463 0.6257159945723785
3 248 249 380 0.8732897244975387 0.08660800171010463 0.6257159945723785
3 249 200 380 0.8732897244975387 0.08660800171010463 0.6257159945723785
3 114 115 207 0.8732897244975387 0.08660800171010463 0.6257159945723785
3 207 206 114 0.8732897244975387 0.08660800171010463 0.6257159945723785
3 249 206 207 0.8732897244975387 0.08660800171010463 0.6257159945723785
3 250 249 207 0.8732897244975387 0.08660800171010463 0.6257159945723785
3 207 208 250 0.8732897244975387 0.08660800171010463 0.6257159945723785
3 207 115 208 0.8732897244975387 0.08660800171010463 0.6257159945723785
3 112 204 26 0.8732897244975387 0.08660800171010463 0.6257159945723785
3 204 25 26 0.8732897244975387 0.08660800171010463 0.6257159945723785
3 340 118 339 0.8732897244975387 0.08660800171010463 0.6257159945723785
3 340 212 341 0.8732897244975387 0.08660800171010463 0.6257159945723785
3 339 211 340 0.8732897244975387 0.08660800171010463 0.6257159945723785
3 211 212 340 0.8732897244975387 0.08660800171010463 0.6257159945723785
3 389 118 119 0.8732897244975387 0.08660800171010463 0.6257159945723785
3 341 120 119 0.8732897244975387 0.08660800171010463 0.6257159945723785
3 119 340 341 0.8732897244975387 0.08660800171010463 0.6257159945723785
3 118 340 119 0.8732897244975387 0.08660800171010463 0.6257159945723785
3 390 389 119 0.8732897244975387 0.08660800171010463 0.6257159945723785
3 119 120 390 0.8732897244975387 0.08660800171010463 0.6257159945723785
3 329 457 375 0.8732897244975387 0.08660800171010463 0.6257159945723785
3 375 374 329 0.8732897244975387 0.08660800171010463 0.6257159945723785
3 318 374 319 0.8732897244975387 0.08660800171010463 0.6257159945723785
3 317 373 318 0.8732897244975387 0.08660800171010463 0.6257159945723785
3 373 374 318 0.8732897244975387 0.08660800171010463 0.6257159945723785
3 318 101 317 0.8732897244975387 0.08660800171010463 0.6257159945723785
3 442 101 318 0.8732897244975387 0.08660800171010463 0.6257159945723785
3 57 137 417 0.8732897244975387 0.08660800171010463 0.6257159945723785
3 417 56 57 0.8732897244975387 0.08660800171010463 0.6257159945723785
3 88 56 417 0.8732897244975387 0.08660800171010463 0.6257159945723785
3 184 59 60 0.8732897244975387 0.08660800171010463 0.6257159945723785
3 344 215 216 0.8732897244975387 0.08660800171010463 0.6257159945723785
3 215 463 216 0.8732897244975387 0.08660800171010463 0.6257159945723785
3 216 345 344 0.8732897244975387 0.08660800171010463 0.6257159945723785
3 216 217 345 0.8732897244975387 0.08660800171010463 0.6257159945723785
3 216 463 464 0.8732897244975387 0.08660800171010463 0.6257159945723785
3 464 217 216 0.8732897244975387 0.08660800171010463 0.6257159945723785
3 466 467 347 0.8732897244975387 0.08660800171010463 0.6257159945723785
3 347 346 466 0.8732897244975387 0.08660800171010463 0.6257159945723785
3 346 465 466 0.8732897244975387 0.08660800171010463 0.6257159945723785
3 465 224 466 0.8732897244975387 0.08660800171010463 0.6257159945723785
3 396 395 347 0.8732897244975387 0.08660800171010463 0.6257159945723785
3 396 386 395 0.8732897244975387 0.08660800171010463 0.6257159945723785
3 457 386 396 0.8732897244975387 0.08660800171010463 0.6257159945723785
3 396 467 468 0.8732897244975387 0.08660800171010463 0.6257159945723785
3 347 467 396 0.8732897244975387 0.08660800171010463 0.6257159945723785
3 468 458 396 0.8732897244975387 0.08660800171010463 0.6257159945723785
3 458 457 396 0.8732897244975387 0.08660800171010463 0.6257159945723785
3 101 441 100 0.8732897244975387 0.08660800171010463 0.6257159945723785
3 99 315 100 0.8732897244975387 0.08660800171010463 0.6257159945723785
3 100 316 101 0.8732897244975387 0.08660800171010463 0.6257159945723785
3 100 315 316 0.8732897244975387 0.08660800171010463 0.6257159945723785
3 11 312 97 0.8732897244975387 0.08660800171010463 0.6257159945723785
3 97 312 313 0.8732897244975387 0.08660800171010463 0.6257159945723785
3 97 437 11 0.8732897244975387 0.08660800171010463 0.6257159945723785
3 438 437 97 0.8732897244975387 0.08660800171010463 0.6257159945723785
3 98 313 314 0.8732897244975387 0.08660800171010463 0.6257159945723785
3 314 99 98 0.8732897244975387 0.08660800171010463 0.6257159945723785
3 98 97 313 0.8732897244975387 0.08660800171010463 0.6257159945723785
3 438 97 98 0.8732897244975387 0.08660800171010463 0.6257159945723785
3 439 438 98 0.8732897244975387 0.08660800171010463 0.6257159945723785
3 98 99 439 0.8732897244975387 0.08660800171010463 0.6257159945723785
3 327 111 326 0.8732897244975387 0.08660800171010463 0.6257159945723785
3 455 327 326 0.8732897244975387 0.08660800171010463 0.6257159945723785
3 368 13 367 0.8732897244975387 0.08660800171010463 0.6257159945723785
3 367 13 14 0.8732897244975387 0.08660800171010463 0.6257159945723785
3 14 108 367 0.8732897244975387 0.08660800171010463 0.6257159945723785
3 314 313 104 0.8732897244975387 0.08660800171010463 0.6257159945723785
3 104 105 314 0.8732897244975387 0.08660800171010463 0.6257159945723785
3 371 372 106 0.8732897244975387 0.08660800171010463 0.6257159945723785
3 106 105 371 0.8732897244975387 0.08660800171010463 0.6257159945723785
3 327 372 371 0.8732897244975387 0.08660800171010463 0.6257159945723785
3 371 111 327 0.8732897244975387 0.08660800171010463 0.6257159945723785
3 81 482 82 0.8732897244975387 0.08660800171010463 0.6257159945723785
3 245 434 498 0.8732897244975387 0.08660800171010463 0.6257159945723785
3 444 310 443 0.8732897244975387 0.08660800171010463 0.6257159945723785
3 442 318 443 0.8732897244975387 0.08660800171010463 0.6257159945723785
3 319 444 443 0.8732897244975387 0.08660800171010463 0.6257159945723785
3 443 318 319 0.8732897244975387 0.08660800171010463 0.6257159945723785
3 442 443 159 0.8732897244975387 0.08660800171010463 0.6257159945723785
3 159 443 310 0.8732897244975387 0.08660800171010463 0.6257159945723785
3 471 78 472 0.8732897244975387 0.08660800171010463 0.6257159945723785
3 472 73 471 0.8732897244975387 0.08660800171010463 0.6257159945723785
3 72 470 471 0.8732897244975387 0.08660800171010463 0.6257159945723785
3 471 73 72 0.8732897244975387 0.08660800171010463 0.6257159945723785
3 403 466 224 0.8732897244975387 0.08660800171010463 0.6257159945723785
3 404 467 403 0.8732897244975387 0.08660800171010463 0.6257159945723785
3 467 466 403 0.8732897244975387 0.08660800171010463 0.6257159945723785
3 126 400 401 0.8732897244975387 0.08660800171010463 0.6257159945723785
3 400 67 401 0.8732897244975387 0.08660800171010463 0.6257159945723785
3 177 126 401 0.8732897244975387 0.08660800171010463 0.6257159945723785
3 255 65 254 0.8732897244975387 0.08660800171010463 0.6257159945723785
3 255 68 69 0.8732897244975387 0.08660800171010463 0.6257159945723785
3 254 68 255 0.8732897244975387 0.08660800171010463 0.6257159945723785
3 66 65 255 0.8732897244975387 0.08660800171010463 0.6257159945723785
3 181 180 350 0.8732897244975387 0.08660800171010463 0.6257159945723785
3 409 408 234 0.8732897244975387 0.08660800171010463 0.6257159945723785
3 265 78 264 0.8732897244975387 0.08660800171010463 0.6257159945723785
3 264 263 129 0.8732897244975387 0.08660800171010463 0.6257159945723785
3 411 236 237 0.8732897244975387 0.08660800171010463 0.6257159945723785
3 237 412 411 0.8732897244975387 0.08660800171010463 0.6257159945723785
3 412 131 411 0.8732897244975387 0.08660800171010463 0.6257159945723785
3 480 406 479 0.8732897244975387 0.08660800171010463 0.6257159945723785
3 406 478 479 0.8732897244975387 0.08660800171010463 0.6257159945723785
3 416 480 479 0.8732897244975387 0.08660800171010463 0.6257159945723785
3 479 478 416 0.8732897244975387 0.08660800171010463 0.6257159945723785
3 44 45 407 0.8732897244975387 0.08660800171010463 0.6257159945723785
3 45 233 407 0.8732897244975387 0.08660800171010463 0.6257159945723785
3 407 233 408 0.8732897244975387 0.08660800171010463 0.6257159945723785
3 80 481 81 0.8732897244975387 0.08660800171010463 0.6257159945723785
3 80 52 53 0.8732897244975387 0.08660800171010463 0.6257159945723785
3 53 481 80 0.8732897244975387 0.08660800171010463 0.6257159945723785
3 270 132 51 0.8732897244975387 0.08660800171010463 0.6257159945723785
3 133 132 270 0.8732897244975387 0.08660800171010463 0.6257159945723785
3 51 52 270 0.8732897244975387 0.08660800171010463 0.6257159945723785
3 52 80 270 0.8732897244975387 0.08660800171010463 0.6257159945723785
3 250 251 382 0.8732897244975387 0.08660800171010463 0.6257159945723785
3 336 453 171 0.8732897244975387 0.08660800171010463 0.6257159945723785
3 171 203 336 0.8732897244975387 0.08660800171010463 0.6257159945723785
3 336 203 384 0.8732897244975387 0.08660800171010463 0.6257159945723785
3 384 337 336 0.8732897244975387 0.08660800171010463 0.6257159945723785
3 337 453 336 0.8732897244975387 0.08660800171010463 0.6257159945723785
3 218 461 460 0.8732897244975387 0.08660800171010463 0.6257159945723785
3 460 213 459 0.8732897244975387 0.08660800171010463 0.6257159945723785
3 214 213 460 0.8732897244975387 0.08660800171010463 0.6257159945723785
3 460 461 214 0.8732897244975387 0.08660800171010463 0.6257159945723785
3 459 32 460 0.8732897244975387 0.08660800171010463 0.6257159945723785
3 460 32 218 0.8732897244975387 0.08660800171010463 0.6257159945723785
3 381 249 250 0.8732897244975387 0.08660800171010463 0.6257159945723785
3 381 200 249 0.8732897244975387 0.08660800171010463 0.6257159945723785
3 333 200 381 0.8732897244975387 0.08660800171010463 0.6257159945723785
3 160 17 449 0.8732897244975387 0.08660800171010463 0.6257159945723785
3 17 18 448 0.8732897244975387 0.08660800171010463 0.6257159945723785
3 18 167 448 0.8732897244975387 0.08660800171010463 0.6257159945723785
3 448 449 17 0.8732897244975387 0.08660800171010463 0.6257159945723785
3 332 200 333 0.8732897244975387 0.08660800171010463 0.6257159945723785
3 199 380 332 0.8732897244975387 0.08660800171010463 0.6257159945723785
3 332 380 200 0.8732897244975387 0.08660800171010463 0.6257159945723785
3 166 167 18 0.8732897244975387 0.08660800171010463 0.6257159945723785
3 166 18 19 0.8732897244975387 0.08660800171010463 0.6257159945723785
3 166 332 167 0.8732897244975387 0.08660800171010463 0.6257159945723785
3 113 206 205 0.8732897244975387 0.08660800171010463 0.6257159945723785
3 113 205 112 0.8732897244975387 0.08660800171010463 0.6257159945723785
3 388 114 113 0.8732897244975387 0.08660800171010463 0.6257159945723785
3 114 206 113 0.8732897244975387 0.08660800171010463 0.6257159945723785
3 113 387 388 0.8732897244975387 0.08660800171010463 0.6257159945723785
3 112 387 113 0.8732897244975387 0.08660800171010463 0.6257159945723785
3 27 387 112 0.8732897244975387 0.08660800171010463 0.6257159945723785
3 112 26 27 0.8732897244975387 0.08660800171010463 0.6257159945723785
3 28 387 27 0.8732897244975387 0.08660800171010463 0.6257159945723785
3 328 327 455 0.8732897244975387 0.08660800171010463 0.6257159945723785
3 455 338 328 0.8732897244975387 0.08660800171010463 0.6257159945723785
3 373 372 328 0.8732897244975387 0.08660800171010463 0.6257159945723785
3 328 372 327 0.8732897244975387 0.08660800171010463 0.6257159945723785
3 328 374 373 0.8732897244975387 0.08660800171010463 0.6257159945723785
3 328 329 374 0.8732897244975387 0.08660800171010463 0.6257159945723785
3 288 287 186 0.8732897244975387 0.08660800171010463 0.6257159945723785
3 138 417 137 0.8732897244975387 0.08660800171010463 0.6257159945723785
3 138 287 288 0.8732897244975387 0.08660800171010463 0.6257159945723785
3 137 287 138 0.8732897244975387 0.08660800171010463 0.6257159945723785
3 239 504 429 0.8732897244975387 0.08660800171010463 0.6257159945723785
3 504 190 429 0.8732897244975387 0.08660800171010463 0.6257159945723785
3 93 437 438 0.8732897244975387 0.08660800171010463 0.6257159945723785
3 440 100 441 0.8732897244975387 0.08660800171010463 0.6257159945723785
3 440 95 439 0.8732897244975387 0.08660800171010463 0.6257159945723785
3 439 99 440 0.8732897244975387 0.08660800171010463 0.6257159945723785
3 99 100 440 0.8732897244975387 0.08660800171010463 0.6257159945723785
3 150 360 149 0.8732897244975387 0.08660800171010463 0.6257159945723785
3 151 360 150 0.8732897244975387 0.08660800171010463 0.6257159945723785
3 368 367 109 0.8732897244975387 0.08660800171010463 0.6257159945723785
3 109 367 108 0.8732897244975387 0.08660800171010463 0.6257159945723785
3 109 108 324 0.8732897244975387 0.08660800171010463 0.6257159945723785
3 324 110 109 0.8732897244975387 0.08660800171010463 0.6257159945723785
3 171 453 164 0.8732897244975387 0.08660800171010463 0.6257159945723785
3 165 164 453 0.8732897244975387 0.08660800171010463 0.6257159945723785
3 107 108 14 0.8732897244975387 0.08660800171010463 0.6257159945723785
3 14 15 107 0.8732897244975387 0.08660800171010463 0.6257159945723785
3 16 17 160 0.8732897244975387 0.08660800171010463 0.6257159945723785
3 324 108 323 0.8732897244975387 0.08660800171010463 0.6257159945723785
3 108 107 323 0.8732897244975387 0.08660800171010463 0.6257159945723785
3 160 449 450 0.8732897244975387 0.08660800171010463 0.6257159945723785
3 169 451 450 0.8732897244975387 0.08660800171010463 0.6257159945723785
3 313 312 103 0.8732897244975387 0.08660800171010463 0.6257159945723785
3 103 104 313 0.8732897244975387 0.08660800171010463 0.6257159945723785
3 105 104 370 0.8732897244975387 0.08660800171010463 0.6257159945723785
3 370 371 105 0.8732897244975387 0.08660800171010463 0.6257159945723785
3 111 371 370 0.8732897244975387 0.08660800171010463 0.6257159945723785
3 370 110 111 0.8732897244975387 0.08660800171010463 0.6257159945723785
3 133 270 271 0.8732897244975387 0.08660800171010463 0.6257159945723785
3 271 80 81 0.8732897244975387 0.08660800171010463 0.6257159945723785
3 271 270 80 0.8732897244975387 0.08660800171010463 0.6257159945723785
3 483 482 85 0.8732897244975387 0.08660800171010463 0.6257159945723785
3 483 82 482 0.8732897244975387 0.08660800171010463 0.6257159945723785
3 83 82 483 0.8732897244975387 0.08660800171010463 0.6257159945723785
3 483 484 83 0.8732897244975387 0.08660800171010463 0.6257159945723785
3 81 82 272 0.8732897244975387 0.08660800171010463 0.6257159945723785
3 272 271 81 0.8732897244975387 0.08660800171010463 0.6257159945723785
3 502 446 447 0.8732897244975387 0.08660800171010463 0.6257159945723785
3 502 513 446 0.8732897244975387 0.08660800171010463 0.6257159945723785
3 447 515 502 0.8732897244975387 0.08660800171010463 0.6257159945723785
3 502 515 491 0.8732897244975387 0.08660800171010463 0.6257159945723785
3 308 364 363 0.8732897244975387 0.08660800171010463 0.6257159945723785
3 85 279 280 0.8732897244975387 0.08660800171010463 0.6257159945723785
3 279 90 280 0.8732897244975387 0.08660800171010463 0.6257159945723785
3 310 364 309 0.8732897244975387 0.08660800171010463 0.6257159945723785
3 309 159 310 0.8732897244975387 0.08660800171010463 0.6257159945723785
3 309 364 308 0.8732897244975387 0.08660800171010463 0.6257159945723785
3 308 159 309 0.8732897244975387 0.08660800171010463 0.6257159945723785
3 96 440 441 0.8732897244975387 0.08660800171010463 0.6257159945723785
3 95 440 96 0.8732897244975387 0.08660800171010463 0.6257159945723785
3 96 441 442 0.8732897244975387 0.08660800171010463 0.6257159945723785
3 442 159 96 0.8732897244975387 0.08660800171010463 0.6257159945723785
3 261 405 404 0.8732897244975387 0.08660800171010463 0.6257159945723785
3 261 478 405 0.8732897244975387 0.08660800171010463 0.6257159945723785
3 177 401 402 0.8732897244975387 0.08660800171010463 0.6257159945723785
3 402 224 177 0.8732897244975387 0.08660800171010463 0.6257159945723785
3 402 403 224 0.8732897244975387 0.08660800171010463 0.6257159945723785
3 256 255 69 0.8732897244975387 0.08660800171010463 0.6257159945723785
3 256 67 66 0.8732897244975387 0.08660800171010463 0.6257159945723785
3 66 255 256 0.8732897244975387 0.08660800171010463 0.6257159945723785
3 183 412 237 0.8732897244975387 0.08660800171010463 0.6257159945723785
3 183 238 412 0.8732897244975387 0.08660800171010463 0.6257159945723785
3 129 409 410 0.8732897244975387 0.08660800171010463 0.6257159945723785
3 236 411 410 0.8732897244975387 0.08660800171010463 0.6257159945723785
3 234 180 235 0.8732897244975387 0.08660800171010463 0.6257159945723785
3 235 409 234 0.8732897244975387 0.08660800171010463 0.6257159945723785
3 180 181 235 0.8732897244975387 0.08660800171010463 0.6257159945723785
3 235 181 236 0.8732897244975387 0.08660800171010463 0.6257159945723785
3 236 410 235 0.8732897244975387 0.08660800171010463 0.6257159945723785
3 235 410 409 0.8732897244975387 0.08660800171010463 0.6257159945723785
3 262 42 43 0.8732897244975387 0.08660800171010463 0.6257159945723785
3 262 76 42 0.8732897244975387 0.08660800171010463 0.6257159945723785
3 262 263 76 0.8732897244975387 0.08660800171010463 0.6257159945723785
3 77 264 78 0.8732897244975387 0.08660800171010463 0.6257159945723785
3 470 76 77 0.8732897244975387 0.08660800171010463 0.6257159945723785
3 76 263 77 0.8732897244975387 0.08660800171010463 0.6257159945723785
3 263 264 77 0.8732897244975387 0.08660800171010463 0.6257159945723785
3 77 471 470 0.8732897244975387 0.08660800171010463 0.6257159945723785
3 78 471 77 0.8732897244975387 0.08660800171010463 0.6257159945723785
3 226 227 69 0.8732897244975387 0.08660800171010463 0.6257159945723785
3 69 68 226 0.8732897244975387 0.08660800171010463 0.6257159945723785
3 226 68 225 0.8732897244975387 0.08660800171010463 0.6257159945723785
3 225 73 226 0.8732897244975387 0.08660800171010463 0.6257159945723785
3 265 264 130 0.8732897244975387 0.08660800171010463 0.6257159945723785
3 130 131 265 0.8732897244975387 0.08660800171010463 0.6257159945723785
3 130 411 131 0.8732897244975387 0.08660800171010463 0.6257159945723785
3 130 264 129 0.8732897244975387 0.08660800171010463 0.6257159945723785
3 129 410 130 0.8732897244975387 0.08660800171010463 0.6257159945723785
3 130 410 411 0.8732897244975387 0.08660800171010463 0.6257159945723785
3 275 274 485 0.8732897244975387 0.08660800171010463 0.6257159945723785
3 83 484 485 0.8732897244975387 0.08660800171010463 0.6257159945723785
3 485 274 83 0.8732897244975387 0.08660800171010463 0.6257159945723785
3 420 419 140 0.8732897244975387 0.08660800171010463 0.6257159945723785
3 90 419 420 0.8732897244975387 0.08660800171010463 0.6257159945723785
3 413 238 354 0.8732897244975387 0.08660800171010463 0.6257159945723785
3 412 238 413 0.8732897244975387 0.08660800171010463 0.6257159945723785
3 413 267 412 0.8732897244975387 0.08660800171010463 0.6257159945723785
3 202 382 251 0.8732897244975387 0.08660800171010463 0.6257159945723785
3 252 251 209 0.8732897244975387 0.08660800171010463 0.6257159945723785
3 209 210 252 0.8732897244975387 0.08660800171010463 0.6257159945723785
3 252 210 384 0.8732897244975387 0.08660800171010463 0.6257159945723785
3 384 203 252 0.8732897244975387 0.08660800171010463 0.6257159945723785
3 333 381 201 0.8732897244975387 0.08660800171010463 0.6257159945723785
3 169 333 201 0.8732897244975387 0.08660800171010463 0.6257159945723785
3 250 382 201 0.8732897244975387 0.08660800171010463 0.6257159945723785
3 201 381 250 0.8732897244975387 0.08660800171010463 0.6257159945723785
3 168 332 333 0.8732897244975387 0.08660800171010463 0.6257159945723785
3 167 332 168 0.8732897244975387 0.08660800171010463 0.6257159945723785
3 168 333 169 0.8732897244975387 0.08660800171010463 0.6257159945723785
3 168 448 167 0.8732897244975387 0.08660800171010463 0.6257159945723785
3 449 448 168 0.8732897244975387 0.08660800171010463 0.6257159945723785
3 169 450 168 0.8732897244975387 0.08660800171010463 0.6257159945723785
3 168 450 449 0.8732897244975387 0.08660800171010463 0.6257159945723785
3 199 332 331 0.8732897244975387 0.08660800171010463 0.6257159945723785
3 332 166 331 0.8732897244975387 0.08660800171010463 0.6257159945723785
3 331 166 19 0.8732897244975387 0.08660800171010463 0.6257159945723785
3 19 330 331 0.8732897244975387 0.08660800171010463 0.6257159945723785
3 331 330 199 0.8732897244975387 0.08660800171010463 0.6257159945723785
3 329 328 456 0.8732897244975387 0.08660800171010463 0.6257159945723785
3 456 386 457 0.8732897244975387 0.08660800171010463 0.6257159945723785
3 457 329 456 0.8732897244975387 0.08660800171010463 0.6257159945723785
3 338 386 456 0.8732897244975387 0.08660800171010463 0.6257159945723785
3 456 328 338 0.8732897244975387 0.08660800171010463 0.6257159945723785
3 288 186 187 0.8732897244975387 0.08660800171010463 0.6257159945723785
3 187 289 288 0.8732897244975387 0.08660800171010463 0.6257159945723785
3 495 186 494 0.8732897244975387 0.08660800171010463 0.6257159945723785
3 496 187 495 0.8732897244975387 0.08660800171010463 0.6257159945723785
3 495 187 186 0.8732897244975387 0.08660800171010463 0.6257159945723785
3 185 186 287 0.8732897244975387 0.08660800171010463 0.6257159945723785
3 494 186 185 0.8732897244975387 0.08660800171010463 0.6257159945723785
3 185 493 494 0.8732897244975387 0.08660800171010463 0.6257159945723785
3 184 493 185 0.8732897244975387 0.08660800171010463 0.6257159945723785
3 494 493 241 0.8732897244975387 0.08660800171010463 0.6257159945723785
3 3 4 294 0.8732897244975387 0.08660800171010463 0.6257159945723785
3 188 187 496 0.8732897244975387 0.08660800171010463 0.6257159945723785
3 289 187 188 0.8732897244975387 0.08660800171010463 0.6257159945723785
3 295 294 4 0.8732897244975387 0.08660800171010463 0.6257159945723785
3 158 157 95 0.8732897244975387 0.08660800171010463 0.6257159945723785
3 95 96 158 0.8732897244975387 0.08660800171010463 0.6257159945723785
3 158 96 159 0.8732897244975387 0.08660800171010463 0.6257159945723785
3 158 159 308 0.8732897244975387 0.08660800171010463 0.6257159945723785
3 92 9 10 0.8732897244975387 0.08660800171010463 0.6257159945723785
3 10 437 92 0.8732897244975387 0.08660800171010463 0.6257159945723785
3 437 93 92 0.8732897244975387 0.08660800171010463 0.6257159945723785
3 94 157 156 0.8732897244975387 0.08660800171010463 0.6257159945723785
3 156 93 94 0.8732897244975387 0.08660800171010463 0.6257159945723785
3 95 157 94 0.8732897244975387 0.08660800171010463 0.6257159945723785
3 439 95 94 0.8732897244975387 0.08660800171010463 0.6257159945723785
3 94 438 439 0.8732897244975387 0.08660800171010463 0.6257159945723785
3 94 93 438 0.8732897244975387 0.08660800171010463 0.6257159945723785
3 196 434 245 0.8732897244975387 0.08660800171010463 0.6257159945723785
3 300 434 196 0.8732897244975387 0.08660800171010463 0.6257159945723785
3 360 151 361 0.8732897244975387 0.08660800171010463 0.6257159945723785
3 304 151 150 0.8732897244975387 0.08660800171010463 0.6257159945723785
3 326 165 454 0.8732897244975387 0.08660800171010463 0.6257159945723785
3 454 337 455 0.8732897244975387 0.08660800171010463 0.6257159945723785
3 455 326 454 0.8732897244975387 0.08660800171010463 0.6257159945723785
3 454 453 337 0.8732897244975387 0.08660800171010463 0.6257159945723785
3 454 165 453 0.8732897244975387 0.08660800171010463 0.6257159945723785
3 325 326 111 0.8732897244975387 0.08660800171010463 0.6257159945723785
3 325 165 326 0.8732897244975387 0.08660800171010463 0.6257159945723785
3 111 110 325 0.8732897244975387 0.08660800171010463 0.6257159945723785
3 325 110 324 0.8732897244975387 0.08660800171010463 0.6257159945723785
3 324 164 325 0.8732897244975387 0.08660800171010463 0.6257159945723785
3 164 165 325 0.8732897244975387 0.08660800171010463 0.6257159945723785
3 322 107 15 0.8732897244975387 0.08660800171010463 0.6257159945723785
3 322 323 107 0.8732897244975387 0.08660800171010463 0.6257159945723785
3 163 164 324 0.8732897244975387 0.08660800171010463 0.6257159945723785
3 324 323 163 0.8732897244975387 0.08660800171010463 0.6257159945723785
3 162 451 163 0.8732897244975387 0.08660800171010463 0.6257159945723785
3 163 322 162 0.8732897244975387 0.08660800171010463 0.6257159945723785
3 323 322 163 0.8732897244975387 0.08660800171010463 0.6257159945723785
3 102 312 12 0.8732897244975387 0.08660800171010463 0.6257159945723785
3 102 103 312 0.8732897244975387 0.08660800171010463 0.6257159945723785
3 12 13 102 0.8732897244975387 0.08660800171010463 0.6257159945723785
3 102 13 368 0.8732897244975387 0.08660800171010463 0.6257159945723785
3 368 103 102 0.8732897244975387 0.08660800171010463 0.6257159945723785
3 104 103 369 0.8732897244975387 0.08660800171010463 0.6257159945723785
3 369 370 104 0.8732897244975387 0.08660800171010463 0.6257159945723785
3 369 103 368 0.8732897244975387 0.08660800171010463 0.6257159945723785
3 110 370 369 0.8732897244975387 0.08660800171010463 0.6257159945723785
3 368 109 369 0.8732897244975387 0.08660800171010463 0.6257159945723785
3 369 109 110 0.8732897244975387 0.08660800171010463 0.6257159945723785
3 307 158 308 0.8732897244975387 0.08660800171010463 0.6257159945723785
3 157 158 307 0.8732897244975387 0.08660800171010463 0.6257159945723785
3 301 363 364 0.8732897244975387 0.08660800171010463 0.6257159945723785
3 364 302 301 0.8732897244975387 0.08660800171010463 0.6257159945723785
3 301 434 300 0.8732897244975387 0.08660800171010463 0.6257159945723785
3 89 419 90 0.8732897244975387 0.08660800171010463 0.6257159945723785
3 89 90 279 0.8732897244975387 0.08660800171010463 0.6257159945723785
3 89 278 88 0.8732897244975387 0.08660800171010463 0.6257159945723785
3 89 279 278 0.8732897244975387 0.08660800171010463 0.6257159945723785
3 417 138 418 0.8732897244975387 0.08660800171010463 0.6257159945723785
3 419 89 418 0.8732897244975387 0.08660800171010463 0.6257159945723785
3 88 417 418 0.8732897244975387 0.08660800171010463 0.6257159945723785
3 418 89 88 0.8732897244975387 0.08660800171010463 0.6257159945723785
3 139 138 288 0.8732897244975387 0.08660800171010463 0.6257159945723785
3 288 289 139 0.8732897244975387 0.08660800171010463 0.6257159945723785
3 139 418 138 0.8732897244975387 0.08660800171010463 0.6257159945723785
3 419 418 139 0.8732897244975387 0.08660800171010463 0.6257159945723785
3 139 289 140 0.8732897244975387 0.08660800171010463 0.6257159945723785
3 140 419 139 0.8732897244975387 0.08660800171010463 0.6257159945723785
3 86 483 85 0.8732897244975387 0.08660800171010463 0.6257159945723785
3 85 280 86 0.8732897244975387 0.08660800171010463 0.6257159945723785
3 484 483 86 0.8732897244975387 0.08660800171010463 0.6257159945723785
3 478 261 477 0.8732897244975387 0.08660800171010463 0.6257159945723785
3 231 477 261 0.8732897244975387 0.08660800171010463 0.6257159945723785
3 79 78 265 0.8732897244975387 0.08660800171010463 0.6257159945723785
3 472 78 79 0.8732897244975387 0.08660800171010463 0.6257159945723785
3 266 131 412 0.8732897244975387 0.08660800171010463 0.6257159945723785
3 412 267 266 0.8732897244975387 0.08660800171010463 0.6257159945723785
3 265 131 266 0.8732897244975387 0.08660800171010463 0.6257159945723785
3 266 79 265 0.8732897244975387 0.08660800171010463 0.6257159945723785
3 258 401 67 0.8732897244975387 0.08660800171010463 0.6257159945723785
3 258 402 401 0.8732897244975387 0.08660800171010463 0.6257159945723785
3 229 258 71 0.8732897244975387 0.08660800171010463 0.6257159945723785
3 275 354 353 0.8732897244975387 0.08660800171010463 0.6257159945723785
3 354 238 353 0.8732897244975387 0.08660800171010463 0.6257159945723785
3 238 183 353 0.8732897244975387 0.08660800171010463 0.6257159945723785
3 408 409 128 0.8732897244975387 0.08660800171010463 0.6257159945723785
3 128 409 129 0.8732897244975387 0.08660800171010463 0.6257159945723785
3 129 263 128 0.8732897244975387 0.08660800171010463 0.6257159945723785
3 263 262 128 0.8732897244975387 0.08660800171010463 0.6257159945723785
3 74 75 227 0.8732897244975387 0.08660800171010463 0.6257159945723785
3 74 226 73 0.8732897244975387 0.08660800171010463 0.6257159945723785
3 227 226 74 0.8732897244975387 0.08660800171010463 0.6257159945723785
3 74 73 472 0.8732897244975387 0.08660800171010463 0.6257159945723785
3 275 485 486 0.8732897244975387 0.08660800171010463 0.6257159945723785
3 486 485 283 0.8732897244975387 0.08660800171010463 0.6257159945723785
3 283 284 486 0.8732897244975387 0.08660800171010463 0.6257159945723785
3 281 86 280 0.8732897244975387 0.08660800171010463 0.6257159945723785
3 500 424 293 0.8732897244975387 0.08660800171010463 0.6257159945723785
3 426 502 491 0.8732897244975387 0.08660800171010463 0.6257159945723785
3 513 502 426 0.8732897244975387 0.08660800171010463 0.6257159945723785
3 426 501 513 0.8732897244975387 0.08660800171010463 0.6257159945723785
3 365 310 311 0.8732897244975387 0.08660800171010463 0.6257159945723785
3 365 364 310 0.8732897244975387 0.08660800171010463 0.6257159945723785
3 365 302 364 0.8732897244975387 0.08660800171010463 0.6257159945723785
3 277 356 355 0.8732897244975387 0.08660800171010463 0.6257159945723785
3 489 356 277 0.8732897244975387 0.08660800171010463 0.6257159945723785
3 423 284 283 0.8732897244975387 0.08660800171010463 0.6257159945723785
3 293 424 423 0.8732897244975387 0.08660800171010463 0.6257159945723785
3 423 424 284 0.8732897244975387 0.08660800171010463 0.6257159945723785
3 382 202 334 0.8732897244975387 0.08660800171010463 0.6257159945723785
3 169 201 334 0.8732897244975387 0.08660800171010463 0.6257159945723785
3 334 201 382 0.8732897244975387 0.08660800171010463 0.6257159945723785
3 334 202 170 0.8732897244975387 0.08660800171010463 0.6257159945723785
3 334 451 169 0.8732897244975387 0.08660800171010463 0.6257159945723785
3 170 451 334 0.8732897244975387 0.08660800171010463 0.6257159945723785
3 383 252 203 0.8732897244975387 0.08660800171010463 0.6257159945723785
3 383 202 251 0.8732897244975387 0.08660800171010463 0.6257159945723785
3 251 252 383 0.8732897244975387 0.08660800171010463 0.6257159945723785
3 242 495 494 0.8732897244975387 0.08660800171010463 0.6257159945723785
3 494 241 242 0.8732897244975387 0.08660800171010463 0.6257159945723785
3 430 431 242 0.8732897244975387 0.08660800171010463 0.6257159945723785
3 242 241 430 0.8732897244975387 0.08660800171010463 0.6257159945723785
3 286 185 287 0.8732897244975387 0.08660800171010463 0.6257159945723785
3 58 59 286 0.8732897244975387 0.08660800171010463 0.6257159945723785
3 59 184 286 0.8732897244975387 0.08660800171010463 0.6257159945723785
3 184 185 286 0.8732897244975387 0.08660800171010463 0.6257159945723785
3 286 137 58 0.8732897244975387 0.08660800171010463 0.6257159945723785
3 286 287 137 0.8732897244975387 0.08660800171010463 0.6257159945723785
3 240 429 430 0.8732897244975387 0.08660800171010463 0.6257159945723785
3 430 241 240 0.8732897244975387 0.08660800171010463 0.6257159945723785
3 239 429 240 0.8732897244975387 0.08660800171010463 0.6257159945723785
3 240 241 493 0.8732897244975387 0.08660800171010463 0.6257159945723785
3 61 239 240 0.8732897244975387 0.08660800171010463 0.6257159945723785
3 430 429 191 0.8732897244975387 0.08660800171010463 0.6257159945723785
3 3 294 191 0.8732897244975387 0.08660800171010463 0.6257159945723785
3 191 190 3 0.8732897244975387 0.08660800171010463 0.6257159945723785
3 191 429 190 0.8732897244975387 0.08660800171010463 0.6257159945723785
3 497 188 496 0.8732897244975387 0.08660800171010463 0.6257159945723785
3 245 498 497 0.8732897244975387 0.08660800171010463 0.6257159945723785
3 193 431 430 0.8732897244975387 0.08660800171010463 0.6257159945723785
3 357 5 6 0.8732897244975387 0.08660800171010463 0.6257159945723785
3 6 358 357 0.8732897244975387 0.08660800171010463 0.6257159945723785
3 6 7 148 0.8732897244975387 0.08660800171010463 0.6257159945723785
3 148 7 149 0.8732897244975387 0.08660800171010463 0.6257159945723785
3 148 358 6 0.8732897244975387 0.08660800171010463 0.6257159945723785
3 300 196 147 0.8732897244975387 0.08660800171010463 0.6257159945723785
3 154 304 8 0.8732897244975387 0.08660800171010463 0.6257159945723785
3 154 8 9 0.8732897244975387 0.08660800171010463 0.6257159945723785
3 9 92 154 0.8732897244975387 0.08660800171010463 0.6257159945723785
3 151 304 305 0.8732897244975387 0.08660800171010463 0.6257159945723785
3 304 154 305 0.8732897244975387 0.08660800171010463 0.6257159945723785
3 150 149 303 0.8732897244975387 0.08660800171010463 0.6257159945723785
3 303 304 150 0.8732897244975387 0.08660800171010463 0.6257159945723785
3 149 7 303 0.8732897244975387 0.08660800171010463 0.6257159945723785
3 303 7 8 0.8732897244975387 0.08660800171010463 0.6257159945723785
3 8 304 303 0.8732897244975387 0.08660800171010463 0.6257159945723785
3 162 322 321 0.8732897244975387 0.08660800171010463 0.6257159945723785
3 15 16 321 0.8732897244975387 0.08660800171010463 0.6257159945723785
3 321 322 15 0.8732897244975387 0.08660800171010463 0.6257159945723785
3 171 164 452 0.8732897244975387 0.08660800171010463 0.6257159945723785
3 164 163 452 0.8732897244975387 0.08660800171010463 0.6257159945723785
3 452 451 170 0.8732897244975387 0.08660800171010463 0.6257159945723785
3 452 163 451 0.8732897244975387 0.08660800171010463 0.6257159945723785
3 152 361 151 0.8732897244975387 0.08660800171010463 0.6257159945723785
3 499 498 434 0.8732897244975387 0.08660800171010463 0.6257159945723785
3 499 500 293 0.8732897244975387 0.08660800171010463 0.6257159945723785
3 79 266 473 0.8732897244975387 0.08660800171010463 0.6257159945723785
3 472 79 473 0.8732897244975387 0.08660800171010463 0.6257159945723785
3 473 74 472 0.8732897244975387 0.08660800171010463 0.6257159945723785
3 75 74 473 0.8732897244975387 0.08660800171010463 0.6257159945723785
3 230 258 229 0.8732897244975387 0.08660800171010463 0.6257159945723785
3 229 475 230 0.8732897244975387 0.08660800171010463 0.6257159945723785
3 403 402 259 0.8732897244975387 0.08660800171010463 0.6257159945723785
3 402 258 259 0.8732897244975387 0.08660800171010463 0.6257159945723785
3 259 230 231 0.8732897244975387 0.08660800171010463 0.6257159945723785
3 258 230 259 0.8732897244975387 0.08660800171010463 0.6257159945723785
3 227 75 228 0.8732897244975387 0.08660800171010463 0.6257159945723785
3 228 75 229 0.8732897244975387 0.08660800171010463 0.6257159945723785
3 229 71 228 0.8732897244975387 0.08660800171010463 0.6257159945723785
3 69 227 70 0.8732897244975387 0.08660800171010463 0.6257159945723785
3 70 256 69 0.8732897244975387 0.08660800171010463 0.6257159945723785
3 227 228 70 0.8732897244975387 0.08660800171010463 0.6257159945723785
3 70 228 71 0.8732897244975387 0.08660800171010463 0.6257159945723785
3 257 258 67 0.8732897244975387 0.08660800171010463 0.6257159945723785
3 257 71 258 0.8732897244975387 0.08660800171010463 0.6257159945723785
3 67 256 257 0.8732897244975387 0.08660800171010463 0.6257159945723785
3 256 70 257 0.8732897244975387 0.08660800171010463 0.6257159945723785
3 257 70 71 0.8732897244975387 0.08660800171010463 0.6257159945723785
3 182 183 237 0.8732897244975387 0.08660800171010463 0.6257159945723785
3 237 236 182 0.8732897244975387 0.08660800171010463 0.6257159945723785
3 236 181 182 0.8732897244975387 0.08660800171010463 0.6257159945723785
3 272 135 134 0.8732897244975387 0.08660800171010463 0.6257159945723785
3 350 133 134 0.8732897244975387 0.08660800171010463 0.6257159945723785
3 133 271 134 0.8732897244975387 0.08660800171010463 0.6257159945723785
3 271 272 134 0.8732897244975387 0.08660800171010463 0.6257159945723785
3 273 135 272 0.8732897244975387 0.08660800171010463 0.6257159945723785
3 273 82 83 0.8732897244975387 0.08660800171010463 0.6257159945723785
3 273 272 82 0.8732897244975387 0.08660800171010463 0.6257159945723785
3 83 274 273 0.8732897244975387 0.08660800171010463 0.6257159945723785
3 136 273 274 0.8732897244975387 0.08660800171010463 0.6257159945723785
3 135 273 136 0.8732897244975387 0.08660800171010463 0.6257159945723785
3 136 274 275 0.8732897244975387 0.08660800171010463 0.6257159945723785
3 275 353 136 0.8732897244975387 0.08660800171010463 0.6257159945723785
3 408 128 127 0.8732897244975387 0.08660800171010463 0.6257159945723785
3 43 44 127 0.8732897244975387 0.08660800171010463 0.6257159945723785
3 127 262 43 0.8732897244975387 0.08660800171010463 0.6257159945723785
3 127 128 262 0.8732897244975387 0.08660800171010463 0.6257159945723785
3 44 407 127 0.8732897244975387 0.08660800171010463 0.6257159945723785
3 127 407 408 0.8732897244975387 0.08660800171010463 0.6257159945723785
3 477 231 476 0.8732897244975387 0.08660800171010463 0.6257159945723785
3 476 269 477 0.8732897244975387 0.08660800171010463 0.6257159945723785
3 231 230 476 0.8732897244975387 0.08660800171010463 0.6257159945723785
3 476 230 475 0.8732897244975387 0.08660800171010463 0.6257159945723785
3 141 420 140 0.8732897244975387 0.08660800171010463 0.6257159945723785
3 87 485 484 0.8732897244975387 0.08660800171010463 0.6257159945723785
3 484 86 87 0.8732897244975387 0.08660800171010463 0.6257159945723785
3 86 281 87 0.8732897244975387 0.08660800171010463 0.6257159945723785
3 489 277 488 0.8732897244975387 0.08660800171010463 0.6257159945723785
3 436 500 302 0.8732897244975387 0.08660800171010463 0.6257159945723785
3 501 500 436 0.8732897244975387 0.08660800171010463 0.6257159945723785
3 302 365 436 0.8732897244975387 0.08660800171010463 0.6257159945723785
3 490 426 491 0.8732897244975387 0.08660800171010463 0.6257159945723785
3 489 426 490 0.8732897244975387 0.08660800171010463 0.6257159945723785
3 490 491 416 0.8732897244975387 0.08660800171010463 0.6257159945723785
3 416 356 490 0.8732897244975387 0.08660800171010463 0.6257159945723785
3 490 356 489 0.8732897244975387 0.08660800171010463 0.6257159945723785
3 425 426 489 0.8732897244975387 0.08660800171010463 0.6257159945723785
3 501 426 425 0.8732897244975387 0.08660800171010463 0.6257159945723785
3 425 500 501 0.8732897244975387 0.08660800171010463 0.6257159945723785
3 424 500 425 0.8732897244975387 0.08660800171010463 0.6257159945723785
3 513 501 366 0.8732897244975387 0.08660800171010463 0.6257159945723785
3 366 365 311 0.8732897244975387 0.08660800171010463 0.6257159945723785
3 501 436 366 0.8732897244975387 0.08660800171010463 0.6257159945723785
3 366 436 365 0.8732897244975387 0.08660800171010463 0.6257159945723785
3 446 513 366 0.8732897244975387 0.08660800171010463 0.6257159945723785
3 366 311 445 0.8732897244975387 0.08660800171010463 0.6257159945723785
3 445 446 366 0.8732897244975387 0.08660800171010463 0.6257159945723785
3 293 423 292 0.8732897244975387 0.08660800171010463 0.6257159945723785
3 292 499 293 0.8732897244975387 0.08660800171010463 0.6257159945723785
3 292 291 498 0.8732897244975387 0.08660800171010463 0.6257159945723785
3 498 499 292 0.8732897244975387 0.08660800171010463 0.6257159945723785
3 335 383 203 0.8732897244975387 0.08660800171010463 0.6257159945723785
3 335 203 171 0.8732897244975387 0.08660800171010463 0.6257159945723785
3 170 202 335 0.8732897244975387 0.08660800171010463 0.6257159945723785
3 202 383 335 0.8732897244975387 0.08660800171010463 0.6257159945723785
3 171 452 335 0.8732897244975387 0.08660800171010463 0.6257159945723785
3 335 452 170 0.8732897244975387 0.08660800171010463 0.6257159945723785
3 496 495 243 0.8732897244975387 0.08660800171010463 0.6257159945723785
3 495 242 243 0.8732897244975387 0.08660800171010463 0.6257159945723785
3 243 242 431 0.8732897244975387 0.08660800171010463 0.6257159945723785
3 431 508 243 0.8732897244975387 0.08660800171010463 0.6257159945723785
3 245 497 244 0.8732897244975387 0.08660800171010463 0.6257159945723785
3 244 497 496 0.8732897244975387 0.08660800171010463 0.6257159945723785
3 496 243 244 0.8732897244975387 0.08660800171010463 0.6257159945723785
3 244 243 508 0.8732897244975387 0.08660800171010463 0.6257159945723785
3 433 196 245 0.8732897244975387 0.08660800171010463 0.6257159945723785
3 245 244 433 0.8732897244975387 0.08660800171010463 0.6257159945723785
3 61 240 492 0.8732897244975387 0.08660800171010463 0.6257159945723785
3 492 240 493 0.8732897244975387 0.08660800171010463 0.6257159945723785
3 60 61 492 0.8732897244975387 0.08660800171010463 0.6257159945723785
3 492 184 60 0.8732897244975387 0.08660800171010463 0.6257159945723785
3 492 493 184 0.8732897244975387 0.08660800171010463 0.6257159945723785
3 498 291 189 0.8732897244975387 0.08660800171010463 0.6257159945723785
3 189 497 498 0.8732897244975387 0.08660800171010463 0.6257159945723785
3 188 497 189 0.8732897244975387 0.08660800171010463 0.6257159945723785
3 192 193 430 0.8732897244975387 0.08660800171010463 0.6257159945723785
3 295 193 192 0.8732897244975387 0.08660800171010463 0.6257159945723785
3 294 295 192 0.8732897244975387 0.08660800171010463 0.6257159945723785
3 430 191 192 0.8732897244975387 0.08660800171010463 0.6257159945723785
3 192 191 294 0.8732897244975387 0.08660800171010463 0.6257159945723785
3 5 357 143 0.8732897244975387 0.08660800171010463 0.6257159945723785
3 156 305 155 0.8732897244975387 0.08660800171010463 0.6257159945723785
3 155 305 154 0.8732897244975387 0.08660800171010463 0.6257159945723785
3 155 154 92 0.8732897244975387 0.08660800171010463 0.6257159945723785
3 155 93 156 0.8732897244975387 0.08660800171010463 0.6257159945723785
3 155 92 93 0.8732897244975387 0.08660800171010463 0.6257159945723785
3 162 321 161 0.8732897244975387 0.08660800171010463 0.6257159945723785
3 161 451 162 0.8732897244975387 0.08660800171010463 0.6257159945723785
3 161 450 451 0.8732897244975387 0.08660800171010463 0.6257159945723785
3 160 450 161 0.8732897244975387 0.08660800171010463 0.6257159945723785
3 161 16 160 0.8732897244975387 0.08660800171010463 0.6257159945723785
3 161 321 16 0.8732897244975387 0.08660800171010463 0.6257159945723785
3 153 152 307 0.8732897244975387 0.08660800171010463 0.6257159945723785
3 308 363 153 0.8732897244975387 0.08660800171010463 0.6257159945723785
3 153 307 308 0.8732897244975387 0.08660800171010463 0.6257159945723785
3 362 301 300 0.8732897244975387 0.08660800171010463 0.6257159945723785
3 363 301 362 0.8732897244975387 0.08660800171010463 0.6257159945723785
3 300 147 362 0.8732897244975387 0.08660800171010463 0.6257159945723785
3 362 153 363 0.8732897244975387 0.08660800171010463 0.6257159945723785
3 152 153 362 0.8732897244975387 0.08660800171010463 0.6257159945723785
3 362 147 361 0.8732897244975387 0.08660800171010463 0.6257159945723785
3 361 152 362 0.8732897244975387 0.08660800171010463 0.6257159945723785
3 307 152 306 0.8732897244975387 0.08660800171010463 0.6257159945723785
3 306 305 156 0.8732897244975387 0.08660800171010463 0.6257159945723785
3 151 305 306 0.8732897244975387 0.08660800171010463 0.6257159945723785
3 306 152 151 0.8732897244975387 0.08660800171010463 0.6257159945723785
3 156 157 306 0.8732897244975387 0.08660800171010463 0.6257159945723785
3 157 307 306 0.8732897244975387 0.08660800171010463 0.6257159945723785
3 302 500 511 0.8732897244975387 0.08660800171010463 0.6257159945723785
3 500 499 511 0.8732897244975387 0.08660800171010463 0.6257159945723785
3 511 301 302 0.8732897244975387 0.08660800171010463 0.6257159945723785
3 434 301 511 0.8732897244975387 0.08660800171010463 0.6257159945723785
3 511 499 434 0.8732897244975387 0.08660800171010463 0.6257159945723785
3 355 356 415 0.8732897244975387 0.08660800171010463 0.6257159945723785
3 415 356 416 0.8732897244975387 0.08660800171010463 0.6257159945723785
3 416 478 415 0.8732897244975387 0.08660800171010463 0.6257159945723785
3 478 477 415 0.8732897244975387 0.08660800171010463 0.6257159945723785
3 477 269 415 0.8732897244975387 0.08660800171010463 0.6257159945723785
3 414 354 355 0.8732897244975387 0.08660800171010463 0.6257159945723785
3 414 413 354 0.8732897244975387 0.08660800171010463 0.6257159945723785
3 355 415 414 0.8732897244975387 0.08660800171010463 0.6257159945723785
3 414 415 269 0.8732897244975387 0.08660800171010463 0.6257159945723785
3 268 475 267 0.8732897244975387 0.08660800171010463 0.6257159945723785
3 268 414 269 0.8732897244975387 0.08660800171010463 0.6257159945723785
3 268 476 475 0.8732897244975387 0.08660800171010463 0.6257159945723785
3 269 476 268 0.8732897244975387 0.08660800171010463 0.6257159945723785
3 267 413 268 0.8732897244975387 0.08660800171010463 0.6257159945723785
3 413 414 268 0.8732897244975387 0.08660800171010463 0.6257159945723785
3 75 473 474 0.8732897244975387 0.08660800171010463 0.6257159945723785
3 229 75 474 0.8732897244975387 0.08660800171010463 0.6257159945723785
3 474 475 229 0.8732897244975387 0.08660800171010463 0.6257159945723785
3 267 475 474 0.8732897244975387 0.08660800171010463 0.6257159945723785
3 474 266 267 0.8732897244975387 0.08660800171010463 0.6257159945723785
3 474 473 266 0.8732897244975387 0.08660800171010463 0.6257159945723785
3 403 259 260 0.8732897244975387 0.08660800171010463 0.6257159945723785
3 404 403 260 0.8732897244975387 0.08660800171010463 0.6257159945723785
3 260 261 404 0.8732897244975387 0.08660800171010463 0.6257159945723785
3 260 231 261 0.8732897244975387 0.08660800171010463 0.6257159945723785
3 260 259 231 0.8732897244975387 0.08660800171010463 0.6257159945723785
3 351 182 181 0.8732897244975387 0.08660800171010463 0.6257159945723785
3 351 181 350 0.8732897244975387 0.08660800171010463 0.6257159945723785
3 350 134 351 0.8732897244975387 0.08660800171010463 0.6257159945723785
3 351 134 135 0.8732897244975387 0.08660800171010463 0.6257159945723785
3 135 136 352 0.8732897244975387 0.08660800171010463 0.6257159945723785
3 352 351 135 0.8732897244975387 0.08660800171010463 0.6257159945723785
3 182 351 352 0.8732897244975387 0.08660800171010463 0.6257159945723785
3 183 182 352 0.8732897244975387 0.08660800171010463 0.6257159945723785
3 352 353 183 0.8732897244975387 0.08660800171010463 0.6257159945723785
3 352 136 353 0.8732897244975387 0.08660800171010463 0.6257159945723785
3 420 141 421 0.8732897244975387 0.08660800171010463 0.6257159945723785
3 421 141 291 0.8732897244975387 0.08660800171010463 0.6257159945723785
3 487 486 284 0.8732897244975387 0.08660800171010463 0.6257159945723785
3 487 488 277 0.8732897244975387 0.08660800171010463 0.6257159945723785
3 489 488 285 0.8732897244975387 0.08660800171010463 0.6257159945723785
3 285 425 489 0.8732897244975387 0.08660800171010463 0.6257159945723785
3 424 425 285 0.8732897244975387 0.08660800171010463 0.6257159945723785
3 284 424 285 0.8732897244975387 0.08660800171010463 0.6257159945723785
3 285 487 284 0.8732897244975387 0.08660800171010463 0.6257159945723785
3 488 487 285 0.8732897244975387 0.08660800171010463 0.6257159945723785
3 359 145 358 0.8732897244975387 0.08660800171010463 0.6257159945723785
3 359 148 149 0.8732897244975387 0.08660800171010463 0.6257159945723785
3 358 148 359 0.8732897244975387 0.08660800171010463 0.6257159945723785
3 359 149 360 0.8732897244975387 0.08660800171010463 0.6257159945723785
3 360 145 359 0.8732897244975387 0.08660800171010463 0.6257159945723785
3 146 145 360 0.8732897244975387 0.08660800171010463 0.6257159945723785
3 360 361 146 0.8732897244975387 0.08660800171010463 0.6257159945723785
3 361 147 146 0.8732897244975387 0.08660800171010463 0.6257159945723785
3 195 244 508 0.8732897244975387 0.08660800171010463 0.6257159945723785
3 195 433 244 0.8732897244975387 0.08660800171010463 0.6257159945723785
3 188 189 290 0.8732897244975387 0.08660800171010463 0.6257159945723785
3 290 141 140 0.8732897244975387 0.08660800171010463 0.6257159945723785
3 291 141 290 0.8732897244975387 0.08660800171010463 0.6257159945723785
3 290 189 291 0.8732897244975387 0.08660800171010463 0.6257159945723785
3 140 289 290 0.8732897244975387 0.08660800171010463 0.6257159945723785
3 289 188 290 0.8732897244975387 0.08660800171010463 0.6257159945723785
3 296 193 295 0.8732897244975387 0.08660800171010463 0.6257159945723785
3 144 357 358 0.8732897244975387 0.08660800171010463 0.6257159945723785
3 144 143 357 0.8732897244975387 0.08660800171010463 0.6257159945723785
3 358 145 144 0.8732897244975387 0.08660800171010463 0.6257159945723785
3 420 421 91 0.8732897244975387 0.08660800171010463 0.6257159945723785
3 90 420 91 0.8732897244975387 0.08660800171010463 0.6257159945723785
3 91 280 90 0.8732897244975387 0.08660800171010463 0.6257159945723785
3 91 281 280 0.8732897244975387 0.08660800171010463 0.6257159945723785
3 282 87 281 0.8732897244975387 0.08660800171010463 0.6257159945723785
3 281 91 282 0.8732897244975387 0.08660800171010463 0.6257159945723785
3 282 91 421 0.8732897244975387 0.08660800171010463 0.6257159945723785
3 283 485 282 0.8732897244975387 0.08660800171010463 0.6257159945723785
3 485 87 282 0.8732897244975387 0.08660800171010463 0.6257159945723785
3 422 423 283 0.8732897244975387 0.08660800171010463 0.6257159945723785
3 283 282 422 0.8732897244975387 0.08660800171010463 0.6257159945723785
3 422 282 421 0.8732897244975387 0.08660800171010463 0.6257159945723785
3 422 292 423 0.8732897244975387 0.08660800171010463 0.6257159945723785
3 291 292 422 0.8732897244975387 0.08660800171010463 0.6257159945723785
3 422 421 291 0.8732897244975387 0.08660800171010463 0.6257159945723785
3 276 487 277 0.8732897244975387 0.08660800171010463 0.6257159945723785
3 276 354 275 0.8732897244975387 0.08660800171010463 0.6257159945723785
3 275 486 276 0.8732897244975387 0.08660800171010463 0.6257159945723785
3 486 487 276 0.8732897244975387 0.08660800171010463 0.6257159945723785
3 355 354 276 0.8732897244975387 0.08660800171010463 0.6257159945723785
3 276 277 355 0.8732897244975387 0.08660800171010463 0.6257159945723785
3 298 195 508 0.8732897244975387 0.08660800171010463 0.6257159945723785
3 145 146 298 0.8732897244975387 0.08660800171010463 0.6257159945723785
3 146 195 298 0.8732897244975387 0.08660800171010463 0.6257159945723785
3 433 195 299 0.8732897244975387 0.08660800171010463 0.6257159945723785
3 299 195 146 0.8732897244975387 0.08660800171010463 0.6257159945723785
3 196 433 299 0.8732897244975387 0.08660800171010463 0.6257159945723785
3 299 147 196 0.8732897244975387 0.08660800171010463 0.6257159945723785
3 299 146 147 0.8732897244975387 0.08660800171010463 0.6257159945723785
3 142 296 295 0.8732897244975387 0.08660800171010463 0.6257159945723785
3 143 296 142 0.8732897244975387 0.08660800171010463 0.6257159945723785
3 5 143 142 0.8732897244975387 0.08660800171010463 0.6257159945723785
3 4 5 142 0.8732897244975387 0.08660800171010463 0.6257159945723785
3 142 295 4 0.8732897244975387 0.08660800171010463 0.6257159945723785
3 194 298 508 0.8732897244975387 0.08660800171010463 0.6257159945723785
3 194 508 431 0.8732897244975387 0.08660800171010463 0.6257159945723785
3 431 193 194 0.8732897244975387 0.08660800171010463 0.6257159945723785
3 297 144 145 0.8732897244975387 0.08660800171010463 0.6257159945723785
3 145 298 297 0.8732897244975387 0.08660800171010463 0.6257159945723785
3 298 194 297 0.8732897244975387 0.08660800171010463 0.6257159945723785
3 297 296 143 0.8732897244975387 0.08660800171010463 0.6257159945723785
3 143 144 297 0.8732897244975387 0.08660800171010463 0.6257159945723785
3 193 296 297 0.8732897244975387 0.08660800171010463 0.6257159945723785
3 297 194 193 0.8732897244975387 0.08660800171010463 0.6257159945723785
