OFF
283 502 0


27.5516 34.3884 8.678
27.5516 34.3884 8.678
27.484 34.2488 8.6459
27.4304 34.1371 8.6224
27.3854 34.0424 8.6039
27.3457 33.9583 8.5885
27.3093 33.8808 8.5752
27.2747 33.8067 8.5631
27.2408 33.7336 8.5518
27.2063 33.6591 8.5408
27.1702 33.5806 8.53
27.1311 33.4951 8.5188
27.0869 33.3984 8.5069
27.0351 33.2842 8.4938
27.181 33.2962 8.6164
27.0762 33.2192 8.5472
26.9709 33.142 8.4787
27.181 33.2962 8.6164
27.2571 33.3956 8.6552
27.3248 33.4874 8.6897
27.386 33.5732 8.7208
27.442 33.6545 8.7492
27.4937 33.7325 8.7754
27.5421 33.8083 8.7999
27.5878 33.8827 8.823
27.6314 33.9566 8.8449
27.6733 34.0307 8.8659
27.7139 34.1058 8.8863
27.7536 34.1826 8.9061
27.7928 34.2621 8.9256
27.8317 34.3451 8.9449
27.8706 34.4328 8.9642
27.9098 34.5262 8.9834
27.9496 34.627 9.0029
27.9902 34.7368 9.0226
28.032 34.8578 9.0428
28.032 34.8578 9.0428
27.9466 34.77 8.975
27.8808 34.7036 8.9235
27.8236 34.6468 8.8795
27.7688 34.5931 8.8378
27.7106 34.5371 8.7942
27.6422 34.4723 8.7437
27.5516 34.3884 8.678
27.5503 34.3533 8.6837
27.3335 33.8975 8.5923
27.3573 33.9139 8.6092
27.3808 33.9302 8.6259
27.2737 33.7672 8.572
27.3057 33.7999 8.5917
27.3368 33.8318 8.611
27.2132 33.6335 8.5534
27.2543 33.6842 8.576
27.2937 33.7331 8.5979
27.3657 33.9667 8.604
27.3854 33.9749 8.6194
27.4048 33.9831 8.6347
27.4241 33.9912 8.6498
27.1433 33.477 8.5341
27.1961 33.551 8.5601
27.2457 33.6209 8.5848
27.2927 33.6875 8.6086
27.3495 33.5502 8.6945
27.3731 33.6107 8.6993
27.3958 33.6692 8.7042
27.4176 33.7258 8.709
27.4523 33.6958 8.7477
27.4624 33.7363 8.7463
27.4723 33.776 8.745
27.4819 33.8151 8.7438
27.5415 33.832 8.7934
27.541 33.8556 8.7871
27.5404 33.879 8.7807
27.5398 33.9022 8.7745
27.6218 33.9648 8.8342
27.6123 33.973 8.8235
27.6028 33.9812 8.8128
27.5932 33.9894 8.8021
27.6964 34.0991 8.8716
27.6789 34.0924 8.8568
27.6613 34.0857 8.8421
27.6436 34.0791 8.8274
27.7677 34.2399 8.9068
27.7425 34.2177 8.888
27.7173 34.1956 8.8693
27.6919 34.1734 8.8507
27.8375 34.3928 8.9407
27.8045 34.3533 8.9175
27.7716 34.3141 8.8947
27.7387 34.275 8.8722
27.8455 34.6331 8.9026
27.811 34.5645 8.8825
27.7768 34.4975 8.8631
27.743 34.4314 8.8443
27.7457 34.5363 8.8268
27.7227 34.4803 8.8161
27.6999 34.4249 8.8057
27.677 34.37 8.7956
27.4009 34.042 8.6176
27.4163 34.0416 8.6313
27.4316 34.0412 8.6449
27.4467 34.0408 8.6584
27.4618 34.0404 8.6719
27.1369 33.3246 8.5701
27.1928 33.4223 8.5918
27.2446 33.5133 8.6123
27.293 33.5989 8.6319
27.3385 33.6799 8.6507
27.2909 33.4716 8.664
27.3229 33.544 8.6727
27.3533 33.6132 8.6812
27.3824 33.6796 8.6895
27.4102 33.7437 8.6978
27.9072 34.5648 8.9737
27.8657 34.5042 8.9456
27.8247 34.4449 8.9183
27.7841 34.3865 8.8916
27.7436 34.3288 8.8656
27.9782 34.7651 9.0062
27.9265 34.677 8.9718
27.8766 34.5926 8.9394
27.8278 34.5109 8.9084
27.7797 34.4313 8.8786
27.9037 34.6905 8.9476
27.8619 34.6138 8.9215
27.821 34.5394 8.8966
27.7806 34.4667 8.8726
27.7406 34.3951 8.8493
27.6319 34.4288 8.7427
27.6216 34.3855 8.7418
27.6112 34.3423 8.741
27.6008 34.2993 8.7403
27.5902 34.2563 8.7397
27.4411 34.1271 8.6341
27.4518 34.1172 8.6458
27.4624 34.1072 8.6574
27.473 34.0974 8.669
27.4836 34.0875 8.6806
27.4941 34.0777 8.6922
27.244 33.7018 8.5626
27.2804 33.7431 8.5837
27.3155 33.7832 8.6044
27.3495 33.8222 8.6245
27.3825 33.8601 8.6442
27.4146 33.8972 8.6636
27.2259 33.3876 8.6301
27.2679 33.4736 8.6433
27.3072 33.5548 8.656
27.3444 33.6319 8.6684
27.3797 33.7057 8.6804
27.4133 33.7765 8.6923
27.0491 33.2628 8.5117
27.1199 33.3728 8.5421
27.1845 33.474 8.5706
27.2442 33.5679 8.5973
27.2997 33.656 8.6228
27.3518 33.7392 8.6472
27.2259 33.3876 8.6301
27.2679 33.4736 8.6433
27.3072 33.5548 8.656
27.3444 33.6319 8.6684
27.3797 33.7057 8.6804
27.4133 33.7765 8.6923
27.1008 33.3807 8.5235
27.1613 33.4702 8.5515
27.2176 33.5538 8.5779
27.2702 33.6326 8.6031
27.3198 33.7072 8.6273
27.3668 33.7784 8.6506
27.4115 33.8467 8.6732
27.4983 33.7647 8.7713
27.5028 33.7964 8.7673
27.5072 33.8278 8.7634
27.5115 33.8587 8.7596
27.5157 33.8894 8.7559
27.5199 33.9198 8.7523
27.5239 33.9498 8.7487
27.6597 34.0314 8.8532
27.646 34.0322 8.8405
27.6324 34.033 8.8277
27.6187 34.0338 8.815
27.605 34.0346 8.8023
27.5913 34.0354 8.7896
27.5775 34.0362 8.7768
27.8027 34.3145 8.9239
27.7736 34.2839 8.903
27.7446 34.2535 8.8823
27.7155 34.2232 8.8617
27.6862 34.1928 8.8412
27.6568 34.1624 8.8207
27.6271 34.1318 8.8003
27.9425 34.6607 8.99
27.8962 34.5874 8.9589
27.8508 34.5163 8.9292
27.8062 34.4469 8.9004
27.762 34.3787 8.8725
27.7178 34.3111 8.8452
27.6733 34.2438 8.8183
27.7947 34.5836 8.8638
27.7662 34.5216 8.8486
27.7379 34.4606 8.8339
27.7096 34.4003 8.8195
27.6814 34.3404 8.8055
27.653 34.2807 8.7918
27.6244 34.2209 8.7783
27.3033 33.8317 8.5817
27.3311 33.8562 8.6001
27.3584 33.8803 8.6181
27.385 33.9039 8.6359
27.4112 33.9271 8.6535
27.4369 33.95 8.6708
27.4622 33.9726 8.688
27.4871 33.9949 8.705
27.403 33.6246 8.7222
27.4194 33.6745 8.7238
27.4353 33.7233 8.7253
27.4507 33.7709 8.727
27.4657 33.8175 8.7287
27.4804 33.8631 8.7305
27.4946 33.908 8.7324
27.5086 33.9522 8.7344
27.7323 34.1683 8.8894
27.711 34.1541 8.8727
27.6895 34.1398 8.856
27.668 34.1255 8.8393
27.6463 34.1112 8.8226
27.6246 34.0968 8.8059
27.6026 34.0824 8.7891
27.5806 34.0679 8.7723
27.6935 34.4866 8.7879
27.6764 34.4366 8.7818
27.6593 34.387 8.7759
27.6421 34.3375 8.7701
27.6249 34.2882 8.7645
27.6075 34.2389 8.7591
27.59 34.1894 8.7538
27.5722 34.1396 8.7486
27.4893 34.2277 8.6551
27.4945 34.2067 8.6642
27.4998 34.1856 8.6734
27.505 34.1646 8.6826
27.5101 34.1437 8.6918
27.5153 34.1227 8.7011
27.5204 34.1017 8.7104
27.5256 34.0808 8.7197
27.5307 34.0598 8.7291
27.1801 33.5597 8.544
27.2266 33.6211 8.5681
27.2707 33.6797 8.5914
27.3129 33.7359 8.6139
27.3533 33.7901 8.6358
27.3921 33.8425 8.6571
27.4296 33.8933 8.6779
27.466 33.9429 8.6984
27.5013 33.9913 8.7186
27.5826 33.8985 8.8143
27.5774 33.9143 8.8057
27.5721 33.93 8.7972
27.5669 33.9456 8.7887
27.5618 33.9612 8.7802
27.5566 33.9768 8.7718
27.5514 33.9923 8.7634
27.5462 34.0078 8.7551
27.541 34.0233 8.7468
27.8723 34.4759 8.9573
27.8352 34.4265 8.9317
27.7983 34.3777 8.9068
27.7616 34.3294 8.8822
27.7248 34.2813 8.858
27.6879 34.2334 8.834
27.6507 34.1853 8.8101
27.6131 34.137 8.7863
27.5748 34.0882 8.7625
27.5503 34.3533 8.6837
27.5488 34.3184 8.6895
27.5474 34.2835 8.6954
27.5459 34.2487 8.7013
27.5443 34.2139 8.7073
27.5427 34.1791 8.7134
27.5411 34.1442 8.7195
27.5394 34.1092 8.7257
27.5376 34.0741 8.7321
27.5358 34.0387 8.7385
3 15 151 16 0.506915506271918 0.5087944535845543 0.22074301174937405
3 16 151 13 0.506915506271918 0.5087944535845543 0.22074301174937405
3 103 15 17 0.506915506271918 0.5087944535845543 0.22074301174937405
3 151 15 103 0.506915506271918 0.5087944535845543 0.22074301174937405
3 103 13 151 0.506915506271918 0.5087944535845543 0.22074301174937405
3 251 150 169 0.506915506271918 0.5087944535845543 0.22074301174937405
3 35 37 118 0.506915506271918 0.5087944535845543 0.22074301174937405
3 118 34 35 0.506915506271918 0.5087944535845543 0.22074301174937405
3 37 34 118 0.506915506271918 0.5087944535845543 0.22074301174937405
3 119 34 37 0.506915506271918 0.5087944535845543 0.22074301174937405
3 258 175 73 0.506915506271918 0.5087944535845543 0.22074301174937405
3 176 175 258 0.506915506271918 0.5087944535845543 0.22074301174937405
3 217 218 169 0.506915506271918 0.5087944535845543 0.22074301174937405
3 69 218 217 0.506915506271918 0.5087944535845543 0.22074301174937405
3 169 150 217 0.506915506271918 0.5087944535845543 0.22074301174937405
3 252 218 219 0.506915506271918 0.5087944535845543 0.22074301174937405
3 169 218 252 0.506915506271918 0.5087944535845543 0.22074301174937405
3 219 218 174 0.506915506271918 0.5087944535845543 0.22074301174937405
3 174 175 219 0.506915506271918 0.5087944535845543 0.22074301174937405
3 73 175 174 0.506915506271918 0.5087944535845543 0.22074301174937405
3 5 46 47 0.506915506271918 0.5087944535845543 0.22074301174937405
3 5 6 45 0.506915506271918 0.5087944535845543 0.22074301174937405
3 45 46 5 0.506915506271918 0.5087944535845543 0.22074301174937405
3 45 6 206 0.506915506271918 0.5087944535845543 0.22074301174937405
3 4 98 3 0.506915506271918 0.5087944535845543 0.22074301174937405
3 66 67 215 0.506915506271918 0.5087944535845543 0.22074301174937405
3 37 38 123 0.506915506271918 0.5087944535845543 0.22074301174937405
3 123 119 37 0.506915506271918 0.5087944535845543 0.22074301174937405
3 191 33 34 0.506915506271918 0.5087944535845543 0.22074301174937405
3 34 119 191 0.506915506271918 0.5087944535845543 0.22074301174937405
3 229 41 42 0.506915506271918 0.5087944535845543 0.22074301174937405
3 95 41 229 0.506915506271918 0.5087944535845543 0.22074301174937405
3 94 41 95 0.506915506271918 0.5087944535845543 0.22074301174937405
3 95 199 94 0.506915506271918 0.5087944535845543 0.22074301174937405
3 40 41 94 0.506915506271918 0.5087944535845543 0.22074301174937405
3 280 281 272 0.506915506271918 0.5087944535845543 0.22074301174937405
3 276 132 275 0.506915506271918 0.5087944535845543 0.22074301174937405
3 275 2 276 0.506915506271918 0.5087944535845543 0.22074301174937405
3 275 274 2 0.506915506271918 0.5087944535845543 0.22074301174937405
3 0 2 273 0.506915506271918 0.5087944535845543 0.22074301174937405
3 2 274 273 0.506915506271918 0.5087944535845543 0.22074301174937405
3 30 31 86 0.506915506271918 0.5087944535845543 0.22074301174937405
3 219 175 220 0.506915506271918 0.5087944535845543 0.22074301174937405
3 220 175 176 0.506915506271918 0.5087944535845543 0.22074301174937405
3 176 258 259 0.506915506271918 0.5087944535845543 0.22074301174937405
3 258 76 259 0.506915506271918 0.5087944535845543 0.22074301174937405
3 216 217 150 0.506915506271918 0.5087944535845543 0.22074301174937405
3 216 215 67 0.506915506271918 0.5087944535845543 0.22074301174937405
3 253 252 219 0.506915506271918 0.5087944535845543 0.22074301174937405
3 219 220 253 0.506915506271918 0.5087944535845543 0.22074301174937405
3 253 220 211 0.506915506271918 0.5087944535845543 0.22074301174937405
3 144 252 209 0.506915506271918 0.5087944535845543 0.22074301174937405
3 169 252 144 0.506915506271918 0.5087944535845543 0.22074301174937405
3 150 251 168 0.506915506271918 0.5087944535845543 0.22074301174937405
3 112 216 150 0.506915506271918 0.5087944535845543 0.22074301174937405
3 150 168 112 0.506915506271918 0.5087944535845543 0.22074301174937405
3 112 168 156 0.506915506271918 0.5087944535845543 0.22074301174937405
3 65 215 112 0.506915506271918 0.5087944535845543 0.22074301174937405
3 215 216 112 0.506915506271918 0.5087944535845543 0.22074301174937405
3 207 45 206 0.506915506271918 0.5087944535845543 0.22074301174937405
3 46 45 207 0.506915506271918 0.5087944535845543 0.22074301174937405
3 3 98 133 0.506915506271918 0.5087944535845543 0.22074301174937405
3 133 239 3 0.506915506271918 0.5087944535845543 0.22074301174937405
3 171 170 23 0.506915506271918 0.5087944535845543 0.22074301174937405
3 22 67 66 0.506915506271918 0.5087944535845543 0.22074301174937405
3 22 170 67 0.506915506271918 0.5087944535845543 0.22074301174937405
3 23 170 22 0.506915506271918 0.5087944535845543 0.22074301174937405
3 198 39 40 0.506915506271918 0.5087944535845543 0.22074301174937405
3 199 91 198 0.506915506271918 0.5087944535845543 0.22074301174937405
3 40 94 198 0.506915506271918 0.5087944535845543 0.22074301174937405
3 198 94 199 0.506915506271918 0.5087944535845543 0.22074301174937405
3 32 33 113 0.506915506271918 0.5087944535845543 0.22074301174937405
3 113 114 32 0.506915506271918 0.5087944535845543 0.22074301174937405
3 91 120 124 0.506915506271918 0.5087944535845543 0.22074301174937405
3 119 123 124 0.506915506271918 0.5087944535845543 0.22074301174937405
3 125 120 91 0.506915506271918 0.5087944535845543 0.22074301174937405
3 125 91 199 0.506915506271918 0.5087944535845543 0.22074301174937405
3 96 200 95 0.506915506271918 0.5087944535845543 0.22074301174937405
3 95 229 96 0.506915506271918 0.5087944535845543 0.22074301174937405
3 92 126 121 0.506915506271918 0.5087944535845543 0.22074301174937405
3 121 125 92 0.506915506271918 0.5087944535845543 0.22074301174937405
3 92 125 199 0.506915506271918 0.5087944535845543 0.22074301174937405
3 200 126 92 0.506915506271918 0.5087944535845543 0.22074301174937405
3 95 200 92 0.506915506271918 0.5087944535845543 0.22074301174937405
3 92 199 95 0.506915506271918 0.5087944535845543 0.22074301174937405
3 264 114 121 0.506915506271918 0.5087944535845543 0.22074301174937405
3 264 31 32 0.506915506271918 0.5087944535845543 0.22074301174937405
3 32 114 264 0.506915506271918 0.5087944535845543 0.22074301174937405
3 242 280 279 0.506915506271918 0.5087944535845543 0.22074301174937405
3 277 132 276 0.506915506271918 0.5087944535845543 0.22074301174937405
3 277 235 132 0.506915506271918 0.5087944535845543 0.22074301174937405
3 236 280 272 0.506915506271918 0.5087944535845543 0.22074301174937405
3 279 280 236 0.506915506271918 0.5087944535845543 0.22074301174937405
3 31 264 115 0.506915506271918 0.5087944535845543 0.22074301174937405
3 115 264 121 0.506915506271918 0.5087944535845543 0.22074301174937405
3 30 86 87 0.506915506271918 0.5087944535845543 0.22074301174937405
3 254 220 176 0.506915506271918 0.5087944535845543 0.22074301174937405
3 98 4 56 0.506915506271918 0.5087944535845543 0.22074301174937405
3 255 24 25 0.506915506271918 0.5087944535845543 0.22074301174937405
3 25 256 255 0.506915506271918 0.5087944535845543 0.22074301174937405
3 255 256 73 0.506915506271918 0.5087944535845543 0.22074301174937405
3 75 76 258 0.506915506271918 0.5087944535845543 0.22074301174937405
3 261 254 176 0.506915506271918 0.5087944535845543 0.22074301174937405
3 69 217 68 0.506915506271918 0.5087944535845543 0.22074301174937405
3 217 216 68 0.506915506271918 0.5087944535845543 0.22074301174937405
3 68 171 69 0.506915506271918 0.5087944535845543 0.22074301174937405
3 170 171 68 0.506915506271918 0.5087944535845543 0.22074301174937405
3 67 170 68 0.506915506271918 0.5087944535845543 0.22074301174937405
3 68 216 67 0.506915506271918 0.5087944535845543 0.22074301174937405
3 209 252 210 0.506915506271918 0.5087944535845543 0.22074301174937405
3 252 253 210 0.506915506271918 0.5087944535845543 0.22074301174937405
3 210 253 211 0.506915506271918 0.5087944535845543 0.22074301174937405
3 211 57 210 0.506915506271918 0.5087944535845543 0.22074301174937405
3 210 56 209 0.506915506271918 0.5087944535845543 0.22074301174937405
3 57 56 210 0.506915506271918 0.5087944535845543 0.22074301174937405
3 73 174 72 0.506915506271918 0.5087944535845543 0.22074301174937405
3 72 255 73 0.506915506271918 0.5087944535845543 0.22074301174937405
3 72 71 24 0.506915506271918 0.5087944535845543 0.22074301174937405
3 24 255 72 0.506915506271918 0.5087944535845543 0.22074301174937405
3 23 24 70 0.506915506271918 0.5087944535845543 0.22074301174937405
3 24 71 70 0.506915506271918 0.5087944535845543 0.22074301174937405
3 173 174 218 0.506915506271918 0.5087944535845543 0.22074301174937405
3 173 72 174 0.506915506271918 0.5087944535845543 0.22074301174937405
3 71 72 173 0.506915506271918 0.5087944535845543 0.22074301174937405
3 7 49 205 0.506915506271918 0.5087944535845543 0.22074301174937405
3 205 6 7 0.506915506271918 0.5087944535845543 0.22074301174937405
3 206 6 205 0.506915506271918 0.5087944535845543 0.22074301174937405
3 143 251 169 0.506915506271918 0.5087944535845543 0.22074301174937405
3 169 144 143 0.506915506271918 0.5087944535845543 0.22074301174937405
3 143 142 251 0.506915506271918 0.5087944535845543 0.22074301174937405
3 209 47 208 0.506915506271918 0.5087944535845543 0.22074301174937405
3 208 144 209 0.506915506271918 0.5087944535845543 0.22074301174937405
3 208 47 46 0.506915506271918 0.5087944535845543 0.22074301174937405
3 46 207 208 0.506915506271918 0.5087944535845543 0.22074301174937405
3 208 143 144 0.506915506271918 0.5087944535845543 0.22074301174937405
3 207 143 208 0.506915506271918 0.5087944535845543 0.22074301174937405
3 21 22 66 0.506915506271918 0.5087944535845543 0.22074301174937405
3 63 64 160 0.506915506271918 0.5087944535845543 0.22074301174937405
3 154 147 106 0.506915506271918 0.5087944535845543 0.22074301174937405
3 103 104 152 0.506915506271918 0.5087944535845543 0.22074301174937405
3 145 103 17 0.506915506271918 0.5087944535845543 0.22074301174937405
3 145 104 103 0.506915506271918 0.5087944535845543 0.22074301174937405
3 17 18 145 0.506915506271918 0.5087944535845543 0.22074301174937405
3 192 113 33 0.506915506271918 0.5087944535845543 0.22074301174937405
3 120 113 192 0.506915506271918 0.5087944535845543 0.22074301174937405
3 33 191 192 0.506915506271918 0.5087944535845543 0.22074301174937405
3 192 191 119 0.506915506271918 0.5087944535845543 0.22074301174937405
3 119 124 192 0.506915506271918 0.5087944535845543 0.22074301174937405
3 192 124 120 0.506915506271918 0.5087944535845543 0.22074301174937405
3 90 198 91 0.506915506271918 0.5087944535845543 0.22074301174937405
3 91 124 90 0.506915506271918 0.5087944535845543 0.22074301174937405
3 39 198 90 0.506915506271918 0.5087944535845543 0.22074301174937405
3 38 39 90 0.506915506271918 0.5087944535845543 0.22074301174937405
3 90 123 38 0.506915506271918 0.5087944535845543 0.22074301174937405
3 90 124 123 0.506915506271918 0.5087944535845543 0.22074301174937405
3 120 125 193 0.506915506271918 0.5087944535845543 0.22074301174937405
3 193 113 120 0.506915506271918 0.5087944535845543 0.22074301174937405
3 114 113 193 0.506915506271918 0.5087944535845543 0.22074301174937405
3 121 114 193 0.506915506271918 0.5087944535845543 0.22074301174937405
3 193 125 121 0.506915506271918 0.5087944535845543 0.22074301174937405
3 0 273 129 0.506915506271918 0.5087944535845543 0.22074301174937405
3 231 129 232 0.506915506271918 0.5087944535845543 0.22074301174937405
3 230 229 42 0.506915506271918 0.5087944535845543 0.22074301174937405
3 230 96 229 0.506915506271918 0.5087944535845543 0.22074301174937405
3 231 96 230 0.506915506271918 0.5087944535845543 0.22074301174937405
3 231 232 97 0.506915506271918 0.5087944535845543 0.22074301174937405
3 200 96 93 0.506915506271918 0.5087944535845543 0.22074301174937405
3 122 126 93 0.506915506271918 0.5087944535845543 0.22074301174937405
3 93 126 200 0.506915506271918 0.5087944535845543 0.22074301174937405
3 240 133 134 0.506915506271918 0.5087944535845543 0.22074301174937405
3 239 133 240 0.506915506271918 0.5087944535845543 0.22074301174937405
3 244 245 281 0.506915506271918 0.5087944535845543 0.22074301174937405
3 281 280 244 0.506915506271918 0.5087944535845543 0.22074301174937405
3 235 277 278 0.506915506271918 0.5087944535845543 0.22074301174937405
3 279 236 278 0.506915506271918 0.5087944535845543 0.22074301174937405
3 278 236 235 0.506915506271918 0.5087944535845543 0.22074301174937405
3 278 277 239 0.506915506271918 0.5087944535845543 0.22074301174937405
3 239 240 278 0.506915506271918 0.5087944535845543 0.22074301174937405
3 237 2 3 0.506915506271918 0.5087944535845543 0.22074301174937405
3 276 2 237 0.506915506271918 0.5087944535845543 0.22074301174937405
3 237 277 276 0.506915506271918 0.5087944535845543 0.22074301174937405
3 132 235 234 0.506915506271918 0.5087944535845543 0.22074301174937405
3 235 204 234 0.506915506271918 0.5087944535845543 0.22074301174937405
3 270 204 235 0.506915506271918 0.5087944535845543 0.22074301174937405
3 189 188 270 0.506915506271918 0.5087944535845543 0.22074301174937405
3 197 204 270 0.506915506271918 0.5087944535845543 0.22074301174937405
3 270 269 197 0.506915506271918 0.5087944535845543 0.22074301174937405
3 270 188 269 0.506915506271918 0.5087944535845543 0.22074301174937405
3 271 236 272 0.506915506271918 0.5087944535845543 0.22074301174937405
3 235 236 271 0.506915506271918 0.5087944535845543 0.22074301174937405
3 189 270 271 0.506915506271918 0.5087944535845543 0.22074301174937405
3 271 270 235 0.506915506271918 0.5087944535845543 0.22074301174937405
3 227 182 181 0.506915506271918 0.5087944535845543 0.22074301174937405
3 227 81 226 0.506915506271918 0.5087944535845543 0.22074301174937405
3 227 271 272 0.506915506271918 0.5087944535845543 0.22074301174937405
3 226 271 227 0.506915506271918 0.5087944535845543 0.22074301174937405
3 77 182 183 0.506915506271918 0.5087944535845543 0.22074301174937405
3 183 261 77 0.506915506271918 0.5087944535845543 0.22074301174937405
3 181 182 77 0.506915506271918 0.5087944535845543 0.22074301174937405
3 77 259 76 0.506915506271918 0.5087944535845543 0.22074301174937405
3 27 28 221 0.506915506271918 0.5087944535845543 0.22074301174937405
3 28 84 221 0.506915506271918 0.5087944535845543 0.22074301174937405
3 265 86 31 0.506915506271918 0.5087944535845543 0.22074301174937405
3 31 115 265 0.506915506271918 0.5087944535845543 0.22074301174937405
3 117 89 88 0.506915506271918 0.5087944535845543 0.22074301174937405
3 266 87 86 0.506915506271918 0.5087944535845543 0.22074301174937405
3 86 265 266 0.506915506271918 0.5087944535845543 0.22074301174937405
3 211 220 212 0.506915506271918 0.5087944535845543 0.22074301174937405
3 220 254 212 0.506915506271918 0.5087944535845543 0.22074301174937405
3 282 254 263 0.506915506271918 0.5087944535845543 0.22074301174937405
3 263 183 282 0.506915506271918 0.5087944535845543 0.22074301174937405
3 245 212 282 0.506915506271918 0.5087944535845543 0.22074301174937405
3 282 212 254 0.506915506271918 0.5087944535845543 0.22074301174937405
3 281 245 282 0.506915506271918 0.5087944535845543 0.22074301174937405
3 55 47 209 0.506915506271918 0.5087944535845543 0.22074301174937405
3 209 56 55 0.506915506271918 0.5087944535845543 0.22074301174937405
3 55 56 4 0.506915506271918 0.5087944535845543 0.22074301174937405
3 57 100 99 0.506915506271918 0.5087944535845543 0.22074301174937405
3 98 56 99 0.506915506271918 0.5087944535845543 0.22074301174937405
3 99 56 57 0.506915506271918 0.5087944535845543 0.22074301174937405
3 99 100 134 0.506915506271918 0.5087944535845543 0.22074301174937405
3 99 133 98 0.506915506271918 0.5087944535845543 0.22074301174937405
3 134 133 99 0.506915506271918 0.5087944535845543 0.22074301174937405
3 74 256 25 0.506915506271918 0.5087944535845543 0.22074301174937405
3 25 26 177 0.506915506271918 0.5087944535845543 0.22074301174937405
3 76 75 179 0.506915506271918 0.5087944535845543 0.22074301174937405
3 257 75 258 0.506915506271918 0.5087944535845543 0.22074301174937405
3 257 258 73 0.506915506271918 0.5087944535845543 0.22074301174937405
3 73 256 257 0.506915506271918 0.5087944535845543 0.22074301174937405
3 256 74 257 0.506915506271918 0.5087944535845543 0.22074301174937405
3 257 74 75 0.506915506271918 0.5087944535845543 0.22074301174937405
3 262 183 263 0.506915506271918 0.5087944535845543 0.22074301174937405
3 262 261 183 0.506915506271918 0.5087944535845543 0.22074301174937405
3 263 254 262 0.506915506271918 0.5087944535845543 0.22074301174937405
3 254 261 262 0.506915506271918 0.5087944535845543 0.22074301174937405
3 172 218 69 0.506915506271918 0.5087944535845543 0.22074301174937405
3 172 173 218 0.506915506271918 0.5087944535845543 0.22074301174937405
3 69 171 172 0.506915506271918 0.5087944535845543 0.22074301174937405
3 172 171 23 0.506915506271918 0.5087944535845543 0.22074301174937405
3 23 70 172 0.506915506271918 0.5087944535845543 0.22074301174937405
3 172 70 71 0.506915506271918 0.5087944535845543 0.22074301174937405
3 71 173 172 0.506915506271918 0.5087944535845543 0.22074301174937405
3 167 53 61 0.506915506271918 0.5087944535845543 0.22074301174937405
3 48 49 7 0.506915506271918 0.5087944535845543 0.22074301174937405
3 7 8 48 0.506915506271918 0.5087944535845543 0.22074301174937405
3 48 141 49 0.506915506271918 0.5087944535845543 0.22074301174937405
3 250 168 251 0.506915506271918 0.5087944535845543 0.22074301174937405
3 251 142 250 0.506915506271918 0.5087944535845543 0.22074301174937405
3 250 142 141 0.506915506271918 0.5087944535845543 0.22074301174937405
3 156 168 250 0.506915506271918 0.5087944535845543 0.22074301174937405
3 250 141 156 0.506915506271918 0.5087944535845543 0.22074301174937405
3 49 141 50 0.506915506271918 0.5087944535845543 0.22074301174937405
3 141 142 50 0.506915506271918 0.5087944535845543 0.22074301174937405
3 50 205 49 0.506915506271918 0.5087944535845543 0.22074301174937405
3 206 205 50 0.506915506271918 0.5087944535845543 0.22074301174937405
3 50 207 206 0.506915506271918 0.5087944535845543 0.22074301174937405
3 50 143 207 0.506915506271918 0.5087944535845543 0.22074301174937405
3 142 143 50 0.506915506271918 0.5087944535845543 0.22074301174937405
3 139 8 9 0.506915506271918 0.5087944535845543 0.22074301174937405
3 9 52 139 0.506915506271918 0.5087944535845543 0.22074301174937405
3 248 52 166 0.506915506271918 0.5087944535845543 0.22074301174937405
3 61 53 248 0.506915506271918 0.5087944535845543 0.22074301174937405
3 53 139 248 0.506915506271918 0.5087944535845543 0.22074301174937405
3 248 139 52 0.506915506271918 0.5087944535845543 0.22074301174937405
3 60 247 154 0.506915506271918 0.5087944535845543 0.22074301174937405
3 154 106 60 0.506915506271918 0.5087944535845543 0.22074301174937405
3 60 106 166 0.506915506271918 0.5087944535845543 0.22074301174937405
3 166 52 60 0.506915506271918 0.5087944535845543 0.22074301174937405
3 51 9 10 0.506915506271918 0.5087944535845543 0.22074301174937405
3 10 247 51 0.506915506271918 0.5087944535845543 0.22074301174937405
3 51 52 9 0.506915506271918 0.5087944535845543 0.22074301174937405
3 51 60 52 0.506915506271918 0.5087944535845543 0.22074301174937405
3 247 60 51 0.506915506271918 0.5087944535845543 0.22074301174937405
3 214 21 66 0.506915506271918 0.5087944535845543 0.22074301174937405
3 66 215 214 0.506915506271918 0.5087944535845543 0.22074301174937405
3 214 215 65 0.506915506271918 0.5087944535845543 0.22074301174937405
3 213 64 63 0.506915506271918 0.5087944535845543 0.22074301174937405
3 213 214 64 0.506915506271918 0.5087944535845543 0.22074301174937405
3 21 214 213 0.506915506271918 0.5087944535845543 0.22074301174937405
3 61 248 155 0.506915506271918 0.5087944535845543 0.22074301174937405
3 155 248 166 0.506915506271918 0.5087944535845543 0.22074301174937405
3 166 106 155 0.506915506271918 0.5087944535845543 0.22074301174937405
3 155 106 160 0.506915506271918 0.5087944535845543 0.22074301174937405
3 108 18 19 0.506915506271918 0.5087944535845543 0.22074301174937405
3 147 62 110 0.506915506271918 0.5087944535845543 0.22074301174937405
3 110 106 147 0.506915506271918 0.5087944535845543 0.22074301174937405
3 160 106 110 0.506915506271918 0.5087944535845543 0.22074301174937405
3 63 160 110 0.506915506271918 0.5087944535845543 0.22074301174937405
3 110 62 63 0.506915506271918 0.5087944535845543 0.22074301174937405
3 13 103 163 0.506915506271918 0.5087944535845543 0.22074301174937405
3 103 152 163 0.506915506271918 0.5087944535845543 0.22074301174937405
3 12 13 163 0.506915506271918 0.5087944535845543 0.22074301174937405
3 163 152 12 0.506915506271918 0.5087944535845543 0.22074301174937405
3 164 152 104 0.506915506271918 0.5087944535845543 0.22074301174937405
3 104 153 164 0.506915506271918 0.5087944535845543 0.22074301174937405
3 59 164 153 0.506915506271918 0.5087944535845543 0.22074301174937405
3 154 247 165 0.506915506271918 0.5087944535845543 0.22074301174937405
3 247 59 165 0.506915506271918 0.5087944535845543 0.22074301174937405
3 146 153 104 0.506915506271918 0.5087944535845543 0.22074301174937405
3 146 18 108 0.506915506271918 0.5087944535845543 0.22074301174937405
3 146 145 18 0.506915506271918 0.5087944535845543 0.22074301174937405
3 104 145 146 0.506915506271918 0.5087944535845543 0.22074301174937405
3 108 147 146 0.506915506271918 0.5087944535845543 0.22074301174937405
3 203 204 197 0.506915506271918 0.5087944535845543 0.22074301174937405
3 203 234 204 0.506915506271918 0.5087944535845543 0.22074301174937405
3 233 203 232 0.506915506271918 0.5087944535845543 0.22074301174937405
3 132 234 233 0.506915506271918 0.5087944535845543 0.22074301174937405
3 234 203 233 0.506915506271918 0.5087944535845543 0.22074301174937405
3 130 129 273 0.506915506271918 0.5087944535845543 0.22074301174937405
3 130 232 129 0.506915506271918 0.5087944535845543 0.22074301174937405
3 130 273 274 0.506915506271918 0.5087944535845543 0.22074301174937405
3 130 233 232 0.506915506271918 0.5087944535845543 0.22074301174937405
3 128 129 231 0.506915506271918 0.5087944535845543 0.22074301174937405
3 231 230 128 0.506915506271918 0.5087944535845543 0.22074301174937405
3 128 230 42 0.506915506271918 0.5087944535845543 0.22074301174937405
3 128 42 0 0.506915506271918 0.5087944535845543 0.22074301174937405
3 0 129 128 0.506915506271918 0.5087944535845543 0.22074301174937405
3 202 97 232 0.506915506271918 0.5087944535845543 0.22074301174937405
3 202 203 196 0.506915506271918 0.5087944535845543 0.22074301174937405
3 232 203 202 0.506915506271918 0.5087944535845543 0.22074301174937405
3 202 196 117 0.506915506271918 0.5087944535845543 0.22074301174937405
3 195 116 122 0.506915506271918 0.5087944535845543 0.22074301174937405
3 195 266 116 0.506915506271918 0.5087944535845543 0.22074301174937405
3 87 266 195 0.506915506271918 0.5087944535845543 0.22074301174937405
3 241 242 279 0.506915506271918 0.5087944535845543 0.22074301174937405
3 279 278 241 0.506915506271918 0.5087944535845543 0.22074301174937405
3 241 278 240 0.506915506271918 0.5087944535845543 0.22074301174937405
3 241 240 134 0.506915506271918 0.5087944535845543 0.22074301174937405
3 280 242 243 0.506915506271918 0.5087944535845543 0.22074301174937405
3 243 244 280 0.506915506271918 0.5087944535845543 0.22074301174937405
3 134 100 135 0.506915506271918 0.5087944535845543 0.22074301174937405
3 135 241 134 0.506915506271918 0.5087944535845543 0.22074301174937405
3 239 277 238 0.506915506271918 0.5087944535845543 0.22074301174937405
3 277 237 238 0.506915506271918 0.5087944535845543 0.22074301174937405
3 3 239 238 0.506915506271918 0.5087944535845543 0.22074301174937405
3 238 237 3 0.506915506271918 0.5087944535845543 0.22074301174937405
3 189 271 190 0.506915506271918 0.5087944535845543 0.22074301174937405
3 190 271 226 0.506915506271918 0.5087944535845543 0.22074301174937405
3 183 182 228 0.506915506271918 0.5087944535845543 0.22074301174937405
3 182 227 228 0.506915506271918 0.5087944535845543 0.22074301174937405
3 228 227 272 0.506915506271918 0.5087944535845543 0.22074301174937405
3 272 281 228 0.506915506271918 0.5087944535845543 0.22074301174937405
3 281 282 228 0.506915506271918 0.5087944535845543 0.22074301174937405
3 228 282 183 0.506915506271918 0.5087944535845543 0.22074301174937405
3 259 77 260 0.506915506271918 0.5087944535845543 0.22074301174937405
3 260 77 261 0.506915506271918 0.5087944535845543 0.22074301174937405
3 176 259 260 0.506915506271918 0.5087944535845543 0.22074301174937405
3 260 261 176 0.506915506271918 0.5087944535845543 0.22074301174937405
3 78 26 27 0.506915506271918 0.5087944535845543 0.22074301174937405
3 78 79 26 0.506915506271918 0.5087944535845543 0.22074301174937405
3 222 221 84 0.506915506271918 0.5087944535845543 0.22074301174937405
3 27 221 222 0.506915506271918 0.5087944535845543 0.22074301174937405
3 117 196 268 0.506915506271918 0.5087944535845543 0.22074301174937405
3 268 89 117 0.506915506271918 0.5087944535845543 0.22074301174937405
3 197 269 268 0.506915506271918 0.5087944535845543 0.22074301174937405
3 268 203 197 0.506915506271918 0.5087944535845543 0.22074301174937405
3 196 203 268 0.506915506271918 0.5087944535845543 0.22074301174937405
3 269 188 187 0.506915506271918 0.5087944535845543 0.22074301174937405
3 188 84 187 0.506915506271918 0.5087944535845543 0.22074301174937405
3 187 268 269 0.506915506271918 0.5087944535845543 0.22074301174937405
3 122 116 194 0.506915506271918 0.5087944535845543 0.22074301174937405
3 194 265 115 0.506915506271918 0.5087944535845543 0.22074301174937405
3 116 266 194 0.506915506271918 0.5087944535845543 0.22074301174937405
3 194 266 265 0.506915506271918 0.5087944535845543 0.22074301174937405
3 194 126 122 0.506915506271918 0.5087944535845543 0.22074301174937405
3 121 126 194 0.506915506271918 0.5087944535845543 0.22074301174937405
3 194 115 121 0.506915506271918 0.5087944535845543 0.22074301174937405
3 185 88 89 0.506915506271918 0.5087944535845543 0.22074301174937405
3 30 87 184 0.506915506271918 0.5087944535845543 0.22074301174937405
3 87 88 184 0.506915506271918 0.5087944535845543 0.22074301174937405
3 88 185 184 0.506915506271918 0.5087944535845543 0.22074301174937405
3 184 29 30 0.506915506271918 0.5087944535845543 0.22074301174937405
3 184 185 29 0.506915506271918 0.5087944535845543 0.22074301174937405
3 102 57 211 0.506915506271918 0.5087944535845543 0.22074301174937405
3 211 212 102 0.506915506271918 0.5087944535845543 0.22074301174937405
3 5 47 54 0.506915506271918 0.5087944535845543 0.22074301174937405
3 47 55 54 0.506915506271918 0.5087944535845543 0.22074301174937405
3 54 4 5 0.506915506271918 0.5087944535845543 0.22074301174937405
3 54 55 4 0.506915506271918 0.5087944535845543 0.22074301174937405
3 81 177 80 0.506915506271918 0.5087944535845543 0.22074301174937405
3 26 79 80 0.506915506271918 0.5087944535845543 0.22074301174937405
3 80 177 26 0.506915506271918 0.5087944535845543 0.22074301174937405
3 76 179 180 0.506915506271918 0.5087944535845543 0.22074301174937405
3 181 77 180 0.506915506271918 0.5087944535845543 0.22074301174937405
3 180 77 76 0.506915506271918 0.5087944535845543 0.22074301174937405
3 180 179 81 0.506915506271918 0.5087944535845543 0.22074301174937405
3 180 227 181 0.506915506271918 0.5087944535845543 0.22074301174937405
3 81 227 180 0.506915506271918 0.5087944535845543 0.22074301174937405
3 75 74 178 0.506915506271918 0.5087944535845543 0.22074301174937405
3 178 179 75 0.506915506271918 0.5087944535845543 0.22074301174937405
3 178 74 25 0.506915506271918 0.5087944535845543 0.22074301174937405
3 25 177 178 0.506915506271918 0.5087944535845543 0.22074301174937405
3 178 177 81 0.506915506271918 0.5087944535845543 0.22074301174937405
3 81 179 178 0.506915506271918 0.5087944535845543 0.22074301174937405
3 249 167 156 0.506915506271918 0.5087944535845543 0.22074301174937405
3 53 167 249 0.506915506271918 0.5087944535845543 0.22074301174937405
3 156 141 249 0.506915506271918 0.5087944535845543 0.22074301174937405
3 249 141 53 0.506915506271918 0.5087944535845543 0.22074301174937405
3 156 167 107 0.506915506271918 0.5087944535845543 0.22074301174937405
3 107 155 160 0.506915506271918 0.5087944535845543 0.22074301174937405
3 107 167 61 0.506915506271918 0.5087944535845543 0.22074301174937405
3 61 155 107 0.506915506271918 0.5087944535845543 0.22074301174937405
3 53 141 140 0.506915506271918 0.5087944535845543 0.22074301174937405
3 141 48 140 0.506915506271918 0.5087944535845543 0.22074301174937405
3 140 48 8 0.506915506271918 0.5087944535845543 0.22074301174937405
3 8 139 140 0.506915506271918 0.5087944535845543 0.22074301174937405
3 140 139 53 0.506915506271918 0.5087944535845543 0.22074301174937405
3 109 62 147 0.506915506271918 0.5087944535845543 0.22074301174937405
3 109 19 62 0.506915506271918 0.5087944535845543 0.22074301174937405
3 109 147 108 0.506915506271918 0.5087944535845543 0.22074301174937405
3 108 19 109 0.506915506271918 0.5087944535845543 0.22074301174937405
3 62 19 20 0.506915506271918 0.5087944535845543 0.22074301174937405
3 21 213 20 0.506915506271918 0.5087944535845543 0.22074301174937405
3 63 62 20 0.506915506271918 0.5087944535845543 0.22074301174937405
3 20 213 63 0.506915506271918 0.5087944535845543 0.22074301174937405
3 58 11 12 0.506915506271918 0.5087944535845543 0.22074301174937405
3 58 164 11 0.506915506271918 0.5087944535845543 0.22074301174937405
3 12 152 58 0.506915506271918 0.5087944535845543 0.22074301174937405
3 152 164 58 0.506915506271918 0.5087944535845543 0.22074301174937405
3 246 247 10 0.506915506271918 0.5087944535845543 0.22074301174937405
3 246 59 247 0.506915506271918 0.5087944535845543 0.22074301174937405
3 10 11 246 0.506915506271918 0.5087944535845543 0.22074301174937405
3 11 164 246 0.506915506271918 0.5087944535845543 0.22074301174937405
3 164 59 246 0.506915506271918 0.5087944535845543 0.22074301174937405
3 105 59 153 0.506915506271918 0.5087944535845543 0.22074301174937405
3 105 165 59 0.506915506271918 0.5087944535845543 0.22074301174937405
3 153 146 105 0.506915506271918 0.5087944535845543 0.22074301174937405
3 154 165 105 0.506915506271918 0.5087944535845543 0.22074301174937405
3 105 147 154 0.506915506271918 0.5087944535845543 0.22074301174937405
3 105 146 147 0.506915506271918 0.5087944535845543 0.22074301174937405
3 131 130 274 0.506915506271918 0.5087944535845543 0.22074301174937405
3 131 275 132 0.506915506271918 0.5087944535845543 0.22074301174937405
3 274 275 131 0.506915506271918 0.5087944535845543 0.22074301174937405
3 132 233 131 0.506915506271918 0.5087944535845543 0.22074301174937405
3 233 130 131 0.506915506271918 0.5087944535845543 0.22074301174937405
3 117 88 267 0.506915506271918 0.5087944535845543 0.22074301174937405
3 267 195 117 0.506915506271918 0.5087944535845543 0.22074301174937405
3 267 88 87 0.506915506271918 0.5087944535845543 0.22074301174937405
3 87 195 267 0.506915506271918 0.5087944535845543 0.22074301174937405
3 201 93 96 0.506915506271918 0.5087944535845543 0.22074301174937405
3 201 96 231 0.506915506271918 0.5087944535845543 0.22074301174937405
3 231 97 201 0.506915506271918 0.5087944535845543 0.22074301174937405
3 201 202 117 0.506915506271918 0.5087944535845543 0.22074301174937405
3 97 202 201 0.506915506271918 0.5087944535845543 0.22074301174937405
3 223 78 27 0.506915506271918 0.5087944535845543 0.22074301174937405
3 27 222 223 0.506915506271918 0.5087944535845543 0.22074301174937405
3 85 84 188 0.506915506271918 0.5087944535845543 0.22074301174937405
3 85 222 84 0.506915506271918 0.5087944535845543 0.22074301174937405
3 85 223 222 0.506915506271918 0.5087944535845543 0.22074301174937405
3 85 188 189 0.506915506271918 0.5087944535845543 0.22074301174937405
3 189 223 85 0.506915506271918 0.5087944535845543 0.22074301174937405
3 29 185 82 0.506915506271918 0.5087944535845543 0.22074301174937405
3 28 29 82 0.506915506271918 0.5087944535845543 0.22074301174937405
3 138 212 245 0.506915506271918 0.5087944535845543 0.22074301174937405
3 138 102 212 0.506915506271918 0.5087944535845543 0.22074301174937405
3 245 244 138 0.506915506271918 0.5087944535845543 0.22074301174937405
3 244 243 138 0.506915506271918 0.5087944535845543 0.22074301174937405
3 101 135 100 0.506915506271918 0.5087944535845543 0.22074301174937405
3 101 100 57 0.506915506271918 0.5087944535845543 0.22074301174937405
3 57 102 101 0.506915506271918 0.5087944535845543 0.22074301174937405
3 111 160 64 0.506915506271918 0.5087944535845543 0.22074301174937405
3 111 107 160 0.506915506271918 0.5087944535845543 0.22074301174937405
3 93 201 127 0.506915506271918 0.5087944535845543 0.22074301174937405
3 122 93 127 0.506915506271918 0.5087944535845543 0.22074301174937405
3 127 195 122 0.506915506271918 0.5087944535845543 0.22074301174937405
3 117 195 127 0.506915506271918 0.5087944535845543 0.22074301174937405
3 127 201 117 0.506915506271918 0.5087944535845543 0.22074301174937405
3 79 78 224 0.506915506271918 0.5087944535845543 0.22074301174937405
3 78 223 224 0.506915506271918 0.5087944535845543 0.22074301174937405
3 224 80 79 0.506915506271918 0.5087944535845543 0.22074301174937405
3 189 190 224 0.506915506271918 0.5087944535845543 0.22074301174937405
3 224 223 189 0.506915506271918 0.5087944535845543 0.22074301174937405
3 89 268 186 0.506915506271918 0.5087944535845543 0.22074301174937405
3 268 187 186 0.506915506271918 0.5087944535845543 0.22074301174937405
3 186 185 89 0.506915506271918 0.5087944535845543 0.22074301174937405
3 186 82 185 0.506915506271918 0.5087944535845543 0.22074301174937405
3 135 101 136 0.506915506271918 0.5087944535845543 0.22074301174937405
3 136 101 102 0.506915506271918 0.5087944535845543 0.22074301174937405
3 242 241 136 0.506915506271918 0.5087944535845543 0.22074301174937405
3 241 135 136 0.506915506271918 0.5087944535845543 0.22074301174937405
3 137 243 242 0.506915506271918 0.5087944535845543 0.22074301174937405
3 137 138 243 0.506915506271918 0.5087944535845543 0.22074301174937405
3 242 136 137 0.506915506271918 0.5087944535845543 0.22074301174937405
3 102 138 137 0.506915506271918 0.5087944535845543 0.22074301174937405
3 137 136 102 0.506915506271918 0.5087944535845543 0.22074301174937405
3 156 107 161 0.506915506271918 0.5087944535845543 0.22074301174937405
3 107 111 161 0.506915506271918 0.5087944535845543 0.22074301174937405
3 161 112 156 0.506915506271918 0.5087944535845543 0.22074301174937405
3 65 112 161 0.506915506271918 0.5087944535845543 0.22074301174937405
3 161 111 64 0.506915506271918 0.5087944535845543 0.22074301174937405
3 161 214 65 0.506915506271918 0.5087944535845543 0.22074301174937405
3 64 214 161 0.506915506271918 0.5087944535845543 0.22074301174937405
3 80 224 225 0.506915506271918 0.5087944535845543 0.22074301174937405
3 226 81 225 0.506915506271918 0.5087944535845543 0.22074301174937405
3 81 80 225 0.506915506271918 0.5087944535845543 0.22074301174937405
3 225 190 226 0.506915506271918 0.5087944535845543 0.22074301174937405
3 225 224 190 0.506915506271918 0.5087944535845543 0.22074301174937405
3 83 186 187 0.506915506271918 0.5087944535845543 0.22074301174937405
3 82 186 83 0.506915506271918 0.5087944535845543 0.22074301174937405
3 28 82 83 0.506915506271918 0.5087944535845543 0.22074301174937405
3 83 84 28 0.506915506271918 0.5087944535845543 0.22074301174937405
3 83 187 84 0.506915506271918 0.5087944535845543 0.22074301174937405
