OFF
37 31 0


26.8788 29.2068 11.1782
26.8788 29.2068 11.1782
26.8656 29.2438 11.1928
26.8788 29.2068 11.1782
26.8788 29.2068 11.1782
26.9831 29.1821 11.2881
27.0699 29.1621 11.3799
27.1446 29.1454 11.4594
27.2109 29.1309 11.5303
27.2713 29.1182 11.5953
27.3277 29.1066 11.6562
27.3816 29.096 11.7147
27.4341 29.0859 11.7721
27.4865 29.0763 11.8295
27.5397 29.0669 11.8884
27.5951 29.0577 11.95
27.654 29.0485 12.016
27.7182 29.0392 12.0886
27.7903 29.0297 12.171
27.8739 29.0201 12.2677
27.9751 29.0107 12.3864
27.9751 29.0107 12.3864
27.8909 29.0732 12.3337
27.8089 29.1276 12.2769
27.7293 29.1734 12.2156
27.6522 29.2106 12.1505
27.5781 29.2397 12.0822
27.5071 29.2617 12.0118
27.4392 29.2776 11.9401
27.3739 29.2887 11.8677
27.3106 29.296 11.7945
27.2487 29.3002 11.7204
27.1873 29.3018 11.6449
27.1255 29.3014 11.5671
27.0623 29.2991 11.486
26.9967 29.2949 11.4002
26.9273 29.2889 11.3082
3 36 2 5 0.8496766734390462 0.17519128571994513 0.15716146152599852
3 5 2 0 0.8496766734390462 0.17519128571994513 0.15716146152599852
3 36 5 35 0.8496766734390462 0.17519128571994513 0.15716146152599852
3 6 35 5 0.8496766734390462 0.17519128571994513 0.15716146152599852
3 32 8 9 0.8496766734390462 0.17519128571994513 0.15716146152599852
3 13 14 28 0.8496766734390462 0.17519128571994513 0.15716146152599852
3 28 29 13 0.8496766734390462 0.17519128571994513 0.15716146152599852
3 17 18 24 0.8496766734390462 0.17519128571994513 0.15716146152599852
3 28 14 27 0.8496766734390462 0.17519128571994513 0.15716146152599852
3 16 26 15 0.8496766734390462 0.17519128571994513 0.15716146152599852
3 15 27 14 0.8496766734390462 0.17519128571994513 0.15716146152599852
3 26 27 15 0.8496766734390462 0.17519128571994513 0.15716146152599852
3 34 6 7 0.8496766734390462 0.17519128571994513 0.15716146152599852
3 35 6 34 0.8496766734390462 0.17519128571994513 0.15716146152599852
3 9 10 31 0.8496766734390462 0.17519128571994513 0.15716146152599852
3 31 32 9 0.8496766734390462 0.17519128571994513 0.15716146152599852
3 12 29 11 0.8496766734390462 0.17519128571994513 0.15716146152599852
3 12 13 29 0.8496766734390462 0.17519128571994513 0.15716146152599852
3 24 18 23 0.8496766734390462 0.17519128571994513 0.15716146152599852
3 25 17 24 0.8496766734390462 0.17519128571994513 0.15716146152599852
3 25 26 16 0.8496766734390462 0.17519128571994513 0.15716146152599852
3 16 17 25 0.8496766734390462 0.17519128571994513 0.15716146152599852
3 33 34 7 0.8496766734390462 0.17519128571994513 0.15716146152599852
3 7 8 33 0.8496766734390462 0.17519128571994513 0.15716146152599852
3 8 32 33 0.8496766734390462 0.17519128571994513 0.15716146152599852
3 30 10 11 0.8496766734390462 0.17519128571994513 0.15716146152599852
3 30 31 10 0.8496766734390462 0.17519128571994513 0.15716146152599852
3 11 29 30 0.8496766734390462 0.17519128571994513 0.15716146152599852
3 19 23 18 0.8496766734390462 0.17519128571994513 0.15716146152599852
3 22 23 19 0.8496766734390462 0.17519128571994513 0.15716146152599852
3 20 22 19 0.8496766734390462 0.17519128571994513 0.15716146152599852
