OFF
93 85 0


31.4365 28.4032 8.9516
31.4365 28.4032 8.9516
31.3922 28.4661 8.9654
31.3478 28.5291 8.9792
31.3035 28.592 8.9929
31.2592 28.655 9.0067
31.2148 28.7179 9.0204
31.1705 28.7809 9.0342
31.0563 28.8534 9.0465
30.95 28.9196 9.0577
30.8502 28.9807 9.068
30.7555 29.0375 9.0773
30.665 29.0907 9.086
30.5776 29.1408 9.0941
30.4927 29.1883 9.1016
30.4096 29.2335 9.1087
30.3276 29.2768 9.1153
30.2462 29.3184 9.1216
30.1649 29.3585 9.1274
30.0831 29.3973 9.1329
30.0005 29.4348 9.138
29.9164 29.4712 9.1427
29.8305 29.5064 9.147
29.7423 29.5406 9.1509
29.6512 29.5736 9.1544
29.5568 29.6054 9.1574
29.4585 29.6359 9.1598
29.3557 29.6652 9.1617
29.2479 29.693 9.1629
29.1342 29.7194 9.1634
29.0138 29.7443 9.1632
28.8856 29.7677 9.1621
28.8856 29.7677 9.1621
28.8231 29.6398 9.1258
28.7731 29.5346 9.0959
28.7309 29.4441 9.0703
28.6939 29.3634 9.0475
28.6603 29.2889 9.0265
28.6287 29.2182 9.0066
28.5983 29.1492 8.9871
28.5682 29.08 8.9677
28.5375 29.0088 8.9476
28.5053 28.9335 8.9265
28.4706 28.8514 8.9034
28.4321 28.7591 8.8776
28.3877 28.6515 8.8474
28.3343 28.5208 8.8108
28.3343 28.5208 8.8108
28.3743 28.454 8.7959
28.4144 28.3873 8.7809
28.4544 28.3205 8.7659
28.4944 28.2538 8.751
28.5345 28.187 8.736
28.5745 28.1203 8.721
28.6145 28.0535 8.706
28.6145 28.0535 8.706
28.6937 28.0146 8.7004
28.7729 27.9756 8.6947
28.8521 27.9367 8.6891
28.9313 27.8978 8.6834
29.0105 27.8589 8.6778
29.0897 27.8199 8.6721
29.1689 27.781 8.6665
29.2481 27.7421 8.6608
29.3272 27.7031 8.6552
29.4064 27.6642 8.6495
29.4856 27.6253 8.6439
29.5648 27.5863 8.6382
29.644 27.5474 8.6326
29.7232 27.5085 8.6269
29.8024 27.4695 8.6213
29.8024 27.4695 8.6213
29.8802 27.514 8.637
29.958 27.5585 8.6527
30.0358 27.6029 8.6685
30.1137 27.6474 8.6842
30.1915 27.6918 8.6999
30.2693 27.7363 8.7157
30.3471 27.7807 8.7314
30.4249 27.8252 8.7471
30.5027 27.8697 8.7629
30.5805 27.9141 8.7786
30.6584 27.9586 8.7943
30.7362 28.003 8.8101
30.814 28.0475 8.8258
30.8918 28.092 8.8415
30.9696 28.1364 8.8573
31.0474 28.1809 8.873
31.1252 28.2253 8.8887
31.2031 28.2698 8.9044
31.2809 28.3143 8.9202
31.3587 28.3587 8.9359
31.4365 28.4032 8.9516
3 33 34 29 0.9437059346461455 0.013487437111614264 0.7169014756349029
3 30 33 29 0.9437059346461455 0.013487437111614264 0.7169014756349029
3 32 33 30 0.9437059346461455 0.013487437111614264 0.7169014756349029
3 70 72 69 0.9437059346461455 0.013487437111614264 0.7169014756349029
3 48 45 46 0.9437059346461455 0.013487437111614264 0.7169014756349029
3 48 49 45 0.9437059346461455 0.013487437111614264 0.7169014756349029
3 13 14 81 0.9437059346461455 0.013487437111614264 0.7169014756349029
3 85 9 10 0.9437059346461455 0.013487437111614264 0.7169014756349029
3 82 83 12 0.9437059346461455 0.013487437111614264 0.7169014756349029
3 12 13 82 0.9437059346461455 0.013487437111614264 0.7169014756349029
3 82 13 81 0.9437059346461455 0.013487437111614264 0.7169014756349029
3 45 49 50 0.9437059346461455 0.013487437111614264 0.7169014756349029
3 29 34 28 0.9437059346461455 0.013487437111614264 0.7169014756349029
3 16 17 78 0.9437059346461455 0.013487437111614264 0.7169014756349029
3 12 83 11 0.9437059346461455 0.013487437111614264 0.7169014756349029
3 85 10 84 0.9437059346461455 0.013487437111614264 0.7169014756349029
3 84 11 83 0.9437059346461455 0.013487437111614264 0.7169014756349029
3 10 11 84 0.9437059346461455 0.013487437111614264 0.7169014756349029
3 5 6 88 0.9437059346461455 0.013487437111614264 0.7169014756349029
3 8 6 7 0.9437059346461455 0.013487437111614264 0.7169014756349029
3 88 6 8 0.9437059346461455 0.013487437111614264 0.7169014756349029
3 8 87 88 0.9437059346461455 0.013487437111614264 0.7169014756349029
3 86 9 85 0.9437059346461455 0.013487437111614264 0.7169014756349029
3 86 8 9 0.9437059346461455 0.013487437111614264 0.7169014756349029
3 87 8 86 0.9437059346461455 0.013487437111614264 0.7169014756349029
3 89 90 4 0.9437059346461455 0.013487437111614264 0.7169014756349029
3 4 5 89 0.9437059346461455 0.013487437111614264 0.7169014756349029
3 89 5 88 0.9437059346461455 0.013487437111614264 0.7169014756349029
3 55 56 53 0.9437059346461455 0.013487437111614264 0.7169014756349029
3 56 52 53 0.9437059346461455 0.013487437111614264 0.7169014756349029
3 26 37 38 0.9437059346461455 0.013487437111614264 0.7169014756349029
3 27 37 26 0.9437059346461455 0.013487437111614264 0.7169014756349029
3 59 42 58 0.9437059346461455 0.013487437111614264 0.7169014756349029
3 58 42 43 0.9437059346461455 0.013487437111614264 0.7169014756349029
3 44 50 51 0.9437059346461455 0.013487437111614264 0.7169014756349029
3 51 43 44 0.9437059346461455 0.013487437111614264 0.7169014756349029
3 45 50 44 0.9437059346461455 0.013487437111614264 0.7169014756349029
3 81 14 80 0.9437059346461455 0.013487437111614264 0.7169014756349029
3 14 15 80 0.9437059346461455 0.013487437111614264 0.7169014756349029
3 79 15 16 0.9437059346461455 0.013487437111614264 0.7169014756349029
3 16 78 79 0.9437059346461455 0.013487437111614264 0.7169014756349029
3 79 80 15 0.9437059346461455 0.013487437111614264 0.7169014756349029
3 64 18 19 0.9437059346461455 0.013487437111614264 0.7169014756349029
3 77 17 18 0.9437059346461455 0.013487437111614264 0.7169014756349029
3 77 78 17 0.9437059346461455 0.013487437111614264 0.7169014756349029
3 18 64 77 0.9437059346461455 0.013487437111614264 0.7169014756349029
3 0 2 91 0.9437059346461455 0.013487437111614264 0.7169014756349029
3 4 90 3 0.9437059346461455 0.013487437111614264 0.7169014756349029
3 90 91 3 0.9437059346461455 0.013487437111614264 0.7169014756349029
3 3 91 2 0.9437059346461455 0.013487437111614264 0.7169014756349029
3 26 38 25 0.9437059346461455 0.013487437111614264 0.7169014756349029
3 37 27 36 0.9437059346461455 0.013487437111614264 0.7169014756349029
3 61 21 22 0.9437059346461455 0.013487437111614264 0.7169014756349029
3 22 60 61 0.9437059346461455 0.013487437111614264 0.7169014756349029
3 23 60 22 0.9437059346461455 0.013487437111614264 0.7169014756349029
3 41 23 40 0.9437059346461455 0.013487437111614264 0.7169014756349029
3 41 60 23 0.9437059346461455 0.013487437111614264 0.7169014756349029
3 59 60 41 0.9437059346461455 0.013487437111614264 0.7169014756349029
3 41 42 59 0.9437059346461455 0.013487437111614264 0.7169014756349029
3 57 43 51 0.9437059346461455 0.013487437111614264 0.7169014756349029
3 57 58 43 0.9437059346461455 0.013487437111614264 0.7169014756349029
3 51 52 57 0.9437059346461455 0.013487437111614264 0.7169014756349029
3 57 52 56 0.9437059346461455 0.013487437111614264 0.7169014756349029
3 39 25 38 0.9437059346461455 0.013487437111614264 0.7169014756349029
3 35 27 28 0.9437059346461455 0.013487437111614264 0.7169014756349029
3 35 36 27 0.9437059346461455 0.013487437111614264 0.7169014756349029
3 35 28 34 0.9437059346461455 0.013487437111614264 0.7169014756349029
3 63 64 19 0.9437059346461455 0.013487437111614264 0.7169014756349029
3 19 20 63 0.9437059346461455 0.013487437111614264 0.7169014756349029
3 68 69 72 0.9437059346461455 0.013487437111614264 0.7169014756349029
3 25 39 24 0.9437059346461455 0.013487437111614264 0.7169014756349029
3 40 23 24 0.9437059346461455 0.013487437111614264 0.7169014756349029
3 24 39 40 0.9437059346461455 0.013487437111614264 0.7169014756349029
3 62 63 20 0.9437059346461455 0.013487437111614264 0.7169014756349029
3 62 21 61 0.9437059346461455 0.013487437111614264 0.7169014756349029
3 62 20 21 0.9437059346461455 0.013487437111614264 0.7169014756349029
3 76 77 64 0.9437059346461455 0.013487437111614264 0.7169014756349029
3 74 66 67 0.9437059346461455 0.013487437111614264 0.7169014756349029
3 75 66 74 0.9437059346461455 0.013487437111614264 0.7169014756349029
3 65 76 64 0.9437059346461455 0.013487437111614264 0.7169014756349029
3 75 76 65 0.9437059346461455 0.013487437111614264 0.7169014756349029
3 65 66 75 0.9437059346461455 0.013487437111614264 0.7169014756349029
3 67 68 73 0.9437059346461455 0.013487437111614264 0.7169014756349029
3 73 74 67 0.9437059346461455 0.013487437111614264 0.7169014756349029
3 73 68 72 0.9437059346461455 0.013487437111614264 0.7169014756349029
