OFF
44 37 0


30.8677 31.1686 6.7646
30.8677 31.1686 6.7646
30.8675 31.2849 6.8266
30.8699 31.3882 6.8854
30.8744 31.4814 6.9418
30.8806 31.5671 6.9965
30.8883 31.6471 7.0503
30.8973 31.7231 7.1038
30.9076 31.7964 7.1579
30.9195 31.8683 7.2133
30.9329 31.94 7.271
30.9483 32.0128 7.332
30.9661 32.088 7.3976
30.9868 32.1669 7.4695
31.0113 32.2512 7.5497
31.0408 32.3432 7.6412
30.955 32.3855 7.5413
30.8945 32.4161 7.4712
30.8401 32.4442 7.4085
30.7795 32.476 7.339
30.6936 32.5222 7.241
30.6936 32.5222 7.241
30.6936 32.5222 7.241
30.6822 32.4831 7.2037
30.6707 32.4439 7.1663
30.6592 32.4047 7.129
30.6478 32.3655 7.0916
30.6334 32.2586 7.0138
30.621 32.1722 6.9498
30.6097 32.0981 6.8939
30.599 32.031 6.8427
30.5883 31.9674 6.7934
30.5773 31.904 6.7437
30.5653 31.8381 6.6912
30.5516 31.7662 6.6331
30.535 31.6835 6.5651
30.5137 31.5829 6.4809
30.5137 31.5829 6.4809
30.5921 31.4972 6.5469
30.6467 31.4357 6.592
30.693 31.3823 6.6295
30.7389 31.3281 6.666
30.7922 31.2634 6.7076
30.8677 31.1686 6.7646
3 12 18 26 0.04393803335411972 0.5759076682065433 0.41796484314660765
3 9 30 8 0.04393803335411972 0.5759076682065433 0.41796484314660765
3 11 28 10 0.04393803335411972 0.5759076682065433 0.41796484314660765
3 25 26 18 0.04393803335411972 0.5759076682065433 0.41796484314660765
3 18 19 25 0.04393803335411972 0.5759076682065433 0.41796484314660765
3 19 24 25 0.04393803335411972 0.5759076682065433 0.41796484314660765
3 16 14 15 0.04393803335411972 0.5759076682065433 0.41796484314660765
3 13 18 12 0.04393803335411972 0.5759076682065433 0.41796484314660765
3 28 11 27 0.04393803335411972 0.5759076682065433 0.41796484314660765
3 12 26 27 0.04393803335411972 0.5759076682065433 0.41796484314660765
3 27 11 12 0.04393803335411972 0.5759076682065433 0.41796484314660765
3 29 9 10 0.04393803335411972 0.5759076682065433 0.41796484314660765
3 10 28 29 0.04393803335411972 0.5759076682065433 0.41796484314660765
3 30 9 29 0.04393803335411972 0.5759076682065433 0.41796484314660765
3 0 2 42 0.04393803335411972 0.5759076682065433 0.41796484314660765
3 4 40 3 0.04393803335411972 0.5759076682065433 0.41796484314660765
3 39 40 4 0.04393803335411972 0.5759076682065433 0.41796484314660765
3 4 5 39 0.04393803335411972 0.5759076682065433 0.41796484314660765
3 33 5 6 0.04393803335411972 0.5759076682065433 0.41796484314660765
3 23 19 20 0.04393803335411972 0.5759076682065433 0.41796484314660765
3 23 24 19 0.04393803335411972 0.5759076682065433 0.41796484314660765
3 18 13 17 0.04393803335411972 0.5759076682065433 0.41796484314660765
3 14 16 17 0.04393803335411972 0.5759076682065433 0.41796484314660765
3 17 13 14 0.04393803335411972 0.5759076682065433 0.41796484314660765
3 41 3 40 0.04393803335411972 0.5759076682065433 0.41796484314660765
3 41 42 2 0.04393803335411972 0.5759076682065433 0.41796484314660765
3 2 3 41 0.04393803335411972 0.5759076682065433 0.41796484314660765
3 36 38 35 0.04393803335411972 0.5759076682065433 0.41796484314660765
3 6 7 32 0.04393803335411972 0.5759076682065433 0.41796484314660765
3 32 33 6 0.04393803335411972 0.5759076682065433 0.41796484314660765
3 5 33 34 0.04393803335411972 0.5759076682065433 0.41796484314660765
3 34 39 5 0.04393803335411972 0.5759076682065433 0.41796484314660765
3 38 39 34 0.04393803335411972 0.5759076682065433 0.41796484314660765
3 34 35 38 0.04393803335411972 0.5759076682065433 0.41796484314660765
3 31 32 7 0.04393803335411972 0.5759076682065433 0.41796484314660765
3 8 30 31 0.04393803335411972 0.5759076682065433 0.41796484314660765
3 31 7 8 0.04393803335411972 0.5759076682065433 0.41796484314660765
