OFF
51 45 0


30.4754 32.6845 7.3842
30.4754 32.6845 7.3842
30.433 32.7276 7.5049
30.4754 32.6845 7.3842
30.4754 32.6845 7.3842
30.4945 32.8079 7.3331
30.5115 32.9209 7.2878
30.5267 33.0257 7.2471
30.5406 33.1241 7.2103
30.5532 33.2173 7.1766
30.5649 33.3065 7.1457
30.5758 33.3927 7.1169
30.586 33.4768 7.0901
30.5956 33.5594 7.0648
30.6048 33.6414 7.0409
30.6135 33.7233 7.0181
30.6219 33.8059 6.9963
30.6301 33.8898 6.9752
30.638 33.9758 6.9547
30.6458 34.0647 6.9346
30.6536 34.1574 6.9149
30.6613 34.255 6.8953
30.6691 34.3588 6.8757
30.677 34.4703 6.856
30.6852 34.5914 6.8358
30.6936 34.7246 6.8151
30.6936 34.7246 6.8151
30.6705 34.7312 6.8806
30.6474 34.7377 6.946
30.6243 34.7443 7.0115
30.6011 34.7508 7.0769
30.5799 34.6345 7.1342
30.561 34.5261 7.1852
30.5439 34.424 7.231
30.5285 34.3268 7.2724
30.5144 34.2334 7.3101
30.5014 34.143 7.3445
30.4895 34.0545 7.3761
30.4785 33.9674 7.4053
30.4683 33.881 7.4322
30.4587 33.7947 7.4571
30.4498 33.7078 7.4802
30.4415 33.6196 7.5017
30.4337 33.5297 7.5216
30.4264 33.4371 7.5402
30.4195 33.3412 7.5574
30.413 33.241 7.5733
30.4069 33.1354 7.5881
30.4012 33.0232 7.6016
30.3958 32.9027 7.614
30.3908 32.7719 7.6252
3 43 12 13 0.9594567314928871 0.42761995286608123 0.25102403176983534
3 50 5 49 0.9594567314928871 0.42761995286608123 0.25102403176983534
3 49 5 6 0.9594567314928871 0.42761995286608123 0.25102403176983534
3 24 32 23 0.9594567314928871 0.42761995286608123 0.25102403176983534
3 24 31 32 0.9594567314928871 0.42761995286608123 0.25102403176983534
3 0 5 2 0.9594567314928871 0.42761995286608123 0.25102403176983534
3 2 5 50 0.9594567314928871 0.42761995286608123 0.25102403176983534
3 44 12 43 0.9594567314928871 0.42761995286608123 0.25102403176983534
3 46 47 9 0.9594567314928871 0.42761995286608123 0.25102403176983534
3 9 10 46 0.9594567314928871 0.42761995286608123 0.25102403176983534
3 10 45 46 0.9594567314928871 0.42761995286608123 0.25102403176983534
3 9 47 8 0.9594567314928871 0.42761995286608123 0.25102403176983534
3 47 7 8 0.9594567314928871 0.42761995286608123 0.25102403176983534
3 48 7 47 0.9594567314928871 0.42761995286608123 0.25102403176983534
3 6 7 48 0.9594567314928871 0.42761995286608123 0.25102403176983534
3 48 49 6 0.9594567314928871 0.42761995286608123 0.25102403176983534
3 43 13 42 0.9594567314928871 0.42761995286608123 0.25102403176983534
3 19 20 36 0.9594567314928871 0.42761995286608123 0.25102403176983534
3 30 31 29 0.9594567314928871 0.42761995286608123 0.25102403176983534
3 31 28 29 0.9594567314928871 0.42761995286608123 0.25102403176983534
3 27 28 31 0.9594567314928871 0.42761995286608123 0.25102403176983534
3 31 24 27 0.9594567314928871 0.42761995286608123 0.25102403176983534
3 27 24 25 0.9594567314928871 0.42761995286608123 0.25102403176983534
3 11 45 10 0.9594567314928871 0.42761995286608123 0.25102403176983534
3 11 44 45 0.9594567314928871 0.42761995286608123 0.25102403176983534
3 12 44 11 0.9594567314928871 0.42761995286608123 0.25102403176983534
3 15 41 14 0.9594567314928871 0.42761995286608123 0.25102403176983534
3 41 42 14 0.9594567314928871 0.42761995286608123 0.25102403176983534
3 14 42 13 0.9594567314928871 0.42761995286608123 0.25102403176983534
3 18 19 37 0.9594567314928871 0.42761995286608123 0.25102403176983534
3 19 36 37 0.9594567314928871 0.42761995286608123 0.25102403176983534
3 35 20 21 0.9594567314928871 0.42761995286608123 0.25102403176983534
3 35 36 20 0.9594567314928871 0.42761995286608123 0.25102403176983534
3 38 17 18 0.9594567314928871 0.42761995286608123 0.25102403176983534
3 18 37 38 0.9594567314928871 0.42761995286608123 0.25102403176983534
3 21 22 34 0.9594567314928871 0.42761995286608123 0.25102403176983534
3 34 35 21 0.9594567314928871 0.42761995286608123 0.25102403176983534
3 16 17 39 0.9594567314928871 0.42761995286608123 0.25102403176983534
3 17 38 39 0.9594567314928871 0.42761995286608123 0.25102403176983534
3 33 34 22 0.9594567314928871 0.42761995286608123 0.25102403176983534
3 23 32 33 0.9594567314928871 0.42761995286608123 0.25102403176983534
3 33 22 23 0.9594567314928871 0.42761995286608123 0.25102403176983534
3 16 39 40 0.9594567314928871 0.42761995286608123 0.25102403176983534
3 15 16 40 0.9594567314928871 0.42761995286608123 0.25102403176983534
3 40 41 15 0.9594567314928871 0.42761995286608123 0.25102403176983534
