OFF
48 42 0


28.3352 32.019 12.1603
28.3352 32.019 12.1603
28.395 31.9455 12.1587
28.4549 31.8721 12.1562
28.4549 31.8721 12.1562
28.5095 31.7878 12.2433
28.5595 31.7111 12.3198
28.6062 31.6401 12.3882
28.6505 31.5732 12.4504
28.6933 31.5092 12.5079
28.7352 31.447 12.5615
28.7769 31.3857 12.6124
28.8188 31.3244 12.6611
28.8616 31.2624 12.7083
28.9058 31.1988 12.7545
28.9522 31.1327 12.8002
29.0014 31.063 12.8458
29.0543 30.9887 12.8918
29.112 30.9084 12.9386
29.1759 30.8203 12.9865
29.2475 30.7222 13.0363
29.2475 30.7222 13.0363
29.2108 30.7434 13.1588
29.1842 30.7577 13.2537
29.1618 30.7688 13.3379
29.1405 30.7785 13.4226
29.1178 30.7877 13.5192
29.0903 30.7969 13.6455
29.0641 30.8509 13.5347
29.0371 30.9042 13.4321
29.0093 30.9572 13.3366
28.9808 31.0099 13.2473
28.9514 31.0625 13.1632
28.9213 31.1153 13.0837
28.8902 31.1684 13.0082
28.8583 31.2219 12.9361
28.8253 31.2761 12.8668
28.7912 31.3313 12.7999
28.7559 31.3876 12.7349
28.7191 31.4454 12.6714
28.6807 31.505 12.6088
28.6404 31.5668 12.5469
28.5979 31.6313 12.4851
28.5528 31.6991 12.4229
28.5047 31.7709 12.36
28.4528 31.8474 12.2957
28.3967 31.9297 12.2293
28.3352 32.019 12.1603
3 45 5 4 0.21446630102898578 0.5329252551948992 0.2835374467415126
3 30 29 24 0.21446630102898578 0.5329252551948992 0.2835374467415126
3 6 43 7 0.21446630102898578 0.5329252551948992 0.2835374467415126
3 7 43 42 0.21446630102898578 0.5329252551948992 0.2835374467415126
3 46 45 4 0.21446630102898578 0.5329252551948992 0.2835374467415126
3 43 6 44 0.21446630102898578 0.5329252551948992 0.2835374467415126
3 5 45 44 0.21446630102898578 0.5329252551948992 0.2835374467415126
3 44 6 5 0.21446630102898578 0.5329252551948992 0.2835374467415126
3 32 17 33 0.21446630102898578 0.5329252551948992 0.2835374467415126
3 16 33 17 0.21446630102898578 0.5329252551948992 0.2835374467415126
3 34 33 16 0.21446630102898578 0.5329252551948992 0.2835374467415126
3 23 30 24 0.21446630102898578 0.5329252551948992 0.2835374467415126
3 18 17 32 0.21446630102898578 0.5329252551948992 0.2835374467415126
3 24 29 25 0.21446630102898578 0.5329252551948992 0.2835374467415126
3 27 26 28 0.21446630102898578 0.5329252551948992 0.2835374467415126
3 28 25 29 0.21446630102898578 0.5329252551948992 0.2835374467415126
3 26 25 28 0.21446630102898578 0.5329252551948992 0.2835374467415126
3 7 42 8 0.21446630102898578 0.5329252551948992 0.2835374467415126
3 8 42 41 0.21446630102898578 0.5329252551948992 0.2835374467415126
3 0 46 2 0.21446630102898578 0.5329252551948992 0.2835374467415126
3 2 46 4 0.21446630102898578 0.5329252551948992 0.2835374467415126
3 36 35 14 0.21446630102898578 0.5329252551948992 0.2835374467415126
3 14 35 15 0.21446630102898578 0.5329252551948992 0.2835374467415126
3 15 35 34 0.21446630102898578 0.5329252551948992 0.2835374467415126
3 34 16 15 0.21446630102898578 0.5329252551948992 0.2835374467415126
3 19 22 20 0.21446630102898578 0.5329252551948992 0.2835374467415126
3 9 8 41 0.21446630102898578 0.5329252551948992 0.2835374467415126
3 41 40 9 0.21446630102898578 0.5329252551948992 0.2835374467415126
3 9 40 10 0.21446630102898578 0.5329252551948992 0.2835374467415126
3 12 38 37 0.21446630102898578 0.5329252551948992 0.2835374467415126
3 12 11 38 0.21446630102898578 0.5329252551948992 0.2835374467415126
3 38 11 39 0.21446630102898578 0.5329252551948992 0.2835374467415126
3 39 11 10 0.21446630102898578 0.5329252551948992 0.2835374467415126
3 10 40 39 0.21446630102898578 0.5329252551948992 0.2835374467415126
3 30 23 31 0.21446630102898578 0.5329252551948992 0.2835374467415126
3 31 23 22 0.21446630102898578 0.5329252551948992 0.2835374467415126
3 22 19 31 0.21446630102898578 0.5329252551948992 0.2835374467415126
3 31 18 32 0.21446630102898578 0.5329252551948992 0.2835374467415126
3 31 19 18 0.21446630102898578 0.5329252551948992 0.2835374467415126
3 13 12 37 0.21446630102898578 0.5329252551948992 0.2835374467415126
3 37 36 13 0.21446630102898578 0.5329252551948992 0.2835374467415126
3 13 36 14 0.21446630102898578 0.5329252551948992 0.2835374467415126
