OFF
22 17 0


30.8557 30.9356 6.725
30.8557 30.9356 6.725
30.9628 30.858 6.7604
31.0481 30.7979 6.7889
31.1222 30.7472 6.8139
31.1915 30.7008 6.8374
31.2614 30.6553 6.8612
31.3369 30.6073 6.8872
31.4251 30.5527 6.9178
31.5377 30.4854 6.9572
31.4548 30.5912 6.9365
31.383 30.6775 6.9177
31.3175 30.7517 6.9
31.2548 30.819 6.8825
31.1921 30.8829 6.8645
31.1263 30.9466 6.8451
31.054 31.0129 6.8232
30.9702 31.0854 6.7972
30.8677 31.1686 6.7646
30.8677 31.1686 6.7646
30.8602 31.0523 6.7441
30.8557 30.9356 6.725
3 0 16 17 0.05860111826315728 0.04460201963299337 0.671727747455212
3 14 3 4 0.05860111826315728 0.04460201963299337 0.671727747455212
3 2 16 0 0.05860111826315728 0.04460201963299337 0.671727747455212
3 15 3 14 0.05860111826315728 0.04460201963299337 0.671727747455212
3 16 2 15 0.05860111826315728 0.04460201963299337 0.671727747455212
3 15 2 3 0.05860111826315728 0.04460201963299337 0.671727747455212
3 20 17 18 0.05860111826315728 0.04460201963299337 0.671727747455212
3 0 17 20 0.05860111826315728 0.04460201963299337 0.671727747455212
3 11 7 10 0.05860111826315728 0.04460201963299337 0.671727747455212
3 5 12 13 0.05860111826315728 0.04460201963299337 0.671727747455212
3 14 4 13 0.05860111826315728 0.04460201963299337 0.671727747455212
3 13 4 5 0.05860111826315728 0.04460201963299337 0.671727747455212
3 6 12 5 0.05860111826315728 0.04460201963299337 0.671727747455212
3 6 7 11 0.05860111826315728 0.04460201963299337 0.671727747455212
3 11 12 6 0.05860111826315728 0.04460201963299337 0.671727747455212
3 9 10 8 0.05860111826315728 0.04460201963299337 0.671727747455212
3 8 10 7 0.05860111826315728 0.04460201963299337 0.671727747455212
