OFF
63 94 0


27.5813 32.0358 7.7316
27.5813 32.0358 7.7316
27.6769 31.9887 7.6303
27.7447 31.9549 7.5587
27.8058 31.924 7.4946
27.8737 31.8893 7.4235
27.9695 31.8398 7.3237
28.0089 31.778 7.4418
28.0375 31.7324 7.5291
28.0621 31.6928 7.6051
28.0864 31.6532 7.6813
28.114 31.6077 7.7691
28.1506 31.5462 7.8881
28.1506 31.5462 7.8881
28.0366 31.6426 7.8692
27.9575 31.7099 7.8522
27.8925 31.7656 7.836
27.8314 31.8182 7.8189
27.7669 31.8739 7.7989
27.6898 31.941 7.7727
27.5813 32.0358 7.7316
27.8266 31.8941 7.5467
27.9976 31.7531 7.5709
28.0362 31.6927 7.6834
27.8904 31.7766 7.8011
27.7956 31.8587 7.7722
27.731 31.9426 7.6458
27.7833 31.8978 7.6609
27.8765 31.8683 7.4956
27.879 31.8484 7.5639
27.9755 31.787 7.508
27.9436 31.7956 7.5713
28.0584 31.6573 7.7498
28.0016 31.7077 7.7303
28.0007 31.6825 7.827
27.9634 31.7238 7.7832
27.8441 31.8166 7.7877
27.857 31.8149 7.7559
27.6596 31.9782 7.7207
27.7357 31.9219 7.7102
27.7814 31.9171 7.5933
27.8168 31.8807 7.6267
27.8508 31.8455 7.659
27.9459 31.8321 7.425
27.9238 31.8249 7.5193
27.9031 31.818 7.6074
28.0169 31.7231 7.6267
27.9721 31.7529 7.648
27.9277 31.7823 7.6691
28.0882 31.6089 7.8414
28.0234 31.6736 7.7932
27.9554 31.7409 7.7429
27.9401 31.734 7.8138
27.922 31.759 7.774
27.9032 31.7847 7.7328
27.7384 31.9087 7.7519
27.7868 31.8764 7.7313
27.8352 31.844 7.7107
27.6596 31.9782 7.7207
27.7357 31.9219 7.7102
27.8103 31.8664 7.7
27.8837 31.8114 7.6902
27.8837 31.8114 7.6902
3 8 22 9 0.11041323549658777 0.3067525392490178 0.5498711599206516
3 12 11 49 0.11041323549658777 0.3067525392490178 0.5498711599206516
3 49 14 12 0.11041323549658777 0.3067525392490178 0.5498711599206516
3 9 22 46 0.11041323549658777 0.3067525392490178 0.5498711599206516
3 58 2 0 0.11041323549658777 0.3067525392490178 0.5498711599206516
3 14 49 50 0.11041323549658777 0.3067525392490178 0.5498711599206516
3 24 17 16 0.11041323549658777 0.3067525392490178 0.5498711599206516
3 36 17 24 0.11041323549658777 0.3067525392490178 0.5498711599206516
3 24 37 36 0.11041323549658777 0.3067525392490178 0.5498711599206516
3 35 50 33 0.11041323549658777 0.3067525392490178 0.5498711599206516
3 51 35 33 0.11041323549658777 0.3067525392490178 0.5498711599206516
3 53 35 51 0.11041323549658777 0.3067525392490178 0.5498711599206516
3 23 10 9 0.11041323549658777 0.3067525392490178 0.5498711599206516
3 9 46 23 0.11041323549658777 0.3067525392490178 0.5498711599206516
3 47 51 33 0.11041323549658777 0.3067525392490178 0.5498711599206516
3 48 51 47 0.11041323549658777 0.3067525392490178 0.5498711599206516
3 33 23 47 0.11041323549658777 0.3067525392490178 0.5498711599206516
3 47 23 46 0.11041323549658777 0.3067525392490178 0.5498711599206516
3 47 46 22 0.11041323549658777 0.3067525392490178 0.5498711599206516
3 2 58 26 0.11041323549658777 0.3067525392490178 0.5498711599206516
3 3 2 26 0.11041323549658777 0.3067525392490178 0.5498711599206516
3 22 8 30 0.11041323549658777 0.3067525392490178 0.5498711599206516
3 8 7 30 0.11041323549658777 0.3067525392490178 0.5498711599206516
3 31 44 29 0.11041323549658777 0.3067525392490178 0.5498711599206516
3 31 47 22 0.11041323549658777 0.3067525392490178 0.5498711599206516
3 48 47 31 0.11041323549658777 0.3067525392490178 0.5498711599206516
3 22 30 31 0.11041323549658777 0.3067525392490178 0.5498711599206516
3 31 30 44 0.11041323549658777 0.3067525392490178 0.5498711599206516
3 43 7 6 0.11041323549658777 0.3067525392490178 0.5498711599206516
3 43 30 7 0.11041323549658777 0.3067525392490178 0.5498711599206516
3 44 30 43 0.11041323549658777 0.3067525392490178 0.5498711599206516
3 32 49 11 0.11041323549658777 0.3067525392490178 0.5498711599206516
3 32 50 49 0.11041323549658777 0.3067525392490178 0.5498711599206516
3 11 10 32 0.11041323549658777 0.3067525392490178 0.5498711599206516
3 10 23 32 0.11041323549658777 0.3067525392490178 0.5498711599206516
3 33 50 32 0.11041323549658777 0.3067525392490178 0.5498711599206516
3 32 23 33 0.11041323549658777 0.3067525392490178 0.5498711599206516
3 3 26 40 0.11041323549658777 0.3067525392490178 0.5498711599206516
3 40 26 27 0.11041323549658777 0.3067525392490178 0.5498711599206516
3 29 44 28 0.11041323549658777 0.3067525392490178 0.5498711599206516
3 28 21 29 0.11041323549658777 0.3067525392490178 0.5498711599206516
3 44 43 28 0.11041323549658777 0.3067525392490178 0.5498711599206516
3 25 56 18 0.11041323549658777 0.3067525392490178 0.5498711599206516
3 18 17 25 0.11041323549658777 0.3067525392490178 0.5498711599206516
3 25 17 36 0.11041323549658777 0.3067525392490178 0.5498711599206516
3 36 37 25 0.11041323549658777 0.3067525392490178 0.5498711599206516
3 27 56 60 0.11041323549658777 0.3067525392490178 0.5498711599206516
3 34 35 15 0.11041323549658777 0.3067525392490178 0.5498711599206516
3 50 35 34 0.11041323549658777 0.3067525392490178 0.5498711599206516
3 34 15 14 0.11041323549658777 0.3067525392490178 0.5498711599206516
3 14 50 34 0.11041323549658777 0.3067525392490178 0.5498711599206516
3 16 15 52 0.11041323549658777 0.3067525392490178 0.5498711599206516
3 15 35 52 0.11041323549658777 0.3067525392490178 0.5498711599206516
3 52 35 53 0.11041323549658777 0.3067525392490178 0.5498711599206516
3 52 24 16 0.11041323549658777 0.3067525392490178 0.5498711599206516
3 53 24 52 0.11041323549658777 0.3067525392490178 0.5498711599206516
3 53 51 54 0.11041323549658777 0.3067525392490178 0.5498711599206516
3 54 51 48 0.11041323549658777 0.3067525392490178 0.5498711599206516
3 54 48 61 0.11041323549658777 0.3067525392490178 0.5498711599206516
3 61 37 54 0.11041323549658777 0.3067525392490178 0.5498711599206516
3 54 24 53 0.11041323549658777 0.3067525392490178 0.5498711599206516
3 37 24 54 0.11041323549658777 0.3067525392490178 0.5498711599206516
3 39 26 58 0.11041323549658777 0.3067525392490178 0.5498711599206516
3 39 56 27 0.11041323549658777 0.3067525392490178 0.5498711599206516
3 27 26 39 0.11041323549658777 0.3067525392490178 0.5498711599206516
3 45 31 29 0.11041323549658777 0.3067525392490178 0.5498711599206516
3 48 31 45 0.11041323549658777 0.3067525392490178 0.5498711599206516
3 29 42 45 0.11041323549658777 0.3067525392490178 0.5498711599206516
3 61 48 45 0.11041323549658777 0.3067525392490178 0.5498711599206516
3 45 42 61 0.11041323549658777 0.3067525392490178 0.5498711599206516
3 41 40 27 0.11041323549658777 0.3067525392490178 0.5498711599206516
3 27 60 41 0.11041323549658777 0.3067525392490178 0.5498711599206516
3 41 60 42 0.11041323549658777 0.3067525392490178 0.5498711599206516
3 21 40 41 0.11041323549658777 0.3067525392490178 0.5498711599206516
3 41 42 29 0.11041323549658777 0.3067525392490178 0.5498711599206516
3 29 21 41 0.11041323549658777 0.3067525392490178 0.5498711599206516
3 21 28 4 0.11041323549658777 0.3067525392490178 0.5498711599206516
3 3 40 4 0.11041323549658777 0.3067525392490178 0.5498711599206516
3 4 40 21 0.11041323549658777 0.3067525392490178 0.5498711599206516
3 57 25 37 0.11041323549658777 0.3067525392490178 0.5498711599206516
3 57 37 61 0.11041323549658777 0.3067525392490178 0.5498711599206516
3 56 25 57 0.11041323549658777 0.3067525392490178 0.5498711599206516
3 57 60 56 0.11041323549658777 0.3067525392490178 0.5498711599206516
3 61 42 57 0.11041323549658777 0.3067525392490178 0.5498711599206516
3 42 60 57 0.11041323549658777 0.3067525392490178 0.5498711599206516
3 19 39 58 0.11041323549658777 0.3067525392490178 0.5498711599206516
3 19 58 0 0.11041323549658777 0.3067525392490178 0.5498711599206516
3 5 28 43 0.11041323549658777 0.3067525392490178 0.5498711599206516
3 5 4 28 0.11041323549658777 0.3067525392490178 0.5498711599206516
3 5 43 6 0.11041323549658777 0.3067525392490178 0.5498711599206516
3 55 19 18 0.11041323549658777 0.3067525392490178 0.5498711599206516
3 39 19 55 0.11041323549658777 0.3067525392490178 0.5498711599206516
3 18 56 55 0.11041323549658777 0.3067525392490178 0.5498711599206516
3 56 39 55 0.11041323549658777 0.3067525392490178 0.5498711599206516
