OFF
64 55 0


28.7385 31.2072 10.9095
28.7385 31.2072 10.9095
28.6375 31.3025 10.9533
28.5565 31.3794 10.9894
28.4871 31.4453 11.0209
28.4245 31.5052 11.05
28.3649 31.5622 11.0781
28.3055 31.6192 11.1066
28.2435 31.679 11.1368
28.1752 31.7449 11.1706
28.0959 31.8217 11.2106
27.9979 31.917 11.261
27.9906 31.9485 11.3336
27.9832 31.98 11.4063
27.9759 32.0115 11.479
27.9685 32.043 11.5516
27.9612 32.0745 11.6243
27.9612 32.0745 11.6243
27.9612 32.0745 11.6243
28.0526 32.0397 11.7304
28.1194 32.0136 11.8059
28.176 31.9909 11.8684
28.2299 31.9689 11.9267
28.2874 31.9449 11.9875
28.3568 31.9153 12.0589
28.4549 31.8721 12.1562
28.4549 31.8721 12.1562
28.5635 31.7868 12.1576
28.6594 31.7108 12.1573
28.7458 31.642 12.1558
28.8251 31.5784 12.1532
28.8989 31.5188 12.1498
28.9689 31.4619 12.1456
29.0362 31.407 12.1406
29.1018 31.3531 12.1349
29.1667 31.2995 12.1284
29.2318 31.2454 12.121
29.2982 31.1899 12.1126
29.3668 31.1323 12.103
29.4387 31.0715 12.092
29.5155 31.0063 12.0793
29.5987 30.9353 12.0643
29.6906 30.8563 12.0466
29.7942 30.7668 12.0251
29.7942 30.7668 12.0251
29.7213 30.7838 11.9103
29.6596 30.7989 11.8148
29.6052 30.8126 11.7319
29.5554 30.8255 11.6572
29.5084 30.8381 11.5874
29.4624 30.8507 11.5202
29.4161 30.8636 11.4533
29.3679 30.8774 11.3845
29.3162 30.8926 11.3116
29.2586 30.9098 11.2316
29.192 30.9303 11.1405
29.1116 30.9556 11.0324
29.1116 30.9556 11.0324
29.0862 30.9668 11.0073
29.0608 30.9781 10.9823
29.0354 30.9893 10.9572
28.9272 31.0676 10.9368
28.8463 31.127 10.9238
28.7385 31.2072 10.9095
3 52 35 53 0.848466755237385 0.6070915629435544 0.18670696507797357
3 31 3 32 0.848466755237385 0.6070915629435544 0.18670696507797357
3 3 31 4 0.848466755237385 0.6070915629435544 0.18670696507797357
3 47 41 40 0.848466755237385 0.6070915629435544 0.18670696507797357
3 36 35 52 0.848466755237385 0.6070915629435544 0.18670696507797357
3 50 49 38 0.848466755237385 0.6070915629435544 0.18670696507797357
3 38 37 50 0.848466755237385 0.6070915629435544 0.18670696507797357
3 54 33 2 0.848466755237385 0.6070915629435544 0.18670696507797357
3 2 55 54 0.848466755237385 0.6070915629435544 0.18670696507797357
3 32 3 2 0.848466755237385 0.6070915629435544 0.18670696507797357
3 2 33 32 0.848466755237385 0.6070915629435544 0.18670696507797357
3 2 62 55 0.848466755237385 0.6070915629435544 0.18670696507797357
3 0 62 2 0.848466755237385 0.6070915629435544 0.18670696507797357
3 34 53 35 0.848466755237385 0.6070915629435544 0.18670696507797357
3 34 33 54 0.848466755237385 0.6070915629435544 0.18670696507797357
3 54 53 34 0.848466755237385 0.6070915629435544 0.18670696507797357
3 55 62 61 0.848466755237385 0.6070915629435544 0.18670696507797357
3 61 59 58 0.848466755237385 0.6070915629435544 0.18670696507797357
3 60 59 61 0.848466755237385 0.6070915629435544 0.18670696507797357
3 30 4 31 0.848466755237385 0.6070915629435544 0.18670696507797357
3 5 29 6 0.848466755237385 0.6070915629435544 0.18670696507797357
3 5 30 29 0.848466755237385 0.6070915629435544 0.18670696507797357
3 4 30 5 0.848466755237385 0.6070915629435544 0.18670696507797357
3 6 29 28 0.848466755237385 0.6070915629435544 0.18670696507797357
3 15 19 16 0.848466755237385 0.6070915629435544 0.18670696507797357
3 6 28 7 0.848466755237385 0.6070915629435544 0.18670696507797357
3 20 9 21 0.848466755237385 0.6070915629435544 0.18670696507797357
3 42 45 43 0.848466755237385 0.6070915629435544 0.18670696507797357
3 46 41 47 0.848466755237385 0.6070915629435544 0.18670696507797357
3 46 42 41 0.848466755237385 0.6070915629435544 0.18670696507797357
3 45 42 46 0.848466755237385 0.6070915629435544 0.18670696507797357
3 47 40 48 0.848466755237385 0.6070915629435544 0.18670696507797357
3 51 50 37 0.848466755237385 0.6070915629435544 0.18670696507797357
3 51 36 52 0.848466755237385 0.6070915629435544 0.18670696507797357
3 37 36 51 0.848466755237385 0.6070915629435544 0.18670696507797357
3 55 61 57 0.848466755237385 0.6070915629435544 0.18670696507797357
3 57 61 58 0.848466755237385 0.6070915629435544 0.18670696507797357
3 8 22 21 0.848466755237385 0.6070915629435544 0.18670696507797357
3 21 9 8 0.848466755237385 0.6070915629435544 0.18670696507797357
3 23 7 28 0.848466755237385 0.6070915629435544 0.18670696507797357
3 22 8 23 0.848466755237385 0.6070915629435544 0.18670696507797357
3 23 8 7 0.848466755237385 0.6070915629435544 0.18670696507797357
3 39 48 40 0.848466755237385 0.6070915629435544 0.18670696507797357
3 38 49 39 0.848466755237385 0.6070915629435544 0.18670696507797357
3 49 48 39 0.848466755237385 0.6070915629435544 0.18670696507797357
3 25 24 27 0.848466755237385 0.6070915629435544 0.18670696507797357
3 27 23 28 0.848466755237385 0.6070915629435544 0.18670696507797357
3 24 23 27 0.848466755237385 0.6070915629435544 0.18670696507797357
3 19 15 14 0.848466755237385 0.6070915629435544 0.18670696507797357
3 14 20 19 0.848466755237385 0.6070915629435544 0.18670696507797357
3 14 13 20 0.848466755237385 0.6070915629435544 0.18670696507797357
3 9 20 10 0.848466755237385 0.6070915629435544 0.18670696507797357
3 20 13 10 0.848466755237385 0.6070915629435544 0.18670696507797357
3 11 10 12 0.848466755237385 0.6070915629435544 0.18670696507797357
3 12 10 13 0.848466755237385 0.6070915629435544 0.18670696507797357
