OFF
56 82 0


25.6898 32.493 9.3236
25.6898 32.493 9.3236
25.6482 32.5545 9.2148
25.6174 32.5999 9.135
25.5752 32.662 9.0268
25.5449 32.5473 8.9627
25.5225 32.4641 8.9165
25.5028 32.3924 8.8767
25.4829 32.3206 8.8371
25.4594 32.2375 8.7913
25.4264 32.1229 8.7285
25.4264 32.1229 8.7285
25.4734 32.197 8.8287
25.5107 32.2531 8.9097
25.5432 32.3004 8.9818
25.5742 32.344 9.0519
25.6065 32.3879 9.1263
25.6434 32.4358 9.2126
25.6898 32.493 9.3236
25.6026 32.5448 9.1031
25.5321 32.4438 8.9413
25.5025 32.3373 8.8815
25.5472 32.3214 8.9893
25.595 32.3873 9.0982
25.626 32.5121 9.1633
25.6039 32.4698 9.1124
25.5487 32.505 8.9757
25.5524 32.464 8.9882
25.4849 32.2752 8.8468
25.5101 32.3124 8.902
25.4951 32.2441 8.874
25.5166 32.2912 8.9196
25.5706 32.3542 9.0422
25.5669 32.3645 9.0324
25.6582 32.4671 9.2466
25.626 32.4406 9.1692
25.5711 32.5887 9.0227
25.5672 32.5182 9.019
25.5633 32.4505 9.0156
25.5174 32.3906 8.9114
25.5317 32.3889 8.9456
25.5457 32.3871 8.9792
25.4602 32.1894 8.7988
25.4936 32.2551 8.8694
25.5267 32.3204 8.9405
25.5228 32.286 8.935
25.535 32.3189 8.9605
25.5472 32.352 8.9863
25.623 32.4237 9.1633
25.6022 32.4112 9.1135
25.581 32.3984 9.0632
25.6582 32.4671 9.2466
25.626 32.4406 9.1692
25.5931 32.4134 9.0912
25.5594 32.3853 9.0124
25.5594 32.3853 9.0124
3 2 3 19 0.7445524569727233 0.7984071003596401 0.969757105416382
3 36 3 4 0.7445524569727233 0.7984071003596401 0.969757105416382
3 19 3 36 0.7445524569727233 0.7984071003596401 0.969757105416382
3 42 9 10 0.7445524569727233 0.7984071003596401 0.969757105416382
3 10 12 42 0.7445524569727233 0.7984071003596401 0.969757105416382
3 42 12 9 0.7445524569727233 0.7984071003596401 0.969757105416382
3 14 15 22 0.7445524569727233 0.7984071003596401 0.969757105416382
3 23 15 16 0.7445524569727233 0.7984071003596401 0.969757105416382
3 54 47 33 0.7445524569727233 0.7984071003596401 0.969757105416382
3 33 50 54 0.7445524569727233 0.7984071003596401 0.969757105416382
3 7 20 6 0.7445524569727233 0.7984071003596401 0.969757105416382
3 54 50 38 0.7445524569727233 0.7984071003596401 0.969757105416382
3 5 6 26 0.7445524569727233 0.7984071003596401 0.969757105416382
3 5 36 4 0.7445524569727233 0.7984071003596401 0.969757105416382
3 37 25 19 0.7445524569727233 0.7984071003596401 0.969757105416382
3 37 5 26 0.7445524569727233 0.7984071003596401 0.969757105416382
3 37 38 25 0.7445524569727233 0.7984071003596401 0.969757105416382
3 19 36 37 0.7445524569727233 0.7984071003596401 0.969757105416382
3 36 5 37 0.7445524569727233 0.7984071003596401 0.969757105416382
3 24 2 19 0.7445524569727233 0.7984071003596401 0.969757105416382
3 19 25 24 0.7445524569727233 0.7984071003596401 0.969757105416382
3 16 17 48 0.7445524569727233 0.7984071003596401 0.969757105416382
3 47 40 44 0.7445524569727233 0.7984071003596401 0.969757105416382
3 32 33 47 0.7445524569727233 0.7984071003596401 0.969757105416382
3 47 22 32 0.7445524569727233 0.7984071003596401 0.969757105416382
3 32 22 15 0.7445524569727233 0.7984071003596401 0.969757105416382
3 15 23 32 0.7445524569727233 0.7984071003596401 0.969757105416382
3 32 23 50 0.7445524569727233 0.7984071003596401 0.969757105416382
3 50 33 32 0.7445524569727233 0.7984071003596401 0.969757105416382
3 39 20 7 0.7445524569727233 0.7984071003596401 0.969757105416382
3 39 40 20 0.7445524569727233 0.7984071003596401 0.969757105416382
3 41 47 54 0.7445524569727233 0.7984071003596401 0.969757105416382
3 41 40 47 0.7445524569727233 0.7984071003596401 0.969757105416382
3 20 40 41 0.7445524569727233 0.7984071003596401 0.969757105416382
3 54 38 41 0.7445524569727233 0.7984071003596401 0.969757105416382
3 41 38 20 0.7445524569727233 0.7984071003596401 0.969757105416382
3 53 38 50 0.7445524569727233 0.7984071003596401 0.969757105416382
3 25 38 53 0.7445524569727233 0.7984071003596401 0.969757105416382
3 50 23 53 0.7445524569727233 0.7984071003596401 0.969757105416382
3 20 38 27 0.7445524569727233 0.7984071003596401 0.969757105416382
3 26 6 27 0.7445524569727233 0.7984071003596401 0.969757105416382
3 27 6 20 0.7445524569727233 0.7984071003596401 0.969757105416382
3 27 37 26 0.7445524569727233 0.7984071003596401 0.969757105416382
3 38 37 27 0.7445524569727233 0.7984071003596401 0.969757105416382
3 45 13 14 0.7445524569727233 0.7984071003596401 0.969757105416382
3 31 13 45 0.7445524569727233 0.7984071003596401 0.969757105416382
3 45 44 31 0.7445524569727233 0.7984071003596401 0.969757105416382
3 28 8 9 0.7445524569727233 0.7984071003596401 0.969757105416382
3 52 24 25 0.7445524569727233 0.7984071003596401 0.969757105416382
3 52 48 17 0.7445524569727233 0.7984071003596401 0.969757105416382
3 51 17 0 0.7445524569727233 0.7984071003596401 0.969757105416382
3 0 2 51 0.7445524569727233 0.7984071003596401 0.969757105416382
3 2 24 51 0.7445524569727233 0.7984071003596401 0.969757105416382
3 51 52 17 0.7445524569727233 0.7984071003596401 0.969757105416382
3 24 52 51 0.7445524569727233 0.7984071003596401 0.969757105416382
3 46 22 47 0.7445524569727233 0.7984071003596401 0.969757105416382
3 47 44 46 0.7445524569727233 0.7984071003596401 0.969757105416382
3 14 22 46 0.7445524569727233 0.7984071003596401 0.969757105416382
3 46 45 14 0.7445524569727233 0.7984071003596401 0.969757105416382
3 44 45 46 0.7445524569727233 0.7984071003596401 0.969757105416382
3 31 44 29 0.7445524569727233 0.7984071003596401 0.969757105416382
3 8 28 29 0.7445524569727233 0.7984071003596401 0.969757105416382
3 29 28 31 0.7445524569727233 0.7984071003596401 0.969757105416382
3 21 44 40 0.7445524569727233 0.7984071003596401 0.969757105416382
3 40 39 21 0.7445524569727233 0.7984071003596401 0.969757105416382
3 21 29 44 0.7445524569727233 0.7984071003596401 0.969757105416382
3 21 39 7 0.7445524569727233 0.7984071003596401 0.969757105416382
3 7 8 21 0.7445524569727233 0.7984071003596401 0.969757105416382
3 8 29 21 0.7445524569727233 0.7984071003596401 0.969757105416382
3 49 23 16 0.7445524569727233 0.7984071003596401 0.969757105416382
3 49 53 23 0.7445524569727233 0.7984071003596401 0.969757105416382
3 16 48 49 0.7445524569727233 0.7984071003596401 0.969757105416382
3 25 53 49 0.7445524569727233 0.7984071003596401 0.969757105416382
3 49 52 25 0.7445524569727233 0.7984071003596401 0.969757105416382
3 48 52 49 0.7445524569727233 0.7984071003596401 0.969757105416382
3 12 13 30 0.7445524569727233 0.7984071003596401 0.969757105416382
3 9 12 30 0.7445524569727233 0.7984071003596401 0.969757105416382
3 43 13 31 0.7445524569727233 0.7984071003596401 0.969757105416382
3 31 28 43 0.7445524569727233 0.7984071003596401 0.969757105416382
3 43 30 13 0.7445524569727233 0.7984071003596401 0.969757105416382
3 43 28 9 0.7445524569727233 0.7984071003596401 0.969757105416382
3 9 30 43 0.7445524569727233 0.7984071003596401 0.969757105416382
