OFF
15 9 0


30.6936 34.7246 6.8151
30.6936 34.7246 6.8151
30.6295 34.8124 6.7494
30.5646 34.9008 6.6853
30.5486 34.8856 6.8005
30.5382 34.8735 6.8832
30.5254 34.8549 6.9984
30.5254 34.8549 6.9984
30.563 34.803 7.0381
30.6011 34.7508 7.0769
30.6011 34.7508 7.0769
30.6243 34.7443 7.0115
30.6474 34.7377 6.946
30.6705 34.7312 6.8806
30.6936 34.7246 6.8151
3 6 12 5 0.8581508538005913 0.5949949354031823 0.591235313417992
3 4 2 3 0.8581508538005913 0.5949949354031823 0.591235313417992
3 5 2 4 0.8581508538005913 0.5949949354031823 0.591235313417992
3 0 2 13 0.8581508538005913 0.5949949354031823 0.591235313417992
3 13 2 5 0.8581508538005913 0.5949949354031823 0.591235313417992
3 5 12 13 0.8581508538005913 0.5949949354031823 0.591235313417992
3 12 6 8 0.8581508538005913 0.5949949354031823 0.591235313417992
3 11 8 9 0.8581508538005913 0.5949949354031823 0.591235313417992
3 12 8 11 0.8581508538005913 0.5949949354031823 0.591235313417992
