OFF
453 843 0


28.3154 31.8876 6.5409
28.3154 31.8876 6.5409
28.4436 31.922 6.5789
28.5608 31.9543 6.6143
28.6691 31.9849 6.6477
28.77 32.0141 6.6796
28.865 32.0422 6.7102
28.955 32.0696 6.7398
29.0411 32.0964 6.7688
29.124 32.1229 6.7973
29.2044 32.1492 6.8256
29.2829 32.1756 6.8538
29.36 32.2023 6.8823
29.4363 32.2294 6.9111
29.5123 32.2572 6.9405
29.5884 32.2858 6.9707
29.6651 32.3155 7.0019
29.7429 32.3464 7.0344
29.8222 32.379 7.0685
29.9036 32.4134 7.1044
29.9877 32.4501 7.1426
30.0752 32.4894 7.1834
30.1667 32.5319 7.2273
30.2632 32.578 7.2749
30.3657 32.6286 7.3269
30.4754 32.6845 7.3842
30.4754 32.6845 7.3842
30.433 32.7276 7.5049
30.3908 32.7719 7.6252
30.2759 32.7277 7.5975
30.1681 32.686 7.5691
30.0664 32.6462 7.5398
29.9701 32.6082 7.5098
29.8784 32.5716 7.4788
29.7907 32.5364 7.447
29.7065 32.5022 7.4142
29.6253 32.4689 7.3805
29.5466 32.4363 7.3457
29.4701 32.4043 7.3099
29.3954 32.3728 7.2729
29.3221 32.3416 7.2348
29.2499 32.3106 7.1954
29.1783 32.2796 7.1546
29.1071 32.2486 7.1123
29.0359 32.2172 7.0682
28.9643 32.1854 7.0223
28.8918 32.153 6.9742
28.818 32.1198 6.9236
28.7424 32.0856 6.8702
28.6645 32.05 6.8136
28.5836 32.0129 6.7531
28.499 31.9738 6.6883
28.4099 31.9323 6.6183
28.3151 31.888 6.5421
28.3151 31.888 6.5421
28.3152 31.8878 6.5415
28.3154 31.8876 6.5409
28.6374 31.9831 6.6564
28.7096 32.0105 6.696
28.7781 32.0367 6.7335
28.8431 32.0618 6.7691
28.9052 32.086 6.8031
28.8218 32.0358 6.7126
28.8716 32.0568 6.7442
28.9196 32.0772 6.7747
28.9658 32.097 6.8041
29.0105 32.1163 6.8325
28.9876 32.0855 6.7656
29.0194 32.1012 6.7906
29.0504 32.1165 6.8151
29.0806 32.1315 6.8389
29.1102 32.1463 6.8622
29.1409 32.1339 6.817
29.1576 32.1447 6.8364
29.1741 32.1555 6.8555
29.1903 32.1661 6.8743
29.2063 32.1766 6.8928
29.2864 32.1821 6.8682
29.29 32.1886 6.8825
29.2935 32.195 6.8967
29.2969 32.2014 6.9107
29.3004 32.2077 6.9247
29.4278 32.2316 6.9206
29.4193 32.2337 6.9301
29.4109 32.2358 6.9396
29.4024 32.238 6.949
29.394 32.2401 6.9584
29.5684 32.2834 6.9755
29.5484 32.2811 6.9803
29.5284 32.2789 6.9851
29.5084 32.2766 6.9899
29.4883 32.2744 6.9946
29.7111 32.3392 7.0344
29.6795 32.3321 7.0343
29.6478 32.325 7.0343
29.6162 32.3181 7.0342
29.5845 32.3111 7.0341
29.3903 32.3641 7.2551
29.3852 32.3553 7.2372
29.3801 32.3465 7.2192
29.375 32.3377 7.2011
29.3698 32.3289 7.1829
29.2558 32.3065 7.1831
29.2617 32.3024 7.1707
29.2676 32.2983 7.1583
29.2735 32.2942 7.1459
29.2794 32.2901 7.1335
29.1245 32.2491 7.1061
29.1417 32.2497 7.0998
29.1589 32.2503 7.0937
29.176 32.251 7.0875
29.193 32.2516 7.0814
28.9942 32.1911 7.0232
29.0237 32.1967 7.0241
29.0528 32.2023 7.025
29.0816 32.2079 7.0259
29.11 32.2134 7.0267
28.8623 32.1312 6.9332
28.9056 32.1425 6.9426
28.9478 32.1535 6.9517
28.989 32.1644 6.9606
29.0293 32.1751 6.9692
28.7261 32.0683 6.8341
28.7852 32.086 6.8538
28.8421 32.1032 6.8727
28.897 32.12 6.8909
28.9501 32.1363 6.9085
28.5819 32.0006 6.723
28.66 32.0261 6.7557
28.734 32.0505 6.7866
28.8042 32.074 6.8159
28.8713 32.0965 6.8438
28.4252 31.9259 6.5959
28.5268 31.9612 6.6454
28.621 31.9943 6.6912
28.709 32.0255 6.734
28.7916 32.0551 6.7741
28.4255 31.9255 6.5947
28.5271 31.9608 6.6444
28.6213 31.994 6.6904
28.7093 32.0252 6.7333
28.7918 32.0549 6.7735
28.8697 32.0832 6.8114
29.8591 32.4005 7.099
29.815 32.3879 7.0937
29.771 32.3754 7.0883
29.7272 32.3631 7.0829
29.6835 32.351 7.0775
29.6397 32.3391 7.0721
30.0158 32.4695 7.1716
29.9573 32.4501 7.1601
29.8997 32.4312 7.1486
29.8426 32.4128 7.1372
29.7859 32.3947 7.1259
29.7295 32.377 7.1146
30.185 32.5487 7.255
30.1092 32.5207 7.2357
30.0354 32.4939 7.2169
29.9632 32.468 7.1984
29.8923 32.443 7.1801
29.8221 32.4186 7.162
30.1939 32.6835 7.5492
30.1155 32.6418 7.5029
30.04 32.6022 7.4583
29.9668 32.5643 7.415
29.8953 32.5279 7.3725
29.825 32.4926 7.3308
30.0069 32.6126 7.4993
29.9488 32.5801 7.4597
29.8919 32.5487 7.4209
29.8358 32.5181 7.3826
29.7803 32.4882 7.3446
29.7251 32.4588 7.3068
29.8361 32.5461 7.4448
29.7943 32.5211 7.4111
29.7527 32.4964 7.3776
29.7114 32.4722 7.3443
29.6701 32.4481 7.3109
29.6287 32.4243 7.2775
29.6782 32.4831 7.3859
29.6499 32.4642 7.3576
29.6217 32.4454 7.3292
29.5933 32.4267 7.3008
29.5649 32.4081 7.2722
29.5363 32.3895 7.2435
29.5304 32.4227 7.3226
29.5141 32.4091 7.2995
29.4978 32.3955 7.2762
29.4814 32.3819 7.2529
29.4648 32.3683 7.2293
29.4482 32.3546 7.2056
30.3717 32.6419 7.3531
30.2736 32.6023 7.3235
30.18 32.5651 7.2952
30.0899 32.5299 7.2679
30.0027 32.4964 7.2413
29.9175 32.4642 7.2153
29.8336 32.4331 7.1896
28.9066 32.0609 6.7394
28.947 32.0792 6.7676
28.9861 32.0969 6.795
29.024 32.1143 6.8215
29.0609 32.1313 6.8473
29.0969 32.148 6.8724
29.1319 32.1643 6.8969
29.1661 32.1804 6.9208
30.2948 32.7211 7.5724
30.2042 32.6739 7.5224
30.1179 32.6295 7.4747
30.035 32.5875 7.4287
29.9546 32.5475 7.3841
29.8761 32.509 7.3405
29.7988 32.4717 7.2974
29.7221 32.4354 7.2546
28.795 32.1002 6.8849
28.8458 32.1146 6.8992
28.8951 32.1286 6.913
28.943 32.1423 6.9263
28.9896 32.1558 6.9393
29.035 32.1691 6.952
29.0793 32.1821 6.9643
29.1226 32.195 6.9764
28.5055 31.9643 6.6617
28.5946 31.9944 6.7023
28.6783 32.0229 6.7402
28.757 32.0501 6.7759
28.8316 32.0761 6.8097
28.9025 32.1011 6.8418
28.9701 32.1252 6.8723
29.0349 32.1485 6.9016
28.5356 31.9551 6.6264
28.6214 31.9862 6.6707
28.7019 32.0157 6.7122
28.7778 32.0438 6.7513
28.8497 32.0706 6.7883
28.918 32.0964 6.8234
28.9832 32.1213 6.8569
29.0456 32.1453 6.889
29.1056 32.1687 6.9197
29.2144 32.1579 6.8425
29.2243 32.1666 6.8593
29.2342 32.1751 6.8759
29.2439 32.1836 6.8923
29.2535 32.192 6.9085
29.263 32.2004 6.9246
29.2724 32.2087 6.9405
29.2818 32.2169 6.9563
29.291 32.2251 6.9719
29.498 32.2571 6.9477
29.4837 32.2571 6.9548
29.4695 32.257 6.9619
29.4552 32.257 6.9691
29.441 32.257 6.9762
29.4268 32.257 6.9833
29.4126 32.257 6.9904
29.3983 32.257 6.9975
29.3841 32.2571 7.0046
29.7843 32.3691 7.0659
29.7465 32.3593 7.0632
29.7088 32.3496 7.0606
29.6712 32.3401 7.0579
29.6336 32.3306 7.0553
29.5959 32.3213 7.0526
29.5582 32.312 7.0499
29.5203 32.3028 7.0471
29.4822 32.2937 7.0444
30.0985 32.5076 7.2118
30.0319 32.4842 7.1966
29.9665 32.4616 7.1816
29.9022 32.4396 7.1668
29.8386 32.4182 7.1522
29.7754 32.3973 7.1376
29.7126 32.3768 7.1231
29.6497 32.3565 7.1085
29.5866 32.3365 7.0938
30.3335 32.6812 7.463
30.2394 32.638 7.4233
30.1496 32.5973 7.3853
30.0632 32.5588 7.3487
29.9795 32.5221 7.3131
29.8976 32.4868 7.2782
29.817 32.4526 7.2438
29.7371 32.4193 7.2096
29.6573 32.3866 7.1754
29.9197 32.5788 7.4726
29.8701 32.5503 7.4361
29.8212 32.5224 7.3999
29.7727 32.4951 7.3641
29.7245 32.4682 7.3284
29.6764 32.4416 7.2928
29.6283 32.4153 7.2571
29.5798 32.3892 7.2211
29.5309 32.3631 7.1848
29.6032 32.4526 7.3548
29.5811 32.4364 7.3291
29.5589 32.4203 7.3033
29.5366 32.4042 7.2773
29.5142 32.3881 7.2513
29.4917 32.372 7.225
29.469 32.3559 7.1985
29.446 32.3397 7.1718
29.4229 32.3235 7.1447
29.3225 32.3352 7.2197
29.3229 32.3288 7.2045
29.3233 32.3223 7.1892
29.3237 32.3159 7.1739
29.324 32.3094 7.1585
29.3244 32.303 7.1431
29.3248 32.2965 7.1276
29.3252 32.29 7.112
29.3256 32.2835 7.0964
29.0594 32.2203 7.0654
29.0826 32.2233 7.0626
29.1056 32.2264 7.0599
29.1285 32.2294 7.0571
29.1511 32.2325 7.0544
29.1736 32.2356 7.0517
29.196 32.2387 7.049
29.2182 32.2418 7.0463
29.2402 32.2449 7.0436
29.0655 32.1098 6.7914
29.0895 32.123 6.8135
29.1129 32.136 6.8352
29.136 32.1488 6.8565
29.1586 32.1614 6.8774
29.1808 32.1739 6.8979
29.2027 32.1862 6.9181
29.2242 32.1984 6.938
29.2453 32.2104 6.9575
29.2662 32.2223 6.9768
30.0981 32.6474 7.5248
30.0305 32.6106 7.482
29.9648 32.5753 7.4404
29.9005 32.5412 7.3996
29.8372 32.5081 7.3593
29.7747 32.4758 7.3195
29.7125 32.4441 7.2799
29.6503 32.4129 7.2402
29.5878 32.3819 7.2002
29.5246 32.3511 7.1597
28.6552 32.0352 6.7802
28.7234 32.0566 6.806
28.7885 32.0772 6.8306
28.8508 32.0972 6.8542
28.9107 32.1166 6.8767
28.9684 32.1354 6.8985
29.0241 32.1538 6.9194
29.078 32.1718 6.9397
29.1304 32.1895 6.9594
29.1813 32.2068 6.9784
28.7324 32.0099 6.685
28.7928 32.034 6.7204
28.8504 32.0572 6.7543
28.9056 32.0795 6.7867
28.9587 32.1012 6.8178
29.0098 32.1223 6.8477
29.0591 32.1428 6.8766
29.1069 32.1628 6.9045
29.1533 32.1824 6.9316
29.1983 32.2016 6.9579
29.2423 32.2205 6.9835
29.6393 32.3107 7.0043
29.6135 32.3061 7.0067
29.5877 32.3015 7.0091
29.5619 32.2969 7.0115
29.5361 32.2924 7.0139
29.5103 32.2879 7.0163
29.4844 32.2835 7.0187
29.4585 32.2791 7.0211
29.4324 32.2747 7.0234
29.4063 32.2703 7.0258
29.3801 32.266 7.0282
30.2758 32.5933 7.3019
30.1896 32.56 7.2779
30.1065 32.5283 7.2546
30.0258 32.498 7.232
29.947 32.469 7.2098
29.8695 32.4409 7.1879
29.7929 32.4135 7.1662
29.7168 32.3869 7.1446
29.6406 32.3606 7.1229
29.5641 32.3347 7.101
29.4866 32.309 7.0789
29.7557 32.5142 7.4159
29.7209 32.4924 7.3849
29.6862 32.4708 7.354
29.6516 32.4494 7.3231
29.6168 32.4281 7.2922
29.582 32.4069 7.261
29.5469 32.3858 7.2297
29.5115 32.3647 7.1981
29.4758 32.3435 7.1661
29.4396 32.3223 7.1337
29.4028 32.3009 7.1008
29.4595 32.3932 7.2894
29.4489 32.3821 7.2689
29.4382 32.3709 7.2482
29.4275 32.3597 7.2274
29.4167 32.3485 7.2065
29.4058 32.3373 7.1855
29.3949 32.3261 7.1642
29.3839 32.3148 7.1429
29.3728 32.3034 7.1213
29.3615 32.292 7.0996
29.3502 32.2806 7.0776
28.9286 32.1615 6.9792
28.9648 32.1698 6.9841
29.0003 32.178 6.989
29.0351 32.1862 6.9937
29.0694 32.1943 6.9983
29.1031 32.2023 7.0029
29.1364 32.2103 7.0074
29.1692 32.2182 7.0118
29.2015 32.2261 7.0162
29.2335 32.234 7.0205
29.265 32.2418 7.0247
29.3574 32.2066 6.8942
29.3548 32.2109 6.906
29.3523 32.2152 6.9178
29.3497 32.2194 6.9296
29.3472 32.2237 6.9413
29.3446 32.2279 6.9529
29.3421 32.2322 6.9645
29.3396 32.2364 6.976
29.3371 32.2406 6.9875
29.3346 32.2448 6.9989
29.3321 32.249 7.0103
29.3297 32.2532 7.0217
29.9362 32.4339 7.1342
29.8851 32.4181 7.1258
29.8345 32.4026 7.1176
29.7843 32.3873 7.1093
29.7342 32.3724 7.101
29.6842 32.3576 7.0928
29.6342 32.343 7.0845
29.5841 32.3286 7.0761
29.5337 32.3143 7.0677
29.4829 32.3 7.0592
29.4317 32.2858 7.0506
29.3798 32.2716 7.0419
29.1899 32.2778 7.1452
29.2013 32.2761 7.1358
29.2128 32.2743 7.1265
29.2243 32.2725 7.1171
29.2357 32.2708 7.1078
29.2472 32.2691 7.0984
29.2586 32.2674 7.0891
29.2701 32.2657 7.0797
29.2815 32.264 7.0704
29.2929 32.2623 7.061
29.3043 32.2607 7.0517
29.3158 32.2591 7.0423
29.3272 32.2574 7.033
3 27 275 25 0.03035319135758685 0.5335947494086242 0.936428154722759
3 206 27 28 0.03035319135758685 0.5335947494086242 0.936428154722759
3 275 27 206 0.03035319135758685 0.5335947494086242 0.936428154722759
3 43 44 311 0.03035319135758685 0.5335947494086242 0.936428154722759
3 104 305 103 0.03035319135758685 0.5335947494086242 0.936428154722759
3 137 55 1 0.03035319135758685 0.5335947494086242 0.936428154722759
3 1 2 137 0.03035319135758685 0.5335947494086242 0.936428154722759
3 53 55 137 0.03035319135758685 0.5335947494086242 0.936428154722759
3 162 30 330 0.03035319135758685 0.5335947494086242 0.936428154722759
3 30 31 330 0.03035319135758685 0.5335947494086242 0.936428154722759
3 29 206 28 0.03035319135758685 0.5335947494086242 0.936428154722759
3 207 276 275 0.03035319135758685 0.5335947494086242 0.936428154722759
3 275 206 207 0.03035319135758685 0.5335947494086242 0.936428154722759
3 37 38 185 0.03035319135758685 0.5335947494086242 0.936428154722759
3 380 283 338 0.03035319135758685 0.5335947494086242 0.936428154722759
3 381 380 338 0.03035319135758685 0.5335947494086242 0.936428154722759
3 383 34 35 0.03035319135758685 0.5335947494086242 0.936428154722759
3 105 104 443 0.03035319135758685 0.5335947494086242 0.936428154722759
3 321 320 9 0.03035319135758685 0.5335947494086242 0.936428154722759
3 53 137 52 0.03035319135758685 0.5335947494086242 0.936428154722759
3 230 2 3 0.03035319135758685 0.5335947494086242 0.936428154722759
3 161 30 162 0.03035319135758685 0.5335947494086242 0.936428154722759
3 162 207 161 0.03035319135758685 0.5335947494086242 0.936428154722759
3 161 29 30 0.03035319135758685 0.5335947494086242 0.936428154722759
3 206 29 161 0.03035319135758685 0.5335947494086242 0.936428154722759
3 161 207 206 0.03035319135758685 0.5335947494086242 0.936428154722759
3 186 185 38 0.03035319135758685 0.5335947494086242 0.936428154722759
3 289 213 336 0.03035319135758685 0.5335947494086242 0.936428154722759
3 338 283 337 0.03035319135758685 0.5335947494086242 0.936428154722759
3 213 289 337 0.03035319135758685 0.5335947494086242 0.936428154722759
3 337 289 178 0.03035319135758685 0.5335947494086242 0.936428154722759
3 282 213 337 0.03035319135758685 0.5335947494086242 0.936428154722759
3 337 283 282 0.03035319135758685 0.5335947494086242 0.936428154722759
3 283 380 272 0.03035319135758685 0.5335947494086242 0.936428154722759
3 154 272 432 0.03035319135758685 0.5335947494086242 0.936428154722759
3 339 381 338 0.03035319135758685 0.5335947494086242 0.936428154722759
3 403 404 439 0.03035319135758685 0.5335947494086242 0.936428154722759
3 403 402 308 0.03035319135758685 0.5335947494086242 0.936428154722759
3 336 213 172 0.03035319135758685 0.5335947494086242 0.936428154722759
3 172 289 336 0.03035319135758685 0.5335947494086242 0.936428154722759
3 288 172 335 0.03035319135758685 0.5335947494086242 0.936428154722759
3 384 383 35 0.03035319135758685 0.5335947494086242 0.936428154722759
3 33 34 173 0.03035319135758685 0.5335947494086242 0.936428154722759
3 34 383 174 0.03035319135758685 0.5335947494086242 0.936428154722759
3 174 173 34 0.03035319135758685 0.5335947494086242 0.936428154722759
3 171 288 335 0.03035319135758685 0.5335947494086242 0.936428154722759
3 287 288 171 0.03035319135758685 0.5335947494086242 0.936428154722759
3 306 305 104 0.03035319135758685 0.5335947494086242 0.936428154722759
3 104 105 306 0.03035319135758685 0.5335947494086242 0.936428154722759
3 306 101 305 0.03035319135758685 0.5335947494086242 0.936428154722759
3 404 403 310 0.03035319135758685 0.5335947494086242 0.936428154722759
3 443 104 442 0.03035319135758685 0.5335947494086242 0.936428154722759
3 104 103 442 0.03035319135758685 0.5335947494086242 0.936428154722759
3 103 441 442 0.03035319135758685 0.5335947494086242 0.936428154722759
3 42 109 440 0.03035319135758685 0.5335947494086242 0.936428154722759
3 109 441 440 0.03035319135758685 0.5335947494086242 0.936428154722759
3 440 41 42 0.03035319135758685 0.5335947494086242 0.936428154722759
3 311 44 114 0.03035319135758685 0.5335947494086242 0.936428154722759
3 443 442 111 0.03035319135758685 0.5335947494086242 0.936428154722759
3 40 41 302 0.03035319135758685 0.5335947494086242 0.936428154722759
3 304 103 305 0.03035319135758685 0.5335947494086242 0.936428154722759
3 305 101 304 0.03035319135758685 0.5335947494086242 0.936428154722759
3 142 343 226 0.03035319135758685 0.5335947494086242 0.936428154722759
3 142 131 343 0.03035319135758685 0.5335947494086242 0.936428154722759
3 62 5 6 0.03035319135758685 0.5335947494086242 0.936428154722759
3 6 352 62 0.03035319135758685 0.5335947494086242 0.936428154722759
3 405 45 46 0.03035319135758685 0.5335947494086242 0.936428154722759
3 120 121 407 0.03035319135758685 0.5335947494086242 0.936428154722759
3 219 121 120 0.03035319135758685 0.5335947494086242 0.936428154722759
3 216 126 217 0.03035319135758685 0.5335947494086242 0.936428154722759
3 9 72 322 0.03035319135758685 0.5335947494086242 0.936428154722759
3 322 321 9 0.03035319135758685 0.5335947494086242 0.936428154722759
3 320 321 69 0.03035319135758685 0.5335947494086242 0.936428154722759
3 354 228 235 0.03035319135758685 0.5335947494086242 0.936428154722759
3 10 72 9 0.03035319135758685 0.5335947494086242 0.936428154722759
3 2 230 222 0.03035319135758685 0.5335947494086242 0.936428154722759
3 281 213 282 0.03035319135758685 0.5335947494086242 0.936428154722759
3 378 281 282 0.03035319135758685 0.5335947494086242 0.936428154722759
3 14 88 89 0.03035319135758685 0.5335947494086242 0.936428154722759
3 89 365 366 0.03035319135758685 0.5335947494086242 0.936428154722759
3 88 365 89 0.03035319135758685 0.5335947494086242 0.936428154722759
3 264 365 263 0.03035319135758685 0.5335947494086242 0.936428154722759
3 366 365 264 0.03035319135758685 0.5335947494086242 0.936428154722759
3 393 403 439 0.03035319135758685 0.5335947494086242 0.936428154722759
3 402 403 393 0.03035319135758685 0.5335947494086242 0.936428154722759
3 392 301 393 0.03035319135758685 0.5335947494086242 0.936428154722759
3 366 264 265 0.03035319135758685 0.5335947494086242 0.936428154722759
3 265 264 437 0.03035319135758685 0.5335947494086242 0.936428154722759
3 39 396 395 0.03035319135758685 0.5335947494086242 0.936428154722759
3 296 186 187 0.03035319135758685 0.5335947494086242 0.936428154722759
3 187 186 38 0.03035319135758685 0.5335947494086242 0.936428154722759
3 295 186 296 0.03035319135758685 0.5335947494086242 0.936428154722759
3 185 186 295 0.03035319135758685 0.5335947494086242 0.936428154722759
3 37 185 295 0.03035319135758685 0.5335947494086242 0.936428154722759
3 293 36 37 0.03035319135758685 0.5335947494086242 0.936428154722759
3 282 283 379 0.03035319135758685 0.5335947494086242 0.936428154722759
3 283 272 379 0.03035319135758685 0.5335947494086242 0.936428154722759
3 379 272 154 0.03035319135758685 0.5335947494086242 0.936428154722759
3 273 147 433 0.03035319135758685 0.5335947494086242 0.936428154722759
3 273 434 147 0.03035319135758685 0.5335947494086242 0.936428154722759
3 380 434 273 0.03035319135758685 0.5335947494086242 0.936428154722759
3 433 272 273 0.03035319135758685 0.5335947494086242 0.936428154722759
3 273 272 380 0.03035319135758685 0.5335947494086242 0.936428154722759
3 433 147 146 0.03035319135758685 0.5335947494086242 0.936428154722759
3 146 272 433 0.03035319135758685 0.5335947494086242 0.936428154722759
3 146 432 272 0.03035319135758685 0.5335947494086242 0.936428154722759
3 381 339 382 0.03035319135758685 0.5335947494086242 0.936428154722759
3 437 264 382 0.03035319135758685 0.5335947494086242 0.936428154722759
3 339 391 382 0.03035319135758685 0.5335947494086242 0.936428154722759
3 382 391 392 0.03035319135758685 0.5335947494086242 0.936428154722759
3 392 393 382 0.03035319135758685 0.5335947494086242 0.936428154722759
3 338 389 292 0.03035319135758685 0.5335947494086242 0.936428154722759
3 292 339 338 0.03035319135758685 0.5335947494086242 0.936428154722759
3 289 172 177 0.03035319135758685 0.5335947494086242 0.936428154722759
3 177 288 176 0.03035319135758685 0.5335947494086242 0.936428154722759
3 172 288 177 0.03035319135758685 0.5335947494086242 0.936428154722759
3 178 289 177 0.03035319135758685 0.5335947494086242 0.936428154722759
3 175 384 176 0.03035319135758685 0.5335947494086242 0.936428154722759
3 175 288 287 0.03035319135758685 0.5335947494086242 0.936428154722759
3 176 288 175 0.03035319135758685 0.5335947494086242 0.936428154722759
3 383 384 175 0.03035319135758685 0.5335947494086242 0.936428154722759
3 287 174 175 0.03035319135758685 0.5335947494086242 0.936428154722759
3 175 174 383 0.03035319135758685 0.5335947494086242 0.936428154722759
3 35 36 179 0.03035319135758685 0.5335947494086242 0.936428154722759
3 179 384 35 0.03035319135758685 0.5335947494086242 0.936428154722759
3 33 173 285 0.03035319135758685 0.5335947494086242 0.936428154722759
3 173 174 286 0.03035319135758685 0.5335947494086242 0.936428154722759
3 170 285 286 0.03035319135758685 0.5335947494086242 0.936428154722759
3 286 285 173 0.03035319135758685 0.5335947494086242 0.936428154722759
3 287 170 286 0.03035319135758685 0.5335947494086242 0.936428154722759
3 286 174 287 0.03035319135758685 0.5335947494086242 0.936428154722759
3 193 278 194 0.03035319135758685 0.5335947494086242 0.936428154722759
3 31 32 167 0.03035319135758685 0.5335947494086242 0.936428154722759
3 277 278 193 0.03035319135758685 0.5335947494086242 0.936428154722759
3 307 105 106 0.03035319135758685 0.5335947494086242 0.936428154722759
3 307 306 105 0.03035319135758685 0.5335947494086242 0.936428154722759
3 307 106 308 0.03035319135758685 0.5335947494086242 0.936428154722759
3 308 402 307 0.03035319135758685 0.5335947494086242 0.936428154722759
3 101 306 401 0.03035319135758685 0.5335947494086242 0.936428154722759
3 401 307 402 0.03035319135758685 0.5335947494086242 0.936428154722759
3 306 307 401 0.03035319135758685 0.5335947494086242 0.936428154722759
3 402 393 401 0.03035319135758685 0.5335947494086242 0.936428154722759
3 401 393 301 0.03035319135758685 0.5335947494086242 0.936428154722759
3 444 105 443 0.03035319135758685 0.5335947494086242 0.936428154722759
3 106 105 444 0.03035319135758685 0.5335947494086242 0.936428154722759
3 443 111 444 0.03035319135758685 0.5335947494086242 0.936428154722759
3 308 106 309 0.03035319135758685 0.5335947494086242 0.936428154722759
3 106 310 309 0.03035319135758685 0.5335947494086242 0.936428154722759
3 309 403 308 0.03035319135758685 0.5335947494086242 0.936428154722759
3 309 310 403 0.03035319135758685 0.5335947494086242 0.936428154722759
3 106 446 447 0.03035319135758685 0.5335947494086242 0.936428154722759
3 447 310 106 0.03035319135758685 0.5335947494086242 0.936428154722759
3 41 440 102 0.03035319135758685 0.5335947494086242 0.936428154722759
3 103 304 102 0.03035319135758685 0.5335947494086242 0.936428154722759
3 102 441 103 0.03035319135758685 0.5335947494086242 0.936428154722759
3 102 440 441 0.03035319135758685 0.5335947494086242 0.936428154722759
3 408 407 121 0.03035319135758685 0.5335947494086242 0.936428154722759
3 42 43 107 0.03035319135758685 0.5335947494086242 0.936428154722759
3 312 43 311 0.03035319135758685 0.5335947494086242 0.936428154722759
3 110 442 441 0.03035319135758685 0.5335947494086242 0.936428154722759
3 110 111 442 0.03035319135758685 0.5335947494086242 0.936428154722759
3 110 441 109 0.03035319135758685 0.5335947494086242 0.936428154722759
3 110 316 111 0.03035319135758685 0.5335947494086242 0.936428154722759
3 360 415 414 0.03035319135758685 0.5335947494086242 0.936428154722759
3 303 302 41 0.03035319135758685 0.5335947494086242 0.936428154722759
3 41 102 303 0.03035319135758685 0.5335947494086242 0.936428154722759
3 303 102 304 0.03035319135758685 0.5335947494086242 0.936428154722759
3 100 302 303 0.03035319135758685 0.5335947494086242 0.936428154722759
3 303 101 100 0.03035319135758685 0.5335947494086242 0.936428154722759
3 303 304 101 0.03035319135758685 0.5335947494086242 0.936428154722759
3 80 417 418 0.03035319135758685 0.5335947494086242 0.936428154722759
3 418 85 419 0.03035319135758685 0.5335947494086242 0.936428154722759
3 416 417 80 0.03035319135758685 0.5335947494086242 0.936428154722759
3 416 83 417 0.03035319135758685 0.5335947494086242 0.936428154722759
3 85 418 84 0.03035319135758685 0.5335947494086242 0.936428154722759
3 417 83 84 0.03035319135758685 0.5335947494086242 0.936428154722759
3 84 418 417 0.03035319135758685 0.5335947494086242 0.936428154722759
3 234 142 226 0.03035319135758685 0.5335947494086242 0.936428154722759
3 118 405 46 0.03035319135758685 0.5335947494086242 0.936428154722759
3 118 216 217 0.03035319135758685 0.5335947494086242 0.936428154722759
3 45 405 406 0.03035319135758685 0.5335947494086242 0.936428154722759
3 406 407 45 0.03035319135758685 0.5335947494086242 0.936428154722759
3 120 407 406 0.03035319135758685 0.5335947494086242 0.936428154722759
3 45 407 112 0.03035319135758685 0.5335947494086242 0.936428154722759
3 44 45 112 0.03035319135758685 0.5335947494086242 0.936428154722759
3 228 229 345 0.03035319135758685 0.5335947494086242 0.936428154722759
3 345 126 228 0.03035319135758685 0.5335947494086242 0.936428154722759
3 131 142 227 0.03035319135758685 0.5335947494086242 0.936428154722759
3 121 219 220 0.03035319135758685 0.5335947494086242 0.936428154722759
3 220 408 121 0.03035319135758685 0.5335947494086242 0.936428154722759
3 70 322 71 0.03035319135758685 0.5335947494086242 0.936428154722759
3 321 322 70 0.03035319135758685 0.5335947494086242 0.936428154722759
3 202 69 70 0.03035319135758685 0.5335947494086242 0.936428154722759
3 70 69 321 0.03035319135758685 0.5335947494086242 0.936428154722759
3 228 354 236 0.03035319135758685 0.5335947494086242 0.936428154722759
3 236 229 228 0.03035319135758685 0.5335947494086242 0.936428154722759
3 236 355 229 0.03035319135758685 0.5335947494086242 0.936428154722759
3 66 355 236 0.03035319135758685 0.5335947494086242 0.936428154722759
3 236 354 66 0.03035319135758685 0.5335947494086242 0.936428154722759
3 8 67 7 0.03035319135758685 0.5335947494086242 0.936428154722759
3 9 320 8 0.03035319135758685 0.5335947494086242 0.936428154722759
3 65 354 235 0.03035319135758685 0.5335947494086242 0.936428154722759
3 11 12 77 0.03035319135758685 0.5335947494086242 0.936428154722759
3 12 78 77 0.03035319135758685 0.5335947494086242 0.936428154722759
3 80 244 79 0.03035319135758685 0.5335947494086242 0.936428154722759
3 79 416 80 0.03035319135758685 0.5335947494086242 0.936428154722759
3 79 78 12 0.03035319135758685 0.5335947494086242 0.936428154722759
3 12 416 79 0.03035319135758685 0.5335947494086242 0.936428154722759
3 132 52 137 0.03035319135758685 0.5335947494086242 0.936428154722759
3 132 222 52 0.03035319135758685 0.5335947494086242 0.936428154722759
3 132 137 2 0.03035319135758685 0.5335947494086242 0.936428154722759
3 2 222 132 0.03035319135758685 0.5335947494086242 0.936428154722759
3 52 222 51 0.03035319135758685 0.5335947494086242 0.936428154722759
3 25 275 191 0.03035319135758685 0.5335947494086242 0.936428154722759
3 275 276 191 0.03035319135758685 0.5335947494086242 0.936428154722759
3 213 281 212 0.03035319135758685 0.5335947494086242 0.936428154722759
3 335 172 212 0.03035319135758685 0.5335947494086242 0.936428154722759
3 212 172 213 0.03035319135758685 0.5335947494086242 0.936428154722759
3 280 212 281 0.03035319135758685 0.5335947494086242 0.936428154722759
3 25 191 24 0.03035319135758685 0.5335947494086242 0.936428154722759
3 377 281 197 0.03035319135758685 0.5335947494086242 0.936428154722759
3 281 378 197 0.03035319135758685 0.5335947494086242 0.936428154722759
3 154 432 431 0.03035319135758685 0.5335947494086242 0.936428154722759
3 263 365 364 0.03035319135758685 0.5335947494086242 0.936428154722759
3 364 365 88 0.03035319135758685 0.5335947494086242 0.936428154722759
3 251 250 91 0.03035319135758685 0.5335947494086242 0.936428154722759
3 13 14 248 0.03035319135758685 0.5335947494086242 0.936428154722759
3 14 89 248 0.03035319135758685 0.5335947494086242 0.936428154722759
3 13 250 82 0.03035319135758685 0.5335947494086242 0.936428154722759
3 83 416 82 0.03035319135758685 0.5335947494086242 0.936428154722759
3 82 251 83 0.03035319135758685 0.5335947494086242 0.936428154722759
3 250 251 82 0.03035319135758685 0.5335947494086242 0.936428154722759
3 82 12 13 0.03035319135758685 0.5335947494086242 0.936428154722759
3 82 416 12 0.03035319135758685 0.5335947494086242 0.936428154722759
3 367 91 366 0.03035319135758685 0.5335947494086242 0.936428154722759
3 366 265 367 0.03035319135758685 0.5335947494086242 0.936428154722759
3 368 367 265 0.03035319135758685 0.5335947494086242 0.936428154722759
3 91 367 368 0.03035319135758685 0.5335947494086242 0.936428154722759
3 368 251 91 0.03035319135758685 0.5335947494086242 0.936428154722759
3 296 187 297 0.03035319135758685 0.5335947494086242 0.936428154722759
3 394 187 38 0.03035319135758685 0.5335947494086242 0.936428154722759
3 38 39 394 0.03035319135758685 0.5335947494086242 0.936428154722759
3 39 395 394 0.03035319135758685 0.5335947494086242 0.936428154722759
3 99 98 40 0.03035319135758685 0.5335947494086242 0.936428154722759
3 40 302 99 0.03035319135758685 0.5335947494086242 0.936428154722759
3 99 302 100 0.03035319135758685 0.5335947494086242 0.936428154722759
3 97 39 40 0.03035319135758685 0.5335947494086242 0.936428154722759
3 40 98 97 0.03035319135758685 0.5335947494086242 0.936428154722759
3 97 396 39 0.03035319135758685 0.5335947494086242 0.936428154722759
3 37 295 294 0.03035319135758685 0.5335947494086242 0.936428154722759
3 294 295 182 0.03035319135758685 0.5335947494086242 0.936428154722759
3 294 293 37 0.03035319135758685 0.5335947494086242 0.936428154722759
3 338 337 291 0.03035319135758685 0.5335947494086242 0.936428154722759
3 291 389 338 0.03035319135758685 0.5335947494086242 0.936428154722759
3 291 388 389 0.03035319135758685 0.5335947494086242 0.936428154722759
3 290 337 178 0.03035319135758685 0.5335947494086242 0.936428154722759
3 178 388 290 0.03035319135758685 0.5335947494086242 0.936428154722759
3 290 291 337 0.03035319135758685 0.5335947494086242 0.936428154722759
3 388 291 290 0.03035319135758685 0.5335947494086242 0.936428154722759
3 182 295 183 0.03035319135758685 0.5335947494086242 0.936428154722759
3 183 388 182 0.03035319135758685 0.5335947494086242 0.936428154722759
3 183 295 296 0.03035319135758685 0.5335947494086242 0.936428154722759
3 389 388 183 0.03035319135758685 0.5335947494086242 0.936428154722759
3 381 435 274 0.03035319135758685 0.5335947494086242 0.936428154722759
3 274 435 434 0.03035319135758685 0.5335947494086242 0.936428154722759
3 380 381 274 0.03035319135758685 0.5335947494086242 0.936428154722759
3 274 434 380 0.03035319135758685 0.5335947494086242 0.936428154722759
3 147 434 148 0.03035319135758685 0.5335947494086242 0.936428154722759
3 434 261 148 0.03035319135758685 0.5335947494086242 0.936428154722759
3 434 435 262 0.03035319135758685 0.5335947494086242 0.936428154722759
3 262 261 434 0.03035319135758685 0.5335947494086242 0.936428154722759
3 262 435 263 0.03035319135758685 0.5335947494086242 0.936428154722759
3 300 301 392 0.03035319135758685 0.5335947494086242 0.936428154722759
3 392 391 300 0.03035319135758685 0.5335947494086242 0.936428154722759
3 381 382 436 0.03035319135758685 0.5335947494086242 0.936428154722759
3 436 382 264 0.03035319135758685 0.5335947494086242 0.936428154722759
3 436 264 263 0.03035319135758685 0.5335947494086242 0.936428154722759
3 263 435 436 0.03035319135758685 0.5335947494086242 0.936428154722759
3 436 435 381 0.03035319135758685 0.5335947494086242 0.936428154722759
3 299 300 391 0.03035319135758685 0.5335947494086242 0.936428154722759
3 390 391 339 0.03035319135758685 0.5335947494086242 0.936428154722759
3 339 292 390 0.03035319135758685 0.5335947494086242 0.936428154722759
3 390 299 391 0.03035319135758685 0.5335947494086242 0.936428154722759
3 298 299 390 0.03035319135758685 0.5335947494086242 0.936428154722759
3 390 389 298 0.03035319135758685 0.5335947494086242 0.936428154722759
3 390 292 389 0.03035319135758685 0.5335947494086242 0.936428154722759
3 36 293 180 0.03035319135758685 0.5335947494086242 0.936428154722759
3 180 179 36 0.03035319135758685 0.5335947494086242 0.936428154722759
3 181 294 182 0.03035319135758685 0.5335947494086242 0.936428154722759
3 293 294 181 0.03035319135758685 0.5335947494086242 0.936428154722759
3 181 180 293 0.03035319135758685 0.5335947494086242 0.936428154722759
3 176 384 385 0.03035319135758685 0.5335947494086242 0.936428154722759
3 384 179 385 0.03035319135758685 0.5335947494086242 0.936428154722759
3 179 180 385 0.03035319135758685 0.5335947494086242 0.936428154722759
3 385 177 176 0.03035319135758685 0.5335947494086242 0.936428154722759
3 169 285 170 0.03035319135758685 0.5335947494086242 0.936428154722759
3 278 277 209 0.03035319135758685 0.5335947494086242 0.936428154722759
3 193 372 192 0.03035319135758685 0.5335947494086242 0.936428154722759
3 192 277 193 0.03035319135758685 0.5335947494086242 0.936428154722759
3 276 277 192 0.03035319135758685 0.5335947494086242 0.936428154722759
3 192 191 276 0.03035319135758685 0.5335947494086242 0.936428154722759
3 372 24 192 0.03035319135758685 0.5335947494086242 0.936428154722759
3 192 24 191 0.03035319135758685 0.5335947494086242 0.936428154722759
3 208 277 276 0.03035319135758685 0.5335947494086242 0.936428154722759
3 208 207 162 0.03035319135758685 0.5335947494086242 0.936428154722759
3 276 207 208 0.03035319135758685 0.5335947494086242 0.936428154722759
3 208 209 277 0.03035319135758685 0.5335947494086242 0.936428154722759
3 445 446 106 0.03035319135758685 0.5335947494086242 0.936428154722759
3 106 444 445 0.03035319135758685 0.5335947494086242 0.936428154722759
3 445 111 318 0.03035319135758685 0.5335947494086242 0.936428154722759
3 445 444 111 0.03035319135758685 0.5335947494086242 0.936428154722759
3 81 418 419 0.03035319135758685 0.5335947494086242 0.936428154722759
3 80 418 81 0.03035319135758685 0.5335947494086242 0.936428154722759
3 81 244 80 0.03035319135758685 0.5335947494086242 0.936428154722759
3 246 81 247 0.03035319135758685 0.5335947494086242 0.936428154722759
3 420 81 419 0.03035319135758685 0.5335947494086242 0.936428154722759
3 419 85 86 0.03035319135758685 0.5335947494086242 0.936428154722759
3 86 420 419 0.03035319135758685 0.5335947494086242 0.936428154722759
3 86 85 253 0.03035319135758685 0.5335947494086242 0.936428154722759
3 253 254 86 0.03035319135758685 0.5335947494086242 0.936428154722759
3 423 247 422 0.03035319135758685 0.5335947494086242 0.936428154722759
3 422 86 423 0.03035319135758685 0.5335947494086242 0.936428154722759
3 423 86 256 0.03035319135758685 0.5335947494086242 0.936428154722759
3 449 310 448 0.03035319135758685 0.5335947494086242 0.936428154722759
3 310 447 448 0.03035319135758685 0.5335947494086242 0.936428154722759
3 448 415 449 0.03035319135758685 0.5335947494086242 0.936428154722759
3 318 414 319 0.03035319135758685 0.5335947494086242 0.936428154722759
3 319 414 415 0.03035319135758685 0.5335947494086242 0.936428154722759
3 319 447 446 0.03035319135758685 0.5335947494086242 0.936428154722759
3 415 448 319 0.03035319135758685 0.5335947494086242 0.936428154722759
3 319 448 447 0.03035319135758685 0.5335947494086242 0.936428154722759
3 319 445 318 0.03035319135758685 0.5335947494086242 0.936428154722759
3 446 445 319 0.03035319135758685 0.5335947494086242 0.936428154722759
3 108 107 314 0.03035319135758685 0.5335947494086242 0.936428154722759
3 108 109 42 0.03035319135758685 0.5335947494086242 0.936428154722759
3 42 107 108 0.03035319135758685 0.5335947494086242 0.936428154722759
3 315 314 411 0.03035319135758685 0.5335947494086242 0.936428154722759
3 109 108 315 0.03035319135758685 0.5335947494086242 0.936428154722759
3 315 108 314 0.03035319135758685 0.5335947494086242 0.936428154722759
3 315 110 109 0.03035319135758685 0.5335947494086242 0.936428154722759
3 316 110 315 0.03035319135758685 0.5335947494086242 0.936428154722759
3 413 349 360 0.03035319135758685 0.5335947494086242 0.936428154722759
3 360 414 413 0.03035319135758685 0.5335947494086242 0.936428154722759
3 413 414 318 0.03035319135758685 0.5335947494086242 0.936428154722759
3 318 111 317 0.03035319135758685 0.5335947494086242 0.936428154722759
3 111 316 317 0.03035319135758685 0.5335947494086242 0.936428154722759
3 317 413 318 0.03035319135758685 0.5335947494086242 0.936428154722759
3 316 413 317 0.03035319135758685 0.5335947494086242 0.936428154722759
3 311 114 115 0.03035319135758685 0.5335947494086242 0.936428154722759
3 115 312 311 0.03035319135758685 0.5335947494086242 0.936428154722759
3 449 415 450 0.03035319135758685 0.5335947494086242 0.936428154722759
3 415 451 450 0.03035319135758685 0.5335947494086242 0.936428154722759
3 450 310 449 0.03035319135758685 0.5335947494086242 0.936428154722759
3 404 310 450 0.03035319135758685 0.5335947494086242 0.936428154722759
3 450 451 404 0.03035319135758685 0.5335947494086242 0.936428154722759
3 427 451 415 0.03035319135758685 0.5335947494086242 0.936428154722759
3 60 234 226 0.03035319135758685 0.5335947494086242 0.936428154722759
3 352 234 60 0.03035319135758685 0.5335947494086242 0.936428154722759
3 6 7 198 0.03035319135758685 0.5335947494086242 0.936428154722759
3 353 198 64 0.03035319135758685 0.5335947494086242 0.936428154722759
3 142 234 353 0.03035319135758685 0.5335947494086242 0.936428154722759
3 119 118 217 0.03035319135758685 0.5335947494086242 0.936428154722759
3 405 118 119 0.03035319135758685 0.5335947494086242 0.936428154722759
3 119 406 405 0.03035319135758685 0.5335947494086242 0.936428154722759
3 120 406 119 0.03035319135758685 0.5335947494086242 0.936428154722759
3 216 118 117 0.03035319135758685 0.5335947494086242 0.936428154722759
3 117 46 47 0.03035319135758685 0.5335947494086242 0.936428154722759
3 117 118 46 0.03035319135758685 0.5335947494086242 0.936428154722759
3 407 408 113 0.03035319135758685 0.5335947494086242 0.936428154722759
3 113 112 407 0.03035319135758685 0.5335947494086242 0.936428154722759
3 113 408 114 0.03035319135758685 0.5335947494086242 0.936428154722759
3 113 114 44 0.03035319135758685 0.5335947494086242 0.936428154722759
3 44 112 113 0.03035319135758685 0.5335947494086242 0.936428154722759
3 218 219 120 0.03035319135758685 0.5335947494086242 0.936428154722759
3 120 119 218 0.03035319135758685 0.5335947494086242 0.936428154722759
3 218 119 217 0.03035319135758685 0.5335947494086242 0.936428154722759
3 217 126 218 0.03035319135758685 0.5335947494086242 0.936428154722759
3 126 345 218 0.03035319135758685 0.5335947494086242 0.936428154722759
3 47 48 214 0.03035319135758685 0.5335947494086242 0.936428154722759
3 343 131 125 0.03035319135758685 0.5335947494086242 0.936428154722759
3 125 124 343 0.03035319135758685 0.5335947494086242 0.936428154722759
3 126 216 125 0.03035319135758685 0.5335947494086242 0.936428154722759
3 347 220 219 0.03035319135758685 0.5335947494086242 0.936428154722759
3 114 408 409 0.03035319135758685 0.5335947494086242 0.936428154722759
3 408 220 409 0.03035319135758685 0.5335947494086242 0.936428154722759
3 409 115 114 0.03035319135758685 0.5335947494086242 0.936428154722759
3 320 69 68 0.03035319135758685 0.5335947494086242 0.936428154722759
3 68 8 320 0.03035319135758685 0.5335947494086242 0.936428154722759
3 67 8 68 0.03035319135758685 0.5335947494086242 0.936428154722759
3 67 65 199 0.03035319135758685 0.5335947494086242 0.936428154722759
3 199 65 64 0.03035319135758685 0.5335947494086242 0.936428154722759
3 7 67 199 0.03035319135758685 0.5335947494086242 0.936428154722759
3 199 198 7 0.03035319135758685 0.5335947494086242 0.936428154722759
3 64 198 199 0.03035319135758685 0.5335947494086242 0.936428154722759
3 72 10 73 0.03035319135758685 0.5335947494086242 0.936428154722759
3 10 74 73 0.03035319135758685 0.5335947494086242 0.936428154722759
3 244 328 327 0.03035319135758685 0.5335947494086242 0.936428154722759
3 350 4 5 0.03035319135758685 0.5335947494086242 0.936428154722759
3 350 58 4 0.03035319135758685 0.5335947494086242 0.936428154722759
3 5 59 350 0.03035319135758685 0.5335947494086242 0.936428154722759
3 5 62 351 0.03035319135758685 0.5335947494086242 0.936428154722759
3 351 59 5 0.03035319135758685 0.5335947494086242 0.936428154722759
3 196 281 377 0.03035319135758685 0.5335947494086242 0.936428154722759
3 196 280 281 0.03035319135758685 0.5335947494086242 0.936428154722759
3 212 280 166 0.03035319135758685 0.5335947494086242 0.936428154722759
3 166 171 335 0.03035319135758685 0.5335947494086242 0.936428154722759
3 335 212 166 0.03035319135758685 0.5335947494086242 0.936428154722759
3 23 372 193 0.03035319135758685 0.5335947494086242 0.936428154722759
3 23 24 372 0.03035319135758685 0.5335947494086242 0.936428154722759
3 193 194 374 0.03035319135758685 0.5335947494086242 0.936428154722759
3 145 431 432 0.03035319135758685 0.5335947494086242 0.936428154722759
3 432 146 145 0.03035319135758685 0.5335947494086242 0.936428154722759
3 271 378 282 0.03035319135758685 0.5335947494086242 0.936428154722759
3 282 379 271 0.03035319135758685 0.5335947494086242 0.936428154722759
3 271 379 154 0.03035319135758685 0.5335947494086242 0.936428154722759
3 154 431 271 0.03035319135758685 0.5335947494086242 0.936428154722759
3 249 250 13 0.03035319135758685 0.5335947494086242 0.936428154722759
3 13 248 249 0.03035319135758685 0.5335947494086242 0.936428154722759
3 91 250 249 0.03035319135758685 0.5335947494086242 0.936428154722759
3 90 248 89 0.03035319135758685 0.5335947494086242 0.936428154722759
3 366 91 90 0.03035319135758685 0.5335947494086242 0.936428154722759
3 90 89 366 0.03035319135758685 0.5335947494086242 0.936428154722759
3 91 249 90 0.03035319135758685 0.5335947494086242 0.936428154722759
3 90 249 248 0.03035319135758685 0.5335947494086242 0.936428154722759
3 438 265 437 0.03035319135758685 0.5335947494086242 0.936428154722759
3 438 368 265 0.03035319135758685 0.5335947494086242 0.936428154722759
3 437 382 438 0.03035319135758685 0.5335947494086242 0.936428154722759
3 438 382 393 0.03035319135758685 0.5335947494086242 0.936428154722759
3 438 393 439 0.03035319135758685 0.5335947494086242 0.936428154722759
3 439 370 438 0.03035319135758685 0.5335947494086242 0.936428154722759
3 251 368 252 0.03035319135758685 0.5335947494086242 0.936428154722759
3 253 85 252 0.03035319135758685 0.5335947494086242 0.936428154722759
3 85 84 252 0.03035319135758685 0.5335947494086242 0.936428154722759
3 252 84 83 0.03035319135758685 0.5335947494086242 0.936428154722759
3 83 251 252 0.03035319135758685 0.5335947494086242 0.936428154722759
3 298 389 184 0.03035319135758685 0.5335947494086242 0.936428154722759
3 184 297 298 0.03035319135758685 0.5335947494086242 0.936428154722759
3 296 297 184 0.03035319135758685 0.5335947494086242 0.936428154722759
3 184 183 296 0.03035319135758685 0.5335947494086242 0.936428154722759
3 389 183 184 0.03035319135758685 0.5335947494086242 0.936428154722759
3 298 297 188 0.03035319135758685 0.5335947494086242 0.936428154722759
3 188 297 187 0.03035319135758685 0.5335947494086242 0.936428154722759
3 188 395 396 0.03035319135758685 0.5335947494086242 0.936428154722759
3 188 394 395 0.03035319135758685 0.5335947494086242 0.936428154722759
3 187 394 188 0.03035319135758685 0.5335947494086242 0.936428154722759
3 100 101 399 0.03035319135758685 0.5335947494086242 0.936428154722759
3 301 300 399 0.03035319135758685 0.5335947494086242 0.936428154722759
3 189 299 298 0.03035319135758685 0.5335947494086242 0.936428154722759
3 298 188 189 0.03035319135758685 0.5335947494086242 0.936428154722759
3 189 188 396 0.03035319135758685 0.5335947494086242 0.936428154722759
3 387 181 182 0.03035319135758685 0.5335947494086242 0.936428154722759
3 387 388 178 0.03035319135758685 0.5335947494086242 0.936428154722759
3 182 388 387 0.03035319135758685 0.5335947494086242 0.936428154722759
3 180 181 386 0.03035319135758685 0.5335947494086242 0.936428154722759
3 177 385 386 0.03035319135758685 0.5335947494086242 0.936428154722759
3 386 385 180 0.03035319135758685 0.5335947494086242 0.936428154722759
3 181 387 386 0.03035319135758685 0.5335947494086242 0.936428154722759
3 178 177 386 0.03035319135758685 0.5335947494086242 0.936428154722759
3 386 387 178 0.03035319135758685 0.5335947494086242 0.936428154722759
3 280 195 279 0.03035319135758685 0.5335947494086242 0.936428154722759
3 210 165 279 0.03035319135758685 0.5335947494086242 0.936428154722759
3 278 210 279 0.03035319135758685 0.5335947494086242 0.936428154722759
3 279 194 278 0.03035319135758685 0.5335947494086242 0.936428154722759
3 375 194 279 0.03035319135758685 0.5335947494086242 0.936428154722759
3 279 195 375 0.03035319135758685 0.5335947494086242 0.936428154722759
3 164 210 278 0.03035319135758685 0.5335947494086242 0.936428154722759
3 278 209 164 0.03035319135758685 0.5335947494086242 0.936428154722759
3 209 332 164 0.03035319135758685 0.5335947494086242 0.936428154722759
3 164 332 169 0.03035319135758685 0.5335947494086242 0.936428154722759
3 209 208 163 0.03035319135758685 0.5335947494086242 0.936428154722759
3 163 332 209 0.03035319135758685 0.5335947494086242 0.936428154722759
3 244 81 245 0.03035319135758685 0.5335947494086242 0.936428154722759
3 245 81 246 0.03035319135758685 0.5335947494086242 0.936428154722759
3 245 328 244 0.03035319135758685 0.5335947494086242 0.936428154722759
3 246 328 245 0.03035319135758685 0.5335947494086242 0.936428154722759
3 329 415 360 0.03035319135758685 0.5335947494086242 0.936428154722759
3 329 247 415 0.03035319135758685 0.5335947494086242 0.936428154722759
3 246 247 329 0.03035319135758685 0.5335947494086242 0.936428154722759
3 360 328 329 0.03035319135758685 0.5335947494086242 0.936428154722759
3 329 328 246 0.03035319135758685 0.5335947494086242 0.936428154722759
3 421 86 422 0.03035319135758685 0.5335947494086242 0.936428154722759
3 420 86 421 0.03035319135758685 0.5335947494086242 0.936428154722759
3 81 420 421 0.03035319135758685 0.5335947494086242 0.936428154722759
3 422 247 421 0.03035319135758685 0.5335947494086242 0.936428154722759
3 421 247 81 0.03035319135758685 0.5335947494086242 0.936428154722759
3 256 86 255 0.03035319135758685 0.5335947494086242 0.936428154722759
3 255 86 254 0.03035319135758685 0.5335947494086242 0.936428154722759
3 255 370 256 0.03035319135758685 0.5335947494086242 0.936428154722759
3 254 370 255 0.03035319135758685 0.5335947494086242 0.936428154722759
3 425 247 424 0.03035319135758685 0.5335947494086242 0.936428154722759
3 247 423 424 0.03035319135758685 0.5335947494086242 0.936428154722759
3 424 256 425 0.03035319135758685 0.5335947494086242 0.936428154722759
3 424 423 256 0.03035319135758685 0.5335947494086242 0.936428154722759
3 412 315 411 0.03035319135758685 0.5335947494086242 0.936428154722759
3 316 315 412 0.03035319135758685 0.5335947494086242 0.936428154722759
3 412 413 316 0.03035319135758685 0.5335947494086242 0.936428154722759
3 411 349 412 0.03035319135758685 0.5335947494086242 0.936428154722759
3 349 413 412 0.03035319135758685 0.5335947494086242 0.936428154722759
3 411 314 116 0.03035319135758685 0.5335947494086242 0.936428154722759
3 426 427 415 0.03035319135758685 0.5335947494086242 0.936428154722759
3 426 247 425 0.03035319135758685 0.5335947494086242 0.936428154722759
3 415 247 426 0.03035319135758685 0.5335947494086242 0.936428154722759
3 425 256 426 0.03035319135758685 0.5335947494086242 0.936428154722759
3 451 427 452 0.03035319135758685 0.5335947494086242 0.936428154722759
3 439 404 452 0.03035319135758685 0.5335947494086242 0.936428154722759
3 404 451 452 0.03035319135758685 0.5335947494086242 0.936428154722759
3 198 353 63 0.03035319135758685 0.5335947494086242 0.936428154722759
3 63 352 6 0.03035319135758685 0.5335947494086242 0.936428154722759
3 6 198 63 0.03035319135758685 0.5335947494086242 0.936428154722759
3 63 234 352 0.03035319135758685 0.5335947494086242 0.936428154722759
3 63 353 234 0.03035319135758685 0.5335947494086242 0.936428154722759
3 142 353 61 0.03035319135758685 0.5335947494086242 0.936428154722759
3 235 227 61 0.03035319135758685 0.5335947494086242 0.936428154722759
3 61 227 142 0.03035319135758685 0.5335947494086242 0.936428154722759
3 61 353 64 0.03035319135758685 0.5335947494086242 0.936428154722759
3 61 65 235 0.03035319135758685 0.5335947494086242 0.936428154722759
3 64 65 61 0.03035319135758685 0.5335947494086242 0.936428154722759
3 346 345 229 0.03035319135758685 0.5335947494086242 0.936428154722759
3 346 218 345 0.03035319135758685 0.5335947494086242 0.936428154722759
3 219 218 346 0.03035319135758685 0.5335947494086242 0.936428154722759
3 229 347 346 0.03035319135758685 0.5335947494086242 0.936428154722759
3 346 347 219 0.03035319135758685 0.5335947494086242 0.936428154722759
3 343 124 123 0.03035319135758685 0.5335947494086242 0.936428154722759
3 124 214 123 0.03035319135758685 0.5335947494086242 0.936428154722759
3 123 214 48 0.03035319135758685 0.5335947494086242 0.936428154722759
3 131 227 344 0.03035319135758685 0.5335947494086242 0.936428154722759
3 344 125 131 0.03035319135758685 0.5335947494086242 0.936428154722759
3 235 228 344 0.03035319135758685 0.5335947494086242 0.936428154722759
3 344 227 235 0.03035319135758685 0.5335947494086242 0.936428154722759
3 228 126 344 0.03035319135758685 0.5335947494086242 0.936428154722759
3 126 125 344 0.03035319135758685 0.5335947494086242 0.936428154722759
3 124 125 215 0.03035319135758685 0.5335947494086242 0.936428154722759
3 215 117 47 0.03035319135758685 0.5335947494086242 0.936428154722759
3 216 117 215 0.03035319135758685 0.5335947494086242 0.936428154722759
3 215 125 216 0.03035319135758685 0.5335947494086242 0.936428154722759
3 47 214 215 0.03035319135758685 0.5335947494086242 0.936428154722759
3 215 214 124 0.03035319135758685 0.5335947494086242 0.936428154722759
3 201 68 69 0.03035319135758685 0.5335947494086242 0.936428154722759
3 201 69 202 0.03035319135758685 0.5335947494086242 0.936428154722759
3 202 355 201 0.03035319135758685 0.5335947494086242 0.936428154722759
3 201 355 66 0.03035319135758685 0.5335947494086242 0.936428154722759
3 66 354 200 0.03035319135758685 0.5335947494086242 0.936428154722759
3 354 65 200 0.03035319135758685 0.5335947494086242 0.936428154722759
3 200 201 66 0.03035319135758685 0.5335947494086242 0.936428154722759
3 68 201 200 0.03035319135758685 0.5335947494086242 0.936428154722759
3 200 65 67 0.03035319135758685 0.5335947494086242 0.936428154722759
3 67 68 200 0.03035319135758685 0.5335947494086242 0.936428154722759
3 11 77 241 0.03035319135758685 0.5335947494086242 0.936428154722759
3 133 51 222 0.03035319135758685 0.5335947494086242 0.936428154722759
3 133 223 51 0.03035319135758685 0.5335947494086242 0.936428154722759
3 231 133 3 0.03035319135758685 0.5335947494086242 0.936428154722759
3 223 133 231 0.03035319135758685 0.5335947494086242 0.936428154722759
3 140 59 135 0.03035319135758685 0.5335947494086242 0.936428154722759
3 140 350 59 0.03035319135758685 0.5335947494086242 0.936428154722759
3 58 350 140 0.03035319135758685 0.5335947494086242 0.936428154722759
3 135 224 140 0.03035319135758685 0.5335947494086242 0.936428154722759
3 352 60 141 0.03035319135758685 0.5335947494086242 0.936428154722759
3 141 62 352 0.03035319135758685 0.5335947494086242 0.936428154722759
3 141 351 62 0.03035319135758685 0.5335947494086242 0.936428154722759
3 135 59 233 0.03035319135758685 0.5335947494086242 0.936428154722759
3 233 225 135 0.03035319135758685 0.5335947494086242 0.936428154722759
3 233 141 225 0.03035319135758685 0.5335947494086242 0.936428154722759
3 59 351 233 0.03035319135758685 0.5335947494086242 0.936428154722759
3 351 141 233 0.03035319135758685 0.5335947494086242 0.936428154722759
3 122 48 49 0.03035319135758685 0.5335947494086242 0.936428154722759
3 122 123 48 0.03035319135758685 0.5335947494086242 0.936428154722759
3 376 195 280 0.03035319135758685 0.5335947494086242 0.936428154722759
3 280 196 376 0.03035319135758685 0.5335947494086242 0.936428154722759
3 269 376 196 0.03035319135758685 0.5335947494086242 0.936428154722759
3 333 165 210 0.03035319135758685 0.5335947494086242 0.936428154722759
3 210 164 333 0.03035319135758685 0.5335947494086242 0.936428154722759
3 333 164 169 0.03035319135758685 0.5335947494086242 0.936428154722759
3 333 169 170 0.03035319135758685 0.5335947494086242 0.936428154722759
3 170 165 333 0.03035319135758685 0.5335947494086242 0.936428154722759
3 171 166 334 0.03035319135758685 0.5335947494086242 0.936428154722759
3 334 170 287 0.03035319135758685 0.5335947494086242 0.936428154722759
3 287 171 334 0.03035319135758685 0.5335947494086242 0.936428154722759
3 334 165 170 0.03035319135758685 0.5335947494086242 0.936428154722759
3 22 23 155 0.03035319135758685 0.5335947494086242 0.936428154722759
3 193 374 155 0.03035319135758685 0.5335947494086242 0.936428154722759
3 155 374 22 0.03035319135758685 0.5335947494086242 0.936428154722759
3 160 197 378 0.03035319135758685 0.5335947494086242 0.936428154722759
3 144 257 18 0.03035319135758685 0.5335947494086242 0.936428154722759
3 144 145 257 0.03035319135758685 0.5335947494086242 0.936428154722759
3 431 145 144 0.03035319135758685 0.5335947494086242 0.936428154722759
3 153 271 431 0.03035319135758685 0.5335947494086242 0.936428154722759
3 431 144 153 0.03035319135758685 0.5335947494086242 0.936428154722759
3 378 271 153 0.03035319135758685 0.5335947494086242 0.936428154722759
3 153 160 378 0.03035319135758685 0.5335947494086242 0.936428154722759
3 371 370 439 0.03035319135758685 0.5335947494086242 0.936428154722759
3 256 370 371 0.03035319135758685 0.5335947494086242 0.936428154722759
3 439 452 371 0.03035319135758685 0.5335947494086242 0.936428154722759
3 371 452 427 0.03035319135758685 0.5335947494086242 0.936428154722759
3 371 426 256 0.03035319135758685 0.5335947494086242 0.936428154722759
3 427 426 371 0.03035319135758685 0.5335947494086242 0.936428154722759
3 368 438 369 0.03035319135758685 0.5335947494086242 0.936428154722759
3 369 438 370 0.03035319135758685 0.5335947494086242 0.936428154722759
3 253 252 369 0.03035319135758685 0.5335947494086242 0.936428154722759
3 369 252 368 0.03035319135758685 0.5335947494086242 0.936428154722759
3 369 254 253 0.03035319135758685 0.5335947494086242 0.936428154722759
3 369 370 254 0.03035319135758685 0.5335947494086242 0.936428154722759
3 87 88 14 0.03035319135758685 0.5335947494086242 0.936428154722759
3 14 15 87 0.03035319135758685 0.5335947494086242 0.936428154722759
3 87 364 88 0.03035319135758685 0.5335947494086242 0.936428154722759
3 260 148 261 0.03035319135758685 0.5335947494086242 0.936428154722759
3 147 148 260 0.03035319135758685 0.5335947494086242 0.936428154722759
3 259 146 147 0.03035319135758685 0.5335947494086242 0.936428154722759
3 147 260 259 0.03035319135758685 0.5335947494086242 0.936428154722759
3 259 260 93 0.03035319135758685 0.5335947494086242 0.936428154722759
3 300 299 190 0.03035319135758685 0.5335947494086242 0.936428154722759
3 299 189 190 0.03035319135758685 0.5335947494086242 0.936428154722759
3 101 401 400 0.03035319135758685 0.5335947494086242 0.936428154722759
3 400 399 101 0.03035319135758685 0.5335947494086242 0.936428154722759
3 400 401 301 0.03035319135758685 0.5335947494086242 0.936428154722759
3 301 399 400 0.03035319135758685 0.5335947494086242 0.936428154722759
3 21 149 20 0.03035319135758685 0.5335947494086242 0.936428154722759
3 33 285 284 0.03035319135758685 0.5335947494086242 0.936428154722759
3 285 169 284 0.03035319135758685 0.5335947494086242 0.936428154722759
3 284 32 33 0.03035319135758685 0.5335947494086242 0.936428154722759
3 167 332 331 0.03035319135758685 0.5335947494086242 0.936428154722759
3 332 163 331 0.03035319135758685 0.5335947494086242 0.936428154722759
3 31 167 331 0.03035319135758685 0.5335947494086242 0.936428154722759
3 331 330 31 0.03035319135758685 0.5335947494086242 0.936428154722759
3 162 330 331 0.03035319135758685 0.5335947494086242 0.936428154722759
3 331 208 162 0.03035319135758685 0.5335947494086242 0.936428154722759
3 331 163 208 0.03035319135758685 0.5335947494086242 0.936428154722759
3 312 115 313 0.03035319135758685 0.5335947494086242 0.936428154722759
3 115 116 313 0.03035319135758685 0.5335947494086242 0.936428154722759
3 313 116 314 0.03035319135758685 0.5335947494086242 0.936428154722759
3 314 107 313 0.03035319135758685 0.5335947494086242 0.936428154722759
3 313 107 43 0.03035319135758685 0.5335947494086242 0.936428154722759
3 43 312 313 0.03035319135758685 0.5335947494086242 0.936428154722759
3 115 409 410 0.03035319135758685 0.5335947494086242 0.936428154722759
3 410 116 115 0.03035319135758685 0.5335947494086242 0.936428154722759
3 411 116 410 0.03035319135758685 0.5335947494086242 0.936428154722759
3 410 409 220 0.03035319135758685 0.5335947494086242 0.936428154722759
3 237 347 229 0.03035319135758685 0.5335947494086242 0.936428154722759
3 237 357 347 0.03035319135758685 0.5335947494086242 0.936428154722759
3 229 355 237 0.03035319135758685 0.5335947494086242 0.936428154722759
3 242 77 78 0.03035319135758685 0.5335947494086242 0.936428154722759
3 242 241 77 0.03035319135758685 0.5335947494086242 0.936428154722759
3 239 74 10 0.03035319135758685 0.5335947494086242 0.936428154722759
3 239 10 11 0.03035319135758685 0.5335947494086242 0.936428154722759
3 138 222 230 0.03035319135758685 0.5335947494086242 0.936428154722759
3 138 133 222 0.03035319135758685 0.5335947494086242 0.936428154722759
3 138 230 3 0.03035319135758685 0.5335947494086242 0.936428154722759
3 3 133 138 0.03035319135758685 0.5335947494086242 0.936428154722759
3 3 4 57 0.03035319135758685 0.5335947494086242 0.936428154722759
3 57 231 3 0.03035319135758685 0.5335947494086242 0.936428154722759
3 134 224 128 0.03035319135758685 0.5335947494086242 0.936428154722759
3 51 223 127 0.03035319135758685 0.5335947494086242 0.936428154722759
3 127 50 51 0.03035319135758685 0.5335947494086242 0.936428154722759
3 223 134 127 0.03035319135758685 0.5335947494086242 0.936428154722759
3 128 50 127 0.03035319135758685 0.5335947494086242 0.936428154722759
3 127 134 128 0.03035319135758685 0.5335947494086242 0.936428154722759
3 49 50 340 0.03035319135758685 0.5335947494086242 0.936428154722759
3 340 50 128 0.03035319135758685 0.5335947494086242 0.936428154722759
3 128 224 340 0.03035319135758685 0.5335947494086242 0.936428154722759
3 58 140 232 0.03035319135758685 0.5335947494086242 0.936428154722759
3 232 140 224 0.03035319135758685 0.5335947494086242 0.936428154722759
3 224 134 232 0.03035319135758685 0.5335947494086242 0.936428154722759
3 4 58 232 0.03035319135758685 0.5335947494086242 0.936428154722759
3 226 343 130 0.03035319135758685 0.5335947494086242 0.936428154722759
3 343 123 130 0.03035319135758685 0.5335947494086242 0.936428154722759
3 341 122 49 0.03035319135758685 0.5335947494086242 0.936428154722759
3 49 340 341 0.03035319135758685 0.5335947494086242 0.936428154722759
3 195 376 158 0.03035319135758685 0.5335947494086242 0.936428154722759
3 159 196 377 0.03035319135758685 0.5335947494086242 0.936428154722759
3 159 269 196 0.03035319135758685 0.5335947494086242 0.936428154722759
3 151 429 19 0.03035319135758685 0.5335947494086242 0.936428154722759
3 151 159 377 0.03035319135758685 0.5335947494086242 0.936428154722759
3 269 159 151 0.03035319135758685 0.5335947494086242 0.936428154722759
3 211 166 280 0.03035319135758685 0.5335947494086242 0.936428154722759
3 211 334 166 0.03035319135758685 0.5335947494086242 0.936428154722759
3 165 334 211 0.03035319135758685 0.5335947494086242 0.936428154722759
3 280 279 211 0.03035319135758685 0.5335947494086242 0.936428154722759
3 211 279 165 0.03035319135758685 0.5335947494086242 0.936428154722759
3 373 23 193 0.03035319135758685 0.5335947494086242 0.936428154722759
3 193 155 373 0.03035319135758685 0.5335947494086242 0.936428154722759
3 373 155 23 0.03035319135758685 0.5335947494086242 0.936428154722759
3 270 160 152 0.03035319135758685 0.5335947494086242 0.936428154722759
3 270 151 377 0.03035319135758685 0.5335947494086242 0.936428154722759
3 377 197 270 0.03035319135758685 0.5335947494086242 0.936428154722759
3 197 160 270 0.03035319135758685 0.5335947494086242 0.936428154722759
3 152 429 270 0.03035319135758685 0.5335947494086242 0.936428154722759
3 429 151 270 0.03035319135758685 0.5335947494086242 0.936428154722759
3 430 153 144 0.03035319135758685 0.5335947494086242 0.936428154722759
3 152 160 430 0.03035319135758685 0.5335947494086242 0.936428154722759
3 160 153 430 0.03035319135758685 0.5335947494086242 0.936428154722759
3 263 364 96 0.03035319135758685 0.5335947494086242 0.936428154722759
3 96 262 263 0.03035319135758685 0.5335947494086242 0.936428154722759
3 15 362 363 0.03035319135758685 0.5335947494086242 0.936428154722759
3 364 87 363 0.03035319135758685 0.5335947494086242 0.936428154722759
3 363 87 15 0.03035319135758685 0.5335947494086242 0.936428154722759
3 363 96 364 0.03035319135758685 0.5335947494086242 0.936428154722759
3 362 96 363 0.03035319135758685 0.5335947494086242 0.936428154722759
3 361 15 16 0.03035319135758685 0.5335947494086242 0.936428154722759
3 361 362 15 0.03035319135758685 0.5335947494086242 0.936428154722759
3 146 259 258 0.03035319135758685 0.5335947494086242 0.936428154722759
3 257 145 258 0.03035319135758685 0.5335947494086242 0.936428154722759
3 258 145 146 0.03035319135758685 0.5335947494086242 0.936428154722759
3 398 399 300 0.03035319135758685 0.5335947494086242 0.936428154722759
3 300 190 398 0.03035319135758685 0.5335947494086242 0.936428154722759
3 398 99 100 0.03035319135758685 0.5335947494086242 0.936428154722759
3 100 399 398 0.03035319135758685 0.5335947494086242 0.936428154722759
3 98 99 398 0.03035319135758685 0.5335947494086242 0.936428154722759
3 266 21 22 0.03035319135758685 0.5335947494086242 0.936428154722759
3 149 21 267 0.03035319135758685 0.5335947494086242 0.936428154722759
3 375 195 267 0.03035319135758685 0.5335947494086242 0.936428154722759
3 195 158 267 0.03035319135758685 0.5335947494086242 0.936428154722759
3 267 158 149 0.03035319135758685 0.5335947494086242 0.936428154722759
3 169 332 168 0.03035319135758685 0.5335947494086242 0.936428154722759
3 168 284 169 0.03035319135758685 0.5335947494086242 0.936428154722759
3 32 284 168 0.03035319135758685 0.5335947494086242 0.936428154722759
3 168 167 32 0.03035319135758685 0.5335947494086242 0.936428154722759
3 168 332 167 0.03035319135758685 0.5335947494086242 0.936428154722759
3 202 70 203 0.03035319135758685 0.5335947494086242 0.936428154722759
3 203 70 71 0.03035319135758685 0.5335947494086242 0.936428154722759
3 204 203 71 0.03035319135758685 0.5335947494086242 0.936428154722759
3 357 203 204 0.03035319135758685 0.5335947494086242 0.936428154722759
3 75 324 74 0.03035319135758685 0.5335947494086242 0.936428154722759
3 74 239 75 0.03035319135758685 0.5335947494086242 0.936428154722759
3 221 410 220 0.03035319135758685 0.5335947494086242 0.936428154722759
3 411 410 221 0.03035319135758685 0.5335947494086242 0.936428154722759
3 221 349 411 0.03035319135758685 0.5335947494086242 0.936428154722759
3 347 357 238 0.03035319135758685 0.5335947494086242 0.936428154722759
3 357 204 238 0.03035319135758685 0.5335947494086242 0.936428154722759
3 238 204 358 0.03035319135758685 0.5335947494086242 0.936428154722759
3 349 358 359 0.03035319135758685 0.5335947494086242 0.936428154722759
3 359 327 328 0.03035319135758685 0.5335947494086242 0.936428154722759
3 360 349 359 0.03035319135758685 0.5335947494086242 0.936428154722759
3 359 328 360 0.03035319135758685 0.5335947494086242 0.936428154722759
3 244 327 243 0.03035319135758685 0.5335947494086242 0.936428154722759
3 243 79 244 0.03035319135758685 0.5335947494086242 0.936428154722759
3 78 79 243 0.03035319135758685 0.5335947494086242 0.936428154722759
3 243 242 78 0.03035319135758685 0.5335947494086242 0.936428154722759
3 223 231 139 0.03035319135758685 0.5335947494086242 0.936428154722759
3 139 134 223 0.03035319135758685 0.5335947494086242 0.936428154722759
3 231 57 139 0.03035319135758685 0.5335947494086242 0.936428154722759
3 139 57 4 0.03035319135758685 0.5335947494086242 0.936428154722759
3 4 232 139 0.03035319135758685 0.5335947494086242 0.936428154722759
3 139 232 134 0.03035319135758685 0.5335947494086242 0.936428154722759
3 225 141 136 0.03035319135758685 0.5335947494086242 0.936428154722759
3 226 130 136 0.03035319135758685 0.5335947494086242 0.936428154722759
3 136 60 226 0.03035319135758685 0.5335947494086242 0.936428154722759
3 136 141 60 0.03035319135758685 0.5335947494086242 0.936428154722759
3 123 122 342 0.03035319135758685 0.5335947494086242 0.936428154722759
3 342 130 123 0.03035319135758685 0.5335947494086242 0.936428154722759
3 122 341 342 0.03035319135758685 0.5335947494086242 0.936428154722759
3 342 341 225 0.03035319135758685 0.5335947494086242 0.936428154722759
3 225 136 342 0.03035319135758685 0.5335947494086242 0.936428154722759
3 342 136 130 0.03035319135758685 0.5335947494086242 0.936428154722759
3 129 340 224 0.03035319135758685 0.5335947494086242 0.936428154722759
3 129 341 340 0.03035319135758685 0.5335947494086242 0.936428154722759
3 129 224 135 0.03035319135758685 0.5335947494086242 0.936428154722759
3 135 225 129 0.03035319135758685 0.5335947494086242 0.936428154722759
3 225 341 129 0.03035319135758685 0.5335947494086242 0.936428154722759
3 20 149 268 0.03035319135758685 0.5335947494086242 0.936428154722759
3 149 158 268 0.03035319135758685 0.5335947494086242 0.936428154722759
3 268 158 376 0.03035319135758685 0.5335947494086242 0.936428154722759
3 143 429 152 0.03035319135758685 0.5335947494086242 0.936428154722759
3 152 430 143 0.03035319135758685 0.5335947494086242 0.936428154722759
3 19 429 143 0.03035319135758685 0.5335947494086242 0.936428154722759
3 18 19 143 0.03035319135758685 0.5335947494086242 0.936428154722759
3 143 144 18 0.03035319135758685 0.5335947494086242 0.936428154722759
3 143 430 144 0.03035319135758685 0.5335947494086242 0.936428154722759
3 362 361 95 0.03035319135758685 0.5335947494086242 0.936428154722759
3 261 262 95 0.03035319135758685 0.5335947494086242 0.936428154722759
3 262 96 95 0.03035319135758685 0.5335947494086242 0.936428154722759
3 95 96 362 0.03035319135758685 0.5335947494086242 0.936428154722759
3 17 258 259 0.03035319135758685 0.5335947494086242 0.936428154722759
3 257 258 17 0.03035319135758685 0.5335947494086242 0.936428154722759
3 18 257 17 0.03035319135758685 0.5335947494086242 0.936428154722759
3 397 398 190 0.03035319135758685 0.5335947494086242 0.936428154722759
3 397 189 396 0.03035319135758685 0.5335947494086242 0.936428154722759
3 397 190 189 0.03035319135758685 0.5335947494086242 0.936428154722759
3 98 398 397 0.03035319135758685 0.5335947494086242 0.936428154722759
3 396 97 397 0.03035319135758685 0.5335947494086242 0.936428154722759
3 397 97 98 0.03035319135758685 0.5335947494086242 0.936428154722759
3 22 374 156 0.03035319135758685 0.5335947494086242 0.936428154722759
3 156 266 22 0.03035319135758685 0.5335947494086242 0.936428154722759
3 156 374 194 0.03035319135758685 0.5335947494086242 0.936428154722759
3 194 266 156 0.03035319135758685 0.5335947494086242 0.936428154722759
3 21 266 157 0.03035319135758685 0.5335947494086242 0.936428154722759
3 375 267 157 0.03035319135758685 0.5335947494086242 0.936428154722759
3 157 267 21 0.03035319135758685 0.5335947494086242 0.936428154722759
3 157 194 375 0.03035319135758685 0.5335947494086242 0.936428154722759
3 157 266 194 0.03035319135758685 0.5335947494086242 0.936428154722759
3 357 237 356 0.03035319135758685 0.5335947494086242 0.936428154722759
3 356 203 357 0.03035319135758685 0.5335947494086242 0.936428154722759
3 202 203 356 0.03035319135758685 0.5335947494086242 0.936428154722759
3 356 355 202 0.03035319135758685 0.5335947494086242 0.936428154722759
3 356 237 355 0.03035319135758685 0.5335947494086242 0.936428154722759
3 323 204 71 0.03035319135758685 0.5335947494086242 0.936428154722759
3 324 204 323 0.03035319135758685 0.5335947494086242 0.936428154722759
3 71 322 323 0.03035319135758685 0.5335947494086242 0.936428154722759
3 323 73 74 0.03035319135758685 0.5335947494086242 0.936428154722759
3 74 324 323 0.03035319135758685 0.5335947494086242 0.936428154722759
3 323 322 72 0.03035319135758685 0.5335947494086242 0.936428154722759
3 72 73 323 0.03035319135758685 0.5335947494086242 0.936428154722759
3 205 204 324 0.03035319135758685 0.5335947494086242 0.936428154722759
3 358 204 205 0.03035319135758685 0.5335947494086242 0.936428154722759
3 205 359 358 0.03035319135758685 0.5335947494086242 0.936428154722759
3 240 75 239 0.03035319135758685 0.5335947494086242 0.936428154722759
3 11 241 240 0.03035319135758685 0.5335947494086242 0.936428154722759
3 240 239 11 0.03035319135758685 0.5335947494086242 0.936428154722759
3 220 347 348 0.03035319135758685 0.5335947494086242 0.936428154722759
3 347 238 348 0.03035319135758685 0.5335947494086242 0.936428154722759
3 348 221 220 0.03035319135758685 0.5335947494086242 0.936428154722759
3 348 238 358 0.03035319135758685 0.5335947494086242 0.936428154722759
3 348 358 349 0.03035319135758685 0.5335947494086242 0.936428154722759
3 349 221 348 0.03035319135758685 0.5335947494086242 0.936428154722759
3 428 19 20 0.03035319135758685 0.5335947494086242 0.936428154722759
3 428 151 19 0.03035319135758685 0.5335947494086242 0.936428154722759
3 269 151 428 0.03035319135758685 0.5335947494086242 0.936428154722759
3 261 95 94 0.03035319135758685 0.5335947494086242 0.936428154722759
3 94 95 361 0.03035319135758685 0.5335947494086242 0.936428154722759
3 94 260 261 0.03035319135758685 0.5335947494086242 0.936428154722759
3 93 260 94 0.03035319135758685 0.5335947494086242 0.936428154722759
3 16 93 94 0.03035319135758685 0.5335947494086242 0.936428154722759
3 94 361 16 0.03035319135758685 0.5335947494086242 0.936428154722759
3 92 259 93 0.03035319135758685 0.5335947494086242 0.936428154722759
3 92 17 259 0.03035319135758685 0.5335947494086242 0.936428154722759
3 92 93 16 0.03035319135758685 0.5335947494086242 0.936428154722759
3 16 17 92 0.03035319135758685 0.5335947494086242 0.936428154722759
3 324 75 325 0.03035319135758685 0.5335947494086242 0.936428154722759
3 325 205 324 0.03035319135758685 0.5335947494086242 0.936428154722759
3 20 268 150 0.03035319135758685 0.5335947494086242 0.936428154722759
3 150 428 20 0.03035319135758685 0.5335947494086242 0.936428154722759
3 269 428 150 0.03035319135758685 0.5335947494086242 0.936428154722759
3 376 269 150 0.03035319135758685 0.5335947494086242 0.936428154722759
3 150 268 376 0.03035319135758685 0.5335947494086242 0.936428154722759
3 205 325 326 0.03035319135758685 0.5335947494086242 0.936428154722759
3 327 359 326 0.03035319135758685 0.5335947494086242 0.936428154722759
3 359 205 326 0.03035319135758685 0.5335947494086242 0.936428154722759
3 326 243 327 0.03035319135758685 0.5335947494086242 0.936428154722759
3 242 243 326 0.03035319135758685 0.5335947494086242 0.936428154722759
3 76 325 75 0.03035319135758685 0.5335947494086242 0.936428154722759
3 76 326 325 0.03035319135758685 0.5335947494086242 0.936428154722759
3 76 240 241 0.03035319135758685 0.5335947494086242 0.936428154722759
3 75 240 76 0.03035319135758685 0.5335947494086242 0.936428154722759
3 241 242 76 0.03035319135758685 0.5335947494086242 0.936428154722759
3 242 326 76 0.03035319135758685 0.5335947494086242 0.936428154722759
