OFF
27 22 0


27.5015 31.7358 11.3632
27.5015 31.7358 11.3632
27.3732 31.7014 11.3692
27.278 31.6765 11.3737
27.1951 31.6553 11.3777
27.1121 31.6345 11.3817
27.0165 31.6111 11.3864
26.8873 31.5803 11.3928
26.9235 31.4386 11.3758
26.9482 31.3342 11.3635
26.9673 31.2474 11.3533
26.9836 31.1677 11.3441
26.9988 31.0879 11.3349
27.014 31.0006 11.325
27.0305 30.8948 11.3131
27.0494 30.749 11.297
27.0494 30.749 11.297
27.1015 30.901 11.3085
27.1436 31.0119 11.3166
27.1802 31.102 11.323
27.2142 31.1809 11.3284
27.2477 31.2549 11.3334
27.2824 31.3284 11.3383
27.3206 31.4058 11.3433
27.3654 31.4926 11.3487
27.4221 31.5972 11.3551
27.5015 31.7358 11.3632
3 21 9 10 0.9675137103527033 0.20407353286012841 0.01984366537675808
3 24 25 3 0.9675137103527033 0.20407353286012841 0.01984366537675808
3 22 9 21 0.9675137103527033 0.20407353286012841 0.01984366537675808
3 5 22 23 0.9675137103527033 0.20407353286012841 0.01984366537675808
3 18 13 17 0.9675137103527033 0.20407353286012841 0.01984366537675808
3 11 19 20 0.9675137103527033 0.20407353286012841 0.01984366537675808
3 21 10 20 0.9675137103527033 0.20407353286012841 0.01984366537675808
3 20 10 11 0.9675137103527033 0.20407353286012841 0.01984366537675808
3 12 13 18 0.9675137103527033 0.20407353286012841 0.01984366537675808
3 18 19 12 0.9675137103527033 0.20407353286012841 0.01984366537675808
3 12 19 11 0.9675137103527033 0.20407353286012841 0.01984366537675808
3 2 25 0 0.9675137103527033 0.20407353286012841 0.01984366537675808
3 2 3 25 0.9675137103527033 0.20407353286012841 0.01984366537675808
3 9 22 8 0.9675137103527033 0.20407353286012841 0.01984366537675808
3 22 5 8 0.9675137103527033 0.20407353286012841 0.01984366537675808
3 24 3 4 0.9675137103527033 0.20407353286012841 0.01984366537675808
3 4 23 24 0.9675137103527033 0.20407353286012841 0.01984366537675808
3 4 5 23 0.9675137103527033 0.20407353286012841 0.01984366537675808
3 15 17 14 0.9675137103527033 0.20407353286012841 0.01984366537675808
3 14 17 13 0.9675137103527033 0.20407353286012841 0.01984366537675808
3 7 8 6 0.9675137103527033 0.20407353286012841 0.01984366537675808
3 6 8 5 0.9675137103527033 0.20407353286012841 0.01984366537675808
