OFF
348 615 0


26.9703 33.141 8.4778
26.9703 33.141 8.4778
26.9697 33.1406 8.4784
26.9691 33.1401 8.4789
26.9691 33.1401 8.4789
26.9163 33.0697 8.5279
26.8636 32.9994 8.5773
26.8636 32.9994 8.5773
26.8289 32.9369 8.6081
26.7945 32.8743 8.639
26.7945 32.8743 8.639
26.8697 32.7888 8.5486
26.9337 32.7168 8.4722
26.9901 32.6541 8.4055
27.0412 32.5977 8.3452
27.0889 32.5456 8.2894
27.1346 32.4962 8.2362
27.1795 32.4481 8.1843
27.2245 32.4003 8.1325
27.2709 32.3514 8.0793
27.3199 32.3003 8.0236
27.373 32.2455 7.9635
27.4322 32.185 7.8971
27.5003 32.1164 7.8212
27.5813 32.0358 7.7316
27.5813 32.0358 7.7316
27.6769 31.9887 7.6303
27.7447 31.9549 7.5587
27.8058 31.924 7.4946
27.8737 31.8893 7.4235
28.0094 31.8921 7.2873
27.9359 31.9841 7.3674
27.8709 32.0651 7.4388
27.8122 32.1379 7.5035
27.7586 32.2042 7.563
27.7087 32.2655 7.6186
27.6617 32.3231 7.6713
27.6169 32.3777 7.7217
27.5737 32.4302 7.7707
27.5314 32.4814 7.8187
27.4896 32.5317 7.8665
27.4479 32.5818 7.9144
27.4056 32.6323 7.9632
27.3624 32.6838 8.0133
27.3176 32.7369 8.0654
27.2706 32.7923 8.1204
27.2208 32.8508 8.179
27.1671 32.9135 8.2424
27.1085 32.9816 8.312
27.0436 33.0567 8.3897
26.9703 33.141 8.4778
27.9695 31.8398 7.3237
27.9695 31.8398 7.3237
27.9895 31.8659 7.3054
26.8823 32.8922 8.5456
26.9338 32.8492 8.4855
26.9837 32.8076 8.4275
27.1134 32.542 8.263
27.1376 32.5383 8.2369
27.1616 32.5347 8.211
27.1855 32.5311 8.1854
27.1952 32.4536 8.1682
27.2108 32.459 8.1521
27.2263 32.4644 8.1361
27.2418 32.4698 8.1203
27.2781 32.3657 8.073
27.2852 32.38 8.0667
27.2923 32.3943 8.0605
27.2994 32.4085 8.0542
27.7591 31.9827 7.5461
27.714 32.0396 7.5961
27.6702 32.0949 7.6448
27.6276 32.1489 7.6925
27.6745 32.2882 7.6553
27.6408 32.3107 7.6917
27.6075 32.3329 7.7277
27.5745 32.3549 7.7634
27.5921 32.3896 7.7482
27.5675 32.4014 7.7746
27.5429 32.4132 7.801
27.5185 32.4249 7.8272
27.5148 32.4837 7.8362
27.4982 32.486 7.8536
27.4816 32.4883 7.871
27.465 32.4906 7.8884
27.4389 32.575 7.9232
27.4299 32.5683 7.9319
27.4209 32.5615 7.9406
27.4119 32.5546 7.9494
27.3611 32.6677 8.0131
27.3598 32.6516 8.0129
27.3586 32.6356 8.0126
27.3573 32.6195 8.0124
27.2777 32.766 8.1102
27.2848 32.7398 8.1002
27.2919 32.7137 8.0901
27.299 32.6876 8.0801
26.9601 33.0119 8.4744
27.0025 32.9561 8.4228
27.0437 32.902 8.3729
27.0839 32.8494 8.3244
27.1232 32.7981 8.2772
26.9744 32.696 8.4264
27.0142 32.6757 8.3816
27.0533 32.6559 8.3378
27.0918 32.6363 8.2949
27.1296 32.6172 8.2527
27.0705 32.589 8.3132
27.0993 32.5804 8.2815
27.1279 32.572 8.2503
27.1562 32.5636 8.2194
27.1843 32.5553 8.1889
27.3707 32.2696 7.9679
27.3684 32.2937 7.9722
27.3662 32.3176 7.9766
27.364 32.3415 7.9809
27.3617 32.3653 7.9852
27.7049 32.0095 7.6031
27.6663 32.0628 7.6464
27.6287 32.1148 7.6888
27.5919 32.1658 7.7305
27.5558 32.2159 7.7715
27.8181 32.1092 7.4954
27.767 32.152 7.5504
27.7173 32.1937 7.6042
27.6689 32.2345 7.6568
27.6214 32.2745 7.7086
27.719 32.2331 7.6055
27.6802 32.2616 7.6474
27.6419 32.2896 7.6888
27.6043 32.3173 7.7297
27.567 32.3448 7.7703
27.1841 32.875 8.2204
27.2009 32.837 8.1986
27.2176 32.7993 8.1771
27.2342 32.762 8.1558
27.2507 32.725 8.1347
26.9177 32.7602 8.4938
26.9645 32.7325 8.4407
27.01 32.7055 8.389
27.0546 32.6792 8.3387
27.0983 32.6534 8.2895
27.1413 32.6281 8.2414
27.4859 32.153 7.8389
27.4717 32.1894 7.8564
27.4576 32.2254 7.8739
27.4436 32.2611 7.8912
27.4298 32.2966 7.9085
27.4161 32.332 7.9256
27.8748 32.0377 7.4328
27.8161 32.0894 7.496
27.7595 32.1394 7.5571
27.7047 32.1879 7.6166
27.6513 32.2353 7.6749
27.5992 32.2817 7.732
27.0733 33.0023 8.3519
27.1024 32.9492 8.3151
27.131 32.8973 8.2791
27.1591 32.8463 8.2439
27.1869 32.7962 8.2093
27.2143 32.7468 8.1754
26.8518 32.8359 8.5728
26.907 32.799 8.5093
26.9604 32.7633 8.4482
27.0122 32.7288 8.389
27.0628 32.6952 8.3315
27.1122 32.6624 8.2756
27.1607 32.6304 8.2209
27.236 32.4101 8.1212
27.2474 32.4199 8.11
27.2588 32.4297 8.0988
27.2701 32.4395 8.0877
27.2815 32.4492 8.0766
27.2928 32.4588 8.0656
27.304 32.4685 8.0546
27.6445 32.0392 7.667
27.6129 32.0886 7.7031
27.5819 32.1371 7.7386
27.5515 32.1849 7.7735
27.5216 32.232 7.8081
27.4921 32.2785 7.8423
27.463 32.3246 7.8763
27.938 31.9575 7.3634
27.8703 32.0197 7.4361
27.8056 32.0793 7.5058
27.7435 32.1367 7.5731
27.6836 32.1924 7.6385
27.6254 32.2466 7.7024
27.5685 32.2997 7.7651
27.5531 32.4372 7.7926
27.5325 32.4442 7.8144
27.512 32.4511 7.8362
27.4915 32.4581 7.858
27.4711 32.465 7.8798
27.4507 32.472 7.9016
27.4303 32.4789 7.9234
27.4004 32.621 7.9675
27.3953 32.6096 7.9718
27.3901 32.5982 7.9762
27.385 32.5868 7.9805
27.3798 32.5754 7.9848
27.3746 32.564 7.9892
27.3695 32.5526 7.9936
27.2326 32.8187 8.1632
27.2443 32.7869 8.1476
27.256 32.7553 8.1321
27.2676 32.7238 8.1167
27.2792 32.6925 8.1014
27.2908 32.6614 8.0862
27.3024 32.6303 8.0711
26.9131 32.9485 8.5182
26.961 32.8994 8.4614
27.0075 32.8519 8.4065
27.0527 32.8057 8.3533
27.0969 32.7607 8.3016
27.1402 32.7168 8.2511
27.1828 32.6737 8.2016
27.2248 32.6313 8.1531
27.1546 32.4972 8.2151
27.1745 32.4982 8.1941
27.1942 32.4992 8.1733
27.2138 32.5001 8.1526
27.2333 32.5011 8.132
27.2527 32.502 8.1116
27.2721 32.503 8.0913
27.2913 32.5039 8.0711
27.4244 32.2149 7.9076
27.4166 32.2446 7.918
27.4089 32.2742 7.9285
27.4012 32.3036 7.9389
27.3936 32.3329 7.9492
27.386 32.3621 7.9596
27.3785 32.3911 7.9699
27.371 32.4201 7.9802
27.7666 32.1738 7.5525
27.722 32.209 7.6006
27.6784 32.2435 7.6478
27.6356 32.2774 7.6944
27.5935 32.3109 7.7403
27.5519 32.3439 7.7859
27.5108 32.3767 7.8311
27.47 32.4093 7.8761
27.0083 33.0763 8.4297
27.0452 33.0137 8.3832
27.0811 32.9529 8.3383
27.1162 32.8938 8.2946
27.1506 32.836 8.252
27.1844 32.7793 8.2103
27.2178 32.7236 8.1694
27.2508 32.6687 8.1292
27.0246 32.6398 8.367
27.0586 32.6257 8.3293
27.0922 32.6119 8.2921
27.1253 32.5983 8.2556
27.158 32.5848 8.2195
27.1904 32.5715 8.1839
27.2225 32.5584 8.1487
27.2543 32.5453 8.1139
27.2859 32.5324 8.0794
27.5588 32.0808 7.7581
27.5367 32.1251 7.7842
27.5149 32.1689 7.8101
27.4934 32.2122 7.8357
27.4722 32.255 7.861
27.4512 32.2975 7.8863
27.4305 32.3397 7.9113
27.4099 32.3816 7.9363
27.3894 32.4234 7.9612
27.6324 32.3401 7.7027
27.6034 32.3571 7.7339
27.5746 32.3739 7.7649
27.5461 32.3906 7.7958
27.5176 32.4073 7.8266
27.4893 32.4239 7.8573
27.4611 32.4405 7.888
27.433 32.457 7.9187
27.4049 32.4736 7.9494
27.3204 32.7159 8.0604
27.3232 32.6949 8.0555
27.326 32.6739 8.0505
27.3288 32.653 8.0455
27.3316 32.6321 8.0406
27.3345 32.6112 8.0356
27.3373 32.5903 8.0307
27.3402 32.5694 8.0258
27.343 32.5486 8.0209
27.3225 32.3193 8.0224
27.3252 32.3383 8.0212
27.3278 32.3572 8.0201
27.3304 32.3761 8.0189
27.333 32.3949 8.0178
27.3357 32.4136 8.0166
27.3383 32.4323 8.0155
27.3409 32.451 8.0144
27.3435 32.4696 8.0133
27.3461 32.4882 8.0122
27.8189 31.9529 7.4833
27.7663 32.014 7.541
27.7156 32.0731 7.5969
27.6665 32.1305 7.6513
27.6187 32.1865 7.7045
27.5721 32.2414 7.7567
27.5264 32.2953 7.8082
27.4814 32.3486 7.8592
27.4369 32.4015 7.9098
27.3928 32.4541 7.9604
27.4769 32.5294 7.8795
27.4641 32.5272 7.8926
27.4513 32.5249 7.9057
27.4385 32.5227 7.9188
27.4257 32.5204 7.9319
27.4129 32.5181 7.945
27.4001 32.5159 7.9582
27.3873 32.5136 7.9714
27.3745 32.5113 7.9846
27.3616 32.509 7.9978
27.1314 32.9358 8.2828
27.1539 32.8907 8.254
27.1762 32.8464 8.2258
27.1982 32.8026 8.1979
27.2201 32.7594 8.1705
27.2417 32.7166 8.1434
27.2633 32.6742 8.1165
27.2847 32.632 8.0899
27.3061 32.5901 8.0635
27.3274 32.5484 8.0372
27.9025 31.9107 7.3959
27.8389 31.9782 7.4648
27.7781 32.0429 7.531
27.7197 32.1052 7.595
27.6633 32.1656 7.6571
27.6086 32.2245 7.7178
27.5552 32.2821 7.7774
27.5027 32.3389 7.8362
27.451 32.395 7.8946
27.3998 32.4509 7.9528
27.0083 33.0763 8.4297
27.0452 33.0137 8.3832
27.0811 32.9529 8.3383
27.1162 32.8938 8.2946
27.1506 32.836 8.252
27.1844 32.7793 8.2103
27.2178 32.7236 8.1694
27.2508 32.6687 8.1292
27.2836 32.6144 8.0894
27.3162 32.5604 8.0501
27.3488 32.5068 8.0111
27.3488 32.5068 8.0111
3 97 6 210 0.11118340341900379 0.6224919468860901 0.7842080461557522
3 30 31 182 0.11118340341900379 0.6224919468860901 0.7842080461557522
3 23 260 261 0.11118340341900379 0.6224919468860901 0.7842080461557522
3 23 261 143 0.11118340341900379 0.6224919468860901 0.7842080461557522
3 101 100 213 0.11118340341900379 0.6224919468860901 0.7842080461557522
3 210 6 8 0.11118340341900379 0.6224919468860901 0.7842080461557522
3 242 2 4 0.11118340341900379 0.6224919468860901 0.7842080461557522
3 0 2 242 0.11118340341900379 0.6224919468860901 0.7842080461557522
3 6 97 5 0.11118340341900379 0.6224919468860901 0.7842080461557522
3 5 242 4 0.11118340341900379 0.6224919468860901 0.7842080461557522
3 97 242 5 0.11118340341900379 0.6224919468860901 0.7842080461557522
3 98 97 210 0.11118340341900379 0.6224919468860901 0.7842080461557522
3 174 294 295 0.11118340341900379 0.6224919468860901 0.7842080461557522
3 30 182 53 0.11118340341900379 0.6224919468860901 0.7842080461557522
3 327 182 31 0.11118340341900379 0.6224919468860901 0.7842080461557522
3 32 149 31 0.11118340341900379 0.6224919468860901 0.7842080461557522
3 303 241 334 0.11118340341900379 0.6224919468860901 0.7842080461557522
3 294 174 293 0.11118340341900379 0.6224919468860901 0.7842080461557522
3 214 213 164 0.11118340341900379 0.6224919468860901 0.7842080461557522
3 214 215 101 0.11118340341900379 0.6224919468860901 0.7842080461557522
3 101 213 214 0.11118340341900379 0.6224919468860901 0.7842080461557522
3 0 242 49 0.11118340341900379 0.6224919468860901 0.7842080461557522
3 246 100 101 0.11118340341900379 0.6224919468860901 0.7842080461557522
3 246 245 100 0.11118340341900379 0.6224919468860901 0.7842080461557522
3 48 244 156 0.11118340341900379 0.6224919468860901 0.7842080461557522
3 156 244 245 0.11118340341900379 0.6224919468860901 0.7842080461557522
3 316 156 245 0.11118340341900379 0.6224919468860901 0.7842080461557522
3 316 47 48 0.11118340341900379 0.6224919468860901 0.7842080461557522
3 48 156 316 0.11118340341900379 0.6224919468860901 0.7842080461557522
3 132 47 317 0.11118340341900379 0.6224919468860901 0.7842080461557522
3 46 47 132 0.11118340341900379 0.6224919468860901 0.7842080461557522
3 203 45 46 0.11118340341900379 0.6224919468860901 0.7842080461557522
3 216 248 215 0.11118340341900379 0.6224919468860901 0.7842080461557522
3 343 216 217 0.11118340341900379 0.6224919468860901 0.7842080461557522
3 248 216 343 0.11118340341900379 0.6224919468860901 0.7842080461557522
3 101 215 247 0.11118340341900379 0.6224919468860901 0.7842080461557522
3 296 28 29 0.11118340341900379 0.6224919468860901 0.7842080461557522
3 29 327 296 0.11118340341900379 0.6224919468860901 0.7842080461557522
3 326 327 29 0.11118340341900379 0.6224919468860901 0.7842080461557522
3 182 327 326 0.11118340341900379 0.6224919468860901 0.7842080461557522
3 326 29 51 0.11118340341900379 0.6224919468860901 0.7842080461557522
3 51 53 326 0.11118340341900379 0.6224919468860901 0.7842080461557522
3 326 53 182 0.11118340341900379 0.6224919468860901 0.7842080461557522
3 31 149 183 0.11118340341900379 0.6224919468860901 0.7842080461557522
3 183 327 31 0.11118340341900379 0.6224919468860901 0.7842080461557522
3 23 24 259 0.11118340341900379 0.6224919468860901 0.7842080461557522
3 259 260 23 0.11118340341900379 0.6224919468860901 0.7842080461557522
3 262 261 179 0.11118340341900379 0.6224919468860901 0.7842080461557522
3 302 180 179 0.11118340341900379 0.6224919468860901 0.7842080461557522
3 302 179 332 0.11118340341900379 0.6224919468860901 0.7842080461557522
3 178 261 260 0.11118340341900379 0.6224919468860901 0.7842080461557522
3 178 179 261 0.11118340341900379 0.6224919468860901 0.7842080461557522
3 121 179 178 0.11118340341900379 0.6224919468860901 0.7842080461557522
3 144 261 262 0.11118340341900379 0.6224919468860901 0.7842080461557522
3 144 143 261 0.11118340341900379 0.6224919468860901 0.7842080461557522
3 262 179 263 0.11118340341900379 0.6224919468860901 0.7842080461557522
3 263 179 180 0.11118340341900379 0.6224919468860901 0.7842080461557522
3 263 180 264 0.11118340341900379 0.6224919468860901 0.7842080461557522
3 272 80 273 0.11118340341900379 0.6224919468860901 0.7842080461557522
3 274 241 273 0.11118340341900379 0.6224919468860901 0.7842080461557522
3 304 241 274 0.11118340341900379 0.6224919468860901 0.7842080461557522
3 334 241 304 0.11118340341900379 0.6224919468860901 0.7842080461557522
3 295 314 315 0.11118340341900379 0.6224919468860901 0.7842080461557522
3 315 346 295 0.11118340341900379 0.6224919468860901 0.7842080461557522
3 346 315 285 0.11118340341900379 0.6224919468860901 0.7842080461557522
3 168 62 18 0.11118340341900379 0.6224919468860901 0.7842080461557522
3 64 170 171 0.11118340341900379 0.6224919468860901 0.7842080461557522
3 286 19 20 0.11118340341900379 0.6224919468860901 0.7842080461557522
3 292 174 173 0.11118340341900379 0.6224919468860901 0.7842080461557522
3 292 293 174 0.11118340341900379 0.6224919468860901 0.7842080461557522
3 233 293 292 0.11118340341900379 0.6224919468860901 0.7842080461557522
3 292 291 233 0.11118340341900379 0.6224919468860901 0.7842080461557522
3 265 303 334 0.11118340341900379 0.6224919468860901 0.7842080461557522
3 20 21 112 0.11118340341900379 0.6224919468860901 0.7842080461557522
3 112 113 20 0.11118340341900379 0.6224919468860901 0.7842080461557522
3 21 228 112 0.11118340341900379 0.6224919468860901 0.7842080461557522
3 164 213 56 0.11118340341900379 0.6224919468860901 0.7842080461557522
3 54 8 9 0.11118340341900379 0.6224919468860901 0.7842080461557522
3 210 8 54 0.11118340341900379 0.6224919468860901 0.7842080461557522
3 97 98 243 0.11118340341900379 0.6224919468860901 0.7842080461557522
3 243 242 97 0.11118340341900379 0.6224919468860901 0.7842080461557522
3 243 49 242 0.11118340341900379 0.6224919468860901 0.7842080461557522
3 98 244 243 0.11118340341900379 0.6224919468860901 0.7842080461557522
3 164 102 139 0.11118340341900379 0.6224919468860901 0.7842080461557522
3 251 14 107 0.11118340341900379 0.6224919468860901 0.7842080461557522
3 58 57 16 0.11118340341900379 0.6224919468860901 0.7842080461557522
3 107 14 15 0.11118340341900379 0.6224919468860901 0.7842080461557522
3 16 57 15 0.11118340341900379 0.6224919468860901 0.7842080461557522
3 158 246 318 0.11118340341900379 0.6224919468860901 0.7842080461557522
3 158 132 317 0.11118340341900379 0.6224919468860901 0.7842080461557522
3 318 132 158 0.11118340341900379 0.6224919468860901 0.7842080461557522
3 317 47 157 0.11118340341900379 0.6224919468860901 0.7842080461557522
3 47 316 157 0.11118340341900379 0.6224919468860901 0.7842080461557522
3 157 316 245 0.11118340341900379 0.6224919468860901 0.7842080461557522
3 157 158 317 0.11118340341900379 0.6224919468860901 0.7842080461557522
3 245 246 157 0.11118340341900379 0.6224919468860901 0.7842080461557522
3 246 158 157 0.11118340341900379 0.6224919468860901 0.7842080461557522
3 207 208 96 0.11118340341900379 0.6224919468860901 0.7842080461557522
3 205 45 204 0.11118340341900379 0.6224919468860901 0.7842080461557522
3 45 203 204 0.11118340341900379 0.6224919468860901 0.7842080461557522
3 133 203 46 0.11118340341900379 0.6224919468860901 0.7842080461557522
3 46 132 133 0.11118340341900379 0.6224919468860901 0.7842080461557522
3 133 132 318 0.11118340341900379 0.6224919468860901 0.7842080461557522
3 322 208 207 0.11118340341900379 0.6224919468860901 0.7842080461557522
3 248 343 321 0.11118340341900379 0.6224919468860901 0.7842080461557522
3 321 136 248 0.11118340341900379 0.6224919468860901 0.7842080461557522
3 343 322 321 0.11118340341900379 0.6224919468860901 0.7842080461557522
3 321 322 207 0.11118340341900379 0.6224919468860901 0.7842080461557522
3 215 248 160 0.11118340341900379 0.6224919468860901 0.7842080461557522
3 160 247 215 0.11118340341900379 0.6224919468860901 0.7842080461557522
3 248 136 160 0.11118340341900379 0.6224919468860901 0.7842080461557522
3 176 259 24 0.11118340341900379 0.6224919468860901 0.7842080461557522
3 297 296 327 0.11118340341900379 0.6224919468860901 0.7842080461557522
3 35 36 73 0.11118340341900379 0.6224919468860901 0.7842080461557522
3 122 32 33 0.11118340341900379 0.6224919468860901 0.7842080461557522
3 154 332 301 0.11118340341900379 0.6224919468860901 0.7842080461557522
3 301 179 121 0.11118340341900379 0.6224919468860901 0.7842080461557522
3 301 332 179 0.11118340341900379 0.6224919468860901 0.7842080461557522
3 21 226 227 0.11118340341900379 0.6224919468860901 0.7842080461557522
3 227 228 21 0.11118340341900379 0.6224919468860901 0.7842080461557522
3 264 265 147 0.11118340341900379 0.6224919468860901 0.7842080461557522
3 147 265 148 0.11118340341900379 0.6224919468860901 0.7842080461557522
3 228 147 229 0.11118340341900379 0.6224919468860901 0.7842080461557522
3 113 112 229 0.11118340341900379 0.6224919468860901 0.7842080461557522
3 229 112 228 0.11118340341900379 0.6224919468860901 0.7842080461557522
3 229 148 230 0.11118340341900379 0.6224919468860901 0.7842080461557522
3 229 147 148 0.11118340341900379 0.6224919468860901 0.7842080461557522
3 143 144 22 0.11118340341900379 0.6224919468860901 0.7842080461557522
3 23 143 22 0.11118340341900379 0.6224919468860901 0.7842080461557522
3 22 226 21 0.11118340341900379 0.6224919468860901 0.7842080461557522
3 145 144 262 0.11118340341900379 0.6224919468860901 0.7842080461557522
3 262 263 145 0.11118340341900379 0.6224919468860901 0.7842080461557522
3 226 22 145 0.11118340341900379 0.6224919468860901 0.7842080461557522
3 145 22 144 0.11118340341900379 0.6224919468860901 0.7842080461557522
3 145 227 226 0.11118340341900379 0.6224919468860901 0.7842080461557522
3 38 189 79 0.11118340341900379 0.6224919468860901 0.7842080461557522
3 79 80 272 0.11118340341900379 0.6224919468860901 0.7842080461557522
3 272 271 79 0.11118340341900379 0.6224919468860901 0.7842080461557522
3 77 37 38 0.11118340341900379 0.6224919468860901 0.7842080461557522
3 239 271 240 0.11118340341900379 0.6224919468860901 0.7842080461557522
3 240 271 272 0.11118340341900379 0.6224919468860901 0.7842080461557522
3 241 303 240 0.11118340341900379 0.6224919468860901 0.7842080461557522
3 272 273 240 0.11118340341900379 0.6224919468860901 0.7842080461557522
3 240 273 241 0.11118340341900379 0.6224919468860901 0.7842080461557522
3 268 36 37 0.11118340341900379 0.6224919468860901 0.7842080461557522
3 188 239 302 0.11118340341900379 0.6224919468860901 0.7842080461557522
3 302 332 188 0.11118340341900379 0.6224919468860901 0.7842080461557522
3 188 332 154 0.11118340341900379 0.6224919468860901 0.7842080461557522
3 305 314 295 0.11118340341900379 0.6224919468860901 0.7842080461557522
3 305 276 314 0.11118340341900379 0.6224919468860901 0.7842080461557522
3 295 294 305 0.11118340341900379 0.6224919468860901 0.7842080461557522
3 305 293 233 0.11118340341900379 0.6224919468860901 0.7842080461557522
3 294 293 305 0.11118340341900379 0.6224919468860901 0.7842080461557522
3 233 267 305 0.11118340341900379 0.6224919468860901 0.7842080461557522
3 89 42 43 0.11118340341900379 0.6224919468860901 0.7842080461557522
3 92 282 283 0.11118340341900379 0.6224919468860901 0.7842080461557522
3 314 276 313 0.11118340341900379 0.6224919468860901 0.7842080461557522
3 276 312 313 0.11118340341900379 0.6224919468860901 0.7842080461557522
3 310 88 311 0.11118340341900379 0.6224919468860901 0.7842080461557522
3 311 88 312 0.11118340341900379 0.6224919468860901 0.7842080461557522
3 311 312 276 0.11118340341900379 0.6224919468860901 0.7842080461557522
3 284 200 283 0.11118340341900379 0.6224919468860901 0.7842080461557522
3 346 285 325 0.11118340341900379 0.6224919468860901 0.7842080461557522
3 285 284 325 0.11118340341900379 0.6224919468860901 0.7842080461557522
3 222 64 223 0.11118340341900379 0.6224919468860901 0.7842080461557522
3 64 224 223 0.11118340341900379 0.6224919468860901 0.7842080461557522
3 258 224 225 0.11118340341900379 0.6224919468860901 0.7842080461557522
3 173 174 225 0.11118340341900379 0.6224919468860901 0.7842080461557522
3 225 224 173 0.11118340341900379 0.6224919468860901 0.7842080461557522
3 225 174 295 0.11118340341900379 0.6224919468860901 0.7842080461557522
3 295 346 225 0.11118340341900379 0.6224919468860901 0.7842080461557522
3 346 325 225 0.11118340341900379 0.6224919468860901 0.7842080461557522
3 225 325 258 0.11118340341900379 0.6224919468860901 0.7842080461557522
3 62 168 63 0.11118340341900379 0.6224919468860901 0.7842080461557522
3 63 170 64 0.11118340341900379 0.6224919468860901 0.7842080461557522
3 63 64 222 0.11118340341900379 0.6224919468860901 0.7842080461557522
3 64 171 172 0.11118340341900379 0.6224919468860901 0.7842080461557522
3 173 224 172 0.11118340341900379 0.6224919468860901 0.7842080461557522
3 172 224 64 0.11118340341900379 0.6224919468860901 0.7842080461557522
3 168 66 169 0.11118340341900379 0.6224919468860901 0.7842080461557522
3 170 63 169 0.11118340341900379 0.6224919468860901 0.7842080461557522
3 169 63 168 0.11118340341900379 0.6224919468860901 0.7842080461557522
3 65 66 168 0.11118340341900379 0.6224919468860901 0.7842080461557522
3 18 19 65 0.11118340341900379 0.6224919468860901 0.7842080461557522
3 65 168 18 0.11118340341900379 0.6224919468860901 0.7842080461557522
3 232 267 233 0.11118340341900379 0.6224919468860901 0.7842080461557522
3 114 229 230 0.11118340341900379 0.6224919468860901 0.7842080461557522
3 113 229 114 0.11118340341900379 0.6224919468860901 0.7842080461557522
3 20 113 114 0.11118340341900379 0.6224919468860901 0.7842080461557522
3 114 286 20 0.11118340341900379 0.6224919468860901 0.7842080461557522
3 181 265 264 0.11118340341900379 0.6224919468860901 0.7842080461557522
3 303 265 181 0.11118340341900379 0.6224919468860901 0.7842080461557522
3 264 180 181 0.11118340341900379 0.6224919468860901 0.7842080461557522
3 164 56 163 0.11118340341900379 0.6224919468860901 0.7842080461557522
3 211 98 210 0.11118340341900379 0.6224919468860901 0.7842080461557522
3 210 54 211 0.11118340341900379 0.6224919468860901 0.7842080461557522
3 211 54 55 0.11118340341900379 0.6224919468860901 0.7842080461557522
3 212 213 100 0.11118340341900379 0.6224919468860901 0.7842080461557522
3 212 56 213 0.11118340341900379 0.6224919468860901 0.7842080461557522
3 55 56 212 0.11118340341900379 0.6224919468860901 0.7842080461557522
3 212 211 55 0.11118340341900379 0.6224919468860901 0.7842080461557522
3 55 54 161 0.11118340341900379 0.6224919468860901 0.7842080461557522
3 9 11 161 0.11118340341900379 0.6224919468860901 0.7842080461557522
3 161 54 9 0.11118340341900379 0.6224919468860901 0.7842080461557522
3 155 244 48 0.11118340341900379 0.6224919468860901 0.7842080461557522
3 155 243 244 0.11118340341900379 0.6224919468860901 0.7842080461557522
3 48 49 155 0.11118340341900379 0.6224919468860901 0.7842080461557522
3 49 243 155 0.11118340341900379 0.6224919468860901 0.7842080461557522
3 165 140 141 0.11118340341900379 0.6224919468860901 0.7842080461557522
3 215 214 165 0.11118340341900379 0.6224919468860901 0.7842080461557522
3 165 214 164 0.11118340341900379 0.6224919468860901 0.7842080461557522
3 164 139 165 0.11118340341900379 0.6224919468860901 0.7842080461557522
3 139 140 165 0.11118340341900379 0.6224919468860901 0.7842080461557522
3 252 251 107 0.11118340341900379 0.6224919468860901 0.7842080461557522
3 141 140 104 0.11118340341900379 0.6224919468860901 0.7842080461557522
3 110 58 59 0.11118340341900379 0.6224919468860901 0.7842080461557522
3 59 219 60 0.11118340341900379 0.6224919468860901 0.7842080461557522
3 109 58 110 0.11118340341900379 0.6224919468860901 0.7842080461557522
3 57 58 109 0.11118340341900379 0.6224919468860901 0.7842080461557522
3 61 219 17 0.11118340341900379 0.6224919468860901 0.7842080461557522
3 61 17 18 0.11118340341900379 0.6224919468860901 0.7842080461557522
3 18 62 61 0.11118340341900379 0.6224919468860901 0.7842080461557522
3 60 219 220 0.11118340341900379 0.6224919468860901 0.7842080461557522
3 220 61 62 0.11118340341900379 0.6224919468860901 0.7842080461557522
3 219 61 220 0.11118340341900379 0.6224919468860901 0.7842080461557522
3 222 223 257 0.11118340341900379 0.6224919468860901 0.7842080461557522
3 257 224 258 0.11118340341900379 0.6224919468860901 0.7842080461557522
3 257 223 224 0.11118340341900379 0.6224919468860901 0.7842080461557522
3 93 45 205 0.11118340341900379 0.6224919468860901 0.7842080461557522
3 93 44 45 0.11118340341900379 0.6224919468860901 0.7842080461557522
3 206 321 207 0.11118340341900379 0.6224919468860901 0.7842080461557522
3 136 321 206 0.11118340341900379 0.6224919468860901 0.7842080461557522
3 205 136 206 0.11118340341900379 0.6224919468860901 0.7842080461557522
3 277 96 278 0.11118340341900379 0.6224919468860901 0.7842080461557522
3 277 278 43 0.11118340341900379 0.6224919468860901 0.7842080461557522
3 43 44 277 0.11118340341900379 0.6224919468860901 0.7842080461557522
3 247 160 320 0.11118340341900379 0.6224919468860901 0.7842080461557522
3 27 117 26 0.11118340341900379 0.6224919468860901 0.7842080461557522
3 296 297 69 0.11118340341900379 0.6224919468860901 0.7842080461557522
3 27 28 69 0.11118340341900379 0.6224919468860901 0.7842080461557522
3 28 296 69 0.11118340341900379 0.6224919468860901 0.7842080461557522
3 69 117 27 0.11118340341900379 0.6224919468860901 0.7842080461557522
3 69 297 117 0.11118340341900379 0.6224919468860901 0.7842080461557522
3 327 183 328 0.11118340341900379 0.6224919468860901 0.7842080461557522
3 328 297 327 0.11118340341900379 0.6224919468860901 0.7842080461557522
3 153 300 330 0.11118340341900379 0.6224919468860901 0.7842080461557522
3 330 300 72 0.11118340341900379 0.6224919468860901 0.7842080461557522
3 72 299 330 0.11118340341900379 0.6224919468860901 0.7842080461557522
3 119 299 72 0.11118340341900379 0.6224919468860901 0.7842080461557522
3 35 73 128 0.11118340341900379 0.6224919468860901 0.7842080461557522
3 128 153 125 0.11118340341900379 0.6224919468860901 0.7842080461557522
3 36 268 74 0.11118340341900379 0.6224919468860901 0.7842080461557522
3 123 33 234 0.11118340341900379 0.6224919468860901 0.7842080461557522
3 234 33 34 0.11118340341900379 0.6224919468860901 0.7842080461557522
3 34 124 234 0.11118340341900379 0.6224919468860901 0.7842080461557522
3 186 153 330 0.11118340341900379 0.6224919468860901 0.7842080461557522
3 125 153 186 0.11118340341900379 0.6224919468860901 0.7842080461557522
3 124 34 235 0.11118340341900379 0.6224919468860901 0.7842080461557522
3 146 145 263 0.11118340341900379 0.6224919468860901 0.7842080461557522
3 227 145 146 0.11118340341900379 0.6224919468860901 0.7842080461557522
3 146 263 264 0.11118340341900379 0.6224919468860901 0.7842080461557522
3 264 147 146 0.11118340341900379 0.6224919468860901 0.7842080461557522
3 228 227 146 0.11118340341900379 0.6224919468860901 0.7842080461557522
3 146 147 228 0.11118340341900379 0.6224919468860901 0.7842080461557522
3 38 79 78 0.11118340341900379 0.6224919468860901 0.7842080461557522
3 78 79 271 0.11118340341900379 0.6224919468860901 0.7842080461557522
3 78 77 38 0.11118340341900379 0.6224919468860901 0.7842080461557522
3 37 77 269 0.11118340341900379 0.6224919468860901 0.7842080461557522
3 269 268 37 0.11118340341900379 0.6224919468860901 0.7842080461557522
3 75 268 269 0.11118340341900379 0.6224919468860901 0.7842080461557522
3 239 240 333 0.11118340341900379 0.6224919468860901 0.7842080461557522
3 333 240 303 0.11118340341900379 0.6224919468860901 0.7842080461557522
3 302 239 333 0.11118340341900379 0.6224919468860901 0.7842080461557522
3 333 180 302 0.11118340341900379 0.6224919468860901 0.7842080461557522
3 333 181 180 0.11118340341900379 0.6224919468860901 0.7842080461557522
3 303 181 333 0.11118340341900379 0.6224919468860901 0.7842080461557522
3 238 188 154 0.11118340341900379 0.6224919468860901 0.7842080461557522
3 80 79 190 0.11118340341900379 0.6224919468860901 0.7842080461557522
3 190 79 189 0.11118340341900379 0.6224919468860901 0.7842080461557522
3 274 273 192 0.11118340341900379 0.6224919468860901 0.7842080461557522
3 276 305 335 0.11118340341900379 0.6224919468860901 0.7842080461557522
3 267 304 335 0.11118340341900379 0.6224919468860901 0.7842080461557522
3 335 305 267 0.11118340341900379 0.6224919468860901 0.7842080461557522
3 90 91 42 0.11118340341900379 0.6224919468860901 0.7842080461557522
3 42 89 90 0.11118340341900379 0.6224919468860901 0.7842080461557522
3 89 280 90 0.11118340341900379 0.6224919468860901 0.7842080461557522
3 200 88 199 0.11118340341900379 0.6224919468860901 0.7842080461557522
3 199 198 92 0.11118340341900379 0.6224919468860901 0.7842080461557522
3 283 200 199 0.11118340341900379 0.6224919468860901 0.7842080461557522
3 199 92 283 0.11118340341900379 0.6224919468860901 0.7842080461557522
3 92 198 197 0.11118340341900379 0.6224919468860901 0.7842080461557522
3 202 284 285 0.11118340341900379 0.6224919468860901 0.7842080461557522
3 314 313 202 0.11118340341900379 0.6224919468860901 0.7842080461557522
3 202 315 314 0.11118340341900379 0.6224919468860901 0.7842080461557522
3 202 285 315 0.11118340341900379 0.6224919468860901 0.7842080461557522
3 312 88 202 0.11118340341900379 0.6224919468860901 0.7842080461557522
3 202 313 312 0.11118340341900379 0.6224919468860901 0.7842080461557522
3 68 172 171 0.11118340341900379 0.6224919468860901 0.7842080461557522
3 68 171 170 0.11118340341900379 0.6224919468860901 0.7842080461557522
3 173 172 68 0.11118340341900379 0.6224919468860901 0.7842080461557522
3 68 292 173 0.11118340341900379 0.6224919468860901 0.7842080461557522
3 291 292 68 0.11118340341900379 0.6224919468860901 0.7842080461557522
3 231 232 116 0.11118340341900379 0.6224919468860901 0.7842080461557522
3 230 148 231 0.11118340341900379 0.6224919468860901 0.7842080461557522
3 116 232 290 0.11118340341900379 0.6224919468860901 0.7842080461557522
3 290 289 116 0.11118340341900379 0.6224919468860901 0.7842080461557522
3 233 291 290 0.11118340341900379 0.6224919468860901 0.7842080461557522
3 290 232 233 0.11118340341900379 0.6224919468860901 0.7842080461557522
3 291 68 290 0.11118340341900379 0.6224919468860901 0.7842080461557522
3 66 65 288 0.11118340341900379 0.6224919468860901 0.7842080461557522
3 288 289 66 0.11118340341900379 0.6224919468860901 0.7842080461557522
3 116 289 288 0.11118340341900379 0.6224919468860901 0.7842080461557522
3 138 102 164 0.11118340341900379 0.6224919468860901 0.7842080461557522
3 164 163 138 0.11118340341900379 0.6224919468860901 0.7842080461557522
3 55 161 162 0.11118340341900379 0.6224919468860901 0.7842080461557522
3 162 161 11 0.11118340341900379 0.6224919468860901 0.7842080461557522
3 162 56 55 0.11118340341900379 0.6224919468860901 0.7842080461557522
3 162 163 56 0.11118340341900379 0.6224919468860901 0.7842080461557522
3 99 212 100 0.11118340341900379 0.6224919468860901 0.7842080461557522
3 100 245 99 0.11118340341900379 0.6224919468860901 0.7842080461557522
3 245 244 99 0.11118340341900379 0.6224919468860901 0.7842080461557522
3 99 244 98 0.11118340341900379 0.6224919468860901 0.7842080461557522
3 98 211 99 0.11118340341900379 0.6224919468860901 0.7842080461557522
3 211 212 99 0.11118340341900379 0.6224919468860901 0.7842080461557522
3 215 165 166 0.11118340341900379 0.6224919468860901 0.7842080461557522
3 166 165 141 0.11118340341900379 0.6224919468860901 0.7842080461557522
3 166 216 215 0.11118340341900379 0.6224919468860901 0.7842080461557522
3 166 142 216 0.11118340341900379 0.6224919468860901 0.7842080461557522
3 141 104 105 0.11118340341900379 0.6224919468860901 0.7842080461557522
3 105 104 251 0.11118340341900379 0.6224919468860901 0.7842080461557522
3 251 252 105 0.11118340341900379 0.6224919468860901 0.7842080461557522
3 103 104 140 0.11118340341900379 0.6224919468860901 0.7842080461557522
3 103 140 139 0.11118340341900379 0.6224919468860901 0.7842080461557522
3 103 102 13 0.11118340341900379 0.6224919468860901 0.7842080461557522
3 103 139 102 0.11118340341900379 0.6224919468860901 0.7842080461557522
3 251 104 250 0.11118340341900379 0.6224919468860901 0.7842080461557522
3 13 14 250 0.11118340341900379 0.6224919468860901 0.7842080461557522
3 14 251 250 0.11118340341900379 0.6224919468860901 0.7842080461557522
3 250 103 13 0.11118340341900379 0.6224919468860901 0.7842080461557522
3 104 103 250 0.11118340341900379 0.6224919468860901 0.7842080461557522
3 217 216 167 0.11118340341900379 0.6224919468860901 0.7842080461557522
3 216 142 167 0.11118340341900379 0.6224919468860901 0.7842080461557522
3 167 255 217 0.11118340341900379 0.6224919468860901 0.7842080461557522
3 111 59 60 0.11118340341900379 0.6224919468860901 0.7842080461557522
3 111 255 110 0.11118340341900379 0.6224919468860901 0.7842080461557522
3 110 59 111 0.11118340341900379 0.6224919468860901 0.7842080461557522
3 219 59 218 0.11118340341900379 0.6224919468860901 0.7842080461557522
3 16 17 218 0.11118340341900379 0.6224919468860901 0.7842080461557522
3 17 219 218 0.11118340341900379 0.6224919468860901 0.7842080461557522
3 218 58 16 0.11118340341900379 0.6224919468860901 0.7842080461557522
3 218 59 58 0.11118340341900379 0.6224919468860901 0.7842080461557522
3 253 252 108 0.11118340341900379 0.6224919468860901 0.7842080461557522
3 108 109 253 0.11118340341900379 0.6224919468860901 0.7842080461557522
3 108 252 107 0.11118340341900379 0.6224919468860901 0.7842080461557522
3 107 15 108 0.11118340341900379 0.6224919468860901 0.7842080461557522
3 108 15 57 0.11118340341900379 0.6224919468860901 0.7842080461557522
3 57 109 108 0.11118340341900379 0.6224919468860901 0.7842080461557522
3 60 220 221 0.11118340341900379 0.6224919468860901 0.7842080461557522
3 221 63 222 0.11118340341900379 0.6224919468860901 0.7842080461557522
3 62 63 221 0.11118340341900379 0.6224919468860901 0.7842080461557522
3 221 220 62 0.11118340341900379 0.6224919468860901 0.7842080461557522
3 44 93 94 0.11118340341900379 0.6224919468860901 0.7842080461557522
3 94 93 205 0.11118340341900379 0.6224919468860901 0.7842080461557522
3 205 206 94 0.11118340341900379 0.6224919468860901 0.7842080461557522
3 281 92 91 0.11118340341900379 0.6224919468860901 0.7842080461557522
3 282 92 281 0.11118340341900379 0.6224919468860901 0.7842080461557522
3 91 90 281 0.11118340341900379 0.6224919468860901 0.7842080461557522
3 281 90 280 0.11118340341900379 0.6224919468860901 0.7842080461557522
3 279 280 89 0.11118340341900379 0.6224919468860901 0.7842080461557522
3 43 278 279 0.11118340341900379 0.6224919468860901 0.7842080461557522
3 279 89 43 0.11118340341900379 0.6224919468860901 0.7842080461557522
3 278 96 279 0.11118340341900379 0.6224919468860901 0.7842080461557522
3 279 96 208 0.11118340341900379 0.6224919468860901 0.7842080461557522
3 208 280 279 0.11118340341900379 0.6224919468860901 0.7842080461557522
3 205 204 135 0.11118340341900379 0.6224919468860901 0.7842080461557522
3 135 136 205 0.11118340341900379 0.6224919468860901 0.7842080461557522
3 135 160 136 0.11118340341900379 0.6224919468860901 0.7842080461557522
3 135 320 160 0.11118340341900379 0.6224919468860901 0.7842080461557522
3 203 133 134 0.11118340341900379 0.6224919468860901 0.7842080461557522
3 133 319 134 0.11118340341900379 0.6224919468860901 0.7842080461557522
3 134 204 203 0.11118340341900379 0.6224919468860901 0.7842080461557522
3 134 135 204 0.11118340341900379 0.6224919468860901 0.7842080461557522
3 320 135 134 0.11118340341900379 0.6224919468860901 0.7842080461557522
3 247 320 134 0.11118340341900379 0.6224919468860901 0.7842080461557522
3 134 319 247 0.11118340341900379 0.6224919468860901 0.7842080461557522
3 247 319 159 0.11118340341900379 0.6224919468860901 0.7842080461557522
3 159 246 101 0.11118340341900379 0.6224919468860901 0.7842080461557522
3 101 247 159 0.11118340341900379 0.6224919468860901 0.7842080461557522
3 318 246 159 0.11118340341900379 0.6224919468860901 0.7842080461557522
3 159 133 318 0.11118340341900379 0.6224919468860901 0.7842080461557522
3 159 319 133 0.11118340341900379 0.6224919468860901 0.7842080461557522
3 152 299 329 0.11118340341900379 0.6224919468860901 0.7842080461557522
3 330 299 152 0.11118340341900379 0.6224919468860901 0.7842080461557522
3 152 186 330 0.11118340341900379 0.6224919468860901 0.7842080461557522
3 124 235 152 0.11118340341900379 0.6224919468860901 0.7842080461557522
3 152 235 186 0.11118340341900379 0.6224919468860901 0.7842080461557522
3 298 328 329 0.11118340341900379 0.6224919468860901 0.7842080461557522
3 329 328 184 0.11118340341900379 0.6224919468860901 0.7842080461557522
3 149 32 184 0.11118340341900379 0.6224919468860901 0.7842080461557522
3 184 183 149 0.11118340341900379 0.6224919468860901 0.7842080461557522
3 184 328 183 0.11118340341900379 0.6224919468860901 0.7842080461557522
3 237 128 73 0.11118340341900379 0.6224919468860901 0.7842080461557522
3 153 128 237 0.11118340341900379 0.6224919468860901 0.7842080461557522
3 300 153 331 0.11118340341900379 0.6224919468860901 0.7842080461557522
3 331 301 121 0.11118340341900379 0.6224919468860901 0.7842080461557522
3 154 301 331 0.11118340341900379 0.6224919468860901 0.7842080461557522
3 120 72 300 0.11118340341900379 0.6224919468860901 0.7842080461557522
3 121 178 120 0.11118340341900379 0.6224919468860901 0.7842080461557522
3 120 331 121 0.11118340341900379 0.6224919468860901 0.7842080461557522
3 300 331 120 0.11118340341900379 0.6224919468860901 0.7842080461557522
3 130 268 75 0.11118340341900379 0.6224919468860901 0.7842080461557522
3 130 74 268 0.11118340341900379 0.6224919468860901 0.7842080461557522
3 75 238 130 0.11118340341900379 0.6224919468860901 0.7842080461557522
3 126 74 130 0.11118340341900379 0.6224919468860901 0.7842080461557522
3 154 126 130 0.11118340341900379 0.6224919468860901 0.7842080461557522
3 130 238 154 0.11118340341900379 0.6224919468860901 0.7842080461557522
3 35 128 236 0.11118340341900379 0.6224919468860901 0.7842080461557522
3 236 128 125 0.11118340341900379 0.6224919468860901 0.7842080461557522
3 125 186 236 0.11118340341900379 0.6224919468860901 0.7842080461557522
3 77 78 270 0.11118340341900379 0.6224919468860901 0.7842080461557522
3 270 269 77 0.11118340341900379 0.6224919468860901 0.7842080461557522
3 270 271 239 0.11118340341900379 0.6224919468860901 0.7842080461557522
3 270 78 271 0.11118340341900379 0.6224919468860901 0.7842080461557522
3 39 190 189 0.11118340341900379 0.6224919468860901 0.7842080461557522
3 39 189 38 0.11118340341900379 0.6224919468860901 0.7842080461557522
3 40 81 39 0.11118340341900379 0.6224919468860901 0.7842080461557522
3 81 192 191 0.11118340341900379 0.6224919468860901 0.7842080461557522
3 191 39 81 0.11118340341900379 0.6224919468860901 0.7842080461557522
3 190 39 191 0.11118340341900379 0.6224919468860901 0.7842080461557522
3 80 190 191 0.11118340341900379 0.6224919468860901 0.7842080461557522
3 191 273 80 0.11118340341900379 0.6224919468860901 0.7842080461557522
3 191 192 273 0.11118340341900379 0.6224919468860901 0.7842080461557522
3 274 192 193 0.11118340341900379 0.6224919468860901 0.7842080461557522
3 195 309 310 0.11118340341900379 0.6224919468860901 0.7842080461557522
3 310 311 195 0.11118340341900379 0.6224919468860901 0.7842080461557522
3 195 311 276 0.11118340341900379 0.6224919468860901 0.7842080461557522
3 87 88 310 0.11118340341900379 0.6224919468860901 0.7842080461557522
3 310 309 87 0.11118340341900379 0.6224919468860901 0.7842080461557522
3 87 199 88 0.11118340341900379 0.6224919468860901 0.7842080461557522
3 198 199 87 0.11118340341900379 0.6224919468860901 0.7842080461557522
3 91 92 196 0.11118340341900379 0.6224919468860901 0.7842080461557522
3 92 197 196 0.11118340341900379 0.6224919468860901 0.7842080461557522
3 42 91 196 0.11118340341900379 0.6224919468860901 0.7842080461557522
3 41 42 196 0.11118340341900379 0.6224919468860901 0.7842080461557522
3 200 284 201 0.11118340341900379 0.6224919468860901 0.7842080461557522
3 284 202 201 0.11118340341900379 0.6224919468860901 0.7842080461557522
3 201 88 200 0.11118340341900379 0.6224919468860901 0.7842080461557522
3 201 202 88 0.11118340341900379 0.6224919468860901 0.7842080461557522
3 67 68 170 0.11118340341900379 0.6224919468860901 0.7842080461557522
3 170 169 67 0.11118340341900379 0.6224919468860901 0.7842080461557522
3 67 169 66 0.11118340341900379 0.6224919468860901 0.7842080461557522
3 66 289 67 0.11118340341900379 0.6224919468860901 0.7842080461557522
3 289 290 67 0.11118340341900379 0.6224919468860901 0.7842080461557522
3 67 290 68 0.11118340341900379 0.6224919468860901 0.7842080461557522
3 115 231 116 0.11118340341900379 0.6224919468860901 0.7842080461557522
3 116 288 115 0.11118340341900379 0.6224919468860901 0.7842080461557522
3 115 114 230 0.11118340341900379 0.6224919468860901 0.7842080461557522
3 230 231 115 0.11118340341900379 0.6224919468860901 0.7842080461557522
3 232 231 266 0.11118340341900379 0.6224919468860901 0.7842080461557522
3 266 304 267 0.11118340341900379 0.6224919468860901 0.7842080461557522
3 267 232 266 0.11118340341900379 0.6224919468860901 0.7842080461557522
3 334 304 266 0.11118340341900379 0.6224919468860901 0.7842080461557522
3 266 265 334 0.11118340341900379 0.6224919468860901 0.7842080461557522
3 148 265 266 0.11118340341900379 0.6224919468860901 0.7842080461557522
3 266 231 148 0.11118340341900379 0.6224919468860901 0.7842080461557522
3 287 65 19 0.11118340341900379 0.6224919468860901 0.7842080461557522
3 287 288 65 0.11118340341900379 0.6224919468860901 0.7842080461557522
3 19 286 287 0.11118340341900379 0.6224919468860901 0.7842080461557522
3 287 115 288 0.11118340341900379 0.6224919468860901 0.7842080461557522
3 286 114 287 0.11118340341900379 0.6224919468860901 0.7842080461557522
3 114 115 287 0.11118340341900379 0.6224919468860901 0.7842080461557522
3 163 162 137 0.11118340341900379 0.6224919468860901 0.7842080461557522
3 137 162 11 0.11118340341900379 0.6224919468860901 0.7842080461557522
3 106 105 252 0.11118340341900379 0.6224919468860901 0.7842080461557522
3 106 252 253 0.11118340341900379 0.6224919468860901 0.7842080461557522
3 141 105 106 0.11118340341900379 0.6224919468860901 0.7842080461557522
3 106 166 141 0.11118340341900379 0.6224919468860901 0.7842080461557522
3 142 166 106 0.11118340341900379 0.6224919468860901 0.7842080461557522
3 110 255 254 0.11118340341900379 0.6224919468860901 0.7842080461557522
3 255 167 254 0.11118340341900379 0.6224919468860901 0.7842080461557522
3 254 109 110 0.11118340341900379 0.6224919468860901 0.7842080461557522
3 253 109 254 0.11118340341900379 0.6224919468860901 0.7842080461557522
3 254 167 142 0.11118340341900379 0.6224919468860901 0.7842080461557522
3 254 106 253 0.11118340341900379 0.6224919468860901 0.7842080461557522
3 142 106 254 0.11118340341900379 0.6224919468860901 0.7842080461557522
3 255 111 256 0.11118340341900379 0.6224919468860901 0.7842080461557522
3 217 255 256 0.11118340341900379 0.6224919468860901 0.7842080461557522
3 256 111 60 0.11118340341900379 0.6224919468860901 0.7842080461557522
3 256 344 217 0.11118340341900379 0.6224919468860901 0.7842080461557522
3 257 344 256 0.11118340341900379 0.6224919468860901 0.7842080461557522
3 60 221 256 0.11118340341900379 0.6224919468860901 0.7842080461557522
3 222 257 256 0.11118340341900379 0.6224919468860901 0.7842080461557522
3 256 221 222 0.11118340341900379 0.6224919468860901 0.7842080461557522
3 283 282 324 0.11118340341900379 0.6224919468860901 0.7842080461557522
3 324 257 258 0.11118340341900379 0.6224919468860901 0.7842080461557522
3 324 344 257 0.11118340341900379 0.6224919468860901 0.7842080461557522
3 95 277 44 0.11118340341900379 0.6224919468860901 0.7842080461557522
3 44 94 95 0.11118340341900379 0.6224919468860901 0.7842080461557522
3 96 277 95 0.11118340341900379 0.6224919468860901 0.7842080461557522
3 207 96 95 0.11118340341900379 0.6224919468860901 0.7842080461557522
3 95 206 207 0.11118340341900379 0.6224919468860901 0.7842080461557522
3 95 94 206 0.11118340341900379 0.6224919468860901 0.7842080461557522
3 208 322 323 0.11118340341900379 0.6224919468860901 0.7842080461557522
3 323 322 343 0.11118340341900379 0.6224919468860901 0.7842080461557522
3 323 343 217 0.11118340341900379 0.6224919468860901 0.7842080461557522
3 217 344 323 0.11118340341900379 0.6224919468860901 0.7842080461557522
3 124 152 185 0.11118340341900379 0.6224919468860901 0.7842080461557522
3 234 124 185 0.11118340341900379 0.6224919468860901 0.7842080461557522
3 185 123 234 0.11118340341900379 0.6224919468860901 0.7842080461557522
3 185 152 329 0.11118340341900379 0.6224919468860901 0.7842080461557522
3 175 26 117 0.11118340341900379 0.6224919468860901 0.7842080461557522
3 175 176 24 0.11118340341900379 0.6224919468860901 0.7842080461557522
3 24 26 175 0.11118340341900379 0.6224919468860901 0.7842080461557522
3 329 299 71 0.11118340341900379 0.6224919468860901 0.7842080461557522
3 71 298 329 0.11118340341900379 0.6224919468860901 0.7842080461557522
3 71 299 119 0.11118340341900379 0.6224919468860901 0.7842080461557522
3 119 176 71 0.11118340341900379 0.6224919468860901 0.7842080461557522
3 150 32 122 0.11118340341900379 0.6224919468860901 0.7842080461557522
3 122 184 150 0.11118340341900379 0.6224919468860901 0.7842080461557522
3 150 184 32 0.11118340341900379 0.6224919468860901 0.7842080461557522
3 129 74 126 0.11118340341900379 0.6224919468860901 0.7842080461557522
3 126 237 129 0.11118340341900379 0.6224919468860901 0.7842080461557522
3 129 237 73 0.11118340341900379 0.6224919468860901 0.7842080461557522
3 129 73 36 0.11118340341900379 0.6224919468860901 0.7842080461557522
3 36 74 129 0.11118340341900379 0.6224919468860901 0.7842080461557522
3 187 331 153 0.11118340341900379 0.6224919468860901 0.7842080461557522
3 187 237 126 0.11118340341900379 0.6224919468860901 0.7842080461557522
3 153 237 187 0.11118340341900379 0.6224919468860901 0.7842080461557522
3 187 126 154 0.11118340341900379 0.6224919468860901 0.7842080461557522
3 154 331 187 0.11118340341900379 0.6224919468860901 0.7842080461557522
3 119 72 177 0.11118340341900379 0.6224919468860901 0.7842080461557522
3 72 120 177 0.11118340341900379 0.6224919468860901 0.7842080461557522
3 177 176 119 0.11118340341900379 0.6224919468860901 0.7842080461557522
3 259 176 177 0.11118340341900379 0.6224919468860901 0.7842080461557522
3 260 259 177 0.11118340341900379 0.6224919468860901 0.7842080461557522
3 177 178 260 0.11118340341900379 0.6224919468860901 0.7842080461557522
3 177 120 178 0.11118340341900379 0.6224919468860901 0.7842080461557522
3 186 235 127 0.11118340341900379 0.6224919468860901 0.7842080461557522
3 127 236 186 0.11118340341900379 0.6224919468860901 0.7842080461557522
3 35 236 127 0.11118340341900379 0.6224919468860901 0.7842080461557522
3 127 34 35 0.11118340341900379 0.6224919468860901 0.7842080461557522
3 127 235 34 0.11118340341900379 0.6224919468860901 0.7842080461557522
3 76 270 239 0.11118340341900379 0.6224919468860901 0.7842080461557522
3 269 270 76 0.11118340341900379 0.6224919468860901 0.7842080461557522
3 75 269 76 0.11118340341900379 0.6224919468860901 0.7842080461557522
3 308 309 84 0.11118340341900379 0.6224919468860901 0.7842080461557522
3 309 195 84 0.11118340341900379 0.6224919468860901 0.7842080461557522
3 275 304 274 0.11118340341900379 0.6224919468860901 0.7842080461557522
3 275 335 304 0.11118340341900379 0.6224919468860901 0.7842080461557522
3 276 335 275 0.11118340341900379 0.6224919468860901 0.7842080461557522
3 275 195 276 0.11118340341900379 0.6224919468860901 0.7842080461557522
3 41 196 85 0.11118340341900379 0.6224919468860901 0.7842080461557522
3 85 196 197 0.11118340341900379 0.6224919468860901 0.7842080461557522
3 86 309 308 0.11118340341900379 0.6224919468860901 0.7842080461557522
3 86 87 309 0.11118340341900379 0.6224919468860901 0.7842080461557522
3 308 85 86 0.11118340341900379 0.6224919468860901 0.7842080461557522
3 198 87 86 0.11118340341900379 0.6224919468860901 0.7842080461557522
3 86 197 198 0.11118340341900379 0.6224919468860901 0.7842080461557522
3 86 85 197 0.11118340341900379 0.6224919468860901 0.7842080461557522
3 12 138 163 0.11118340341900379 0.6224919468860901 0.7842080461557522
3 163 137 12 0.11118340341900379 0.6224919468860901 0.7842080461557522
3 102 138 12 0.11118340341900379 0.6224919468860901 0.7842080461557522
3 13 102 12 0.11118340341900379 0.6224919468860901 0.7842080461557522
3 12 137 11 0.11118340341900379 0.6224919468860901 0.7842080461557522
3 344 324 209 0.11118340341900379 0.6224919468860901 0.7842080461557522
3 209 323 344 0.11118340341900379 0.6224919468860901 0.7842080461557522
3 282 281 209 0.11118340341900379 0.6224919468860901 0.7842080461557522
3 209 324 282 0.11118340341900379 0.6224919468860901 0.7842080461557522
3 209 281 280 0.11118340341900379 0.6224919468860901 0.7842080461557522
3 209 280 208 0.11118340341900379 0.6224919468860901 0.7842080461557522
3 208 323 209 0.11118340341900379 0.6224919468860901 0.7842080461557522
3 345 284 283 0.11118340341900379 0.6224919468860901 0.7842080461557522
3 283 324 345 0.11118340341900379 0.6224919468860901 0.7842080461557522
3 345 325 284 0.11118340341900379 0.6224919468860901 0.7842080461557522
3 258 325 345 0.11118340341900379 0.6224919468860901 0.7842080461557522
3 345 324 258 0.11118340341900379 0.6224919468860901 0.7842080461557522
3 123 185 151 0.11118340341900379 0.6224919468860901 0.7842080461557522
3 151 184 122 0.11118340341900379 0.6224919468860901 0.7842080461557522
3 329 184 151 0.11118340341900379 0.6224919468860901 0.7842080461557522
3 151 185 329 0.11118340341900379 0.6224919468860901 0.7842080461557522
3 122 33 151 0.11118340341900379 0.6224919468860901 0.7842080461557522
3 33 123 151 0.11118340341900379 0.6224919468860901 0.7842080461557522
3 117 297 70 0.11118340341900379 0.6224919468860901 0.7842080461557522
3 297 328 70 0.11118340341900379 0.6224919468860901 0.7842080461557522
3 328 298 70 0.11118340341900379 0.6224919468860901 0.7842080461557522
3 131 238 75 0.11118340341900379 0.6224919468860901 0.7842080461557522
3 75 76 131 0.11118340341900379 0.6224919468860901 0.7842080461557522
3 188 238 131 0.11118340341900379 0.6224919468860901 0.7842080461557522
3 239 188 131 0.11118340341900379 0.6224919468860901 0.7842080461557522
3 131 76 239 0.11118340341900379 0.6224919468860901 0.7842080461557522
3 306 40 41 0.11118340341900379 0.6224919468860901 0.7842080461557522
3 193 84 194 0.11118340341900379 0.6224919468860901 0.7842080461557522
3 194 84 195 0.11118340341900379 0.6224919468860901 0.7842080461557522
3 195 275 194 0.11118340341900379 0.6224919468860901 0.7842080461557522
3 274 193 194 0.11118340341900379 0.6224919468860901 0.7842080461557522
3 194 275 274 0.11118340341900379 0.6224919468860901 0.7842080461557522
3 83 193 192 0.11118340341900379 0.6224919468860901 0.7842080461557522
3 83 84 193 0.11118340341900379 0.6224919468860901 0.7842080461557522
3 40 306 83 0.11118340341900379 0.6224919468860901 0.7842080461557522
3 83 306 84 0.11118340341900379 0.6224919468860901 0.7842080461557522
3 176 175 118 0.11118340341900379 0.6224919468860901 0.7842080461557522
3 118 71 176 0.11118340341900379 0.6224919468860901 0.7842080461557522
3 118 175 117 0.11118340341900379 0.6224919468860901 0.7842080461557522
3 117 70 118 0.11118340341900379 0.6224919468860901 0.7842080461557522
3 298 71 118 0.11118340341900379 0.6224919468860901 0.7842080461557522
3 118 70 298 0.11118340341900379 0.6224919468860901 0.7842080461557522
3 308 84 307 0.11118340341900379 0.6224919468860901 0.7842080461557522
3 84 306 307 0.11118340341900379 0.6224919468860901 0.7842080461557522
3 307 306 41 0.11118340341900379 0.6224919468860901 0.7842080461557522
3 41 85 307 0.11118340341900379 0.6224919468860901 0.7842080461557522
3 307 85 308 0.11118340341900379 0.6224919468860901 0.7842080461557522
3 82 192 81 0.11118340341900379 0.6224919468860901 0.7842080461557522
3 82 83 192 0.11118340341900379 0.6224919468860901 0.7842080461557522
3 82 81 40 0.11118340341900379 0.6224919468860901 0.7842080461557522
3 40 83 82 0.11118340341900379 0.6224919468860901 0.7842080461557522
