OFF
55 80 0


30.6011 34.7508 7.0769
30.6011 34.7508 7.0769
30.563 34.803 7.0381
30.6011 34.7508 7.0769
30.6011 34.7508 7.0769
30.5963 34.7652 7.2103
30.5933 34.776 7.3117
30.5913 34.7854 7.3987
30.5899 34.7943 7.4815
30.5888 34.8037 7.5685
30.5882 34.8147 7.6699
30.5884 34.8291 7.8033
30.5884 34.8291 7.8033
30.5716 34.839 7.6765
30.56 34.8453 7.5743
30.5512 34.8497 7.4854
30.5442 34.8528 7.4022
30.5382 34.855 7.3189
30.5331 34.8563 7.2296
30.5287 34.8565 7.1268
30.5647 34.805 7.126
30.5931 34.7664 7.1549
30.5863 34.7922 7.3938
30.5843 34.8057 7.5212
30.5561 34.8404 7.459
30.5465 34.8443 7.334
30.5898 34.777 7.2532
30.5835 34.7889 7.2957
30.5852 34.7988 7.4559
30.5805 34.8033 7.4304
30.5834 34.8242 7.6963
30.5789 34.8198 7.5905
30.5712 34.832 7.6022
30.571 34.8253 7.5281
30.5626 34.837 7.5258
30.5654 34.8287 7.4772
30.5426 34.8451 7.2672
30.5521 34.8341 7.3047
30.5878 34.7852 7.3287
30.5822 34.7943 7.3457
30.5767 34.8033 7.3625
30.5836 34.8138 7.5971
30.5793 34.8131 7.5246
30.5752 34.8126 7.4521
30.5509 34.8427 7.3965
30.5577 34.8326 7.3908
30.5644 34.8225 7.3851
30.5393 34.845 7.1909
30.5499 34.8339 7.2542
30.5605 34.823 7.317
30.5931 34.7664 7.1549
30.5855 34.7818 7.231
30.5782 34.7971 7.3057
30.5713 34.8124 7.3793
30.5713 34.8124 7.3793
3 19 2 20 0.9368271854149076 0.6330483695475994 0.05182233865772912
3 20 2 0 0.9368271854149076 0.6330483695475994 0.05182233865772912
3 21 20 0 0.9368271854149076 0.6330483695475994 0.05182233865772912
3 20 21 47 0.9368271854149076 0.6330483695475994 0.05182233865772912
3 19 20 47 0.9368271854149076 0.6330483695475994 0.05182233865772912
3 47 18 19 0.9368271854149076 0.6330483695475994 0.05182233865772912
3 48 47 51 0.9368271854149076 0.6330483695475994 0.05182233865772912
3 18 47 48 0.9368271854149076 0.6330483695475994 0.05182233865772912
3 51 47 5 0.9368271854149076 0.6330483695475994 0.05182233865772912
3 5 47 21 0.9368271854149076 0.6330483695475994 0.05182233865772912
3 5 21 0 0.9368271854149076 0.6330483695475994 0.05182233865772912
3 35 43 8 0.9368271854149076 0.6330483695475994 0.05182233865772912
3 15 24 35 0.9368271854149076 0.6330483695475994 0.05182233865772912
3 35 24 43 0.9368271854149076 0.6330483695475994 0.05182233865772912
3 18 48 36 0.9368271854149076 0.6330483695475994 0.05182233865772912
3 36 48 37 0.9368271854149076 0.6330483695475994 0.05182233865772912
3 16 24 15 0.9368271854149076 0.6330483695475994 0.05182233865772912
3 43 24 29 0.9368271854149076 0.6330483695475994 0.05182233865772912
3 30 10 11 0.9368271854149076 0.6330483695475994 0.05182233865772912
3 11 13 30 0.9368271854149076 0.6330483695475994 0.05182233865772912
3 30 13 10 0.9368271854149076 0.6330483695475994 0.05182233865772912
3 10 13 32 0.9368271854149076 0.6330483695475994 0.05182233865772912
3 37 25 17 0.9368271854149076 0.6330483695475994 0.05182233865772912
3 17 36 37 0.9368271854149076 0.6330483695475994 0.05182233865772912
3 18 36 17 0.9368271854149076 0.6330483695475994 0.05182233865772912
3 25 16 17 0.9368271854149076 0.6330483695475994 0.05182233865772912
3 37 48 52 0.9368271854149076 0.6330483695475994 0.05182233865772912
3 48 27 52 0.9368271854149076 0.6330483695475994 0.05182233865772912
3 52 27 6 0.9368271854149076 0.6330483695475994 0.05182233865772912
3 26 48 51 0.9368271854149076 0.6330483695475994 0.05182233865772912
3 26 27 48 0.9368271854149076 0.6330483695475994 0.05182233865772912
3 6 27 26 0.9368271854149076 0.6330483695475994 0.05182233865772912
3 51 5 26 0.9368271854149076 0.6330483695475994 0.05182233865772912
3 26 5 6 0.9368271854149076 0.6330483695475994 0.05182233865772912
3 6 7 38 0.9368271854149076 0.6330483695475994 0.05182233865772912
3 7 39 38 0.9368271854149076 0.6330483695475994 0.05182233865772912
3 38 52 6 0.9368271854149076 0.6330483695475994 0.05182233865772912
3 39 52 38 0.9368271854149076 0.6330483695475994 0.05182233865772912
3 28 7 8 0.9368271854149076 0.6330483695475994 0.05182233865772912
3 28 29 7 0.9368271854149076 0.6330483695475994 0.05182233865772912
3 8 43 28 0.9368271854149076 0.6330483695475994 0.05182233865772912
3 43 29 28 0.9368271854149076 0.6330483695475994 0.05182233865772912
3 41 9 10 0.9368271854149076 0.6330483695475994 0.05182233865772912
3 31 9 41 0.9368271854149076 0.6330483695475994 0.05182233865772912
3 10 32 41 0.9368271854149076 0.6330483695475994 0.05182233865772912
3 41 32 31 0.9368271854149076 0.6330483695475994 0.05182233865772912
3 37 52 49 0.9368271854149076 0.6330483695475994 0.05182233865772912
3 49 52 39 0.9368271854149076 0.6330483695475994 0.05182233865772912
3 49 25 37 0.9368271854149076 0.6330483695475994 0.05182233865772912
3 49 40 25 0.9368271854149076 0.6330483695475994 0.05182233865772912
3 39 40 49 0.9368271854149076 0.6330483695475994 0.05182233865772912
3 22 39 7 0.9368271854149076 0.6330483695475994 0.05182233865772912
3 22 40 39 0.9368271854149076 0.6330483695475994 0.05182233865772912
3 53 40 22 0.9368271854149076 0.6330483695475994 0.05182233865772912
3 7 29 22 0.9368271854149076 0.6330483695475994 0.05182233865772912
3 46 45 25 0.9368271854149076 0.6330483695475994 0.05182233865772912
3 46 40 53 0.9368271854149076 0.6330483695475994 0.05182233865772912
3 25 40 46 0.9368271854149076 0.6330483695475994 0.05182233865772912
3 29 45 46 0.9368271854149076 0.6330483695475994 0.05182233865772912
3 53 22 46 0.9368271854149076 0.6330483695475994 0.05182233865772912
3 46 22 29 0.9368271854149076 0.6330483695475994 0.05182233865772912
3 44 29 24 0.9368271854149076 0.6330483695475994 0.05182233865772912
3 44 45 29 0.9368271854149076 0.6330483695475994 0.05182233865772912
3 24 16 44 0.9368271854149076 0.6330483695475994 0.05182233865772912
3 44 16 25 0.9368271854149076 0.6330483695475994 0.05182233865772912
3 25 45 44 0.9368271854149076 0.6330483695475994 0.05182233865772912
3 8 9 23 0.9368271854149076 0.6330483695475994 0.05182233865772912
3 9 42 23 0.9368271854149076 0.6330483695475994 0.05182233865772912
3 23 35 8 0.9368271854149076 0.6330483695475994 0.05182233865772912
3 23 42 35 0.9368271854149076 0.6330483695475994 0.05182233865772912
3 15 35 34 0.9368271854149076 0.6330483695475994 0.05182233865772912
3 35 42 33 0.9368271854149076 0.6330483695475994 0.05182233865772912
3 33 34 35 0.9368271854149076 0.6330483695475994 0.05182233865772912
3 33 42 9 0.9368271854149076 0.6330483695475994 0.05182233865772912
3 15 34 14 0.9368271854149076 0.6330483695475994 0.05182233865772912
3 14 32 13 0.9368271854149076 0.6330483695475994 0.05182233865772912
3 31 32 14 0.9368271854149076 0.6330483695475994 0.05182233865772912
3 34 33 14 0.9368271854149076 0.6330483695475994 0.05182233865772912
3 14 9 31 0.9368271854149076 0.6330483695475994 0.05182233865772912
3 14 33 9 0.9368271854149076 0.6330483695475994 0.05182233865772912
