OFF
78 71 0


30.6085 30.6479 11.8565
30.6085 30.6479 11.8565
30.5638 30.6605 11.7228
30.531 30.6702 11.6257
30.4853 30.6844 11.4925
30.4853 30.6844 11.4925
30.4748 30.6783 11.4392
30.4642 30.6722 11.3859
30.4537 30.6662 11.3327
30.4537 30.6662 11.3327
30.5209 30.5583 11.32
30.5827 30.458 11.3057
30.64 30.3641 11.29
30.6935 30.2754 11.273
30.7438 30.191 11.2548
30.7915 30.1101 11.2355
30.8371 30.032 11.2151
30.881 29.9561 11.1936
30.9234 29.8818 11.1708
30.9649 29.8086 11.1469
31.0056 29.7358 11.1215
31.0459 29.663 11.0945
31.0861 29.5898 11.0658
31.1264 29.5154 11.035
31.1672 29.4394 11.002
31.2087 29.3612 10.9662
31.2514 29.2799 10.9274
31.2955 29.1949 10.8848
31.3414 29.1053 10.8379
31.3897 29.0098 10.7858
31.441 28.9072 10.7274
31.4563 28.9377 10.8569
31.4722 28.9638 10.9777
31.4885 28.9862 11.0911
31.505 29.0055 11.1981
31.5218 29.0222 11.2998
31.5389 29.0366 11.397
31.5561 29.0492 11.4905
31.5735 29.0603 11.5809
31.5912 29.0699 11.669
31.6092 29.0784 11.7554
31.6276 29.0859 11.8407
31.6464 29.0924 11.9254
31.6658 29.0982 12.0102
31.6858 29.1032 12.0957
31.7067 29.1075 12.1825
31.7285 29.1112 12.2713
31.7515 29.1142 12.3629
31.7759 29.1166 12.4582
31.802 29.1184 12.5581
31.8301 29.1195 12.6638
31.8607 29.1198 12.7768
31.8943 29.1193 12.8987
31.9316 29.1177 13.0317
31.9316 29.1177 13.0317
31.8497 29.2106 12.9546
31.7763 29.294 12.8859
31.7096 29.3698 12.8236
31.6483 29.4398 12.7666
31.5911 29.5051 12.7138
31.5372 29.5666 12.6642
31.486 29.6253 12.6172
31.4367 29.6817 12.5723
31.389 29.7366 12.5289
31.3422 29.7904 12.4866
31.296 29.8436 12.445
31.2499 29.8968 12.4038
31.2036 29.9503 12.3626
31.1566 30.0047 12.321
31.1085 30.0605 12.2787
31.0588 30.1183 12.2353
31.0071 30.1786 12.1904
30.9526 30.2422 12.1435
30.8947 30.31 12.0941
30.8325 30.383 12.0416
30.765 30.4625 11.9851
30.6909 30.5501 11.9238
30.6085 30.6479 11.8565
3 49 50 57 0.12541491111625858 0.6170642336261631 0.5948802748746649
3 33 26 27 0.12541491111625858 0.6170642336261631 0.5948802748746649
3 71 72 17 0.12541491111625858 0.6170642336261631 0.5948802748746649
3 10 7 8 0.12541491111625858 0.6170642336261631 0.5948802748746649
3 10 6 7 0.12541491111625858 0.6170642336261631 0.5948802748746649
3 4 6 10 0.12541491111625858 0.6170642336261631 0.5948802748746649
3 10 3 4 0.12541491111625858 0.6170642336261631 0.5948802748746649
3 69 19 68 0.12541491111625858 0.6170642336261631 0.5948802748746649
3 69 70 19 0.12541491111625858 0.6170642336261631 0.5948802748746649
3 14 74 75 0.12541491111625858 0.6170642336261631 0.5948802748746649
3 56 50 51 0.12541491111625858 0.6170642336261631 0.5948802748746649
3 56 57 50 0.12541491111625858 0.6170642336261631 0.5948802748746649
3 46 47 60 0.12541491111625858 0.6170642336261631 0.5948802748746649
3 27 28 32 0.12541491111625858 0.6170642336261631 0.5948802748746649
3 32 33 27 0.12541491111625858 0.6170642336261631 0.5948802748746649
3 19 70 18 0.12541491111625858 0.6170642336261631 0.5948802748746649
3 18 70 71 0.12541491111625858 0.6170642336261631 0.5948802748746649
3 71 17 18 0.12541491111625858 0.6170642336261631 0.5948802748746649
3 2 3 12 0.12541491111625858 0.6170642336261631 0.5948802748746649
3 25 35 24 0.12541491111625858 0.6170642336261631 0.5948802748746649
3 75 12 13 0.12541491111625858 0.6170642336261631 0.5948802748746649
3 13 14 75 0.12541491111625858 0.6170642336261631 0.5948802748746649
3 73 74 15 0.12541491111625858 0.6170642336261631 0.5948802748746649
3 74 14 15 0.12541491111625858 0.6170642336261631 0.5948802748746649
3 22 38 21 0.12541491111625858 0.6170642336261631 0.5948802748746649
3 51 52 55 0.12541491111625858 0.6170642336261631 0.5948802748746649
3 55 56 51 0.12541491111625858 0.6170642336261631 0.5948802748746649
3 55 52 53 0.12541491111625858 0.6170642336261631 0.5948802748746649
3 59 47 48 0.12541491111625858 0.6170642336261631 0.5948802748746649
3 59 60 47 0.12541491111625858 0.6170642336261631 0.5948802748746649
3 31 28 29 0.12541491111625858 0.6170642336261631 0.5948802748746649
3 31 32 28 0.12541491111625858 0.6170642336261631 0.5948802748746649
3 31 29 30 0.12541491111625858 0.6170642336261631 0.5948802748746649
3 26 33 34 0.12541491111625858 0.6170642336261631 0.5948802748746649
3 34 25 26 0.12541491111625858 0.6170642336261631 0.5948802748746649
3 35 25 34 0.12541491111625858 0.6170642336261631 0.5948802748746649
3 24 35 36 0.12541491111625858 0.6170642336261631 0.5948802748746649
3 36 23 24 0.12541491111625858 0.6170642336261631 0.5948802748746649
3 76 12 75 0.12541491111625858 0.6170642336261631 0.5948802748746649
3 76 2 12 0.12541491111625858 0.6170642336261631 0.5948802748746649
3 0 2 76 0.12541491111625858 0.6170642336261631 0.5948802748746649
3 12 3 11 0.12541491111625858 0.6170642336261631 0.5948802748746649
3 3 10 11 0.12541491111625858 0.6170642336261631 0.5948802748746649
3 16 72 73 0.12541491111625858 0.6170642336261631 0.5948802748746649
3 73 15 16 0.12541491111625858 0.6170642336261631 0.5948802748746649
3 16 17 72 0.12541491111625858 0.6170642336261631 0.5948802748746649
3 68 19 20 0.12541491111625858 0.6170642336261631 0.5948802748746649
3 20 40 68 0.12541491111625858 0.6170642336261631 0.5948802748746649
3 39 21 38 0.12541491111625858 0.6170642336261631 0.5948802748746649
3 40 20 39 0.12541491111625858 0.6170642336261631 0.5948802748746649
3 39 20 21 0.12541491111625858 0.6170642336261631 0.5948802748746649
3 58 48 49 0.12541491111625858 0.6170642336261631 0.5948802748746649
3 58 59 48 0.12541491111625858 0.6170642336261631 0.5948802748746649
3 49 57 58 0.12541491111625858 0.6170642336261631 0.5948802748746649
3 46 60 61 0.12541491111625858 0.6170642336261631 0.5948802748746649
3 61 45 46 0.12541491111625858 0.6170642336261631 0.5948802748746649
3 61 62 45 0.12541491111625858 0.6170642336261631 0.5948802748746649
3 44 45 63 0.12541491111625858 0.6170642336261631 0.5948802748746649
3 45 62 63 0.12541491111625858 0.6170642336261631 0.5948802748746649
3 23 36 37 0.12541491111625858 0.6170642336261631 0.5948802748746649
3 37 38 22 0.12541491111625858 0.6170642336261631 0.5948802748746649
3 22 23 37 0.12541491111625858 0.6170642336261631 0.5948802748746649
3 64 43 44 0.12541491111625858 0.6170642336261631 0.5948802748746649
3 44 63 64 0.12541491111625858 0.6170642336261631 0.5948802748746649
3 42 43 65 0.12541491111625858 0.6170642336261631 0.5948802748746649
3 43 64 65 0.12541491111625858 0.6170642336261631 0.5948802748746649
3 66 41 42 0.12541491111625858 0.6170642336261631 0.5948802748746649
3 42 65 66 0.12541491111625858 0.6170642336261631 0.5948802748746649
3 41 66 67 0.12541491111625858 0.6170642336261631 0.5948802748746649
3 68 40 67 0.12541491111625858 0.6170642336261631 0.5948802748746649
3 40 41 67 0.12541491111625858 0.6170642336261631 0.5948802748746649
