OFF
450 817 0


28.3646 35.2584 9.1585
28.3646 35.2584 9.1585
28.3048 35.2061 9.0594
28.249 35.1585 8.9658
28.1963 35.1147 8.8765
28.1464 35.0745 8.7907
28.0986 35.0373 8.7076
28.0527 35.0029 8.6266
28.0083 34.971 8.5471
27.9651 34.9415 8.4686
27.923 34.9143 8.3907
27.8818 34.8892 8.313
27.8411 34.8663 8.2351
27.801 34.8454 8.1566
27.7613 34.8266 8.0774
27.7218 34.8098 7.9969
27.6824 34.7951 7.9151
27.643 34.7824 7.8314
27.6034 34.7718 7.7456
27.5635 34.7632 7.6574
27.5231 34.7567 7.5661
27.482 34.7523 7.4715
27.4398 34.7499 7.3728
27.3965 34.7496 7.2693
27.3515 34.7515 7.1601
27.3046 34.7557 7.0443
27.3046 34.7557 7.0443
27.292 34.6897 7.1478
27.2824 34.6423 7.2232
27.2685 34.5775 7.3273
27.2685 34.5775 7.3273
27.2868 34.5391 7.4558
27.3046 34.5082 7.5703
27.322 34.483 7.6748
27.3393 34.4621 7.7722
27.3569 34.4446 7.865
27.3748 34.4297 7.9551
27.3935 34.4173 8.0444
27.4134 34.4068 8.1347
27.4349 34.3984 8.2279
27.4585 34.3919 8.3261
27.4851 34.3877 8.4316
27.5157 34.3863 8.5476
27.5516 34.3884 8.678
27.5516 34.3884 8.678
27.6422 34.4723 8.7437
27.7106 34.5371 8.7942
27.7688 34.5931 8.8378
27.8236 34.6468 8.8795
27.8808 34.7036 8.9235
27.9466 34.77 8.975
28.032 34.8578 9.0428
28.032 34.8578 9.0428
28.1181 34.9549 9.087
28.1784 35.024 9.118
28.2323 35.0866 9.1456
28.2919 35.1567 9.1761
28.3646 35.2584 9.1585
28.3646 35.2584 9.1585
28.3701 35.2574 9.1887
28.182 35.047 9.0499
28.1356 35.0112 8.9623
28.0924 34.9784 8.8815
27.3331 34.6492 7.3284
27.3793 34.6562 7.4254
27.4219 34.6632 7.5158
27.4616 34.6704 7.6011
27.8179 34.6556 8.8225
27.8123 34.6641 8.7679
27.8069 34.6723 8.7156
27.8015 34.6804 8.6653
28.1349 34.9923 9.0275
28.0944 34.9634 8.9441
28.0566 34.9369 8.8667
28.0209 34.9124 8.7943
28.2471 35.1536 8.9738
28.1938 35.1059 8.8954
28.1443 35.0622 8.823
28.0979 35.0219 8.7557
28.054 34.9845 8.6925
28.1542 35.0769 8.8172
28.1143 35.0415 8.7612
28.0763 35.0083 8.7083
28.0399 34.9769 8.658
28.005 34.9471 8.61
28.0684 35.0101 8.6686
28.0391 34.9842 8.6309
28.0107 34.9592 8.5946
27.9831 34.9352 8.5594
27.9561 34.912 8.5252
27.9874 34.9518 8.5243
27.967 34.933 8.502
27.9468 34.9147 8.4801
27.9268 34.8967 8.4585
27.9072 34.8791 8.4373
27.9099 34.9009 8.3816
27.8968 34.8877 8.3726
27.8838 34.8746 8.3636
27.8708 34.8615 8.3547
27.8579 34.8486 8.3458
27.8346 34.8572 8.2382
27.8281 34.8481 8.2413
27.8216 34.839 8.2444
27.815 34.83 8.2475
27.8085 34.8209 8.2506
27.7609 34.8206 8.0922
27.7606 34.8146 8.1071
27.7602 34.8086 8.1221
27.7598 34.8025 8.1371
27.7593 34.7965 8.1522
27.6882 34.7912 7.9423
27.694 34.7873 7.9695
27.6997 34.7835 7.9967
27.7054 34.7798 8.024
27.711 34.776 8.0513
27.6161 34.7691 7.7871
27.6284 34.7666 7.8281
27.6405 34.7642 7.8687
27.6525 34.762 7.909
27.6642 34.7599 7.9492
27.5438 34.7545 7.6251
27.5637 34.7526 7.6823
27.5829 34.7509 7.7383
27.6015 34.7495 7.7931
27.6196 34.7484 7.8471
27.4707 34.7472 7.4543
27.4996 34.7451 7.5317
27.5269 34.7434 7.6057
27.5528 34.7422 7.6769
27.5775 34.7414 7.746
27.3957 34.7473 7.272
27.4357 34.7441 7.3748
27.4724 34.7416 7.4705
27.5064 34.7399 7.5606
27.5383 34.7387 7.6463
27.3918 34.4693 7.9
27.4257 34.4935 7.9341
27.4585 34.5173 7.9673
27.4904 34.5408 7.9997
27.5216 34.564 8.0316
27.4247 34.4444 8.064
27.4551 34.471 8.083
27.4847 34.4972 8.1017
27.5137 34.523 8.12
27.542 34.5485 8.138
27.4626 34.4275 8.232
27.4896 34.4561 8.236
27.516 34.4841 8.2399
27.5418 34.5117 8.2437
27.5671 34.5389 8.2475
27.7682 34.6069 8.7853
27.7675 34.6202 8.7349
27.7667 34.6331 8.6865
27.7659 34.6456 8.6398
27.765 34.6578 8.5948
27.9289 34.7667 8.9064
27.9119 34.7638 8.8415
27.8957 34.7612 8.7798
27.88 34.7589 8.7209
27.8648 34.7568 8.6646
27.3433 34.6917 7.2633
27.3896 34.6941 7.3689
27.4319 34.6969 7.4667
27.471 34.7001 7.5584
27.5075 34.7037 7.6453
27.542 34.7076 7.7284
27.3471 34.5278 7.6339
27.3873 34.5468 7.6945
27.4256 34.5653 7.7527
27.4623 34.5835 7.8089
27.4977 34.6015 7.8634
27.5318 34.6193 7.9166
27.3765 34.4854 7.8157
27.4122 34.5082 7.8578
27.4467 34.5305 7.8986
27.4802 34.5525 7.9385
27.5127 34.5743 7.9774
27.5445 34.5958 8.0157
27.5092 34.4187 8.418
27.5326 34.4489 8.4047
27.5553 34.4784 8.3918
27.5774 34.5073 8.3792
27.5989 34.5356 8.3669
27.6198 34.5635 8.3549
27.7154 34.556 8.7461
27.7198 34.5742 8.6999
27.7241 34.5919 8.6554
27.728 34.6091 8.6125
27.7317 34.6258 8.571
27.7353 34.6421 8.5307
28.297 35.1965 9.0566
28.2357 35.1412 8.9649
28.1795 35.0913 8.8813
28.1275 35.0458 8.8045
28.0788 35.004 8.7332
28.0329 34.9653 8.6665
27.3328 34.556 7.5321
27.3758 34.5724 7.6042
27.4164 34.5884 7.6727
27.4548 34.604 7.7384
27.4916 34.6195 7.8017
27.527 34.6349 7.8632
27.5612 34.6503 7.9233
27.5712 34.421 8.6407
27.5899 34.4525 8.6049
27.6078 34.4829 8.5704
27.6249 34.5124 8.5371
27.6414 34.5409 8.5049
27.6572 34.5687 8.4737
27.6725 34.5959 8.4434
28.0818 34.9315 9.002
28.0477 34.91 8.9231
28.0157 34.8901 8.8493
27.9853 34.8717 8.78
27.9563 34.8546 8.7144
27.9285 34.8386 8.6521
27.9018 34.8235 8.5926
28.1996 35.1138 8.8942
28.1534 35.0727 8.8277
28.1099 35.0346 8.7655
28.0687 34.999 8.7069
28.0295 34.9655 8.6515
27.9918 34.934 8.5987
27.9555 34.904 8.5482
27.9204 34.8755 8.4996
28.0274 34.98 8.5961
28.0027 34.9579 8.5664
27.9786 34.9364 8.5375
27.9549 34.9156 8.5093
27.9317 34.8953 8.4816
27.9088 34.8755 8.4546
27.8862 34.8562 8.428
27.8639 34.8373 8.4018
27.3569 34.7502 7.1752
27.4035 34.746 7.2934
27.4456 34.7428 7.4017
27.4841 34.7405 7.5024
27.5197 34.7389 7.5971
27.553 34.738 7.6873
27.5845 34.7376 7.774
27.6146 34.7379 7.8585
27.872 34.8782 8.3101
27.8623 34.8672 8.3072
27.8526 34.8562 8.3044
27.8429 34.8453 8.3015
27.8332 34.8343 8.2986
27.8235 34.8235 8.2958
27.8137 34.8126 8.2929
27.804 34.8017 8.2901
27.7942 34.7909 8.2872
27.7245 34.805 8.0178
27.7272 34.8001 8.0388
27.7298 34.7953 8.0598
27.7324 34.7905 8.0808
27.735 34.7858 8.102
27.7376 34.781 8.1232
27.7401 34.7762 8.1445
27.7426 34.7715 8.166
27.7452 34.7667 8.1876
27.58 34.7609 7.707
27.596 34.7588 7.7558
27.6115 34.7568 7.8037
27.6267 34.7551 7.8511
27.6416 34.7536 7.8981
27.6562 34.7523 7.9447
27.6706 34.7511 7.9913
27.6848 34.7501 8.0378
27.699 34.7493 8.0845
27.4335 34.7463 7.3648
27.4677 34.7438 7.4541
27.4995 34.7418 7.5384
27.5293 34.7404 7.6188
27.5575 34.7395 7.6959
27.5845 34.739 7.7707
27.6104 34.739 7.8437
27.6354 34.7394 7.9155
27.6599 34.7402 7.9867
27.4429 34.435 8.1467
27.4716 34.4626 8.1583
27.4996 34.4898 8.1698
27.527 34.5166 8.181
27.5539 34.543 8.192
27.5802 34.5691 8.2028
27.6061 34.595 8.2135
27.6317 34.6207 8.2241
27.6568 34.6462 8.2346
27.5377 34.4181 8.5232
27.559 34.449 8.4996
27.5794 34.4791 8.4768
27.5993 34.5084 8.4546
27.6184 34.537 8.433
27.6371 34.5649 8.4119
27.6552 34.5923 8.3913
27.6728 34.6192 8.3712
27.69 34.6456 8.3514
28.0052 34.8452 8.9649
27.9799 34.8336 8.8919
27.9559 34.823 8.8231
27.9329 34.8131 8.7579
27.9109 34.8038 8.696
27.8896 34.7952 8.6369
27.8691 34.7872 8.5802
27.8491 34.7796 8.5256
27.8296 34.7725 8.4729
28.1106 35.0424 8.7421
28.0763 35.012 8.6958
28.0433 34.9832 8.6515
28.0114 34.9557 8.6089
27.9806 34.9293 8.5679
27.9506 34.904 8.5283
27.9213 34.8797 8.4898
27.8926 34.8562 8.4523
27.8644 34.8334 8.4158
27.8367 34.8112 8.38
27.3188 34.5909 7.4195
27.3651 34.6039 7.5052
27.4082 34.6166 7.5859
27.4487 34.6291 7.6624
27.487 34.6415 7.7357
27.5235 34.6539 7.8063
27.5586 34.6663 7.8751
27.5926 34.679 7.9424
27.6258 34.6918 8.0089
27.6584 34.7051 8.075
27.4078 34.4557 7.9823
27.4399 34.4812 8.0087
27.4711 34.5063 8.0346
27.5015 34.531 8.0599
27.5313 34.5555 8.0848
27.5605 34.5797 8.1094
27.5892 34.6037 8.1336
27.6175 34.6276 8.1576
27.6454 34.6515 8.1814
27.6731 34.6754 8.205
27.8696 34.7069 8.8614
27.8588 34.7102 8.8022
27.8484 34.7135 8.7456
27.8382 34.7168 8.6915
27.8283 34.7202 8.6394
27.8187 34.7235 8.5892
27.8092 34.7269 8.5407
27.7999 34.7302 8.4937
27.7908 34.7337 8.448
27.7817 34.7371 8.4035
27.9483 34.9255 8.4529
27.9317 34.9096 8.4374
27.9152 34.8941 8.4221
27.8988 34.8787 8.407
27.8826 34.8635 8.392
27.8664 34.8485 8.3771
27.8503 34.8337 8.3624
27.8343 34.8191 8.3478
27.8184 34.8046 8.3332
27.8025 34.7902 8.3188
27.7867 34.7759 8.3044
27.6521 34.7792 7.8654
27.6611 34.7761 7.8993
27.67 34.7731 7.933
27.6787 34.7702 7.9667
27.6874 34.7674 8.0003
27.696 34.7647 8.034
27.7045 34.7621 8.0678
27.7129 34.7595 8.1017
27.7214 34.757 8.1359
27.7298 34.7546 8.1703
27.7382 34.7522 8.2051
27.3616 34.5047 7.7277
27.3995 34.5257 7.7785
27.4358 34.5464 7.8275
27.4708 34.5666 7.8752
27.5047 34.5866 7.9217
27.5377 34.6065 7.9672
27.5699 34.6262 8.012
27.6016 34.646 8.0562
27.6327 34.6659 8.1001
27.6635 34.6859 8.1438
27.694 34.7061 8.1876
27.6533 34.4972 8.7004
27.6638 34.5211 8.6589
27.6739 34.5443 8.6188
27.6835 34.5668 8.5801
27.6927 34.5887 8.5427
27.7015 34.61 8.5063
27.71 34.6308 8.471
27.7182 34.6512 8.4366
27.726 34.6711 8.4031
27.7336 34.6907 8.3703
27.741 34.71 8.3382
27.7976 34.838 8.1656
27.7942 34.8306 8.1746
27.7908 34.8231 8.1836
27.7873 34.8157 8.1927
27.7838 34.8082 8.2017
27.7803 34.8007 8.2109
27.7768 34.7932 8.22
27.7732 34.7857 8.2292
27.7696 34.7782 8.2384
27.766 34.7706 8.2477
27.7624 34.763 8.257
27.7587 34.7554 8.2664
27.5074 34.7499 7.5409
27.5316 34.748 7.6077
27.5547 34.7464 7.6722
27.5768 34.7452 7.735
27.5982 34.7443 7.7964
27.6189 34.7437 7.8567
27.6391 34.7434 7.9162
27.6589 34.7434 7.9754
27.6784 34.7437 8.0345
27.6976 34.7443 8.0937
27.7167 34.7451 8.1535
27.7358 34.7463 8.2141
27.4845 34.422 8.3218
27.5098 34.4514 8.3176
27.5344 34.4802 8.3134
27.5584 34.5086 8.3094
27.5819 34.5364 8.3055
27.6049 34.5638 8.3016
27.6274 34.5909 8.2978
27.6495 34.6176 8.294
27.6712 34.6441 8.2903
27.6926 34.6703 8.2866
27.7137 34.6962 8.283
27.7345 34.7221 8.2794
28.2336 35.1077 9.0741
28.1803 35.0638 8.9817
28.1312 35.0239 8.8971
28.0855 34.9874 8.8189
28.0426 34.9539 8.7461
28.0019 34.9227 8.6777
27.9632 34.8936 8.6132
27.9261 34.8662 8.5518
27.8903 34.8403 8.493
27.8555 34.8157 8.4364
27.8215 34.7922 8.3815
27.788 34.7696 8.3281
28.297 35.1965 9.0566
28.2357 35.1412 8.9649
28.1795 35.0913 8.8813
28.1275 35.0458 8.8045
28.0788 35.004 8.7332
28.0329 34.9653 8.6665
27.9892 34.9292 8.6037
27.9474 34.8952 8.5439
27.9071 34.8631 8.4868
27.868 34.8325 8.4319
27.8298 34.8032 8.3786
27.7922 34.775 8.3267
27.755 34.7477 8.2758
27.755 34.7477 8.2758
3 59 1 56 0.6044018400771195 0.8067983144652278 0.6155054127313512
3 2 56 1 0.6044018400771195 0.8067983144652278 0.6155054127313512
3 233 27 160 0.6044018400771195 0.8067983144652278 0.6155054127313512
3 41 178 40 0.6044018400771195 0.8067983144652278 0.6155054127313512
3 295 52 210 0.6044018400771195 0.8067983144652278 0.6155054127313512
3 210 52 53 0.6044018400771195 0.8067983144652278 0.6155054127313512
3 65 64 315 0.6044018400771195 0.8067983144652278 0.6155054127313512
3 12 241 11 0.6044018400771195 0.8067983144652278 0.6155054127313512
3 135 35 36 0.6044018400771195 0.8067983144652278 0.6155054127313512
3 160 27 28 0.6044018400771195 0.8067983144652278 0.6155054127313512
3 25 27 24 0.6044018400771195 0.8067983144652278 0.6155054127313512
3 27 233 24 0.6044018400771195 0.8067983144652278 0.6155054127313512
3 23 233 160 0.6044018400771195 0.8067983144652278 0.6155054127313512
3 23 24 233 0.6044018400771195 0.8067983144652278 0.6155054127313512
3 314 31 315 0.6044018400771195 0.8067983144652278 0.6155054127313512
3 315 64 314 0.6044018400771195 0.8067983144652278 0.6155054127313512
3 30 31 314 0.6044018400771195 0.8067983144652278 0.6155054127313512
3 162 161 64 0.6044018400771195 0.8067983144652278 0.6155054127313512
3 64 65 162 0.6044018400771195 0.8067983144652278 0.6155054127313512
3 285 284 419 0.6044018400771195 0.8067983144652278 0.6155054127313512
3 40 178 412 0.6044018400771195 0.8067983144652278 0.6155054127313512
3 180 413 179 0.6044018400771195 0.8067983144652278 0.6155054127313512
3 179 412 178 0.6044018400771195 0.8067983144652278 0.6155054127313512
3 413 412 179 0.6044018400771195 0.8067983144652278 0.6155054127313512
3 147 413 414 0.6044018400771195 0.8067983144652278 0.6155054127313512
3 414 413 180 0.6044018400771195 0.8067983144652278 0.6155054127313512
3 183 416 182 0.6044018400771195 0.8067983144652278 0.6155054127313512
3 295 210 211 0.6044018400771195 0.8067983144652278 0.6155054127313512
3 378 186 379 0.6044018400771195 0.8067983144652278 0.6155054127313512
3 56 2 190 0.6044018400771195 0.8067983144652278 0.6155054127313512
3 190 424 56 0.6044018400771195 0.8067983144652278 0.6155054127313512
3 190 75 424 0.6044018400771195 0.8067983144652278 0.6155054127313512
3 190 2 3 0.6044018400771195 0.8067983144652278 0.6155054127313512
3 3 75 190 0.6044018400771195 0.8067983144652278 0.6155054127313512
3 21 400 20 0.6044018400771195 0.8067983144652278 0.6155054127313512
3 270 400 126 0.6044018400771195 0.8067983144652278 0.6155054127313512
3 126 400 21 0.6044018400771195 0.8067983144652278 0.6155054127313512
3 275 240 321 0.6044018400771195 0.8067983144652278 0.6155054127313512
3 321 240 320 0.6044018400771195 0.8067983144652278 0.6155054127313512
3 259 18 19 0.6044018400771195 0.8067983144652278 0.6155054127313512
3 115 17 18 0.6044018400771195 0.8067983144652278 0.6155054127313512
3 17 115 116 0.6044018400771195 0.8067983144652278 0.6155054127313512
3 98 11 241 0.6044018400771195 0.8067983144652278 0.6155054127313512
3 169 170 200 0.6044018400771195 0.8067983144652278 0.6155054127313512
3 369 170 169 0.6044018400771195 0.8067983144652278 0.6155054127313512
3 167 197 166 0.6044018400771195 0.8067983144652278 0.6155054127313512
3 166 33 167 0.6044018400771195 0.8067983144652278 0.6155054127313512
3 315 31 196 0.6044018400771195 0.8067983144652278 0.6155054127313512
3 196 197 315 0.6044018400771195 0.8067983144652278 0.6155054127313512
3 316 65 315 0.6044018400771195 0.8067983144652278 0.6155054127313512
3 315 197 316 0.6044018400771195 0.8067983144652278 0.6155054127313512
3 165 239 129 0.6044018400771195 0.8067983144652278 0.6155054127313512
3 160 161 234 0.6044018400771195 0.8067983144652278 0.6155054127313512
3 161 268 234 0.6044018400771195 0.8067983144652278 0.6155054127313512
3 22 23 234 0.6044018400771195 0.8067983144652278 0.6155054127313512
3 234 268 22 0.6044018400771195 0.8067983144652278 0.6155054127313512
3 63 161 160 0.6044018400771195 0.8067983144652278 0.6155054127313512
3 63 28 30 0.6044018400771195 0.8067983144652278 0.6155054127313512
3 160 28 63 0.6044018400771195 0.8067983144652278 0.6155054127313512
3 30 314 63 0.6044018400771195 0.8067983144652278 0.6155054127313512
3 63 314 64 0.6044018400771195 0.8067983144652278 0.6155054127313512
3 64 161 63 0.6044018400771195 0.8067983144652278 0.6155054127313512
3 161 162 235 0.6044018400771195 0.8067983144652278 0.6155054127313512
3 398 411 399 0.6044018400771195 0.8067983144652278 0.6155054127313512
3 393 258 394 0.6044018400771195 0.8067983144652278 0.6155054127313512
3 395 394 258 0.6044018400771195 0.8067983144652278 0.6155054127313512
3 410 375 376 0.6044018400771195 0.8067983144652278 0.6155054127313512
3 376 364 410 0.6044018400771195 0.8067983144652278 0.6155054127313512
3 422 411 376 0.6044018400771195 0.8067983144652278 0.6155054127313512
3 332 284 285 0.6044018400771195 0.8067983144652278 0.6155054127313512
3 294 419 293 0.6044018400771195 0.8067983144652278 0.6155054127313512
3 206 379 380 0.6044018400771195 0.8067983144652278 0.6155054127313512
3 294 421 420 0.6044018400771195 0.8067983144652278 0.6155054127313512
3 420 419 294 0.6044018400771195 0.8067983144652278 0.6155054127313512
3 420 421 285 0.6044018400771195 0.8067983144652278 0.6155054127313512
3 285 419 420 0.6044018400771195 0.8067983144652278 0.6155054127313512
3 417 416 183 0.6044018400771195 0.8067983144652278 0.6155054127313512
3 283 149 417 0.6044018400771195 0.8067983144652278 0.6155054127313512
3 417 149 416 0.6044018400771195 0.8067983144652278 0.6155054127313512
3 147 414 148 0.6044018400771195 0.8067983144652278 0.6155054127313512
3 148 280 147 0.6044018400771195 0.8067983144652278 0.6155054127313512
3 181 414 180 0.6044018400771195 0.8067983144652278 0.6155054127313512
3 290 182 181 0.6044018400771195 0.8067983144652278 0.6155054127313512
3 184 45 46 0.6044018400771195 0.8067983144652278 0.6155054127313512
3 380 188 381 0.6044018400771195 0.8067983144652278 0.6155054127313512
3 154 70 339 0.6044018400771195 0.8067983144652278 0.6155054127313512
3 153 70 154 0.6044018400771195 0.8067983144652278 0.6155054127313512
3 187 186 153 0.6044018400771195 0.8067983144652278 0.6155054127313512
3 153 154 187 0.6044018400771195 0.8067983144652278 0.6155054127313512
3 187 154 188 0.6044018400771195 0.8067983144652278 0.6155054127313512
3 187 188 380 0.6044018400771195 0.8067983144652278 0.6155054127313512
3 380 379 187 0.6044018400771195 0.8067983144652278 0.6155054127313512
3 187 379 186 0.6044018400771195 0.8067983144652278 0.6155054127313512
3 50 52 295 0.6044018400771195 0.8067983144652278 0.6155054127313512
3 336 68 335 0.6044018400771195 0.8067983144652278 0.6155054127313512
3 335 68 67 0.6044018400771195 0.8067983144652278 0.6155054127313512
3 67 47 48 0.6044018400771195 0.8067983144652278 0.6155054127313512
3 152 70 153 0.6044018400771195 0.8067983144652278 0.6155054127313512
3 153 186 152 0.6044018400771195 0.8067983144652278 0.6155054127313512
3 301 302 339 0.6044018400771195 0.8067983144652278 0.6155054127313512
3 301 159 300 0.6044018400771195 0.8067983144652278 0.6155054127313512
3 301 300 216 0.6044018400771195 0.8067983144652278 0.6155054127313512
3 212 211 73 0.6044018400771195 0.8067983144652278 0.6155054127313512
3 225 7 8 0.6044018400771195 0.8067983144652278 0.6155054127313512
3 305 79 220 0.6044018400771195 0.8067983144652278 0.6155054127313512
3 249 398 399 0.6044018400771195 0.8067983144652278 0.6155054127313512
3 44 45 203 0.6044018400771195 0.8067983144652278 0.6155054127313512
3 203 42 44 0.6044018400771195 0.8067983144652278 0.6155054127313512
3 203 204 42 0.6044018400771195 0.8067983144652278 0.6155054127313512
3 56 424 55 0.6044018400771195 0.8067983144652278 0.6155054127313512
3 424 54 55 0.6044018400771195 0.8067983144652278 0.6155054127313512
3 244 101 245 0.6044018400771195 0.8067983144652278 0.6155054127313512
3 270 126 236 0.6044018400771195 0.8067983144652278 0.6155054127313512
3 236 132 162 0.6044018400771195 0.8067983144652278 0.6155054127313512
3 236 126 21 0.6044018400771195 0.8067983144652278 0.6155054127313512
3 21 132 236 0.6044018400771195 0.8067983144652278 0.6155054127313512
3 40 412 145 0.6044018400771195 0.8067983144652278 0.6155054127313512
3 145 39 40 0.6044018400771195 0.8067983144652278 0.6155054127313512
3 38 39 277 0.6044018400771195 0.8067983144652278 0.6155054127313512
3 39 145 277 0.6044018400771195 0.8067983144652278 0.6155054127313512
3 277 145 278 0.6044018400771195 0.8067983144652278 0.6155054127313512
3 373 330 374 0.6044018400771195 0.8067983144652278 0.6155054127313512
3 370 170 369 0.6044018400771195 0.8067983144652278 0.6155054127313512
3 200 170 201 0.6044018400771195 0.8067983144652278 0.6155054127313512
3 319 320 404 0.6044018400771195 0.8067983144652278 0.6155054127313512
3 404 239 319 0.6044018400771195 0.8067983144652278 0.6155054127313512
3 239 165 319 0.6044018400771195 0.8067983144652278 0.6155054127313512
3 200 201 319 0.6044018400771195 0.8067983144652278 0.6155054127313512
3 319 201 320 0.6044018400771195 0.8067983144652278 0.6155054127313512
3 260 115 18 0.6044018400771195 0.8067983144652278 0.6155054127313512
3 18 259 122 0.6044018400771195 0.8067983144652278 0.6155054127313512
3 122 260 18 0.6044018400771195 0.8067983144652278 0.6155054127313512
3 129 260 122 0.6044018400771195 0.8067983144652278 0.6155054127313512
3 404 320 274 0.6044018400771195 0.8067983144652278 0.6155054127313512
3 274 320 240 0.6044018400771195 0.8067983144652278 0.6155054127313512
3 35 135 173 0.6044018400771195 0.8067983144652278 0.6155054127313512
3 197 167 198 0.6044018400771195 0.8067983144652278 0.6155054127313512
3 317 316 198 0.6044018400771195 0.8067983144652278 0.6155054127313512
3 198 316 197 0.6044018400771195 0.8067983144652278 0.6155054127313512
3 33 34 366 0.6044018400771195 0.8067983144652278 0.6155054127313512
3 366 167 33 0.6044018400771195 0.8067983144652278 0.6155054127313512
3 366 34 367 0.6044018400771195 0.8067983144652278 0.6155054127313512
3 367 167 366 0.6044018400771195 0.8067983144652278 0.6155054127313512
3 166 197 32 0.6044018400771195 0.8067983144652278 0.6155054127313512
3 197 196 32 0.6044018400771195 0.8067983144652278 0.6155054127313512
3 32 33 166 0.6044018400771195 0.8067983144652278 0.6155054127313512
3 32 196 31 0.6044018400771195 0.8067983144652278 0.6155054127313512
3 317 164 66 0.6044018400771195 0.8067983144652278 0.6155054127313512
3 66 316 317 0.6044018400771195 0.8067983144652278 0.6155054127313512
3 65 316 66 0.6044018400771195 0.8067983144652278 0.6155054127313512
3 200 319 318 0.6044018400771195 0.8067983144652278 0.6155054127313512
3 318 319 165 0.6044018400771195 0.8067983144652278 0.6155054127313512
3 318 164 317 0.6044018400771195 0.8067983144652278 0.6155054127313512
3 318 165 164 0.6044018400771195 0.8067983144652278 0.6155054127313512
3 130 23 160 0.6044018400771195 0.8067983144652278 0.6155054127313512
3 160 234 130 0.6044018400771195 0.8067983144652278 0.6155054127313512
3 130 234 23 0.6044018400771195 0.8067983144652278 0.6155054127313512
3 131 268 161 0.6044018400771195 0.8067983144652278 0.6155054127313512
3 161 235 131 0.6044018400771195 0.8067983144652278 0.6155054127313512
3 22 268 131 0.6044018400771195 0.8067983144652278 0.6155054127313512
3 131 235 22 0.6044018400771195 0.8067983144652278 0.6155054127313512
3 258 364 365 0.6044018400771195 0.8067983144652278 0.6155054127313512
3 365 395 258 0.6044018400771195 0.8067983144652278 0.6155054127313512
3 365 376 411 0.6044018400771195 0.8067983144652278 0.6155054127313512
3 364 376 365 0.6044018400771195 0.8067983144652278 0.6155054127313512
3 411 396 365 0.6044018400771195 0.8067983144652278 0.6155054127313512
3 396 395 365 0.6044018400771195 0.8067983144652278 0.6155054127313512
3 333 376 375 0.6044018400771195 0.8067983144652278 0.6155054127313512
3 375 332 333 0.6044018400771195 0.8067983144652278 0.6155054127313512
3 333 332 285 0.6044018400771195 0.8067983144652278 0.6155054127313512
3 285 421 333 0.6044018400771195 0.8067983144652278 0.6155054127313512
3 333 421 422 0.6044018400771195 0.8067983144652278 0.6155054127313512
3 422 376 333 0.6044018400771195 0.8067983144652278 0.6155054127313512
3 283 284 331 0.6044018400771195 0.8067983144652278 0.6155054127313512
3 284 332 331 0.6044018400771195 0.8067983144652278 0.6155054127313512
3 331 330 283 0.6044018400771195 0.8067983144652278 0.6155054127313512
3 374 330 331 0.6044018400771195 0.8067983144652278 0.6155054127313512
3 331 375 374 0.6044018400771195 0.8067983144652278 0.6155054127313512
3 331 332 375 0.6044018400771195 0.8067983144652278 0.6155054127313512
3 384 209 383 0.6044018400771195 0.8067983144652278 0.6155054127313512
3 293 209 384 0.6044018400771195 0.8067983144652278 0.6155054127313512
3 289 181 180 0.6044018400771195 0.8067983144652278 0.6155054127313512
3 290 181 289 0.6044018400771195 0.8067983144652278 0.6155054127313512
3 42 204 286 0.6044018400771195 0.8067983144652278 0.6155054127313512
3 286 41 42 0.6044018400771195 0.8067983144652278 0.6155054127313512
3 178 41 286 0.6044018400771195 0.8067983144652278 0.6155054127313512
3 342 384 341 0.6044018400771195 0.8067983144652278 0.6155054127313512
3 423 411 422 0.6044018400771195 0.8067983144652278 0.6155054127313512
3 399 411 423 0.6044018400771195 0.8067983144652278 0.6155054127313512
3 423 448 399 0.6044018400771195 0.8067983144652278 0.6155054127313512
3 418 417 183 0.6044018400771195 0.8067983144652278 0.6155054127313512
3 183 293 418 0.6044018400771195 0.8067983144652278 0.6155054127313512
3 418 293 419 0.6044018400771195 0.8067983144652278 0.6155054127313512
3 418 419 284 0.6044018400771195 0.8067983144652278 0.6155054127313512
3 418 284 283 0.6044018400771195 0.8067983144652278 0.6155054127313512
3 283 417 418 0.6044018400771195 0.8067983144652278 0.6155054127313512
3 147 280 279 0.6044018400771195 0.8067983144652278 0.6155054127313512
3 281 148 149 0.6044018400771195 0.8067983144652278 0.6155054127313512
3 280 148 281 0.6044018400771195 0.8067983144652278 0.6155054127313512
3 281 144 280 0.6044018400771195 0.8067983144652278 0.6155054127313512
3 415 148 414 0.6044018400771195 0.8067983144652278 0.6155054127313512
3 414 181 415 0.6044018400771195 0.8067983144652278 0.6155054127313512
3 416 149 415 0.6044018400771195 0.8067983144652278 0.6155054127313512
3 149 148 415 0.6044018400771195 0.8067983144652278 0.6155054127313512
3 415 182 416 0.6044018400771195 0.8067983144652278 0.6155054127313512
3 415 181 182 0.6044018400771195 0.8067983144652278 0.6155054127313512
3 185 186 378 0.6044018400771195 0.8067983144652278 0.6155054127313512
3 185 184 151 0.6044018400771195 0.8067983144652278 0.6155054127313512
3 151 152 185 0.6044018400771195 0.8067983144652278 0.6155054127313512
3 185 152 186 0.6044018400771195 0.8067983144652278 0.6155054127313512
3 45 184 377 0.6044018400771195 0.8067983144652278 0.6155054127313512
3 377 203 45 0.6044018400771195 0.8067983144652278 0.6155054127313512
3 377 185 378 0.6044018400771195 0.8067983144652278 0.6155054127313512
3 184 185 377 0.6044018400771195 0.8067983144652278 0.6155054127313512
3 378 204 377 0.6044018400771195 0.8067983144652278 0.6155054127313512
3 204 203 377 0.6044018400771195 0.8067983144652278 0.6155054127313512
3 46 47 150 0.6044018400771195 0.8067983144652278 0.6155054127313512
3 150 184 46 0.6044018400771195 0.8067983144652278 0.6155054127313512
3 151 184 150 0.6044018400771195 0.8067983144652278 0.6155054127313512
3 150 68 151 0.6044018400771195 0.8067983144652278 0.6155054127313512
3 150 67 68 0.6044018400771195 0.8067983144652278 0.6155054127313512
3 47 67 150 0.6044018400771195 0.8067983144652278 0.6155054127313512
3 189 381 188 0.6044018400771195 0.8067983144652278 0.6155054127313512
3 189 384 383 0.6044018400771195 0.8067983144652278 0.6155054127313512
3 189 341 384 0.6044018400771195 0.8067983144652278 0.6155054127313512
3 188 154 189 0.6044018400771195 0.8067983144652278 0.6155054127313512
3 207 381 208 0.6044018400771195 0.8067983144652278 0.6155054127313512
3 207 289 206 0.6044018400771195 0.8067983144652278 0.6155054127313512
3 207 206 380 0.6044018400771195 0.8067983144652278 0.6155054127313512
3 380 381 207 0.6044018400771195 0.8067983144652278 0.6155054127313512
3 207 208 290 0.6044018400771195 0.8067983144652278 0.6155054127313512
3 290 289 207 0.6044018400771195 0.8067983144652278 0.6155054127313512
3 335 156 157 0.6044018400771195 0.8067983144652278 0.6155054127313512
3 158 336 157 0.6044018400771195 0.8067983144652278 0.6155054127313512
3 157 336 335 0.6044018400771195 0.8067983144652278 0.6155054127313512
3 295 211 296 0.6044018400771195 0.8067983144652278 0.6155054127313512
3 296 211 212 0.6044018400771195 0.8067983144652278 0.6155054127313512
3 296 50 295 0.6044018400771195 0.8067983144652278 0.6155054127313512
3 68 336 69 0.6044018400771195 0.8067983144652278 0.6155054127313512
3 70 152 69 0.6044018400771195 0.8067983144652278 0.6155054127313512
3 151 68 69 0.6044018400771195 0.8067983144652278 0.6155054127313512
3 69 152 151 0.6044018400771195 0.8067983144652278 0.6155054127313512
3 339 70 338 0.6044018400771195 0.8067983144652278 0.6155054127313512
3 338 301 339 0.6044018400771195 0.8067983144652278 0.6155054127313512
3 159 301 338 0.6044018400771195 0.8067983144652278 0.6155054127313512
3 7 225 86 0.6044018400771195 0.8067983144652278 0.6155054127313512
3 226 225 8 0.6044018400771195 0.8067983144652278 0.6155054127313512
3 79 305 85 0.6044018400771195 0.8067983144652278 0.6155054127313512
3 6 7 85 0.6044018400771195 0.8067983144652278 0.6155054127313512
3 85 305 6 0.6044018400771195 0.8067983144652278 0.6155054127313512
3 8 9 90 0.6044018400771195 0.8067983144652278 0.6155054127313512
3 90 226 8 0.6044018400771195 0.8067983144652278 0.6155054127313512
3 430 214 429 0.6044018400771195 0.8067983144652278 0.6155054127313512
3 215 214 430 0.6044018400771195 0.8067983144652278 0.6155054127313512
3 216 300 215 0.6044018400771195 0.8067983144652278 0.6155054127313512
3 215 430 216 0.6044018400771195 0.8067983144652278 0.6155054127313512
3 103 245 102 0.6044018400771195 0.8067983144652278 0.6155054127313512
3 102 245 101 0.6044018400771195 0.8067983144652278 0.6155054127313512
3 394 395 104 0.6044018400771195 0.8067983144652278 0.6155054127313512
3 104 395 396 0.6044018400771195 0.8067983144652278 0.6155054127313512
3 396 249 104 0.6044018400771195 0.8067983144652278 0.6155054127313512
3 393 394 104 0.6044018400771195 0.8067983144652278 0.6155054127313512
3 397 249 396 0.6044018400771195 0.8067983144652278 0.6155054127313512
3 398 249 397 0.6044018400771195 0.8067983144652278 0.6155054127313512
3 397 396 411 0.6044018400771195 0.8067983144652278 0.6155054127313512
3 411 398 397 0.6044018400771195 0.8067983144652278 0.6155054127313512
3 303 341 302 0.6044018400771195 0.8067983144652278 0.6155054127313512
3 342 341 303 0.6044018400771195 0.8067983144652278 0.6155054127313512
3 303 434 342 0.6044018400771195 0.8067983144652278 0.6155054127313512
3 349 99 350 0.6044018400771195 0.8067983144652278 0.6155054127313512
3 98 99 349 0.6044018400771195 0.8067983144652278 0.6155054127313512
3 347 94 346 0.6044018400771195 0.8067983144652278 0.6155054127313512
3 94 93 346 0.6044018400771195 0.8067983144652278 0.6155054127313512
3 53 54 71 0.6044018400771195 0.8067983144652278 0.6155054127313512
3 71 210 53 0.6044018400771195 0.8067983144652278 0.6155054127313512
3 60 54 424 0.6044018400771195 0.8067983144652278 0.6155054127313512
3 424 425 60 0.6044018400771195 0.8067983144652278 0.6155054127313512
3 60 71 54 0.6044018400771195 0.8067983144652278 0.6155054127313512
3 425 71 60 0.6044018400771195 0.8067983144652278 0.6155054127313512
3 3 4 217 0.6044018400771195 0.8067983144652278 0.6155054127313512
3 424 75 191 0.6044018400771195 0.8067983144652278 0.6155054127313512
3 191 425 424 0.6044018400771195 0.8067983144652278 0.6155054127313512
3 191 75 3 0.6044018400771195 0.8067983144652278 0.6155054127313512
3 3 217 191 0.6044018400771195 0.8067983144652278 0.6155054127313512
3 134 271 164 0.6044018400771195 0.8067983144652278 0.6155054127313512
3 19 20 120 0.6044018400771195 0.8067983144652278 0.6155054127313512
3 120 134 19 0.6044018400771195 0.8067983144652278 0.6155054127313512
3 271 134 120 0.6044018400771195 0.8067983144652278 0.6155054127313512
3 164 271 237 0.6044018400771195 0.8067983144652278 0.6155054127313512
3 237 66 164 0.6044018400771195 0.8067983144652278 0.6155054127313512
3 269 235 162 0.6044018400771195 0.8067983144652278 0.6155054127313512
3 162 132 269 0.6044018400771195 0.8067983144652278 0.6155054127313512
3 163 162 65 0.6044018400771195 0.8067983144652278 0.6155054127313512
3 163 236 162 0.6044018400771195 0.8067983144652278 0.6155054127313512
3 270 236 163 0.6044018400771195 0.8067983144652278 0.6155054127313512
3 65 66 163 0.6044018400771195 0.8067983144652278 0.6155054127313512
3 66 237 163 0.6044018400771195 0.8067983144652278 0.6155054127313512
3 410 364 363 0.6044018400771195 0.8067983144652278 0.6155054127313512
3 16 110 15 0.6044018400771195 0.8067983144652278 0.6155054127313512
3 357 110 16 0.6044018400771195 0.8067983144652278 0.6155054127313512
3 146 412 413 0.6044018400771195 0.8067983144652278 0.6155054127313512
3 146 145 412 0.6044018400771195 0.8067983144652278 0.6155054127313512
3 146 413 147 0.6044018400771195 0.8067983144652278 0.6155054127313512
3 147 279 146 0.6044018400771195 0.8067983144652278 0.6155054127313512
3 278 145 146 0.6044018400771195 0.8067983144652278 0.6155054127313512
3 146 279 278 0.6044018400771195 0.8067983144652278 0.6155054127313512
3 136 173 135 0.6044018400771195 0.8067983144652278 0.6155054127313512
3 174 173 136 0.6044018400771195 0.8067983144652278 0.6155054127313512
3 141 277 278 0.6044018400771195 0.8067983144652278 0.6155054127313512
3 330 373 329 0.6044018400771195 0.8067983144652278 0.6155054127313512
3 328 144 329 0.6044018400771195 0.8067983144652278 0.6155054127313512
3 329 144 330 0.6044018400771195 0.8067983144652278 0.6155054127313512
3 369 174 175 0.6044018400771195 0.8067983144652278 0.6155054127313512
3 175 370 369 0.6044018400771195 0.8067983144652278 0.6155054127313512
3 240 275 263 0.6044018400771195 0.8067983144652278 0.6155054127313512
3 116 274 124 0.6044018400771195 0.8067983144652278 0.6155054127313512
3 17 116 262 0.6044018400771195 0.8067983144652278 0.6155054127313512
3 262 117 17 0.6044018400771195 0.8067983144652278 0.6155054127313512
3 116 124 262 0.6044018400771195 0.8067983144652278 0.6155054127313512
3 16 17 355 0.6044018400771195 0.8067983144652278 0.6155054127313512
3 17 117 355 0.6044018400771195 0.8067983144652278 0.6155054127313512
3 129 239 273 0.6044018400771195 0.8067983144652278 0.6155054127313512
3 273 260 129 0.6044018400771195 0.8067983144652278 0.6155054127313512
3 115 260 123 0.6044018400771195 0.8067983144652278 0.6155054127313512
3 260 273 123 0.6044018400771195 0.8067983144652278 0.6155054127313512
3 123 239 404 0.6044018400771195 0.8067983144652278 0.6155054127313512
3 123 273 239 0.6044018400771195 0.8067983144652278 0.6155054127313512
3 404 274 261 0.6044018400771195 0.8067983144652278 0.6155054127313512
3 261 274 116 0.6044018400771195 0.8067983144652278 0.6155054127313512
3 261 123 404 0.6044018400771195 0.8067983144652278 0.6155054127313512
3 261 116 115 0.6044018400771195 0.8067983144652278 0.6155054127313512
3 115 123 261 0.6044018400771195 0.8067983144652278 0.6155054127313512
3 244 99 243 0.6044018400771195 0.8067983144652278 0.6155054127313512
3 242 98 241 0.6044018400771195 0.8067983144652278 0.6155054127313512
3 242 99 98 0.6044018400771195 0.8067983144652278 0.6155054127313512
3 242 243 99 0.6044018400771195 0.8067983144652278 0.6155054127313512
3 242 241 12 0.6044018400771195 0.8067983144652278 0.6155054127313512
3 12 243 242 0.6044018400771195 0.8067983144652278 0.6155054127313512
3 95 96 347 0.6044018400771195 0.8067983144652278 0.6155054127313512
3 95 346 10 0.6044018400771195 0.8067983144652278 0.6155054127313512
3 347 346 95 0.6044018400771195 0.8067983144652278 0.6155054127313512
3 10 11 95 0.6044018400771195 0.8067983144652278 0.6155054127313512
3 11 96 95 0.6044018400771195 0.8067983144652278 0.6155054127313512
3 172 34 35 0.6044018400771195 0.8067983144652278 0.6155054127313512
3 35 173 172 0.6044018400771195 0.8067983144652278 0.6155054127313512
3 367 34 172 0.6044018400771195 0.8067983144652278 0.6155054127313512
3 172 173 367 0.6044018400771195 0.8067983144652278 0.6155054127313512
3 369 169 368 0.6044018400771195 0.8067983144652278 0.6155054127313512
3 368 174 369 0.6044018400771195 0.8067983144652278 0.6155054127313512
3 368 173 174 0.6044018400771195 0.8067983144652278 0.6155054127313512
3 367 173 368 0.6044018400771195 0.8067983144652278 0.6155054127313512
3 168 167 367 0.6044018400771195 0.8067983144652278 0.6155054127313512
3 168 198 167 0.6044018400771195 0.8067983144652278 0.6155054127313512
3 367 368 168 0.6044018400771195 0.8067983144652278 0.6155054127313512
3 168 368 169 0.6044018400771195 0.8067983144652278 0.6155054127313512
3 317 198 199 0.6044018400771195 0.8067983144652278 0.6155054127313512
3 199 318 317 0.6044018400771195 0.8067983144652278 0.6155054127313512
3 198 168 199 0.6044018400771195 0.8067983144652278 0.6155054127313512
3 199 168 169 0.6044018400771195 0.8067983144652278 0.6155054127313512
3 199 169 200 0.6044018400771195 0.8067983144652278 0.6155054127313512
3 200 318 199 0.6044018400771195 0.8067983144652278 0.6155054127313512
3 403 165 129 0.6044018400771195 0.8067983144652278 0.6155054127313512
3 403 272 165 0.6044018400771195 0.8067983144652278 0.6155054127313512
3 129 122 403 0.6044018400771195 0.8067983144652278 0.6155054127313512
3 403 122 259 0.6044018400771195 0.8067983144652278 0.6155054127313512
3 259 272 403 0.6044018400771195 0.8067983144652278 0.6155054127313512
3 121 259 19 0.6044018400771195 0.8067983144652278 0.6155054127313512
3 121 272 259 0.6044018400771195 0.8067983144652278 0.6155054127313512
3 164 165 238 0.6044018400771195 0.8067983144652278 0.6155054127313512
3 165 272 238 0.6044018400771195 0.8067983144652278 0.6155054127313512
3 238 134 164 0.6044018400771195 0.8067983144652278 0.6155054127313512
3 272 121 238 0.6044018400771195 0.8067983144652278 0.6155054127313512
3 257 364 258 0.6044018400771195 0.8067983144652278 0.6155054127313512
3 258 109 257 0.6044018400771195 0.8067983144652278 0.6155054127313512
3 108 109 389 0.6044018400771195 0.8067983144652278 0.6155054127313512
3 292 293 183 0.6044018400771195 0.8067983144652278 0.6155054127313512
3 292 209 293 0.6044018400771195 0.8067983144652278 0.6155054127313512
3 294 293 385 0.6044018400771195 0.8067983144652278 0.6155054127313512
3 293 384 385 0.6044018400771195 0.8067983144652278 0.6155054127313512
3 385 386 294 0.6044018400771195 0.8067983144652278 0.6155054127313512
3 385 384 342 0.6044018400771195 0.8067983144652278 0.6155054127313512
3 205 286 204 0.6044018400771195 0.8067983144652278 0.6155054127313512
3 379 206 205 0.6044018400771195 0.8067983144652278 0.6155054127313512
3 205 204 378 0.6044018400771195 0.8067983144652278 0.6155054127313512
3 378 379 205 0.6044018400771195 0.8067983144652278 0.6155054127313512
3 286 205 287 0.6044018400771195 0.8067983144652278 0.6155054127313512
3 287 179 178 0.6044018400771195 0.8067983144652278 0.6155054127313512
3 178 286 287 0.6044018400771195 0.8067983144652278 0.6155054127313512
3 340 154 339 0.6044018400771195 0.8067983144652278 0.6155054127313512
3 339 302 340 0.6044018400771195 0.8067983144652278 0.6155054127313512
3 302 341 340 0.6044018400771195 0.8067983144652278 0.6155054127313512
3 340 189 154 0.6044018400771195 0.8067983144652278 0.6155054127313512
3 341 189 340 0.6044018400771195 0.8067983144652278 0.6155054127313512
3 278 279 142 0.6044018400771195 0.8067983144652278 0.6155054127313512
3 142 141 278 0.6044018400771195 0.8067983144652278 0.6155054127313512
3 143 279 280 0.6044018400771195 0.8067983144652278 0.6155054127313512
3 280 144 143 0.6044018400771195 0.8067983144652278 0.6155054127313512
3 143 142 279 0.6044018400771195 0.8067983144652278 0.6155054127313512
3 143 144 328 0.6044018400771195 0.8067983144652278 0.6155054127313512
3 330 144 282 0.6044018400771195 0.8067983144652278 0.6155054127313512
3 144 281 282 0.6044018400771195 0.8067983144652278 0.6155054127313512
3 283 330 282 0.6044018400771195 0.8067983144652278 0.6155054127313512
3 282 149 283 0.6044018400771195 0.8067983144652278 0.6155054127313512
3 282 281 149 0.6044018400771195 0.8067983144652278 0.6155054127313512
3 382 189 383 0.6044018400771195 0.8067983144652278 0.6155054127313512
3 381 189 382 0.6044018400771195 0.8067983144652278 0.6155054127313512
3 208 381 382 0.6044018400771195 0.8067983144652278 0.6155054127313512
3 383 209 382 0.6044018400771195 0.8067983144652278 0.6155054127313512
3 382 209 208 0.6044018400771195 0.8067983144652278 0.6155054127313512
3 50 296 155 0.6044018400771195 0.8067983144652278 0.6155054127313512
3 155 49 50 0.6044018400771195 0.8067983144652278 0.6155054127313512
3 297 157 156 0.6044018400771195 0.8067983144652278 0.6155054127313512
3 156 155 297 0.6044018400771195 0.8067983144652278 0.6155054127313512
3 297 155 296 0.6044018400771195 0.8067983144652278 0.6155054127313512
3 297 296 212 0.6044018400771195 0.8067983144652278 0.6155054127313512
3 334 156 335 0.6044018400771195 0.8067983144652278 0.6155054127313512
3 48 49 334 0.6044018400771195 0.8067983144652278 0.6155054127313512
3 334 155 156 0.6044018400771195 0.8067983144652278 0.6155054127313512
3 49 155 334 0.6044018400771195 0.8067983144652278 0.6155054127313512
3 334 67 48 0.6044018400771195 0.8067983144652278 0.6155054127313512
3 335 67 334 0.6044018400771195 0.8067983144652278 0.6155054127313512
3 159 338 337 0.6044018400771195 0.8067983144652278 0.6155054127313512
3 337 336 158 0.6044018400771195 0.8067983144652278 0.6155054127313512
3 158 159 337 0.6044018400771195 0.8067983144652278 0.6155054127313512
3 337 338 70 0.6044018400771195 0.8067983144652278 0.6155054127313512
3 70 69 337 0.6044018400771195 0.8067983144652278 0.6155054127313512
3 337 69 336 0.6044018400771195 0.8067983144652278 0.6155054127313512
3 220 79 428 0.6044018400771195 0.8067983144652278 0.6155054127313512
3 428 79 195 0.6044018400771195 0.8067983144652278 0.6155054127313512
3 195 429 428 0.6044018400771195 0.8067983144652278 0.6155054127313512
3 304 5 6 0.6044018400771195 0.8067983144652278 0.6155054127313512
3 6 78 304 0.6044018400771195 0.8067983144652278 0.6155054127313512
3 6 305 82 0.6044018400771195 0.8067983144652278 0.6155054127313512
3 82 305 220 0.6044018400771195 0.8067983144652278 0.6155054127313512
3 221 429 195 0.6044018400771195 0.8067983144652278 0.6155054127313512
3 84 429 221 0.6044018400771195 0.8067983144652278 0.6155054127313512
3 225 226 87 0.6044018400771195 0.8067983144652278 0.6155054127313512
3 222 87 226 0.6044018400771195 0.8067983144652278 0.6155054127313512
3 84 87 222 0.6044018400771195 0.8067983144652278 0.6155054127313512
3 7 86 306 0.6044018400771195 0.8067983144652278 0.6155054127313512
3 306 85 7 0.6044018400771195 0.8067983144652278 0.6155054127313512
3 86 221 306 0.6044018400771195 0.8067983144652278 0.6155054127313512
3 79 85 306 0.6044018400771195 0.8067983144652278 0.6155054127313512
3 91 90 9 0.6044018400771195 0.8067983144652278 0.6155054127313512
3 226 90 227 0.6044018400771195 0.8067983144652278 0.6155054127313512
3 90 91 227 0.6044018400771195 0.8067983144652278 0.6155054127313512
3 214 215 299 0.6044018400771195 0.8067983144652278 0.6155054127313512
3 299 215 300 0.6044018400771195 0.8067983144652278 0.6155054127313512
3 299 159 158 0.6044018400771195 0.8067983144652278 0.6155054127313512
3 300 159 299 0.6044018400771195 0.8067983144652278 0.6155054127313512
3 247 104 248 0.6044018400771195 0.8067983144652278 0.6155054127313512
3 248 104 249 0.6044018400771195 0.8067983144652278 0.6155054127313512
3 248 353 247 0.6044018400771195 0.8067983144652278 0.6155054127313512
3 249 353 248 0.6044018400771195 0.8067983144652278 0.6155054127313512
3 354 353 249 0.6044018400771195 0.8067983144652278 0.6155054127313512
3 399 448 354 0.6044018400771195 0.8067983144652278 0.6155054127313512
3 354 249 399 0.6044018400771195 0.8067983144652278 0.6155054127313512
3 246 245 103 0.6044018400771195 0.8067983144652278 0.6155054127313512
3 246 104 247 0.6044018400771195 0.8067983144652278 0.6155054127313512
3 103 104 246 0.6044018400771195 0.8067983144652278 0.6155054127313512
3 98 349 97 0.6044018400771195 0.8067983144652278 0.6155054127313512
3 11 98 97 0.6044018400771195 0.8067983144652278 0.6155054127313512
3 97 96 11 0.6044018400771195 0.8067983144652278 0.6155054127313512
3 432 301 216 0.6044018400771195 0.8067983144652278 0.6155054127313512
3 302 301 432 0.6044018400771195 0.8067983144652278 0.6155054127313512
3 432 303 302 0.6044018400771195 0.8067983144652278 0.6155054127313512
3 10 346 345 0.6044018400771195 0.8067983144652278 0.6155054127313512
3 345 346 93 0.6044018400771195 0.8067983144652278 0.6155054127313512
3 231 94 347 0.6044018400771195 0.8067983144652278 0.6155054127313512
3 312 445 231 0.6044018400771195 0.8067983144652278 0.6155054127313512
3 61 71 425 0.6044018400771195 0.8067983144652278 0.6155054127313512
3 425 426 61 0.6044018400771195 0.8067983144652278 0.6155054127313512
3 425 191 76 0.6044018400771195 0.8067983144652278 0.6155054127313512
3 76 191 217 0.6044018400771195 0.8067983144652278 0.6155054127313512
3 76 217 4 0.6044018400771195 0.8067983144652278 0.6155054127313512
3 133 237 20 0.6044018400771195 0.8067983144652278 0.6155054127313512
3 133 400 270 0.6044018400771195 0.8067983144652278 0.6155054127313512
3 133 20 400 0.6044018400771195 0.8067983144652278 0.6155054127313512
3 270 163 133 0.6044018400771195 0.8067983144652278 0.6155054127313512
3 133 163 237 0.6044018400771195 0.8067983144652278 0.6155054127313512
3 271 120 401 0.6044018400771195 0.8067983144652278 0.6155054127313512
3 401 120 20 0.6044018400771195 0.8067983144652278 0.6155054127313512
3 20 237 401 0.6044018400771195 0.8067983144652278 0.6155054127313512
3 125 132 21 0.6044018400771195 0.8067983144652278 0.6155054127313512
3 125 269 132 0.6044018400771195 0.8067983144652278 0.6155054127313512
3 235 269 125 0.6044018400771195 0.8067983144652278 0.6155054127313512
3 125 21 22 0.6044018400771195 0.8067983144652278 0.6155054127313512
3 22 235 125 0.6044018400771195 0.8067983144652278 0.6155054127313512
3 362 254 253 0.6044018400771195 0.8067983144652278 0.6155054127313512
3 362 363 255 0.6044018400771195 0.8067983144652278 0.6155054127313512
3 255 254 362 0.6044018400771195 0.8067983144652278 0.6155054127313512
3 38 277 140 0.6044018400771195 0.8067983144652278 0.6155054127313512
3 277 141 140 0.6044018400771195 0.8067983144652278 0.6155054127313512
3 140 37 38 0.6044018400771195 0.8067983144652278 0.6155054127313512
3 141 142 326 0.6044018400771195 0.8067983144652278 0.6155054127313512
3 370 371 171 0.6044018400771195 0.8067983144652278 0.6155054127313512
3 170 370 171 0.6044018400771195 0.8067983144652278 0.6155054127313512
3 171 201 170 0.6044018400771195 0.8067983144652278 0.6155054127313512
3 320 201 171 0.6044018400771195 0.8067983144652278 0.6155054127313512
3 370 175 176 0.6044018400771195 0.8067983144652278 0.6155054127313512
3 176 371 370 0.6044018400771195 0.8067983144652278 0.6155054127313512
3 356 357 16 0.6044018400771195 0.8067983144652278 0.6155054127313512
3 16 355 356 0.6044018400771195 0.8067983144652278 0.6155054127313512
3 117 263 356 0.6044018400771195 0.8067983144652278 0.6155054127313512
3 356 355 117 0.6044018400771195 0.8067983144652278 0.6155054127313512
3 405 262 124 0.6044018400771195 0.8067983144652278 0.6155054127313512
3 405 274 240 0.6044018400771195 0.8067983144652278 0.6155054127313512
3 405 124 274 0.6044018400771195 0.8067983144652278 0.6155054127313512
3 117 262 405 0.6044018400771195 0.8067983144652278 0.6155054127313512
3 240 263 405 0.6044018400771195 0.8067983144652278 0.6155054127313512
3 405 263 117 0.6044018400771195 0.8067983144652278 0.6155054127313512
3 19 134 402 0.6044018400771195 0.8067983144652278 0.6155054127313512
3 402 121 19 0.6044018400771195 0.8067983144652278 0.6155054127313512
3 100 389 101 0.6044018400771195 0.8067983144652278 0.6155054127313512
3 100 101 244 0.6044018400771195 0.8067983144652278 0.6155054127313512
3 100 243 12 0.6044018400771195 0.8067983144652278 0.6155054127313512
3 244 243 100 0.6044018400771195 0.8067983144652278 0.6155054127313512
3 12 13 388 0.6044018400771195 0.8067983144652278 0.6155054127313512
3 388 100 12 0.6044018400771195 0.8067983144652278 0.6155054127313512
3 389 100 388 0.6044018400771195 0.8067983144652278 0.6155054127313512
3 388 13 108 0.6044018400771195 0.8067983144652278 0.6155054127313512
3 108 389 388 0.6044018400771195 0.8067983144652278 0.6155054127313512
3 103 102 391 0.6044018400771195 0.8067983144652278 0.6155054127313512
3 105 13 14 0.6044018400771195 0.8067983144652278 0.6155054127313512
3 105 106 13 0.6044018400771195 0.8067983144652278 0.6155054127313512
3 14 253 105 0.6044018400771195 0.8067983144652278 0.6155054127313512
3 254 106 105 0.6044018400771195 0.8067983144652278 0.6155054127313512
3 105 253 254 0.6044018400771195 0.8067983144652278 0.6155054127313512
3 108 13 107 0.6044018400771195 0.8067983144652278 0.6155054127313512
3 13 106 107 0.6044018400771195 0.8067983144652278 0.6155054127313512
3 107 255 108 0.6044018400771195 0.8067983144652278 0.6155054127313512
3 107 106 254 0.6044018400771195 0.8067983144652278 0.6155054127313512
3 254 255 107 0.6044018400771195 0.8067983144652278 0.6155054127313512
3 209 292 291 0.6044018400771195 0.8067983144652278 0.6155054127313512
3 290 208 291 0.6044018400771195 0.8067983144652278 0.6155054127313512
3 208 209 291 0.6044018400771195 0.8067983144652278 0.6155054127313512
3 291 292 183 0.6044018400771195 0.8067983144652278 0.6155054127313512
3 183 182 291 0.6044018400771195 0.8067983144652278 0.6155054127313512
3 291 182 290 0.6044018400771195 0.8067983144652278 0.6155054127313512
3 206 289 288 0.6044018400771195 0.8067983144652278 0.6155054127313512
3 288 205 206 0.6044018400771195 0.8067983144652278 0.6155054127313512
3 288 287 205 0.6044018400771195 0.8067983144652278 0.6155054127313512
3 179 287 288 0.6044018400771195 0.8067983144652278 0.6155054127313512
3 180 179 288 0.6044018400771195 0.8067983144652278 0.6155054127313512
3 288 289 180 0.6044018400771195 0.8067983144652278 0.6155054127313512
3 157 297 298 0.6044018400771195 0.8067983144652278 0.6155054127313512
3 214 299 298 0.6044018400771195 0.8067983144652278 0.6155054127313512
3 158 157 298 0.6044018400771195 0.8067983144652278 0.6155054127313512
3 298 299 158 0.6044018400771195 0.8067983144652278 0.6155054127313512
3 220 428 440 0.6044018400771195 0.8067983144652278 0.6155054127313512
3 440 82 220 0.6044018400771195 0.8067983144652278 0.6155054127313512
3 440 78 6 0.6044018400771195 0.8067983144652278 0.6155054127313512
3 6 82 440 0.6044018400771195 0.8067983144652278 0.6155054127313512
3 212 73 74 0.6044018400771195 0.8067983144652278 0.6155054127313512
3 74 428 429 0.6044018400771195 0.8067983144652278 0.6155054127313512
3 307 221 86 0.6044018400771195 0.8067983144652278 0.6155054127313512
3 84 221 307 0.6044018400771195 0.8067983144652278 0.6155054127313512
3 307 86 225 0.6044018400771195 0.8067983144652278 0.6155054127313512
3 225 87 307 0.6044018400771195 0.8067983144652278 0.6155054127313512
3 307 87 84 0.6044018400771195 0.8067983144652278 0.6155054127313512
3 442 429 84 0.6044018400771195 0.8067983144652278 0.6155054127313512
3 84 222 442 0.6044018400771195 0.8067983144652278 0.6155054127313512
3 430 429 442 0.6044018400771195 0.8067983144652278 0.6155054127313512
3 83 221 195 0.6044018400771195 0.8067983144652278 0.6155054127313512
3 83 306 221 0.6044018400771195 0.8067983144652278 0.6155054127313512
3 195 79 83 0.6044018400771195 0.8067983144652278 0.6155054127313512
3 79 306 83 0.6044018400771195 0.8067983144652278 0.6155054127313512
3 308 222 226 0.6044018400771195 0.8067983144652278 0.6155054127313512
3 308 442 222 0.6044018400771195 0.8067983144652278 0.6155054127313512
3 308 223 430 0.6044018400771195 0.8067983144652278 0.6155054127313512
3 430 442 308 0.6044018400771195 0.8067983144652278 0.6155054127313512
3 435 354 448 0.6044018400771195 0.8067983144652278 0.6155054127313512
3 232 313 312 0.6044018400771195 0.8067983144652278 0.6155054127313512
3 312 231 232 0.6044018400771195 0.8067983144652278 0.6155054127313512
3 232 349 350 0.6044018400771195 0.8067983144652278 0.6155054127313512
3 350 313 232 0.6044018400771195 0.8067983144652278 0.6155054127313512
3 245 246 352 0.6044018400771195 0.8067983144652278 0.6155054127313512
3 247 353 352 0.6044018400771195 0.8067983144652278 0.6155054127313512
3 352 246 247 0.6044018400771195 0.8067983144652278 0.6155054127313512
3 348 97 349 0.6044018400771195 0.8067983144652278 0.6155054127313512
3 349 232 348 0.6044018400771195 0.8067983144652278 0.6155054127313512
3 347 96 348 0.6044018400771195 0.8067983144652278 0.6155054127313512
3 96 97 348 0.6044018400771195 0.8067983144652278 0.6155054127313512
3 348 231 347 0.6044018400771195 0.8067983144652278 0.6155054127313512
3 348 232 231 0.6044018400771195 0.8067983144652278 0.6155054127313512
3 303 432 433 0.6044018400771195 0.8067983144652278 0.6155054127313512
3 433 432 445 0.6044018400771195 0.8067983144652278 0.6155054127313512
3 434 303 433 0.6044018400771195 0.8067983144652278 0.6155054127313512
3 433 445 312 0.6044018400771195 0.8067983144652278 0.6155054127313512
3 312 313 433 0.6044018400771195 0.8067983144652278 0.6155054127313512
3 344 345 93 0.6044018400771195 0.8067983144652278 0.6155054127313512
3 344 9 10 0.6044018400771195 0.8067983144652278 0.6155054127313512
3 10 345 344 0.6044018400771195 0.8067983144652278 0.6155054127313512
3 219 304 78 0.6044018400771195 0.8067983144652278 0.6155054127313512
3 426 439 427 0.6044018400771195 0.8067983144652278 0.6155054127313512
3 427 219 78 0.6044018400771195 0.8067983144652278 0.6155054127313512
3 439 219 427 0.6044018400771195 0.8067983144652278 0.6155054127313512
3 427 74 73 0.6044018400771195 0.8067983144652278 0.6155054127313512
3 428 74 427 0.6044018400771195 0.8067983144652278 0.6155054127313512
3 78 440 427 0.6044018400771195 0.8067983144652278 0.6155054127313512
3 427 440 428 0.6044018400771195 0.8067983144652278 0.6155054127313512
3 72 61 426 0.6044018400771195 0.8067983144652278 0.6155054127313512
3 72 73 211 0.6044018400771195 0.8067983144652278 0.6155054127313512
3 72 211 210 0.6044018400771195 0.8067983144652278 0.6155054127313512
3 210 71 72 0.6044018400771195 0.8067983144652278 0.6155054127313512
3 71 61 72 0.6044018400771195 0.8067983144652278 0.6155054127313512
3 127 237 271 0.6044018400771195 0.8067983144652278 0.6155054127313512
3 271 401 127 0.6044018400771195 0.8067983144652278 0.6155054127313512
3 127 401 237 0.6044018400771195 0.8067983144652278 0.6155054127313512
3 14 251 252 0.6044018400771195 0.8067983144652278 0.6155054127313512
3 252 253 14 0.6044018400771195 0.8067983144652278 0.6155054127313512
3 256 255 363 0.6044018400771195 0.8067983144652278 0.6155054127313512
3 256 363 364 0.6044018400771195 0.8067983144652278 0.6155054127313512
3 364 257 256 0.6044018400771195 0.8067983144652278 0.6155054127313512
3 256 257 109 0.6044018400771195 0.8067983144652278 0.6155054127313512
3 256 109 108 0.6044018400771195 0.8067983144652278 0.6155054127313512
3 108 255 256 0.6044018400771195 0.8067983144652278 0.6155054127313512
3 406 263 275 0.6044018400771195 0.8067983144652278 0.6155054127313512
3 275 264 406 0.6044018400771195 0.8067983144652278 0.6155054127313512
3 374 375 323 0.6044018400771195 0.8067983144652278 0.6155054127313512
3 323 373 374 0.6044018400771195 0.8067983144652278 0.6155054127313512
3 114 252 251 0.6044018400771195 0.8067983144652278 0.6155054127313512
3 253 252 114 0.6044018400771195 0.8067983144652278 0.6155054127313512
3 110 357 358 0.6044018400771195 0.8067983144652278 0.6155054127313512
3 174 136 137 0.6044018400771195 0.8067983144652278 0.6155054127313512
3 137 175 174 0.6044018400771195 0.8067983144652278 0.6155054127313512
3 325 140 141 0.6044018400771195 0.8067983144652278 0.6155054127313512
3 141 326 325 0.6044018400771195 0.8067983144652278 0.6155054127313512
3 326 137 325 0.6044018400771195 0.8067983144652278 0.6155054127313512
3 325 137 136 0.6044018400771195 0.8067983144652278 0.6155054127313512
3 327 326 142 0.6044018400771195 0.8067983144652278 0.6155054127313512
3 327 143 328 0.6044018400771195 0.8067983144652278 0.6155054127313512
3 142 143 327 0.6044018400771195 0.8067983144652278 0.6155054127313512
3 202 171 371 0.6044018400771195 0.8067983144652278 0.6155054127313512
3 202 372 321 0.6044018400771195 0.8067983144652278 0.6155054127313512
3 202 371 372 0.6044018400771195 0.8067983144652278 0.6155054127313512
3 321 320 202 0.6044018400771195 0.8067983144652278 0.6155054127313512
3 320 171 202 0.6044018400771195 0.8067983144652278 0.6155054127313512
3 328 329 177 0.6044018400771195 0.8067983144652278 0.6155054127313512
3 372 371 177 0.6044018400771195 0.8067983144652278 0.6155054127313512
3 371 176 177 0.6044018400771195 0.8067983144652278 0.6155054127313512
3 177 373 372 0.6044018400771195 0.8067983144652278 0.6155054127313512
3 177 329 373 0.6044018400771195 0.8067983144652278 0.6155054127313512
3 128 238 121 0.6044018400771195 0.8067983144652278 0.6155054127313512
3 121 402 128 0.6044018400771195 0.8067983144652278 0.6155054127313512
3 134 238 128 0.6044018400771195 0.8067983144652278 0.6155054127313512
3 128 402 134 0.6044018400771195 0.8067983144652278 0.6155054127313512
3 392 391 109 0.6044018400771195 0.8067983144652278 0.6155054127313512
3 392 258 393 0.6044018400771195 0.8067983144652278 0.6155054127313512
3 392 109 258 0.6044018400771195 0.8067983144652278 0.6155054127313512
3 393 104 392 0.6044018400771195 0.8067983144652278 0.6155054127313512
3 392 104 103 0.6044018400771195 0.8067983144652278 0.6155054127313512
3 103 391 392 0.6044018400771195 0.8067983144652278 0.6155054127313512
3 390 389 109 0.6044018400771195 0.8067983144652278 0.6155054127313512
3 109 391 390 0.6044018400771195 0.8067983144652278 0.6155054127313512
3 101 389 390 0.6044018400771195 0.8067983144652278 0.6155054127313512
3 390 102 101 0.6044018400771195 0.8067983144652278 0.6155054127313512
3 390 391 102 0.6044018400771195 0.8067983144652278 0.6155054127313512
3 213 429 214 0.6044018400771195 0.8067983144652278 0.6155054127313512
3 213 74 429 0.6044018400771195 0.8067983144652278 0.6155054127313512
3 214 298 213 0.6044018400771195 0.8067983144652278 0.6155054127313512
3 213 298 297 0.6044018400771195 0.8067983144652278 0.6155054127313512
3 213 297 212 0.6044018400771195 0.8067983144652278 0.6155054127313512
3 212 74 213 0.6044018400771195 0.8067983144652278 0.6155054127313512
3 431 432 216 0.6044018400771195 0.8067983144652278 0.6155054127313512
3 216 430 431 0.6044018400771195 0.8067983144652278 0.6155054127313512
3 230 93 94 0.6044018400771195 0.8067983144652278 0.6155054127313512
3 226 227 88 0.6044018400771195 0.8067983144652278 0.6155054127313512
3 88 308 226 0.6044018400771195 0.8067983144652278 0.6155054127313512
3 88 227 223 0.6044018400771195 0.8067983144652278 0.6155054127313512
3 223 308 88 0.6044018400771195 0.8067983144652278 0.6155054127313512
3 353 354 447 0.6044018400771195 0.8067983144652278 0.6155054127313512
3 354 435 447 0.6044018400771195 0.8067983144652278 0.6155054127313512
3 447 352 353 0.6044018400771195 0.8067983144652278 0.6155054127313512
3 447 435 434 0.6044018400771195 0.8067983144652278 0.6155054127313512
3 434 352 447 0.6044018400771195 0.8067983144652278 0.6155054127313512
3 342 434 343 0.6044018400771195 0.8067983144652278 0.6155054127313512
3 434 435 343 0.6044018400771195 0.8067983144652278 0.6155054127313512
3 386 385 343 0.6044018400771195 0.8067983144652278 0.6155054127313512
3 343 385 342 0.6044018400771195 0.8067983144652278 0.6155054127313512
3 448 423 387 0.6044018400771195 0.8067983144652278 0.6155054127313512
3 387 435 448 0.6044018400771195 0.8067983144652278 0.6155054127313512
3 387 423 422 0.6044018400771195 0.8067983144652278 0.6155054127313512
3 386 343 387 0.6044018400771195 0.8067983144652278 0.6155054127313512
3 387 343 435 0.6044018400771195 0.8067983144652278 0.6155054127313512
3 422 421 387 0.6044018400771195 0.8067983144652278 0.6155054127313512
3 294 386 387 0.6044018400771195 0.8067983144652278 0.6155054127313512
3 387 421 294 0.6044018400771195 0.8067983144652278 0.6155054127313512
3 446 352 434 0.6044018400771195 0.8067983144652278 0.6155054127313512
3 434 433 446 0.6044018400771195 0.8067983144652278 0.6155054127313512
3 446 433 313 0.6044018400771195 0.8067983144652278 0.6155054127313512
3 5 304 81 0.6044018400771195 0.8067983144652278 0.6155054127313512
3 304 219 81 0.6044018400771195 0.8067983144652278 0.6155054127313512
3 81 439 5 0.6044018400771195 0.8067983144652278 0.6155054127313512
3 81 219 439 0.6044018400771195 0.8067983144652278 0.6155054127313512
3 5 439 77 0.6044018400771195 0.8067983144652278 0.6155054127313512
3 77 439 426 0.6044018400771195 0.8067983144652278 0.6155054127313512
3 426 218 77 0.6044018400771195 0.8067983144652278 0.6155054127313512
3 192 218 426 0.6044018400771195 0.8067983144652278 0.6155054127313512
3 192 426 425 0.6044018400771195 0.8067983144652278 0.6155054127313512
3 425 76 192 0.6044018400771195 0.8067983144652278 0.6155054127313512
3 192 76 4 0.6044018400771195 0.8067983144652278 0.6155054127313512
3 4 218 192 0.6044018400771195 0.8067983144652278 0.6155054127313512
3 62 427 73 0.6044018400771195 0.8067983144652278 0.6155054127313512
3 426 427 62 0.6044018400771195 0.8067983144652278 0.6155054127313512
3 73 72 62 0.6044018400771195 0.8067983144652278 0.6155054127313512
3 62 72 426 0.6044018400771195 0.8067983144652278 0.6155054127313512
3 118 356 263 0.6044018400771195 0.8067983144652278 0.6155054127313512
3 263 406 118 0.6044018400771195 0.8067983144652278 0.6155054127313512
3 357 356 118 0.6044018400771195 0.8067983144652278 0.6155054127313512
3 118 264 357 0.6044018400771195 0.8067983144652278 0.6155054127313512
3 118 406 264 0.6044018400771195 0.8067983144652278 0.6155054127313512
3 373 323 322 0.6044018400771195 0.8067983144652278 0.6155054127313512
3 321 372 322 0.6044018400771195 0.8067983144652278 0.6155054127313512
3 372 373 322 0.6044018400771195 0.8067983144652278 0.6155054127313512
3 113 114 251 0.6044018400771195 0.8067983144652278 0.6155054127313512
3 357 264 119 0.6044018400771195 0.8067983144652278 0.6155054127313512
3 119 358 357 0.6044018400771195 0.8067983144652278 0.6155054127313512
3 110 358 111 0.6044018400771195 0.8067983144652278 0.6155054127313512
3 111 15 110 0.6044018400771195 0.8067983144652278 0.6155054127313512
3 111 112 15 0.6044018400771195 0.8067983144652278 0.6155054127313512
3 138 176 175 0.6044018400771195 0.8067983144652278 0.6155054127313512
3 175 137 138 0.6044018400771195 0.8067983144652278 0.6155054127313512
3 138 137 326 0.6044018400771195 0.8067983144652278 0.6155054127313512
3 326 327 138 0.6044018400771195 0.8067983144652278 0.6155054127313512
3 324 325 136 0.6044018400771195 0.8067983144652278 0.6155054127313512
3 324 135 36 0.6044018400771195 0.8067983144652278 0.6155054127313512
3 324 136 135 0.6044018400771195 0.8067983144652278 0.6155054127313512
3 36 37 324 0.6044018400771195 0.8067983144652278 0.6155054127313512
3 37 140 324 0.6044018400771195 0.8067983144652278 0.6155054127313512
3 140 325 324 0.6044018400771195 0.8067983144652278 0.6155054127313512
3 229 228 92 0.6044018400771195 0.8067983144652278 0.6155054127313512
3 93 229 92 0.6044018400771195 0.8067983144652278 0.6155054127313512
3 92 344 93 0.6044018400771195 0.8067983144652278 0.6155054127313512
3 9 344 92 0.6044018400771195 0.8067983144652278 0.6155054127313512
3 92 91 9 0.6044018400771195 0.8067983144652278 0.6155054127313512
3 92 228 91 0.6044018400771195 0.8067983144652278 0.6155054127313512
3 432 431 224 0.6044018400771195 0.8067983144652278 0.6155054127313512
3 445 432 311 0.6044018400771195 0.8067983144652278 0.6155054127313512
3 311 231 445 0.6044018400771195 0.8067983144652278 0.6155054127313512
3 94 231 311 0.6044018400771195 0.8067983144652278 0.6155054127313512
3 311 230 94 0.6044018400771195 0.8067983144652278 0.6155054127313512
3 351 446 313 0.6044018400771195 0.8067983144652278 0.6155054127313512
3 352 446 351 0.6044018400771195 0.8067983144652278 0.6155054127313512
3 351 313 350 0.6044018400771195 0.8067983144652278 0.6155054127313512
3 350 99 351 0.6044018400771195 0.8067983144652278 0.6155054127313512
3 245 352 351 0.6044018400771195 0.8067983144652278 0.6155054127313512
3 244 245 351 0.6044018400771195 0.8067983144652278 0.6155054127313512
3 351 99 244 0.6044018400771195 0.8067983144652278 0.6155054127313512
3 5 77 80 0.6044018400771195 0.8067983144652278 0.6155054127313512
3 80 77 218 0.6044018400771195 0.8067983144652278 0.6155054127313512
3 4 5 80 0.6044018400771195 0.8067983144652278 0.6155054127313512
3 80 218 4 0.6044018400771195 0.8067983144652278 0.6155054127313512
3 407 119 264 0.6044018400771195 0.8067983144652278 0.6155054127313512
3 358 119 407 0.6044018400771195 0.8067983144652278 0.6155054127313512
3 321 322 407 0.6044018400771195 0.8067983144652278 0.6155054127313512
3 407 275 321 0.6044018400771195 0.8067983144652278 0.6155054127313512
3 407 264 275 0.6044018400771195 0.8067983144652278 0.6155054127313512
3 409 323 375 0.6044018400771195 0.8067983144652278 0.6155054127313512
3 409 267 323 0.6044018400771195 0.8067983144652278 0.6155054127313512
3 409 375 410 0.6044018400771195 0.8067983144652278 0.6155054127313512
3 362 267 409 0.6044018400771195 0.8067983144652278 0.6155054127313512
3 410 363 409 0.6044018400771195 0.8067983144652278 0.6155054127313512
3 409 363 362 0.6044018400771195 0.8067983144652278 0.6155054127313512
3 250 113 251 0.6044018400771195 0.8067983144652278 0.6155054127313512
3 250 251 14 0.6044018400771195 0.8067983144652278 0.6155054127313512
3 14 15 250 0.6044018400771195 0.8067983144652278 0.6155054127313512
3 15 112 250 0.6044018400771195 0.8067983144652278 0.6155054127313512
3 112 113 250 0.6044018400771195 0.8067983144652278 0.6155054127313512
3 361 267 362 0.6044018400771195 0.8067983144652278 0.6155054127313512
3 362 253 361 0.6044018400771195 0.8067983144652278 0.6155054127313512
3 253 114 361 0.6044018400771195 0.8067983144652278 0.6155054127313512
3 139 138 327 0.6044018400771195 0.8067983144652278 0.6155054127313512
3 139 327 328 0.6044018400771195 0.8067983144652278 0.6155054127313512
3 328 177 139 0.6044018400771195 0.8067983144652278 0.6155054127313512
3 139 177 176 0.6044018400771195 0.8067983144652278 0.6155054127313512
3 176 138 139 0.6044018400771195 0.8067983144652278 0.6155054127313512
3 432 224 444 0.6044018400771195 0.8067983144652278 0.6155054127313512
3 444 311 432 0.6044018400771195 0.8067983144652278 0.6155054127313512
3 230 311 444 0.6044018400771195 0.8067983144652278 0.6155054127313512
3 309 228 229 0.6044018400771195 0.8067983144652278 0.6155054127313512
3 229 224 309 0.6044018400771195 0.8067983144652278 0.6155054127313512
3 358 407 265 0.6044018400771195 0.8067983144652278 0.6155054127313512
3 310 224 229 0.6044018400771195 0.8067983144652278 0.6155054127313512
3 310 444 224 0.6044018400771195 0.8067983144652278 0.6155054127313512
3 230 444 310 0.6044018400771195 0.8067983144652278 0.6155054127313512
3 310 229 93 0.6044018400771195 0.8067983144652278 0.6155054127313512
3 93 230 310 0.6044018400771195 0.8067983144652278 0.6155054127313512
3 228 309 89 0.6044018400771195 0.8067983144652278 0.6155054127313512
3 89 227 91 0.6044018400771195 0.8067983144652278 0.6155054127313512
3 91 228 89 0.6044018400771195 0.8067983144652278 0.6155054127313512
3 223 227 89 0.6044018400771195 0.8067983144652278 0.6155054127313512
3 89 309 223 0.6044018400771195 0.8067983144652278 0.6155054127313512
3 443 224 431 0.6044018400771195 0.8067983144652278 0.6155054127313512
3 443 309 224 0.6044018400771195 0.8067983144652278 0.6155054127313512
3 223 309 443 0.6044018400771195 0.8067983144652278 0.6155054127313512
3 430 223 443 0.6044018400771195 0.8067983144652278 0.6155054127313512
3 443 431 430 0.6044018400771195 0.8067983144652278 0.6155054127313512
3 358 265 359 0.6044018400771195 0.8067983144652278 0.6155054127313512
3 112 111 359 0.6044018400771195 0.8067983144652278 0.6155054127313512
3 359 111 358 0.6044018400771195 0.8067983144652278 0.6155054127313512
3 359 113 112 0.6044018400771195 0.8067983144652278 0.6155054127313512
3 276 407 322 0.6044018400771195 0.8067983144652278 0.6155054127313512
3 276 265 407 0.6044018400771195 0.8067983144652278 0.6155054127313512
3 113 359 360 0.6044018400771195 0.8067983144652278 0.6155054127313512
3 114 113 360 0.6044018400771195 0.8067983144652278 0.6155054127313512
3 360 361 114 0.6044018400771195 0.8067983144652278 0.6155054127313512
3 408 359 265 0.6044018400771195 0.8067983144652278 0.6155054127313512
3 265 276 408 0.6044018400771195 0.8067983144652278 0.6155054127313512
3 323 267 408 0.6044018400771195 0.8067983144652278 0.6155054127313512
3 408 322 323 0.6044018400771195 0.8067983144652278 0.6155054127313512
3 408 276 322 0.6044018400771195 0.8067983144652278 0.6155054127313512
3 266 360 359 0.6044018400771195 0.8067983144652278 0.6155054127313512
3 359 408 266 0.6044018400771195 0.8067983144652278 0.6155054127313512
3 361 360 266 0.6044018400771195 0.8067983144652278 0.6155054127313512
3 267 361 266 0.6044018400771195 0.8067983144652278 0.6155054127313512
3 266 408 267 0.6044018400771195 0.8067983144652278 0.6155054127313512
