OFF
39 34 0


29.8024 27.4695 8.6213
29.8024 27.4695 8.6213
29.7292 27.4463 8.5906
29.656 27.4231 8.56
29.5828 27.3998 8.5294
29.5096 27.3766 8.4987
29.4364 27.3534 8.4681
29.3632 27.3301 8.4375
29.29 27.3069 8.4068
29.2168 27.2837 8.3762
29.1436 27.2604 8.3455
29.0995 27.3265 8.3756
29.0554 27.3926 8.4056
29.0113 27.4587 8.4357
28.9672 27.5248 8.4657
28.9231 27.5909 8.4958
28.879 27.657 8.5258
28.835 27.7231 8.5558
28.7909 27.7891 8.5859
28.7468 27.8552 8.6159
28.7027 27.9213 8.646
28.6586 27.9874 8.676
28.6145 28.0535 8.706
28.6145 28.0535 8.706
28.6937 28.0146 8.7004
28.7729 27.9756 8.6947
28.8521 27.9367 8.6891
28.9313 27.8978 8.6834
29.0105 27.8589 8.6778
29.0897 27.8199 8.6721
29.1689 27.781 8.6665
29.2481 27.7421 8.6608
29.3272 27.7031 8.6552
29.4064 27.6642 8.6495
29.4856 27.6253 8.6439
29.5648 27.5863 8.6382
29.644 27.5474 8.6326
29.7232 27.5085 8.6269
29.8024 27.4695 8.6213
3 14 13 31 0.8247116796580996 0.14119062507406221 0.12263966759762368
3 0 37 2 0.8247116796580996 0.14119062507406221 0.12263966759762368
3 15 29 16 0.8247116796580996 0.14119062507406221 0.12263966759762368
3 31 13 32 0.8247116796580996 0.14119062507406221 0.12263966759762368
3 22 21 24 0.8247116796580996 0.14119062507406221 0.12263966759762368
3 20 24 21 0.8247116796580996 0.14119062507406221 0.12263966759762368
3 25 24 20 0.8247116796580996 0.14119062507406221 0.12263966759762368
3 10 9 11 0.8247116796580996 0.14119062507406221 0.12263966759762368
3 29 15 30 0.8247116796580996 0.14119062507406221 0.12263966759762368
3 30 14 31 0.8247116796580996 0.14119062507406221 0.12263966759762368
3 30 15 14 0.8247116796580996 0.14119062507406221 0.12263966759762368
3 6 33 7 0.8247116796580996 0.14119062507406221 0.12263966759762368
3 33 32 7 0.8247116796580996 0.14119062507406221 0.12263966759762368
3 7 32 13 0.8247116796580996 0.14119062507406221 0.12263966759762368
3 13 12 7 0.8247116796580996 0.14119062507406221 0.12263966759762368
3 34 33 6 0.8247116796580996 0.14119062507406221 0.12263966759762368
3 16 29 28 0.8247116796580996 0.14119062507406221 0.12263966759762368
3 16 28 17 0.8247116796580996 0.14119062507406221 0.12263966759762368
3 27 18 17 0.8247116796580996 0.14119062507406221 0.12263966759762368
3 17 28 27 0.8247116796580996 0.14119062507406221 0.12263966759762368
3 25 20 19 0.8247116796580996 0.14119062507406221 0.12263966759762368
3 8 7 12 0.8247116796580996 0.14119062507406221 0.12263966759762368
3 8 11 9 0.8247116796580996 0.14119062507406221 0.12263966759762368
3 8 12 11 0.8247116796580996 0.14119062507406221 0.12263966759762368
3 35 34 5 0.8247116796580996 0.14119062507406221 0.12263966759762368
3 5 4 35 0.8247116796580996 0.14119062507406221 0.12263966759762368
3 5 34 6 0.8247116796580996 0.14119062507406221 0.12263966759762368
3 3 2 37 0.8247116796580996 0.14119062507406221 0.12263966759762368
3 26 18 27 0.8247116796580996 0.14119062507406221 0.12263966759762368
3 26 19 18 0.8247116796580996 0.14119062507406221 0.12263966759762368
3 25 19 26 0.8247116796580996 0.14119062507406221 0.12263966759762368
3 36 3 37 0.8247116796580996 0.14119062507406221 0.12263966759762368
3 35 4 36 0.8247116796580996 0.14119062507406221 0.12263966759762368
3 4 3 36 0.8247116796580996 0.14119062507406221 0.12263966759762368
