OFF
69 102 0


28.9342 30.5597 6.2184
28.9342 30.5597 6.2184
28.7973 30.5817 6.1922
28.9342 30.5597 6.2184
28.9342 30.5597 6.2184
28.9718 30.6788 6.1615
28.9964 30.764 6.12
29.0155 30.8353 6.0847
29.0325 30.9027 6.0509
29.0493 30.9742 6.0146
29.068 31.0599 5.9705
29.0914 31.1793 5.9081
28.952 31.1742 5.8972
28.8515 31.1702 5.8891
28.7607 31.1664 5.8816
28.6603 31.1619 5.873
28.521 31.1553 5.8608
28.521 31.1553 5.8608
28.5497 31.0393 5.926
28.5711 30.9536 5.9738
28.5897 30.8791 6.0151
28.6085 30.8045 6.0562
28.6302 30.7184 6.1032
28.66 30.6016 6.1664
28.9658 30.848 6.0729
28.9903 30.9537 6.0195
28.8394 31.097 5.9273
28.6995 31.0883 5.9169
28.6335 30.9365 5.99
28.6594 30.8263 6.0507
28.7991 30.6558 6.1546
28.8011 30.7314 6.116
28.9041 30.6364 6.1761
28.8729 30.7164 6.1316
28.933 30.728 6.132
28.8926 30.7792 6.1012
28.9782 30.8995 6.0471
28.9225 30.8961 6.0431
29.0191 31.107 5.9403
28.9477 31.0347 5.972
28.9141 31.1013 5.9328
28.8773 31.0295 5.9675
28.619 30.9987 5.9555
28.6846 30.9602 5.9833
28.6747 30.7618 6.0859
28.7188 30.8046 6.0688
28.9516 30.7934 6.1
28.9051 30.8239 6.0792
28.8567 30.8556 6.0574
29.0033 31.0182 5.9865
28.9383 30.9758 6.0025
28.8727 30.9327 6.0185
28.7726 31.0929 5.9224
28.7841 31.0223 5.9614
28.7953 30.9543 5.9987
28.5999 31.0816 5.9092
28.6732 31.013 5.9541
28.7419 30.9489 5.9957
28.6463 30.8817 6.0203
28.7012 30.8841 6.0252
28.7545 30.8864 6.03
28.6959 30.6734 6.1339
28.7322 30.7451 6.1012
28.7689 30.8167 6.0681
28.9041 30.6364 6.1761
28.8729 30.7164 6.1316
28.8404 30.8003 6.0845
28.8063 30.8886 6.0346
28.8063 30.8886 6.0346
3 23 2 61 0.5659283655951493 0.2486523189014591 0.054129375219200915
3 61 22 23 0.5659283655951493 0.2486523189014591 0.054129375219200915
3 64 2 0 0.5659283655951493 0.2486523189014591 0.054129375219200915
3 0 5 64 0.5659283655951493 0.2486523189014591 0.054129375219200915
3 58 28 20 0.5659283655951493 0.2486523189014591 0.054129375219200915
3 59 28 58 0.5659283655951493 0.2486523189014591 0.054129375219200915
3 11 12 38 0.5659283655951493 0.2486523189014591 0.054129375219200915
3 31 61 30 0.5659283655951493 0.2486523189014591 0.054129375219200915
3 30 61 2 0.5659283655951493 0.2486523189014591 0.054129375219200915
3 2 64 30 0.5659283655951493 0.2486523189014591 0.054129375219200915
3 33 66 31 0.5659283655951493 0.2486523189014591 0.054129375219200915
3 31 30 33 0.5659283655951493 0.2486523189014591 0.054129375219200915
3 33 30 64 0.5659283655951493 0.2486523189014591 0.054129375219200915
3 48 66 47 0.5659283655951493 0.2486523189014591 0.054129375219200915
3 7 24 46 0.5659283655951493 0.2486523189014591 0.054129375219200915
3 46 6 7 0.5659283655951493 0.2486523189014591 0.054129375219200915
3 46 24 47 0.5659283655951493 0.2486523189014591 0.054129375219200915
3 59 57 43 0.5659283655951493 0.2486523189014591 0.054129375219200915
3 43 28 59 0.5659283655951493 0.2486523189014591 0.054129375219200915
3 43 57 56 0.5659283655951493 0.2486523189014591 0.054129375219200915
3 56 42 43 0.5659283655951493 0.2486523189014591 0.054129375219200915
3 43 42 28 0.5659283655951493 0.2486523189014591 0.054129375219200915
3 22 61 44 0.5659283655951493 0.2486523189014591 0.054129375219200915
3 59 45 60 0.5659283655951493 0.2486523189014591 0.054129375219200915
3 60 57 59 0.5659283655951493 0.2486523189014591 0.054129375219200915
3 63 48 67 0.5659283655951493 0.2486523189014591 0.054129375219200915
3 66 48 63 0.5659283655951493 0.2486523189014591 0.054129375219200915
3 67 60 63 0.5659283655951493 0.2486523189014591 0.054129375219200915
3 63 60 45 0.5659283655951493 0.2486523189014591 0.054129375219200915
3 31 66 63 0.5659283655951493 0.2486523189014591 0.054129375219200915
3 11 38 10 0.5659283655951493 0.2486523189014591 0.054129375219200915
3 40 12 13 0.5659283655951493 0.2486523189014591 0.054129375219200915
3 13 26 40 0.5659283655951493 0.2486523189014591 0.054129375219200915
3 39 38 40 0.5659283655951493 0.2486523189014591 0.054129375219200915
3 40 38 12 0.5659283655951493 0.2486523189014591 0.054129375219200915
3 53 26 52 0.5659283655951493 0.2486523189014591 0.054129375219200915
3 56 57 53 0.5659283655951493 0.2486523189014591 0.054129375219200915
3 53 27 56 0.5659283655951493 0.2486523189014591 0.054129375219200915
3 52 27 53 0.5659283655951493 0.2486523189014591 0.054129375219200915
3 14 27 52 0.5659283655951493 0.2486523189014591 0.054129375219200915
3 14 26 13 0.5659283655951493 0.2486523189014591 0.054129375219200915
3 52 26 14 0.5659283655951493 0.2486523189014591 0.054129375219200915
3 27 14 15 0.5659283655951493 0.2486523189014591 0.054129375219200915
3 39 50 49 0.5659283655951493 0.2486523189014591 0.054129375219200915
3 9 10 49 0.5659283655951493 0.2486523189014591 0.054129375219200915
3 49 38 39 0.5659283655951493 0.2486523189014591 0.054129375219200915
3 49 10 38 0.5659283655951493 0.2486523189014591 0.054129375219200915
3 36 24 7 0.5659283655951493 0.2486523189014591 0.054129375219200915
3 35 46 47 0.5659283655951493 0.2486523189014591 0.054129375219200915
3 47 66 35 0.5659283655951493 0.2486523189014591 0.054129375219200915
3 66 33 35 0.5659283655951493 0.2486523189014591 0.054129375219200915
3 6 46 34 0.5659283655951493 0.2486523189014591 0.054129375219200915
3 5 6 34 0.5659283655951493 0.2486523189014591 0.054129375219200915
3 34 35 33 0.5659283655951493 0.2486523189014591 0.054129375219200915
3 46 35 34 0.5659283655951493 0.2486523189014591 0.054129375219200915
3 34 64 5 0.5659283655951493 0.2486523189014591 0.054129375219200915
3 34 33 64 0.5659283655951493 0.2486523189014591 0.054129375219200915
3 18 42 55 0.5659283655951493 0.2486523189014591 0.054129375219200915
3 27 15 55 0.5659283655951493 0.2486523189014591 0.054129375219200915
3 56 27 55 0.5659283655951493 0.2486523189014591 0.054129375219200915
3 55 42 56 0.5659283655951493 0.2486523189014591 0.054129375219200915
3 16 18 55 0.5659283655951493 0.2486523189014591 0.054129375219200915
3 55 15 16 0.5659283655951493 0.2486523189014591 0.054129375219200915
3 20 28 19 0.5659283655951493 0.2486523189014591 0.054129375219200915
3 28 42 19 0.5659283655951493 0.2486523189014591 0.054129375219200915
3 19 42 18 0.5659283655951493 0.2486523189014591 0.054129375219200915
3 62 61 31 0.5659283655951493 0.2486523189014591 0.054129375219200915
3 62 44 61 0.5659283655951493 0.2486523189014591 0.054129375219200915
3 45 44 62 0.5659283655951493 0.2486523189014591 0.054129375219200915
3 31 63 62 0.5659283655951493 0.2486523189014591 0.054129375219200915
3 62 63 45 0.5659283655951493 0.2486523189014591 0.054129375219200915
3 29 44 45 0.5659283655951493 0.2486523189014591 0.054129375219200915
3 59 58 29 0.5659283655951493 0.2486523189014591 0.054129375219200915
3 29 45 59 0.5659283655951493 0.2486523189014591 0.054129375219200915
3 54 53 57 0.5659283655951493 0.2486523189014591 0.054129375219200915
3 54 60 67 0.5659283655951493 0.2486523189014591 0.054129375219200915
3 57 60 54 0.5659283655951493 0.2486523189014591 0.054129375219200915
3 26 53 41 0.5659283655951493 0.2486523189014591 0.054129375219200915
3 39 40 41 0.5659283655951493 0.2486523189014591 0.054129375219200915
3 41 40 26 0.5659283655951493 0.2486523189014591 0.054129375219200915
3 41 50 39 0.5659283655951493 0.2486523189014591 0.054129375219200915
3 53 54 41 0.5659283655951493 0.2486523189014591 0.054129375219200915
3 9 49 25 0.5659283655951493 0.2486523189014591 0.054129375219200915
3 25 49 50 0.5659283655951493 0.2486523189014591 0.054129375219200915
3 8 36 7 0.5659283655951493 0.2486523189014591 0.054129375219200915
3 9 25 8 0.5659283655951493 0.2486523189014591 0.054129375219200915
3 8 25 36 0.5659283655951493 0.2486523189014591 0.054129375219200915
3 24 36 37 0.5659283655951493 0.2486523189014591 0.054129375219200915
3 37 25 50 0.5659283655951493 0.2486523189014591 0.054129375219200915
3 36 25 37 0.5659283655951493 0.2486523189014591 0.054129375219200915
3 47 24 37 0.5659283655951493 0.2486523189014591 0.054129375219200915
3 37 48 47 0.5659283655951493 0.2486523189014591 0.054129375219200915
3 22 44 21 0.5659283655951493 0.2486523189014591 0.054129375219200915
3 44 29 21 0.5659283655951493 0.2486523189014591 0.054129375219200915
3 21 58 20 0.5659283655951493 0.2486523189014591 0.054129375219200915
3 21 29 58 0.5659283655951493 0.2486523189014591 0.054129375219200915
3 67 48 51 0.5659283655951493 0.2486523189014591 0.054129375219200915
3 48 37 51 0.5659283655951493 0.2486523189014591 0.054129375219200915
3 51 54 67 0.5659283655951493 0.2486523189014591 0.054129375219200915
3 51 37 50 0.5659283655951493 0.2486523189014591 0.054129375219200915
3 50 41 51 0.5659283655951493 0.2486523189014591 0.054129375219200915
3 51 41 54 0.5659283655951493 0.2486523189014591 0.054129375219200915
