OFF
33 27 0


31.1747 32.4117 8.876
31.1747 32.4117 8.876
31.1471 32.2944 8.9407
31.1262 32.1965 8.9947
31.1096 32.1104 9.042
31.0958 32.031 9.0855
31.0841 31.9546 9.1274
31.0738 31.8778 9.1693
31.0648 31.7975 9.213
31.0571 31.7098 9.2607
31.0511 31.6098 9.3149
31.0477 31.4903 9.3794
31.1284 31.5864 9.3231
31.194 31.6672 9.2758
31.2501 31.7382 9.2343
31.3002 31.8031 9.1964
31.3468 31.8648 9.1605
31.3919 31.9258 9.1251
31.4372 31.9881 9.0889
31.4845 32.0544 9.0505
31.5359 32.1279 9.008
31.5942 32.2129 8.9588
31.6638 32.3164 8.8991
31.6638 32.3164 8.8991
31.5869 32.3384 8.8917
31.51 32.3603 8.8843
31.4331 32.3822 8.877
31.3563 32.4041 8.8696
31.2794 32.426 8.8622
31.2025 32.448 8.8549
31.2025 32.448 8.8549
31.1886 32.4299 8.8654
31.1747 32.4117 8.876
3 12 10 11 0.9302646439644886 0.2317983887912859 0.17789574800307717
3 9 13 8 0.9302646439644886 0.2317983887912859 0.17789574800307717
3 10 12 9 0.9302646439644886 0.2317983887912859 0.17789574800307717
3 9 12 13 0.9302646439644886 0.2317983887912859 0.17789574800307717
3 18 4 5 0.9302646439644886 0.2317983887912859 0.17789574800307717
3 19 4 18 0.9302646439644886 0.2317983887912859 0.17789574800307717
3 6 15 16 0.9302646439644886 0.2317983887912859 0.17789574800307717
3 8 13 14 0.9302646439644886 0.2317983887912859 0.17789574800307717
3 7 15 6 0.9302646439644886 0.2317983887912859 0.17789574800307717
3 8 14 7 0.9302646439644886 0.2317983887912859 0.17789574800307717
3 7 14 15 0.9302646439644886 0.2317983887912859 0.17789574800307717
3 2 20 26 0.9302646439644886 0.2317983887912859 0.17789574800307717
3 26 27 2 0.9302646439644886 0.2317983887912859 0.17789574800307717
3 2 27 28 0.9302646439644886 0.2317983887912859 0.17789574800307717
3 28 1 2 0.9302646439644886 0.2317983887912859 0.17789574800307717
3 31 28 29 0.9302646439644886 0.2317983887912859 0.17789574800307717
3 31 1 28 0.9302646439644886 0.2317983887912859 0.17789574800307717
3 24 21 22 0.9302646439644886 0.2317983887912859 0.17789574800307717
3 26 20 25 0.9302646439644886 0.2317983887912859 0.17789574800307717
3 20 21 25 0.9302646439644886 0.2317983887912859 0.17789574800307717
3 21 24 25 0.9302646439644886 0.2317983887912859 0.17789574800307717
3 18 5 17 0.9302646439644886 0.2317983887912859 0.17789574800307717
3 17 5 6 0.9302646439644886 0.2317983887912859 0.17789574800307717
3 6 16 17 0.9302646439644886 0.2317983887912859 0.17789574800307717
3 3 19 20 0.9302646439644886 0.2317983887912859 0.17789574800307717
3 20 2 3 0.9302646439644886 0.2317983887912859 0.17789574800307717
3 4 19 3 0.9302646439644886 0.2317983887912859 0.17789574800307717
