OFF
31 26 0


28.7937 29.2451 6.4425
28.7937 29.2451 6.4425
28.7747 29.3875 6.4127
28.7596 29.5074 6.3878
28.7471 29.6122 6.3661
28.7364 29.7069 6.3466
28.7269 29.7952 6.3285
28.7182 29.88 6.3112
28.7101 29.9635 6.2942
28.7022 30.0483 6.277
28.6944 30.1367 6.2592
28.6866 30.2317 6.2401
28.6783 30.337 6.219
28.6696 30.4577 6.1949
28.66 30.6016 6.1664
28.7973 30.5817 6.1922
28.9342 30.5597 6.2184
28.9342 30.5597 6.2184
28.9419 30.4323 6.2435
28.9455 30.3191 6.2653
28.9459 30.2161 6.2847
28.9436 30.1203 6.3024
28.9389 30.0293 6.3187
28.932 29.9411 6.3341
28.9228 29.8539 6.349
28.9111 29.7661 6.3636
28.8965 29.6757 6.3782
28.8785 29.5811 6.3931
28.8563 29.4798 6.4086
28.8286 29.369 6.4249
28.7937 29.2451 6.4425
3 14 13 15 0.38813909076307684 0.8672981603052115 0.8292006854068525
3 11 19 12 0.38813909076307684 0.8672981603052115 0.8292006854068525
3 7 24 23 0.38813909076307684 0.8672981603052115 0.8292006854068525
3 23 8 7 0.38813909076307684 0.8672981603052115 0.8292006854068525
3 6 24 7 0.38813909076307684 0.8672981603052115 0.8292006854068525
3 4 27 26 0.38813909076307684 0.8672981603052115 0.8292006854068525
3 26 5 4 0.38813909076307684 0.8672981603052115 0.8292006854068525
3 18 15 13 0.38813909076307684 0.8672981603052115 0.8292006854068525
3 13 12 18 0.38813909076307684 0.8672981603052115 0.8292006854068525
3 18 12 19 0.38813909076307684 0.8672981603052115 0.8292006854068525
3 16 15 18 0.38813909076307684 0.8672981603052115 0.8292006854068525
3 21 10 9 0.38813909076307684 0.8672981603052115 0.8292006854068525
3 29 2 0 0.38813909076307684 0.8672981603052115 0.8292006854068525
3 3 27 4 0.38813909076307684 0.8672981603052115 0.8292006854068525
3 25 6 5 0.38813909076307684 0.8672981603052115 0.8292006854068525
3 5 26 25 0.38813909076307684 0.8672981603052115 0.8292006854068525
3 24 6 25 0.38813909076307684 0.8672981603052115 0.8292006854068525
3 20 19 11 0.38813909076307684 0.8672981603052115 0.8292006854068525
3 11 10 20 0.38813909076307684 0.8672981603052115 0.8292006854068525
3 10 21 20 0.38813909076307684 0.8672981603052115 0.8292006854068525
3 22 21 9 0.38813909076307684 0.8672981603052115 0.8292006854068525
3 9 8 22 0.38813909076307684 0.8672981603052115 0.8292006854068525
3 8 23 22 0.38813909076307684 0.8672981603052115 0.8292006854068525
3 27 3 28 0.38813909076307684 0.8672981603052115 0.8292006854068525
3 2 29 28 0.38813909076307684 0.8672981603052115 0.8292006854068525
3 28 3 2 0.38813909076307684 0.8672981603052115 0.8292006854068525
