OFF
346 617 0


29.2955 34.2817 9.6622
29.2955 34.2817 9.6622
29.4308 34.3032 9.6121
29.5447 34.3223 9.5704
29.6442 34.3397 9.5342
29.7342 34.3559 9.5018
29.8179 34.3716 9.4718
29.8982 34.387 9.4432
29.9774 34.4026 9.4151
30.0576 34.4188 9.3869
30.1412 34.4361 9.3577
30.2309 34.4551 9.3265
30.3302 34.4766 9.2921
30.4439 34.5018 9.2531
30.5792 34.5327 9.207
30.5792 34.5327 9.207
30.5704 34.6411 9.1605
30.5642 34.7183 9.1277
30.5579 34.7956 9.0952
30.549 34.9045 9.05
30.549 34.9045 9.05
30.4515 34.9861 9.0379
30.3807 35.0455 9.0295
30.3196 35.0967 9.0226
30.2585 35.148 9.0159
30.1876 35.2074 9.0085
30.09 35.2892 8.9989
30.09 35.2892 8.9989
29.9496 35.2949 9.0324
29.8347 35.3002 9.0601
29.7355 35.3054 9.0843
29.6459 35.3105 9.1064
29.5616 35.3158 9.1275
29.4789 35.3214 9.1482
29.3946 35.3275 9.1696
29.3053 35.3344 9.1925
29.2067 35.3426 9.2181
29.0926 35.3528 9.248
28.9537 35.3663 9.2849
28.9537 35.3663 9.2849
28.8256 35.3374 9.3369
28.6979 35.3085 9.3898
28.7575 35.1825 9.4237
28.807 35.0797 9.4518
28.8502 34.9912 9.4763
28.8896 34.9115 9.4987
28.9271 34.8366 9.5199
28.9642 34.7633 9.541
29.0024 34.6888 9.5626
29.0432 34.61 9.5857
29.0889 34.5231 9.6115
29.1424 34.4229 9.6417
29.2085 34.3013 9.679
29.2085 34.3013 9.679
29.252 34.2915 9.6706
29.2955 34.2817 9.6622
29.9432 34.4465 9.4038
29.9097 34.4896 9.3927
29.8768 34.532 9.382
30.4551 34.7294 9.1486
30.3519 34.7401 9.1686
30.2537 34.7504 9.188
30.2433 35.064 9.055
30.17 35.0326 9.0864
30.0995 35.0026 9.1169
29.7261 34.4036 9.4817
29.7182 34.4508 9.462
29.7104 34.4974 9.4426
29.7027 34.5437 9.4235
29.8728 34.4321 9.429
29.8477 34.4766 9.4152
29.823 34.5204 9.4016
29.7987 34.5637 9.3884
30.0882 34.4774 9.3521
30.0365 34.5178 9.3469
29.9861 34.5572 9.342
29.9368 34.5958 9.3373
30.2535 34.5148 9.2936
30.1797 34.5517 9.2952
30.1084 34.5875 9.297
30.0394 34.6222 9.2989
30.2965 35.0183 9.0614
30.216 34.9925 9.0922
30.1386 34.9677 9.122
30.0641 34.944 9.151
30.1275 35.1627 9.0421
30.0696 35.1197 9.0747
30.0135 35.0781 9.1065
29.9591 35.0379 9.1375
29.7272 35.2531 9.1082
29.719 35.2019 9.1317
29.7109 35.1515 9.1549
29.703 35.1019 9.1779
29.5716 35.2632 9.1464
29.5814 35.2114 9.1652
29.5912 35.1603 9.1839
29.6008 35.1099 9.2025
29.422 35.2738 9.184
29.449 35.221 9.1983
29.4757 35.1689 9.2125
29.502 35.1175 9.2268
29.254 35.2869 9.2272
29.3004 35.2322 9.2363
29.3462 35.1786 9.2455
29.3913 35.1257 9.2548
28.935 34.9722 9.4578
29.0179 34.9538 9.44
29.0994 34.9358 9.4228
29.1797 34.9182 9.4061
29.0025 34.834 9.4974
29.0767 34.8315 9.4756
29.15 34.8292 9.4543
29.2225 34.8271 9.4334
29.0695 34.7014 9.536
29.1358 34.714 9.51
29.2013 34.7265 9.4845
29.2664 34.7391 9.4595
29.3334 34.3374 9.6245
29.3706 34.3921 9.5878
29.4072 34.446 9.5519
29.4434 34.4993 9.5167
29.5563 34.3732 9.5432
29.5678 34.4235 9.5164
29.5792 34.4733 9.4901
29.5905 34.5227 9.4642
29.6017 34.5718 9.4386
30.4675 34.5664 9.2183
30.3621 34.5983 9.2293
30.2621 34.6287 9.2401
30.1666 34.6579 9.2507
30.075 34.686 9.2612
30.4416 34.8932 9.0802
30.34 34.8827 9.1092
30.2434 34.8729 9.137
30.151 34.8636 9.1639
30.0624 34.8547 9.1901
29.8155 35.2478 9.0868
29.7968 35.1967 9.113
29.7785 35.1465 9.1389
29.7605 35.0973 9.1644
29.7428 35.049 9.1897
28.8976 35.0509 9.4354
28.9858 35.023 9.4199
29.072 34.9959 9.405
29.1568 34.9695 9.3907
29.2405 34.9434 9.377
29.1474 34.5529 9.5799
29.205 34.5823 9.5489
29.262 34.6115 9.5184
29.3186 34.6405 9.4885
29.3748 34.6695 9.4589
29.4543 34.3562 9.5803
29.4774 34.4085 9.5491
29.5003 34.4602 9.5185
29.523 34.5114 9.4884
29.5455 34.5623 9.4587
29.5679 34.613 9.4293
30.4496 34.7975 9.12
30.3472 34.7994 9.1437
30.2497 34.8013 9.1667
30.1564 34.8033 9.1889
30.0669 34.8053 9.2105
29.9805 34.8073 9.2317
29.9175 35.2421 9.0625
29.8863 35.1908 9.0919
29.8559 35.1408 9.1208
29.8261 35.092 9.1493
29.7969 35.0442 9.1773
29.7683 34.9972 9.205
29.0297 35.3062 9.2864
29.1034 35.248 9.2882
29.1753 35.1913 9.2904
29.2458 35.136 9.2928
29.3152 35.0817 9.2955
29.3839 35.0281 9.2985
28.8051 35.2525 9.3789
28.9077 35.1991 9.369
29.0067 35.1477 9.36
29.1028 35.0981 9.3517
29.1968 35.0498 9.3441
29.2894 35.0024 9.337
29.2557 34.355 9.6393
29.3019 34.4078 9.6007
29.3473 34.4597 9.5631
29.3922 34.511 9.5262
29.4366 34.5618 9.4899
29.4807 34.6125 9.4542
29.8011 34.4179 9.4547
29.7845 34.4637 9.438
29.7681 34.5089 9.4216
29.7519 34.5537 9.4056
29.7359 34.598 9.3897
29.72 34.6421 9.3741
29.7043 34.6858 9.3588
30.1669 34.495 9.3242
30.1049 34.5337 9.3222
30.0447 34.5714 9.3204
29.9861 34.6082 9.3189
29.9288 34.6443 9.3175
29.8728 34.6796 9.3164
29.8177 34.7144 9.3154
30.4604 34.6615 9.1774
30.3564 34.681 9.1937
30.2575 34.6997 9.2096
30.1629 34.7176 9.225
30.0722 34.735 9.2402
29.9846 34.7519 9.2551
29.8998 34.7683 9.2698
30.1898 35.1097 9.0489
30.1237 35.0729 9.0809
30.0599 35.0375 9.1119
29.9982 35.0033 9.1423
29.9382 34.9702 9.1719
29.8797 34.938 9.201
29.8226 34.9065 9.2296
29.4975 35.2683 9.1649
29.5158 35.2161 9.1815
29.534 35.1646 9.198
29.5519 35.1137 9.2144
29.5697 35.0634 9.2308
29.5874 35.0134 9.2473
29.605 34.9638 9.2637
29.1525 35.2953 9.2538
29.211 35.2393 9.2597
29.2685 35.1844 9.2657
29.325 35.1304 9.2719
29.3809 35.0773 9.2783
29.4364 35.0247 9.2849
29.4916 34.9724 9.2917
28.8553 35.1419 9.4098
28.9498 35.1028 9.3968
29.0417 35.0649 9.3846
29.1316 35.0281 9.373
29.22 34.992 9.362
29.3075 34.9565 9.3515
29.3945 34.9213 9.3415
29.0354 34.7683 9.5165
29.1057 34.7733 9.4926
29.1751 34.7784 9.4693
29.2439 34.7835 9.4463
29.3124 34.7887 9.4238
29.3808 34.7939 9.4015
29.4493 34.7993 9.3794
29.1958 34.4633 9.6066
29.2483 34.5031 9.5723
29.3001 34.5425 9.5387
29.3514 34.5815 9.5057
29.4023 34.6204 9.4732
29.4531 34.6592 9.4409
29.5038 34.698 9.409
29.6456 34.3889 9.5108
29.6469 34.4375 9.4878
29.6482 34.4856 9.4652
29.6495 34.5334 9.4428
29.6508 34.5809 9.4208
29.6522 34.6281 9.399
29.6535 34.6751 9.3775
29.6548 34.7221 9.3561
30.3518 34.5381 9.2589
30.2639 34.5728 9.2648
30.1797 34.6062 9.2706
30.0986 34.6384 9.2765
30.0203 34.6697 9.2825
29.9443 34.7001 9.2885
29.8704 34.7299 9.2946
29.7981 34.759 9.3008
30.0413 35.2357 9.0334
29.9943 35.184 9.0669
29.9487 35.134 9.0995
29.9044 35.0855 9.1315
29.8613 35.0383 9.1628
29.8191 34.9922 9.1936
29.7777 34.947 9.2241
29.7371 34.9027 9.2541
29.3421 35.2798 9.2044
29.3783 35.2263 9.2162
29.414 35.1735 9.2281
29.4493 35.1214 9.24
29.4843 35.0699 9.252
29.519 35.0188 9.264
29.5537 34.968 9.2762
29.5882 34.9173 9.2885
28.9695 34.901 9.4781
29.0478 34.8909 9.4583
29.1251 34.881 9.439
29.2014 34.8714 9.4202
29.2772 34.8619 9.4018
29.3526 34.8526 9.3837
29.4281 34.8434 9.366
29.5039 34.8343 9.3484
30.0144 34.4614 9.3784
29.9721 34.5032 9.3702
29.9306 34.5442 9.3623
29.89 34.5845 9.3547
29.85 34.6242 9.3473
29.8106 34.6633 9.3402
29.7717 34.702 9.3333
29.7333 34.7403 9.3265
29.6953 34.7783 9.32
30.3578 34.9656 9.0691
30.2686 34.9461 9.0991
30.1832 34.9276 9.1282
30.1012 34.9099 9.1563
30.0221 34.8929 9.1837
29.9455 34.8766 9.2105
29.8711 34.8608 9.2368
29.7984 34.8455 9.2627
29.7273 34.8306 9.2883
29.6471 35.2582 9.1277
29.6483 35.2067 9.1488
29.6494 35.156 9.1697
29.6506 35.1061 9.1904
29.6517 35.0567 9.2111
29.6529 35.0079 9.2316
29.654 34.9595 9.2521
29.6552 34.9114 9.2726
29.6563 34.8637 9.2931
28.9167 35.2794 9.3325
29.0046 35.2237 9.3286
29.0899 35.1698 9.3252
29.1732 35.1173 9.3223
29.255 35.066 9.3198
29.3358 35.0155 9.3178
29.416 34.9655 9.3162
29.4961 34.9158 9.315
29.5764 34.8661 9.3141
29.1062 34.6307 9.5568
29.1684 34.6513 9.5285
29.2298 34.6717 9.5007
29.2909 34.6921 9.4733
29.3516 34.7124 9.4463
29.4122 34.7328 9.4196
29.473 34.7533 9.393
29.534 34.774 9.3666
29.5954 34.7949 9.3401
29.3334 34.3374 9.6245
29.3706 34.3921 9.5878
29.4072 34.446 9.5519
29.4434 34.4993 9.5167
29.4793 34.5522 9.4821
29.5149 34.6048 9.4479
29.5504 34.6574 9.4141
29.586 34.71 9.3805
29.6216 34.7628 9.3471
29.6575 34.8161 9.3137
29.6575 34.8161 9.3137
3 40 317 38 0.7874033751269984 0.6170800246416274 0.06561601049903887
3 163 28 29 0.7874033751269984 0.6170800246416274 0.06561601049903887
3 109 236 110 0.7874033751269984 0.6170800246416274 0.06561601049903887
3 47 236 109 0.7874033751269984 0.6170800246416274 0.06561601049903887
3 318 317 176 0.7874033751269984 0.6170800246416274 0.06561601049903887
3 240 330 241 0.7874033751269984 0.6170800246416274 0.06561601049903887
3 241 330 331 0.7874033751269984 0.6170800246416274 0.06561601049903887
3 318 319 170 0.7874033751269984 0.6170800246416274 0.06561601049903887
3 232 233 179 0.7874033751269984 0.6170800246416274 0.06561601049903887
3 171 224 223 0.7874033751269984 0.6170800246416274 0.06561601049903887
3 223 170 171 0.7874033751269984 0.6170800246416274 0.06561601049903887
3 171 170 319 0.7874033751269984 0.6170800246416274 0.06561601049903887
3 59 17 18 0.7874033751269984 0.6170800246416274 0.06561601049903887
3 26 85 25 0.7874033751269984 0.6170800246416274 0.06561601049903887
3 267 28 163 0.7874033751269984 0.6170800246416274 0.06561601049903887
3 160 159 134 0.7874033751269984 0.6170800246416274 0.06561601049903887
3 306 273 307 0.7874033751269984 0.6170800246416274 0.06561601049903887
3 298 307 344 0.7874033751269984 0.6170800246416274 0.06561601049903887
3 297 307 298 0.7874033751269984 0.6170800246416274 0.06561601049903887
3 8 56 7 0.7874033751269984 0.6170800246416274 0.06561601049903887
3 198 76 197 0.7874033751269984 0.6170800246416274 0.06561601049903887
3 197 76 75 0.7874033751269984 0.6170800246416274 0.06561601049903887
3 290 8 9 0.7874033751269984 0.6170800246416274 0.06561601049903887
3 56 8 290 0.7874033751269984 0.6170800246416274 0.06561601049903887
3 56 290 291 0.7874033751269984 0.6170800246416274 0.06561601049903887
3 74 75 291 0.7874033751269984 0.6170800246416274 0.06561601049903887
3 291 290 74 0.7874033751269984 0.6170800246416274 0.06561601049903887
3 5 250 4 0.7874033751269984 0.6170800246416274 0.06561601049903887
3 65 250 5 0.7874033751269984 0.6170800246416274 0.06561601049903887
3 5 6 65 0.7874033751269984 0.6170800246416274 0.06561601049903887
3 237 236 113 0.7874033751269984 0.6170800246416274 0.06561601049903887
3 110 236 237 0.7874033751269984 0.6170800246416274 0.06561601049903887
3 48 49 113 0.7874033751269984 0.6170800246416274 0.06561601049903887
3 48 236 47 0.7874033751269984 0.6170800246416274 0.06561601049903887
3 113 236 48 0.7874033751269984 0.6170800246416274 0.06561601049903887
3 296 192 295 0.7874033751269984 0.6170800246416274 0.06561601049903887
3 214 273 306 0.7874033751269984 0.6170800246416274 0.06561601049903887
3 163 29 136 0.7874033751269984 0.6170800246416274 0.06561601049903887
3 136 29 30 0.7874033751269984 0.6170800246416274 0.06561601049903887
3 47 109 46 0.7874033751269984 0.6170800246416274 0.06561601049903887
3 46 282 45 0.7874033751269984 0.6170800246416274 0.06561601049903887
3 109 282 46 0.7874033751269984 0.6170800246416274 0.06561601049903887
3 229 176 175 0.7874033751269984 0.6170800246416274 0.06561601049903887
3 175 40 41 0.7874033751269984 0.6170800246416274 0.06561601049903887
3 317 40 175 0.7874033751269984 0.6170800246416274 0.06561601049903887
3 175 176 317 0.7874033751269984 0.6170800246416274 0.06561601049903887
3 141 43 44 0.7874033751269984 0.6170800246416274 0.06561601049903887
3 229 43 141 0.7874033751269984 0.6170800246416274 0.06561601049903887
3 44 45 105 0.7874033751269984 0.6170800246416274 0.06561601049903887
3 105 141 44 0.7874033751269984 0.6170800246416274 0.06561601049903887
3 142 141 105 0.7874033751269984 0.6170800246416274 0.06561601049903887
3 45 282 105 0.7874033751269984 0.6170800246416274 0.06561601049903887
3 116 330 240 0.7874033751269984 0.6170800246416274 0.06561601049903887
3 150 149 247 0.7874033751269984 0.6170800246416274 0.06561601049903887
3 331 330 150 0.7874033751269984 0.6170800246416274 0.06561601049903887
3 324 325 281 0.7874033751269984 0.6170800246416274 0.06561601049903887
3 287 241 288 0.7874033751269984 0.6170800246416274 0.06561601049903887
3 240 241 287 0.7874033751269984 0.6170800246416274 0.06561601049903887
3 333 332 249 0.7874033751269984 0.6170800246416274 0.06561601049903887
3 249 332 331 0.7874033751269984 0.6170800246416274 0.06561601049903887
3 288 241 242 0.7874033751269984 0.6170800246416274 0.06561601049903887
3 242 332 333 0.7874033751269984 0.6170800246416274 0.06561601049903887
3 331 332 242 0.7874033751269984 0.6170800246416274 0.06561601049903887
3 242 241 331 0.7874033751269984 0.6170800246416274 0.06561601049903887
3 89 136 30 0.7874033751269984 0.6170800246416274 0.06561601049903887
3 31 89 30 0.7874033751269984 0.6170800246416274 0.06561601049903887
3 308 89 31 0.7874033751269984 0.6170800246416274 0.06561601049903887
3 219 279 220 0.7874033751269984 0.6170800246416274 0.06561601049903887
3 146 244 147 0.7874033751269984 0.6170800246416274 0.06561601049903887
3 113 49 326 0.7874033751269984 0.6170800246416274 0.06561601049903887
3 49 146 326 0.7874033751269984 0.6170800246416274 0.06561601049903887
3 147 327 326 0.7874033751269984 0.6170800246416274 0.06561601049903887
3 326 146 147 0.7874033751269984 0.6170800246416274 0.06561601049903887
3 144 233 232 0.7874033751269984 0.6170800246416274 0.06561601049903887
3 145 233 144 0.7874033751269984 0.6170800246416274 0.06561601049903887
3 106 105 282 0.7874033751269984 0.6170800246416274 0.06561601049903887
3 142 105 106 0.7874033751269984 0.6170800246416274 0.06561601049903887
3 36 101 35 0.7874033751269984 0.6170800246416274 0.06561601049903887
3 222 170 223 0.7874033751269984 0.6170800246416274 0.06561601049903887
3 223 101 222 0.7874033751269984 0.6170800246416274 0.06561601049903887
3 222 101 36 0.7874033751269984 0.6170800246416274 0.06561601049903887
3 274 35 101 0.7874033751269984 0.6170800246416274 0.06561601049903887
3 34 35 274 0.7874033751269984 0.6170800246416274 0.06561601049903887
3 100 217 99 0.7874033751269984 0.6170800246416274 0.06561601049903887
3 216 98 99 0.7874033751269984 0.6170800246416274 0.06561601049903887
3 99 217 216 0.7874033751269984 0.6170800246416274 0.06561601049903887
3 232 179 178 0.7874033751269984 0.6170800246416274 0.06561601049903887
3 178 231 232 0.7874033751269984 0.6170800246416274 0.06561601049903887
3 321 179 233 0.7874033751269984 0.6170800246416274 0.06561601049903887
3 73 195 74 0.7874033751269984 0.6170800246416274 0.06561601049903887
3 74 290 73 0.7874033751269984 0.6170800246416274 0.06561601049903887
3 73 290 9 0.7874033751269984 0.6170800246416274 0.06561601049903887
3 73 194 195 0.7874033751269984 0.6170800246416274 0.06561601049903887
3 14 16 126 0.7874033751269984 0.6170800246416274 0.06561601049903887
3 62 23 24 0.7874033751269984 0.6170800246416274 0.06561601049903887
3 269 270 88 0.7874033751269984 0.6170800246416274 0.06561601049903887
3 164 267 163 0.7874033751269984 0.6170800246416274 0.06561601049903887
3 163 136 164 0.7874033751269984 0.6170800246416274 0.06561601049903887
3 266 85 26 0.7874033751269984 0.6170800246416274 0.06561601049903887
3 26 28 266 0.7874033751269984 0.6170800246416274 0.06561601049903887
3 28 267 266 0.7874033751269984 0.6170800246416274 0.06561601049903887
3 304 162 303 0.7874033751269984 0.6170800246416274 0.06561601049903887
3 203 60 61 0.7874033751269984 0.6170800246416274 0.06561601049903887
3 61 204 203 0.7874033751269984 0.6170800246416274 0.06561601049903887
3 61 159 160 0.7874033751269984 0.6170800246416274 0.06561601049903887
3 160 204 61 0.7874033751269984 0.6170800246416274 0.06561601049903887
3 258 126 127 0.7874033751269984 0.6170800246416274 0.06561601049903887
3 81 23 62 0.7874033751269984 0.6170800246416274 0.06561601049903887
3 296 297 193 0.7874033751269984 0.6170800246416274 0.06561601049903887
3 193 192 296 0.7874033751269984 0.6170800246416274 0.06561601049903887
3 188 70 71 0.7874033751269984 0.6170800246416274 0.06561601049903887
3 58 72 71 0.7874033751269984 0.6170800246416274 0.06561601049903887
3 71 70 58 0.7874033751269984 0.6170800246416274 0.06561601049903887
3 7 56 69 0.7874033751269984 0.6170800246416274 0.06561601049903887
3 69 6 7 0.7874033751269984 0.6170800246416274 0.06561601049903887
3 263 199 198 0.7874033751269984 0.6170800246416274 0.06561601049903887
3 263 264 199 0.7874033751269984 0.6170800246416274 0.06561601049903887
3 56 291 57 0.7874033751269984 0.6170800246416274 0.06561601049903887
3 58 70 57 0.7874033751269984 0.6170800246416274 0.06561601049903887
3 57 69 56 0.7874033751269984 0.6170800246416274 0.06561601049903887
3 70 69 57 0.7874033751269984 0.6170800246416274 0.06561601049903887
3 247 149 246 0.7874033751269984 0.6170800246416274 0.06561601049903887
3 154 124 155 0.7874033751269984 0.6170800246416274 0.06561601049903887
3 185 186 247 0.7874033751269984 0.6170800246416274 0.06561601049903887
3 247 246 185 0.7874033751269984 0.6170800246416274 0.06561601049903887
3 185 246 184 0.7874033751269984 0.6170800246416274 0.06561601049903887
3 251 122 250 0.7874033751269984 0.6170800246416274 0.06561601049903887
3 250 65 251 0.7874033751269984 0.6170800246416274 0.06561601049903887
3 187 65 6 0.7874033751269984 0.6170800246416274 0.06561601049903887
3 6 69 187 0.7874033751269984 0.6170800246416274 0.06561601049903887
3 187 70 188 0.7874033751269984 0.6170800246416274 0.06561601049903887
3 187 69 70 0.7874033751269984 0.6170800246416274 0.06561601049903887
3 238 237 114 0.7874033751269984 0.6170800246416274 0.06561601049903887
3 114 237 113 0.7874033751269984 0.6170800246416274 0.06561601049903887
3 113 326 114 0.7874033751269984 0.6170800246416274 0.06561601049903887
3 114 326 327 0.7874033751269984 0.6170800246416274 0.06561601049903887
3 72 295 191 0.7874033751269984 0.6170800246416274 0.06561601049903887
3 191 295 192 0.7874033751269984 0.6170800246416274 0.06561601049903887
3 191 190 72 0.7874033751269984 0.6170800246416274 0.06561601049903887
3 68 190 191 0.7874033751269984 0.6170800246416274 0.06561601049903887
3 192 255 191 0.7874033751269984 0.6170800246416274 0.06561601049903887
3 199 295 294 0.7874033751269984 0.6170800246416274 0.06561601049903887
3 198 199 294 0.7874033751269984 0.6170800246416274 0.06561601049903887
3 294 295 72 0.7874033751269984 0.6170800246416274 0.06561601049903887
3 306 307 265 0.7874033751269984 0.6170800246416274 0.06561601049903887
3 265 307 297 0.7874033751269984 0.6170800246416274 0.06561601049903887
3 265 297 296 0.7874033751269984 0.6170800246416274 0.06561601049903887
3 88 270 212 0.7874033751269984 0.6170800246416274 0.06561601049903887
3 304 303 212 0.7874033751269984 0.6170800246416274 0.06561601049903887
3 91 92 139 0.7874033751269984 0.6170800246416274 0.06561601049903887
3 305 214 306 0.7874033751269984 0.6170800246416274 0.06561601049903887
3 305 162 304 0.7874033751269984 0.6170800246416274 0.06561601049903887
3 316 325 344 0.7874033751269984 0.6170800246416274 0.06561601049903887
3 344 307 316 0.7874033751269984 0.6170800246416274 0.06561601049903887
3 281 325 316 0.7874033751269984 0.6170800246416274 0.06561601049903887
3 316 315 281 0.7874033751269984 0.6170800246416274 0.06561601049903887
3 316 307 273 0.7874033751269984 0.6170800246416274 0.06561601049903887
3 273 315 316 0.7874033751269984 0.6170800246416274 0.06561601049903887
3 136 89 137 0.7874033751269984 0.6170800246416274 0.06561601049903887
3 165 164 137 0.7874033751269984 0.6170800246416274 0.06561601049903887
3 137 164 136 0.7874033751269984 0.6170800246416274 0.06561601049903887
3 42 43 229 0.7874033751269984 0.6170800246416274 0.06561601049903887
3 229 175 42 0.7874033751269984 0.6170800246416274 0.06561601049903887
3 42 175 41 0.7874033751269984 0.6170800246416274 0.06561601049903887
3 230 141 142 0.7874033751269984 0.6170800246416274 0.06561601049903887
3 142 231 230 0.7874033751269984 0.6170800246416274 0.06561601049903887
3 230 176 229 0.7874033751269984 0.6170800246416274 0.06561601049903887
3 229 141 230 0.7874033751269984 0.6170800246416274 0.06561601049903887
3 330 116 329 0.7874033751269984 0.6170800246416274 0.06561601049903887
3 149 150 329 0.7874033751269984 0.6170800246416274 0.06561601049903887
3 329 150 330 0.7874033751269984 0.6170800246416274 0.06561601049903887
3 239 112 238 0.7874033751269984 0.6170800246416274 0.06561601049903887
3 239 116 240 0.7874033751269984 0.6170800246416274 0.06561601049903887
3 235 287 288 0.7874033751269984 0.6170800246416274 0.06561601049903887
3 288 324 235 0.7874033751269984 0.6170800246416274 0.06561601049903887
3 235 324 323 0.7874033751269984 0.6170800246416274 0.06561601049903887
3 235 323 322 0.7874033751269984 0.6170800246416274 0.06561601049903887
3 278 219 100 0.7874033751269984 0.6170800246416274 0.06561601049903887
3 279 219 278 0.7874033751269984 0.6170800246416274 0.06561601049903887
3 323 324 228 0.7874033751269984 0.6170800246416274 0.06561601049903887
3 220 279 280 0.7874033751269984 0.6170800246416274 0.06561601049903887
3 279 228 280 0.7874033751269984 0.6170800246416274 0.06561601049903887
3 280 324 281 0.7874033751269984 0.6170800246416274 0.06561601049903887
3 280 228 324 0.7874033751269984 0.6170800246416274 0.06561601049903887
3 248 249 331 0.7874033751269984 0.6170800246416274 0.06561601049903887
3 186 249 248 0.7874033751269984 0.6170800246416274 0.06561601049903887
3 331 150 248 0.7874033751269984 0.6170800246416274 0.06561601049903887
3 247 186 248 0.7874033751269984 0.6170800246416274 0.06561601049903887
3 248 150 247 0.7874033751269984 0.6170800246416274 0.06561601049903887
3 289 324 288 0.7874033751269984 0.6170800246416274 0.06561601049903887
3 288 242 289 0.7874033751269984 0.6170800246416274 0.06561601049903887
3 289 242 333 0.7874033751269984 0.6170800246416274 0.06561601049903887
3 325 324 289 0.7874033751269984 0.6170800246416274 0.06561601049903887
3 215 32 33 0.7874033751269984 0.6170800246416274 0.06561601049903887
3 215 98 216 0.7874033751269984 0.6170800246416274 0.06561601049903887
3 218 217 100 0.7874033751269984 0.6170800246416274 0.06561601049903887
3 100 219 218 0.7874033751269984 0.6170800246416274 0.06561601049903887
3 218 219 96 0.7874033751269984 0.6170800246416274 0.06561601049903887
3 216 217 94 0.7874033751269984 0.6170800246416274 0.06561601049903887
3 286 285 112 0.7874033751269984 0.6170800246416274 0.06561601049903887
3 240 287 286 0.7874033751269984 0.6170800246416274 0.06561601049903887
3 145 285 286 0.7874033751269984 0.6170800246416274 0.06561601049903887
3 286 239 240 0.7874033751269984 0.6170800246416274 0.06561601049903887
3 112 239 286 0.7874033751269984 0.6170800246416274 0.06561601049903887
3 284 285 108 0.7874033751269984 0.6170800246416274 0.06561601049903887
3 145 144 108 0.7874033751269984 0.6170800246416274 0.06561601049903887
3 108 285 145 0.7874033751269984 0.6170800246416274 0.06561601049903887
3 111 285 284 0.7874033751269984 0.6170800246416274 0.06561601049903887
3 111 284 110 0.7874033751269984 0.6170800246416274 0.06561601049903887
3 238 112 111 0.7874033751269984 0.6170800246416274 0.06561601049903887
3 112 285 111 0.7874033751269984 0.6170800246416274 0.06561601049903887
3 110 237 111 0.7874033751269984 0.6170800246416274 0.06561601049903887
3 111 237 238 0.7874033751269984 0.6170800246416274 0.06561601049903887
3 283 106 282 0.7874033751269984 0.6170800246416274 0.06561601049903887
3 283 109 110 0.7874033751269984 0.6170800246416274 0.06561601049903887
3 283 282 109 0.7874033751269984 0.6170800246416274 0.06561601049903887
3 110 284 283 0.7874033751269984 0.6170800246416274 0.06561601049903887
3 143 144 232 0.7874033751269984 0.6170800246416274 0.06561601049903887
3 232 231 143 0.7874033751269984 0.6170800246416274 0.06561601049903887
3 143 231 142 0.7874033751269984 0.6170800246416274 0.06561601049903887
3 142 106 143 0.7874033751269984 0.6170800246416274 0.06561601049903887
3 170 222 37 0.7874033751269984 0.6170800246416274 0.06561601049903887
3 37 222 36 0.7874033751269984 0.6170800246416274 0.06561601049903887
3 102 274 101 0.7874033751269984 0.6170800246416274 0.06561601049903887
3 223 224 102 0.7874033751269984 0.6170800246416274 0.06561601049903887
3 102 101 223 0.7874033751269984 0.6170800246416274 0.06561601049903887
3 34 274 97 0.7874033751269984 0.6170800246416274 0.06561601049903887
3 98 215 97 0.7874033751269984 0.6170800246416274 0.06561601049903887
3 97 33 34 0.7874033751269984 0.6170800246416274 0.06561601049903887
3 97 215 33 0.7874033751269984 0.6170800246416274 0.06561601049903887
3 180 321 233 0.7874033751269984 0.6170800246416274 0.06561601049903887
3 180 233 145 0.7874033751269984 0.6170800246416274 0.06561601049903887
3 322 173 180 0.7874033751269984 0.6170800246416274 0.06561601049903887
3 173 321 180 0.7874033751269984 0.6170800246416274 0.06561601049903887
3 179 321 320 0.7874033751269984 0.6170800246416274 0.06561601049903887
3 320 178 179 0.7874033751269984 0.6170800246416274 0.06561601049903887
3 320 171 319 0.7874033751269984 0.6170800246416274 0.06561601049903887
3 319 178 320 0.7874033751269984 0.6170800246416274 0.06561601049903887
3 258 127 259 0.7874033751269984 0.6170800246416274 0.06561601049903887
3 11 194 10 0.7874033751269984 0.6170800246416274 0.06561601049903887
3 194 73 10 0.7874033751269984 0.6170800246416274 0.06561601049903887
3 10 73 9 0.7874033751269984 0.6170800246416274 0.06561601049903887
3 205 204 160 0.7874033751269984 0.6170800246416274 0.06561601049903887
3 258 12 13 0.7874033751269984 0.6170800246416274 0.06561601049903887
3 13 126 258 0.7874033751269984 0.6170800246416274 0.06561601049903887
3 14 126 13 0.7874033751269984 0.6170800246416274 0.06561601049903887
3 268 269 88 0.7874033751269984 0.6170800246416274 0.06561601049903887
3 88 87 268 0.7874033751269984 0.6170800246416274 0.06561601049903887
3 268 87 267 0.7874033751269984 0.6170800246416274 0.06561601049903887
3 267 164 268 0.7874033751269984 0.6170800246416274 0.06561601049903887
3 165 269 268 0.7874033751269984 0.6170800246416274 0.06561601049903887
3 268 164 165 0.7874033751269984 0.6170800246416274 0.06561601049903887
3 86 87 210 0.7874033751269984 0.6170800246416274 0.06561601049903887
3 267 87 86 0.7874033751269984 0.6170800246416274 0.06561601049903887
3 85 266 86 0.7874033751269984 0.6170800246416274 0.06561601049903887
3 86 266 267 0.7874033751269984 0.6170800246416274 0.06561601049903887
3 83 63 64 0.7874033751269984 0.6170800246416274 0.06561601049903887
3 302 301 83 0.7874033751269984 0.6170800246416274 0.06561601049903887
3 134 301 302 0.7874033751269984 0.6170800246416274 0.06561601049903887
3 208 63 62 0.7874033751269984 0.6170800246416274 0.06561601049903887
3 62 24 208 0.7874033751269984 0.6170800246416274 0.06561601049903887
3 208 25 85 0.7874033751269984 0.6170800246416274 0.06561601049903887
3 208 24 25 0.7874033751269984 0.6170800246416274 0.06561601049903887
3 202 60 203 0.7874033751269984 0.6170800246416274 0.06561601049903887
3 59 60 202 0.7874033751269984 0.6170800246416274 0.06561601049903887
3 82 301 300 0.7874033751269984 0.6170800246416274 0.06561601049903887
3 62 63 82 0.7874033751269984 0.6170800246416274 0.06561601049903887
3 82 63 83 0.7874033751269984 0.6170800246416274 0.06561601049903887
3 83 301 82 0.7874033751269984 0.6170800246416274 0.06561601049903887
3 82 81 62 0.7874033751269984 0.6170800246416274 0.06561601049903887
3 300 81 82 0.7874033751269984 0.6170800246416274 0.06561601049903887
3 300 301 133 0.7874033751269984 0.6170800246416274 0.06561601049903887
3 133 132 300 0.7874033751269984 0.6170800246416274 0.06561601049903887
3 133 134 159 0.7874033751269984 0.6170800246416274 0.06561601049903887
3 133 301 134 0.7874033751269984 0.6170800246416274 0.06561601049903887
3 23 81 22 0.7874033751269984 0.6170800246416274 0.06561601049903887
3 157 60 59 0.7874033751269984 0.6170800246416274 0.06561601049903887
3 59 18 157 0.7874033751269984 0.6170800246416274 0.06561601049903887
3 343 298 344 0.7874033751269984 0.6170800246416274 0.06561601049903887
3 68 191 254 0.7874033751269984 0.6170800246416274 0.06561601049903887
3 254 191 255 0.7874033751269984 0.6170800246416274 0.06561601049903887
3 192 193 256 0.7874033751269984 0.6170800246416274 0.06561601049903887
3 256 255 192 0.7874033751269984 0.6170800246416274 0.06561601049903887
3 188 71 189 0.7874033751269984 0.6170800246416274 0.06561601049903887
3 189 67 188 0.7874033751269984 0.6170800246416274 0.06561601049903887
3 72 190 189 0.7874033751269984 0.6170800246416274 0.06561601049903887
3 189 71 72 0.7874033751269984 0.6170800246416274 0.06561601049903887
3 189 190 68 0.7874033751269984 0.6170800246416274 0.06561601049903887
3 68 67 189 0.7874033751269984 0.6170800246416274 0.06561601049903887
3 58 57 292 0.7874033751269984 0.6170800246416274 0.06561601049903887
3 292 57 291 0.7874033751269984 0.6170800246416274 0.06561601049903887
3 75 76 292 0.7874033751269984 0.6170800246416274 0.06561601049903887
3 292 291 75 0.7874033751269984 0.6170800246416274 0.06561601049903887
3 148 246 149 0.7874033751269984 0.6170800246416274 0.06561601049903887
3 148 327 147 0.7874033751269984 0.6170800246416274 0.06561601049903887
3 183 184 245 0.7874033751269984 0.6170800246416274 0.06561601049903887
3 184 246 245 0.7874033751269984 0.6170800246416274 0.06561601049903887
3 245 244 183 0.7874033751269984 0.6170800246416274 0.06561601049903887
3 246 148 245 0.7874033751269984 0.6170800246416274 0.06561601049903887
3 147 244 245 0.7874033751269984 0.6170800246416274 0.06561601049903887
3 245 148 147 0.7874033751269984 0.6170800246416274 0.06561601049903887
3 183 244 182 0.7874033751269984 0.6170800246416274 0.06561601049903887
3 52 181 51 0.7874033751269984 0.6170800246416274 0.06561601049903887
3 156 155 125 0.7874033751269984 0.6170800246416274 0.06561601049903887
3 125 155 124 0.7874033751269984 0.6170800246416274 0.06561601049903887
3 125 255 156 0.7874033751269984 0.6170800246416274 0.06561601049903887
3 125 254 255 0.7874033751269984 0.6170800246416274 0.06561601049903887
3 340 155 156 0.7874033751269984 0.6170800246416274 0.06561601049903887
3 186 185 339 0.7874033751269984 0.6170800246416274 0.06561601049903887
3 339 340 186 0.7874033751269984 0.6170800246416274 0.06561601049903887
3 155 340 339 0.7874033751269984 0.6170800246416274 0.06561601049903887
3 154 155 339 0.7874033751269984 0.6170800246416274 0.06561601049903887
3 119 184 183 0.7874033751269984 0.6170800246416274 0.06561601049903887
3 122 251 123 0.7874033751269984 0.6170800246416274 0.06561601049903887
3 123 124 154 0.7874033751269984 0.6170800246416274 0.06561601049903887
3 154 153 123 0.7874033751269984 0.6170800246416274 0.06561601049903887
3 123 153 122 0.7874033751269984 0.6170800246416274 0.06561601049903887
3 66 251 65 0.7874033751269984 0.6170800246416274 0.06561601049903887
3 188 67 66 0.7874033751269984 0.6170800246416274 0.06561601049903887
3 66 187 188 0.7874033751269984 0.6170800246416274 0.06561601049903887
3 65 187 66 0.7874033751269984 0.6170800246416274 0.06561601049903887
3 124 123 252 0.7874033751269984 0.6170800246416274 0.06561601049903887
3 252 123 251 0.7874033751269984 0.6170800246416274 0.06561601049903887
3 251 66 252 0.7874033751269984 0.6170800246416274 0.06561601049903887
3 252 66 67 0.7874033751269984 0.6170800246416274 0.06561601049903887
3 58 292 293 0.7874033751269984 0.6170800246416274 0.06561601049903887
3 293 292 76 0.7874033751269984 0.6170800246416274 0.06561601049903887
3 293 72 58 0.7874033751269984 0.6170800246416274 0.06561601049903887
3 293 294 72 0.7874033751269984 0.6170800246416274 0.06561601049903887
3 293 76 198 0.7874033751269984 0.6170800246416274 0.06561601049903887
3 198 294 293 0.7874033751269984 0.6170800246416274 0.06561601049903887
3 200 265 296 0.7874033751269984 0.6170800246416274 0.06561601049903887
3 264 265 200 0.7874033751269984 0.6170800246416274 0.06561601049903887
3 296 295 200 0.7874033751269984 0.6170800246416274 0.06561601049903887
3 200 295 199 0.7874033751269984 0.6170800246416274 0.06561601049903887
3 199 264 200 0.7874033751269984 0.6170800246416274 0.06561601049903887
3 213 270 271 0.7874033751269984 0.6170800246416274 0.06561601049903887
3 213 212 270 0.7874033751269984 0.6170800246416274 0.06561601049903887
3 271 214 213 0.7874033751269984 0.6170800246416274 0.06561601049903887
3 304 212 213 0.7874033751269984 0.6170800246416274 0.06561601049903887
3 213 305 304 0.7874033751269984 0.6170800246416274 0.06561601049903887
3 214 305 213 0.7874033751269984 0.6170800246416274 0.06561601049903887
3 166 269 165 0.7874033751269984 0.6170800246416274 0.06561601049903887
3 270 269 166 0.7874033751269984 0.6170800246416274 0.06561601049903887
3 162 305 207 0.7874033751269984 0.6170800246416274 0.06561601049903887
3 206 162 207 0.7874033751269984 0.6170800246416274 0.06561601049903887
3 207 305 306 0.7874033751269984 0.6170800246416274 0.06561601049903887
3 207 263 206 0.7874033751269984 0.6170800246416274 0.06561601049903887
3 264 263 207 0.7874033751269984 0.6170800246416274 0.06561601049903887
3 306 265 207 0.7874033751269984 0.6170800246416274 0.06561601049903887
3 207 265 264 0.7874033751269984 0.6170800246416274 0.06561601049903887
3 314 315 273 0.7874033751269984 0.6170800246416274 0.06561601049903887
3 313 314 168 0.7874033751269984 0.6170800246416274 0.06561601049903887
3 92 311 312 0.7874033751269984 0.6170800246416274 0.06561601049903887
3 96 219 312 0.7874033751269984 0.6170800246416274 0.06561601049903887
3 312 311 96 0.7874033751269984 0.6170800246416274 0.06561601049903887
3 312 219 220 0.7874033751269984 0.6170800246416274 0.06561601049903887
3 220 313 312 0.7874033751269984 0.6170800246416274 0.06561601049903887
3 90 137 89 0.7874033751269984 0.6170800246416274 0.06561601049903887
3 90 89 308 0.7874033751269984 0.6170800246416274 0.06561601049903887
3 177 230 231 0.7874033751269984 0.6170800246416274 0.06561601049903887
3 177 178 319 0.7874033751269984 0.6170800246416274 0.06561601049903887
3 231 178 177 0.7874033751269984 0.6170800246416274 0.06561601049903887
3 177 319 318 0.7874033751269984 0.6170800246416274 0.06561601049903887
3 318 176 177 0.7874033751269984 0.6170800246416274 0.06561601049903887
3 176 230 177 0.7874033751269984 0.6170800246416274 0.06561601049903887
3 328 329 116 0.7874033751269984 0.6170800246416274 0.06561601049903887
3 327 148 328 0.7874033751269984 0.6170800246416274 0.06561601049903887
3 149 329 328 0.7874033751269984 0.6170800246416274 0.06561601049903887
3 328 148 149 0.7874033751269984 0.6170800246416274 0.06561601049903887
3 277 278 100 0.7874033751269984 0.6170800246416274 0.06561601049903887
3 100 99 277 0.7874033751269984 0.6170800246416274 0.06561601049903887
3 322 323 174 0.7874033751269984 0.6170800246416274 0.06561601049903887
3 174 173 322 0.7874033751269984 0.6170800246416274 0.06561601049903887
3 95 94 217 0.7874033751269984 0.6170800246416274 0.06561601049903887
3 95 218 96 0.7874033751269984 0.6170800246416274 0.06561601049903887
3 217 218 95 0.7874033751269984 0.6170800246416274 0.06561601049903887
3 93 94 308 0.7874033751269984 0.6170800246416274 0.06561601049903887
3 308 31 93 0.7874033751269984 0.6170800246416274 0.06561601049903887
3 31 32 93 0.7874033751269984 0.6170800246416274 0.06561601049903887
3 32 215 93 0.7874033751269984 0.6170800246416274 0.06561601049903887
3 93 215 216 0.7874033751269984 0.6170800246416274 0.06561601049903887
3 216 94 93 0.7874033751269984 0.6170800246416274 0.06561601049903887
3 106 283 107 0.7874033751269984 0.6170800246416274 0.06561601049903887
3 107 143 106 0.7874033751269984 0.6170800246416274 0.06561601049903887
3 107 283 284 0.7874033751269984 0.6170800246416274 0.06561601049903887
3 144 143 107 0.7874033751269984 0.6170800246416274 0.06561601049903887
3 284 108 107 0.7874033751269984 0.6170800246416274 0.06561601049903887
3 107 108 144 0.7874033751269984 0.6170800246416274 0.06561601049903887
3 318 170 169 0.7874033751269984 0.6170800246416274 0.06561601049903887
3 170 37 169 0.7874033751269984 0.6170800246416274 0.06561601049903887
3 169 37 38 0.7874033751269984 0.6170800246416274 0.06561601049903887
3 169 317 318 0.7874033751269984 0.6170800246416274 0.06561601049903887
3 38 317 169 0.7874033751269984 0.6170800246416274 0.06561601049903887
3 274 102 275 0.7874033751269984 0.6170800246416274 0.06561601049903887
3 98 97 275 0.7874033751269984 0.6170800246416274 0.06561601049903887
3 275 97 274 0.7874033751269984 0.6170800246416274 0.06561601049903887
3 234 180 145 0.7874033751269984 0.6170800246416274 0.06561601049903887
3 287 235 234 0.7874033751269984 0.6170800246416274 0.06561601049903887
3 234 235 322 0.7874033751269984 0.6170800246416274 0.06561601049903887
3 322 180 234 0.7874033751269984 0.6170800246416274 0.06561601049903887
3 145 286 234 0.7874033751269984 0.6170800246416274 0.06561601049903887
3 234 286 287 0.7874033751269984 0.6170800246416274 0.06561601049903887
3 172 320 321 0.7874033751269984 0.6170800246416274 0.06561601049903887
3 172 225 224 0.7874033751269984 0.6170800246416274 0.06561601049903887
3 224 171 172 0.7874033751269984 0.6170800246416274 0.06561601049903887
3 171 320 172 0.7874033751269984 0.6170800246416274 0.06561601049903887
3 172 321 173 0.7874033751269984 0.6170800246416274 0.06561601049903887
3 173 225 172 0.7874033751269984 0.6170800246416274 0.06561601049903887
3 128 259 127 0.7874033751269984 0.6170800246416274 0.06561601049903887
3 128 202 203 0.7874033751269984 0.6170800246416274 0.06561601049903887
3 127 202 128 0.7874033751269984 0.6170800246416274 0.06561601049903887
3 77 194 11 0.7874033751269984 0.6170800246416274 0.06561601049903887
3 11 12 77 0.7874033751269984 0.6170800246416274 0.06561601049903887
3 77 12 258 0.7874033751269984 0.6170800246416274 0.06561601049903887
3 258 259 77 0.7874033751269984 0.6170800246416274 0.06561601049903887
3 161 162 206 0.7874033751269984 0.6170800246416274 0.06561601049903887
3 206 205 161 0.7874033751269984 0.6170800246416274 0.06561601049903887
3 161 205 160 0.7874033751269984 0.6170800246416274 0.06561601049903887
3 209 86 210 0.7874033751269984 0.6170800246416274 0.06561601049903887
3 210 64 209 0.7874033751269984 0.6170800246416274 0.06561601049903887
3 209 64 63 0.7874033751269984 0.6170800246416274 0.06561601049903887
3 63 208 209 0.7874033751269984 0.6170800246416274 0.06561601049903887
3 85 86 209 0.7874033751269984 0.6170800246416274 0.06561601049903887
3 209 208 85 0.7874033751269984 0.6170800246416274 0.06561601049903887
3 211 212 303 0.7874033751269984 0.6170800246416274 0.06561601049903887
3 88 212 211 0.7874033751269984 0.6170800246416274 0.06561601049903887
3 211 87 88 0.7874033751269984 0.6170800246416274 0.06561601049903887
3 210 87 211 0.7874033751269984 0.6170800246416274 0.06561601049903887
3 83 64 84 0.7874033751269984 0.6170800246416274 0.06561601049903887
3 84 302 83 0.7874033751269984 0.6170800246416274 0.06561601049903887
3 84 64 210 0.7874033751269984 0.6170800246416274 0.06561601049903887
3 210 211 84 0.7874033751269984 0.6170800246416274 0.06561601049903887
3 303 302 84 0.7874033751269984 0.6170800246416274 0.06561601049903887
3 84 211 303 0.7874033751269984 0.6170800246416274 0.06561601049903887
3 201 127 126 0.7874033751269984 0.6170800246416274 0.06561601049903887
3 201 202 127 0.7874033751269984 0.6170800246416274 0.06561601049903887
3 59 202 201 0.7874033751269984 0.6170800246416274 0.06561601049903887
3 201 126 16 0.7874033751269984 0.6170800246416274 0.06561601049903887
3 201 17 59 0.7874033751269984 0.6170800246416274 0.06561601049903887
3 201 16 17 0.7874033751269984 0.6170800246416274 0.06561601049903887
3 21 22 299 0.7874033751269984 0.6170800246416274 0.06561601049903887
3 299 22 81 0.7874033751269984 0.6170800246416274 0.06561601049903887
3 299 81 300 0.7874033751269984 0.6170800246416274 0.06561601049903887
3 300 132 299 0.7874033751269984 0.6170800246416274 0.06561601049903887
3 60 157 158 0.7874033751269984 0.6170800246416274 0.06561601049903887
3 158 157 132 0.7874033751269984 0.6170800246416274 0.06561601049903887
3 159 61 158 0.7874033751269984 0.6170800246416274 0.06561601049903887
3 158 61 60 0.7874033751269984 0.6170800246416274 0.06561601049903887
3 158 133 159 0.7874033751269984 0.6170800246416274 0.06561601049903887
3 132 133 158 0.7874033751269984 0.6170800246416274 0.06561601049903887
3 131 18 20 0.7874033751269984 0.6170800246416274 0.06561601049903887
3 131 157 18 0.7874033751269984 0.6170800246416274 0.06561601049903887
3 20 21 131 0.7874033751269984 0.6170800246416274 0.06561601049903887
3 132 157 131 0.7874033751269984 0.6170800246416274 0.06561601049903887
3 21 299 131 0.7874033751269984 0.6170800246416274 0.06561601049903887
3 131 299 132 0.7874033751269984 0.6170800246416274 0.06561601049903887
3 344 325 334 0.7874033751269984 0.6170800246416274 0.06561601049903887
3 334 343 344 0.7874033751269984 0.6170800246416274 0.06561601049903887
3 333 343 334 0.7874033751269984 0.6170800246416274 0.06561601049903887
3 334 289 333 0.7874033751269984 0.6170800246416274 0.06561601049903887
3 325 289 334 0.7874033751269984 0.6170800246416274 0.06561601049903887
3 257 256 193 0.7874033751269984 0.6170800246416274 0.06561601049903887
3 298 343 257 0.7874033751269984 0.6170800246416274 0.06561601049903887
3 297 298 257 0.7874033751269984 0.6170800246416274 0.06561601049903887
3 257 193 297 0.7874033751269984 0.6170800246416274 0.06561601049903887
3 333 249 342 0.7874033751269984 0.6170800246416274 0.06561601049903887
3 342 343 333 0.7874033751269984 0.6170800246416274 0.06561601049903887
3 342 257 343 0.7874033751269984 0.6170800246416274 0.06561601049903887
3 256 257 342 0.7874033751269984 0.6170800246416274 0.06561601049903887
3 54 181 52 0.7874033751269984 0.6170800246416274 0.06561601049903887
3 54 1 181 0.7874033751269984 0.6170800246416274 0.06561601049903887
3 117 182 181 0.7874033751269984 0.6170800246416274 0.06561601049903887
3 181 1 117 0.7874033751269984 0.6170800246416274 0.06561601049903887
3 117 1 2 0.7874033751269984 0.6170800246416274 0.06561601049903887
3 244 146 243 0.7874033751269984 0.6170800246416274 0.06561601049903887
3 243 182 244 0.7874033751269984 0.6170800246416274 0.06561601049903887
3 181 182 243 0.7874033751269984 0.6170800246416274 0.06561601049903887
3 243 51 181 0.7874033751269984 0.6170800246416274 0.06561601049903887
3 50 146 49 0.7874033751269984 0.6170800246416274 0.06561601049903887
3 50 243 146 0.7874033751269984 0.6170800246416274 0.06561601049903887
3 51 243 50 0.7874033751269984 0.6170800246416274 0.06561601049903887
3 184 119 338 0.7874033751269984 0.6170800246416274 0.06561601049903887
3 338 119 153 0.7874033751269984 0.6170800246416274 0.06561601049903887
3 338 185 184 0.7874033751269984 0.6170800246416274 0.06561601049903887
3 338 339 185 0.7874033751269984 0.6170800246416274 0.06561601049903887
3 338 153 154 0.7874033751269984 0.6170800246416274 0.06561601049903887
3 154 339 338 0.7874033751269984 0.6170800246416274 0.06561601049903887
3 183 182 336 0.7874033751269984 0.6170800246416274 0.06561601049903887
3 336 119 183 0.7874033751269984 0.6170800246416274 0.06561601049903887
3 182 117 336 0.7874033751269984 0.6170800246416274 0.06561601049903887
3 336 117 2 0.7874033751269984 0.6170800246416274 0.06561601049903887
3 153 119 152 0.7874033751269984 0.6170800246416274 0.06561601049903887
3 122 153 152 0.7874033751269984 0.6170800246416274 0.06561601049903887
3 253 125 124 0.7874033751269984 0.6170800246416274 0.06561601049903887
3 124 252 253 0.7874033751269984 0.6170800246416274 0.06561601049903887
3 254 125 253 0.7874033751269984 0.6170800246416274 0.06561601049903887
3 68 254 253 0.7874033751269984 0.6170800246416274 0.06561601049903887
3 253 67 68 0.7874033751269984 0.6170800246416274 0.06561601049903887
3 253 252 67 0.7874033751269984 0.6170800246416274 0.06561601049903887
3 139 166 138 0.7874033751269984 0.6170800246416274 0.06561601049903887
3 91 139 138 0.7874033751269984 0.6170800246416274 0.06561601049903887
3 165 137 138 0.7874033751269984 0.6170800246416274 0.06561601049903887
3 138 166 165 0.7874033751269984 0.6170800246416274 0.06561601049903887
3 138 90 91 0.7874033751269984 0.6170800246416274 0.06561601049903887
3 137 90 138 0.7874033751269984 0.6170800246416274 0.06561601049903887
3 271 270 167 0.7874033751269984 0.6170800246416274 0.06561601049903887
3 270 166 167 0.7874033751269984 0.6170800246416274 0.06561601049903887
3 167 166 139 0.7874033751269984 0.6170800246416274 0.06561601049903887
3 167 168 271 0.7874033751269984 0.6170800246416274 0.06561601049903887
3 281 315 221 0.7874033751269984 0.6170800246416274 0.06561601049903887
3 315 314 221 0.7874033751269984 0.6170800246416274 0.06561601049903887
3 221 280 281 0.7874033751269984 0.6170800246416274 0.06561601049903887
3 220 280 221 0.7874033751269984 0.6170800246416274 0.06561601049903887
3 221 313 220 0.7874033751269984 0.6170800246416274 0.06561601049903887
3 221 314 313 0.7874033751269984 0.6170800246416274 0.06561601049903887
3 272 214 271 0.7874033751269984 0.6170800246416274 0.06561601049903887
3 271 168 272 0.7874033751269984 0.6170800246416274 0.06561601049903887
3 273 214 272 0.7874033751269984 0.6170800246416274 0.06561601049903887
3 272 314 273 0.7874033751269984 0.6170800246416274 0.06561601049903887
3 272 168 314 0.7874033751269984 0.6170800246416274 0.06561601049903887
3 115 328 116 0.7874033751269984 0.6170800246416274 0.06561601049903887
3 115 239 238 0.7874033751269984 0.6170800246416274 0.06561601049903887
3 116 239 115 0.7874033751269984 0.6170800246416274 0.06561601049903887
3 238 114 115 0.7874033751269984 0.6170800246416274 0.06561601049903887
3 115 114 327 0.7874033751269984 0.6170800246416274 0.06561601049903887
3 327 328 115 0.7874033751269984 0.6170800246416274 0.06561601049903887
3 323 228 227 0.7874033751269984 0.6170800246416274 0.06561601049903887
3 227 174 323 0.7874033751269984 0.6170800246416274 0.06561601049903887
3 279 278 227 0.7874033751269984 0.6170800246416274 0.06561601049903887
3 227 228 279 0.7874033751269984 0.6170800246416274 0.06561601049903887
3 173 174 226 0.7874033751269984 0.6170800246416274 0.06561601049903887
3 104 225 226 0.7874033751269984 0.6170800246416274 0.06561601049903887
3 226 225 173 0.7874033751269984 0.6170800246416274 0.06561601049903887
3 174 227 226 0.7874033751269984 0.6170800246416274 0.06561601049903887
3 226 277 104 0.7874033751269984 0.6170800246416274 0.06561601049903887
3 278 277 226 0.7874033751269984 0.6170800246416274 0.06561601049903887
3 226 227 278 0.7874033751269984 0.6170800246416274 0.06561601049903887
3 96 311 310 0.7874033751269984 0.6170800246416274 0.06561601049903887
3 310 95 96 0.7874033751269984 0.6170800246416274 0.06561601049903887
3 310 92 91 0.7874033751269984 0.6170800246416274 0.06561601049903887
3 310 311 92 0.7874033751269984 0.6170800246416274 0.06561601049903887
3 98 275 276 0.7874033751269984 0.6170800246416274 0.06561601049903887
3 276 99 98 0.7874033751269984 0.6170800246416274 0.06561601049903887
3 104 277 276 0.7874033751269984 0.6170800246416274 0.06561601049903887
3 276 277 99 0.7874033751269984 0.6170800246416274 0.06561601049903887
3 103 275 102 0.7874033751269984 0.6170800246416274 0.06561601049903887
3 103 102 224 0.7874033751269984 0.6170800246416274 0.06561601049903887
3 224 225 103 0.7874033751269984 0.6170800246416274 0.06561601049903887
3 103 276 275 0.7874033751269984 0.6170800246416274 0.06561601049903887
3 103 225 104 0.7874033751269984 0.6170800246416274 0.06561601049903887
3 104 276 103 0.7874033751269984 0.6170800246416274 0.06561601049903887
3 135 302 303 0.7874033751269984 0.6170800246416274 0.06561601049903887
3 135 303 162 0.7874033751269984 0.6170800246416274 0.06561601049903887
3 162 161 135 0.7874033751269984 0.6170800246416274 0.06561601049903887
3 134 302 135 0.7874033751269984 0.6170800246416274 0.06561601049903887
3 160 134 135 0.7874033751269984 0.6170800246416274 0.06561601049903887
3 135 161 160 0.7874033751269984 0.6170800246416274 0.06561601049903887
3 204 205 130 0.7874033751269984 0.6170800246416274 0.06561601049903887
3 203 204 129 0.7874033751269984 0.6170800246416274 0.06561601049903887
3 129 128 203 0.7874033751269984 0.6170800246416274 0.06561601049903887
3 204 130 129 0.7874033751269984 0.6170800246416274 0.06561601049903887
3 129 130 261 0.7874033751269984 0.6170800246416274 0.06561601049903887
3 74 195 196 0.7874033751269984 0.6170800246416274 0.06561601049903887
3 196 75 74 0.7874033751269984 0.6170800246416274 0.06561601049903887
3 196 197 75 0.7874033751269984 0.6170800246416274 0.06561601049903887
3 341 342 249 0.7874033751269984 0.6170800246416274 0.06561601049903887
3 341 340 156 0.7874033751269984 0.6170800246416274 0.06561601049903887
3 156 255 341 0.7874033751269984 0.6170800246416274 0.06561601049903887
3 341 249 186 0.7874033751269984 0.6170800246416274 0.06561601049903887
3 186 340 341 0.7874033751269984 0.6170800246416274 0.06561601049903887
3 255 256 341 0.7874033751269984 0.6170800246416274 0.06561601049903887
3 256 342 341 0.7874033751269984 0.6170800246416274 0.06561601049903887
3 122 152 121 0.7874033751269984 0.6170800246416274 0.06561601049903887
3 3 4 121 0.7874033751269984 0.6170800246416274 0.06561601049903887
3 121 4 250 0.7874033751269984 0.6170800246416274 0.06561601049903887
3 250 122 121 0.7874033751269984 0.6170800246416274 0.06561601049903887
3 119 336 151 0.7874033751269984 0.6170800246416274 0.06561601049903887
3 151 152 119 0.7874033751269984 0.6170800246416274 0.06561601049903887
3 151 336 2 0.7874033751269984 0.6170800246416274 0.06561601049903887
3 151 2 3 0.7874033751269984 0.6170800246416274 0.06561601049903887
3 3 121 151 0.7874033751269984 0.6170800246416274 0.06561601049903887
3 151 121 152 0.7874033751269984 0.6170800246416274 0.06561601049903887
3 140 167 139 0.7874033751269984 0.6170800246416274 0.06561601049903887
3 168 167 140 0.7874033751269984 0.6170800246416274 0.06561601049903887
3 140 139 92 0.7874033751269984 0.6170800246416274 0.06561601049903887
3 92 312 140 0.7874033751269984 0.6170800246416274 0.06561601049903887
3 313 168 140 0.7874033751269984 0.6170800246416274 0.06561601049903887
3 140 312 313 0.7874033751269984 0.6170800246416274 0.06561601049903887
3 94 95 309 0.7874033751269984 0.6170800246416274 0.06561601049903887
3 95 310 309 0.7874033751269984 0.6170800246416274 0.06561601049903887
3 308 94 309 0.7874033751269984 0.6170800246416274 0.06561601049903887
3 309 90 308 0.7874033751269984 0.6170800246416274 0.06561601049903887
3 91 90 309 0.7874033751269984 0.6170800246416274 0.06561601049903887
3 309 310 91 0.7874033751269984 0.6170800246416274 0.06561601049903887
3 262 205 206 0.7874033751269984 0.6170800246416274 0.06561601049903887
3 262 130 205 0.7874033751269984 0.6170800246416274 0.06561601049903887
3 206 263 262 0.7874033751269984 0.6170800246416274 0.06561601049903887
3 198 197 262 0.7874033751269984 0.6170800246416274 0.06561601049903887
3 262 263 198 0.7874033751269984 0.6170800246416274 0.06561601049903887
3 259 128 260 0.7874033751269984 0.6170800246416274 0.06561601049903887
3 128 129 260 0.7874033751269984 0.6170800246416274 0.06561601049903887
3 260 129 261 0.7874033751269984 0.6170800246416274 0.06561601049903887
3 261 130 80 0.7874033751269984 0.6170800246416274 0.06561601049903887
3 130 262 80 0.7874033751269984 0.6170800246416274 0.06561601049903887
3 197 196 80 0.7874033751269984 0.6170800246416274 0.06561601049903887
3 80 262 197 0.7874033751269984 0.6170800246416274 0.06561601049903887
3 78 77 259 0.7874033751269984 0.6170800246416274 0.06561601049903887
3 259 260 78 0.7874033751269984 0.6170800246416274 0.06561601049903887
3 194 77 78 0.7874033751269984 0.6170800246416274 0.06561601049903887
3 195 194 78 0.7874033751269984 0.6170800246416274 0.06561601049903887
3 195 78 79 0.7874033751269984 0.6170800246416274 0.06561601049903887
3 79 78 260 0.7874033751269984 0.6170800246416274 0.06561601049903887
3 79 260 261 0.7874033751269984 0.6170800246416274 0.06561601049903887
3 79 196 195 0.7874033751269984 0.6170800246416274 0.06561601049903887
3 261 80 79 0.7874033751269984 0.6170800246416274 0.06561601049903887
3 79 80 196 0.7874033751269984 0.6170800246416274 0.06561601049903887
