OFF
88 81 0


30.0661 34.0224 12.3468
30.0661 34.0224 12.3468
30.1652 33.9521 12.3477
30.2576 33.8816 12.3476
30.3442 33.8106 12.3468
30.4254 33.739 12.3451
30.5019 33.6668 12.3428
30.574 33.5937 12.3397
30.6422 33.5197 12.336
30.7068 33.4445 12.3316
30.768 33.3678 12.3265
30.8261 33.2895 12.3208
30.8813 33.2094 12.3143
30.9337 33.1271 12.3072
30.9834 33.0423 12.2993
31.0303 32.9549 12.2906
31.0746 32.8644 12.281
31.1162 32.7706 12.2705
31.155 32.673 12.259
31.1908 32.5713 12.2465
31.2234 32.465 12.2328
31.2527 32.3537 12.2178
31.2781 32.237 12.2014
31.2781 32.237 12.2014
31.3671 32.362 12.2338
31.4407 32.4597 12.2597
31.5045 32.5408 12.2816
31.5618 32.6114 12.3008
31.6149 32.675 12.3183
31.6654 32.7342 12.3348
31.7148 32.7909 12.3507
31.7641 32.8466 12.3664
31.8147 32.9026 12.3823
31.8677 32.9606 12.3989
31.9248 33.022 12.4165
31.988 33.0889 12.4359
32.0602 33.1641 12.4578
32.1454 33.2515 12.4835
32.2505 33.3575 12.5148
32.2505 33.3575 12.5148
32.3093 33.4915 12.545
32.3594 33.6045 12.5704
32.4033 33.7031 12.5927
32.4429 33.7915 12.6126
32.4795 33.8727 12.631
32.5141 33.9491 12.6483
32.5474 34.0224 12.6649
32.5801 34.0943 12.6813
32.613 34.1662 12.6976
32.6466 34.2395 12.7142
32.6816 34.3158 12.7316
32.719 34.3968 12.75
32.7596 34.4848 12.7701
32.805 34.5827 12.7924
32.8571 34.6948 12.8179
32.9188 34.8269 12.8481
32.9188 34.8269 12.8481
32.7946 34.7976 12.8272
32.7035 34.7761 12.8119
32.6246 34.7576 12.7987
32.5456 34.7391 12.7855
32.4544 34.7179 12.7702
32.3301 34.6892 12.7494
32.2395 34.6625 12.7333
32.149 34.6358 12.7172
32.0584 34.6092 12.7011
31.9679 34.5825 12.685
31.8773 34.5558 12.6689
31.7867 34.5291 12.6528
31.6962 34.5025 12.6367
31.6056 34.4758 12.6206
31.5151 34.4491 12.6045
31.4245 34.4225 12.5884
31.3339 34.3958 12.5723
31.2434 34.3691 12.5562
31.1528 34.3424 12.5401
31.0622 34.3158 12.524
30.9717 34.2891 12.5079
30.8811 34.2624 12.4917
30.7906 34.2357 12.4756
30.7 34.2091 12.4595
30.6094 34.1824 12.4434
30.5189 34.1557 12.4273
30.4283 34.1291 12.4112
30.3377 34.1024 12.3951
30.2472 34.0757 12.379
30.1566 34.049 12.3629
30.0661 34.0224 12.3468
3 12 36 74 0.9633895889950224 0.9104865442454124 0.3868692121959334
3 71 40 41 0.9633895889950224 0.9104865442454124 0.3868692121959334
3 38 40 37 0.9633895889950224 0.9104865442454124 0.3868692121959334
3 71 41 70 0.9633895889950224 0.9104865442454124 0.3868692121959334
3 70 41 42 0.9633895889950224 0.9104865442454124 0.3868692121959334
3 35 36 12 0.9633895889950224 0.9104865442454124 0.3868692121959334
3 73 74 36 0.9633895889950224 0.9104865442454124 0.3868692121959334
3 36 37 73 0.9633895889950224 0.9104865442454124 0.3868692121959334
3 42 43 68 0.9633895889950224 0.9104865442454124 0.3868692121959334
3 49 62 63 0.9633895889950224 0.9104865442454124 0.3868692121959334
3 49 50 62 0.9633895889950224 0.9104865442454124 0.3868692121959334
3 30 15 16 0.9633895889950224 0.9104865442454124 0.3868692121959334
3 14 32 33 0.9633895889950224 0.9104865442454124 0.3868692121959334
3 15 32 14 0.9633895889950224 0.9104865442454124 0.3868692121959334
3 12 74 11 0.9633895889950224 0.9104865442454124 0.3868692121959334
3 31 15 30 0.9633895889950224 0.9104865442454124 0.3868692121959334
3 31 32 15 0.9633895889950224 0.9104865442454124 0.3868692121959334
3 3 85 2 0.9633895889950224 0.9104865442454124 0.3868692121959334
3 72 73 37 0.9633895889950224 0.9104865442454124 0.3868692121959334
3 72 40 71 0.9633895889950224 0.9104865442454124 0.3868692121959334
3 72 37 40 0.9633895889950224 0.9104865442454124 0.3868692121959334
3 84 85 3 0.9633895889950224 0.9104865442454124 0.3868692121959334
3 84 4 83 0.9633895889950224 0.9104865442454124 0.3868692121959334
3 3 4 84 0.9633895889950224 0.9104865442454124 0.3868692121959334
3 64 65 47 0.9633895889950224 0.9104865442454124 0.3868692121959334
3 47 65 46 0.9633895889950224 0.9104865442454124 0.3868692121959334
3 46 65 66 0.9633895889950224 0.9104865442454124 0.3868692121959334
3 66 45 46 0.9633895889950224 0.9104865442454124 0.3868692121959334
3 44 45 67 0.9633895889950224 0.9104865442454124 0.3868692121959334
3 67 45 66 0.9633895889950224 0.9104865442454124 0.3868692121959334
3 67 43 44 0.9633895889950224 0.9104865442454124 0.3868692121959334
3 67 68 43 0.9633895889950224 0.9104865442454124 0.3868692121959334
3 69 70 42 0.9633895889950224 0.9104865442454124 0.3868692121959334
3 42 68 69 0.9633895889950224 0.9104865442454124 0.3868692121959334
3 52 53 59 0.9633895889950224 0.9104865442454124 0.3868692121959334
3 48 64 47 0.9633895889950224 0.9104865442454124 0.3868692121959334
3 48 49 63 0.9633895889950224 0.9104865442454124 0.3868692121959334
3 63 64 48 0.9633895889950224 0.9104865442454124 0.3868692121959334
3 17 27 28 0.9633895889950224 0.9104865442454124 0.3868692121959334
3 10 76 77 0.9633895889950224 0.9104865442454124 0.3868692121959334
3 13 14 33 0.9633895889950224 0.9104865442454124 0.3868692121959334
3 33 34 13 0.9633895889950224 0.9104865442454124 0.3868692121959334
3 13 35 12 0.9633895889950224 0.9104865442454124 0.3868692121959334
3 13 34 35 0.9633895889950224 0.9104865442454124 0.3868692121959334
3 0 2 86 0.9633895889950224 0.9104865442454124 0.3868692121959334
3 86 2 85 0.9633895889950224 0.9104865442454124 0.3868692121959334
3 5 82 83 0.9633895889950224 0.9104865442454124 0.3868692121959334
3 83 4 5 0.9633895889950224 0.9104865442454124 0.3868692121959334
3 6 80 81 0.9633895889950224 0.9104865442454124 0.3868692121959334
3 81 5 6 0.9633895889950224 0.9104865442454124 0.3868692121959334
3 82 5 81 0.9633895889950224 0.9104865442454124 0.3868692121959334
3 7 80 6 0.9633895889950224 0.9104865442454124 0.3868692121959334
3 7 8 79 0.9633895889950224 0.9104865442454124 0.3868692121959334
3 79 80 7 0.9633895889950224 0.9104865442454124 0.3868692121959334
3 58 53 54 0.9633895889950224 0.9104865442454124 0.3868692121959334
3 58 59 53 0.9633895889950224 0.9104865442454124 0.3868692121959334
3 62 50 61 0.9633895889950224 0.9104865442454124 0.3868692121959334
3 50 51 61 0.9633895889950224 0.9104865442454124 0.3868692121959334
3 29 16 17 0.9633895889950224 0.9104865442454124 0.3868692121959334
3 17 28 29 0.9633895889950224 0.9104865442454124 0.3868692121959334
3 30 16 29 0.9633895889950224 0.9104865442454124 0.3868692121959334
3 25 19 20 0.9633895889950224 0.9104865442454124 0.3868692121959334
3 26 19 25 0.9633895889950224 0.9104865442454124 0.3868692121959334
3 18 27 17 0.9633895889950224 0.9104865442454124 0.3868692121959334
3 18 26 27 0.9633895889950224 0.9104865442454124 0.3868692121959334
3 18 19 26 0.9633895889950224 0.9104865442454124 0.3868692121959334
3 10 77 9 0.9633895889950224 0.9104865442454124 0.3868692121959334
3 79 8 78 0.9633895889950224 0.9104865442454124 0.3868692121959334
3 8 9 78 0.9633895889950224 0.9104865442454124 0.3868692121959334
3 78 9 77 0.9633895889950224 0.9104865442454124 0.3868692121959334
3 75 11 74 0.9633895889950224 0.9104865442454124 0.3868692121959334
3 10 11 75 0.9633895889950224 0.9104865442454124 0.3868692121959334
3 75 76 10 0.9633895889950224 0.9104865442454124 0.3868692121959334
3 57 54 55 0.9633895889950224 0.9104865442454124 0.3868692121959334
3 57 58 54 0.9633895889950224 0.9104865442454124 0.3868692121959334
3 52 59 60 0.9633895889950224 0.9104865442454124 0.3868692121959334
3 60 51 52 0.9633895889950224 0.9104865442454124 0.3868692121959334
3 60 61 51 0.9633895889950224 0.9104865442454124 0.3868692121959334
3 20 21 24 0.9633895889950224 0.9104865442454124 0.3868692121959334
3 24 25 20 0.9633895889950224 0.9104865442454124 0.3868692121959334
3 24 21 22 0.9633895889950224 0.9104865442454124 0.3868692121959334
