OFF
35 29 0


25.8526 31.5752 8.1741
25.8526 31.5752 8.1741
25.7486 31.5038 8.2036
25.6736 31.4506 8.2237
25.599 31.3965 8.2428
25.497 31.3204 8.2674
25.4702 31.204 8.2061
25.4517 31.121 8.1621
25.4335 31.038 8.1177
25.4087 30.9219 8.0551
25.4087 30.9219 8.0551
25.5305 30.9539 7.9843
25.6343 30.9823 7.9248
25.7258 31.0081 7.8728
25.8092 31.0325 7.8261
25.8874 31.056 7.7827
25.9627 31.0794 7.7415
26.0372 31.1032 7.7012
26.1127 31.1282 7.6609
26.1914 31.1551 7.6196
26.2753 31.1848 7.5761
26.3675 31.2187 7.5293
26.4716 31.2585 7.4775
26.5929 31.3069 7.4187
26.5929 31.3069 7.4187
26.5053 31.3526 7.5178
26.4299 31.3882 7.6006
26.3622 31.4175 7.673
26.299 31.4428 7.7392
26.2375 31.4655 7.8022
26.1753 31.4868 7.8649
26.1096 31.5076 7.9298
26.0374 31.5287 7.9999
25.954 31.551 8.0794
25.8526 31.5752 8.1741
3 16 32 15 0.23209338940439406 0.5122620951630454 0.49739999776102495
3 14 3 13 0.23209338940439406 0.5122620951630454 0.49739999776102495
3 13 3 4 0.23209338940439406 0.5122620951630454 0.49739999776102495
3 26 21 22 0.23209338940439406 0.5122620951630454 0.49739999776102495
3 18 19 29 0.23209338940439406 0.5122620951630454 0.49739999776102495
3 33 15 32 0.23209338940439406 0.5122620951630454 0.49739999776102495
3 33 14 15 0.23209338940439406 0.5122620951630454 0.49739999776102495
3 2 33 1 0.23209338940439406 0.5122620951630454 0.49739999776102495
3 3 14 2 0.23209338940439406 0.5122620951630454 0.49739999776102495
3 14 33 2 0.23209338940439406 0.5122620951630454 0.49739999776102495
3 25 22 23 0.23209338940439406 0.5122620951630454 0.49739999776102495
3 25 26 22 0.23209338940439406 0.5122620951630454 0.49739999776102495
3 31 32 16 0.23209338940439406 0.5122620951630454 0.49739999776102495
3 16 17 31 0.23209338940439406 0.5122620951630454 0.49739999776102495
3 30 17 18 0.23209338940439406 0.5122620951630454 0.49739999776102495
3 18 29 30 0.23209338940439406 0.5122620951630454 0.49739999776102495
3 30 31 17 0.23209338940439406 0.5122620951630454 0.49739999776102495
3 28 19 20 0.23209338940439406 0.5122620951630454 0.49739999776102495
3 28 29 19 0.23209338940439406 0.5122620951630454 0.49739999776102495
3 7 8 11 0.23209338940439406 0.5122620951630454 0.49739999776102495
3 11 12 7 0.23209338940439406 0.5122620951630454 0.49739999776102495
3 11 8 9 0.23209338940439406 0.5122620951630454 0.49739999776102495
3 7 12 6 0.23209338940439406 0.5122620951630454 0.49739999776102495
3 6 4 5 0.23209338940439406 0.5122620951630454 0.49739999776102495
3 13 4 6 0.23209338940439406 0.5122620951630454 0.49739999776102495
3 6 12 13 0.23209338940439406 0.5122620951630454 0.49739999776102495
3 27 28 20 0.23209338940439406 0.5122620951630454 0.49739999776102495
3 20 21 27 0.23209338940439406 0.5122620951630454 0.49739999776102495
3 21 26 27 0.23209338940439406 0.5122620951630454 0.49739999776102495
