OFF
317 566 0


28.1506 31.5462 7.8881
28.1506 31.5462 7.8881
28.114 31.6077 7.7691
28.0864 31.6532 7.6813
28.0621 31.6928 7.6051
28.0375 31.7324 7.5291
28.0089 31.778 7.4418
27.9695 31.8398 7.3237
27.9695 31.8398 7.3237
27.9683 31.7577 7.2324
27.967 31.6986 7.1676
27.9654 31.6392 7.1031
27.9628 31.5555 7.0133
27.9628 31.5555 7.0133
28.0042 31.4183 7.0681
28.0363 31.3107 7.1121
28.063 31.2206 7.1497
28.0864 31.1406 7.1839
28.108 31.0661 7.2162
28.1289 30.9934 7.2484
28.1499 30.9194 7.2818
28.1721 30.8404 7.3183
28.1967 30.7519 7.3601
28.2253 30.6469 7.4113
28.261 30.5127 7.4792
28.261 30.5127 7.4792
28.2931 30.4849 7.6098
28.3189 30.4595 7.7168
28.3411 30.4352 7.8103
28.3611 30.4108 7.8964
28.3803 30.3853 7.9801
28.3995 30.3572 8.0655
28.4197 30.3247 8.1572
28.442 30.2848 8.2608
28.4678 30.2329 8.3845
28.4471 30.3595 8.3562
28.4273 30.4712 8.328
28.408 30.5719 8.3
28.3892 30.6643 8.2719
28.3705 30.7508 8.2435
28.3516 30.8333 8.2144
28.3324 30.9133 8.1844
28.3125 30.9926 8.153
28.2916 31.0724 8.1195
28.2692 31.1544 8.0834
28.2447 31.2404 8.0436
28.2176 31.3324 7.9991
28.1866 31.4332 7.948
28.1506 31.5462 7.8881
28.0818 31.6153 7.616
28.1002 31.5417 7.6264
28.1176 31.4714 7.6365
28.0018 31.6117 7.2383
28.0336 31.5317 7.3035
28.0628 31.4575 7.364
28.1025 31.1297 7.2451
28.1178 31.1192 7.3037
28.1323 31.1092 7.3598
28.1394 30.9998 7.2999
28.1495 31.0059 7.3496
28.1592 31.0117 7.3978
28.1026 31.5825 7.6829
28.1179 31.5147 7.6847
28.1324 31.4496 7.6865
28.1462 31.3868 7.6883
28.0368 31.6848 7.4741
28.0625 31.5978 7.5045
28.0864 31.5162 7.5331
28.1087 31.4392 7.5602
28.0598 31.278 7.1854
28.0817 31.2472 7.2545
28.1022 31.218 7.3198
28.1214 31.1902 7.3818
28.1775 30.8635 7.3602
28.1827 30.8858 7.401
28.1877 30.9076 7.441
28.1924 30.9289 7.4801
28.3487 30.472 7.8768
28.336 30.5331 7.8575
28.3229 30.5942 7.8383
28.3095 30.6557 7.8191
28.3841 30.423 8.0299
28.3684 30.4884 7.9947
28.3522 30.5538 7.9596
28.3355 30.6196 7.9245
28.3404 30.8529 8.1676
28.3287 30.8728 8.1202
28.3167 30.8929 8.0721
28.3042 30.9134 8.0231
28.3043 30.9978 8.111
28.2958 31.0031 8.0686
28.2871 31.0084 8.0256
28.2782 31.0138 7.982
28.2646 31.1444 8.0466
28.26 31.1342 8.0096
28.2552 31.124 7.9724
28.2502 31.1135 7.9349
28.0029 31.6631 7.2942
28.0345 31.5759 7.3513
28.0636 31.495 7.4044
28.0903 31.4196 7.454
28.1151 31.3489 7.5006
27.9986 31.4871 7.1057
28.0311 31.4243 7.1906
28.0609 31.3661 7.2692
28.0883 31.3121 7.3423
28.1136 31.2615 7.4107
28.2251 30.6898 7.4417
28.2247 30.7318 7.4715
28.2242 30.7731 7.501
28.2236 30.8137 7.5301
28.2228 30.8536 7.559
28.3099 30.5177 7.7145
28.3007 30.5756 7.7124
28.2913 30.6334 7.7104
28.2816 30.6911 7.7086
28.2717 30.7489 7.7069
28.4233 30.3586 8.2056
28.4042 30.4312 8.1515
28.3847 30.5032 8.0981
28.3645 30.5752 8.0448
28.3435 30.648 7.9913
28.4101 30.5251 8.2689
28.3925 30.5787 8.2102
28.3743 30.6325 8.1515
28.3554 30.6867 8.0923
28.3357 30.7418 8.0323
28.375 30.6993 8.2196
28.3605 30.7346 8.167
28.3454 30.7703 8.1138
28.3297 30.8065 8.0598
28.3133 30.8435 8.0047
28.218 31.3039 7.9686
28.2183 31.2754 7.9384
28.2185 31.247 7.9085
28.2186 31.2187 7.8786
28.2186 31.1903 7.8489
28.1586 31.4919 7.8671
28.1663 31.439 7.8467
28.1736 31.3872 7.8269
28.1806 31.3364 7.8077
28.1873 31.2866 7.7889
28.1586 31.4919 7.8671
28.1663 31.439 7.8467
28.1736 31.3872 7.8269
28.1806 31.3364 7.8077
28.1873 31.2866 7.7889
28.1937 31.2375 7.7706
28.1212 31.0641 7.2725
28.1338 31.0621 7.3265
28.1458 31.0602 7.3787
28.1573 31.0583 7.429
28.1683 31.0564 7.4777
28.1789 31.0545 7.5249
28.2863 30.5421 7.6183
28.2794 30.5987 7.6268
28.2724 30.6548 7.6355
28.2651 30.7106 7.6443
28.2577 30.7662 7.6532
28.2501 30.8218 7.6624
28.4282 30.4254 8.2926
28.4089 30.4903 8.2302
28.3891 30.5548 8.1684
28.3686 30.6195 8.1065
28.3471 30.685 8.044
28.3245 30.7517 7.9804
28.0609 31.6478 7.5497
28.0826 31.5681 7.5692
28.103 31.4926 7.5878
28.1221 31.4208 7.6056
28.1401 31.3523 7.6227
28.1571 31.2867 7.6393
28.1732 31.2236 7.6553
28.0006 31.56 7.1827
28.0326 31.4872 7.2561
28.062 31.4196 7.3241
28.0891 31.3567 7.3876
28.1142 31.2977 7.4471
28.1375 31.2422 7.5032
28.1593 31.1898 7.5562
28.0824 31.1997 7.2166
28.1007 31.1798 7.28
28.118 31.1609 7.3405
28.1344 31.1427 7.3983
28.1499 31.1253 7.4536
28.1646 31.1086 7.5067
28.1787 31.0924 7.5578
28.1994 30.7842 7.3967
28.2019 30.8156 7.4325
28.2043 30.8464 7.4677
28.2066 30.8765 7.5023
28.2087 30.9061 7.5363
28.2106 30.9351 7.57
28.2125 30.9637 7.6032
28.3664 30.4485 7.9526
28.3521 30.5115 7.9254
28.3375 30.5747 7.8983
28.3224 30.6382 7.8712
28.3068 30.7025 7.844
28.2906 30.7678 7.8165
28.2736 30.8345 7.7886
28.3578 30.7779 8.194
28.3446 30.8053 8.1441
28.331 30.833 8.0935
28.317 30.8611 8.042
28.3023 30.8899 7.9893
28.2869 30.9193 7.9354
28.2709 30.9496 7.8799
28.2851 31.0703 8.0801
28.2784 31.0681 8.0402
28.2716 31.0658 8.0
28.2645 31.0634 7.9593
28.2573 31.0609 7.9181
28.2498 31.0583 7.8762
28.2421 31.0557 7.8337
28.1904 31.393 7.9217
28.194 31.3534 7.8959
28.1974 31.3142 7.8705
28.2006 31.2754 7.8455
28.2037 31.2369 7.8208
28.2067 31.1987 7.7964
28.2095 31.1606 7.7722
28.0042 31.7342 7.3732
28.0357 31.637 7.4189
28.0646 31.5468 7.4615
28.0912 31.4628 7.5013
28.1159 31.384 7.5388
28.1388 31.3097 7.5742
28.1602 31.2394 7.6079
28.1803 31.1724 7.6402
28.1579 30.934 7.3286
28.1656 30.948 7.374
28.1729 30.9617 7.4182
28.18 30.9749 7.4613
28.1867 30.9877 7.5034
28.1933 31.0001 7.5445
28.1996 31.0123 7.5847
28.2056 31.0241 7.6242
28.3302 30.4948 7.7989
28.3191 30.5541 7.7877
28.3078 30.6135 7.7767
28.2961 30.6731 7.7658
28.2841 30.7331 7.755
28.2717 30.7937 7.7442
28.2589 30.8551 7.7334
28.2456 30.9176 7.7227
28.4469 30.3137 8.3155
28.4258 30.3923 8.2487
28.4042 30.4694 8.1834
28.3819 30.5461 8.1186
28.3587 30.6231 8.0538
28.3343 30.7014 7.9882
28.3084 30.7818 7.921
28.2805 30.8653 7.8514
28.3924 30.6157 8.2446
28.3764 30.6596 8.1891
28.3597 30.7038 8.1332
28.3425 30.7487 8.0767
28.3244 30.7943 8.019
28.3055 30.8411 7.96
28.2855 30.8894 7.8992
28.2642 30.9395 7.8361
28.2425 31.2217 8.0098
28.2401 31.2029 7.9759
28.2376 31.184 7.9421
28.235 31.165 7.9082
28.2323 31.1459 7.8742
28.2296 31.1265 7.84
28.2266 31.107 7.8056
28.2236 31.0872 7.771
28.0328 31.3705 7.1495
28.0592 31.326 7.2255
28.0837 31.2843 7.2967
28.1065 31.2451 7.3636
28.1278 31.2079 7.4269
28.1478 31.1727 7.4868
28.1667 31.1392 7.5439
28.1844 31.1072 7.5985
28.2012 31.0765 7.6507
28.2573 30.5692 7.5017
28.2535 30.6246 7.524
28.2495 30.679 7.5462
28.2454 30.7327 7.5682
28.2412 30.7858 7.5901
28.2367 30.8384 7.6121
28.2321 30.8907 7.6341
28.2274 30.9428 7.6562
28.2224 30.9948 7.6784
28.4028 30.3938 8.1126
28.3855 30.4622 8.0687
28.3677 30.5305 8.025
28.3493 30.5991 7.9814
28.3302 30.6685 7.9374
28.3102 30.7392 7.8928
28.2891 30.8117 7.8473
28.2667 30.8867 7.8004
28.2429 30.9649 7.7518
28.3226 30.9258 8.14
28.3125 30.9384 8.0951
28.3021 30.9511 8.0495
28.2913 30.964 8.0031
28.2802 30.9771 7.9559
28.2686 30.9904 7.9076
28.2566 31.004 7.8581
28.244 31.018 7.8073
28.2309 31.0322 7.755
28.1265 31.5443 7.7607
28.1384 31.483 7.7528
28.1498 31.4236 7.7453
28.1606 31.366 7.7381
28.171 31.3099 7.7312
28.1809 31.2552 7.7246
28.1905 31.2016 7.7184
28.1997 31.1492 7.7123
28.2086 31.0977 7.7065
28.2172 31.0469 7.7009
28.2172 31.0469 7.7009
3 246 33 34 0.08329465125881053 0.3394791874644759 0.38275886134165227
3 33 246 117 0.08329465125881053 0.3394791874644759 0.38275886134165227
3 35 246 34 0.08329465125881053 0.3394791874644759 0.38275886134165227
3 112 27 238 0.08329465125881053 0.3394791874644759 0.38275886134165227
3 247 117 246 0.08329465125881053 0.3394791874644759 0.38275886134165227
3 247 35 160 0.08329465125881053 0.3394791874644759 0.38275886134165227
3 246 35 247 0.08329465125881053 0.3394791874644759 0.38275886134165227
3 288 117 118 0.08329465125881053 0.3394791874644759 0.38275886134165227
3 118 289 288 0.08329465125881053 0.3394791874644759 0.38275886134165227
3 118 247 248 0.08329465125881053 0.3394791874644759 0.38275886134165227
3 117 247 118 0.08329465125881053 0.3394791874644759 0.38275886134165227
3 33 117 32 0.08329465125881053 0.3394791874644759 0.38275886134165227
3 288 31 32 0.08329465125881053 0.3394791874644759 0.38275886134165227
3 32 117 288 0.08329465125881053 0.3394791874644759 0.38275886134165227
3 82 289 290 0.08329465125881053 0.3394791874644759 0.38275886134165227
3 290 249 120 0.08329465125881053 0.3394791874644759 0.38275886134165227
3 195 194 82 0.08329465125881053 0.3394791874644759 0.38275886134165227
3 97 9 10 0.08329465125881053 0.3394791874644759 0.38275886134165227
3 73 20 21 0.08329465125881053 0.3394791874644759 0.38275886134165227
3 26 27 112 0.08329465125881053 0.3394791874644759 0.38275886134165227
3 112 238 239 0.08329465125881053 0.3394791874644759 0.38275886134165227
3 187 21 22 0.08329465125881053 0.3394791874644759 0.38275886134165227
3 188 73 187 0.08329465125881053 0.3394791874644759 0.38275886134165227
3 187 73 21 0.08329465125881053 0.3394791874644759 0.38275886134165227
3 24 279 23 0.08329465125881053 0.3394791874644759 0.38275886134165227
3 23 107 22 0.08329465125881053 0.3394791874644759 0.38275886134165227
3 285 244 245 0.08329465125881053 0.3394791874644759 0.38275886134165227
3 108 107 281 0.08329465125881053 0.3394791874644759 0.38275886134165227
3 22 107 108 0.08329465125881053 0.3394791874644759 0.38275886134165227
3 108 187 22 0.08329465125881053 0.3394791874644759 0.38275886134165227
3 116 115 242 0.08329465125881053 0.3394791874644759 0.38275886134165227
3 159 244 285 0.08329465125881053 0.3394791874644759 0.38275886134165227
3 28 238 27 0.08329465125881053 0.3394791874644759 0.38275886134165227
3 81 31 288 0.08329465125881053 0.3394791874644759 0.38275886134165227
3 288 289 81 0.08329465125881053 0.3394791874644759 0.38275886134165227
3 82 194 81 0.08329465125881053 0.3394791874644759 0.38275886134165227
3 81 289 82 0.08329465125881053 0.3394791874644759 0.38275886134165227
3 119 118 248 0.08329465125881053 0.3394791874644759 0.38275886134165227
3 289 118 119 0.08329465125881053 0.3394791874644759 0.38275886134165227
3 249 290 119 0.08329465125881053 0.3394791874644759 0.38275886134165227
3 119 290 289 0.08329465125881053 0.3394791874644759 0.38275886134165227
3 303 207 302 0.08329465125881053 0.3394791874644759 0.38275886134165227
3 136 221 267 0.08329465125881053 0.3394791874644759 0.38275886134165227
3 120 249 163 0.08329465125881053 0.3394791874644759 0.38275886134165227
3 49 166 167 0.08329465125881053 0.3394791874644759 0.38275886134165227
3 3 4 49 0.08329465125881053 0.3394791874644759 0.38275886134165227
3 49 4 166 0.08329465125881053 0.3394791874644759 0.38275886134165227
3 167 166 66 0.08329465125881053 0.3394791874644759 0.38275886134165227
3 166 65 66 0.08329465125881053 0.3394791874644759 0.38275886134165227
3 52 97 10 0.08329465125881053 0.3394791874644759 0.38275886134165227
3 98 97 52 0.08329465125881053 0.3394791874644759 0.38275886134165227
3 2 306 0 0.08329465125881053 0.3394791874644759 0.38275886134165227
3 99 100 225 0.08329465125881053 0.3394791874644759 0.38275886134165227
3 69 15 16 0.08329465125881053 0.3394791874644759 0.38275886134165227
3 69 16 180 0.08329465125881053 0.3394791874644759 0.38275886134165227
3 180 17 55 0.08329465125881053 0.3394791874644759 0.38275886134165227
3 180 16 17 0.08329465125881053 0.3394791874644759 0.38275886134165227
3 285 191 111 0.08329465125881053 0.3394791874644759 0.38275886134165227
3 19 20 58 0.08329465125881053 0.3394791874644759 0.38275886134165227
3 58 148 19 0.08329465125881053 0.3394791874644759 0.38275886134165227
3 149 148 58 0.08329465125881053 0.3394791874644759 0.38275886134165227
3 112 239 113 0.08329465125881053 0.3394791874644759 0.38275886134165227
3 114 155 113 0.08329465125881053 0.3394791874644759 0.38275886134165227
3 240 239 79 0.08329465125881053 0.3394791874644759 0.38275886134165227
3 79 80 240 0.08329465125881053 0.3394791874644759 0.38275886134165227
3 114 113 240 0.08329465125881053 0.3394791874644759 0.38275886134165227
3 240 113 239 0.08329465125881053 0.3394791874644759 0.38275886134165227
3 279 155 280 0.08329465125881053 0.3394791874644759 0.38275886134165227
3 280 23 279 0.08329465125881053 0.3394791874644759 0.38275886134165227
3 281 107 280 0.08329465125881053 0.3394791874644759 0.38275886134165227
3 107 23 280 0.08329465125881053 0.3394791874644759 0.38275886134165227
3 114 115 156 0.08329465125881053 0.3394791874644759 0.38275886134165227
3 156 155 114 0.08329465125881053 0.3394791874644759 0.38275886134165227
3 281 280 156 0.08329465125881053 0.3394791874644759 0.38275886134165227
3 156 280 155 0.08329465125881053 0.3394791874644759 0.38275886134165227
3 154 155 279 0.08329465125881053 0.3394791874644759 0.38275886134165227
3 154 279 24 0.08329465125881053 0.3394791874644759 0.38275886134165227
3 24 26 154 0.08329465125881053 0.3394791874644759 0.38275886134165227
3 154 26 112 0.08329465125881053 0.3394791874644759 0.38275886134165227
3 112 113 154 0.08329465125881053 0.3394791874644759 0.38275886134165227
3 154 113 155 0.08329465125881053 0.3394791874644759 0.38275886134165227
3 242 198 199 0.08329465125881053 0.3394791874644759 0.38275886134165227
3 285 245 286 0.08329465125881053 0.3394791874644759 0.38275886134165227
3 287 193 286 0.08329465125881053 0.3394791874644759 0.38275886134165227
3 305 287 296 0.08329465125881053 0.3394791874644759 0.38275886134165227
3 287 286 296 0.08329465125881053 0.3394791874644759 0.38275886134165227
3 296 286 245 0.08329465125881053 0.3394791874644759 0.38275886134165227
3 282 108 281 0.08329465125881053 0.3394791874644759 0.38275886134165227
3 244 159 243 0.08329465125881053 0.3394791874644759 0.38275886134165227
3 243 200 244 0.08329465125881053 0.3394791874644759 0.38275886134165227
3 243 116 242 0.08329465125881053 0.3394791874644759 0.38275886134165227
3 242 199 243 0.08329465125881053 0.3394791874644759 0.38275886134165227
3 243 199 200 0.08329465125881053 0.3394791874644759 0.38275886134165227
3 238 28 77 0.08329465125881053 0.3394791874644759 0.38275886134165227
3 77 28 29 0.08329465125881053 0.3394791874644759 0.38275886134165227
3 29 194 77 0.08329465125881053 0.3394791874644759 0.38275886134165227
3 194 195 77 0.08329465125881053 0.3394791874644759 0.38275886134165227
3 161 247 160 0.08329465125881053 0.3394791874644759 0.38275886134165227
3 248 247 161 0.08329465125881053 0.3394791874644759 0.38275886134165227
3 37 122 36 0.08329465125881053 0.3394791874644759 0.38275886134165227
3 160 35 36 0.08329465125881053 0.3394791874644759 0.38275886134165227
3 36 161 160 0.08329465125881053 0.3394791874644759 0.38275886134165227
3 122 161 36 0.08329465125881053 0.3394791874644759 0.38275886134165227
3 254 37 38 0.08329465125881053 0.3394791874644759 0.38275886134165227
3 31 81 30 0.08329465125881053 0.3394791874644759 0.38275886134165227
3 30 194 29 0.08329465125881053 0.3394791874644759 0.38275886134165227
3 30 81 194 0.08329465125881053 0.3394791874644759 0.38275886134165227
3 206 207 260 0.08329465125881053 0.3394791874644759 0.38275886134165227
3 299 91 300 0.08329465125881053 0.3394791874644759 0.38275886134165227
3 91 299 90 0.08329465125881053 0.3394791874644759 0.38275886134165227
3 90 209 91 0.08329465125881053 0.3394791874644759 0.38275886134165227
3 301 206 300 0.08329465125881053 0.3394791874644759 0.38275886134165227
3 301 302 207 0.08329465125881053 0.3394791874644759 0.38275886134165227
3 207 206 301 0.08329465125881053 0.3394791874644759 0.38275886134165227
3 309 310 140 0.08329465125881053 0.3394791874644759 0.38275886134165227
3 264 263 134 0.08329465125881053 0.3394791874644759 0.38275886134165227
3 315 287 305 0.08329465125881053 0.3394791874644759 0.38275886134165227
3 303 302 213 0.08329465125881053 0.3394791874644759 0.38275886134165227
3 267 213 96 0.08329465125881053 0.3394791874644759 0.38275886134165227
3 136 267 266 0.08329465125881053 0.3394791874644759 0.38275886134165227
3 267 96 266 0.08329465125881053 0.3394791874644759 0.38275886134165227
3 43 44 208 0.08329465125881053 0.3394791874644759 0.38275886134165227
3 209 90 208 0.08329465125881053 0.3394791874644759 0.38275886134165227
3 291 196 83 0.08329465125881053 0.3394791874644759 0.38275886134165227
3 83 196 195 0.08329465125881053 0.3394791874644759 0.38275886134165227
3 120 291 83 0.08329465125881053 0.3394791874644759 0.38275886134165227
3 83 290 120 0.08329465125881053 0.3394791874644759 0.38275886134165227
3 82 290 83 0.08329465125881053 0.3394791874644759 0.38275886134165227
3 83 195 82 0.08329465125881053 0.3394791874644759 0.38275886134165227
3 78 239 238 0.08329465125881053 0.3394791874644759 0.38275886134165227
3 238 77 78 0.08329465125881053 0.3394791874644759 0.38275886134165227
3 79 239 78 0.08329465125881053 0.3394791874644759 0.38275886134165227
3 78 196 79 0.08329465125881053 0.3394791874644759 0.38275886134165227
3 195 196 78 0.08329465125881053 0.3394791874644759 0.38275886134165227
3 78 77 195 0.08329465125881053 0.3394791874644759 0.38275886134165227
3 241 115 114 0.08329465125881053 0.3394791874644759 0.38275886134165227
3 114 240 241 0.08329465125881053 0.3394791874644759 0.38275886134165227
3 241 240 80 0.08329465125881053 0.3394791874644759 0.38275886134165227
3 242 115 241 0.08329465125881053 0.3394791874644759 0.38275886134165227
3 241 198 242 0.08329465125881053 0.3394791874644759 0.38275886134165227
3 241 80 198 0.08329465125881053 0.3394791874644759 0.38275886134165227
3 201 39 40 0.08329465125881053 0.3394791874644759 0.38275886134165227
3 251 292 121 0.08329465125881053 0.3394791874644759 0.38275886134165227
3 251 121 164 0.08329465125881053 0.3394791874644759 0.38275886134165227
3 222 65 6 0.08329465125881053 0.3394791874644759 0.38275886134165227
3 9 97 222 0.08329465125881053 0.3394791874644759 0.38275886134165227
3 222 6 7 0.08329465125881053 0.3394791874644759 0.38275886134165227
3 7 9 222 0.08329465125881053 0.3394791874644759 0.38275886134165227
3 6 65 5 0.08329465125881053 0.3394791874644759 0.38275886134165227
3 166 4 5 0.08329465125881053 0.3394791874644759 0.38275886134165227
3 5 65 166 0.08329465125881053 0.3394791874644759 0.38275886134165227
3 223 66 65 0.08329465125881053 0.3394791874644759 0.38275886134165227
3 223 97 98 0.08329465125881053 0.3394791874644759 0.38275886134165227
3 223 222 97 0.08329465125881053 0.3394791874644759 0.38275886134165227
3 65 222 223 0.08329465125881053 0.3394791874644759 0.38275886134165227
3 11 52 10 0.08329465125881053 0.3394791874644759 0.38275886134165227
3 53 99 98 0.08329465125881053 0.3394791874644759 0.38275886134165227
3 98 52 53 0.08329465125881053 0.3394791874644759 0.38275886134165227
3 216 46 215 0.08329465125881053 0.3394791874644759 0.38275886134165227
3 215 46 47 0.08329465125881053 0.3394791874644759 0.38275886134165227
3 47 143 215 0.08329465125881053 0.3394791874644759 0.38275886134165227
3 50 49 167 0.08329465125881053 0.3394791874644759 0.38275886134165227
3 63 62 51 0.08329465125881053 0.3394791874644759 0.38275886134165227
3 62 50 51 0.08329465125881053 0.3394791874644759 0.38275886134165227
3 64 310 309 0.08329465125881053 0.3394791874644759 0.38275886134165227
3 170 310 64 0.08329465125881053 0.3394791874644759 0.38275886134165227
3 137 47 0 0.08329465125881053 0.3394791874644759 0.38275886134165227
3 137 143 47 0.08329465125881053 0.3394791874644759 0.38275886134165227
3 0 306 137 0.08329465125881053 0.3394791874644759 0.38275886134165227
3 63 64 308 0.08329465125881053 0.3394791874644759 0.38275886134165227
3 308 64 309 0.08329465125881053 0.3394791874644759 0.38275886134165227
3 226 100 101 0.08329465125881053 0.3394791874644759 0.38275886134165227
3 68 225 226 0.08329465125881053 0.3394791874644759 0.38275886134165227
3 226 225 100 0.08329465125881053 0.3394791874644759 0.38275886134165227
3 101 100 176 0.08329465125881053 0.3394791874644759 0.38275886134165227
3 99 225 224 0.08329465125881053 0.3394791874644759 0.38275886134165227
3 98 99 224 0.08329465125881053 0.3394791874644759 0.38275886134165227
3 224 223 98 0.08329465125881053 0.3394791874644759 0.38275886134165227
3 66 223 224 0.08329465125881053 0.3394791874644759 0.38275886134165227
3 55 17 18 0.08329465125881053 0.3394791874644759 0.38275886134165227
3 18 148 55 0.08329465125881053 0.3394791874644759 0.38275886134165227
3 19 148 18 0.08329465125881053 0.3394791874644759 0.38275886134165227
3 186 185 153 0.08329465125881053 0.3394791874644759 0.38275886134165227
3 177 178 101 0.08329465125881053 0.3394791874644759 0.38275886134165227
3 101 176 177 0.08329465125881053 0.3394791874644759 0.38275886134165227
3 101 178 227 0.08329465125881053 0.3394791874644759 0.38275886134165227
3 227 226 101 0.08329465125881053 0.3394791874644759 0.38275886134165227
3 170 226 227 0.08329465125881053 0.3394791874644759 0.38275886134165227
3 227 178 228 0.08329465125881053 0.3394791874644759 0.38275886134165227
3 55 148 56 0.08329465125881053 0.3394791874644759 0.38275886134165227
3 56 148 149 0.08329465125881053 0.3394791874644759 0.38275886134165227
3 109 282 283 0.08329465125881053 0.3394791874644759 0.38275886134165227
3 108 282 109 0.08329465125881053 0.3394791874644759 0.38275886134165227
3 109 189 188 0.08329465125881053 0.3394791874644759 0.38275886134165227
3 188 187 109 0.08329465125881053 0.3394791874644759 0.38275886134165227
3 187 108 109 0.08329465125881053 0.3394791874644759 0.38275886134165227
3 284 159 285 0.08329465125881053 0.3394791874644759 0.38275886134165227
3 285 111 284 0.08329465125881053 0.3394791874644759 0.38275886134165227
3 283 159 284 0.08329465125881053 0.3394791874644759 0.38275886134165227
3 284 111 283 0.08329465125881053 0.3394791874644759 0.38275886134165227
3 190 111 191 0.08329465125881053 0.3394791874644759 0.38275886134165227
3 192 191 285 0.08329465125881053 0.3394791874644759 0.38275886134165227
3 285 286 192 0.08329465125881053 0.3394791874644759 0.38275886134165227
3 192 286 193 0.08329465125881053 0.3394791874644759 0.38275886134165227
3 149 58 59 0.08329465125881053 0.3394791874644759 0.38275886134165227
3 20 73 230 0.08329465125881053 0.3394791874644759 0.38275886134165227
3 230 58 20 0.08329465125881053 0.3394791874644759 0.38275886134165227
3 230 59 58 0.08329465125881053 0.3394791874644759 0.38275886134165227
3 231 59 230 0.08329465125881053 0.3394791874644759 0.38275886134165227
3 189 190 75 0.08329465125881053 0.3394791874644759 0.38275886134165227
3 115 116 157 0.08329465125881053 0.3394791874644759 0.38275886134165227
3 157 156 115 0.08329465125881053 0.3394791874644759 0.38275886134165227
3 281 156 157 0.08329465125881053 0.3394791874644759 0.38275886134165227
3 157 282 281 0.08329465125881053 0.3394791874644759 0.38275886134165227
3 305 296 304 0.08329465125881053 0.3394791874644759 0.38275886134165227
3 162 161 122 0.08329465125881053 0.3394791874644759 0.38275886134165227
3 248 161 162 0.08329465125881053 0.3394791874644759 0.38275886134165227
3 162 119 248 0.08329465125881053 0.3394791874644759 0.38275886134165227
3 249 119 162 0.08329465125881053 0.3394791874644759 0.38275886134165227
3 162 163 249 0.08329465125881053 0.3394791874644759 0.38275886134165227
3 124 163 162 0.08329465125881053 0.3394791874644759 0.38275886134165227
3 260 253 259 0.08329465125881053 0.3394791874644759 0.38275886134165227
3 88 299 300 0.08329465125881053 0.3394791874644759 0.38275886134165227
3 300 206 88 0.08329465125881053 0.3394791874644759 0.38275886134165227
3 42 43 89 0.08329465125881053 0.3394791874644759 0.38275886134165227
3 89 90 299 0.08329465125881053 0.3394791874644759 0.38275886134165227
3 43 208 89 0.08329465125881053 0.3394791874644759 0.38275886134165227
3 89 208 90 0.08329465125881053 0.3394791874644759 0.38275886134165227
3 300 91 92 0.08329465125881053 0.3394791874644759 0.38275886134165227
3 92 301 300 0.08329465125881053 0.3394791874644759 0.38275886134165227
3 302 301 92 0.08329465125881053 0.3394791874644759 0.38275886134165227
3 216 140 217 0.08329465125881053 0.3394791874644759 0.38275886134165227
3 217 140 218 0.08329465125881053 0.3394791874644759 0.38275886134165227
3 218 134 217 0.08329465125881053 0.3394791874644759 0.38275886134165227
3 139 140 216 0.08329465125881053 0.3394791874644759 0.38275886134165227
3 216 215 139 0.08329465125881053 0.3394791874644759 0.38275886134165227
3 139 215 143 0.08329465125881053 0.3394791874644759 0.38275886134165227
3 309 140 139 0.08329465125881053 0.3394791874644759 0.38275886134165227
3 139 308 309 0.08329465125881053 0.3394791874644759 0.38275886134165227
3 143 308 139 0.08329465125881053 0.3394791874644759 0.38275886134165227
3 146 140 310 0.08329465125881053 0.3394791874644759 0.38275886134165227
3 311 147 146 0.08329465125881053 0.3394791874644759 0.38275886134165227
3 146 310 311 0.08329465125881053 0.3394791874644759 0.38275886134165227
3 218 140 146 0.08329465125881053 0.3394791874644759 0.38275886134165227
3 146 219 218 0.08329465125881053 0.3394791874644759 0.38275886134165227
3 147 219 146 0.08329465125881053 0.3394791874644759 0.38275886134165227
3 262 44 45 0.08329465125881053 0.3394791874644759 0.38275886134165227
3 228 229 172 0.08329465125881053 0.3394791874644759 0.38275886134165227
3 211 96 212 0.08329465125881053 0.3394791874644759 0.38275886134165227
3 212 96 213 0.08329465125881053 0.3394791874644759 0.38275886134165227
3 212 213 302 0.08329465125881053 0.3394791874644759 0.38275886134165227
3 212 92 211 0.08329465125881053 0.3394791874644759 0.38275886134165227
3 302 92 212 0.08329465125881053 0.3394791874644759 0.38275886134165227
3 94 263 264 0.08329465125881053 0.3394791874644759 0.38275886134165227
3 136 266 265 0.08329465125881053 0.3394791874644759 0.38275886134165227
3 265 266 96 0.08329465125881053 0.3394791874644759 0.38275886134165227
3 93 208 44 0.08329465125881053 0.3394791874644759 0.38275886134165227
3 209 208 93 0.08329465125881053 0.3394791874644759 0.38275886134165227
3 93 94 209 0.08329465125881053 0.3394791874644759 0.38275886134165227
3 44 262 93 0.08329465125881053 0.3394791874644759 0.38275886134165227
3 93 262 263 0.08329465125881053 0.3394791874644759 0.38275886134165227
3 263 94 93 0.08329465125881053 0.3394791874644759 0.38275886134165227
3 198 80 197 0.08329465125881053 0.3394791874644759 0.38275886134165227
3 197 292 198 0.08329465125881053 0.3394791874644759 0.38275886134165227
3 197 80 79 0.08329465125881053 0.3394791874644759 0.38275886134165227
3 79 196 197 0.08329465125881053 0.3394791874644759 0.38275886134165227
3 130 203 204 0.08329465125881053 0.3394791874644759 0.38275886134165227
3 129 203 130 0.08329465125881053 0.3394791874644759 0.38275886134165227
3 202 201 40 0.08329465125881053 0.3394791874644759 0.38275886134165227
3 202 203 129 0.08329465125881053 0.3394791874644759 0.38275886134165227
3 129 201 202 0.08329465125881053 0.3394791874644759 0.38275886134165227
3 128 201 129 0.08329465125881053 0.3394791874644759 0.38275886134165227
3 39 201 128 0.08329465125881053 0.3394791874644759 0.38275886134165227
3 251 164 126 0.08329465125881053 0.3394791874644759 0.38275886134165227
3 250 164 121 0.08329465125881053 0.3394791874644759 0.38275886134165227
3 120 163 250 0.08329465125881053 0.3394791874644759 0.38275886134165227
3 250 291 120 0.08329465125881053 0.3394791874644759 0.38275886134165227
3 250 121 291 0.08329465125881053 0.3394791874644759 0.38275886134165227
3 67 224 225 0.08329465125881053 0.3394791874644759 0.38275886134165227
3 167 66 67 0.08329465125881053 0.3394791874644759 0.38275886134165227
3 66 224 67 0.08329465125881053 0.3394791874644759 0.38275886134165227
3 3 49 61 0.08329465125881053 0.3394791874644759 0.38275886134165227
3 49 50 61 0.08329465125881053 0.3394791874644759 0.38275886134165227
3 61 2 3 0.08329465125881053 0.3394791874644759 0.38275886134165227
3 61 50 62 0.08329465125881053 0.3394791874644759 0.38275886134165227
3 306 2 61 0.08329465125881053 0.3394791874644759 0.38275886134165227
3 61 62 306 0.08329465125881053 0.3394791874644759 0.38275886134165227
3 169 51 68 0.08329465125881053 0.3394791874644759 0.38275886134165227
3 68 226 169 0.08329465125881053 0.3394791874644759 0.38275886134165227
3 169 226 170 0.08329465125881053 0.3394791874644759 0.38275886134165227
3 170 64 169 0.08329465125881053 0.3394791874644759 0.38275886134165227
3 63 51 169 0.08329465125881053 0.3394791874644759 0.38275886134165227
3 169 64 63 0.08329465125881053 0.3394791874644759 0.38275886134165227
3 63 308 307 0.08329465125881053 0.3394791874644759 0.38275886134165227
3 307 62 63 0.08329465125881053 0.3394791874644759 0.38275886134165227
3 306 62 307 0.08329465125881053 0.3394791874644759 0.38275886134165227
3 307 137 306 0.08329465125881053 0.3394791874644759 0.38275886134165227
3 143 137 307 0.08329465125881053 0.3394791874644759 0.38275886134165227
3 307 308 143 0.08329465125881053 0.3394791874644759 0.38275886134165227
3 272 71 273 0.08329465125881053 0.3394791874644759 0.38275886134165227
3 54 100 99 0.08329465125881053 0.3394791874644759 0.38275886134165227
3 54 176 100 0.08329465125881053 0.3394791874644759 0.38275886134165227
3 99 53 54 0.08329465125881053 0.3394791874644759 0.38275886134165227
3 54 53 174 0.08329465125881053 0.3394791874644759 0.38275886134165227
3 228 178 179 0.08329465125881053 0.3394791874644759 0.38275886134165227
3 179 229 228 0.08329465125881053 0.3394791874644759 0.38275886134165227
3 152 153 185 0.08329465125881053 0.3394791874644759 0.38275886134165227
3 184 151 152 0.08329465125881053 0.3394791874644759 0.38275886134165227
3 152 185 184 0.08329465125881053 0.3394791874644759 0.38275886134165227
3 171 227 228 0.08329465125881053 0.3394791874644759 0.38275886134165227
3 170 227 171 0.08329465125881053 0.3394791874644759 0.38275886134165227
3 171 310 170 0.08329465125881053 0.3394791874644759 0.38275886134165227
3 228 172 171 0.08329465125881053 0.3394791874644759 0.38275886134165227
3 311 310 171 0.08329465125881053 0.3394791874644759 0.38275886134165227
3 171 172 311 0.08329465125881053 0.3394791874644759 0.38275886134165227
3 178 177 106 0.08329465125881053 0.3394791874644759 0.38275886134165227
3 106 274 178 0.08329465125881053 0.3394791874644759 0.38275886134165227
3 273 274 106 0.08329465125881053 0.3394791874644759 0.38275886134165227
3 182 71 181 0.08329465125881053 0.3394791874644759 0.38275886134165227
3 55 56 181 0.08329465125881053 0.3394791874644759 0.38275886134165227
3 181 56 182 0.08329465125881053 0.3394791874644759 0.38275886134165227
3 181 180 55 0.08329465125881053 0.3394791874644759 0.38275886134165227
3 182 183 72 0.08329465125881053 0.3394791874644759 0.38275886134165227
3 72 183 274 0.08329465125881053 0.3394791874644759 0.38275886134165227
3 72 274 273 0.08329465125881053 0.3394791874644759 0.38275886134165227
3 273 71 72 0.08329465125881053 0.3394791874644759 0.38275886134165227
3 72 71 182 0.08329465125881053 0.3394791874644759 0.38275886134165227
3 182 56 57 0.08329465125881053 0.3394791874644759 0.38275886134165227
3 57 183 182 0.08329465125881053 0.3394791874644759 0.38275886134165227
3 57 56 149 0.08329465125881053 0.3394791874644759 0.38275886134165227
3 57 151 184 0.08329465125881053 0.3394791874644759 0.38275886134165227
3 184 183 57 0.08329465125881053 0.3394791874644759 0.38275886134165227
3 189 109 110 0.08329465125881053 0.3394791874644759 0.38275886134165227
3 110 190 189 0.08329465125881053 0.3394791874644759 0.38275886134165227
3 111 190 110 0.08329465125881053 0.3394791874644759 0.38275886134165227
3 283 111 110 0.08329465125881053 0.3394791874644759 0.38275886134165227
3 110 109 283 0.08329465125881053 0.3394791874644759 0.38275886134165227
3 149 59 150 0.08329465125881053 0.3394791874644759 0.38275886134165227
3 150 57 149 0.08329465125881053 0.3394791874644759 0.38275886134165227
3 151 57 150 0.08329465125881053 0.3394791874644759 0.38275886134165227
3 74 75 231 0.08329465125881053 0.3394791874644759 0.38275886134165227
3 74 230 73 0.08329465125881053 0.3394791874644759 0.38275886134165227
3 231 230 74 0.08329465125881053 0.3394791874644759 0.38275886134165227
3 189 75 74 0.08329465125881053 0.3394791874644759 0.38275886134165227
3 74 73 188 0.08329465125881053 0.3394791874644759 0.38275886134165227
3 188 189 74 0.08329465125881053 0.3394791874644759 0.38275886134165227
3 231 75 232 0.08329465125881053 0.3394791874644759 0.38275886134165227
3 191 192 76 0.08329465125881053 0.3394791874644759 0.38275886134165227
3 233 232 76 0.08329465125881053 0.3394791874644759 0.38275886134165227
3 76 232 75 0.08329465125881053 0.3394791874644759 0.38275886134165227
3 76 190 191 0.08329465125881053 0.3394791874644759 0.38275886134165227
3 76 75 190 0.08329465125881053 0.3394791874644759 0.38275886134165227
3 158 157 116 0.08329465125881053 0.3394791874644759 0.38275886134165227
3 158 159 283 0.08329465125881053 0.3394791874644759 0.38275886134165227
3 283 282 158 0.08329465125881053 0.3394791874644759 0.38275886134165227
3 282 157 158 0.08329465125881053 0.3394791874644759 0.38275886134165227
3 116 243 158 0.08329465125881053 0.3394791874644759 0.38275886134165227
3 158 243 159 0.08329465125881053 0.3394791874644759 0.38275886134165227
3 261 207 303 0.08329465125881053 0.3394791874644759 0.38275886134165227
3 260 207 261 0.08329465125881053 0.3394791874644759 0.38275886134165227
3 261 253 260 0.08329465125881053 0.3394791874644759 0.38275886134165227
3 303 304 261 0.08329465125881053 0.3394791874644759 0.38275886134165227
3 261 304 296 0.08329465125881053 0.3394791874644759 0.38275886134165227
3 214 213 267 0.08329465125881053 0.3394791874644759 0.38275886134165227
3 305 304 214 0.08329465125881053 0.3394791874644759 0.38275886134165227
3 303 213 214 0.08329465125881053 0.3394791874644759 0.38275886134165227
3 214 304 303 0.08329465125881053 0.3394791874644759 0.38275886134165227
3 123 162 122 0.08329465125881053 0.3394791874644759 0.38275886134165227
3 123 122 37 0.08329465125881053 0.3394791874644759 0.38275886134165227
3 37 254 123 0.08329465125881053 0.3394791874644759 0.38275886134165227
3 123 254 124 0.08329465125881053 0.3394791874644759 0.38275886134165227
3 124 162 123 0.08329465125881053 0.3394791874644759 0.38275886134165227
3 294 259 253 0.08329465125881053 0.3394791874644759 0.38275886134165227
3 200 199 294 0.08329465125881053 0.3394791874644759 0.38275886134165227
3 294 253 200 0.08329465125881053 0.3394791874644759 0.38275886134165227
3 258 259 252 0.08329465125881053 0.3394791874644759 0.38275886134165227
3 259 294 252 0.08329465125881053 0.3394791874644759 0.38275886134165227
3 131 259 258 0.08329465125881053 0.3394791874644759 0.38275886134165227
3 131 130 204 0.08329465125881053 0.3394791874644759 0.38275886134165227
3 258 130 131 0.08329465125881053 0.3394791874644759 0.38275886134165227
3 205 88 206 0.08329465125881053 0.3394791874644759 0.38275886134165227
3 205 206 260 0.08329465125881053 0.3394791874644759 0.38275886134165227
3 260 259 205 0.08329465125881053 0.3394791874644759 0.38275886134165227
3 259 131 205 0.08329465125881053 0.3394791874644759 0.38275886134165227
3 204 88 205 0.08329465125881053 0.3394791874644759 0.38275886134165227
3 205 131 204 0.08329465125881053 0.3394791874644759 0.38275886134165227
3 135 134 218 0.08329465125881053 0.3394791874644759 0.38275886134165227
3 218 219 135 0.08329465125881053 0.3394791874644759 0.38275886134165227
3 135 219 136 0.08329465125881053 0.3394791874644759 0.38275886134165227
3 136 265 135 0.08329465125881053 0.3394791874644759 0.38275886134165227
3 264 134 135 0.08329465125881053 0.3394791874644759 0.38275886134165227
3 135 265 264 0.08329465125881053 0.3394791874644759 0.38275886134165227
3 220 219 147 0.08329465125881053 0.3394791874644759 0.38275886134165227
3 220 221 136 0.08329465125881053 0.3394791874644759 0.38275886134165227
3 136 219 220 0.08329465125881053 0.3394791874644759 0.38275886134165227
3 132 46 216 0.08329465125881053 0.3394791874644759 0.38275886134165227
3 216 217 132 0.08329465125881053 0.3394791874644759 0.38275886134165227
3 45 46 132 0.08329465125881053 0.3394791874644759 0.38275886134165227
3 132 262 45 0.08329465125881053 0.3394791874644759 0.38275886134165227
3 311 172 312 0.08329465125881053 0.3394791874644759 0.38275886134165227
3 312 147 311 0.08329465125881053 0.3394791874644759 0.38275886134165227
3 312 172 229 0.08329465125881053 0.3394791874644759 0.38275886134165227
3 221 220 312 0.08329465125881053 0.3394791874644759 0.38275886134165227
3 312 220 147 0.08329465125881053 0.3394791874644759 0.38275886134165227
3 277 278 229 0.08329465125881053 0.3394791874644759 0.38275886134165227
3 314 278 315 0.08329465125881053 0.3394791874644759 0.38275886134165227
3 186 153 236 0.08329465125881053 0.3394791874644759 0.38275886134165227
3 209 94 210 0.08329465125881053 0.3394791874644759 0.38275886134165227
3 211 92 210 0.08329465125881053 0.3394791874644759 0.38275886134165227
3 91 209 210 0.08329465125881053 0.3394791874644759 0.38275886134165227
3 210 92 91 0.08329465125881053 0.3394791874644759 0.38275886134165227
3 95 94 264 0.08329465125881053 0.3394791874644759 0.38275886134165227
3 264 265 95 0.08329465125881053 0.3394791874644759 0.38275886134165227
3 95 265 96 0.08329465125881053 0.3394791874644759 0.38275886134165227
3 95 210 94 0.08329465125881053 0.3394791874644759 0.38275886134165227
3 95 96 211 0.08329465125881053 0.3394791874644759 0.38275886134165227
3 211 210 95 0.08329465125881053 0.3394791874644759 0.38275886134165227
3 84 197 196 0.08329465125881053 0.3394791874644759 0.38275886134165227
3 292 197 84 0.08329465125881053 0.3394791874644759 0.38275886134165227
3 84 196 291 0.08329465125881053 0.3394791874644759 0.38275886134165227
3 291 121 84 0.08329465125881053 0.3394791874644759 0.38275886134165227
3 84 121 292 0.08329465125881053 0.3394791874644759 0.38275886134165227
3 85 202 40 0.08329465125881053 0.3394791874644759 0.38275886134165227
3 85 86 203 0.08329465125881053 0.3394791874644759 0.38275886134165227
3 203 202 85 0.08329465125881053 0.3394791874644759 0.38275886134165227
3 125 163 124 0.08329465125881053 0.3394791874644759 0.38275886134165227
3 125 250 163 0.08329465125881053 0.3394791874644759 0.38275886134165227
3 164 250 125 0.08329465125881053 0.3394791874644759 0.38275886134165227
3 256 125 124 0.08329465125881053 0.3394791874644759 0.38275886134165227
3 256 128 129 0.08329465125881053 0.3394791874644759 0.38275886134165227
3 38 39 127 0.08329465125881053 0.3394791874644759 0.38275886134165227
3 39 128 127 0.08329465125881053 0.3394791874644759 0.38275886134165227
3 128 256 127 0.08329465125881053 0.3394791874644759 0.38275886134165227
3 173 102 174 0.08329465125881053 0.3394791874644759 0.38275886134165227
3 173 53 52 0.08329465125881053 0.3394791874644759 0.38275886134165227
3 174 53 173 0.08329465125881053 0.3394791874644759 0.38275886134165227
3 52 11 173 0.08329465125881053 0.3394791874644759 0.38275886134165227
3 173 11 12 0.08329465125881053 0.3394791874644759 0.38275886134165227
3 12 102 173 0.08329465125881053 0.3394791874644759 0.38275886134165227
3 15 270 14 0.08329465125881053 0.3394791874644759 0.38275886134165227
3 14 102 12 0.08329465125881053 0.3394791874644759 0.38275886134165227
3 168 51 50 0.08329465125881053 0.3394791874644759 0.38275886134165227
3 168 50 167 0.08329465125881053 0.3394791874644759 0.38275886134165227
3 167 67 168 0.08329465125881053 0.3394791874644759 0.38275886134165227
3 68 51 168 0.08329465125881053 0.3394791874644759 0.38275886134165227
3 168 225 68 0.08329465125881053 0.3394791874644759 0.38275886134165227
3 168 67 225 0.08329465125881053 0.3394791874644759 0.38275886134165227
3 105 272 273 0.08329465125881053 0.3394791874644759 0.38275886134165227
3 273 106 105 0.08329465125881053 0.3394791874644759 0.38275886134165227
3 176 104 105 0.08329465125881053 0.3394791874644759 0.38275886134165227
3 105 104 272 0.08329465125881053 0.3394791874644759 0.38275886134165227
3 105 177 176 0.08329465125881053 0.3394791874644759 0.38275886134165227
3 105 106 177 0.08329465125881053 0.3394791874644759 0.38275886134165227
3 71 272 70 0.08329465125881053 0.3394791874644759 0.38275886134165227
3 180 181 70 0.08329465125881053 0.3394791874644759 0.38275886134165227
3 70 181 71 0.08329465125881053 0.3394791874644759 0.38275886134165227
3 69 180 70 0.08329465125881053 0.3394791874644759 0.38275886134165227
3 270 104 103 0.08329465125881053 0.3394791874644759 0.38275886134165227
3 174 102 103 0.08329465125881053 0.3394791874644759 0.38275886134165227
3 103 14 270 0.08329465125881053 0.3394791874644759 0.38275886134165227
3 102 14 103 0.08329465125881053 0.3394791874644759 0.38275886134165227
3 272 104 271 0.08329465125881053 0.3394791874644759 0.38275886134165227
3 69 70 271 0.08329465125881053 0.3394791874644759 0.38275886134165227
3 271 70 272 0.08329465125881053 0.3394791874644759 0.38275886134165227
3 271 104 270 0.08329465125881053 0.3394791874644759 0.38275886134165227
3 271 15 69 0.08329465125881053 0.3394791874644759 0.38275886134165227
3 271 270 15 0.08329465125881053 0.3394791874644759 0.38275886134165227
3 175 104 176 0.08329465125881053 0.3394791874644759 0.38275886134165227
3 176 54 175 0.08329465125881053 0.3394791874644759 0.38275886134165227
3 175 54 174 0.08329465125881053 0.3394791874644759 0.38275886134165227
3 174 103 175 0.08329465125881053 0.3394791874644759 0.38275886134165227
3 175 103 104 0.08329465125881053 0.3394791874644759 0.38275886134165227
3 178 274 275 0.08329465125881053 0.3394791874644759 0.38275886134165227
3 275 179 178 0.08329465125881053 0.3394791874644759 0.38275886134165227
3 275 183 184 0.08329465125881053 0.3394791874644759 0.38275886134165227
3 274 183 275 0.08329465125881053 0.3394791874644759 0.38275886134165227
3 184 185 275 0.08329465125881053 0.3394791874644759 0.38275886134165227
3 276 185 186 0.08329465125881053 0.3394791874644759 0.38275886134165227
3 186 277 276 0.08329465125881053 0.3394791874644759 0.38275886134165227
3 276 275 185 0.08329465125881053 0.3394791874644759 0.38275886134165227
3 179 275 276 0.08329465125881053 0.3394791874644759 0.38275886134165227
3 229 179 276 0.08329465125881053 0.3394791874644759 0.38275886134165227
3 276 277 229 0.08329465125881053 0.3394791874644759 0.38275886134165227
3 234 152 233 0.08329465125881053 0.3394791874644759 0.38275886134165227
3 153 152 234 0.08329465125881053 0.3394791874644759 0.38275886134165227
3 233 76 234 0.08329465125881053 0.3394791874644759 0.38275886134165227
3 234 76 192 0.08329465125881053 0.3394791874644759 0.38275886134165227
3 151 150 60 0.08329465125881053 0.3394791874644759 0.38275886134165227
3 60 150 59 0.08329465125881053 0.3394791874644759 0.38275886134165227
3 60 232 233 0.08329465125881053 0.3394791874644759 0.38275886134165227
3 60 59 231 0.08329465125881053 0.3394791874644759 0.38275886134165227
3 231 232 60 0.08329465125881053 0.3394791874644759 0.38275886134165227
3 233 152 60 0.08329465125881053 0.3394791874644759 0.38275886134165227
3 60 152 151 0.08329465125881053 0.3394791874644759 0.38275886134165227
3 295 296 245 0.08329465125881053 0.3394791874644759 0.38275886134165227
3 295 261 296 0.08329465125881053 0.3394791874644759 0.38275886134165227
3 295 245 244 0.08329465125881053 0.3394791874644759 0.38275886134165227
3 244 200 295 0.08329465125881053 0.3394791874644759 0.38275886134165227
3 200 253 295 0.08329465125881053 0.3394791874644759 0.38275886134165227
3 253 261 295 0.08329465125881053 0.3394791874644759 0.38275886134165227
3 293 292 251 0.08329465125881053 0.3394791874644759 0.38275886134165227
3 198 292 293 0.08329465125881053 0.3394791874644759 0.38275886134165227
3 293 199 198 0.08329465125881053 0.3394791874644759 0.38275886134165227
3 293 294 199 0.08329465125881053 0.3394791874644759 0.38275886134165227
3 293 252 294 0.08329465125881053 0.3394791874644759 0.38275886134165227
3 42 297 41 0.08329465125881053 0.3394791874644759 0.38275886134165227
3 41 85 40 0.08329465125881053 0.3394791874644759 0.38275886134165227
3 41 297 86 0.08329465125881053 0.3394791874644759 0.38275886134165227
3 86 85 41 0.08329465125881053 0.3394791874644759 0.38275886134165227
3 86 297 87 0.08329465125881053 0.3394791874644759 0.38275886134165227
3 87 88 204 0.08329465125881053 0.3394791874644759 0.38275886134165227
3 299 88 87 0.08329465125881053 0.3394791874644759 0.38275886134165227
3 204 203 87 0.08329465125881053 0.3394791874644759 0.38275886134165227
3 203 86 87 0.08329465125881053 0.3394791874644759 0.38275886134165227
3 133 217 134 0.08329465125881053 0.3394791874644759 0.38275886134165227
3 133 132 217 0.08329465125881053 0.3394791874644759 0.38275886134165227
3 262 132 133 0.08329465125881053 0.3394791874644759 0.38275886134165227
3 133 134 263 0.08329465125881053 0.3394791874644759 0.38275886134165227
3 263 262 133 0.08329465125881053 0.3394791874644759 0.38275886134165227
3 313 312 229 0.08329465125881053 0.3394791874644759 0.38275886134165227
3 229 278 313 0.08329465125881053 0.3394791874644759 0.38275886134165227
3 278 314 313 0.08329465125881053 0.3394791874644759 0.38275886134165227
3 221 312 313 0.08329465125881053 0.3394791874644759 0.38275886134165227
3 305 214 269 0.08329465125881053 0.3394791874644759 0.38275886134165227
3 221 313 269 0.08329465125881053 0.3394791874644759 0.38275886134165227
3 269 313 314 0.08329465125881053 0.3394791874644759 0.38275886134165227
3 269 315 305 0.08329465125881053 0.3394791874644759 0.38275886134165227
3 269 314 315 0.08329465125881053 0.3394791874644759 0.38275886134165227
3 235 192 193 0.08329465125881053 0.3394791874644759 0.38275886134165227
3 193 236 235 0.08329465125881053 0.3394791874644759 0.38275886134165227
3 235 234 192 0.08329465125881053 0.3394791874644759 0.38275886134165227
3 235 236 153 0.08329465125881053 0.3394791874644759 0.38275886134165227
3 153 234 235 0.08329465125881053 0.3394791874644759 0.38275886134165227
3 237 193 287 0.08329465125881053 0.3394791874644759 0.38275886134165227
3 237 236 193 0.08329465125881053 0.3394791874644759 0.38275886134165227
3 287 315 237 0.08329465125881053 0.3394791874644759 0.38275886134165227
3 315 278 237 0.08329465125881053 0.3394791874644759 0.38275886134165227
3 278 277 237 0.08329465125881053 0.3394791874644759 0.38275886134165227
3 237 277 186 0.08329465125881053 0.3394791874644759 0.38275886134165227
3 186 236 237 0.08329465125881053 0.3394791874644759 0.38275886134165227
3 257 126 164 0.08329465125881053 0.3394791874644759 0.38275886134165227
3 164 125 257 0.08329465125881053 0.3394791874644759 0.38275886134165227
3 129 130 257 0.08329465125881053 0.3394791874644759 0.38275886134165227
3 257 256 129 0.08329465125881053 0.3394791874644759 0.38275886134165227
3 125 256 257 0.08329465125881053 0.3394791874644759 0.38275886134165227
3 257 130 258 0.08329465125881053 0.3394791874644759 0.38275886134165227
3 258 126 257 0.08329465125881053 0.3394791874644759 0.38275886134165227
3 255 256 124 0.08329465125881053 0.3394791874644759 0.38275886134165227
3 255 127 256 0.08329465125881053 0.3394791874644759 0.38275886134165227
3 124 254 255 0.08329465125881053 0.3394791874644759 0.38275886134165227
3 255 254 38 0.08329465125881053 0.3394791874644759 0.38275886134165227
3 38 127 255 0.08329465125881053 0.3394791874644759 0.38275886134165227
3 165 293 251 0.08329465125881053 0.3394791874644759 0.38275886134165227
3 252 293 165 0.08329465125881053 0.3394791874644759 0.38275886134165227
3 251 126 165 0.08329465125881053 0.3394791874644759 0.38275886134165227
3 165 126 258 0.08329465125881053 0.3394791874644759 0.38275886134165227
3 258 252 165 0.08329465125881053 0.3394791874644759 0.38275886134165227
3 299 87 298 0.08329465125881053 0.3394791874644759 0.38275886134165227
3 298 87 297 0.08329465125881053 0.3394791874644759 0.38275886134165227
3 298 89 299 0.08329465125881053 0.3394791874644759 0.38275886134165227
3 42 89 298 0.08329465125881053 0.3394791874644759 0.38275886134165227
3 298 297 42 0.08329465125881053 0.3394791874644759 0.38275886134165227
3 268 214 267 0.08329465125881053 0.3394791874644759 0.38275886134165227
3 268 269 214 0.08329465125881053 0.3394791874644759 0.38275886134165227
3 268 267 221 0.08329465125881053 0.3394791874644759 0.38275886134165227
3 221 269 268 0.08329465125881053 0.3394791874644759 0.38275886134165227
