OFF
33 27 0


28.6295 33.7091 12.293
28.6295 33.7091 12.293
28.6163 33.7146 12.308
28.6295 33.7091 12.293
28.6295 33.7091 12.293
28.5569 33.5957 12.2861
28.4995 33.5043 12.2796
28.4506 33.4254 12.2733
28.4064 33.3528 12.2669
28.3638 33.2819 12.2602
28.3205 33.2088 12.2526
28.2738 33.1288 12.2438
28.2203 33.0356 12.2327
28.1547 32.9188 12.2176
28.1547 32.9188 12.2176
28.1597 33.0349 12.2853
28.1621 33.132 12.3437
28.1627 33.2168 12.3959
28.162 33.2937 12.4443
28.1604 33.3662 12.4908
28.1578 33.437 12.5371
28.1543 33.5086 12.5847
28.1496 33.5836 12.6355
28.1433 33.6652 12.6917
28.1348 33.7576 12.7567
28.1229 33.867 12.8351
28.2121 33.8367 12.7381
28.2781 33.8151 12.6669
28.3342 33.7974 12.6067
28.3875 33.781 12.5498
28.444 33.7643 12.4899
28.5111 33.7451 12.4191
28.6031 33.7202 12.3231
3 7 19 8 0.3220370377132805 0.6348962128209334 0.13758815026544613
3 20 19 7 0.3220370377132805 0.6348962128209334 0.13758815026544613
3 7 6 20 0.3220370377132805 0.6348962128209334 0.13758815026544613
3 6 21 20 0.3220370377132805 0.6348962128209334 0.13758815026544613
3 2 5 0 0.3220370377132805 0.6348962128209334 0.13758815026544613
3 2 32 5 0.3220370377132805 0.6348962128209334 0.13758815026544613
3 27 24 23 0.3220370377132805 0.6348962128209334 0.13758815026544613
3 18 8 19 0.3220370377132805 0.6348962128209334 0.13758815026544613
3 25 24 26 0.3220370377132805 0.6348962128209334 0.13758815026544613
3 24 27 26 0.3220370377132805 0.6348962128209334 0.13758815026544613
3 30 21 6 0.3220370377132805 0.6348962128209334 0.13758815026544613
3 8 18 9 0.3220370377132805 0.6348962128209334 0.13758815026544613
3 12 11 16 0.3220370377132805 0.6348962128209334 0.13758815026544613
3 16 11 10 0.3220370377132805 0.6348962128209334 0.13758815026544613
3 23 22 28 0.3220370377132805 0.6348962128209334 0.13758815026544613
3 28 27 23 0.3220370377132805 0.6348962128209334 0.13758815026544613
3 31 6 5 0.3220370377132805 0.6348962128209334 0.13758815026544613
3 31 30 6 0.3220370377132805 0.6348962128209334 0.13758815026544613
3 5 32 31 0.3220370377132805 0.6348962128209334 0.13758815026544613
3 13 12 15 0.3220370377132805 0.6348962128209334 0.13758815026544613
3 12 16 15 0.3220370377132805 0.6348962128209334 0.13758815026544613
3 17 16 10 0.3220370377132805 0.6348962128209334 0.13758815026544613
3 10 9 17 0.3220370377132805 0.6348962128209334 0.13758815026544613
3 17 9 18 0.3220370377132805 0.6348962128209334 0.13758815026544613
3 29 28 22 0.3220370377132805 0.6348962128209334 0.13758815026544613
3 29 22 21 0.3220370377132805 0.6348962128209334 0.13758815026544613
3 21 30 29 0.3220370377132805 0.6348962128209334 0.13758815026544613
