OFF
28 32 0


25.8526 31.5752 8.1741
25.8526 31.5752 8.1741
25.7486 31.5038 8.2036
25.6736 31.4506 8.2237
25.599 31.3965 8.2428
25.497 31.3204 8.2674
25.4837 31.4293 8.3151
25.4742 31.5059 8.3483
25.4646 31.5827 8.3813
25.4509 31.6921 8.4277
25.4509 31.6921 8.4277
25.569 31.661 8.3554
25.6537 31.6371 8.3024
25.7378 31.612 8.2489
25.8526 31.5752 8.1741
25.6903 31.5273 8.2431
25.6145 31.474 8.2634
25.5643 31.4373 8.2762
25.558 31.4914 8.2994
25.5494 31.5668 8.3315
25.5434 31.6195 8.3537
25.5999 31.6055 8.3192
25.6418 31.5943 8.2932
25.6845 31.5821 8.2663
25.7442 31.5637 8.2279
25.7442 31.5637 8.2279
25.63 31.5516 8.2838
25.63 31.5516 8.2838
3 0 24 2 0.8004726984418543 0.690820537881156 0.9692824027012332
3 3 2 15 0.8004726984418543 0.690820537881156 0.9692824027012332
3 15 2 24 0.8004726984418543 0.690820537881156 0.9692824027012332
3 7 6 18 0.8004726984418543 0.690820537881156 0.9692824027012332
3 8 20 9 0.8004726984418543 0.690820537881156 0.9692824027012332
3 9 20 11 0.8004726984418543 0.690820537881156 0.9692824027012332
3 11 21 12 0.8004726984418543 0.690820537881156 0.9692824027012332
3 20 21 11 0.8004726984418543 0.690820537881156 0.9692824027012332
3 23 15 24 0.8004726984418543 0.690820537881156 0.9692824027012332
3 26 15 23 0.8004726984418543 0.690820537881156 0.9692824027012332
3 17 18 6 0.8004726984418543 0.690820537881156 0.9692824027012332
3 5 4 17 0.8004726984418543 0.690820537881156 0.9692824027012332
3 17 6 5 0.8004726984418543 0.690820537881156 0.9692824027012332
3 19 21 20 0.8004726984418543 0.690820537881156 0.9692824027012332
3 7 18 19 0.8004726984418543 0.690820537881156 0.9692824027012332
3 19 18 26 0.8004726984418543 0.690820537881156 0.9692824027012332
3 26 21 19 0.8004726984418543 0.690820537881156 0.9692824027012332
3 19 8 7 0.8004726984418543 0.690820537881156 0.9692824027012332
3 20 8 19 0.8004726984418543 0.690820537881156 0.9692824027012332
3 12 23 13 0.8004726984418543 0.690820537881156 0.9692824027012332
3 13 23 24 0.8004726984418543 0.690820537881156 0.9692824027012332
3 13 24 0 0.8004726984418543 0.690820537881156 0.9692824027012332
3 26 23 22 0.8004726984418543 0.690820537881156 0.9692824027012332
3 22 23 12 0.8004726984418543 0.690820537881156 0.9692824027012332
3 22 21 26 0.8004726984418543 0.690820537881156 0.9692824027012332
3 12 21 22 0.8004726984418543 0.690820537881156 0.9692824027012332
3 18 17 16 0.8004726984418543 0.690820537881156 0.9692824027012332
3 26 18 16 0.8004726984418543 0.690820537881156 0.9692824027012332
3 16 4 3 0.8004726984418543 0.690820537881156 0.9692824027012332
3 16 17 4 0.8004726984418543 0.690820537881156 0.9692824027012332
3 16 15 26 0.8004726984418543 0.690820537881156 0.9692824027012332
3 3 15 16 0.8004726984418543 0.690820537881156 0.9692824027012332
