OFF
35 29 0


31.7215 33.3524 9.4237
31.7215 33.3524 9.4237
31.6485 33.2535 9.3577
31.5889 33.168 9.3014
31.538 33.0912 9.2515
31.4929 33.0197 9.2056
31.4516 32.9509 9.1619
31.4124 32.8825 9.1188
31.374 32.8121 9.075
31.3351 32.7373 9.0289
31.2946 32.6548 8.9787
31.251 32.5604 8.9218
31.2025 32.448 8.8549
31.2025 32.448 8.8549
31.2794 32.426 8.8622
31.3563 32.4041 8.8696
31.4331 32.3822 8.877
31.51 32.3603 8.8843
31.5869 32.3384 8.8917
31.6638 32.3164 8.8991
31.7584 32.4042 8.9647
31.83 32.4721 9.0152
31.891 32.5312 9.0587
31.9485 32.588 9.1003
32.0083 32.6481 9.1441
32.077 32.7186 9.1951
32.1655 32.8117 9.262
32.1655 32.8117 9.262
32.0907 32.9123 9.2939
32.0309 32.9897 9.318
31.9779 33.0562 9.3382
31.9264 33.1191 9.3571
31.8713 33.1843 9.3762
31.8066 33.2586 9.3975
31.7215 33.3524 9.4237
3 29 30 5 0.6381672548405223 0.8796115370966632 0.8163080403700637
3 18 19 20 0.6381672548405223 0.8796115370966632 0.8163080403700637
3 14 11 12 0.6381672548405223 0.8796115370966632 0.8163080403700637
3 5 30 4 0.6381672548405223 0.8796115370966632 0.8163080403700637
3 25 29 24 0.6381672548405223 0.8796115370966632 0.8163080403700637
3 24 29 5 0.6381672548405223 0.8796115370966632 0.8163080403700637
3 5 6 24 0.6381672548405223 0.8796115370966632 0.8163080403700637
3 24 6 23 0.6381672548405223 0.8796115370966632 0.8163080403700637
3 28 25 26 0.6381672548405223 0.8796115370966632 0.8163080403700637
3 28 29 25 0.6381672548405223 0.8796115370966632 0.8163080403700637
3 17 18 20 0.6381672548405223 0.8796115370966632 0.8163080403700637
3 20 9 17 0.6381672548405223 0.8796115370966632 0.8163080403700637
3 10 16 17 0.6381672548405223 0.8796115370966632 0.8163080403700637
3 17 9 10 0.6381672548405223 0.8796115370966632 0.8163080403700637
3 21 22 8 0.6381672548405223 0.8796115370966632 0.8163080403700637
3 21 9 20 0.6381672548405223 0.8796115370966632 0.8163080403700637
3 8 9 21 0.6381672548405223 0.8796115370966632 0.8163080403700637
3 23 6 7 0.6381672548405223 0.8796115370966632 0.8163080403700637
3 7 22 23 0.6381672548405223 0.8796115370966632 0.8163080403700637
3 8 22 7 0.6381672548405223 0.8796115370966632 0.8163080403700637
3 11 14 15 0.6381672548405223 0.8796115370966632 0.8163080403700637
3 15 16 10 0.6381672548405223 0.8796115370966632 0.8163080403700637
3 10 11 15 0.6381672548405223 0.8796115370966632 0.8163080403700637
3 3 32 2 0.6381672548405223 0.8796115370966632 0.8163080403700637
3 31 4 30 0.6381672548405223 0.8796115370966632 0.8163080403700637
3 3 4 31 0.6381672548405223 0.8796115370966632 0.8163080403700637
3 31 32 3 0.6381672548405223 0.8796115370966632 0.8163080403700637
3 0 2 33 0.6381672548405223 0.8796115370966632 0.8163080403700637
3 33 2 32 0.6381672548405223 0.8796115370966632 0.8163080403700637
