OFF
46 41 0


28.2901 28.7973 8.6601
28.2901 28.7973 8.6601
28.3136 28.9556 8.6433
28.3319 29.0819 8.6284
28.3469 29.1881 8.6146
28.3597 29.2811 8.6016
28.3712 29.3655 8.5888
28.3816 29.4447 8.5759
28.3915 29.5213 8.5626
28.401 29.5975 8.5485
28.4106 29.6756 8.5329
28.4203 29.7583 8.5152
28.4305 29.8487 8.4943
28.4415 29.9517 8.4684
28.4537 30.075 8.4341
28.4678 30.2329 8.3845
28.442 30.2848 8.2608
28.4197 30.3247 8.1572
28.3995 30.3572 8.0655
28.3803 30.3853 7.9801
28.3611 30.4108 7.8964
28.3411 30.4352 7.8103
28.3189 30.4595 7.7168
28.2931 30.4849 7.6098
28.261 30.5127 7.4792
28.261 30.5127 7.4792
28.2584 30.3899 7.547
28.2566 30.2796 7.6099
28.2554 30.1793 7.6688
28.2548 30.087 7.7246
28.2546 30.0009 7.778
28.2547 29.9199 7.8296
28.2553 29.8428 7.8798
28.2561 29.7686 7.9293
28.2571 29.6965 7.9783
28.2584 29.6257 8.0275
28.26 29.5553 8.0772
28.2618 29.4848 8.128
28.2639 29.4133 8.1803
28.2663 29.3399 8.2348
28.269 29.2639 8.2921
28.2721 29.1841 8.3532
28.2756 29.0993 8.4191
28.2797 29.008 8.4909
28.2845 28.9081 8.5705
28.2901 28.7973 8.6601
3 14 30 31 0.6665818125103551 0.8108980493510267 0.5199484500888606
3 19 28 29 0.6665818125103551 0.8108980493510267 0.5199484500888606
3 29 18 19 0.6665818125103551 0.8108980493510267 0.5199484500888606
3 34 12 33 0.6665818125103551 0.8108980493510267 0.5199484500888606
3 17 18 29 0.6665818125103551 0.8108980493510267 0.5199484500888606
3 29 30 17 0.6665818125103551 0.8108980493510267 0.5199484500888606
3 40 6 39 0.6665818125103551 0.8108980493510267 0.5199484500888606
3 13 33 12 0.6665818125103551 0.8108980493510267 0.5199484500888606
3 32 33 13 0.6665818125103551 0.8108980493510267 0.5199484500888606
3 31 32 13 0.6665818125103551 0.8108980493510267 0.5199484500888606
3 13 14 31 0.6665818125103551 0.8108980493510267 0.5199484500888606
3 24 26 23 0.6665818125103551 0.8108980493510267 0.5199484500888606
3 23 26 22 0.6665818125103551 0.8108980493510267 0.5199484500888606
3 22 26 27 0.6665818125103551 0.8108980493510267 0.5199484500888606
3 30 14 16 0.6665818125103551 0.8108980493510267 0.5199484500888606
3 16 17 30 0.6665818125103551 0.8108980493510267 0.5199484500888606
3 16 14 15 0.6665818125103551 0.8108980493510267 0.5199484500888606
3 5 6 40 0.6665818125103551 0.8108980493510267 0.5199484500888606
3 8 37 38 0.6665818125103551 0.8108980493510267 0.5199484500888606
3 7 39 6 0.6665818125103551 0.8108980493510267 0.5199484500888606
3 8 38 7 0.6665818125103551 0.8108980493510267 0.5199484500888606
3 7 38 39 0.6665818125103551 0.8108980493510267 0.5199484500888606
3 9 37 8 0.6665818125103551 0.8108980493510267 0.5199484500888606
3 11 12 34 0.6665818125103551 0.8108980493510267 0.5199484500888606
3 37 9 36 0.6665818125103551 0.8108980493510267 0.5199484500888606
3 36 9 10 0.6665818125103551 0.8108980493510267 0.5199484500888606
3 22 27 21 0.6665818125103551 0.8108980493510267 0.5199484500888606
3 0 2 44 0.6665818125103551 0.8108980493510267 0.5199484500888606
3 44 2 43 0.6665818125103551 0.8108980493510267 0.5199484500888606
3 43 2 3 0.6665818125103551 0.8108980493510267 0.5199484500888606
3 4 42 3 0.6665818125103551 0.8108980493510267 0.5199484500888606
3 3 42 43 0.6665818125103551 0.8108980493510267 0.5199484500888606
3 41 42 4 0.6665818125103551 0.8108980493510267 0.5199484500888606
3 41 5 40 0.6665818125103551 0.8108980493510267 0.5199484500888606
3 4 5 41 0.6665818125103551 0.8108980493510267 0.5199484500888606
3 35 11 34 0.6665818125103551 0.8108980493510267 0.5199484500888606
3 10 11 35 0.6665818125103551 0.8108980493510267 0.5199484500888606
3 35 36 10 0.6665818125103551 0.8108980493510267 0.5199484500888606
3 20 27 28 0.6665818125103551 0.8108980493510267 0.5199484500888606
3 20 21 27 0.6665818125103551 0.8108980493510267 0.5199484500888606
3 28 19 20 0.6665818125103551 0.8108980493510267 0.5199484500888606
