OFF
24 19 0


32.0893 30.0334 7.2459
32.0893 30.0334 7.2459
32.1352 30.0378 7.1072
32.1685 30.0394 7.0124
32.1995 30.0399 6.9282
32.2356 30.0393 6.8347
32.2914 30.0361 6.6993
32.1904 30.0919 6.7506
32.1043 30.1406 6.7904
32.0272 30.1851 6.8227
31.9547 30.2275 6.8504
31.8835 30.2699 6.875
31.8103 30.3142 6.8976
31.7314 30.3627 6.9187
31.6426 30.4184 6.9388
31.5377 30.4854 6.9572
31.5377 30.4854 6.9572
31.6434 30.3999 7.0084
31.7204 30.3372 7.0471
31.7852 30.2842 7.0805
31.8465 30.234 7.1126
31.9108 30.1811 7.1471
31.9867 30.1184 7.1886
32.0893 30.0334 7.2459
3 13 18 12 0.562380696211428 0.8535214552634695 0.2887807581331979
3 10 20 21 0.562380696211428 0.8535214552634695 0.2887807581331979
3 10 21 9 0.562380696211428 0.8535214552634695 0.2887807581331979
3 7 8 5 0.562380696211428 0.8535214552634695 0.2887807581331979
3 6 7 5 0.562380696211428 0.8535214552634695 0.2887807581331979
3 17 18 13 0.562380696211428 0.8535214552634695 0.2887807581331979
3 11 20 10 0.562380696211428 0.8535214552634695 0.2887807581331979
3 19 12 18 0.562380696211428 0.8535214552634695 0.2887807581331979
3 20 11 19 0.562380696211428 0.8535214552634695 0.2887807581331979
3 19 11 12 0.562380696211428 0.8535214552634695 0.2887807581331979
3 3 9 21 0.562380696211428 0.8535214552634695 0.2887807581331979
3 15 17 14 0.562380696211428 0.8535214552634695 0.2887807581331979
3 14 17 13 0.562380696211428 0.8535214552634695 0.2887807581331979
3 4 5 8 0.562380696211428 0.8535214552634695 0.2887807581331979
3 8 9 4 0.562380696211428 0.8535214552634695 0.2887807581331979
3 9 3 4 0.562380696211428 0.8535214552634695 0.2887807581331979
3 2 21 22 0.562380696211428 0.8535214552634695 0.2887807581331979
3 2 3 21 0.562380696211428 0.8535214552634695 0.2887807581331979
3 2 22 0 0.562380696211428 0.8535214552634695 0.2887807581331979
