OFF
11 8 0


26.9709 33.142 8.4787
26.9709 33.142 8.4787
26.97 33.1411 8.4788
26.9691 33.1401 8.4789
26.9697 33.1406 8.4784
26.9703 33.141 8.4778
26.9703 33.141 8.4778
26.9706 33.1415 8.4782
26.9709 33.142 8.4787
26.9707 33.1417 8.4786
26.9704 33.1414 8.4784
3 4 2 3 0.5801783586258379 0.8190376598620857 0.8193758564111661
3 5 2 4 0.5801783586258379 0.8190376598620857 0.8193758564111661
3 0 2 9 0.5801783586258379 0.8190376598620857 0.8193758564111661
3 9 7 0 0.5801783586258379 0.8190376598620857 0.8193758564111661
3 10 2 5 0.5801783586258379 0.8190376598620857 0.8193758564111661
3 5 7 10 0.5801783586258379 0.8190376598620857 0.8193758564111661
3 10 9 2 0.5801783586258379 0.8190376598620857 0.8193758564111661
3 7 9 10 0.5801783586258379 0.8190376598620857 0.8193758564111661
