OFF
39 51 0


28.1853 31.5031 6.4141
28.1853 31.5031 6.4141
28.2312 31.6351 6.4546
28.265 31.7302 6.482
28.3133 31.8628 6.5175
28.324 31.7597 6.4209
28.3313 31.6848 6.3508
28.3372 31.6202 6.2902
28.3429 31.5555 6.2296
28.3491 31.4806 6.1594
28.3571 31.3775 6.0627
28.3571 31.3775 6.0627
28.307 31.4136 6.1657
28.2714 31.4396 6.2387
28.2357 31.4658 6.3117
28.1853 31.5031 6.4141
28.2496 31.6074 6.4062
28.305 31.7605 6.4488
28.3119 31.6909 6.3836
28.3204 31.5972 6.296
28.3281 31.5045 6.2096
28.3002 31.4602 6.2138
28.2528 31.4944 6.3103
28.2723 31.6713 6.4247
28.2795 31.6117 6.3666
28.3166 31.6405 6.3365
28.3017 31.596 6.322
28.3241 31.5541 6.2557
28.3054 31.5526 6.2817
28.3332 31.437 6.1468
28.3097 31.4948 6.2283
28.2766 31.4772 6.2619
28.2817 31.5143 6.2848
28.219 31.519 6.3788
28.2528 31.535 6.3432
28.219 31.519 6.3788
28.2528 31.535 6.3432
28.2867 31.5512 6.3074
28.2867 31.5512 6.3074
3 31 14 13 0.9650991854322927 0.9292505231792146 0.760645919589227
3 0 14 33 0.9650991854322927 0.9292505231792146 0.760645919589227
3 21 31 13 0.9650991854322927 0.9292505231792146 0.760645919589227
3 14 31 22 0.9650991854322927 0.9292505231792146 0.760645919589227
3 22 33 14 0.9650991854322927 0.9292505231792146 0.760645919589227
3 34 33 22 0.9650991854322927 0.9292505231792146 0.760645919589227
3 19 27 7 0.9650991854322927 0.9292505231792146 0.760645919589227
3 7 27 8 0.9650991854322927 0.9292505231792146 0.760645919589227
3 8 27 20 0.9650991854322927 0.9292505231792146 0.760645919589227
3 27 19 28 0.9650991854322927 0.9292505231792146 0.760645919589227
3 27 28 32 0.9650991854322927 0.9292505231792146 0.760645919589227
3 32 28 37 0.9650991854322927 0.9292505231792146 0.760645919589227
3 32 22 31 0.9650991854322927 0.9292505231792146 0.760645919589227
3 37 34 32 0.9650991854322927 0.9292505231792146 0.760645919589227
3 34 22 32 0.9650991854322927 0.9292505231792146 0.760645919589227
3 7 6 25 0.9650991854322927 0.9292505231792146 0.760645919589227
3 25 19 7 0.9650991854322927 0.9292505231792146 0.760645919589227
3 30 21 20 0.9650991854322927 0.9292505231792146 0.760645919589227
3 31 21 30 0.9650991854322927 0.9292505231792146 0.760645919589227
3 30 32 31 0.9650991854322927 0.9292505231792146 0.760645919589227
3 20 27 30 0.9650991854322927 0.9292505231792146 0.760645919589227
3 27 32 30 0.9650991854322927 0.9292505231792146 0.760645919589227
3 12 21 13 0.9650991854322927 0.9292505231792146 0.760645919589227
3 29 21 12 0.9650991854322927 0.9292505231792146 0.760645919589227
3 10 29 12 0.9650991854322927 0.9292505231792146 0.760645919589227
3 9 8 20 0.9650991854322927 0.9292505231792146 0.760645919589227
3 20 21 9 0.9650991854322927 0.9292505231792146 0.760645919589227
3 9 21 29 0.9650991854322927 0.9292505231792146 0.760645919589227
3 9 29 10 0.9650991854322927 0.9292505231792146 0.760645919589227
3 26 25 24 0.9650991854322927 0.9292505231792146 0.760645919589227
3 19 25 26 0.9650991854322927 0.9292505231792146 0.760645919589227
3 26 34 37 0.9650991854322927 0.9292505231792146 0.760645919589227
3 26 24 34 0.9650991854322927 0.9292505231792146 0.760645919589227
3 37 28 26 0.9650991854322927 0.9292505231792146 0.760645919589227
3 26 28 19 0.9650991854322927 0.9292505231792146 0.760645919589227
3 18 6 5 0.9650991854322927 0.9292505231792146 0.760645919589227
3 18 25 6 0.9650991854322927 0.9292505231792146 0.760645919589227
3 24 25 18 0.9650991854322927 0.9292505231792146 0.760645919589227
3 18 23 24 0.9650991854322927 0.9292505231792146 0.760645919589227
3 23 3 2 0.9650991854322927 0.9292505231792146 0.760645919589227
3 17 3 23 0.9650991854322927 0.9292505231792146 0.760645919589227
3 17 18 5 0.9650991854322927 0.9292505231792146 0.760645919589227
3 23 18 17 0.9650991854322927 0.9292505231792146 0.760645919589227
3 17 5 4 0.9650991854322927 0.9292505231792146 0.760645919589227
3 4 3 17 0.9650991854322927 0.9292505231792146 0.760645919589227
3 24 23 16 0.9650991854322927 0.9292505231792146 0.760645919589227
3 23 2 16 0.9650991854322927 0.9292505231792146 0.760645919589227
3 34 24 16 0.9650991854322927 0.9292505231792146 0.760645919589227
3 16 33 34 0.9650991854322927 0.9292505231792146 0.760645919589227
3 0 33 16 0.9650991854322927 0.9292505231792146 0.760645919589227
3 16 2 0 0.9650991854322927 0.9292505231792146 0.760645919589227
