OFF
80 74 0


28.0632 28.588 9.3584
28.0632 28.588 9.3584
28.0696 28.6823 9.443
28.0769 28.772 9.5223
28.0851 28.8578 9.597
28.0942 28.9404 9.6678
28.1041 29.0204 9.7351
28.115 29.0982 9.7994
28.1269 29.1743 9.8611
28.1398 29.2491 9.9205
28.1539 29.3228 9.9779
28.1691 29.396 10.0334
28.1856 29.4687 10.0874
28.2034 29.5413 10.1399
28.2227 29.614 10.191
28.2436 29.6871 10.241
28.2661 29.7607 10.29
28.2904 29.8351 10.3379
28.3165 29.9106 10.385
28.3447 29.9873 10.4313
28.3751 30.0655 10.4769
28.4078 30.1454 10.5219
28.4429 30.2273 10.5665
28.4807 30.3115 10.6106
28.5213 30.3983 10.6545
28.5651 30.4883 10.6984
28.6122 30.5818 10.7423
28.6632 30.6794 10.7865
28.7183 30.7817 10.8312
28.7183 30.7817 10.8312
28.6175 30.6856 10.8371
28.5254 30.5987 10.8436
28.4401 30.5193 10.8506
28.3604 30.4459 10.858
28.2851 30.3775 10.8658
28.2132 30.313 10.874
28.1442 30.2517 10.8826
28.0771 30.1929 10.8915
28.0115 30.136 10.901
27.9468 30.0805 10.9109
27.8824 30.0259 10.9213
27.8178 29.9717 10.9323
27.7525 29.9175 10.944
27.6859 29.8627 10.9565
27.6174 29.807 10.9699
27.5462 29.7497 10.9843
27.4718 29.6904 11.0
27.393 29.6282 11.0172
27.3089 29.5624 11.0362
27.2181 29.4921 11.0574
27.1189 29.4161 11.0812
27.0092 29.3327 11.1084
26.9752 29.2132 11.0264
26.948 29.124 10.9671
26.9242 29.0499 10.9191
26.9018 28.9831 10.8765
26.8793 28.9183 10.8361
26.8553 28.851 10.7948
26.8277 28.776 10.7496
26.7931 28.6854 10.6961
26.7452 28.5641 10.6261
26.7452 28.5641 10.6261
26.8472 28.581 10.5425
26.9388 28.5948 10.4661
27.0224 28.606 10.3951
27.0996 28.6152 10.3283
27.172 28.6226 10.2646
27.2407 28.6286 10.203
27.3067 28.6332 10.1429
27.3707 28.6365 10.0834
27.4336 28.6387 10.024
27.4959 28.6397 9.9638
27.5585 28.6395 9.9024
27.6219 28.638 9.8388
27.6868 28.635 9.7724
27.7539 28.6304 9.7022
27.8241 28.6238 9.6271
27.8983 28.6149 9.5459
27.9775 28.6032 9.457
28.0632 28.588 9.3584
3 47 48 68 0.45435090933796096 0.14401535154491985 0.13489090690169137
3 55 65 66 0.45435090933796096 0.14401535154491985 0.13489090690169137
3 44 45 13 0.45435090933796096 0.14401535154491985 0.13489090690169137
3 67 68 48 0.45435090933796096 0.14401535154491985 0.13489090690169137
3 6 73 74 0.45435090933796096 0.14401535154491985 0.13489090690169137
3 71 9 70 0.45435090933796096 0.14401535154491985 0.13489090690169137
3 7 73 6 0.45435090933796096 0.14401535154491985 0.13489090690169137
3 34 22 23 0.45435090933796096 0.14401535154491985 0.13489090690169137
3 6 74 5 0.45435090933796096 0.14401535154491985 0.13489090690169137
3 5 74 75 0.45435090933796096 0.14401535154491985 0.13489090690169137
3 20 21 37 0.45435090933796096 0.14401535154491985 0.13489090690169137
3 42 15 16 0.45435090933796096 0.14401535154491985 0.13489090690169137
3 14 44 13 0.45435090933796096 0.14401535154491985 0.13489090690169137
3 43 15 42 0.45435090933796096 0.14401535154491985 0.13489090690169137
3 44 14 43 0.45435090933796096 0.14401535154491985 0.13489090690169137
3 43 14 15 0.45435090933796096 0.14401535154491985 0.13489090690169137
3 3 4 77 0.45435090933796096 0.14401535154491985 0.13489090690169137
3 70 9 10 0.45435090933796096 0.14401535154491985 0.13489090690169137
3 10 69 70 0.45435090933796096 0.14401535154491985 0.13489090690169137
3 73 7 72 0.45435090933796096 0.14401535154491985 0.13489090690169137
3 8 72 7 0.45435090933796096 0.14401535154491985 0.13489090690169137
3 9 71 8 0.45435090933796096 0.14401535154491985 0.13489090690169137
3 71 72 8 0.45435090933796096 0.14401535154491985 0.13489090690169137
3 28 30 27 0.45435090933796096 0.14401535154491985 0.13489090690169137
3 27 30 26 0.45435090933796096 0.14401535154491985 0.13489090690169137
3 33 34 23 0.45435090933796096 0.14401535154491985 0.13489090690169137
3 52 50 51 0.45435090933796096 0.14401535154491985 0.13489090690169137
3 49 50 52 0.45435090933796096 0.14401535154491985 0.13489090690169137
3 52 53 49 0.45435090933796096 0.14401535154491985 0.13489090690169137
3 54 55 66 0.45435090933796096 0.14401535154491985 0.13489090690169137
3 66 67 54 0.45435090933796096 0.14401535154491985 0.13489090690169137
3 54 67 48 0.45435090933796096 0.14401535154491985 0.13489090690169137
3 54 48 49 0.45435090933796096 0.14401535154491985 0.13489090690169137
3 49 53 54 0.45435090933796096 0.14401535154491985 0.13489090690169137
3 62 63 59 0.45435090933796096 0.14401535154491985 0.13489090690169137
3 63 58 59 0.45435090933796096 0.14401535154491985 0.13489090690169137
3 60 62 59 0.45435090933796096 0.14401535154491985 0.13489090690169137
3 57 63 64 0.45435090933796096 0.14401535154491985 0.13489090690169137
3 57 58 63 0.45435090933796096 0.14401535154491985 0.13489090690169137
3 26 30 31 0.45435090933796096 0.14401535154491985 0.13489090690169137
3 32 25 31 0.45435090933796096 0.14401535154491985 0.13489090690169137
3 31 25 26 0.45435090933796096 0.14401535154491985 0.13489090690169137
3 17 40 41 0.45435090933796096 0.14401535154491985 0.13489090690169137
3 42 16 41 0.45435090933796096 0.14401535154491985 0.13489090690169137
3 41 16 17 0.45435090933796096 0.14401535154491985 0.13489090690169137
3 18 40 17 0.45435090933796096 0.14401535154491985 0.13489090690169137
3 38 20 37 0.45435090933796096 0.14401535154491985 0.13489090690169137
3 19 20 38 0.45435090933796096 0.14401535154491985 0.13489090690169137
3 22 34 35 0.45435090933796096 0.14401535154491985 0.13489090690169137
3 21 22 35 0.45435090933796096 0.14401535154491985 0.13489090690169137
3 76 77 4 0.45435090933796096 0.14401535154491985 0.13489090690169137
3 76 5 75 0.45435090933796096 0.14401535154491985 0.13489090690169137
3 4 5 76 0.45435090933796096 0.14401535154491985 0.13489090690169137
3 0 2 78 0.45435090933796096 0.14401535154491985 0.13489090690169137
3 78 2 3 0.45435090933796096 0.14401535154491985 0.13489090690169137
3 3 77 78 0.45435090933796096 0.14401535154491985 0.13489090690169137
3 69 10 11 0.45435090933796096 0.14401535154491985 0.13489090690169137
3 47 68 11 0.45435090933796096 0.14401535154491985 0.13489090690169137
3 68 69 11 0.45435090933796096 0.14401535154491985 0.13489090690169137
3 11 46 47 0.45435090933796096 0.14401535154491985 0.13489090690169137
3 24 33 23 0.45435090933796096 0.14401535154491985 0.13489090690169137
3 24 25 32 0.45435090933796096 0.14401535154491985 0.13489090690169137
3 32 33 24 0.45435090933796096 0.14401535154491985 0.13489090690169137
3 65 55 56 0.45435090933796096 0.14401535154491985 0.13489090690169137
3 64 65 56 0.45435090933796096 0.14401535154491985 0.13489090690169137
3 56 57 64 0.45435090933796096 0.14401535154491985 0.13489090690169137
3 40 18 39 0.45435090933796096 0.14401535154491985 0.13489090690169137
3 39 18 19 0.45435090933796096 0.14401535154491985 0.13489090690169137
3 19 38 39 0.45435090933796096 0.14401535154491985 0.13489090690169137
3 46 11 12 0.45435090933796096 0.14401535154491985 0.13489090690169137
3 13 45 12 0.45435090933796096 0.14401535154491985 0.13489090690169137
3 45 46 12 0.45435090933796096 0.14401535154491985 0.13489090690169137
3 37 21 36 0.45435090933796096 0.14401535154491985 0.13489090690169137
3 21 35 36 0.45435090933796096 0.14401535154491985 0.13489090690169137
