OFF
438 792 0


26.345 29.6255 11.4205
26.345 29.6255 11.4205
26.4532 29.5603 11.3778
26.5345 29.5085 11.3448
26.605 29.4615 11.3155
26.6745 29.4133 11.286
26.7522 29.357 11.2522
26.8524 29.2808 11.2075
26.8524 29.2808 11.2075
26.8587 29.419 11.2242
26.8658 29.5396 11.2378
26.8735 29.6478 11.249
26.8819 29.7472 11.2585
26.8908 29.8407 11.2667
26.9006 29.9305 11.2737
26.9113 30.0185 11.2799
26.9231 30.1066 11.2852
26.9365 30.1965 11.2898
26.9519 30.2901 11.2936
26.9698 30.3893 11.2965
26.9911 30.4967 11.2983
27.0171 30.6153 11.2987
27.0494 30.749 11.297
27.0494 30.749 11.297
27.0305 30.8948 11.3131
27.014 31.0006 11.325
26.9988 31.0879 11.3349
26.9836 31.1677 11.3441
26.9673 31.2474 11.3533
26.9482 31.3342 11.3635
26.9235 31.4386 11.3758
26.8873 31.5803 11.3928
26.8873 31.5803 11.3928
26.7519 31.5771 11.4385
26.6515 31.5749 11.4719
26.5662 31.5732 11.4997
26.4852 31.5717 11.5259
26.3996 31.5702 11.5532
26.2986 31.5687 11.5849
26.1621 31.5669 11.6271
26.1621 31.5669 11.6271
26.1311 31.4272 11.6316
26.1084 31.3259 11.6343
26.0887 31.2385 11.6364
26.0689 31.1511 11.6381
26.0459 31.0499 11.6396
26.0139 30.9102 11.641
26.0423 30.775 11.6239
26.0674 30.6603 11.6083
26.0904 30.5595 11.5938
26.1119 30.4682 11.58
26.1327 30.383 11.5665
26.1532 30.3013 11.553
26.1739 30.2209 11.5392
26.1954 30.1397 11.5247
26.2183 30.0555 11.5091
26.2435 29.9657 11.4918
26.2719 29.8672 11.4721
26.305 29.7558 11.4489
26.345 29.6255 11.4205
26.6024 29.5651 11.3298
26.5999 29.6637 11.3431
26.5974 29.7579 11.3554
26.5951 29.8484 11.3669
26.8629 29.8992 11.2831
26.8355 29.9565 11.299
26.8086 30.0128 11.3143
26.7822 30.0682 11.3293
26.8826 30.0596 11.2942
26.8543 30.1001 11.3082
26.8262 30.1403 11.3219
26.7983 30.1802 11.3354
26.9479 31.1085 11.3536
26.913 31.0505 11.3627
26.8786 30.9935 11.3714
26.8446 30.9373 11.3798
26.9143 31.2573 11.372
26.8815 31.1827 11.38
26.8495 31.1101 11.3875
26.8181 31.0391 11.3945
26.5675 31.4656 11.4958
26.5686 31.3633 11.4917
26.5698 31.2656 11.4874
26.5708 31.1717 11.4829
26.4179 31.4608 11.5437
26.4351 31.3572 11.5344
26.4515 31.2586 11.5251
26.4672 31.1643 11.5158
26.1376 31.1642 11.6181
26.1843 31.0934 11.6003
26.229 31.0254 11.583
26.2721 30.96 11.5661
26.1735 30.3934 11.555
26.2135 30.4035 11.5438
26.2527 30.4135 11.5327
26.2911 30.4233 11.5217
26.211 30.2462 11.5303
26.2473 30.2709 11.5215
26.2828 30.2952 11.5128
26.3177 30.319 11.5042
26.2517 30.0963 11.503
26.2842 30.1362 11.497
26.3159 30.1751 11.4911
26.347 30.2133 11.4851
26.5389 29.6067 11.3559
26.5431 29.7003 11.3662
26.5471 29.79 11.3757
26.5509 29.8764 11.3845
26.5545 29.9599 11.3928
26.7345 29.4739 11.2739
26.7177 29.5841 11.2939
26.7017 29.6887 11.3124
26.6864 29.7886 11.3297
26.6717 29.8847 11.3458
26.8379 29.6323 11.2593
26.8113 29.7211 11.2795
26.7856 29.8065 11.2986
26.7607 29.8891 11.3166
26.7365 29.9694 11.3338
26.8541 29.8157 11.2763
26.827 29.8823 11.2934
26.8006 29.9473 11.3098
26.7748 30.011 11.3256
26.7493 30.0736 11.3409
26.9066 30.2215 11.3026
26.8767 30.2464 11.3153
26.847 30.2712 11.3279
26.8173 30.296 11.3403
26.7876 30.3208 11.3526
26.9624 31.0366 11.3449
26.9266 30.9862 11.3546
26.8911 30.9363 11.3639
26.8561 30.887 11.3729
26.8213 30.8381 11.3817
26.6443 31.4679 11.4708
26.6374 31.366 11.4694
26.6309 31.2686 11.4676
26.6245 31.1749 11.4655
26.6183 31.0843 11.4631
26.1559 31.2418 11.6162
26.2012 31.1618 11.5986
26.2444 31.0855 11.5815
26.2858 31.0122 11.5648
26.3257 30.9417 11.5484
26.0979 30.9957 11.6211
26.1479 30.9436 11.603
26.1961 30.8934 11.5853
26.2428 30.8448 11.568
26.288 30.7977 11.5511
26.1355 30.5536 11.5798
26.1796 30.5479 11.566
26.2227 30.5423 11.5525
26.2648 30.5368 11.5392
26.3062 30.5315 11.526
26.3009 29.9267 11.4697
26.329 29.9845 11.4673
26.3563 30.0406 11.4647
26.3828 30.0952 11.4621
26.4088 30.1486 11.4594
26.8305 29.5273 11.2483
26.8038 29.6299 11.2706
26.7784 29.7278 11.2915
26.7539 29.8216 11.311
26.7303 29.9121 11.3295
26.7074 29.9999 11.347
26.9376 30.3981 11.3084
26.9055 30.4068 11.3203
26.8733 30.4156 11.3321
26.8411 30.4244 11.3439
26.8088 30.4332 11.3556
26.7763 30.4421 11.3673
26.9769 30.9576 11.3355
26.9402 30.915 11.3458
26.9038 30.8729 11.3558
26.8676 30.8311 11.3655
26.8316 30.7895 11.3751
26.7957 30.748 11.3844
26.1772 31.3312 11.6137
26.2207 31.2404 11.5963
26.2622 31.154 11.5795
26.3017 31.0716 11.5631
26.3397 30.9924 11.547
26.3763 30.9161 11.5311
26.1151 30.6449 11.5929
26.1616 30.63 11.5778
26.2069 30.6154 11.563
26.2512 30.6011 11.5484
26.2945 30.5872 11.534
26.337 30.5736 11.5198
26.4656 29.6528 11.3854
26.4775 29.7413 11.3924
26.4888 29.8262 11.3988
26.4997 29.9081 11.4047
26.5103 29.9873 11.4101
26.5205 30.0643 11.4151
26.5304 30.1395 11.4197
26.9811 30.6056 11.3105
26.9452 30.5958 11.3222
26.9093 30.5861 11.3339
26.8732 30.5763 11.3455
26.8371 30.5665 11.357
26.8008 30.5567 11.3685
26.7643 30.5469 11.38
26.9925 30.8614 11.3243
26.9549 30.8282 11.3353
26.9174 30.7951 11.3461
26.88 30.7622 11.3567
26.8427 30.7294 11.3672
26.8054 30.6966 11.3775
26.768 30.6637 11.3877
26.857 31.4736 11.3998
26.8282 31.372 11.406
26.8006 31.2749 11.4115
26.7739 31.1813 11.4164
26.7481 31.0908 11.4206
26.7229 31.0026 11.4244
26.6982 30.9163 11.4277
26.2063 31.4534 11.6096
26.2476 31.3469 11.5927
26.2866 31.2465 11.5763
26.3236 31.1512 11.5603
26.3589 31.0602 11.5447
26.3928 30.9729 11.5293
26.4255 30.8886 11.514
26.093 30.7486 11.6069
26.1423 30.7229 11.5904
26.1901 30.6979 11.5741
26.2368 30.6736 11.5582
26.2823 30.6499 11.5425
26.3268 30.6268 11.527
26.3704 30.6041 11.5117
26.3681 29.7114 11.4237
26.3901 29.7936 11.4265
26.4113 29.8727 11.4289
26.4317 29.949 11.431
26.4515 30.0229 11.4328
26.4706 30.0947 11.4342
26.4893 30.1647 11.4354
26.3681 29.7114 11.4237
26.3901 29.7936 11.4265
26.4113 29.8727 11.4289
26.4317 29.949 11.431
26.4515 30.0229 11.4328
26.4706 30.0947 11.4342
26.4893 30.1647 11.4354
26.5075 30.2332 11.4363
26.8236 29.4085 11.2349
26.7968 29.5279 11.2599
26.7714 29.6404 11.283
26.7472 29.7474 11.3044
26.7241 29.8496 11.3243
26.7019 29.9481 11.343
26.6803 30.0435 11.3607
26.6592 30.1366 11.3774
26.8939 30.1396 11.2987
26.8649 30.1723 11.312
26.8361 30.2048 11.3251
26.8074 30.2371 11.338
26.7787 30.2694 11.3508
26.7501 30.3017 11.3634
26.7215 30.3339 11.376
26.6929 30.3662 11.3884
26.8911 31.3496 11.3837
26.8598 31.2639 11.391
26.8295 31.1811 11.3976
26.8 31.1007 11.4037
26.7712 31.0222 11.4093
26.743 30.9453 11.4145
26.7151 30.8695 11.4192
26.6875 30.7945 11.4236
26.3276 31.4577 11.5721
26.3549 31.353 11.5595
26.3808 31.2537 11.5472
26.4054 31.159 11.5351
26.4291 31.0682 11.5231
26.4518 30.9806 11.5111
26.4739 30.8957 11.4991
26.4953 30.813 11.4871
26.1921 30.3192 11.5428
26.2302 30.3367 11.5328
26.2675 30.3538 11.5228
26.3042 30.3707 11.513
26.3402 30.3872 11.5034
26.3755 30.4035 11.4937
26.4103 30.4195 11.4842
26.4446 30.4353 11.4748
26.2748 30.0153 11.4874
26.3052 30.0636 11.4831
26.3349 30.1106 11.4787
26.3638 30.1566 11.4743
26.3921 30.2016 11.4699
26.4199 30.2457 11.4654
26.4471 30.289 11.4609
26.4739 30.3317 11.4563
26.8458 29.7275 11.2685
26.819 29.8045 11.287
26.793 29.8791 11.3046
26.7676 29.9518 11.3214
26.7429 30.0228 11.3376
26.7185 30.0925 11.3532
26.6946 30.1611 11.3682
26.6709 30.2288 11.3828
26.6474 30.296 11.3969
26.9574 30.4967 11.3101
26.9236 30.4966 11.3218
26.8898 30.4966 11.3334
26.8558 30.4966 11.345
26.8218 30.4965 11.3565
26.7876 30.4965 11.3681
26.7532 30.4965 11.3796
26.7186 30.4965 11.3911
26.6837 30.4965 11.4027
26.4946 31.4633 11.5193
26.5035 31.3605 11.5126
26.512 31.2624 11.5059
26.5202 31.1683 11.499
26.528 31.0776 11.4921
26.5355 30.9897 11.4849
26.5428 30.9041 11.4776
26.5499 30.8205 11.4701
26.5569 30.7382 11.4623
26.0685 30.8701 11.6223
26.1211 30.8314 11.6041
26.1721 30.794 11.5862
26.2215 30.7577 11.5688
26.2695 30.7225 11.5517
26.3162 30.6881 11.5348
26.3618 30.6546 11.5182
26.4065 30.6219 11.5018
26.4502 30.5898 11.4856
26.8723 29.98 11.289
26.8445 30.0287 11.3039
26.8171 30.0767 11.3184
26.79 30.1242 11.3325
26.7631 30.1713 11.3464
26.7364 30.218 11.36
26.7099 30.2645 11.3733
26.6834 30.3108 11.3865
26.657 30.3571 11.3994
26.6305 30.4034 11.4122
27.0105 30.7281 11.3093
26.9717 30.7073 11.3213
26.9329 30.6865 11.3333
26.8942 30.6657 11.3451
26.8554 30.645 11.3568
26.8165 30.6241 11.3685
26.7774 30.6033 11.38
26.7381 30.5823 11.3916
26.6985 30.5611 11.403
26.6585 30.5398 11.4145
26.7349 31.4704 11.4409
26.7187 31.3689 11.4426
26.7031 31.2717 11.4439
26.6881 31.1781 11.4448
26.6735 31.0875 11.4452
26.6592 30.9994 11.4452
26.6453 30.9133 11.4449
26.6315 30.8286 11.4441
26.6179 30.745 11.443
26.6044 30.6621 11.4416
26.2306 30.1726 11.5171
26.2651 30.2047 11.5097
26.2988 30.2361 11.5023
26.3318 30.2669 11.495
26.3642 30.2972 11.4877
26.396 30.3269 11.4805
26.4273 30.3561 11.4733
26.4581 30.3849 11.4661
26.4885 30.4134 11.459
26.5184 30.4414 11.4518
26.921 30.3071 11.3059
26.8901 30.3241 11.3181
26.8593 30.341 11.3302
26.8284 30.358 11.3423
26.7975 30.3751 11.3543
26.7665 30.3921 11.3662
26.7355 30.4093 11.3781
26.7042 30.4265 11.39
26.6728 30.4438 11.4018
26.6412 30.4613 11.4137
26.6094 30.4789 11.4256
26.9324 31.1799 11.3624
26.8984 31.1142 11.3709
26.8651 31.0498 11.3791
26.8323 30.9865 11.3868
26.8 30.9242 11.3941
26.7681 30.8626 11.4012
26.7363 30.8015 11.4079
26.7047 30.7407 11.4143
26.673 30.68 11.4204
26.6414 30.6192 11.4263
26.6095 30.5582 11.432
26.1192 31.0863 11.6196
26.1674 31.0243 11.6017
26.2137 30.9646 11.5842
26.2585 30.907 11.5671
26.3017 30.8513 11.5503
26.3437 30.7972 11.5338
26.3846 30.7446 11.5175
26.4246 30.6931 11.5013
26.4637 30.6428 11.4853
26.5021 30.5933 11.4693
26.5399 30.5446 11.4534
26.1548 30.4707 11.5673
26.1967 30.4733 11.5548
26.2378 30.4757 11.5425
26.2781 30.4782 11.5303
26.3176 30.4806 11.5183
26.3564 30.4829 11.5065
26.3945 30.4853 11.4947
26.4321 30.4876 11.4831
26.4691 30.4899 11.4716
26.5056 30.4921 11.4601
26.5417 30.4944 11.4488
26.3313 29.8271 11.4489
26.3567 29.8959 11.4488
26.3812 29.9624 11.4485
26.405 30.027 11.4479
26.4281 30.0898 11.4472
26.4507 30.1511 11.4463
26.4727 30.211 11.4453
26.4943 30.2698 11.4441
26.5155 30.3276 11.4427
26.5363 30.3846 11.4411
26.5569 30.4409 11.4394
26.6648 29.5228 11.3037
26.6556 29.6266 11.32
26.6468 29.7256 11.3352
26.6384 29.8204 11.3494
26.6302 29.9118 11.3626
26.6223 30.0003 11.3751
26.6145 30.0864 11.3869
26.6069 30.1706 11.398
26.5994 30.2534 11.4086
26.592 30.335 11.4186
26.5847 30.416 11.4283
26.5773 30.4966 11.4375
26.5773 30.4966 11.4375
3 270 37 38 0.009051828180643096 0.43508801332291924 0.6050947832691959
3 246 6 7 0.009051828180643096 0.43508801332291924 0.6050947832691959
3 7 9 246 0.009051828180643096 0.43508801332291924 0.6050947832691959
3 35 36 312 0.009051828180643096 0.43508801332291924 0.6050947832691959
3 211 262 30 0.009051828180643096 0.43508801332291924 0.6050947832691959
3 381 27 28 0.009051828180643096 0.43508801332291924 0.6050947832691959
3 350 33 34 0.009051828180643096 0.43508801332291924 0.6050947832691959
3 340 21 22 0.009051828180643096 0.43508801332291924 0.6050947832691959
3 356 318 357 0.009051828180643096 0.43508801332291924 0.6050947832691959
3 72 27 381 0.009051828180643096 0.43508801332291924 0.6050947832691959
3 217 38 39 0.009051828180643096 0.43508801332291924 0.6050947832691959
3 217 270 38 0.009051828180643096 0.43508801332291924 0.6050947832691959
3 39 41 217 0.009051828180643096 0.43508801332291924 0.6050947832691959
3 154 57 415 0.009051828180643096 0.43508801332291924 0.6050947832691959
3 9 10 159 0.009051828180643096 0.43508801332291924 0.6050947832691959
3 159 246 9 0.009051828180643096 0.43508801332291924 0.6050947832691959
3 60 3 4 0.009051828180643096 0.43508801332291924 0.6050947832691959
3 104 3 60 0.009051828180643096 0.43508801332291924 0.6050947832691959
3 104 2 3 0.009051828180643096 0.43508801332291924 0.6050947832691959
3 428 62 427 0.009051828180643096 0.43508801332291924 0.6050947832691959
3 80 35 312 0.009051828180643096 0.43508801332291924 0.6050947832691959
3 29 30 262 0.009051828180643096 0.43508801332291924 0.6050947832691959
3 312 85 313 0.009051828180643096 0.43508801332291924 0.6050947832691959
3 313 80 312 0.009051828180643096 0.43508801332291924 0.6050947832691959
3 81 80 313 0.009051828180643096 0.43508801332291924 0.6050947832691959
3 84 85 312 0.009051828180643096 0.43508801332291924 0.6050947832691959
3 37 270 84 0.009051828180643096 0.43508801332291924 0.6050947832691959
3 312 36 84 0.009051828180643096 0.43508801332291924 0.6050947832691959
3 36 37 84 0.009051828180643096 0.43508801332291924 0.6050947832691959
3 272 85 271 0.009051828180643096 0.43508801332291924 0.6050947832691959
3 271 84 270 0.009051828180643096 0.43508801332291924 0.6050947832691959
3 85 84 271 0.009051828180643096 0.43508801332291924 0.6050947832691959
3 31 33 210 0.009051828180643096 0.43508801332291924 0.6050947832691959
3 33 350 210 0.009051828180643096 0.43508801332291924 0.6050947832691959
3 210 30 31 0.009051828180643096 0.43508801332291924 0.6050947832691959
3 211 30 210 0.009051828180643096 0.43508801332291924 0.6050947832691959
3 210 350 211 0.009051828180643096 0.43508801332291924 0.6050947832691959
3 21 340 341 0.009051828180643096 0.43508801332291924 0.6050947832691959
3 206 342 341 0.009051828180643096 0.43508801332291924 0.6050947832691959
3 202 347 348 0.009051828180643096 0.43508801332291924 0.6050947832691959
3 348 310 202 0.009051828180643096 0.43508801332291924 0.6050947832691959
3 267 386 385 0.009051828180643096 0.43508801332291924 0.6050947832691959
3 316 315 87 0.009051828180643096 0.43508801332291924 0.6050947832691959
3 87 274 316 0.009051828180643096 0.43508801332291924 0.6050947832691959
3 317 318 356 0.009051828180643096 0.43508801332291924 0.6050947832691959
3 356 355 317 0.009051828180643096 0.43508801332291924 0.6050947832691959
3 316 274 275 0.009051828180643096 0.43508801332291924 0.6050947832691959
3 275 317 316 0.009051828180643096 0.43508801332291924 0.6050947832691959
3 76 29 262 0.009051828180643096 0.43508801332291924 0.6050947832691959
3 28 29 76 0.009051828180643096 0.43508801332291924 0.6050947832691959
3 381 28 76 0.009051828180643096 0.43508801332291924 0.6050947832691959
3 382 72 381 0.009051828180643096 0.43508801332291924 0.6050947832691959
3 73 72 382 0.009051828180643096 0.43508801332291924 0.6050947832691959
3 353 214 213 0.009051828180643096 0.43508801332291924 0.6050947832691959
3 213 352 353 0.009051828180643096 0.43508801332291924 0.6050947832691959
3 212 352 213 0.009051828180643096 0.43508801332291924 0.6050947832691959
3 285 368 411 0.009051828180643096 0.43508801332291924 0.6050947832691959
3 225 48 183 0.009051828180643096 0.43508801332291924 0.6050947832691959
3 415 57 414 0.009051828180643096 0.43508801332291924 0.6050947832691959
3 57 58 414 0.009051828180643096 0.43508801332291924 0.6050947832691959
3 414 240 415 0.009051828180643096 0.43508801332291924 0.6050947832691959
3 415 240 241 0.009051828180643096 0.43508801332291924 0.6050947832691959
3 111 427 426 0.009051828180643096 0.43508801332291924 0.6050947832691959
3 6 246 109 0.009051828180643096 0.43508801332291924 0.6050947832691959
3 109 5 6 0.009051828180643096 0.43508801332291924 0.6050947832691959
3 114 10 11 0.009051828180643096 0.43508801332291924 0.6050947832691959
3 114 159 10 0.009051828180643096 0.43508801332291924 0.6050947832691959
3 189 105 190 0.009051828180643096 0.43508801332291924 0.6050947832691959
3 189 104 105 0.009051828180643096 0.43508801332291924 0.6050947832691959
3 2 104 189 0.009051828180643096 0.43508801332291924 0.6050947832691959
3 0 2 189 0.009051828180643096 0.43508801332291924 0.6050947832691959
3 62 105 61 0.009051828180643096 0.43508801332291924 0.6050947832691959
3 61 427 62 0.009051828180643096 0.43508801332291924 0.6050947832691959
3 61 426 427 0.009051828180643096 0.43508801332291924 0.6050947832691959
3 105 104 61 0.009051828180643096 0.43508801332291924 0.6050947832691959
3 61 104 60 0.009051828180643096 0.43508801332291924 0.6050947832691959
3 60 426 61 0.009051828180643096 0.43508801332291924 0.6050947832691959
3 190 105 106 0.009051828180643096 0.43508801332291924 0.6050947832691959
3 106 105 62 0.009051828180643096 0.43508801332291924 0.6050947832691959
3 134 350 34 0.009051828180643096 0.43508801332291924 0.6050947832691959
3 34 35 134 0.009051828180643096 0.43508801332291924 0.6050947832691959
3 35 80 134 0.009051828180643096 0.43508801332291924 0.6050947832691959
3 83 315 316 0.009051828180643096 0.43508801332291924 0.6050947832691959
3 316 317 138 0.009051828180643096 0.43508801332291924 0.6050947832691959
3 138 317 355 0.009051828180643096 0.43508801332291924 0.6050947832691959
3 138 83 316 0.009051828180643096 0.43508801332291924 0.6050947832691959
3 137 83 138 0.009051828180643096 0.43508801332291924 0.6050947832691959
3 81 313 314 0.009051828180643096 0.43508801332291924 0.6050947832691959
3 315 83 314 0.009051828180643096 0.43508801332291924 0.6050947832691959
3 314 87 315 0.009051828180643096 0.43508801332291924 0.6050947832691959
3 206 175 207 0.009051828180643096 0.43508801332291924 0.6050947832691959
3 343 197 342 0.009051828180643096 0.43508801332291924 0.6050947832691959
3 198 197 343 0.009051828180643096 0.43508801332291924 0.6050947832691959
3 343 342 206 0.009051828180643096 0.43508801332291924 0.6050947832691959
3 206 207 343 0.009051828180643096 0.43508801332291924 0.6050947832691959
3 348 347 390 0.009051828180643096 0.43508801332291924 0.6050947832691959
3 390 349 348 0.009051828180643096 0.43508801332291924 0.6050947832691959
3 311 310 348 0.009051828180643096 0.43508801332291924 0.6050947832691959
3 348 349 311 0.009051828180643096 0.43508801332291924 0.6050947832691959
3 345 201 200 0.009051828180643096 0.43508801332291924 0.6050947832691959
3 64 13 14 0.009051828180643096 0.43508801332291924 0.6050947832691959
3 434 433 302 0.009051828180643096 0.43508801332291924 0.6050947832691959
3 339 435 434 0.009051828180643096 0.43508801332291924 0.6050947832691959
3 304 197 198 0.009051828180643096 0.43508801332291924 0.6050947832691959
3 304 303 197 0.009051828180643096 0.43508801332291924 0.6050947832691959
3 277 320 319 0.009051828180643096 0.43508801332291924 0.6050947832691959
3 319 318 277 0.009051828180643096 0.43508801332291924 0.6050947832691959
3 319 357 318 0.009051828180643096 0.43508801332291924 0.6050947832691959
3 358 269 357 0.009051828180643096 0.43508801332291924 0.6050947832691959
3 357 319 358 0.009051828180643096 0.43508801332291924 0.6050947832691959
3 358 319 320 0.009051828180643096 0.43508801332291924 0.6050947832691959
3 358 320 359 0.009051828180643096 0.43508801332291924 0.6050947832691959
3 216 355 356 0.009051828180643096 0.43508801332291924 0.6050947832691959
3 215 267 266 0.009051828180643096 0.43508801332291924 0.6050947832691959
3 266 214 215 0.009051828180643096 0.43508801332291924 0.6050947832691959
3 355 216 215 0.009051828180643096 0.43508801332291924 0.6050947832691959
3 215 216 267 0.009051828180643096 0.43508801332291924 0.6050947832691959
3 51 52 278 0.009051828180643096 0.43508801332291924 0.6050947832691959
3 278 92 51 0.009051828180643096 0.43508801332291924 0.6050947832691959
3 321 144 46 0.009051828180643096 0.43508801332291924 0.6050947832691959
3 321 46 47 0.009051828180643096 0.43508801332291924 0.6050947832691959
3 47 322 321 0.009051828180643096 0.43508801332291924 0.6050947832691959
3 46 144 45 0.009051828180643096 0.43508801332291924 0.6050947832691959
3 274 87 273 0.009051828180643096 0.43508801332291924 0.6050947832691959
3 272 220 273 0.009051828180643096 0.43508801332291924 0.6050947832691959
3 136 137 353 0.009051828180643096 0.43508801332291924 0.6050947832691959
3 353 352 136 0.009051828180643096 0.43508801332291924 0.6050947832691959
3 351 212 211 0.009051828180643096 0.43508801332291924 0.6050947832691959
3 351 352 212 0.009051828180643096 0.43508801332291924 0.6050947832691959
3 211 350 351 0.009051828180643096 0.43508801332291924 0.6050947832691959
3 350 134 351 0.009051828180643096 0.43508801332291924 0.6050947832691959
3 265 213 214 0.009051828180643096 0.43508801332291924 0.6050947832691959
3 265 214 266 0.009051828180643096 0.43508801332291924 0.6050947832691959
3 266 79 265 0.009051828180643096 0.43508801332291924 0.6050947832691959
3 77 382 381 0.009051828180643096 0.43508801332291924 0.6050947832691959
3 381 76 77 0.009051828180643096 0.43508801332291924 0.6050947832691959
3 206 341 205 0.009051828180643096 0.43508801332291924 0.6050947832691959
3 205 341 340 0.009051828180643096 0.43508801332291924 0.6050947832691959
3 174 205 173 0.009051828180643096 0.43508801332291924 0.6050947832691959
3 174 175 206 0.009051828180643096 0.43508801332291924 0.6050947832691959
3 206 205 174 0.009051828180643096 0.43508801332291924 0.6050947832691959
3 129 72 73 0.009051828180643096 0.43508801332291924 0.6050947832691959
3 27 72 26 0.009051828180643096 0.43508801332291924 0.6050947832691959
3 72 129 26 0.009051828180643096 0.43508801332291924 0.6050947832691959
3 26 129 25 0.009051828180643096 0.43508801332291924 0.6050947832691959
3 369 411 368 0.009051828180643096 0.43508801332291924 0.6050947832691959
3 434 435 423 0.009051828180643096 0.43508801332291924 0.6050947832691959
3 423 369 368 0.009051828180643096 0.43508801332291924 0.6050947832691959
3 285 411 410 0.009051828180643096 0.43508801332291924 0.6050947832691959
3 402 401 412 0.009051828180643096 0.43508801332291924 0.6050947832691959
3 401 411 412 0.009051828180643096 0.43508801332291924 0.6050947832691959
3 411 369 412 0.009051828180643096 0.43508801332291924 0.6050947832691959
3 367 368 285 0.009051828180643096 0.43508801332291924 0.6050947832691959
3 367 423 368 0.009051828180643096 0.43508801332291924 0.6050947832691959
3 224 322 47 0.009051828180643096 0.43508801332291924 0.6050947832691959
3 47 48 224 0.009051828180643096 0.43508801332291924 0.6050947832691959
3 48 225 224 0.009051828180643096 0.43508801332291924 0.6050947832691959
3 403 149 50 0.009051828180643096 0.43508801332291924 0.6050947832691959
3 403 92 404 0.009051828180643096 0.43508801332291924 0.6050947832691959
3 50 51 403 0.009051828180643096 0.43508801332291924 0.6050947832691959
3 403 51 92 0.009051828180643096 0.43508801332291924 0.6050947832691959
3 50 149 49 0.009051828180643096 0.43508801332291924 0.6050947832691959
3 183 48 49 0.009051828180643096 0.43508801332291924 0.6050947832691959
3 49 149 183 0.009051828180643096 0.43508801332291924 0.6050947832691959
3 187 229 228 0.009051828180643096 0.43508801332291924 0.6050947832691959
3 229 326 228 0.009051828180643096 0.43508801332291924 0.6050947832691959
3 240 414 232 0.009051828180643096 0.43508801332291924 0.6050947832691959
3 232 414 58 0.009051828180643096 0.43508801332291924 0.6050947832691959
3 154 155 56 0.009051828180643096 0.43508801332291924 0.6050947832691959
3 57 154 56 0.009051828180643096 0.43508801332291924 0.6050947832691959
3 156 155 416 0.009051828180643096 0.43508801332291924 0.6050947832691959
3 415 241 416 0.009051828180643096 0.43508801332291924 0.6050947832691959
3 416 154 415 0.009051828180643096 0.43508801332291924 0.6050947832691959
3 416 155 154 0.009051828180643096 0.43508801332291924 0.6050947832691959
3 246 159 247 0.009051828180643096 0.43508801332291924 0.6050947832691959
3 247 109 246 0.009051828180643096 0.43508801332291924 0.6050947832691959
3 190 106 191 0.009051828180643096 0.43508801332291924 0.6050947832691959
3 191 232 190 0.009051828180643096 0.43508801332291924 0.6050947832691959
3 240 232 191 0.009051828180643096 0.43508801332291924 0.6050947832691959
3 191 106 107 0.009051828180643096 0.43508801332291924 0.6050947832691959
3 107 106 63 0.009051828180643096 0.43508801332291924 0.6050947832691959
3 63 62 428 0.009051828180643096 0.43508801332291924 0.6050947832691959
3 63 106 62 0.009051828180643096 0.43508801332291924 0.6050947832691959
3 353 137 354 0.009051828180643096 0.43508801332291924 0.6050947832691959
3 137 138 354 0.009051828180643096 0.43508801332291924 0.6050947832691959
3 354 214 353 0.009051828180643096 0.43508801332291924 0.6050947832691959
3 354 138 355 0.009051828180643096 0.43508801332291924 0.6050947832691959
3 355 215 354 0.009051828180643096 0.43508801332291924 0.6050947832691959
3 354 215 214 0.009051828180643096 0.43508801332291924 0.6050947832691959
3 86 313 85 0.009051828180643096 0.43508801332291924 0.6050947832691959
3 86 314 313 0.009051828180643096 0.43508801332291924 0.6050947832691959
3 86 85 272 0.009051828180643096 0.43508801332291924 0.6050947832691959
3 87 314 86 0.009051828180643096 0.43508801332291924 0.6050947832691959
3 272 273 86 0.009051828180643096 0.43508801332291924 0.6050947832691959
3 86 273 87 0.009051828180643096 0.43508801332291924 0.6050947832691959
3 43 44 88 0.009051828180643096 0.43508801332291924 0.6050947832691959
3 176 207 175 0.009051828180643096 0.43508801332291924 0.6050947832691959
3 208 207 176 0.009051828180643096 0.43508801332291924 0.6050947832691959
3 176 175 387 0.009051828180643096 0.43508801332291924 0.6050947832691959
3 389 390 347 0.009051828180643096 0.43508801332291924 0.6050947832691959
3 359 390 389 0.009051828180643096 0.43508801332291924 0.6050947832691959
3 389 358 359 0.009051828180643096 0.43508801332291924 0.6050947832691959
3 349 390 391 0.009051828180643096 0.43508801332291924 0.6050947832691959
3 391 402 436 0.009051828180643096 0.43508801332291924 0.6050947832691959
3 391 390 359 0.009051828180643096 0.43508801332291924 0.6050947832691959
3 391 401 402 0.009051828180643096 0.43508801332291924 0.6050947832691959
3 359 401 391 0.009051828180643096 0.43508801332291924 0.6050947832691959
3 380 391 436 0.009051828180643096 0.43508801332291924 0.6050947832691959
3 349 391 380 0.009051828180643096 0.43508801332291924 0.6050947832691959
3 209 345 208 0.009051828180643096 0.43508801332291924 0.6050947832691959
3 209 389 347 0.009051828180643096 0.43508801332291924 0.6050947832691959
3 208 176 209 0.009051828180643096 0.43508801332291924 0.6050947832691959
3 201 345 346 0.009051828180643096 0.43508801332291924 0.6050947832691959
3 347 202 346 0.009051828180643096 0.43508801332291924 0.6050947832691959
3 346 202 201 0.009051828180643096 0.43508801332291924 0.6050947832691959
3 346 209 347 0.009051828180643096 0.43508801332291924 0.6050947832691959
3 345 209 346 0.009051828180643096 0.43508801332291924 0.6050947832691959
3 208 345 344 0.009051828180643096 0.43508801332291924 0.6050947832691959
3 344 207 208 0.009051828180643096 0.43508801332291924 0.6050947832691959
3 344 343 207 0.009051828180643096 0.43508801332291924 0.6050947832691959
3 198 343 344 0.009051828180643096 0.43508801332291924 0.6050947832691959
3 64 14 65 0.009051828180643096 0.43508801332291924 0.6050947832691959
3 111 248 161 0.009051828180643096 0.43508801332291924 0.6050947832691959
3 108 107 429 0.009051828180643096 0.43508801332291924 0.6050947832691959
3 107 63 429 0.009051828180643096 0.43508801332291924 0.6050947832691959
3 434 302 338 0.009051828180643096 0.43508801332291924 0.6050947832691959
3 338 339 434 0.009051828180643096 0.43508801332291924 0.6050947832691959
3 261 339 338 0.009051828180643096 0.43508801332291924 0.6050947832691959
3 337 302 336 0.009051828180643096 0.43508801332291924 0.6050947832691959
3 261 338 337 0.009051828180643096 0.43508801332291924 0.6050947832691959
3 337 338 302 0.009051828180643096 0.43508801332291924 0.6050947832691959
3 377 339 261 0.009051828180643096 0.43508801332291924 0.6050947832691959
3 342 197 196 0.009051828180643096 0.43508801332291924 0.6050947832691959
3 21 341 196 0.009051828180643096 0.43508801332291924 0.6050947832691959
3 196 341 342 0.009051828180643096 0.43508801332291924 0.6050947832691959
3 303 304 165 0.009051828180643096 0.43508801332291924 0.6050947832691959
3 200 306 199 0.009051828180643096 0.43508801332291924 0.6050947832691959
3 198 344 199 0.009051828180643096 0.43508801332291924 0.6050947832691959
3 199 345 200 0.009051828180643096 0.43508801332291924 0.6050947832691959
3 199 344 345 0.009051828180643096 0.43508801332291924 0.6050947832691959
3 309 202 310 0.009051828180643096 0.43508801332291924 0.6050947832691959
3 310 377 309 0.009051828180643096 0.43508801332291924 0.6050947832691959
3 309 377 170 0.009051828180643096 0.43508801332291924 0.6050947832691959
3 386 267 268 0.009051828180643096 0.43508801332291924 0.6050947832691959
3 267 216 268 0.009051828180643096 0.43508801332291924 0.6050947832691959
3 387 386 268 0.009051828180643096 0.43508801332291924 0.6050947832691959
3 268 269 387 0.009051828180643096 0.43508801332291924 0.6050947832691959
3 357 269 268 0.009051828180643096 0.43508801332291924 0.6050947832691959
3 356 357 268 0.009051828180643096 0.43508801332291924 0.6050947832691959
3 268 216 356 0.009051828180643096 0.43508801332291924 0.6050947832691959
3 91 143 181 0.009051828180643096 0.43508801332291924 0.6050947832691959
3 275 223 276 0.009051828180643096 0.43508801332291924 0.6050947832691959
3 318 317 276 0.009051828180643096 0.43508801332291924 0.6050947832691959
3 317 275 276 0.009051828180643096 0.43508801332291924 0.6050947832691959
3 277 318 276 0.009051828180643096 0.43508801332291924 0.6050947832691959
3 276 223 277 0.009051828180643096 0.43508801332291924 0.6050947832691959
3 222 223 275 0.009051828180643096 0.43508801332291924 0.6050947832691959
3 222 181 143 0.009051828180643096 0.43508801332291924 0.6050947832691959
3 222 275 274 0.009051828180643096 0.43508801332291924 0.6050947832691959
3 392 45 144 0.009051828180643096 0.43508801332291924 0.6050947832691959
3 88 44 392 0.009051828180643096 0.43508801332291924 0.6050947832691959
3 44 45 392 0.009051828180643096 0.43508801332291924 0.6050947832691959
3 219 220 272 0.009051828180643096 0.43508801332291924 0.6050947832691959
3 272 271 219 0.009051828180643096 0.43508801332291924 0.6050947832691959
3 178 219 218 0.009051828180643096 0.43508801332291924 0.6050947832691959
3 218 219 271 0.009051828180643096 0.43508801332291924 0.6050947832691959
3 270 217 218 0.009051828180643096 0.43508801332291924 0.6050947832691959
3 218 271 270 0.009051828180643096 0.43508801332291924 0.6050947832691959
3 81 314 82 0.009051828180643096 0.43508801332291924 0.6050947832691959
3 82 136 81 0.009051828180643096 0.43508801332291924 0.6050947832691959
3 82 314 83 0.009051828180643096 0.43508801332291924 0.6050947832691959
3 82 83 137 0.009051828180643096 0.43508801332291924 0.6050947832691959
3 137 136 82 0.009051828180643096 0.43508801332291924 0.6050947832691959
3 135 136 352 0.009051828180643096 0.43508801332291924 0.6050947832691959
3 352 351 135 0.009051828180643096 0.43508801332291924 0.6050947832691959
3 81 136 135 0.009051828180643096 0.43508801332291924 0.6050947832691959
3 135 351 134 0.009051828180643096 0.43508801332291924 0.6050947832691959
3 135 80 81 0.009051828180643096 0.43508801332291924 0.6050947832691959
3 135 134 80 0.009051828180643096 0.43508801332291924 0.6050947832691959
3 73 382 383 0.009051828180643096 0.43508801332291924 0.6050947832691959
3 382 77 78 0.009051828180643096 0.43508801332291924 0.6050947832691959
3 78 383 382 0.009051828180643096 0.43508801332291924 0.6050947832691959
3 78 265 79 0.009051828180643096 0.43508801332291924 0.6050947832691959
3 79 383 78 0.009051828180643096 0.43508801332291924 0.6050947832691959
3 263 77 76 0.009051828180643096 0.43508801332291924 0.6050947832691959
3 263 76 262 0.009051828180643096 0.43508801332291924 0.6050947832691959
3 263 262 211 0.009051828180643096 0.43508801332291924 0.6050947832691959
3 211 212 263 0.009051828180643096 0.43508801332291924 0.6050947832691959
3 24 172 203 0.009051828180643096 0.43508801332291924 0.6050947832691959
3 22 24 203 0.009051828180643096 0.43508801332291924 0.6050947832691959
3 385 75 384 0.009051828180643096 0.43508801332291924 0.6050947832691959
3 266 267 384 0.009051828180643096 0.43508801332291924 0.6050947832691959
3 384 267 385 0.009051828180643096 0.43508801332291924 0.6050947832691959
3 384 79 266 0.009051828180643096 0.43508801332291924 0.6050947832691959
3 384 383 79 0.009051828180643096 0.43508801332291924 0.6050947832691959
3 132 174 173 0.009051828180643096 0.43508801332291924 0.6050947832691959
3 132 75 385 0.009051828180643096 0.43508801332291924 0.6050947832691959
3 175 174 133 0.009051828180643096 0.43508801332291924 0.6050947832691959
3 387 175 133 0.009051828180643096 0.43508801332291924 0.6050947832691959
3 133 386 387 0.009051828180643096 0.43508801332291924 0.6050947832691959
3 174 132 133 0.009051828180643096 0.43508801332291924 0.6050947832691959
3 385 386 133 0.009051828180643096 0.43508801332291924 0.6050947832691959
3 133 132 385 0.009051828180643096 0.43508801332291924 0.6050947832691959
3 25 129 171 0.009051828180643096 0.43508801332291924 0.6050947832691959
3 24 25 171 0.009051828180643096 0.43508801332291924 0.6050947832691959
3 171 172 24 0.009051828180643096 0.43508801332291924 0.6050947832691959
3 424 423 435 0.009051828180643096 0.43508801332291924 0.6050947832691959
3 369 423 424 0.009051828180643096 0.43508801332291924 0.6050947832691959
3 424 380 436 0.009051828180643096 0.43508801332291924 0.6050947832691959
3 435 380 424 0.009051828180643096 0.43508801332291924 0.6050947832691959
3 436 402 413 0.009051828180643096 0.43508801332291924 0.6050947832691959
3 402 412 413 0.009051828180643096 0.43508801332291924 0.6050947832691959
3 413 424 436 0.009051828180643096 0.43508801332291924 0.6050947832691959
3 413 412 369 0.009051828180643096 0.43508801332291924 0.6050947832691959
3 369 424 413 0.009051828180643096 0.43508801332291924 0.6050947832691959
3 421 245 433 0.009051828180643096 0.43508801332291924 0.6050947832691959
3 91 90 394 0.009051828180643096 0.43508801332291924 0.6050947832691959
3 144 321 145 0.009051828180643096 0.43508801332291924 0.6050947832691959
3 146 394 145 0.009051828180643096 0.43508801332291924 0.6050947832691959
3 145 321 322 0.009051828180643096 0.43508801332291924 0.6050947832691959
3 322 146 145 0.009051828180643096 0.43508801332291924 0.6050947832691959
3 226 324 225 0.009051828180643096 0.43508801332291924 0.6050947832691959
3 226 185 227 0.009051828180643096 0.43508801332291924 0.6050947832691959
3 226 225 183 0.009051828180643096 0.43508801332291924 0.6050947832691959
3 225 324 323 0.009051828180643096 0.43508801332291924 0.6050947832691959
3 322 224 323 0.009051828180643096 0.43508801332291924 0.6050947832691959
3 323 224 225 0.009051828180643096 0.43508801332291924 0.6050947832691959
3 323 324 147 0.009051828180643096 0.43508801332291924 0.6050947832691959
3 323 146 322 0.009051828180643096 0.43508801332291924 0.6050947832691959
3 147 146 323 0.009051828180643096 0.43508801332291924 0.6050947832691959
3 407 153 406 0.009051828180643096 0.43508801332291924 0.6050947832691959
3 406 153 152 0.009051828180643096 0.43508801332291924 0.6050947832691959
3 152 405 406 0.009051828180643096 0.43508801332291924 0.6050947832691959
3 152 153 187 0.009051828180643096 0.43508801332291924 0.6050947832691959
3 404 92 93 0.009051828180643096 0.43508801332291924 0.6050947832691959
3 93 405 404 0.009051828180643096 0.43508801332291924 0.6050947832691959
3 325 226 227 0.009051828180643096 0.43508801332291924 0.6050947832691959
3 324 226 325 0.009051828180643096 0.43508801332291924 0.6050947832691959
3 227 228 325 0.009051828180643096 0.43508801332291924 0.6050947832691959
3 325 228 326 0.009051828180643096 0.43508801332291924 0.6050947832691959
3 325 326 397 0.009051828180643096 0.43508801332291924 0.6050947832691959
3 399 320 277 0.009051828180643096 0.43508801332291924 0.6050947832691959
3 187 228 186 0.009051828180643096 0.43508801332291924 0.6050947832691959
3 186 152 187 0.009051828180643096 0.43508801332291924 0.6050947832691959
3 227 185 186 0.009051828180643096 0.43508801332291924 0.6050947832691959
3 186 228 227 0.009051828180643096 0.43508801332291924 0.6050947832691959
3 238 189 190 0.009051828180643096 0.43508801332291924 0.6050947832691959
3 190 232 238 0.009051828180643096 0.43508801332291924 0.6050947832691959
3 0 189 238 0.009051828180643096 0.43508801332291924 0.6050947832691959
3 238 58 0 0.009051828180643096 0.43508801332291924 0.6050947832691959
3 238 232 58 0.009051828180643096 0.43508801332291924 0.6050947832691959
3 55 56 286 0.009051828180643096 0.43508801332291924 0.6050947832691959
3 286 56 155 0.009051828180643096 0.43508801332291924 0.6050947832691959
3 241 193 242 0.009051828180643096 0.43508801332291924 0.6050947832691959
3 236 418 242 0.009051828180643096 0.43508801332291924 0.6050947832691959
3 159 114 160 0.009051828180643096 0.43508801332291924 0.6050947832691959
3 160 247 159 0.009051828180643096 0.43508801332291924 0.6050947832691959
3 109 247 110 0.009051828180643096 0.43508801332291924 0.6050947832691959
3 110 248 111 0.009051828180643096 0.43508801332291924 0.6050947832691959
3 111 426 110 0.009051828180643096 0.43508801332291924 0.6050947832691959
3 110 160 248 0.009051828180643096 0.43508801332291924 0.6050947832691959
3 247 160 110 0.009051828180643096 0.43508801332291924 0.6050947832691959
3 192 191 107 0.009051828180643096 0.43508801332291924 0.6050947832691959
3 192 193 241 0.009051828180643096 0.43508801332291924 0.6050947832691959
3 192 241 240 0.009051828180643096 0.43508801332291924 0.6050947832691959
3 240 191 192 0.009051828180643096 0.43508801332291924 0.6050947832691959
3 192 107 108 0.009051828180643096 0.43508801332291924 0.6050947832691959
3 108 193 192 0.009051828180643096 0.43508801332291924 0.6050947832691959
3 42 43 139 0.009051828180643096 0.43508801332291924 0.6050947832691959
3 139 43 88 0.009051828180643096 0.43508801332291924 0.6050947832691959
3 379 311 349 0.009051828180643096 0.43508801332291924 0.6050947832691959
3 349 380 379 0.009051828180643096 0.43508801332291924 0.6050947832691959
3 435 339 379 0.009051828180643096 0.43508801332291924 0.6050947832691959
3 379 380 435 0.009051828180643096 0.43508801332291924 0.6050947832691959
3 388 209 176 0.009051828180643096 0.43508801332291924 0.6050947832691959
3 389 209 388 0.009051828180643096 0.43508801332291924 0.6050947832691959
3 388 176 387 0.009051828180643096 0.43508801332291924 0.6050947832691959
3 387 269 388 0.009051828180643096 0.43508801332291924 0.6050947832691959
3 269 358 388 0.009051828180643096 0.43508801332291924 0.6050947832691959
3 358 389 388 0.009051828180643096 0.43508801332291924 0.6050947832691959
3 294 114 11 0.009051828180643096 0.43508801332291924 0.6050947832691959
3 11 12 294 0.009051828180643096 0.43508801332291924 0.6050947832691959
3 12 295 294 0.009051828180643096 0.43508801332291924 0.6050947832691959
3 112 427 111 0.009051828180643096 0.43508801332291924 0.6050947832691959
3 428 427 112 0.009051828180643096 0.43508801332291924 0.6050947832691959
3 112 250 428 0.009051828180643096 0.43508801332291924 0.6050947832691959
3 251 163 118 0.009051828180643096 0.43508801332291924 0.6050947832691959
3 113 63 428 0.009051828180643096 0.43508801332291924 0.6050947832691959
3 113 429 63 0.009051828180643096 0.43508801332291924 0.6050947832691959
3 428 250 113 0.009051828180643096 0.43508801332291924 0.6050947832691959
3 113 250 163 0.009051828180643096 0.43508801332291924 0.6050947832691959
3 163 251 113 0.009051828180643096 0.43508801332291924 0.6050947832691959
3 113 251 429 0.009051828180643096 0.43508801332291924 0.6050947832691959
3 194 193 108 0.009051828180643096 0.43508801332291924 0.6050947832691959
3 236 242 194 0.009051828180643096 0.43508801332291924 0.6050947832691959
3 194 242 193 0.009051828180643096 0.43508801332291924 0.6050947832691959
3 195 236 194 0.009051828180643096 0.43508801332291924 0.6050947832691959
3 194 431 195 0.009051828180643096 0.43508801332291924 0.6050947832691959
3 195 431 432 0.009051828180643096 0.43508801332291924 0.6050947832691959
3 432 245 195 0.009051828180643096 0.43508801332291924 0.6050947832691959
3 433 245 432 0.009051828180643096 0.43508801332291924 0.6050947832691959
3 336 302 301 0.009051828180643096 0.43508801332291924 0.6050947832691959
3 301 302 433 0.009051828180643096 0.43508801332291924 0.6050947832691959
3 301 335 336 0.009051828180643096 0.43508801332291924 0.6050947832691959
3 300 335 301 0.009051828180643096 0.43508801332291924 0.6050947832691959
3 433 432 301 0.009051828180643096 0.43508801332291924 0.6050947832691959
3 16 17 254 0.009051828180643096 0.43508801332291924 0.6050947832691959
3 197 303 20 0.009051828180643096 0.43508801332291924 0.6050947832691959
3 20 196 197 0.009051828180643096 0.43508801332291924 0.6050947832691959
3 21 196 20 0.009051828180643096 0.43508801332291924 0.6050947832691959
3 258 259 336 0.009051828180643096 0.43508801332291924 0.6050947832691959
3 336 335 258 0.009051828180643096 0.43508801332291924 0.6050947832691959
3 370 165 371 0.009051828180643096 0.43508801332291924 0.6050947832691959
3 170 375 169 0.009051828180643096 0.43508801332291924 0.6050947832691959
3 306 168 167 0.009051828180643096 0.43508801332291924 0.6050947832691959
3 261 337 260 0.009051828180643096 0.43508801332291924 0.6050947832691959
3 336 259 260 0.009051828180643096 0.43508801332291924 0.6050947832691959
3 260 337 336 0.009051828180643096 0.43508801332291924 0.6050947832691959
3 170 377 376 0.009051828180643096 0.43508801332291924 0.6050947832691959
3 376 375 170 0.009051828180643096 0.43508801332291924 0.6050947832691959
3 376 377 261 0.009051828180643096 0.43508801332291924 0.6050947832691959
3 261 260 376 0.009051828180643096 0.43508801332291924 0.6050947832691959
3 376 260 375 0.009051828180643096 0.43508801332291924 0.6050947832691959
3 168 169 374 0.009051828180643096 0.43508801332291924 0.6050947832691959
3 374 169 375 0.009051828180643096 0.43508801332291924 0.6050947832691959
3 308 309 170 0.009051828180643096 0.43508801332291924 0.6050947832691959
3 170 169 308 0.009051828180643096 0.43508801332291924 0.6050947832691959
3 201 202 308 0.009051828180643096 0.43508801332291924 0.6050947832691959
3 202 309 308 0.009051828180643096 0.43508801332291924 0.6050947832691959
3 147 324 148 0.009051828180643096 0.43508801332291924 0.6050947832691959
3 148 396 147 0.009051828180643096 0.43508801332291924 0.6050947832691959
3 397 396 148 0.009051828180643096 0.43508801332291924 0.6050947832691959
3 148 325 397 0.009051828180643096 0.43508801332291924 0.6050947832691959
3 324 325 148 0.009051828180643096 0.43508801332291924 0.6050947832691959
3 143 396 182 0.009051828180643096 0.43508801332291924 0.6050947832691959
3 182 222 143 0.009051828180643096 0.43508801332291924 0.6050947832691959
3 223 222 182 0.009051828180643096 0.43508801332291924 0.6050947832691959
3 397 223 182 0.009051828180643096 0.43508801332291924 0.6050947832691959
3 182 396 397 0.009051828180643096 0.43508801332291924 0.6050947832691959
3 395 143 91 0.009051828180643096 0.43508801332291924 0.6050947832691959
3 395 396 143 0.009051828180643096 0.43508801332291924 0.6050947832691959
3 147 396 395 0.009051828180643096 0.43508801332291924 0.6050947832691959
3 395 146 147 0.009051828180643096 0.43508801332291924 0.6050947832691959
3 91 394 395 0.009051828180643096 0.43508801332291924 0.6050947832691959
3 395 394 146 0.009051828180643096 0.43508801332291924 0.6050947832691959
3 393 392 144 0.009051828180643096 0.43508801332291924 0.6050947832691959
3 144 145 393 0.009051828180643096 0.43508801332291924 0.6050947832691959
3 393 394 90 0.009051828180643096 0.43508801332291924 0.6050947832691959
3 393 145 394 0.009051828180643096 0.43508801332291924 0.6050947832691959
3 88 392 89 0.009051828180643096 0.43508801332291924 0.6050947832691959
3 392 393 89 0.009051828180643096 0.43508801332291924 0.6050947832691959
3 90 141 89 0.009051828180643096 0.43508801332291924 0.6050947832691959
3 89 393 90 0.009051828180643096 0.43508801332291924 0.6050947832691959
3 220 219 179 0.009051828180643096 0.43508801332291924 0.6050947832691959
3 179 219 178 0.009051828180643096 0.43508801332291924 0.6050947832691959
3 220 179 180 0.009051828180643096 0.43508801332291924 0.6050947832691959
3 180 179 141 0.009051828180643096 0.43508801332291924 0.6050947832691959
3 77 263 264 0.009051828180643096 0.43508801332291924 0.6050947832691959
3 264 78 77 0.009051828180643096 0.43508801332291924 0.6050947832691959
3 212 213 264 0.009051828180643096 0.43508801332291924 0.6050947832691959
3 264 263 212 0.009051828180643096 0.43508801332291924 0.6050947832691959
3 213 265 264 0.009051828180643096 0.43508801332291924 0.6050947832691959
3 265 78 264 0.009051828180643096 0.43508801332291924 0.6050947832691959
3 173 205 204 0.009051828180643096 0.43508801332291924 0.6050947832691959
3 204 172 173 0.009051828180643096 0.43508801332291924 0.6050947832691959
3 204 203 172 0.009051828180643096 0.43508801332291924 0.6050947832691959
3 204 205 340 0.009051828180643096 0.43508801332291924 0.6050947832691959
3 204 340 22 0.009051828180643096 0.43508801332291924 0.6050947832691959
3 22 203 204 0.009051828180643096 0.43508801332291924 0.6050947832691959
3 130 129 73 0.009051828180643096 0.43508801332291924 0.6050947832691959
3 130 171 129 0.009051828180643096 0.43508801332291924 0.6050947832691959
3 172 171 130 0.009051828180643096 0.43508801332291924 0.6050947832691959
3 409 230 188 0.009051828180643096 0.43508801332291924 0.6050947832691959
3 187 153 188 0.009051828180643096 0.43508801332291924 0.6050947832691959
3 188 229 187 0.009051828180643096 0.43508801332291924 0.6050947832691959
3 188 230 229 0.009051828180643096 0.43508801332291924 0.6050947832691959
3 434 423 422 0.009051828180643096 0.43508801332291924 0.6050947832691959
3 422 433 434 0.009051828180643096 0.43508801332291924 0.6050947832691959
3 422 421 433 0.009051828180643096 0.43508801332291924 0.6050947832691959
3 184 226 183 0.009051828180643096 0.43508801332291924 0.6050947832691959
3 185 226 184 0.009051828180643096 0.43508801332291924 0.6050947832691959
3 183 149 184 0.009051828180643096 0.43508801332291924 0.6050947832691959
3 150 184 149 0.009051828180643096 0.43508801332291924 0.6050947832691959
3 185 184 150 0.009051828180643096 0.43508801332291924 0.6050947832691959
3 150 403 404 0.009051828180643096 0.43508801332291924 0.6050947832691959
3 149 403 150 0.009051828180643096 0.43508801332291924 0.6050947832691959
3 278 52 96 0.009051828180643096 0.43508801332291924 0.6050947832691959
3 52 53 96 0.009051828180643096 0.43508801332291924 0.6050947832691959
3 406 405 94 0.009051828180643096 0.43508801332291924 0.6050947832691959
3 405 93 94 0.009051828180643096 0.43508801332291924 0.6050947832691959
3 366 367 284 0.009051828180643096 0.43508801332291924 0.6050947832691959
3 284 283 366 0.009051828180643096 0.43508801332291924 0.6050947832691959
3 284 367 285 0.009051828180643096 0.43508801332291924 0.6050947832691959
3 409 283 284 0.009051828180643096 0.43508801332291924 0.6050947832691959
3 284 410 409 0.009051828180643096 0.43508801332291924 0.6050947832691959
3 285 410 284 0.009051828180643096 0.43508801332291924 0.6050947832691959
3 408 283 409 0.009051828180643096 0.43508801332291924 0.6050947832691959
3 153 407 408 0.009051828180643096 0.43508801332291924 0.6050947832691959
3 407 282 408 0.009051828180643096 0.43508801332291924 0.6050947832691959
3 408 282 283 0.009051828180643096 0.43508801332291924 0.6050947832691959
3 409 188 408 0.009051828180643096 0.43508801332291924 0.6050947832691959
3 408 188 153 0.009051828180643096 0.43508801332291924 0.6050947832691959
3 397 326 398 0.009051828180643096 0.43508801332291924 0.6050947832691959
3 398 399 277 0.009051828180643096 0.43508801332291924 0.6050947832691959
3 277 223 398 0.009051828180643096 0.43508801332291924 0.6050947832691959
3 398 223 397 0.009051828180643096 0.43508801332291924 0.6050947832691959
3 320 399 400 0.009051828180643096 0.43508801332291924 0.6050947832691959
3 400 401 359 0.009051828180643096 0.43508801332291924 0.6050947832691959
3 359 320 400 0.009051828180643096 0.43508801332291924 0.6050947832691959
3 399 328 400 0.009051828180643096 0.43508801332291924 0.6050947832691959
3 417 416 241 0.009051828180643096 0.43508801332291924 0.6050947832691959
3 241 242 417 0.009051828180643096 0.43508801332291924 0.6050947832691959
3 156 416 417 0.009051828180643096 0.43508801332291924 0.6050947832691959
3 417 242 418 0.009051828180643096 0.43508801332291924 0.6050947832691959
3 109 110 425 0.009051828180643096 0.43508801332291924 0.6050947832691959
3 60 4 425 0.009051828180643096 0.43508801332291924 0.6050947832691959
3 425 426 60 0.009051828180643096 0.43508801332291924 0.6050947832691959
3 425 110 426 0.009051828180643096 0.43508801332291924 0.6050947832691959
3 425 4 5 0.009051828180643096 0.43508801332291924 0.6050947832691959
3 5 109 425 0.009051828180643096 0.43508801332291924 0.6050947832691959
3 178 218 177 0.009051828180643096 0.43508801332291924 0.6050947832691959
3 177 139 178 0.009051828180643096 0.43508801332291924 0.6050947832691959
3 42 139 177 0.009051828180643096 0.43508801332291924 0.6050947832691959
3 41 42 177 0.009051828180643096 0.43508801332291924 0.6050947832691959
3 177 217 41 0.009051828180643096 0.43508801332291924 0.6050947832691959
3 177 218 217 0.009051828180643096 0.43508801332291924 0.6050947832691959
3 339 377 378 0.009051828180643096 0.43508801332291924 0.6050947832691959
3 378 379 339 0.009051828180643096 0.43508801332291924 0.6050947832691959
3 311 379 378 0.009051828180643096 0.43508801332291924 0.6050947832691959
3 310 311 378 0.009051828180643096 0.43508801332291924 0.6050947832691959
3 378 377 310 0.009051828180643096 0.43508801332291924 0.6050947832691959
3 118 163 297 0.009051828180643096 0.43508801332291924 0.6050947832691959
3 66 121 65 0.009051828180643096 0.43508801332291924 0.6050947832691959
3 330 65 14 0.009051828180643096 0.43508801332291924 0.6050947832691959
3 14 15 330 0.009051828180643096 0.43508801332291924 0.6050947832691959
3 163 250 117 0.009051828180643096 0.43508801332291924 0.6050947832691959
3 117 297 163 0.009051828180643096 0.43508801332291924 0.6050947832691959
3 121 297 117 0.009051828180643096 0.43508801332291924 0.6050947832691959
3 120 13 64 0.009051828180643096 0.43508801332291924 0.6050947832691959
3 64 65 120 0.009051828180643096 0.43508801332291924 0.6050947832691959
3 65 121 120 0.009051828180643096 0.43508801332291924 0.6050947832691959
3 115 161 248 0.009051828180643096 0.43508801332291924 0.6050947832691959
3 248 160 115 0.009051828180643096 0.43508801332291924 0.6050947832691959
3 115 295 161 0.009051828180643096 0.43508801332291924 0.6050947832691959
3 115 294 295 0.009051828180643096 0.43508801332291924 0.6050947832691959
3 115 160 114 0.009051828180643096 0.43508801332291924 0.6050947832691959
3 114 294 115 0.009051828180643096 0.43508801332291924 0.6050947832691959
3 161 295 116 0.009051828180643096 0.43508801332291924 0.6050947832691959
3 111 161 249 0.009051828180643096 0.43508801332291924 0.6050947832691959
3 249 112 111 0.009051828180643096 0.43508801332291924 0.6050947832691959
3 161 116 249 0.009051828180643096 0.43508801332291924 0.6050947832691959
3 430 194 108 0.009051828180643096 0.43508801332291924 0.6050947832691959
3 431 194 430 0.009051828180643096 0.43508801332291924 0.6050947832691959
3 430 252 431 0.009051828180643096 0.43508801332291924 0.6050947832691959
3 108 429 430 0.009051828180643096 0.43508801332291924 0.6050947832691959
3 429 251 430 0.009051828180643096 0.43508801332291924 0.6050947832691959
3 431 252 253 0.009051828180643096 0.43508801332291924 0.6050947832691959
3 253 432 431 0.009051828180643096 0.43508801332291924 0.6050947832691959
3 300 301 253 0.009051828180643096 0.43508801332291924 0.6050947832691959
3 253 301 432 0.009051828180643096 0.43508801332291924 0.6050947832691959
3 123 252 298 0.009051828180643096 0.43508801332291924 0.6050947832691959
3 164 251 118 0.009051828180643096 0.43508801332291924 0.6050947832691959
3 118 298 164 0.009051828180643096 0.43508801332291924 0.6050947832691959
3 164 298 252 0.009051828180643096 0.43508801332291924 0.6050947832691959
3 164 430 251 0.009051828180643096 0.43508801332291924 0.6050947832691959
3 252 430 164 0.009051828180643096 0.43508801332291924 0.6050947832691959
3 303 165 19 0.009051828180643096 0.43508801332291924 0.6050947832691959
3 19 20 303 0.009051828180643096 0.43508801332291924 0.6050947832691959
3 165 370 19 0.009051828180643096 0.43508801332291924 0.6050947832691959
3 125 370 371 0.009051828180643096 0.43508801332291924 0.6050947832691959
3 306 167 305 0.009051828180643096 0.43508801332291924 0.6050947832691959
3 305 199 306 0.009051828180643096 0.43508801332291924 0.6050947832691959
3 305 304 198 0.009051828180643096 0.43508801332291924 0.6050947832691959
3 198 199 305 0.009051828180643096 0.43508801332291924 0.6050947832691959
3 166 165 304 0.009051828180643096 0.43508801332291924 0.6050947832691959
3 304 305 166 0.009051828180643096 0.43508801332291924 0.6050947832691959
3 166 305 167 0.009051828180643096 0.43508801332291924 0.6050947832691959
3 371 165 166 0.009051828180643096 0.43508801332291924 0.6050947832691959
3 372 371 166 0.009051828180643096 0.43508801332291924 0.6050947832691959
3 166 167 372 0.009051828180643096 0.43508801332291924 0.6050947832691959
3 168 374 373 0.009051828180643096 0.43508801332291924 0.6050947832691959
3 372 167 373 0.009051828180643096 0.43508801332291924 0.6050947832691959
3 373 167 168 0.009051828180643096 0.43508801332291924 0.6050947832691959
3 307 308 169 0.009051828180643096 0.43508801332291924 0.6050947832691959
3 307 168 306 0.009051828180643096 0.43508801332291924 0.6050947832691959
3 307 169 168 0.009051828180643096 0.43508801332291924 0.6050947832691959
3 201 308 307 0.009051828180643096 0.43508801332291924 0.6050947832691959
3 200 201 307 0.009051828180643096 0.43508801332291924 0.6050947832691959
3 307 306 200 0.009051828180643096 0.43508801332291924 0.6050947832691959
3 140 179 178 0.009051828180643096 0.43508801332291924 0.6050947832691959
3 140 139 88 0.009051828180643096 0.43508801332291924 0.6050947832691959
3 178 139 140 0.009051828180643096 0.43508801332291924 0.6050947832691959
3 88 89 140 0.009051828180643096 0.43508801332291924 0.6050947832691959
3 140 89 141 0.009051828180643096 0.43508801332291924 0.6050947832691959
3 141 179 140 0.009051828180643096 0.43508801332291924 0.6050947832691959
3 220 180 221 0.009051828180643096 0.43508801332291924 0.6050947832691959
3 274 273 221 0.009051828180643096 0.43508801332291924 0.6050947832691959
3 221 273 220 0.009051828180643096 0.43508801332291924 0.6050947832691959
3 221 222 274 0.009051828180643096 0.43508801332291924 0.6050947832691959
3 181 222 221 0.009051828180643096 0.43508801332291924 0.6050947832691959
3 142 141 90 0.009051828180643096 0.43508801332291924 0.6050947832691959
3 142 180 141 0.009051828180643096 0.43508801332291924 0.6050947832691959
3 142 90 91 0.009051828180643096 0.43508801332291924 0.6050947832691959
3 91 181 142 0.009051828180643096 0.43508801332291924 0.6050947832691959
3 181 221 142 0.009051828180643096 0.43508801332291924 0.6050947832691959
3 142 221 180 0.009051828180643096 0.43508801332291924 0.6050947832691959
3 172 130 131 0.009051828180643096 0.43508801332291924 0.6050947832691959
3 75 132 131 0.009051828180643096 0.43508801332291924 0.6050947832691959
3 173 172 131 0.009051828180643096 0.43508801332291924 0.6050947832691959
3 131 132 173 0.009051828180643096 0.43508801332291924 0.6050947832691959
3 423 367 293 0.009051828180643096 0.43508801332291924 0.6050947832691959
3 293 422 423 0.009051828180643096 0.43508801332291924 0.6050947832691959
3 293 367 366 0.009051828180643096 0.43508801332291924 0.6050947832691959
3 421 422 293 0.009051828180643096 0.43508801332291924 0.6050947832691959
3 152 186 151 0.009051828180643096 0.43508801332291924 0.6050947832691959
3 405 152 151 0.009051828180643096 0.43508801332291924 0.6050947832691959
3 151 186 185 0.009051828180643096 0.43508801332291924 0.6050947832691959
3 185 150 151 0.009051828180643096 0.43508801332291924 0.6050947832691959
3 404 405 151 0.009051828180643096 0.43508801332291924 0.6050947832691959
3 151 150 404 0.009051828180643096 0.43508801332291924 0.6050947832691959
3 279 92 278 0.009051828180643096 0.43508801332291924 0.6050947832691959
3 279 93 92 0.009051828180643096 0.43508801332291924 0.6050947832691959
3 54 55 100 0.009051828180643096 0.43508801332291924 0.6050947832691959
3 55 286 100 0.009051828180643096 0.43508801332291924 0.6050947832691959
3 156 417 157 0.009051828180643096 0.43508801332291924 0.6050947832691959
3 157 417 418 0.009051828180643096 0.43508801332291924 0.6050947832691959
3 245 421 420 0.009051828180643096 0.43508801332291924 0.6050947832691959
3 362 361 102 0.009051828180643096 0.43508801332291924 0.6050947832691959
3 102 361 101 0.009051828180643096 0.43508801332291924 0.6050947832691959
3 95 282 407 0.009051828180643096 0.43508801332291924 0.6050947832691959
3 95 407 406 0.009051828180643096 0.43508801332291924 0.6050947832691959
3 406 94 95 0.009051828180643096 0.43508801332291924 0.6050947832691959
3 95 94 281 0.009051828180643096 0.43508801332291924 0.6050947832691959
3 281 282 95 0.009051828180643096 0.43508801332291924 0.6050947832691959
3 229 230 327 0.009051828180643096 0.43508801332291924 0.6050947832691959
3 230 328 327 0.009051828180643096 0.43508801332291924 0.6050947832691959
3 327 326 229 0.009051828180643096 0.43508801332291924 0.6050947832691959
3 327 328 399 0.009051828180643096 0.43508801332291924 0.6050947832691959
3 327 398 326 0.009051828180643096 0.43508801332291924 0.6050947832691959
3 399 398 327 0.009051828180643096 0.43508801332291924 0.6050947832691959
3 401 400 329 0.009051828180643096 0.43508801332291924 0.6050947832691959
3 329 400 328 0.009051828180643096 0.43508801332291924 0.6050947832691959
3 329 411 401 0.009051828180643096 0.43508801332291924 0.6050947832691959
3 329 410 411 0.009051828180643096 0.43508801332291924 0.6050947832691959
3 329 328 230 0.009051828180643096 0.43508801332291924 0.6050947832691959
3 409 410 329 0.009051828180643096 0.43508801332291924 0.6050947832691959
3 329 230 409 0.009051828180643096 0.43508801332291924 0.6050947832691959
3 122 297 121 0.009051828180643096 0.43508801332291924 0.6050947832691959
3 121 66 122 0.009051828180643096 0.43508801332291924 0.6050947832691959
3 118 297 122 0.009051828180643096 0.43508801332291924 0.6050947832691959
3 122 298 118 0.009051828180643096 0.43508801332291924 0.6050947832691959
3 331 330 15 0.009051828180643096 0.43508801332291924 0.6050947832691959
3 331 332 66 0.009051828180643096 0.43508801332291924 0.6050947832691959
3 331 66 65 0.009051828180643096 0.43508801332291924 0.6050947832691959
3 65 330 331 0.009051828180643096 0.43508801332291924 0.6050947832691959
3 13 120 119 0.009051828180643096 0.43508801332291924 0.6050947832691959
3 119 120 295 0.009051828180643096 0.43508801332291924 0.6050947832691959
3 119 12 13 0.009051828180643096 0.43508801332291924 0.6050947832691959
3 119 295 12 0.009051828180643096 0.43508801332291924 0.6050947832691959
3 121 117 296 0.009051828180643096 0.43508801332291924 0.6050947832691959
3 296 120 121 0.009051828180643096 0.43508801332291924 0.6050947832691959
3 295 120 296 0.009051828180643096 0.43508801332291924 0.6050947832691959
3 296 116 295 0.009051828180643096 0.43508801332291924 0.6050947832691959
3 250 112 162 0.009051828180643096 0.43508801332291924 0.6050947832691959
3 116 296 162 0.009051828180643096 0.43508801332291924 0.6050947832691959
3 112 249 162 0.009051828180643096 0.43508801332291924 0.6050947832691959
3 162 249 116 0.009051828180643096 0.43508801332291924 0.6050947832691959
3 162 117 250 0.009051828180643096 0.43508801332291924 0.6050947832691959
3 162 296 117 0.009051828180643096 0.43508801332291924 0.6050947832691959
3 299 252 123 0.009051828180643096 0.43508801332291924 0.6050947832691959
3 299 253 252 0.009051828180643096 0.43508801332291924 0.6050947832691959
3 300 253 299 0.009051828180643096 0.43508801332291924 0.6050947832691959
3 299 123 333 0.009051828180643096 0.43508801332291924 0.6050947832691959
3 18 19 370 0.009051828180643096 0.43508801332291924 0.6050947832691959
3 257 258 335 0.009051828180643096 0.43508801332291924 0.6050947832691959
3 255 254 17 0.009051828180643096 0.43508801332291924 0.6050947832691959
3 128 373 374 0.009051828180643096 0.43508801332291924 0.6050947832691959
3 128 260 259 0.009051828180643096 0.43508801332291924 0.6050947832691959
3 259 258 128 0.009051828180643096 0.43508801332291924 0.6050947832691959
3 375 260 128 0.009051828180643096 0.43508801332291924 0.6050947832691959
3 128 374 375 0.009051828180643096 0.43508801332291924 0.6050947832691959
3 74 131 130 0.009051828180643096 0.43508801332291924 0.6050947832691959
3 383 384 74 0.009051828180643096 0.43508801332291924 0.6050947832691959
3 74 384 75 0.009051828180643096 0.43508801332291924 0.6050947832691959
3 75 131 74 0.009051828180643096 0.43508801332291924 0.6050947832691959
3 73 383 74 0.009051828180643096 0.43508801332291924 0.6050947832691959
3 74 130 73 0.009051828180643096 0.43508801332291924 0.6050947832691959
3 280 279 98 0.009051828180643096 0.43508801332291924 0.6050947832691959
3 281 94 280 0.009051828180643096 0.43508801332291924 0.6050947832691959
3 280 94 93 0.009051828180643096 0.43508801332291924 0.6050947832691959
3 93 279 280 0.009051828180643096 0.43508801332291924 0.6050947832691959
3 98 279 97 0.009051828180643096 0.43508801332291924 0.6050947832691959
3 362 98 97 0.009051828180643096 0.43508801332291924 0.6050947832691959
3 278 96 97 0.009051828180643096 0.43508801332291924 0.6050947832691959
3 97 279 278 0.009051828180643096 0.43508801332291924 0.6050947832691959
3 97 361 362 0.009051828180643096 0.43508801332291924 0.6050947832691959
3 96 361 97 0.009051828180643096 0.43508801332291924 0.6050947832691959
3 363 98 362 0.009051828180643096 0.43508801332291924 0.6050947832691959
3 99 282 281 0.009051828180643096 0.43508801332291924 0.6050947832691959
3 281 280 99 0.009051828180643096 0.43508801332291924 0.6050947832691959
3 99 280 98 0.009051828180643096 0.43508801332291924 0.6050947832691959
3 98 363 99 0.009051828180643096 0.43508801332291924 0.6050947832691959
3 99 363 364 0.009051828180643096 0.43508801332291924 0.6050947832691959
3 366 283 365 0.009051828180643096 0.43508801332291924 0.6050947832691959
3 283 282 365 0.009051828180643096 0.43508801332291924 0.6050947832691959
3 282 99 365 0.009051828180643096 0.43508801332291924 0.6050947832691959
3 365 99 364 0.009051828180643096 0.43508801332291924 0.6050947832691959
3 287 100 286 0.009051828180643096 0.43508801332291924 0.6050947832691959
3 287 155 156 0.009051828180643096 0.43508801332291924 0.6050947832691959
3 287 286 155 0.009051828180643096 0.43508801332291924 0.6050947832691959
3 101 100 287 0.009051828180643096 0.43508801332291924 0.6050947832691959
3 101 361 360 0.009051828180643096 0.43508801332291924 0.6050947832691959
3 54 100 360 0.009051828180643096 0.43508801332291924 0.6050947832691959
3 360 100 101 0.009051828180643096 0.43508801332291924 0.6050947832691959
3 360 53 54 0.009051828180643096 0.43508801332291924 0.6050947832691959
3 360 96 53 0.009051828180643096 0.43508801332291924 0.6050947832691959
3 360 361 96 0.009051828180643096 0.43508801332291924 0.6050947832691959
3 419 418 236 0.009051828180643096 0.43508801332291924 0.6050947832691959
3 419 420 290 0.009051828180643096 0.43508801332291924 0.6050947832691959
3 195 245 244 0.009051828180643096 0.43508801332291924 0.6050947832691959
3 245 420 244 0.009051828180643096 0.43508801332291924 0.6050947832691959
3 420 419 244 0.009051828180643096 0.43508801332291924 0.6050947832691959
3 244 236 195 0.009051828180643096 0.43508801332291924 0.6050947832691959
3 244 419 236 0.009051828180643096 0.43508801332291924 0.6050947832691959
3 67 122 66 0.009051828180643096 0.43508801332291924 0.6050947832691959
3 66 332 67 0.009051828180643096 0.43508801332291924 0.6050947832691959
3 123 298 67 0.009051828180643096 0.43508801332291924 0.6050947832691959
3 298 122 67 0.009051828180643096 0.43508801332291924 0.6050947832691959
3 333 123 67 0.009051828180643096 0.43508801332291924 0.6050947832691959
3 67 332 333 0.009051828180643096 0.43508801332291924 0.6050947832691959
3 332 331 68 0.009051828180643096 0.43508801332291924 0.6050947832691959
3 68 15 16 0.009051828180643096 0.43508801332291924 0.6050947832691959
3 68 331 15 0.009051828180643096 0.43508801332291924 0.6050947832691959
3 370 125 124 0.009051828180643096 0.43508801332291924 0.6050947832691959
3 124 18 370 0.009051828180643096 0.43508801332291924 0.6050947832691959
3 17 18 124 0.009051828180643096 0.43508801332291924 0.6050947832691959
3 124 255 17 0.009051828180643096 0.43508801332291924 0.6050947832691959
3 334 335 300 0.009051828180643096 0.43508801332291924 0.6050947832691959
3 334 299 333 0.009051828180643096 0.43508801332291924 0.6050947832691959
3 300 299 334 0.009051828180643096 0.43508801332291924 0.6050947832691959
3 256 124 125 0.009051828180643096 0.43508801332291924 0.6050947832691959
3 255 124 256 0.009051828180643096 0.43508801332291924 0.6050947832691959
3 372 373 127 0.009051828180643096 0.43508801332291924 0.6050947832691959
3 373 128 127 0.009051828180643096 0.43508801332291924 0.6050947832691959
3 258 257 127 0.009051828180643096 0.43508801332291924 0.6050947832691959
3 127 128 258 0.009051828180643096 0.43508801332291924 0.6050947832691959
3 103 363 362 0.009051828180643096 0.43508801332291924 0.6050947832691959
3 362 102 103 0.009051828180643096 0.43508801332291924 0.6050947832691959
3 103 289 290 0.009051828180643096 0.43508801332291924 0.6050947832691959
3 102 289 103 0.009051828180643096 0.43508801332291924 0.6050947832691959
3 421 293 292 0.009051828180643096 0.43508801332291924 0.6050947832691959
3 292 293 366 0.009051828180643096 0.43508801332291924 0.6050947832691959
3 366 365 292 0.009051828180643096 0.43508801332291924 0.6050947832691959
3 101 287 288 0.009051828180643096 0.43508801332291924 0.6050947832691959
3 157 289 288 0.009051828180643096 0.43508801332291924 0.6050947832691959
3 156 157 288 0.009051828180643096 0.43508801332291924 0.6050947832691959
3 288 287 156 0.009051828180643096 0.43508801332291924 0.6050947832691959
3 288 102 101 0.009051828180643096 0.43508801332291924 0.6050947832691959
3 288 289 102 0.009051828180643096 0.43508801332291924 0.6050947832691959
3 158 419 290 0.009051828180643096 0.43508801332291924 0.6050947832691959
3 290 289 158 0.009051828180643096 0.43508801332291924 0.6050947832691959
3 158 289 157 0.009051828180643096 0.43508801332291924 0.6050947832691959
3 158 157 418 0.009051828180643096 0.43508801332291924 0.6050947832691959
3 418 419 158 0.009051828180643096 0.43508801332291924 0.6050947832691959
3 332 68 69 0.009051828180643096 0.43508801332291924 0.6050947832691959
3 16 254 69 0.009051828180643096 0.43508801332291924 0.6050947832691959
3 69 68 16 0.009051828180643096 0.43508801332291924 0.6050947832691959
3 71 256 257 0.009051828180643096 0.43508801332291924 0.6050947832691959
3 71 257 335 0.009051828180643096 0.43508801332291924 0.6050947832691959
3 335 334 71 0.009051828180643096 0.43508801332291924 0.6050947832691959
3 71 334 333 0.009051828180643096 0.43508801332291924 0.6050947832691959
3 126 127 257 0.009051828180643096 0.43508801332291924 0.6050947832691959
3 126 256 125 0.009051828180643096 0.43508801332291924 0.6050947832691959
3 257 256 126 0.009051828180643096 0.43508801332291924 0.6050947832691959
3 126 125 371 0.009051828180643096 0.43508801332291924 0.6050947832691959
3 126 371 372 0.009051828180643096 0.43508801332291924 0.6050947832691959
3 372 127 126 0.009051828180643096 0.43508801332291924 0.6050947832691959
3 291 420 421 0.009051828180643096 0.43508801332291924 0.6050947832691959
3 421 292 291 0.009051828180643096 0.43508801332291924 0.6050947832691959
3 290 420 291 0.009051828180643096 0.43508801332291924 0.6050947832691959
3 291 103 290 0.009051828180643096 0.43508801332291924 0.6050947832691959
3 291 365 364 0.009051828180643096 0.43508801332291924 0.6050947832691959
3 291 292 365 0.009051828180643096 0.43508801332291924 0.6050947832691959
3 364 363 291 0.009051828180643096 0.43508801332291924 0.6050947832691959
3 363 103 291 0.009051828180643096 0.43508801332291924 0.6050947832691959
3 70 71 333 0.009051828180643096 0.43508801332291924 0.6050947832691959
3 255 256 70 0.009051828180643096 0.43508801332291924 0.6050947832691959
3 256 71 70 0.009051828180643096 0.43508801332291924 0.6050947832691959
3 333 332 70 0.009051828180643096 0.43508801332291924 0.6050947832691959
3 332 69 70 0.009051828180643096 0.43508801332291924 0.6050947832691959
3 254 255 70 0.009051828180643096 0.43508801332291924 0.6050947832691959
3 70 69 254 0.009051828180643096 0.43508801332291924 0.6050947832691959
