OFF
171 289 0


33.2718 32.5807 9.0087
33.2718 32.5807 9.0087
33.1936 32.5151 8.9267
33.1359 32.4646 8.8637
33.0863 32.4198 8.8078
33.0378 32.3745 8.7514
32.9838 32.3224 8.6864
32.9148 32.2527 8.5997
32.9148 32.2527 8.5997
33.0005 32.2205 8.5921
33.0864 32.1888 8.5846
33.2294 32.1727 8.6071
33.3464 32.1597 8.6249
33.4468 32.1486 8.6397
33.5364 32.1388 8.6527
33.6193 32.1298 8.6644
33.6986 32.1213 8.6754
33.7767 32.113 8.686
33.8561 32.1045 8.6966
33.9392 32.0957 8.7076
34.0292 32.0863 8.7191
34.13 32.0758 8.7319
34.2475 32.0636 8.7464
34.3911 32.0488 8.7636
34.3911 32.0488 8.7636
34.2495 32.1067 8.7885
34.1387 32.1533 8.8089
34.0464 32.1933 8.8267
33.9654 32.2293 8.8428
33.8909 32.2631 8.8581
33.8198 32.2962 8.8732
33.7491 32.3298 8.8887
33.6761 32.3654 8.9053
33.5976 32.4047 8.9237
33.5094 32.4503 8.9454
33.4047 32.5063 8.9723
33.2718 32.5807 9.0087
33.6183 32.1478 8.6817
33.6174 32.1658 8.6989
33.7524 32.1339 8.7006
33.7284 32.1545 8.7149
33.8895 32.1197 8.7193
33.8409 32.1433 8.7307
33.9119 32.233 8.834
33.8597 32.2366 8.8253
33.7893 32.29 8.8601
33.7591 32.2839 8.8471
33.667 32.3495 8.8879
33.6579 32.3336 8.8705
33.2006 32.4357 8.8532
33.2662 32.4065 8.8425
33.3327 32.3771 8.8314
33.1159 32.3577 8.7562
33.1949 32.3409 8.761
33.275 32.324 8.7657
33.0848 32.2245 8.619
33.1696 32.2288 8.6459
33.2552 32.2333 8.6729
33.4702 32.1635 8.6602
33.4938 32.1785 8.6807
33.5173 32.1936 8.7012
34.0484 32.1036 8.7404
33.9698 32.1306 8.7485
33.8939 32.1567 8.7562
34.0561 32.1689 8.8053
33.9764 32.184 8.8017
33.8993 32.1987 8.7981
33.5238 32.4227 8.9228
33.5384 32.3951 8.9001
33.553 32.3673 8.8772
33.2507 32.4792 8.9076
33.3085 32.443 8.8881
33.3671 32.4065 8.8682
33.4266 32.3695 8.8479
33.0107 32.2521 8.6257
33.1071 32.2518 8.6515
33.2044 32.2517 8.6774
33.3031 32.252 8.7035
33.2827 32.1838 8.6319
33.3363 32.1951 8.6568
33.3904 32.2065 8.6818
33.4449 32.2182 8.7069
33.686 32.1408 8.6913
33.6735 32.1601 8.707
33.6611 32.1792 8.7226
33.6488 32.1983 8.7381
33.9647 32.1121 8.7294
33.9021 32.1372 8.7392
33.8413 32.1617 8.7487
33.782 32.1857 8.7579
34.2616 32.0823 8.7677
34.1397 32.1141 8.7712
34.0243 32.1444 8.7744
33.9146 32.1734 8.7772
34.1469 32.13 8.7882
34.049 32.1524 8.7878
33.9552 32.174 8.7872
33.865 32.195 8.7865
33.8494 32.2617 8.8471
33.8085 32.2604 8.8362
33.7682 32.2592 8.8255
33.7285 32.258 8.8149
33.5997 32.3834 8.9039
33.6019 32.362 8.8841
33.604 32.3406 8.8642
33.6061 32.3192 8.8442
33.3187 32.5355 8.9782
33.3659 32.49 8.9473
33.4137 32.4442 8.9159
33.4621 32.3978 8.8839
33.3187 32.5355 8.9782
33.3659 32.49 8.9473
33.4137 32.4442 8.9159
33.4621 32.3978 8.8839
33.5113 32.3509 8.8513
33.0695 32.3125 8.7002
33.156 32.3027 8.714
33.2437 32.2931 8.7277
33.3328 32.2835 8.7415
33.4237 32.2739 8.7554
33.1591 32.1974 8.6126
33.2323 32.2062 8.6405
33.3062 32.2152 8.6686
33.3809 32.2246 8.6969
33.4567 32.2343 8.7255
33.5473 32.1553 8.6715
33.5582 32.1719 8.6902
33.569 32.1884 8.709
33.5799 32.2049 8.7277
33.5907 32.2215 8.7464
34.145 32.0939 8.7529
34.0472 32.123 8.7589
33.9536 32.151 8.7646
33.8638 32.1781 8.7698
33.7772 32.2043 8.7748
33.9796 32.2025 8.8203
33.9147 32.2115 8.814
33.8514 32.2204 8.8078
33.7896 32.2291 8.8017
33.7293 32.2377 8.7956
33.7293 32.3189 8.8735
33.7095 32.308 8.8584
33.6899 32.2972 8.8433
33.6704 32.2864 8.8283
33.651 32.2758 8.8134
33.3837 32.1728 8.6473
33.4212 32.1861 8.6698
33.4589 32.1995 8.6923
33.4969 32.213 8.715
33.5351 32.2267 8.7377
33.5736 32.2406 8.7607
33.8195 32.1269 8.7098
33.7836 32.149 8.7227
33.7484 32.1707 8.7354
33.7136 32.1921 8.7478
33.6794 32.2132 8.76
33.6457 32.2341 8.772
33.4335 32.4712 8.9464
33.4626 32.4359 8.9202
33.4919 32.4003 8.8936
33.5215 32.3645 8.8668
33.5514 32.3283 8.8395
33.5817 32.2917 8.8118
33.1577 32.3969 8.805
33.23 32.3739 8.8019
33.3034 32.3507 8.7987
33.3781 32.3273 8.7953
33.4544 32.3035 8.7917
33.5324 32.2793 8.7878
33.6124 32.2547 8.7837
33.6124 32.2547 8.7837
3 74 6 7 0.8210263602286578 0.46083039205195975 0.7003151445824922
3 9 74 7 0.8210263602286578 0.46083039205195975 0.7003151445824922
3 48 103 104 0.8210263602286578 0.46083039205195975 0.7003151445824922
3 14 15 125 0.8210263602286578 0.46083039205195975 0.7003151445824922
3 125 15 37 0.8210263602286578 0.46083039205195975 0.7003151445824922
3 94 25 26 0.8210263602286578 0.46083039205195975 0.7003151445824922
3 23 25 90 0.8210263602286578 0.46083039205195975 0.7003151445824922
3 90 22 23 0.8210263602286578 0.46083039205195975 0.7003151445824922
3 25 22 90 0.8210263602286578 0.46083039205195975 0.7003151445824922
3 130 91 21 0.8210263602286578 0.46083039205195975 0.7003151445824922
3 21 22 130 0.8210263602286578 0.46083039205195975 0.7003151445824922
3 130 22 25 0.8210263602286578 0.46083039205195975 0.7003151445824922
3 25 94 130 0.8210263602286578 0.46083039205195975 0.7003151445824922
3 130 94 91 0.8210263602286578 0.46083039205195975 0.7003151445824922
3 161 168 162 0.8210263602286578 0.46083039205195975 0.7003151445824922
3 140 31 32 0.8210263602286578 0.46083039205195975 0.7003151445824922
3 102 32 33 0.8210263602286578 0.46083039205195975 0.7003151445824922
3 30 31 45 0.8210263602286578 0.46083039205195975 0.7003151445824922
3 0 2 106 0.8210263602286578 0.46083039205195975 0.7003151445824922
3 2 70 106 0.8210263602286578 0.46083039205195975 0.7003151445824922
3 166 118 119 0.8210263602286578 0.46083039205195975 0.7003151445824922
3 166 73 51 0.8210263602286578 0.46083039205195975 0.7003151445824922
3 117 118 54 0.8210263602286578 0.46083039205195975 0.7003151445824922
3 54 53 117 0.8210263602286578 0.46083039205195975 0.7003151445824922
3 119 118 123 0.8210263602286578 0.46083039205195975 0.7003151445824922
3 77 118 117 0.8210263602286578 0.46083039205195975 0.7003151445824922
3 77 123 118 0.8210263602286578 0.46083039205195975 0.7003151445824922
3 12 13 145 0.8210263602286578 0.46083039205195975 0.7003151445824922
3 145 13 146 0.8210263602286578 0.46083039205195975 0.7003151445824922
3 146 13 58 0.8210263602286578 0.46083039205195975 0.7003151445824922
3 58 13 14 0.8210263602286578 0.46083039205195975 0.7003151445824922
3 128 149 127 0.8210263602286578 0.46083039205195975 0.7003151445824922
3 127 38 128 0.8210263602286578 0.46083039205195975 0.7003151445824922
3 168 149 150 0.8210263602286578 0.46083039205195975 0.7003151445824922
3 169 162 150 0.8210263602286578 0.46083039205195975 0.7003151445824922
3 150 162 168 0.8210263602286578 0.46083039205195975 0.7003151445824922
3 149 128 150 0.8210263602286578 0.46083039205195975 0.7003151445824922
3 29 44 43 0.8210263602286578 0.46083039205195975 0.7003151445824922
3 43 44 136 0.8210263602286578 0.46083039205195975 0.7003151445824922
3 28 29 43 0.8210263602286578 0.46083039205195975 0.7003151445824922
3 43 136 28 0.8210263602286578 0.46083039205195975 0.7003151445824922
3 98 29 30 0.8210263602286578 0.46083039205195975 0.7003151445824922
3 98 44 29 0.8210263602286578 0.46083039205195975 0.7003151445824922
3 19 20 86 0.8210263602286578 0.46083039205195975 0.7003151445824922
3 21 91 61 0.8210263602286578 0.46083039205195975 0.7003151445824922
3 61 20 21 0.8210263602286578 0.46083039205195975 0.7003151445824922
3 28 136 135 0.8210263602286578 0.46083039205195975 0.7003151445824922
3 136 65 135 0.8210263602286578 0.46083039205195975 0.7003151445824922
3 135 27 28 0.8210263602286578 0.46083039205195975 0.7003151445824922
3 135 65 27 0.8210263602286578 0.46083039205195975 0.7003151445824922
3 104 161 105 0.8210263602286578 0.46083039205195975 0.7003151445824922
3 161 162 105 0.8210263602286578 0.46083039205195975 0.7003151445824922
3 105 48 104 0.8210263602286578 0.46083039205195975 0.7003151445824922
3 114 168 161 0.8210263602286578 0.46083039205195975 0.7003151445824922
3 72 71 51 0.8210263602286578 0.46083039205195975 0.7003151445824922
3 51 73 72 0.8210263602286578 0.46083039205195975 0.7003151445824922
3 47 140 32 0.8210263602286578 0.46083039205195975 0.7003151445824922
3 103 48 47 0.8210263602286578 0.46083039205195975 0.7003151445824922
3 47 48 141 0.8210263602286578 0.46083039205195975 0.7003151445824922
3 141 140 47 0.8210263602286578 0.46083039205195975 0.7003151445824922
3 32 102 47 0.8210263602286578 0.46083039205195975 0.7003151445824922
3 47 102 103 0.8210263602286578 0.46083039205195975 0.7003151445824922
3 100 45 46 0.8210263602286578 0.46083039205195975 0.7003151445824922
3 46 140 141 0.8210263602286578 0.46083039205195975 0.7003151445824922
3 31 140 46 0.8210263602286578 0.46083039205195975 0.7003151445824922
3 46 45 31 0.8210263602286578 0.46083039205195975 0.7003151445824922
3 141 101 46 0.8210263602286578 0.46083039205195975 0.7003151445824922
3 46 101 100 0.8210263602286578 0.46083039205195975 0.7003151445824922
3 48 105 143 0.8210263602286578 0.46083039205195975 0.7003151445824922
3 134 138 139 0.8210263602286578 0.46083039205195975 0.7003151445824922
3 100 101 139 0.8210263602286578 0.46083039205195975 0.7003151445824922
3 139 138 100 0.8210263602286578 0.46083039205195975 0.7003151445824922
3 126 38 127 0.8210263602286578 0.46083039205195975 0.7003151445824922
3 126 125 37 0.8210263602286578 0.46083039205195975 0.7003151445824922
3 37 38 126 0.8210263602286578 0.46083039205195975 0.7003151445824922
3 107 70 71 0.8210263602286578 0.46083039205195975 0.7003151445824922
3 107 106 70 0.8210263602286578 0.46083039205195975 0.7003151445824922
3 55 75 74 0.8210263602286578 0.46083039205195975 0.7003151445824922
3 55 9 10 0.8210263602286578 0.46083039205195975 0.7003151445824922
3 74 9 55 0.8210263602286578 0.46083039205195975 0.7003151445824922
3 115 5 6 0.8210263602286578 0.46083039205195975 0.7003151445824922
3 6 74 115 0.8210263602286578 0.46083039205195975 0.7003151445824922
3 74 75 115 0.8210263602286578 0.46083039205195975 0.7003151445824922
3 117 53 116 0.8210263602286578 0.46083039205195975 0.7003151445824922
3 116 115 75 0.8210263602286578 0.46083039205195975 0.7003151445824922
3 57 77 117 0.8210263602286578 0.46083039205195975 0.7003151445824922
3 123 77 122 0.8210263602286578 0.46083039205195975 0.7003151445824922
3 77 57 122 0.8210263602286578 0.46083039205195975 0.7003151445824922
3 4 163 3 0.8210263602286578 0.46083039205195975 0.7003151445824922
3 3 163 49 0.8210263602286578 0.46083039205195975 0.7003151445824922
3 49 2 3 0.8210263602286578 0.46083039205195975 0.7003151445824922
3 49 70 2 0.8210263602286578 0.46083039205195975 0.7003151445824922
3 80 145 146 0.8210263602286578 0.46083039205195975 0.7003151445824922
3 119 123 81 0.8210263602286578 0.46083039205195975 0.7003151445824922
3 81 80 146 0.8210263602286578 0.46083039205195975 0.7003151445824922
3 123 80 81 0.8210263602286578 0.46083039205195975 0.7003151445824922
3 169 150 129 0.8210263602286578 0.46083039205195975 0.7003151445824922
3 129 150 128 0.8210263602286578 0.46083039205195975 0.7003151445824922
3 99 45 100 0.8210263602286578 0.46083039205195975 0.7003151445824922
3 100 138 99 0.8210263602286578 0.46083039205195975 0.7003151445824922
3 30 45 99 0.8210263602286578 0.46083039205195975 0.7003151445824922
3 99 98 30 0.8210263602286578 0.46083039205195975 0.7003151445824922
3 44 98 99 0.8210263602286578 0.46083039205195975 0.7003151445824922
3 18 19 41 0.8210263602286578 0.46083039205195975 0.7003151445824922
3 131 61 91 0.8210263602286578 0.46083039205195975 0.7003151445824922
3 168 114 167 0.8210263602286578 0.46083039205195975 0.7003151445824922
3 167 114 73 0.8210263602286578 0.46083039205195975 0.7003151445824922
3 167 166 119 0.8210263602286578 0.46083039205195975 0.7003151445824922
3 73 166 167 0.8210263602286578 0.46083039205195975 0.7003151445824922
3 113 72 73 0.8210263602286578 0.46083039205195975 0.7003151445824922
3 73 114 113 0.8210263602286578 0.46083039205195975 0.7003151445824922
3 103 102 69 0.8210263602286578 0.46083039205195975 0.7003151445824922
3 69 161 104 0.8210263602286578 0.46083039205195975 0.7003151445824922
3 104 103 69 0.8210263602286578 0.46083039205195975 0.7003151445824922
3 33 34 67 0.8210263602286578 0.46083039205195975 0.7003151445824922
3 142 101 141 0.8210263602286578 0.46083039205195975 0.7003151445824922
3 142 143 101 0.8210263602286578 0.46083039205195975 0.7003151445824922
3 141 48 142 0.8210263602286578 0.46083039205195975 0.7003151445824922
3 48 143 142 0.8210263602286578 0.46083039205195975 0.7003151445824922
3 169 129 156 0.8210263602286578 0.46083039205195975 0.7003151445824922
3 134 139 154 0.8210263602286578 0.46083039205195975 0.7003151445824922
3 127 149 60 0.8210263602286578 0.46083039205195975 0.7003151445824922
3 60 126 127 0.8210263602286578 0.46083039205195975 0.7003151445824922
3 125 126 60 0.8210263602286578 0.46083039205195975 0.7003151445824922
3 35 107 157 0.8210263602286578 0.46083039205195975 0.7003151445824922
3 106 107 35 0.8210263602286578 0.46083039205195975 0.7003151445824922
3 157 34 35 0.8210263602286578 0.46083039205195975 0.7003151445824922
3 0 106 35 0.8210263602286578 0.46083039205195975 0.7003151445824922
3 71 72 108 0.8210263602286578 0.46083039205195975 0.7003151445824922
3 108 107 71 0.8210263602286578 0.46083039205195975 0.7003151445824922
3 157 107 108 0.8210263602286578 0.46083039205195975 0.7003151445824922
3 72 113 108 0.8210263602286578 0.46083039205195975 0.7003151445824922
3 56 116 75 0.8210263602286578 0.46083039205195975 0.7003151445824922
3 53 163 52 0.8210263602286578 0.46083039205195975 0.7003151445824922
3 52 116 53 0.8210263602286578 0.46083039205195975 0.7003151445824922
3 52 4 5 0.8210263602286578 0.46083039205195975 0.7003151445824922
3 163 4 52 0.8210263602286578 0.46083039205195975 0.7003151445824922
3 5 115 52 0.8210263602286578 0.46083039205195975 0.7003151445824922
3 115 116 52 0.8210263602286578 0.46083039205195975 0.7003151445824922
3 78 57 121 0.8210263602286578 0.46083039205195975 0.7003151445824922
3 78 122 57 0.8210263602286578 0.46083039205195975 0.7003151445824922
3 121 11 78 0.8210263602286578 0.46083039205195975 0.7003151445824922
3 78 11 12 0.8210263602286578 0.46083039205195975 0.7003151445824922
3 51 71 50 0.8210263602286578 0.46083039205195975 0.7003151445824922
3 71 70 50 0.8210263602286578 0.46083039205195975 0.7003151445824922
3 70 49 50 0.8210263602286578 0.46083039205195975 0.7003151445824922
3 145 80 79 0.8210263602286578 0.46083039205195975 0.7003151445824922
3 12 145 79 0.8210263602286578 0.46083039205195975 0.7003151445824922
3 123 122 79 0.8210263602286578 0.46083039205195975 0.7003151445824922
3 79 80 123 0.8210263602286578 0.46083039205195975 0.7003151445824922
3 79 78 12 0.8210263602286578 0.46083039205195975 0.7003151445824922
3 122 78 79 0.8210263602286578 0.46083039205195975 0.7003151445824922
3 119 81 124 0.8210263602286578 0.46083039205195975 0.7003151445824922
3 124 149 168 0.8210263602286578 0.46083039205195975 0.7003151445824922
3 124 167 119 0.8210263602286578 0.46083039205195975 0.7003151445824922
3 168 167 124 0.8210263602286578 0.46083039205195975 0.7003151445824922
3 96 65 136 0.8210263602286578 0.46083039205195975 0.7003151445824922
3 136 93 96 0.8210263602286578 0.46083039205195975 0.7003151445824922
3 61 131 62 0.8210263602286578 0.46083039205195975 0.7003151445824922
3 86 20 62 0.8210263602286578 0.46083039205195975 0.7003151445824922
3 20 61 62 0.8210263602286578 0.46083039205195975 0.7003151445824922
3 44 99 137 0.8210263602286578 0.46083039205195975 0.7003151445824922
3 137 99 138 0.8210263602286578 0.46083039205195975 0.7003151445824922
3 137 138 134 0.8210263602286578 0.46083039205195975 0.7003151445824922
3 134 97 137 0.8210263602286578 0.46083039205195975 0.7003151445824922
3 63 93 133 0.8210263602286578 0.46083039205195975 0.7003151445824922
3 88 63 133 0.8210263602286578 0.46083039205195975 0.7003151445824922
3 66 93 136 0.8210263602286578 0.46083039205195975 0.7003151445824922
3 66 137 97 0.8210263602286578 0.46083039205195975 0.7003151445824922
3 66 133 93 0.8210263602286578 0.46083039205195975 0.7003151445824922
3 97 133 66 0.8210263602286578 0.46083039205195975 0.7003151445824922
3 136 44 66 0.8210263602286578 0.46083039205195975 0.7003151445824922
3 44 137 66 0.8210263602286578 0.46083039205195975 0.7003151445824922
3 95 131 91 0.8210263602286578 0.46083039205195975 0.7003151445824922
3 95 94 26 0.8210263602286578 0.46083039205195975 0.7003151445824922
3 91 94 95 0.8210263602286578 0.46083039205195975 0.7003151445824922
3 160 113 114 0.8210263602286578 0.46083039205195975 0.7003151445824922
3 159 113 160 0.8210263602286578 0.46083039205195975 0.7003151445824922
3 160 114 161 0.8210263602286578 0.46083039205195975 0.7003151445824922
3 161 69 160 0.8210263602286578 0.46083039205195975 0.7003151445824922
3 144 156 139 0.8210263602286578 0.46083039205195975 0.7003151445824922
3 101 143 144 0.8210263602286578 0.46083039205195975 0.7003151445824922
3 144 139 101 0.8210263602286578 0.46083039205195975 0.7003151445824922
3 169 156 144 0.8210263602286578 0.46083039205195975 0.7003151445824922
3 144 162 169 0.8210263602286578 0.46083039205195975 0.7003151445824922
3 144 105 162 0.8210263602286578 0.46083039205195975 0.7003151445824922
3 144 143 105 0.8210263602286578 0.46083039205195975 0.7003151445824922
3 85 156 129 0.8210263602286578 0.46083039205195975 0.7003151445824922
3 85 129 128 0.8210263602286578 0.46083039205195975 0.7003151445824922
3 85 38 84 0.8210263602286578 0.46083039205195975 0.7003151445824922
3 85 128 38 0.8210263602286578 0.46083039205195975 0.7003151445824922
3 139 156 155 0.8210263602286578 0.46083039205195975 0.7003151445824922
3 155 154 139 0.8210263602286578 0.46083039205195975 0.7003151445824922
3 156 85 155 0.8210263602286578 0.46083039205195975 0.7003151445824922
3 84 154 155 0.8210263602286578 0.46083039205195975 0.7003151445824922
3 155 85 84 0.8210263602286578 0.46083039205195975 0.7003151445824922
3 37 15 82 0.8210263602286578 0.46083039205195975 0.7003151445824922
3 15 16 82 0.8210263602286578 0.46083039205195975 0.7003151445824922
3 146 58 147 0.8210263602286578 0.46083039205195975 0.7003151445824922
3 147 81 146 0.8210263602286578 0.46083039205195975 0.7003151445824922
3 89 152 88 0.8210263602286578 0.46083039205195975 0.7003151445824922
3 88 133 89 0.8210263602286578 0.46083039205195975 0.7003151445824922
3 89 97 134 0.8210263602286578 0.46083039205195975 0.7003151445824922
3 89 133 97 0.8210263602286578 0.46083039205195975 0.7003151445824922
3 16 39 40 0.8210263602286578 0.46083039205195975 0.7003151445824922
3 40 82 16 0.8210263602286578 0.46083039205195975 0.7003151445824922
3 158 113 159 0.8210263602286578 0.46083039205195975 0.7003151445824922
3 158 108 113 0.8210263602286578 0.46083039205195975 0.7003151445824922
3 158 67 34 0.8210263602286578 0.46083039205195975 0.7003151445824922
3 159 67 158 0.8210263602286578 0.46083039205195975 0.7003151445824922
3 158 34 157 0.8210263602286578 0.46083039205195975 0.7003151445824922
3 157 108 158 0.8210263602286578 0.46083039205195975 0.7003151445824922
3 75 55 120 0.8210263602286578 0.46083039205195975 0.7003151445824922
3 120 56 75 0.8210263602286578 0.46083039205195975 0.7003151445824922
3 120 55 10 0.8210263602286578 0.46083039205195975 0.7003151445824922
3 10 11 120 0.8210263602286578 0.46083039205195975 0.7003151445824922
3 120 11 121 0.8210263602286578 0.46083039205195975 0.7003151445824922
3 121 56 120 0.8210263602286578 0.46083039205195975 0.7003151445824922
3 121 57 76 0.8210263602286578 0.46083039205195975 0.7003151445824922
3 76 56 121 0.8210263602286578 0.46083039205195975 0.7003151445824922
3 76 57 117 0.8210263602286578 0.46083039205195975 0.7003151445824922
3 117 116 76 0.8210263602286578 0.46083039205195975 0.7003151445824922
3 116 56 76 0.8210263602286578 0.46083039205195975 0.7003151445824922
3 51 50 165 0.8210263602286578 0.46083039205195975 0.7003151445824922
3 165 166 51 0.8210263602286578 0.46083039205195975 0.7003151445824922
3 118 166 165 0.8210263602286578 0.46083039205195975 0.7003151445824922
3 165 54 118 0.8210263602286578 0.46083039205195975 0.7003151445824922
3 86 62 87 0.8210263602286578 0.46083039205195975 0.7003151445824922
3 87 19 86 0.8210263602286578 0.46083039205195975 0.7003151445824922
3 87 41 19 0.8210263602286578 0.46083039205195975 0.7003151445824922
3 132 96 93 0.8210263602286578 0.46083039205195975 0.7003151445824922
3 132 87 62 0.8210263602286578 0.46083039205195975 0.7003151445824922
3 65 96 132 0.8210263602286578 0.46083039205195975 0.7003151445824922
3 132 93 63 0.8210263602286578 0.46083039205195975 0.7003151445824922
3 63 87 132 0.8210263602286578 0.46083039205195975 0.7003151445824922
3 27 65 64 0.8210263602286578 0.46083039205195975 0.7003151445824922
3 26 27 64 0.8210263602286578 0.46083039205195975 0.7003151445824922
3 64 95 26 0.8210263602286578 0.46083039205195975 0.7003151445824922
3 159 160 68 0.8210263602286578 0.46083039205195975 0.7003151445824922
3 68 160 69 0.8210263602286578 0.46083039205195975 0.7003151445824922
3 68 67 159 0.8210263602286578 0.46083039205195975 0.7003151445824922
3 33 67 68 0.8210263602286578 0.46083039205195975 0.7003151445824922
3 68 102 33 0.8210263602286578 0.46083039205195975 0.7003151445824922
3 68 69 102 0.8210263602286578 0.46083039205195975 0.7003151445824922
3 59 147 58 0.8210263602286578 0.46083039205195975 0.7003151445824922
3 125 60 59 0.8210263602286578 0.46083039205195975 0.7003151445824922
3 14 125 59 0.8210263602286578 0.46083039205195975 0.7003151445824922
3 59 58 14 0.8210263602286578 0.46083039205195975 0.7003151445824922
3 148 60 149 0.8210263602286578 0.46083039205195975 0.7003151445824922
3 149 124 148 0.8210263602286578 0.46083039205195975 0.7003151445824922
3 148 59 60 0.8210263602286578 0.46083039205195975 0.7003151445824922
3 147 59 148 0.8210263602286578 0.46083039205195975 0.7003151445824922
3 148 124 81 0.8210263602286578 0.46083039205195975 0.7003151445824922
3 81 147 148 0.8210263602286578 0.46083039205195975 0.7003151445824922
3 152 89 153 0.8210263602286578 0.46083039205195975 0.7003151445824922
3 39 152 153 0.8210263602286578 0.46083039205195975 0.7003151445824922
3 153 40 39 0.8210263602286578 0.46083039205195975 0.7003151445824922
3 154 40 153 0.8210263602286578 0.46083039205195975 0.7003151445824922
3 134 154 153 0.8210263602286578 0.46083039205195975 0.7003151445824922
3 153 89 134 0.8210263602286578 0.46083039205195975 0.7003151445824922
3 82 40 83 0.8210263602286578 0.46083039205195975 0.7003151445824922
3 84 38 83 0.8210263602286578 0.46083039205195975 0.7003151445824922
3 83 154 84 0.8210263602286578 0.46083039205195975 0.7003151445824922
3 83 40 154 0.8210263602286578 0.46083039205195975 0.7003151445824922
3 83 38 37 0.8210263602286578 0.46083039205195975 0.7003151445824922
3 37 82 83 0.8210263602286578 0.46083039205195975 0.7003151445824922
3 88 152 42 0.8210263602286578 0.46083039205195975 0.7003151445824922
3 152 151 42 0.8210263602286578 0.46083039205195975 0.7003151445824922
3 41 87 42 0.8210263602286578 0.46083039205195975 0.7003151445824922
3 18 41 42 0.8210263602286578 0.46083039205195975 0.7003151445824922
3 42 151 18 0.8210263602286578 0.46083039205195975 0.7003151445824922
3 42 63 88 0.8210263602286578 0.46083039205195975 0.7003151445824922
3 42 87 63 0.8210263602286578 0.46083039205195975 0.7003151445824922
3 17 152 39 0.8210263602286578 0.46083039205195975 0.7003151445824922
3 17 151 152 0.8210263602286578 0.46083039205195975 0.7003151445824922
3 18 151 17 0.8210263602286578 0.46083039205195975 0.7003151445824922
3 17 39 16 0.8210263602286578 0.46083039205195975 0.7003151445824922
3 54 165 164 0.8210263602286578 0.46083039205195975 0.7003151445824922
3 164 165 50 0.8210263602286578 0.46083039205195975 0.7003151445824922
3 53 54 164 0.8210263602286578 0.46083039205195975 0.7003151445824922
3 164 163 53 0.8210263602286578 0.46083039205195975 0.7003151445824922
3 164 49 163 0.8210263602286578 0.46083039205195975 0.7003151445824922
3 164 50 49 0.8210263602286578 0.46083039205195975 0.7003151445824922
3 65 132 92 0.8210263602286578 0.46083039205195975 0.7003151445824922
3 92 132 62 0.8210263602286578 0.46083039205195975 0.7003151445824922
3 92 64 65 0.8210263602286578 0.46083039205195975 0.7003151445824922
3 95 64 92 0.8210263602286578 0.46083039205195975 0.7003151445824922
3 92 62 131 0.8210263602286578 0.46083039205195975 0.7003151445824922
3 131 95 92 0.8210263602286578 0.46083039205195975 0.7003151445824922
