OFF
53 47 0


31.4365 28.4032 8.9516
31.4365 28.4032 8.9516
31.41 28.462 8.8833
31.3835 28.5208 8.8149
31.357 28.5797 8.7466
31.3305 28.6385 8.6782
31.3041 28.6973 8.6098
31.2776 28.7562 8.5415
31.2511 28.815 8.4731
31.2246 28.8738 8.4047
31.1981 28.9327 8.3364
31.1716 28.9915 8.268
31.1451 29.0504 8.1996
31.1187 29.1092 8.1313
31.0922 29.168 8.0629
31.0657 29.2269 7.9945
31.0392 29.2857 7.9262
31.0127 29.3445 7.8578
30.9862 29.4034 7.7894
30.9597 29.4622 7.7211
30.9332 29.521 7.6527
30.9068 29.5799 7.5843
30.8803 29.6387 7.516
30.8538 29.6975 7.4476
30.8538 29.6975 7.4476
30.8275 29.7456 7.4168
30.8012 29.7938 7.3863
30.8012 29.7938 7.3863
30.7916 29.776 7.5025
30.7875 29.751 7.6149
30.789 29.7188 7.723
30.7958 29.6801 7.8261
30.8072 29.6358 7.9237
30.8223 29.5875 8.0158
30.8403 29.5364 8.1027
30.8603 29.4835 8.185
30.8818 29.4293 8.2634
30.9044 29.3743 8.3389
30.9281 29.3182 8.4123
30.9528 29.2611 8.4845
30.9785 29.2025 8.5563
31.0054 29.1419 8.6285
31.0338 29.0787 8.7022
31.064 29.0122 8.7783
31.0964 28.9413 8.858
31.1317 28.8647 8.9427
31.1705 28.7809 9.0342
31.2148 28.7179 9.0204
31.2592 28.655 9.0067
31.3035 28.592 8.9929
31.3478 28.5291 8.9792
31.3922 28.4661 8.9654
31.4365 28.4032 8.9516
3 21 29 30 0.5259437840982637 0.10686228196472836 0.4303655111942206
3 13 38 12 0.5259437840982637 0.10686228196472836 0.4303655111942206
3 36 15 35 0.5259437840982637 0.10686228196472836 0.4303655111942206
3 7 44 6 0.5259437840982637 0.10686228196472836 0.4303655111942206
3 43 44 7 0.5259437840982637 0.10686228196472836 0.4303655111942206
3 29 21 22 0.5259437840982637 0.10686228196472836 0.4303655111942206
3 23 28 22 0.5259437840982637 0.10686228196472836 0.4303655111942206
3 22 28 29 0.5259437840982637 0.10686228196472836 0.4303655111942206
3 32 33 18 0.5259437840982637 0.10686228196472836 0.4303655111942206
3 8 43 7 0.5259437840982637 0.10686228196472836 0.4303655111942206
3 4 49 3 0.5259437840982637 0.10686228196472836 0.4303655111942206
3 26 28 25 0.5259437840982637 0.10686228196472836 0.4303655111942206
3 25 28 23 0.5259437840982637 0.10686228196472836 0.4303655111942206
3 12 38 39 0.5259437840982637 0.10686228196472836 0.4303655111942206
3 41 9 10 0.5259437840982637 0.10686228196472836 0.4303655111942206
3 10 40 41 0.5259437840982637 0.10686228196472836 0.4303655111942206
3 15 36 14 0.5259437840982637 0.10686228196472836 0.4303655111942206
3 48 49 4 0.5259437840982637 0.10686228196472836 0.4303655111942206
3 5 48 4 0.5259437840982637 0.10686228196472836 0.4303655111942206
3 47 48 5 0.5259437840982637 0.10686228196472836 0.4303655111942206
3 42 9 41 0.5259437840982637 0.10686228196472836 0.4303655111942206
3 42 8 9 0.5259437840982637 0.10686228196472836 0.4303655111942206
3 43 8 42 0.5259437840982637 0.10686228196472836 0.4303655111942206
3 20 21 30 0.5259437840982637 0.10686228196472836 0.4303655111942206
3 30 31 20 0.5259437840982637 0.10686228196472836 0.4303655111942206
3 17 18 33 0.5259437840982637 0.10686228196472836 0.4303655111942206
3 33 34 17 0.5259437840982637 0.10686228196472836 0.4303655111942206
3 40 10 11 0.5259437840982637 0.10686228196472836 0.4303655111942206
3 12 39 11 0.5259437840982637 0.10686228196472836 0.4303655111942206
3 11 39 40 0.5259437840982637 0.10686228196472836 0.4303655111942206
3 37 14 36 0.5259437840982637 0.10686228196472836 0.4303655111942206
3 38 13 37 0.5259437840982637 0.10686228196472836 0.4303655111942206
3 13 14 37 0.5259437840982637 0.10686228196472836 0.4303655111942206
3 45 6 44 0.5259437840982637 0.10686228196472836 0.4303655111942206
3 45 5 6 0.5259437840982637 0.10686228196472836 0.4303655111942206
3 47 5 45 0.5259437840982637 0.10686228196472836 0.4303655111942206
3 46 47 45 0.5259437840982637 0.10686228196472836 0.4303655111942206
3 32 18 19 0.5259437840982637 0.10686228196472836 0.4303655111942206
3 19 31 32 0.5259437840982637 0.10686228196472836 0.4303655111942206
3 19 20 31 0.5259437840982637 0.10686228196472836 0.4303655111942206
3 50 3 49 0.5259437840982637 0.10686228196472836 0.4303655111942206
3 50 2 3 0.5259437840982637 0.10686228196472836 0.4303655111942206
3 35 15 16 0.5259437840982637 0.10686228196472836 0.4303655111942206
3 16 34 35 0.5259437840982637 0.10686228196472836 0.4303655111942206
3 16 17 34 0.5259437840982637 0.10686228196472836 0.4303655111942206
3 0 2 51 0.5259437840982637 0.10686228196472836 0.4303655111942206
3 2 50 51 0.5259437840982637 0.10686228196472836 0.4303655111942206
