OFF
48 42 0


30.4343 33.3454 8.7708
30.4343 33.3454 8.7708
30.3482 33.4275 8.8429
30.2718 33.4988 8.9063
30.2026 33.562 8.9631
30.1388 33.6192 9.0151
30.0788 33.6719 9.0634
30.0217 33.7213 9.1092
29.9663 33.7684 9.1532
29.9117 33.814 9.1962
29.8572 33.8587 9.2389
29.8019 33.9034 9.2818
29.7449 33.9487 9.3257
29.6853 33.9952 9.3714
29.6219 34.0438 9.4195
29.5534 34.0955 9.4712
29.4778 34.1513 9.5277
29.3929 34.2127 9.5906
29.2955 34.2817 9.6622
29.2955 34.2817 9.6622
29.4308 34.3032 9.6121
29.5447 34.3223 9.5704
29.6442 34.3397 9.5342
29.7342 34.3559 9.5018
29.8179 34.3716 9.4718
29.8982 34.387 9.4432
29.9774 34.4026 9.4151
30.0576 34.4188 9.3869
30.1412 34.4361 9.3577
30.2309 34.4551 9.3265
30.3302 34.4766 9.2921
30.4439 34.5018 9.2531
30.5792 34.5327 9.207
30.5797 34.5278 9.2047
30.5803 34.5229 9.2024
30.5803 34.5229 9.2024
30.5599 34.3888 9.1549
30.5436 34.2776 9.1152
30.5299 34.1812 9.0806
30.518 34.0941 9.0492
30.5073 34.0127 9.0196
30.4972 33.9339 8.9908
30.4875 33.855 8.9619
30.4779 33.7735 8.9318
30.468 33.6864 8.8995
30.4577 33.59 8.8634
30.4466 33.4789 8.8216
30.4343 33.3454 8.7708
3 26 12 11 0.42418953231324585 0.08365416951300231 0.8913796176204565
3 9 28 27 0.42418953231324585 0.08365416951300231 0.8913796176204565
3 39 28 9 0.42418953231324585 0.08365416951300231 0.8913796176204565
3 29 28 39 0.42418953231324585 0.08365416951300231 0.8913796176204565
3 45 4 3 0.42418953231324585 0.08365416951300231 0.8913796176204565
3 14 22 15 0.42418953231324585 0.08365416951300231 0.8913796176204565
3 17 20 18 0.42418953231324585 0.08365416951300231 0.8913796176204565
3 16 20 17 0.42418953231324585 0.08365416951300231 0.8913796176204565
3 23 22 14 0.42418953231324585 0.08365416951300231 0.8913796176204565
3 25 12 26 0.42418953231324585 0.08365416951300231 0.8913796176204565
3 25 24 12 0.42418953231324585 0.08365416951300231 0.8913796176204565
3 12 24 13 0.42418953231324585 0.08365416951300231 0.8913796176204565
3 13 23 14 0.42418953231324585 0.08365416951300231 0.8913796176204565
3 24 23 13 0.42418953231324585 0.08365416951300231 0.8913796176204565
3 26 11 10 0.42418953231324585 0.08365416951300231 0.8913796176204565
3 10 27 26 0.42418953231324585 0.08365416951300231 0.8913796176204565
3 9 27 10 0.42418953231324585 0.08365416951300231 0.8913796176204565
3 3 2 46 0.42418953231324585 0.08365416951300231 0.8913796176204565
3 46 45 3 0.42418953231324585 0.08365416951300231 0.8913796176204565
3 46 2 0 0.42418953231324585 0.08365416951300231 0.8913796176204565
3 21 20 16 0.42418953231324585 0.08365416951300231 0.8913796176204565
3 21 15 22 0.42418953231324585 0.08365416951300231 0.8913796176204565
3 16 15 21 0.42418953231324585 0.08365416951300231 0.8913796176204565
3 4 43 5 0.42418953231324585 0.08365416951300231 0.8913796176204565
3 34 33 31 0.42418953231324585 0.08365416951300231 0.8913796176204565
3 31 33 32 0.42418953231324585 0.08365416951300231 0.8913796176204565
3 29 39 38 0.42418953231324585 0.08365416951300231 0.8913796176204565
3 38 37 29 0.42418953231324585 0.08365416951300231 0.8913796176204565
3 4 45 44 0.42418953231324585 0.08365416951300231 0.8913796176204565
3 44 43 4 0.42418953231324585 0.08365416951300231 0.8913796176204565
3 6 5 42 0.42418953231324585 0.08365416951300231 0.8913796176204565
3 42 5 43 0.42418953231324585 0.08365416951300231 0.8913796176204565
3 8 7 40 0.42418953231324585 0.08365416951300231 0.8913796176204565
3 8 39 9 0.42418953231324585 0.08365416951300231 0.8913796176204565
3 40 39 8 0.42418953231324585 0.08365416951300231 0.8913796176204565
3 34 31 36 0.42418953231324585 0.08365416951300231 0.8913796176204565
3 29 37 30 0.42418953231324585 0.08365416951300231 0.8913796176204565
3 37 36 30 0.42418953231324585 0.08365416951300231 0.8913796176204565
3 30 36 31 0.42418953231324585 0.08365416951300231 0.8913796176204565
3 40 7 41 0.42418953231324585 0.08365416951300231 0.8913796176204565
3 41 7 6 0.42418953231324585 0.08365416951300231 0.8913796176204565
3 6 42 41 0.42418953231324585 0.08365416951300231 0.8913796176204565
