OFF
14 8 0


26.8636 32.9994 8.5773
26.8636 32.9994 8.5773
26.8289 32.9369 8.6081
26.8636 32.9994 8.5773
26.8636 32.9994 8.5773
26.7389 32.945 8.6337
26.6526 32.9099 8.6719
26.5655 32.8763 8.7099
26.437 32.8302 8.7649
26.437 32.8302 8.7649
26.5085 32.839 8.7397
26.58 32.8479 8.7145
26.6515 32.8567 8.6893
26.723 32.8655 8.6641
3 2 0 5 0.10403233889033303 0.18414645422680698 0.5867910986272207
3 5 13 2 0.10403233889033303 0.18414645422680698 0.5867910986272207
3 6 13 5 0.10403233889033303 0.18414645422680698 0.5867910986272207
3 12 13 6 0.10403233889033303 0.18414645422680698 0.5867910986272207
3 6 7 12 0.10403233889033303 0.18414645422680698 0.5867910986272207
3 12 7 11 0.10403233889033303 0.18414645422680698 0.5867910986272207
3 10 7 8 0.10403233889033303 0.18414645422680698 0.5867910986272207
3 11 7 10 0.10403233889033303 0.18414645422680698 0.5867910986272207
