OFF
117 193 0


28.1481 32.0571 10.9602
28.1481 32.0571 10.9602
28.2272 31.95 10.9434
28.2924 31.8603 10.9315
28.3491 31.7813 10.9229
28.4007 31.7084 10.9163
28.4499 31.6381 10.9114
28.4987 31.5675 10.9078
28.5492 31.4934 10.9054
28.6038 31.4123 10.9045
28.6654 31.3193 10.9055
28.7385 31.2072 10.9095
28.7385 31.2072 10.9095
28.6375 31.3025 10.9533
28.5565 31.3794 10.9894
28.4871 31.4453 11.0209
28.4245 31.5052 11.05
28.3649 31.5622 11.0781
28.3055 31.6192 11.1066
28.2435 31.679 11.1368
28.1752 31.7449 11.1706
28.0959 31.8217 11.2106
27.9979 31.917 11.261
28.0338 31.9709 11.1723
28.0602 32.0108 11.1072
28.0962 32.0655 11.0192
28.0962 32.0655 11.0192
28.1099 32.0736 10.9957
28.1236 32.0816 10.9723
28.1236 32.0816 10.9723
28.1359 32.0693 10.9662
28.1481 32.0571 10.9602
28.1687 32.0081 10.9719
28.3456 31.7706 10.9356
28.3421 31.7599 10.9484
28.4298 31.6509 10.9259
28.4097 31.6639 10.9405
28.5126 31.5299 10.9209
28.476 31.5666 10.9364
28.4082 31.5404 11.0416
28.392 31.5757 11.0333
28.3093 31.6357 11.0885
28.313 31.652 11.0706
28.2015 31.74 11.1411
28.2274 31.7351 11.112
28.107 31.9587 11.0882
28.1528 31.9081 11.0697
28.2441 31.9105 10.9529
28.2609 31.8713 10.9624
28.2777 31.8323 10.9718
28.6086 31.385 10.9209
28.5523 31.4505 10.9364
28.4964 31.5161 10.952
28.5851 31.3713 10.9608
28.5332 31.4399 10.9684
28.4818 31.5084 10.9761
28.4603 31.4904 11.0174
28.4337 31.5355 11.0139
28.4072 31.5806 11.0104
28.0569 31.8806 11.2137
28.1141 31.8457 11.1682
28.1695 31.8119 11.1243
28.2983 31.8363 10.9429
28.3042 31.8124 10.9544
28.3101 31.7885 10.9658
28.316 31.7645 10.9772
28.4706 31.5918 10.9229
28.4424 31.6164 10.938
28.414 31.6411 10.9533
28.3855 31.6661 10.9688
28.6681 31.2925 10.9243
28.599 31.3769 10.9391
28.531 31.461 10.954
28.4634 31.5453 10.9691
28.518 31.4353 10.991
28.4798 31.4912 10.9927
28.4417 31.5471 10.9944
28.4039 31.6033 10.9963
28.2578 31.6854 11.1134
28.2721 31.6917 11.0903
28.2862 31.6981 11.0675
28.3002 31.7043 11.0448
28.0857 31.9254 11.1415
28.1362 31.8814 11.1117
28.1856 31.8387 11.0827
28.2339 31.7971 11.0545
28.1363 32.0044 11.0157
28.1756 31.9446 11.0123
28.2143 31.8862 11.0091
28.2526 31.8288 11.006
28.3888 31.7097 10.9301
28.3767 31.7111 10.944
28.3646 31.7125 10.9579
28.3525 31.7139 10.9719
28.3403 31.7153 10.986
28.5579 31.4622 10.9201
28.5121 31.5123 10.9357
28.4664 31.5626 10.9515
28.4205 31.6134 10.9675
28.3744 31.6647 10.9837
28.3586 31.5881 11.065
28.3524 31.6139 11.0519
28.3462 31.6397 11.0389
28.3401 31.6654 11.0259
28.334 31.6911 11.013
28.1365 31.8031 11.1734
28.1762 31.785 11.1372
28.2151 31.7673 11.1019
28.2534 31.7501 11.0673
28.291 31.7333 11.0334
28.1788 31.9982 10.9669
28.209 31.9403 10.9736
28.239 31.8834 10.9803
28.2688 31.8272 10.9869
28.2984 31.7717 10.9935
28.328 31.7167 11.0001
28.328 31.7167 11.0001
3 115 65 114 0.39011999419612986 0.2408769569660586 0.9326257004581703
3 82 24 23 0.39011999419612986 0.2408769569660586 0.9326257004581703
3 89 114 113 0.39011999419612986 0.2408769569660586 0.9326257004581703
3 46 83 84 0.39011999419612986 0.2408769569660586 0.9326257004581703
3 48 89 113 0.39011999419612986 0.2408769569660586 0.9326257004581703
3 22 21 59 0.39011999419612986 0.2408769569660586 0.9326257004581703
3 59 23 22 0.39011999419612986 0.2408769569660586 0.9326257004581703
3 82 23 59 0.39011999419612986 0.2408769569660586 0.9326257004581703
3 115 81 104 0.39011999419612986 0.2408769569660586 0.9326257004581703
3 30 27 1 0.39011999419612986 0.2408769569660586 0.9326257004581703
3 28 27 30 0.39011999419612986 0.2408769569660586 0.9326257004581703
3 113 63 49 0.39011999419612986 0.2408769569660586 0.9326257004581703
3 49 48 113 0.39011999419612986 0.2408769569660586 0.9326257004581703
3 3 48 49 0.39011999419612986 0.2408769569660586 0.9326257004581703
3 113 114 64 0.39011999419612986 0.2408769569660586 0.9326257004581703
3 64 63 113 0.39011999419612986 0.2408769569660586 0.9326257004581703
3 64 114 65 0.39011999419612986 0.2408769569660586 0.9326257004581703
3 65 34 64 0.39011999419612986 0.2408769569660586 0.9326257004581703
3 4 63 64 0.39011999419612986 0.2408769569660586 0.9326257004581703
3 111 87 88 0.39011999419612986 0.2408769569660586 0.9326257004581703
3 84 89 88 0.39011999419612986 0.2408769569660586 0.9326257004581703
3 88 46 84 0.39011999419612986 0.2408769569660586 0.9326257004581703
3 88 87 46 0.39011999419612986 0.2408769569660586 0.9326257004581703
3 47 2 111 0.39011999419612986 0.2408769569660586 0.9326257004581703
3 3 2 47 0.39011999419612986 0.2408769569660586 0.9326257004581703
3 47 48 3 0.39011999419612986 0.2408769569660586 0.9326257004581703
3 21 105 60 0.39011999419612986 0.2408769569660586 0.9326257004581703
3 60 83 82 0.39011999419612986 0.2408769569660586 0.9326257004581703
3 82 59 60 0.39011999419612986 0.2408769569660586 0.9326257004581703
3 60 59 21 0.39011999419612986 0.2408769569660586 0.9326257004581703
3 115 114 109 0.39011999419612986 0.2408769569660586 0.9326257004581703
3 109 81 115 0.39011999419612986 0.2408769569660586 0.9326257004581703
3 18 101 41 0.39011999419612986 0.2408769569660586 0.9326257004581703
3 41 101 42 0.39011999419612986 0.2408769569660586 0.9326257004581703
3 115 104 94 0.39011999419612986 0.2408769569660586 0.9326257004581703
3 94 65 115 0.39011999419612986 0.2408769569660586 0.9326257004581703
3 94 34 65 0.39011999419612986 0.2408769569660586 0.9326257004581703
3 4 64 33 0.39011999419612986 0.2408769569660586 0.9326257004581703
3 33 64 34 0.39011999419612986 0.2408769569660586 0.9326257004581703
3 14 13 53 0.39011999419612986 0.2408769569660586 0.9326257004581703
3 71 10 50 0.39011999419612986 0.2408769569660586 0.9326257004581703
3 71 13 10 0.39011999419612986 0.2408769569660586 0.9326257004581703
3 71 53 13 0.39011999419612986 0.2408769569660586 0.9326257004581703
3 51 53 71 0.39011999419612986 0.2408769569660586 0.9326257004581703
3 11 10 70 0.39011999419612986 0.2408769569660586 0.9326257004581703
3 70 13 11 0.39011999419612986 0.2408769569660586 0.9326257004581703
3 10 13 70 0.39011999419612986 0.2408769569660586 0.9326257004581703
3 3 49 62 0.39011999419612986 0.2408769569660586 0.9326257004581703
3 62 49 63 0.39011999419612986 0.2408769569660586 0.9326257004581703
3 4 3 62 0.39011999419612986 0.2408769569660586 0.9326257004581703
3 62 63 4 0.39011999419612986 0.2408769569660586 0.9326257004581703
3 110 87 111 0.39011999419612986 0.2408769569660586 0.9326257004581703
3 110 2 1 0.39011999419612986 0.2408769569660586 0.9326257004581703
3 111 2 110 0.39011999419612986 0.2408769569660586 0.9326257004581703
3 46 87 45 0.39011999419612986 0.2408769569660586 0.9326257004581703
3 45 24 82 0.39011999419612986 0.2408769569660586 0.9326257004581703
3 82 83 45 0.39011999419612986 0.2408769569660586 0.9326257004581703
3 83 46 45 0.39011999419612986 0.2408769569660586 0.9326257004581703
3 89 48 112 0.39011999419612986 0.2408769569660586 0.9326257004581703
3 112 88 89 0.39011999419612986 0.2408769569660586 0.9326257004581703
3 48 47 112 0.39011999419612986 0.2408769569660586 0.9326257004581703
3 111 88 112 0.39011999419612986 0.2408769569660586 0.9326257004581703
3 112 47 111 0.39011999419612986 0.2408769569660586 0.9326257004581703
3 114 89 85 0.39011999419612986 0.2408769569660586 0.9326257004581703
3 85 89 84 0.39011999419612986 0.2408769569660586 0.9326257004581703
3 16 39 17 0.39011999419612986 0.2408769569660586 0.9326257004581703
3 17 39 40 0.39011999419612986 0.2408769569660586 0.9326257004581703
3 95 51 9 0.39011999419612986 0.2408769569660586 0.9326257004581703
3 9 8 95 0.39011999419612986 0.2408769569660586 0.9326257004581703
3 9 71 50 0.39011999419612986 0.2408769569660586 0.9326257004581703
3 51 71 9 0.39011999419612986 0.2408769569660586 0.9326257004581703
3 50 10 9 0.39011999419612986 0.2408769569660586 0.9326257004581703
3 42 101 102 0.39011999419612986 0.2408769569660586 0.9326257004581703
3 7 6 66 0.39011999419612986 0.2408769569660586 0.9326257004581703
3 6 67 66 0.39011999419612986 0.2408769569660586 0.9326257004581703
3 97 67 98 0.39011999419612986 0.2408769569660586 0.9326257004581703
3 97 66 67 0.39011999419612986 0.2408769569660586 0.9326257004581703
3 86 45 87 0.39011999419612986 0.2408769569660586 0.9326257004581703
3 25 24 86 0.39011999419612986 0.2408769569660586 0.9326257004581703
3 24 45 86 0.39011999419612986 0.2408769569660586 0.9326257004581703
3 86 27 25 0.39011999419612986 0.2408769569660586 0.9326257004581703
3 1 27 86 0.39011999419612986 0.2408769569660586 0.9326257004581703
3 108 109 114 0.39011999419612986 0.2408769569660586 0.9326257004581703
3 114 85 108 0.39011999419612986 0.2408769569660586 0.9326257004581703
3 99 102 77 0.39011999419612986 0.2408769569660586 0.9326257004581703
3 101 40 77 0.39011999419612986 0.2408769569660586 0.9326257004581703
3 77 102 101 0.39011999419612986 0.2408769569660586 0.9326257004581703
3 17 40 100 0.39011999419612986 0.2408769569660586 0.9326257004581703
3 100 40 101 0.39011999419612986 0.2408769569660586 0.9326257004581703
3 100 18 17 0.39011999419612986 0.2408769569660586 0.9326257004581703
3 100 101 18 0.39011999419612986 0.2408769569660586 0.9326257004581703
3 54 74 14 0.39011999419612986 0.2408769569660586 0.9326257004581703
3 14 53 54 0.39011999419612986 0.2408769569660586 0.9326257004581703
3 54 53 51 0.39011999419612986 0.2408769569660586 0.9326257004581703
3 14 74 15 0.39011999419612986 0.2408769569660586 0.9326257004581703
3 56 16 15 0.39011999419612986 0.2408769569660586 0.9326257004581703
3 103 99 104 0.39011999419612986 0.2408769569660586 0.9326257004581703
3 103 102 99 0.39011999419612986 0.2408769569660586 0.9326257004581703
3 42 102 103 0.39011999419612986 0.2408769569660586 0.9326257004581703
3 103 81 42 0.39011999419612986 0.2408769569660586 0.9326257004581703
3 103 104 81 0.39011999419612986 0.2408769569660586 0.9326257004581703
3 68 77 98 0.39011999419612986 0.2408769569660586 0.9326257004581703
3 98 67 68 0.39011999419612986 0.2408769569660586 0.9326257004581703
3 91 33 34 0.39011999419612986 0.2408769569660586 0.9326257004581703
3 7 66 38 0.39011999419612986 0.2408769569660586 0.9326257004581703
3 66 97 38 0.39011999419612986 0.2408769569660586 0.9326257004581703
3 87 110 32 0.39011999419612986 0.2408769569660586 0.9326257004581703
3 32 86 87 0.39011999419612986 0.2408769569660586 0.9326257004581703
3 32 110 1 0.39011999419612986 0.2408769569660586 0.9326257004581703
3 1 86 32 0.39011999419612986 0.2408769569660586 0.9326257004581703
3 81 109 80 0.39011999419612986 0.2408769569660586 0.9326257004581703
3 109 108 80 0.39011999419612986 0.2408769569660586 0.9326257004581703
3 42 81 80 0.39011999419612986 0.2408769569660586 0.9326257004581703
3 76 97 98 0.39011999419612986 0.2408769569660586 0.9326257004581703
3 73 97 76 0.39011999419612986 0.2408769569660586 0.9326257004581703
3 35 67 6 0.39011999419612986 0.2408769569660586 0.9326257004581703
3 35 68 67 0.39011999419612986 0.2408769569660586 0.9326257004581703
3 36 68 35 0.39011999419612986 0.2408769569660586 0.9326257004581703
3 93 94 104 0.39011999419612986 0.2408769569660586 0.9326257004581703
3 104 99 93 0.39011999419612986 0.2408769569660586 0.9326257004581703
3 34 94 93 0.39011999419612986 0.2408769569660586 0.9326257004581703
3 69 68 36 0.39011999419612986 0.2408769569660586 0.9326257004581703
3 99 77 69 0.39011999419612986 0.2408769569660586 0.9326257004581703
3 77 68 69 0.39011999419612986 0.2408769569660586 0.9326257004581703
3 79 41 42 0.39011999419612986 0.2408769569660586 0.9326257004581703
3 42 80 79 0.39011999419612986 0.2408769569660586 0.9326257004581703
3 79 80 108 0.39011999419612986 0.2408769569660586 0.9326257004581703
3 105 106 61 0.39011999419612986 0.2408769569660586 0.9326257004581703
3 84 83 61 0.39011999419612986 0.2408769569660586 0.9326257004581703
3 83 60 61 0.39011999419612986 0.2408769569660586 0.9326257004581703
3 61 60 105 0.39011999419612986 0.2408769569660586 0.9326257004581703
3 107 108 85 0.39011999419612986 0.2408769569660586 0.9326257004581703
3 107 61 106 0.39011999419612986 0.2408769569660586 0.9326257004581703
3 107 85 84 0.39011999419612986 0.2408769569660586 0.9326257004581703
3 84 61 107 0.39011999419612986 0.2408769569660586 0.9326257004581703
3 39 16 57 0.39011999419612986 0.2408769569660586 0.9326257004581703
3 57 16 56 0.39011999419612986 0.2408769569660586 0.9326257004581703
3 58 77 40 0.39011999419612986 0.2408769569660586 0.9326257004581703
3 58 57 76 0.39011999419612986 0.2408769569660586 0.9326257004581703
3 98 77 58 0.39011999419612986 0.2408769569660586 0.9326257004581703
3 58 76 98 0.39011999419612986 0.2408769569660586 0.9326257004581703
3 58 40 39 0.39011999419612986 0.2408769569660586 0.9326257004581703
3 39 57 58 0.39011999419612986 0.2408769569660586 0.9326257004581703
3 72 54 51 0.39011999419612986 0.2408769569660586 0.9326257004581703
3 72 51 95 0.39011999419612986 0.2408769569660586 0.9326257004581703
3 74 54 72 0.39011999419612986 0.2408769569660586 0.9326257004581703
3 95 8 72 0.39011999419612986 0.2408769569660586 0.9326257004581703
3 8 96 72 0.39011999419612986 0.2408769569660586 0.9326257004581703
3 37 8 7 0.39011999419612986 0.2408769569660586 0.9326257004581703
3 37 96 8 0.39011999419612986 0.2408769569660586 0.9326257004581703
3 7 38 37 0.39011999419612986 0.2408769569660586 0.9326257004581703
3 36 35 5 0.39011999419612986 0.2408769569660586 0.9326257004581703
3 5 35 6 0.39011999419612986 0.2408769569660586 0.9326257004581703
3 92 69 91 0.39011999419612986 0.2408769569660586 0.9326257004581703
3 92 91 34 0.39011999419612986 0.2408769569660586 0.9326257004581703
3 34 93 92 0.39011999419612986 0.2408769569660586 0.9326257004581703
3 92 93 99 0.39011999419612986 0.2408769569660586 0.9326257004581703
3 99 69 92 0.39011999419612986 0.2408769569660586 0.9326257004581703
3 18 41 78 0.39011999419612986 0.2408769569660586 0.9326257004581703
3 41 79 78 0.39011999419612986 0.2408769569660586 0.9326257004581703
3 52 72 96 0.39011999419612986 0.2408769569660586 0.9326257004581703
3 96 37 52 0.39011999419612986 0.2408769569660586 0.9326257004581703
3 52 37 38 0.39011999419612986 0.2408769569660586 0.9326257004581703
3 52 97 73 0.39011999419612986 0.2408769569660586 0.9326257004581703
3 52 38 97 0.39011999419612986 0.2408769569660586 0.9326257004581703
3 75 15 74 0.39011999419612986 0.2408769569660586 0.9326257004581703
3 74 72 75 0.39011999419612986 0.2408769569660586 0.9326257004581703
3 56 15 75 0.39011999419612986 0.2408769569660586 0.9326257004581703
3 36 5 90 0.39011999419612986 0.2408769569660586 0.9326257004581703
3 90 69 36 0.39011999419612986 0.2408769569660586 0.9326257004581703
3 91 69 90 0.39011999419612986 0.2408769569660586 0.9326257004581703
3 33 91 90 0.39011999419612986 0.2408769569660586 0.9326257004581703
3 4 33 90 0.39011999419612986 0.2408769569660586 0.9326257004581703
3 90 5 4 0.39011999419612986 0.2408769569660586 0.9326257004581703
3 43 107 106 0.39011999419612986 0.2408769569660586 0.9326257004581703
3 108 107 44 0.39011999419612986 0.2408769569660586 0.9326257004581703
3 44 79 108 0.39011999419612986 0.2408769569660586 0.9326257004581703
3 44 78 79 0.39011999419612986 0.2408769569660586 0.9326257004581703
3 107 43 44 0.39011999419612986 0.2408769569660586 0.9326257004581703
3 72 52 55 0.39011999419612986 0.2408769569660586 0.9326257004581703
3 55 75 72 0.39011999419612986 0.2408769569660586 0.9326257004581703
3 55 52 73 0.39011999419612986 0.2408769569660586 0.9326257004581703
3 73 76 55 0.39011999419612986 0.2408769569660586 0.9326257004581703
3 56 75 55 0.39011999419612986 0.2408769569660586 0.9326257004581703
3 55 57 56 0.39011999419612986 0.2408769569660586 0.9326257004581703
3 76 57 55 0.39011999419612986 0.2408769569660586 0.9326257004581703
3 18 78 19 0.39011999419612986 0.2408769569660586 0.9326257004581703
3 78 44 19 0.39011999419612986 0.2408769569660586 0.9326257004581703
3 19 44 43 0.39011999419612986 0.2408769569660586 0.9326257004581703
3 20 19 43 0.39011999419612986 0.2408769569660586 0.9326257004581703
3 20 105 21 0.39011999419612986 0.2408769569660586 0.9326257004581703
3 20 106 105 0.39011999419612986 0.2408769569660586 0.9326257004581703
3 20 43 106 0.39011999419612986 0.2408769569660586 0.9326257004581703
