OFF
15 9 0


28.7183 30.7817 10.8312
28.7183 30.7817 10.8312
28.8315 30.8246 10.893
28.916 30.8604 10.937
28.9999 30.8992 10.979
29.0354 30.9893 10.9572
29.0608 30.9781 10.9823
29.0862 30.9668 11.0073
29.1116 30.9556 11.0324
29.0354 30.9893 10.9572
28.9658 31.0052 10.8966
28.8961 31.0207 10.8361
28.8961 31.0207 10.8361
28.8069 30.9014 10.8333
28.7183 30.7817 10.8312
3 3 11 13 0.357087447515947 0.5460207199813679 0.6519772312454837
3 13 2 3 0.357087447515947 0.5460207199813679 0.6519772312454837
3 0 2 13 0.357087447515947 0.5460207199813679 0.6519772312454837
3 10 11 3 0.357087447515947 0.5460207199813679 0.6519772312454837
3 4 10 3 0.357087447515947 0.5460207199813679 0.6519772312454837
3 9 10 4 0.357087447515947 0.5460207199813679 0.6519772312454837
3 4 6 9 0.357087447515947 0.5460207199813679 0.6519772312454837
3 7 6 4 0.357087447515947 0.5460207199813679 0.6519772312454837
3 8 7 4 0.357087447515947 0.5460207199813679 0.6519772312454837
