OFF
19 14 0


27.9612 32.0745 11.6243
27.9612 32.0745 11.6243
27.8632 32.0055 11.5753
27.7899 31.9528 11.5364
27.7263 31.9064 11.5011
27.6634 31.8597 11.4647
27.5928 31.8063 11.4219
27.5015 31.7358 11.3632
27.6241 31.7798 11.3364
27.7107 31.8111 11.318
27.7886 31.8396 11.302
27.8753 31.8715 11.2846
27.9979 31.917 11.261
27.9979 31.917 11.261
27.9906 31.9485 11.3336
27.9832 31.98 11.4063
27.9759 32.0115 11.479
27.9685 32.043 11.5516
27.9612 32.0745 11.6243
3 5 6 8 0.5347451519067877 0.7745893600077789 0.8583741758827174
3 8 6 7 0.5347451519067877 0.7745893600077789 0.8583741758827174
3 3 16 2 0.5347451519067877 0.7745893600077789 0.8583741758827174
3 16 17 2 0.5347451519067877 0.7745893600077789 0.8583741758827174
3 2 17 0 0.5347451519067877 0.7745893600077789 0.8583741758827174
3 15 16 3 0.5347451519067877 0.7745893600077789 0.8583741758827174
3 3 4 10 0.5347451519067877 0.7745893600077789 0.8583741758827174
3 14 15 11 0.5347451519067877 0.7745893600077789 0.8583741758827174
3 12 14 11 0.5347451519067877 0.7745893600077789 0.8583741758827174
3 11 15 3 0.5347451519067877 0.7745893600077789 0.8583741758827174
3 3 10 11 0.5347451519067877 0.7745893600077789 0.8583741758827174
3 9 4 5 0.5347451519067877 0.7745893600077789 0.8583741758827174
3 9 10 4 0.5347451519067877 0.7745893600077789 0.8583741758827174
3 5 8 9 0.5347451519067877 0.7745893600077789 0.8583741758827174
