OFF
13 8 0


26.5168 28.4414 11.1126
26.5168 28.4414 11.1126
26.5533 28.5582 11.1021
26.5801 28.6443 11.0948
26.6163 28.7613 11.0854
26.6259 28.6936 10.988
26.6329 28.6471 10.9197
26.6401 28.6011 10.8511
26.6509 28.536 10.752
26.6509 28.536 10.752
26.6021 28.5035 10.8854
26.5666 28.4785 10.9808
26.5168 28.4414 11.1126
3 10 6 11 0.9615655917333785 0.6915991617814021 0.13096807049041637
3 0 11 2 0.9615655917333785 0.6915991617814021 0.13096807049041637
3 11 6 2 0.9615655917333785 0.6915991617814021 0.13096807049041637
3 6 3 2 0.9615655917333785 0.6915991617814021 0.13096807049041637
3 4 3 5 0.9615655917333785 0.6915991617814021 0.13096807049041637
3 5 3 6 0.9615655917333785 0.6915991617814021 0.13096807049041637
3 7 10 8 0.9615655917333785 0.6915991617814021 0.13096807049041637
3 6 10 7 0.9615655917333785 0.6915991617814021 0.13096807049041637
