OFF
104 95 0


27.2733 34.8319 5.8969
27.2733 34.8319 5.8969
27.2624 34.7497 6.0128
27.2523 34.6758 6.118
27.2427 34.6085 6.2148
27.2334 34.5465 6.3048
27.2245 34.4889 6.3894
27.2157 34.4347 6.4697
27.2071 34.3833 6.5468
27.1985 34.3341 6.6213
27.1898 34.2867 6.6941
27.1811 34.2406 6.7657
27.1721 34.1954 6.8367
27.1629 34.1508 6.9078
27.1533 34.1065 6.9795
27.1433 34.062 7.0524
27.1327 34.0172 7.127
27.1214 33.9717 7.2042
27.1093 33.9251 7.2845
27.0962 33.8771 7.3689
27.0819 33.8272 7.4582
27.0661 33.7751 7.5537
27.0485 33.72 7.6567
27.0287 33.6614 7.7688
27.0063 33.5985 7.8922
27.0063 33.5985 7.8922
27.0023 33.5476 7.9573
26.9983 33.4968 8.0223
26.9943 33.446 8.0874
26.9903 33.3952 8.1525
26.9863 33.3443 8.2175
26.9823 33.2935 8.2826
26.9783 33.2427 8.3477
26.9743 33.1919 8.4127
26.9703 33.141 8.4778
26.9703 33.141 8.4778
27.0436 33.0567 8.3897
27.1085 32.9816 8.312
27.1671 32.9135 8.2424
27.2208 32.8508 8.179
27.2706 32.7923 8.1204
27.3176 32.7369 8.0654
27.3624 32.6838 8.0133
27.4056 32.6323 7.9632
27.4479 32.5818 7.9144
27.4896 32.5317 7.8665
27.5314 32.4814 7.8187
27.5737 32.4302 7.7707
27.6169 32.3777 7.7217
27.6617 32.3231 7.6713
27.7087 32.2655 7.6186
27.7586 32.2042 7.563
27.8122 32.1379 7.5035
27.8709 32.0651 7.4388
27.9359 31.9841 7.3674
28.0094 31.8921 7.2873
28.0094 31.8921 7.2873
28.0399 31.8917 7.2128
28.0705 31.8913 7.1382
28.1011 31.8909 7.0637
28.1316 31.8904 6.9892
28.1622 31.89 6.9147
28.1928 31.8896 6.8402
28.2234 31.8892 6.7657
28.2539 31.8888 6.6911
28.2845 31.8884 6.6166
28.3151 31.888 6.5421
28.3151 31.888 6.5421
28.3036 31.922 6.5332
28.2922 31.956 6.5242
28.2922 31.956 6.5242
28.2408 32.0724 6.5237
28.1923 32.1834 6.5219
28.1464 32.2899 6.5189
28.1027 32.3924 6.5146
28.061 32.4915 6.5091
28.0212 32.5876 6.5022
27.983 32.6813 6.4941
27.9463 32.7728 6.4846
27.911 32.8625 6.4738
27.8769 32.9506 6.4615
27.844 33.0374 6.4479
27.8121 33.1232 6.4327
27.7813 33.2082 6.4161
27.7513 33.2924 6.3979
27.7222 33.3762 6.3782
27.6939 33.4597 6.3569
27.6663 33.5431 6.334
27.6393 33.6265 6.3094
27.6129 33.7102 6.2831
27.587 33.7944 6.2552
27.5615 33.8793 6.2254
27.5363 33.9652 6.1939
27.5113 34.0524 6.1604
27.4865 34.141 6.1249
27.4617 34.2316 6.0873
27.4368 34.3245 6.0474
27.4117 34.4201 6.0051
27.3863 34.5189 5.96
27.3604 34.6216 5.9119
27.3338 34.7288 5.8605
27.3065 34.8412 5.8053
27.2899 34.8364 5.8511
27.2733 34.8319 5.8969
3 0 100 102 0.6880641539759579 0.8962102858462847 0.20805031102514682
3 100 101 102 0.6880641539759579 0.8962102858462847 0.20805031102514682
3 2 100 0 0.6880641539759579 0.8962102858462847 0.20805031102514682
3 83 20 21 0.6880641539759579 0.8962102858462847 0.20805031102514682
3 22 44 21 0.6880641539759579 0.8962102858462847 0.20805031102514682
3 57 54 55 0.6880641539759579 0.8962102858462847 0.20805031102514682
3 17 86 87 0.6880641539759579 0.8962102858462847 0.20805031102514682
3 100 2 99 0.6880641539759579 0.8962102858462847 0.20805031102514682
3 96 97 5 0.6880641539759579 0.8962102858462847 0.20805031102514682
3 30 31 37 0.6880641539759579 0.8962102858462847 0.20805031102514682
3 14 88 89 0.6880641539759579 0.8962102858462847 0.20805031102514682
3 89 13 14 0.6880641539759579 0.8962102858462847 0.20805031102514682
3 18 86 17 0.6880641539759579 0.8962102858462847 0.20805031102514682
3 84 20 83 0.6880641539759579 0.8962102858462847 0.20805031102514682
3 84 19 20 0.6880641539759579 0.8962102858462847 0.20805031102514682
3 46 47 80 0.6880641539759579 0.8962102858462847 0.20805031102514682
3 80 81 46 0.6880641539759579 0.8962102858462847 0.20805031102514682
3 37 31 32 0.6880641539759579 0.8962102858462847 0.20805031102514682
3 32 36 37 0.6880641539759579 0.8962102858462847 0.20805031102514682
3 38 39 29 0.6880641539759579 0.8962102858462847 0.20805031102514682
3 29 30 38 0.6880641539759579 0.8962102858462847 0.20805031102514682
3 38 30 37 0.6880641539759579 0.8962102858462847 0.20805031102514682
3 41 23 26 0.6880641539759579 0.8962102858462847 0.20805031102514682
3 83 21 82 0.6880641539759579 0.8962102858462847 0.20805031102514682
3 82 21 44 0.6880641539759579 0.8962102858462847 0.20805031102514682
3 3 99 2 0.6880641539759579 0.8962102858462847 0.20805031102514682
3 98 99 3 0.6880641539759579 0.8962102858462847 0.20805031102514682
3 73 74 60 0.6880641539759579 0.8962102858462847 0.20805031102514682
3 90 13 89 0.6880641539759579 0.8962102858462847 0.20805031102514682
3 9 93 8 0.6880641539759579 0.8962102858462847 0.20805031102514682
3 10 93 9 0.6880641539759579 0.8962102858462847 0.20805031102514682
3 88 14 15 0.6880641539759579 0.8962102858462847 0.20805031102514682
3 15 87 88 0.6880641539759579 0.8962102858462847 0.20805031102514682
3 85 18 19 0.6880641539759579 0.8962102858462847 0.20805031102514682
3 19 84 85 0.6880641539759579 0.8962102858462847 0.20805031102514682
3 86 18 85 0.6880641539759579 0.8962102858462847 0.20805031102514682
3 45 46 81 0.6880641539759579 0.8962102858462847 0.20805031102514682
3 45 82 44 0.6880641539759579 0.8962102858462847 0.20805031102514682
3 81 82 45 0.6880641539759579 0.8962102858462847 0.20805031102514682
3 96 5 6 0.6880641539759579 0.8962102858462847 0.20805031102514682
3 6 95 96 0.6880641539759579 0.8962102858462847 0.20805031102514682
3 34 36 33 0.6880641539759579 0.8962102858462847 0.20805031102514682
3 36 32 33 0.6880641539759579 0.8962102858462847 0.20805031102514682
3 29 39 28 0.6880641539759579 0.8962102858462847 0.20805031102514682
3 39 27 28 0.6880641539759579 0.8962102858462847 0.20805031102514682
3 22 23 42 0.6880641539759579 0.8962102858462847 0.20805031102514682
3 23 41 42 0.6880641539759579 0.8962102858462847 0.20805031102514682
3 40 27 39 0.6880641539759579 0.8962102858462847 0.20805031102514682
3 26 27 40 0.6880641539759579 0.8962102858462847 0.20805031102514682
3 40 41 26 0.6880641539759579 0.8962102858462847 0.20805031102514682
3 70 71 65 0.6880641539759579 0.8962102858462847 0.20805031102514682
3 71 64 65 0.6880641539759579 0.8962102858462847 0.20805031102514682
3 68 70 65 0.6880641539759579 0.8962102858462847 0.20805031102514682
3 66 68 65 0.6880641539759579 0.8962102858462847 0.20805031102514682
3 63 64 71 0.6880641539759579 0.8962102858462847 0.20805031102514682
3 63 71 72 0.6880641539759579 0.8962102858462847 0.20805031102514682
3 72 62 63 0.6880641539759579 0.8962102858462847 0.20805031102514682
3 26 23 25 0.6880641539759579 0.8962102858462847 0.20805031102514682
3 98 3 4 0.6880641539759579 0.8962102858462847 0.20805031102514682
3 4 97 98 0.6880641539759579 0.8962102858462847 0.20805031102514682
3 4 5 97 0.6880641539759579 0.8962102858462847 0.20805031102514682
3 75 52 53 0.6880641539759579 0.8962102858462847 0.20805031102514682
3 53 74 75 0.6880641539759579 0.8962102858462847 0.20805031102514682
3 73 60 61 0.6880641539759579 0.8962102858462847 0.20805031102514682
3 61 62 72 0.6880641539759579 0.8962102858462847 0.20805031102514682
3 72 73 61 0.6880641539759579 0.8962102858462847 0.20805031102514682
3 59 60 74 0.6880641539759579 0.8962102858462847 0.20805031102514682
3 59 53 54 0.6880641539759579 0.8962102858462847 0.20805031102514682
3 74 53 59 0.6880641539759579 0.8962102858462847 0.20805031102514682
3 8 93 94 0.6880641539759579 0.8962102858462847 0.20805031102514682
3 13 90 12 0.6880641539759579 0.8962102858462847 0.20805031102514682
3 79 48 49 0.6880641539759579 0.8962102858462847 0.20805031102514682
3 80 47 79 0.6880641539759579 0.8962102858462847 0.20805031102514682
3 47 48 79 0.6880641539759579 0.8962102858462847 0.20805031102514682
3 92 93 10 0.6880641539759579 0.8962102858462847 0.20805031102514682
3 10 11 92 0.6880641539759579 0.8962102858462847 0.20805031102514682
3 17 87 16 0.6880641539759579 0.8962102858462847 0.20805031102514682
3 87 15 16 0.6880641539759579 0.8962102858462847 0.20805031102514682
3 50 51 77 0.6880641539759579 0.8962102858462847 0.20805031102514682
3 43 44 22 0.6880641539759579 0.8962102858462847 0.20805031102514682
3 22 42 43 0.6880641539759579 0.8962102858462847 0.20805031102514682
3 95 6 7 0.6880641539759579 0.8962102858462847 0.20805031102514682
3 8 94 7 0.6880641539759579 0.8962102858462847 0.20805031102514682
3 7 94 95 0.6880641539759579 0.8962102858462847 0.20805031102514682
3 58 54 57 0.6880641539759579 0.8962102858462847 0.20805031102514682
3 58 59 54 0.6880641539759579 0.8962102858462847 0.20805031102514682
3 76 52 75 0.6880641539759579 0.8962102858462847 0.20805031102514682
3 76 51 52 0.6880641539759579 0.8962102858462847 0.20805031102514682
3 77 51 76 0.6880641539759579 0.8962102858462847 0.20805031102514682
3 78 79 49 0.6880641539759579 0.8962102858462847 0.20805031102514682
3 49 50 78 0.6880641539759579 0.8962102858462847 0.20805031102514682
3 78 50 77 0.6880641539759579 0.8962102858462847 0.20805031102514682
3 91 92 11 0.6880641539759579 0.8962102858462847 0.20805031102514682
3 11 12 91 0.6880641539759579 0.8962102858462847 0.20805031102514682
3 91 12 90 0.6880641539759579 0.8962102858462847 0.20805031102514682
