OFF
30 24 0


30.0291 30.728 12.014
30.0291 30.728 12.014
30.152 30.7097 11.9799
30.2412 30.6969 11.9555
30.3183 30.6861 11.9345
30.3956 30.6756 11.9136
30.4851 30.6637 11.8895
30.6085 30.6479 11.8565
30.6085 30.6479 11.8565
30.6865 30.7484 11.8907
30.7427 30.8215 11.9157
30.7909 30.8848 11.9374
30.8388 30.9482 11.9592
30.894 31.0218 11.9847
30.9696 31.1238 12.0201
30.9897 31.1673 12.0376
31.0099 31.2108 12.0552
31.03 31.2542 12.0727
31.03 31.2542 12.0727
30.9094 31.2133 12.0768
30.8048 31.1738 12.0784
30.7112 31.135 12.0781
30.6253 31.0961 12.0762
30.544 31.0563 12.0729
30.4652 31.0147 12.0682
30.3866 30.9703 12.062
30.3063 30.9215 12.054
30.2219 30.8668 12.0439
30.1307 30.8034 12.0309
30.0291 30.728 12.014
3 10 23 24 0.9725254106011402 0.895035908401338 0.43310404994338103
3 23 10 11 0.9725254106011402 0.895035908401338 0.43310404994338103
3 25 6 24 0.9725254106011402 0.895035908401338 0.43310404994338103
3 9 10 24 0.9725254106011402 0.895035908401338 0.43310404994338103
3 24 6 9 0.9725254106011402 0.895035908401338 0.43310404994338103
3 9 6 7 0.9725254106011402 0.895035908401338 0.43310404994338103
3 20 13 14 0.9725254106011402 0.895035908401338 0.43310404994338103
3 6 25 5 0.9725254106011402 0.895035908401338 0.43310404994338103
3 27 3 4 0.9725254106011402 0.895035908401338 0.43310404994338103
3 19 20 14 0.9725254106011402 0.895035908401338 0.43310404994338103
3 19 16 17 0.9725254106011402 0.895035908401338 0.43310404994338103
3 22 11 12 0.9725254106011402 0.895035908401338 0.43310404994338103
3 23 11 22 0.9725254106011402 0.895035908401338 0.43310404994338103
3 12 13 21 0.9725254106011402 0.895035908401338 0.43310404994338103
3 13 20 21 0.9725254106011402 0.895035908401338 0.43310404994338103
3 21 22 12 0.9725254106011402 0.895035908401338 0.43310404994338103
3 2 3 28 0.9725254106011402 0.895035908401338 0.43310404994338103
3 3 27 28 0.9725254106011402 0.895035908401338 0.43310404994338103
3 0 2 28 0.9725254106011402 0.895035908401338 0.43310404994338103
3 26 27 4 0.9725254106011402 0.895035908401338 0.43310404994338103
3 4 5 26 0.9725254106011402 0.895035908401338 0.43310404994338103
3 26 5 25 0.9725254106011402 0.895035908401338 0.43310404994338103
3 15 19 14 0.9725254106011402 0.895035908401338 0.43310404994338103
3 16 19 15 0.9725254106011402 0.895035908401338 0.43310404994338103
