OFF
139 131 0


26.4954 28.0725 9.4374
26.4954 28.0725 9.4374
26.3917 28.0648 9.3674
26.2906 28.055 9.2997
26.1918 28.0432 9.234
26.0953 28.0295 9.1703
26.0008 28.0139 9.1085
25.9084 27.9965 9.0485
25.818 27.9774 8.9902
25.7295 27.9567 8.9336
25.6427 27.9345 8.8785
25.5578 27.9109 8.825
25.4744 27.8861 8.7729
25.3927 27.8601 8.7222
25.3125 27.8332 8.6727
25.2338 27.8053 8.6244
25.1563 27.7765 8.5773
25.0801 27.747 8.5311
25.0051 27.7168 8.4859
24.931 27.686 8.4416
24.8579 27.6546 8.398
24.7857 27.6227 8.3551
24.7141 27.5902 8.3128
24.6431 27.5572 8.2711
24.5726 27.5237 8.2298
24.5024 27.4897 8.1888
24.4325 27.4551 8.1481
24.3627 27.4201 8.1076
24.2929 27.3844 8.0673
24.223 27.3481 8.027
24.1528 27.3112 7.9866
24.0821 27.2736 7.9461
24.011 27.2352 7.9054
23.9391 27.196 7.8644
23.8664 27.156 7.823
23.7926 27.1149 7.7811
23.7176 27.0728 7.7386
23.6413 27.0295 7.6954
23.5634 26.9849 7.6514
23.4836 26.9389 7.6065
23.4019 26.8913 7.5605
23.3178 26.8421 7.5133
23.2311 26.791 7.4647
23.1415 26.7378 7.4145
23.0487 26.6823 7.3626
22.9522 26.6243 7.3088
22.8516 26.5634 7.2527
22.7464 26.4994 7.1942
22.8123 26.6206 7.2129
22.8746 26.7355 7.2305
22.9335 26.8448 7.2471
22.9896 26.9492 7.2627
23.0431 27.0494 7.2775
23.0944 27.1457 7.2916
23.1435 27.2387 7.305
23.1909 27.3288 7.3178
23.2367 27.4163 7.3301
23.281 27.5015 7.3419
23.3241 27.5848 7.3532
23.366 27.6664 7.3641
23.4069 27.7466 7.3746
23.447 27.8256 7.3848
23.4862 27.9036 7.3946
23.5248 27.9809 7.4042
23.5628 28.0576 7.4134
23.6002 28.1339 7.4224
23.6373 28.2101 7.4312
23.6739 28.2863 7.4396
23.7103 28.3627 7.4479
23.7465 28.4395 7.4558
23.7824 28.5169 7.4636
23.8182 28.5949 7.471
23.8539 28.6739 7.4782
23.8896 28.754 7.4851
23.9251 28.8354 7.4917
23.9607 28.9183 7.4979
23.9963 29.0029 7.5037
24.0318 29.0894 7.5091
24.0672 29.178 7.514
24.1026 29.2688 7.5184
24.1379 29.3622 7.5221
24.1729 29.4583 7.525
24.2077 29.5573 7.5271
24.242 29.6594 7.5282
24.2759 29.7648 7.5283
24.309 29.8738 7.527
24.3413 29.9864 7.5244
24.3726 30.1029 7.5202
24.4027 30.2234 7.5144
24.4314 30.3482 7.5066
24.4314 30.3482 7.5066
24.4314 30.3482 7.5066
24.5439 30.4102 7.5707
24.6369 30.4621 7.6235
24.7174 30.5075 7.669
24.7899 30.5489 7.71
24.8576 30.5879 7.7481
24.9231 30.6261 7.7849
24.9884 30.6645 7.8216
25.0558 30.7046 7.8593
25.1278 30.7479 7.8995
25.2074 30.7963 7.9438
25.2989 30.8529 7.9945
25.4087 30.9219 8.0551
25.4087 30.9219 8.0551
25.4449 30.7981 8.1076
25.4789 30.6863 8.1558
25.5111 30.5841 8.2007
25.542 30.4895 8.243
25.5719 30.401 8.2833
25.6011 30.3173 8.322
25.63 30.2375 8.3596
25.6586 30.1606 8.3965
25.6874 30.0859 8.4329
25.7165 30.0126 8.4693
25.7462 29.9401 8.5058
25.7767 29.8678 8.543
25.8084 29.7949 8.581
25.8416 29.721 8.6203
25.8766 29.6452 8.6613
25.9139 29.567 8.7044
25.954 29.4853 8.7502
25.9976 29.3992 8.7994
26.0454 29.3077 8.8527
26.0984 29.2092 8.9112
26.1579 29.1021 8.9761
26.1839 29.0229 9.0116
26.2098 28.9437 9.047
26.2358 28.8645 9.0825
26.2618 28.7853 9.118
26.2877 28.7061 9.1535
26.3137 28.6269 9.189
26.3396 28.5477 9.2245
26.3656 28.4685 9.2599
26.3915 28.3893 9.2954
26.4175 28.3101 9.3309
26.4434 28.2309 9.3664
26.4694 28.1517 9.4019
26.4954 28.0725 9.4374
3 19 18 75 0.35389781754511795 0.9068345467657518 0.04842689584165505
3 48 46 45 0.35389781754511795 0.9068345467657518 0.04842689584165505
3 47 46 48 0.35389781754511795 0.9068345467657518 0.04842689584165505
3 41 40 53 0.35389781754511795 0.9068345467657518 0.04842689584165505
3 78 16 15 0.35389781754511795 0.9068345467657518 0.04842689584165505
3 15 79 78 0.35389781754511795 0.9068345467657518 0.04842689584165505
3 79 121 120 0.35389781754511795 0.9068345467657518 0.04842689584165505
3 52 42 41 0.35389781754511795 0.9068345467657518 0.04842689584165505
3 41 53 52 0.35389781754511795 0.9068345467657518 0.04842689584165505
3 21 20 73 0.35389781754511795 0.9068345467657518 0.04842689584165505
3 32 31 62 0.35389781754511795 0.9068345467657518 0.04842689584165505
3 77 17 16 0.35389781754511795 0.9068345467657518 0.04842689584165505
3 16 78 77 0.35389781754511795 0.9068345467657518 0.04842689584165505
3 14 79 15 0.35389781754511795 0.9068345467657518 0.04842689584165505
3 14 121 79 0.35389781754511795 0.9068345467657518 0.04842689584165505
3 14 122 121 0.35389781754511795 0.9068345467657518 0.04842689584165505
3 13 122 14 0.35389781754511795 0.9068345467657518 0.04842689584165505
3 79 120 80 0.35389781754511795 0.9068345467657518 0.04842689584165505
3 119 81 80 0.35389781754511795 0.9068345467657518 0.04842689584165505
3 80 120 119 0.35389781754511795 0.9068345467657518 0.04842689584165505
3 83 117 116 0.35389781754511795 0.9068345467657518 0.04842689584165505
3 82 117 83 0.35389781754511795 0.9068345467657518 0.04842689584165505
3 83 116 84 0.35389781754511795 0.9068345467657518 0.04842689584165505
3 84 116 115 0.35389781754511795 0.9068345467657518 0.04842689584165505
3 43 42 51 0.35389781754511795 0.9068345467657518 0.04842689584165505
3 42 52 51 0.35389781754511795 0.9068345467657518 0.04842689584165505
3 74 73 20 0.35389781754511795 0.9068345467657518 0.04842689584165505
3 74 19 75 0.35389781754511795 0.9068345467657518 0.04842689584165505
3 74 20 19 0.35389781754511795 0.9068345467657518 0.04842689584165505
3 35 34 59 0.35389781754511795 0.9068345467657518 0.04842689584165505
3 31 30 63 0.35389781754511795 0.9068345467657518 0.04842689584165505
3 63 62 31 0.35389781754511795 0.9068345467657518 0.04842689584165505
3 18 17 76 0.35389781754511795 0.9068345467657518 0.04842689584165505
3 17 77 76 0.35389781754511795 0.9068345467657518 0.04842689584165505
3 75 18 76 0.35389781754511795 0.9068345467657518 0.04842689584165505
3 106 101 100 0.35389781754511795 0.9068345467657518 0.04842689584165505
3 96 95 111 0.35389781754511795 0.9068345467657518 0.04842689584165505
3 111 95 94 0.35389781754511795 0.9068345467657518 0.04842689584165505
3 117 82 118 0.35389781754511795 0.9068345467657518 0.04842689584165505
3 118 81 119 0.35389781754511795 0.9068345467657518 0.04842689584165505
3 118 82 81 0.35389781754511795 0.9068345467657518 0.04842689584165505
3 114 113 85 0.35389781754511795 0.9068345467657518 0.04842689584165505
3 114 84 115 0.35389781754511795 0.9068345467657518 0.04842689584165505
3 85 84 114 0.35389781754511795 0.9068345467657518 0.04842689584165505
3 111 94 112 0.35389781754511795 0.9068345467657518 0.04842689584165505
3 89 88 92 0.35389781754511795 0.9068345467657518 0.04842689584165505
3 3 2 136 0.35389781754511795 0.9068345467657518 0.04842689584165505
3 50 44 43 0.35389781754511795 0.9068345467657518 0.04842689584165505
3 43 51 50 0.35389781754511795 0.9068345467657518 0.04842689584165505
3 58 36 35 0.35389781754511795 0.9068345467657518 0.04842689584165505
3 35 59 58 0.35389781754511795 0.9068345467657518 0.04842689584165505
3 34 33 60 0.35389781754511795 0.9068345467657518 0.04842689584165505
3 60 59 34 0.35389781754511795 0.9068345467657518 0.04842689584165505
3 64 30 29 0.35389781754511795 0.9068345467657518 0.04842689584165505
3 64 63 30 0.35389781754511795 0.9068345467657518 0.04842689584165505
3 123 13 12 0.35389781754511795 0.9068345467657518 0.04842689584165505
3 123 122 13 0.35389781754511795 0.9068345467657518 0.04842689584165505
3 11 123 12 0.35389781754511795 0.9068345467657518 0.04842689584165505
3 124 123 11 0.35389781754511795 0.9068345467657518 0.04842689584165505
3 132 6 5 0.35389781754511795 0.9068345467657518 0.04842689584165505
3 86 112 94 0.35389781754511795 0.9068345467657518 0.04842689584165505
3 85 113 86 0.35389781754511795 0.9068345467657518 0.04842689584165505
3 113 112 86 0.35389781754511795 0.9068345467657518 0.04842689584165505
3 3 136 135 0.35389781754511795 0.9068345467657518 0.04842689584165505
3 135 4 3 0.35389781754511795 0.9068345467657518 0.04842689584165505
3 134 4 135 0.35389781754511795 0.9068345467657518 0.04842689584165505
3 137 2 0 0.35389781754511795 0.9068345467657518 0.04842689584165505
3 137 136 2 0.35389781754511795 0.9068345467657518 0.04842689584165505
3 45 44 49 0.35389781754511795 0.9068345467657518 0.04842689584165505
3 44 50 49 0.35389781754511795 0.9068345467657518 0.04842689584165505
3 49 48 45 0.35389781754511795 0.9068345467657518 0.04842689584165505
3 37 36 57 0.35389781754511795 0.9068345467657518 0.04842689584165505
3 36 58 57 0.35389781754511795 0.9068345467657518 0.04842689584165505
3 61 60 33 0.35389781754511795 0.9068345467657518 0.04842689584165505
3 61 33 32 0.35389781754511795 0.9068345467657518 0.04842689584165505
3 32 62 61 0.35389781754511795 0.9068345467657518 0.04842689584165505
3 29 28 65 0.35389781754511795 0.9068345467657518 0.04842689584165505
3 65 64 29 0.35389781754511795 0.9068345467657518 0.04842689584165505
3 109 98 97 0.35389781754511795 0.9068345467657518 0.04842689584165505
3 126 124 10 0.35389781754511795 0.9068345467657518 0.04842689584165505
3 124 11 10 0.35389781754511795 0.9068345467657518 0.04842689584165505
3 103 102 105 0.35389781754511795 0.9068345467657518 0.04842689584165505
3 105 101 106 0.35389781754511795 0.9068345467657518 0.04842689584165505
3 105 102 101 0.35389781754511795 0.9068345467657518 0.04842689584165505
3 133 4 134 0.35389781754511795 0.9068345467657518 0.04842689584165505
3 133 5 4 0.35389781754511795 0.9068345467657518 0.04842689584165505
3 132 5 133 0.35389781754511795 0.9068345467657518 0.04842689584165505
3 129 8 7 0.35389781754511795 0.9068345467657518 0.04842689584165505
3 87 94 93 0.35389781754511795 0.9068345467657518 0.04842689584165505
3 87 86 94 0.35389781754511795 0.9068345467657518 0.04842689584165505
3 93 92 87 0.35389781754511795 0.9068345467657518 0.04842689584165505
3 87 92 88 0.35389781754511795 0.9068345467657518 0.04842689584165505
3 38 37 56 0.35389781754511795 0.9068345467657518 0.04842689584165505
3 37 57 56 0.35389781754511795 0.9068345467657518 0.04842689584165505
3 66 28 27 0.35389781754511795 0.9068345467657518 0.04842689584165505
3 66 65 28 0.35389781754511795 0.9068345467657518 0.04842689584165505
3 110 96 111 0.35389781754511795 0.9068345467657518 0.04842689584165505
3 97 96 110 0.35389781754511795 0.9068345467657518 0.04842689584165505
3 110 109 97 0.35389781754511795 0.9068345467657518 0.04842689584165505
3 106 100 107 0.35389781754511795 0.9068345467657518 0.04842689584165505
3 107 100 99 0.35389781754511795 0.9068345467657518 0.04842689584165505
3 108 107 99 0.35389781754511795 0.9068345467657518 0.04842689584165505
3 99 98 108 0.35389781754511795 0.9068345467657518 0.04842689584165505
3 98 109 108 0.35389781754511795 0.9068345467657518 0.04842689584165505
3 130 129 7 0.35389781754511795 0.9068345467657518 0.04842689584165505
3 126 10 127 0.35389781754511795 0.9068345467657518 0.04842689584165505
3 127 10 9 0.35389781754511795 0.9068345467657518 0.04842689584165505
3 9 8 128 0.35389781754511795 0.9068345467657518 0.04842689584165505
3 8 129 128 0.35389781754511795 0.9068345467657518 0.04842689584165505
3 128 127 9 0.35389781754511795 0.9068345467657518 0.04842689584165505
3 55 39 38 0.35389781754511795 0.9068345467657518 0.04842689584165505
3 38 56 55 0.35389781754511795 0.9068345467657518 0.04842689584165505
3 27 26 67 0.35389781754511795 0.9068345467657518 0.04842689584165505
3 67 66 27 0.35389781754511795 0.9068345467657518 0.04842689584165505
3 131 7 6 0.35389781754511795 0.9068345467657518 0.04842689584165505
3 131 130 7 0.35389781754511795 0.9068345467657518 0.04842689584165505
3 131 6 132 0.35389781754511795 0.9068345467657518 0.04842689584165505
3 40 39 54 0.35389781754511795 0.9068345467657518 0.04842689584165505
3 39 55 54 0.35389781754511795 0.9068345467657518 0.04842689584165505
3 54 53 40 0.35389781754511795 0.9068345467657518 0.04842689584165505
3 68 26 25 0.35389781754511795 0.9068345467657518 0.04842689584165505
3 68 67 26 0.35389781754511795 0.9068345467657518 0.04842689584165505
3 25 24 69 0.35389781754511795 0.9068345467657518 0.04842689584165505
3 69 68 25 0.35389781754511795 0.9068345467657518 0.04842689584165505
3 70 24 23 0.35389781754511795 0.9068345467657518 0.04842689584165505
3 70 69 24 0.35389781754511795 0.9068345467657518 0.04842689584165505
3 23 22 71 0.35389781754511795 0.9068345467657518 0.04842689584165505
3 71 70 23 0.35389781754511795 0.9068345467657518 0.04842689584165505
3 72 71 22 0.35389781754511795 0.9068345467657518 0.04842689584165505
3 72 22 21 0.35389781754511795 0.9068345467657518 0.04842689584165505
3 21 73 72 0.35389781754511795 0.9068345467657518 0.04842689584165505
