OFF
25 19 0


28.1547 32.9188 12.2176
28.1547 32.9188 12.2176
28.0994 32.804 12.1773
28.0597 32.7201 12.1481
28.0056 32.6046 12.1082
28.0056 32.6046 12.1082
27.994 32.5552 12.096
27.9824 32.5059 12.0838
27.9708 32.4565 12.0716
27.9592 32.4072 12.0594
28.05 32.3115 12.0835
28.116 32.2427 12.1011
28.176 32.1807 12.1172
28.2426 32.1125 12.1351
28.3352 32.019 12.1603
28.3352 32.019 12.1603
28.3267 32.1444 12.1753
28.3152 32.2506 12.1862
28.3015 32.3447 12.1944
28.2861 32.432 12.2008
28.2685 32.5168 12.206
28.2483 32.603 12.2102
28.224 32.6947 12.2136
28.194 32.7974 12.2161
28.1547 32.9188 12.2176
3 13 16 17 0.6559575995406198 0.2787503522437911 0.7686636611894635
3 14 16 13 0.6559575995406198 0.2787503522437911 0.7686636611894635
3 17 18 11 0.6559575995406198 0.2787503522437911 0.7686636611894635
3 20 6 7 0.6559575995406198 0.2787503522437911 0.7686636611894635
3 3 22 2 0.6559575995406198 0.2787503522437911 0.7686636611894635
3 22 23 2 0.6559575995406198 0.2787503522437911 0.7686636611894635
3 2 23 0 0.6559575995406198 0.2787503522437911 0.7686636611894635
3 21 6 20 0.6559575995406198 0.2787503522437911 0.7686636611894635
3 21 5 6 0.6559575995406198 0.2787503522437911 0.7686636611894635
3 21 22 3 0.6559575995406198 0.2787503522437911 0.7686636611894635
3 3 5 21 0.6559575995406198 0.2787503522437911 0.7686636611894635
3 12 13 17 0.6559575995406198 0.2787503522437911 0.7686636611894635
3 17 11 12 0.6559575995406198 0.2787503522437911 0.7686636611894635
3 18 19 10 0.6559575995406198 0.2787503522437911 0.7686636611894635
3 10 11 18 0.6559575995406198 0.2787503522437911 0.7686636611894635
3 10 19 20 0.6559575995406198 0.2787503522437911 0.7686636611894635
3 20 7 10 0.6559575995406198 0.2787503522437911 0.7686636611894635
3 9 10 8 0.6559575995406198 0.2787503522437911 0.7686636611894635
3 8 10 7 0.6559575995406198 0.2787503522437911 0.7686636611894635
