OFF
15 12 0


29.2178 30.9974 10.1555
29.2178 30.9974 10.1555
29.2814 30.9875 10.1007
29.2546 30.9398 10.0036
29.2359 30.9686 10.0795
29.2178 30.9974 10.1555
29.2546 30.9398 10.0036
29.2998 30.9585 10.0245
29.3449 30.9773 10.0456
29.2421 30.9893 10.1244
29.2604 30.9604 10.0484
29.2421 30.9893 10.1244
29.2604 30.9604 10.0484
29.3056 30.9792 10.0696
29.2663 30.9812 10.0935
3 9 2 0 0.6243731245298473 0.9560821068732583 0.8947531117792872
3 14 2 9 0.6243731245298473 0.9560821068732583 0.8947531117792872
3 0 4 9 0.6243731245298473 0.9560821068732583 0.8947531117792872
3 9 4 14 0.6243731245298473 0.9560821068732583 0.8947531117792872
3 13 2 14 0.6243731245298473 0.9560821068732583 0.8947531117792872
3 8 2 13 0.6243731245298473 0.9560821068732583 0.8947531117792872
3 13 7 8 0.6243731245298473 0.9560821068732583 0.8947531117792872
3 7 13 10 0.6243731245298473 0.9560821068732583 0.8947531117792872
3 10 4 3 0.6243731245298473 0.9560821068732583 0.8947531117792872
3 3 7 10 0.6243731245298473 0.9560821068732583 0.8947531117792872
3 14 4 10 0.6243731245298473 0.9560821068732583 0.8947531117792872
3 10 13 14 0.6243731245298473 0.9560821068732583 0.8947531117792872
