OFF
389 698 0


31.7215 33.3524 9.4237
31.7215 33.3524 9.4237
31.6485 33.2535 9.3577
31.5889 33.168 9.3014
31.538 33.0912 9.2515
31.4929 33.0197 9.2056
31.4516 32.9509 9.1619
31.4124 32.8825 9.1188
31.374 32.8121 9.075
31.3351 32.7373 9.0289
31.2946 32.6548 8.9787
31.251 32.5604 8.9218
31.2025 32.448 8.8549
31.1931 32.4503 8.851
31.1837 32.4526 8.8471
31.1837 32.4526 8.8471
31.0639 32.5216 8.8122
30.9755 32.5731 8.786
30.8989 32.6183 8.7629
30.8225 32.6638 8.7396
30.735 32.7164 8.7126
30.6174 32.7881 8.6756
30.6174 32.7881 8.6756
30.6174 32.7881 8.6756
30.5731 32.9236 8.7007
30.5408 33.0219 8.7181
30.5116 33.111 8.7333
30.4792 33.2094 8.7495
30.4343 33.3454 8.7708
30.4343 33.3454 8.7708
30.4466 33.4789 8.8216
30.4577 33.59 8.8634
30.468 33.6864 8.8995
30.4779 33.7735 8.9318
30.4875 33.855 8.9619
30.4972 33.9339 8.9908
30.5073 34.0127 9.0196
30.518 34.0941 9.0492
30.5299 34.1812 9.0806
30.5436 34.2776 9.1152
30.5599 34.3888 9.1549
30.5803 34.5229 9.2024
30.6808 34.4383 9.232
30.7697 34.3614 9.2571
30.8498 34.2901 9.2787
30.9233 34.2231 9.2975
30.9918 34.159 9.3142
31.0568 34.0968 9.3292
31.1192 34.0355 9.3429
31.1802 33.9742 9.3554
31.2406 33.912 9.3669
31.3011 33.848 9.3776
31.3628 33.7811 9.3876
31.4264 33.7101 9.3967
31.4929 33.6337 9.4051
31.5634 33.5501 9.4126
31.6391 33.4573 9.4189
31.7215 33.3524 9.4237
30.5562 33.9506 9.0276
30.6036 33.8907 9.035
30.6495 33.8328 9.0421
31.4065 32.9953 9.1555
31.3622 33.0388 9.149
31.3187 33.0818 9.1425
31.2759 33.1242 9.136
31.3359 32.8702 9.0771
31.2987 32.927 9.0789
31.2623 32.983 9.0806
31.2265 33.0382 9.082
30.9067 32.6978 8.7967
30.9145 32.7749 8.8291
30.9222 32.85 8.8605
30.9298 32.9234 8.8908
30.5282 33.7376 8.948
30.5772 33.7026 8.9637
30.6253 33.6685 8.9788
30.6723 33.6351 8.9935
30.5466 33.8807 9.0015
30.5945 33.8292 9.0117
30.6411 33.7793 9.0214
30.6866 33.7307 9.0307
30.5781 34.0987 9.0826
30.6242 34.02 9.0842
30.6685 33.9446 9.0855
30.7113 33.872 9.0865
30.9291 34.1375 9.2764
30.9349 34.0554 9.2559
30.9406 33.9764 9.236
30.9461 33.9002 9.2165
31.0489 34.0268 9.3053
31.0414 33.9591 9.2819
31.0342 33.8935 9.2591
31.0273 33.8296 9.2367
31.1602 33.9181 9.3292
31.1409 33.8635 9.3036
31.122 33.8102 9.2784
31.1037 33.7581 9.2536
31.2696 33.8052 9.3496
31.2388 33.7634 9.322
31.2087 33.7224 9.2949
31.1792 33.6823 9.2681
31.4843 33.1223 9.2364
31.4318 33.1528 9.2215
31.3801 33.1828 9.2066
31.3292 33.2125 9.1918
31.279 33.2419 9.177
31.2634 32.7296 8.9906
31.2331 32.8025 9.0019
31.2036 32.8737 9.0128
31.1749 32.9435 9.0232
31.1468 33.0122 9.0331
30.9756 32.6576 8.8177
30.9759 32.7394 8.8481
30.9764 32.8188 8.8773
30.9769 32.8964 8.9056
30.9776 32.9725 8.933
30.7592 32.7859 8.7512
30.7829 32.8534 8.7884
30.806 32.9192 8.8244
30.8288 32.9836 8.8593
30.8513 33.0469 8.8934
30.5839 33.0603 8.7551
30.626 33.0979 8.7911
30.6674 33.1347 8.8262
30.7081 33.171 8.8605
30.7484 33.2067 8.8941
30.5281 33.2294 8.7832
30.5761 33.249 8.816
30.6233 33.2683 8.848
30.6699 33.2873 8.8794
30.7158 33.306 8.9102
30.5189 33.6595 8.9187
30.5686 33.6332 8.9373
30.6174 33.6074 8.9554
30.6653 33.5822 8.9731
30.7124 33.5575 8.9903
30.6069 34.2784 9.149
30.6513 34.1748 9.1431
30.6934 34.0769 9.1372
30.7337 33.9838 9.1313
30.7724 33.8948 9.1253
30.7142 34.3219 9.2174
30.7458 34.2127 9.2034
30.7759 34.1097 9.1897
30.8046 34.0118 9.1764
30.8323 33.9183 9.1634
30.8636 34.1955 9.2593
30.8769 34.1054 9.2406
30.8898 34.0191 9.2224
30.9024 33.9362 9.2047
30.9146 33.8562 9.1873
31.3828 33.6811 9.367
31.3401 33.6527 9.3378
31.2983 33.6249 9.309
31.2573 33.5977 9.2805
31.217 33.5708 9.2524
31.506 33.5367 9.3813
31.45 33.5236 9.3506
31.3952 33.5109 9.3204
31.3415 33.4984 9.2905
31.2888 33.4861 9.261
31.5827 33.2693 9.332
31.5185 33.2847 9.3067
31.4558 33.2998 9.2818
31.3944 33.3147 9.2572
31.3341 33.3294 9.2328
31.2747 33.3439 9.2085
31.1789 32.5479 8.8808
31.1565 32.6436 8.9052
31.1352 32.7358 8.9284
31.1146 32.8253 8.9506
31.0948 32.9125 8.9718
31.0756 32.998 8.9922
30.6132 32.972 8.7398
30.6524 33.0192 8.7777
30.6908 33.0653 8.8146
30.7285 33.1106 8.8506
30.7658 33.1552 8.8858
30.8027 33.1993 8.9203
30.5092 33.5727 8.886
30.5597 33.5558 8.908
30.6093 33.5393 8.9294
30.658 33.5231 8.9504
30.7061 33.5072 8.9709
30.7535 33.4915 8.9909
31.6467 33.3585 9.3909
31.5743 33.3645 9.359
31.504 33.3703 9.3276
31.4354 33.3761 9.2968
31.3684 33.3818 9.2664
31.3027 33.3875 9.2363
31.3709 32.9335 9.1166
31.3303 32.9835 9.1142
31.2904 33.0329 9.1118
31.2511 33.0816 9.1092
31.2123 33.1298 9.1064
31.1739 33.1776 9.1035
31.1359 33.2253 9.1005
30.499 33.4726 8.8482
30.5504 33.4664 8.8742
30.6009 33.4604 8.8995
30.6506 33.4545 8.9243
30.6996 33.4487 8.9486
30.748 33.443 8.9724
30.796 33.4374 8.9958
30.5912 34.1826 9.1136
30.6365 34.0925 9.1118
30.6799 34.0068 9.1098
30.7215 33.9248 9.1076
30.7618 33.8459 9.1052
30.8008 33.7697 9.1026
30.8389 33.6958 9.0998
31.1052 33.9726 9.3178
31.0916 33.9116 9.2932
31.0785 33.8522 9.2691
31.0658 33.7942 9.2455
31.0534 33.7375 9.2222
31.0414 33.6819 9.1992
31.0296 33.6273 9.1764
31.3253 33.745 9.3587
31.2887 33.7098 9.3302
31.2529 33.6753 9.3022
31.2177 33.6414 9.2746
31.1832 33.608 9.2473
31.1492 33.5752 9.2202
31.1156 33.5427 9.1933
31.5298 33.1919 9.2814
31.472 33.2153 9.2617
31.4154 33.2383 9.2421
31.3597 33.261 9.2227
31.3048 33.2834 9.2034
31.2506 33.3056 9.1841
31.197 33.3277 9.1649
31.1437 33.3497 9.1455
31.2234 32.6463 8.9399
31.1968 32.7292 8.9572
31.1712 32.8099 8.9736
31.1464 32.8886 8.9893
31.1222 32.9657 9.0045
31.0986 33.0417 9.0191
31.0754 33.1169 9.0332
31.0525 33.1916 9.047
30.838 32.7385 8.7756
30.8531 32.8111 8.8102
30.868 32.8818 8.8436
30.8827 32.951 8.8761
30.8973 33.019 8.9077
30.9118 33.086 8.9386
30.9262 33.1524 8.9689
30.9407 33.2183 8.9988
30.4879 33.3522 8.8025
30.5405 33.3588 8.8334
30.5921 33.3653 8.8636
30.6429 33.3718 8.8931
30.693 33.3781 8.922
30.7425 33.3845 8.9504
30.7915 33.3908 8.9783
30.8401 33.397 9.0058
30.5666 34.0224 9.0543
30.6134 33.9535 9.0589
30.6585 33.8873 9.0632
30.7023 33.8232 9.0671
30.7449 33.7611 9.0707
30.7866 33.7007 9.074
30.8273 33.6417 9.0771
30.8674 33.5839 9.0798
30.7926 34.2566 9.2399
30.8144 34.1576 9.2233
30.8353 34.0633 9.2072
30.8555 33.9733 9.1915
30.8751 33.8867 9.1761
30.8941 33.8032 9.161
30.9127 33.7222 9.146
30.931 33.6433 9.1312
31.5736 33.4529 9.3869
31.5099 33.4487 9.3555
31.4478 33.4447 9.3247
31.3871 33.4408 9.2943
31.3275 33.437 9.2643
31.2689 33.4333 9.2345
31.2111 33.4296 9.2049
31.154 33.4261 9.1754
31.4438 33.0575 9.195
31.3957 33.0946 9.1844
31.3483 33.1313 9.1738
31.3017 33.1674 9.1632
31.2556 33.2033 9.1526
31.2099 33.2388 9.1419
31.1646 33.2742 9.1311
31.1195 33.3096 9.1203
31.0746 33.3449 9.1092
31.055 32.6121 8.8417
31.0466 32.6994 8.8698
31.0386 32.784 8.8968
31.031 32.8664 8.9227
31.0237 32.9471 8.9477
31.0167 33.0265 8.972
31.0099 33.1048 8.9957
31.0034 33.1826 9.0189
30.997 33.2601 9.0418
30.5574 33.1406 8.7686
30.6022 33.1695 8.803
30.6464 33.198 8.8366
30.6898 33.2261 8.8695
30.7328 33.2537 8.9017
30.7753 33.2811 8.9334
30.8174 33.3082 8.9647
30.8594 33.3352 8.9956
30.9012 33.3621 9.0261
30.9905 34.0815 9.2916
30.9894 34.0069 9.2696
30.9884 33.9347 9.2481
30.9876 33.8648 9.2271
30.9868 33.7967 9.2064
30.9862 33.7304 9.186
30.9857 33.6654 9.1659
30.9853 33.6017 9.146
30.9851 33.5389 9.1262
31.4427 33.6121 9.3746
31.3936 33.5911 9.3446
31.3456 33.5705 9.3151
31.2984 33.5503 9.2859
31.2521 33.5304 9.257
31.2064 33.5108 9.2284
31.1614 33.4915 9.1999
31.1167 33.4724 9.1716
31.0725 33.4534 9.1433
31.3004 32.8031 9.0356
31.2667 32.8675 9.042
31.2337 32.9306 9.048
31.2013 32.9927 9.0537
31.1696 33.054 9.0591
31.1382 33.1146 9.0642
31.1072 33.1749 9.0691
31.0765 33.235 9.0738
31.0459 33.295 9.0783
31.0154 33.3552 9.0826
30.6536 32.8508 8.7181
30.6888 32.9116 8.759
30.7231 32.9709 8.7986
30.7568 33.0288 8.8371
30.79 33.0856 8.8746
30.8228 33.1415 8.9112
30.8553 33.1969 8.9471
30.8876 33.2518 8.9825
30.9199 33.3064 9.0175
30.9523 33.361 9.0522
30.5373 33.8105 8.9753
30.5858 33.7672 8.9882
30.6331 33.7251 9.0005
30.6794 33.684 9.0125
30.7248 33.6438 9.024
30.7694 33.6044 9.0352
30.8134 33.5657 9.046
30.8568 33.5276 9.0566
30.8998 33.4899 9.0668
30.9424 33.4527 9.0768
30.6265 34.3927 9.1911
30.6696 34.2719 9.1801
30.7102 34.1588 9.1695
30.7487 34.0523 9.1591
30.7854 33.9512 9.1488
30.8208 33.8546 9.1385
30.855 33.7618 9.1283
30.8883 33.6721 9.1181
30.9209 33.5849 9.1078
30.953 33.4996 9.0973
31.2148 33.8626 9.3398
31.1897 33.8144 9.3131
31.1652 33.7672 9.2869
31.1413 33.721 9.2611
31.1179 33.6757 9.2357
31.0949 33.6311 9.2104
31.0723 33.5871 9.1855
31.0501 33.5437 9.1606
31.0281 33.5007 9.1359
31.0063 33.4581 9.1113
31.6467 33.3585 9.3909
31.5743 33.3645 9.359
31.504 33.3703 9.3276
31.4354 33.3761 9.2968
31.3684 33.3818 9.2664
31.3027 33.3875 9.2363
31.238 33.3931 9.2064
31.174 33.3988 9.1766
31.1107 33.4044 9.1467
31.0477 33.41 9.1168
30.9848 33.4157 9.0867
30.9848 33.4157 9.0867
3 191 7 6 0.29445974395617747 0.06318392053268607 0.1203937621379213
3 65 7 191 0.29445974395617747 0.06318392053268607 0.1203937621379213
3 168 235 169 0.29445974395617747 0.06318392053268607 0.1203937621379213
3 234 235 168 0.29445974395617747 0.06318392053268607 0.1203937621379213
3 234 11 10 0.29445974395617747 0.06318392053268607 0.1203937621379213
3 146 45 44 0.29445974395617747 0.06318392053268607 0.1203937621379213
3 89 309 310 0.29445974395617747 0.06318392053268607 0.1203937621379213
3 47 309 89 0.29445974395617747 0.06318392053268607 0.1203937621379213
3 46 309 47 0.29445974395617747 0.06318392053268607 0.1203937621379213
3 310 309 86 0.29445974395617747 0.06318392053268607 0.1203937621379213
3 97 368 98 0.29445974395617747 0.06318392053268607 0.1203937621379213
3 43 42 141 0.29445974395617747 0.06318392053268607 0.1203937621379213
3 22 20 116 0.29445974395617747 0.06318392053268607 0.1203937621379213
3 292 168 169 0.29445974395617747 0.06318392053268607 0.1203937621379213
3 297 296 239 0.29445974395617747 0.06318392053268607 0.1203937621379213
3 72 71 114 0.29445974395617747 0.06318392053268607 0.1203937621379213
3 53 318 54 0.29445974395617747 0.06318392053268607 0.1203937621379213
3 55 54 156 0.29445974395617747 0.06318392053268607 0.1203937621379213
3 156 54 318 0.29445974395617747 0.06318392053268607 0.1203937621379213
3 191 6 61 0.29445974395617747 0.06318392053268607 0.1203937621379213
3 106 235 234 0.29445974395617747 0.06318392053268607 0.1203937621379213
3 234 10 106 0.29445974395617747 0.06318392053268607 0.1203937621379213
3 106 107 235 0.29445974395617747 0.06318392053268607 0.1203937621379213
3 327 107 106 0.29445974395617747 0.06318392053268607 0.1203937621379213
3 252 199 251 0.29445974395617747 0.06318392053268607 0.1203937621379213
3 28 250 30 0.29445974395617747 0.06318392053268607 0.1203937621379213
3 175 340 176 0.29445974395617747 0.06318392053268607 0.1203937621379213
3 200 199 252 0.29445974395617747 0.06318392053268607 0.1203937621379213
3 200 180 199 0.29445974395617747 0.06318392053268607 0.1203937621379213
3 298 299 249 0.29445974395617747 0.06318392053268607 0.1203937621379213
3 249 299 345 0.29445974395617747 0.06318392053268607 0.1203937621379213
3 367 368 97 0.29445974395617747 0.06318392053268607 0.1203937621379213
3 97 51 367 0.29445974395617747 0.06318392053268607 0.1203937621379213
3 97 98 219 0.29445974395617747 0.06318392053268607 0.1203937621379213
3 319 152 320 0.29445974395617747 0.06318392053268607 0.1203937621379213
3 223 372 224 0.29445974395617747 0.06318392053268607 0.1203937621379213
3 272 314 271 0.29445974395617747 0.06318392053268607 0.1203937621379213
3 315 314 272 0.29445974395617747 0.06318392053268607 0.1203937621379213
3 80 261 79 0.29445974395617747 0.06318392053268607 0.1203937621379213
3 77 78 59 0.29445974395617747 0.06318392053268607 0.1203937621379213
3 132 180 133 0.29445974395617747 0.06318392053268607 0.1203937621379213
3 131 32 31 0.29445974395617747 0.06318392053268607 0.1203937621379213
3 47 89 48 0.29445974395617747 0.06318392053268607 0.1203937621379213
3 309 46 85 0.29445974395617747 0.06318392053268607 0.1203937621379213
3 85 86 309 0.29445974395617747 0.06318392053268607 0.1203937621379213
3 85 45 146 0.29445974395617747 0.06318392053268607 0.1203937621379213
3 85 46 45 0.29445974395617747 0.06318392053268607 0.1203937621379213
3 368 95 369 0.29445974395617747 0.06318392053268607 0.1203937621379213
3 369 98 368 0.29445974395617747 0.06318392053268607 0.1203937621379213
3 266 44 43 0.29445974395617747 0.06318392053268607 0.1203937621379213
3 43 141 266 0.29445974395617747 0.06318392053268607 0.1203937621379213
3 146 44 266 0.29445974395617747 0.06318392053268607 0.1203937621379213
3 314 216 313 0.29445974395617747 0.06318392053268607 0.1203937621379213
3 271 314 313 0.29445974395617747 0.06318392053268607 0.1203937621379213
3 313 150 271 0.29445974395617747 0.06318392053268607 0.1203937621379213
3 90 89 310 0.29445974395617747 0.06318392053268607 0.1203937621379213
3 310 311 90 0.29445974395617747 0.06318392053268607 0.1203937621379213
3 312 313 92 0.29445974395617747 0.06318392053268607 0.1203937621379213
3 150 313 312 0.29445974395617747 0.06318392053268607 0.1203937621379213
3 149 145 270 0.29445974395617747 0.06318392053268607 0.1203937621379213
3 271 150 270 0.29445974395617747 0.06318392053268607 0.1203937621379213
3 112 292 293 0.29445974395617747 0.06318392053268607 0.1203937621379213
3 169 170 293 0.29445974395617747 0.06318392053268607 0.1203937621379213
3 293 292 169 0.29445974395617747 0.06318392053268607 0.1203937621379213
3 66 65 191 0.29445974395617747 0.06318392053268607 0.1203937621379213
3 328 107 327 0.29445974395617747 0.06318392053268607 0.1203937621379213
3 327 65 328 0.29445974395617747 0.06318392053268607 0.1203937621379213
3 65 66 328 0.29445974395617747 0.06318392053268607 0.1203937621379213
3 328 66 329 0.29445974395617747 0.06318392053268607 0.1203937621379213
3 237 170 236 0.29445974395617747 0.06318392053268607 0.1203937621379213
3 235 107 236 0.29445974395617747 0.06318392053268607 0.1203937621379213
3 169 235 236 0.29445974395617747 0.06318392053268607 0.1203937621379213
3 236 170 169 0.29445974395617747 0.06318392053268607 0.1203937621379213
3 167 16 14 0.29445974395617747 0.06318392053268607 0.1203937621379213
3 14 13 167 0.29445974395617747 0.06318392053268607 0.1203937621379213
3 167 11 234 0.29445974395617747 0.06318392053268607 0.1203937621379213
3 234 168 167 0.29445974395617747 0.06318392053268607 0.1203937621379213
3 12 11 167 0.29445974395617747 0.06318392053268607 0.1203937621379213
3 167 13 12 0.29445974395617747 0.06318392053268607 0.1203937621379213
3 337 24 22 0.29445974395617747 0.06318392053268607 0.1203937621379213
3 22 116 337 0.29445974395617747 0.06318392053268607 0.1203937621379213
3 111 292 112 0.29445974395617747 0.06318392053268607 0.1203937621379213
3 168 292 291 0.29445974395617747 0.06318392053268607 0.1203937621379213
3 291 167 168 0.29445974395617747 0.06318392053268607 0.1203937621379213
3 16 167 291 0.29445974395617747 0.06318392053268607 0.1203937621379213
3 292 111 291 0.29445974395617747 0.06318392053268607 0.1203937621379213
3 17 16 291 0.29445974395617747 0.06318392053268607 0.1203937621379213
3 291 111 17 0.29445974395617747 0.06318392053268607 0.1203937621379213
3 248 297 298 0.29445974395617747 0.06318392053268607 0.1203937621379213
3 298 249 248 0.29445974395617747 0.06318392053268607 0.1203937621379213
3 332 333 240 0.29445974395617747 0.06318392053268607 0.1203937621379213
3 239 332 240 0.29445974395617747 0.06318392053268607 0.1203937621379213
3 240 297 239 0.29445974395617747 0.06318392053268607 0.1203937621379213
3 298 297 240 0.29445974395617747 0.06318392053268607 0.1203937621379213
3 294 295 114 0.29445974395617747 0.06318392053268607 0.1203937621379213
3 294 293 170 0.29445974395617747 0.06318392053268607 0.1203937621379213
3 115 295 296 0.29445974395617747 0.06318392053268607 0.1203937621379213
3 114 295 115 0.29445974395617747 0.06318392053268607 0.1203937621379213
3 115 72 114 0.29445974395617747 0.06318392053268607 0.1203937621379213
3 3 2 161 0.29445974395617747 0.06318392053268607 0.1203937621379213
3 0 56 185 0.29445974395617747 0.06318392053268607 0.1203937621379213
3 185 2 0 0.29445974395617747 0.06318392053268607 0.1203937621379213
3 186 161 185 0.29445974395617747 0.06318392053268607 0.1203937621379213
3 185 161 2 0.29445974395617747 0.06318392053268607 0.1203937621379213
3 286 195 64 0.29445974395617747 0.06318392053268607 0.1203937621379213
3 327 106 9 0.29445974395617747 0.06318392053268607 0.1203937621379213
3 9 106 10 0.29445974395617747 0.06318392053268607 0.1203937621379213
3 283 62 282 0.29445974395617747 0.06318392053268607 0.1203937621379213
3 282 62 61 0.29445974395617747 0.06318392053268607 0.1203937621379213
3 199 180 179 0.29445974395617747 0.06318392053268607 0.1203937621379213
3 179 131 31 0.29445974395617747 0.06318392053268607 0.1203937621379213
3 179 180 132 0.29445974395617747 0.06318392053268607 0.1203937621379213
3 132 131 179 0.29445974395617747 0.06318392053268607 0.1203937621379213
3 300 27 26 0.29445974395617747 0.06318392053268607 0.1203937621379213
3 121 300 26 0.29445974395617747 0.06318392053268607 0.1203937621379213
3 122 300 121 0.29445974395617747 0.06318392053268607 0.1203937621379213
3 176 177 124 0.29445974395617747 0.06318392053268607 0.1203937621379213
3 123 122 175 0.29445974395617747 0.06318392053268607 0.1203937621379213
3 175 176 123 0.29445974395617747 0.06318392053268607 0.1203937621379213
3 176 124 123 0.29445974395617747 0.06318392053268607 0.1203937621379213
3 303 304 129 0.29445974395617747 0.06318392053268607 0.1203937621379213
3 345 299 346 0.29445974395617747 0.06318392053268607 0.1203937621379213
3 346 308 345 0.29445974395617747 0.06318392053268607 0.1203937621379213
3 387 346 336 0.29445974395617747 0.06318392053268607 0.1203937621379213
3 336 346 299 0.29445974395617747 0.06318392053268607 0.1203937621379213
3 130 129 304 0.29445974395617747 0.06318392053268607 0.1203937621379213
3 345 308 307 0.29445974395617747 0.06318392053268607 0.1203937621379213
3 256 306 307 0.29445974395617747 0.06318392053268607 0.1203937621379213
3 344 249 345 0.29445974395617747 0.06318392053268607 0.1203937621379213
3 345 307 344 0.29445974395617747 0.06318392053268607 0.1203937621379213
3 344 307 306 0.29445974395617747 0.06318392053268607 0.1203937621379213
3 305 130 304 0.29445974395617747 0.06318392053268607 0.1203937621379213
3 50 367 51 0.29445974395617747 0.06318392053268607 0.1203937621379213
3 151 219 152 0.29445974395617747 0.06318392053268607 0.1203937621379213
3 151 318 53 0.29445974395617747 0.06318392053268607 0.1203937621379213
3 151 319 318 0.29445974395617747 0.06318392053268607 0.1203937621379213
3 152 319 151 0.29445974395617747 0.06318392053268607 0.1203937621379213
3 52 151 53 0.29445974395617747 0.06318392053268607 0.1203937621379213
3 219 151 52 0.29445974395617747 0.06318392053268607 0.1203937621379213
3 52 51 97 0.29445974395617747 0.06318392053268607 0.1203937621379213
3 97 219 52 0.29445974395617747 0.06318392053268607 0.1203937621379213
3 152 219 220 0.29445974395617747 0.06318392053268607 0.1203937621379213
3 220 219 98 0.29445974395617747 0.06318392053268607 0.1203937621379213
3 323 224 324 0.29445974395617747 0.06318392053268607 0.1203937621379213
3 224 372 373 0.29445974395617747 0.06318392053268607 0.1203937621379213
3 372 223 371 0.29445974395617747 0.06318392053268607 0.1203937621379213
3 155 224 323 0.29445974395617747 0.06318392053268607 0.1203937621379213
3 155 223 224 0.29445974395617747 0.06318392053268607 0.1203937621379213
3 323 324 280 0.29445974395617747 0.06318392053268607 0.1203937621379213
3 233 384 385 0.29445974395617747 0.06318392053268607 0.1203937621379213
3 183 203 184 0.29445974395617747 0.06318392053268607 0.1203937621379213
3 256 307 257 0.29445974395617747 0.06318392053268607 0.1203937621379213
3 257 307 308 0.29445974395617747 0.06318392053268607 0.1203937621379213
3 375 374 317 0.29445974395617747 0.06318392053268607 0.1203937621379213
3 315 272 273 0.29445974395617747 0.06318392053268607 0.1203937621379213
3 261 260 60 0.29445974395617747 0.06318392053268607 0.1203937621379213
3 60 79 261 0.29445974395617747 0.06318392053268607 0.1203937621379213
3 78 79 60 0.29445974395617747 0.06318392053268607 0.1203937621379213
3 59 78 60 0.29445974395617747 0.06318392053268607 0.1203937621379213
3 60 260 59 0.29445974395617747 0.06318392053268607 0.1203937621379213
3 350 351 80 0.29445974395617747 0.06318392053268607 0.1203937621379213
3 76 351 350 0.29445974395617747 0.06318392053268607 0.1203937621379213
3 348 79 78 0.29445974395617747 0.06318392053268607 0.1203937621379213
3 76 133 134 0.29445974395617747 0.06318392053268607 0.1203937621379213
3 181 133 180 0.29445974395617747 0.06318392053268607 0.1203937621379213
3 180 200 181 0.29445974395617747 0.06318392053268607 0.1203937621379213
3 182 134 181 0.29445974395617747 0.06318392053268607 0.1203937621379213
3 181 134 133 0.29445974395617747 0.06318392053268607 0.1203937621379213
3 181 201 182 0.29445974395617747 0.06318392053268607 0.1203937621379213
3 181 200 201 0.29445974395617747 0.06318392053268607 0.1203937621379213
3 149 148 269 0.29445974395617747 0.06318392053268607 0.1203937621379213
3 269 145 149 0.29445974395617747 0.06318392053268607 0.1203937621379213
3 144 361 269 0.29445974395617747 0.06318392053268607 0.1203937621379213
3 269 361 145 0.29445974395617747 0.06318392053268607 0.1203937621379213
3 144 269 268 0.29445974395617747 0.06318392053268607 0.1203937621379213
3 268 269 148 0.29445974395617747 0.06318392053268607 0.1203937621379213
3 87 148 149 0.29445974395617747 0.06318392053268607 0.1203937621379213
3 87 311 310 0.29445974395617747 0.06318392053268607 0.1203937621379213
3 310 86 87 0.29445974395617747 0.06318392053268607 0.1203937621379213
3 86 148 87 0.29445974395617747 0.06318392053268607 0.1203937621379213
3 92 313 215 0.29445974395617747 0.06318392053268607 0.1203937621379213
3 215 313 216 0.29445974395617747 0.06318392053268607 0.1203937621379213
3 218 373 372 0.29445974395617747 0.06318392053268607 0.1203937621379213
3 374 373 218 0.29445974395617747 0.06318392053268607 0.1203937621379213
3 206 138 137 0.29445974395617747 0.06318392053268607 0.1203937621379213
3 143 138 360 0.29445974395617747 0.06318392053268607 0.1203937621379213
3 144 268 360 0.29445974395617747 0.06318392053268607 0.1203937621379213
3 360 268 143 0.29445974395617747 0.06318392053268607 0.1203937621379213
3 40 136 357 0.29445974395617747 0.06318392053268607 0.1203937621379213
3 357 141 42 0.29445974395617747 0.06318392053268607 0.1203937621379213
3 41 40 357 0.29445974395617747 0.06318392053268607 0.1203937621379213
3 357 42 41 0.29445974395617747 0.06318392053268607 0.1203937621379213
3 39 136 40 0.29445974395617747 0.06318392053268607 0.1203937621379213
3 137 136 205 0.29445974395617747 0.06318392053268607 0.1203937621379213
3 205 206 137 0.29445974395617747 0.06318392053268607 0.1203937621379213
3 205 39 38 0.29445974395617747 0.06318392053268607 0.1203937621379213
3 136 39 205 0.29445974395617747 0.06318392053268607 0.1203937621379213
3 146 266 267 0.29445974395617747 0.06318392053268607 0.1203937621379213
3 143 268 267 0.29445974395617747 0.06318392053268607 0.1203937621379213
3 142 266 141 0.29445974395617747 0.06318392053268607 0.1203937621379213
3 142 267 266 0.29445974395617747 0.06318392053268607 0.1203937621379213
3 143 267 142 0.29445974395617747 0.06318392053268607 0.1203937621379213
3 212 48 89 0.29445974395617747 0.06318392053268607 0.1203937621379213
3 89 90 212 0.29445974395617747 0.06318392053268607 0.1203937621379213
3 90 213 212 0.29445974395617747 0.06318392053268607 0.1203937621379213
3 49 48 212 0.29445974395617747 0.06318392053268607 0.1203937621379213
3 88 312 311 0.29445974395617747 0.06318392053268607 0.1203937621379213
3 88 87 149 0.29445974395617747 0.06318392053268607 0.1203937621379213
3 311 87 88 0.29445974395617747 0.06318392053268607 0.1203937621379213
3 150 312 88 0.29445974395617747 0.06318392053268607 0.1203937621379213
3 149 270 88 0.29445974395617747 0.06318392053268607 0.1203937621379213
3 88 270 150 0.29445974395617747 0.06318392053268607 0.1203937621379213
3 83 260 208 0.29445974395617747 0.06318392053268607 0.1203937621379213
3 145 361 140 0.29445974395617747 0.06318392053268607 0.1203937621379213
3 361 208 140 0.29445974395617747 0.06318392053268607 0.1203937621379213
3 237 109 238 0.29445974395617747 0.06318392053268607 0.1203937621379213
3 330 109 329 0.29445974395617747 0.06318392053268607 0.1203937621379213
3 107 328 108 0.29445974395617747 0.06318392053268607 0.1203937621379213
3 237 236 108 0.29445974395617747 0.06318392053268607 0.1203937621379213
3 108 236 107 0.29445974395617747 0.06318392053268607 0.1203937621379213
3 108 328 329 0.29445974395617747 0.06318392053268607 0.1203937621379213
3 108 109 237 0.29445974395617747 0.06318392053268607 0.1203937621379213
3 329 109 108 0.29445974395617747 0.06318392053268607 0.1203937621379213
3 339 340 175 0.29445974395617747 0.06318392053268607 0.1203937621379213
3 69 111 112 0.29445974395617747 0.06318392053268607 0.1203937621379213
3 116 243 117 0.29445974395617747 0.06318392053268607 0.1203937621379213
3 117 337 116 0.29445974395617747 0.06318392053268607 0.1203937621379213
3 244 243 71 0.29445974395617747 0.06318392053268607 0.1203937621379213
3 71 72 244 0.29445974395617747 0.06318392053268607 0.1203937621379213
3 118 117 244 0.29445974395617747 0.06318392053268607 0.1203937621379213
3 244 117 243 0.29445974395617747 0.06318392053268607 0.1203937621379213
3 242 243 116 0.29445974395617747 0.06318392053268607 0.1203937621379213
3 242 116 20 0.29445974395617747 0.06318392053268607 0.1203937621379213
3 20 19 242 0.29445974395617747 0.06318392053268607 0.1203937621379213
3 19 69 242 0.29445974395617747 0.06318392053268607 0.1203937621379213
3 71 243 70 0.29445974395617747 0.06318392053268607 0.1203937621379213
3 70 69 112 0.29445974395617747 0.06318392053268607 0.1203937621379213
3 243 242 70 0.29445974395617747 0.06318392053268607 0.1203937621379213
3 70 242 69 0.29445974395617747 0.06318392053268607 0.1203937621379213
3 295 294 171 0.29445974395617747 0.06318392053268607 0.1203937621379213
3 237 238 171 0.29445974395617747 0.06318392053268607 0.1203937621379213
3 171 170 237 0.29445974395617747 0.06318392053268607 0.1203937621379213
3 171 294 170 0.29445974395617747 0.06318392053268607 0.1203937621379213
3 293 294 113 0.29445974395617747 0.06318392053268607 0.1203937621379213
3 112 293 113 0.29445974395617747 0.06318392053268607 0.1203937621379213
3 114 71 113 0.29445974395617747 0.06318392053268607 0.1203937621379213
3 113 294 114 0.29445974395617747 0.06318392053268607 0.1203937621379213
3 113 70 112 0.29445974395617747 0.06318392053268607 0.1203937621379213
3 71 70 113 0.29445974395617747 0.06318392053268607 0.1203937621379213
3 186 185 274 0.29445974395617747 0.06318392053268607 0.1203937621379213
3 274 185 56 0.29445974395617747 0.06318392053268607 0.1203937621379213
3 55 156 274 0.29445974395617747 0.06318392053268607 0.1203937621379213
3 274 56 55 0.29445974395617747 0.06318392053268607 0.1203937621379213
3 157 156 318 0.29445974395617747 0.06318392053268607 0.1203937621379213
3 318 319 157 0.29445974395617747 0.06318392053268607 0.1203937621379213
3 162 161 186 0.29445974395617747 0.06318392053268607 0.1203937621379213
3 163 227 162 0.29445974395617747 0.06318392053268607 0.1203937621379213
3 289 288 233 0.29445974395617747 0.06318392053268607 0.1203937621379213
3 196 333 332 0.29445974395617747 0.06318392053268607 0.1203937621379213
3 332 195 196 0.29445974395617747 0.06318392053268607 0.1203937621379213
3 196 195 286 0.29445974395617747 0.06318392053268607 0.1203937621379213
3 232 384 233 0.29445974395617747 0.06318392053268607 0.1203937621379213
3 233 288 232 0.29445974395617747 0.06318392053268607 0.1203937621379213
3 194 64 195 0.29445974395617747 0.06318392053268607 0.1203937621379213
3 7 65 8 0.29445974395617747 0.06318392053268607 0.1203937621379213
3 8 65 327 0.29445974395617747 0.06318392053268607 0.1203937621379213
3 327 9 8 0.29445974395617747 0.06318392053268607 0.1203937621379213
3 191 61 192 0.29445974395617747 0.06318392053268607 0.1203937621379213
3 61 62 192 0.29445974395617747 0.06318392053268607 0.1203937621379213
3 192 62 193 0.29445974395617747 0.06318392053268607 0.1203937621379213
3 192 66 191 0.29445974395617747 0.06318392053268607 0.1203937621379213
3 63 62 283 0.29445974395617747 0.06318392053268607 0.1203937621379213
3 193 62 63 0.29445974395617747 0.06318392053268607 0.1203937621379213
3 63 194 193 0.29445974395617747 0.06318392053268607 0.1203937621379213
3 64 194 63 0.29445974395617747 0.06318392053268607 0.1203937621379213
3 5 61 6 0.29445974395617747 0.06318392053268607 0.1203937621379213
3 5 282 61 0.29445974395617747 0.06318392053268607 0.1203937621379213
3 4 101 5 0.29445974395617747 0.06318392053268607 0.1203937621379213
3 5 101 282 0.29445974395617747 0.06318392053268607 0.1203937621379213
3 199 179 198 0.29445974395617747 0.06318392053268607 0.1203937621379213
3 198 251 199 0.29445974395617747 0.06318392053268607 0.1203937621379213
3 31 30 198 0.29445974395617747 0.06318392053268607 0.1203937621379213
3 198 179 31 0.29445974395617747 0.06318392053268607 0.1203937621379213
3 250 251 198 0.29445974395617747 0.06318392053268607 0.1203937621379213
3 198 30 250 0.29445974395617747 0.06318392053268607 0.1203937621379213
3 127 251 250 0.29445974395617747 0.06318392053268607 0.1203937621379213
3 25 121 26 0.29445974395617747 0.06318392053268607 0.1203937621379213
3 175 122 174 0.29445974395617747 0.06318392053268607 0.1203937621379213
3 122 121 174 0.29445974395617747 0.06318392053268607 0.1203937621379213
3 174 339 175 0.29445974395617747 0.06318392053268607 0.1203937621379213
3 341 176 340 0.29445974395617747 0.06318392053268607 0.1203937621379213
3 340 120 341 0.29445974395617747 0.06318392053268607 0.1203937621379213
3 341 120 342 0.29445974395617747 0.06318392053268607 0.1203937621379213
3 342 177 341 0.29445974395617747 0.06318392053268607 0.1203937621379213
3 341 177 176 0.29445974395617747 0.06318392053268607 0.1203937621379213
3 118 244 245 0.29445974395617747 0.06318392053268607 0.1203937621379213
3 245 244 72 0.29445974395617747 0.06318392053268607 0.1203937621379213
3 247 115 296 0.29445974395617747 0.06318392053268607 0.1203937621379213
3 296 297 247 0.29445974395617747 0.06318392053268607 0.1203937621379213
3 297 248 247 0.29445974395617747 0.06318392053268607 0.1203937621379213
3 247 248 342 0.29445974395617747 0.06318392053268607 0.1203937621379213
3 342 120 247 0.29445974395617747 0.06318392053268607 0.1203937621379213
3 301 300 122 0.29445974395617747 0.06318392053268607 0.1203937621379213
3 122 123 301 0.29445974395617747 0.06318392053268607 0.1203937621379213
3 252 129 253 0.29445974395617747 0.06318392053268607 0.1203937621379213
3 253 254 201 0.29445974395617747 0.06318392053268607 0.1203937621379213
3 253 130 254 0.29445974395617747 0.06318392053268607 0.1203937621379213
3 129 130 253 0.29445974395617747 0.06318392053268607 0.1203937621379213
3 253 200 252 0.29445974395617747 0.06318392053268607 0.1203937621379213
3 201 200 253 0.29445974395617747 0.06318392053268607 0.1203937621379213
3 343 248 249 0.29445974395617747 0.06318392053268607 0.1203937621379213
3 249 344 343 0.29445974395617747 0.06318392053268607 0.1203937621379213
3 342 248 343 0.29445974395617747 0.06318392053268607 0.1203937621379213
3 343 344 306 0.29445974395617747 0.06318392053268607 0.1203937621379213
3 306 305 343 0.29445974395617747 0.06318392053268607 0.1203937621379213
3 125 305 304 0.29445974395617747 0.06318392053268607 0.1203937621379213
3 125 124 177 0.29445974395617747 0.06318392053268607 0.1203937621379213
3 125 304 303 0.29445974395617747 0.06318392053268607 0.1203937621379213
3 303 124 125 0.29445974395617747 0.06318392053268607 0.1203937621379213
3 370 371 100 0.29445974395617747 0.06318392053268607 0.1203937621379213
3 100 371 223 0.29445974395617747 0.06318392053268607 0.1203937621379213
3 225 324 224 0.29445974395617747 0.06318392053268607 0.1203937621379213
3 325 324 225 0.29445974395617747 0.06318392053268607 0.1203937621379213
3 224 373 225 0.29445974395617747 0.06318392053268607 0.1203937621379213
3 225 374 325 0.29445974395617747 0.06318392053268607 0.1203937621379213
3 225 373 374 0.29445974395617747 0.06318392053268607 0.1203937621379213
3 372 371 217 0.29445974395617747 0.06318392053268607 0.1203937621379213
3 217 371 216 0.29445974395617747 0.06318392053268607 0.1203937621379213
3 217 218 372 0.29445974395617747 0.06318392053268607 0.1203937621379213
3 315 218 217 0.29445974395617747 0.06318392053268607 0.1203937621379213
3 217 314 315 0.29445974395617747 0.06318392053268607 0.1203937621379213
3 217 216 314 0.29445974395617747 0.06318392053268607 0.1203937621379213
3 160 321 322 0.29445974395617747 0.06318392053268607 0.1203937621379213
3 323 160 322 0.29445974395617747 0.06318392053268607 0.1203937621379213
3 322 155 323 0.29445974395617747 0.06318392053268607 0.1203937621379213
3 383 280 384 0.29445974395617747 0.06318392053268607 0.1203937621379213
3 384 232 383 0.29445974395617747 0.06318392053268607 0.1203937621379213
3 325 385 281 0.29445974395617747 0.06318392053268607 0.1203937621379213
3 281 385 384 0.29445974395617747 0.06318392053268607 0.1203937621379213
3 281 324 325 0.29445974395617747 0.06318392053268607 0.1203937621379213
3 384 280 281 0.29445974395617747 0.06318392053268607 0.1203937621379213
3 281 280 324 0.29445974395617747 0.06318392053268607 0.1203937621379213
3 387 336 386 0.29445974395617747 0.06318392053268607 0.1203937621379213
3 363 211 272 0.29445974395617747 0.06318392053268607 0.1203937621379213
3 210 211 363 0.29445974395617747 0.06318392053268607 0.1203937621379213
3 363 272 271 0.29445974395617747 0.06318392053268607 0.1203937621379213
3 263 211 210 0.29445974395617747 0.06318392053268607 0.1203937621379213
3 80 351 263 0.29445974395617747 0.06318392053268607 0.1203937621379213
3 264 211 263 0.29445974395617747 0.06318392053268607 0.1203937621379213
3 263 352 264 0.29445974395617747 0.06318392053268607 0.1203937621379213
3 351 352 263 0.29445974395617747 0.06318392053268607 0.1203937621379213
3 201 254 202 0.29445974395617747 0.06318392053268607 0.1203937621379213
3 203 183 202 0.29445974395617747 0.06318392053268607 0.1203937621379213
3 182 201 202 0.29445974395617747 0.06318392053268607 0.1203937621379213
3 202 183 182 0.29445974395617747 0.06318392053268607 0.1203937621379213
3 256 203 255 0.29445974395617747 0.06318392053268607 0.1203937621379213
3 254 130 255 0.29445974395617747 0.06318392053268607 0.1203937621379213
3 255 202 254 0.29445974395617747 0.06318392053268607 0.1203937621379213
3 203 202 255 0.29445974395617747 0.06318392053268607 0.1203937621379213
3 130 305 255 0.29445974395617747 0.06318392053268607 0.1203937621379213
3 255 306 256 0.29445974395617747 0.06318392053268607 0.1203937621379213
3 255 305 306 0.29445974395617747 0.06318392053268607 0.1203937621379213
3 204 203 256 0.29445974395617747 0.06318392053268607 0.1203937621379213
3 256 257 204 0.29445974395617747 0.06318392053268607 0.1203937621379213
3 184 203 204 0.29445974395617747 0.06318392053268607 0.1203937621379213
3 257 355 204 0.29445974395617747 0.06318392053268607 0.1203937621379213
3 365 317 316 0.29445974395617747 0.06318392053268607 0.1203937621379213
3 316 273 365 0.29445974395617747 0.06318392053268607 0.1203937621379213
3 316 317 374 0.29445974395617747 0.06318392053268607 0.1203937621379213
3 374 218 316 0.29445974395617747 0.06318392053268607 0.1203937621379213
3 315 273 316 0.29445974395617747 0.06318392053268607 0.1203937621379213
3 316 218 315 0.29445974395617747 0.06318392053268607 0.1203937621379213
3 272 211 364 0.29445974395617747 0.06318392053268607 0.1203937621379213
3 364 273 272 0.29445974395617747 0.06318392053268607 0.1203937621379213
3 364 211 264 0.29445974395617747 0.06318392053268607 0.1203937621379213
3 365 273 364 0.29445974395617747 0.06318392053268607 0.1203937621379213
3 366 317 365 0.29445974395617747 0.06318392053268607 0.1203937621379213
3 365 355 366 0.29445974395617747 0.06318392053268607 0.1203937621379213
3 375 317 366 0.29445974395617747 0.06318392053268607 0.1203937621379213
3 356 257 308 0.29445974395617747 0.06318392053268607 0.1203937621379213
3 356 355 257 0.29445974395617747 0.06318392053268607 0.1203937621379213
3 356 346 387 0.29445974395617747 0.06318392053268607 0.1203937621379213
3 308 346 356 0.29445974395617747 0.06318392053268607 0.1203937621379213
3 356 366 355 0.29445974395617747 0.06318392053268607 0.1203937621379213
3 78 77 347 0.29445974395617747 0.06318392053268607 0.1203937621379213
3 347 348 78 0.29445974395617747 0.06318392053268607 0.1203937621379213
3 33 32 73 0.29445974395617747 0.06318392053268607 0.1203937621379213
3 32 131 73 0.29445974395617747 0.06318392053268607 0.1203937621379213
3 73 347 33 0.29445974395617747 0.06318392053268607 0.1203937621379213
3 348 347 73 0.29445974395617747 0.06318392053268607 0.1203937621379213
3 79 348 349 0.29445974395617747 0.06318392053268607 0.1203937621379213
3 80 79 349 0.29445974395617747 0.06318392053268607 0.1203937621379213
3 349 350 80 0.29445974395617747 0.06318392053268607 0.1203937621379213
3 264 352 353 0.29445974395617747 0.06318392053268607 0.1203937621379213
3 135 183 184 0.29445974395617747 0.06318392053268607 0.1203937621379213
3 184 353 135 0.29445974395617747 0.06318392053268607 0.1203937621379213
3 135 353 352 0.29445974395617747 0.06318392053268607 0.1203937621379213
3 182 183 135 0.29445974395617747 0.06318392053268607 0.1203937621379213
3 135 134 182 0.29445974395617747 0.06318392053268607 0.1203937621379213
3 135 352 351 0.29445974395617747 0.06318392053268607 0.1203937621379213
3 135 351 76 0.29445974395617747 0.06318392053268607 0.1203937621379213
3 76 134 135 0.29445974395617747 0.06318392053268607 0.1203937621379213
3 86 85 147 0.29445974395617747 0.06318392053268607 0.1203937621379213
3 147 148 86 0.29445974395617747 0.06318392053268607 0.1203937621379213
3 147 268 148 0.29445974395617747 0.06318392053268607 0.1203937621379213
3 147 267 268 0.29445974395617747 0.06318392053268607 0.1203937621379213
3 147 85 146 0.29445974395617747 0.06318392053268607 0.1203937621379213
3 146 267 147 0.29445974395617747 0.06318392053268607 0.1203937621379213
3 95 215 96 0.29445974395617747 0.06318392053268607 0.1203937621379213
3 370 369 96 0.29445974395617747 0.06318392053268607 0.1203937621379213
3 96 369 95 0.29445974395617747 0.06318392053268607 0.1203937621379213
3 96 215 216 0.29445974395617747 0.06318392053268607 0.1203937621379213
3 96 371 370 0.29445974395617747 0.06318392053268607 0.1203937621379213
3 216 371 96 0.29445974395617747 0.06318392053268607 0.1203937621379213
3 138 206 207 0.29445974395617747 0.06318392053268607 0.1203937621379213
3 207 360 138 0.29445974395617747 0.06318392053268607 0.1203937621379213
3 358 142 141 0.29445974395617747 0.06318392053268607 0.1203937621379213
3 141 357 358 0.29445974395617747 0.06318392053268607 0.1203937621379213
3 358 357 136 0.29445974395617747 0.06318392053268607 0.1203937621379213
3 358 136 137 0.29445974395617747 0.06318392053268607 0.1203937621379213
3 143 142 359 0.29445974395617747 0.06318392053268607 0.1203937621379213
3 137 138 359 0.29445974395617747 0.06318392053268607 0.1203937621379213
3 359 138 143 0.29445974395617747 0.06318392053268607 0.1203937621379213
3 359 358 137 0.29445974395617747 0.06318392053268607 0.1203937621379213
3 142 358 359 0.29445974395617747 0.06318392053268607 0.1203937621379213
3 94 95 368 0.29445974395617747 0.06318392053268607 0.1203937621379213
3 368 367 94 0.29445974395617747 0.06318392053268607 0.1203937621379213
3 311 312 91 0.29445974395617747 0.06318392053268607 0.1203937621379213
3 91 90 311 0.29445974395617747 0.06318392053268607 0.1203937621379213
3 91 213 90 0.29445974395617747 0.06318392053268607 0.1203937621379213
3 91 312 92 0.29445974395617747 0.06318392053268607 0.1203937621379213
3 84 261 209 0.29445974395617747 0.06318392053268607 0.1203937621379213
3 209 140 84 0.29445974395617747 0.06318392053268607 0.1203937621379213
3 84 140 208 0.29445974395617747 0.06318392053268607 0.1203937621379213
3 84 260 261 0.29445974395617747 0.06318392053268607 0.1203937621379213
3 84 208 260 0.29445974395617747 0.06318392053268607 0.1203937621379213
3 362 270 145 0.29445974395617747 0.06318392053268607 0.1203937621379213
3 145 140 362 0.29445974395617747 0.06318392053268607 0.1203937621379213
3 362 140 209 0.29445974395617747 0.06318392053268607 0.1203937621379213
3 271 270 362 0.29445974395617747 0.06318392053268607 0.1203937621379213
3 209 210 362 0.29445974395617747 0.06318392053268607 0.1203937621379213
3 362 363 271 0.29445974395617747 0.06318392053268607 0.1203937621379213
3 210 363 362 0.29445974395617747 0.06318392053268607 0.1203937621379213
3 296 295 172 0.29445974395617747 0.06318392053268607 0.1203937621379213
3 239 296 172 0.29445974395617747 0.06318392053268607 0.1203937621379213
3 172 238 239 0.29445974395617747 0.06318392053268607 0.1203937621379213
3 295 171 172 0.29445974395617747 0.06318392053268607 0.1203937621379213
3 172 171 238 0.29445974395617747 0.06318392053268607 0.1203937621379213
3 67 330 329 0.29445974395617747 0.06318392053268607 0.1203937621379213
3 329 66 67 0.29445974395617747 0.06318392053268607 0.1203937621379213
3 67 192 193 0.29445974395617747 0.06318392053268607 0.1203937621379213
3 66 192 67 0.29445974395617747 0.06318392053268607 0.1203937621379213
3 110 238 109 0.29445974395617747 0.06318392053268607 0.1203937621379213
3 109 330 110 0.29445974395617747 0.06318392053268607 0.1203937621379213
3 239 238 110 0.29445974395617747 0.06318392053268607 0.1203937621379213
3 17 111 18 0.29445974395617747 0.06318392053268607 0.1203937621379213
3 111 69 18 0.29445974395617747 0.06318392053268607 0.1203937621379213
3 18 69 19 0.29445974395617747 0.06318392053268607 0.1203937621379213
3 229 104 103 0.29445974395617747 0.06318392053268607 0.1203937621379213
3 186 274 275 0.29445974395617747 0.06318392053268607 0.1203937621379213
3 275 274 156 0.29445974395617747 0.06318392053268607 0.1203937621379213
3 156 157 275 0.29445974395617747 0.06318392053268607 0.1203937621379213
3 275 157 276 0.29445974395617747 0.06318392053268607 0.1203937621379213
3 163 188 164 0.29445974395617747 0.06318392053268607 0.1203937621379213
3 320 321 159 0.29445974395617747 0.06318392053268607 0.1203937621379213
3 159 321 160 0.29445974395617747 0.06318392053268607 0.1203937621379213
3 226 162 227 0.29445974395617747 0.06318392053268607 0.1203937621379213
3 227 101 226 0.29445974395617747 0.06318392053268607 0.1203937621379213
3 3 161 226 0.29445974395617747 0.06318392053268607 0.1203937621379213
3 161 162 226 0.29445974395617747 0.06318392053268607 0.1203937621379213
3 226 4 3 0.29445974395617747 0.06318392053268607 0.1203937621379213
3 226 101 4 0.29445974395617747 0.06318392053268607 0.1203937621379213
3 241 299 298 0.29445974395617747 0.06318392053268607 0.1203937621379213
3 298 240 241 0.29445974395617747 0.06318392053268607 0.1203937621379213
3 241 240 333 0.29445974395617747 0.06318392053268607 0.1203937621379213
3 288 289 197 0.29445974395617747 0.06318392053268607 0.1203937621379213
3 333 196 197 0.29445974395617747 0.06318392053268607 0.1203937621379213
3 335 336 299 0.29445974395617747 0.06318392053268607 0.1203937621379213
3 287 196 286 0.29445974395617747 0.06318392053268607 0.1203937621379213
3 287 286 105 0.29445974395617747 0.06318392053268607 0.1203937621379213
3 288 197 287 0.29445974395617747 0.06318392053268607 0.1203937621379213
3 287 197 196 0.29445974395617747 0.06318392053268607 0.1203937621379213
3 287 232 288 0.29445974395617747 0.06318392053268607 0.1203937621379213
3 331 110 330 0.29445974395617747 0.06318392053268607 0.1203937621379213
3 331 195 332 0.29445974395617747 0.06318392053268607 0.1203937621379213
3 331 332 239 0.29445974395617747 0.06318392053268607 0.1203937621379213
3 239 110 331 0.29445974395617747 0.06318392053268607 0.1203937621379213
3 283 282 102 0.29445974395617747 0.06318392053268607 0.1203937621379213
3 282 101 102 0.29445974395617747 0.06318392053268607 0.1203937621379213
3 102 103 283 0.29445974395617747 0.06318392053268607 0.1203937621379213
3 102 101 227 0.29445974395617747 0.06318392053268607 0.1203937621379213
3 27 300 126 0.29445974395617747 0.06318392053268607 0.1203937621379213
3 126 127 250 0.29445974395617747 0.06318392053268607 0.1203937621379213
3 300 301 126 0.29445974395617747 0.06318392053268607 0.1203937621379213
3 126 301 127 0.29445974395617747 0.06318392053268607 0.1203937621379213
3 126 250 28 0.29445974395617747 0.06318392053268607 0.1203937621379213
3 28 27 126 0.29445974395617747 0.06318392053268607 0.1203937621379213
3 339 174 338 0.29445974395617747 0.06318392053268607 0.1203937621379213
3 337 117 338 0.29445974395617747 0.06318392053268607 0.1203937621379213
3 24 337 338 0.29445974395617747 0.06318392053268607 0.1203937621379213
3 118 339 338 0.29445974395617747 0.06318392053268607 0.1203937621379213
3 338 117 118 0.29445974395617747 0.06318392053268607 0.1203937621379213
3 118 245 119 0.29445974395617747 0.06318392053268607 0.1203937621379213
3 119 120 340 0.29445974395617747 0.06318392053268607 0.1203937621379213
3 119 339 118 0.29445974395617747 0.06318392053268607 0.1203937621379213
3 340 339 119 0.29445974395617747 0.06318392053268607 0.1203937621379213
3 115 247 246 0.29445974395617747 0.06318392053268607 0.1203937621379213
3 246 247 120 0.29445974395617747 0.06318392053268607 0.1203937621379213
3 72 115 246 0.29445974395617747 0.06318392053268607 0.1203937621379213
3 246 245 72 0.29445974395617747 0.06318392053268607 0.1203937621379213
3 120 119 246 0.29445974395617747 0.06318392053268607 0.1203937621379213
3 246 119 245 0.29445974395617747 0.06318392053268607 0.1203937621379213
3 302 301 123 0.29445974395617747 0.06318392053268607 0.1203937621379213
3 302 124 303 0.29445974395617747 0.06318392053268607 0.1203937621379213
3 302 123 124 0.29445974395617747 0.06318392053268607 0.1203937621379213
3 127 301 302 0.29445974395617747 0.06318392053268607 0.1203937621379213
3 178 343 305 0.29445974395617747 0.06318392053268607 0.1203937621379213
3 305 125 178 0.29445974395617747 0.06318392053268607 0.1203937621379213
3 342 343 178 0.29445974395617747 0.06318392053268607 0.1203937621379213
3 178 177 342 0.29445974395617747 0.06318392053268607 0.1203937621379213
3 178 125 177 0.29445974395617747 0.06318392053268607 0.1203937621379213
3 223 155 222 0.29445974395617747 0.06318392053268607 0.1203937621379213
3 222 100 223 0.29445974395617747 0.06318392053268607 0.1203937621379213
3 222 221 100 0.29445974395617747 0.06318392053268607 0.1203937621379213
3 100 221 99 0.29445974395617747 0.06318392053268607 0.1203937621379213
3 98 369 99 0.29445974395617747 0.06318392053268607 0.1203937621379213
3 99 220 98 0.29445974395617747 0.06318392053268607 0.1203937621379213
3 99 221 220 0.29445974395617747 0.06318392053268607 0.1203937621379213
3 99 369 370 0.29445974395617747 0.06318392053268607 0.1203937621379213
3 370 100 99 0.29445974395617747 0.06318392053268607 0.1203937621379213
3 231 287 105 0.29445974395617747 0.06318392053268607 0.1203937621379213
3 232 287 231 0.29445974395617747 0.06318392053268607 0.1203937621379213
3 387 386 376 0.29445974395617747 0.06318392053268607 0.1203937621379213
3 375 366 376 0.29445974395617747 0.06318392053268607 0.1203937621379213
3 376 356 387 0.29445974395617747 0.06318392053268607 0.1203937621379213
3 366 356 376 0.29445974395617747 0.06318392053268607 0.1203937621379213
3 326 374 375 0.29445974395617747 0.06318392053268607 0.1203937621379213
3 325 374 326 0.29445974395617747 0.06318392053268607 0.1203937621379213
3 375 376 326 0.29445974395617747 0.06318392053268607 0.1203937621379213
3 326 376 386 0.29445974395617747 0.06318392053268607 0.1203937621379213
3 326 385 325 0.29445974395617747 0.06318392053268607 0.1203937621379213
3 326 386 385 0.29445974395617747 0.06318392053268607 0.1203937621379213
3 80 263 262 0.29445974395617747 0.06318392053268607 0.1203937621379213
3 262 263 210 0.29445974395617747 0.06318392053268607 0.1203937621379213
3 262 261 80 0.29445974395617747 0.06318392053268607 0.1203937621379213
3 209 261 262 0.29445974395617747 0.06318392053268607 0.1203937621379213
3 262 210 209 0.29445974395617747 0.06318392053268607 0.1203937621379213
3 34 77 35 0.29445974395617747 0.06318392053268607 0.1203937621379213
3 34 347 77 0.29445974395617747 0.06318392053268607 0.1203937621379213
3 33 347 34 0.29445974395617747 0.06318392053268607 0.1203937621379213
3 74 131 132 0.29445974395617747 0.06318392053268607 0.1203937621379213
3 74 73 131 0.29445974395617747 0.06318392053268607 0.1203937621379213
3 348 73 74 0.29445974395617747 0.06318392053268607 0.1203937621379213
3 74 349 348 0.29445974395617747 0.06318392053268607 0.1203937621379213
3 184 204 354 0.29445974395617747 0.06318392053268607 0.1203937621379213
3 354 353 184 0.29445974395617747 0.06318392053268607 0.1203937621379213
3 354 204 355 0.29445974395617747 0.06318392053268607 0.1203937621379213
3 354 355 365 0.29445974395617747 0.06318392053268607 0.1203937621379213
3 139 208 361 0.29445974395617747 0.06318392053268607 0.1203937621379213
3 360 207 139 0.29445974395617747 0.06318392053268607 0.1203937621379213
3 83 208 139 0.29445974395617747 0.06318392053268607 0.1203937621379213
3 139 207 83 0.29445974395617747 0.06318392053268607 0.1203937621379213
3 139 361 144 0.29445974395617747 0.06318392053268607 0.1203937621379213
3 144 360 139 0.29445974395617747 0.06318392053268607 0.1203937621379213
3 58 77 59 0.29445974395617747 0.06318392053268607 0.1203937621379213
3 35 77 58 0.29445974395617747 0.06318392053268607 0.1203937621379213
3 82 207 206 0.29445974395617747 0.06318392053268607 0.1203937621379213
3 83 207 82 0.29445974395617747 0.06318392053268607 0.1203937621379213
3 93 212 213 0.29445974395617747 0.06318392053268607 0.1203937621379213
3 213 94 93 0.29445974395617747 0.06318392053268607 0.1203937621379213
3 49 212 93 0.29445974395617747 0.06318392053268607 0.1203937621379213
3 93 94 367 0.29445974395617747 0.06318392053268607 0.1203937621379213
3 93 50 49 0.29445974395617747 0.06318392053268607 0.1203937621379213
3 367 50 93 0.29445974395617747 0.06318392053268607 0.1203937621379213
3 213 91 214 0.29445974395617747 0.06318392053268607 0.1203937621379213
3 95 94 214 0.29445974395617747 0.06318392053268607 0.1203937621379213
3 214 94 213 0.29445974395617747 0.06318392053268607 0.1203937621379213
3 214 91 92 0.29445974395617747 0.06318392053268607 0.1203937621379213
3 92 215 214 0.29445974395617747 0.06318392053268607 0.1203937621379213
3 214 215 95 0.29445974395617747 0.06318392053268607 0.1203937621379213
3 330 67 68 0.29445974395617747 0.06318392053268607 0.1203937621379213
3 68 331 330 0.29445974395617747 0.06318392053268607 0.1203937621379213
3 193 194 68 0.29445974395617747 0.06318392053268607 0.1203937621379213
3 68 67 193 0.29445974395617747 0.06318392053268607 0.1203937621379213
3 68 194 195 0.29445974395617747 0.06318392053268607 0.1203937621379213
3 195 331 68 0.29445974395617747 0.06318392053268607 0.1203937621379213
3 229 103 228 0.29445974395617747 0.06318392053268607 0.1203937621379213
3 228 227 163 0.29445974395617747 0.06318392053268607 0.1203937621379213
3 228 102 227 0.29445974395617747 0.06318392053268607 0.1203937621379213
3 103 102 228 0.29445974395617747 0.06318392053268607 0.1203937621379213
3 163 164 228 0.29445974395617747 0.06318392053268607 0.1203937621379213
3 228 164 229 0.29445974395617747 0.06318392053268607 0.1203937621379213
3 64 63 284 0.29445974395617747 0.06318392053268607 0.1203937621379213
3 284 103 104 0.29445974395617747 0.06318392053268607 0.1203937621379213
3 284 63 283 0.29445974395617747 0.06318392053268607 0.1203937621379213
3 283 103 284 0.29445974395617747 0.06318392053268607 0.1203937621379213
3 186 275 187 0.29445974395617747 0.06318392053268607 0.1203937621379213
3 187 162 186 0.29445974395617747 0.06318392053268607 0.1203937621379213
3 276 188 187 0.29445974395617747 0.06318392053268607 0.1203937621379213
3 187 275 276 0.29445974395617747 0.06318392053268607 0.1203937621379213
3 187 188 163 0.29445974395617747 0.06318392053268607 0.1203937621379213
3 163 162 187 0.29445974395617747 0.06318392053268607 0.1203937621379213
3 278 159 160 0.29445974395617747 0.06318392053268607 0.1203937621379213
3 276 157 158 0.29445974395617747 0.06318392053268607 0.1203937621379213
3 320 159 158 0.29445974395617747 0.06318392053268607 0.1203937621379213
3 158 319 320 0.29445974395617747 0.06318392053268607 0.1203937621379213
3 158 157 319 0.29445974395617747 0.06318392053268607 0.1203937621379213
3 336 335 290 0.29445974395617747 0.06318392053268607 0.1203937621379213
3 290 335 289 0.29445974395617747 0.06318392053268607 0.1203937621379213
3 290 386 336 0.29445974395617747 0.06318392053268607 0.1203937621379213
3 385 386 290 0.29445974395617747 0.06318392053268607 0.1203937621379213
3 233 385 290 0.29445974395617747 0.06318392053268607 0.1203937621379213
3 290 289 233 0.29445974395617747 0.06318392053268607 0.1203937621379213
3 299 241 334 0.29445974395617747 0.06318392053268607 0.1203937621379213
3 334 335 299 0.29445974395617747 0.06318392053268607 0.1203937621379213
3 334 241 333 0.29445974395617747 0.06318392053268607 0.1203937621379213
3 333 197 334 0.29445974395617747 0.06318392053268607 0.1203937621379213
3 334 197 289 0.29445974395617747 0.06318392053268607 0.1203937621379213
3 289 335 334 0.29445974395617747 0.06318392053268607 0.1203937621379213
3 24 338 173 0.29445974395617747 0.06318392053268607 0.1203937621379213
3 173 338 174 0.29445974395617747 0.06318392053268607 0.1203937621379213
3 173 25 24 0.29445974395617747 0.06318392053268607 0.1203937621379213
3 121 25 173 0.29445974395617747 0.06318392053268607 0.1203937621379213
3 173 174 121 0.29445974395617747 0.06318392053268607 0.1203937621379213
3 127 302 128 0.29445974395617747 0.06318392053268607 0.1203937621379213
3 128 129 252 0.29445974395617747 0.06318392053268607 0.1203937621379213
3 303 129 128 0.29445974395617747 0.06318392053268607 0.1203937621379213
3 128 302 303 0.29445974395617747 0.06318392053268607 0.1203937621379213
3 252 251 128 0.29445974395617747 0.06318392053268607 0.1203937621379213
3 251 127 128 0.29445974395617747 0.06318392053268607 0.1203937621379213
3 154 222 155 0.29445974395617747 0.06318392053268607 0.1203937621379213
3 154 322 321 0.29445974395617747 0.06318392053268607 0.1203937621379213
3 155 322 154 0.29445974395617747 0.06318392053268607 0.1203937621379213
3 221 222 154 0.29445974395617747 0.06318392053268607 0.1203937621379213
3 229 164 165 0.29445974395617747 0.06318392053268607 0.1203937621379213
3 349 74 75 0.29445974395617747 0.06318392053268607 0.1203937621379213
3 76 350 75 0.29445974395617747 0.06318392053268607 0.1203937621379213
3 350 349 75 0.29445974395617747 0.06318392053268607 0.1203937621379213
3 75 133 76 0.29445974395617747 0.06318392053268607 0.1203937621379213
3 132 133 75 0.29445974395617747 0.06318392053268607 0.1203937621379213
3 75 74 132 0.29445974395617747 0.06318392053268607 0.1203937621379213
3 265 354 365 0.29445974395617747 0.06318392053268607 0.1203937621379213
3 353 354 265 0.29445974395617747 0.06318392053268607 0.1203937621379213
3 264 353 265 0.29445974395617747 0.06318392053268607 0.1203937621379213
3 265 364 264 0.29445974395617747 0.06318392053268607 0.1203937621379213
3 365 364 265 0.29445974395617747 0.06318392053268607 0.1203937621379213
3 259 58 59 0.29445974395617747 0.06318392053268607 0.1203937621379213
3 59 260 259 0.29445974395617747 0.06318392053268607 0.1203937621379213
3 259 260 83 0.29445974395617747 0.06318392053268607 0.1203937621379213
3 83 82 259 0.29445974395617747 0.06318392053268607 0.1203937621379213
3 258 58 259 0.29445974395617747 0.06318392053268607 0.1203937621379213
3 259 82 258 0.29445974395617747 0.06318392053268607 0.1203937621379213
3 258 37 36 0.29445974395617747 0.06318392053268607 0.1203937621379213
3 35 58 36 0.29445974395617747 0.06318392053268607 0.1203937621379213
3 36 58 258 0.29445974395617747 0.06318392053268607 0.1203937621379213
3 81 37 258 0.29445974395617747 0.06318392053268607 0.1203937621379213
3 81 82 206 0.29445974395617747 0.06318392053268607 0.1203937621379213
3 258 82 81 0.29445974395617747 0.06318392053268607 0.1203937621379213
3 206 205 81 0.29445974395617747 0.06318392053268607 0.1203937621379213
3 81 205 38 0.29445974395617747 0.06318392053268607 0.1203937621379213
3 38 37 81 0.29445974395617747 0.06318392053268607 0.1203937621379213
3 64 284 285 0.29445974395617747 0.06318392053268607 0.1203937621379213
3 285 284 104 0.29445974395617747 0.06318392053268607 0.1203937621379213
3 286 64 285 0.29445974395617747 0.06318392053268607 0.1203937621379213
3 105 286 285 0.29445974395617747 0.06318392053268607 0.1203937621379213
3 285 104 105 0.29445974395617747 0.06318392053268607 0.1203937621379213
3 279 278 160 0.29445974395617747 0.06318392053268607 0.1203937621379213
3 280 383 279 0.29445974395617747 0.06318392053268607 0.1203937621379213
3 279 160 323 0.29445974395617747 0.06318392053268607 0.1203937621379213
3 323 280 279 0.29445974395617747 0.06318392053268607 0.1203937621379213
3 221 154 153 0.29445974395617747 0.06318392053268607 0.1203937621379213
3 152 220 153 0.29445974395617747 0.06318392053268607 0.1203937621379213
3 220 221 153 0.29445974395617747 0.06318392053268607 0.1203937621379213
3 320 152 153 0.29445974395617747 0.06318392053268607 0.1203937621379213
3 153 321 320 0.29445974395617747 0.06318392053268607 0.1203937621379213
3 153 154 321 0.29445974395617747 0.06318392053268607 0.1203937621379213
3 166 383 232 0.29445974395617747 0.06318392053268607 0.1203937621379213
3 232 231 166 0.29445974395617747 0.06318392053268607 0.1203937621379213
3 189 164 188 0.29445974395617747 0.06318392053268607 0.1203937621379213
3 189 165 164 0.29445974395617747 0.06318392053268607 0.1203937621379213
3 230 231 105 0.29445974395617747 0.06318392053268607 0.1203937621379213
3 229 165 230 0.29445974395617747 0.06318392053268607 0.1203937621379213
3 230 166 231 0.29445974395617747 0.06318392053268607 0.1203937621379213
3 165 166 230 0.29445974395617747 0.06318392053268607 0.1203937621379213
3 105 104 230 0.29445974395617747 0.06318392053268607 0.1203937621379213
3 230 104 229 0.29445974395617747 0.06318392053268607 0.1203937621379213
3 382 166 165 0.29445974395617747 0.06318392053268607 0.1203937621379213
3 382 189 278 0.29445974395617747 0.06318392053268607 0.1203937621379213
3 165 189 382 0.29445974395617747 0.06318392053268607 0.1203937621379213
3 278 279 382 0.29445974395617747 0.06318392053268607 0.1203937621379213
3 382 279 383 0.29445974395617747 0.06318392053268607 0.1203937621379213
3 383 166 382 0.29445974395617747 0.06318392053268607 0.1203937621379213
3 278 189 277 0.29445974395617747 0.06318392053268607 0.1203937621379213
3 276 158 277 0.29445974395617747 0.06318392053268607 0.1203937621379213
3 277 188 276 0.29445974395617747 0.06318392053268607 0.1203937621379213
3 277 189 188 0.29445974395617747 0.06318392053268607 0.1203937621379213
3 159 278 277 0.29445974395617747 0.06318392053268607 0.1203937621379213
3 277 158 159 0.29445974395617747 0.06318392053268607 0.1203937621379213
