OFF
79 73 0


25.6898 32.493 9.3236
25.6898 32.493 9.3236
25.6434 32.4358 9.2126
25.6065 32.3879 9.1263
25.5742 32.344 9.0519
25.5432 32.3004 8.9818
25.5107 32.2531 8.9097
25.4734 32.197 8.8287
25.4264 32.1229 8.7285
25.4252 32.12 8.7268
25.424 32.1171 8.7251
25.424 32.1171 8.7251
25.4348 32.0405 8.8208
25.4453 31.9676 8.9128
25.4557 31.898 9.0017
25.466 31.8314 9.0881
25.4763 31.7674 9.1724
25.4867 31.7057 9.2551
25.4972 31.6462 9.3367
25.508 31.5886 9.4176
25.5191 31.533 9.498
25.5306 31.4792 9.5785
25.5426 31.4273 9.6591
25.5553 31.3775 9.7403
25.5687 31.3298 9.8224
25.583 31.2845 9.9055
25.5982 31.2419 9.9897
25.6145 31.2021 10.0752
25.6319 31.1654 10.1621
25.6504 31.1319 10.2503
25.6701 31.1017 10.3397
25.6908 31.0746 10.4302
25.7126 31.0505 10.5219
25.7353 31.0293 10.6146
25.7589 31.0104 10.7084
25.7834 30.9938 10.8034
25.8088 30.9791 10.8999
25.835 30.966 10.9979
25.8621 30.9542 11.0978
25.8901 30.9437 11.2
25.9192 30.9342 11.3048
25.9494 30.9255 11.4129
25.9809 30.9176 11.5248
26.0139 30.9102 11.641
26.0139 30.9102 11.641
26.0459 31.0499 11.6396
26.0689 31.1511 11.6381
26.0887 31.2385 11.6364
26.1084 31.3259 11.6343
26.1311 31.4272 11.6316
26.1621 31.5669 11.6271
26.1621 31.5669 11.6271
26.1446 31.6012 11.5418
26.1272 31.6355 11.4565
26.1097 31.6698 11.3712
26.0922 31.7041 11.2859
26.0747 31.7384 11.2006
26.0572 31.7727 11.1152
26.0397 31.807 11.0299
26.0222 31.8413 10.9446
26.0047 31.8756 10.8593
25.9872 31.9099 10.774
25.9697 31.9442 10.6887
25.9522 31.9785 10.6033
25.9347 32.0128 10.518
25.9172 32.0471 10.4327
25.8997 32.0814 10.3474
25.8822 32.1157 10.2621
25.8647 32.15 10.1768
25.8472 32.1843 10.0914
25.8297 32.2186 10.0061
25.8123 32.2529 9.9208
25.7948 32.2872 9.8355
25.7773 32.3215 9.7502
25.7598 32.3558 9.6649
25.7423 32.3901 9.5796
25.7248 32.4244 9.4942
25.7073 32.4587 9.4089
25.6898 32.493 9.3236
3 10 12 9 0.35589538421882716 0.16559945111823426 0.8771186363217914
3 12 8 9 0.35589538421882716 0.16559945111823426 0.8771186363217914
3 19 71 72 0.35589538421882716 0.16559945111823426 0.8771186363217914
3 20 71 19 0.35589538421882716 0.16559945111823426 0.8771186363217914
3 7 8 12 0.35589538421882716 0.16559945111823426 0.8771186363217914
3 13 7 12 0.35589538421882716 0.16559945111823426 0.8771186363217914
3 51 52 49 0.35589538421882716 0.16559945111823426 0.8771186363217914
3 25 26 65 0.35589538421882716 0.16559945111823426 0.8771186363217914
3 66 25 65 0.35589538421882716 0.16559945111823426 0.8771186363217914
3 24 25 66 0.35589538421882716 0.16559945111823426 0.8771186363217914
3 23 68 22 0.35589538421882716 0.16559945111823426 0.8771186363217914
3 6 13 5 0.35589538421882716 0.16559945111823426 0.8771186363217914
3 7 13 6 0.35589538421882716 0.16559945111823426 0.8771186363217914
3 15 3 4 0.35589538421882716 0.16559945111823426 0.8771186363217914
3 75 3 15 0.35589538421882716 0.16559945111823426 0.8771186363217914
3 75 72 0 0.35589538421882716 0.16559945111823426 0.8771186363217914
3 5 13 14 0.35589538421882716 0.16559945111823426 0.8771186363217914
3 15 4 14 0.35589538421882716 0.16559945111823426 0.8771186363217914
3 14 4 5 0.35589538421882716 0.16559945111823426 0.8771186363217914
3 34 59 33 0.35589538421882716 0.16559945111823426 0.8771186363217914
3 33 59 60 0.35589538421882716 0.16559945111823426 0.8771186363217914
3 64 27 28 0.35589538421882716 0.16559945111823426 0.8771186363217914
3 65 26 64 0.35589538421882716 0.16559945111823426 0.8771186363217914
3 26 27 64 0.35589538421882716 0.16559945111823426 0.8771186363217914
3 30 62 29 0.35589538421882716 0.16559945111823426 0.8771186363217914
3 19 72 18 0.35589538421882716 0.16559945111823426 0.8771186363217914
3 68 23 67 0.35589538421882716 0.16559945111823426 0.8771186363217914
3 24 66 67 0.35589538421882716 0.16559945111823426 0.8771186363217914
3 67 23 24 0.35589538421882716 0.16559945111823426 0.8771186363217914
3 71 20 70 0.35589538421882716 0.16559945111823426 0.8771186363217914
3 20 21 70 0.35589538421882716 0.16559945111823426 0.8771186363217914
3 22 68 69 0.35589538421882716 0.16559945111823426 0.8771186363217914
3 69 21 22 0.35589538421882716 0.16559945111823426 0.8771186363217914
3 69 70 21 0.35589538421882716 0.16559945111823426 0.8771186363217914
3 16 75 15 0.35589538421882716 0.16559945111823426 0.8771186363217914
3 74 16 17 0.35589538421882716 0.16559945111823426 0.8771186363217914
3 75 16 74 0.35589538421882716 0.16559945111823426 0.8771186363217914
3 76 2 3 0.35589538421882716 0.16559945111823426 0.8771186363217914
3 3 75 76 0.35589538421882716 0.16559945111823426 0.8771186363217914
3 33 60 32 0.35589538421882716 0.16559945111823426 0.8771186363217914
3 61 30 31 0.35589538421882716 0.16559945111823426 0.8771186363217914
3 61 62 30 0.35589538421882716 0.16559945111823426 0.8771186363217914
3 31 32 61 0.35589538421882716 0.16559945111823426 0.8771186363217914
3 61 32 60 0.35589538421882716 0.16559945111823426 0.8771186363217914
3 42 44 45 0.35589538421882716 0.16559945111823426 0.8771186363217914
3 42 45 41 0.35589538421882716 0.16559945111823426 0.8771186363217914
3 41 45 46 0.35589538421882716 0.16559945111823426 0.8771186363217914
3 63 64 28 0.35589538421882716 0.16559945111823426 0.8771186363217914
3 28 29 63 0.35589538421882716 0.16559945111823426 0.8771186363217914
3 63 29 62 0.35589538421882716 0.16559945111823426 0.8771186363217914
3 73 74 17 0.35589538421882716 0.16559945111823426 0.8771186363217914
3 73 18 72 0.35589538421882716 0.16559945111823426 0.8771186363217914
3 17 18 73 0.35589538421882716 0.16559945111823426 0.8771186363217914
3 0 2 77 0.35589538421882716 0.16559945111823426 0.8771186363217914
3 2 76 77 0.35589538421882716 0.16559945111823426 0.8771186363217914
3 56 37 55 0.35589538421882716 0.16559945111823426 0.8771186363217914
3 35 57 58 0.35589538421882716 0.16559945111823426 0.8771186363217914
3 58 34 35 0.35589538421882716 0.16559945111823426 0.8771186363217914
3 59 34 58 0.35589538421882716 0.16559945111823426 0.8771186363217914
3 36 57 35 0.35589538421882716 0.16559945111823426 0.8771186363217914
3 56 57 36 0.35589538421882716 0.16559945111823426 0.8771186363217914
3 36 37 56 0.35589538421882716 0.16559945111823426 0.8771186363217914
3 39 47 48 0.35589538421882716 0.16559945111823426 0.8771186363217914
3 40 41 46 0.35589538421882716 0.16559945111823426 0.8771186363217914
3 40 47 39 0.35589538421882716 0.16559945111823426 0.8771186363217914
3 46 47 40 0.35589538421882716 0.16559945111823426 0.8771186363217914
3 53 49 52 0.35589538421882716 0.16559945111823426 0.8771186363217914
3 53 48 49 0.35589538421882716 0.16559945111823426 0.8771186363217914
3 54 48 53 0.35589538421882716 0.16559945111823426 0.8771186363217914
3 38 55 37 0.35589538421882716 0.16559945111823426 0.8771186363217914
3 54 55 38 0.35589538421882716 0.16559945111823426 0.8771186363217914
3 39 48 38 0.35589538421882716 0.16559945111823426 0.8771186363217914
3 38 48 54 0.35589538421882716 0.16559945111823426 0.8771186363217914
