OFF
73 66 0


27.5273 35.695 4.4189
27.5273 35.695 4.4189
27.5457 35.6432 4.5126
27.5273 35.695 4.4189
27.5273 35.695 4.4189
27.6376 35.795 4.3497
27.7261 35.8774 4.2909
27.8005 35.9481 4.2392
27.8651 36.0107 4.1925
27.923 36.0676 4.1493
27.9759 36.1206 4.1085
28.0256 36.1708 4.0693
28.073 36.2194 4.0309
28.1192 36.2673 3.9926
28.1649 36.3154 3.9538
28.211 36.3644 3.9138
28.2584 36.4153 3.8718
28.3079 36.4692 3.8269
28.3608 36.5274 3.778
28.4183 36.5916 3.7234
28.4826 36.6643 3.6609
28.5561 36.7488 3.5874
28.6433 36.8505 3.4978
28.6433 36.8505 3.4978
28.7711 36.8749 3.5582
28.8643 36.8936 3.601
28.9429 36.9099 3.6361
29.0174 36.9259 3.6686
29.0963 36.9434 3.7022
29.1904 36.965 3.7412
29.3207 36.9962 3.7931
29.3264 36.9488 3.8703
29.3321 36.9014 3.9476
29.3378 36.854 4.0248
29.3436 36.8066 4.1021
29.3493 36.7592 4.1793
29.355 36.7118 4.2565
29.3607 36.6644 4.3338
29.3664 36.617 4.411
29.3721 36.5697 4.4883
29.3778 36.5223 4.5655
29.3836 36.4749 4.6427
29.3893 36.4275 4.72
29.395 36.3801 4.7972
29.4007 36.3327 4.8745
29.4064 36.2853 4.9517
29.4121 36.2379 5.029
29.4178 36.1905 5.1062
29.4236 36.1431 5.1834
29.4293 36.0957 5.2607
29.435 36.0483 5.3379
29.4407 36.001 5.4152
29.4407 36.001 5.4152
29.2945 35.9782 5.3381
29.1716 35.9576 5.2755
29.0649 35.9388 5.2227
28.9699 35.9212 5.1769
28.8833 35.9046 5.136
28.8028 35.8887 5.0989
28.7269 35.8732 5.0645
28.654 35.8579 5.032
28.583 35.8427 5.001
28.5128 35.8273 4.9708
28.4424 35.8116 4.9411
28.3709 35.7953 4.9113
28.2971 35.7781 4.8812
28.2198 35.7598 4.8501
28.1377 35.7399 4.8177
28.0489 35.718 4.7833
27.951 35.6934 4.7461
27.841 35.6651 4.7053
27.7142 35.6318 4.6593
27.564 35.5914 4.6064
3 13 63 62 0.9009703870814076 0.19522280670490255 0.4012428006177199
3 60 59 41 0.9009703870814076 0.19522280670490255 0.4012428006177199
3 41 40 60 0.9009703870814076 0.19522280670490255 0.4012428006177199
3 71 2 72 0.9009703870814076 0.19522280670490255 0.4012428006177199
3 14 13 62 0.9009703870814076 0.19522280670490255 0.4012428006177199
3 63 13 12 0.9009703870814076 0.19522280670490255 0.4012428006177199
3 27 34 33 0.9009703870814076 0.19522280670490255 0.4012428006177199
3 15 40 39 0.9009703870814076 0.19522280670490255 0.4012428006177199
3 55 46 56 0.9009703870814076 0.19522280670490255 0.4012428006177199
3 56 46 45 0.9009703870814076 0.19522280670490255 0.4012428006177199
3 45 44 56 0.9009703870814076 0.19522280670490255 0.4012428006177199
3 41 59 42 0.9009703870814076 0.19522280670490255 0.4012428006177199
3 56 44 57 0.9009703870814076 0.19522280670490255 0.4012428006177199
3 61 60 40 0.9009703870814076 0.19522280670490255 0.4012428006177199
3 61 40 15 0.9009703870814076 0.19522280670490255 0.4012428006177199
3 61 14 62 0.9009703870814076 0.19522280670490255 0.4012428006177199
3 15 14 61 0.9009703870814076 0.19522280670490255 0.4012428006177199
3 5 4 2 0.9009703870814076 0.19522280670490255 0.4012428006177199
3 2 71 5 0.9009703870814076 0.19522280670490255 0.4012428006177199
3 5 71 70 0.9009703870814076 0.19522280670490255 0.4012428006177199
3 7 68 8 0.9009703870814076 0.19522280670490255 0.4012428006177199
3 7 69 68 0.9009703870814076 0.19522280670490255 0.4012428006177199
3 11 10 65 0.9009703870814076 0.19522280670490255 0.4012428006177199
3 53 48 54 0.9009703870814076 0.19522280670490255 0.4012428006177199
3 54 48 47 0.9009703870814076 0.19522280670490255 0.4012428006177199
3 46 55 47 0.9009703870814076 0.19522280670490255 0.4012428006177199
3 47 55 54 0.9009703870814076 0.19522280670490255 0.4012428006177199
3 48 53 49 0.9009703870814076 0.19522280670490255 0.4012428006177199
3 58 42 59 0.9009703870814076 0.19522280670490255 0.4012428006177199
3 6 5 70 0.9009703870814076 0.19522280670490255 0.4012428006177199
3 70 69 6 0.9009703870814076 0.19522280670490255 0.4012428006177199
3 69 7 6 0.9009703870814076 0.19522280670490255 0.4012428006177199
3 64 12 11 0.9009703870814076 0.19522280670490255 0.4012428006177199
3 11 65 64 0.9009703870814076 0.19522280670490255 0.4012428006177199
3 63 12 64 0.9009703870814076 0.19522280670490255 0.4012428006177199
3 66 10 9 0.9009703870814076 0.19522280670490255 0.4012428006177199
3 66 65 10 0.9009703870814076 0.19522280670490255 0.4012428006177199
3 17 38 37 0.9009703870814076 0.19522280670490255 0.4012428006177199
3 37 18 17 0.9009703870814076 0.19522280670490255 0.4012428006177199
3 28 27 33 0.9009703870814076 0.19522280670490255 0.4012428006177199
3 33 32 28 0.9009703870814076 0.19522280670490255 0.4012428006177199
3 28 32 29 0.9009703870814076 0.19522280670490255 0.4012428006177199
3 50 53 51 0.9009703870814076 0.19522280670490255 0.4012428006177199
3 50 49 53 0.9009703870814076 0.19522280670490255 0.4012428006177199
3 43 57 44 0.9009703870814076 0.19522280670490255 0.4012428006177199
3 43 58 57 0.9009703870814076 0.19522280670490255 0.4012428006177199
3 42 58 43 0.9009703870814076 0.19522280670490255 0.4012428006177199
3 67 66 9 0.9009703870814076 0.19522280670490255 0.4012428006177199
3 8 68 67 0.9009703870814076 0.19522280670490255 0.4012428006177199
3 67 9 8 0.9009703870814076 0.19522280670490255 0.4012428006177199
3 36 18 37 0.9009703870814076 0.19522280670490255 0.4012428006177199
3 18 36 19 0.9009703870814076 0.19522280670490255 0.4012428006177199
3 19 36 35 0.9009703870814076 0.19522280670490255 0.4012428006177199
3 38 17 16 0.9009703870814076 0.19522280670490255 0.4012428006177199
3 15 39 16 0.9009703870814076 0.19522280670490255 0.4012428006177199
3 16 39 38 0.9009703870814076 0.19522280670490255 0.4012428006177199
3 26 19 35 0.9009703870814076 0.19522280670490255 0.4012428006177199
3 34 27 26 0.9009703870814076 0.19522280670490255 0.4012428006177199
3 26 35 34 0.9009703870814076 0.19522280670490255 0.4012428006177199
3 30 29 31 0.9009703870814076 0.19522280670490255 0.4012428006177199
3 29 32 31 0.9009703870814076 0.19522280670490255 0.4012428006177199
3 21 25 24 0.9009703870814076 0.19522280670490255 0.4012428006177199
3 21 24 22 0.9009703870814076 0.19522280670490255 0.4012428006177199
3 20 26 25 0.9009703870814076 0.19522280670490255 0.4012428006177199
3 19 26 20 0.9009703870814076 0.19522280670490255 0.4012428006177199
3 25 21 20 0.9009703870814076 0.19522280670490255 0.4012428006177199
