OFF
565 1041 0


28.7985 29.1974 6.4578
28.7985 29.1974 6.4578
28.913 29.2449 6.4962
29.0195 29.2882 6.5327
29.1194 29.3279 6.5677
29.2142 29.3647 6.6017
29.3048 29.3989 6.6349
29.3921 29.4308 6.6679
29.4769 29.4608 6.7008
29.5597 29.4889 6.7339
29.6412 29.5153 6.7676
29.7218 29.54 6.802
29.802 29.5632 6.8375
29.8821 29.5847 6.8744
29.9625 29.6045 6.9128
30.0434 29.6227 6.9531
30.1252 29.639 6.9956
30.2081 29.6535 7.0404
30.2925 29.6659 7.0879
30.3787 29.6764 7.1383
30.4671 29.6848 7.192
30.5581 29.6912 7.2493
30.6524 29.6954 7.3107
30.7506 29.6976 7.3765
30.8012 29.7938 7.3863
30.8275 29.7456 7.4168
30.8538 29.6975 7.4476
30.8012 29.7938 7.3863
30.8012 29.7938 7.3863
30.7235 29.8609 7.3167
30.6474 29.9223 7.2511
30.5727 29.9786 7.189
30.4988 30.0303 7.13
30.4256 30.0779 7.0737
30.3528 30.1217 7.0198
30.2802 30.1621 6.9681
30.2077 30.1993 6.9182
30.135 30.2338 6.87
30.0621 30.2657 6.8232
29.9888 30.2955 6.7775
29.9147 30.3233 6.7327
29.8397 30.3493 6.6886
29.7634 30.3739 6.6449
29.6856 30.3972 6.6014
29.6057 30.4194 6.5577
29.5232 30.4407 6.5136
29.4377 30.4614 6.4687
29.3484 30.4815 6.4227
29.2545 30.5012 6.3752
29.155 30.5207 6.3257
29.0488 30.5401 6.2736
28.9342 30.5597 6.2184
28.9419 30.4323 6.2435
28.9455 30.3191 6.2653
28.9459 30.2161 6.2847
28.9436 30.1203 6.3024
28.9389 30.0293 6.3187
28.932 29.9411 6.3341
28.9228 29.8539 6.349
28.9111 29.7661 6.3636
28.8965 29.6757 6.3782
28.8785 29.5811 6.3931
28.8563 29.4798 6.4086
28.8286 29.369 6.4249
28.7937 29.2451 6.4425
28.7937 29.2451 6.4425
28.7961 29.2212 6.4502
28.7985 29.1974 6.4578
30.7238 29.7533 7.3437
29.0086 29.9311 6.3704
29.0795 29.9219 6.4043
29.1457 29.9133 6.4361
29.2076 29.9053 6.4661
28.9899 29.774 6.3969
29.0629 29.7815 6.428
29.131 29.7884 6.4572
29.1946 29.795 6.4847
28.9945 29.3086 6.5158
29.0692 29.367 6.534
29.1381 29.421 6.5512
29.202 29.4711 6.5675
29.2616 29.5179 6.5831
29.173 29.3774 6.579
29.2233 29.424 6.5899
29.2709 29.468 6.6004
29.3159 29.5097 6.6107
29.3587 29.5495 6.6206
29.3373 29.4377 6.6398
29.3685 29.4751 6.6447
29.3985 29.5111 6.6495
29.4275 29.5458 6.6544
29.4555 29.5795 6.6592
29.4929 29.4915 6.7003
29.5085 29.5216 6.7
29.5239 29.551 6.6998
29.5389 29.5799 6.6996
29.5536 29.6083 6.6996
29.6849 30.3524 6.6085
29.6842 30.3088 6.6156
29.6836 30.2664 6.6226
29.6829 30.225 6.6297
29.6823 30.1844 6.6369
29.5366 30.3888 6.5287
29.5495 30.3389 6.5434
29.5618 30.291 6.5578
29.5738 30.2448 6.5719
29.5853 30.2002 6.5857
29.3795 30.4212 6.4474
29.4087 30.3644 6.471
29.4365 30.3107 6.4936
29.4628 30.2596 6.5153
29.4879 30.211 6.5363
29.209 30.4506 6.3624
29.2588 30.3859 6.3966
29.3051 30.3259 6.4287
29.3483 30.27 6.459
29.3888 30.2175 6.4877
29.0191 30.4778 6.2706
29.0954 30.4041 6.318
29.1647 30.3372 6.3615
29.2281 30.2762 6.4017
29.2865 30.22 6.4392
29.0243 30.2678 6.3102
29.0965 30.2209 6.3517
29.163 30.1777 6.3901
29.2245 30.1377 6.4261
29.2819 30.1006 6.4599
29.0201 30.0915 6.3423
29.0907 30.0648 6.3795
29.1563 30.0401 6.4143
29.2175 30.0171 6.447
29.2749 29.9956 6.4779
28.9621 29.6085 6.4237
29.0393 29.6339 6.4521
29.1108 29.6574 6.4788
29.1775 29.6794 6.5039
29.2399 29.7001 6.5277
29.6439 29.5398 6.7624
29.6465 29.5641 6.7573
29.6491 29.5882 6.7523
29.6517 29.6121 6.7474
29.6542 29.6359 6.7427
29.6568 29.6596 6.738
29.7932 29.5829 6.8277
29.7845 29.6027 6.8179
29.7757 29.6224 6.8083
29.7669 29.6423 6.7986
29.7581 29.6621 6.789
29.7493 29.6821 6.7795
29.9432 29.6207 6.898
29.9239 29.637 6.8832
29.9045 29.6534 6.8685
29.8849 29.6698 6.8538
29.8652 29.6864 6.8391
29.8454 29.7032 6.8243
30.0952 29.6527 6.9747
30.0652 29.6664 6.9541
30.0351 29.6801 6.9335
30.0049 29.694 6.9131
29.9744 29.708 6.8928
29.9437 29.7221 6.8724
30.2502 29.678 7.0591
30.2083 29.6899 7.031
30.1668 29.7019 7.0035
30.1253 29.7138 6.9763
30.0838 29.7258 6.9495
30.042 29.738 6.9229
30.4091 29.6961 7.1523
30.3529 29.7071 7.1143
30.2981 29.7179 7.0778
30.2441 29.7286 7.0425
30.1908 29.7392 7.0081
30.1377 29.7499 6.9745
30.5732 29.7067 7.2552
30.4988 29.7174 7.2039
30.4279 29.7278 7.156
30.3597 29.7379 7.1107
30.2935 29.7478 7.0675
30.2285 29.7577 7.0259
30.6362 29.8585 7.2587
30.5548 29.8565 7.2056
30.4779 29.8548 7.1563
30.4043 29.8532 7.1101
30.3331 29.8519 7.0663
30.2635 29.8507 7.0244
30.1704 30.1742 6.9013
30.1335 30.1494 6.8848
30.0969 30.1248 6.8687
30.0604 30.1004 6.853
30.0239 30.076 6.8375
29.9874 30.0516 6.8223
30.0346 30.2355 6.8132
30.0074 30.2056 6.8036
29.9803 30.176 6.7943
29.9533 30.1465 6.7852
29.9265 30.1172 6.7763
29.8996 30.0878 6.7677
29.8971 30.2877 6.7294
29.8797 30.2526 6.7263
29.8624 30.2179 6.7234
29.8454 30.1836 6.7208
29.8285 30.1496 6.7183
29.8116 30.1158 6.716
29.7567 30.3323 6.6484
29.75 30.2917 6.652
29.7435 30.2519 6.6556
29.7372 30.2128 6.6594
29.7309 30.1744 6.6633
29.7247 30.1366 6.6673
28.921 29.4205 6.4527
29.0053 29.4676 6.4784
29.0827 29.5109 6.5024
29.1543 29.551 6.5249
29.2208 29.5883 6.5462
29.2829 29.6233 6.5664
30.7021 29.7971 7.318
30.6111 29.8003 7.2563
30.5264 29.8035 7.2
30.4463 29.8067 7.1479
30.3696 29.8099 7.0989
30.2952 29.8131 7.0524
30.2222 29.8165 7.0078
30.745 29.7098 7.3695
30.6466 29.7211 7.3001
30.556 29.7317 7.2374
30.4712 29.7418 7.1799
30.3906 29.7516 7.1265
30.3131 29.7612 7.0761
30.2374 29.7707 7.0279
30.7021 29.7971 7.318
30.6111 29.8003 7.2563
30.5264 29.8035 7.2
30.4463 29.8067 7.1479
30.3696 29.8099 7.0989
30.2952 29.8131 7.0524
30.2222 29.8165 7.0078
30.5044 29.9677 7.1472
30.4389 29.9574 7.1079
30.3756 29.9475 7.0705
30.3138 29.938 7.0348
30.2532 29.9288 7.0003
30.1931 29.9198 6.9668
30.1332 29.9109 6.934
30.3716 30.0607 7.0438
30.319 30.0439 7.015
30.2672 30.0275 6.9873
30.2161 30.0114 6.9604
30.1654 29.9955 6.9341
30.1147 29.9797 6.9084
30.0639 29.964 6.8829
30.2378 30.1395 6.9473
30.1959 30.1172 6.927
30.1544 30.0953 6.9073
30.1132 30.0735 6.8881
30.072 30.0518 6.8692
30.0307 30.0301 6.8506
29.9892 30.0083 6.8322
29.086 29.3442 6.5478
29.1477 29.3963 6.5622
29.2054 29.445 6.5759
29.2594 29.4908 6.5891
29.3103 29.5339 6.6018
29.3585 29.5748 6.614
29.4043 29.6136 6.626
29.4479 29.6507 6.6376
29.0232 30.3671 6.2917
29.097 30.3079 6.3358
29.1646 30.2538 6.3766
29.2268 30.204 6.4145
29.2845 30.1579 6.45
29.3383 30.115 6.4834
29.3887 30.0748 6.5151
29.4361 30.037 6.5452
29.0002 29.8529 6.3837
29.072 29.8519 6.4162
29.1389 29.8511 6.4467
29.2016 29.8503 6.4754
29.2604 29.8497 6.5027
29.316 29.8491 6.5286
29.3686 29.8485 6.5534
29.4186 29.8481 6.5771
29.4159 29.4654 6.67
29.4389 29.4989 6.6722
29.4613 29.5314 6.6744
29.4831 29.5631 6.6767
29.5043 29.594 6.6791
29.525 29.6242 6.6816
29.5452 29.6537 6.6841
29.565 29.6827 6.6866
29.5845 29.711 6.6893
29.4594 30.4054 6.4884
29.48 30.3522 6.5074
29.4997 30.3014 6.5257
29.5186 30.2528 6.5435
29.5367 30.2062 6.5608
29.5541 30.1613 6.5777
29.571 30.1179 6.5942
29.5873 30.076 6.6104
29.6031 30.0353 6.6264
29.117 30.4644 6.3175
29.1792 30.3954 6.358
29.2363 30.3321 6.3955
29.2891 30.2736 6.4305
29.3382 30.2192 6.4635
29.3841 30.1685 6.4947
29.4273 30.1208 6.5243
29.468 30.0758 6.5526
29.5067 30.0332 6.5798
29.0152 30.0101 6.3567
29.0858 29.9924 6.3921
29.1515 29.9759 6.4254
29.2129 29.9606 6.4567
29.2706 29.9462 6.4863
29.3249 29.9327 6.5145
29.3763 29.9199 6.5414
29.4251 29.9079 6.5671
29.4716 29.8964 6.5917
28.9437 29.5184 6.4378
29.0239 29.5539 6.4649
29.098 29.5868 6.4903
29.1668 29.6174 6.5141
29.2311 29.646 6.5367
29.2913 29.6729 6.5581
29.3481 29.6983 6.5786
29.4018 29.7223 6.5982
29.4527 29.7452 6.6171
29.7186 29.562 6.7945
29.7154 29.5839 6.7871
29.7122 29.6057 6.7798
29.709 29.6275 6.7726
29.7058 29.6492 6.7654
29.7026 29.671 6.7583
29.6993 29.6927 6.7513
29.6961 29.7145 6.7443
29.6929 29.7363 6.7374
29.6897 29.7581 6.7305
30.0189 29.6375 6.9355
29.9943 29.6524 6.9179
29.9696 29.6673 6.9004
29.9447 29.6824 6.8829
29.9197 29.6976 6.8655
29.8944 29.713 6.848
29.8688 29.7286 6.8305
29.8428 29.7444 6.8129
29.8165 29.7605 6.7952
29.7897 29.7769 6.7773
30.3291 29.688 7.1045
30.2805 29.6993 7.0719
30.2325 29.7106 7.0401
30.185 29.7219 7.0091
30.1377 29.7331 6.9787
30.0903 29.7445 6.9486
30.0426 29.756 6.9188
29.9944 29.7677 6.8891
29.9453 29.7796 6.8593
29.8951 29.7919 6.8293
30.658 29.7092 7.3108
30.5724 29.7201 7.2511
30.4922 29.7305 7.1963
30.416 29.7405 7.1452
30.3428 29.7503 7.097
30.2716 29.7599 7.0511
30.2015 29.7696 7.0069
30.1319 29.7793 6.9639
30.0618 29.7893 6.9215
29.9906 29.7995 6.8794
30.4381 30.0161 7.0946
30.3794 30.0024 7.0609
30.3221 29.9891 7.0286
30.2658 29.9762 6.9974
30.2102 29.9635 6.9671
30.1548 29.9509 6.9376
30.0994 29.9385 6.9085
30.0435 29.926 6.8798
29.9868 29.9135 6.8512
29.929 29.9007 6.8225
29.9661 30.2626 6.7709
29.9437 30.2302 6.7645
29.9215 30.198 6.7584
29.8994 30.1661 6.7526
29.8775 30.1344 6.7469
29.8555 30.1028 6.7414
29.8336 30.0712 6.7361
29.8117 30.0396 6.731
29.7896 30.008 6.7261
29.7675 29.9762 6.7213
29.2565 29.4085 6.6096
29.2968 29.4502 6.6173
29.3351 29.49 6.6249
29.3719 29.5281 6.6324
29.4071 29.5647 6.6397
29.4409 29.5999 6.647
29.4736 29.6338 6.6542
29.5051 29.6667 6.6613
29.5357 29.6986 6.6684
29.5653 29.7296 6.6754
29.5942 29.7597 6.6824
30.5704 29.9153 7.2019
30.4974 29.9088 7.1561
30.4276 29.9028 7.1131
30.3601 29.897 7.0724
30.2943 29.8916 7.0334
30.2295 29.8863 6.9958
30.1651 29.8812 6.9591
30.1006 29.8763 6.9232
30.0355 29.8713 6.8875
29.969 29.8664 6.852
29.9007 29.8615 6.8161
30.1027 30.2061 6.8567
30.0706 30.1788 6.8437
30.0388 30.1517 6.831
30.0071 30.1247 6.8187
29.9754 30.0977 6.8065
29.9436 30.0708 6.7946
29.9117 30.0438 6.7829
29.8796 30.0167 6.7713
29.8471 29.9893 6.7599
29.8143 29.9616 6.7486
29.7809 29.9336 6.7373
29.6117 30.3711 6.5686
29.6174 30.3245 6.5794
29.623 30.2794 6.5901
29.6285 30.2356 6.6006
29.6338 30.193 6.611
29.6389 30.1514 6.6214
29.6439 30.1109 6.6316
29.6489 30.0712 6.6419
29.6537 30.0323 6.6521
29.6584 29.994 6.6623
29.6631 29.9564 6.6726
29.0232 30.1767 6.3269
29.0943 30.1405 6.3661
29.1601 30.107 6.4026
29.2214 30.0758 6.4369
29.2786 30.0468 6.4692
29.3323 30.0196 6.4997
29.383 29.9939 6.5288
29.4309 29.9697 6.5566
29.4765 29.9468 6.5832
29.5199 29.9249 6.6088
29.5614 29.904 6.6336
28.8929 29.3121 6.4688
28.9826 29.3727 6.4931
29.0644 29.4281 6.5155
29.1394 29.479 6.5366
29.2087 29.5261 6.5564
29.2732 29.5699 6.5752
29.3335 29.6109 6.5931
29.3901 29.6496 6.6103
29.4437 29.6862 6.6269
29.4944 29.7209 6.6429
29.5429 29.7541 6.6586
28.8977 29.2701 6.4824
28.9872 29.3358 6.505
29.0686 29.3956 6.5261
29.1433 29.4506 6.5458
29.2123 29.5014 6.5644
29.2763 29.5487 6.582
29.3361 29.5929 6.5989
29.3924 29.6345 6.6151
29.4455 29.6739 6.6307
29.4958 29.7113 6.6459
29.5439 29.7471 6.6607
29.5898 29.7813 6.6752
29.868 29.6025 6.8621
29.854 29.6204 6.8499
29.8398 29.6384 6.8378
29.8256 29.6564 6.8257
29.8113 29.6746 6.8136
29.7969 29.6929 6.8015
29.7825 29.7113 6.7894
29.7678 29.7299 6.7773
29.7531 29.7487 6.7651
29.7382 29.7677 6.7529
29.7231 29.787 6.7407
29.7079 29.8064 6.7284
30.4904 29.7023 7.2024
30.4257 29.7131 7.1583
30.3632 29.7236 7.1164
30.3024 29.7339 7.0764
30.2428 29.7441 7.0378
30.1838 29.7543 7.0002
30.125 29.7646 6.9635
30.0659 29.7751 6.9272
30.006 29.7858 6.8912
29.9449 29.7968 6.855
29.8821 29.8082 6.8185
29.8169 29.8202 6.7813
30.3049 30.1017 6.9947
30.2578 30.0821 6.9704
30.2113 30.0629 6.9469
30.1652 30.0439 6.9239
30.1193 30.025 6.9014
30.0733 30.0061 6.8793
30.027 29.9872 6.8574
29.9803 29.9682 6.8357
29.9329 29.949 6.8141
29.8846 29.9295 6.7925
29.8351 29.9096 6.7707
29.7842 29.8891 6.7487
29.2962 30.4362 6.4055
29.3352 30.3756 6.4342
29.3717 30.3188 6.4613
29.4061 30.2653 6.4872
29.4387 30.2148 6.5119
29.4696 30.1668 6.5357
29.499 30.1211 6.5586
29.5272 30.0774 6.5808
29.5543 30.0355 6.6024
29.5803 29.9951 6.6234
29.6055 29.9562 6.644
29.6299 29.9185 6.6641
29.5687 29.5163 6.731
29.5776 29.5433 6.7283
29.5864 29.5699 6.7257
29.595 29.5962 6.7232
29.6035 29.6222 6.7208
29.612 29.6479 6.7185
29.6203 29.6734 6.7163
29.6285 29.6986 6.7142
29.6367 29.7236 6.7122
29.6448 29.7484 6.7103
29.6529 29.7731 6.7085
29.6609 29.7976 6.7067
29.6688 29.822 6.7051
30.1723 29.6662 7.0159
30.1366 29.6789 6.9918
30.1009 29.6917 6.9679
30.0652 29.7045 6.9443
30.0292 29.7174 6.9208
29.993 29.7305 6.8974
29.9564 29.7438 6.874
29.9192 29.7573 6.8505
29.8813 29.7711 6.8269
29.8426 29.7852 6.803
29.803 29.7997 6.7789
29.7623 29.8147 6.7543
29.7202 29.8302 6.7292
29.8273 30.3108 6.6886
29.8151 30.273 6.6888
29.8031 30.2358 6.6892
29.7913 30.1991 6.6897
29.7796 30.1629 6.6904
29.768 30.127 6.6912
29.7565 30.0915 6.6922
29.745 30.0562 6.6934
29.7336 30.0211 6.6947
29.7223 29.9861 6.6961
29.7109 29.9512 6.6977
29.6996 29.9163 6.6995
29.6882 29.8813 6.7014
28.9773 29.6931 6.4101
29.0521 29.7092 6.4399
29.1217 29.7242 6.4678
29.1867 29.7383 6.4942
29.2477 29.7516 6.5192
29.3051 29.7641 6.5429
29.3594 29.776 6.5656
29.411 29.7873 6.5873
29.46 29.7981 6.6083
29.5069 29.8084 6.6285
29.5518 29.8184 6.648
29.595 29.828 6.667
29.6365 29.8372 6.6855
29.6767 29.8462 6.7035
3 399 237 238 0.6627160336610924 0.9098921994602948 0.6403238301995556
3 209 62 63 0.6627160336610924 0.9098921994602948 0.6403238301995556
3 17 18 161 0.6627160336610924 0.9098921994602948 0.6403238301995556
3 176 478 226 0.6627160336610924 0.9098921994602948 0.6403238301995556
3 346 18 19 0.6627160336610924 0.9098921994602948 0.6403238301995556
3 32 33 366 0.6627160336610924 0.9098921994602948 0.6403238301995556
3 241 240 370 0.6627160336610924 0.9098921994602948 0.6403238301995556
3 370 371 241 0.6627160336610924 0.9098921994602948 0.6403238301995556
3 181 399 182 0.6627160336610924 0.9098921994602948 0.6403238301995556
3 398 399 181 0.6627160336610924 0.9098921994602948 0.6403238301995556
3 237 399 398 0.6627160336610924 0.9098921994602948 0.6403238301995556
3 53 265 52 0.6627160336610924 0.9098921994602948 0.6403238301995556
3 53 54 122 0.6627160336610924 0.9098921994602948 0.6403238301995556
3 122 265 53 0.6627160336610924 0.9098921994602948 0.6403238301995556
3 0 2 66 0.6627160336610924 0.9098921994602948 0.6403238301995556
3 2 452 66 0.6627160336610924 0.9098921994602948 0.6403238301995556
3 66 452 64 0.6627160336610924 0.9098921994602948 0.6403238301995556
3 441 63 64 0.6627160336610924 0.9098921994602948 0.6403238301995556
3 64 452 441 0.6627160336610924 0.9098921994602948 0.6403238301995556
3 441 209 63 0.6627160336610924 0.9098921994602948 0.6403238301995556
3 500 47 48 0.6627160336610924 0.9098921994602948 0.6403238301995556
3 48 112 500 0.6627160336610924 0.9098921994602948 0.6403238301995556
3 500 112 113 0.6627160336610924 0.9098921994602948 0.6403238301995556
3 404 364 363 0.6627160336610924 0.9098921994602948 0.6403238301995556
3 487 407 498 0.6627160336610924 0.9098921994602948 0.6403238301995556
3 498 407 497 0.6627160336610924 0.9098921994602948 0.6403238301995556
3 464 465 12 0.6627160336610924 0.9098921994602948 0.6403238301995556
3 12 13 464 0.6627160336610924 0.9098921994602948 0.6403238301995556
3 229 230 223 0.6627160336610924 0.9098921994602948 0.6403238301995556
3 223 68 229 0.6627160336610924 0.9098921994602948 0.6403238301995556
3 155 15 16 0.6627160336610924 0.9098921994602948 0.6403238301995556
3 194 195 412 0.6627160336610924 0.9098921994602948 0.6403238301995556
3 412 411 194 0.6627160336610924 0.9098921994602948 0.6403238301995556
3 194 411 193 0.6627160336610924 0.9098921994602948 0.6403238301995556
3 194 379 195 0.6627160336610924 0.9098921994602948 0.6403238301995556
3 39 191 38 0.6627160336610924 0.9098921994602948 0.6403238301995556
3 97 42 43 0.6627160336610924 0.9098921994602948 0.6403238301995556
3 43 44 419 0.6627160336610924 0.9098921994602948 0.6403238301995556
3 419 97 43 0.6627160336610924 0.9098921994602948 0.6403238301995556
3 420 97 419 0.6627160336610924 0.9098921994602948 0.6403238301995556
3 227 361 177 0.6627160336610924 0.9098921994602948 0.6403238301995556
3 177 479 227 0.6627160336610924 0.9098921994602948 0.6403238301995556
3 19 478 168 0.6627160336610924 0.9098921994602948 0.6403238301995556
3 168 346 19 0.6627160336610924 0.9098921994602948 0.6403238301995556
3 478 176 168 0.6627160336610924 0.9098921994602948 0.6403238301995556
3 367 33 243 0.6627160336610924 0.9098921994602948 0.6403238301995556
3 367 366 33 0.6627160336610924 0.9098921994602948 0.6403238301995556
3 367 368 238 0.6627160336610924 0.9098921994602948 0.6403238301995556
3 238 237 367 0.6627160336610924 0.9098921994602948 0.6403238301995556
3 237 366 367 0.6627160336610924 0.9098921994602948 0.6403238301995556
3 35 489 488 0.6627160336610924 0.9098921994602948 0.6403238301995556
3 490 489 251 0.6627160336610924 0.9098921994602948 0.6403238301995556
3 250 489 35 0.6627160336610924 0.9098921994602948 0.6403238301995556
3 251 489 250 0.6627160336610924 0.9098921994602948 0.6403238301995556
3 35 36 250 0.6627160336610924 0.9098921994602948 0.6403238301995556
3 250 36 251 0.6627160336610924 0.9098921994602948 0.6403238301995556
3 238 368 239 0.6627160336610924 0.9098921994602948 0.6403238301995556
3 246 370 369 0.6627160336610924 0.9098921994602948 0.6403238301995556
3 369 370 240 0.6627160336610924 0.9098921994602948 0.6403238301995556
3 240 239 369 0.6627160336610924 0.9098921994602948 0.6403238301995556
3 369 239 368 0.6627160336610924 0.9098921994602948 0.6403238301995556
3 402 240 241 0.6627160336610924 0.9098921994602948 0.6403238301995556
3 360 176 226 0.6627160336610924 0.9098921994602948 0.6403238301995556
3 227 479 360 0.6627160336610924 0.9098921994602948 0.6403238301995556
3 479 168 360 0.6627160336610924 0.9098921994602948 0.6403238301995556
3 360 168 176 0.6627160336610924 0.9098921994602948 0.6403238301995556
3 234 183 184 0.6627160336610924 0.9098921994602948 0.6403238301995556
3 234 361 227 0.6627160336610924 0.9098921994602948 0.6403238301995556
3 181 182 232 0.6627160336610924 0.9098921994602948 0.6403238301995556
3 232 217 181 0.6627160336610924 0.9098921994602948 0.6403238301995556
3 183 182 400 0.6627160336610924 0.9098921994602948 0.6403238301995556
3 238 239 400 0.6627160336610924 0.9098921994602948 0.6403238301995556
3 400 399 238 0.6627160336610924 0.9098921994602948 0.6403238301995556
3 400 182 399 0.6627160336610924 0.9098921994602948 0.6403238301995556
3 237 398 236 0.6627160336610924 0.9098921994602948 0.6403238301995556
3 32 366 236 0.6627160336610924 0.9098921994602948 0.6403238301995556
3 236 366 237 0.6627160336610924 0.9098921994602948 0.6403238301995556
3 236 31 32 0.6627160336610924 0.9098921994602948 0.6403238301995556
3 22 23 222 0.6627160336610924 0.9098921994602948 0.6403238301995556
3 25 23 26 0.6627160336610924 0.9098921994602948 0.6403238301995556
3 25 222 23 0.6627160336610924 0.9098921994602948 0.6403238301995556
3 229 68 24 0.6627160336610924 0.9098921994602948 0.6403238301995556
3 24 29 229 0.6627160336610924 0.9098921994602948 0.6403238301995556
3 68 222 24 0.6627160336610924 0.9098921994602948 0.6403238301995556
3 222 25 24 0.6627160336610924 0.9098921994602948 0.6403238301995556
3 3 4 257 0.6627160336610924 0.9098921994602948 0.6403238301995556
3 3 257 78 0.6627160336610924 0.9098921994602948 0.6403238301995556
3 209 441 442 0.6627160336610924 0.9098921994602948 0.6403238301995556
3 442 210 209 0.6627160336610924 0.9098921994602948 0.6403238301995556
3 443 210 442 0.6627160336610924 0.9098921994602948 0.6403238301995556
3 77 441 452 0.6627160336610924 0.9098921994602948 0.6403238301995556
3 77 2 3 0.6627160336610924 0.9098921994602948 0.6403238301995556
3 77 452 2 0.6627160336610924 0.9098921994602948 0.6403238301995556
3 3 78 77 0.6627160336610924 0.9098921994602948 0.6403238301995556
3 69 57 58 0.6627160336610924 0.9098921994602948 0.6403238301995556
3 58 59 73 0.6627160336610924 0.9098921994602948 0.6403238301995556
3 106 422 105 0.6627160336610924 0.9098921994602948 0.6403238301995556
3 310 311 130 0.6627160336610924 0.9098921994602948 0.6403238301995556
3 272 307 306 0.6627160336610924 0.9098921994602948 0.6403238301995556
3 437 307 272 0.6627160336610924 0.9098921994602948 0.6403238301995556
3 511 429 510 0.6627160336610924 0.9098921994602948 0.6403238301995556
3 549 429 511 0.6627160336610924 0.9098921994602948 0.6403238301995556
3 560 561 440 0.6627160336610924 0.9098921994602948 0.6403238301995556
3 440 511 510 0.6627160336610924 0.9098921994602948 0.6403238301995556
3 45 290 102 0.6627160336610924 0.9098921994602948 0.6403238301995556
3 102 44 45 0.6627160336610924 0.9098921994602948 0.6403238301995556
3 102 419 44 0.6627160336610924 0.9098921994602948 0.6403238301995556
3 46 290 45 0.6627160336610924 0.9098921994602948 0.6403238301995556
3 266 265 122 0.6627160336610924 0.9098921994602948 0.6403238301995556
3 119 266 267 0.6627160336610924 0.9098921994602948 0.6403238301995556
3 127 55 56 0.6627160336610924 0.9098921994602948 0.6403238301995556
3 113 112 300 0.6627160336610924 0.9098921994602948 0.6403238301995556
3 301 114 113 0.6627160336610924 0.9098921994602948 0.6403238301995556
3 301 300 119 0.6627160336610924 0.9098921994602948 0.6403238301995556
3 113 300 301 0.6627160336610924 0.9098921994602948 0.6403238301995556
3 501 114 502 0.6627160336610924 0.9098921994602948 0.6403238301995556
3 113 114 501 0.6627160336610924 0.9098921994602948 0.6403238301995556
3 501 500 113 0.6627160336610924 0.9098921994602948 0.6403238301995556
3 403 404 363 0.6627160336610924 0.9098921994602948 0.6403238301995556
3 403 402 241 0.6627160336610924 0.9098921994602948 0.6403238301995556
3 364 404 405 0.6627160336610924 0.9098921994602948 0.6403238301995556
3 405 406 365 0.6627160336610924 0.9098921994602948 0.6403238301995556
3 374 406 405 0.6627160336610924 0.9098921994602948 0.6403238301995556
3 17 161 162 0.6627160336610924 0.9098921994602948 0.6403238301995556
3 184 402 235 0.6627160336610924 0.9098921994602948 0.6403238301995556
3 235 403 363 0.6627160336610924 0.9098921994602948 0.6403238301995556
3 402 403 235 0.6627160336610924 0.9098921994602948 0.6403238301995556
3 235 234 184 0.6627160336610924 0.9098921994602948 0.6403238301995556
3 365 406 485 0.6627160336610924 0.9098921994602948 0.6403238301995556
3 485 406 407 0.6627160336610924 0.9098921994602948 0.6403238301995556
3 562 440 561 0.6627160336610924 0.9098921994602948 0.6403238301995556
3 511 440 562 0.6627160336610924 0.9098921994602948 0.6403238301995556
3 475 537 564 0.6627160336610924 0.9098921994602948 0.6403238301995556
3 253 187 188 0.6627160336610924 0.9098921994602948 0.6403238301995556
3 499 487 498 0.6627160336610924 0.9098921994602948 0.6403238301995556
3 375 406 374 0.6627160336610924 0.9098921994602948 0.6403238301995556
3 407 406 375 0.6627160336610924 0.9098921994602948 0.6403238301995556
3 375 497 407 0.6627160336610924 0.9098921994602948 0.6403238301995556
3 19 20 167 0.6627160336610924 0.9098921994602948 0.6403238301995556
3 20 477 167 0.6627160336610924 0.9098921994602948 0.6403238301995556
3 167 478 19 0.6627160336610924 0.9098921994602948 0.6403238301995556
3 226 478 167 0.6627160336610924 0.9098921994602948 0.6403238301995556
3 173 21 22 0.6627160336610924 0.9098921994602948 0.6403238301995556
3 22 223 173 0.6627160336610924 0.9098921994602948 0.6403238301995556
3 180 217 230 0.6627160336610924 0.9098921994602948 0.6403238301995556
3 180 398 181 0.6627160336610924 0.9098921994602948 0.6403238301995556
3 181 217 180 0.6627160336610924 0.9098921994602948 0.6403238301995556
3 356 223 22 0.6627160336610924 0.9098921994602948 0.6403238301995556
3 68 223 356 0.6627160336610924 0.9098921994602948 0.6403238301995556
3 22 222 356 0.6627160336610924 0.9098921994602948 0.6403238301995556
3 356 222 68 0.6627160336610924 0.9098921994602948 0.6403238301995556
3 15 155 156 0.6627160336610924 0.9098921994602948 0.6403238301995556
3 528 157 156 0.6627160336610924 0.9098921994602948 0.6403238301995556
3 14 15 336 0.6627160336610924 0.9098921994602948 0.6403238301995556
3 15 156 336 0.6627160336610924 0.9098921994602948 0.6403238301995556
3 336 156 157 0.6627160336610924 0.9098921994602948 0.6403238301995556
3 200 379 199 0.6627160336610924 0.9098921994602948 0.6403238301995556
3 200 541 201 0.6627160336610924 0.9098921994602948 0.6403238301995556
3 195 379 380 0.6627160336610924 0.9098921994602948 0.6403238301995556
3 380 379 200 0.6627160336610924 0.9098921994602948 0.6403238301995556
3 200 201 380 0.6627160336610924 0.9098921994602948 0.6403238301995556
3 41 197 40 0.6627160336610924 0.9098921994602948 0.6403238301995556
3 193 411 410 0.6627160336610924 0.9098921994602948 0.6403238301995556
3 410 411 188 0.6627160336610924 0.9098921994602948 0.6403238301995556
3 188 187 410 0.6627160336610924 0.9098921994602948 0.6403238301995556
3 410 187 409 0.6627160336610924 0.9098921994602948 0.6403238301995556
3 409 187 186 0.6627160336610924 0.9098921994602948 0.6403238301995556
3 424 296 425 0.6627160336610924 0.9098921994602948 0.6403238301995556
3 424 425 101 0.6627160336610924 0.9098921994602948 0.6403238301995556
3 542 541 207 0.6627160336610924 0.9098921994602948 0.6403238301995556
3 542 201 541 0.6627160336610924 0.9098921994602948 0.6403238301995556
3 347 161 18 0.6627160336610924 0.9098921994602948 0.6403238301995556
3 18 346 347 0.6627160336610924 0.9098921994602948 0.6403238301995556
3 35 488 34 0.6627160336610924 0.9098921994602948 0.6403238301995556
3 243 33 34 0.6627160336610924 0.9098921994602948 0.6403238301995556
3 244 488 489 0.6627160336610924 0.9098921994602948 0.6403238301995556
3 244 367 243 0.6627160336610924 0.9098921994602948 0.6403238301995556
3 368 367 244 0.6627160336610924 0.9098921994602948 0.6403238301995556
3 243 34 244 0.6627160336610924 0.9098921994602948 0.6403238301995556
3 244 34 488 0.6627160336610924 0.9098921994602948 0.6403238301995556
3 184 183 401 0.6627160336610924 0.9098921994602948 0.6403238301995556
3 401 239 240 0.6627160336610924 0.9098921994602948 0.6403238301995556
3 183 400 401 0.6627160336610924 0.9098921994602948 0.6403238301995556
3 401 400 239 0.6627160336610924 0.9098921994602948 0.6403238301995556
3 240 402 401 0.6627160336610924 0.9098921994602948 0.6403238301995556
3 401 402 184 0.6627160336610924 0.9098921994602948 0.6403238301995556
3 246 369 245 0.6627160336610924 0.9098921994602948 0.6403238301995556
3 245 490 246 0.6627160336610924 0.9098921994602948 0.6403238301995556
3 489 490 245 0.6627160336610924 0.9098921994602948 0.6403238301995556
3 245 244 489 0.6627160336610924 0.9098921994602948 0.6403238301995556
3 245 369 368 0.6627160336610924 0.9098921994602948 0.6403238301995556
3 368 244 245 0.6627160336610924 0.9098921994602948 0.6403238301995556
3 219 182 183 0.6627160336610924 0.9098921994602948 0.6403238301995556
3 227 360 219 0.6627160336610924 0.9098921994602948 0.6403238301995556
3 219 360 226 0.6627160336610924 0.9098921994602948 0.6403238301995556
3 219 234 227 0.6627160336610924 0.9098921994602948 0.6403238301995556
3 183 234 219 0.6627160336610924 0.9098921994602948 0.6403238301995556
3 226 232 219 0.6627160336610924 0.9098921994602948 0.6403238301995556
3 219 232 182 0.6627160336610924 0.9098921994602948 0.6403238301995556
3 82 4 5 0.6627160336610924 0.9098921994602948 0.6403238301995556
3 443 442 454 0.6627160336610924 0.9098921994602948 0.6403238301995556
3 454 442 78 0.6627160336610924 0.9098921994602948 0.6403238301995556
3 454 79 443 0.6627160336610924 0.9098921994602948 0.6403238301995556
3 453 442 441 0.6627160336610924 0.9098921994602948 0.6403238301995556
3 441 77 453 0.6627160336610924 0.9098921994602948 0.6403238301995556
3 78 442 453 0.6627160336610924 0.9098921994602948 0.6403238301995556
3 453 77 78 0.6627160336610924 0.9098921994602948 0.6403238301995556
3 421 105 422 0.6627160336610924 0.9098921994602948 0.6403238301995556
3 106 424 423 0.6627160336610924 0.9098921994602948 0.6403238301995556
3 423 422 106 0.6627160336610924 0.9098921994602948 0.6403238301995556
3 424 101 423 0.6627160336610924 0.9098921994602948 0.6403238301995556
3 100 422 423 0.6627160336610924 0.9098921994602948 0.6403238301995556
3 423 101 100 0.6627160336610924 0.9098921994602948 0.6403238301995556
3 504 505 111 0.6627160336610924 0.9098921994602948 0.6403238301995556
3 426 298 427 0.6627160336610924 0.9098921994602948 0.6403238301995556
3 305 306 506 0.6627160336610924 0.9098921994602948 0.6403238301995556
3 506 505 305 0.6627160336610924 0.9098921994602948 0.6403238301995556
3 309 310 129 0.6627160336610924 0.9098921994602948 0.6403238301995556
3 129 310 130 0.6627160336610924 0.9098921994602948 0.6403238301995556
3 70 309 69 0.6627160336610924 0.9098921994602948 0.6403238301995556
3 70 310 309 0.6627160336610924 0.9098921994602948 0.6403238301995556
3 313 277 278 0.6627160336610924 0.9098921994602948 0.6403238301995556
3 278 314 313 0.6627160336610924 0.9098921994602948 0.6403238301995556
3 279 314 278 0.6627160336610924 0.9098921994602948 0.6403238301995556
3 279 280 315 0.6627160336610924 0.9098921994602948 0.6403238301995556
3 315 314 279 0.6627160336610924 0.9098921994602948 0.6403238301995556
3 315 280 316 0.6627160336610924 0.9098921994602948 0.6403238301995556
3 437 314 315 0.6627160336610924 0.9098921994602948 0.6403238301995556
3 509 440 510 0.6627160336610924 0.9098921994602948 0.6403238301995556
3 296 506 507 0.6627160336610924 0.9098921994602948 0.6403238301995556
3 306 307 507 0.6627160336610924 0.9098921994602948 0.6403238301995556
3 507 506 306 0.6627160336610924 0.9098921994602948 0.6403238301995556
3 269 303 121 0.6627160336610924 0.9098921994602948 0.6403238301995556
3 313 435 131 0.6627160336610924 0.9098921994602948 0.6403238301995556
3 435 434 131 0.6627160336610924 0.9098921994602948 0.6403238301995556
3 130 311 131 0.6627160336610924 0.9098921994602948 0.6403238301995556
3 131 434 130 0.6627160336610924 0.9098921994602948 0.6403238301995556
3 437 272 436 0.6627160336610924 0.9098921994602948 0.6403238301995556
3 436 314 437 0.6627160336610924 0.9098921994602948 0.6403238301995556
3 436 435 313 0.6627160336610924 0.9098921994602948 0.6403238301995556
3 313 314 436 0.6627160336610924 0.9098921994602948 0.6403238301995556
3 271 306 305 0.6627160336610924 0.9098921994602948 0.6403238301995556
3 271 272 306 0.6627160336610924 0.9098921994602948 0.6403238301995556
3 435 436 271 0.6627160336610924 0.9098921994602948 0.6403238301995556
3 271 436 272 0.6627160336610924 0.9098921994602948 0.6403238301995556
3 87 6 7 0.6627160336610924 0.9098921994602948 0.6403238301995556
3 549 511 550 0.6627160336610924 0.9098921994602948 0.6403238301995556
3 564 537 550 0.6627160336610924 0.9098921994602948 0.6403238301995556
3 550 499 549 0.6627160336610924 0.9098921994602948 0.6403238301995556
3 537 499 550 0.6627160336610924 0.9098921994602948 0.6403238301995556
3 316 560 439 0.6627160336610924 0.9098921994602948 0.6403238301995556
3 560 440 439 0.6627160336610924 0.9098921994602948 0.6403238301995556
3 439 509 307 0.6627160336610924 0.9098921994602948 0.6403238301995556
3 440 509 439 0.6627160336610924 0.9098921994602948 0.6403238301995556
3 558 280 279 0.6627160336610924 0.9098921994602948 0.6403238301995556
3 503 109 502 0.6627160336610924 0.9098921994602948 0.6403238301995556
3 292 109 110 0.6627160336610924 0.9098921994602948 0.6403238301995556
3 504 111 110 0.6627160336610924 0.9098921994602948 0.6403238301995556
3 110 503 504 0.6627160336610924 0.9098921994602948 0.6403238301995556
3 109 503 110 0.6627160336610924 0.9098921994602948 0.6403238301995556
3 502 109 108 0.6627160336610924 0.9098921994602948 0.6403238301995556
3 108 501 502 0.6627160336610924 0.9098921994602948 0.6403238301995556
3 291 109 292 0.6627160336610924 0.9098921994602948 0.6403238301995556
3 291 102 290 0.6627160336610924 0.9098921994602948 0.6403238301995556
3 290 108 291 0.6627160336610924 0.9098921994602948 0.6403238301995556
3 291 108 109 0.6627160336610924 0.9098921994602948 0.6403238301995556
3 121 303 302 0.6627160336610924 0.9098921994602948 0.6403238301995556
3 114 301 302 0.6627160336610924 0.9098921994602948 0.6403238301995556
3 305 505 304 0.6627160336610924 0.9098921994602948 0.6403238301995556
3 304 505 504 0.6627160336610924 0.9098921994602948 0.6403238301995556
3 304 271 305 0.6627160336610924 0.9098921994602948 0.6403238301995556
3 420 419 103 0.6627160336610924 0.9098921994602948 0.6403238301995556
3 419 102 103 0.6627160336610924 0.9098921994602948 0.6403238301995556
3 103 291 292 0.6627160336610924 0.9098921994602948 0.6403238301995556
3 102 291 103 0.6627160336610924 0.9098921994602948 0.6403238301995556
3 69 309 308 0.6627160336610924 0.9098921994602948 0.6403238301995556
3 308 127 56 0.6627160336610924 0.9098921994602948 0.6403238301995556
3 56 57 308 0.6627160336610924 0.9098921994602948 0.6403238301995556
3 308 57 69 0.6627160336610924 0.9098921994602948 0.6403238301995556
3 123 266 122 0.6627160336610924 0.9098921994602948 0.6403238301995556
3 123 267 266 0.6627160336610924 0.9098921994602948 0.6403238301995556
3 51 52 117 0.6627160336610924 0.9098921994602948 0.6403238301995556
3 117 50 51 0.6627160336610924 0.9098921994602948 0.6403238301995556
3 52 265 117 0.6627160336610924 0.9098921994602948 0.6403238301995556
3 363 364 483 0.6627160336610924 0.9098921994602948 0.6403238301995556
3 529 157 528 0.6627160336610924 0.9098921994602948 0.6403238301995556
3 528 166 529 0.6627160336610924 0.9098921994602948 0.6403238301995556
3 529 158 157 0.6627160336610924 0.9098921994602948 0.6403238301995556
3 529 166 530 0.6627160336610924 0.9098921994602948 0.6403238301995556
3 530 158 529 0.6627160336610924 0.9098921994602948 0.6403238301995556
3 484 405 365 0.6627160336610924 0.9098921994602948 0.6403238301995556
3 364 405 484 0.6627160336610924 0.9098921994602948 0.6403238301995556
3 404 403 242 0.6627160336610924 0.9098921994602948 0.6403238301995556
3 371 372 242 0.6627160336610924 0.9098921994602948 0.6403238301995556
3 242 372 404 0.6627160336610924 0.9098921994602948 0.6403238301995556
3 241 371 242 0.6627160336610924 0.9098921994602948 0.6403238301995556
3 242 403 241 0.6627160336610924 0.9098921994602948 0.6403238301995556
3 525 16 17 0.6627160336610924 0.9098921994602948 0.6403238301995556
3 17 162 525 0.6627160336610924 0.9098921994602948 0.6403238301995556
3 170 177 361 0.6627160336610924 0.9098921994602948 0.6403238301995556
3 170 347 177 0.6627160336610924 0.9098921994602948 0.6403238301995556
3 362 235 363 0.6627160336610924 0.9098921994602948 0.6403238301995556
3 365 485 354 0.6627160336610924 0.9098921994602948 0.6403238301995556
3 342 153 341 0.6627160336610924 0.9098921994602948 0.6403238301995556
3 149 13 14 0.6627160336610924 0.9098921994602948 0.6403238301995556
3 530 531 159 0.6627160336610924 0.9098921994602948 0.6403238301995556
3 159 158 530 0.6627160336610924 0.9098921994602948 0.6403238301995556
3 465 464 151 0.6627160336610924 0.9098921994602948 0.6403238301995556
3 332 148 333 0.6627160336610924 0.9098921994602948 0.6403238301995556
3 524 475 564 0.6627160336610924 0.9098921994602948 0.6403238301995556
3 471 344 345 0.6627160336610924 0.9098921994602948 0.6403238301995556
3 12 465 143 0.6627160336610924 0.9098921994602948 0.6403238301995556
3 471 148 470 0.6627160336610924 0.9098921994602948 0.6403238301995556
3 148 469 470 0.6627160336610924 0.9098921994602948 0.6403238301995556
3 470 344 471 0.6627160336610924 0.9098921994602948 0.6403238301995556
3 326 143 144 0.6627160336610924 0.9098921994602948 0.6403238301995556
3 8 9 92 0.6627160336610924 0.9098921994602948 0.6403238301995556
3 9 93 92 0.6627160336610924 0.9098921994602948 0.6403238301995556
3 92 282 8 0.6627160336610924 0.9098921994602948 0.6403238301995556
3 137 513 10 0.6627160336610924 0.9098921994602948 0.6403238301995556
3 512 9 10 0.6627160336610924 0.9098921994602948 0.6403238301995556
3 10 513 512 0.6627160336610924 0.9098921994602948 0.6403238301995556
3 512 93 9 0.6627160336610924 0.9098921994602948 0.6403238301995556
3 284 93 94 0.6627160336610924 0.9098921994602948 0.6403238301995556
3 93 512 94 0.6627160336610924 0.9098921994602948 0.6403238301995556
3 94 512 513 0.6627160336610924 0.9098921994602948 0.6403238301995556
3 255 190 256 0.6627160336610924 0.9098921994602948 0.6403238301995556
3 189 411 412 0.6627160336610924 0.9098921994602948 0.6403238301995556
3 412 190 189 0.6627160336610924 0.9098921994602948 0.6403238301995556
3 188 411 189 0.6627160336610924 0.9098921994602948 0.6403238301995556
3 189 190 255 0.6627160336610924 0.9098921994602948 0.6403238301995556
3 414 256 190 0.6627160336610924 0.9098921994602948 0.6403238301995556
3 246 490 491 0.6627160336610924 0.9098921994602948 0.6403238301995556
3 536 499 537 0.6627160336610924 0.9098921994602948 0.6403238301995556
3 487 499 536 0.6627160336610924 0.9098921994602948 0.6403238301995556
3 549 499 418 0.6627160336610924 0.9098921994602948 0.6403238301995556
3 418 499 498 0.6627160336610924 0.9098921994602948 0.6403238301995556
3 154 153 342 0.6627160336610924 0.9098921994602948 0.6403238301995556
3 407 487 486 0.6627160336610924 0.9098921994602948 0.6403238301995556
3 487 534 486 0.6627160336610924 0.9098921994602948 0.6403238301995556
3 343 534 344 0.6627160336610924 0.9098921994602948 0.6403238301995556
3 343 154 342 0.6627160336610924 0.9098921994602948 0.6403238301995556
3 469 154 343 0.6627160336610924 0.9098921994602948 0.6403238301995556
3 343 470 469 0.6627160336610924 0.9098921994602948 0.6403238301995556
3 344 470 343 0.6627160336610924 0.9098921994602948 0.6403238301995556
3 476 20 21 0.6627160336610924 0.9098921994602948 0.6403238301995556
3 21 174 476 0.6627160336610924 0.9098921994602948 0.6403238301995556
3 217 232 225 0.6627160336610924 0.9098921994602948 0.6403238301995556
3 20 476 225 0.6627160336610924 0.9098921994602948 0.6403238301995556
3 225 477 20 0.6627160336610924 0.9098921994602948 0.6403238301995556
3 225 175 477 0.6627160336610924 0.9098921994602948 0.6403238301995556
3 230 217 224 0.6627160336610924 0.9098921994602948 0.6403238301995556
3 224 174 21 0.6627160336610924 0.9098921994602948 0.6403238301995556
3 179 180 230 0.6627160336610924 0.9098921994602948 0.6403238301995556
3 179 29 30 0.6627160336610924 0.9098921994602948 0.6403238301995556
3 179 230 229 0.6627160336610924 0.9098921994602948 0.6403238301995556
3 229 29 179 0.6627160336610924 0.9098921994602948 0.6403238301995556
3 30 31 397 0.6627160336610924 0.9098921994602948 0.6403238301995556
3 397 179 30 0.6627160336610924 0.9098921994602948 0.6403238301995556
3 180 179 397 0.6627160336610924 0.9098921994602948 0.6403238301995556
3 398 180 397 0.6627160336610924 0.9098921994602948 0.6403238301995556
3 31 236 397 0.6627160336610924 0.9098921994602948 0.6403238301995556
3 397 236 398 0.6627160336610924 0.9098921994602948 0.6403238301995556
3 528 156 527 0.6627160336610924 0.9098921994602948 0.6403238301995556
3 527 156 155 0.6627160336610924 0.9098921994602948 0.6403238301995556
3 197 377 376 0.6627160336610924 0.9098921994602948 0.6403238301995556
3 376 40 197 0.6627160336610924 0.9098921994602948 0.6403238301995556
3 39 40 376 0.6627160336610924 0.9098921994602948 0.6403238301995556
3 191 39 376 0.6627160336610924 0.9098921994602948 0.6403238301995556
3 198 377 197 0.6627160336610924 0.9098921994602948 0.6403238301995556
3 378 199 379 0.6627160336610924 0.9098921994602948 0.6403238301995556
3 379 194 378 0.6627160336610924 0.9098921994602948 0.6403238301995556
3 378 198 199 0.6627160336610924 0.9098921994602948 0.6403238301995556
3 377 198 378 0.6627160336610924 0.9098921994602948 0.6403238301995556
3 378 194 193 0.6627160336610924 0.9098921994602948 0.6403238301995556
3 193 377 378 0.6627160336610924 0.9098921994602948 0.6403238301995556
3 409 186 408 0.6627160336610924 0.9098921994602948 0.6403238301995556
3 408 37 38 0.6627160336610924 0.9098921994602948 0.6403238301995556
3 38 191 408 0.6627160336610924 0.9098921994602948 0.6403238301995556
3 191 409 408 0.6627160336610924 0.9098921994602948 0.6403238301995556
3 185 36 37 0.6627160336610924 0.9098921994602948 0.6403238301995556
3 37 408 185 0.6627160336610924 0.9098921994602948 0.6403238301995556
3 185 408 186 0.6627160336610924 0.9098921994602948 0.6403238301995556
3 251 36 185 0.6627160336610924 0.9098921994602948 0.6403238301995556
3 185 186 251 0.6627160336610924 0.9098921994602948 0.6403238301995556
3 187 253 252 0.6627160336610924 0.9098921994602948 0.6403238301995556
3 252 186 187 0.6627160336610924 0.9098921994602948 0.6403238301995556
3 251 186 252 0.6627160336610924 0.9098921994602948 0.6403238301995556
3 253 491 252 0.6627160336610924 0.9098921994602948 0.6403238301995556
3 252 490 251 0.6627160336610924 0.9098921994602948 0.6403238301995556
3 252 491 490 0.6627160336610924 0.9098921994602948 0.6403238301995556
3 208 542 207 0.6627160336610924 0.9098921994602948 0.6403238301995556
3 207 101 208 0.6627160336610924 0.9098921994602948 0.6403238301995556
3 208 101 425 0.6627160336610924 0.9098921994602948 0.6403238301995556
3 208 425 426 0.6627160336610924 0.9098921994602948 0.6403238301995556
3 207 541 206 0.6627160336610924 0.9098921994602948 0.6403238301995556
3 206 205 100 0.6627160336610924 0.9098921994602948 0.6403238301995556
3 100 101 206 0.6627160336610924 0.9098921994602948 0.6403238301995556
3 206 101 207 0.6627160336610924 0.9098921994602948 0.6403238301995556
3 98 97 420 0.6627160336610924 0.9098921994602948 0.6403238301995556
3 420 421 98 0.6627160336610924 0.9098921994602948 0.6403238301995556
3 538 197 41 0.6627160336610924 0.9098921994602948 0.6403238301995556
3 538 198 197 0.6627160336610924 0.9098921994602948 0.6403238301995556
3 201 542 202 0.6627160336610924 0.9098921994602948 0.6403238301995556
3 479 177 169 0.6627160336610924 0.9098921994602948 0.6403238301995556
3 177 347 169 0.6627160336610924 0.9098921994602948 0.6403238301995556
3 169 347 346 0.6627160336610924 0.9098921994602948 0.6403238301995556
3 169 168 479 0.6627160336610924 0.9098921994602948 0.6403238301995556
3 346 168 169 0.6627160336610924 0.9098921994602948 0.6403238301995556
3 359 167 477 0.6627160336610924 0.9098921994602948 0.6403238301995556
3 477 175 359 0.6627160336610924 0.9098921994602948 0.6403238301995556
3 226 167 359 0.6627160336610924 0.9098921994602948 0.6403238301995556
3 359 232 226 0.6627160336610924 0.9098921994602948 0.6403238301995556
3 359 225 232 0.6627160336610924 0.9098921994602948 0.6403238301995556
3 175 225 359 0.6627160336610924 0.9098921994602948 0.6403238301995556
3 4 82 258 0.6627160336610924 0.9098921994602948 0.6403238301995556
3 258 257 4 0.6627160336610924 0.9098921994602948 0.6403238301995556
3 258 78 257 0.6627160336610924 0.9098921994602948 0.6403238301995556
3 258 454 78 0.6627160336610924 0.9098921994602948 0.6403238301995556
3 79 454 258 0.6627160336610924 0.9098921994602948 0.6403238301995556
3 292 110 293 0.6627160336610924 0.9098921994602948 0.6403238301995556
3 293 110 111 0.6627160336610924 0.9098921994602948 0.6403238301995556
3 385 547 548 0.6627160336610924 0.9098921994602948 0.6403238301995556
3 549 418 548 0.6627160336610924 0.9098921994602948 0.6403238301995556
3 548 418 385 0.6627160336610924 0.9098921994602948 0.6403238301995556
3 548 429 549 0.6627160336610924 0.9098921994602948 0.6403238301995556
3 548 547 429 0.6627160336610924 0.9098921994602948 0.6403238301995556
3 429 547 428 0.6627160336610924 0.9098921994602948 0.6403238301995556
3 510 429 428 0.6627160336610924 0.9098921994602948 0.6403238301995556
3 428 427 298 0.6627160336610924 0.9098921994602948 0.6403238301995556
3 428 509 510 0.6627160336610924 0.9098921994602948 0.6403238301995556
3 298 509 428 0.6627160336610924 0.9098921994602948 0.6403238301995556
3 426 427 545 0.6627160336610924 0.9098921994602948 0.6403238301995556
3 545 208 426 0.6627160336610924 0.9098921994602948 0.6403238301995556
3 544 208 545 0.6627160336610924 0.9098921994602948 0.6403238301995556
3 294 293 111 0.6627160336610924 0.9098921994602948 0.6403238301995556
3 294 111 505 0.6627160336610924 0.9098921994602948 0.6403238301995556
3 106 105 294 0.6627160336610924 0.9098921994602948 0.6403238301995556
3 105 293 294 0.6627160336610924 0.9098921994602948 0.6403238301995556
3 309 129 128 0.6627160336610924 0.9098921994602948 0.6403238301995556
3 128 308 309 0.6627160336610924 0.9098921994602948 0.6403238301995556
3 127 308 128 0.6627160336610924 0.9098921994602948 0.6403238301995556
3 128 129 432 0.6627160336610924 0.9098921994602948 0.6403238301995556
3 273 70 69 0.6627160336610924 0.9098921994602948 0.6403238301995556
3 273 58 73 0.6627160336610924 0.9098921994602948 0.6403238301995556
3 69 58 273 0.6627160336610924 0.9098921994602948 0.6403238301995556
3 311 310 71 0.6627160336610924 0.9098921994602948 0.6403238301995556
3 310 70 71 0.6627160336610924 0.9098921994602948 0.6403238301995556
3 296 507 297 0.6627160336610924 0.9098921994602948 0.6403238301995556
3 297 425 296 0.6627160336610924 0.9098921994602948 0.6403238301995556
3 297 298 426 0.6627160336610924 0.9098921994602948 0.6403238301995556
3 426 425 297 0.6627160336610924 0.9098921994602948 0.6403238301995556
3 130 434 433 0.6627160336610924 0.9098921994602948 0.6403238301995556
3 433 129 130 0.6627160336610924 0.9098921994602948 0.6403238301995556
3 432 129 433 0.6627160336610924 0.9098921994602948 0.6403238301995556
3 268 269 121 0.6627160336610924 0.9098921994602948 0.6403238301995556
3 313 131 312 0.6627160336610924 0.9098921994602948 0.6403238301995556
3 312 131 311 0.6627160336610924 0.9098921994602948 0.6403238301995556
3 312 277 313 0.6627160336610924 0.9098921994602948 0.6403238301995556
3 8 282 281 0.6627160336610924 0.9098921994602948 0.6403238301995556
3 281 7 8 0.6627160336610924 0.9098921994602948 0.6403238301995556
3 316 439 438 0.6627160336610924 0.9098921994602948 0.6403238301995556
3 438 315 316 0.6627160336610924 0.9098921994602948 0.6403238301995556
3 437 315 438 0.6627160336610924 0.9098921994602948 0.6403238301995556
3 438 307 437 0.6627160336610924 0.9098921994602948 0.6403238301995556
3 438 439 307 0.6627160336610924 0.9098921994602948 0.6403238301995556
3 459 263 264 0.6627160336610924 0.9098921994602948 0.6403238301995556
3 264 448 459 0.6627160336610924 0.9098921994602948 0.6403238301995556
3 463 562 561 0.6627160336610924 0.9098921994602948 0.6403238301995556
3 560 450 451 0.6627160336610924 0.9098921994602948 0.6403238301995556
3 451 561 560 0.6627160336610924 0.9098921994602948 0.6403238301995556
3 451 463 561 0.6627160336610924 0.9098921994602948 0.6403238301995556
3 392 286 393 0.6627160336610924 0.9098921994602948 0.6403238301995556
3 393 264 392 0.6627160336610924 0.9098921994602948 0.6403238301995556
3 324 448 449 0.6627160336610924 0.9098921994602948 0.6403238301995556
3 323 448 324 0.6627160336610924 0.9098921994602948 0.6403238301995556
3 325 450 560 0.6627160336610924 0.9098921994602948 0.6403238301995556
3 558 324 325 0.6627160336610924 0.9098921994602948 0.6403238301995556
3 449 450 325 0.6627160336610924 0.9098921994602948 0.6403238301995556
3 325 324 449 0.6627160336610924 0.9098921994602948 0.6403238301995556
3 323 324 557 0.6627160336610924 0.9098921994602948 0.6403238301995556
3 557 324 558 0.6627160336610924 0.9098921994602948 0.6403238301995556
3 279 278 557 0.6627160336610924 0.9098921994602948 0.6403238301995556
3 557 558 279 0.6627160336610924 0.9098921994602948 0.6403238301995556
3 115 503 502 0.6627160336610924 0.9098921994602948 0.6403238301995556
3 115 302 303 0.6627160336610924 0.9098921994602948 0.6403238301995556
3 502 114 115 0.6627160336610924 0.9098921994602948 0.6403238301995556
3 114 302 115 0.6627160336610924 0.9098921994602948 0.6403238301995556
3 501 108 107 0.6627160336610924 0.9098921994602948 0.6403238301995556
3 107 46 47 0.6627160336610924 0.9098921994602948 0.6403238301995556
3 290 46 107 0.6627160336610924 0.9098921994602948 0.6403238301995556
3 107 108 290 0.6627160336610924 0.9098921994602948 0.6403238301995556
3 47 500 107 0.6627160336610924 0.9098921994602948 0.6403238301995556
3 500 501 107 0.6627160336610924 0.9098921994602948 0.6403238301995556
3 303 304 116 0.6627160336610924 0.9098921994602948 0.6403238301995556
3 116 115 303 0.6627160336610924 0.9098921994602948 0.6403238301995556
3 503 115 116 0.6627160336610924 0.9098921994602948 0.6403238301995556
3 504 503 116 0.6627160336610924 0.9098921994602948 0.6403238301995556
3 116 304 504 0.6627160336610924 0.9098921994602948 0.6403238301995556
3 271 304 270 0.6627160336610924 0.9098921994602948 0.6403238301995556
3 303 269 270 0.6627160336610924 0.9098921994602948 0.6403238301995556
3 270 304 303 0.6627160336610924 0.9098921994602948 0.6403238301995556
3 270 434 435 0.6627160336610924 0.9098921994602948 0.6403238301995556
3 435 271 270 0.6627160336610924 0.9098921994602948 0.6403238301995556
3 420 103 104 0.6627160336610924 0.9098921994602948 0.6403238301995556
3 104 421 420 0.6627160336610924 0.9098921994602948 0.6403238301995556
3 105 421 104 0.6627160336610924 0.9098921994602948 0.6403238301995556
3 104 293 105 0.6627160336610924 0.9098921994602948 0.6403238301995556
3 104 103 292 0.6627160336610924 0.9098921994602948 0.6403238301995556
3 292 293 104 0.6627160336610924 0.9098921994602948 0.6403238301995556
3 50 117 299 0.6627160336610924 0.9098921994602948 0.6403238301995556
3 299 300 112 0.6627160336610924 0.9098921994602948 0.6403238301995556
3 363 483 482 0.6627160336610924 0.9098921994602948 0.6403238301995556
3 482 483 351 0.6627160336610924 0.9098921994602948 0.6403238301995556
3 482 172 363 0.6627160336610924 0.9098921994602948 0.6403238301995556
3 351 172 482 0.6627160336610924 0.9098921994602948 0.6403238301995556
3 352 166 351 0.6627160336610924 0.9098921994602948 0.6403238301995556
3 351 483 352 0.6627160336610924 0.9098921994602948 0.6403238301995556
3 352 483 364 0.6627160336610924 0.9098921994602948 0.6403238301995556
3 364 484 352 0.6627160336610924 0.9098921994602948 0.6403238301995556
3 530 166 352 0.6627160336610924 0.9098921994602948 0.6403238301995556
3 163 162 349 0.6627160336610924 0.9098921994602948 0.6403238301995556
3 163 525 162 0.6627160336610924 0.9098921994602948 0.6403238301995556
3 348 162 161 0.6627160336610924 0.9098921994602948 0.6403238301995556
3 161 347 348 0.6627160336610924 0.9098921994602948 0.6403238301995556
3 347 170 348 0.6627160336610924 0.9098921994602948 0.6403238301995556
3 349 162 348 0.6627160336610924 0.9098921994602948 0.6403238301995556
3 533 486 534 0.6627160336610924 0.9098921994602948 0.6403238301995556
3 533 343 342 0.6627160336610924 0.9098921994602948 0.6403238301995556
3 534 343 533 0.6627160336610924 0.9098921994602948 0.6403238301995556
3 531 354 532 0.6627160336610924 0.9098921994602948 0.6403238301995556
3 342 341 532 0.6627160336610924 0.9098921994602948 0.6403238301995556
3 532 533 342 0.6627160336610924 0.9098921994602948 0.6403238301995556
3 160 159 531 0.6627160336610924 0.9098921994602948 0.6403238301995556
3 531 532 160 0.6627160336610924 0.9098921994602948 0.6403238301995556
3 160 341 340 0.6627160336610924 0.9098921994602948 0.6403238301995556
3 160 532 341 0.6627160336610924 0.9098921994602948 0.6403238301995556
3 158 159 338 0.6627160336610924 0.9098921994602948 0.6403238301995556
3 152 151 340 0.6627160336610924 0.9098921994602948 0.6403238301995556
3 152 341 153 0.6627160336610924 0.9098921994602948 0.6403238301995556
3 340 341 152 0.6627160336610924 0.9098921994602948 0.6403238301995556
3 465 151 152 0.6627160336610924 0.9098921994602948 0.6403238301995556
3 150 464 13 0.6627160336610924 0.9098921994602948 0.6403238301995556
3 150 151 464 0.6627160336610924 0.9098921994602948 0.6403238301995556
3 13 149 150 0.6627160336610924 0.9098921994602948 0.6403238301995556
3 149 338 150 0.6627160336610924 0.9098921994602948 0.6403238301995556
3 332 333 142 0.6627160336610924 0.9098921994602948 0.6403238301995556
3 563 524 564 0.6627160336610924 0.9098921994602948 0.6403238301995556
3 511 562 563 0.6627160336610924 0.9098921994602948 0.6403238301995556
3 562 463 563 0.6627160336610924 0.9098921994602948 0.6403238301995556
3 564 550 563 0.6627160336610924 0.9098921994602948 0.6403238301995556
3 563 550 511 0.6627160336610924 0.9098921994602948 0.6403238301995556
3 147 469 148 0.6627160336610924 0.9098921994602948 0.6403238301995556
3 148 330 147 0.6627160336610924 0.9098921994602948 0.6403238301995556
3 329 146 147 0.6627160336610924 0.9098921994602948 0.6403238301995556
3 147 330 329 0.6627160336610924 0.9098921994602948 0.6403238301995556
3 327 326 144 0.6627160336610924 0.9098921994602948 0.6403238301995556
3 144 145 327 0.6627160336610924 0.9098921994602948 0.6403238301995556
3 12 143 11 0.6627160336610924 0.9098921994602948 0.6403238301995556
3 143 326 11 0.6627160336610924 0.9098921994602948 0.6403238301995556
3 11 137 10 0.6627160336610924 0.9098921994602948 0.6403238301995556
3 326 137 11 0.6627160336610924 0.9098921994602948 0.6403238301995556
3 138 137 326 0.6627160336610924 0.9098921994602948 0.6403238301995556
3 138 327 139 0.6627160336610924 0.9098921994602948 0.6403238301995556
3 326 327 138 0.6627160336610924 0.9098921994602948 0.6403238301995556
3 284 94 285 0.6627160336610924 0.9098921994602948 0.6403238301995556
3 285 286 392 0.6627160336610924 0.9098921994602948 0.6403238301995556
3 498 497 416 0.6627160336610924 0.9098921994602948 0.6403238301995556
3 195 380 196 0.6627160336610924 0.9098921994602948 0.6403238301995556
3 412 195 413 0.6627160336610924 0.9098921994602948 0.6403238301995556
3 413 190 412 0.6627160336610924 0.9098921994602948 0.6403238301995556
3 413 414 190 0.6627160336610924 0.9098921994602948 0.6403238301995556
3 195 196 413 0.6627160336610924 0.9098921994602948 0.6403238301995556
3 413 196 414 0.6627160336610924 0.9098921994602948 0.6403238301995556
3 497 375 496 0.6627160336610924 0.9098921994602948 0.6403238301995556
3 495 256 496 0.6627160336610924 0.9098921994602948 0.6403238301995556
3 256 414 496 0.6627160336610924 0.9098921994602948 0.6403238301995556
3 374 495 496 0.6627160336610924 0.9098921994602948 0.6403238301995556
3 496 375 374 0.6627160336610924 0.9098921994602948 0.6403238301995556
3 255 493 254 0.6627160336610924 0.9098921994602948 0.6403238301995556
3 254 253 188 0.6627160336610924 0.9098921994602948 0.6403238301995556
3 188 189 254 0.6627160336610924 0.9098921994602948 0.6403238301995556
3 254 189 255 0.6627160336610924 0.9098921994602948 0.6403238301995556
3 494 493 255 0.6627160336610924 0.9098921994602948 0.6403238301995556
3 494 256 495 0.6627160336610924 0.9098921994602948 0.6403238301995556
3 255 256 494 0.6627160336610924 0.9098921994602948 0.6403238301995556
3 492 491 253 0.6627160336610924 0.9098921994602948 0.6403238301995556
3 253 254 492 0.6627160336610924 0.9098921994602948 0.6403238301995556
3 492 254 493 0.6627160336610924 0.9098921994602948 0.6403238301995556
3 487 536 535 0.6627160336610924 0.9098921994602948 0.6403238301995556
3 535 536 345 0.6627160336610924 0.9098921994602948 0.6403238301995556
3 535 345 344 0.6627160336610924 0.9098921994602948 0.6403238301995556
3 535 534 487 0.6627160336610924 0.9098921994602948 0.6403238301995556
3 344 534 535 0.6627160336610924 0.9098921994602948 0.6403238301995556
3 537 475 474 0.6627160336610924 0.9098921994602948 0.6403238301995556
3 474 536 537 0.6627160336610924 0.9098921994602948 0.6403238301995556
3 474 475 335 0.6627160336610924 0.9098921994602948 0.6403238301995556
3 217 225 358 0.6627160336610924 0.9098921994602948 0.6403238301995556
3 358 224 217 0.6627160336610924 0.9098921994602948 0.6403238301995556
3 174 224 358 0.6627160336610924 0.9098921994602948 0.6403238301995556
3 358 476 174 0.6627160336610924 0.9098921994602948 0.6403238301995556
3 358 225 476 0.6627160336610924 0.9098921994602948 0.6403238301995556
3 230 224 357 0.6627160336610924 0.9098921994602948 0.6403238301995556
3 357 223 230 0.6627160336610924 0.9098921994602948 0.6403238301995556
3 357 173 223 0.6627160336610924 0.9098921994602948 0.6403238301995556
3 21 173 357 0.6627160336610924 0.9098921994602948 0.6403238301995556
3 357 224 21 0.6627160336610924 0.9098921994602948 0.6403238301995556
3 165 164 351 0.6627160336610924 0.9098921994602948 0.6403238301995556
3 165 527 164 0.6627160336610924 0.9098921994602948 0.6403238301995556
3 528 527 165 0.6627160336610924 0.9098921994602948 0.6403238301995556
3 165 166 528 0.6627160336610924 0.9098921994602948 0.6403238301995556
3 351 166 165 0.6627160336610924 0.9098921994602948 0.6403238301995556
3 351 164 350 0.6627160336610924 0.9098921994602948 0.6403238301995556
3 350 172 351 0.6627160336610924 0.9098921994602948 0.6403238301995556
3 164 163 350 0.6627160336610924 0.9098921994602948 0.6403238301995556
3 350 163 349 0.6627160336610924 0.9098921994602948 0.6403238301995556
3 481 350 349 0.6627160336610924 0.9098921994602948 0.6403238301995556
3 172 350 481 0.6627160336610924 0.9098921994602948 0.6403238301995556
3 481 362 363 0.6627160336610924 0.9098921994602948 0.6403238301995556
3 363 172 481 0.6627160336610924 0.9098921994602948 0.6403238301995556
3 191 376 192 0.6627160336610924 0.9098921994602948 0.6403238301995556
3 193 410 192 0.6627160336610924 0.9098921994602948 0.6403238301995556
3 192 377 193 0.6627160336610924 0.9098921994602948 0.6403238301995556
3 192 376 377 0.6627160336610924 0.9098921994602948 0.6403238301995556
3 192 409 191 0.6627160336610924 0.9098921994602948 0.6403238301995556
3 192 410 409 0.6627160336610924 0.9098921994602948 0.6403238301995556
3 543 208 544 0.6627160336610924 0.9098921994602948 0.6403238301995556
3 542 208 543 0.6627160336610924 0.9098921994602948 0.6403238301995556
3 544 202 543 0.6627160336610924 0.9098921994602948 0.6403238301995556
3 543 202 542 0.6627160336610924 0.9098921994602948 0.6403238301995556
3 100 205 99 0.6627160336610924 0.9098921994602948 0.6403238301995556
3 99 98 421 0.6627160336610924 0.9098921994602948 0.6403238301995556
3 99 422 100 0.6627160336610924 0.9098921994602948 0.6403238301995556
3 99 421 422 0.6627160336610924 0.9098921994602948 0.6403238301995556
3 42 97 203 0.6627160336610924 0.9098921994602948 0.6403238301995556
3 97 98 203 0.6627160336610924 0.9098921994602948 0.6403238301995556
3 41 42 203 0.6627160336610924 0.9098921994602948 0.6403238301995556
3 203 538 41 0.6627160336610924 0.9098921994602948 0.6403238301995556
3 199 198 539 0.6627160336610924 0.9098921994602948 0.6403238301995556
3 198 538 539 0.6627160336610924 0.9098921994602948 0.6403238301995556
3 87 388 387 0.6627160336610924 0.9098921994602948 0.6403238301995556
3 387 6 87 0.6627160336610924 0.9098921994602948 0.6403238301995556
3 5 6 386 0.6627160336610924 0.9098921994602948 0.6403238301995556
3 6 387 386 0.6627160336610924 0.9098921994602948 0.6403238301995556
3 386 387 84 0.6627160336610924 0.9098921994602948 0.6403238301995556
3 320 321 135 0.6627160336610924 0.9098921994602948 0.6403238301995556
3 210 318 317 0.6627160336610924 0.9098921994602948 0.6403238301995556
3 61 62 317 0.6627160336610924 0.9098921994602948 0.6403238301995556
3 62 209 317 0.6627160336610924 0.9098921994602948 0.6403238301995556
3 209 210 317 0.6627160336610924 0.9098921994602948 0.6403238301995556
3 73 59 551 0.6627160336610924 0.9098921994602948 0.6403238301995556
3 59 60 551 0.6627160336610924 0.9098921994602948 0.6403238301995556
3 546 545 427 0.6627160336610924 0.9098921994602948 0.6403238301995556
3 427 428 546 0.6627160336610924 0.9098921994602948 0.6403238301995556
3 546 428 547 0.6627160336610924 0.9098921994602948 0.6403238301995556
3 384 545 546 0.6627160336610924 0.9098921994602948 0.6403238301995556
3 385 384 546 0.6627160336610924 0.9098921994602948 0.6403238301995556
3 546 547 385 0.6627160336610924 0.9098921994602948 0.6403238301995556
3 505 506 295 0.6627160336610924 0.9098921994602948 0.6403238301995556
3 295 294 505 0.6627160336610924 0.9098921994602948 0.6403238301995556
3 295 506 296 0.6627160336610924 0.9098921994602948 0.6403238301995556
3 106 294 295 0.6627160336610924 0.9098921994602948 0.6403238301995556
3 295 424 106 0.6627160336610924 0.9098921994602948 0.6403238301995556
3 295 296 424 0.6627160336610924 0.9098921994602948 0.6403238301995556
3 431 128 432 0.6627160336610924 0.9098921994602948 0.6403238301995556
3 127 128 431 0.6627160336610924 0.9098921994602948 0.6403238301995556
3 70 273 274 0.6627160336610924 0.9098921994602948 0.6403238301995556
3 274 71 70 0.6627160336610924 0.9098921994602948 0.6403238301995556
3 508 507 307 0.6627160336610924 0.9098921994602948 0.6403238301995556
3 508 297 507 0.6627160336610924 0.9098921994602948 0.6403238301995556
3 307 509 508 0.6627160336610924 0.9098921994602948 0.6403238301995556
3 508 509 298 0.6627160336610924 0.9098921994602948 0.6403238301995556
3 298 297 508 0.6627160336610924 0.9098921994602948 0.6403238301995556
3 126 433 434 0.6627160336610924 0.9098921994602948 0.6403238301995556
3 434 270 126 0.6627160336610924 0.9098921994602948 0.6403238301995556
3 126 270 269 0.6627160336610924 0.9098921994602948 0.6403238301995556
3 124 268 267 0.6627160336610924 0.9098921994602948 0.6403238301995556
3 124 431 432 0.6627160336610924 0.9098921994602948 0.6403238301995556
3 267 123 124 0.6627160336610924 0.9098921994602948 0.6403238301995556
3 123 431 124 0.6627160336610924 0.9098921994602948 0.6403238301995556
3 432 433 125 0.6627160336610924 0.9098921994602948 0.6403238301995556
3 125 124 432 0.6627160336610924 0.9098921994602948 0.6403238301995556
3 268 124 125 0.6627160336610924 0.9098921994602948 0.6403238301995556
3 269 268 125 0.6627160336610924 0.9098921994602948 0.6403238301995556
3 125 126 269 0.6627160336610924 0.9098921994602948 0.6403238301995556
3 433 126 125 0.6627160336610924 0.9098921994602948 0.6403238301995556
3 120 302 301 0.6627160336610924 0.9098921994602948 0.6403238301995556
3 267 268 120 0.6627160336610924 0.9098921994602948 0.6403238301995556
3 121 302 120 0.6627160336610924 0.9098921994602948 0.6403238301995556
3 120 268 121 0.6627160336610924 0.9098921994602948 0.6403238301995556
3 119 267 120 0.6627160336610924 0.9098921994602948 0.6403238301995556
3 120 301 119 0.6627160336610924 0.9098921994602948 0.6403238301995556
3 7 281 88 0.6627160336610924 0.9098921994602948 0.6403238301995556
3 88 388 87 0.6627160336610924 0.9098921994602948 0.6403238301995556
3 87 7 88 0.6627160336610924 0.9098921994602948 0.6403238301995556
3 88 389 388 0.6627160336610924 0.9098921994602948 0.6403238301995556
3 262 263 459 0.6627160336610924 0.9098921994602948 0.6403238301995556
3 458 261 262 0.6627160336610924 0.9098921994602948 0.6403238301995556
3 521 334 335 0.6627160336610924 0.9098921994602948 0.6403238301995556
3 462 450 394 0.6627160336610924 0.9098921994602948 0.6403238301995556
3 462 451 450 0.6627160336610924 0.9098921994602948 0.6403238301995556
3 394 395 462 0.6627160336610924 0.9098921994602948 0.6403238301995556
3 395 451 462 0.6627160336610924 0.9098921994602948 0.6403238301995556
3 394 450 461 0.6627160336610924 0.9098921994602948 0.6403238301995556
3 461 393 394 0.6627160336610924 0.9098921994602948 0.6403238301995556
3 461 450 449 0.6627160336610924 0.9098921994602948 0.6403238301995556
3 394 393 287 0.6627160336610924 0.9098921994602948 0.6403238301995556
3 287 393 286 0.6627160336610924 0.9098921994602948 0.6403238301995556
3 286 96 287 0.6627160336610924 0.9098921994602948 0.6403238301995556
3 287 96 516 0.6627160336610924 0.9098921994602948 0.6403238301995556
3 264 393 460 0.6627160336610924 0.9098921994602948 0.6403238301995556
3 449 448 460 0.6627160336610924 0.9098921994602948 0.6403238301995556
3 448 264 460 0.6627160336610924 0.9098921994602948 0.6403238301995556
3 460 461 449 0.6627160336610924 0.9098921994602948 0.6403238301995556
3 393 461 460 0.6627160336610924 0.9098921994602948 0.6403238301995556
3 559 325 560 0.6627160336610924 0.9098921994602948 0.6403238301995556
3 558 325 559 0.6627160336610924 0.9098921994602948 0.6403238301995556
3 280 558 559 0.6627160336610924 0.9098921994602948 0.6403238301995556
3 559 560 316 0.6627160336610924 0.9098921994602948 0.6403238301995556
3 316 280 559 0.6627160336610924 0.9098921994602948 0.6403238301995556
3 323 557 556 0.6627160336610924 0.9098921994602948 0.6403238301995556
3 556 322 323 0.6627160336610924 0.9098921994602948 0.6403238301995556
3 556 557 278 0.6627160336610924 0.9098921994602948 0.6403238301995556
3 556 277 555 0.6627160336610924 0.9098921994602948 0.6403238301995556
3 556 278 277 0.6627160336610924 0.9098921994602948 0.6403238301995556
3 50 299 49 0.6627160336610924 0.9098921994602948 0.6403238301995556
3 49 112 48 0.6627160336610924 0.9098921994602948 0.6403238301995556
3 49 299 112 0.6627160336610924 0.9098921994602948 0.6403238301995556
3 118 117 265 0.6627160336610924 0.9098921994602948 0.6403238301995556
3 118 299 117 0.6627160336610924 0.9098921994602948 0.6403238301995556
3 265 266 118 0.6627160336610924 0.9098921994602948 0.6403238301995556
3 300 299 118 0.6627160336610924 0.9098921994602948 0.6403238301995556
3 118 266 119 0.6627160336610924 0.9098921994602948 0.6403238301995556
3 119 300 118 0.6627160336610924 0.9098921994602948 0.6403238301995556
3 530 352 353 0.6627160336610924 0.9098921994602948 0.6403238301995556
3 353 352 484 0.6627160336610924 0.9098921994602948 0.6403238301995556
3 353 531 530 0.6627160336610924 0.9098921994602948 0.6403238301995556
3 353 484 365 0.6627160336610924 0.9098921994602948 0.6403238301995556
3 365 354 353 0.6627160336610924 0.9098921994602948 0.6403238301995556
3 353 354 531 0.6627160336610924 0.9098921994602948 0.6403238301995556
3 526 163 164 0.6627160336610924 0.9098921994602948 0.6403238301995556
3 164 527 526 0.6627160336610924 0.9098921994602948 0.6403238301995556
3 16 525 526 0.6627160336610924 0.9098921994602948 0.6403238301995556
3 525 163 526 0.6627160336610924 0.9098921994602948 0.6403238301995556
3 526 155 16 0.6627160336610924 0.9098921994602948 0.6403238301995556
3 526 527 155 0.6627160336610924 0.9098921994602948 0.6403238301995556
3 480 348 170 0.6627160336610924 0.9098921994602948 0.6403238301995556
3 480 178 348 0.6627160336610924 0.9098921994602948 0.6403238301995556
3 480 170 361 0.6627160336610924 0.9098921994602948 0.6403238301995556
3 355 354 485 0.6627160336610924 0.9098921994602948 0.6403238301995556
3 355 532 354 0.6627160336610924 0.9098921994602948 0.6403238301995556
3 355 485 407 0.6627160336610924 0.9098921994602948 0.6403238301995556
3 407 486 355 0.6627160336610924 0.9098921994602948 0.6403238301995556
3 486 533 355 0.6627160336610924 0.9098921994602948 0.6403238301995556
3 533 532 355 0.6627160336610924 0.9098921994602948 0.6403238301995556
3 158 338 337 0.6627160336610924 0.9098921994602948 0.6403238301995556
3 157 158 337 0.6627160336610924 0.9098921994602948 0.6403238301995556
3 337 336 157 0.6627160336610924 0.9098921994602948 0.6403238301995556
3 14 336 337 0.6627160336610924 0.9098921994602948 0.6403238301995556
3 337 149 14 0.6627160336610924 0.9098921994602948 0.6403238301995556
3 337 338 149 0.6627160336610924 0.9098921994602948 0.6403238301995556
3 339 338 159 0.6627160336610924 0.9098921994602948 0.6403238301995556
3 339 160 340 0.6627160336610924 0.9098921994602948 0.6403238301995556
3 159 160 339 0.6627160336610924 0.9098921994602948 0.6403238301995556
3 339 150 338 0.6627160336610924 0.9098921994602948 0.6403238301995556
3 340 151 339 0.6627160336610924 0.9098921994602948 0.6403238301995556
3 151 150 339 0.6627160336610924 0.9098921994602948 0.6403238301995556
3 517 287 516 0.6627160336610924 0.9098921994602948 0.6403238301995556
3 332 142 331 0.6627160336610924 0.9098921994602948 0.6403238301995556
3 331 142 330 0.6627160336610924 0.9098921994602948 0.6403238301995556
3 331 148 332 0.6627160336610924 0.9098921994602948 0.6403238301995556
3 331 330 148 0.6627160336610924 0.9098921994602948 0.6403238301995556
3 141 517 516 0.6627160336610924 0.9098921994602948 0.6403238301995556
3 142 517 141 0.6627160336610924 0.9098921994602948 0.6403238301995556
3 329 330 141 0.6627160336610924 0.9098921994602948 0.6403238301995556
3 330 142 141 0.6627160336610924 0.9098921994602948 0.6403238301995556
3 467 145 144 0.6627160336610924 0.9098921994602948 0.6403238301995556
3 153 154 467 0.6627160336610924 0.9098921994602948 0.6403238301995556
3 139 327 328 0.6627160336610924 0.9098921994602948 0.6403238301995556
3 328 327 145 0.6627160336610924 0.9098921994602948 0.6403238301995556
3 328 146 329 0.6627160336610924 0.9098921994602948 0.6403238301995556
3 328 145 146 0.6627160336610924 0.9098921994602948 0.6403238301995556
3 384 416 383 0.6627160336610924 0.9098921994602948 0.6403238301995556
3 383 545 384 0.6627160336610924 0.9098921994602948 0.6403238301995556
3 544 545 383 0.6627160336610924 0.9098921994602948 0.6403238301995556
3 382 202 383 0.6627160336610924 0.9098921994602948 0.6403238301995556
3 383 202 544 0.6627160336610924 0.9098921994602948 0.6403238301995556
3 415 196 382 0.6627160336610924 0.9098921994602948 0.6403238301995556
3 414 196 415 0.6627160336610924 0.9098921994602948 0.6403238301995556
3 382 383 415 0.6627160336610924 0.9098921994602948 0.6403238301995556
3 415 383 416 0.6627160336610924 0.9098921994602948 0.6403238301995556
3 415 496 414 0.6627160336610924 0.9098921994602948 0.6403238301995556
3 415 416 497 0.6627160336610924 0.9098921994602948 0.6403238301995556
3 497 496 415 0.6627160336610924 0.9098921994602948 0.6403238301995556
3 417 418 498 0.6627160336610924 0.9098921994602948 0.6403238301995556
3 498 416 417 0.6627160336610924 0.9098921994602948 0.6403238301995556
3 417 416 384 0.6627160336610924 0.9098921994602948 0.6403238301995556
3 417 384 385 0.6627160336610924 0.9098921994602948 0.6403238301995556
3 385 418 417 0.6627160336610924 0.9098921994602948 0.6403238301995556
3 382 196 381 0.6627160336610924 0.9098921994602948 0.6403238301995556
3 381 196 380 0.6627160336610924 0.9098921994602948 0.6403238301995556
3 381 202 382 0.6627160336610924 0.9098921994602948 0.6403238301995556
3 381 380 201 0.6627160336610924 0.9098921994602948 0.6403238301995556
3 201 202 381 0.6627160336610924 0.9098921994602948 0.6403238301995556
3 493 494 249 0.6627160336610924 0.9098921994602948 0.6403238301995556
3 491 492 247 0.6627160336610924 0.9098921994602948 0.6403238301995556
3 246 491 247 0.6627160336610924 0.9098921994602948 0.6403238301995556
3 247 370 246 0.6627160336610924 0.9098921994602948 0.6403238301995556
3 371 370 247 0.6627160336610924 0.9098921994602948 0.6403238301995556
3 248 492 493 0.6627160336610924 0.9098921994602948 0.6403238301995556
3 248 249 372 0.6627160336610924 0.9098921994602948 0.6403238301995556
3 493 249 248 0.6627160336610924 0.9098921994602948 0.6403238301995556
3 248 372 371 0.6627160336610924 0.9098921994602948 0.6403238301995556
3 371 247 248 0.6627160336610924 0.9098921994602948 0.6403238301995556
3 248 247 492 0.6627160336610924 0.9098921994602948 0.6403238301995556
3 345 536 473 0.6627160336610924 0.9098921994602948 0.6403238301995556
3 536 474 473 0.6627160336610924 0.9098921994602948 0.6403238301995556
3 335 334 473 0.6627160336610924 0.9098921994602948 0.6403238301995556
3 473 474 335 0.6627160336610924 0.9098921994602948 0.6403238301995556
3 171 481 349 0.6627160336610924 0.9098921994602948 0.6403238301995556
3 349 348 171 0.6627160336610924 0.9098921994602948 0.6403238301995556
3 348 178 171 0.6627160336610924 0.9098921994602948 0.6403238301995556
3 171 178 362 0.6627160336610924 0.9098921994602948 0.6403238301995556
3 362 481 171 0.6627160336610924 0.9098921994602948 0.6403238301995556
3 204 203 98 0.6627160336610924 0.9098921994602948 0.6403238301995556
3 204 99 205 0.6627160336610924 0.9098921994602948 0.6403238301995556
3 98 99 204 0.6627160336610924 0.9098921994602948 0.6403238301995556
3 205 539 204 0.6627160336610924 0.9098921994602948 0.6403238301995556
3 538 203 204 0.6627160336610924 0.9098921994602948 0.6403238301995556
3 204 539 538 0.6627160336610924 0.9098921994602948 0.6403238301995556
3 540 539 205 0.6627160336610924 0.9098921994602948 0.6403238301995556
3 540 206 541 0.6627160336610924 0.9098921994602948 0.6403238301995556
3 205 206 540 0.6627160336610924 0.9098921994602948 0.6403238301995556
3 199 539 540 0.6627160336610924 0.9098921994602948 0.6403238301995556
3 540 541 200 0.6627160336610924 0.9098921994602948 0.6403238301995556
3 200 199 540 0.6627160336610924 0.9098921994602948 0.6403238301995556
3 83 82 5 0.6627160336610924 0.9098921994602948 0.6403238301995556
3 5 386 83 0.6627160336610924 0.9098921994602948 0.6403238301995556
3 83 386 84 0.6627160336610924 0.9098921994602948 0.6403238301995556
3 211 210 443 0.6627160336610924 0.9098921994602948 0.6403238301995556
3 211 318 210 0.6627160336610924 0.9098921994602948 0.6403238301995556
3 213 321 320 0.6627160336610924 0.9098921994602948 0.6403238301995556
3 85 387 388 0.6627160336610924 0.9098921994602948 0.6403238301995556
3 84 387 85 0.6627160336610924 0.9098921994602948 0.6403238301995556
3 388 389 85 0.6627160336610924 0.9098921994602948 0.6403238301995556
3 81 85 261 0.6627160336610924 0.9098921994602948 0.6403238301995556
3 321 322 136 0.6627160336610924 0.9098921994602948 0.6403238301995556
3 136 135 321 0.6627160336610924 0.9098921994602948 0.6403238301995556
3 136 556 555 0.6627160336610924 0.9098921994602948 0.6403238301995556
3 322 556 136 0.6627160336610924 0.9098921994602948 0.6403238301995556
3 554 136 555 0.6627160336610924 0.9098921994602948 0.6403238301995556
3 135 136 554 0.6627160336610924 0.9098921994602948 0.6403238301995556
3 132 60 61 0.6627160336610924 0.9098921994602948 0.6403238301995556
3 132 551 60 0.6627160336610924 0.9098921994602948 0.6403238301995556
3 61 317 132 0.6627160336610924 0.9098921994602948 0.6403238301995556
3 132 317 318 0.6627160336610924 0.9098921994602948 0.6403238301995556
3 75 274 74 0.6627160336610924 0.9098921994602948 0.6403238301995556
3 74 273 73 0.6627160336610924 0.9098921994602948 0.6403238301995556
3 74 274 273 0.6627160336610924 0.9098921994602948 0.6403238301995556
3 320 135 134 0.6627160336610924 0.9098921994602948 0.6403238301995556
3 127 431 430 0.6627160336610924 0.9098921994602948 0.6403238301995556
3 430 431 123 0.6627160336610924 0.9098921994602948 0.6403238301995556
3 430 123 122 0.6627160336610924 0.9098921994602948 0.6403238301995556
3 122 54 430 0.6627160336610924 0.9098921994602948 0.6403238301995556
3 54 55 430 0.6627160336610924 0.9098921994602948 0.6403238301995556
3 55 127 430 0.6627160336610924 0.9098921994602948 0.6403238301995556
3 275 274 75 0.6627160336610924 0.9098921994602948 0.6403238301995556
3 71 274 275 0.6627160336610924 0.9098921994602948 0.6403238301995556
3 311 71 72 0.6627160336610924 0.9098921994602948 0.6403238301995556
3 72 312 311 0.6627160336610924 0.9098921994602948 0.6403238301995556
3 71 275 72 0.6627160336610924 0.9098921994602948 0.6403238301995556
3 72 275 276 0.6627160336610924 0.9098921994602948 0.6403238301995556
3 277 312 72 0.6627160336610924 0.9098921994602948 0.6403238301995556
3 72 276 277 0.6627160336610924 0.9098921994602948 0.6403238301995556
3 89 88 281 0.6627160336610924 0.9098921994602948 0.6403238301995556
3 389 88 89 0.6627160336610924 0.9098921994602948 0.6403238301995556
3 89 281 282 0.6627160336610924 0.9098921994602948 0.6403238301995556
3 282 90 89 0.6627160336610924 0.9098921994602948 0.6403238301995556
3 283 90 282 0.6627160336610924 0.9098921994602948 0.6403238301995556
3 283 93 284 0.6627160336610924 0.9098921994602948 0.6403238301995556
3 282 92 283 0.6627160336610924 0.9098921994602948 0.6403238301995556
3 283 92 93 0.6627160336610924 0.9098921994602948 0.6403238301995556
3 392 264 391 0.6627160336610924 0.9098921994602948 0.6403238301995556
3 391 264 263 0.6627160336610924 0.9098921994602948 0.6403238301995556
3 86 262 261 0.6627160336610924 0.9098921994602948 0.6403238301995556
3 86 85 389 0.6627160336610924 0.9098921994602948 0.6403238301995556
3 261 85 86 0.6627160336610924 0.9098921994602948 0.6403238301995556
3 522 521 335 0.6627160336610924 0.9098921994602948 0.6403238301995556
3 396 451 395 0.6627160336610924 0.9098921994602948 0.6403238301995556
3 463 451 396 0.6627160336610924 0.9098921994602948 0.6403238301995556
3 396 522 463 0.6627160336610924 0.9098921994602948 0.6403238301995556
3 521 522 396 0.6627160336610924 0.9098921994602948 0.6403238301995556
3 520 333 334 0.6627160336610924 0.9098921994602948 0.6403238301995556
3 334 521 520 0.6627160336610924 0.9098921994602948 0.6403238301995556
3 521 396 520 0.6627160336610924 0.9098921994602948 0.6403238301995556
3 513 137 514 0.6627160336610924 0.9098921994602948 0.6403238301995556
3 137 138 514 0.6627160336610924 0.9098921994602948 0.6403238301995556
3 228 480 361 0.6627160336610924 0.9098921994602948 0.6403238301995556
3 178 480 228 0.6627160336610924 0.9098921994602948 0.6403238301995556
3 361 234 228 0.6627160336610924 0.9098921994602948 0.6403238301995556
3 234 235 228 0.6627160336610924 0.9098921994602948 0.6403238301995556
3 235 362 228 0.6627160336610924 0.9098921994602948 0.6403238301995556
3 362 178 228 0.6627160336610924 0.9098921994602948 0.6403238301995556
3 287 517 288 0.6627160336610924 0.9098921994602948 0.6403238301995556
3 288 395 394 0.6627160336610924 0.9098921994602948 0.6403238301995556
3 394 287 288 0.6627160336610924 0.9098921994602948 0.6403238301995556
3 329 141 140 0.6627160336610924 0.9098921994602948 0.6403238301995556
3 139 328 140 0.6627160336610924 0.9098921994602948 0.6403238301995556
3 140 328 329 0.6627160336610924 0.9098921994602948 0.6403238301995556
3 140 141 516 0.6627160336610924 0.9098921994602948 0.6403238301995556
3 146 145 468 0.6627160336610924 0.9098921994602948 0.6403238301995556
3 145 467 468 0.6627160336610924 0.9098921994602948 0.6403238301995556
3 469 147 468 0.6627160336610924 0.9098921994602948 0.6403238301995556
3 468 147 146 0.6627160336610924 0.9098921994602948 0.6403238301995556
3 468 154 469 0.6627160336610924 0.9098921994602948 0.6403238301995556
3 468 467 154 0.6627160336610924 0.9098921994602948 0.6403238301995556
3 466 467 144 0.6627160336610924 0.9098921994602948 0.6403238301995556
3 466 143 465 0.6627160336610924 0.9098921994602948 0.6403238301995556
3 144 143 466 0.6627160336610924 0.9098921994602948 0.6403238301995556
3 153 467 466 0.6627160336610924 0.9098921994602948 0.6403238301995556
3 465 152 466 0.6627160336610924 0.9098921994602948 0.6403238301995556
3 466 152 153 0.6627160336610924 0.9098921994602948 0.6403238301995556
3 373 249 494 0.6627160336610924 0.9098921994602948 0.6403238301995556
3 373 495 374 0.6627160336610924 0.9098921994602948 0.6403238301995556
3 373 494 495 0.6627160336610924 0.9098921994602948 0.6403238301995556
3 374 405 373 0.6627160336610924 0.9098921994602948 0.6403238301995556
3 372 249 373 0.6627160336610924 0.9098921994602948 0.6403238301995556
3 373 405 404 0.6627160336610924 0.9098921994602948 0.6403238301995556
3 404 372 373 0.6627160336610924 0.9098921994602948 0.6403238301995556
3 471 345 472 0.6627160336610924 0.9098921994602948 0.6403238301995556
3 345 473 472 0.6627160336610924 0.9098921994602948 0.6403238301995556
3 472 148 471 0.6627160336610924 0.9098921994602948 0.6403238301995556
3 472 333 148 0.6627160336610924 0.9098921994602948 0.6403238301995556
3 334 333 472 0.6627160336610924 0.9098921994602948 0.6403238301995556
3 472 473 334 0.6627160336610924 0.9098921994602948 0.6403238301995556
3 259 258 82 0.6627160336610924 0.9098921994602948 0.6403238301995556
3 82 83 259 0.6627160336610924 0.9098921994602948 0.6403238301995556
3 79 258 259 0.6627160336610924 0.9098921994602948 0.6403238301995556
3 259 83 84 0.6627160336610924 0.9098921994602948 0.6403238301995556
3 444 211 443 0.6627160336610924 0.9098921994602948 0.6403238301995556
3 214 322 321 0.6627160336610924 0.9098921994602948 0.6403238301995556
3 321 213 214 0.6627160336610924 0.9098921994602948 0.6403238301995556
3 75 554 76 0.6627160336610924 0.9098921994602948 0.6403238301995556
3 76 275 75 0.6627160336610924 0.9098921994602948 0.6403238301995556
3 276 275 76 0.6627160336610924 0.9098921994602948 0.6403238301995556
3 76 554 555 0.6627160336610924 0.9098921994602948 0.6403238301995556
3 555 277 76 0.6627160336610924 0.9098921994602948 0.6403238301995556
3 277 276 76 0.6627160336610924 0.9098921994602948 0.6403238301995556
3 320 134 319 0.6627160336610924 0.9098921994602948 0.6403238301995556
3 318 211 319 0.6627160336610924 0.9098921994602948 0.6403238301995556
3 133 132 318 0.6627160336610924 0.9098921994602948 0.6403238301995556
3 318 319 133 0.6627160336610924 0.9098921994602948 0.6403238301995556
3 133 319 134 0.6627160336610924 0.9098921994602948 0.6403238301995556
3 551 132 133 0.6627160336610924 0.9098921994602948 0.6403238301995556
3 552 133 134 0.6627160336610924 0.9098921994602948 0.6403238301995556
3 551 133 552 0.6627160336610924 0.9098921994602948 0.6403238301995556
3 73 551 552 0.6627160336610924 0.9098921994602948 0.6403238301995556
3 552 74 73 0.6627160336610924 0.9098921994602948 0.6403238301995556
3 135 554 553 0.6627160336610924 0.9098921994602948 0.6403238301995556
3 553 134 135 0.6627160336610924 0.9098921994602948 0.6403238301995556
3 553 554 75 0.6627160336610924 0.9098921994602948 0.6403238301995556
3 553 552 134 0.6627160336610924 0.9098921994602948 0.6403238301995556
3 75 74 553 0.6627160336610924 0.9098921994602948 0.6403238301995556
3 74 552 553 0.6627160336610924 0.9098921994602948 0.6403238301995556
3 91 283 284 0.6627160336610924 0.9098921994602948 0.6403238301995556
3 90 283 91 0.6627160336610924 0.9098921994602948 0.6403238301995556
3 284 285 91 0.6627160336610924 0.9098921994602948 0.6403238301995556
3 91 285 392 0.6627160336610924 0.9098921994602948 0.6403238301995556
3 392 391 91 0.6627160336610924 0.9098921994602948 0.6403238301995556
3 262 86 390 0.6627160336610924 0.9098921994602948 0.6403238301995556
3 263 262 390 0.6627160336610924 0.9098921994602948 0.6403238301995556
3 390 86 389 0.6627160336610924 0.9098921994602948 0.6403238301995556
3 390 391 263 0.6627160336610924 0.9098921994602948 0.6403238301995556
3 389 89 390 0.6627160336610924 0.9098921994602948 0.6403238301995556
3 390 89 90 0.6627160336610924 0.9098921994602948 0.6403238301995556
3 90 91 390 0.6627160336610924 0.9098921994602948 0.6403238301995556
3 390 91 391 0.6627160336610924 0.9098921994602948 0.6403238301995556
3 523 563 463 0.6627160336610924 0.9098921994602948 0.6403238301995556
3 463 522 523 0.6627160336610924 0.9098921994602948 0.6403238301995556
3 524 563 523 0.6627160336610924 0.9098921994602948 0.6403238301995556
3 475 524 523 0.6627160336610924 0.9098921994602948 0.6403238301995556
3 335 475 523 0.6627160336610924 0.9098921994602948 0.6403238301995556
3 523 522 335 0.6627160336610924 0.9098921994602948 0.6403238301995556
3 519 142 333 0.6627160336610924 0.9098921994602948 0.6403238301995556
3 333 520 519 0.6627160336610924 0.9098921994602948 0.6403238301995556
3 516 96 515 0.6627160336610924 0.9098921994602948 0.6403238301995556
3 96 514 515 0.6627160336610924 0.9098921994602948 0.6403238301995556
3 139 140 515 0.6627160336610924 0.9098921994602948 0.6403238301995556
3 515 140 516 0.6627160336610924 0.9098921994602948 0.6403238301995556
3 515 138 139 0.6627160336610924 0.9098921994602948 0.6403238301995556
3 515 514 138 0.6627160336610924 0.9098921994602948 0.6403238301995556
3 95 514 96 0.6627160336610924 0.9098921994602948 0.6403238301995556
3 95 285 94 0.6627160336610924 0.9098921994602948 0.6403238301995556
3 95 94 513 0.6627160336610924 0.9098921994602948 0.6403238301995556
3 513 514 95 0.6627160336610924 0.9098921994602948 0.6403238301995556
3 286 285 95 0.6627160336610924 0.9098921994602948 0.6403238301995556
3 95 96 286 0.6627160336610924 0.9098921994602948 0.6403238301995556
3 456 81 445 0.6627160336610924 0.9098921994602948 0.6403238301995556
3 445 444 456 0.6627160336610924 0.9098921994602948 0.6403238301995556
3 79 259 455 0.6627160336610924 0.9098921994602948 0.6403238301995556
3 443 79 455 0.6627160336610924 0.9098921994602948 0.6403238301995556
3 455 444 443 0.6627160336610924 0.9098921994602948 0.6403238301995556
3 447 214 458 0.6627160336610924 0.9098921994602948 0.6403238301995556
3 322 214 447 0.6627160336610924 0.9098921994602948 0.6403238301995556
3 323 322 447 0.6627160336610924 0.9098921994602948 0.6403238301995556
3 447 448 323 0.6627160336610924 0.9098921994602948 0.6403238301995556
3 459 448 447 0.6627160336610924 0.9098921994602948 0.6403238301995556
3 458 262 447 0.6627160336610924 0.9098921994602948 0.6403238301995556
3 447 262 459 0.6627160336610924 0.9098921994602948 0.6403238301995556
3 446 214 213 0.6627160336610924 0.9098921994602948 0.6403238301995556
3 446 213 445 0.6627160336610924 0.9098921994602948 0.6403238301995556
3 446 261 458 0.6627160336610924 0.9098921994602948 0.6403238301995556
3 458 214 446 0.6627160336610924 0.9098921994602948 0.6403238301995556
3 212 444 445 0.6627160336610924 0.9098921994602948 0.6403238301995556
3 320 319 212 0.6627160336610924 0.9098921994602948 0.6403238301995556
3 211 444 212 0.6627160336610924 0.9098921994602948 0.6403238301995556
3 212 319 211 0.6627160336610924 0.9098921994602948 0.6403238301995556
3 212 213 320 0.6627160336610924 0.9098921994602948 0.6403238301995556
3 445 213 212 0.6627160336610924 0.9098921994602948 0.6403238301995556
3 518 517 142 0.6627160336610924 0.9098921994602948 0.6403238301995556
3 142 519 518 0.6627160336610924 0.9098921994602948 0.6403238301995556
3 518 288 517 0.6627160336610924 0.9098921994602948 0.6403238301995556
3 81 456 260 0.6627160336610924 0.9098921994602948 0.6403238301995556
3 84 85 260 0.6627160336610924 0.9098921994602948 0.6403238301995556
3 85 81 260 0.6627160336610924 0.9098921994602948 0.6403238301995556
3 260 259 84 0.6627160336610924 0.9098921994602948 0.6403238301995556
3 80 456 444 0.6627160336610924 0.9098921994602948 0.6403238301995556
3 80 455 259 0.6627160336610924 0.9098921994602948 0.6403238301995556
3 444 455 80 0.6627160336610924 0.9098921994602948 0.6403238301995556
3 259 260 80 0.6627160336610924 0.9098921994602948 0.6403238301995556
3 80 260 456 0.6627160336610924 0.9098921994602948 0.6403238301995556
3 445 81 457 0.6627160336610924 0.9098921994602948 0.6403238301995556
3 457 446 445 0.6627160336610924 0.9098921994602948 0.6403238301995556
3 457 81 261 0.6627160336610924 0.9098921994602948 0.6403238301995556
3 261 446 457 0.6627160336610924 0.9098921994602948 0.6403238301995556
3 288 518 289 0.6627160336610924 0.9098921994602948 0.6403238301995556
3 289 518 519 0.6627160336610924 0.9098921994602948 0.6403238301995556
3 395 288 289 0.6627160336610924 0.9098921994602948 0.6403238301995556
3 289 519 520 0.6627160336610924 0.9098921994602948 0.6403238301995556
3 289 396 395 0.6627160336610924 0.9098921994602948 0.6403238301995556
3 289 520 396 0.6627160336610924 0.9098921994602948 0.6403238301995556
