OFF
301 541 0


26.4415 28.3046 11.1492
26.4415 28.3046 11.1492
26.4791 28.373 11.1309
26.4415 28.3046 11.1492
26.4415 28.3046 11.1492
26.4049 28.4266 11.192
26.371 28.5364 11.2317
26.3391 28.6368 11.2689
26.3087 28.7297 11.3042
26.2795 28.8166 11.3382
26.2511 28.8989 11.3712
26.2231 28.9776 11.4037
26.1954 29.0537 11.4359
26.1675 29.128 11.4682
26.1393 29.2011 11.5008
26.1104 29.2738 11.5342
26.0805 29.3467 11.5687
26.0493 29.4204 11.6047
26.0164 29.4956 11.6426
25.9814 29.573 11.6829
25.9438 29.6533 11.7262
25.9029 29.7372 11.7732
25.858 29.8257 11.8247
25.8082 29.9197 11.8817
25.7524 30.0204 11.9455
25.7524 30.0204 11.9455
25.8493 29.966 11.859
25.9262 29.9201 11.7905
25.9925 29.8786 11.7316
26.0539 29.8385 11.6771
26.1148 29.7971 11.6232
26.1796 29.7512 11.566
26.2535 29.6965 11.5008
26.345 29.6255 11.4205
26.3824 29.4918 11.3695
26.4121 29.39 11.3305
26.4377 29.3049 11.2978
26.4614 29.228 11.268
26.4849 29.1536 11.2392
26.5096 29.077 11.2093
26.5374 28.9925 11.1763
26.5712 28.892 11.1369
26.6163 28.7613 11.0854
26.6163 28.7613 11.0854
26.5801 28.6443 11.0948
26.5533 28.5582 11.1021
26.5168 28.4414 11.1126
26.4487 28.4738 11.1664
26.4201 28.5692 11.2003
26.393 28.6599 11.2326
26.4154 28.415 11.1828
26.3908 28.5192 11.2148
26.3678 28.6178 11.2452
26.4587 29.1584 11.2589
26.4329 29.1631 11.2784
26.4073 29.1678 11.2978
26.5152 28.634 11.1402
26.4789 28.7064 11.1767
26.4441 28.7759 11.2118
26.3548 28.6132 11.254
26.3394 28.6871 11.2757
26.3246 28.7583 11.2967
26.3103 28.827 11.317
26.3004 28.7814 11.3178
26.2923 28.8319 11.331
26.2844 28.8812 11.344
26.2767 28.9294 11.3568
26.2493 28.9307 11.3773
26.2475 28.962 11.3833
26.2457 28.9929 11.3893
26.244 29.0235 11.3952
26.1994 29.0686 11.4352
26.2033 29.0834 11.4346
26.2073 29.0982 11.4339
26.2112 29.1128 11.4333
26.1487 29.2009 11.4938
26.1582 29.2008 11.4867
26.1677 29.2006 11.4796
26.1771 29.2005 11.4725
26.0954 29.3324 11.5552
26.1104 29.318 11.5415
26.1255 29.3035 11.5278
26.1407 29.289 11.514
26.0371 29.4673 11.622
26.058 29.4387 11.6013
26.0791 29.4099 11.5804
26.1005 29.3808 11.5594
26.0706 29.7778 11.6529
26.0875 29.7168 11.6287
26.1046 29.6554 11.6045
26.1219 29.5934 11.5803
26.4171 29.2942 11.311
26.3966 29.2835 11.3242
26.3761 29.2729 11.3374
26.3557 29.2624 11.3506
26.5045 29.0148 11.2034
26.4724 29.0367 11.2301
26.4408 29.0582 11.2563
26.4098 29.0793 11.2821
26.3841 28.5188 11.2196
26.3644 28.6067 11.2461
26.3457 28.6907 11.2716
26.3278 28.7713 11.2962
26.3107 28.8488 11.3199
25.9711 29.6101 11.6974
25.9986 29.5666 11.6686
26.0265 29.5228 11.6397
26.0547 29.4785 11.6107
26.0833 29.4338 11.5814
25.8934 29.7656 11.7858
25.929 29.7055 11.7472
25.9648 29.6452 11.7086
26.0011 29.5845 11.67
26.0379 29.5232 11.6312
25.9551 29.851 11.7548
25.984 29.782 11.7194
26.0132 29.7128 11.6842
26.0428 29.6431 11.6489
26.0728 29.5726 11.6135
26.1845 29.6987 11.5526
26.1896 29.6458 11.5391
26.1947 29.5925 11.5257
26.2 29.5387 11.5122
26.2054 29.4843 11.4987
26.3943 29.371 11.3403
26.3765 29.352 11.3501
26.3588 29.333 11.3599
26.3411 29.314 11.3698
26.3234 29.2949 11.3796
26.5394 28.7089 11.1332
26.5005 28.771 11.1703
26.4631 28.8307 11.206
26.4271 28.8883 11.2406
26.3924 28.944 11.2742
25.7987 29.9395 11.893
25.8446 29.8596 11.8415
25.8906 29.7802 11.7907
25.9368 29.7009 11.7403
25.9834 29.6212 11.69
26.0309 29.5406 11.6396
25.8857 29.8918 11.8161
25.9221 29.8179 11.7737
25.9586 29.7441 11.7317
25.9955 29.6701 11.6898
26.033 29.5954 11.6478
26.0711 29.5197 11.6055
26.3341 29.5842 11.4211
26.3233 29.5426 11.4217
26.3124 29.5009 11.4225
26.3014 29.4589 11.4233
26.2905 29.4167 11.4242
26.2794 29.3741 11.4251
26.4804 29.0899 11.2325
26.4516 29.1027 11.2553
26.4232 29.1153 11.2779
26.3952 29.1277 11.3003
26.3676 29.14 11.3224
26.3404 29.1522 11.3442
26.5723 28.8114 11.1243
26.5298 28.8598 11.162
26.4889 28.9065 11.1984
26.4493 28.9518 11.2339
26.411 28.9958 11.2684
26.3738 29.0385 11.3021
26.2745 28.8579 11.3479
26.2697 28.8984 11.3574
26.265 28.9381 11.3668
26.2603 28.9772 11.3761
26.2558 29.0157 11.3853
26.2514 29.0535 11.3943
26.247 29.0908 11.4033
26.1742 29.1352 11.4643
26.181 29.1423 11.4604
26.1877 29.1495 11.4565
26.1944 29.1567 11.4527
26.2011 29.1638 11.4488
26.2078 29.171 11.445
26.2145 29.1781 11.4412
26.067 29.3991 11.5877
26.0849 29.3777 11.5706
26.103 29.3561 11.5534
26.1212 29.3343 11.5361
26.1396 29.3124 11.5187
26.1581 29.2902 11.5012
26.1769 29.2679 11.4836
25.934 29.6859 11.7397
25.9653 29.6344 11.7062
25.997 29.5826 11.6728
26.029 29.5304 11.6391
26.0616 29.4775 11.6053
26.0946 29.424 11.5712
26.1284 29.3696 11.5366
26.1258 29.7403 11.6042
26.137 29.6832 11.5853
26.1483 29.6257 11.5663
26.1598 29.5676 11.5473
26.1716 29.5087 11.5282
26.1835 29.4491 11.5089
26.1958 29.3885 11.4895
26.327 28.7003 11.2866
26.3154 28.7618 11.3039
26.3042 28.8215 11.3207
26.2933 28.8795 11.3372
26.2828 28.936 11.3533
26.2726 28.9911 11.3691
26.2627 29.0449 11.3846
26.2531 29.0975 11.3999
26.1225 29.2665 11.5239
26.1347 29.2592 11.5136
26.147 29.2518 11.5033
26.1593 29.2444 11.4929
26.1717 29.237 11.4824
26.1841 29.2296 11.472
26.1966 29.2221 11.4615
26.2092 29.2146 11.4509
25.8486 29.8499 11.8366
25.889 29.7804 11.792
25.9296 29.711 11.7477
25.9705 29.6413 11.7036
26.0119 29.5711 11.6593
26.0541 29.4999 11.6148
26.0972 29.4276 11.5698
26.1415 29.3537 11.5241
26.015 29.8139 11.7019
26.0376 29.749 11.6724
26.0606 29.6838 11.6429
26.0838 29.618 11.6134
26.1075 29.5515 11.5837
26.1316 29.484 11.5538
26.1562 29.4153 11.5235
26.1816 29.3451 11.4928
26.2515 29.6489 11.4936
26.2495 29.601 11.4865
26.2476 29.5527 11.4794
26.2457 29.504 11.4723
26.2437 29.4549 11.4652
26.2419 29.4052 11.4581
26.24 29.3549 11.451
26.2382 29.3039 11.444
26.4381 29.225 11.2845
26.4149 29.2221 11.3009
26.3919 29.2192 11.3172
26.369 29.2163 11.3334
26.3463 29.2135 11.3496
26.3237 29.2106 11.3657
26.3012 29.2078 11.3818
26.2789 29.205 11.3978
26.4822 28.5328 11.1501
26.4495 28.6197 11.1858
26.4184 28.7025 11.2201
26.3888 28.7817 11.253
26.3605 28.8576 11.2847
26.3334 28.9307 11.3154
26.3073 29.0011 11.3451
26.2822 29.0692 11.374
26.4154 28.415 11.1828
26.3908 28.5192 11.2148
26.3678 28.6178 11.2452
26.3459 28.7116 11.2743
26.3252 28.801 11.3023
26.3055 28.8867 11.3293
26.2866 28.969 11.3555
26.2686 29.0484 11.3809
26.2512 29.1251 11.4056
26.2243 29.0007 11.4063
26.2254 29.0235 11.4089
26.2266 29.0461 11.4116
26.2277 29.0685 11.4142
26.2288 29.0908 11.4168
26.23 29.1129 11.4194
26.2311 29.1348 11.422
26.2323 29.1565 11.4246
26.2334 29.1781 11.4271
26.0053 29.5374 11.6584
26.0294 29.5015 11.6338
26.0538 29.4653 11.6091
26.0784 29.4288 11.5842
26.1034 29.3919 11.5591
26.1287 29.3545 11.5338
26.1545 29.3167 11.5083
26.1807 29.2783 11.4824
26.2073 29.2392 11.4563
26.3678 29.463 11.3753
26.3531 29.4342 11.3811
26.3385 29.4053 11.3869
26.3238 29.3763 11.3928
26.309 29.3472 11.3988
26.2943 29.318 11.4048
26.2794 29.2886 11.4109
26.2645 29.2591 11.4171
26.2496 29.2294 11.4234
26.5337 28.926 11.169
26.4973 28.9591 11.2003
26.4617 28.9914 11.2309
26.4271 29.023 11.2608
26.3933 29.0538 11.2902
26.3602 29.0841 11.319
26.3279 29.1137 11.3473
26.2962 29.1428 11.3752
26.2651 29.1714 11.4026
26.2345 29.1995 11.4297
3 255 5 0 0.8276984230628629 0.8825802079153574 0.7618266342848193
3 0 2 255 0.8276984230628629 0.8825802079153574 0.7618266342848193
3 45 44 56 0.8276984230628629 0.8825802079153574 0.7618266342848193
3 29 87 30 0.8276984230628629 0.8825802079153574 0.7618266342848193
3 37 36 239 0.8276984230628629 0.8825802079153574 0.7618266342848193
3 289 281 290 0.8276984230628629 0.8825802079153574 0.7618266342848193
3 281 289 238 0.8276984230628629 0.8825802079153574 0.7618266342848193
3 148 34 147 0.8276984230628629 0.8825802079153574 0.7618266342848193
3 214 281 213 0.8276984230628629 0.8825802079153574 0.7618266342848193
3 290 281 214 0.8276984230628629 0.8825802079153574 0.7618266342848193
3 214 300 290 0.8276984230628629 0.8825802079153574 0.7618266342848193
3 67 11 10 0.8276984230628629 0.8825802079153574 0.7618266342848193
3 6 48 100 0.8276984230628629 0.8825802079153574 0.7618266342848193
3 51 48 6 0.8276984230628629 0.8825802079153574 0.7618266342848193
3 129 44 42 0.8276984230628629 0.8825802079153574 0.7618266342848193
3 56 44 129 0.8276984230628629 0.8825802079153574 0.7618266342848193
3 47 51 5 0.8276984230628629 0.8825802079153574 0.7618266342848193
3 5 255 47 0.8276984230628629 0.8825802079153574 0.7618266342848193
3 47 2 46 0.8276984230628629 0.8825802079153574 0.7618266342848193
3 47 255 2 0.8276984230628629 0.8825802079153574 0.7618266342848193
3 134 26 24 0.8276984230628629 0.8825802079153574 0.7618266342848193
3 134 23 26 0.8276984230628629 0.8825802079153574 0.7618266342848193
3 29 28 223 0.8276984230628629 0.8825802079153574 0.7618266342848193
3 223 87 29 0.8276984230628629 0.8825802079153574 0.7618266342848193
3 224 115 116 0.8276984230628629 0.8825802079153574 0.7618266342848193
3 87 223 224 0.8276984230628629 0.8825802079153574 0.7618266342848193
3 224 223 115 0.8276984230628629 0.8825802079153574 0.7618266342848193
3 116 115 142 0.8276984230628629 0.8825802079153574 0.7618266342848193
3 121 232 120 0.8276984230628629 0.8825802079153574 0.7618266342848193
3 236 198 237 0.8276984230628629 0.8825802079153574 0.7618266342848193
3 197 198 236 0.8276984230628629 0.8825802079153574 0.7618266342848193
3 192 30 87 0.8276984230628629 0.8825802079153574 0.7618266342848193
3 31 30 192 0.8276984230628629 0.8825802079153574 0.7618266342848193
3 273 19 18 0.8276984230628629 0.8825802079153574 0.7618266342848193
3 117 143 138 0.8276984230628629 0.8825802079153574 0.7618266342848193
3 98 155 296 0.8276984230628629 0.8825802079153574 0.7618266342848193
3 98 154 155 0.8276984230628629 0.8825802079153574 0.7618266342848193
3 296 155 156 0.8276984230628629 0.8825802079153574 0.7618266342848193
3 299 300 272 0.8276984230628629 0.8825802079153574 0.7618266342848193
3 155 154 54 0.8276984230628629 0.8825802079153574 0.7618266342848193
3 37 239 54 0.8276984230628629 0.8825802079153574 0.7618266342848193
3 91 239 36 0.8276984230628629 0.8825802079153574 0.7618266342848193
3 127 93 126 0.8276984230628629 0.8825802079153574 0.7618266342848193
3 94 93 127 0.8276984230628629 0.8825802079153574 0.7618266342848193
3 288 238 289 0.8276984230628629 0.8825802079153574 0.7618266342848193
3 16 178 17 0.8276984230628629 0.8825802079153574 0.7618266342848193
3 146 34 33 0.8276984230628629 0.8825802079153574 0.7618266342848193
3 146 147 34 0.8276984230628629 0.8825802079153574 0.7618266342848193
3 33 232 146 0.8276984230628629 0.8825802079153574 0.7618266342848193
3 272 300 177 0.8276984230628629 0.8825802079153574 0.7618266342848193
3 300 214 177 0.8276984230628629 0.8825802079153574 0.7618266342848193
3 296 254 253 0.8276984230628629 0.8825802079153574 0.7618266342848193
3 253 254 262 0.8276984230628629 0.8825802079153574 0.7618266342848193
3 7 6 59 0.8276984230628629 0.8825802079153574 0.7618266342848193
3 6 100 59 0.8276984230628629 0.8825802079153574 0.7618266342848193
3 99 6 5 0.8276984230628629 0.8825802079153574 0.7618266342848193
3 5 51 99 0.8276984230628629 0.8825802079153574 0.7618266342848193
3 99 51 6 0.8276984230628629 0.8825802079153574 0.7618266342848193
3 11 67 68 0.8276984230628629 0.8825802079153574 0.7618266342848193
3 263 270 269 0.8276984230628629 0.8825802079153574 0.7618266342848193
3 10 9 164 0.8276984230628629 0.8825802079153574 0.7618266342848193
3 164 103 202 0.8276984230628629 0.8825802079153574 0.7618266342848193
3 64 164 9 0.8276984230628629 0.8825802079153574 0.7618266342848193
3 103 164 64 0.8276984230628629 0.8825802079153574 0.7618266342848193
3 202 103 260 0.8276984230628629 0.8825802079153574 0.7618266342848193
3 252 203 260 0.8276984230628629 0.8825802079153574 0.7618266342848193
3 199 8 7 0.8276984230628629 0.8825802079153574 0.7618266342848193
3 7 60 199 0.8276984230628629 0.8825802079153574 0.7618266342848193
3 247 248 48 0.8276984230628629 0.8825802079153574 0.7618266342848193
3 247 45 56 0.8276984230628629 0.8825802079153574 0.7618266342848193
3 56 248 247 0.8276984230628629 0.8825802079153574 0.7618266342848193
3 48 51 247 0.8276984230628629 0.8825802079153574 0.7618266342848193
3 51 47 247 0.8276984230628629 0.8825802079153574 0.7618266342848193
3 46 45 247 0.8276984230628629 0.8825802079153574 0.7618266342848193
3 247 47 46 0.8276984230628629 0.8825802079153574 0.7618266342848193
3 52 248 49 0.8276984230628629 0.8825802079153574 0.7618266342848193
3 52 59 100 0.8276984230628629 0.8825802079153574 0.7618266342848193
3 52 100 48 0.8276984230628629 0.8825802079153574 0.7618266342848193
3 48 248 52 0.8276984230628629 0.8825802079153574 0.7618266342848193
3 52 49 7 0.8276984230628629 0.8825802079153574 0.7618266342848193
3 7 59 52 0.8276984230628629 0.8825802079153574 0.7618266342848193
3 137 143 116 0.8276984230628629 0.8825802079153574 0.7618266342848193
3 116 142 137 0.8276984230628629 0.8825802079153574 0.7618266342848193
3 137 185 143 0.8276984230628629 0.8825802079153574 0.7618266342848193
3 27 26 140 0.8276984230628629 0.8825802079153574 0.7618266342848193
3 26 23 140 0.8276984230628629 0.8825802079153574 0.7618266342848193
3 233 234 148 0.8276984230628629 0.8825802079153574 0.7618266342848193
3 148 147 233 0.8276984230628629 0.8825802079153574 0.7618266342848193
3 233 232 121 0.8276984230628629 0.8825802079153574 0.7618266342848193
3 147 146 233 0.8276984230628629 0.8825802079153574 0.7618266342848193
3 233 146 232 0.8276984230628629 0.8825802079153574 0.7618266342848193
3 194 120 193 0.8276984230628629 0.8825802079153574 0.7618266342848193
3 121 120 194 0.8276984230628629 0.8825802079153574 0.7618266342848193
3 32 120 231 0.8276984230628629 0.8825802079153574 0.7618266342848193
3 231 120 232 0.8276984230628629 0.8825802079153574 0.7618266342848193
3 33 32 231 0.8276984230628629 0.8825802079153574 0.7618266342848193
3 231 232 33 0.8276984230628629 0.8825802079153574 0.7618266342848193
3 193 120 119 0.8276984230628629 0.8825802079153574 0.7618266342848193
3 31 192 119 0.8276984230628629 0.8825802079153574 0.7618266342848193
3 119 192 193 0.8276984230628629 0.8825802079153574 0.7618266342848193
3 119 32 31 0.8276984230628629 0.8825802079153574 0.7618266342848193
3 119 120 32 0.8276984230628629 0.8825802079153574 0.7618266342848193
3 197 123 196 0.8276984230628629 0.8825802079153574 0.7618266342848193
3 234 123 235 0.8276984230628629 0.8825802079153574 0.7618266342848193
3 235 123 197 0.8276984230628629 0.8825802079153574 0.7618266342848193
3 197 236 235 0.8276984230628629 0.8825802079153574 0.7618266342848193
3 87 224 88 0.8276984230628629 0.8825802079153574 0.7618266342848193
3 88 192 87 0.8276984230628629 0.8825802079153574 0.7618266342848193
3 193 192 88 0.8276984230628629 0.8825802079153574 0.7618266342848193
3 218 138 143 0.8276984230628629 0.8825802079153574 0.7618266342848193
3 20 19 104 0.8276984230628629 0.8825802079153574 0.7618266342848193
3 105 19 273 0.8276984230628629 0.8825802079153574 0.7618266342848193
3 273 219 105 0.8276984230628629 0.8825802079153574 0.7618266342848193
3 117 138 144 0.8276984230628629 0.8825802079153574 0.7618266342848193
3 112 105 219 0.8276984230628629 0.8825802079153574 0.7618266342848193
3 112 144 138 0.8276984230628629 0.8825802079153574 0.7618266342848193
3 219 144 112 0.8276984230628629 0.8825802079153574 0.7618266342848193
3 296 253 163 0.8276984230628629 0.8825802079153574 0.7618266342848193
3 163 133 162 0.8276984230628629 0.8825802079153574 0.7618266342848193
3 163 253 252 0.8276984230628629 0.8825802079153574 0.7618266342848193
3 252 133 163 0.8276984230628629 0.8825802079153574 0.7618266342848193
3 157 156 242 0.8276984230628629 0.8825802079153574 0.7618266342848193
3 241 93 242 0.8276984230628629 0.8825802079153574 0.7618266342848193
3 93 94 242 0.8276984230628629 0.8825802079153574 0.7618266342848193
3 296 156 297 0.8276984230628629 0.8825802079153574 0.7618266342848193
3 297 156 157 0.8276984230628629 0.8825802079153574 0.7618266342848193
3 297 254 296 0.8276984230628629 0.8825802079153574 0.7618266342848193
3 271 299 272 0.8276984230628629 0.8825802079153574 0.7618266342848193
3 272 177 271 0.8276984230628629 0.8825802079153574 0.7618266342848193
3 271 270 263 0.8276984230628629 0.8825802079153574 0.7618266342848193
3 263 299 271 0.8276984230628629 0.8825802079153574 0.7618266342848193
3 263 269 206 0.8276984230628629 0.8825802079153574 0.7618266342848193
3 240 54 239 0.8276984230628629 0.8825802079153574 0.7618266342848193
3 239 91 240 0.8276984230628629 0.8825802079153574 0.7618266342848193
3 53 54 154 0.8276984230628629 0.8825802079153574 0.7618266342848193
3 38 37 53 0.8276984230628629 0.8825802079153574 0.7618266342848193
3 37 54 53 0.8276984230628629 0.8825802079153574 0.7618266342848193
3 55 156 155 0.8276984230628629 0.8825802079153574 0.7618266342848193
3 155 54 55 0.8276984230628629 0.8825802079153574 0.7618266342848193
3 241 242 55 0.8276984230628629 0.8825802079153574 0.7618266342848193
3 55 242 156 0.8276984230628629 0.8825802079153574 0.7618266342848193
3 55 240 241 0.8276984230628629 0.8825802079153574 0.7618266342848193
3 54 240 55 0.8276984230628629 0.8825802079153574 0.7618266342848193
3 282 34 148 0.8276984230628629 0.8825802079153574 0.7618266342848193
3 35 34 282 0.8276984230628629 0.8825802079153574 0.7618266342848193
3 282 283 35 0.8276984230628629 0.8825802079153574 0.7618266342848193
3 35 283 124 0.8276984230628629 0.8825802079153574 0.7618266342848193
3 124 36 35 0.8276984230628629 0.8825802079153574 0.7618266342848193
3 124 91 36 0.8276984230628629 0.8825802079153574 0.7618266342848193
3 125 91 124 0.8276984230628629 0.8825802079153574 0.7618266342848193
3 285 126 125 0.8276984230628629 0.8825802079153574 0.7618266342848193
3 128 288 289 0.8276984230628629 0.8825802079153574 0.7618266342848193
3 128 94 127 0.8276984230628629 0.8825802079153574 0.7618266342848193
3 198 222 230 0.8276984230628629 0.8825802079153574 0.7618266342848193
3 237 198 230 0.8276984230628629 0.8825802079153574 0.7618266342848193
3 230 238 237 0.8276984230628629 0.8825802079153574 0.7618266342848193
3 78 214 213 0.8276984230628629 0.8825802079153574 0.7618266342848193
3 78 177 214 0.8276984230628629 0.8825802079153574 0.7618266342848193
3 66 260 203 0.8276984230628629 0.8825802079153574 0.7618266342848193
3 264 12 11 0.8276984230628629 0.8825802079153574 0.7618266342848193
3 168 253 262 0.8276984230628629 0.8825802079153574 0.7618266342848193
3 204 253 168 0.8276984230628629 0.8825802079153574 0.7618266342848193
3 261 253 204 0.8276984230628629 0.8825802079153574 0.7618266342848193
3 252 253 261 0.8276984230628629 0.8825802079153574 0.7618266342848193
3 261 203 252 0.8276984230628629 0.8825802079153574 0.7618266342848193
3 270 174 74 0.8276984230628629 0.8825802079153574 0.7618266342848193
3 74 269 270 0.8276984230628629 0.8825802079153574 0.7618266342848193
3 158 129 42 0.8276984230628629 0.8825802079153574 0.7618266342848193
3 42 41 158 0.8276984230628629 0.8825802079153574 0.7618266342848193
3 158 41 159 0.8276984230628629 0.8825802079153574 0.7618266342848193
3 292 95 293 0.8276984230628629 0.8825802079153574 0.7618266342848193
3 40 95 292 0.8276984230628629 0.8825802079153574 0.7618266342848193
3 114 28 27 0.8276984230628629 0.8825802079153574 0.7618266342848193
3 27 140 114 0.8276984230628629 0.8825802079153574 0.7618266342848193
3 114 223 28 0.8276984230628629 0.8825802079153574 0.7618266342848193
3 115 223 114 0.8276984230628629 0.8825802079153574 0.7618266342848193
3 117 144 226 0.8276984230628629 0.8825802079153574 0.7618266342848193
3 121 194 195 0.8276984230628629 0.8825802079153574 0.7618266342848193
3 227 196 195 0.8276984230628629 0.8825802079153574 0.7618266342848193
3 122 233 121 0.8276984230628629 0.8825802079153574 0.7618266342848193
3 121 195 122 0.8276984230628629 0.8825802079153574 0.7618266342848193
3 122 195 196 0.8276984230628629 0.8825802079153574 0.7618266342848193
3 122 196 123 0.8276984230628629 0.8825802079153574 0.7618266342848193
3 122 123 234 0.8276984230628629 0.8825802079153574 0.7618266342848193
3 234 233 122 0.8276984230628629 0.8825802079153574 0.7618266342848193
3 228 196 227 0.8276984230628629 0.8825802079153574 0.7618266342848193
3 197 196 228 0.8276984230628629 0.8825802079153574 0.7618266342848193
3 149 282 148 0.8276984230628629 0.8825802079153574 0.7618266342848193
3 283 282 149 0.8276984230628629 0.8825802079153574 0.7618266342848193
3 148 234 149 0.8276984230628629 0.8825802079153574 0.7618266342848193
3 234 235 149 0.8276984230628629 0.8825802079153574 0.7618266342848193
3 225 224 116 0.8276984230628629 0.8825802079153574 0.7618266342848193
3 225 88 224 0.8276984230628629 0.8825802079153574 0.7618266342848193
3 225 143 117 0.8276984230628629 0.8825802079153574 0.7618266342848193
3 116 143 225 0.8276984230628629 0.8825802079153574 0.7618266342848193
3 111 218 143 0.8276984230628629 0.8825802079153574 0.7618266342848193
3 111 185 20 0.8276984230628629 0.8825802079153574 0.7618266342848193
3 143 185 111 0.8276984230628629 0.8825802079153574 0.7618266342848193
3 138 218 186 0.8276984230628629 0.8825802079153574 0.7618266342848193
3 186 104 138 0.8276984230628629 0.8825802079153574 0.7618266342848193
3 218 111 186 0.8276984230628629 0.8825802079153574 0.7618266342848193
3 20 104 186 0.8276984230628629 0.8825802079153574 0.7618266342848193
3 186 111 20 0.8276984230628629 0.8825802079153574 0.7618266342848193
3 139 144 219 0.8276984230628629 0.8825802079153574 0.7618266342848193
3 139 219 273 0.8276984230628629 0.8825802079153574 0.7618266342848193
3 187 104 19 0.8276984230628629 0.8825802079153574 0.7618266342848193
3 19 105 187 0.8276984230628629 0.8825802079153574 0.7618266342848193
3 105 112 187 0.8276984230628629 0.8825802079153574 0.7618266342848193
3 138 104 187 0.8276984230628629 0.8825802079153574 0.7618266342848193
3 187 112 138 0.8276984230628629 0.8825802079153574 0.7618266342848193
3 294 162 293 0.8276984230628629 0.8825802079153574 0.7618266342848193
3 293 95 96 0.8276984230628629 0.8825802079153574 0.7618266342848193
3 96 294 293 0.8276984230628629 0.8825802079153574 0.7618266342848193
3 97 294 96 0.8276984230628629 0.8825802079153574 0.7618266342848193
3 97 96 152 0.8276984230628629 0.8825802079153574 0.7618266342848193
3 94 128 244 0.8276984230628629 0.8825802079153574 0.7618266342848193
3 298 297 157 0.8276984230628629 0.8825802079153574 0.7618266342848193
3 157 244 298 0.8276984230628629 0.8825802079153574 0.7618266342848193
3 298 299 263 0.8276984230628629 0.8825802079153574 0.7618266342848193
3 263 206 298 0.8276984230628629 0.8825802079153574 0.7618266342848193
3 254 297 298 0.8276984230628629 0.8825802079153574 0.7618266342848193
3 298 206 254 0.8276984230628629 0.8825802079153574 0.7618266342848193
3 175 78 174 0.8276984230628629 0.8825802079153574 0.7618266342848193
3 175 174 270 0.8276984230628629 0.8825802079153574 0.7618266342848193
3 270 271 175 0.8276984230628629 0.8825802079153574 0.7618266342848193
3 262 254 169 0.8276984230628629 0.8825802079153574 0.7618266342848193
3 267 266 169 0.8276984230628629 0.8825802079153574 0.7618266342848193
3 169 266 70 0.8276984230628629 0.8825802079153574 0.7618266342848193
3 92 240 91 0.8276984230628629 0.8825802079153574 0.7618266342848193
3 92 126 93 0.8276984230628629 0.8825802079153574 0.7618266342848193
3 92 93 241 0.8276984230628629 0.8825802079153574 0.7618266342848193
3 241 240 92 0.8276984230628629 0.8825802079153574 0.7618266342848193
3 92 91 125 0.8276984230628629 0.8825802079153574 0.7618266342848193
3 125 126 92 0.8276984230628629 0.8825802079153574 0.7618266342848193
3 125 124 284 0.8276984230628629 0.8825802079153574 0.7618266342848193
3 284 285 125 0.8276984230628629 0.8825802079153574 0.7618266342848193
3 284 124 283 0.8276984230628629 0.8825802079153574 0.7618266342848193
3 283 149 284 0.8276984230628629 0.8825802079153574 0.7618266342848193
3 127 126 286 0.8276984230628629 0.8825802079153574 0.7618266342848193
3 126 285 286 0.8276984230628629 0.8825802079153574 0.7618266342848193
3 281 238 280 0.8276984230628629 0.8825802079153574 0.7618266342848193
3 238 230 280 0.8276984230628629 0.8825802079153574 0.7618266342848193
3 75 14 13 0.8276984230628629 0.8825802079153574 0.7618266342848193
3 17 178 85 0.8276984230628629 0.8825802079153574 0.7618266342848193
3 178 16 179 0.8276984230628629 0.8825802079153574 0.7618266342848193
3 179 85 178 0.8276984230628629 0.8825802079153574 0.7618266342848193
3 212 78 213 0.8276984230628629 0.8825802079153574 0.7618266342848193
3 213 281 212 0.8276984230628629 0.8825802079153574 0.7618266342848193
3 77 211 76 0.8276984230628629 0.8825802079153574 0.7618266342848193
3 77 212 211 0.8276984230628629 0.8825802079153574 0.7618266342848193
3 78 212 77 0.8276984230628629 0.8825802079153574 0.7618266342848193
3 10 164 165 0.8276984230628629 0.8825802079153574 0.7618266342848193
3 165 67 10 0.8276984230628629 0.8825802079153574 0.7618266342848193
3 165 66 67 0.8276984230628629 0.8825802079153574 0.7618266342848193
3 260 66 165 0.8276984230628629 0.8825802079153574 0.7618266342848193
3 205 168 262 0.8276984230628629 0.8825802079153574 0.7618266342848193
3 70 168 205 0.8276984230628629 0.8825802079153574 0.7618266342848193
3 262 169 205 0.8276984230628629 0.8825802079153574 0.7618266342848193
3 205 169 70 0.8276984230628629 0.8825802079153574 0.7618266342848193
3 11 68 69 0.8276984230628629 0.8825802079153574 0.7618266342848193
3 69 264 11 0.8276984230628629 0.8825802079153574 0.7618266342848193
3 204 168 69 0.8276984230628629 0.8825802079153574 0.7618266342848193
3 70 264 69 0.8276984230628629 0.8825802079153574 0.7618266342848193
3 69 168 70 0.8276984230628629 0.8825802079153574 0.7618266342848193
3 12 264 265 0.8276984230628629 0.8825802079153574 0.7618266342848193
3 265 266 12 0.8276984230628629 0.8825802079153574 0.7618266342848193
3 265 264 70 0.8276984230628629 0.8825802079153574 0.7618266342848193
3 70 266 265 0.8276984230628629 0.8825802079153574 0.7618266342848193
3 167 261 204 0.8276984230628629 0.8825802079153574 0.7618266342848193
3 204 69 167 0.8276984230628629 0.8825802079153574 0.7618266342848193
3 167 69 68 0.8276984230628629 0.8825802079153574 0.7618266342848193
3 203 261 166 0.8276984230628629 0.8825802079153574 0.7618266342848193
3 166 66 203 0.8276984230628629 0.8825802079153574 0.7618266342848193
3 166 167 68 0.8276984230628629 0.8825802079153574 0.7618266342848193
3 261 167 166 0.8276984230628629 0.8825802079153574 0.7618266342848193
3 166 68 67 0.8276984230628629 0.8825802079153574 0.7618266342848193
3 67 66 166 0.8276984230628629 0.8825802079153574 0.7618266342848193
3 172 77 76 0.8276984230628629 0.8825802079153574 0.7618266342848193
3 8 199 258 0.8276984230628629 0.8825802079153574 0.7618266342848193
3 57 248 56 0.8276984230628629 0.8825802079153574 0.7618266342848193
3 56 129 57 0.8276984230628629 0.8825802079153574 0.7618266342848193
3 129 158 130 0.8276984230628629 0.8825802079153574 0.7618266342848193
3 130 57 129 0.8276984230628629 0.8825802079153574 0.7618266342848193
3 58 57 130 0.8276984230628629 0.8825802079153574 0.7618266342848193
3 130 158 159 0.8276984230628629 0.8825802079153574 0.7618266342848193
3 159 41 291 0.8276984230628629 0.8825802079153574 0.7618266342848193
3 291 41 40 0.8276984230628629 0.8825802079153574 0.7618266342848193
3 40 292 291 0.8276984230628629 0.8825802079153574 0.7618266342848193
3 20 185 21 0.8276984230628629 0.8825802079153574 0.7618266342848193
3 135 140 23 0.8276984230628629 0.8825802079153574 0.7618266342848193
3 227 195 90 0.8276984230628629 0.8825802079153574 0.7618266342848193
3 90 195 194 0.8276984230628629 0.8825802079153574 0.7618266342848193
3 89 194 193 0.8276984230628629 0.8825802079153574 0.7618266342848193
3 193 88 89 0.8276984230628629 0.8825802079153574 0.7618266342848193
3 88 225 89 0.8276984230628629 0.8825802079153574 0.7618266342848193
3 117 226 89 0.8276984230628629 0.8825802079153574 0.7618266342848193
3 89 225 117 0.8276984230628629 0.8825802079153574 0.7618266342848193
3 89 90 194 0.8276984230628629 0.8825802079153574 0.7618266342848193
3 226 90 89 0.8276984230628629 0.8825802079153574 0.7618266342848193
3 17 85 276 0.8276984230628629 0.8825802079153574 0.7618266342848193
3 220 274 107 0.8276984230628629 0.8825802079153574 0.7618266342848193
3 83 18 17 0.8276984230628629 0.8825802079153574 0.7618266342848193
3 275 107 83 0.8276984230628629 0.8825802079153574 0.7618266342848193
3 83 274 18 0.8276984230628629 0.8825802079153574 0.7618266342848193
3 83 107 274 0.8276984230628629 0.8825802079153574 0.7618266342848193
3 145 228 227 0.8276984230628629 0.8825802079153574 0.7618266342848193
3 144 139 118 0.8276984230628629 0.8825802079153574 0.7618266342848193
3 118 226 144 0.8276984230628629 0.8825802079153574 0.7618266342848193
3 118 145 227 0.8276984230628629 0.8825802079153574 0.7618266342848193
3 139 145 118 0.8276984230628629 0.8825802079153574 0.7618266342848193
3 227 90 118 0.8276984230628629 0.8825802079153574 0.7618266342848193
3 118 90 226 0.8276984230628629 0.8825802079153574 0.7618266342848193
3 273 18 106 0.8276984230628629 0.8825802079153574 0.7618266342848193
3 18 274 106 0.8276984230628629 0.8825802079153574 0.7618266342848193
3 295 97 98 0.8276984230628629 0.8825802079153574 0.7618266342848193
3 295 294 97 0.8276984230628629 0.8825802079153574 0.7618266342848193
3 295 98 296 0.8276984230628629 0.8825802079153574 0.7618266342848193
3 296 163 295 0.8276984230628629 0.8825802079153574 0.7618266342848193
3 295 163 162 0.8276984230628629 0.8825802079153574 0.7618266342848193
3 162 294 295 0.8276984230628629 0.8825802079153574 0.7618266342848193
3 97 152 153 0.8276984230628629 0.8825802079153574 0.7618266342848193
3 154 98 153 0.8276984230628629 0.8825802079153574 0.7618266342848193
3 98 97 153 0.8276984230628629 0.8825802079153574 0.7618266342848193
3 153 53 154 0.8276984230628629 0.8825802079153574 0.7618266342848193
3 38 53 153 0.8276984230628629 0.8825802079153574 0.7618266342848193
3 153 152 38 0.8276984230628629 0.8825802079153574 0.7618266342848193
3 39 96 95 0.8276984230628629 0.8825802079153574 0.7618266342848193
3 39 152 96 0.8276984230628629 0.8825802079153574 0.7618266342848193
3 39 95 40 0.8276984230628629 0.8825802079153574 0.7618266342848193
3 38 152 39 0.8276984230628629 0.8825802079153574 0.7618266342848193
3 157 242 243 0.8276984230628629 0.8825802079153574 0.7618266342848193
3 243 244 157 0.8276984230628629 0.8825802079153574 0.7618266342848193
3 243 242 94 0.8276984230628629 0.8825802079153574 0.7618266342848193
3 94 244 243 0.8276984230628629 0.8825802079153574 0.7618266342848193
3 246 289 290 0.8276984230628629 0.8825802079153574 0.7618266342848193
3 290 300 246 0.8276984230628629 0.8825802079153574 0.7618266342848193
3 300 299 246 0.8276984230628629 0.8825802079153574 0.7618266342848193
3 177 78 176 0.8276984230628629 0.8825802079153574 0.7618266342848193
3 78 175 176 0.8276984230628629 0.8825802079153574 0.7618266342848193
3 176 271 177 0.8276984230628629 0.8825802079153574 0.7618266342848193
3 176 175 271 0.8276984230628629 0.8825802079153574 0.7618266342848193
3 269 74 73 0.8276984230628629 0.8825802079153574 0.7618266342848193
3 73 268 269 0.8276984230628629 0.8825802079153574 0.7618266342848193
3 73 74 13 0.8276984230628629 0.8825802079153574 0.7618266342848193
3 254 206 170 0.8276984230628629 0.8825802079153574 0.7618266342848193
3 170 169 254 0.8276984230628629 0.8825802079153574 0.7618266342848193
3 267 169 170 0.8276984230628629 0.8825802079153574 0.7618266342848193
3 170 268 267 0.8276984230628629 0.8825802079153574 0.7618266342848193
3 170 206 269 0.8276984230628629 0.8825802079153574 0.7618266342848193
3 269 268 170 0.8276984230628629 0.8825802079153574 0.7618266342848193
3 285 284 150 0.8276984230628629 0.8825802079153574 0.7618266342848193
3 150 284 149 0.8276984230628629 0.8825802079153574 0.7618266342848193
3 150 235 236 0.8276984230628629 0.8825802079153574 0.7618266342848193
3 150 149 235 0.8276984230628629 0.8825802079153574 0.7618266342848193
3 288 128 287 0.8276984230628629 0.8825802079153574 0.7618266342848193
3 287 128 127 0.8276984230628629 0.8825802079153574 0.7618266342848193
3 127 286 287 0.8276984230628629 0.8825802079153574 0.7618266342848193
3 237 238 287 0.8276984230628629 0.8825802079153574 0.7618266342848193
3 238 288 287 0.8276984230628629 0.8825802079153574 0.7618266342848193
3 209 14 210 0.8276984230628629 0.8825802079153574 0.7618266342848193
3 14 75 210 0.8276984230628629 0.8825802079153574 0.7618266342848193
3 76 211 210 0.8276984230628629 0.8825802079153574 0.7618266342848193
3 210 75 76 0.8276984230628629 0.8825802079153574 0.7618266342848193
3 80 15 81 0.8276984230628629 0.8825802079153574 0.7618266342848193
3 81 181 80 0.8276984230628629 0.8825802079153574 0.7618266342848193
3 86 191 277 0.8276984230628629 0.8825802079153574 0.7618266342848193
3 277 179 86 0.8276984230628629 0.8825802079153574 0.7618266342848193
3 85 179 277 0.8276984230628629 0.8825802079153574 0.7618266342848193
3 180 191 86 0.8276984230628629 0.8825802079153574 0.7618266342848193
3 180 179 16 0.8276984230628629 0.8825802079153574 0.7618266342848193
3 86 179 180 0.8276984230628629 0.8825802079153574 0.7618266342848193
3 211 212 184 0.8276984230628629 0.8825802079153574 0.7618266342848193
3 184 210 211 0.8276984230628629 0.8825802079153574 0.7618266342848193
3 281 280 184 0.8276984230628629 0.8825802079153574 0.7618266342848193
3 184 212 281 0.8276984230628629 0.8825802079153574 0.7618266342848193
3 209 210 184 0.8276984230628629 0.8825802079153574 0.7618266342848193
3 184 183 209 0.8276984230628629 0.8825802079153574 0.7618266342848193
3 280 183 184 0.8276984230628629 0.8825802079153574 0.7618266342848193
3 65 164 202 0.8276984230628629 0.8825802079153574 0.7618266342848193
3 65 165 164 0.8276984230628629 0.8825802079153574 0.7618266342848193
3 202 260 65 0.8276984230628629 0.8825802079153574 0.7618266342848193
3 260 165 65 0.8276984230628629 0.8825802079153574 0.7618266342848193
3 13 74 171 0.8276984230628629 0.8825802079153574 0.7618266342848193
3 74 172 171 0.8276984230628629 0.8825802079153574 0.7618266342848193
3 171 172 76 0.8276984230628629 0.8825802079153574 0.7618266342848193
3 171 75 13 0.8276984230628629 0.8825802079153574 0.7618266342848193
3 76 75 171 0.8276984230628629 0.8825802079153574 0.7618266342848193
3 173 74 174 0.8276984230628629 0.8825802079153574 0.7618266342848193
3 173 172 74 0.8276984230628629 0.8825802079153574 0.7618266342848193
3 77 172 173 0.8276984230628629 0.8825802079153574 0.7618266342848193
3 174 78 173 0.8276984230628629 0.8825802079153574 0.7618266342848193
3 78 77 173 0.8276984230628629 0.8825802079153574 0.7618266342848193
3 249 57 58 0.8276984230628629 0.8825802079153574 0.7618266342848193
3 49 248 249 0.8276984230628629 0.8825802079153574 0.7618266342848193
3 248 57 249 0.8276984230628629 0.8825802079153574 0.7618266342848193
3 101 199 60 0.8276984230628629 0.8825802079153574 0.7618266342848193
3 101 258 199 0.8276984230628629 0.8825802079153574 0.7618266342848193
3 7 49 101 0.8276984230628629 0.8825802079153574 0.7618266342848193
3 101 60 7 0.8276984230628629 0.8825802079153574 0.7618266342848193
3 49 249 101 0.8276984230628629 0.8825802079153574 0.7618266342848193
3 101 249 258 0.8276984230628629 0.8825802079153574 0.7618266342848193
3 131 130 159 0.8276984230628629 0.8825802079153574 0.7618266342848193
3 58 130 131 0.8276984230628629 0.8825802079153574 0.7618266342848193
3 161 292 293 0.8276984230628629 0.8825802079153574 0.7618266342848193
3 133 132 161 0.8276984230628629 0.8825802079153574 0.7618266342848193
3 293 162 161 0.8276984230628629 0.8825802079153574 0.7618266342848193
3 162 133 161 0.8276984230628629 0.8825802079153574 0.7618266342848193
3 185 137 110 0.8276984230628629 0.8825802079153574 0.7618266342848193
3 110 21 185 0.8276984230628629 0.8825802079153574 0.7618266342848193
3 141 142 115 0.8276984230628629 0.8825802079153574 0.7618266342848193
3 115 114 141 0.8276984230628629 0.8825802079153574 0.7618266342848193
3 140 22 141 0.8276984230628629 0.8825802079153574 0.7618266342848193
3 141 114 140 0.8276984230628629 0.8825802079153574 0.7618266342848193
3 215 22 140 0.8276984230628629 0.8825802079153574 0.7618266342848193
3 140 135 215 0.8276984230628629 0.8825802079153574 0.7618266342848193
3 23 22 215 0.8276984230628629 0.8825802079153574 0.7618266342848193
3 215 135 23 0.8276984230628629 0.8825802079153574 0.7618266342848193
3 17 276 84 0.8276984230628629 0.8825802079153574 0.7618266342848193
3 84 83 17 0.8276984230628629 0.8825802079153574 0.7618266342848193
3 275 83 84 0.8276984230628629 0.8825802079153574 0.7618266342848193
3 221 228 108 0.8276984230628629 0.8825802079153574 0.7618266342848193
3 275 84 108 0.8276984230628629 0.8825802079153574 0.7618266342848193
3 108 84 276 0.8276984230628629 0.8825802079153574 0.7618266342848193
3 228 145 189 0.8276984230628629 0.8825802079153574 0.7618266342848193
3 189 108 228 0.8276984230628629 0.8825802079153574 0.7618266342848193
3 220 107 189 0.8276984230628629 0.8825802079153574 0.7618266342848193
3 189 145 220 0.8276984230628629 0.8825802079153574 0.7618266342848193
3 189 107 275 0.8276984230628629 0.8825802079153574 0.7618266342848193
3 275 108 189 0.8276984230628629 0.8825802079153574 0.7618266342848193
3 188 139 273 0.8276984230628629 0.8825802079153574 0.7618266342848193
3 273 106 188 0.8276984230628629 0.8825802079153574 0.7618266342848193
3 245 298 244 0.8276984230628629 0.8825802079153574 0.7618266342848193
3 289 246 245 0.8276984230628629 0.8825802079153574 0.7618266342848193
3 299 298 245 0.8276984230628629 0.8825802079153574 0.7618266342848193
3 245 246 299 0.8276984230628629 0.8825802079153574 0.7618266342848193
3 245 128 289 0.8276984230628629 0.8825802079153574 0.7618266342848193
3 245 244 128 0.8276984230628629 0.8825802079153574 0.7618266342848193
3 267 268 72 0.8276984230628629 0.8825802079153574 0.7618266342848193
3 268 73 72 0.8276984230628629 0.8825802079153574 0.7618266342848193
3 72 73 13 0.8276984230628629 0.8825802079153574 0.7618266342848193
3 237 287 151 0.8276984230628629 0.8825802079153574 0.7618266342848193
3 151 287 286 0.8276984230628629 0.8825802079153574 0.7618266342848193
3 151 236 237 0.8276984230628629 0.8825802079153574 0.7618266342848193
3 151 150 236 0.8276984230628629 0.8825802079153574 0.7618266342848193
3 151 286 285 0.8276984230628629 0.8825802079153574 0.7618266342848193
3 285 150 151 0.8276984230628629 0.8825802079153574 0.7618266342848193
3 209 183 82 0.8276984230628629 0.8825802079153574 0.7618266342848193
3 279 230 222 0.8276984230628629 0.8825802079153574 0.7618266342848193
3 279 280 230 0.8276984230628629 0.8825802079153574 0.7618266342848193
3 279 183 280 0.8276984230628629 0.8825802079153574 0.7618266342848193
3 16 15 79 0.8276984230628629 0.8825802079153574 0.7618266342848193
3 15 80 79 0.8276984230628629 0.8825802079153574 0.7618266342848193
3 79 180 16 0.8276984230628629 0.8825802079153574 0.7618266342848193
3 79 80 181 0.8276984230628629 0.8825802079153574 0.7618266342848193
3 181 180 79 0.8276984230628629 0.8825802079153574 0.7618266342848193
3 190 277 221 0.8276984230628629 0.8825802079153574 0.7618266342848193
3 85 277 190 0.8276984230628629 0.8825802079153574 0.7618266342848193
3 190 276 85 0.8276984230628629 0.8825802079153574 0.7618266342848193
3 221 108 190 0.8276984230628629 0.8825802079153574 0.7618266342848193
3 190 108 276 0.8276984230628629 0.8825802079153574 0.7618266342848193
3 229 277 191 0.8276984230628629 0.8825802079153574 0.7618266342848193
3 229 198 197 0.8276984230628629 0.8825802079153574 0.7618266342848193
3 221 277 229 0.8276984230628629 0.8825802079153574 0.7618266342848193
3 229 222 198 0.8276984230628629 0.8825802079153574 0.7618266342848193
3 229 191 222 0.8276984230628629 0.8825802079153574 0.7618266342848193
3 197 228 229 0.8276984230628629 0.8825802079153574 0.7618266342848193
3 229 228 221 0.8276984230628629 0.8825802079153574 0.7618266342848193
3 278 180 181 0.8276984230628629 0.8825802079153574 0.7618266342848193
3 191 180 278 0.8276984230628629 0.8825802079153574 0.7618266342848193
3 278 181 222 0.8276984230628629 0.8825802079153574 0.7618266342848193
3 222 191 278 0.8276984230628629 0.8825802079153574 0.7618266342848193
3 250 249 58 0.8276984230628629 0.8825802079153574 0.7618266342848193
3 258 249 250 0.8276984230628629 0.8825802079153574 0.7618266342848193
3 58 131 250 0.8276984230628629 0.8825802079153574 0.7618266342848193
3 250 131 132 0.8276984230628629 0.8825802079153574 0.7618266342848193
3 8 258 61 0.8276984230628629 0.8825802079153574 0.7618266342848193
3 258 250 61 0.8276984230628629 0.8825802079153574 0.7618266342848193
3 61 250 102 0.8276984230628629 0.8825802079153574 0.7618266342848193
3 201 64 9 0.8276984230628629 0.8825802079153574 0.7618266342848193
3 160 131 159 0.8276984230628629 0.8825802079153574 0.7618266342848193
3 132 131 160 0.8276984230628629 0.8825802079153574 0.7618266342848193
3 159 291 160 0.8276984230628629 0.8825802079153574 0.7618266342848193
3 160 291 292 0.8276984230628629 0.8825802079153574 0.7618266342848193
3 292 161 160 0.8276984230628629 0.8825802079153574 0.7618266342848193
3 160 161 132 0.8276984230628629 0.8825802079153574 0.7618266342848193
3 217 137 142 0.8276984230628629 0.8825802079153574 0.7618266342848193
3 217 110 137 0.8276984230628629 0.8825802079153574 0.7618266342848193
3 142 21 217 0.8276984230628629 0.8825802079153574 0.7618266342848193
3 21 110 217 0.8276984230628629 0.8825802079153574 0.7618266342848193
3 109 21 142 0.8276984230628629 0.8825802079153574 0.7618266342848193
3 142 141 109 0.8276984230628629 0.8825802079153574 0.7618266342848193
3 22 21 109 0.8276984230628629 0.8825802079153574 0.7618266342848193
3 113 145 139 0.8276984230628629 0.8825802079153574 0.7618266342848193
3 139 188 113 0.8276984230628629 0.8825802079153574 0.7618266342848193
3 220 145 113 0.8276984230628629 0.8825802079153574 0.7618266342848193
3 113 188 106 0.8276984230628629 0.8825802079153574 0.7618266342848193
3 113 274 220 0.8276984230628629 0.8825802079153574 0.7618266342848193
3 113 106 274 0.8276984230628629 0.8825802079153574 0.7618266342848193
3 267 72 71 0.8276984230628629 0.8825802079153574 0.7618266342848193
3 12 266 71 0.8276984230628629 0.8825802079153574 0.7618266342848193
3 71 266 267 0.8276984230628629 0.8825802079153574 0.7618266342848193
3 13 12 71 0.8276984230628629 0.8825802079153574 0.7618266342848193
3 71 72 13 0.8276984230628629 0.8825802079153574 0.7618266342848193
3 209 82 208 0.8276984230628629 0.8825802079153574 0.7618266342848193
3 208 14 209 0.8276984230628629 0.8825802079153574 0.7618266342848193
3 222 181 182 0.8276984230628629 0.8825802079153574 0.7618266342848193
3 182 279 222 0.8276984230628629 0.8825802079153574 0.7618266342848193
3 182 181 81 0.8276984230628629 0.8825802079153574 0.7618266342848193
3 81 82 182 0.8276984230628629 0.8825802079153574 0.7618266342848193
3 182 82 183 0.8276984230628629 0.8825802079153574 0.7618266342848193
3 183 279 182 0.8276984230628629 0.8825802079153574 0.7618266342848193
3 251 250 132 0.8276984230628629 0.8825802079153574 0.7618266342848193
3 252 260 251 0.8276984230628629 0.8825802079153574 0.7618266342848193
3 251 260 103 0.8276984230628629 0.8825802079153574 0.7618266342848193
3 251 133 252 0.8276984230628629 0.8825802079153574 0.7618266342848193
3 251 132 133 0.8276984230628629 0.8825802079153574 0.7618266342848193
3 8 61 200 0.8276984230628629 0.8825802079153574 0.7618266342848193
3 200 61 102 0.8276984230628629 0.8825802079153574 0.7618266342848193
3 216 141 22 0.8276984230628629 0.8825802079153574 0.7618266342848193
3 22 109 216 0.8276984230628629 0.8825802079153574 0.7618266342848193
3 207 208 82 0.8276984230628629 0.8825802079153574 0.7618266342848193
3 81 15 207 0.8276984230628629 0.8825802079153574 0.7618266342848193
3 207 82 81 0.8276984230628629 0.8825802079153574 0.7618266342848193
3 207 15 14 0.8276984230628629 0.8825802079153574 0.7618266342848193
3 14 208 207 0.8276984230628629 0.8825802079153574 0.7618266342848193
3 62 251 103 0.8276984230628629 0.8825802079153574 0.7618266342848193
3 103 64 62 0.8276984230628629 0.8825802079153574 0.7618266342848193
3 64 201 62 0.8276984230628629 0.8825802079153574 0.7618266342848193
3 63 200 102 0.8276984230628629 0.8825802079153574 0.7618266342848193
3 63 201 9 0.8276984230628629 0.8825802079153574 0.7618266342848193
3 63 9 8 0.8276984230628629 0.8825802079153574 0.7618266342848193
3 8 200 63 0.8276984230628629 0.8825802079153574 0.7618266342848193
3 136 109 141 0.8276984230628629 0.8825802079153574 0.7618266342848193
3 141 216 136 0.8276984230628629 0.8825802079153574 0.7618266342848193
3 136 216 109 0.8276984230628629 0.8825802079153574 0.7618266342848193
3 259 63 102 0.8276984230628629 0.8825802079153574 0.7618266342848193
3 201 63 259 0.8276984230628629 0.8825802079153574 0.7618266342848193
3 259 62 201 0.8276984230628629 0.8825802079153574 0.7618266342848193
3 251 62 259 0.8276984230628629 0.8825802079153574 0.7618266342848193
3 102 250 259 0.8276984230628629 0.8825802079153574 0.7618266342848193
3 250 251 259 0.8276984230628629 0.8825802079153574 0.7618266342848193
