OFF
11 8 0


31.1837 32.4526 8.8471
31.1837 32.4526 8.8471
31.1931 32.4503 8.851
31.1837 32.4526 8.8471
31.1837 32.4526 8.8471
31.1792 32.4322 8.8615
31.2025 32.448 8.8549
31.1886 32.4299 8.8654
31.1747 32.4117 8.876
31.1838 32.4454 8.8526
31.1838 32.4382 8.858
3 7 5 8 0.6442896270557684 0.6157700269926625 0.05645118543903782
3 10 7 6 0.6442896270557684 0.6157700269926625 0.05645118543903782
3 5 7 10 0.6442896270557684 0.6157700269926625 0.05645118543903782
3 2 10 6 0.6442896270557684 0.6157700269926625 0.05645118543903782
3 0 5 9 0.6442896270557684 0.6157700269926625 0.05645118543903782
3 5 10 9 0.6442896270557684 0.6157700269926625 0.05645118543903782
3 9 2 0 0.6442896270557684 0.6157700269926625 0.05645118543903782
3 10 2 9 0.6442896270557684 0.6157700269926625 0.05645118543903782
