OFF
14 8 0


30.4853 30.6844 11.4925
30.4853 30.6844 11.4925
30.4748 30.6783 11.4392
30.4642 30.6722 11.3859
30.4853 30.6844 11.4925
30.4853 30.6844 11.4925
30.3623 30.7061 11.428
30.277 30.7215 11.3853
30.1911 30.7373 11.344
30.065 30.7611 11.2865
30.065 30.7611 11.2865
30.1774 30.7341 11.3029
30.2591 30.7143 11.3132
30.3408 30.6942 11.3223
3 6 13 3 0.16073961419288718 0.6345689302564309 0.13382638518194923
3 11 8 9 0.16073961419288718 0.6345689302564309 0.13382638518194923
3 7 13 6 0.16073961419288718 0.6345689302564309 0.13382638518194923
3 0 6 2 0.16073961419288718 0.6345689302564309 0.13382638518194923
3 6 3 2 0.16073961419288718 0.6345689302564309 0.13382638518194923
3 13 7 12 0.16073961419288718 0.6345689302564309 0.13382638518194923
3 12 7 8 0.16073961419288718 0.6345689302564309 0.13382638518194923
3 8 11 12 0.16073961419288718 0.6345689302564309 0.13382638518194923
