OFF
563 1044 0


32.0893 30.0334 7.2459
32.0893 30.0334 7.2459
32.1558 29.9203 7.3198
32.2108 29.8277 7.3813
32.2583 29.7484 7.4346
32.3009 29.6778 7.4825
32.3401 29.6131 7.5268
32.3774 29.5518 7.5691
32.4139 29.4922 7.6104
32.4504 29.4327 7.6519
32.4879 29.3717 7.6946
32.5276 29.3075 7.7399
32.5708 29.238 7.7891
32.6191 29.1603 7.8444
32.6753 29.0703 7.9088
32.7431 28.962 7.9867
32.6006 29.0266 7.9347
32.4792 29.081 7.891
32.373 29.1281 7.8535
32.2781 29.1698 7.8205
32.1917 29.2074 7.7909
32.1115 29.2418 7.7639
32.0359 29.274 7.739
31.9636 29.3044 7.7155
31.8933 29.3336 7.6932
31.8239 29.3619 7.6717
31.7546 29.3899 7.6507
31.6843 29.4178 7.63
31.6118 29.446 7.6092
31.5359 29.475 7.5883
31.4549 29.5051 7.567
31.3669 29.5369 7.5451
31.2688 29.5709 7.5222
31.1564 29.6082 7.4983
31.0225 29.6497 7.4733
30.8538 29.6975 7.4476
30.8538 29.6975 7.4476
30.8538 29.6975 7.4476
30.8275 29.7456 7.4168
30.8012 29.7938 7.3863
30.8012 29.7938 7.3863
30.7878 29.9017 7.3168
30.779 29.9978 7.256
30.7737 30.0854 7.2017
30.7712 30.167 7.152
30.7709 30.2447 7.1055
30.7728 30.3203 7.061
30.7765 30.3953 7.0176
30.7823 30.4713 6.9744
30.7903 30.55 6.9305
30.8009 30.6331 6.8848
30.8146 30.723 6.8364
30.8324 30.8225 6.7837
30.8557 30.9356 6.725
30.8557 30.9356 6.725
30.9628 30.858 6.7604
31.0481 30.7979 6.7889
31.1222 30.7472 6.8139
31.1915 30.7008 6.8374
31.2614 30.6553 6.8612
31.3369 30.6073 6.8872
31.4251 30.5527 6.9178
31.5377 30.4854 6.9572
31.6434 30.3999 7.0084
31.7204 30.3372 7.0471
31.7852 30.2842 7.0805
31.8465 30.234 7.1126
31.9108 30.1811 7.1471
31.9867 30.1184 7.1886
32.0893 30.0334 7.2459
32.0515 30.0179 7.2534
32.3034 29.5807 7.5458
32.2338 29.608 7.5242
32.1683 29.6338 7.5038
32.365 29.4754 7.6187
32.2857 29.5152 7.588
32.2118 29.5523 7.5596
32.4292 29.3662 7.695
32.3391 29.42 7.6541
32.256 29.4696 7.6166
31.9968 29.3291 7.6998
31.9598 29.3811 7.663
31.9248 29.4305 7.6283
31.8693 29.3802 7.6605
31.8464 29.4249 7.6294
31.8244 29.4677 7.5998
31.7439 29.4292 7.6236
31.7335 29.4673 7.5974
31.7234 29.5041 7.5722
30.8815 29.751 7.4107
30.9352 29.7567 7.4048
30.9889 29.7626 7.399
32.2715 29.6354 7.5083
32.2067 29.6566 7.491
32.1453 29.6767 7.4746
32.087 29.6959 7.4592
32.504 29.2396 7.7843
32.4001 29.3112 7.7304
32.3059 29.3763 7.6816
32.2197 29.4359 7.6373
32.2094 29.2413 7.7684
32.1459 29.3074 7.7206
32.087 29.3688 7.6764
32.0321 29.426 7.6354
32.0637 29.3018 7.721
32.0188 29.358 7.6809
31.9766 29.411 7.6434
31.9367 29.461 7.6081
31.6133 29.4787 7.587
31.6147 29.5106 7.5654
31.616 29.5418 7.5443
31.6173 29.5723 7.5238
32.2377 29.6936 7.4687
32.1777 29.7086 7.4557
32.1206 29.7229 7.4434
32.0661 29.7367 7.4318
32.014 29.7499 7.4207
32.603 29.0726 7.9032
32.4794 29.1703 7.83
32.3694 29.2574 7.7651
32.2706 29.3357 7.7071
32.1811 29.4068 7.655
32.4844 29.1241 7.8617
32.3805 29.2115 7.7968
32.2868 29.2904 7.7386
32.2017 29.3622 7.686
32.1239 29.4279 7.6381
32.2913 29.2068 7.7957
32.2165 29.2789 7.7431
32.1477 29.3453 7.695
32.0841 29.4067 7.6506
32.025 29.4638 7.6097
31.4684 29.5313 7.5493
31.4817 29.5572 7.5319
31.4947 29.5827 7.5148
31.5075 29.6081 7.4979
31.5201 29.6331 7.4813
31.8306 30.2051 7.1291
31.8148 30.1766 7.1455
31.7991 30.1483 7.1618
31.7834 30.1204 7.1781
31.7677 30.0927 7.1943
32.2009 29.7572 7.4257
32.1459 29.7658 7.4172
32.0933 29.774 7.4091
32.0428 29.782 7.4014
31.9943 29.7897 7.3941
31.9477 29.7972 7.3871
30.8257 30.2898 7.0761
30.8785 30.2595 7.0916
30.9316 30.2293 7.1074
30.9851 30.199 7.1237
31.0394 30.1686 7.1405
31.0948 30.1377 7.158
30.8363 30.4302 6.9949
30.8898 30.3897 7.0155
30.943 30.3496 7.0365
30.9963 30.3097 7.058
31.0501 30.2696 7.0801
31.1047 30.2291 7.103
30.8568 30.5789 6.9116
30.9114 30.5261 6.9382
30.9651 30.4744 6.965
31.0183 30.4234 6.9921
31.0714 30.3726 7.0198
31.1249 30.3216 7.0483
31.1585 30.6835 6.8469
31.1939 30.6215 6.8798
31.2285 30.5607 6.9126
31.2625 30.5006 6.9456
31.2963 30.4409 6.9791
31.33 30.3813 7.0131
31.2873 30.5997 6.8912
31.3127 30.5448 6.9212
31.3378 30.4906 6.9514
31.3626 30.4366 6.9819
31.3874 30.3826 7.0128
31.4121 30.3284 7.0443
31.7742 30.2522 7.0988
31.7632 30.2206 7.1171
31.7522 30.1892 7.1354
31.7411 30.158 7.1537
31.73 30.127 7.172
31.7188 30.0962 7.1904
32.1593 29.8293 7.3774
32.1098 29.8309 7.3737
32.062 29.8325 7.3701
32.016 29.8341 7.3668
31.9715 29.8357 7.3636
31.9285 29.8374 7.3606
31.8868 29.839 7.3577
32.3963 29.422 7.6559
32.3118 29.4685 7.6204
32.2336 29.5117 7.5876
32.1607 29.5519 7.5572
32.0926 29.5896 7.529
32.0288 29.625 7.5027
31.9688 29.6584 7.4781
32.3819 29.1682 7.8265
32.2939 29.2473 7.7683
32.2137 29.3194 7.7155
32.1401 29.3856 7.6673
32.0723 29.4467 7.6232
32.0094 29.5034 7.5825
31.9509 29.5562 7.5449
31.2951 29.5907 7.5087
31.3212 29.6104 7.4953
31.3471 29.63 7.482
31.3728 29.6497 7.4689
31.3984 29.6694 7.4559
31.4238 29.6892 7.4429
31.4492 29.709 7.43
30.8238 30.1461 7.1619
30.8766 30.1254 7.1722
30.9298 30.1047 7.1827
30.9836 30.084 7.1936
31.0384 30.0631 7.205
31.0944 30.042 7.2169
31.1518 30.0206 7.2294
30.8914 30.7498 6.819
30.9477 30.6804 6.8535
31.002 30.6135 6.8876
31.0549 30.5485 6.9216
31.107 30.4846 6.9559
31.1587 30.4212 6.9908
31.2105 30.3577 7.0266
31.0906 30.7291 6.8239
31.1315 30.6626 6.8585
31.1714 30.5978 6.8928
31.2105 30.5342 6.9273
31.2491 30.4713 6.962
31.2875 30.4086 6.9974
31.326 30.3456 7.0336
31.7143 30.302 7.0673
31.7082 30.2671 7.0876
31.7019 30.2324 7.1078
31.6956 30.1979 7.1281
31.6892 30.1635 7.1486
31.6827 30.1291 7.1691
31.6761 30.0948 7.1898
31.9588 30.097 7.2002
31.9313 30.076 7.2117
31.9042 30.0554 7.223
31.8775 30.0352 7.2342
31.8511 30.0154 7.2453
31.8251 29.996 7.2562
31.7994 29.9769 7.267
32.5491 29.1633 7.8385
32.4365 29.2465 7.776
32.3352 29.3214 7.72
32.2433 29.3895 7.6696
32.1595 29.4517 7.6238
32.0825 29.509 7.582
32.0114 29.5619 7.5436
31.9454 29.6112 7.5082
31.8068 29.4048 7.6419
31.7903 29.4461 7.6133
31.7743 29.4859 7.5859
31.7589 29.5242 7.5596
31.7439 29.5613 7.5343
31.7294 29.5973 7.5099
31.7153 29.6321 7.4863
31.7016 29.6659 7.4635
30.8322 29.9871 7.2601
30.8855 29.9766 7.2643
30.9393 29.9663 7.2688
30.9937 29.956 7.2735
31.0489 29.9458 7.2784
31.1051 29.9357 7.2837
31.1626 29.9255 7.2893
31.2216 29.9153 7.2952
31.0129 30.7823 6.7979
31.0608 30.71 6.8346
31.107 30.6402 6.8708
31.152 30.5722 6.907
31.1961 30.5054 6.9433
31.2399 30.4391 6.9801
31.2836 30.3728 7.0178
31.3277 30.3058 7.0566
31.4397 30.5044 6.9447
31.4541 30.4565 6.9718
31.4683 30.4087 6.9991
31.4823 30.361 7.0266
31.4963 30.3132 7.0545
31.5103 30.2652 7.0829
31.5242 30.2168 7.1119
31.5382 30.1678 7.1416
31.9323 29.3551 7.6798
31.9026 29.4033 7.6459
31.8743 29.4493 7.6138
31.8473 29.4932 7.5833
31.8213 29.5352 7.5542
31.7965 29.5755 7.5264
31.7726 29.6143 7.4999
31.7495 29.6516 7.4744
31.7273 29.6875 7.45
31.5433 29.5044 7.5684
31.5506 29.5333 7.5489
31.5577 29.5617 7.5299
31.5646 29.5896 7.5112
31.5714 29.6172 7.4928
31.578 29.6444 7.4748
31.5845 29.6712 7.4572
31.5908 29.6977 7.4398
31.597 29.7239 7.4227
31.0646 29.6625 7.4636
31.1064 29.6755 7.4539
31.1483 29.6886 7.4444
31.1901 29.7018 7.4349
31.232 29.7153 7.4255
31.2741 29.7291 7.4162
31.3164 29.7431 7.4068
31.359 29.7573 7.3975
31.402 29.7719 7.3882
30.856 29.7959 7.3823
30.9107 29.7983 7.3783
30.9655 29.8009 7.3746
31.0205 29.8038 7.371
31.0759 29.8069 7.3675
31.1319 29.8104 7.3641
31.1886 29.8141 7.3609
31.2463 29.8182 7.3578
31.3052 29.8226 7.3547
31.6429 30.361 7.0307
31.6423 30.3222 7.0531
31.6416 30.2837 7.0756
31.6408 30.2453 7.0982
31.6399 30.2068 7.121
31.6388 30.1684 7.144
31.6377 30.1298 7.1672
31.6364 30.0911 7.1907
31.6351 30.0521 7.2146
32.1108 29.9139 7.3213
32.0672 29.9078 7.3228
32.0249 29.9019 7.3243
31.9838 29.8963 7.3258
31.9439 29.891 7.3273
31.9051 29.8858 7.3288
31.8673 29.8809 7.3303
31.8305 29.8761 7.3318
31.7945 29.8715 7.3333
31.7594 29.8671 7.3348
32.4646 29.3061 7.7373
32.3681 29.3682 7.6903
32.2798 29.425 7.6476
32.1986 29.4775 7.6085
32.1235 29.526 7.5726
32.0538 29.5712 7.5393
31.9887 29.6135 7.5085
31.9278 29.6531 7.4798
31.8705 29.6905 7.453
31.8164 29.7259 7.4279
30.8299 30.3597 7.0353
30.883 30.3245 7.0533
30.9361 30.2895 7.0717
30.9895 30.2544 7.0906
31.0436 30.2192 7.11
31.0986 30.1836 7.1303
31.1549 30.1473 7.1513
31.2129 30.1101 7.1734
31.2731 30.0718 7.1968
31.3359 30.0321 7.2215
30.8719 30.6604 6.867
30.9273 30.6001 6.8972
30.9813 30.5415 6.9274
31.0344 30.4839 6.9578
31.087 30.427 6.9886
31.1397 30.3702 7.0201
31.1929 30.3129 7.0526
31.247 30.2548 7.0864
31.3026 30.1953 7.1218
31.3602 30.1337 7.1593
31.3575 30.5553 6.9157
31.3778 30.5038 6.9444
31.3978 30.4527 6.9732
31.4177 30.4017 7.0023
31.4375 30.3506 7.0318
31.4573 30.2993 7.0619
31.4772 30.2475 7.0927
31.4973 30.195 7.1243
31.5176 30.1416 7.1569
31.5382 30.087 7.1906
32.0515 30.0179 7.2534
32.0147 30.0029 7.2607
31.9787 29.9884 7.268
31.9435 29.9742 7.275
31.9091 29.9604 7.282
31.8754 29.947 7.2889
31.8423 29.934 7.2957
31.8099 29.9213 7.3023
31.778 29.9089 7.3089
31.7467 29.8968 7.3155
32.1341 29.2727 7.7437
32.0805 29.3336 7.7
32.0303 29.3906 7.6593
31.9833 29.444 7.6213
31.939 29.4944 7.5857
31.8972 29.542 7.5523
31.8576 29.5871 7.5208
31.8199 29.6299 7.4911
31.7841 29.6708 7.4629
31.7498 29.7098 7.4361
31.7171 29.7472 7.4106
31.3866 29.5598 7.5295
31.406 29.5827 7.5141
31.4253 29.6054 7.4989
31.4443 29.6279 7.4839
31.4631 29.6504 7.4691
31.4817 29.6728 7.4544
31.5002 29.6951 7.4399
31.5185 29.7174 7.4254
31.5367 29.7396 7.4111
31.5548 29.7618 7.3969
31.5728 29.7841 7.3828
30.8416 29.8969 7.3171
30.8955 29.8924 7.3177
30.9498 29.888 7.3184
31.0045 29.8838 7.3194
31.0598 29.8798 7.3205
31.116 29.876 7.3218
31.1733 29.8723 7.3233
31.2319 29.8688 7.325
31.292 29.8655 7.327
31.3539 29.8623 7.3292
31.4179 29.8593 7.3316
30.8236 30.219 7.118
30.8763 30.1935 7.1309
30.9294 30.1681 7.1441
30.9831 30.1426 7.1578
31.0377 30.1168 7.172
31.0933 30.0908 7.1868
31.1505 30.0643 7.2022
31.2094 30.0372 7.2185
31.2705 30.0093 7.2356
31.3342 29.9805 7.2538
31.401 29.9505 7.2733
31.6797 29.4537 7.6053
31.6753 29.4887 7.5815
31.6709 29.5227 7.5584
31.6666 29.5558 7.536
31.6623 29.5882 7.5142
31.6582 29.6198 7.493
31.654 29.6507 7.4723
31.6499 29.681 7.4522
31.6459 29.7106 7.4326
31.6419 29.7397 7.4134
31.6379 29.7682 7.3947
31.634 29.7963 7.3764
30.9069 29.7064 7.4394
30.9596 29.7154 7.4313
31.0123 29.7247 7.4234
31.0649 29.7342 7.4157
31.1177 29.744 7.408
31.1708 29.7541 7.4005
31.2243 29.7646 7.393
31.2784 29.7755 7.3856
31.3334 29.7867 7.3782
31.3892 29.7984 7.3708
31.4462 29.8107 7.3634
31.5046 29.8235 7.3559
30.9166 30.85 6.7661
30.974 30.7693 6.8058
31.0286 30.6925 6.8446
31.0812 30.6186 6.883
31.1324 30.5465 6.9213
31.1828 30.4756 6.96
31.2329 30.4051 6.9994
31.2833 30.3341 7.04
31.3345 30.2621 7.0823
31.3871 30.188 7.1268
31.4417 30.1111 7.174
31.4991 30.0302 7.2248
31.2225 30.6414 6.8689
31.2529 30.5832 6.9002
31.2827 30.5257 6.9317
31.3121 30.4688 6.9634
31.3414 30.412 6.9956
31.3706 30.3551 7.0284
31.4001 30.2977 7.062
31.4298 30.2396 7.0966
31.46 30.1802 7.1325
31.4909 30.1194 7.1699
31.5228 30.0565 7.209
31.5557 29.9912 7.2503
31.8896 30.1555 7.1615
31.8686 30.1303 7.1757
31.8477 30.1055 7.1898
31.8271 30.0811 7.2038
31.8066 30.057 7.2177
31.7862 30.0332 7.2316
31.766 30.0097 7.2454
31.7459 29.9864 7.2591
31.7258 29.9634 7.2727
31.7058 29.9405 7.2864
31.6859 29.9179 7.3
31.666 29.8955 7.3136
31.19 29.6245 7.4868
31.2233 29.641 7.4753
31.2566 29.6575 7.4639
31.2898 29.6741 7.4526
31.3229 29.6908 7.4414
31.356 29.7077 7.4302
31.3892 29.7248 7.4191
31.4225 29.7421 7.408
31.4558 29.7595 7.3969
31.4894 29.7772 7.3857
31.5232 29.7952 7.3746
31.5572 29.8135 7.3634
31.5915 29.8321 7.3522
30.8265 30.0694 7.2089
30.8795 30.0536 7.2162
30.9329 30.0379 7.2239
30.987 30.0222 7.2319
31.042 30.0065 7.2403
31.0981 29.9906 7.249
31.1556 29.9746 7.2582
31.2149 29.9584 7.2679
31.276 29.9418 7.2782
31.3396 29.9248 7.289
31.4059 29.9074 7.3007
31.4754 29.8894 7.3131
31.5486 29.8706 7.3265
30.8452 30.5027 6.9539
30.8991 30.4565 6.9774
30.9526 30.4109 7.0012
31.0058 30.3657 7.0254
31.0593 30.3204 7.0502
31.1134 30.2748 7.0758
31.1684 30.2286 7.1024
31.2249 30.1814 7.1302
31.2833 30.1328 7.1594
31.3441 30.0824 7.1905
31.408 30.0297 7.2237
31.4757 29.974 7.2595
31.5481 29.9147 7.2983
31.5446 30.4412 6.9822
31.5514 30.3972 7.0074
31.558 30.3534 7.0327
31.5646 30.3097 7.0582
31.571 30.2659 7.084
31.5773 30.222 7.1101
31.5835 30.1778 7.1367
31.5897 30.1332 7.1637
31.5958 30.0882 7.1914
31.6019 30.0425 7.2196
31.608 29.9961 7.2486
31.614 29.9488 7.2784
31.6201 29.9005 7.3091
32.3343 29.5279 7.5823
32.2599 29.5613 7.5562
32.1903 29.5927 7.5319
32.1248 29.6222 7.5091
32.063 29.6502 7.4878
32.0047 29.6767 7.4677
31.9493 29.702 7.4488
31.8967 29.726 7.431
31.8466 29.749 7.414
31.7987 29.771 7.398
31.7529 29.7921 7.3827
31.709 29.8125 7.3681
31.6668 29.8321 7.3542
31.6262 29.851 7.3409
31.6262 29.851 7.3409
3 39 414 41 0.9021400156904228 0.4560415931808398 0.4304182102753149
3 534 533 520 0.9021400156904228 0.4560415931808398 0.4304182102753149
3 520 533 519 0.9021400156904228 0.4560415931808398 0.4304182102753149
3 42 41 263 0.9021400156904228 0.4560415931808398 0.4304182102753149
3 263 41 414 0.9021400156904228 0.4560415931808398 0.4304182102753149
3 36 34 448 0.9021400156904228 0.4560415931808398 0.4304182102753149
3 362 51 50 0.9021400156904228 0.4560415931808398 0.4304182102753149
3 363 220 362 0.9021400156904228 0.4560415931808398 0.4304182102753149
3 221 220 363 0.9021400156904228 0.4560415931808398 0.4304182102753149
3 166 226 227 0.9021400156904228 0.4560415931808398 0.4304182102753149
3 57 56 226 0.9021400156904228 0.4560415931808398 0.4304182102753149
3 57 166 58 0.9021400156904228 0.4560415931808398 0.4304182102753149
3 226 166 57 0.9021400156904228 0.4560415931808398 0.4304182102753149
3 226 56 271 0.9021400156904228 0.4560415931808398 0.4304182102753149
3 271 55 461 0.9021400156904228 0.4560415931808398 0.4304182102753149
3 271 56 55 0.9021400156904228 0.4560415931808398 0.4304182102753149
3 461 55 460 0.9021400156904228 0.4560415931808398 0.4304182102753149
3 460 55 53 0.9021400156904228 0.4560415931808398 0.4304182102753149
3 53 52 460 0.9021400156904228 0.4560415931808398 0.4304182102753149
3 435 518 519 0.9021400156904228 0.4560415931808398 0.4304182102753149
3 435 533 532 0.9021400156904228 0.4560415931808398 0.4304182102753149
3 519 533 435 0.9021400156904228 0.4560415931808398 0.4304182102753149
3 422 518 517 0.9021400156904228 0.4560415931808398 0.4304182102753149
3 470 531 532 0.9021400156904228 0.4560415931808398 0.4304182102753149
3 371 531 470 0.9021400156904228 0.4560415931808398 0.4304182102753149
3 469 371 470 0.9021400156904228 0.4560415931808398 0.4304182102753149
3 479 468 469 0.9021400156904228 0.4560415931808398 0.4304182102753149
3 430 153 429 0.9021400156904228 0.4560415931808398 0.4304182102753149
3 47 154 48 0.9021400156904228 0.4560415931808398 0.4304182102753149
3 305 34 33 0.9021400156904228 0.4560415931808398 0.4304182102753149
3 534 520 521 0.9021400156904228 0.4560415931808398 0.4304182102753149
3 86 27 26 0.9021400156904228 0.4560415931808398 0.4304182102753149
3 425 212 426 0.9021400156904228 0.4560415931808398 0.4304182102753149
3 425 45 44 0.9021400156904228 0.4560415931808398 0.4304182102753149
3 44 212 425 0.9021400156904228 0.4560415931808398 0.4304182102753149
3 43 212 44 0.9021400156904228 0.4560415931808398 0.4304182102753149
3 509 212 43 0.9021400156904228 0.4560415931808398 0.4304182102753149
3 509 43 42 0.9021400156904228 0.4560415931808398 0.4304182102753149
3 42 263 509 0.9021400156904228 0.4560415931808398 0.4304182102753149
3 509 263 510 0.9021400156904228 0.4560415931808398 0.4304182102753149
3 450 34 305 0.9021400156904228 0.4560415931808398 0.4304182102753149
3 305 451 450 0.9021400156904228 0.4560415931808398 0.4304182102753149
3 314 414 39 0.9021400156904228 0.4560415931808398 0.4304182102753149
3 362 50 160 0.9021400156904228 0.4560415931808398 0.4304182102753149
3 160 363 362 0.9021400156904228 0.4560415931808398 0.4304182102753149
3 160 50 49 0.9021400156904228 0.4560415931808398 0.4304182102753149
3 273 463 274 0.9021400156904228 0.4560415931808398 0.4304182102753149
3 221 463 462 0.9021400156904228 0.4560415931808398 0.4304182102753149
3 462 220 221 0.9021400156904228 0.4560415931808398 0.4304182102753149
3 463 273 462 0.9021400156904228 0.4560415931808398 0.4304182102753149
3 461 220 462 0.9021400156904228 0.4560415931808398 0.4304182102753149
3 462 271 461 0.9021400156904228 0.4560415931808398 0.4304182102753149
3 175 374 174 0.9021400156904228 0.4560415931808398 0.4304182102753149
3 461 460 219 0.9021400156904228 0.4560415931808398 0.4304182102753149
3 219 460 52 0.9021400156904228 0.4560415931808398 0.4304182102753149
3 219 52 51 0.9021400156904228 0.4560415931808398 0.4304182102753149
3 219 220 461 0.9021400156904228 0.4560415931808398 0.4304182102753149
3 219 51 362 0.9021400156904228 0.4560415931808398 0.4304182102753149
3 362 220 219 0.9021400156904228 0.4560415931808398 0.4304182102753149
3 535 63 62 0.9021400156904228 0.4560415931808398 0.4304182102753149
3 536 63 535 0.9021400156904228 0.4560415931808398 0.4304182102753149
3 64 63 323 0.9021400156904228 0.4560415931808398 0.4304182102753149
3 233 65 64 0.9021400156904228 0.4560415931808398 0.4304182102753149
3 247 13 12 0.9021400156904228 0.4560415931808398 0.4304182102753149
3 117 13 247 0.9021400156904228 0.4560415931808398 0.4304182102753149
3 17 16 117 0.9021400156904228 0.4560415931808398 0.4304182102753149
3 423 422 322 0.9021400156904228 0.4560415931808398 0.4304182102753149
3 519 518 423 0.9021400156904228 0.4560415931808398 0.4304182102753149
3 423 518 422 0.9021400156904228 0.4560415931808398 0.4304182102753149
3 321 422 421 0.9021400156904228 0.4560415931808398 0.4304182102753149
3 322 422 321 0.9021400156904228 0.4560415931808398 0.4304182102753149
3 434 517 518 0.9021400156904228 0.4560415931808398 0.4304182102753149
3 434 435 532 0.9021400156904228 0.4560415931808398 0.4304182102753149
3 518 435 434 0.9021400156904228 0.4560415931808398 0.4304182102753149
3 381 543 542 0.9021400156904228 0.4560415931808398 0.4304182102753149
3 360 531 530 0.9021400156904228 0.4560415931808398 0.4304182102753149
3 530 531 371 0.9021400156904228 0.4560415931808398 0.4304182102753149
3 528 529 369 0.9021400156904228 0.4560415931808398 0.4304182102753149
3 358 153 430 0.9021400156904228 0.4560415931808398 0.4304182102753149
3 358 529 528 0.9021400156904228 0.4560415931808398 0.4304182102753149
3 431 218 432 0.9021400156904228 0.4560415931808398 0.4304182102753149
3 431 358 430 0.9021400156904228 0.4560415931808398 0.4304182102753149
3 468 479 478 0.9021400156904228 0.4560415931808398 0.4304182102753149
3 541 540 286 0.9021400156904228 0.4560415931808398 0.4304182102753149
3 542 541 286 0.9021400156904228 0.4560415931808398 0.4304182102753149
3 284 283 377 0.9021400156904228 0.4560415931808398 0.4304182102753149
3 377 478 479 0.9021400156904228 0.4560415931808398 0.4304182102753149
3 177 478 377 0.9021400156904228 0.4560415931808398 0.4304182102753149
3 280 535 62 0.9021400156904228 0.4560415931808398 0.4304182102753149
3 375 374 175 0.9021400156904228 0.4560415931808398 0.4304182102753149
3 375 280 374 0.9021400156904228 0.4560415931808398 0.4304182102753149
3 363 160 161 0.9021400156904228 0.4560415931808398 0.4304182102753149
3 465 224 276 0.9021400156904228 0.4560415931808398 0.4304182102753149
3 148 45 425 0.9021400156904228 0.4560415931808398 0.4304182102753149
3 148 46 45 0.9021400156904228 0.4560415931808398 0.4304182102753149
3 498 499 309 0.9021400156904228 0.4560415931808398 0.4304182102753149
3 13 117 14 0.9021400156904228 0.4560415931808398 0.4304182102753149
3 14 16 15 0.9021400156904228 0.4560415931808398 0.4304182102753149
3 14 117 16 0.9021400156904228 0.4560415931808398 0.4304182102753149
3 401 295 400 0.9021400156904228 0.4560415931808398 0.4304182102753149
3 402 295 401 0.9021400156904228 0.4560415931808398 0.4304182102753149
3 444 295 402 0.9021400156904228 0.4560415931808398 0.4304182102753149
3 436 86 87 0.9021400156904228 0.4560415931808398 0.4304182102753149
3 27 86 436 0.9021400156904228 0.4560415931808398 0.4304182102753149
3 397 398 291 0.9021400156904228 0.4560415931808398 0.4304182102753149
3 437 436 87 0.9021400156904228 0.4560415931808398 0.4304182102753149
3 213 426 212 0.9021400156904228 0.4560415931808398 0.4304182102753149
3 212 509 213 0.9021400156904228 0.4560415931808398 0.4304182102753149
3 213 510 214 0.9021400156904228 0.4560415931808398 0.4304182102753149
3 213 509 510 0.9021400156904228 0.4560415931808398 0.4304182102753149
3 91 451 317 0.9021400156904228 0.4560415931808398 0.4304182102753149
3 91 450 451 0.9021400156904228 0.4560415931808398 0.4304182102753149
3 270 420 421 0.9021400156904228 0.4560415931808398 0.4304182102753149
3 270 517 516 0.9021400156904228 0.4560415931808398 0.4304182102753149
3 421 422 270 0.9021400156904228 0.4560415931808398 0.4304182102753149
3 422 517 270 0.9021400156904228 0.4560415931808398 0.4304182102753149
3 317 451 318 0.9021400156904228 0.4560415931808398 0.4304182102753149
3 451 452 318 0.9021400156904228 0.4560415931808398 0.4304182102753149
3 308 498 309 0.9021400156904228 0.4560415931808398 0.4304182102753149
3 317 417 316 0.9021400156904228 0.4560415931808398 0.4304182102753149
3 316 91 317 0.9021400156904228 0.4560415931808398 0.4304182102753149
3 315 316 416 0.9021400156904228 0.4560415931808398 0.4304182102753149
3 416 316 417 0.9021400156904228 0.4560415931808398 0.4304182102753149
3 36 448 89 0.9021400156904228 0.4560415931808398 0.4304182102753149
3 315 314 89 0.9021400156904228 0.4560415931808398 0.4304182102753149
3 272 462 273 0.9021400156904228 0.4560415931808398 0.4304182102753149
3 227 226 272 0.9021400156904228 0.4560415931808398 0.4304182102753149
3 272 273 227 0.9021400156904228 0.4560415931808398 0.4304182102753149
3 226 271 272 0.9021400156904228 0.4560415931808398 0.4304182102753149
3 271 462 272 0.9021400156904228 0.4560415931808398 0.4304182102753149
3 276 170 230 0.9021400156904228 0.4560415931808398 0.4304182102753149
3 230 465 276 0.9021400156904228 0.4560415931808398 0.4304182102753149
3 173 174 372 0.9021400156904228 0.4560415931808398 0.4304182102753149
3 474 174 173 0.9021400156904228 0.4560415931808398 0.4304182102753149
3 373 61 372 0.9021400156904228 0.4560415931808398 0.4304182102753149
3 372 174 373 0.9021400156904228 0.4560415931808398 0.4304182102753149
3 373 174 374 0.9021400156904228 0.4560415931808398 0.4304182102753149
3 538 283 284 0.9021400156904228 0.4560415931808398 0.4304182102753149
3 127 20 19 0.9021400156904228 0.4560415931808398 0.4304182102753149
3 248 118 96 0.9021400156904228 0.4560415931808398 0.4304182102753149
3 12 11 96 0.9021400156904228 0.4560415931808398 0.4304182102753149
3 247 12 96 0.9021400156904228 0.4560415931808398 0.4304182102753149
3 96 118 247 0.9021400156904228 0.4560415931808398 0.4304182102753149
3 122 18 17 0.9021400156904228 0.4560415931808398 0.4304182102753149
3 247 118 122 0.9021400156904228 0.4560415931808398 0.4304182102753149
3 122 117 247 0.9021400156904228 0.4560415931808398 0.4304182102753149
3 17 117 122 0.9021400156904228 0.4560415931808398 0.4304182102753149
3 7 548 8 0.9021400156904228 0.4560415931808398 0.4304182102753149
3 6 71 7 0.9021400156904228 0.4560415931808398 0.4304182102753149
3 7 71 548 0.9021400156904228 0.4560415931808398 0.4304182102753149
3 9 77 10 0.9021400156904228 0.4560415931808398 0.4304182102753149
3 547 546 534 0.9021400156904228 0.4560415931808398 0.4304182102753149
3 534 521 547 0.9021400156904228 0.4560415931808398 0.4304182102753149
3 521 561 547 0.9021400156904228 0.4560415931808398 0.4304182102753149
3 5 4 112 0.9021400156904228 0.4560415931808398 0.4304182102753149
3 395 203 396 0.9021400156904228 0.4560415931808398 0.4304182102753149
3 131 202 252 0.9021400156904228 0.4560415931808398 0.4304182102753149
3 252 203 131 0.9021400156904228 0.4560415931808398 0.4304182102753149
3 131 203 395 0.9021400156904228 0.4560415931808398 0.4304182102753149
3 254 398 397 0.9021400156904228 0.4560415931808398 0.4304182102753149
3 331 545 492 0.9021400156904228 0.4560415931808398 0.4304182102753149
3 424 423 457 0.9021400156904228 0.4560415931808398 0.4304182102753149
3 457 458 424 0.9021400156904228 0.4560415931808398 0.4304182102753149
3 519 423 424 0.9021400156904228 0.4560415931808398 0.4304182102753149
3 424 520 519 0.9021400156904228 0.4560415931808398 0.4304182102753149
3 424 458 520 0.9021400156904228 0.4560415931808398 0.4304182102753149
3 459 521 520 0.9021400156904228 0.4560415931808398 0.4304182102753149
3 520 458 459 0.9021400156904228 0.4560415931808398 0.4304182102753149
3 507 521 459 0.9021400156904228 0.4560415931808398 0.4304182102753149
3 313 458 457 0.9021400156904228 0.4560415931808398 0.4304182102753149
3 361 531 360 0.9021400156904228 0.4560415931808398 0.4304182102753149
3 532 531 361 0.9021400156904228 0.4560415931808398 0.4304182102753149
3 361 434 532 0.9021400156904228 0.4560415931808398 0.4304182102753149
3 532 533 471 0.9021400156904228 0.4560415931808398 0.4304182102753149
3 471 470 532 0.9021400156904228 0.4560415931808398 0.4304182102753149
3 543 381 544 0.9021400156904228 0.4560415931808398 0.4304182102753149
3 544 331 543 0.9021400156904228 0.4560415931808398 0.4304182102753149
3 545 331 544 0.9021400156904228 0.4560415931808398 0.4304182102753149
3 370 371 469 0.9021400156904228 0.4560415931808398 0.4304182102753149
3 370 530 371 0.9021400156904228 0.4560415931808398 0.4304182102753149
3 469 468 370 0.9021400156904228 0.4560415931808398 0.4304182102753149
3 529 530 370 0.9021400156904228 0.4560415931808398 0.4304182102753149
3 468 369 370 0.9021400156904228 0.4560415931808398 0.4304182102753149
3 370 369 529 0.9021400156904228 0.4560415931808398 0.4304182102753149
3 359 530 529 0.9021400156904228 0.4560415931808398 0.4304182102753149
3 529 358 359 0.9021400156904228 0.4560415931808398 0.4304182102753149
3 360 530 359 0.9021400156904228 0.4560415931808398 0.4304182102753149
3 358 431 359 0.9021400156904228 0.4560415931808398 0.4304182102753149
3 359 432 360 0.9021400156904228 0.4560415931808398 0.4304182102753149
3 359 431 432 0.9021400156904228 0.4560415931808398 0.4304182102753149
3 516 432 515 0.9021400156904228 0.4560415931808398 0.4304182102753149
3 432 218 515 0.9021400156904228 0.4560415931808398 0.4304182102753149
3 217 431 430 0.9021400156904228 0.4560415931808398 0.4304182102753149
3 218 431 217 0.9021400156904228 0.4560415931808398 0.4304182102753149
3 468 478 278 0.9021400156904228 0.4560415931808398 0.4304182102753149
3 278 369 468 0.9021400156904228 0.4560415931808398 0.4304182102753149
3 467 369 278 0.9021400156904228 0.4560415931808398 0.4304182102753149
3 327 540 541 0.9021400156904228 0.4560415931808398 0.4304182102753149
3 285 286 540 0.9021400156904228 0.4560415931808398 0.4304182102753149
3 469 470 480 0.9021400156904228 0.4560415931808398 0.4304182102753149
3 480 479 469 0.9021400156904228 0.4560415931808398 0.4304182102753149
3 481 480 470 0.9021400156904228 0.4560415931808398 0.4304182102753149
3 284 377 378 0.9021400156904228 0.4560415931808398 0.4304182102753149
3 378 377 479 0.9021400156904228 0.4560415931808398 0.4304182102753149
3 378 285 284 0.9021400156904228 0.4560415931808398 0.4304182102753149
3 479 480 378 0.9021400156904228 0.4560415931808398 0.4304182102753149
3 177 377 376 0.9021400156904228 0.4560415931808398 0.4304182102753149
3 283 282 376 0.9021400156904228 0.4560415931808398 0.4304182102753149
3 376 377 283 0.9021400156904228 0.4560415931808398 0.4304182102753149
3 280 375 281 0.9021400156904228 0.4560415931808398 0.4304182102753149
3 535 280 281 0.9021400156904228 0.4560415931808398 0.4304182102753149
3 281 376 282 0.9021400156904228 0.4560415931808398 0.4304182102753149
3 375 376 281 0.9021400156904228 0.4560415931808398 0.4304182102753149
3 536 535 281 0.9021400156904228 0.4560415931808398 0.4304182102753149
3 281 282 536 0.9021400156904228 0.4560415931808398 0.4304182102753149
3 276 224 466 0.9021400156904228 0.4560415931808398 0.4304182102753149
3 224 225 466 0.9021400156904228 0.4560415931808398 0.4304182102753149
3 528 369 368 0.9021400156904228 0.4560415931808398 0.4304182102753149
3 368 369 467 0.9021400156904228 0.4560415931808398 0.4304182102753149
3 467 225 368 0.9021400156904228 0.4560415931808398 0.4304182102753149
3 154 155 523 0.9021400156904228 0.4560415931808398 0.4304182102753149
3 464 229 274 0.9021400156904228 0.4560415931808398 0.4304182102753149
3 274 463 464 0.9021400156904228 0.4560415931808398 0.4304182102753149
3 46 148 352 0.9021400156904228 0.4560415931808398 0.4304182102753149
3 352 47 46 0.9021400156904228 0.4560415931808398 0.4304182102753149
3 154 47 352 0.9021400156904228 0.4560415931808398 0.4304182102753149
3 352 155 154 0.9021400156904228 0.4560415931808398 0.4304182102753149
3 365 163 366 0.9021400156904228 0.4560415931808398 0.4304182102753149
3 403 30 132 0.9021400156904228 0.4560415931808398 0.4304182102753149
3 403 31 30 0.9021400156904228 0.4560415931808398 0.4304182102753149
3 207 405 208 0.9021400156904228 0.4560415931808398 0.4304182102753149
3 456 423 322 0.9021400156904228 0.4560415931808398 0.4304182102753149
3 457 423 456 0.9021400156904228 0.4560415931808398 0.4304182102753149
3 310 454 309 0.9021400156904228 0.4560415931808398 0.4304182102753149
3 309 499 310 0.9021400156904228 0.4560415931808398 0.4304182102753149
3 501 208 209 0.9021400156904228 0.4560415931808398 0.4304182102753149
3 33 32 496 0.9021400156904228 0.4560415931808398 0.4304182102753149
3 205 32 31 0.9021400156904228 0.4560415931808398 0.4304182102753149
3 31 403 205 0.9021400156904228 0.4560415931808398 0.4304182102753149
3 242 384 241 0.9021400156904228 0.4560415931808398 0.4304182102753149
3 1 68 70 0.9021400156904228 0.4560415931808398 0.4304182102753149
3 402 401 557 0.9021400156904228 0.4560415931808398 0.4304182102753149
3 409 136 302 0.9021400156904228 0.4560415931808398 0.4304182102753149
3 508 521 507 0.9021400156904228 0.4560415931808398 0.4304182102753149
3 508 561 521 0.9021400156904228 0.4560415931808398 0.4304182102753149
3 445 446 304 0.9021400156904228 0.4560415931808398 0.4304182102753149
3 304 444 445 0.9021400156904228 0.4560415931808398 0.4304182102753149
3 402 446 445 0.9021400156904228 0.4560415931808398 0.4304182102753149
3 445 444 402 0.9021400156904228 0.4560415931808398 0.4304182102753149
3 304 446 413 0.9021400156904228 0.4560415931808398 0.4304182102753149
3 413 508 507 0.9021400156904228 0.4560415931808398 0.4304182102753149
3 27 436 28 0.9021400156904228 0.4560415931808398 0.4304182102753149
3 132 30 296 0.9021400156904228 0.4560415931808398 0.4304182102753149
3 30 29 296 0.9021400156904228 0.4560415931808398 0.4304182102753149
3 296 297 132 0.9021400156904228 0.4560415931808398 0.4304182102753149
3 109 297 296 0.9021400156904228 0.4560415931808398 0.4304182102753149
3 397 291 290 0.9021400156904228 0.4560415931808398 0.4304182102753149
3 290 396 397 0.9021400156904228 0.4560415931808398 0.4304182102753149
3 442 261 262 0.9021400156904228 0.4560415931808398 0.4304182102753149
3 427 213 214 0.9021400156904228 0.4560415931808398 0.4304182102753149
3 426 213 427 0.9021400156904228 0.4560415931808398 0.4304182102753149
3 152 429 153 0.9021400156904228 0.4560415931808398 0.4304182102753149
3 426 427 150 0.9021400156904228 0.4560415931808398 0.4304182102753149
3 150 427 151 0.9021400156904228 0.4560415931808398 0.4304182102753149
3 450 91 449 0.9021400156904228 0.4560415931808398 0.4304182102753149
3 449 448 34 0.9021400156904228 0.4560415931808398 0.4304182102753149
3 34 450 449 0.9021400156904228 0.4560415931808398 0.4304182102753149
3 418 318 419 0.9021400156904228 0.4560415931808398 0.4304182102753149
3 419 268 418 0.9021400156904228 0.4560415931808398 0.4304182102753149
3 418 417 317 0.9021400156904228 0.4560415931808398 0.4304182102753149
3 317 318 418 0.9021400156904228 0.4560415931808398 0.4304182102753149
3 454 321 320 0.9021400156904228 0.4560415931808398 0.4304182102753149
3 421 420 320 0.9021400156904228 0.4560415931808398 0.4304182102753149
3 320 321 421 0.9021400156904228 0.4560415931808398 0.4304182102753149
3 33 496 307 0.9021400156904228 0.4560415931808398 0.4304182102753149
3 307 496 308 0.9021400156904228 0.4560415931808398 0.4304182102753149
3 315 416 415 0.9021400156904228 0.4560415931808398 0.4304182102753149
3 414 314 415 0.9021400156904228 0.4560415931808398 0.4304182102753149
3 415 314 315 0.9021400156904228 0.4560415931808398 0.4304182102753149
3 36 89 38 0.9021400156904228 0.4560415931808398 0.4304182102753149
3 38 314 39 0.9021400156904228 0.4560415931808398 0.4304182102753149
3 38 89 314 0.9021400156904228 0.4560415931808398 0.4304182102753149
3 315 89 90 0.9021400156904228 0.4560415931808398 0.4304182102753149
3 90 316 315 0.9021400156904228 0.4560415931808398 0.4304182102753149
3 91 316 90 0.9021400156904228 0.4560415931808398 0.4304182102753149
3 90 449 91 0.9021400156904228 0.4560415931808398 0.4304182102753149
3 90 89 448 0.9021400156904228 0.4560415931808398 0.4304182102753149
3 448 449 90 0.9021400156904228 0.4560415931808398 0.4304182102753149
3 474 229 169 0.9021400156904228 0.4560415931808398 0.4304182102753149
3 474 173 473 0.9021400156904228 0.4560415931808398 0.4304182102753149
3 473 173 172 0.9021400156904228 0.4560415931808398 0.4304182102753149
3 372 61 60 0.9021400156904228 0.4560415931808398 0.4304182102753149
3 60 173 372 0.9021400156904228 0.4560415931808398 0.4304182102753149
3 172 173 60 0.9021400156904228 0.4560415931808398 0.4304182102753149
3 231 170 276 0.9021400156904228 0.4560415931808398 0.4304182102753149
3 276 466 231 0.9021400156904228 0.4560415931808398 0.4304182102753149
3 176 375 175 0.9021400156904228 0.4560415931808398 0.4304182102753149
3 176 376 375 0.9021400156904228 0.4560415931808398 0.4304182102753149
3 374 280 279 0.9021400156904228 0.4560415931808398 0.4304182102753149
3 279 373 374 0.9021400156904228 0.4560415931808398 0.4304182102753149
3 61 373 279 0.9021400156904228 0.4560415931808398 0.4304182102753149
3 62 61 279 0.9021400156904228 0.4560415931808398 0.4304182102753149
3 279 280 62 0.9021400156904228 0.4560415931808398 0.4304182102753149
3 537 63 536 0.9021400156904228 0.4560415931808398 0.4304182102753149
3 537 323 63 0.9021400156904228 0.4560415931808398 0.4304182102753149
3 536 282 537 0.9021400156904228 0.4560415931808398 0.4304182102753149
3 537 282 283 0.9021400156904228 0.4560415931808398 0.4304182102753149
3 283 538 537 0.9021400156904228 0.4560415931808398 0.4304182102753149
3 324 538 325 0.9021400156904228 0.4560415931808398 0.4304182102753149
3 325 233 324 0.9021400156904228 0.4560415931808398 0.4304182102753149
3 323 537 324 0.9021400156904228 0.4560415931808398 0.4304182102753149
3 324 537 538 0.9021400156904228 0.4560415931808398 0.4304182102753149
3 64 323 324 0.9021400156904228 0.4560415931808398 0.4304182102753149
3 324 233 64 0.9021400156904228 0.4560415931808398 0.4304182102753149
3 539 538 284 0.9021400156904228 0.4560415931808398 0.4304182102753149
3 284 285 539 0.9021400156904228 0.4560415931808398 0.4304182102753149
3 539 285 540 0.9021400156904228 0.4560415931808398 0.4304182102753149
3 325 538 539 0.9021400156904228 0.4560415931808398 0.4304182102753149
3 248 96 342 0.9021400156904228 0.4560415931808398 0.4304182102753149
3 342 96 11 0.9021400156904228 0.4560415931808398 0.4304182102753149
3 10 77 342 0.9021400156904228 0.4560415931808398 0.4304182102753149
3 342 11 10 0.9021400156904228 0.4560415931808398 0.4304182102753149
3 199 127 123 0.9021400156904228 0.4560415931808398 0.4304182102753149
3 123 118 248 0.9021400156904228 0.4560415931808398 0.4304182102753149
3 548 71 75 0.9021400156904228 0.4560415931808398 0.4304182102753149
3 75 192 548 0.9021400156904228 0.4560415931808398 0.4304182102753149
3 8 548 74 0.9021400156904228 0.4560415931808398 0.4304182102753149
3 548 192 74 0.9021400156904228 0.4560415931808398 0.4304182102753149
3 124 249 120 0.9021400156904228 0.4560415931808398 0.4304182102753149
3 120 249 98 0.9021400156904228 0.4560415931808398 0.4304182102753149
3 559 446 402 0.9021400156904228 0.4560415931808398 0.4304182102753149
3 546 547 494 0.9021400156904228 0.4560415931808398 0.4304182102753149
3 552 94 95 0.9021400156904228 0.4560415931808398 0.4304182102753149
3 142 4 3 0.9021400156904228 0.4560415931808398 0.4304182102753149
3 112 4 142 0.9021400156904228 0.4560415931808398 0.4304182102753149
3 549 75 71 0.9021400156904228 0.4560415931808398 0.4304182102753149
3 549 76 193 0.9021400156904228 0.4560415931808398 0.4304182102753149
3 193 75 549 0.9021400156904228 0.4560415931808398 0.4304182102753149
3 551 94 552 0.9021400156904228 0.4560415931808398 0.4304182102753149
3 552 195 551 0.9021400156904228 0.4560415931808398 0.4304182102753149
3 194 76 550 0.9021400156904228 0.4560415931808398 0.4304182102753149
3 550 551 194 0.9021400156904228 0.4560415931808398 0.4304182102753149
3 194 551 195 0.9021400156904228 0.4560415931808398 0.4304182102753149
3 193 76 194 0.9021400156904228 0.4560415931808398 0.4304182102753149
3 79 75 193 0.9021400156904228 0.4560415931808398 0.4304182102753149
3 192 75 79 0.9021400156904228 0.4560415931808398 0.4304182102753149
3 252 202 251 0.9021400156904228 0.4560415931808398 0.4304182102753149
3 199 124 128 0.9021400156904228 0.4560415931808398 0.4304182102753149
3 288 287 81 0.9021400156904228 0.4560415931808398 0.4304182102753149
3 543 331 330 0.9021400156904228 0.4560415931808398 0.4304182102753149
3 505 459 458 0.9021400156904228 0.4560415931808398 0.4304182102753149
3 360 432 433 0.9021400156904228 0.4560415931808398 0.4304182102753149
3 433 361 360 0.9021400156904228 0.4560415931808398 0.4304182102753149
3 434 361 433 0.9021400156904228 0.4560415931808398 0.4304182102753149
3 517 434 433 0.9021400156904228 0.4560415931808398 0.4304182102753149
3 433 432 516 0.9021400156904228 0.4560415931808398 0.4304182102753149
3 516 517 433 0.9021400156904228 0.4560415931808398 0.4304182102753149
3 545 544 483 0.9021400156904228 0.4560415931808398 0.4304182102753149
3 483 471 533 0.9021400156904228 0.4560415931808398 0.4304182102753149
3 483 533 534 0.9021400156904228 0.4560415931808398 0.4304182102753149
3 534 546 483 0.9021400156904228 0.4560415931808398 0.4304182102753149
3 546 545 483 0.9021400156904228 0.4560415931808398 0.4304182102753149
3 482 544 381 0.9021400156904228 0.4560415931808398 0.4304182102753149
3 381 481 482 0.9021400156904228 0.4560415931808398 0.4304182102753149
3 471 483 482 0.9021400156904228 0.4560415931808398 0.4304182102753149
3 482 483 544 0.9021400156904228 0.4560415931808398 0.4304182102753149
3 470 471 482 0.9021400156904228 0.4560415931808398 0.4304182102753149
3 482 481 470 0.9021400156904228 0.4560415931808398 0.4304182102753149
3 269 270 516 0.9021400156904228 0.4560415931808398 0.4304182102753149
3 516 515 269 0.9021400156904228 0.4560415931808398 0.4304182102753149
3 269 515 268 0.9021400156904228 0.4560415931808398 0.4304182102753149
3 420 270 269 0.9021400156904228 0.4560415931808398 0.4304182102753149
3 419 420 269 0.9021400156904228 0.4560415931808398 0.4304182102753149
3 269 268 419 0.9021400156904228 0.4560415931808398 0.4304182102753149
3 430 429 216 0.9021400156904228 0.4560415931808398 0.4304182102753149
3 216 217 430 0.9021400156904228 0.4560415931808398 0.4304182102753149
3 268 515 514 0.9021400156904228 0.4560415931808398 0.4304182102753149
3 514 515 218 0.9021400156904228 0.4560415931808398 0.4304182102753149
3 218 217 514 0.9021400156904228 0.4560415931808398 0.4304182102753149
3 540 327 326 0.9021400156904228 0.4560415931808398 0.4304182102753149
3 325 539 326 0.9021400156904228 0.4560415931808398 0.4304182102753149
3 326 539 540 0.9021400156904228 0.4560415931808398 0.4304182102753149
3 286 285 379 0.9021400156904228 0.4560415931808398 0.4304182102753149
3 285 378 379 0.9021400156904228 0.4560415931808398 0.4304182102753149
3 379 378 480 0.9021400156904228 0.4560415931808398 0.4304182102753149
3 380 481 381 0.9021400156904228 0.4560415931808398 0.4304182102753149
3 380 381 542 0.9021400156904228 0.4560415931808398 0.4304182102753149
3 542 286 380 0.9021400156904228 0.4560415931808398 0.4304182102753149
3 286 379 380 0.9021400156904228 0.4560415931808398 0.4304182102753149
3 480 481 380 0.9021400156904228 0.4560415931808398 0.4304182102753149
3 380 379 480 0.9021400156904228 0.4560415931808398 0.4304182102753149
3 522 523 161 0.9021400156904228 0.4560415931808398 0.4304182102753149
3 522 49 48 0.9021400156904228 0.4560415931808398 0.4304182102753149
3 48 154 522 0.9021400156904228 0.4560415931808398 0.4304182102753149
3 154 523 522 0.9021400156904228 0.4560415931808398 0.4304182102753149
3 522 160 49 0.9021400156904228 0.4560415931808398 0.4304182102753149
3 522 161 160 0.9021400156904228 0.4560415931808398 0.4304182102753149
3 229 464 275 0.9021400156904228 0.4560415931808398 0.4304182102753149
3 465 230 275 0.9021400156904228 0.4560415931808398 0.4304182102753149
3 275 169 229 0.9021400156904228 0.4560415931808398 0.4304182102753149
3 230 169 275 0.9021400156904228 0.4560415931808398 0.4304182102753149
3 221 363 364 0.9021400156904228 0.4560415931808398 0.4304182102753149
3 363 161 364 0.9021400156904228 0.4560415931808398 0.4304182102753149
3 163 365 162 0.9021400156904228 0.4560415931808398 0.4304182102753149
3 365 364 162 0.9021400156904228 0.4560415931808398 0.4304182102753149
3 161 523 162 0.9021400156904228 0.4560415931808398 0.4304182102753149
3 162 364 161 0.9021400156904228 0.4560415931808398 0.4304182102753149
3 223 365 366 0.9021400156904228 0.4560415931808398 0.4304182102753149
3 223 366 224 0.9021400156904228 0.4560415931808398 0.4304182102753149
3 224 465 223 0.9021400156904228 0.4560415931808398 0.4304182102753149
3 465 275 223 0.9021400156904228 0.4560415931808398 0.4304182102753149
3 223 275 464 0.9021400156904228 0.4560415931808398 0.4304182102753149
3 404 405 207 0.9021400156904228 0.4560415931808398 0.4304182102753149
3 404 403 132 0.9021400156904228 0.4560415931808398 0.4304182102753149
3 322 321 455 0.9021400156904228 0.4560415931808398 0.4304182102753149
3 455 456 322 0.9021400156904228 0.4560415931808398 0.4304182102753149
3 455 321 454 0.9021400156904228 0.4560415931808398 0.4304182102753149
3 311 456 455 0.9021400156904228 0.4560415931808398 0.4304182102753149
3 454 310 455 0.9021400156904228 0.4560415931808398 0.4304182102753149
3 455 310 311 0.9021400156904228 0.4560415931808398 0.4304182102753149
3 312 313 457 0.9021400156904228 0.4560415931808398 0.4304182102753149
3 457 456 312 0.9021400156904228 0.4560415931808398 0.4304182102753149
3 312 456 311 0.9021400156904228 0.4560415931808398 0.4304182102753149
3 311 501 312 0.9021400156904228 0.4560415931808398 0.4304182102753149
3 500 501 311 0.9021400156904228 0.4560415931808398 0.4304182102753149
3 500 310 499 0.9021400156904228 0.4560415931808398 0.4304182102753149
3 311 310 500 0.9021400156904228 0.4560415931808398 0.4304182102753149
3 208 501 500 0.9021400156904228 0.4560415931808398 0.4304182102753149
3 500 499 207 0.9021400156904228 0.4560415931808398 0.4304182102753149
3 207 208 500 0.9021400156904228 0.4560415931808398 0.4304182102753149
3 497 496 32 0.9021400156904228 0.4560415931808398 0.4304182102753149
3 32 205 497 0.9021400156904228 0.4560415931808398 0.4304182102753149
3 497 205 498 0.9021400156904228 0.4560415931808398 0.4304182102753149
3 498 308 497 0.9021400156904228 0.4560415931808398 0.4304182102753149
3 308 496 497 0.9021400156904228 0.4560415931808398 0.4304182102753149
3 498 205 206 0.9021400156904228 0.4560415931808398 0.4304182102753149
3 207 499 206 0.9021400156904228 0.4560415931808398 0.4304182102753149
3 499 498 206 0.9021400156904228 0.4560415931808398 0.4304182102753149
3 206 205 403 0.9021400156904228 0.4560415931808398 0.4304182102753149
3 206 404 207 0.9021400156904228 0.4560415931808398 0.4304182102753149
3 403 404 206 0.9021400156904228 0.4560415931808398 0.4304182102753149
3 240 70 68 0.9021400156904228 0.4560415931808398 0.4304182102753149
3 190 557 556 0.9021400156904228 0.4560415931808398 0.4304182102753149
3 408 136 409 0.9021400156904228 0.4560415931808398 0.4304182102753149
3 408 407 136 0.9021400156904228 0.4560415931808398 0.4304182102753149
3 409 211 408 0.9021400156904228 0.4560415931808398 0.4304182102753149
3 209 407 210 0.9021400156904228 0.4560415931808398 0.4304182102753149
3 210 408 211 0.9021400156904228 0.4560415931808398 0.4304182102753149
3 407 408 210 0.9021400156904228 0.4560415931808398 0.4304182102753149
3 406 407 209 0.9021400156904228 0.4560415931808398 0.4304182102753149
3 406 208 405 0.9021400156904228 0.4560415931808398 0.4304182102753149
3 209 208 406 0.9021400156904228 0.4560415931808398 0.4304182102753149
3 405 134 406 0.9021400156904228 0.4560415931808398 0.4304182102753149
3 304 411 303 0.9021400156904228 0.4560415931808398 0.4304182102753149
3 303 444 304 0.9021400156904228 0.4560415931808398 0.4304182102753149
3 412 411 304 0.9021400156904228 0.4560415931808398 0.4304182102753149
3 304 413 412 0.9021400156904228 0.4560415931808398 0.4304182102753149
3 412 505 411 0.9021400156904228 0.4560415931808398 0.4304182102753149
3 132 297 133 0.9021400156904228 0.4560415931808398 0.4304182102753149
3 133 404 132 0.9021400156904228 0.4560415931808398 0.4304182102753149
3 133 134 405 0.9021400156904228 0.4560415931808398 0.4304182102753149
3 405 404 133 0.9021400156904228 0.4560415931808398 0.4304182102753149
3 298 299 134 0.9021400156904228 0.4560415931808398 0.4304182102753149
3 298 133 297 0.9021400156904228 0.4560415931808398 0.4304182102753149
3 134 133 298 0.9021400156904228 0.4560415931808398 0.4304182102753149
3 134 299 135 0.9021400156904228 0.4560415931808398 0.4304182102753149
3 135 406 134 0.9021400156904228 0.4560415931808398 0.4304182102753149
3 135 300 136 0.9021400156904228 0.4560415931808398 0.4304182102753149
3 299 300 135 0.9021400156904228 0.4560415931808398 0.4304182102753149
3 136 407 135 0.9021400156904228 0.4560415931808398 0.4304182102753149
3 407 406 135 0.9021400156904228 0.4560415931808398 0.4304182102753149
3 29 28 108 0.9021400156904228 0.4560415931808398 0.4304182102753149
3 109 296 108 0.9021400156904228 0.4560415931808398 0.4304182102753149
3 108 296 29 0.9021400156904228 0.4560415931808398 0.4304182102753149
3 108 437 109 0.9021400156904228 0.4560415931808398 0.4304182102753149
3 436 437 108 0.9021400156904228 0.4560415931808398 0.4304182102753149
3 108 28 436 0.9021400156904228 0.4560415931808398 0.4304182102753149
3 294 293 400 0.9021400156904228 0.4560415931808398 0.4304182102753149
3 261 293 294 0.9021400156904228 0.4560415931808398 0.4304182102753149
3 400 295 294 0.9021400156904228 0.4560415931808398 0.4304182102753149
3 295 262 294 0.9021400156904228 0.4560415931808398 0.4304182102753149
3 294 262 261 0.9021400156904228 0.4560415931808398 0.4304182102753149
3 259 293 260 0.9021400156904228 0.4560415931808398 0.4304182102753149
3 260 293 261 0.9021400156904228 0.4560415931808398 0.4304182102753149
3 261 440 260 0.9021400156904228 0.4560415931808398 0.4304182102753149
3 292 291 398 0.9021400156904228 0.4560415931808398 0.4304182102753149
3 292 293 259 0.9021400156904228 0.4560415931808398 0.4304182102753149
3 259 258 292 0.9021400156904228 0.4560415931808398 0.4304182102753149
3 292 258 291 0.9021400156904228 0.4560415931808398 0.4304182102753149
3 88 258 259 0.9021400156904228 0.4560415931808398 0.4304182102753149
3 88 437 87 0.9021400156904228 0.4560415931808398 0.4304182102753149
3 87 86 256 0.9021400156904228 0.4560415931808398 0.4304182102753149
3 291 258 257 0.9021400156904228 0.4560415931808398 0.4304182102753149
3 257 290 291 0.9021400156904228 0.4560415931808398 0.4304182102753149
3 87 256 257 0.9021400156904228 0.4560415931808398 0.4304182102753149
3 257 88 87 0.9021400156904228 0.4560415931808398 0.4304182102753149
3 258 88 257 0.9021400156904228 0.4560415931808398 0.4304182102753149
3 441 261 442 0.9021400156904228 0.4560415931808398 0.4304182102753149
3 441 440 261 0.9021400156904228 0.4560415931808398 0.4304182102753149
3 110 297 109 0.9021400156904228 0.4560415931808398 0.4304182102753149
3 110 298 297 0.9021400156904228 0.4560415931808398 0.4304182102753149
3 23 287 24 0.9021400156904228 0.4560415931808398 0.4304182102753149
3 103 131 395 0.9021400156904228 0.4560415931808398 0.4304182102753149
3 202 131 103 0.9021400156904228 0.4560415931808398 0.4304182102753149
3 428 427 214 0.9021400156904228 0.4560415931808398 0.4304182102753149
3 429 152 428 0.9021400156904228 0.4560415931808398 0.4304182102753149
3 151 427 428 0.9021400156904228 0.4560415931808398 0.4304182102753149
3 428 152 151 0.9021400156904228 0.4560415931808398 0.4304182102753149
3 357 152 153 0.9021400156904228 0.4560415931808398 0.4304182102753149
3 357 358 528 0.9021400156904228 0.4560415931808398 0.4304182102753149
3 153 358 357 0.9021400156904228 0.4560415931808398 0.4304182102753149
3 366 163 164 0.9021400156904228 0.4560415931808398 0.4304182102753149
3 319 318 452 0.9021400156904228 0.4560415931808398 0.4304182102753149
3 419 318 319 0.9021400156904228 0.4560415931808398 0.4304182102753149
3 319 420 419 0.9021400156904228 0.4560415931808398 0.4304182102753149
3 319 320 420 0.9021400156904228 0.4560415931808398 0.4304182102753149
3 306 452 451 0.9021400156904228 0.4560415931808398 0.4304182102753149
3 306 307 452 0.9021400156904228 0.4560415931808398 0.4304182102753149
3 306 451 305 0.9021400156904228 0.4560415931808398 0.4304182102753149
3 305 33 306 0.9021400156904228 0.4560415931808398 0.4304182102753149
3 33 307 306 0.9021400156904228 0.4560415931808398 0.4304182102753149
3 475 230 170 0.9021400156904228 0.4560415931808398 0.4304182102753149
3 475 169 230 0.9021400156904228 0.4560415931808398 0.4304182102753149
3 475 170 175 0.9021400156904228 0.4560415931808398 0.4304182102753149
3 175 174 475 0.9021400156904228 0.4560415931808398 0.4304182102753149
3 475 174 474 0.9021400156904228 0.4560415931808398 0.4304182102753149
3 474 169 475 0.9021400156904228 0.4560415931808398 0.4304182102753149
3 168 229 474 0.9021400156904228 0.4560415931808398 0.4304182102753149
3 474 473 168 0.9021400156904228 0.4560415931808398 0.4304182102753149
3 274 229 168 0.9021400156904228 0.4560415931808398 0.4304182102753149
3 58 166 472 0.9021400156904228 0.4560415931808398 0.4304182102753149
3 472 473 172 0.9021400156904228 0.4560415931808398 0.4304182102753149
3 171 231 277 0.9021400156904228 0.4560415931808398 0.4304182102753149
3 277 231 466 0.9021400156904228 0.4560415931808398 0.4304182102753149
3 277 225 467 0.9021400156904228 0.4560415931808398 0.4304182102753149
3 277 466 225 0.9021400156904228 0.4560415931808398 0.4304182102753149
3 476 176 175 0.9021400156904228 0.4560415931808398 0.4304182102753149
3 171 176 476 0.9021400156904228 0.4560415931808398 0.4304182102753149
3 476 231 171 0.9021400156904228 0.4560415931808398 0.4304182102753149
3 175 170 476 0.9021400156904228 0.4560415931808398 0.4304182102753149
3 170 231 476 0.9021400156904228 0.4560415931808398 0.4304182102753149
3 477 176 171 0.9021400156904228 0.4560415931808398 0.4304182102753149
3 477 478 177 0.9021400156904228 0.4560415931808398 0.4304182102753149
3 477 278 478 0.9021400156904228 0.4560415931808398 0.4304182102753149
3 177 376 477 0.9021400156904228 0.4560415931808398 0.4304182102753149
3 376 176 477 0.9021400156904228 0.4560415931808398 0.4304182102753149
3 178 66 65 0.9021400156904228 0.4560415931808398 0.4304182102753149
3 484 68 67 0.9021400156904228 0.4560415931808398 0.4304182102753149
3 484 240 68 0.9021400156904228 0.4560415931808398 0.4304182102753149
3 66 178 137 0.9021400156904228 0.4560415931808398 0.4304182102753149
3 137 178 179 0.9021400156904228 0.4560415931808398 0.4304182102753149
3 67 66 137 0.9021400156904228 0.4560415931808398 0.4304182102753149
3 137 484 67 0.9021400156904228 0.4560415931808398 0.4304182102753149
3 181 139 180 0.9021400156904228 0.4560415931808398 0.4304182102753149
3 119 123 248 0.9021400156904228 0.4560415931808398 0.4304182102753149
3 199 123 119 0.9021400156904228 0.4560415931808398 0.4304182102753149
3 119 124 199 0.9021400156904228 0.4560415931808398 0.4304182102753149
3 249 124 119 0.9021400156904228 0.4560415931808398 0.4304182102753149
3 97 342 77 0.9021400156904228 0.4560415931808398 0.4304182102753149
3 249 119 97 0.9021400156904228 0.4560415931808398 0.4304182102753149
3 248 342 97 0.9021400156904228 0.4560415931808398 0.4304182102753149
3 97 119 248 0.9021400156904228 0.4560415931808398 0.4304182102753149
3 198 127 19 0.9021400156904228 0.4560415931808398 0.4304182102753149
3 198 123 127 0.9021400156904228 0.4560415931808398 0.4304182102753149
3 19 18 198 0.9021400156904228 0.4560415931808398 0.4304182102753149
3 118 123 198 0.9021400156904228 0.4560415931808398 0.4304182102753149
3 18 122 198 0.9021400156904228 0.4560415931808398 0.4304182102753149
3 198 122 118 0.9021400156904228 0.4560415931808398 0.4304182102753149
3 77 9 191 0.9021400156904228 0.4560415931808398 0.4304182102753149
3 191 9 8 0.9021400156904228 0.4560415931808398 0.4304182102753149
3 8 74 191 0.9021400156904228 0.4560415931808398 0.4304182102753149
3 341 559 558 0.9021400156904228 0.4560415931808398 0.4304182102753149
3 402 557 558 0.9021400156904228 0.4560415931808398 0.4304182102753149
3 558 559 402 0.9021400156904228 0.4560415931808398 0.4304182102753149
3 560 559 341 0.9021400156904228 0.4560415931808398 0.4304182102753149
3 495 547 561 0.9021400156904228 0.4560415931808398 0.4304182102753149
3 495 494 547 0.9021400156904228 0.4560415931808398 0.4304182102753149
3 561 560 495 0.9021400156904228 0.4560415931808398 0.4304182102753149
3 495 391 494 0.9021400156904228 0.4560415931808398 0.4304182102753149
3 495 560 341 0.9021400156904228 0.4560415931808398 0.4304182102753149
3 341 391 495 0.9021400156904228 0.4560415931808398 0.4304182102753149
3 92 71 6 0.9021400156904228 0.4560415931808398 0.4304182102753149
3 6 5 92 0.9021400156904228 0.4560415931808398 0.4304182102753149
3 92 5 112 0.9021400156904228 0.4560415931808398 0.4304182102753149
3 112 93 92 0.9021400156904228 0.4560415931808398 0.4304182102753149
3 398 254 349 0.9021400156904228 0.4560415931808398 0.4304182102753149
3 116 554 553 0.9021400156904228 0.4560415931808398 0.4304182102753149
3 552 95 553 0.9021400156904228 0.4560415931808398 0.4304182102753149
3 553 115 116 0.9021400156904228 0.4560415931808398 0.4304182102753149
3 95 115 553 0.9021400156904228 0.4560415931808398 0.4304182102753149
3 145 146 116 0.9021400156904228 0.4560415931808398 0.4304182102753149
3 145 115 144 0.9021400156904228 0.4560415931808398 0.4304182102753149
3 116 115 145 0.9021400156904228 0.4560415931808398 0.4304182102753149
3 145 187 146 0.9021400156904228 0.4560415931808398 0.4304182102753149
3 189 190 147 0.9021400156904228 0.4560415931808398 0.4304182102753149
3 147 190 556 0.9021400156904228 0.4560415931808398 0.4304182102753149
3 147 554 116 0.9021400156904228 0.4560415931808398 0.4304182102753149
3 116 146 147 0.9021400156904228 0.4560415931808398 0.4304182102753149
3 347 203 252 0.9021400156904228 0.4560415931808398 0.4304182102753149
3 347 253 203 0.9021400156904228 0.4560415931808398 0.4304182102753149
3 204 254 397 0.9021400156904228 0.4560415931808398 0.4304182102753149
3 397 396 204 0.9021400156904228 0.4560415931808398 0.4304182102753149
3 204 396 203 0.9021400156904228 0.4560415931808398 0.4304182102753149
3 203 253 204 0.9021400156904228 0.4560415931808398 0.4304182102753149
3 73 93 94 0.9021400156904228 0.4560415931808398 0.4304182102753149
3 94 551 73 0.9021400156904228 0.4560415931808398 0.4304182102753149
3 73 551 550 0.9021400156904228 0.4560415931808398 0.4304182102753149
3 346 194 195 0.9021400156904228 0.4560415931808398 0.4304182102753149
3 346 347 252 0.9021400156904228 0.4560415931808398 0.4304182102753149
3 195 347 346 0.9021400156904228 0.4560415931808398 0.4304182102753149
3 252 251 346 0.9021400156904228 0.4560415931808398 0.4304182102753149
3 120 98 250 0.9021400156904228 0.4560415931808398 0.4304182102753149
3 81 394 106 0.9021400156904228 0.4560415931808398 0.4304182102753149
3 106 103 395 0.9021400156904228 0.4560415931808398 0.4304182102753149
3 394 103 106 0.9021400156904228 0.4560415931808398 0.4304182102753149
3 395 396 107 0.9021400156904228 0.4560415931808398 0.4304182102753149
3 24 287 83 0.9021400156904228 0.4560415931808398 0.4304182102753149
3 287 288 83 0.9021400156904228 0.4560415931808398 0.4304182102753149
3 83 25 24 0.9021400156904228 0.4560415931808398 0.4304182102753149
3 140 139 181 0.9021400156904228 0.4560415931808398 0.4304182102753149
3 331 490 183 0.9021400156904228 0.4560415931808398 0.4304182102753149
3 183 490 489 0.9021400156904228 0.4560415931808398 0.4304182102753149
3 458 313 504 0.9021400156904228 0.4560415931808398 0.4304182102753149
3 504 505 458 0.9021400156904228 0.4560415931808398 0.4304182102753149
3 504 313 503 0.9021400156904228 0.4560415931808398 0.4304182102753149
3 503 211 504 0.9021400156904228 0.4560415931808398 0.4304182102753149
3 507 459 506 0.9021400156904228 0.4560415931808398 0.4304182102753149
3 459 505 506 0.9021400156904228 0.4560415931808398 0.4304182102753149
3 505 412 506 0.9021400156904228 0.4560415931808398 0.4304182102753149
3 506 413 507 0.9021400156904228 0.4560415931808398 0.4304182102753149
3 506 412 413 0.9021400156904228 0.4560415931808398 0.4304182102753149
3 215 216 429 0.9021400156904228 0.4560415931808398 0.4304182102753149
3 215 428 214 0.9021400156904228 0.4560415931808398 0.4304182102753149
3 429 428 215 0.9021400156904228 0.4560415931808398 0.4304182102753149
3 265 415 416 0.9021400156904228 0.4560415931808398 0.4304182102753149
3 217 216 513 0.9021400156904228 0.4560415931808398 0.4304182102753149
3 513 514 217 0.9021400156904228 0.4560415931808398 0.4304182102753149
3 236 237 181 0.9021400156904228 0.4560415931808398 0.4304182102753149
3 181 180 236 0.9021400156904228 0.4560415931808398 0.4304182102753149
3 222 463 221 0.9021400156904228 0.4560415931808398 0.4304182102753149
3 221 364 222 0.9021400156904228 0.4560415931808398 0.4304182102753149
3 222 464 463 0.9021400156904228 0.4560415931808398 0.4304182102753149
3 222 364 365 0.9021400156904228 0.4560415931808398 0.4304182102753149
3 222 223 464 0.9021400156904228 0.4560415931808398 0.4304182102753149
3 365 223 222 0.9021400156904228 0.4560415931808398 0.4304182102753149
3 502 312 501 0.9021400156904228 0.4560415931808398 0.4304182102753149
3 503 313 502 0.9021400156904228 0.4560415931808398 0.4304182102753149
3 313 312 502 0.9021400156904228 0.4560415931808398 0.4304182102753149
3 502 211 503 0.9021400156904228 0.4560415931808398 0.4304182102753149
3 502 210 211 0.9021400156904228 0.4560415931808398 0.4304182102753149
3 502 501 209 0.9021400156904228 0.4560415931808398 0.4304182102753149
3 209 210 502 0.9021400156904228 0.4560415931808398 0.4304182102753149
3 70 240 383 0.9021400156904228 0.4560415931808398 0.4304182102753149
3 383 333 70 0.9021400156904228 0.4560415931808398 0.4304182102753149
3 383 241 384 0.9021400156904228 0.4560415931808398 0.4304182102753149
3 383 240 241 0.9021400156904228 0.4560415931808398 0.4304182102753149
3 332 2 1 0.9021400156904228 0.4560415931808398 0.4304182102753149
3 1 70 332 0.9021400156904228 0.4560415931808398 0.4304182102753149
3 70 333 332 0.9021400156904228 0.4560415931808398 0.4304182102753149
3 185 332 333 0.9021400156904228 0.4560415931808398 0.4304182102753149
3 144 143 185 0.9021400156904228 0.4560415931808398 0.4304182102753149
3 341 558 340 0.9021400156904228 0.4560415931808398 0.4304182102753149
3 340 558 557 0.9021400156904228 0.4560415931808398 0.4304182102753149
3 410 303 411 0.9021400156904228 0.4560415931808398 0.4304182102753149
3 409 302 410 0.9021400156904228 0.4560415931808398 0.4304182102753149
3 302 303 410 0.9021400156904228 0.4560415931808398 0.4304182102753149
3 410 211 409 0.9021400156904228 0.4560415931808398 0.4304182102753149
3 410 504 211 0.9021400156904228 0.4560415931808398 0.4304182102753149
3 411 505 410 0.9021400156904228 0.4560415931808398 0.4304182102753149
3 505 504 410 0.9021400156904228 0.4560415931808398 0.4304182102753149
3 443 302 442 0.9021400156904228 0.4560415931808398 0.4304182102753149
3 443 303 302 0.9021400156904228 0.4560415931808398 0.4304182102753149
3 444 303 443 0.9021400156904228 0.4560415931808398 0.4304182102753149
3 442 262 443 0.9021400156904228 0.4560415931808398 0.4304182102753149
3 295 444 443 0.9021400156904228 0.4560415931808398 0.4304182102753149
3 443 262 295 0.9021400156904228 0.4560415931808398 0.4304182102753149
3 301 302 136 0.9021400156904228 0.4560415931808398 0.4304182102753149
3 136 300 301 0.9021400156904228 0.4560415931808398 0.4304182102753149
3 442 302 301 0.9021400156904228 0.4560415931808398 0.4304182102753149
3 301 441 442 0.9021400156904228 0.4560415931808398 0.4304182102753149
3 300 441 301 0.9021400156904228 0.4560415931808398 0.4304182102753149
3 437 88 438 0.9021400156904228 0.4560415931808398 0.4304182102753149
3 438 88 259 0.9021400156904228 0.4560415931808398 0.4304182102753149
3 109 437 438 0.9021400156904228 0.4560415931808398 0.4304182102753149
3 438 110 109 0.9021400156904228 0.4560415931808398 0.4304182102753149
3 84 83 288 0.9021400156904228 0.4560415931808398 0.4304182102753149
3 290 257 85 0.9021400156904228 0.4560415931808398 0.4304182102753149
3 85 257 256 0.9021400156904228 0.4560415931808398 0.4304182102753149
3 256 84 85 0.9021400156904228 0.4560415931808398 0.4304182102753149
3 299 298 111 0.9021400156904228 0.4560415931808398 0.4304182102753149
3 298 110 111 0.9021400156904228 0.4560415931808398 0.4304182102753149
3 111 300 299 0.9021400156904228 0.4560415931808398 0.4304182102753149
3 440 441 111 0.9021400156904228 0.4560415931808398 0.4304182102753149
3 111 441 300 0.9021400156904228 0.4560415931808398 0.4304182102753149
3 80 23 22 0.9021400156904228 0.4560415931808398 0.4304182102753149
3 81 287 80 0.9021400156904228 0.4560415931808398 0.4304182102753149
3 287 23 80 0.9021400156904228 0.4560415931808398 0.4304182102753149
3 151 152 356 0.9021400156904228 0.4560415931808398 0.4304182102753149
3 152 357 356 0.9021400156904228 0.4560415931808398 0.4304182102753149
3 155 156 524 0.9021400156904228 0.4560415931808398 0.4304182102753149
3 524 523 155 0.9021400156904228 0.4560415931808398 0.4304182102753149
3 163 162 524 0.9021400156904228 0.4560415931808398 0.4304182102753149
3 524 162 523 0.9021400156904228 0.4560415931808398 0.4304182102753149
3 355 150 151 0.9021400156904228 0.4560415931808398 0.4304182102753149
3 151 356 355 0.9021400156904228 0.4560415931808398 0.4304182102753149
3 353 352 148 0.9021400156904228 0.4560415931808398 0.4304182102753149
3 155 352 353 0.9021400156904228 0.4560415931808398 0.4304182102753149
3 353 156 155 0.9021400156904228 0.4560415931808398 0.4304182102753149
3 224 366 367 0.9021400156904228 0.4560415931808398 0.4304182102753149
3 366 164 367 0.9021400156904228 0.4560415931808398 0.4304182102753149
3 367 225 224 0.9021400156904228 0.4560415931808398 0.4304182102753149
3 367 368 225 0.9021400156904228 0.4560415931808398 0.4304182102753149
3 526 164 525 0.9021400156904228 0.4560415931808398 0.4304182102753149
3 525 164 163 0.9021400156904228 0.4560415931808398 0.4304182102753149
3 163 524 525 0.9021400156904228 0.4560415931808398 0.4304182102753149
3 525 524 156 0.9021400156904228 0.4560415931808398 0.4304182102753149
3 453 319 452 0.9021400156904228 0.4560415931808398 0.4304182102753149
3 320 319 453 0.9021400156904228 0.4560415931808398 0.4304182102753149
3 454 320 453 0.9021400156904228 0.4560415931808398 0.4304182102753149
3 309 454 453 0.9021400156904228 0.4560415931808398 0.4304182102753149
3 453 308 309 0.9021400156904228 0.4560415931808398 0.4304182102753149
3 452 307 453 0.9021400156904228 0.4560415931808398 0.4304182102753149
3 453 307 308 0.9021400156904228 0.4560415931808398 0.4304182102753149
3 167 168 473 0.9021400156904228 0.4560415931808398 0.4304182102753149
3 473 472 167 0.9021400156904228 0.4560415931808398 0.4304182102753149
3 167 166 227 0.9021400156904228 0.4560415931808398 0.4304182102753149
3 167 472 166 0.9021400156904228 0.4560415931808398 0.4304182102753149
3 58 472 59 0.9021400156904228 0.4560415931808398 0.4304182102753149
3 172 60 59 0.9021400156904228 0.4560415931808398 0.4304182102753149
3 59 472 172 0.9021400156904228 0.4560415931808398 0.4304182102753149
3 232 477 171 0.9021400156904228 0.4560415931808398 0.4304182102753149
3 278 477 232 0.9021400156904228 0.4560415931808398 0.4304182102753149
3 467 278 232 0.9021400156904228 0.4560415931808398 0.4304182102753149
3 232 277 467 0.9021400156904228 0.4560415931808398 0.4304182102753149
3 171 277 232 0.9021400156904228 0.4560415931808398 0.4304182102753149
3 65 233 234 0.9021400156904228 0.4560415931808398 0.4304182102753149
3 234 178 65 0.9021400156904228 0.4560415931808398 0.4304182102753149
3 234 233 325 0.9021400156904228 0.4560415931808398 0.4304182102753149
3 325 326 234 0.9021400156904228 0.4560415931808398 0.4304182102753149
3 542 543 329 0.9021400156904228 0.4560415931808398 0.4304182102753149
3 543 330 329 0.9021400156904228 0.4560415931808398 0.4304182102753149
3 138 180 139 0.9021400156904228 0.4560415931808398 0.4304182102753149
3 484 137 138 0.9021400156904228 0.4560415931808398 0.4304182102753149
3 138 137 179 0.9021400156904228 0.4560415931808398 0.4304182102753149
3 179 180 138 0.9021400156904228 0.4560415931808398 0.4304182102753149
3 77 191 343 0.9021400156904228 0.4560415931808398 0.4304182102753149
3 343 98 249 0.9021400156904228 0.4560415931808398 0.4304182102753149
3 343 97 77 0.9021400156904228 0.4560415931808398 0.4304182102753149
3 249 97 343 0.9021400156904228 0.4560415931808398 0.4304182102753149
3 344 250 98 0.9021400156904228 0.4560415931808398 0.4304182102753149
3 192 79 344 0.9021400156904228 0.4560415931808398 0.4304182102753149
3 344 79 99 0.9021400156904228 0.4560415931808398 0.4304182102753149
3 99 250 344 0.9021400156904228 0.4560415931808398 0.4304182102753149
3 446 559 447 0.9021400156904228 0.4560415931808398 0.4304182102753149
3 559 560 447 0.9021400156904228 0.4560415931808398 0.4304182102753149
3 447 413 446 0.9021400156904228 0.4560415931808398 0.4304182102753149
3 508 413 447 0.9021400156904228 0.4560415931808398 0.4304182102753149
3 561 508 447 0.9021400156904228 0.4560415931808398 0.4304182102753149
3 447 560 561 0.9021400156904228 0.4560415931808398 0.4304182102753149
3 494 391 493 0.9021400156904228 0.4560415931808398 0.4304182102753149
3 546 494 493 0.9021400156904228 0.4560415931808398 0.4304182102753149
3 493 545 546 0.9021400156904228 0.4560415931808398 0.4304182102753149
3 492 545 493 0.9021400156904228 0.4560415931808398 0.4304182102753149
3 385 384 242 0.9021400156904228 0.4560415931808398 0.4304182102753149
3 242 243 385 0.9021400156904228 0.4560415931808398 0.4304182102753149
3 334 383 384 0.9021400156904228 0.4560415931808398 0.4304182102753149
3 333 383 334 0.9021400156904228 0.4560415931808398 0.4304182102753149
3 188 336 189 0.9021400156904228 0.4560415931808398 0.4304182102753149
3 189 147 188 0.9021400156904228 0.4560415931808398 0.4304182102753149
3 146 187 188 0.9021400156904228 0.4560415931808398 0.4304182102753149
3 188 147 146 0.9021400156904228 0.4560415931808398 0.4304182102753149
3 489 490 245 0.9021400156904228 0.4560415931808398 0.4304182102753149
3 491 331 492 0.9021400156904228 0.4560415931808398 0.4304182102753149
3 491 490 331 0.9021400156904228 0.4560415931808398 0.4304182102753149
3 72 549 71 0.9021400156904228 0.4560415931808398 0.4304182102753149
3 71 92 72 0.9021400156904228 0.4560415931808398 0.4304182102753149
3 550 76 72 0.9021400156904228 0.4560415931808398 0.4304182102753149
3 76 549 72 0.9021400156904228 0.4560415931808398 0.4304182102753149
3 72 92 93 0.9021400156904228 0.4560415931808398 0.4304182102753149
3 72 73 550 0.9021400156904228 0.4560415931808398 0.4304182102753149
3 93 73 72 0.9021400156904228 0.4560415931808398 0.4304182102753149
3 142 143 113 0.9021400156904228 0.4560415931808398 0.4304182102753149
3 112 142 113 0.9021400156904228 0.4560415931808398 0.4304182102753149
3 113 93 112 0.9021400156904228 0.4560415931808398 0.4304182102753149
3 94 93 113 0.9021400156904228 0.4560415931808398 0.4304182102753149
3 555 147 556 0.9021400156904228 0.4560415931808398 0.4304182102753149
3 554 147 555 0.9021400156904228 0.4560415931808398 0.4304182102753149
3 350 555 556 0.9021400156904228 0.4560415931808398 0.4304182102753149
3 350 349 554 0.9021400156904228 0.4560415931808398 0.4304182102753149
3 554 555 350 0.9021400156904228 0.4560415931808398 0.4304182102753149
3 554 349 197 0.9021400156904228 0.4560415931808398 0.4304182102753149
3 197 553 554 0.9021400156904228 0.4560415931808398 0.4304182102753149
3 197 349 254 0.9021400156904228 0.4560415931808398 0.4304182102753149
3 253 347 196 0.9021400156904228 0.4560415931808398 0.4304182102753149
3 196 195 552 0.9021400156904228 0.4560415931808398 0.4304182102753149
3 196 347 195 0.9021400156904228 0.4560415931808398 0.4304182102753149
3 552 553 196 0.9021400156904228 0.4560415931808398 0.4304182102753149
3 553 197 196 0.9021400156904228 0.4560415931808398 0.4304182102753149
3 345 346 251 0.9021400156904228 0.4560415931808398 0.4304182102753149
3 345 251 99 0.9021400156904228 0.4560415931808398 0.4304182102753149
3 193 194 345 0.9021400156904228 0.4560415931808398 0.4304182102753149
3 194 346 345 0.9021400156904228 0.4560415931808398 0.4304182102753149
3 345 79 193 0.9021400156904228 0.4560415931808398 0.4304182102753149
3 99 79 345 0.9021400156904228 0.4560415931808398 0.4304182102753149
3 126 251 202 0.9021400156904228 0.4560415931808398 0.4304182102753149
3 200 124 120 0.9021400156904228 0.4560415931808398 0.4304182102753149
3 200 128 124 0.9021400156904228 0.4560415931808398 0.4304182102753149
3 100 21 20 0.9021400156904228 0.4560415931808398 0.4304182102753149
3 199 128 100 0.9021400156904228 0.4560415931808398 0.4304182102753149
3 20 127 100 0.9021400156904228 0.4560415931808398 0.4304182102753149
3 100 127 199 0.9021400156904228 0.4560415931808398 0.4304182102753149
3 139 140 486 0.9021400156904228 0.4560415931808398 0.4304182102753149
3 242 241 486 0.9021400156904228 0.4560415931808398 0.4304182102753149
3 239 330 331 0.9021400156904228 0.4560415931808398 0.4304182102753149
3 331 183 239 0.9021400156904228 0.4560415931808398 0.4304182102753149
3 239 329 330 0.9021400156904228 0.4560415931808398 0.4304182102753149
3 489 488 141 0.9021400156904228 0.4560415931808398 0.4304182102753149
3 141 183 489 0.9021400156904228 0.4560415931808398 0.4304182102753149
3 181 237 182 0.9021400156904228 0.4560415931808398 0.4304182102753149
3 182 140 181 0.9021400156904228 0.4560415931808398 0.4304182102753149
3 182 141 140 0.9021400156904228 0.4560415931808398 0.4304182102753149
3 183 141 182 0.9021400156904228 0.4560415931808398 0.4304182102753149
3 415 265 264 0.9021400156904228 0.4560415931808398 0.4304182102753149
3 264 263 414 0.9021400156904228 0.4560415931808398 0.4304182102753149
3 414 415 264 0.9021400156904228 0.4560415931808398 0.4304182102753149
3 510 263 264 0.9021400156904228 0.4560415931808398 0.4304182102753149
3 216 215 512 0.9021400156904228 0.4560415931808398 0.4304182102753149
3 512 513 216 0.9021400156904228 0.4560415931808398 0.4304182102753149
3 268 514 267 0.9021400156904228 0.4560415931808398 0.4304182102753149
3 514 513 267 0.9021400156904228 0.4560415931808398 0.4304182102753149
3 417 418 267 0.9021400156904228 0.4560415931808398 0.4304182102753149
3 267 418 268 0.9021400156904228 0.4560415931808398 0.4304182102753149
3 186 185 333 0.9021400156904228 0.4560415931808398 0.4304182102753149
3 186 334 187 0.9021400156904228 0.4560415931808398 0.4304182102753149
3 333 334 186 0.9021400156904228 0.4560415931808398 0.4304182102753149
3 187 145 186 0.9021400156904228 0.4560415931808398 0.4304182102753149
3 186 145 144 0.9021400156904228 0.4560415931808398 0.4304182102753149
3 144 185 186 0.9021400156904228 0.4560415931808398 0.4304182102753149
3 184 185 143 0.9021400156904228 0.4560415931808398 0.4304182102753149
3 184 142 3 0.9021400156904228 0.4560415931808398 0.4304182102753149
3 184 143 142 0.9021400156904228 0.4560415931808398 0.4304182102753149
3 3 2 184 0.9021400156904228 0.4560415931808398 0.4304182102753149
3 2 332 184 0.9021400156904228 0.4560415931808398 0.4304182102753149
3 332 185 184 0.9021400156904228 0.4560415931808398 0.4304182102753149
3 557 190 339 0.9021400156904228 0.4560415931808398 0.4304182102753149
3 339 340 557 0.9021400156904228 0.4560415931808398 0.4304182102753149
3 439 438 259 0.9021400156904228 0.4560415931808398 0.4304182102753149
3 259 260 439 0.9021400156904228 0.4560415931808398 0.4304182102753149
3 439 260 440 0.9021400156904228 0.4560415931808398 0.4304182102753149
3 110 438 439 0.9021400156904228 0.4560415931808398 0.4304182102753149
3 440 111 439 0.9021400156904228 0.4560415931808398 0.4304182102753149
3 439 111 110 0.9021400156904228 0.4560415931808398 0.4304182102753149
3 255 84 256 0.9021400156904228 0.4560415931808398 0.4304182102753149
3 255 86 26 0.9021400156904228 0.4560415931808398 0.4304182102753149
3 255 256 86 0.9021400156904228 0.4560415931808398 0.4304182102753149
3 26 25 255 0.9021400156904228 0.4560415931808398 0.4304182102753149
3 25 83 255 0.9021400156904228 0.4560415931808398 0.4304182102753149
3 83 84 255 0.9021400156904228 0.4560415931808398 0.4304182102753149
3 396 290 289 0.9021400156904228 0.4560415931808398 0.4304182102753149
3 289 107 396 0.9021400156904228 0.4560415931808398 0.4304182102753149
3 290 85 289 0.9021400156904228 0.4560415931808398 0.4304182102753149
3 289 85 84 0.9021400156904228 0.4560415931808398 0.4304182102753149
3 289 84 288 0.9021400156904228 0.4560415931808398 0.4304182102753149
3 104 80 22 0.9021400156904228 0.4560415931808398 0.4304182102753149
3 22 21 104 0.9021400156904228 0.4560415931808398 0.4304182102753149
3 105 102 394 0.9021400156904228 0.4560415931808398 0.4304182102753149
3 105 394 81 0.9021400156904228 0.4560415931808398 0.4304182102753149
3 81 80 105 0.9021400156904228 0.4560415931808398 0.4304182102753149
3 80 104 105 0.9021400156904228 0.4560415931808398 0.4304182102753149
3 528 368 527 0.9021400156904228 0.4560415931808398 0.4304182102753149
3 158 355 356 0.9021400156904228 0.4560415931808398 0.4304182102753149
3 158 527 526 0.9021400156904228 0.4560415931808398 0.4304182102753149
3 149 353 148 0.9021400156904228 0.4560415931808398 0.4304182102753149
3 149 148 425 0.9021400156904228 0.4560415931808398 0.4304182102753149
3 425 426 149 0.9021400156904228 0.4560415931808398 0.4304182102753149
3 426 150 149 0.9021400156904228 0.4560415931808398 0.4304182102753149
3 156 353 354 0.9021400156904228 0.4560415931808398 0.4304182102753149
3 353 149 354 0.9021400156904228 0.4560415931808398 0.4304182102753149
3 150 355 354 0.9021400156904228 0.4560415931808398 0.4304182102753149
3 354 149 150 0.9021400156904228 0.4560415931808398 0.4304182102753149
3 274 168 228 0.9021400156904228 0.4560415931808398 0.4304182102753149
3 168 167 228 0.9021400156904228 0.4560415931808398 0.4304182102753149
3 228 273 274 0.9021400156904228 0.4560415931808398 0.4304182102753149
3 227 273 228 0.9021400156904228 0.4560415931808398 0.4304182102753149
3 228 167 227 0.9021400156904228 0.4560415931808398 0.4304182102753149
3 179 178 235 0.9021400156904228 0.4560415931808398 0.4304182102753149
3 178 234 235 0.9021400156904228 0.4560415931808398 0.4304182102753149
3 235 180 179 0.9021400156904228 0.4560415931808398 0.4304182102753149
3 235 236 180 0.9021400156904228 0.4560415931808398 0.4304182102753149
3 235 234 326 0.9021400156904228 0.4560415931808398 0.4304182102753149
3 235 326 327 0.9021400156904228 0.4560415931808398 0.4304182102753149
3 327 236 235 0.9021400156904228 0.4560415931808398 0.4304182102753149
3 328 541 542 0.9021400156904228 0.4560415931808398 0.4304182102753149
3 542 329 328 0.9021400156904228 0.4560415931808398 0.4304182102753149
3 328 327 541 0.9021400156904228 0.4560415931808398 0.4304182102753149
3 328 236 327 0.9021400156904228 0.4560415931808398 0.4304182102753149
3 237 236 328 0.9021400156904228 0.4560415931808398 0.4304182102753149
3 98 343 78 0.9021400156904228 0.4560415931808398 0.4304182102753149
3 78 343 191 0.9021400156904228 0.4560415931808398 0.4304182102753149
3 78 344 98 0.9021400156904228 0.4560415931808398 0.4304182102753149
3 192 344 78 0.9021400156904228 0.4560415931808398 0.4304182102753149
3 78 74 192 0.9021400156904228 0.4560415931808398 0.4304182102753149
3 78 191 74 0.9021400156904228 0.4560415931808398 0.4304182102753149
3 336 385 386 0.9021400156904228 0.4560415931808398 0.4304182102753149
3 386 385 243 0.9021400156904228 0.4560415931808398 0.4304182102753149
3 384 385 335 0.9021400156904228 0.4560415931808398 0.4304182102753149
3 335 334 384 0.9021400156904228 0.4560415931808398 0.4304182102753149
3 335 385 336 0.9021400156904228 0.4560415931808398 0.4304182102753149
3 336 188 335 0.9021400156904228 0.4560415931808398 0.4304182102753149
3 187 334 335 0.9021400156904228 0.4560415931808398 0.4304182102753149
3 335 188 187 0.9021400156904228 0.4560415931808398 0.4304182102753149
3 246 491 492 0.9021400156904228 0.4560415931808398 0.4304182102753149
3 246 245 490 0.9021400156904228 0.4560415931808398 0.4304182102753149
3 490 491 246 0.9021400156904228 0.4560415931808398 0.4304182102753149
3 114 113 143 0.9021400156904228 0.4560415931808398 0.4304182102753149
3 114 115 95 0.9021400156904228 0.4560415931808398 0.4304182102753149
3 114 95 94 0.9021400156904228 0.4560415931808398 0.4304182102753149
3 94 113 114 0.9021400156904228 0.4560415931808398 0.4304182102753149
3 144 115 114 0.9021400156904228 0.4560415931808398 0.4304182102753149
3 114 143 144 0.9021400156904228 0.4560415931808398 0.4304182102753149
3 399 350 400 0.9021400156904228 0.4560415931808398 0.4304182102753149
3 400 293 399 0.9021400156904228 0.4560415931808398 0.4304182102753149
3 398 349 399 0.9021400156904228 0.4560415931808398 0.4304182102753149
3 349 350 399 0.9021400156904228 0.4560415931808398 0.4304182102753149
3 399 292 398 0.9021400156904228 0.4560415931808398 0.4304182102753149
3 293 292 399 0.9021400156904228 0.4560415931808398 0.4304182102753149
3 400 350 351 0.9021400156904228 0.4560415931808398 0.4304182102753149
3 351 350 556 0.9021400156904228 0.4560415931808398 0.4304182102753149
3 351 401 400 0.9021400156904228 0.4560415931808398 0.4304182102753149
3 556 557 351 0.9021400156904228 0.4560415931808398 0.4304182102753149
3 351 557 401 0.9021400156904228 0.4560415931808398 0.4304182102753149
3 253 196 348 0.9021400156904228 0.4560415931808398 0.4304182102753149
3 254 204 348 0.9021400156904228 0.4560415931808398 0.4304182102753149
3 348 204 253 0.9021400156904228 0.4560415931808398 0.4304182102753149
3 348 197 254 0.9021400156904228 0.4560415931808398 0.4304182102753149
3 348 196 197 0.9021400156904228 0.4560415931808398 0.4304182102753149
3 130 126 202 0.9021400156904228 0.4560415931808398 0.4304182102753149
3 394 102 130 0.9021400156904228 0.4560415931808398 0.4304182102753149
3 202 103 130 0.9021400156904228 0.4560415931808398 0.4304182102753149
3 130 103 394 0.9021400156904228 0.4560415931808398 0.4304182102753149
3 120 250 125 0.9021400156904228 0.4560415931808398 0.4304182102753149
3 125 200 120 0.9021400156904228 0.4560415931808398 0.4304182102753149
3 139 486 485 0.9021400156904228 0.4560415931808398 0.4304182102753149
3 485 138 139 0.9021400156904228 0.4560415931808398 0.4304182102753149
3 484 138 485 0.9021400156904228 0.4560415931808398 0.4304182102753149
3 485 486 241 0.9021400156904228 0.4560415931808398 0.4304182102753149
3 241 240 485 0.9021400156904228 0.4560415931808398 0.4304182102753149
3 240 484 485 0.9021400156904228 0.4560415931808398 0.4304182102753149
3 329 239 238 0.9021400156904228 0.4560415931808398 0.4304182102753149
3 237 328 238 0.9021400156904228 0.4560415931808398 0.4304182102753149
3 238 328 329 0.9021400156904228 0.4560415931808398 0.4304182102753149
3 238 182 237 0.9021400156904228 0.4560415931808398 0.4304182102753149
3 238 239 183 0.9021400156904228 0.4560415931808398 0.4304182102753149
3 183 182 238 0.9021400156904228 0.4560415931808398 0.4304182102753149
3 487 486 140 0.9021400156904228 0.4560415931808398 0.4304182102753149
3 140 141 487 0.9021400156904228 0.4560415931808398 0.4304182102753149
3 487 141 488 0.9021400156904228 0.4560415931808398 0.4304182102753149
3 488 243 487 0.9021400156904228 0.4560415931808398 0.4304182102753149
3 487 243 242 0.9021400156904228 0.4560415931808398 0.4304182102753149
3 242 486 487 0.9021400156904228 0.4560415931808398 0.4304182102753149
3 265 512 511 0.9021400156904228 0.4560415931808398 0.4304182102753149
3 510 264 511 0.9021400156904228 0.4560415931808398 0.4304182102753149
3 511 264 265 0.9021400156904228 0.4560415931808398 0.4304182102753149
3 511 512 215 0.9021400156904228 0.4560415931808398 0.4304182102753149
3 214 510 511 0.9021400156904228 0.4560415931808398 0.4304182102753149
3 511 215 214 0.9021400156904228 0.4560415931808398 0.4304182102753149
3 417 267 266 0.9021400156904228 0.4560415931808398 0.4304182102753149
3 266 416 417 0.9021400156904228 0.4560415931808398 0.4304182102753149
3 266 265 416 0.9021400156904228 0.4560415931808398 0.4304182102753149
3 266 512 265 0.9021400156904228 0.4560415931808398 0.4304182102753149
3 513 512 266 0.9021400156904228 0.4560415931808398 0.4304182102753149
3 266 267 513 0.9021400156904228 0.4560415931808398 0.4304182102753149
3 337 190 189 0.9021400156904228 0.4560415931808398 0.4304182102753149
3 189 336 337 0.9021400156904228 0.4560415931808398 0.4304182102753149
3 337 386 387 0.9021400156904228 0.4560415931808398 0.4304182102753149
3 336 386 337 0.9021400156904228 0.4560415931808398 0.4304182102753149
3 82 289 288 0.9021400156904228 0.4560415931808398 0.4304182102753149
3 107 289 82 0.9021400156904228 0.4560415931808398 0.4304182102753149
3 82 288 81 0.9021400156904228 0.4560415931808398 0.4304182102753149
3 81 106 82 0.9021400156904228 0.4560415931808398 0.4304182102753149
3 82 106 395 0.9021400156904228 0.4560415931808398 0.4304182102753149
3 395 107 82 0.9021400156904228 0.4560415931808398 0.4304182102753149
3 128 200 101 0.9021400156904228 0.4560415931808398 0.4304182102753149
3 102 105 393 0.9021400156904228 0.4560415931808398 0.4304182102753149
3 393 105 104 0.9021400156904228 0.4560415931808398 0.4304182102753149
3 104 101 393 0.9021400156904228 0.4560415931808398 0.4304182102753149
3 159 356 357 0.9021400156904228 0.4560415931808398 0.4304182102753149
3 159 357 528 0.9021400156904228 0.4560415931808398 0.4304182102753149
3 528 527 159 0.9021400156904228 0.4560415931808398 0.4304182102753149
3 159 158 356 0.9021400156904228 0.4560415931808398 0.4304182102753149
3 527 158 159 0.9021400156904228 0.4560415931808398 0.4304182102753149
3 526 527 165 0.9021400156904228 0.4560415931808398 0.4304182102753149
3 165 164 526 0.9021400156904228 0.4560415931808398 0.4304182102753149
3 165 367 164 0.9021400156904228 0.4560415931808398 0.4304182102753149
3 368 367 165 0.9021400156904228 0.4560415931808398 0.4304182102753149
3 165 527 368 0.9021400156904228 0.4560415931808398 0.4304182102753149
3 526 525 157 0.9021400156904228 0.4560415931808398 0.4304182102753149
3 157 354 355 0.9021400156904228 0.4560415931808398 0.4304182102753149
3 157 525 156 0.9021400156904228 0.4560415931808398 0.4304182102753149
3 156 354 157 0.9021400156904228 0.4560415931808398 0.4304182102753149
3 157 158 526 0.9021400156904228 0.4560415931808398 0.4304182102753149
3 355 158 157 0.9021400156904228 0.4560415931808398 0.4304182102753149
3 244 386 243 0.9021400156904228 0.4560415931808398 0.4304182102753149
3 244 243 488 0.9021400156904228 0.4560415931808398 0.4304182102753149
3 244 245 387 0.9021400156904228 0.4560415931808398 0.4304182102753149
3 387 386 244 0.9021400156904228 0.4560415931808398 0.4304182102753149
3 244 488 489 0.9021400156904228 0.4560415931808398 0.4304182102753149
3 489 245 244 0.9021400156904228 0.4560415931808398 0.4304182102753149
3 340 339 389 0.9021400156904228 0.4560415931808398 0.4304182102753149
3 99 251 121 0.9021400156904228 0.4560415931808398 0.4304182102753149
3 251 126 121 0.9021400156904228 0.4560415931808398 0.4304182102753149
3 121 250 99 0.9021400156904228 0.4560415931808398 0.4304182102753149
3 121 125 250 0.9021400156904228 0.4560415931808398 0.4304182102753149
3 338 339 190 0.9021400156904228 0.4560415931808398 0.4304182102753149
3 190 337 338 0.9021400156904228 0.4560415931808398 0.4304182102753149
3 338 337 387 0.9021400156904228 0.4560415931808398 0.4304182102753149
3 392 104 21 0.9021400156904228 0.4560415931808398 0.4304182102753149
3 392 101 104 0.9021400156904228 0.4560415931808398 0.4304182102753149
3 21 100 392 0.9021400156904228 0.4560415931808398 0.4304182102753149
3 392 100 128 0.9021400156904228 0.4560415931808398 0.4304182102753149
3 128 101 392 0.9021400156904228 0.4560415931808398 0.4304182102753149
3 125 121 201 0.9021400156904228 0.4560415931808398 0.4304182102753149
3 201 121 126 0.9021400156904228 0.4560415931808398 0.4304182102753149
3 201 130 102 0.9021400156904228 0.4560415931808398 0.4304182102753149
3 126 130 201 0.9021400156904228 0.4560415931808398 0.4304182102753149
3 340 389 390 0.9021400156904228 0.4560415931808398 0.4304182102753149
3 390 391 341 0.9021400156904228 0.4560415931808398 0.4304182102753149
3 341 340 390 0.9021400156904228 0.4560415931808398 0.4304182102753149
3 492 493 390 0.9021400156904228 0.4560415931808398 0.4304182102753149
3 390 493 391 0.9021400156904228 0.4560415931808398 0.4304182102753149
3 390 246 492 0.9021400156904228 0.4560415931808398 0.4304182102753149
3 390 389 246 0.9021400156904228 0.4560415931808398 0.4304182102753149
3 388 389 339 0.9021400156904228 0.4560415931808398 0.4304182102753149
3 339 338 388 0.9021400156904228 0.4560415931808398 0.4304182102753149
3 388 338 387 0.9021400156904228 0.4560415931808398 0.4304182102753149
3 246 389 388 0.9021400156904228 0.4560415931808398 0.4304182102753149
3 387 245 388 0.9021400156904228 0.4560415931808398 0.4304182102753149
3 245 246 388 0.9021400156904228 0.4560415931808398 0.4304182102753149
3 129 393 101 0.9021400156904228 0.4560415931808398 0.4304182102753149
3 125 201 129 0.9021400156904228 0.4560415931808398 0.4304182102753149
3 102 393 129 0.9021400156904228 0.4560415931808398 0.4304182102753149
3 129 201 102 0.9021400156904228 0.4560415931808398 0.4304182102753149
3 200 125 129 0.9021400156904228 0.4560415931808398 0.4304182102753149
3 129 101 200 0.9021400156904228 0.4560415931808398 0.4304182102753149
