OFF
60 54 0


28.3175 28.5748 8.7699
28.3175 28.5748 8.7699
28.3036 28.686 8.715
28.2901 28.7973 8.6601
28.2901 28.7973 8.6601
28.1787 28.7712 8.6985
28.0698 28.7503 8.7336
27.9631 28.7341 8.7658
27.8585 28.7224 8.7952
27.7556 28.7147 8.8221
27.6543 28.7108 8.8467
27.5543 28.7106 8.8691
27.4553 28.7139 8.8894
27.357 28.7206 8.9078
27.2593 28.7307 8.9243
27.1618 28.7442 8.939
27.0643 28.7611 8.9519
26.9667 28.7817 8.9629
26.8686 28.8059 8.9721
26.77 28.8341 8.9794
26.6705 28.8664 8.9847
26.5702 28.9032 8.9879
26.4688 28.9447 8.9888
26.3663 28.9915 8.9873
26.2627 29.0438 8.9832
26.1579 29.1021 8.9761
26.1839 29.0229 9.0116
26.2098 28.9437 9.047
26.2358 28.8645 9.0825
26.2618 28.7853 9.118
26.2877 28.7061 9.1535
26.3137 28.6269 9.189
26.3396 28.5477 9.2245
26.3656 28.4685 9.2599
26.3915 28.3893 9.2954
26.4175 28.3101 9.3309
26.4434 28.2309 9.3664
26.4694 28.1517 9.4019
26.4954 28.0725 9.4374
26.4954 28.0725 9.4374
26.6041 28.1227 9.387
26.7046 28.1673 9.3414
26.7986 28.2073 9.2996
26.8875 28.2435 9.2609
26.9726 28.2766 9.2248
27.0547 28.307 9.1907
27.1347 28.3351 9.1582
27.2134 28.3613 9.127
27.2915 28.3859 9.0968
27.3696 28.4089 9.0674
27.4485 28.4307 9.0385
27.5287 28.4512 9.0099
27.6109 28.4707 8.9815
27.6959 28.489 8.953
27.7844 28.5063 8.9243
27.8775 28.5225 8.8951
27.976 28.5376 8.8653
28.0811 28.5515 8.8347
28.1944 28.5639 8.803
28.3175 28.5748 8.7699
3 9 55 8 0.8836925923167462 0.6651233945655947 0.9590526615378687
3 6 7 57 0.8836925923167462 0.6651233945655947 0.9590526615378687
3 26 24 25 0.8836925923167462 0.6651233945655947 0.9590526615378687
3 38 40 37 0.8836925923167462 0.6651233945655947 0.9590526615378687
3 49 13 14 0.8836925923167462 0.6651233945655947 0.9590526615378687
3 56 57 7 0.8836925923167462 0.6651233945655947 0.9590526615378687
3 8 55 56 0.8836925923167462 0.6651233945655947 0.9590526615378687
3 56 7 8 0.8836925923167462 0.6651233945655947 0.9590526615378687
3 3 5 2 0.8836925923167462 0.6651233945655947 0.9590526615378687
3 50 13 49 0.8836925923167462 0.6651233945655947 0.9590526615378687
3 50 12 13 0.8836925923167462 0.6651233945655947 0.9590526615378687
3 29 30 22 0.8836925923167462 0.6651233945655947 0.9590526615378687
3 24 26 27 0.8836925923167462 0.6651233945655947 0.9590526615378687
3 19 20 32 0.8836925923167462 0.6651233945655947 0.9590526615378687
3 32 33 19 0.8836925923167462 0.6651233945655947 0.9590526615378687
3 36 37 40 0.8836925923167462 0.6651233945655947 0.9590526615378687
3 40 41 36 0.8836925923167462 0.6651233945655947 0.9590526615378687
3 36 41 35 0.8836925923167462 0.6651233945655947 0.9590526615378687
3 0 2 58 0.8836925923167462 0.6651233945655947 0.9590526615378687
3 58 2 5 0.8836925923167462 0.6651233945655947 0.9590526615378687
3 58 5 6 0.8836925923167462 0.6651233945655947 0.9590526615378687
3 6 57 58 0.8836925923167462 0.6651233945655947 0.9590526615378687
3 45 17 44 0.8836925923167462 0.6651233945655947 0.9590526615378687
3 46 17 45 0.8836925923167462 0.6651233945655947 0.9590526615378687
3 16 17 46 0.8836925923167462 0.6651233945655947 0.9590526615378687
3 16 47 15 0.8836925923167462 0.6651233945655947 0.9590526615378687
3 46 47 16 0.8836925923167462 0.6651233945655947 0.9590526615378687
3 55 9 54 0.8836925923167462 0.6651233945655947 0.9590526615378687
3 9 10 54 0.8836925923167462 0.6651233945655947 0.9590526615378687
3 32 20 31 0.8836925923167462 0.6651233945655947 0.9590526615378687
3 21 22 30 0.8836925923167462 0.6651233945655947 0.9590526615378687
3 21 31 20 0.8836925923167462 0.6651233945655947 0.9590526615378687
3 30 31 21 0.8836925923167462 0.6651233945655947 0.9590526615378687
3 29 22 28 0.8836925923167462 0.6651233945655947 0.9590526615378687
3 43 19 33 0.8836925923167462 0.6651233945655947 0.9590526615378687
3 44 17 18 0.8836925923167462 0.6651233945655947 0.9590526615378687
3 18 43 44 0.8836925923167462 0.6651233945655947 0.9590526615378687
3 19 43 18 0.8836925923167462 0.6651233945655947 0.9590526615378687
3 48 14 15 0.8836925923167462 0.6651233945655947 0.9590526615378687
3 15 47 48 0.8836925923167462 0.6651233945655947 0.9590526615378687
3 49 14 48 0.8836925923167462 0.6651233945655947 0.9590526615378687
3 53 54 10 0.8836925923167462 0.6651233945655947 0.9590526615378687
3 11 52 53 0.8836925923167462 0.6651233945655947 0.9590526615378687
3 53 10 11 0.8836925923167462 0.6651233945655947 0.9590526615378687
3 12 50 51 0.8836925923167462 0.6651233945655947 0.9590526615378687
3 51 52 11 0.8836925923167462 0.6651233945655947 0.9590526615378687
3 11 12 51 0.8836925923167462 0.6651233945655947 0.9590526615378687
3 23 28 22 0.8836925923167462 0.6651233945655947 0.9590526615378687
3 27 28 23 0.8836925923167462 0.6651233945655947 0.9590526615378687
3 24 27 23 0.8836925923167462 0.6651233945655947 0.9590526615378687
3 33 34 42 0.8836925923167462 0.6651233945655947 0.9590526615378687
3 42 43 33 0.8836925923167462 0.6651233945655947 0.9590526615378687
3 35 41 42 0.8836925923167462 0.6651233945655947 0.9590526615378687
3 42 34 35 0.8836925923167462 0.6651233945655947 0.9590526615378687
