OFF
38 29 0


27.9695 31.8398 7.3237
27.9695 31.8398 7.3237
27.9683 31.7577 7.2324
27.967 31.6986 7.1676
27.9654 31.6392 7.1031
27.9628 31.5555 7.0133
27.9628 31.5555 7.0133
27.9906 31.5489 6.9384
28.0184 31.5424 6.8635
28.0462 31.5358 6.7886
28.0741 31.5293 6.7137
28.1019 31.5228 6.6388
28.1297 31.5162 6.5639
28.1575 31.5097 6.489
28.1853 31.5031 6.4141
28.1853 31.5031 6.4141
28.2312 31.6351 6.4546
28.265 31.7302 6.482
28.3133 31.8628 6.5175
28.3133 31.8628 6.5175
28.3143 31.8752 6.5292
28.3154 31.8876 6.5409
28.3154 31.8876 6.5409
28.3152 31.8878 6.5415
28.3151 31.888 6.5421
28.2845 31.8884 6.6166
28.2539 31.8888 6.6911
28.2234 31.8892 6.7657
28.1928 31.8896 6.8402
28.1622 31.89 6.9147
28.1316 31.8904 6.9892
28.1011 31.8909 7.0637
28.0705 31.8913 7.1382
28.0399 31.8917 7.2128
28.0094 31.8921 7.2873
28.0094 31.8921 7.2873
27.9895 31.8659 7.3054
27.9695 31.8398 7.3237
3 5 7 4 0.9391985031375135 0.6857751640516895 0.9237599573031228
3 3 4 31 0.9391985031375135 0.6857751640516895 0.9237599573031228
3 34 36 33 0.9391985031375135 0.6857751640516895 0.9237599573031228
3 30 31 4 0.9391985031375135 0.6857751640516895 0.9237599573031228
3 30 7 29 0.9391985031375135 0.6857751640516895 0.9237599573031228
3 30 4 7 0.9391985031375135 0.6857751640516895 0.9237599573031228
3 29 7 8 0.9391985031375135 0.6857751640516895 0.9237599573031228
3 29 8 28 0.9391985031375135 0.6857751640516895 0.9237599573031228
3 28 8 9 0.9391985031375135 0.6857751640516895 0.9237599573031228
3 11 26 10 0.9391985031375135 0.6857751640516895 0.9237599573031228
3 12 16 11 0.9391985031375135 0.6857751640516895 0.9237599573031228
3 17 26 11 0.9391985031375135 0.6857751640516895 0.9237599573031228
3 11 16 17 0.9391985031375135 0.6857751640516895 0.9237599573031228
3 3 31 32 0.9391985031375135 0.6857751640516895 0.9237599573031228
3 2 33 36 0.9391985031375135 0.6857751640516895 0.9237599573031228
3 2 36 0 0.9391985031375135 0.6857751640516895 0.9237599573031228
3 3 32 2 0.9391985031375135 0.6857751640516895 0.9237599573031228
3 2 32 33 0.9391985031375135 0.6857751640516895 0.9237599573031228
3 27 10 26 0.9391985031375135 0.6857751640516895 0.9237599573031228
3 27 28 9 0.9391985031375135 0.6857751640516895 0.9237599573031228
3 9 10 27 0.9391985031375135 0.6857751640516895 0.9237599573031228
3 14 16 13 0.9391985031375135 0.6857751640516895 0.9237599573031228
3 16 12 13 0.9391985031375135 0.6857751640516895 0.9237599573031228
3 20 23 24 0.9391985031375135 0.6857751640516895 0.9237599573031228
3 21 23 20 0.9391985031375135 0.6857751640516895 0.9237599573031228
3 26 17 25 0.9391985031375135 0.6857751640516895 0.9237599573031228
3 25 17 18 0.9391985031375135 0.6857751640516895 0.9237599573031228
3 18 20 25 0.9391985031375135 0.6857751640516895 0.9237599573031228
3 25 20 24 0.9391985031375135 0.6857751640516895 0.9237599573031228
