OFF
366 652 0


30.037 31.2951 4.9213
30.037 31.2951 4.9213
29.9534 31.2864 5.0301
29.8785 31.2784 5.123
29.8098 31.2707 5.2046
29.7454 31.2633 5.2783
29.6836 31.256 5.3465
29.623 31.2487 5.4112
29.5621 31.2412 5.4742
29.4997 31.2334 5.5369
29.434 31.225 5.6009
29.3633 31.2159 5.6678
29.285 31.2055 5.7395
29.196 31.1936 5.8185
29.0914 31.1793 5.9081
28.952 31.1742 5.8972
28.8515 31.1702 5.8891
28.7607 31.1664 5.8816
28.6603 31.1619 5.873
28.521 31.1553 5.8608
28.521 31.1553 5.8608
28.4618 31.1634 5.7515
28.4189 31.169 5.6718
28.3603 31.1763 5.5621
28.3603 31.1763 5.5621
28.3543 31.1875 5.4404
28.3497 31.1952 5.3538
28.3449 31.2026 5.2671
28.3376 31.2125 5.1453
28.3376 31.2125 5.1453
28.472 31.223 5.1178
28.5925 31.2322 5.0916
28.7022 31.2404 5.0663
28.8037 31.2478 5.0416
28.8988 31.2545 5.0171
28.9893 31.2608 4.9926
29.0764 31.2666 4.9678
29.1613 31.2721 4.9425
29.245 31.2773 4.9162
29.3285 31.2824 4.8886
29.4126 31.2873 4.8595
29.4984 31.292 4.8282
29.5867 31.2967 4.7943
29.6788 31.3012 4.7571
29.7756 31.3057 4.7157
29.8787 31.3101 4.6692
29.9895 31.3145 4.6162
30.1098 31.3187 4.5551
30.1098 31.3187 4.5551
30.0808 31.3107 4.688
30.061 31.3043 4.7875
30.037 31.2951 4.9213
29.5334 31.2426 5.452
29.5044 31.2438 5.4296
29.4752 31.2451 5.407
29.4458 31.2462 5.3842
28.8093 31.1764 5.8122
28.8563 31.186 5.7452
28.9019 31.195 5.6805
28.9462 31.2035 5.6177
28.509 31.1795 5.621
28.5947 31.1893 5.5728
28.6765 31.1984 5.5269
28.7547 31.2069 5.483
28.4485 31.2027 5.3384
28.5422 31.2096 5.3238
28.6314 31.216 5.3099
28.7167 31.2219 5.2966
28.9315 31.2546 5.0368
28.9637 31.2547 5.0562
28.9952 31.2546 5.0753
29.0263 31.2546 5.094
29.0911 31.2655 4.9916
29.1056 31.2643 5.0151
29.12 31.2631 5.0384
29.1343 31.2619 5.0614
29.2436 31.2753 4.9441
29.2423 31.2732 4.9718
29.2409 31.271 4.9995
29.2396 31.2689 5.027
29.3959 31.2844 4.892
29.3794 31.2816 4.9244
29.3628 31.2787 4.9568
29.3463 31.2757 4.9892
29.7015 31.2629 5.2731
29.6572 31.2624 5.2678
29.6125 31.2617 5.2625
29.5673 31.261 5.2571
29.5215 31.2602 5.2517
29.5892 31.2494 5.3946
29.5552 31.25 5.3778
29.5209 31.2506 5.3608
29.4862 31.2511 5.3437
29.4511 31.2516 5.3263
29.4159 31.2278 5.5669
29.3977 31.2306 5.5328
29.3795 31.2333 5.4986
29.3613 31.236 5.4642
29.343 31.2386 5.4297
29.2798 31.2104 5.6915
29.2747 31.2151 5.6437
29.2696 31.2198 5.5962
29.2646 31.2243 5.5488
29.2597 31.2287 5.5015
28.8899 31.1796 5.8203
28.9272 31.1886 5.7537
28.9635 31.1971 5.6889
28.999 31.2052 5.6258
29.0337 31.213 5.5641
28.4525 31.1959 5.4153
28.5457 31.2037 5.3914
28.6344 31.2109 5.3688
28.7192 31.2175 5.3471
28.8004 31.2238 5.3264
28.4384 31.2181 5.1535
28.5338 31.2231 5.1611
28.6246 31.2278 5.1685
28.7112 31.232 5.1754
28.7941 31.2359 5.1821
28.66 31.235 5.1049
28.7251 31.2375 5.1177
28.788 31.2399 5.1301
28.849 31.2421 5.1421
28.908 31.2441 5.1537
28.8466 31.2486 5.0593
28.8886 31.2494 5.0765
28.9297 31.2501 5.0934
28.9699 31.2507 5.11
29.0093 31.2512 5.1262
29.5545 31.2933 4.8323
29.5223 31.2898 4.8703
29.4903 31.2862 4.9082
29.4582 31.2825 4.9462
29.4261 31.2787 4.9842
29.7262 31.3019 4.7608
29.677 31.298 4.8057
29.6281 31.2939 4.8505
29.5792 31.2896 4.8953
29.5304 31.2851 4.9402
29.9864 31.3013 4.8257
29.9125 31.298 4.8637
29.839 31.2944 4.9015
29.7656 31.2905 4.9393
29.692 31.2863 4.9773
29.823 31.2769 5.131
29.7673 31.2753 5.139
29.711 31.2736 5.1472
29.6543 31.2717 5.1554
29.5968 31.2696 5.1637
29.5386 31.2674 5.1722
29.1046 31.1874 5.8407
29.1176 31.1951 5.7748
29.1305 31.2025 5.7099
29.1432 31.2096 5.6461
29.1559 31.2165 5.5832
29.1684 31.2231 5.521
28.5989 31.1674 5.7897
28.673 31.1787 5.722
28.7438 31.1892 5.6575
28.8118 31.199 5.5957
28.8772 31.2082 5.5363
28.9404 31.2168 5.479
29.9191 31.3105 4.6713
29.8499 31.3063 4.7256
29.7815 31.3017 4.7794
29.7136 31.2969 4.833
29.646 31.2918 4.8864
29.5784 31.2864 4.9399
30.0029 31.3073 4.736
29.9262 31.3035 4.7834
29.8502 31.2994 4.8304
29.7746 31.295 4.8772
29.6992 31.2903 4.924
29.6236 31.2852 4.9711
29.891 31.2845 5.0461
29.8284 31.2824 5.0622
29.7655 31.2801 5.0784
29.7021 31.2776 5.0948
29.6381 31.2749 5.1113
29.5733 31.2719 5.1281
29.5075 31.2687 5.1451
28.5547 31.227 5.1287
28.6338 31.2307 5.139
28.7097 31.2341 5.149
28.7827 31.2373 5.1585
28.853 31.2402 5.1677
28.9209 31.2428 5.1766
28.9866 31.2453 5.1852
29.1678 31.2705 4.9682
29.1742 31.2688 4.9938
29.1806 31.2671 5.0193
29.187 31.2655 5.0445
29.1934 31.2638 5.0696
29.1997 31.262 5.0945
29.206 31.2603 5.1193
29.6449 31.2561 5.3355
29.6058 31.2562 5.3243
29.5663 31.2561 5.3131
29.5264 31.256 5.3017
29.486 31.2559 5.2901
29.4451 31.2556 5.2784
29.4036 31.2553 5.2666
29.3615 31.2549 5.2545
29.3512 31.2196 5.6272
29.3391 31.2233 5.5866
29.3271 31.2269 5.5461
29.3151 31.2304 5.5055
29.3031 31.2338 5.4648
29.2912 31.2372 5.424
29.2792 31.2405 5.3831
29.2672 31.2438 5.3419
28.9795 31.183 5.8291
29.0064 31.1914 5.7627
29.0327 31.1994 5.6979
29.0586 31.2071 5.6345
29.084 31.2145 5.5723
29.1091 31.2216 5.5111
29.1339 31.2284 5.4509
29.1584 31.2349 5.3916
28.5467 31.1746 5.6922
28.6274 31.1849 5.6358
28.7045 31.1946 5.582
28.7784 31.2036 5.5305
28.8494 31.2121 5.4811
28.9179 31.22 5.4335
28.9841 31.2275 5.3876
29.0482 31.2345 5.3432
28.4443 31.2092 5.2614
28.5387 31.2153 5.2561
28.6285 31.221 5.251
28.7143 31.2262 5.2461
28.7965 31.231 5.2415
28.8753 31.2355 5.2371
28.9513 31.2396 5.2328
29.0245 31.2434 5.2286
29.0127 31.2602 5.0144
29.0357 31.2596 5.0358
29.0584 31.259 5.057
29.0809 31.2583 5.0778
29.103 31.2577 5.0984
29.1249 31.257 5.1188
29.1466 31.2563 5.1389
29.168 31.2556 5.1587
29.474 31.2889 4.8633
29.4498 31.2857 4.8984
29.4256 31.2824 4.9334
29.4014 31.2791 4.9685
29.3772 31.2757 5.0036
29.353 31.2722 5.0388
29.3287 31.2686 5.0741
29.3044 31.2649 5.1095
29.8194 31.3062 4.7188
29.7607 31.3021 4.768
29.7025 31.2978 4.817
29.6445 31.2932 4.8658
29.5866 31.2884 4.9147
29.5286 31.2833 4.9637
29.4704 31.2779 5.0131
29.4116 31.2723 5.063
29.7604 31.2698 5.2056
29.7107 31.2687 5.2067
29.6604 31.2675 5.2078
29.6096 31.2662 5.2089
29.5582 31.2648 5.21
29.506 31.2632 5.2111
29.453 31.2615 5.2122
29.3991 31.2597 5.2134
29.3442 31.2577 5.2146
29.199 31.1998 5.7617
29.202 31.2059 5.7057
29.205 31.2117 5.6502
29.2081 31.2174 5.5952
29.2112 31.223 5.5406
29.2144 31.2284 5.4863
29.2176 31.2336 5.4323
29.2209 31.2387 5.3784
29.2242 31.2437 5.3246
28.458 31.1861 5.5232
28.5506 31.1951 5.4863
28.6388 31.2035 5.4513
28.7229 31.2113 5.4179
28.8035 31.2186 5.3859
28.8809 31.2253 5.3553
28.9554 31.2317 5.3257
29.0274 31.2376 5.2973
29.0972 31.2432 5.2697
29.6382 31.2976 4.7984
29.5978 31.2939 4.8396
29.5576 31.29 4.8807
29.5173 31.286 4.9219
29.4771 31.2818 4.9632
29.4367 31.2775 5.0047
29.3962 31.273 5.0463
29.3554 31.2684 5.0884
29.3143 31.2635 5.1307
29.9662 31.2927 4.9471
29.8956 31.2901 4.9728
29.825 31.2872 4.9986
29.7541 31.284 5.0245
29.6828 31.2806 5.0506
29.6107 31.2769 5.077
29.5378 31.2729 5.1038
29.4636 31.2685 5.1311
29.3879 31.2638 5.159
29.476 31.2354 5.509
29.4523 31.2374 5.4809
29.4285 31.2393 5.4526
29.4045 31.2412 5.4241
29.3803 31.2431 5.3954
29.356 31.2449 5.3664
29.3315 31.2466 5.3372
29.3067 31.2483 5.3076
29.2817 31.25 5.2778
29.2565 31.2517 5.2476
28.7208 31.1728 5.8029
28.7789 31.183 5.7357
28.8348 31.1926 5.671
28.889 31.2016 5.6086
28.9414 31.2102 5.5482
28.9924 31.2183 5.4896
29.0421 31.226 5.4326
29.0907 31.2333 5.377
29.1382 31.2403 5.3226
29.185 31.2469 5.2694
28.7566 31.2421 5.0819
28.8095 31.2437 5.097
28.8609 31.2452 5.1117
28.911 31.2465 5.126
28.9599 31.2478 5.1399
29.0076 31.2489 5.1535
29.0541 31.25 5.1668
29.0997 31.2509 5.1797
29.1443 31.2518 5.1924
29.188 31.2526 5.2048
29.3194 31.2799 4.9188
29.3104 31.2774 4.9488
29.3015 31.2749 4.9787
29.2926 31.2723 5.0086
29.2837 31.2697 5.0384
29.2748 31.2671 5.0682
29.266 31.2644 5.098
29.2572 31.2617 5.1277
29.2485 31.2589 5.1575
29.2397 31.2561 5.1872
30.0268 31.3147 4.6169
29.9456 31.3104 4.6774
29.8659 31.3058 4.737
29.7872 31.3007 4.796
29.7091 31.2954 4.8547
29.6312 31.2896 4.9133
29.5531 31.2833 4.9723
29.4745 31.2766 5.0318
29.3949 31.2694 5.0922
29.3138 31.2617 5.1538
29.9662 31.2927 4.9471
29.8956 31.2901 4.9728
29.825 31.2872 4.9986
29.7541 31.284 5.0245
29.6828 31.2806 5.0506
29.6107 31.2769 5.077
29.5378 31.2729 5.1038
29.4636 31.2685 5.1311
29.3879 31.2638 5.159
29.3105 31.2587 5.1876
29.2309 31.2533 5.217
29.2309 31.2533 5.217
3 28 114 30 0.8760836211068563 0.3564676682594837 0.1526117220135026
3 104 16 15 0.8760836211068563 0.3564676682594837 0.1526117220135026
3 301 302 180 0.8760836211068563 0.3564676682594837 0.1526117220135026
3 181 30 115 0.8760836211068563 0.3564676682594837 0.1526117220135026
3 115 30 114 0.8760836211068563 0.3564676682594837 0.1526117220135026
3 27 114 28 0.8760836211068563 0.3564676682594837 0.1526117220135026
3 281 280 63 0.8760836211068563 0.3564676682594837 0.1526117220135026
3 31 30 181 0.8760836211068563 0.3564676682594837 0.1526117220135026
3 301 180 179 0.8760836211068563 0.3564676682594837 0.1526117220135026
3 179 180 149 0.8760836211068563 0.3564676682594837 0.1526117220135026
3 17 314 18 0.8760836211068563 0.3564676682594837 0.1526117220135026
3 222 221 159 0.8760836211068563 0.3564676682594837 0.1526117220135026
3 160 222 159 0.8760836211068563 0.3564676682594837 0.1526117220135026
3 104 15 211 0.8760836211068563 0.3564676682594837 0.1526117220135026
3 211 15 14 0.8760836211068563 0.3564676682594837 0.1526117220135026
3 150 211 14 0.8760836211068563 0.3564676682594837 0.1526117220135026
3 212 211 150 0.8760836211068563 0.3564676682594837 0.1526117220135026
3 269 12 99 0.8760836211068563 0.3564676682594837 0.1526117220135026
3 302 258 352 0.8760836211068563 0.3564676682594837 0.1526117220135026
3 200 199 265 0.8760836211068563 0.3564676682594837 0.1526117220135026
3 265 180 302 0.8760836211068563 0.3564676682594837 0.1526117220135026
3 265 201 200 0.8760836211068563 0.3564676682594837 0.1526117220135026
3 50 49 168 0.8760836211068563 0.3564676682594837 0.1526117220135026
3 354 2 1 0.8760836211068563 0.3564676682594837 0.1526117220135026
3 354 296 2 0.8760836211068563 0.3564676682594837 0.1526117220135026
3 227 115 114 0.8760836211068563 0.3564676682594837 0.1526117220135026
3 114 27 227 0.8760836211068563 0.3564676682594837 0.1526117220135026
3 216 319 108 0.8760836211068563 0.3564676682594837 0.1526117220135026
3 181 115 116 0.8760836211068563 0.3564676682594837 0.1526117220135026
3 32 31 119 0.8760836211068563 0.3564676682594837 0.1526117220135026
3 119 120 32 0.8760836211068563 0.3564676682594837 0.1526117220135026
3 148 179 149 0.8760836211068563 0.3564676682594837 0.1526117220135026
3 301 179 359 0.8760836211068563 0.3564676682594837 0.1526117220135026
3 3 2 174 0.8760836211068563 0.3564676682594837 0.1526117220135026
3 2 296 174 0.8760836211068563 0.3564676682594837 0.1526117220135026
3 297 174 296 0.8760836211068563 0.3564676682594837 0.1526117220135026
3 144 4 3 0.8760836211068563 0.3564676682594837 0.1526117220135026
3 145 144 176 0.8760836211068563 0.3564676682594837 0.1526117220135026
3 4 144 145 0.8760836211068563 0.3564676682594837 0.1526117220135026
3 157 219 156 0.8760836211068563 0.3564676682594837 0.1526117220135026
3 20 18 156 0.8760836211068563 0.3564676682594837 0.1526117220135026
3 156 314 157 0.8760836211068563 0.3564676682594837 0.1526117220135026
3 18 314 156 0.8760836211068563 0.3564676682594837 0.1526117220135026
3 25 109 26 0.8760836211068563 0.3564676682594837 0.1526117220135026
3 61 221 62 0.8760836211068563 0.3564676682594837 0.1526117220135026
3 63 280 62 0.8760836211068563 0.3564676682594837 0.1526117220135026
3 62 222 63 0.8760836211068563 0.3564676682594837 0.1526117220135026
3 221 222 62 0.8760836211068563 0.3564676682594837 0.1526117220135026
3 220 221 61 0.8760836211068563 0.3564676682594837 0.1526117220135026
3 220 219 157 0.8760836211068563 0.3564676682594837 0.1526117220135026
3 317 160 159 0.8760836211068563 0.3564676682594837 0.1526117220135026
3 317 58 59 0.8760836211068563 0.3564676682594837 0.1526117220135026
3 159 316 317 0.8760836211068563 0.3564676682594837 0.1526117220135026
3 317 316 58 0.8760836211068563 0.3564676682594837 0.1526117220135026
3 318 108 319 0.8760836211068563 0.3564676682594837 0.1526117220135026
3 318 317 59 0.8760836211068563 0.3564676682594837 0.1526117220135026
3 160 317 318 0.8760836211068563 0.3564676682594837 0.1526117220135026
3 224 281 223 0.8760836211068563 0.3564676682594837 0.1526117220135026
3 223 281 63 0.8760836211068563 0.3564676682594837 0.1526117220135026
3 63 222 223 0.8760836211068563 0.3564676682594837 0.1526117220135026
3 222 160 223 0.8760836211068563 0.3564676682594837 0.1526117220135026
3 104 211 105 0.8760836211068563 0.3564676682594837 0.1526117220135026
3 105 211 212 0.8760836211068563 0.3564676682594837 0.1526117220135026
3 59 58 106 0.8760836211068563 0.3564676682594837 0.1526117220135026
3 106 105 212 0.8760836211068563 0.3564676682594837 0.1526117220135026
3 58 105 106 0.8760836211068563 0.3564676682594837 0.1526117220135026
3 159 221 158 0.8760836211068563 0.3564676682594837 0.1526117220135026
3 158 316 159 0.8760836211068563 0.3564676682594837 0.1526117220135026
3 158 220 157 0.8760836211068563 0.3564676682594837 0.1526117220135026
3 221 220 158 0.8760836211068563 0.3564676682594837 0.1526117220135026
3 314 17 56 0.8760836211068563 0.3564676682594837 0.1526117220135026
3 56 16 104 0.8760836211068563 0.3564676682594837 0.1526117220135026
3 56 17 16 0.8760836211068563 0.3564676682594837 0.1526117220135026
3 13 150 14 0.8760836211068563 0.3564676682594837 0.1526117220135026
3 213 152 214 0.8760836211068563 0.3564676682594837 0.1526117220135026
3 213 106 212 0.8760836211068563 0.3564676682594837 0.1526117220135026
3 212 150 151 0.8760836211068563 0.3564676682594837 0.1526117220135026
3 151 213 212 0.8760836211068563 0.3564676682594837 0.1526117220135026
3 152 213 151 0.8760836211068563 0.3564676682594837 0.1526117220135026
3 150 13 151 0.8760836211068563 0.3564676682594837 0.1526117220135026
3 100 271 270 0.8760836211068563 0.3564676682594837 0.1526117220135026
3 269 99 270 0.8760836211068563 0.3564676682594837 0.1526117220135026
3 270 99 100 0.8760836211068563 0.3564676682594837 0.1526117220135026
3 214 152 153 0.8760836211068563 0.3564676682594837 0.1526117220135026
3 153 271 154 0.8760836211068563 0.3564676682594837 0.1526117220135026
3 153 270 271 0.8760836211068563 0.3564676682594837 0.1526117220135026
3 153 152 269 0.8760836211068563 0.3564676682594837 0.1526117220135026
3 269 270 153 0.8760836211068563 0.3564676682594837 0.1526117220135026
3 96 305 306 0.8760836211068563 0.3564676682594837 0.1526117220135026
3 100 99 11 0.8760836211068563 0.3564676682594837 0.1526117220135026
3 11 99 12 0.8760836211068563 0.3564676682594837 0.1526117220135026
3 339 249 338 0.8760836211068563 0.3564676682594837 0.1526117220135026
3 250 339 340 0.8760836211068563 0.3564676682594837 0.1526117220135026
3 249 339 250 0.8760836211068563 0.3564676682594837 0.1526117220135026
3 250 294 293 0.8760836211068563 0.3564676682594837 0.1526117220135026
3 293 249 250 0.8760836211068563 0.3564676682594837 0.1526117220135026
3 351 258 302 0.8760836211068563 0.3564676682594837 0.1526117220135026
3 351 302 301 0.8760836211068563 0.3564676682594837 0.1526117220135026
3 351 291 258 0.8760836211068563 0.3564676682594837 0.1526117220135026
3 257 291 351 0.8760836211068563 0.3564676682594837 0.1526117220135026
3 363 313 267 0.8760836211068563 0.3564676682594837 0.1526117220135026
3 267 353 363 0.8760836211068563 0.3564676682594837 0.1526117220135026
3 149 180 264 0.8760836211068563 0.3564676682594837 0.1526117220135026
3 180 265 264 0.8760836211068563 0.3564676682594837 0.1526117220135026
3 201 265 266 0.8760836211068563 0.3564676682594837 0.1526117220135026
3 40 39 80 0.8760836211068563 0.3564676682594837 0.1526117220135026
3 39 81 80 0.8760836211068563 0.3564676682594837 0.1526117220135026
3 139 354 1 0.8760836211068563 0.3564676682594837 0.1526117220135026
3 1 50 139 0.8760836211068563 0.3564676682594837 0.1526117220135026
3 50 168 139 0.8760836211068563 0.3564676682594837 0.1526117220135026
3 139 168 169 0.8760836211068563 0.3564676682594837 0.1526117220135026
3 296 354 140 0.8760836211068563 0.3564676682594837 0.1526117220135026
3 140 139 169 0.8760836211068563 0.3564676682594837 0.1526117220135026
3 354 139 140 0.8760836211068563 0.3564676682594837 0.1526117220135026
3 115 227 228 0.8760836211068563 0.3564676682594837 0.1526117220135026
3 229 116 228 0.8760836211068563 0.3564676682594837 0.1526117220135026
3 228 116 115 0.8760836211068563 0.3564676682594837 0.1526117220135026
3 64 27 26 0.8760836211068563 0.3564676682594837 0.1526117220135026
3 64 227 27 0.8760836211068563 0.3564676682594837 0.1526117220135026
3 26 109 64 0.8760836211068563 0.3564676682594837 0.1526117220135026
3 320 225 319 0.8760836211068563 0.3564676682594837 0.1526117220135026
3 320 319 216 0.8760836211068563 0.3564676682594837 0.1526117220135026
3 216 217 320 0.8760836211068563 0.3564676682594837 0.1526117220135026
3 275 276 218 0.8760836211068563 0.3564676682594837 0.1526117220135026
3 323 313 364 0.8760836211068563 0.3564676682594837 0.1526117220135026
3 323 276 313 0.8760836211068563 0.3564676682594837 0.1526117220135026
3 214 108 107 0.8760836211068563 0.3564676682594837 0.1526117220135026
3 59 106 107 0.8760836211068563 0.3564676682594837 0.1526117220135026
3 107 318 59 0.8760836211068563 0.3564676682594837 0.1526117220135026
3 108 318 107 0.8760836211068563 0.3564676682594837 0.1526117220135026
3 107 213 214 0.8760836211068563 0.3564676682594837 0.1526117220135026
3 106 213 107 0.8760836211068563 0.3564676682594837 0.1526117220135026
3 215 108 214 0.8760836211068563 0.3564676682594837 0.1526117220135026
3 214 153 215 0.8760836211068563 0.3564676682594837 0.1526117220135026
3 215 153 154 0.8760836211068563 0.3564676682594837 0.1526117220135026
3 215 154 216 0.8760836211068563 0.3564676682594837 0.1526117220135026
3 216 108 215 0.8760836211068563 0.3564676682594837 0.1526117220135026
3 234 284 285 0.8760836211068563 0.3564676682594837 0.1526117220135026
3 233 284 234 0.8760836211068563 0.3564676682594837 0.1526117220135026
3 280 281 112 0.8760836211068563 0.3564676682594837 0.1526117220135026
3 111 280 112 0.8760836211068563 0.3564676682594837 0.1526117220135026
3 231 67 113 0.8760836211068563 0.3564676682594837 0.1526117220135026
3 113 232 231 0.8760836211068563 0.3564676682594837 0.1526117220135026
3 113 112 281 0.8760836211068563 0.3564676682594837 0.1526117220135026
3 67 112 113 0.8760836211068563 0.3564676682594837 0.1526117220135026
3 186 232 233 0.8760836211068563 0.3564676682594837 0.1526117220135026
3 231 232 185 0.8760836211068563 0.3564676682594837 0.1526117220135026
3 232 186 185 0.8760836211068563 0.3564676682594837 0.1526117220135026
3 119 31 182 0.8760836211068563 0.3564676682594837 0.1526117220135026
3 182 31 181 0.8760836211068563 0.3564676682594837 0.1526117220135026
3 181 116 182 0.8760836211068563 0.3564676682594837 0.1526117220135026
3 117 116 229 0.8760836211068563 0.3564676682594837 0.1526117220135026
3 117 182 116 0.8760836211068563 0.3564676682594837 0.1526117220135026
3 33 32 324 0.8760836211068563 0.3564676682594837 0.1526117220135026
3 324 32 120 0.8760836211068563 0.3564676682594837 0.1526117220135026
3 261 260 147 0.8760836211068563 0.3564676682594837 0.1526117220135026
3 174 297 175 0.8760836211068563 0.3564676682594837 0.1526117220135026
3 176 144 175 0.8760836211068563 0.3564676682594837 0.1526117220135026
3 3 174 175 0.8760836211068563 0.3564676682594837 0.1526117220135026
3 175 144 3 0.8760836211068563 0.3564676682594837 0.1526117220135026
3 4 145 259 0.8760836211068563 0.3564676682594837 0.1526117220135026
3 5 4 259 0.8760836211068563 0.3564676682594837 0.1526117220135026
3 259 260 5 0.8760836211068563 0.3564676682594837 0.1526117220135026
3 109 278 110 0.8760836211068563 0.3564676682594837 0.1526117220135026
3 110 64 109 0.8760836211068563 0.3564676682594837 0.1526117220135026
3 20 156 21 0.8760836211068563 0.3564676682594837 0.1526117220135026
3 21 156 219 0.8760836211068563 0.3564676682594837 0.1526117220135026
3 111 110 279 0.8760836211068563 0.3564676682594837 0.1526117220135026
3 279 110 278 0.8760836211068563 0.3564676682594837 0.1526117220135026
3 279 280 111 0.8760836211068563 0.3564676682594837 0.1526117220135026
3 279 62 280 0.8760836211068563 0.3564676682594837 0.1526117220135026
3 279 278 61 0.8760836211068563 0.3564676682594837 0.1526117220135026
3 61 62 279 0.8760836211068563 0.3564676682594837 0.1526117220135026
3 161 318 319 0.8760836211068563 0.3564676682594837 0.1526117220135026
3 161 225 224 0.8760836211068563 0.3564676682594837 0.1526117220135026
3 319 225 161 0.8760836211068563 0.3564676682594837 0.1526117220135026
3 160 318 161 0.8760836211068563 0.3564676682594837 0.1526117220135026
3 224 223 161 0.8760836211068563 0.3564676682594837 0.1526117220135026
3 161 223 160 0.8760836211068563 0.3564676682594837 0.1526117220135026
3 316 158 315 0.8760836211068563 0.3564676682594837 0.1526117220135026
3 314 56 315 0.8760836211068563 0.3564676682594837 0.1526117220135026
3 157 314 315 0.8760836211068563 0.3564676682594837 0.1526117220135026
3 315 158 157 0.8760836211068563 0.3564676682594837 0.1526117220135026
3 268 12 269 0.8760836211068563 0.3564676682594837 0.1526117220135026
3 268 13 12 0.8760836211068563 0.3564676682594837 0.1526117220135026
3 268 151 13 0.8760836211068563 0.3564676682594837 0.1526117220135026
3 269 152 268 0.8760836211068563 0.3564676682594837 0.1526117220135026
3 152 151 268 0.8760836211068563 0.3564676682594837 0.1526117220135026
3 100 204 101 0.8760836211068563 0.3564676682594837 0.1526117220135026
3 101 271 100 0.8760836211068563 0.3564676682594837 0.1526117220135026
3 216 154 155 0.8760836211068563 0.3564676682594837 0.1526117220135026
3 155 217 216 0.8760836211068563 0.3564676682594837 0.1526117220135026
3 305 96 95 0.8760836211068563 0.3564676682594837 0.1526117220135026
3 203 11 10 0.8760836211068563 0.3564676682594837 0.1526117220135026
3 203 204 100 0.8760836211068563 0.3564676682594837 0.1526117220135026
3 100 11 203 0.8760836211068563 0.3564676682594837 0.1526117220135026
3 246 81 82 0.8760836211068563 0.3564676682594837 0.1526117220135026
3 79 339 338 0.8760836211068563 0.3564676682594837 0.1526117220135026
3 338 337 79 0.8760836211068563 0.3564676682594837 0.1526117220135026
3 79 337 78 0.8760836211068563 0.3564676682594837 0.1526117220135026
3 188 72 73 0.8760836211068563 0.3564676682594837 0.1526117220135026
3 363 353 342 0.8760836211068563 0.3564676682594837 0.1526117220135026
3 340 193 194 0.8760836211068563 0.3564676682594837 0.1526117220135026
3 291 133 247 0.8760836211068563 0.3564676682594837 0.1526117220135026
3 247 133 246 0.8760836211068563 0.3564676682594837 0.1526117220135026
3 246 82 247 0.8760836211068563 0.3564676682594837 0.1526117220135026
3 247 82 83 0.8760836211068563 0.3564676682594837 0.1526117220135026
3 243 41 40 0.8760836211068563 0.3564676682594837 0.1526117220135026
3 257 351 256 0.8760836211068563 0.3564676682594837 0.1526117220135026
3 93 199 200 0.8760836211068563 0.3564676682594837 0.1526117220135026
3 200 201 93 0.8760836211068563 0.3564676682594837 0.1526117220135026
3 91 53 90 0.8760836211068563 0.3564676682594837 0.1526117220135026
3 353 267 303 0.8760836211068563 0.3564676682594837 0.1526117220135026
3 267 266 303 0.8760836211068563 0.3564676682594837 0.1526117220135026
3 294 353 303 0.8760836211068563 0.3564676682594837 0.1526117220135026
3 302 352 303 0.8760836211068563 0.3564676682594837 0.1526117220135026
3 293 294 303 0.8760836211068563 0.3564676682594837 0.1526117220135026
3 303 352 293 0.8760836211068563 0.3564676682594837 0.1526117220135026
3 303 265 302 0.8760836211068563 0.3564676682594837 0.1526117220135026
3 303 266 265 0.8760836211068563 0.3564676682594837 0.1526117220135026
3 344 49 47 0.8760836211068563 0.3564676682594837 0.1526117220135026
3 47 46 344 0.8760836211068563 0.3564676682594837 0.1526117220135026
3 344 168 49 0.8760836211068563 0.3564676682594837 0.1526117220135026
3 344 46 168 0.8760836211068563 0.3564676682594837 0.1526117220135026
3 345 46 162 0.8760836211068563 0.3564676682594837 0.1526117220135026
3 168 46 345 0.8760836211068563 0.3564676682594837 0.1526117220135026
3 169 168 345 0.8760836211068563 0.3564676682594837 0.1526117220135026
3 162 346 345 0.8760836211068563 0.3564676682594837 0.1526117220135026
3 345 346 169 0.8760836211068563 0.3564676682594837 0.1526117220135026
3 45 346 162 0.8760836211068563 0.3564676682594837 0.1526117220135026
3 45 44 251 0.8760836211068563 0.3564676682594837 0.1526117220135026
3 162 46 45 0.8760836211068563 0.3564676682594837 0.1526117220135026
3 43 42 286 0.8760836211068563 0.3564676682594837 0.1526117220135026
3 229 228 66 0.8760836211068563 0.3564676682594837 0.1526117220135026
3 66 67 229 0.8760836211068563 0.3564676682594837 0.1526117220135026
3 111 112 66 0.8760836211068563 0.3564676682594837 0.1526117220135026
3 66 112 67 0.8760836211068563 0.3564676682594837 0.1526117220135026
3 65 228 227 0.8760836211068563 0.3564676682594837 0.1526117220135026
3 227 64 65 0.8760836211068563 0.3564676682594837 0.1526117220135026
3 64 110 65 0.8760836211068563 0.3564676682594837 0.1526117220135026
3 65 66 228 0.8760836211068563 0.3564676682594837 0.1526117220135026
3 65 110 111 0.8760836211068563 0.3564676682594837 0.1526117220135026
3 111 66 65 0.8760836211068563 0.3564676682594837 0.1526117220135026
3 322 323 285 0.8760836211068563 0.3564676682594837 0.1526117220135026
3 218 276 322 0.8760836211068563 0.3564676682594837 0.1526117220135026
3 276 323 322 0.8760836211068563 0.3564676682594837 0.1526117220135026
3 225 320 226 0.8760836211068563 0.3564676682594837 0.1526117220135026
3 285 284 226 0.8760836211068563 0.3564676682594837 0.1526117220135026
3 226 322 285 0.8760836211068563 0.3564676682594837 0.1526117220135026
3 313 276 312 0.8760836211068563 0.3564676682594837 0.1526117220135026
3 312 267 313 0.8760836211068563 0.3564676682594837 0.1526117220135026
3 306 55 307 0.8760836211068563 0.3564676682594837 0.1526117220135026
3 285 323 332 0.8760836211068563 0.3564676682594837 0.1526117220135026
3 126 125 327 0.8760836211068563 0.3564676682594837 0.1526117220135026
3 126 68 125 0.8760836211068563 0.3564676682594837 0.1526117220135026
3 282 281 224 0.8760836211068563 0.3564676682594837 0.1526117220135026
3 282 113 281 0.8760836211068563 0.3564676682594837 0.1526117220135026
3 224 225 282 0.8760836211068563 0.3564676682594837 0.1526117220135026
3 232 113 282 0.8760836211068563 0.3564676682594837 0.1526117220135026
3 123 185 186 0.8760836211068563 0.3564676682594837 0.1526117220135026
3 230 67 231 0.8760836211068563 0.3564676682594837 0.1526117220135026
3 229 67 230 0.8760836211068563 0.3564676682594837 0.1526117220135026
3 230 117 229 0.8760836211068563 0.3564676682594837 0.1526117220135026
3 183 120 119 0.8760836211068563 0.3564676682594837 0.1526117220135026
3 119 182 183 0.8760836211068563 0.3564676682594837 0.1526117220135026
3 182 117 183 0.8760836211068563 0.3564676682594837 0.1526117220135026
3 183 184 120 0.8760836211068563 0.3564676682594837 0.1526117220135026
3 117 184 183 0.8760836211068563 0.3564676682594837 0.1526117220135026
3 147 148 262 0.8760836211068563 0.3564676682594837 0.1526117220135026
3 262 261 147 0.8760836211068563 0.3564676682594837 0.1526117220135026
3 5 260 84 0.8760836211068563 0.3564676682594837 0.1526117220135026
3 260 261 84 0.8760836211068563 0.3564676682594837 0.1526117220135026
3 143 358 298 0.8760836211068563 0.3564676682594837 0.1526117220135026
3 298 142 143 0.8760836211068563 0.3564676682594837 0.1526117220135026
3 297 142 298 0.8760836211068563 0.3564676682594837 0.1526117220135026
3 176 175 298 0.8760836211068563 0.3564676682594837 0.1526117220135026
3 298 175 297 0.8760836211068563 0.3564676682594837 0.1526117220135026
3 178 358 359 0.8760836211068563 0.3564676682594837 0.1526117220135026
3 178 148 147 0.8760836211068563 0.3564676682594837 0.1526117220135026
3 179 148 178 0.8760836211068563 0.3564676682594837 0.1526117220135026
3 178 359 179 0.8760836211068563 0.3564676682594837 0.1526117220135026
3 147 260 146 0.8760836211068563 0.3564676682594837 0.1526117220135026
3 260 259 146 0.8760836211068563 0.3564676682594837 0.1526117220135026
3 146 259 145 0.8760836211068563 0.3564676682594837 0.1526117220135026
3 141 297 296 0.8760836211068563 0.3564676682594837 0.1526117220135026
3 141 142 297 0.8760836211068563 0.3564676682594837 0.1526117220135026
3 296 140 141 0.8760836211068563 0.3564676682594837 0.1526117220135026
3 60 220 61 0.8760836211068563 0.3564676682594837 0.1526117220135026
3 219 220 60 0.8760836211068563 0.3564676682594837 0.1526117220135026
3 61 278 60 0.8760836211068563 0.3564676682594837 0.1526117220135026
3 316 315 57 0.8760836211068563 0.3564676682594837 0.1526117220135026
3 58 316 57 0.8760836211068563 0.3564676682594837 0.1526117220135026
3 57 105 58 0.8760836211068563 0.3564676682594837 0.1526117220135026
3 57 315 56 0.8760836211068563 0.3564676682594837 0.1526117220135026
3 104 105 57 0.8760836211068563 0.3564676682594837 0.1526117220135026
3 57 56 104 0.8760836211068563 0.3564676682594837 0.1526117220135026
3 205 101 204 0.8760836211068563 0.3564676682594837 0.1526117220135026
3 204 95 205 0.8760836211068563 0.3564676682594837 0.1526117220135026
3 205 95 96 0.8760836211068563 0.3564676682594837 0.1526117220135026
3 208 209 274 0.8760836211068563 0.3564676682594837 0.1526117220135026
3 274 209 275 0.8760836211068563 0.3564676682594837 0.1526117220135026
3 218 217 274 0.8760836211068563 0.3564676682594837 0.1526117220135026
3 274 275 218 0.8760836211068563 0.3564676682594837 0.1526117220135026
3 154 271 272 0.8760836211068563 0.3564676682594837 0.1526117220135026
3 272 155 154 0.8760836211068563 0.3564676682594837 0.1526117220135026
3 336 337 83 0.8760836211068563 0.3564676682594837 0.1526117220135026
3 334 81 39 0.8760836211068563 0.3564676682594837 0.1526117220135026
3 334 82 81 0.8760836211068563 0.3564676682594837 0.1526117220135026
3 334 39 38 0.8760836211068563 0.3564676682594837 0.1526117220135026
3 73 72 236 0.8760836211068563 0.3564676682594837 0.1526117220135026
3 236 72 36 0.8760836211068563 0.3564676682594837 0.1526117220135026
3 339 79 192 0.8760836211068563 0.3564676682594837 0.1526117220135026
3 340 339 192 0.8760836211068563 0.3564676682594837 0.1526117220135026
3 192 193 340 0.8760836211068563 0.3564676682594837 0.1526117220135026
3 192 79 191 0.8760836211068563 0.3564676682594837 0.1526117220135026
3 189 188 73 0.8760836211068563 0.3564676682594837 0.1526117220135026
3 73 74 189 0.8760836211068563 0.3564676682594837 0.1526117220135026
3 36 72 37 0.8760836211068563 0.3564676682594837 0.1526117220135026
3 72 188 37 0.8760836211068563 0.3564676682594837 0.1526117220135026
3 37 76 38 0.8760836211068563 0.3564676682594837 0.1526117220135026
3 37 188 76 0.8760836211068563 0.3564676682594837 0.1526117220135026
3 340 194 341 0.8760836211068563 0.3564676682594837 0.1526117220135026
3 341 194 342 0.8760836211068563 0.3564676682594837 0.1526117220135026
3 341 250 340 0.8760836211068563 0.3564676682594837 0.1526117220135026
3 294 250 341 0.8760836211068563 0.3564676682594837 0.1526117220135026
3 341 353 294 0.8760836211068563 0.3564676682594837 0.1526117220135026
3 341 342 353 0.8760836211068563 0.3564676682594837 0.1526117220135026
3 237 236 71 0.8760836211068563 0.3564676682594837 0.1526117220135026
3 237 74 73 0.8760836211068563 0.3564676682594837 0.1526117220135026
3 73 236 237 0.8760836211068563 0.3564676682594837 0.1526117220135026
3 258 291 292 0.8760836211068563 0.3564676682594837 0.1526117220135026
3 291 247 292 0.8760836211068563 0.3564676682594837 0.1526117220135026
3 293 352 292 0.8760836211068563 0.3564676682594837 0.1526117220135026
3 292 352 258 0.8760836211068563 0.3564676682594837 0.1526117220135026
3 129 42 41 0.8760836211068563 0.3564676682594837 0.1526117220135026
3 40 80 244 0.8760836211068563 0.3564676682594837 0.1526117220135026
3 244 243 40 0.8760836211068563 0.3564676682594837 0.1526117220135026
3 131 243 244 0.8760836211068563 0.3564676682594837 0.1526117220135026
3 244 132 131 0.8760836211068563 0.3564676682594837 0.1526117220135026
3 301 359 350 0.8760836211068563 0.3564676682594837 0.1526117220135026
3 350 351 301 0.8760836211068563 0.3564676682594837 0.1526117220135026
3 350 256 351 0.8760836211068563 0.3564676682594837 0.1526117220135026
3 304 53 305 0.8760836211068563 0.3564676682594837 0.1526117220135026
3 305 95 304 0.8760836211068563 0.3564676682594837 0.1526117220135026
3 89 8 7 0.8760836211068563 0.3564676682594837 0.1526117220135026
3 201 310 309 0.8760836211068563 0.3564676682594837 0.1526117220135026
3 309 93 201 0.8760836211068563 0.3564676682594837 0.1526117220135026
3 310 209 309 0.8760836211068563 0.3564676682594837 0.1526117220135026
3 53 91 54 0.8760836211068563 0.3564676682594837 0.1526117220135026
3 54 55 306 0.8760836211068563 0.3564676682594837 0.1526117220135026
3 306 305 54 0.8760836211068563 0.3564676682594837 0.1526117220135026
3 305 53 54 0.8760836211068563 0.3564676682594837 0.1526117220135026
3 92 93 55 0.8760836211068563 0.3564676682594837 0.1526117220135026
3 55 54 92 0.8760836211068563 0.3564676682594837 0.1526117220135026
3 92 54 91 0.8760836211068563 0.3564676682594837 0.1526117220135026
3 199 93 92 0.8760836211068563 0.3564676682594837 0.1526117220135026
3 163 45 251 0.8760836211068563 0.3564676682594837 0.1526117220135026
3 346 45 163 0.8760836211068563 0.3564676682594837 0.1526117220135026
3 290 133 291 0.8760836211068563 0.3564676682594837 0.1526117220135026
3 290 132 133 0.8760836211068563 0.3564676682594837 0.1526117220135026
3 290 291 257 0.8760836211068563 0.3564676682594837 0.1526117220135026
3 257 256 290 0.8760836211068563 0.3564676682594837 0.1526117220135026
3 131 132 290 0.8760836211068563 0.3564676682594837 0.1526117220135026
3 43 286 135 0.8760836211068563 0.3564676682594837 0.1526117220135026
3 348 135 254 0.8760836211068563 0.3564676682594837 0.1526117220135026
3 169 346 170 0.8760836211068563 0.3564676682594837 0.1526117220135026
3 346 347 170 0.8760836211068563 0.3564676682594837 0.1526117220135026
3 170 140 169 0.8760836211068563 0.3564676682594837 0.1526117220135026
3 170 141 140 0.8760836211068563 0.3564676682594837 0.1526117220135026
3 321 226 320 0.8760836211068563 0.3564676682594837 0.1526117220135026
3 321 217 218 0.8760836211068563 0.3564676682594837 0.1526117220135026
3 321 320 217 0.8760836211068563 0.3564676682594837 0.1526117220135026
3 218 322 321 0.8760836211068563 0.3564676682594837 0.1526117220135026
3 322 226 321 0.8760836211068563 0.3564676682594837 0.1526117220135026
3 267 312 202 0.8760836211068563 0.3564676682594837 0.1526117220135026
3 201 266 202 0.8760836211068563 0.3564676682594837 0.1526117220135026
3 202 266 267 0.8760836211068563 0.3564676682594837 0.1526117220135026
3 202 310 201 0.8760836211068563 0.3564676682594837 0.1526117220135026
3 210 209 310 0.8760836211068563 0.3564676682594837 0.1526117220135026
3 210 312 276 0.8760836211068563 0.3564676682594837 0.1526117220135026
3 276 275 210 0.8760836211068563 0.3564676682594837 0.1526117220135026
3 275 209 210 0.8760836211068563 0.3564676682594837 0.1526117220135026
3 285 332 331 0.8760836211068563 0.3564676682594837 0.1526117220135026
3 331 234 285 0.8760836211068563 0.3564676682594837 0.1526117220135026
3 330 234 331 0.8760836211068563 0.3564676682594837 0.1526117220135026
3 333 323 364 0.8760836211068563 0.3564676682594837 0.1526117220135026
3 333 332 323 0.8760836211068563 0.3564676682594837 0.1526117220135026
3 128 330 71 0.8760836211068563 0.3564676682594837 0.1526117220135026
3 128 329 330 0.8760836211068563 0.3564676682594837 0.1526117220135026
3 328 123 186 0.8760836211068563 0.3564676682594837 0.1526117220135026
3 328 128 127 0.8760836211068563 0.3564676682594837 0.1526117220135026
3 329 128 328 0.8760836211068563 0.3564676682594837 0.1526117220135026
3 327 123 328 0.8760836211068563 0.3564676682594837 0.1526117220135026
3 328 126 327 0.8760836211068563 0.3564676682594837 0.1526117220135026
3 127 126 328 0.8760836211068563 0.3564676682594837 0.1526117220135026
3 125 68 34 0.8760836211068563 0.3564676682594837 0.1526117220135026
3 34 68 35 0.8760836211068563 0.3564676682594837 0.1526117220135026
3 69 126 127 0.8760836211068563 0.3564676682594837 0.1526117220135026
3 68 126 69 0.8760836211068563 0.3564676682594837 0.1526117220135026
3 35 68 69 0.8760836211068563 0.3564676682594837 0.1526117220135026
3 283 282 225 0.8760836211068563 0.3564676682594837 0.1526117220135026
3 225 226 283 0.8760836211068563 0.3564676682594837 0.1526117220135026
3 283 226 284 0.8760836211068563 0.3564676682594837 0.1526117220135026
3 283 284 233 0.8760836211068563 0.3564676682594837 0.1526117220135026
3 233 232 283 0.8760836211068563 0.3564676682594837 0.1526117220135026
3 232 282 283 0.8760836211068563 0.3564676682594837 0.1526117220135026
3 121 324 120 0.8760836211068563 0.3564676682594837 0.1526117220135026
3 120 184 121 0.8760836211068563 0.3564676682594837 0.1526117220135026
3 118 184 117 0.8760836211068563 0.3564676682594837 0.1526117220135026
3 118 230 231 0.8760836211068563 0.3564676682594837 0.1526117220135026
3 117 230 118 0.8760836211068563 0.3564676682594837 0.1526117220135026
3 231 185 118 0.8760836211068563 0.3564676682594837 0.1526117220135026
3 263 148 149 0.8760836211068563 0.3564676682594837 0.1526117220135026
3 263 262 148 0.8760836211068563 0.3564676682594837 0.1526117220135026
3 149 264 263 0.8760836211068563 0.3564676682594837 0.1526117220135026
3 5 84 6 0.8760836211068563 0.3564676682594837 0.1526117220135026
3 85 84 261 0.8760836211068563 0.3564676682594837 0.1526117220135026
3 85 6 84 0.8760836211068563 0.3564676682594837 0.1526117220135026
3 176 298 177 0.8760836211068563 0.3564676682594837 0.1526117220135026
3 177 298 358 0.8760836211068563 0.3564676682594837 0.1526117220135026
3 177 145 176 0.8760836211068563 0.3564676682594837 0.1526117220135026
3 177 146 145 0.8760836211068563 0.3564676682594837 0.1526117220135026
3 358 178 177 0.8760836211068563 0.3564676682594837 0.1526117220135026
3 177 178 147 0.8760836211068563 0.3564676682594837 0.1526117220135026
3 147 146 177 0.8760836211068563 0.3564676682594837 0.1526117220135026
3 142 141 171 0.8760836211068563 0.3564676682594837 0.1526117220135026
3 171 170 347 0.8760836211068563 0.3564676682594837 0.1526117220135026
3 141 170 171 0.8760836211068563 0.3564676682594837 0.1526117220135026
3 277 60 278 0.8760836211068563 0.3564676682594837 0.1526117220135026
3 277 278 109 0.8760836211068563 0.3564676682594837 0.1526117220135026
3 109 25 277 0.8760836211068563 0.3564676682594837 0.1526117220135026
3 25 24 277 0.8760836211068563 0.3564676682594837 0.1526117220135026
3 22 21 219 0.8760836211068563 0.3564676682594837 0.1526117220135026
3 219 60 22 0.8760836211068563 0.3564676682594837 0.1526117220135026
3 22 277 24 0.8760836211068563 0.3564676682594837 0.1526117220135026
3 60 277 22 0.8760836211068563 0.3564676682594837 0.1526117220135026
3 97 96 306 0.8760836211068563 0.3564676682594837 0.1526117220135026
3 306 307 97 0.8760836211068563 0.3564676682594837 0.1526117220135026
3 271 101 102 0.8760836211068563 0.3564676682594837 0.1526117220135026
3 102 272 271 0.8760836211068563 0.3564676682594837 0.1526117220135026
3 101 205 102 0.8760836211068563 0.3564676682594837 0.1526117220135026
3 155 272 273 0.8760836211068563 0.3564676682594837 0.1526117220135026
3 217 155 273 0.8760836211068563 0.3564676682594837 0.1526117220135026
3 273 274 217 0.8760836211068563 0.3564676682594837 0.1526117220135026
3 78 337 77 0.8760836211068563 0.3564676682594837 0.1526117220135026
3 337 336 77 0.8760836211068563 0.3564676682594837 0.1526117220135026
3 77 336 76 0.8760836211068563 0.3564676682594837 0.1526117220135026
3 76 188 77 0.8760836211068563 0.3564676682594837 0.1526117220135026
3 77 189 78 0.8760836211068563 0.3564676682594837 0.1526117220135026
3 188 189 77 0.8760836211068563 0.3564676682594837 0.1526117220135026
3 82 334 335 0.8760836211068563 0.3564676682594837 0.1526117220135026
3 83 82 335 0.8760836211068563 0.3564676682594837 0.1526117220135026
3 335 336 83 0.8760836211068563 0.3564676682594837 0.1526117220135026
3 76 336 335 0.8760836211068563 0.3564676682594837 0.1526117220135026
3 38 76 335 0.8760836211068563 0.3564676682594837 0.1526117220135026
3 335 334 38 0.8760836211068563 0.3564676682594837 0.1526117220135026
3 36 35 235 0.8760836211068563 0.3564676682594837 0.1526117220135026
3 235 236 36 0.8760836211068563 0.3564676682594837 0.1526117220135026
3 35 69 235 0.8760836211068563 0.3564676682594837 0.1526117220135026
3 190 79 78 0.8760836211068563 0.3564676682594837 0.1526117220135026
3 78 189 190 0.8760836211068563 0.3564676682594837 0.1526117220135026
3 191 79 190 0.8760836211068563 0.3564676682594837 0.1526117220135026
3 190 189 74 0.8760836211068563 0.3564676682594837 0.1526117220135026
3 248 249 293 0.8760836211068563 0.3564676682594837 0.1526117220135026
3 293 292 248 0.8760836211068563 0.3564676682594837 0.1526117220135026
3 248 292 247 0.8760836211068563 0.3564676682594837 0.1526117220135026
3 248 247 83 0.8760836211068563 0.3564676682594837 0.1526117220135026
3 83 337 248 0.8760836211068563 0.3564676682594837 0.1526117220135026
3 338 249 248 0.8760836211068563 0.3564676682594837 0.1526117220135026
3 248 337 338 0.8760836211068563 0.3564676682594837 0.1526117220135026
3 131 290 289 0.8760836211068563 0.3564676682594837 0.1526117220135026
3 130 243 131 0.8760836211068563 0.3564676682594837 0.1526117220135026
3 131 289 130 0.8760836211068563 0.3564676682594837 0.1526117220135026
3 130 289 288 0.8760836211068563 0.3564676682594837 0.1526117220135026
3 41 243 130 0.8760836211068563 0.3564676682594837 0.1526117220135026
3 130 129 41 0.8760836211068563 0.3564676682594837 0.1526117220135026
3 130 288 129 0.8760836211068563 0.3564676682594837 0.1526117220135026
3 132 244 245 0.8760836211068563 0.3564676682594837 0.1526117220135026
3 245 81 246 0.8760836211068563 0.3564676682594837 0.1526117220135026
3 245 80 81 0.8760836211068563 0.3564676682594837 0.1526117220135026
3 245 244 80 0.8760836211068563 0.3564676682594837 0.1526117220135026
3 246 133 245 0.8760836211068563 0.3564676682594837 0.1526117220135026
3 133 132 245 0.8760836211068563 0.3564676682594837 0.1526117220135026
3 53 304 52 0.8760836211068563 0.3564676682594837 0.1526117220135026
3 8 89 52 0.8760836211068563 0.3564676682594837 0.1526117220135026
3 9 8 52 0.8760836211068563 0.3564676682594837 0.1526117220135026
3 52 304 9 0.8760836211068563 0.3564676682594837 0.1526117220135026
3 90 53 52 0.8760836211068563 0.3564676682594837 0.1526117220135026
3 52 89 90 0.8760836211068563 0.3564676682594837 0.1526117220135026
3 94 304 95 0.8760836211068563 0.3564676682594837 0.1526117220135026
3 94 95 204 0.8760836211068563 0.3564676682594837 0.1526117220135026
3 10 9 94 0.8760836211068563 0.3564676682594837 0.1526117220135026
3 9 304 94 0.8760836211068563 0.3564676682594837 0.1526117220135026
3 94 203 10 0.8760836211068563 0.3564676682594837 0.1526117220135026
3 204 203 94 0.8760836211068563 0.3564676682594837 0.1526117220135026
3 55 93 308 0.8760836211068563 0.3564676682594837 0.1526117220135026
3 93 309 308 0.8760836211068563 0.3564676682594837 0.1526117220135026
3 308 307 55 0.8760836211068563 0.3564676682594837 0.1526117220135026
3 164 347 346 0.8760836211068563 0.3564676682594837 0.1526117220135026
3 346 163 164 0.8760836211068563 0.3564676682594837 0.1526117220135026
3 164 163 251 0.8760836211068563 0.3564676682594837 0.1526117220135026
3 164 252 347 0.8760836211068563 0.3564676682594837 0.1526117220135026
3 251 44 164 0.8760836211068563 0.3564676682594837 0.1526117220135026
3 44 252 164 0.8760836211068563 0.3564676682594837 0.1526117220135026
3 137 255 349 0.8760836211068563 0.3564676682594837 0.1526117220135026
3 349 255 167 0.8760836211068563 0.3564676682594837 0.1526117220135026
3 287 288 137 0.8760836211068563 0.3564676682594837 0.1526117220135026
3 129 288 287 0.8760836211068563 0.3564676682594837 0.1526117220135026
3 42 129 287 0.8760836211068563 0.3564676682594837 0.1526117220135026
3 287 286 42 0.8760836211068563 0.3564676682594837 0.1526117220135026
3 134 44 43 0.8760836211068563 0.3564676682594837 0.1526117220135026
3 134 252 44 0.8760836211068563 0.3564676682594837 0.1526117220135026
3 43 135 134 0.8760836211068563 0.3564676682594837 0.1526117220135026
3 310 202 311 0.8760836211068563 0.3564676682594837 0.1526117220135026
3 311 202 312 0.8760836211068563 0.3564676682594837 0.1526117220135026
3 311 210 310 0.8760836211068563 0.3564676682594837 0.1526117220135026
3 312 210 311 0.8760836211068563 0.3564676682594837 0.1526117220135026
3 193 192 75 0.8760836211068563 0.3564676682594837 0.1526117220135026
3 75 192 191 0.8760836211068563 0.3564676682594837 0.1526117220135026
3 191 190 75 0.8760836211068563 0.3564676682594837 0.1526117220135026
3 75 190 74 0.8760836211068563 0.3564676682594837 0.1526117220135026
3 342 194 242 0.8760836211068563 0.3564676682594837 0.1526117220135026
3 332 333 242 0.8760836211068563 0.3564676682594837 0.1526117220135026
3 187 186 233 0.8760836211068563 0.3564676682594837 0.1526117220135026
3 187 328 186 0.8760836211068563 0.3564676682594837 0.1526117220135026
3 329 328 187 0.8760836211068563 0.3564676682594837 0.1526117220135026
3 233 234 187 0.8760836211068563 0.3564676682594837 0.1526117220135026
3 187 234 330 0.8760836211068563 0.3564676682594837 0.1526117220135026
3 330 329 187 0.8760836211068563 0.3564676682594837 0.1526117220135026
3 70 69 127 0.8760836211068563 0.3564676682594837 0.1526117220135026
3 70 128 71 0.8760836211068563 0.3564676682594837 0.1526117220135026
3 127 128 70 0.8760836211068563 0.3564676682594837 0.1526117220135026
3 71 236 70 0.8760836211068563 0.3564676682594837 0.1526117220135026
3 236 235 70 0.8760836211068563 0.3564676682594837 0.1526117220135026
3 70 235 69 0.8760836211068563 0.3564676682594837 0.1526117220135026
3 33 324 325 0.8760836211068563 0.3564676682594837 0.1526117220135026
3 324 121 325 0.8760836211068563 0.3564676682594837 0.1526117220135026
3 88 263 264 0.8760836211068563 0.3564676682594837 0.1526117220135026
3 88 265 199 0.8760836211068563 0.3564676682594837 0.1526117220135026
3 88 264 265 0.8760836211068563 0.3564676682594837 0.1526117220135026
3 261 262 86 0.8760836211068563 0.3564676682594837 0.1526117220135026
3 86 85 261 0.8760836211068563 0.3564676682594837 0.1526117220135026
3 272 102 103 0.8760836211068563 0.3564676682594837 0.1526117220135026
3 103 273 272 0.8760836211068563 0.3564676682594837 0.1526117220135026
3 274 273 103 0.8760836211068563 0.3564676682594837 0.1526117220135026
3 208 274 103 0.8760836211068563 0.3564676682594837 0.1526117220135026
3 103 207 208 0.8760836211068563 0.3564676682594837 0.1526117220135026
3 138 290 256 0.8760836211068563 0.3564676682594837 0.1526117220135026
3 138 289 290 0.8760836211068563 0.3564676682594837 0.1526117220135026
3 138 350 167 0.8760836211068563 0.3564676682594837 0.1526117220135026
3 256 350 138 0.8760836211068563 0.3564676682594837 0.1526117220135026
3 167 255 138 0.8760836211068563 0.3564676682594837 0.1526117220135026
3 138 255 137 0.8760836211068563 0.3564676682594837 0.1526117220135026
3 137 288 138 0.8760836211068563 0.3564676682594837 0.1526117220135026
3 288 289 138 0.8760836211068563 0.3564676682594837 0.1526117220135026
3 98 97 307 0.8760836211068563 0.3564676682594837 0.1526117220135026
3 307 308 98 0.8760836211068563 0.3564676682594837 0.1526117220135026
3 208 207 98 0.8760836211068563 0.3564676682594837 0.1526117220135026
3 98 207 97 0.8760836211068563 0.3564676682594837 0.1526117220135026
3 98 308 309 0.8760836211068563 0.3564676682594837 0.1526117220135026
3 98 209 208 0.8760836211068563 0.3564676682594837 0.1526117220135026
3 98 309 209 0.8760836211068563 0.3564676682594837 0.1526117220135026
3 137 349 166 0.8760836211068563 0.3564676682594837 0.1526117220135026
3 348 254 166 0.8760836211068563 0.3564676682594837 0.1526117220135026
3 143 349 173 0.8760836211068563 0.3564676682594837 0.1526117220135026
3 173 349 167 0.8760836211068563 0.3564676682594837 0.1526117220135026
3 167 350 173 0.8760836211068563 0.3564676682594837 0.1526117220135026
3 173 350 359 0.8760836211068563 0.3564676682594837 0.1526117220135026
3 173 358 143 0.8760836211068563 0.3564676682594837 0.1526117220135026
3 359 358 173 0.8760836211068563 0.3564676682594837 0.1526117220135026
3 136 287 137 0.8760836211068563 0.3564676682594837 0.1526117220135026
3 137 166 136 0.8760836211068563 0.3564676682594837 0.1526117220135026
3 136 166 254 0.8760836211068563 0.3564676682594837 0.1526117220135026
3 286 287 136 0.8760836211068563 0.3564676682594837 0.1526117220135026
3 136 135 286 0.8760836211068563 0.3564676682594837 0.1526117220135026
3 136 254 135 0.8760836211068563 0.3564676682594837 0.1526117220135026
3 347 252 165 0.8760836211068563 0.3564676682594837 0.1526117220135026
3 348 171 165 0.8760836211068563 0.3564676682594837 0.1526117220135026
3 165 171 347 0.8760836211068563 0.3564676682594837 0.1526117220135026
3 238 237 71 0.8760836211068563 0.3564676682594837 0.1526117220135026
3 74 237 238 0.8760836211068563 0.3564676682594837 0.1526117220135026
3 238 75 74 0.8760836211068563 0.3564676682594837 0.1526117220135026
3 342 242 343 0.8760836211068563 0.3564676682594837 0.1526117220135026
3 343 242 333 0.8760836211068563 0.3564676682594837 0.1526117220135026
3 343 333 364 0.8760836211068563 0.3564676682594837 0.1526117220135026
3 363 342 343 0.8760836211068563 0.3564676682594837 0.1526117220135026
3 364 313 343 0.8760836211068563 0.3564676682594837 0.1526117220135026
3 343 313 363 0.8760836211068563 0.3564676682594837 0.1526117220135026
3 33 325 124 0.8760836211068563 0.3564676682594837 0.1526117220135026
3 124 34 33 0.8760836211068563 0.3564676682594837 0.1526117220135026
3 125 34 124 0.8760836211068563 0.3564676682594837 0.1526117220135026
3 327 125 326 0.8760836211068563 0.3564676682594837 0.1526117220135026
3 125 124 326 0.8760836211068563 0.3564676682594837 0.1526117220135026
3 326 124 325 0.8760836211068563 0.3564676682594837 0.1526117220135026
3 326 123 327 0.8760836211068563 0.3564676682594837 0.1526117220135026
3 262 263 87 0.8760836211068563 0.3564676682594837 0.1526117220135026
3 87 86 262 0.8760836211068563 0.3564676682594837 0.1526117220135026
3 263 88 87 0.8760836211068563 0.3564676682594837 0.1526117220135026
3 86 87 197 0.8760836211068563 0.3564676682594837 0.1526117220135026
3 197 91 90 0.8760836211068563 0.3564676682594837 0.1526117220135026
3 6 85 195 0.8760836211068563 0.3564676682594837 0.1526117220135026
3 195 89 7 0.8760836211068563 0.3564676682594837 0.1526117220135026
3 7 6 195 0.8760836211068563 0.3564676682594837 0.1526117220135026
3 207 103 206 0.8760836211068563 0.3564676682594837 0.1526117220135026
3 97 207 206 0.8760836211068563 0.3564676682594837 0.1526117220135026
3 206 102 205 0.8760836211068563 0.3564676682594837 0.1526117220135026
3 206 103 102 0.8760836211068563 0.3564676682594837 0.1526117220135026
3 206 205 96 0.8760836211068563 0.3564676682594837 0.1526117220135026
3 96 97 206 0.8760836211068563 0.3564676682594837 0.1526117220135026
3 348 166 172 0.8760836211068563 0.3564676682594837 0.1526117220135026
3 143 142 172 0.8760836211068563 0.3564676682594837 0.1526117220135026
3 172 349 143 0.8760836211068563 0.3564676682594837 0.1526117220135026
3 172 166 349 0.8760836211068563 0.3564676682594837 0.1526117220135026
3 172 171 348 0.8760836211068563 0.3564676682594837 0.1526117220135026
3 142 171 172 0.8760836211068563 0.3564676682594837 0.1526117220135026
3 252 134 253 0.8760836211068563 0.3564676682594837 0.1526117220135026
3 253 165 252 0.8760836211068563 0.3564676682594837 0.1526117220135026
3 253 134 135 0.8760836211068563 0.3564676682594837 0.1526117220135026
3 253 135 348 0.8760836211068563 0.3564676682594837 0.1526117220135026
3 348 165 253 0.8760836211068563 0.3564676682594837 0.1526117220135026
3 193 75 240 0.8760836211068563 0.3564676682594837 0.1526117220135026
3 330 331 240 0.8760836211068563 0.3564676682594837 0.1526117220135026
3 185 123 122 0.8760836211068563 0.3564676682594837 0.1526117220135026
3 123 326 122 0.8760836211068563 0.3564676682594837 0.1526117220135026
3 122 121 184 0.8760836211068563 0.3564676682594837 0.1526117220135026
3 122 325 121 0.8760836211068563 0.3564676682594837 0.1526117220135026
3 122 326 325 0.8760836211068563 0.3564676682594837 0.1526117220135026
3 122 118 185 0.8760836211068563 0.3564676682594837 0.1526117220135026
3 184 118 122 0.8760836211068563 0.3564676682594837 0.1526117220135026
3 198 87 88 0.8760836211068563 0.3564676682594837 0.1526117220135026
3 198 197 87 0.8760836211068563 0.3564676682594837 0.1526117220135026
3 198 88 199 0.8760836211068563 0.3564676682594837 0.1526117220135026
3 91 197 198 0.8760836211068563 0.3564676682594837 0.1526117220135026
3 199 92 198 0.8760836211068563 0.3564676682594837 0.1526117220135026
3 198 92 91 0.8760836211068563 0.3564676682594837 0.1526117220135026
3 85 86 196 0.8760836211068563 0.3564676682594837 0.1526117220135026
3 196 195 85 0.8760836211068563 0.3564676682594837 0.1526117220135026
3 86 197 196 0.8760836211068563 0.3564676682594837 0.1526117220135026
3 89 195 196 0.8760836211068563 0.3564676682594837 0.1526117220135026
3 90 89 196 0.8760836211068563 0.3564676682594837 0.1526117220135026
3 196 197 90 0.8760836211068563 0.3564676682594837 0.1526117220135026
3 75 238 239 0.8760836211068563 0.3564676682594837 0.1526117220135026
3 239 240 75 0.8760836211068563 0.3564676682594837 0.1526117220135026
3 330 240 239 0.8760836211068563 0.3564676682594837 0.1526117220135026
3 71 330 239 0.8760836211068563 0.3564676682594837 0.1526117220135026
3 239 238 71 0.8760836211068563 0.3564676682594837 0.1526117220135026
3 241 194 193 0.8760836211068563 0.3564676682594837 0.1526117220135026
3 193 240 241 0.8760836211068563 0.3564676682594837 0.1526117220135026
3 241 242 194 0.8760836211068563 0.3564676682594837 0.1526117220135026
3 241 240 331 0.8760836211068563 0.3564676682594837 0.1526117220135026
3 241 331 332 0.8760836211068563 0.3564676682594837 0.1526117220135026
3 332 242 241 0.8760836211068563 0.3564676682594837 0.1526117220135026
