OFF
89 140 0


26.7452 28.5641 10.6261
26.7452 28.5641 10.6261
26.6983 28.5504 10.6893
26.7452 28.5641 10.6261
26.7452 28.5641 10.6261
26.7931 28.6854 10.6961
26.8277 28.776 10.7496
26.8553 28.851 10.7948
26.8793 28.9183 10.8361
26.9018 28.9831 10.8765
26.9242 29.0499 10.9191
26.948 29.124 10.9671
26.9752 29.2132 11.0264
27.0092 29.3327 11.1084
26.9441 29.2696 11.1432
26.8788 29.2068 11.1782
26.8788 29.2068 11.1782
26.8156 29.0976 11.1552
26.7696 29.0189 11.1388
26.7278 28.948 11.124
26.6813 28.8697 11.1078
26.6163 28.7613 11.0854
26.6163 28.7613 11.0854
26.6259 28.6936 10.988
26.6329 28.6471 10.9197
26.6401 28.6011 10.8511
26.6509 28.536 10.752
26.7169 28.6153 10.7388
26.7538 28.6254 10.6885
26.8795 28.9591 10.8852
26.6653 28.6918 10.9202
26.8193 28.7924 10.7841
26.8109 28.8089 10.8185
26.8611 28.9066 10.8527
26.8427 28.8949 10.8696
26.9175 29.0738 10.9587
26.8861 29.0224 10.95
26.9144 29.1915 11.1019
26.8838 29.1117 11.0593
26.7729 28.9867 11.0956
26.7761 28.9546 11.0524
26.7028 28.8673 11.0695
26.724 28.865 11.0318
26.6597 28.7284 10.974
26.6925 28.7623 10.9604
26.6799 28.6048 10.7886
26.7077 28.6713 10.8237
26.7917 28.7205 10.7422
26.7902 28.7553 10.7878
26.7887 28.7899 10.8328
26.94 29.1467 11.0071
26.9036 29.0783 10.9871
26.8659 29.0077 10.9663
26.861 29.1393 11.1292
26.8428 29.0709 11.0792
26.8243 29.0015 11.0281
26.7396 28.9298 11.0831
26.7512 28.9117 11.0425
26.7627 28.8938 11.002
26.8416 28.8524 10.8198
26.8278 28.8539 10.8449
26.8139 28.8555 10.8703
26.7998 28.857 10.8958
26.8979 29.0134 10.9196
26.8709 28.9761 10.9201
26.8432 28.9379 10.9206
26.8148 28.8988 10.9211
26.9681 29.2443 11.0744
26.9255 29.1533 11.0391
26.8811 29.0591 11.002
26.8346 28.9611 10.9629
26.8098 29.0503 11.1096
26.8039 29.0029 11.0635
26.7979 28.9552 11.0168
26.7918 28.9071 10.9696
26.6521 28.7817 11.0509
26.6869 28.8016 11.0173
26.7207 28.8211 10.9846
26.7536 28.8401 10.9527
26.6711 28.6557 10.8662
26.7011 28.7087 10.8808
26.7302 28.7601 10.8948
26.7583 28.81 10.9084
26.7538 28.6254 10.6885
26.7621 28.6854 10.749
26.7702 28.7441 10.8079
26.778 28.8018 10.8653
26.7856 28.8586 10.9215
26.7856 28.8586 10.9215
3 2 27 26 0.758870624229543 0.9478076680058866 0.12719658044980964
3 84 27 28 0.758870624229543 0.9478076680058866 0.12719658044980964
3 28 2 0 0.758870624229543 0.9478076680058866 0.12719658044980964
3 27 2 28 0.758870624229543 0.9478076680058866 0.12719658044980964
3 46 27 84 0.758870624229543 0.9478076680058866 0.12719658044980964
3 53 15 17 0.758870624229543 0.9478076680058866 0.12719658044980964
3 84 28 5 0.758870624229543 0.9478076680058866 0.12719658044980964
3 5 28 0 0.758870624229543 0.9478076680058866 0.12719658044980964
3 30 43 23 0.758870624229543 0.9478076680058866 0.12719658044980964
3 44 43 30 0.758870624229543 0.9478076680058866 0.12719658044980964
3 44 76 43 0.758870624229543 0.9478076680058866 0.12719658044980964
3 80 44 30 0.758870624229543 0.9478076680058866 0.12719658044980964
3 81 44 80 0.758870624229543 0.9478076680058866 0.12719658044980964
3 14 67 13 0.758870624229543 0.9478076680058866 0.12719658044980964
3 15 53 37 0.758870624229543 0.9478076680058866 0.12719658044980964
3 37 14 15 0.758870624229543 0.9478076680058866 0.12719658044980964
3 67 14 37 0.758870624229543 0.9478076680058866 0.12719658044980964
3 37 53 38 0.758870624229543 0.9478076680058866 0.12719658044980964
3 56 19 20 0.758870624229543 0.9478076680058866 0.12719658044980964
3 54 53 17 0.758870624229543 0.9478076680058866 0.12719658044980964
3 38 53 54 0.758870624229543 0.9478076680058866 0.12719658044980964
3 43 76 75 0.758870624229543 0.9478076680058866 0.12719658044980964
3 21 23 75 0.758870624229543 0.9478076680058866 0.12719658044980964
3 75 23 43 0.758870624229543 0.9478076680058866 0.12719658044980964
3 75 20 21 0.758870624229543 0.9478076680058866 0.12719658044980964
3 47 5 6 0.758870624229543 0.9478076680058866 0.12719658044980964
3 6 48 47 0.758870624229543 0.9478076680058866 0.12719658044980964
3 84 5 47 0.758870624229543 0.9478076680058866 0.12719658044980964
3 85 80 46 0.758870624229543 0.9478076680058866 0.12719658044980964
3 85 46 84 0.758870624229543 0.9478076680058866 0.12719658044980964
3 81 80 85 0.758870624229543 0.9478076680058866 0.12719658044980964
3 84 47 85 0.758870624229543 0.9478076680058866 0.12719658044980964
3 85 47 48 0.758870624229543 0.9478076680058866 0.12719658044980964
3 85 86 81 0.758870624229543 0.9478076680058866 0.12719658044980964
3 27 46 45 0.758870624229543 0.9478076680058866 0.12719658044980964
3 26 27 45 0.758870624229543 0.9478076680058866 0.12719658044980964
3 45 25 26 0.758870624229543 0.9478076680058866 0.12719658044980964
3 79 80 30 0.758870624229543 0.9478076680058866 0.12719658044980964
3 46 80 79 0.758870624229543 0.9478076680058866 0.12719658044980964
3 79 45 46 0.758870624229543 0.9478076680058866 0.12719658044980964
3 25 45 79 0.758870624229543 0.9478076680058866 0.12719658044980964
3 68 37 38 0.758870624229543 0.9478076680058866 0.12719658044980964
3 39 18 19 0.758870624229543 0.9478076680058866 0.12719658044980964
3 39 19 56 0.758870624229543 0.9478076680058866 0.12719658044980964
3 72 54 71 0.758870624229543 0.9478076680058866 0.12719658044980964
3 71 39 72 0.758870624229543 0.9478076680058866 0.12719658044980964
3 18 39 71 0.758870624229543 0.9478076680058866 0.12719658044980964
3 71 54 17 0.758870624229543 0.9478076680058866 0.12719658044980964
3 17 18 71 0.758870624229543 0.9478076680058866 0.12719658044980964
3 38 54 69 0.758870624229543 0.9478076680058866 0.12719658044980964
3 76 44 77 0.758870624229543 0.9478076680058866 0.12719658044980964
3 62 86 61 0.758870624229543 0.9478076680058866 0.12719658044980964
3 60 34 61 0.758870624229543 0.9478076680058866 0.12719658044980964
3 61 34 62 0.758870624229543 0.9478076680058866 0.12719658044980964
3 61 32 60 0.758870624229543 0.9478076680058866 0.12719658044980964
3 86 32 61 0.758870624229543 0.9478076680058866 0.12719658044980964
3 82 62 87 0.758870624229543 0.9478076680058866 0.12719658044980964
3 82 86 62 0.758870624229543 0.9478076680058866 0.12719658044980964
3 81 86 82 0.758870624229543 0.9478076680058866 0.12719658044980964
3 82 44 81 0.758870624229543 0.9478076680058866 0.12719658044980964
3 82 77 44 0.758870624229543 0.9478076680058866 0.12719658044980964
3 24 79 30 0.758870624229543 0.9478076680058866 0.12719658044980964
3 25 79 24 0.758870624229543 0.9478076680058866 0.12719658044980964
3 30 23 24 0.758870624229543 0.9478076680058866 0.12719658044980964
3 50 68 38 0.758870624229543 0.9478076680058866 0.12719658044980964
3 67 37 12 0.758870624229543 0.9478076680058866 0.12719658044980964
3 37 68 12 0.758870624229543 0.9478076680058866 0.12719658044980964
3 68 50 12 0.758870624229543 0.9478076680058866 0.12719658044980964
3 12 50 11 0.758870624229543 0.9478076680058866 0.12719658044980964
3 13 67 12 0.758870624229543 0.9478076680058866 0.12719658044980964
3 55 54 72 0.758870624229543 0.9478076680058866 0.12719658044980964
3 55 69 54 0.758870624229543 0.9478076680058866 0.12719658044980964
3 58 77 78 0.758870624229543 0.9478076680058866 0.12719658044980964
3 87 74 78 0.758870624229543 0.9478076680058866 0.12719658044980964
3 78 74 58 0.758870624229543 0.9478076680058866 0.12719658044980964
3 78 82 87 0.758870624229543 0.9478076680058866 0.12719658044980964
3 77 82 78 0.758870624229543 0.9478076680058866 0.12719658044980964
3 42 77 58 0.758870624229543 0.9478076680058866 0.12719658044980964
3 76 77 42 0.758870624229543 0.9478076680058866 0.12719658044980964
3 70 74 65 0.758870624229543 0.9478076680058866 0.12719658044980964
3 33 34 60 0.758870624229543 0.9478076680058866 0.12719658044980964
3 33 65 34 0.758870624229543 0.9478076680058866 0.12719658044980964
3 6 7 31 0.758870624229543 0.9478076680058866 0.12719658044980964
3 7 32 31 0.758870624229543 0.9478076680058866 0.12719658044980964
3 31 48 6 0.758870624229543 0.9478076680058866 0.12719658044980964
3 86 85 49 0.758870624229543 0.9478076680058866 0.12719658044980964
3 49 32 86 0.758870624229543 0.9478076680058866 0.12719658044980964
3 49 85 48 0.758870624229543 0.9478076680058866 0.12719658044980964
3 48 31 49 0.758870624229543 0.9478076680058866 0.12719658044980964
3 49 31 32 0.758870624229543 0.9478076680058866 0.12719658044980964
3 11 50 51 0.758870624229543 0.9478076680058866 0.12719658044980964
3 38 69 51 0.758870624229543 0.9478076680058866 0.12719658044980964
3 51 50 38 0.758870624229543 0.9478076680058866 0.12719658044980964
3 58 74 73 0.758870624229543 0.9478076680058866 0.12719658044980964
3 73 55 72 0.758870624229543 0.9478076680058866 0.12719658044980964
3 73 74 70 0.758870624229543 0.9478076680058866 0.12719658044980964
3 70 55 73 0.758870624229543 0.9478076680058866 0.12719658044980964
3 36 51 69 0.758870624229543 0.9478076680058866 0.12719658044980964
3 56 20 41 0.758870624229543 0.9478076680058866 0.12719658044980964
3 76 42 41 0.758870624229543 0.9478076680058866 0.12719658044980964
3 41 75 76 0.758870624229543 0.9478076680058866 0.12719658044980964
3 20 75 41 0.758870624229543 0.9478076680058866 0.12719658044980964
3 57 42 58 0.758870624229543 0.9478076680058866 0.12719658044980964
3 58 73 57 0.758870624229543 0.9478076680058866 0.12719658044980964
3 56 41 57 0.758870624229543 0.9478076680058866 0.12719658044980964
3 57 41 42 0.758870624229543 0.9478076680058866 0.12719658044980964
3 66 74 87 0.758870624229543 0.9478076680058866 0.12719658044980964
3 66 65 74 0.758870624229543 0.9478076680058866 0.12719658044980964
3 87 62 66 0.758870624229543 0.9478076680058866 0.12719658044980964
3 62 34 66 0.758870624229543 0.9478076680058866 0.12719658044980964
3 34 65 66 0.758870624229543 0.9478076680058866 0.12719658044980964
3 59 33 60 0.758870624229543 0.9478076680058866 0.12719658044980964
3 60 32 59 0.758870624229543 0.9478076680058866 0.12719658044980964
3 59 32 7 0.758870624229543 0.9478076680058866 0.12719658044980964
3 8 59 7 0.758870624229543 0.9478076680058866 0.12719658044980964
3 33 59 8 0.758870624229543 0.9478076680058866 0.12719658044980964
3 65 33 29 0.758870624229543 0.9478076680058866 0.12719658044980964
3 29 8 9 0.758870624229543 0.9478076680058866 0.12719658044980964
3 33 8 29 0.758870624229543 0.9478076680058866 0.12719658044980964
3 52 55 70 0.758870624229543 0.9478076680058866 0.12719658044980964
3 69 55 52 0.758870624229543 0.9478076680058866 0.12719658044980964
3 52 36 69 0.758870624229543 0.9478076680058866 0.12719658044980964
3 35 36 10 0.758870624229543 0.9478076680058866 0.12719658044980964
3 51 36 35 0.758870624229543 0.9478076680058866 0.12719658044980964
3 35 10 11 0.758870624229543 0.9478076680058866 0.12719658044980964
3 11 51 35 0.758870624229543 0.9478076680058866 0.12719658044980964
3 56 57 40 0.758870624229543 0.9478076680058866 0.12719658044980964
3 40 57 73 0.758870624229543 0.9478076680058866 0.12719658044980964
3 40 39 56 0.758870624229543 0.9478076680058866 0.12719658044980964
3 72 39 40 0.758870624229543 0.9478076680058866 0.12719658044980964
3 40 73 72 0.758870624229543 0.9478076680058866 0.12719658044980964
3 36 52 64 0.758870624229543 0.9478076680058866 0.12719658044980964
3 64 29 9 0.758870624229543 0.9478076680058866 0.12719658044980964
3 65 29 64 0.758870624229543 0.9478076680058866 0.12719658044980964
3 70 65 64 0.758870624229543 0.9478076680058866 0.12719658044980964
3 64 52 70 0.758870624229543 0.9478076680058866 0.12719658044980964
3 63 64 9 0.758870624229543 0.9478076680058866 0.12719658044980964
3 36 64 63 0.758870624229543 0.9478076680058866 0.12719658044980964
3 9 10 63 0.758870624229543 0.9478076680058866 0.12719658044980964
3 10 36 63 0.758870624229543 0.9478076680058866 0.12719658044980964
