OFF
40 34 0


30.9063 31.2463 3.4969
30.9063 31.2463 3.4969
30.9144 31.2469 3.4739
30.9063 31.2463 3.4969
30.9063 31.2463 3.4969
30.8342 31.2472 3.6427
30.7742 31.2484 3.7608
30.7221 31.2497 3.8607
30.6754 31.2511 3.948
30.6324 31.2526 4.0266
30.5918 31.2542 4.0993
30.5523 31.2559 4.1682
30.5132 31.2578 4.2349
30.4735 31.2599 4.3011
30.4322 31.2623 4.3681
30.3881 31.2651 4.4376
30.3398 31.2684 4.5114
30.2851 31.2725 4.592
30.2209 31.2777 4.6829
30.1416 31.2847 4.7895
30.1098 31.3187 4.5551
30.0808 31.3107 4.688
30.061 31.3043 4.7875
30.037 31.2951 4.9213
30.1098 31.3187 4.5551
30.164 31.3139 4.4815
30.2182 31.3092 4.4079
30.2724 31.3044 4.3342
30.3265 31.2997 4.2606
30.3807 31.295 4.187
30.4349 31.2902 4.1134
30.4891 31.2855 4.0398
30.5432 31.2807 3.9662
30.5974 31.276 3.8925
30.6516 31.2713 3.8189
30.7057 31.2665 3.7453
30.7599 31.2618 3.6717
30.8141 31.2571 3.5981
30.8683 31.2523 3.5245
30.9224 31.2476 3.4508
3 15 14 27 0.8079331336563427 0.6461251221500302 0.7012177010703506
3 6 35 7 0.8079331336563427 0.6461251221500302 0.7012177010703506
3 6 36 35 0.8079331336563427 0.6461251221500302 0.7012177010703506
3 6 5 36 0.8079331336563427 0.6461251221500302 0.7012177010703506
3 7 35 34 0.8079331336563427 0.6461251221500302 0.7012177010703506
3 34 33 7 0.8079331336563427 0.6461251221500302 0.7012177010703506
3 7 33 8 0.8079331336563427 0.6461251221500302 0.7012177010703506
3 8 32 9 0.8079331336563427 0.6461251221500302 0.7012177010703506
3 33 32 8 0.8079331336563427 0.6461251221500302 0.7012177010703506
3 26 16 15 0.8079331336563427 0.6461251221500302 0.7012177010703506
3 15 27 26 0.8079331336563427 0.6461251221500302 0.7012177010703506
3 26 25 16 0.8079331336563427 0.6461251221500302 0.7012177010703506
3 14 13 28 0.8079331336563427 0.6461251221500302 0.7012177010703506
3 28 27 14 0.8079331336563427 0.6461251221500302 0.7012177010703506
3 31 11 10 0.8079331336563427 0.6461251221500302 0.7012177010703506
3 10 32 31 0.8079331336563427 0.6461251221500302 0.7012177010703506
3 9 32 10 0.8079331336563427 0.6461251221500302 0.7012177010703506
3 3 38 5 0.8079331336563427 0.6461251221500302 0.7012177010703506
3 16 25 17 0.8079331336563427 0.6461251221500302 0.7012177010703506
3 20 18 17 0.8079331336563427 0.6461251221500302 0.7012177010703506
3 17 25 20 0.8079331336563427 0.6461251221500302 0.7012177010703506
3 29 13 12 0.8079331336563427 0.6461251221500302 0.7012177010703506
3 29 28 13 0.8079331336563427 0.6461251221500302 0.7012177010703506
3 19 22 23 0.8079331336563427 0.6461251221500302 0.7012177010703506
3 21 18 20 0.8079331336563427 0.6461251221500302 0.7012177010703506
3 21 19 18 0.8079331336563427 0.6461251221500302 0.7012177010703506
3 22 19 21 0.8079331336563427 0.6461251221500302 0.7012177010703506
3 36 5 37 0.8079331336563427 0.6461251221500302 0.7012177010703506
3 5 38 37 0.8079331336563427 0.6461251221500302 0.7012177010703506
3 39 38 2 0.8079331336563427 0.6461251221500302 0.7012177010703506
3 38 3 2 0.8079331336563427 0.6461251221500302 0.7012177010703506
3 12 11 30 0.8079331336563427 0.6461251221500302 0.7012177010703506
3 30 29 12 0.8079331336563427 0.6461251221500302 0.7012177010703506
3 30 11 31 0.8079331336563427 0.6461251221500302 0.7012177010703506
