OFF
30 25 0


31.9097 32.1346 12.4228
31.9097 32.1346 12.4228
31.9747 32.0579 12.5105
32.0209 32.006 12.5717
32.063 31.9603 12.6268
32.1108 31.9103 12.6885
32.1807 31.84 12.7776
32.1807 31.84 12.7776
32.0575 31.7904 12.693
31.9618 31.7499 12.628
31.8823 31.7149 12.5746
31.8125 31.683 12.5282
31.7483 31.6528 12.486
31.6869 31.6229 12.4459
31.6256 31.5922 12.4064
31.5621 31.5593 12.3658
31.4934 31.5224 12.3224
31.4155 31.4791 12.2739
31.322 31.4248 12.2166
31.2012 31.3507 12.1442
31.2979 31.4492 12.1858
31.3763 31.531 12.2187
31.4437 31.6028 12.2464
31.5047 31.6689 12.2709
31.5626 31.7326 12.2938
31.62 31.7967 12.3162
31.6797 31.8645 12.3389
31.7447 31.9394 12.3633
31.8193 32.0266 12.3906
31.9097 32.1346 12.4228
3 3 10 9 0.13030442805395293 0.5309112796441169 0.12456144205080666
3 11 10 27 0.13030442805395293 0.5309112796441169 0.12456144205080666
3 11 26 12 0.13030442805395293 0.5309112796441169 0.12456144205080666
3 27 26 11 0.13030442805395293 0.5309112796441169 0.12456144205080666
3 24 14 13 0.13030442805395293 0.5309112796441169 0.12456144205080666
3 15 14 24 0.13030442805395293 0.5309112796441169 0.12456144205080666
3 27 10 28 0.13030442805395293 0.5309112796441169 0.12456144205080666
3 10 3 28 0.13030442805395293 0.5309112796441169 0.12456144205080666
3 9 8 4 0.13030442805395293 0.5309112796441169 0.12456144205080666
3 4 3 9 0.13030442805395293 0.5309112796441169 0.12456144205080666
3 19 18 20 0.13030442805395293 0.5309112796441169 0.12456144205080666
3 20 18 21 0.13030442805395293 0.5309112796441169 0.12456144205080666
3 21 18 17 0.13030442805395293 0.5309112796441169 0.12456144205080666
3 16 22 17 0.13030442805395293 0.5309112796441169 0.12456144205080666
3 17 22 21 0.13030442805395293 0.5309112796441169 0.12456144205080666
3 24 13 25 0.13030442805395293 0.5309112796441169 0.12456144205080666
3 12 26 25 0.13030442805395293 0.5309112796441169 0.12456144205080666
3 25 13 12 0.13030442805395293 0.5309112796441169 0.12456144205080666
3 23 22 16 0.13030442805395293 0.5309112796441169 0.12456144205080666
3 16 15 23 0.13030442805395293 0.5309112796441169 0.12456144205080666
3 23 15 24 0.13030442805395293 0.5309112796441169 0.12456144205080666
3 0 28 2 0.13030442805395293 0.5309112796441169 0.12456144205080666
3 2 28 3 0.13030442805395293 0.5309112796441169 0.12456144205080666
3 5 8 6 0.13030442805395293 0.5309112796441169 0.12456144205080666
3 5 4 8 0.13030442805395293 0.5309112796441169 0.12456144205080666
