OFF
618 1140 0


29.4407 36.001 5.4152
29.4407 36.001 5.4152
29.5127 35.9179 5.5178
29.5696 35.8518 5.5997
29.6174 35.7958 5.6693
29.6599 35.7457 5.7317
29.6993 35.6988 5.7903
29.7377 35.6529 5.8478
29.7766 35.606 5.9067
29.8177 35.556 5.9698
29.8633 35.4999 6.0406
29.9165 35.4337 6.1247
29.9826 35.35 6.2315
30.0245 35.3017 6.3545
30.0538 35.2669 6.4422
30.0827 35.232 6.5299
30.1225 35.1825 6.6531
30.1225 35.1825 6.6531
30.1296 35.1809 6.7811
30.1341 35.1811 6.8985
30.1364 35.1828 7.0074
30.1368 35.1859 7.1095
30.1356 35.1902 7.2064
30.133 35.1956 7.2993
30.1289 35.202 7.3892
30.1235 35.2096 7.4772
30.1167 35.2182 7.5641
30.1085 35.228 7.6507
30.0988 35.2392 7.738
30.0874 35.2517 7.8267
30.0742 35.266 7.9178
30.0588 35.2822 8.0123
30.0408 35.3007 8.1113
30.0198 35.3219 8.216
29.9952 35.3464 8.3281
29.9661 35.375 8.4495
29.9661 35.375 8.4495
29.9399 35.4278 8.3206
29.9163 35.4733 8.2104
29.8946 35.5136 8.1131
29.874 35.5505 8.0248
29.854 35.5851 7.9427
29.8342 35.6182 7.8643
29.8141 35.6507 7.7879
29.7932 35.6834 7.7116
29.7711 35.7169 7.6339
29.7471 35.7522 7.5528
29.7205 35.79 7.4663
29.6901 35.8318 7.3717
29.6544 35.879 7.2656
29.6112 35.934 7.1433
29.6112 35.934 7.1433
29.5965 35.948 6.9903
29.5841 35.958 6.8626
29.5733 35.9655 6.752
29.5637 35.9714 6.6533
29.5548 35.9761 6.563
29.5465 35.98 6.4784
29.5385 35.9834 6.3976
29.5308 35.9862 6.3189
29.523 35.9888 6.2409
29.5152 35.991 6.162
29.5072 35.9931 6.0808
29.4987 35.9949 5.9957
29.4896 35.9965 5.9046
29.4797 35.998 5.8051
29.4686 35.9993 5.6938
29.4558 36.0003 5.5662
29.4407 36.001 5.4152
29.5432 35.9602 6.2231
29.5697 35.9307 6.2813
29.5949 35.9025 6.337
29.6404 35.7798 5.7903
29.6612 35.7649 5.9017
29.6803 35.751 6.0049
29.6978 35.7379 6.101
29.7131 35.6927 5.8944
29.7257 35.6869 5.9913
29.7373 35.6814 6.0819
29.748 35.6761 6.1671
29.7824 35.6086 5.9959
29.7877 35.611 6.0798
29.7925 35.6131 6.1589
29.797 35.615 6.2338
29.5621 35.9554 6.4352
29.5849 35.9283 6.4717
29.6069 35.902 6.5071
29.6282 35.8764 6.5416
29.5495 35.9589 6.2937
29.5747 35.9302 6.3444
29.5988 35.9026 6.3931
29.6218 35.876 6.44
29.5301 35.9619 6.0756
29.5595 35.9309 6.1509
29.5871 35.9014 6.222
29.613 35.8734 6.2894
29.5155 35.9626 5.9091
29.5484 35.9298 6.0055
29.5788 35.899 6.0954
29.607 35.8702 6.1795
29.5983 35.8296 5.7311
29.6243 35.8092 5.8513
29.6479 35.7903 5.962
29.6695 35.7726 6.0645
29.6894 35.7561 6.16
29.8544 35.5892 7.8698
29.8546 35.5931 7.7986
29.8544 35.5968 7.7287
29.8539 35.6002 7.6599
29.8532 35.6034 7.5917
29.8165 35.6502 7.7283
29.8187 35.6495 7.6695
29.8207 35.6486 7.6112
29.8224 35.6477 7.5531
29.8239 35.6466 7.4952
29.5688 35.9531 6.5088
29.5904 35.9268 6.5384
29.6113 35.9012 6.5673
29.6317 35.8761 6.5956
29.6516 35.8515 6.6232
29.4976 35.9619 5.7042
29.5351 35.9269 5.8296
29.5692 35.8948 5.9444
29.6003 35.865 6.0502
29.6288 35.8373 6.1483
29.5487 35.888 5.6622
29.581 35.8608 5.7932
29.6102 35.8358 5.9129
29.6367 35.8126 6.023
29.661 35.791 6.125
29.6833 35.7708 6.2199
29.861 35.5117 6.1142
29.8586 35.5228 6.1841
29.8563 35.5333 6.2507
29.854 35.5433 6.3142
29.8516 35.5527 6.3749
29.8493 35.5617 6.4332
30.0362 35.296 6.4765
30.0192 35.3241 6.5098
30.0025 35.3513 6.5421
29.9863 35.3777 6.5735
29.9704 35.4033 6.6041
29.9549 35.4282 6.6339
30.1094 35.2315 7.3537
30.09 35.2606 7.3188
30.0706 35.2893 7.2842
30.0513 35.3177 7.2499
30.0319 35.3459 7.2159
30.0124 35.3739 7.1821
30.0984 35.2468 7.5165
30.0802 35.2749 7.4697
30.062 35.3026 7.4236
30.0438 35.3299 7.378
30.0255 35.3568 7.3328
30.0071 35.3836 7.2879
30.082 35.2671 7.6774
30.0652 35.2942 7.6183
30.0485 35.3207 7.5603
30.0317 35.3467 7.5033
30.0149 35.3723 7.4469
29.9979 35.3976 7.3911
30.0592 35.2932 7.8424
30.0443 35.3193 7.7694
30.0294 35.3445 7.6986
30.0146 35.3691 7.6293
29.9996 35.393 7.5613
29.9844 35.4166 7.4942
30.0283 35.327 8.0175
30.0159 35.3519 7.9281
30.0036 35.3756 7.8423
29.9912 35.3983 7.7593
29.9786 35.4202 7.6785
29.9658 35.4415 7.5993
29.8929 35.5236 8.0229
29.8909 35.533 7.9363
29.8885 35.5418 7.8526
29.8858 35.5502 7.771
29.8827 35.5582 7.6912
29.8792 35.5659 7.6125
29.7757 35.712 7.5859
29.7801 35.7069 7.538
29.7844 35.7017 7.4902
29.7886 35.6965 7.4423
29.7926 35.6911 7.3942
29.7965 35.6856 7.3458
29.5833 35.9465 6.6693
29.6026 35.922 6.685
29.6214 35.8979 6.7006
29.64 35.874 6.7159
29.6583 35.8505 6.7311
29.6762 35.8273 6.7461
30.1151 35.2146 6.9977
30.0939 35.2459 6.9882
30.073 35.2768 6.9789
30.0522 35.3073 6.9698
30.0316 35.3375 6.9607
30.011 35.3673 6.9518
29.9906 35.3969 6.943
30.1151 35.2207 7.1832
30.0948 35.2508 7.1603
30.0745 35.2806 7.1377
30.0543 35.3101 7.1153
30.0341 35.3393 7.0932
30.0139 35.3683 7.0712
29.9936 35.3972 7.0493
29.9864 35.3715 8.2101
29.9776 35.3947 8.0998
29.9687 35.4162 7.9957
29.9596 35.4365 7.8964
29.9503 35.4557 7.8009
29.9407 35.4741 7.7083
29.9307 35.4919 7.6177
29.9355 35.4461 8.2052
29.9309 35.4629 8.097
29.9258 35.4785 7.9944
29.9205 35.4932 7.8964
29.9148 35.5071 7.8019
29.9087 35.5203 7.71
29.9021 35.5329 7.6199
29.7278 35.7803 7.4293
29.735 35.7706 7.3923
29.7422 35.7607 7.3552
29.7493 35.7507 7.3178
29.7564 35.7406 7.2802
29.7635 35.7302 7.2423
29.7705 35.7198 7.204
29.7474 35.6512 5.9444
29.7563 35.6495 6.0347
29.7645 35.6478 6.1196
29.7721 35.6461 6.1997
29.7791 35.6444 6.2754
29.7856 35.6427 6.3474
29.7916 35.641 6.4159
29.7972 35.6393 6.4813
30.0089 35.3285 6.3967
29.9939 35.3544 6.4374
29.9793 35.3794 6.4768
29.9651 35.4035 6.515
29.9512 35.4268 6.5521
29.9377 35.4494 6.5881
29.9245 35.4713 6.6231
29.9116 35.4925 6.6572
30.1077 35.2143 6.7879
30.0861 35.247 6.7945
30.0649 35.279 6.8011
30.044 35.3105 6.8075
30.0233 35.3413 6.8139
30.0029 35.3717 6.8203
29.9828 35.4016 6.8266
29.9629 35.431 6.8328
29.5916 35.9418 6.7605
29.6097 35.9183 6.769
29.6275 35.895 6.7774
29.6451 35.872 6.7858
29.6625 35.8491 6.7941
29.6796 35.8264 6.8024
29.6966 35.8038 6.8106
29.7135 35.7814 6.8188
29.5231 35.9624 5.9957
29.5541 35.9305 6.0809
29.583 35.9004 6.1608
29.61 35.872 6.2361
29.6354 35.845 6.3074
29.6592 35.8194 6.3751
29.6817 35.7949 6.4396
29.703 35.7713 6.5013
29.9702 35.3738 6.2855
29.9582 35.3965 6.3372
29.9466 35.4182 6.387
29.9353 35.4391 6.4349
29.9243 35.4592 6.4812
29.9137 35.4785 6.5259
29.9033 35.4972 6.5692
29.8931 35.5152 6.6111
29.8832 35.5326 6.6519
30.1004 35.2169 6.6698
30.0788 35.2503 6.6862
30.0577 35.283 6.7023
30.0369 35.3148 6.718
30.0165 35.3459 6.7334
29.9965 35.3764 6.7485
29.9767 35.4062 6.7634
29.9573 35.4355 6.7781
29.9381 35.4642 6.7925
29.6657 35.8634 7.2409
29.677 35.8477 7.216
29.6883 35.8319 7.1911
29.6996 35.816 7.1661
29.7109 35.7999 7.1409
29.7222 35.7837 7.1156
29.7336 35.7672 7.0901
29.7451 35.7506 7.0643
29.7565 35.7338 7.0383
29.6011 35.9355 6.8633
29.6179 35.9132 6.8641
29.6346 35.8909 6.8648
29.6511 35.8687 6.8656
29.6676 35.8466 6.8664
29.6839 35.8246 6.8672
29.7001 35.8026 6.8681
29.7162 35.7806 6.8689
29.7323 35.7587 6.8698
29.4865 35.9607 5.5769
29.5272 35.9245 5.722
29.5636 35.8915 5.8534
29.5965 35.8613 5.9732
29.6264 35.8334 6.0833
29.6537 35.8075 6.1851
29.6788 35.7832 6.2799
29.702 35.7604 6.3686
29.7235 35.7387 6.4521
29.4865 35.9607 5.5769
29.5272 35.9245 5.722
29.5636 35.8915 5.8534
29.5965 35.8613 5.9732
29.6264 35.8334 6.0833
29.6537 35.8075 6.1851
29.6788 35.7832 6.2799
29.702 35.7604 6.3686
29.7235 35.7387 6.4521
29.7436 35.7182 6.531
29.9095 35.4509 6.1893
29.9028 35.4672 6.251
29.8962 35.4827 6.31
29.8899 35.4976 6.3665
29.8836 35.5117 6.4209
29.8776 35.5253 6.4731
29.8716 35.5383 6.5236
29.8658 35.5508 6.5723
29.8601 35.5628 6.6194
29.8545 35.5744 6.6651
30.0909 35.2563 7.5968
30.0734 35.2839 7.544
30.0559 35.311 7.492
30.0383 35.3377 7.4407
30.0207 35.364 7.39
30.003 35.3901 7.3396
29.9851 35.416 7.2894
29.9669 35.4418 7.2393
29.9484 35.4676 7.189
29.9296 35.4934 7.1385
29.8734 35.5574 7.944
29.8725 35.5639 7.8656
29.8712 35.57 7.7892
29.8697 35.5758 7.7144
29.8678 35.5813 7.6406
29.8655 35.5865 7.5676
29.8629 35.5916 7.4948
29.86 35.5964 7.422
29.8567 35.6011 7.3487
29.853 35.6057 7.2746
29.7967 35.6806 7.658
29.8 35.6777 7.6047
29.8031 35.6748 7.5517
29.806 35.6717 7.4988
29.8087 35.6685 7.4457
29.8112 35.6651 7.3925
29.8137 35.6617 7.3389
29.8159 35.658 7.2847
29.818 35.6542 7.2299
29.8199 35.6502 7.1741
29.6121 35.9269 6.9825
29.6277 35.9058 6.9748
29.6432 35.8847 6.9671
29.6586 35.8636 6.9594
29.674 35.8425 6.9517
29.6893 35.8213 6.9441
29.7047 35.8001 6.9365
29.72 35.7788 6.9289
29.7353 35.7575 6.9213
29.7506 35.736 6.9137
29.5368 35.9612 6.1509
29.5647 35.9309 6.2172
29.591 35.9021 6.2804
29.6159 35.8746 6.3405
29.6396 35.8482 6.3981
29.6621 35.8228 6.4533
29.6835 35.7984 6.5063
29.704 35.7748 6.5575
29.7237 35.752 6.6069
29.7426 35.7298 6.6548
29.8196 35.563 6.0514
29.8212 35.5695 6.1286
29.8226 35.5757 6.2017
29.8238 35.5814 6.2712
29.8248 35.5868 6.3374
29.8256 35.5919 6.4007
29.8263 35.5967 6.4613
29.8269 35.6012 6.5196
29.8273 35.6054 6.5756
29.8276 35.6095 6.6296
29.8278 35.6133 6.6818
30.1159 35.217 7.0928
30.0951 35.2477 7.0764
30.0745 35.278 7.0602
30.0539 35.308 7.0443
30.0335 35.3378 7.0284
30.013 35.3672 7.0128
29.9926 35.3965 6.9972
29.9722 35.4255 6.9818
29.9518 35.4544 6.9665
29.9314 35.4833 6.9513
29.9108 35.512 6.9361
30.1046 35.2386 7.4357
30.0857 35.2672 7.3948
30.0669 35.2954 7.3545
30.0481 35.3232 7.3145
30.0292 35.3508 7.2749
30.0102 35.3782 7.2355
29.9911 35.4055 7.1962
29.9718 35.4327 7.157
29.9523 35.46 7.1177
29.9325 35.4873 7.0782
29.9123 35.5147 7.0386
30.0449 35.309 7.9282
30.0312 35.3345 7.8475
30.0175 35.359 7.7695
30.0037 35.3827 7.6936
29.9899 35.4057 7.6194
29.9758 35.4282 7.5463
29.9615 35.4502 7.4741
29.9469 35.472 7.4023
29.9319 35.4936 7.3304
29.9163 35.5152 7.2582
29.9002 35.5369 7.1851
29.9599 35.3992 8.3159
29.9536 35.4211 8.1926
29.9469 35.4413 8.0775
29.94 35.46 7.9687
29.9327 35.4776 7.8649
29.9251 35.4941 7.7648
29.917 35.51 7.6674
29.9084 35.5252 7.5718
29.8993 35.54 7.477
29.8896 35.5545 7.3821
29.8791 35.5688 7.2864
29.9134 35.487 8.109
29.9102 35.4997 8.0126
29.9066 35.5117 7.9203
29.9026 35.5229 7.8312
29.8982 35.5337 7.7445
29.8935 35.5439 7.6596
29.8884 35.5538 7.5759
29.8828 35.5634 7.4927
29.8768 35.5727 7.4095
29.8702 35.5818 7.3257
29.8631 35.5909 7.2408
29.6991 35.8194 7.3406
29.7082 35.8069 7.3094
29.7172 35.7943 7.278
29.7262 35.7815 7.2465
29.7352 35.7686 7.2147
29.7442 35.7555 7.1827
29.7532 35.7423 7.1504
29.7623 35.7288 7.1178
29.7714 35.7151 7.0847
29.7805 35.7012 7.0513
29.7897 35.6869 7.0173
29.5558 35.9574 6.364
29.5797 35.9295 6.4074
29.6028 35.9025 6.4494
29.6249 35.8763 6.4901
29.6463 35.851 6.5295
29.6669 35.8263 6.5678
29.6869 35.8022 6.6051
29.7062 35.7788 6.6414
29.7249 35.7558 6.6769
29.7431 35.7334 6.7116
29.7609 35.7114 6.7456
30.1124 35.2136 6.8965
30.091 35.2456 6.8947
30.0699 35.2771 6.8929
30.049 35.3081 6.8911
30.0283 35.3386 6.8895
30.0077 35.3687 6.8878
29.9873 35.3985 6.8863
29.9671 35.4279 6.8848
29.947 35.457 6.8833
29.9269 35.4859 6.8819
29.907 35.5145 6.8806
29.887 35.5428 6.8793
30.113 35.2255 7.2699
30.093 35.2551 7.2408
30.0732 35.2844 7.2121
30.0534 35.3133 7.1837
30.0335 35.342 7.1555
30.0136 35.3706 7.1275
29.9937 35.399 7.0996
29.9736 35.4273 7.0718
29.9534 35.4556 7.044
29.9331 35.4838 7.0163
29.9125 35.5122 6.9884
29.8917 35.5406 6.9605
29.8706 35.5692 6.9324
30.009 35.3477 8.1111
29.9982 35.3718 8.0119
29.9875 35.3945 7.9175
29.9766 35.4161 7.8267
29.9655 35.4368 7.7389
29.9542 35.4567 7.6532
29.9426 35.4761 7.569
29.9306 35.495 7.4857
29.9181 35.5136 7.4027
29.905 35.5321 7.3193
29.8914 35.5506 7.2351
29.8769 35.5692 7.1493
29.8615 35.588 7.0613
29.8356 35.6199 7.7984
29.8368 35.6214 7.7337
29.8377 35.6228 7.6698
29.8383 35.624 7.6065
29.8387 35.625 7.5435
29.8388 35.6259 7.4807
29.8386 35.6267 7.4177
29.8382 35.6272 7.3542
29.8376 35.6277 7.2902
29.8366 35.628 7.2252
29.8354 35.6281 7.159
29.8339 35.6281 7.0913
29.8321 35.6279 7.0217
29.753 35.7449 7.5103
29.7587 35.7376 7.4678
29.7643 35.7302 7.4252
29.7699 35.7226 7.3825
29.7753 35.7149 7.3395
29.7807 35.7071 7.2962
29.7861 35.6991 7.2524
29.7913 35.691 7.2082
29.7965 35.6826 7.1633
29.8017 35.674 7.1178
29.8069 35.6652 7.0715
29.812 35.6561 7.0242
29.8172 35.6467 6.9759
29.5758 35.9502 6.5862
29.5962 35.9248 6.6089
29.6161 35.8998 6.6312
29.6356 35.8753 6.6532
29.6547 35.8513 6.6747
29.6734 35.8275 6.6959
29.6917 35.8042 6.7169
29.7096 35.7812 6.7375
29.7273 35.7584 6.7578
29.7446 35.736 6.778
29.7617 35.7138 6.7978
29.7785 35.6918 6.8175
29.795 35.67 6.8371
30.0632 35.2632 6.5567
30.0442 35.2935 6.5828
30.0256 35.323 6.6082
30.0075 35.3516 6.633
29.9897 35.3795 6.6573
29.9723 35.4068 6.6809
29.9552 35.4333 6.7041
29.9384 35.4593 6.7269
29.9218 35.4846 6.7492
29.9056 35.5095 6.7711
29.8896 35.5338 6.7926
29.8738 35.5577 6.8138
29.8581 35.5812 6.8347
29.8427 35.6043 6.8553
30.0715 35.2793 7.759
30.0556 35.3059 7.6933
30.0397 35.3318 7.629
30.0238 35.3572 7.566
30.0079 35.382 7.5039
29.9917 35.4064 7.4425
29.9754 35.4306 7.3815
29.9587 35.4546 7.3206
29.9417 35.4786 7.2595
29.9243 35.5026 7.1982
29.9063 35.5267 7.1361
29.8878 35.5511 7.0731
29.8685 35.5759 7.0089
29.8484 35.6011 6.9432
29.6255 35.9144 7.1259
29.6398 35.8949 7.1084
29.654 35.8752 7.091
29.6683 35.8554 7.0735
29.6825 35.8356 7.056
29.6968 35.8156 7.0384
29.711 35.7954 7.0208
29.7253 35.7751 7.0031
29.7397 35.7546 6.9853
29.7541 35.7339 6.9674
29.7686 35.7131 6.9493
29.7831 35.6919 6.9312
29.7978 35.6706 6.9128
29.8126 35.6489 6.8943
29.5071 35.9625 5.8132
29.5421 35.9286 5.9228
29.5742 35.8972 6.024
29.6038 35.8679 6.1182
29.6311 35.8404 6.2061
29.6565 35.8145 6.2886
29.6802 35.79 6.3665
29.7023 35.7667 6.4402
29.7232 35.7445 6.5103
29.7429 35.7232 6.5772
29.7615 35.7027 6.6413
29.7792 35.6829 6.7029
29.796 35.6637 6.7623
29.8121 35.6451 6.8198
29.6779 35.7349 5.8438
29.6944 35.7248 5.9476
29.7096 35.7153 6.0443
29.7236 35.7063 6.1347
29.7365 35.6977 6.2196
29.7485 35.6895 6.2997
29.7596 35.6816 6.3756
29.77 35.6741 6.4476
29.7798 35.6668 6.5163
29.7889 35.6597 6.582
29.7975 35.6529 6.645
29.8057 35.6462 6.7056
29.8133 35.6396 6.7641
29.8206 35.6332 6.8207
29.8275 35.6269 6.8756
29.8275 35.6269 6.8756
3 3 302 125 0.200240418415926 0.664669367883825 0.6370873300369073
3 19 18 242 0.200240418415926 0.664669367883825 0.6370873300369073
3 275 18 17 0.200240418415926 0.664669367883825 0.6370873300369073
3 275 242 18 0.200240418415926 0.664669367883825 0.6370873300369073
3 244 470 243 0.200240418415926 0.664669367883825 0.6370873300369073
3 66 302 67 0.200240418415926 0.664669367883825 0.6370873300369073
3 2 302 3 0.200240418415926 0.664669367883825 0.6370873300369073
3 0 67 2 0.200240418415926 0.664669367883825 0.6370873300369073
3 2 67 302 0.200240418415926 0.664669367883825 0.6370873300369073
3 3 125 4 0.200240418415926 0.664669367883825 0.6370873300369073
3 557 480 479 0.200240418415926 0.664669367883825 0.6370873300369073
3 19 242 469 0.200240418415926 0.664669367883825 0.6370873300369073
3 243 470 469 0.200240418415926 0.664669367883825 0.6370873300369073
3 469 242 243 0.200240418415926 0.664669367883825 0.6370873300369073
3 23 22 481 0.200240418415926 0.664669367883825 0.6370873300369073
3 481 144 23 0.200240418415926 0.664669367883825 0.6370873300369073
3 50 49 284 0.200240418415926 0.664669367883825 0.6370873300369073
3 421 567 422 0.200240418415926 0.664669367883825 0.6370873300369073
3 562 164 163 0.200240418415926 0.664669367883825 0.6370873300369073
3 322 267 266 0.200240418415926 0.664669367883825 0.6370873300369073
3 13 12 266 0.200240418415926 0.664669367883825 0.6370873300369073
3 266 267 13 0.200240418415926 0.664669367883825 0.6370873300369073
3 10 131 11 0.200240418415926 0.664669367883825 0.6370873300369073
3 72 6 5 0.200240418415926 0.664669367883825 0.6370873300369073
3 9 8 80 0.200240418415926 0.664669367883825 0.6370873300369073
3 250 54 53 0.200240418415926 0.664669367883825 0.6370873300369073
3 197 400 399 0.200240418415926 0.664669367883825 0.6370873300369073
3 144 481 145 0.200240418415926 0.664669367883825 0.6370873300369073
3 483 146 145 0.200240418415926 0.664669367883825 0.6370873300369073
3 21 198 22 0.200240418415926 0.664669367883825 0.6370873300369073
3 411 487 488 0.200240418415926 0.664669367883825 0.6370873300369073
3 410 487 411 0.200240418415926 0.664669367883825 0.6370873300369073
3 339 340 569 0.200240418415926 0.664669367883825 0.6370873300369073
3 410 411 339 0.200240418415926 0.664669367883825 0.6370873300369073
3 339 411 340 0.200240418415926 0.664669367883825 0.6370873300369073
3 569 340 570 0.200240418415926 0.664669367883825 0.6370873300369073
3 570 424 569 0.200240418415926 0.664669367883825 0.6370873300369073
3 28 27 155 0.200240418415926 0.664669367883825 0.6370873300369073
3 331 27 26 0.200240418415926 0.664669367883825 0.6370873300369073
3 331 155 27 0.200240418415926 0.664669367883825 0.6370873300369073
3 425 37 35 0.200240418415926 0.664669367883825 0.6370873300369073
3 40 39 173 0.200240418415926 0.664669367883825 0.6370873300369073
3 323 267 322 0.200240418415926 0.664669367883825 0.6370873300369073
3 13 267 234 0.200240418415926 0.664669367883825 0.6370873300369073
3 321 11 131 0.200240418415926 0.664669367883825 0.6370873300369073
3 12 11 321 0.200240418415926 0.664669367883825 0.6370873300369073
3 322 266 321 0.200240418415926 0.664669367883825 0.6370873300369073
3 321 266 12 0.200240418415926 0.664669367883825 0.6370873300369073
3 140 548 139 0.200240418415926 0.664669367883825 0.6370873300369073
3 243 242 276 0.200240418415926 0.664669367883825 0.6370873300369073
3 242 275 276 0.200240418415926 0.664669367883825 0.6370873300369073
3 473 472 245 0.200240418415926 0.664669367883825 0.6370873300369073
3 245 246 473 0.200240418415926 0.664669367883825 0.6370873300369073
3 248 475 247 0.200240418415926 0.664669367883825 0.6370873300369073
3 5 4 100 0.200240418415926 0.664669367883825 0.6370873300369073
3 100 72 5 0.200240418415926 0.664669367883825 0.6370873300369073
3 100 4 125 0.200240418415926 0.664669367883825 0.6370873300369073
3 80 8 226 0.200240418415926 0.664669367883825 0.6370873300369073
3 8 7 226 0.200240418415926 0.664669367883825 0.6370873300369073
3 381 131 10 0.200240418415926 0.664669367883825 0.6370873300369073
3 10 9 381 0.200240418415926 0.664669367883825 0.6370873300369073
3 381 9 80 0.200240418415926 0.664669367883825 0.6370873300369073
3 80 81 381 0.200240418415926 0.664669367883825 0.6370873300369073
3 227 81 80 0.200240418415926 0.664669367883825 0.6370873300369073
3 80 226 227 0.200240418415926 0.664669367883825 0.6370873300369073
3 361 53 52 0.200240418415926 0.664669367883825 0.6370873300369073
3 593 130 592 0.200240418415926 0.664669367883825 0.6370873300369073
3 592 130 307 0.200240418415926 0.664669367883825 0.6370873300369073
3 375 263 374 0.200240418415926 0.664669367883825 0.6370873300369073
3 185 55 54 0.200240418415926 0.664669367883825 0.6370873300369073
3 325 269 324 0.200240418415926 0.664669367883825 0.6370873300369073
3 385 386 135 0.200240418415926 0.664669367883825 0.6370873300369073
3 135 325 324 0.200240418415926 0.664669367883825 0.6370873300369073
3 229 79 606 0.200240418415926 0.664669367883825 0.6370873300369073
3 322 321 132 0.200240418415926 0.664669367883825 0.6370873300369073
3 132 321 131 0.200240418415926 0.664669367883825 0.6370873300369073
3 265 596 310 0.200240418415926 0.664669367883825 0.6370873300369073
3 609 608 310 0.200240418415926 0.664669367883825 0.6370873300369073
3 310 608 318 0.200240418415926 0.664669367883825 0.6370873300369073
3 378 464 379 0.200240418415926 0.664669367883825 0.6370873300369073
3 378 596 265 0.200240418415926 0.664669367883825 0.6370873300369073
3 379 464 465 0.200240418415926 0.664669367883825 0.6370873300369073
3 533 55 534 0.200240418415926 0.664669367883825 0.6370873300369073
3 55 185 534 0.200240418415926 0.664669367883825 0.6370873300369073
3 280 247 246 0.200240418415926 0.664669367883825 0.6370873300369073
3 329 390 330 0.200240418415926 0.664669367883825 0.6370873300369073
3 326 387 327 0.200240418415926 0.664669367883825 0.6370873300369073
3 327 328 272 0.200240418415926 0.664669367883825 0.6370873300369073
3 407 408 154 0.200240418415926 0.664669367883825 0.6370873300369073
3 148 408 147 0.200240418415926 0.664669367883825 0.6370873300369073
3 408 407 147 0.200240418415926 0.664669367883825 0.6370873300369073
3 147 407 146 0.200240418415926 0.664669367883825 0.6370873300369073
3 483 145 482 0.200240418415926 0.664669367883825 0.6370873300369073
3 482 145 481 0.200240418415926 0.664669367883825 0.6370873300369073
3 482 199 483 0.200240418415926 0.664669367883825 0.6370873300369073
3 482 198 199 0.200240418415926 0.664669367883825 0.6370873300369073
3 482 481 22 0.200240418415926 0.664669367883825 0.6370873300369073
3 22 198 482 0.200240418415926 0.664669367883825 0.6370873300369073
3 483 199 200 0.200240418415926 0.664669367883825 0.6370873300369073
3 488 487 204 0.200240418415926 0.664669367883825 0.6370873300369073
3 25 24 403 0.200240418415926 0.664669367883825 0.6370873300369073
3 24 404 403 0.200240418415926 0.664669367883825 0.6370873300369073
3 144 404 143 0.200240418415926 0.664669367883825 0.6370873300369073
3 143 404 24 0.200240418415926 0.664669367883825 0.6370873300369073
3 23 144 143 0.200240418415926 0.664669367883825 0.6370873300369073
3 143 24 23 0.200240418415926 0.664669367883825 0.6370873300369073
3 144 145 405 0.200240418415926 0.664669367883825 0.6370873300369073
3 405 404 144 0.200240418415926 0.664669367883825 0.6370873300369073
3 410 148 486 0.200240418415926 0.664669367883825 0.6370873300369073
3 486 487 410 0.200240418415926 0.664669367883825 0.6370873300369073
3 573 572 493 0.200240418415926 0.664669367883825 0.6370873300369073
3 572 492 493 0.200240418415926 0.664669367883825 0.6370873300369073
3 479 480 402 0.200240418415926 0.664669367883825 0.6370873300369073
3 480 493 402 0.200240418415926 0.664669367883825 0.6370873300369073
3 402 493 492 0.200240418415926 0.664669367883825 0.6370873300369073
3 491 492 572 0.200240418415926 0.664669367883825 0.6370873300369073
3 491 402 492 0.200240418415926 0.664669367883825 0.6370873300369073
3 571 572 506 0.200240418415926 0.664669367883825 0.6370873300369073
3 421 422 502 0.200240418415926 0.664669367883825 0.6370873300369073
3 561 562 163 0.200240418415926 0.664669367883825 0.6370873300369073
3 163 164 417 0.200240418415926 0.664669367883825 0.6370873300369073
3 164 418 417 0.200240418415926 0.664669367883825 0.6370873300369073
3 34 425 35 0.200240418415926 0.664669367883825 0.6370873300369073
3 205 34 33 0.200240418415926 0.664669367883825 0.6370873300369073
3 425 34 205 0.200240418415926 0.664669367883825 0.6370873300369073
3 426 205 206 0.200240418415926 0.664669367883825 0.6370873300369073
3 425 205 426 0.200240418415926 0.664669367883825 0.6370873300369073
3 42 41 105 0.200240418415926 0.664669367883825 0.6370873300369073
3 41 342 105 0.200240418415926 0.664669367883825 0.6370873300369073
3 137 234 235 0.200240418415926 0.664669367883825 0.6370873300369073
3 268 234 267 0.200240418415926 0.664669367883825 0.6370873300369073
3 235 234 268 0.200240418415926 0.664669367883825 0.6370873300369073
3 324 269 268 0.200240418415926 0.664669367883825 0.6370873300369073
3 267 323 268 0.200240418415926 0.664669367883825 0.6370873300369073
3 268 323 324 0.200240418415926 0.664669367883825 0.6370873300369073
3 270 325 326 0.200240418415926 0.664669367883825 0.6370873300369073
3 269 325 270 0.200240418415926 0.664669367883825 0.6370873300369073
3 235 268 236 0.200240418415926 0.664669367883825 0.6370873300369073
3 236 268 269 0.200240418415926 0.664669367883825 0.6370873300369073
3 476 475 248 0.200240418415926 0.664669367883825 0.6370873300369073
3 476 197 475 0.200240418415926 0.664669367883825 0.6370873300369073
3 400 197 476 0.200240418415926 0.664669367883825 0.6370873300369073
3 476 477 400 0.200240418415926 0.664669367883825 0.6370873300369073
3 474 247 475 0.200240418415926 0.664669367883825 0.6370873300369073
3 475 197 474 0.200240418415926 0.664669367883825 0.6370873300369073
3 473 246 474 0.200240418415926 0.664669367883825 0.6370873300369073
3 246 247 474 0.200240418415926 0.664669367883825 0.6370873300369073
3 312 100 125 0.200240418415926 0.664669367883825 0.6370873300369073
3 76 226 7 0.200240418415926 0.664669367883825 0.6370873300369073
3 372 260 93 0.200240418415926 0.664669367883825 0.6370873300369073
3 129 75 103 0.200240418415926 0.664669367883825 0.6370873300369073
3 93 260 98 0.200240418415926 0.664669367883825 0.6370873300369073
3 77 227 226 0.200240418415926 0.664669367883825 0.6370873300369073
3 295 364 296 0.200240418415926 0.664669367883825 0.6370873300369073
3 364 365 296 0.200240418415926 0.664669367883825 0.6370873300369073
3 296 365 297 0.200240418415926 0.664669367883825 0.6370873300369073
3 254 296 297 0.200240418415926 0.664669367883825 0.6370873300369073
3 363 364 295 0.200240418415926 0.664669367883825 0.6370873300369073
3 293 53 361 0.200240418415926 0.664669367883825 0.6370873300369073
3 361 362 293 0.200240418415926 0.664669367883825 0.6370873300369073
3 250 53 293 0.200240418415926 0.664669367883825 0.6370873300369073
3 293 251 250 0.200240418415926 0.664669367883825 0.6370873300369073
3 330 390 391 0.200240418415926 0.664669367883825 0.6370873300369073
3 317 130 593 0.200240418415926 0.664669367883825 0.6370873300369073
3 606 130 317 0.200240418415926 0.664669367883825 0.6370873300369073
3 99 260 94 0.200240418415926 0.664669367883825 0.6370873300369073
3 260 372 94 0.200240418415926 0.664669367883825 0.6370873300369073
3 231 386 385 0.200240418415926 0.664669367883825 0.6370873300369073
3 318 608 607 0.200240418415926 0.664669367883825 0.6370873300369073
3 606 317 607 0.200240418415926 0.664669367883825 0.6370873300369073
3 607 317 318 0.200240418415926 0.664669367883825 0.6370873300369073
3 608 231 607 0.200240418415926 0.664669367883825 0.6370873300369073
3 59 88 60 0.200240418415926 0.664669367883825 0.6370873300369073
3 85 460 459 0.200240418415926 0.664669367883825 0.6370873300369073
3 85 57 115 0.200240418415926 0.664669367883825 0.6370873300369073
3 386 387 136 0.200240418415926 0.664669367883825 0.6370873300369073
3 136 135 386 0.200240418415926 0.664669367883825 0.6370873300369073
3 325 135 136 0.200240418415926 0.664669367883825 0.6370873300369073
3 136 387 326 0.200240418415926 0.664669367883825 0.6370873300369073
3 326 325 136 0.200240418415926 0.664669367883825 0.6370873300369073
3 81 227 228 0.200240418415926 0.664669367883825 0.6370873300369073
3 82 229 83 0.200240418415926 0.664669367883825 0.6370873300369073
3 81 228 82 0.200240418415926 0.664669367883825 0.6370873300369073
3 79 229 82 0.200240418415926 0.664669367883825 0.6370873300369073
3 82 228 79 0.200240418415926 0.664669367883825 0.6370873300369073
3 133 323 322 0.200240418415926 0.664669367883825 0.6370873300369073
3 322 132 133 0.200240418415926 0.664669367883825 0.6370873300369073
3 597 378 379 0.200240418415926 0.664669367883825 0.6370873300369073
3 389 611 390 0.200240418415926 0.664669367883825 0.6370873300369073
3 390 329 389 0.200240418415926 0.664669367883825 0.6370873300369073
3 389 329 328 0.200240418415926 0.664669367883825 0.6370873300369073
3 464 378 463 0.200240418415926 0.664669367883825 0.6370873300369073
3 250 251 187 0.200240418415926 0.664669367883825 0.6370873300369073
3 249 476 248 0.200240418415926 0.664669367883825 0.6370873300369073
3 477 476 249 0.200240418415926 0.664669367883825 0.6370873300369073
3 549 548 140 0.200240418415926 0.664669367883825 0.6370873300369073
3 277 244 243 0.200240418415926 0.664669367883825 0.6370873300369073
3 243 276 277 0.200240418415926 0.664669367883825 0.6370873300369073
3 277 276 548 0.200240418415926 0.664669367883825 0.6370873300369073
3 548 549 277 0.200240418415926 0.664669367883825 0.6370873300369073
3 248 247 281 0.200240418415926 0.664669367883825 0.6370873300369073
3 247 280 281 0.200240418415926 0.664669367883825 0.6370873300369073
3 274 329 330 0.200240418415926 0.664669367883825 0.6370873300369073
3 330 555 274 0.200240418415926 0.664669367883825 0.6370873300369073
3 471 193 470 0.200240418415926 0.664669367883825 0.6370873300369073
3 470 244 471 0.200240418415926 0.664669367883825 0.6370873300369073
3 244 245 471 0.200240418415926 0.664669367883825 0.6370873300369073
3 471 245 472 0.200240418415926 0.664669367883825 0.6370873300369073
3 192 469 470 0.200240418415926 0.664669367883825 0.6370873300369073
3 470 193 192 0.200240418415926 0.664669367883825 0.6370873300369073
3 195 472 473 0.200240418415926 0.664669367883825 0.6370873300369073
3 483 200 484 0.200240418415926 0.664669367883825 0.6370873300369073
3 484 146 483 0.200240418415926 0.664669367883825 0.6370873300369073
3 484 147 146 0.200240418415926 0.664669367883825 0.6370873300369073
3 406 405 145 0.200240418415926 0.664669367883825 0.6370873300369073
3 406 145 146 0.200240418415926 0.664669367883825 0.6370873300369073
3 146 407 406 0.200240418415926 0.664669367883825 0.6370873300369073
3 154 336 153 0.200240418415926 0.664669367883825 0.6370873300369073
3 153 407 154 0.200240418415926 0.664669367883825 0.6370873300369073
3 153 406 407 0.200240418415926 0.664669367883825 0.6370873300369073
3 201 484 200 0.200240418415926 0.664669367883825 0.6370873300369073
3 203 204 487 0.200240418415926 0.664669367883825 0.6370873300369073
3 487 486 203 0.200240418415926 0.664669367883825 0.6370873300369073
3 479 402 478 0.200240418415926 0.664669367883825 0.6370873300369073
3 478 283 479 0.200240418415926 0.664669367883825 0.6370873300369073
3 477 249 478 0.200240418415926 0.664669367883825 0.6370873300369073
3 478 249 283 0.200240418415926 0.664669367883825 0.6370873300369073
3 413 572 571 0.200240418415926 0.664669367883825 0.6370873300369073
3 413 491 572 0.200240418415926 0.664669367883825 0.6370873300369073
3 402 491 401 0.200240418415926 0.664669367883825 0.6370873300369073
3 401 478 402 0.200240418415926 0.664669367883825 0.6370873300369073
3 400 477 401 0.200240418415926 0.664669367883825 0.6370873300369073
3 477 478 401 0.200240418415926 0.664669367883825 0.6370873300369073
3 337 336 154 0.200240418415926 0.664669367883825 0.6370873300369073
3 567 336 337 0.200240418415926 0.664669367883825 0.6370873300369073
3 154 408 337 0.200240418415926 0.664669367883825 0.6370873300369073
3 408 338 337 0.200240418415926 0.664669367883825 0.6370873300369073
3 423 422 568 0.200240418415926 0.664669367883825 0.6370873300369073
3 568 422 567 0.200240418415926 0.664669367883825 0.6370873300369073
3 568 569 423 0.200240418415926 0.664669367883825 0.6370873300369073
3 567 337 568 0.200240418415926 0.664669367883825 0.6370873300369073
3 568 337 338 0.200240418415926 0.664669367883825 0.6370873300369073
3 568 339 569 0.200240418415926 0.664669367883825 0.6370873300369073
3 568 338 339 0.200240418415926 0.664669367883825 0.6370873300369073
3 409 408 148 0.200240418415926 0.664669367883825 0.6370873300369073
3 409 338 408 0.200240418415926 0.664669367883825 0.6370873300369073
3 409 148 410 0.200240418415926 0.664669367883825 0.6370873300369073
3 410 339 409 0.200240418415926 0.664669367883825 0.6370873300369073
3 339 338 409 0.200240418415926 0.664669367883825 0.6370873300369073
3 368 299 367 0.200240418415926 0.664669367883825 0.6370873300369073
3 297 365 366 0.200240418415926 0.664669367883825 0.6370873300369073
3 448 284 49 0.200240418415926 0.664669367883825 0.6370873300369073
3 522 182 183 0.200240418415926 0.664669367883825 0.6370873300369073
3 163 417 416 0.200240418415926 0.664669367883825 0.6370873300369073
3 416 417 170 0.200240418415926 0.664669367883825 0.6370873300369073
3 28 155 560 0.200240418415926 0.664669367883825 0.6370873300369073
3 155 561 560 0.200240418415926 0.664669367883825 0.6370873300369073
3 170 417 498 0.200240418415926 0.664669367883825 0.6370873300369073
3 171 417 418 0.200240418415926 0.664669367883825 0.6370873300369073
3 171 498 417 0.200240418415926 0.664669367883825 0.6370873300369073
3 210 498 171 0.200240418415926 0.664669367883825 0.6370873300369073
3 495 206 494 0.200240418415926 0.664669367883825 0.6370873300369073
3 494 205 33 0.200240418415926 0.664669367883825 0.6370873300369073
3 206 205 494 0.200240418415926 0.664669367883825 0.6370873300369073
3 44 43 110 0.200240418415926 0.664669367883825 0.6370873300369073
3 38 37 212 0.200240418415926 0.664669367883825 0.6370873300369073
3 37 425 212 0.200240418415926 0.664669367883825 0.6370873300369073
3 425 426 212 0.200240418415926 0.664669367883825 0.6370873300369073
3 207 206 495 0.200240418415926 0.664669367883825 0.6370873300369073
3 207 427 206 0.200240418415926 0.664669367883825 0.6370873300369073
3 207 428 214 0.200240418415926 0.664669367883825 0.6370873300369073
3 214 427 207 0.200240418415926 0.664669367883825 0.6370873300369073
3 436 173 39 0.200240418415926 0.664669367883825 0.6370873300369073
3 436 39 38 0.200240418415926 0.664669367883825 0.6370873300369073
3 38 212 436 0.200240418415926 0.664669367883825 0.6370873300369073
3 437 427 214 0.200240418415926 0.664669367883825 0.6370873300369073
3 214 174 437 0.200240418415926 0.664669367883825 0.6370873300369073
3 437 174 173 0.200240418415926 0.664669367883825 0.6370873300369073
3 173 436 437 0.200240418415926 0.664669367883825 0.6370873300369073
3 213 426 206 0.200240418415926 0.664669367883825 0.6370873300369073
3 206 427 213 0.200240418415926 0.664669367883825 0.6370873300369073
3 213 212 426 0.200240418415926 0.664669367883825 0.6370873300369073
3 213 436 212 0.200240418415926 0.664669367883825 0.6370873300369073
3 427 437 213 0.200240418415926 0.664669367883825 0.6370873300369073
3 213 437 436 0.200240418415926 0.664669367883825 0.6370873300369073
3 214 428 438 0.200240418415926 0.664669367883825 0.6370873300369073
3 438 174 214 0.200240418415926 0.664669367883825 0.6370873300369073
3 438 428 215 0.200240418415926 0.664669367883825 0.6370873300369073
3 342 174 438 0.200240418415926 0.664669367883825 0.6370873300369073
3 40 173 341 0.200240418415926 0.664669367883825 0.6370873300369073
3 173 174 341 0.200240418415926 0.664669367883825 0.6370873300369073
3 341 41 40 0.200240418415926 0.664669367883825 0.6370873300369073
3 341 342 41 0.200240418415926 0.664669367883825 0.6370873300369073
3 341 174 342 0.200240418415926 0.664669367883825 0.6370873300369073
3 13 234 14 0.200240418415926 0.664669367883825 0.6370873300369073
3 234 137 14 0.200240418415926 0.664669367883825 0.6370873300369073
3 14 137 15 0.200240418415926 0.664669367883825 0.6370873300369073
3 547 139 548 0.200240418415926 0.664669367883825 0.6370873300369073
3 547 276 275 0.200240418415926 0.664669367883825 0.6370873300369073
3 548 276 547 0.200240418415926 0.664669367883825 0.6370873300369073
3 238 270 271 0.200240418415926 0.664669367883825 0.6370873300369073
3 272 239 271 0.200240418415926 0.664669367883825 0.6370873300369073
3 271 239 238 0.200240418415926 0.664669367883825 0.6370873300369073
3 271 327 272 0.200240418415926 0.664669367883825 0.6370873300369073
3 326 327 271 0.200240418415926 0.664669367883825 0.6370873300369073
3 271 270 326 0.200240418415926 0.664669367883825 0.6370873300369073
3 237 270 238 0.200240418415926 0.664669367883825 0.6370873300369073
3 237 238 140 0.200240418415926 0.664669367883825 0.6370873300369073
3 269 270 237 0.200240418415926 0.664669367883825 0.6370873300369073
3 237 236 269 0.200240418415926 0.664669367883825 0.6370873300369073
3 140 139 237 0.200240418415926 0.664669367883825 0.6370873300369073
3 139 236 237 0.200240418415926 0.664669367883825 0.6370873300369073
3 138 236 139 0.200240418415926 0.664669367883825 0.6370873300369073
3 139 547 138 0.200240418415926 0.664669367883825 0.6370873300369073
3 138 137 235 0.200240418415926 0.664669367883825 0.6370873300369073
3 235 236 138 0.200240418415926 0.664669367883825 0.6370873300369073
3 120 312 125 0.200240418415926 0.664669367883825 0.6370873300369073
3 120 302 66 0.200240418415926 0.664669367883825 0.6370873300369073
3 120 125 302 0.200240418415926 0.664669367883825 0.6370873300369073
3 66 65 120 0.200240418415926 0.664669367883825 0.6370873300369073
3 588 120 65 0.200240418415926 0.664669367883825 0.6370873300369073
3 312 120 588 0.200240418415926 0.664669367883825 0.6370873300369073
3 74 77 603 0.200240418415926 0.664669367883825 0.6370873300369073
3 226 76 603 0.200240418415926 0.664669367883825 0.6370873300369073
3 603 77 226 0.200240418415926 0.664669367883825 0.6370873300369073
3 88 89 70 0.200240418415926 0.664669367883825 0.6370873300369073
3 373 94 70 0.200240418415926 0.664669367883825 0.6370873300369073
3 70 94 372 0.200240418415926 0.664669367883825 0.6370873300369073
3 104 75 129 0.200240418415926 0.664669367883825 0.6370873300369073
3 104 129 307 0.200240418415926 0.664669367883825 0.6370873300369073
3 307 130 104 0.200240418415926 0.664669367883825 0.6370873300369073
3 104 130 606 0.200240418415926 0.664669367883825 0.6370873300369073
3 64 588 65 0.200240418415926 0.664669367883825 0.6370873300369073
3 63 62 92 0.200240418415926 0.664669367883825 0.6370873300369073
3 129 103 315 0.200240418415926 0.664669367883825 0.6370873300369073
3 590 98 123 0.200240418415926 0.664669367883825 0.6370873300369073
3 123 305 590 0.200240418415926 0.664669367883825 0.6370873300369073
3 591 260 99 0.200240418415926 0.664669367883825 0.6370873300369073
3 591 98 260 0.200240418415926 0.664669367883825 0.6370873300369073
3 123 98 591 0.200240418415926 0.664669367883825 0.6370873300369073
3 591 315 123 0.200240418415926 0.664669367883825 0.6370873300369073
3 69 61 60 0.200240418415926 0.664669367883825 0.6370873300369073
3 60 88 69 0.200240418415926 0.664669367883825 0.6370873300369073
3 88 70 69 0.200240418415926 0.664669367883825 0.6370873300369073
3 69 70 372 0.200240418415926 0.664669367883825 0.6370873300369073
3 92 62 371 0.200240418415926 0.664669367883825 0.6370873300369073
3 62 61 371 0.200240418415926 0.664669367883825 0.6370873300369073
3 61 69 371 0.200240418415926 0.664669367883825 0.6370873300369073
3 371 372 93 0.200240418415926 0.664669367883825 0.6370873300369073
3 371 69 372 0.200240418415926 0.664669367883825 0.6370873300369073
3 227 77 604 0.200240418415926 0.664669367883825 0.6370873300369073
3 604 77 74 0.200240418415926 0.664669367883825 0.6370873300369073
3 74 103 604 0.200240418415926 0.664669367883825 0.6370873300369073
3 604 103 75 0.200240418415926 0.664669367883825 0.6370873300369073
3 294 293 362 0.200240418415926 0.664669367883825 0.6370873300369073
3 294 363 295 0.200240418415926 0.664669367883825 0.6370873300369073
3 362 363 294 0.200240418415926 0.664669367883825 0.6370873300369073
3 251 293 294 0.200240418415926 0.664669367883825 0.6370873300369073
3 369 583 370 0.200240418415926 0.664669367883825 0.6370873300369073
3 318 317 594 0.200240418415926 0.664669367883825 0.6370873300369073
3 263 264 594 0.200240418415926 0.664669367883825 0.6370873300369073
3 593 263 594 0.200240418415926 0.664669367883825 0.6370873300369073
3 594 317 593 0.200240418415926 0.664669367883825 0.6370873300369073
3 593 592 261 0.200240418415926 0.664669367883825 0.6370873300369073
3 261 592 99 0.200240418415926 0.664669367883825 0.6370873300369073
3 99 94 261 0.200240418415926 0.664669367883825 0.6370873300369073
3 261 94 373 0.200240418415926 0.664669367883825 0.6370873300369073
3 373 95 261 0.200240418415926 0.664669367883825 0.6370873300369073
3 262 95 374 0.200240418415926 0.664669367883825 0.6370873300369073
3 262 263 593 0.200240418415926 0.664669367883825 0.6370873300369073
3 262 374 263 0.200240418415926 0.664669367883825 0.6370873300369073
3 593 261 262 0.200240418415926 0.664669367883825 0.6370873300369073
3 262 261 95 0.200240418415926 0.664669367883825 0.6370873300369073
3 386 231 232 0.200240418415926 0.664669367883825 0.6370873300369073
3 232 387 386 0.200240418415926 0.664669367883825 0.6370873300369073
3 232 608 609 0.200240418415926 0.664669367883825 0.6370873300369073
3 232 231 608 0.200240418415926 0.664669367883825 0.6370873300369073
3 230 231 385 0.200240418415926 0.664669367883825 0.6370873300369073
3 230 607 231 0.200240418415926 0.664669367883825 0.6370873300369073
3 83 229 230 0.200240418415926 0.664669367883825 0.6370873300369073
3 230 229 606 0.200240418415926 0.664669367883825 0.6370873300369073
3 606 607 230 0.200240418415926 0.664669367883825 0.6370873300369073
3 86 460 85 0.200240418415926 0.664669367883825 0.6370873300369073
3 85 115 86 0.200240418415926 0.664669367883825 0.6370873300369073
3 84 57 85 0.200240418415926 0.664669367883825 0.6370873300369073
3 85 459 84 0.200240418415926 0.664669367883825 0.6370873300369073
3 58 57 84 0.200240418415926 0.664669367883825 0.6370873300369073
3 84 459 58 0.200240418415926 0.664669367883825 0.6370873300369073
3 71 95 373 0.200240418415926 0.664669367883825 0.6370873300369073
3 374 95 71 0.200240418415926 0.664669367883825 0.6370873300369073
3 373 70 71 0.200240418415926 0.664669367883825 0.6370873300369073
3 71 70 89 0.200240418415926 0.664669367883825 0.6370873300369073
3 88 59 458 0.200240418415926 0.664669367883825 0.6370873300369073
3 458 89 88 0.200240418415926 0.664669367883825 0.6370873300369073
3 458 59 58 0.200240418415926 0.664669367883825 0.6370873300369073
3 58 459 458 0.200240418415926 0.664669367883825 0.6370873300369073
3 459 89 458 0.200240418415926 0.664669367883825 0.6370873300369073
3 56 115 57 0.200240418415926 0.664669367883825 0.6370873300369073
3 56 55 533 0.200240418415926 0.664669367883825 0.6370873300369073
3 383 82 83 0.200240418415926 0.664669367883825 0.6370873300369073
3 383 133 132 0.200240418415926 0.664669367883825 0.6370873300369073
3 384 230 385 0.200240418415926 0.664669367883825 0.6370873300369073
3 83 230 384 0.200240418415926 0.664669367883825 0.6370873300369073
3 384 383 83 0.200240418415926 0.664669367883825 0.6370873300369073
3 133 383 384 0.200240418415926 0.664669367883825 0.6370873300369073
3 609 610 233 0.200240418415926 0.664669367883825 0.6370873300369073
3 233 232 609 0.200240418415926 0.664669367883825 0.6370873300369073
3 387 232 233 0.200240418415926 0.664669367883825 0.6370873300369073
3 611 597 598 0.200240418415926 0.664669367883825 0.6370873300369073
3 598 597 379 0.200240418415926 0.664669367883825 0.6370873300369073
3 611 610 320 0.200240418415926 0.664669367883825 0.6370873300369073
3 320 597 611 0.200240418415926 0.664669367883825 0.6370873300369073
3 320 610 609 0.200240418415926 0.664669367883825 0.6370873300369073
3 596 378 320 0.200240418415926 0.664669367883825 0.6370873300369073
3 378 597 320 0.200240418415926 0.664669367883825 0.6370873300369073
3 609 310 320 0.200240418415926 0.664669367883825 0.6370873300369073
3 320 310 596 0.200240418415926 0.664669367883825 0.6370873300369073
3 388 610 611 0.200240418415926 0.664669367883825 0.6370873300369073
3 611 389 388 0.200240418415926 0.664669367883825 0.6370873300369073
3 388 233 610 0.200240418415926 0.664669367883825 0.6370873300369073
3 387 233 388 0.200240418415926 0.664669367883825 0.6370873300369073
3 388 327 387 0.200240418415926 0.664669367883825 0.6370873300369073
3 328 327 388 0.200240418415926 0.664669367883825 0.6370873300369073
3 388 389 328 0.200240418415926 0.664669367883825 0.6370873300369073
3 265 310 595 0.200240418415926 0.664669367883825 0.6370873300369073
3 595 264 265 0.200240418415926 0.664669367883825 0.6370873300369073
3 595 310 318 0.200240418415926 0.664669367883825 0.6370873300369073
3 318 594 595 0.200240418415926 0.664669367883825 0.6370873300369073
3 595 594 264 0.200240418415926 0.664669367883825 0.6370873300369073
3 376 263 375 0.200240418415926 0.664669367883825 0.6370873300369073
3 376 264 263 0.200240418415926 0.664669367883825 0.6370873300369073
3 540 467 466 0.200240418415926 0.664669367883825 0.6370873300369073
3 466 539 540 0.200240418415926 0.664669367883825 0.6370873300369073
3 465 539 466 0.200240418415926 0.664669367883825 0.6370873300369073
3 541 467 540 0.200240418415926 0.664669367883825 0.6370873300369073
3 540 256 541 0.200240418415926 0.664669367883825 0.6370873300369073
3 599 467 468 0.200240418415926 0.664669367883825 0.6370873300369073
3 467 541 468 0.200240418415926 0.664669367883825 0.6370873300369073
3 250 187 186 0.200240418415926 0.664669367883825 0.6370873300369073
3 186 54 250 0.200240418415926 0.664669367883825 0.6370873300369073
3 186 185 54 0.200240418415926 0.664669367883825 0.6370873300369073
3 252 294 295 0.200240418415926 0.664669367883825 0.6370873300369073
3 251 294 252 0.200240418415926 0.664669367883825 0.6370873300369073
3 253 252 295 0.200240418415926 0.664669367883825 0.6370873300369073
3 295 296 253 0.200240418415926 0.664669367883825 0.6370873300369073
3 296 254 253 0.200240418415926 0.664669367883825 0.6370873300369073
3 119 537 464 0.200240418415926 0.664669367883825 0.6370873300369073
3 464 463 119 0.200240418415926 0.664669367883825 0.6370873300369073
3 463 118 119 0.200240418415926 0.664669367883825 0.6370873300369073
3 553 241 554 0.200240418415926 0.664669367883825 0.6370873300369073
3 554 283 553 0.200240418415926 0.664669367883825 0.6370873300369073
3 554 555 283 0.200240418415926 0.664669367883825 0.6370873300369073
3 241 274 554 0.200240418415926 0.664669367883825 0.6370873300369073
3 554 274 555 0.200240418415926 0.664669367883825 0.6370873300369073
3 556 555 330 0.200240418415926 0.664669367883825 0.6370873300369073
3 330 391 556 0.200240418415926 0.664669367883825 0.6370873300369073
3 556 557 479 0.200240418415926 0.664669367883825 0.6370873300369073
3 556 614 557 0.200240418415926 0.664669367883825 0.6370873300369073
3 391 614 556 0.200240418415926 0.664669367883825 0.6370873300369073
3 479 283 556 0.200240418415926 0.664669367883825 0.6370873300369073
3 283 555 556 0.200240418415926 0.664669367883825 0.6370873300369073
3 240 239 272 0.200240418415926 0.664669367883825 0.6370873300369073
3 140 238 141 0.200240418415926 0.664669367883825 0.6370873300369073
3 238 239 141 0.200240418415926 0.664669367883825 0.6370873300369073
3 141 549 140 0.200240418415926 0.664669367883825 0.6370873300369073
3 278 277 549 0.200240418415926 0.664669367883825 0.6370873300369073
3 278 245 244 0.200240418415926 0.664669367883825 0.6370873300369073
3 244 277 278 0.200240418415926 0.664669367883825 0.6370873300369073
3 553 283 282 0.200240418415926 0.664669367883825 0.6370873300369073
3 283 249 282 0.200240418415926 0.664669367883825 0.6370873300369073
3 282 249 248 0.200240418415926 0.664669367883825 0.6370873300369073
3 248 281 282 0.200240418415926 0.664669367883825 0.6370873300369073
3 328 329 273 0.200240418415926 0.664669367883825 0.6370873300369073
3 329 274 273 0.200240418415926 0.664669367883825 0.6370873300369073
3 272 328 273 0.200240418415926 0.664669367883825 0.6370873300369073
3 273 240 272 0.200240418415926 0.664669367883825 0.6370873300369073
3 273 274 241 0.200240418415926 0.664669367883825 0.6370873300369073
3 241 240 273 0.200240418415926 0.664669367883825 0.6370873300369073
3 19 469 191 0.200240418415926 0.664669367883825 0.6370873300369073
3 469 192 191 0.200240418415926 0.664669367883825 0.6370873300369073
3 394 193 395 0.200240418415926 0.664669367883825 0.6370873300369073
3 394 192 193 0.200240418415926 0.664669367883825 0.6370873300369073
3 395 201 394 0.200240418415926 0.664669367883825 0.6370873300369073
3 394 201 200 0.200240418415926 0.664669367883825 0.6370873300369073
3 472 195 194 0.200240418415926 0.664669367883825 0.6370873300369073
3 194 471 472 0.200240418415926 0.664669367883825 0.6370873300369073
3 193 471 194 0.200240418415926 0.664669367883825 0.6370873300369073
3 395 193 194 0.200240418415926 0.664669367883825 0.6370873300369073
3 473 474 196 0.200240418415926 0.664669367883825 0.6370873300369073
3 196 195 473 0.200240418415926 0.664669367883825 0.6370873300369073
3 196 474 197 0.200240418415926 0.664669367883825 0.6370873300369073
3 25 403 150 0.200240418415926 0.664669367883825 0.6370873300369073
3 150 403 404 0.200240418415926 0.664669367883825 0.6370873300369073
3 149 331 26 0.200240418415926 0.664669367883825 0.6370873300369073
3 149 332 331 0.200240418415926 0.664669367883825 0.6370873300369073
3 26 25 149 0.200240418415926 0.664669367883825 0.6370873300369073
3 25 150 149 0.200240418415926 0.664669367883825 0.6370873300369073
3 149 150 332 0.200240418415926 0.664669367883825 0.6370873300369073
3 331 332 156 0.200240418415926 0.664669367883825 0.6370873300369073
3 155 331 156 0.200240418415926 0.664669367883825 0.6370873300369073
3 562 561 156 0.200240418415926 0.664669367883825 0.6370873300369073
3 156 561 155 0.200240418415926 0.664669367883825 0.6370873300369073
3 164 562 563 0.200240418415926 0.664669367883825 0.6370873300369073
3 566 567 421 0.200240418415926 0.664669367883825 0.6370873300369073
3 566 336 567 0.200240418415926 0.664669367883825 0.6370873300369073
3 566 160 336 0.200240418415926 0.664669367883825 0.6370873300369073
3 484 201 485 0.200240418415926 0.664669367883825 0.6370873300369073
3 485 486 148 0.200240418415926 0.664669367883825 0.6370873300369073
3 148 147 485 0.200240418415926 0.664669367883825 0.6370873300369073
3 147 484 485 0.200240418415926 0.664669367883825 0.6370873300369073
3 399 204 398 0.200240418415926 0.664669367883825 0.6370873300369073
3 398 197 399 0.200240418415926 0.664669367883825 0.6370873300369073
3 398 196 197 0.200240418415926 0.664669367883825 0.6370873300369073
3 202 203 486 0.200240418415926 0.664669367883825 0.6370873300369073
3 486 485 202 0.200240418415926 0.664669367883825 0.6370873300369073
3 202 485 201 0.200240418415926 0.664669367883825 0.6370873300369073
3 202 201 395 0.200240418415926 0.664669367883825 0.6370873300369073
3 489 411 488 0.200240418415926 0.664669367883825 0.6370873300369073
3 399 400 489 0.200240418415926 0.664669367883825 0.6370873300369073
3 488 204 489 0.200240418415926 0.664669367883825 0.6370873300369073
3 489 204 399 0.200240418415926 0.664669367883825 0.6370873300369073
3 571 570 412 0.200240418415926 0.664669367883825 0.6370873300369073
3 412 413 571 0.200240418415926 0.664669367883825 0.6370873300369073
3 412 570 340 0.200240418415926 0.664669367883825 0.6370873300369073
3 340 411 412 0.200240418415926 0.664669367883825 0.6370873300369073
3 411 489 412 0.200240418415926 0.664669367883825 0.6370873300369073
3 367 366 581 0.200240418415926 0.664669367883825 0.6370873300369073
3 581 368 367 0.200240418415926 0.664669367883825 0.6370873300369073
3 579 365 364 0.200240418415926 0.664669367883825 0.6370873300369073
3 529 517 518 0.200240418415926 0.664669367883825 0.6370873300369073
3 504 435 423 0.200240418415926 0.664669367883825 0.6370873300369073
3 423 569 504 0.200240418415926 0.664669367883825 0.6370873300369073
3 569 424 504 0.200240418415926 0.664669367883825 0.6370873300369073
3 571 506 505 0.200240418415926 0.664669367883825 0.6370873300369073
3 505 570 571 0.200240418415926 0.664669367883825 0.6370873300369073
3 506 518 505 0.200240418415926 0.664669367883825 0.6370873300369073
3 505 518 517 0.200240418415926 0.664669367883825 0.6370873300369073
3 424 570 505 0.200240418415926 0.664669367883825 0.6370873300369073
3 420 419 166 0.200240418415926 0.664669367883825 0.6370873300369073
3 48 47 219 0.200240418415926 0.664669367883825 0.6370873300369073
3 520 47 46 0.200240418415926 0.664669367883825 0.6370873300369073
3 46 180 520 0.200240418415926 0.664669367883825 0.6370873300369073
3 356 183 355 0.200240418415926 0.664669367883825 0.6370873300369073
3 355 183 182 0.200240418415926 0.664669367883825 0.6370873300369073
3 181 355 182 0.200240418415926 0.664669367883825 0.6370873300369073
3 181 520 180 0.200240418415926 0.664669367883825 0.6370873300369073
3 503 502 422 0.200240418415926 0.664669367883825 0.6370873300369073
3 503 422 423 0.200240418415926 0.664669367883825 0.6370873300369073
3 423 435 503 0.200240418415926 0.664669367883825 0.6370873300369073
3 447 49 48 0.200240418415926 0.664669367883825 0.6370873300369073
3 447 448 49 0.200240418415926 0.664669367883825 0.6370873300369073
3 448 447 221 0.200240418415926 0.664669367883825 0.6370873300369073
3 162 561 163 0.200240418415926 0.664669367883825 0.6370873300369073
3 162 560 561 0.200240418415926 0.664669367883825 0.6370873300369073
3 163 416 162 0.200240418415926 0.664669367883825 0.6370873300369073
3 161 560 162 0.200240418415926 0.664669367883825 0.6370873300369073
3 162 415 161 0.200240418415926 0.664669367883825 0.6370873300369073
3 162 416 415 0.200240418415926 0.664669367883825 0.6370873300369073
3 161 30 29 0.200240418415926 0.664669367883825 0.6370873300369073
3 28 560 29 0.200240418415926 0.664669367883825 0.6370873300369073
3 29 560 161 0.200240418415926 0.664669367883825 0.6370873300369073
3 161 415 414 0.200240418415926 0.664669367883825 0.6370873300369073
3 414 30 161 0.200240418415926 0.664669367883825 0.6370873300369073
3 31 30 414 0.200240418415926 0.664669367883825 0.6370873300369073
3 32 494 33 0.200240418415926 0.664669367883825 0.6370873300369073
3 429 439 215 0.200240418415926 0.664669367883825 0.6370873300369073
3 216 439 429 0.200240418415926 0.664669367883825 0.6370873300369073
3 44 110 111 0.200240418415926 0.664669367883825 0.6370873300369073
3 507 43 42 0.200240418415926 0.664669367883825 0.6370873300369073
3 168 414 415 0.200240418415926 0.664669367883825 0.6370873300369073
3 15 137 546 0.200240418415926 0.664669367883825 0.6370873300369073
3 546 547 275 0.200240418415926 0.664669367883825 0.6370873300369073
3 137 138 546 0.200240418415926 0.664669367883825 0.6370873300369073
3 546 138 547 0.200240418415926 0.664669367883825 0.6370873300369073
3 17 15 546 0.200240418415926 0.664669367883825 0.6370873300369073
3 546 275 17 0.200240418415926 0.664669367883825 0.6370873300369073
3 100 312 126 0.200240418415926 0.664669367883825 0.6370873300369073
3 72 100 126 0.200240418415926 0.664669367883825 0.6370873300369073
3 126 101 72 0.200240418415926 0.664669367883825 0.6370873300369073
3 72 101 602 0.200240418415926 0.664669367883825 0.6370873300369073
3 6 72 602 0.200240418415926 0.664669367883825 0.6370873300369073
3 602 7 6 0.200240418415926 0.664669367883825 0.6370873300369073
3 602 76 7 0.200240418415926 0.664669367883825 0.6370873300369073
3 101 127 73 0.200240418415926 0.664669367883825 0.6370873300369073
3 73 602 101 0.200240418415926 0.664669367883825 0.6370873300369073
3 73 603 76 0.200240418415926 0.664669367883825 0.6370873300369073
3 76 602 73 0.200240418415926 0.664669367883825 0.6370873300369073
3 92 97 258 0.200240418415926 0.664669367883825 0.6370873300369073
3 258 63 92 0.200240418415926 0.664669367883825 0.6370873300369073
3 258 97 589 0.200240418415926 0.664669367883825 0.6370873300369073
3 127 305 102 0.200240418415926 0.664669367883825 0.6370873300369073
3 102 73 127 0.200240418415926 0.664669367883825 0.6370873300369073
3 74 603 102 0.200240418415926 0.664669367883825 0.6370873300369073
3 603 73 102 0.200240418415926 0.664669367883825 0.6370873300369073
3 589 97 122 0.200240418415926 0.664669367883825 0.6370873300369073
3 122 305 127 0.200240418415926 0.664669367883825 0.6370873300369073
3 97 590 122 0.200240418415926 0.664669367883825 0.6370873300369073
3 122 590 305 0.200240418415926 0.664669367883825 0.6370873300369073
3 98 590 259 0.200240418415926 0.664669367883825 0.6370873300369073
3 93 98 259 0.200240418415926 0.664669367883825 0.6370873300369073
3 259 97 92 0.200240418415926 0.664669367883825 0.6370873300369073
3 259 590 97 0.200240418415926 0.664669367883825 0.6370873300369073
3 92 371 259 0.200240418415926 0.664669367883825 0.6370873300369073
3 259 371 93 0.200240418415926 0.664669367883825 0.6370873300369073
3 124 591 99 0.200240418415926 0.664669367883825 0.6370873300369073
3 99 592 124 0.200240418415926 0.664669367883825 0.6370873300369073
3 124 592 307 0.200240418415926 0.664669367883825 0.6370873300369073
3 307 129 124 0.200240418415926 0.664669367883825 0.6370873300369073
3 129 315 124 0.200240418415926 0.664669367883825 0.6370873300369073
3 315 591 124 0.200240418415926 0.664669367883825 0.6370873300369073
3 78 228 227 0.200240418415926 0.664669367883825 0.6370873300369073
3 227 604 78 0.200240418415926 0.664669367883825 0.6370873300369073
3 78 604 75 0.200240418415926 0.664669367883825 0.6370873300369073
3 369 370 301 0.200240418415926 0.664669367883825 0.6370873300369073
3 255 254 297 0.200240418415926 0.664669367883825 0.6370873300369073
3 613 614 391 0.200240418415926 0.664669367883825 0.6370873300369073
3 557 614 558 0.200240418415926 0.664669367883825 0.6370873300369073
3 480 557 558 0.200240418415926 0.664669367883825 0.6370873300369073
3 87 463 462 0.200240418415926 0.664669367883825 0.6370873300369073
3 87 118 463 0.200240418415926 0.664669367883825 0.6370873300369073
3 116 86 115 0.200240418415926 0.664669367883825 0.6370873300369073
3 116 56 533 0.200240418415926 0.664669367883825 0.6370873300369073
3 115 56 116 0.200240418415926 0.664669367883825 0.6370873300369073
3 90 89 459 0.200240418415926 0.664669367883825 0.6370873300369073
3 90 71 89 0.200240418415926 0.664669367883825 0.6370873300369073
3 374 71 90 0.200240418415926 0.664669367883825 0.6370873300369073
3 375 374 90 0.200240418415926 0.664669367883825 0.6370873300369073
3 90 459 460 0.200240418415926 0.664669367883825 0.6370873300369073
3 82 383 382 0.200240418415926 0.664669367883825 0.6370873300369073
3 131 381 382 0.200240418415926 0.664669367883825 0.6370873300369073
3 382 132 131 0.200240418415926 0.664669367883825 0.6370873300369073
3 382 383 132 0.200240418415926 0.664669367883825 0.6370873300369073
3 382 381 81 0.200240418415926 0.664669367883825 0.6370873300369073
3 81 82 382 0.200240418415926 0.664669367883825 0.6370873300369073
3 134 384 385 0.200240418415926 0.664669367883825 0.6370873300369073
3 133 384 134 0.200240418415926 0.664669367883825 0.6370873300369073
3 385 135 134 0.200240418415926 0.664669367883825 0.6370873300369073
3 323 133 134 0.200240418415926 0.664669367883825 0.6370873300369073
3 324 323 134 0.200240418415926 0.664669367883825 0.6370873300369073
3 134 135 324 0.200240418415926 0.664669367883825 0.6370873300369073
3 390 611 612 0.200240418415926 0.664669367883825 0.6370873300369073
3 611 598 612 0.200240418415926 0.664669367883825 0.6370873300369073
3 612 391 390 0.200240418415926 0.664669367883825 0.6370873300369073
3 612 613 391 0.200240418415926 0.664669367883825 0.6370873300369073
3 612 598 599 0.200240418415926 0.664669367883825 0.6370873300369073
3 599 613 612 0.200240418415926 0.664669367883825 0.6370873300369073
3 91 376 375 0.200240418415926 0.664669367883825 0.6370873300369073
3 375 90 91 0.200240418415926 0.664669367883825 0.6370873300369073
3 91 90 460 0.200240418415926 0.664669367883825 0.6370873300369073
3 265 264 377 0.200240418415926 0.664669367883825 0.6370873300369073
3 264 376 377 0.200240418415926 0.664669367883825 0.6370873300369073
3 377 376 462 0.200240418415926 0.664669367883825 0.6370873300369073
3 462 463 377 0.200240418415926 0.664669367883825 0.6370873300369073
3 377 378 265 0.200240418415926 0.664669367883825 0.6370873300369073
3 377 463 378 0.200240418415926 0.664669367883825 0.6370873300369073
3 380 466 467 0.200240418415926 0.664669367883825 0.6370873300369073
3 380 467 599 0.200240418415926 0.664669367883825 0.6370873300369073
3 599 598 380 0.200240418415926 0.664669367883825 0.6370873300369073
3 380 598 379 0.200240418415926 0.664669367883825 0.6370873300369073
3 379 465 380 0.200240418415926 0.664669367883825 0.6370873300369073
3 465 466 380 0.200240418415926 0.664669367883825 0.6370873300369073
3 600 468 543 0.200240418415926 0.664669367883825 0.6370873300369073
3 599 468 600 0.200240418415926 0.664669367883825 0.6370873300369073
3 600 613 599 0.200240418415926 0.664669367883825 0.6370873300369073
3 614 613 600 0.200240418415926 0.664669367883825 0.6370873300369073
3 543 468 542 0.200240418415926 0.664669367883825 0.6370873300369073
3 542 468 541 0.200240418415926 0.664669367883825 0.6370873300369073
3 535 534 185 0.200240418415926 0.664669367883825 0.6370873300369073
3 185 186 535 0.200240418415926 0.664669367883825 0.6370873300369073
3 535 118 534 0.200240418415926 0.664669367883825 0.6370873300369073
3 189 253 254 0.200240418415926 0.664669367883825 0.6370873300369073
3 142 240 241 0.200240418415926 0.664669367883825 0.6370873300369073
3 239 240 142 0.200240418415926 0.664669367883825 0.6370873300369073
3 142 141 239 0.200240418415926 0.664669367883825 0.6370873300369073
3 279 280 246 0.200240418415926 0.664669367883825 0.6370873300369073
3 246 245 279 0.200240418415926 0.664669367883825 0.6370873300369073
3 245 278 279 0.200240418415926 0.664669367883825 0.6370873300369073
3 19 191 20 0.200240418415926 0.664669367883825 0.6370873300369073
3 21 20 392 0.200240418415926 0.664669367883825 0.6370873300369073
3 392 20 191 0.200240418415926 0.664669367883825 0.6370873300369073
3 199 198 392 0.200240418415926 0.664669367883825 0.6370873300369073
3 198 21 392 0.200240418415926 0.664669367883825 0.6370873300369073
3 165 418 164 0.200240418415926 0.664669367883825 0.6370873300369073
3 164 563 165 0.200240418415926 0.664669367883825 0.6370873300369073
3 418 165 172 0.200240418415926 0.664669367883825 0.6370873300369073
3 172 165 419 0.200240418415926 0.664669367883825 0.6370873300369073
3 395 194 396 0.200240418415926 0.664669367883825 0.6370873300369073
3 396 194 195 0.200240418415926 0.664669367883825 0.6370873300369073
3 396 202 395 0.200240418415926 0.664669367883825 0.6370873300369073
3 203 202 396 0.200240418415926 0.664669367883825 0.6370873300369073
3 195 196 397 0.200240418415926 0.664669367883825 0.6370873300369073
3 196 398 397 0.200240418415926 0.664669367883825 0.6370873300369073
3 397 396 195 0.200240418415926 0.664669367883825 0.6370873300369073
3 397 398 204 0.200240418415926 0.664669367883825 0.6370873300369073
3 204 203 397 0.200240418415926 0.664669367883825 0.6370873300369073
3 203 396 397 0.200240418415926 0.664669367883825 0.6370873300369073
3 491 413 490 0.200240418415926 0.664669367883825 0.6370873300369073
3 490 489 400 0.200240418415926 0.664669367883825 0.6370873300369073
3 413 412 490 0.200240418415926 0.664669367883825 0.6370873300369073
3 490 412 489 0.200240418415926 0.664669367883825 0.6370873300369073
3 400 401 490 0.200240418415926 0.664669367883825 0.6370873300369073
3 490 401 491 0.200240418415926 0.664669367883825 0.6370873300369073
3 531 532 457 0.200240418415926 0.664669367883825 0.6370873300369073
3 292 581 291 0.200240418415926 0.664669367883825 0.6370873300369073
3 292 457 583 0.200240418415926 0.664669367883825 0.6370873300369073
3 292 291 455 0.200240418415926 0.664669367883825 0.6370873300369073
3 368 581 582 0.200240418415926 0.664669367883825 0.6370873300369073
3 582 583 369 0.200240418415926 0.664669367883825 0.6370873300369073
3 369 368 582 0.200240418415926 0.664669367883825 0.6370873300369073
3 582 292 583 0.200240418415926 0.664669367883825 0.6370873300369073
3 581 292 582 0.200240418415926 0.664669367883825 0.6370873300369073
3 361 52 575 0.200240418415926 0.664669367883825 0.6370873300369073
3 577 363 362 0.200240418415926 0.664669367883825 0.6370873300369073
3 290 579 289 0.200240418415926 0.664669367883825 0.6370873300369073
3 580 366 365 0.200240418415926 0.664669367883825 0.6370873300369073
3 365 579 580 0.200240418415926 0.664669367883825 0.6370873300369073
3 580 581 366 0.200240418415926 0.664669367883825 0.6370873300369073
3 291 581 580 0.200240418415926 0.664669367883825 0.6370873300369073
3 580 290 291 0.200240418415926 0.664669367883825 0.6370873300369073
3 579 290 580 0.200240418415926 0.664669367883825 0.6370873300369073
3 529 518 530 0.200240418415926 0.664669367883825 0.6370873300369073
3 530 455 529 0.200240418415926 0.664669367883825 0.6370873300369073
3 531 457 530 0.200240418415926 0.664669367883825 0.6370873300369073
3 519 518 506 0.200240418415926 0.664669367883825 0.6370873300369073
3 519 506 572 0.200240418415926 0.664669367883825 0.6370873300369073
3 531 530 519 0.200240418415926 0.664669367883825 0.6370873300369073
3 519 530 518 0.200240418415926 0.664669367883825 0.6370873300369073
3 519 532 531 0.200240418415926 0.664669367883825 0.6370873300369073
3 519 572 573 0.200240418415926 0.664669367883825 0.6370873300369073
3 573 532 519 0.200240418415926 0.664669367883825 0.6370873300369073
3 585 457 532 0.200240418415926 0.664669367883825 0.6370873300369073
3 179 45 352 0.200240418415926 0.664669367883825 0.6370873300369073
3 179 180 46 0.200240418415926 0.664669367883825 0.6370873300369073
3 46 45 179 0.200240418415926 0.664669367883825 0.6370873300369073
3 443 348 347 0.200240418415926 0.664669367883825 0.6370873300369073
3 353 179 352 0.200240418415926 0.664669367883825 0.6370873300369073
3 180 179 353 0.200240418415926 0.664669367883825 0.6370873300369073
3 444 348 443 0.200240418415926 0.664669367883825 0.6370873300369073
3 349 348 444 0.200240418415926 0.664669367883825 0.6370873300369073
3 502 444 433 0.200240418415926 0.664669367883825 0.6370873300369073
3 433 444 443 0.200240418415926 0.664669367883825 0.6370873300369073
3 356 355 513 0.200240418415926 0.664669367883825 0.6370873300369073
3 513 514 356 0.200240418415926 0.664669367883825 0.6370873300369073
3 513 348 349 0.200240418415926 0.664669367883825 0.6370873300369073
3 349 514 513 0.200240418415926 0.664669367883825 0.6370873300369073
3 520 181 521 0.200240418415926 0.664669367883825 0.6370873300369073
3 47 520 521 0.200240418415926 0.664669367883825 0.6370873300369073
3 521 182 522 0.200240418415926 0.664669367883825 0.6370873300369073
3 521 181 182 0.200240418415926 0.664669367883825 0.6370873300369073
3 522 219 521 0.200240418415926 0.664669367883825 0.6370873300369073
3 521 219 47 0.200240418415926 0.664669367883825 0.6370873300369073
3 445 503 435 0.200240418415926 0.664669367883825 0.6370873300369073
3 448 221 222 0.200240418415926 0.664669367883825 0.6370873300369073
3 220 447 48 0.200240418415926 0.664669367883825 0.6370873300369073
3 220 221 447 0.200240418415926 0.664669367883825 0.6370873300369073
3 48 219 220 0.200240418415926 0.664669367883825 0.6370873300369073
3 220 219 522 0.200240418415926 0.664669367883825 0.6370873300369073
3 215 439 175 0.200240418415926 0.664669367883825 0.6370873300369073
3 175 438 215 0.200240418415926 0.664669367883825 0.6370873300369073
3 342 438 175 0.200240418415926 0.664669367883825 0.6370873300369073
3 31 414 167 0.200240418415926 0.664669367883825 0.6370873300369073
3 495 494 167 0.200240418415926 0.664669367883825 0.6370873300369073
3 167 168 495 0.200240418415926 0.664669367883825 0.6370873300369073
3 414 168 167 0.200240418415926 0.664669367883825 0.6370873300369073
3 167 32 31 0.200240418415926 0.664669367883825 0.6370873300369073
3 494 32 167 0.200240418415926 0.664669367883825 0.6370873300369073
3 216 429 209 0.200240418415926 0.664669367883825 0.6370873300369073
3 209 429 497 0.200240418415926 0.664669367883825 0.6370873300369073
3 170 498 209 0.200240418415926 0.664669367883825 0.6370873300369073
3 209 497 170 0.200240418415926 0.664669367883825 0.6370873300369073
3 497 429 208 0.200240418415926 0.664669367883825 0.6370873300369073
3 215 428 208 0.200240418415926 0.664669367883825 0.6370873300369073
3 208 429 215 0.200240418415926 0.664669367883825 0.6370873300369073
3 351 45 44 0.200240418415926 0.664669367883825 0.6370873300369073
3 44 111 351 0.200240418415926 0.664669367883825 0.6370873300369073
3 352 45 351 0.200240418415926 0.664669367883825 0.6370873300369073
3 509 111 110 0.200240418415926 0.664669367883825 0.6370873300369073
3 343 175 439 0.200240418415926 0.664669367883825 0.6370873300369073
3 342 175 343 0.200240418415926 0.664669367883825 0.6370873300369073
3 169 168 415 0.200240418415926 0.664669367883825 0.6370873300369073
3 415 416 169 0.200240418415926 0.664669367883825 0.6370873300369073
3 497 208 169 0.200240418415926 0.664669367883825 0.6370873300369073
3 169 416 170 0.200240418415926 0.664669367883825 0.6370873300369073
3 170 497 169 0.200240418415926 0.664669367883825 0.6370873300369073
3 312 588 121 0.200240418415926 0.664669367883825 0.6370873300369073
3 121 126 312 0.200240418415926 0.664669367883825 0.6370873300369073
3 64 63 96 0.200240418415926 0.664669367883825 0.6370873300369073
3 63 258 96 0.200240418415926 0.664669367883825 0.6370873300369073
3 96 258 589 0.200240418415926 0.664669367883825 0.6370873300369073
3 589 121 96 0.200240418415926 0.664669367883825 0.6370873300369073
3 588 64 96 0.200240418415926 0.664669367883825 0.6370873300369073
3 96 121 588 0.200240418415926 0.664669367883825 0.6370873300369073
3 128 305 123 0.200240418415926 0.664669367883825 0.6370873300369073
3 128 102 305 0.200240418415926 0.664669367883825 0.6370873300369073
3 123 315 128 0.200240418415926 0.664669367883825 0.6370873300369073
3 128 315 103 0.200240418415926 0.664669367883825 0.6370873300369073
3 128 103 74 0.200240418415926 0.664669367883825 0.6370873300369073
3 74 102 128 0.200240418415926 0.664669367883825 0.6370873300369073
3 605 78 75 0.200240418415926 0.664669367883825 0.6370873300369073
3 75 104 605 0.200240418415926 0.664669367883825 0.6370873300369073
3 79 228 605 0.200240418415926 0.664669367883825 0.6370873300369073
3 228 78 605 0.200240418415926 0.664669367883825 0.6370873300369073
3 606 79 605 0.200240418415926 0.664669367883825 0.6370873300369073
3 605 104 606 0.200240418415926 0.664669367883825 0.6370873300369073
3 257 256 299 0.200240418415926 0.664669367883825 0.6370873300369073
3 257 541 256 0.200240418415926 0.664669367883825 0.6370873300369073
3 257 542 541 0.200240418415926 0.664669367883825 0.6370873300369073
3 257 301 543 0.200240418415926 0.664669367883825 0.6370873300369073
3 543 542 257 0.200240418415926 0.664669367883825 0.6370873300369073
3 298 255 297 0.200240418415926 0.664669367883825 0.6370873300369073
3 256 255 298 0.200240418415926 0.664669367883825 0.6370873300369073
3 299 256 298 0.200240418415926 0.664669367883825 0.6370873300369073
3 297 366 298 0.200240418415926 0.664669367883825 0.6370873300369073
3 367 299 298 0.200240418415926 0.664669367883825 0.6370873300369073
3 298 366 367 0.200240418415926 0.664669367883825 0.6370873300369073
3 117 87 86 0.200240418415926 0.664669367883825 0.6370873300369073
3 86 116 117 0.200240418415926 0.664669367883825 0.6370873300369073
3 118 87 117 0.200240418415926 0.664669367883825 0.6370873300369073
3 534 118 117 0.200240418415926 0.664669367883825 0.6370873300369073
3 533 534 117 0.200240418415926 0.664669367883825 0.6370873300369073
3 117 116 533 0.200240418415926 0.664669367883825 0.6370873300369073
3 462 376 461 0.200240418415926 0.664669367883825 0.6370873300369073
3 376 91 461 0.200240418415926 0.664669367883825 0.6370873300369073
3 461 87 462 0.200240418415926 0.664669367883825 0.6370873300369073
3 86 87 461 0.200240418415926 0.664669367883825 0.6370873300369073
3 460 86 461 0.200240418415926 0.664669367883825 0.6370873300369073
3 461 91 460 0.200240418415926 0.664669367883825 0.6370873300369073
3 536 119 118 0.200240418415926 0.664669367883825 0.6370873300369073
3 118 535 536 0.200240418415926 0.664669367883825 0.6370873300369073
3 537 119 536 0.200240418415926 0.664669367883825 0.6370873300369073
3 536 186 187 0.200240418415926 0.664669367883825 0.6370873300369073
3 536 535 186 0.200240418415926 0.664669367883825 0.6370873300369073
3 254 255 190 0.200240418415926 0.664669367883825 0.6370873300369073
3 190 189 254 0.200240418415926 0.664669367883825 0.6370873300369073
3 540 539 190 0.200240418415926 0.664669367883825 0.6370873300369073
3 190 256 540 0.200240418415926 0.664669367883825 0.6370873300369073
3 190 255 256 0.200240418415926 0.664669367883825 0.6370873300369073
3 537 189 538 0.200240418415926 0.664669367883825 0.6370873300369073
3 538 539 465 0.200240418415926 0.664669367883825 0.6370873300369073
3 538 190 539 0.200240418415926 0.664669367883825 0.6370873300369073
3 189 190 538 0.200240418415926 0.664669367883825 0.6370873300369073
3 538 465 464 0.200240418415926 0.664669367883825 0.6370873300369073
3 464 537 538 0.200240418415926 0.664669367883825 0.6370873300369073
3 252 253 188 0.200240418415926 0.664669367883825 0.6370873300369073
3 253 189 188 0.200240418415926 0.664669367883825 0.6370873300369073
3 188 187 251 0.200240418415926 0.664669367883825 0.6370873300369073
3 251 252 188 0.200240418415926 0.664669367883825 0.6370873300369073
3 188 189 537 0.200240418415926 0.664669367883825 0.6370873300369073
3 537 536 188 0.200240418415926 0.664669367883825 0.6370873300369073
3 188 536 187 0.200240418415926 0.664669367883825 0.6370873300369073
3 552 241 553 0.200240418415926 0.664669367883825 0.6370873300369073
3 552 142 241 0.200240418415926 0.664669367883825 0.6370873300369073
3 553 282 552 0.200240418415926 0.664669367883825 0.6370873300369073
3 552 282 281 0.200240418415926 0.664669367883825 0.6370873300369073
3 393 392 191 0.200240418415926 0.664669367883825 0.6370873300369073
3 393 191 192 0.200240418415926 0.664669367883825 0.6370873300369073
3 192 394 393 0.200240418415926 0.664669367883825 0.6370873300369073
3 393 394 200 0.200240418415926 0.664669367883825 0.6370873300369073
3 393 200 199 0.200240418415926 0.664669367883825 0.6370873300369073
3 199 392 393 0.200240418415926 0.664669367883825 0.6370873300369073
3 151 150 404 0.200240418415926 0.664669367883825 0.6370873300369073
3 404 405 151 0.200240418415926 0.664669367883825 0.6370873300369073
3 335 153 336 0.200240418415926 0.664669367883825 0.6370873300369073
3 336 160 335 0.200240418415926 0.664669367883825 0.6370873300369073
3 159 335 160 0.200240418415926 0.664669367883825 0.6370873300369073
3 334 335 159 0.200240418415926 0.664669367883825 0.6370873300369073
3 332 150 333 0.200240418415926 0.664669367883825 0.6370873300369073
3 150 151 333 0.200240418415926 0.664669367883825 0.6370873300369073
3 333 151 334 0.200240418415926 0.664669367883825 0.6370873300369073
3 500 172 419 0.200240418415926 0.664669367883825 0.6370873300369073
3 211 172 500 0.200240418415926 0.664669367883825 0.6370873300369073
3 419 420 500 0.200240418415926 0.664669367883825 0.6370873300369073
3 499 172 211 0.200240418415926 0.664669367883825 0.6370873300369073
3 210 171 499 0.200240418415926 0.664669367883825 0.6370873300369073
3 499 171 418 0.200240418415926 0.664669367883825 0.6370873300369073
3 418 172 499 0.200240418415926 0.664669367883825 0.6370873300369073
3 499 431 210 0.200240418415926 0.664669367883825 0.6370873300369073
3 211 431 499 0.200240418415926 0.664669367883825 0.6370873300369073
3 50 284 285 0.200240418415926 0.664669367883825 0.6370873300369073
3 529 455 454 0.200240418415926 0.664669367883825 0.6370873300369073
3 454 528 529 0.200240418415926 0.664669367883825 0.6370873300369073
3 455 291 454 0.200240418415926 0.664669367883825 0.6370873300369073
3 291 290 454 0.200240418415926 0.664669367883825 0.6370873300369073
3 527 528 225 0.200240418415926 0.664669367883825 0.6370873300369073
3 287 286 451 0.200240418415926 0.664669367883825 0.6370873300369073
3 451 452 287 0.200240418415926 0.664669367883825 0.6370873300369073
3 451 225 452 0.200240418415926 0.664669367883825 0.6370873300369073
3 350 445 435 0.200240418415926 0.664669367883825 0.6370873300369073
3 360 516 517 0.200240418415926 0.664669367883825 0.6370873300369073
3 360 517 529 0.200240418415926 0.664669367883825 0.6370873300369073
3 529 528 360 0.200240418415926 0.664669367883825 0.6370873300369073
3 360 528 527 0.200240418415926 0.664669367883825 0.6370873300369073
3 288 577 287 0.200240418415926 0.664669367883825 0.6370873300369073
3 287 452 288 0.200240418415926 0.664669367883825 0.6370873300369073
3 289 579 578 0.200240418415926 0.664669367883825 0.6370873300369073
3 578 288 289 0.200240418415926 0.664669367883825 0.6370873300369073
3 577 288 578 0.200240418415926 0.664669367883825 0.6370873300369073
3 578 579 364 0.200240418415926 0.664669367883825 0.6370873300369073
3 364 363 578 0.200240418415926 0.664669367883825 0.6370873300369073
3 363 577 578 0.200240418415926 0.664669367883825 0.6370873300369073
3 287 577 576 0.200240418415926 0.664669367883825 0.6370873300369073
3 576 286 287 0.200240418415926 0.664669367883825 0.6370873300369073
3 576 575 286 0.200240418415926 0.664669367883825 0.6370873300369073
3 361 575 576 0.200240418415926 0.664669367883825 0.6370873300369073
3 576 362 361 0.200240418415926 0.664669367883825 0.6370873300369073
3 576 577 362 0.200240418415926 0.664669367883825 0.6370873300369073
3 455 530 456 0.200240418415926 0.664669367883825 0.6370873300369073
3 456 530 457 0.200240418415926 0.664669367883825 0.6370873300369073
3 456 292 455 0.200240418415926 0.664669367883825 0.6370873300369073
3 457 292 456 0.200240418415926 0.664669367883825 0.6370873300369073
3 584 370 583 0.200240418415926 0.664669367883825 0.6370873300369073
3 584 585 370 0.200240418415926 0.664669367883825 0.6370873300369073
3 583 457 584 0.200240418415926 0.664669367883825 0.6370873300369073
3 457 585 584 0.200240418415926 0.664669367883825 0.6370873300369073
3 370 585 586 0.200240418415926 0.664669367883825 0.6370873300369073
3 586 585 532 0.200240418415926 0.664669367883825 0.6370873300369073
3 354 181 180 0.200240418415926 0.664669367883825 0.6370873300369073
3 180 353 354 0.200240418415926 0.664669367883825 0.6370873300369073
3 114 355 354 0.200240418415926 0.664669367883825 0.6370873300369073
3 355 181 354 0.200240418415926 0.664669367883825 0.6370873300369073
3 502 503 434 0.200240418415926 0.664669367883825 0.6370873300369073
3 434 444 502 0.200240418415926 0.664669367883825 0.6370873300369073
3 503 445 434 0.200240418415926 0.664669367883825 0.6370873300369073
3 349 444 434 0.200240418415926 0.664669367883825 0.6370873300369073
3 434 445 349 0.200240418415926 0.664669367883825 0.6370873300369073
3 443 442 432 0.200240418415926 0.664669367883825 0.6370873300369073
3 432 433 443 0.200240418415926 0.664669367883825 0.6370873300369073
3 211 500 432 0.200240418415926 0.664669367883825 0.6370873300369073
3 512 347 348 0.200240418415926 0.664669367883825 0.6370873300369073
3 348 513 512 0.200240418415926 0.664669367883825 0.6370873300369073
3 114 511 512 0.200240418415926 0.664669367883825 0.6370873300369073
3 511 347 512 0.200240418415926 0.664669367883825 0.6370873300369073
3 512 355 114 0.200240418415926 0.664669367883825 0.6370873300369073
3 512 513 355 0.200240418415926 0.664669367883825 0.6370873300369073
3 522 183 523 0.200240418415926 0.664669367883825 0.6370873300369073
3 523 220 522 0.200240418415926 0.664669367883825 0.6370873300369073
3 221 220 523 0.200240418415926 0.664669367883825 0.6370873300369073
3 352 351 112 0.200240418415926 0.664669367883825 0.6370873300369073
3 112 351 111 0.200240418415926 0.664669367883825 0.6370873300369073
3 111 509 112 0.200240418415926 0.664669367883825 0.6370873300369073
3 112 509 510 0.200240418415926 0.664669367883825 0.6370873300369073
3 346 347 511 0.200240418415926 0.664669367883825 0.6370873300369073
3 178 442 346 0.200240418415926 0.664669367883825 0.6370873300369073
3 346 442 443 0.200240418415926 0.664669367883825 0.6370873300369073
3 443 347 346 0.200240418415926 0.664669367883825 0.6370873300369073
3 218 431 211 0.200240418415926 0.664669367883825 0.6370873300369073
3 211 432 218 0.200240418415926 0.664669367883825 0.6370873300369073
3 218 442 178 0.200240418415926 0.664669367883825 0.6370873300369073
3 218 432 442 0.200240418415926 0.664669367883825 0.6370873300369073
3 176 439 216 0.200240418415926 0.664669367883825 0.6370873300369073
3 176 343 439 0.200240418415926 0.664669367883825 0.6370873300369073
3 106 105 342 0.200240418415926 0.664669367883825 0.6370873300369073
3 342 343 106 0.200240418415926 0.664669367883825 0.6370873300369073
3 42 105 106 0.200240418415926 0.664669367883825 0.6370873300369073
3 106 507 42 0.200240418415926 0.664669367883825 0.6370873300369073
3 168 169 496 0.200240418415926 0.664669367883825 0.6370873300369073
3 496 169 208 0.200240418415926 0.664669367883825 0.6370873300369073
3 496 207 495 0.200240418415926 0.664669367883825 0.6370873300369073
3 495 168 496 0.200240418415926 0.664669367883825 0.6370873300369073
3 428 207 496 0.200240418415926 0.664669367883825 0.6370873300369073
3 496 208 428 0.200240418415926 0.664669367883825 0.6370873300369073
3 126 121 304 0.200240418415926 0.664669367883825 0.6370873300369073
3 304 127 101 0.200240418415926 0.664669367883825 0.6370873300369073
3 101 126 304 0.200240418415926 0.664669367883825 0.6370873300369073
3 304 122 127 0.200240418415926 0.664669367883825 0.6370873300369073
3 589 122 304 0.200240418415926 0.664669367883825 0.6370873300369073
3 304 121 589 0.200240418415926 0.664669367883825 0.6370873300369073
3 300 257 299 0.200240418415926 0.664669367883825 0.6370873300369073
3 301 257 300 0.200240418415926 0.664669367883825 0.6370873300369073
3 299 368 300 0.200240418415926 0.664669367883825 0.6370873300369073
3 300 368 369 0.200240418415926 0.664669367883825 0.6370873300369073
3 369 301 300 0.200240418415926 0.664669367883825 0.6370873300369073
3 549 141 550 0.200240418415926 0.664669367883825 0.6370873300369073
3 141 142 550 0.200240418415926 0.664669367883825 0.6370873300369073
3 280 279 550 0.200240418415926 0.664669367883825 0.6370873300369073
3 550 278 549 0.200240418415926 0.664669367883825 0.6370873300369073
3 550 279 278 0.200240418415926 0.664669367883825 0.6370873300369073
3 153 335 152 0.200240418415926 0.664669367883825 0.6370873300369073
3 405 406 152 0.200240418415926 0.664669367883825 0.6370873300369073
3 406 153 152 0.200240418415926 0.664669367883825 0.6370873300369073
3 152 151 405 0.200240418415926 0.664669367883825 0.6370873300369073
3 334 151 152 0.200240418415926 0.664669367883825 0.6370873300369073
3 152 335 334 0.200240418415926 0.664669367883825 0.6370873300369073
3 565 420 166 0.200240418415926 0.664669367883825 0.6370873300369073
3 565 159 160 0.200240418415926 0.664669367883825 0.6370873300369073
3 160 566 565 0.200240418415926 0.664669367883825 0.6370873300369073
3 565 566 421 0.200240418415926 0.664669367883825 0.6370873300369073
3 421 420 565 0.200240418415926 0.664669367883825 0.6370873300369073
3 564 165 563 0.200240418415926 0.664669367883825 0.6370873300369073
3 564 565 166 0.200240418415926 0.664669367883825 0.6370873300369073
3 159 565 564 0.200240418415926 0.664669367883825 0.6370873300369073
3 166 419 564 0.200240418415926 0.664669367883825 0.6370873300369073
3 419 165 564 0.200240418415926 0.664669367883825 0.6370873300369073
3 332 333 157 0.200240418415926 0.664669367883825 0.6370873300369073
3 157 156 332 0.200240418415926 0.664669367883825 0.6370873300369073
3 562 156 157 0.200240418415926 0.664669367883825 0.6370873300369073
3 157 563 562 0.200240418415926 0.664669367883825 0.6370873300369073
3 286 575 574 0.200240418415926 0.664669367883825 0.6370873300369073
3 574 285 286 0.200240418415926 0.664669367883825 0.6370873300369073
3 50 285 574 0.200240418415926 0.664669367883825 0.6370873300369073
3 574 52 50 0.200240418415926 0.664669367883825 0.6370873300369073
3 574 575 52 0.200240418415926 0.664669367883825 0.6370873300369073
3 452 225 453 0.200240418415926 0.664669367883825 0.6370873300369073
3 528 454 453 0.200240418415926 0.664669367883825 0.6370873300369073
3 453 225 528 0.200240418415926 0.664669367883825 0.6370873300369073
3 289 288 453 0.200240418415926 0.664669367883825 0.6370873300369073
3 453 288 452 0.200240418415926 0.664669367883825 0.6370873300369073
3 453 290 289 0.200240418415926 0.664669367883825 0.6370873300369073
3 453 454 290 0.200240418415926 0.664669367883825 0.6370873300369073
3 286 285 450 0.200240418415926 0.664669367883825 0.6370873300369073
3 450 451 286 0.200240418415926 0.664669367883825 0.6370873300369073
3 225 451 224 0.200240418415926 0.664669367883825 0.6370873300369073
3 224 450 223 0.200240418415926 0.664669367883825 0.6370873300369073
3 451 450 224 0.200240418415926 0.664669367883825 0.6370873300369073
3 435 504 446 0.200240418415926 0.664669367883825 0.6370873300369073
3 446 350 435 0.200240418415926 0.664669367883825 0.6370873300369073
3 516 350 446 0.200240418415926 0.664669367883825 0.6370873300369073
3 446 504 424 0.200240418415926 0.664669367883825 0.6370873300369073
3 424 505 446 0.200240418415926 0.664669367883825 0.6370873300369073
3 446 505 517 0.200240418415926 0.664669367883825 0.6370873300369073
3 517 516 446 0.200240418415926 0.664669367883825 0.6370873300369073
3 349 445 515 0.200240418415926 0.664669367883825 0.6370873300369073
3 445 350 515 0.200240418415926 0.664669367883825 0.6370873300369073
3 515 514 349 0.200240418415926 0.664669367883825 0.6370873300369073
3 515 350 516 0.200240418415926 0.664669367883825 0.6370873300369073
3 614 600 601 0.200240418415926 0.664669367883825 0.6370873300369073
3 433 432 501 0.200240418415926 0.664669367883825 0.6370873300369073
3 501 432 500 0.200240418415926 0.664669367883825 0.6370873300369073
3 501 500 420 0.200240418415926 0.664669367883825 0.6370873300369073
3 502 433 501 0.200240418415926 0.664669367883825 0.6370873300369073
3 421 502 501 0.200240418415926 0.664669367883825 0.6370873300369073
3 501 420 421 0.200240418415926 0.664669367883825 0.6370873300369073
3 113 510 511 0.200240418415926 0.664669367883825 0.6370873300369073
3 113 112 510 0.200240418415926 0.664669367883825 0.6370873300369073
3 113 511 114 0.200240418415926 0.664669367883825 0.6370873300369073
3 113 353 352 0.200240418415926 0.664669367883825 0.6370873300369073
3 352 112 113 0.200240418415926 0.664669367883825 0.6370873300369073
3 114 354 113 0.200240418415926 0.664669367883825 0.6370873300369073
3 113 354 353 0.200240418415926 0.664669367883825 0.6370873300369073
3 511 510 109 0.200240418415926 0.664669367883825 0.6370873300369073
3 109 346 511 0.200240418415926 0.664669367883825 0.6370873300369073
3 178 346 109 0.200240418415926 0.664669367883825 0.6370873300369073
3 109 345 178 0.200240418415926 0.664669367883825 0.6370873300369073
3 109 510 345 0.200240418415926 0.664669367883825 0.6370873300369073
3 216 209 430 0.200240418415926 0.664669367883825 0.6370873300369073
3 430 498 210 0.200240418415926 0.664669367883825 0.6370873300369073
3 430 209 498 0.200240418415926 0.664669367883825 0.6370873300369073
3 107 106 343 0.200240418415926 0.664669367883825 0.6370873300369073
3 343 176 107 0.200240418415926 0.664669367883825 0.6370873300369073
3 108 177 345 0.200240418415926 0.664669367883825 0.6370873300369073
3 345 510 108 0.200240418415926 0.664669367883825 0.6370873300369073
3 510 509 108 0.200240418415926 0.664669367883825 0.6370873300369073
3 509 107 108 0.200240418415926 0.664669367883825 0.6370873300369073
3 345 177 441 0.200240418415926 0.664669367883825 0.6370873300369073
3 178 345 441 0.200240418415926 0.664669367883825 0.6370873300369073
3 441 218 178 0.200240418415926 0.664669367883825 0.6370873300369073
3 431 218 441 0.200240418415926 0.664669367883825 0.6370873300369073
3 142 552 551 0.200240418415926 0.664669367883825 0.6370873300369073
3 551 550 142 0.200240418415926 0.664669367883825 0.6370873300369073
3 280 550 551 0.200240418415926 0.664669367883825 0.6370873300369073
3 551 281 280 0.200240418415926 0.664669367883825 0.6370873300369073
3 551 552 281 0.200240418415926 0.664669367883825 0.6370873300369073
3 563 157 158 0.200240418415926 0.664669367883825 0.6370873300369073
3 158 157 333 0.200240418415926 0.664669367883825 0.6370873300369073
3 158 564 563 0.200240418415926 0.664669367883825 0.6370873300369073
3 158 333 334 0.200240418415926 0.664669367883825 0.6370873300369073
3 334 159 158 0.200240418415926 0.664669367883825 0.6370873300369073
3 159 564 158 0.200240418415926 0.664669367883825 0.6370873300369073
3 449 285 284 0.200240418415926 0.664669367883825 0.6370873300369073
3 449 450 285 0.200240418415926 0.664669367883825 0.6370873300369073
3 284 448 449 0.200240418415926 0.664669367883825 0.6370873300369073
3 448 222 449 0.200240418415926 0.664669367883825 0.6370873300369073
3 449 222 223 0.200240418415926 0.664669367883825 0.6370873300369073
3 223 450 449 0.200240418415926 0.664669367883825 0.6370873300369073
3 356 514 357 0.200240418415926 0.664669367883825 0.6370873300369073
3 514 515 357 0.200240418415926 0.664669367883825 0.6370873300369073
3 357 515 358 0.200240418415926 0.664669367883825 0.6370873300369073
3 525 357 358 0.200240418415926 0.664669367883825 0.6370873300369073
3 223 222 525 0.200240418415926 0.664669367883825 0.6370873300369073
3 359 360 527 0.200240418415926 0.664669367883825 0.6370873300369073
3 516 360 359 0.200240418415926 0.664669367883825 0.6370873300369073
3 359 515 516 0.200240418415926 0.664669367883825 0.6370873300369073
3 358 515 359 0.200240418415926 0.664669367883825 0.6370873300369073
3 370 586 545 0.200240418415926 0.664669367883825 0.6370873300369073
3 545 617 601 0.200240418415926 0.664669367883825 0.6370873300369073
3 440 176 216 0.200240418415926 0.664669367883825 0.6370873300369073
3 216 430 440 0.200240418415926 0.664669367883825 0.6370873300369073
3 507 106 508 0.200240418415926 0.664669367883825 0.6370873300369073
3 106 107 508 0.200240418415926 0.664669367883825 0.6370873300369073
3 508 110 43 0.200240418415926 0.664669367883825 0.6370873300369073
3 43 507 508 0.200240418415926 0.664669367883825 0.6370873300369073
3 508 509 110 0.200240418415926 0.664669367883825 0.6370873300369073
3 508 107 509 0.200240418415926 0.664669367883825 0.6370873300369073
3 177 108 344 0.200240418415926 0.664669367883825 0.6370873300369073
3 344 108 107 0.200240418415926 0.664669367883825 0.6370873300369073
3 344 440 177 0.200240418415926 0.664669367883825 0.6370873300369073
3 344 107 176 0.200240418415926 0.664669367883825 0.6370873300369073
3 176 440 344 0.200240418415926 0.664669367883825 0.6370873300369073
3 184 183 356 0.200240418415926 0.664669367883825 0.6370873300369073
3 356 357 184 0.200240418415926 0.664669367883825 0.6370873300369073
3 184 523 183 0.200240418415926 0.664669367883825 0.6370873300369073
3 357 525 184 0.200240418415926 0.664669367883825 0.6370873300369073
3 526 359 527 0.200240418415926 0.664669367883825 0.6370873300369073
3 358 359 526 0.200240418415926 0.664669367883825 0.6370873300369073
3 526 525 358 0.200240418415926 0.664669367883825 0.6370873300369073
3 527 225 526 0.200240418415926 0.664669367883825 0.6370873300369073
3 225 224 526 0.200240418415926 0.664669367883825 0.6370873300369073
3 526 224 223 0.200240418415926 0.664669367883825 0.6370873300369073
3 223 525 526 0.200240418415926 0.664669367883825 0.6370873300369073
3 559 493 480 0.200240418415926 0.664669367883825 0.6370873300369073
3 480 558 559 0.200240418415926 0.664669367883825 0.6370873300369073
3 573 493 559 0.200240418415926 0.664669367883825 0.6370873300369073
3 559 617 573 0.200240418415926 0.664669367883825 0.6370873300369073
3 587 545 586 0.200240418415926 0.664669367883825 0.6370873300369073
3 617 545 587 0.200240418415926 0.664669367883825 0.6370873300369073
3 573 617 587 0.200240418415926 0.664669367883825 0.6370873300369073
3 587 532 573 0.200240418415926 0.664669367883825 0.6370873300369073
3 587 586 532 0.200240418415926 0.664669367883825 0.6370873300369073
3 544 301 370 0.200240418415926 0.664669367883825 0.6370873300369073
3 370 545 544 0.200240418415926 0.664669367883825 0.6370873300369073
3 543 301 544 0.200240418415926 0.664669367883825 0.6370873300369073
3 544 600 543 0.200240418415926 0.664669367883825 0.6370873300369073
3 544 601 600 0.200240418415926 0.664669367883825 0.6370873300369073
3 544 545 601 0.200240418415926 0.664669367883825 0.6370873300369073
3 217 430 210 0.200240418415926 0.664669367883825 0.6370873300369073
3 217 440 430 0.200240418415926 0.664669367883825 0.6370873300369073
3 210 431 217 0.200240418415926 0.664669367883825 0.6370873300369073
3 177 440 217 0.200240418415926 0.664669367883825 0.6370873300369073
3 431 441 217 0.200240418415926 0.664669367883825 0.6370873300369073
3 217 441 177 0.200240418415926 0.664669367883825 0.6370873300369073
3 524 525 222 0.200240418415926 0.664669367883825 0.6370873300369073
3 524 184 525 0.200240418415926 0.664669367883825 0.6370873300369073
3 523 184 524 0.200240418415926 0.664669367883825 0.6370873300369073
3 524 222 221 0.200240418415926 0.664669367883825 0.6370873300369073
3 221 523 524 0.200240418415926 0.664669367883825 0.6370873300369073
3 601 617 615 0.200240418415926 0.664669367883825 0.6370873300369073
3 617 559 615 0.200240418415926 0.664669367883825 0.6370873300369073
3 615 559 558 0.200240418415926 0.664669367883825 0.6370873300369073
3 615 558 614 0.200240418415926 0.664669367883825 0.6370873300369073
3 614 601 615 0.200240418415926 0.664669367883825 0.6370873300369073
