OFF
34 27 0


28.0056 32.6046 12.1082
28.0056 32.6046 12.1082
27.994 32.5552 12.096
27.9824 32.5059 12.0838
27.9708 32.4565 12.0716
27.9592 32.4072 12.0594
27.9592 32.4072 12.0594
27.9592 32.325 11.954
27.9594 32.266 11.8776
27.9597 32.213 11.8082
27.9602 32.1546 11.7312
27.9612 32.0745 11.6243
27.9612 32.0745 11.6243
27.9685 32.043 11.5516
27.9759 32.0115 11.479
27.9832 31.98 11.4063
27.9906 31.9485 11.3336
27.9979 31.917 11.261
28.0338 31.9709 11.1723
28.0602 32.0108 11.1072
28.0962 32.0655 11.0192
28.0962 32.0655 11.0192
28.0917 32.136 11.1296
28.0868 32.1946 11.2263
28.0816 32.245 11.3135
28.0762 32.2897 11.3946
28.0705 32.3306 11.472
28.0644 32.3689 11.548
28.0577 32.4059 11.6246
28.0504 32.4425 11.704
28.0419 32.4796 11.7885
28.0321 32.5182 11.8811
28.0203 32.5594 11.9858
28.0056 32.6046 12.1082
3 10 26 27 0.34711048213097306 0.7521249881371536 0.0717214111683614
3 12 26 10 0.34711048213097306 0.7521249881371536 0.0717214111683614
3 20 22 19 0.34711048213097306 0.7521249881371536 0.0717214111683614
3 24 15 23 0.34711048213097306 0.7521249881371536 0.0717214111683614
3 28 29 9 0.34711048213097306 0.7521249881371536 0.0717214111683614
3 28 10 27 0.34711048213097306 0.7521249881371536 0.0717214111683614
3 9 10 28 0.34711048213097306 0.7521249881371536 0.0717214111683614
3 16 23 15 0.34711048213097306 0.7521249881371536 0.0717214111683614
3 18 19 22 0.34711048213097306 0.7521249881371536 0.0717214111683614
3 22 23 18 0.34711048213097306 0.7521249881371536 0.0717214111683614
3 23 16 18 0.34711048213097306 0.7521249881371536 0.0717214111683614
3 18 16 17 0.34711048213097306 0.7521249881371536 0.0717214111683614
3 13 26 12 0.34711048213097306 0.7521249881371536 0.0717214111683614
3 13 25 26 0.34711048213097306 0.7521249881371536 0.0717214111683614
3 30 7 8 0.34711048213097306 0.7521249881371536 0.0717214111683614
3 9 29 8 0.34711048213097306 0.7521249881371536 0.0717214111683614
3 8 29 30 0.34711048213097306 0.7521249881371536 0.0717214111683614
3 6 7 31 0.34711048213097306 0.7521249881371536 0.0717214111683614
3 31 7 30 0.34711048213097306 0.7521249881371536 0.0717214111683614
3 14 15 24 0.34711048213097306 0.7521249881371536 0.0717214111683614
3 24 25 14 0.34711048213097306 0.7521249881371536 0.0717214111683614
3 25 13 14 0.34711048213097306 0.7521249881371536 0.0717214111683614
3 2 32 0 0.34711048213097306 0.7521249881371536 0.0717214111683614
3 2 3 32 0.34711048213097306 0.7521249881371536 0.0717214111683614
3 32 3 4 0.34711048213097306 0.7521249881371536 0.0717214111683614
3 6 31 4 0.34711048213097306 0.7521249881371536 0.0717214111683614
3 4 31 32 0.34711048213097306 0.7521249881371536 0.0717214111683614
