OFF
37 32 0


28.6358 35.435 9.4713
28.6358 35.435 9.4713
28.6694 35.3822 9.5767
28.7007 35.331 9.6742
28.7304 35.2801 9.7657
28.7589 35.2287 9.8527
28.7866 35.1757 9.9359
28.8137 35.1201 10.016
28.8404 35.0609 10.0932
28.8667 34.9972 10.1673
28.8926 34.9279 10.2377
28.918 34.8525 10.3035
28.9425 34.7707 10.3639
28.9661 34.6826 10.4183
28.9887 34.5885 10.4666
29.0102 34.4888 10.509
29.031 34.3835 10.5463
29.0513 34.2722 10.5794
29.0152 34.3577 10.4773
28.9836 34.4346 10.3884
28.9553 34.505 10.3095
28.9295 34.5706 10.238
28.9055 34.6326 10.1721
28.8828 34.6923 10.11
28.8609 34.7507 10.0507
28.8395 34.8086 9.9929
28.8183 34.8671 9.9358
28.7968 34.927 9.8783
28.7746 34.9895 9.8195
28.7514 35.0558 9.7582
28.7267 35.1275 9.6931
28.6997 35.2065 9.6226
28.6698 35.2954 9.5447
28.6357 35.3979 9.4566
28.6357 35.3979 9.4566
28.6358 35.4164 9.4639
28.6358 35.435 9.4713
3 6 30 29 0.5624317979343265 0.5983380796052048 0.8224717729555228
3 20 14 21 0.5624317979343265 0.5983380796052048 0.8224717729555228
3 10 26 25 0.5624317979343265 0.5983380796052048 0.8224717729555228
3 9 26 10 0.5624317979343265 0.5983380796052048 0.8224717729555228
3 9 8 27 0.5624317979343265 0.5983380796052048 0.8224717729555228
3 27 26 9 0.5624317979343265 0.5983380796052048 0.8224717729555228
3 24 12 11 0.5624317979343265 0.5983380796052048 0.8224717729555228
3 10 25 11 0.5624317979343265 0.5983380796052048 0.8224717729555228
3 11 25 24 0.5624317979343265 0.5983380796052048 0.8224717729555228
3 21 14 13 0.5624317979343265 0.5983380796052048 0.8224717729555228
3 21 13 22 0.5624317979343265 0.5983380796052048 0.8224717729555228
3 22 13 12 0.5624317979343265 0.5983380796052048 0.8224717729555228
3 27 8 28 0.5624317979343265 0.5983380796052048 0.8224717729555228
3 6 29 7 0.5624317979343265 0.5983380796052048 0.8224717729555228
3 7 28 8 0.5624317979343265 0.5983380796052048 0.8224717729555228
3 29 28 7 0.5624317979343265 0.5983380796052048 0.8224717729555228
3 2 35 33 0.5624317979343265 0.5983380796052048 0.8224717729555228
3 33 32 2 0.5624317979343265 0.5983380796052048 0.8224717729555228
3 2 32 3 0.5624317979343265 0.5983380796052048 0.8224717729555228
3 0 35 2 0.5624317979343265 0.5983380796052048 0.8224717729555228
3 17 16 18 0.5624317979343265 0.5983380796052048 0.8224717729555228
3 18 16 19 0.5624317979343265 0.5983380796052048 0.8224717729555228
3 19 16 15 0.5624317979343265 0.5983380796052048 0.8224717729555228
3 14 20 15 0.5624317979343265 0.5983380796052048 0.8224717729555228
3 15 20 19 0.5624317979343265 0.5983380796052048 0.8224717729555228
3 23 12 24 0.5624317979343265 0.5983380796052048 0.8224717729555228
3 23 22 12 0.5624317979343265 0.5983380796052048 0.8224717729555228
3 5 30 6 0.5624317979343265 0.5983380796052048 0.8224717729555228
3 30 5 31 0.5624317979343265 0.5983380796052048 0.8224717729555228
3 31 5 4 0.5624317979343265 0.5983380796052048 0.8224717729555228
3 3 32 31 0.5624317979343265 0.5983380796052048 0.8224717729555228
3 31 4 3 0.5624317979343265 0.5983380796052048 0.8224717729555228
