OFF
229 394 0


30.4754 32.6845 7.3842
30.4754 32.6845 7.3842
30.433 32.7276 7.5049
30.4754 32.6845 7.3842
30.4754 32.6845 7.3842
30.5546 32.6248 7.3315
30.6133 32.5811 7.293
30.6936 32.5222 7.241
30.6936 32.5222 7.241
30.7795 32.476 7.339
30.8401 32.4442 7.4085
30.8945 32.4161 7.4712
30.955 32.3855 7.5413
31.0408 32.3432 7.6412
31.0427 32.3592 7.7719
31.047 32.372 7.8846
31.0531 32.3829 7.9848
31.0605 32.3922 8.0766
31.0689 32.4006 8.1632
31.0786 32.4083 8.2472
31.0895 32.4156 8.3309
31.1021 32.4227 8.4169
31.1169 32.4297 8.5076
31.1345 32.4369 8.6064
31.1561 32.4445 8.7175
31.1837 32.4526 8.8471
31.1837 32.4526 8.8471
31.0639 32.5216 8.8122
30.9755 32.5731 8.786
30.8989 32.6183 8.7629
30.8225 32.6638 8.7396
30.735 32.7164 8.7126
30.6174 32.7881 8.6756
30.6174 32.7881 8.6756
30.5513 32.8117 8.5645
30.5051 32.8288 8.4869
30.4589 32.8465 8.4093
30.393 32.8726 8.2987
30.393 32.8726 8.2987
30.3902 32.8507 8.1579
30.3889 32.8347 8.0533
30.3883 32.821 7.9621
30.3883 32.8075 7.871
30.3889 32.7921 7.7662
30.3908 32.7719 7.6252
30.6321 32.5804 7.4002
30.6505 32.5801 7.5034
30.6687 32.5802 7.6037
30.829 32.4615 7.4965
30.8184 32.4788 7.5826
30.8083 32.4961 7.6673
30.9298 32.4101 7.6106
30.9051 32.4347 7.6789
30.8808 32.4594 7.7466
31.0229 32.4162 8.0778
30.9856 32.4402 8.079
30.9483 32.4643 8.0801
31.038 32.4306 8.2267
30.9978 32.4529 8.2064
30.9581 32.4751 8.1862
31.0571 32.4436 8.3737
31.0131 32.4642 8.3312
30.9699 32.4847 8.2894
31.0828 32.4564 8.5356
31.0332 32.4755 8.4672
30.9852 32.4943 8.4007
30.9443 32.5739 8.6871
30.9148 32.575 8.5927
30.8868 32.5763 8.5021
30.8132 32.652 8.648
30.8045 32.641 8.5601
30.7964 32.6307 8.4756
30.54 32.7949 8.4317
30.5739 32.7622 8.3783
30.6068 32.7307 8.3265
30.4375 32.7895 7.9786
30.4857 32.7587 7.9947
30.5331 32.7287 8.0105
30.4762 32.7077 7.583
30.5183 32.6887 7.6587
30.5597 32.6704 7.7325
30.6004 32.6527 7.8046
30.513 32.6699 7.4795
30.5496 32.6562 7.5713
30.5855 32.6433 7.6604
30.6209 32.631 7.7473
30.5813 32.6183 7.4336
30.6074 32.6123 7.5319
30.6332 32.607 7.6274
30.6587 32.6021 7.7207
30.7761 32.4892 7.4376
30.773 32.5025 7.5334
30.7704 32.5158 7.6271
30.7681 32.5293 7.7193
31.0072 32.387 7.8112
30.9721 32.4148 7.8502
30.9371 32.4428 7.889
30.9023 32.4709 7.9279
31.0166 32.4079 7.9974
30.9803 32.433 8.01
30.9441 32.4581 8.0225
30.9078 32.4834 8.035
31.1209 32.4704 8.7368
31.0623 32.4877 8.6329
31.0069 32.5045 8.5342
30.9544 32.5211 8.4395
30.6371 32.7588 8.5925
30.6561 32.7311 8.5129
30.6746 32.7046 8.4364
30.6927 32.6793 8.3625
30.443 32.8329 8.2697
30.4916 32.7946 8.2415
30.5389 32.7576 8.2141
30.5851 32.7217 8.1874
30.4383 32.8012 8.0577
30.4866 32.7686 8.062
30.534 32.7368 8.0661
30.5807 32.7057 8.0701
30.4378 32.7643 7.8088
30.4858 32.7372 7.8502
30.5329 32.7109 7.8908
30.5794 32.6851 7.9307
31.047 32.4372 8.2994
31.005 32.4586 8.2683
30.9637 32.48 8.2375
30.9228 32.5012 8.2069
30.8822 32.5225 8.1764
31.0997 32.4632 8.6292
31.0462 32.4814 8.5448
30.995 32.4993 8.4635
30.9458 32.5168 8.3848
30.8982 32.5343 8.308
30.8787 32.6128 8.6678
30.8597 32.6079 8.5767
30.8416 32.6034 8.4891
30.8244 32.5994 8.4044
30.8079 32.5957 8.3221
30.5 32.8103 8.365
30.5399 32.7754 8.3221
30.5788 32.7417 8.2804
30.6168 32.7091 8.2398
30.654 32.6773 8.2001
30.7014 32.5293 7.3557
30.7093 32.5365 7.4658
30.7173 32.544 7.5725
30.7256 32.5517 7.6766
30.7341 32.5598 7.7792
30.743 32.5683 7.881
31.005 32.3731 7.6974
30.9698 32.403 7.753
30.9349 32.4328 7.8081
30.9003 32.4628 7.8631
30.8659 32.4931 7.9181
30.8314 32.5237 7.9733
31.03 32.4237 8.1535
30.9914 32.4468 8.1438
30.953 32.4699 8.1341
30.9147 32.493 8.1244
30.8765 32.5162 8.1147
30.8384 32.5396 8.105
31.0196 32.5296 8.7087
30.9779 32.5375 8.6104
30.9383 32.5455 8.5163
30.9005 32.5535 8.4257
30.8643 32.5615 8.3379
30.8292 32.5697 8.2522
30.58 32.7798 8.4981
30.6078 32.7492 8.4341
30.6349 32.7198 8.3722
30.6612 32.6915 8.3121
30.687 32.6642 8.2536
30.7123 32.6377 8.1964
30.4373 32.7777 7.8995
30.4854 32.7488 7.9274
30.5327 32.7205 7.9547
30.5794 32.6928 7.9815
30.6255 32.6657 8.0079
30.6713 32.639 8.034
30.8767 32.4369 7.5502
30.8594 32.4577 7.6278
30.8425 32.4786 7.7044
30.826 32.4995 7.7803
30.8098 32.5207 7.856
30.7938 32.5422 7.9318
30.7778 32.5642 8.0081
31.0113 32.3983 7.9097
30.9758 32.4246 7.9346
30.9403 32.4511 7.9595
30.9048 32.4776 7.9845
30.8694 32.5045 8.0094
30.8338 32.5315 8.0345
30.798 32.5589 8.0598
31.0689 32.4499 8.4516
31.0223 32.4698 8.3969
30.977 32.4895 8.3433
30.9326 32.5089 8.2906
30.8891 32.5283 8.2387
30.8463 32.5477 8.1873
30.8039 32.5671 8.1362
30.738 32.6974 8.6247
30.7412 32.6793 8.5405
30.7444 32.6622 8.4593
30.7477 32.6458 8.3808
30.7511 32.6302 8.3045
30.7546 32.6152 8.23
30.7582 32.6007 8.157
30.4398 32.8147 8.1483
30.4883 32.7798 8.1389
30.5357 32.7458 8.1296
30.5823 32.7127 8.1205
30.6281 32.6803 8.1116
30.6732 32.6485 8.1027
30.7178 32.6174 8.094
30.4397 32.7463 7.687
30.4874 32.7216 7.747
30.5342 32.6978 7.8055
30.5803 32.6746 7.8629
30.626 32.652 7.9193
30.6714 32.6299 7.975
30.7166 32.6081 8.0302
30.513 32.6699 7.4795
30.5496 32.6562 7.5713
30.5855 32.6433 7.6604
30.6209 32.631 7.7473
30.656 32.6193 7.8327
30.6911 32.6081 7.9172
30.7263 32.5972 8.0012
30.762 32.5867 8.0852
30.762 32.5867 8.0852
3 31 32 199 0.9473583599060706 0.32167446607823 0.9427629627234553
3 44 2 78 0.9473583599060706 0.32167446607823 0.9427629627234553
3 191 198 227 0.9473583599060706 0.32167446607823 0.9427629627234553
3 28 66 160 0.9473583599060706 0.32167446607823 0.9427629627234553
3 29 66 28 0.9473583599060706 0.32167446607823 0.9427629627234553
3 72 35 36 0.9473583599060706 0.32167446607823 0.9427629627234553
3 37 39 110 0.9473583599060706 0.32167446607823 0.9427629627234553
3 110 39 206 0.9473583599060706 0.32167446607823 0.9427629627234553
3 206 39 40 0.9473583599060706 0.32167446607823 0.9427629627234553
3 40 114 206 0.9473583599060706 0.32167446607823 0.9427629627234553
3 211 141 210 0.9473583599060706 0.32167446607823 0.9427629627234553
3 141 211 171 0.9473583599060706 0.32167446607823 0.9427629627234553
3 76 114 75 0.9473583599060706 0.32167446607823 0.9427629627234553
3 75 40 41 0.9473583599060706 0.32167446607823 0.9427629627234553
3 114 40 75 0.9473583599060706 0.32167446607823 0.9427629627234553
3 76 75 173 0.9473583599060706 0.32167446607823 0.9427629627234553
3 118 42 43 0.9473583599060706 0.32167446607823 0.9427629627234553
3 220 2 3 0.9473583599060706 0.32167446607823 0.9427629627234553
3 220 78 2 0.9473583599060706 0.32167446607823 0.9427629627234553
3 221 220 87 0.9473583599060706 0.32167446607823 0.9427629627234553
3 78 220 221 0.9473583599060706 0.32167446607823 0.9427629627234553
3 221 79 78 0.9473583599060706 0.32167446607823 0.9427629627234553
3 84 79 221 0.9473583599060706 0.32167446607823 0.9427629627234553
3 15 16 185 0.9473583599060706 0.32167446607823 0.9427629627234553
3 13 51 12 0.9473583599060706 0.32167446607823 0.9427629627234553
3 13 14 148 0.9473583599060706 0.32167446607823 0.9427629627234553
3 148 51 13 0.9473583599060706 0.32167446607823 0.9427629627234553
3 150 151 53 0.9473583599060706 0.32167446607823 0.9427629627234553
3 102 160 103 0.9473583599060706 0.32167446607823 0.9427629627234553
3 102 24 25 0.9473583599060706 0.32167446607823 0.9427629627234553
3 72 36 137 0.9473583599060706 0.32167446607823 0.9427629627234553
3 137 110 138 0.9473583599060706 0.32167446607823 0.9427629627234553
3 137 36 37 0.9473583599060706 0.32167446607823 0.9427629627234553
3 37 110 137 0.9473583599060706 0.32167446607823 0.9427629627234553
3 74 140 169 0.9473583599060706 0.32167446607823 0.9427629627234553
3 73 167 72 0.9473583599060706 0.32167446607823 0.9427629627234553
3 72 137 73 0.9473583599060706 0.32167446607823 0.9427629627234553
3 73 137 138 0.9473583599060706 0.32167446607823 0.9427629627234553
3 138 74 73 0.9473583599060706 0.32167446607823 0.9427629627234553
3 32 34 106 0.9473583599060706 0.32167446607823 0.9427629627234553
3 199 32 106 0.9473583599060706 0.32167446607823 0.9427629627234553
3 166 167 107 0.9473583599060706 0.32167446607823 0.9427629627234553
3 107 106 166 0.9473583599060706 0.32167446607823 0.9427629627234553
3 166 106 34 0.9473583599060706 0.32167446607823 0.9427629627234553
3 72 167 166 0.9473583599060706 0.32167446607823 0.9427629627234553
3 166 35 72 0.9473583599060706 0.32167446607823 0.9427629627234553
3 166 34 35 0.9473583599060706 0.32167446607823 0.9427629627234553
3 206 114 207 0.9473583599060706 0.32167446607823 0.9427629627234553
3 112 207 208 0.9473583599060706 0.32167446607823 0.9427629627234553
3 209 117 210 0.9473583599060706 0.32167446607823 0.9427629627234553
3 208 116 209 0.9473583599060706 0.32167446607823 0.9427629627234553
3 209 116 117 0.9473583599060706 0.32167446607823 0.9427629627234553
3 76 173 174 0.9473583599060706 0.32167446607823 0.9427629627234553
3 121 174 120 0.9473583599060706 0.32167446607823 0.9427629627234553
3 120 174 173 0.9473583599060706 0.32167446607823 0.9427629627234553
3 42 118 172 0.9473583599060706 0.32167446607823 0.9427629627234553
3 172 173 75 0.9473583599060706 0.32167446607823 0.9427629627234553
3 41 42 172 0.9473583599060706 0.32167446607823 0.9427629627234553
3 172 75 41 0.9473583599060706 0.32167446607823 0.9427629627234553
3 210 117 176 0.9473583599060706 0.32167446607823 0.9427629627234553
3 87 220 86 0.9473583599060706 0.32167446607823 0.9427629627234553
3 86 5 45 0.9473583599060706 0.32167446607823 0.9427629627234553
3 86 220 3 0.9473583599060706 0.32167446607823 0.9427629627234553
3 3 5 86 0.9473583599060706 0.32167446607823 0.9427629627234553
3 87 47 88 0.9473583599060706 0.32167446607823 0.9427629627234553
3 88 221 87 0.9473583599060706 0.32167446607823 0.9427629627234553
3 84 221 88 0.9473583599060706 0.32167446607823 0.9427629627234553
3 88 47 145 0.9473583599060706 0.32167446607823 0.9427629627234553
3 46 47 87 0.9473583599060706 0.32167446607823 0.9427629627234553
3 87 86 46 0.9473583599060706 0.32167446607823 0.9427629627234553
3 46 86 45 0.9473583599060706 0.32167446607823 0.9427629627234553
3 213 118 43 0.9473583599060706 0.32167446607823 0.9427629627234553
3 213 43 44 0.9473583599060706 0.32167446607823 0.9427629627234553
3 44 78 213 0.9473583599060706 0.32167446607823 0.9427629627234553
3 78 79 213 0.9473583599060706 0.32167446607823 0.9427629627234553
3 45 5 6 0.9473583599060706 0.32167446607823 0.9427629627234553
3 51 148 52 0.9473583599060706 0.32167446607823 0.9427629627234553
3 93 146 145 0.9473583599060706 0.32167446607823 0.9427629627234553
3 80 79 84 0.9473583599060706 0.32167446607823 0.9427629627234553
3 84 223 80 0.9473583599060706 0.32167446607823 0.9427629627234553
3 151 150 96 0.9473583599060706 0.32167446607823 0.9427629627234553
3 183 182 152 0.9473583599060706 0.32167446607823 0.9427629627234553
3 152 182 151 0.9473583599060706 0.32167446607823 0.9427629627234553
3 16 17 98 0.9473583599060706 0.32167446607823 0.9427629627234553
3 185 16 98 0.9473583599060706 0.32167446607823 0.9427629627234553
3 14 15 94 0.9473583599060706 0.32167446607823 0.9427629627234553
3 146 182 147 0.9473583599060706 0.32167446607823 0.9427629627234553
3 147 224 146 0.9473583599060706 0.32167446607823 0.9427629627234553
3 225 224 147 0.9473583599060706 0.32167446607823 0.9427629627234553
3 147 182 183 0.9473583599060706 0.32167446607823 0.9427629627234553
3 53 151 181 0.9473583599060706 0.32167446607823 0.9427629627234553
3 151 182 181 0.9473583599060706 0.32167446607823 0.9427629627234553
3 181 182 146 0.9473583599060706 0.32167446607823 0.9427629627234553
3 146 93 181 0.9473583599060706 0.32167446607823 0.9427629627234553
3 127 23 24 0.9473583599060706 0.32167446607823 0.9427629627234553
3 127 102 103 0.9473583599060706 0.32167446607823 0.9427629627234553
3 24 102 127 0.9473583599060706 0.32167446607823 0.9427629627234553
3 107 167 108 0.9473583599060706 0.32167446607823 0.9427629627234553
3 141 171 170 0.9473583599060706 0.32167446607823 0.9427629627234553
3 169 140 170 0.9473583599060706 0.32167446607823 0.9427629627234553
3 170 140 141 0.9473583599060706 0.32167446607823 0.9427629627234553
3 227 198 205 0.9473583599060706 0.32167446607823 0.9427629627234553
3 103 160 161 0.9473583599060706 0.32167446607823 0.9427629627234553
3 161 160 66 0.9473583599060706 0.32167446607823 0.9427629627234553
3 199 106 200 0.9473583599060706 0.32167446607823 0.9427629627234553
3 200 106 107 0.9473583599060706 0.32167446607823 0.9427629627234553
3 27 102 25 0.9473583599060706 0.32167446607823 0.9427629627234553
3 28 160 27 0.9473583599060706 0.32167446607823 0.9427629627234553
3 160 102 27 0.9473583599060706 0.32167446607823 0.9427629627234553
3 208 207 115 0.9473583599060706 0.32167446607823 0.9427629627234553
3 115 116 208 0.9473583599060706 0.32167446607823 0.9427629627234553
3 115 207 114 0.9473583599060706 0.32167446607823 0.9427629627234553
3 115 114 76 0.9473583599060706 0.32167446607823 0.9427629627234553
3 139 112 140 0.9473583599060706 0.32167446607823 0.9427629627234553
3 139 74 138 0.9473583599060706 0.32167446607823 0.9427629627234553
3 140 74 139 0.9473583599060706 0.32167446607823 0.9427629627234553
3 206 207 111 0.9473583599060706 0.32167446607823 0.9427629627234553
3 207 112 111 0.9473583599060706 0.32167446607823 0.9427629627234553
3 111 110 206 0.9473583599060706 0.32167446607823 0.9427629627234553
3 138 110 111 0.9473583599060706 0.32167446607823 0.9427629627234553
3 111 139 138 0.9473583599060706 0.32167446607823 0.9427629627234553
3 112 139 111 0.9473583599060706 0.32167446607823 0.9427629627234553
3 140 112 113 0.9473583599060706 0.32167446607823 0.9427629627234553
3 141 140 113 0.9473583599060706 0.32167446607823 0.9427629627234553
3 113 112 208 0.9473583599060706 0.32167446607823 0.9427629627234553
3 208 209 113 0.9473583599060706 0.32167446607823 0.9427629627234553
3 210 141 113 0.9473583599060706 0.32167446607823 0.9427629627234553
3 113 209 210 0.9473583599060706 0.32167446607823 0.9427629627234553
3 117 116 77 0.9473583599060706 0.32167446607823 0.9427629627234553
3 76 174 77 0.9473583599060706 0.32167446607823 0.9427629627234553
3 77 115 76 0.9473583599060706 0.32167446607823 0.9427629627234553
3 116 115 77 0.9473583599060706 0.32167446607823 0.9427629627234553
3 119 172 118 0.9473583599060706 0.32167446607823 0.9427629627234553
3 215 120 119 0.9473583599060706 0.32167446607823 0.9427629627234553
3 119 120 173 0.9473583599060706 0.32167446607823 0.9427629627234553
3 173 172 119 0.9473583599060706 0.32167446607823 0.9427629627234553
3 89 223 84 0.9473583599060706 0.32167446607823 0.9427629627234553
3 84 88 89 0.9473583599060706 0.32167446607823 0.9427629627234553
3 89 88 145 0.9473583599060706 0.32167446607823 0.9427629627234553
3 145 146 89 0.9473583599060706 0.32167446607823 0.9427629627234553
3 146 224 89 0.9473583599060706 0.32167446607823 0.9427629627234553
3 89 224 223 0.9473583599060706 0.32167446607823 0.9427629627234553
3 118 213 214 0.9473583599060706 0.32167446607823 0.9427629627234553
3 215 119 214 0.9473583599060706 0.32167446607823 0.9427629627234553
3 214 119 118 0.9473583599060706 0.32167446607823 0.9427629627234553
3 214 80 215 0.9473583599060706 0.32167446607823 0.9427629627234553
3 214 213 79 0.9473583599060706 0.32167446607823 0.9427629627234553
3 79 80 214 0.9473583599060706 0.32167446607823 0.9427629627234553
3 180 52 53 0.9473583599060706 0.32167446607823 0.9427629627234553
3 53 181 180 0.9473583599060706 0.32167446607823 0.9427629627234553
3 180 93 50 0.9473583599060706 0.32167446607823 0.9427629627234553
3 180 181 93 0.9473583599060706 0.32167446607823 0.9427629627234553
3 149 52 148 0.9473583599060706 0.32167446607823 0.9427629627234553
3 149 94 150 0.9473583599060706 0.32167446607823 0.9427629627234553
3 149 150 53 0.9473583599060706 0.32167446607823 0.9427629627234553
3 53 52 149 0.9473583599060706 0.32167446607823 0.9427629627234553
3 149 148 14 0.9473583599060706 0.32167446607823 0.9427629627234553
3 14 94 149 0.9473583599060706 0.32167446607823 0.9427629627234553
3 7 9 142 0.9473583599060706 0.32167446607823 0.9427629627234553
3 142 6 7 0.9473583599060706 0.32167446607823 0.9427629627234553
3 45 6 142 0.9473583599060706 0.32167446607823 0.9427629627234553
3 11 48 10 0.9473583599060706 0.32167446607823 0.9427629627234553
3 178 49 48 0.9473583599060706 0.32167446607823 0.9427629627234553
3 178 48 11 0.9473583599060706 0.32167446607823 0.9427629627234553
3 11 12 178 0.9473583599060706 0.32167446607823 0.9427629627234553
3 178 12 51 0.9473583599060706 0.32167446607823 0.9427629627234553
3 50 49 179 0.9473583599060706 0.32167446607823 0.9427629627234553
3 179 180 50 0.9473583599060706 0.32167446607823 0.9427629627234553
3 52 180 179 0.9473583599060706 0.32167446607823 0.9427629627234553
3 49 178 179 0.9473583599060706 0.32167446607823 0.9427629627234553
3 51 52 179 0.9473583599060706 0.32167446607823 0.9427629627234553
3 179 178 51 0.9473583599060706 0.32167446607823 0.9427629627234553
3 48 49 91 0.9473583599060706 0.32167446607823 0.9427629627234553
3 92 49 50 0.9473583599060706 0.32167446607823 0.9427629627234553
3 92 93 145 0.9473583599060706 0.32167446607823 0.9427629627234553
3 50 93 92 0.9473583599060706 0.32167446607823 0.9427629627234553
3 92 91 49 0.9473583599060706 0.32167446607823 0.9427629627234553
3 226 218 225 0.9473583599060706 0.32167446607823 0.9427629627234553
3 226 147 183 0.9473583599060706 0.32167446607823 0.9427629627234553
3 225 147 226 0.9473583599060706 0.32167446607823 0.9427629627234553
3 217 218 176 0.9473583599060706 0.32167446607823 0.9427629627234553
3 225 218 217 0.9473583599060706 0.32167446607823 0.9427629627234553
3 217 224 225 0.9473583599060706 0.32167446607823 0.9427629627234553
3 223 224 81 0.9473583599060706 0.32167446607823 0.9427629627234553
3 215 80 81 0.9473583599060706 0.32167446607823 0.9427629627234553
3 81 80 223 0.9473583599060706 0.32167446607823 0.9427629627234553
3 187 96 186 0.9473583599060706 0.32167446607823 0.9427629627234553
3 185 98 186 0.9473583599060706 0.32167446607823 0.9427629627234553
3 187 186 99 0.9473583599060706 0.32167446607823 0.9427629627234553
3 99 186 98 0.9473583599060706 0.32167446607823 0.9427629627234553
3 183 152 153 0.9473583599060706 0.32167446607823 0.9427629627234553
3 95 15 185 0.9473583599060706 0.32167446607823 0.9427629627234553
3 95 94 15 0.9473583599060706 0.32167446607823 0.9427629627234553
3 185 186 95 0.9473583599060706 0.32167446607823 0.9427629627234553
3 95 186 96 0.9473583599060706 0.32167446607823 0.9427629627234553
3 95 96 150 0.9473583599060706 0.32167446607823 0.9427629627234553
3 150 94 95 0.9473583599060706 0.32167446607823 0.9427629627234553
3 202 108 109 0.9473583599060706 0.32167446607823 0.9427629627234553
3 168 108 167 0.9473583599060706 0.32167446607823 0.9427629627234553
3 167 73 168 0.9473583599060706 0.32167446607823 0.9427629627234553
3 168 73 74 0.9473583599060706 0.32167446607823 0.9427629627234553
3 168 109 108 0.9473583599060706 0.32167446607823 0.9427629627234553
3 168 74 169 0.9473583599060706 0.32167446607823 0.9427629627234553
3 169 109 168 0.9473583599060706 0.32167446607823 0.9427629627234553
3 103 161 128 0.9473583599060706 0.32167446607823 0.9427629627234553
3 128 127 103 0.9473583599060706 0.32167446607823 0.9427629627234553
3 60 20 21 0.9473583599060706 0.32167446607823 0.9427629627234553
3 201 108 202 0.9473583599060706 0.32167446607823 0.9427629627234553
3 107 108 201 0.9473583599060706 0.32167446607823 0.9427629627234553
3 201 200 107 0.9473583599060706 0.32167446607823 0.9427629627234553
3 202 109 203 0.9473583599060706 0.32167446607823 0.9427629627234553
3 169 170 203 0.9473583599060706 0.32167446607823 0.9427629627234553
3 203 109 169 0.9473583599060706 0.32167446607823 0.9427629627234553
3 175 176 117 0.9473583599060706 0.32167446607823 0.9427629627234553
3 117 77 175 0.9473583599060706 0.32167446607823 0.9427629627234553
3 121 217 175 0.9473583599060706 0.32167446607823 0.9427629627234553
3 175 217 176 0.9473583599060706 0.32167446607823 0.9427629627234553
3 175 174 121 0.9473583599060706 0.32167446607823 0.9427629627234553
3 175 77 174 0.9473583599060706 0.32167446607823 0.9427629627234553
3 47 46 144 0.9473583599060706 0.32167446607823 0.9427629627234553
3 91 92 144 0.9473583599060706 0.32167446607823 0.9427629627234553
3 145 47 144 0.9473583599060706 0.32167446607823 0.9427629627234553
3 144 92 145 0.9473583599060706 0.32167446607823 0.9427629627234553
3 48 91 90 0.9473583599060706 0.32167446607823 0.9427629627234553
3 90 10 48 0.9473583599060706 0.32167446607823 0.9427629627234553
3 9 10 90 0.9473583599060706 0.32167446607823 0.9427629627234553
3 90 142 9 0.9473583599060706 0.32167446607823 0.9427629627234553
3 218 226 219 0.9473583599060706 0.32167446607823 0.9427629627234553
3 224 217 216 0.9473583599060706 0.32167446607823 0.9427629627234553
3 216 81 224 0.9473583599060706 0.32167446607823 0.9427629627234553
3 216 217 121 0.9473583599060706 0.32167446607823 0.9427629627234553
3 121 120 216 0.9473583599060706 0.32167446607823 0.9427629627234553
3 216 120 215 0.9473583599060706 0.32167446607823 0.9427629627234553
3 215 81 216 0.9473583599060706 0.32167446607823 0.9427629627234553
3 187 99 100 0.9473583599060706 0.32167446607823 0.9427629627234553
3 187 100 188 0.9473583599060706 0.32167446607823 0.9427629627234553
3 184 191 227 0.9473583599060706 0.32167446607823 0.9427629627234553
3 184 190 191 0.9473583599060706 0.32167446607823 0.9427629627234553
3 184 153 190 0.9473583599060706 0.32167446607823 0.9427629627234553
3 184 226 183 0.9473583599060706 0.32167446607823 0.9427629627234553
3 183 153 184 0.9473583599060706 0.32167446607823 0.9427629627234553
3 227 219 184 0.9473583599060706 0.32167446607823 0.9427629627234553
3 184 219 226 0.9473583599060706 0.32167446607823 0.9427629627234553
3 104 128 161 0.9473583599060706 0.32167446607823 0.9427629627234553
3 22 23 63 0.9473583599060706 0.32167446607823 0.9427629627234553
3 23 127 63 0.9473583599060706 0.32167446607823 0.9427629627234553
3 127 128 63 0.9473583599060706 0.32167446607823 0.9427629627234553
3 199 200 70 0.9473583599060706 0.32167446607823 0.9427629627234553
3 67 161 66 0.9473583599060706 0.32167446607823 0.9427629627234553
3 163 130 105 0.9473583599060706 0.32167446607823 0.9427629627234553
3 164 130 163 0.9473583599060706 0.32167446607823 0.9427629627234553
3 105 130 65 0.9473583599060706 0.32167446607823 0.9427629627234553
3 131 130 164 0.9473583599060706 0.32167446607823 0.9427629627234553
3 202 203 136 0.9473583599060706 0.32167446607823 0.9427629627234553
3 143 90 91 0.9473583599060706 0.32167446607823 0.9427629627234553
3 143 144 46 0.9473583599060706 0.32167446607823 0.9427629627234553
3 91 144 143 0.9473583599060706 0.32167446607823 0.9427629627234553
3 142 90 143 0.9473583599060706 0.32167446607823 0.9427629627234553
3 143 46 45 0.9473583599060706 0.32167446607823 0.9427629627234553
3 45 142 143 0.9473583599060706 0.32167446607823 0.9427629627234553
3 212 219 227 0.9473583599060706 0.32167446607823 0.9427629627234553
3 227 205 212 0.9473583599060706 0.32167446607823 0.9427629627234553
3 212 171 211 0.9473583599060706 0.32167446607823 0.9427629627234553
3 212 205 171 0.9473583599060706 0.32167446607823 0.9427629627234553
3 176 218 177 0.9473583599060706 0.32167446607823 0.9427629627234553
3 218 219 177 0.9473583599060706 0.32167446607823 0.9427629627234553
3 177 211 210 0.9473583599060706 0.32167446607823 0.9427629627234553
3 210 176 177 0.9473583599060706 0.32167446607823 0.9427629627234553
3 177 212 211 0.9473583599060706 0.32167446607823 0.9427629627234553
3 219 212 177 0.9473583599060706 0.32167446607823 0.9427629627234553
3 187 188 97 0.9473583599060706 0.32167446607823 0.9427629627234553
3 97 188 152 0.9473583599060706 0.32167446607823 0.9427629627234553
3 97 96 187 0.9473583599060706 0.32167446607823 0.9427629627234553
3 151 96 97 0.9473583599060706 0.32167446607823 0.9427629627234553
3 97 152 151 0.9473583599060706 0.32167446607823 0.9427629627234553
3 189 153 152 0.9473583599060706 0.32167446607823 0.9427629627234553
3 152 188 189 0.9473583599060706 0.32167446607823 0.9427629627234553
3 190 153 189 0.9473583599060706 0.32167446607823 0.9427629627234553
3 128 104 64 0.9473583599060706 0.32167446607823 0.9427629627234553
3 64 63 128 0.9473583599060706 0.32167446607823 0.9427629627234553
3 162 67 68 0.9473583599060706 0.32167446607823 0.9427629627234553
3 162 104 161 0.9473583599060706 0.32167446607823 0.9427629627234553
3 161 67 162 0.9473583599060706 0.32167446607823 0.9427629627234553
3 162 163 105 0.9473583599060706 0.32167446607823 0.9427629627234553
3 68 163 162 0.9473583599060706 0.32167446607823 0.9427629627234553
3 132 67 66 0.9473583599060706 0.32167446607823 0.9427629627234553
3 132 29 30 0.9473583599060706 0.32167446607823 0.9427629627234553
3 66 29 132 0.9473583599060706 0.32167446607823 0.9427629627234553
3 202 136 135 0.9473583599060706 0.32167446607823 0.9427629627234553
3 164 163 135 0.9473583599060706 0.32167446607823 0.9427629627234553
3 135 136 164 0.9473583599060706 0.32167446607823 0.9427629627234553
3 204 136 203 0.9473583599060706 0.32167446607823 0.9427629627234553
3 171 205 204 0.9473583599060706 0.32167446607823 0.9427629627234553
3 204 170 171 0.9473583599060706 0.32167446607823 0.9427629627234553
3 204 203 170 0.9473583599060706 0.32167446607823 0.9427629627234553
3 198 191 159 0.9473583599060706 0.32167446607823 0.9427629627234553
3 191 190 159 0.9473583599060706 0.32167446607823 0.9427629627234553
3 190 158 159 0.9473583599060706 0.32167446607823 0.9427629627234553
3 54 98 17 0.9473583599060706 0.32167446607823 0.9427629627234553
3 54 99 98 0.9473583599060706 0.32167446607823 0.9427629627234553
3 55 100 99 0.9473583599060706 0.32167446607823 0.9427629627234553
3 55 56 100 0.9473583599060706 0.32167446607823 0.9427629627234553
3 99 54 55 0.9473583599060706 0.32167446607823 0.9427629627234553
3 101 188 100 0.9473583599060706 0.32167446607823 0.9427629627234553
3 101 189 188 0.9473583599060706 0.32167446607823 0.9427629627234553
3 100 56 101 0.9473583599060706 0.32167446607823 0.9427629627234553
3 101 158 190 0.9473583599060706 0.32167446607823 0.9427629627234553
3 190 189 101 0.9473583599060706 0.32167446607823 0.9427629627234553
3 129 65 193 0.9473583599060706 0.32167446607823 0.9427629627234553
3 193 64 129 0.9473583599060706 0.32167446607823 0.9427629627234553
3 105 65 129 0.9473583599060706 0.32167446607823 0.9427629627234553
3 129 64 104 0.9473583599060706 0.32167446607823 0.9427629627234553
3 129 162 105 0.9473583599060706 0.32167446607823 0.9427629627234553
3 104 162 129 0.9473583599060706 0.32167446607823 0.9427629627234553
3 22 63 192 0.9473583599060706 0.32167446607823 0.9427629627234553
3 63 64 192 0.9473583599060706 0.32167446607823 0.9427629627234553
3 192 21 22 0.9473583599060706 0.32167446607823 0.9427629627234553
3 192 64 193 0.9473583599060706 0.32167446607823 0.9427629627234553
3 192 60 21 0.9473583599060706 0.32167446607823 0.9427629627234553
3 193 60 192 0.9473583599060706 0.32167446607823 0.9427629627234553
3 67 132 133 0.9473583599060706 0.32167446607823 0.9427629627234553
3 68 67 133 0.9473583599060706 0.32167446607823 0.9427629627234553
3 199 70 69 0.9473583599060706 0.32167446607823 0.9427629627234553
3 69 132 30 0.9473583599060706 0.32167446607823 0.9427629627234553
3 70 133 69 0.9473583599060706 0.32167446607823 0.9427629627234553
3 69 133 132 0.9473583599060706 0.32167446607823 0.9427629627234553
3 69 31 199 0.9473583599060706 0.32167446607823 0.9427629627234553
3 30 31 69 0.9473583599060706 0.32167446607823 0.9427629627234553
3 134 163 68 0.9473583599060706 0.32167446607823 0.9427629627234553
3 134 135 163 0.9473583599060706 0.32167446607823 0.9427629627234553
3 68 133 134 0.9473583599060706 0.32167446607823 0.9427629627234553
3 134 133 70 0.9473583599060706 0.32167446607823 0.9427629627234553
3 158 101 157 0.9473583599060706 0.32167446607823 0.9427629627234553
3 157 101 56 0.9473583599060706 0.32167446607823 0.9427629627234553
3 126 158 157 0.9473583599060706 0.32167446607823 0.9427629627234553
3 136 204 165 0.9473583599060706 0.32167446607823 0.9427629627234553
3 164 136 165 0.9473583599060706 0.32167446607823 0.9427629627234553
3 165 131 164 0.9473583599060706 0.32167446607823 0.9427629627234553
3 165 196 131 0.9473583599060706 0.32167446607823 0.9427629627234553
3 154 17 18 0.9473583599060706 0.32167446607823 0.9427629627234553
3 154 54 17 0.9473583599060706 0.32167446607823 0.9427629627234553
3 71 134 70 0.9473583599060706 0.32167446607823 0.9427629627234553
3 200 201 71 0.9473583599060706 0.32167446607823 0.9427629627234553
3 71 70 200 0.9473583599060706 0.32167446607823 0.9427629627234553
3 135 134 71 0.9473583599060706 0.32167446607823 0.9427629627234553
3 71 201 202 0.9473583599060706 0.32167446607823 0.9427629627234553
3 202 135 71 0.9473583599060706 0.32167446607823 0.9427629627234553
3 193 65 194 0.9473583599060706 0.32167446607823 0.9427629627234553
3 194 65 130 0.9473583599060706 0.32167446607823 0.9427629627234553
3 125 196 126 0.9473583599060706 0.32167446607823 0.9427629627234553
3 126 157 125 0.9473583599060706 0.32167446607823 0.9427629627234553
3 125 157 59 0.9473583599060706 0.32167446607823 0.9427629627234553
3 57 18 19 0.9473583599060706 0.32167446607823 0.9427629627234553
3 57 154 18 0.9473583599060706 0.32167446607823 0.9427629627234553
3 57 58 154 0.9473583599060706 0.32167446607823 0.9427629627234553
3 58 57 123 0.9473583599060706 0.32167446607823 0.9427629627234553
3 156 157 56 0.9473583599060706 0.32167446607823 0.9427629627234553
3 59 157 156 0.9473583599060706 0.32167446607823 0.9427629627234553
3 56 55 156 0.9473583599060706 0.32167446607823 0.9427629627234553
3 197 204 205 0.9473583599060706 0.32167446607823 0.9427629627234553
3 197 165 204 0.9473583599060706 0.32167446607823 0.9427629627234553
3 197 205 198 0.9473583599060706 0.32167446607823 0.9427629627234553
3 198 159 197 0.9473583599060706 0.32167446607823 0.9427629627234553
3 126 196 197 0.9473583599060706 0.32167446607823 0.9427629627234553
3 196 165 197 0.9473583599060706 0.32167446607823 0.9427629627234553
3 197 158 126 0.9473583599060706 0.32167446607823 0.9427629627234553
3 197 159 158 0.9473583599060706 0.32167446607823 0.9427629627234553
3 155 55 54 0.9473583599060706 0.32167446607823 0.9427629627234553
3 54 154 155 0.9473583599060706 0.32167446607823 0.9427629627234553
3 155 156 55 0.9473583599060706 0.32167446607823 0.9427629627234553
3 154 58 155 0.9473583599060706 0.32167446607823 0.9427629627234553
3 155 58 59 0.9473583599060706 0.32167446607823 0.9427629627234553
3 59 156 155 0.9473583599060706 0.32167446607823 0.9427629627234553
3 61 60 193 0.9473583599060706 0.32167446607823 0.9427629627234553
3 193 194 61 0.9473583599060706 0.32167446607823 0.9427629627234553
3 61 194 62 0.9473583599060706 0.32167446607823 0.9427629627234553
3 62 123 61 0.9473583599060706 0.32167446607823 0.9427629627234553
3 62 194 195 0.9473583599060706 0.32167446607823 0.9427629627234553
3 131 196 195 0.9473583599060706 0.32167446607823 0.9427629627234553
3 130 131 195 0.9473583599060706 0.32167446607823 0.9427629627234553
3 195 194 130 0.9473583599060706 0.32167446607823 0.9427629627234553
3 196 125 195 0.9473583599060706 0.32167446607823 0.9427629627234553
3 59 58 124 0.9473583599060706 0.32167446607823 0.9427629627234553
3 124 125 59 0.9473583599060706 0.32167446607823 0.9427629627234553
3 124 123 62 0.9473583599060706 0.32167446607823 0.9427629627234553
3 58 123 124 0.9473583599060706 0.32167446607823 0.9427629627234553
3 62 195 124 0.9473583599060706 0.32167446607823 0.9427629627234553
3 124 195 125 0.9473583599060706 0.32167446607823 0.9427629627234553
3 20 60 122 0.9473583599060706 0.32167446607823 0.9427629627234553
3 60 61 122 0.9473583599060706 0.32167446607823 0.9427629627234553
3 122 61 123 0.9473583599060706 0.32167446607823 0.9427629627234553
3 19 20 122 0.9473583599060706 0.32167446607823 0.9427629627234553
3 122 57 19 0.9473583599060706 0.32167446607823 0.9427629627234553
3 122 123 57 0.9473583599060706 0.32167446607823 0.9427629627234553
