OFF
31 23 0


30.6936 34.7246 6.8151
30.6936 34.7246 6.8151
30.6705 34.7312 6.8806
30.6474 34.7377 6.946
30.6243 34.7443 7.0115
30.6011 34.7508 7.0769
30.6011 34.7508 7.0769
30.5963 34.7652 7.2103
30.5933 34.776 7.3117
30.5913 34.7854 7.3987
30.5899 34.7943 7.4815
30.5888 34.8037 7.5685
30.5882 34.8147 7.6699
30.5884 34.8291 7.8033
30.5884 34.8291 7.8033
30.5973 34.8328 7.8361
30.6064 34.8366 7.8687
30.6064 34.8366 7.8687
30.645 34.8246 7.7505
30.6746 34.8139 7.6451
30.6978 34.804 7.5486
30.7159 34.7946 7.4578
30.7301 34.7854 7.3702
30.7411 34.7763 7.2833
30.749 34.7669 7.195
30.7541 34.7571 7.1029
30.7562 34.7465 7.004
30.7548 34.7346 6.8948
30.6936 34.7246 6.8151
30.6936 34.7246 6.8151
30.7212 34.7228 6.7926
3 3 27 26 0.4528247839543943 0.32930174488338027 0.9360869277878914
3 11 19 12 0.4528247839543943 0.32930174488338027 0.9360869277878914
3 25 24 5 0.4528247839543943 0.32930174488338027 0.9360869277878914
3 21 9 22 0.4528247839543943 0.32930174488338027 0.9360869277878914
3 5 24 7 0.4528247839543943 0.32930174488338027 0.9360869277878914
3 27 3 2 0.4528247839543943 0.32930174488338027 0.9360869277878914
3 4 3 26 0.4528247839543943 0.32930174488338027 0.9360869277878914
3 26 25 4 0.4528247839543943 0.32930174488338027 0.9360869277878914
3 4 25 5 0.4528247839543943 0.32930174488338027 0.9360869277878914
3 19 11 20 0.4528247839543943 0.32930174488338027 0.9360869277878914
3 18 14 12 0.4528247839543943 0.32930174488338027 0.9360869277878914
3 12 19 18 0.4528247839543943 0.32930174488338027 0.9360869277878914
3 10 9 21 0.4528247839543943 0.32930174488338027 0.9360869277878914
3 21 20 10 0.4528247839543943 0.32930174488338027 0.9360869277878914
3 10 20 11 0.4528247839543943 0.32930174488338027 0.9360869277878914
3 8 22 9 0.4528247839543943 0.32930174488338027 0.9360869277878914
3 30 27 0 0.4528247839543943 0.32930174488338027 0.9360869277878914
3 27 2 0 0.4528247839543943 0.32930174488338027 0.9360869277878914
3 15 18 16 0.4528247839543943 0.32930174488338027 0.9360869277878914
3 14 18 15 0.4528247839543943 0.32930174488338027 0.9360869277878914
3 23 7 24 0.4528247839543943 0.32930174488338027 0.9360869277878914
3 23 8 7 0.4528247839543943 0.32930174488338027 0.9360869277878914
3 22 8 23 0.4528247839543943 0.32930174488338027 0.9360869277878914
