OFF
556 1011 0


30.3908 32.7719 7.6252
30.3908 32.7719 7.6252
30.3889 32.7921 7.7662
30.3883 32.8075 7.871
30.3883 32.821 7.9621
30.3889 32.8347 8.0533
30.3902 32.8507 8.1579
30.393 32.8726 8.2987
30.393 32.8726 8.2987
30.3994 32.9728 8.396
30.405 33.0469 8.4689
30.4104 33.1112 8.5328
30.4162 33.1751 8.597
30.4235 33.2481 8.6709
30.4343 33.3454 8.7708
30.4343 33.3454 8.7708
30.4466 33.4789 8.8216
30.4577 33.59 8.8634
30.468 33.6864 8.8995
30.4779 33.7735 8.9318
30.4875 33.855 8.9619
30.4972 33.9339 8.9908
30.5073 34.0127 9.0196
30.518 34.0941 9.0492
30.5299 34.1812 9.0806
30.5436 34.2776 9.1152
30.5599 34.3888 9.1549
30.5803 34.5229 9.2024
30.5803 34.5229 9.2024
30.5797 34.5783 9.0514
30.5795 34.6182 8.9347
30.5795 34.6492 8.8378
30.5797 34.6749 8.7527
30.58 34.6973 8.6741
30.5803 34.7176 8.5986
30.5809 34.7367 8.5228
30.5815 34.7552 8.4437
30.5824 34.7738 8.3573
30.5836 34.7931 8.258
30.5854 34.8134 8.1367
30.5883 34.835 7.9752
30.5883 34.835 7.9752
30.5881 34.8322 7.8893
30.5884 34.8291 7.8033
30.5882 34.8147 7.6699
30.5888 34.8037 7.5685
30.5899 34.7943 7.4815
30.5913 34.7854 7.3987
30.5933 34.776 7.3117
30.5963 34.7652 7.2103
30.6011 34.7508 7.0769
30.6011 34.7508 7.0769
30.5799 34.6345 7.1342
30.561 34.5261 7.1852
30.5439 34.424 7.231
30.5285 34.3268 7.2724
30.5144 34.2334 7.3101
30.5014 34.143 7.3445
30.4895 34.0545 7.3761
30.4785 33.9674 7.4053
30.4683 33.881 7.4322
30.4587 33.7947 7.4571
30.4498 33.7078 7.4802
30.4415 33.6196 7.5017
30.4337 33.5297 7.5216
30.4264 33.4371 7.5402
30.4195 33.3412 7.5574
30.413 33.241 7.5733
30.4069 33.1354 7.5881
30.4012 33.0232 7.6016
30.3958 32.9027 7.614
30.3908 32.7719 7.6252
30.5665 34.6207 8.6165
30.5543 34.549 8.5624
30.543 34.4814 8.5114
30.5678 34.6583 8.4819
30.5557 34.5845 8.4431
30.5446 34.5145 8.4064
30.4839 33.8644 8.8759
30.4808 33.8732 8.7949
30.4781 33.8815 8.7182
30.4758 33.8893 8.6454
30.5015 34.006 8.9256
30.4963 33.9997 8.8375
30.4917 33.9938 8.7546
30.4876 33.9881 8.6763
30.5213 34.1563 8.9769
30.5136 34.1332 8.8807
30.5067 34.1116 8.7908
30.5005 34.0913 8.7065
30.566 34.5994 8.6859
30.5536 34.5289 8.6235
30.5422 34.4628 8.565
30.5317 34.4004 8.5097
30.5695 34.694 8.3334
30.5575 34.6182 8.3107
30.5464 34.546 8.2889
30.5361 34.477 8.2681
30.5748 34.7502 7.91
30.5624 34.672 7.9296
30.5508 34.5971 7.9483
30.54 34.525 7.9661
30.5765 34.7075 7.4657
30.563 34.6338 7.5288
30.5506 34.5636 7.5887
30.5392 34.4963 7.646
30.3926 32.9298 7.9769
30.3971 33.0318 7.9907
30.4018 33.1283 8.0035
30.4068 33.2201 8.0156
30.4121 33.3081 8.027
30.4137 33.1921 8.4921
30.4173 33.2687 8.4535
30.4209 33.3414 8.4168
30.4248 33.4108 8.3815
30.4287 33.4773 8.3476
30.4665 33.7124 8.8212
30.4653 33.7368 8.7471
30.4643 33.76 8.6768
30.4636 33.782 8.6097
30.4631 33.803 8.5456
30.5471 34.3394 9.0378
30.5357 34.2943 8.9306
30.5256 34.2525 8.8317
30.5166 34.2138 8.7398
30.5085 34.1776 8.6539
30.5655 34.575 8.7608
30.5529 34.506 8.6892
30.5413 34.4416 8.6222
30.5308 34.381 8.5592
30.5212 34.3238 8.4997
30.5755 34.7161 7.5402
30.5624 34.6419 7.5958
30.5503 34.5711 7.6486
30.5391 34.503 7.6992
30.5288 34.4371 7.7479
30.5799 34.6872 7.2974
30.5652 34.6142 7.3787
30.5519 34.5453 7.4551
30.5398 34.4795 7.5277
30.5288 34.4164 7.5971
30.4863 34.0463 7.4331
30.4833 34.0382 7.4893
30.4806 34.0301 7.5448
30.4782 34.022 7.5999
30.476 34.0139 7.6548
30.4669 33.8862 7.4836
30.4658 33.8912 7.5346
30.4649 33.8962 7.5853
30.4641 33.9011 7.6358
30.4636 33.906 7.6863
30.4499 33.726 7.528
30.4502 33.7441 7.5753
30.4507 33.762 7.6224
30.4513 33.7799 7.6693
30.4522 33.7978 7.7162
30.4349 33.5621 7.5672
30.4363 33.5941 7.6121
30.4378 33.6257 7.6566
30.4397 33.6572 7.7008
30.4417 33.6885 7.7447
30.3923 32.9176 7.8946
30.3967 33.0208 7.9166
30.4013 33.1182 7.9372
30.4062 33.2109 7.9567
30.4114 33.2997 7.9752
30.417 33.3853 7.9929
30.3946 32.9576 8.1537
30.3992 33.0579 8.1496
30.4041 33.1526 8.1456
30.4091 33.2427 8.1417
30.4144 33.329 8.1377
30.4199 33.412 8.1338
30.4087 33.1342 8.4344
30.4126 33.2166 8.4017
30.4166 33.2949 8.3705
30.4208 33.3695 8.3407
30.4252 33.441 8.3119
30.4297 33.5098 8.2841
30.4259 33.3163 8.6164
30.4284 33.3807 8.5648
30.4312 33.4419 8.5156
30.434 33.5003 8.4686
30.437 33.5562 8.4234
30.4401 33.6099 8.3798
30.4571 33.6253 8.7892
30.4568 33.6586 8.7188
30.4568 33.6902 8.652
30.4569 33.7203 8.5881
30.4573 33.7491 8.527
30.4579 33.7766 8.4683
30.5651 34.5456 8.8454
30.5521 34.4785 8.7629
30.5404 34.4162 8.6861
30.5298 34.358 8.6143
30.5201 34.3032 8.5468
30.5113 34.2514 8.4829
30.5749 34.725 7.6188
30.562 34.6501 7.6666
30.5502 34.5784 7.712
30.5392 34.5095 7.7556
30.5289 34.4427 7.7977
30.5194 34.3778 7.8384
30.5655 34.5707 7.2263
30.5525 34.5106 7.3126
30.5408 34.4536 7.3943
30.5301 34.3989 7.4722
30.5204 34.3462 7.5471
30.5116 34.2949 7.6196
30.5346 34.3833 7.307
30.526 34.3441 7.38
30.5181 34.3062 7.4504
30.5109 34.2691 7.5188
30.5042 34.2329 7.5856
30.4981 34.1971 7.6511
30.5086 34.2105 7.3749
30.5032 34.1881 7.4382
30.4983 34.166 7.5002
30.4937 34.1442 7.5611
30.4895 34.1225 7.6213
30.4856 34.101 7.681
30.4215 33.3902 7.602
30.4237 33.4381 7.6457
30.4262 33.485 7.6884
30.429 33.5313 7.7305
30.432 33.5771 7.7721
30.4352 33.6226 7.8133
30.4095 33.2052 7.6331
30.4125 33.2724 7.6764
30.4157 33.3374 7.7182
30.4192 33.4007 7.7588
30.423 33.4626 7.7985
30.4271 33.5235 7.8374
30.3989 33.0003 7.6608
30.4023 33.0922 7.7048
30.406 33.1795 7.7464
30.4102 33.263 7.7861
30.4147 33.3435 7.8241
30.4196 33.4216 7.861
30.3926 32.9043 7.8002
30.3967 33.009 7.8318
30.4011 33.1077 7.8613
30.4058 33.2015 7.8893
30.4109 33.2912 7.9159
30.4164 33.3777 7.9414
30.4222 33.4616 7.966
30.4035 33.0678 8.3685
30.4077 33.1573 8.3424
30.4121 33.242 8.3176
30.4166 33.3227 8.2938
30.4213 33.3999 8.271
30.4262 33.4743 8.2488
30.4313 33.5461 8.2272
30.447 33.5251 8.7516
30.4477 33.5686 8.6854
30.4485 33.61 8.6224
30.4496 33.6494 8.5623
30.4508 33.687 8.5047
30.4522 33.7231 8.4493
30.4538 33.7579 8.3959
30.5647 34.5081 8.9465
30.5513 34.4437 8.8503
30.5393 34.3842 8.7614
30.5285 34.329 8.6788
30.5188 34.2773 8.6016
30.51 34.2287 8.5289
30.502 34.1828 8.4601
30.5724 34.7318 8.1343
30.5603 34.654 8.1319
30.549 34.5797 8.1295
30.5384 34.5082 8.1271
30.5285 34.4394 8.1247
30.5192 34.3727 8.1223
30.5104 34.3079 8.1199
30.5746 34.735 7.7108
30.562 34.6591 7.7496
30.5503 34.5864 7.7866
30.5394 34.5163 7.822
30.5292 34.4485 7.8562
30.5197 34.3825 7.8894
30.5108 34.3181 7.9216
30.4926 33.9353 8.9009
30.4885 33.9366 8.8165
30.4848 33.9378 8.7367
30.4816 33.9389 8.6612
30.4788 33.9399 8.5893
30.4763 33.9409 8.5207
30.4741 33.9417 8.4549
30.4722 33.9425 8.3917
30.5331 34.2417 9.0055
30.5238 34.2085 8.9043
30.5154 34.1777 8.8103
30.508 34.1489 8.7225
30.5012 34.1218 8.64
30.4952 34.0962 8.5621
30.4897 34.072 8.4883
30.4848 34.0488 8.418
30.5686 34.6761 8.411
30.5566 34.6013 8.38
30.5455 34.5302 8.3505
30.5351 34.4624 8.3223
30.5255 34.3974 8.2952
30.5164 34.3349 8.2691
30.508 34.2747 8.2439
30.5 34.2163 8.2194
30.5749 34.7477 7.8319
30.5624 34.6701 7.8591
30.5508 34.5958 7.885
30.54 34.5242 7.9098
30.5298 34.4549 7.9336
30.5203 34.3876 7.9567
30.5113 34.3219 7.9791
30.5028 34.2574 8.0009
30.4357 33.4049 8.7057
30.4374 33.4609 8.6442
30.4392 33.5141 8.5857
30.4412 33.5647 8.53
30.4434 33.613 8.4766
30.4457 33.6593 8.4252
30.4482 33.7039 8.3757
30.4509 33.747 8.3277
30.4537 33.7887 8.2811
30.5833 34.6723 7.1797
30.5675 34.5995 7.2746
30.5533 34.5312 7.3633
30.5406 34.4664 7.4469
30.5291 34.4045 7.5265
30.5187 34.3448 7.603
30.5092 34.2867 7.677
30.5005 34.2297 7.7493
30.4925 34.1734 7.8205
30.521 34.2955 7.3424
30.5142 34.2651 7.4101
30.5079 34.2354 7.476
30.5021 34.2062 7.5405
30.4967 34.1774 7.6038
30.4917 34.1489 7.6663
30.4871 34.1205 7.7283
30.4829 34.0921 7.79
30.479 34.0636 7.8517
30.4763 33.966 7.4592
30.4743 33.9645 7.5126
30.4725 33.963 7.5655
30.471 33.9615 7.6182
30.4697 33.9599 7.6708
30.4686 33.9583 7.7233
30.4676 33.9567 7.7761
30.4669 33.955 7.8291
30.4664 33.9532 7.8827
30.4422 33.6448 7.5482
30.443 33.6696 7.5942
30.4441 33.6943 7.6398
30.4454 33.7188 7.6853
30.4468 33.7433 7.7306
30.4485 33.7679 7.776
30.4504 33.7924 7.8215
30.4525 33.8172 7.8673
30.4548 33.8421 7.9134
30.4154 33.2997 7.618
30.418 33.3567 7.6613
30.4208 33.4123 7.7035
30.424 33.4667 7.7448
30.4274 33.5203 7.7854
30.4311 33.5733 7.8254
30.4351 33.6259 7.8651
30.4395 33.6783 7.9045
30.4441 33.7308 7.944
30.394 32.8874 7.6735
30.3975 32.9948 7.7182
30.4016 33.0954 7.76
30.406 33.1907 7.7994
30.4108 33.2817 7.8368
30.416 33.3692 7.8727
30.4217 33.4542 7.9073
30.4278 33.5372 7.9411
30.4344 33.619 7.9742
30.3973 32.9788 8.2805
30.4019 33.0783 8.2633
30.4066 33.1721 8.247
30.4115 33.2612 8.2313
30.4167 33.3462 8.2162
30.422 33.4278 8.2016
30.4275 33.5066 8.1873
30.4333 33.5831 8.1733
30.4394 33.6577 8.1595
30.4457 33.7309 8.1458
30.5109 34.0788 8.9506
30.5046 34.0645 8.8587
30.4989 34.0511 8.7724
30.4938 34.0384 8.6912
30.4892 34.0263 8.6144
30.4851 34.0148 8.5414
30.4814 34.0039 8.4717
30.4781 33.9933 8.405
30.4752 33.9832 8.3409
30.4726 33.9734 8.2791
30.5707 34.7124 8.2439
30.5587 34.6357 8.2305
30.5476 34.5624 8.2175
30.5371 34.4922 8.205
30.5274 34.4246 8.193
30.5182 34.3594 8.1812
30.5095 34.2962 8.1698
30.5014 34.2347 8.1586
30.4936 34.1747 8.1476
30.4863 34.116 8.1367
30.5493 34.4747 7.2685
30.5387 34.4258 7.3476
30.5291 34.3788 7.4233
30.5202 34.3333 7.4961
30.5121 34.2891 7.5667
30.5047 34.2457 7.6356
30.4978 34.203 7.7032
30.4915 34.1607 7.7699
30.4856 34.1185 7.8362
30.4803 34.0761 7.9024
30.3933 32.9425 8.0593
30.3979 33.0436 8.0647
30.4027 33.1392 8.0698
30.4077 33.2302 8.0744
30.413 33.3174 8.0787
30.4186 33.4014 8.0827
30.4244 33.4829 8.0864
30.4306 33.5624 8.0899
30.437 33.6403 8.0932
30.4438 33.7172 8.0964
30.451 33.7934 8.0993
30.4753 33.791 8.8497
30.4732 33.8074 8.7721
30.4713 33.8229 8.6985
30.4698 33.8376 8.6285
30.4686 33.8515 8.5617
30.4676 33.8649 8.4976
30.4668 33.8777 8.436
30.4663 33.89 8.3766
30.4659 33.9018 8.3192
30.4658 33.9132 8.2635
30.4659 33.9243 8.2093
30.5671 34.6401 8.5494
30.555 34.5672 8.5031
30.5438 34.4984 8.4593
30.5334 34.433 8.4176
30.5238 34.3708 8.3779
30.5149 34.3112 8.3398
30.5066 34.2539 8.3032
30.4988 34.1988 8.2678
30.4915 34.1454 8.2336
30.4847 34.0936 8.2003
30.4782 34.0431 8.1678
30.5779 34.6983 7.3877
30.5638 34.625 7.4591
30.5511 34.5554 7.5265
30.5394 34.4888 7.5908
30.5287 34.4247 7.6525
30.5188 34.3625 7.7121
30.5097 34.3017 7.7701
30.5012 34.2419 7.8269
30.4933 34.1828 7.8828
30.4859 34.124 7.9382
30.479 34.0651 7.9934
30.4582 33.8063 7.5065
30.4578 33.8178 7.5555
30.4576 33.8292 7.6042
30.4576 33.8406 7.6529
30.4578 33.852 7.7014
30.4582 33.8633 7.7501
30.4587 33.8747 7.799
30.4595 33.8862 7.8483
30.4605 33.8977 7.8981
30.4617 33.9094 7.9485
30.4631 33.9212 7.9996
30.4041 33.1058 7.6474
30.4072 33.1845 7.6909
30.4108 33.26 7.7325
30.4146 33.3329 7.7726
30.4188 33.4037 7.8114
30.4233 33.4729 7.8492
30.4282 33.5409 7.8863
30.4335 33.6082 7.9229
30.4391 33.675 7.9591
30.4452 33.7417 7.9952
30.4518 33.8088 8.0314
30.4192 33.25 8.55
30.4223 33.3208 8.5054
30.4255 33.3881 8.4629
30.4289 33.4524 8.4222
30.4325 33.5139 8.3831
30.4362 33.5732 8.3453
30.44 33.6304 8.3087
30.444 33.686 8.273
30.4482 33.74 8.2383
30.4525 33.7928 8.2042
30.457 33.8445 8.1706
30.4616 33.8953 8.1376
30.5644 34.4563 9.0758
30.5503 34.3959 8.9609
30.538 34.3407 8.8559
30.5269 34.2898 8.7591
30.5171 34.2425 8.6693
30.5083 34.1984 8.5854
30.5004 34.1569 8.5065
30.4932 34.1176 8.4319
30.4868 34.0803 8.361
30.4809 34.0447 8.2933
30.4756 34.0105 8.2283
30.4708 33.9775 8.1656
30.5749 34.7522 7.988
30.5625 34.6733 8.0
30.5509 34.5977 8.0115
30.5401 34.525 8.0223
30.53 34.4548 8.0328
30.5205 34.3867 8.0427
30.5115 34.3205 8.0524
30.503 34.2557 8.0617
30.4949 34.1922 8.0707
30.4873 34.1296 8.0795
30.48 34.0678 8.0881
30.4731 34.0065 8.0965
30.497 34.1277 7.4051
30.4929 34.1126 7.4645
30.4892 34.0977 7.5231
30.4858 34.0828 7.5809
30.4826 34.0681 7.6383
30.4797 34.0533 7.6954
30.4771 34.0385 7.7525
30.4747 34.0236 7.8097
30.4726 34.0085 7.8672
30.4707 33.9932 7.9253
30.4691 33.9777 7.9841
30.4677 33.9618 8.0438
30.428 33.4774 7.5851
30.4298 33.517 7.6293
30.4319 33.5561 7.6728
30.4342 33.5948 7.7158
30.4367 33.6331 7.7585
30.4395 33.6714 7.801
30.4425 33.7096 7.8435
30.4458 33.7479 7.886
30.4493 33.7865 7.9288
30.4531 33.8253 7.9719
30.4573 33.8647 8.0155
30.4617 33.9047 8.0597
30.394 32.8874 7.6735
30.3975 32.9948 7.7182
30.4016 33.0954 7.76
30.406 33.1907 7.7994
30.4108 33.2817 7.8368
30.416 33.3692 7.8727
30.4217 33.4542 7.9073
30.4278 33.5372 7.9411
30.4344 33.619 7.9742
30.4415 33.7001 8.0068
30.4492 33.7812 8.0394
30.4575 33.8628 8.0719
30.4665 33.9455 8.1048
30.4665 33.9455 8.1048
3 93 129 130 0.4897473803344743 0.2887043024053334 0.5426629707323243
3 49 322 50 0.4897473803344743 0.2887043024053334 0.5426629707323243
3 50 322 52 0.4897473803344743 0.2887043024053334 0.5426629707323243
3 92 129 93 0.4897473803344743 0.2887043024053334 0.5426629707323243
3 121 26 25 0.4897473803344743 0.2887043024053334 0.5426629707323243
3 24 289 25 0.4897473803344743 0.2887043024053334 0.5426629707323243
3 25 289 121 0.4897473803344743 0.2887043024053334 0.5426629707323243
3 494 26 121 0.4897473803344743 0.2887043024053334 0.5426629707323243
3 27 26 494 0.4897473803344743 0.2887043024053334 0.5426629707323243
3 192 193 127 0.4897473803344743 0.2887043024053334 0.5426629707323243
3 127 126 192 0.4897473803344743 0.2887043024053334 0.5426629707323243
3 86 289 24 0.4897473803344743 0.2887043024053334 0.5426629707323243
3 444 302 443 0.4897473803344743 0.2887043024053334 0.5426629707323243
3 303 302 444 0.4897473803344743 0.2887043024053334 0.5426629707323243
3 541 529 554 0.4897473803344743 0.2887043024053334 0.5426629707323243
3 56 55 331 0.4897473803344743 0.2887043024053334 0.5426629707323243
3 331 215 56 0.4897473803344743 0.2887043024053334 0.5426629707323243
3 267 39 38 0.4897473803344743 0.2887043024053334 0.5426629707323243
3 270 271 510 0.4897473803344743 0.2887043024053334 0.5426629707323243
3 214 411 412 0.4897473803344743 0.2887043024053334 0.5426629707323243
3 309 510 310 0.4897473803344743 0.2887043024053334 0.5426629707323243
3 40 98 42 0.4897473803344743 0.2887043024053334 0.5426629707323243
3 506 98 40 0.4897473803344743 0.2887043024053334 0.5426629707323243
3 99 98 506 0.4897473803344743 0.2887043024053334 0.5426629707323243
3 40 39 506 0.4897473803344743 0.2887043024053334 0.5426629707323243
3 39 267 506 0.4897473803344743 0.2887043024053334 0.5426629707323243
3 269 508 268 0.4897473803344743 0.2887043024053334 0.5426629707323243
3 539 540 481 0.4897473803344743 0.2887043024053334 0.5426629707323243
3 539 469 540 0.4897473803344743 0.2887043024053334 0.5426629707323243
3 521 143 520 0.4897473803344743 0.2887043024053334 0.5426629707323243
3 62 61 151 0.4897473803344743 0.2887043024053334 0.5426629707323243
3 60 59 340 0.4897473803344743 0.2887043024053334 0.5426629707323243
3 12 11 111 0.4897473803344743 0.2887043024053334 0.5426629707323243
3 111 11 173 0.4897473803344743 0.2887043024053334 0.5426629707323243
3 480 539 481 0.4897473803344743 0.2887043024053334 0.5426629707323243
3 538 539 480 0.4897473803344743 0.2887043024053334 0.5426629707323243
3 18 17 185 0.4897473803344743 0.2887043024053334 0.5426629707323243
3 185 116 18 0.4897473803344743 0.2887043024053334 0.5426629707323243
3 383 424 384 0.4897473803344743 0.2887043024053334 0.5426629707323243
3 423 424 383 0.4897473803344743 0.2887043024053334 0.5426629707323243
3 383 382 423 0.4897473803344743 0.2887043024053334 0.5426629707323243
3 252 382 383 0.4897473803344743 0.2887043024053334 0.5426629707323243
3 57 518 58 0.4897473803344743 0.2887043024053334 0.5426629707323243
3 56 215 57 0.4897473803344743 0.2887043024053334 0.5426629707323243
3 215 518 57 0.4897473803344743 0.2887043024053334 0.5426629707323243
3 8 167 376 0.4897473803344743 0.2887043024053334 0.5426629707323243
3 376 9 8 0.4897473803344743 0.2887043024053334 0.5426629707323243
3 246 9 376 0.4897473803344743 0.2887043024053334 0.5426629707323243
3 6 167 8 0.4897473803344743 0.2887043024053334 0.5426629707323243
3 38 37 94 0.4897473803344743 0.2887043024053334 0.5426629707323243
3 74 92 93 0.4897473803344743 0.2887043024053334 0.5426629707323243
3 73 92 74 0.4897473803344743 0.2887043024053334 0.5426629707323243
3 129 92 128 0.4897473803344743 0.2887043024053334 0.5426629707323243
3 127 193 128 0.4897473803344743 0.2887043024053334 0.5426629707323243
3 438 35 34 0.4897473803344743 0.2887043024053334 0.5426629707323243
3 31 126 32 0.4897473803344743 0.2887043024053334 0.5426629707323243
3 191 260 261 0.4897473803344743 0.2887043024053334 0.5426629707323243
3 261 192 191 0.4897473803344743 0.2887043024053334 0.5426629707323243
3 191 192 126 0.4897473803344743 0.2887043024053334 0.5426629707323243
3 30 260 191 0.4897473803344743 0.2887043024053334 0.5426629707323243
3 191 31 30 0.4897473803344743 0.2887043024053334 0.5426629707323243
3 126 31 191 0.4897473803344743 0.2887043024053334 0.5426629707323243
3 127 128 91 0.4897473803344743 0.2887043024053334 0.5426629707323243
3 91 92 73 0.4897473803344743 0.2887043024053334 0.5426629707323243
3 91 128 92 0.4897473803344743 0.2887043024053334 0.5426629707323243
3 90 33 32 0.4897473803344743 0.2887043024053334 0.5426629707323243
3 32 126 90 0.4897473803344743 0.2887043024053334 0.5426629707323243
3 90 126 127 0.4897473803344743 0.2887043024053334 0.5426629707323243
3 127 91 90 0.4897473803344743 0.2887043024053334 0.5426629707323243
3 27 494 29 0.4897473803344743 0.2887043024053334 0.5426629707323243
3 29 260 30 0.4897473803344743 0.2887043024053334 0.5426629707323243
3 29 494 260 0.4897473803344743 0.2887043024053334 0.5426629707323243
3 82 22 21 0.4897473803344743 0.2887043024053334 0.5426629707323243
3 289 86 290 0.4897473803344743 0.2887043024053334 0.5426629707323243
3 23 86 24 0.4897473803344743 0.2887043024053334 0.5426629707323243
3 495 496 261 0.4897473803344743 0.2887043024053334 0.5426629707323243
3 261 260 495 0.4897473803344743 0.2887043024053334 0.5426629707323243
3 495 494 121 0.4897473803344743 0.2887043024053334 0.5426629707323243
3 260 494 495 0.4897473803344743 0.2887043024053334 0.5426629707323243
3 82 21 281 0.4897473803344743 0.2887043024053334 0.5426629707323243
3 88 292 291 0.4897473803344743 0.2887043024053334 0.5426629707323243
3 88 387 388 0.4897473803344743 0.2887043024053334 0.5426629707323243
3 291 292 124 0.4897473803344743 0.2887043024053334 0.5426629707323243
3 262 263 193 0.4897473803344743 0.2887043024053334 0.5426629707323243
3 261 496 262 0.4897473803344743 0.2887043024053334 0.5426629707323243
3 262 192 261 0.4897473803344743 0.2887043024053334 0.5426629707323243
3 193 192 262 0.4897473803344743 0.2887043024053334 0.5426629707323243
3 129 128 194 0.4897473803344743 0.2887043024053334 0.5426629707323243
3 193 263 194 0.4897473803344743 0.2887043024053334 0.5426629707323243
3 194 128 193 0.4897473803344743 0.2887043024053334 0.5426629707323243
3 303 444 445 0.4897473803344743 0.2887043024053334 0.5426629707323243
3 395 435 436 0.4897473803344743 0.2887043024053334 0.5426629707323243
3 553 426 481 0.4897473803344743 0.2887043024053334 0.5426629707323243
3 553 540 541 0.4897473803344743 0.2887043024053334 0.5426629707323243
3 481 540 553 0.4897473803344743 0.2887043024053334 0.5426629707323243
3 385 426 491 0.4897473803344743 0.2887043024053334 0.5426629707323243
3 385 490 384 0.4897473803344743 0.2887043024053334 0.5426629707323243
3 491 490 385 0.4897473803344743 0.2887043024053334 0.5426629707323243
3 252 383 488 0.4897473803344743 0.2887043024053334 0.5426629707323243
3 432 431 120 0.4897473803344743 0.2887043024053334 0.5426629707323243
3 117 428 116 0.4897473803344743 0.2887043024053334 0.5426629707323243
3 120 431 119 0.4897473803344743 0.2887043024053334 0.5426629707323243
3 209 55 54 0.4897473803344743 0.2887043024053334 0.5426629707323243
3 209 407 210 0.4897473803344743 0.2887043024053334 0.5426629707323243
3 209 331 55 0.4897473803344743 0.2887043024053334 0.5426629707323243
3 210 331 209 0.4897473803344743 0.2887043024053334 0.5426629707323243
3 210 407 408 0.4897473803344743 0.2887043024053334 0.5426629707323243
3 215 331 332 0.4897473803344743 0.2887043024053334 0.5426629707323243
3 332 331 210 0.4897473803344743 0.2887043024053334 0.5426629707323243
3 45 44 197 0.4897473803344743 0.2887043024053334 0.5426629707323243
3 133 105 104 0.4897473803344743 0.2887043024053334 0.5426629707323243
3 104 105 452 0.4897473803344743 0.2887043024053334 0.5426629707323243
3 104 132 133 0.4897473803344743 0.2887043024053334 0.5426629707323243
3 103 132 104 0.4897473803344743 0.2887043024053334 0.5426629707323243
3 46 45 131 0.4897473803344743 0.2887043024053334 0.5426629707323243
3 131 45 197 0.4897473803344743 0.2887043024053334 0.5426629707323243
3 197 132 131 0.4897473803344743 0.2887043024053334 0.5426629707323243
3 131 132 103 0.4897473803344743 0.2887043024053334 0.5426629707323243
3 308 100 101 0.4897473803344743 0.2887043024053334 0.5426629707323243
3 101 100 508 0.4897473803344743 0.2887043024053334 0.5426629707323243
3 101 309 308 0.4897473803344743 0.2887043024053334 0.5426629707323243
3 510 309 101 0.4897473803344743 0.2887043024053334 0.5426629707323243
3 270 510 509 0.4897473803344743 0.2887043024053334 0.5426629707323243
3 509 269 270 0.4897473803344743 0.2887043024053334 0.5426629707323243
3 508 269 509 0.4897473803344743 0.2887043024053334 0.5426629707323243
3 509 101 508 0.4897473803344743 0.2887043024053334 0.5426629707323243
3 510 101 509 0.4897473803344743 0.2887043024053334 0.5426629707323243
3 310 510 511 0.4897473803344743 0.2887043024053334 0.5426629707323243
3 511 271 272 0.4897473803344743 0.2887043024053334 0.5426629707323243
3 511 510 271 0.4897473803344743 0.2887043024053334 0.5426629707323243
3 401 273 272 0.4897473803344743 0.2887043024053334 0.5426629707323243
3 303 403 402 0.4897473803344743 0.2887043024053334 0.5426629707323243
3 402 403 273 0.4897473803344743 0.2887043024053334 0.5426629707323243
3 273 401 402 0.4897473803344743 0.2887043024053334 0.5426629707323243
3 402 302 303 0.4897473803344743 0.2887043024053334 0.5426629707323243
3 402 401 302 0.4897473803344743 0.2887043024053334 0.5426629707323243
3 310 511 311 0.4897473803344743 0.2887043024053334 0.5426629707323243
3 514 312 513 0.4897473803344743 0.2887043024053334 0.5426629707323243
3 513 403 514 0.4897473803344743 0.2887043024053334 0.5426629707323243
3 273 403 513 0.4897473803344743 0.2887043024053334 0.5426629707323243
3 213 411 214 0.4897473803344743 0.2887043024053334 0.5426629707323243
3 455 202 456 0.4897473803344743 0.2887043024053334 0.5426629707323243
3 308 309 278 0.4897473803344743 0.2887043024053334 0.5426629707323243
3 278 277 308 0.4897473803344743 0.2887043024053334 0.5426629707323243
3 99 506 507 0.4897473803344743 0.2887043024053334 0.5426629707323243
3 507 100 99 0.4897473803344743 0.2887043024053334 0.5426629707323243
3 508 100 507 0.4897473803344743 0.2887043024053334 0.5426629707323243
3 268 508 507 0.4897473803344743 0.2887043024053334 0.5426629707323243
3 507 267 268 0.4897473803344743 0.2887043024053334 0.5426629707323243
3 507 506 267 0.4897473803344743 0.2887043024053334 0.5426629707323243
3 99 100 307 0.4897473803344743 0.2887043024053334 0.5426629707323243
3 307 100 308 0.4897473803344743 0.2887043024053334 0.5426629707323243
3 308 277 307 0.4897473803344743 0.2887043024053334 0.5426629707323243
3 307 277 276 0.4897473803344743 0.2887043024053334 0.5426629707323243
3 536 355 537 0.4897473803344743 0.2887043024053334 0.5426629707323243
3 538 537 356 0.4897473803344743 0.2887043024053334 0.5426629707323243
3 356 537 355 0.4897473803344743 0.2887043024053334 0.5426629707323243
3 354 353 155 0.4897473803344743 0.2887043024053334 0.5426629707323243
3 354 355 536 0.4897473803344743 0.2887043024053334 0.5426629707323243
3 354 160 353 0.4897473803344743 0.2887043024053334 0.5426629707323243
3 155 353 154 0.4897473803344743 0.2887043024053334 0.5426629707323243
3 155 464 465 0.4897473803344743 0.2887043024053334 0.5426629707323243
3 465 354 155 0.4897473803344743 0.2887043024053334 0.5426629707323243
3 355 354 465 0.4897473803344743 0.2887043024053334 0.5426629707323243
3 344 345 150 0.4897473803344743 0.2887043024053334 0.5426629707323243
3 345 465 150 0.4897473803344743 0.2887043024053334 0.5426629707323243
3 150 465 464 0.4897473803344743 0.2887043024053334 0.5426629707323243
3 514 403 404 0.4897473803344743 0.2887043024053334 0.5426629707323243
3 467 347 348 0.4897473803344743 0.2887043024053334 0.5426629707323243
3 348 347 526 0.4897473803344743 0.2887043024053334 0.5426629707323243
3 322 49 136 0.4897473803344743 0.2887043024053334 0.5426629707323243
3 218 521 520 0.4897473803344743 0.2887043024053334 0.5426629707323243
3 143 521 144 0.4897473803344743 0.2887043024053334 0.5426629707323243
3 342 147 341 0.4897473803344743 0.2887043024053334 0.5426629707323243
3 342 144 343 0.4897473803344743 0.2887043024053334 0.5426629707323243
3 341 143 342 0.4897473803344743 0.2887043024053334 0.5426629707323243
3 143 144 342 0.4897473803344743 0.2887043024053334 0.5426629707323243
3 460 147 461 0.4897473803344743 0.2887043024053334 0.5426629707323243
3 460 151 61 0.4897473803344743 0.2887043024053334 0.5426629707323243
3 152 461 153 0.4897473803344743 0.2887043024053334 0.5426629707323243
3 350 151 152 0.4897473803344743 0.2887043024053334 0.5426629707323243
3 152 460 461 0.4897473803344743 0.2887043024053334 0.5426629707323243
3 151 460 152 0.4897473803344743 0.2887043024053334 0.5426629707323243
3 153 351 152 0.4897473803344743 0.2887043024053334 0.5426629707323243
3 152 351 350 0.4897473803344743 0.2887043024053334 0.5426629707323243
3 349 151 350 0.4897473803344743 0.2887043024053334 0.5426629707323243
3 349 156 63 0.4897473803344743 0.2887043024053334 0.5426629707323243
3 63 62 349 0.4897473803344743 0.2887043024053334 0.5426629707323243
3 62 151 349 0.4897473803344743 0.2887043024053334 0.5426629707323243
3 520 143 142 0.4897473803344743 0.2887043024053334 0.5426629707323243
3 142 143 341 0.4897473803344743 0.2887043024053334 0.5426629707323243
3 341 340 142 0.4897473803344743 0.2887043024053334 0.5426629707323243
3 333 334 217 0.4897473803344743 0.2887043024053334 0.5426629707323243
3 217 218 520 0.4897473803344743 0.2887043024053334 0.5426629707323243
3 334 218 217 0.4897473803344743 0.2887043024053334 0.5426629707323243
3 13 12 482 0.4897473803344743 0.2887043024053334 0.5426629707323243
3 482 12 111 0.4897473803344743 0.2887043024053334 0.5426629707323243
3 111 112 482 0.4897473803344743 0.2887043024053334 0.5426629707323243
3 113 112 175 0.4897473803344743 0.2887043024053334 0.5426629707323243
3 175 176 113 0.4897473803344743 0.2887043024053334 0.5426629707323243
3 249 176 175 0.4897473803344743 0.2887043024053334 0.5426629707323243
3 379 380 249 0.4897473803344743 0.2887043024053334 0.5426629707323243
3 247 173 246 0.4897473803344743 0.2887043024053334 0.5426629707323243
3 246 173 10 0.4897473803344743 0.2887043024053334 0.5426629707323243
3 10 9 246 0.4897473803344743 0.2887043024053334 0.5426629707323243
3 10 173 11 0.4897473803344743 0.2887043024053334 0.5426629707323243
3 551 480 552 0.4897473803344743 0.2887043024053334 0.5426629707323243
3 481 426 552 0.4897473803344743 0.2887043024053334 0.5426629707323243
3 552 480 481 0.4897473803344743 0.2887043024053334 0.5426629707323243
3 314 315 254 0.4897473803344743 0.2887043024053334 0.5426629707323243
3 313 16 14 0.4897473803344743 0.2887043024053334 0.5426629707323243
3 180 314 313 0.4897473803344743 0.2887043024053334 0.5426629707323243
3 423 382 422 0.4897473803344743 0.2887043024053334 0.5426629707323243
3 69 471 233 0.4897473803344743 0.2887043024053334 0.5426629707323243
3 106 4 161 0.4897473803344743 0.2887043024053334 0.5426629707323243
3 63 156 64 0.4897473803344743 0.2887043024053334 0.5426629707323243
3 246 376 377 0.4897473803344743 0.2887043024053334 0.5426629707323243
3 378 247 377 0.4897473803344743 0.2887043024053334 0.5426629707323243
3 377 247 246 0.4897473803344743 0.2887043024053334 0.5426629707323243
3 5 4 106 0.4897473803344743 0.2887043024053334 0.5426629707323243
3 106 161 162 0.4897473803344743 0.2887043024053334 0.5426629707323243
3 162 161 240 0.4897473803344743 0.2887043024053334 0.5426629707323243
3 396 267 38 0.4897473803344743 0.2887043024053334 0.5426629707323243
3 38 94 396 0.4897473803344743 0.2887043024053334 0.5426629707323243
3 268 267 396 0.4897473803344743 0.2887043024053334 0.5426629707323243
3 396 94 95 0.4897473803344743 0.2887043024053334 0.5426629707323243
3 297 37 36 0.4897473803344743 0.2887043024053334 0.5426629707323243
3 297 94 37 0.4897473803344743 0.2887043024053334 0.5426629707323243
3 33 90 72 0.4897473803344743 0.2887043024053334 0.5426629707323243
3 34 33 72 0.4897473803344743 0.2887043024053334 0.5426629707323243
3 72 438 34 0.4897473803344743 0.2887043024053334 0.5426629707323243
3 73 438 72 0.4897473803344743 0.2887043024053334 0.5426629707323243
3 72 91 73 0.4897473803344743 0.2887043024053334 0.5426629707323243
3 72 90 91 0.4897473803344743 0.2887043024053334 0.5426629707323243
3 19 78 20 0.4897473803344743 0.2887043024053334 0.5426629707323243
3 78 281 20 0.4897473803344743 0.2887043024053334 0.5426629707323243
3 20 281 21 0.4897473803344743 0.2887043024053334 0.5426629707323243
3 82 387 386 0.4897473803344743 0.2887043024053334 0.5426629707323243
3 386 22 82 0.4897473803344743 0.2887043024053334 0.5426629707323243
3 386 23 22 0.4897473803344743 0.2887043024053334 0.5426629707323243
3 86 23 386 0.4897473803344743 0.2887043024053334 0.5426629707323243
3 123 290 291 0.4897473803344743 0.2887043024053334 0.5426629707323243
3 291 124 123 0.4897473803344743 0.2887043024053334 0.5426629707323243
3 289 290 122 0.4897473803344743 0.2887043024053334 0.5426629707323243
3 496 495 122 0.4897473803344743 0.2887043024053334 0.5426629707323243
3 122 123 496 0.4897473803344743 0.2887043024053334 0.5426629707323243
3 290 123 122 0.4897473803344743 0.2887043024053334 0.5426629707323243
3 121 289 122 0.4897473803344743 0.2887043024053334 0.5426629707323243
3 122 495 121 0.4897473803344743 0.2887043024053334 0.5426629707323243
3 388 387 83 0.4897473803344743 0.2887043024053334 0.5426629707323243
3 83 387 82 0.4897473803344743 0.2887043024053334 0.5426629707323243
3 82 281 83 0.4897473803344743 0.2887043024053334 0.5426629707323243
3 427 78 19 0.4897473803344743 0.2887043024053334 0.5426629707323243
3 116 428 427 0.4897473803344743 0.2887043024053334 0.5426629707323243
3 427 79 78 0.4897473803344743 0.2887043024053334 0.5426629707323243
3 428 79 427 0.4897473803344743 0.2887043024053334 0.5426629707323243
3 19 18 427 0.4897473803344743 0.2887043024053334 0.5426629707323243
3 427 18 116 0.4897473803344743 0.2887043024053334 0.5426629707323243
3 270 269 398 0.4897473803344743 0.2887043024053334 0.5426629707323243
3 272 271 400 0.4897473803344743 0.2887043024053334 0.5426629707323243
3 400 401 272 0.4897473803344743 0.2887043024053334 0.5426629707323243
3 304 403 303 0.4897473803344743 0.2887043024053334 0.5426629707323243
3 303 445 304 0.4897473803344743 0.2887043024053334 0.5426629707323243
3 304 445 446 0.4897473803344743 0.2887043024053334 0.5426629707323243
3 446 404 304 0.4897473803344743 0.2887043024053334 0.5426629707323243
3 304 404 403 0.4897473803344743 0.2887043024053334 0.5426629707323243
3 321 490 491 0.4897473803344743 0.2887043024053334 0.5426629707323243
3 491 436 321 0.4897473803344743 0.2887043024053334 0.5426629707323243
3 321 436 435 0.4897473803344743 0.2887043024053334 0.5426629707323243
3 434 259 321 0.4897473803344743 0.2887043024053334 0.5426629707323243
3 321 435 434 0.4897473803344743 0.2887043024053334 0.5426629707323243
3 492 436 491 0.4897473803344743 0.2887043024053334 0.5426629707323243
3 491 426 492 0.4897473803344743 0.2887043024053334 0.5426629707323243
3 426 553 492 0.4897473803344743 0.2887043024053334 0.5426629707323243
3 425 424 551 0.4897473803344743 0.2887043024053334 0.5426629707323243
3 551 552 425 0.4897473803344743 0.2887043024053334 0.5426629707323243
3 384 424 425 0.4897473803344743 0.2887043024053334 0.5426629707323243
3 425 385 384 0.4897473803344743 0.2887043024053334 0.5426629707323243
3 426 385 425 0.4897473803344743 0.2887043024053334 0.5426629707323243
3 425 552 426 0.4897473803344743 0.2887043024053334 0.5426629707323243
3 190 432 120 0.4897473803344743 0.2887043024053334 0.5426629707323243
3 118 117 187 0.4897473803344743 0.2887043024053334 0.5426629707323243
3 188 118 187 0.4897473803344743 0.2887043024053334 0.5426629707323243
3 119 118 188 0.4897473803344743 0.2887043024053334 0.5426629707323243
3 318 317 184 0.4897473803344743 0.2887043024053334 0.5426629707323243
3 318 257 317 0.4897473803344743 0.2887043024053334 0.5426629707323243
3 406 204 407 0.4897473803344743 0.2887043024053334 0.5426629707323243
3 406 209 54 0.4897473803344743 0.2887043024053334 0.5426629707323243
3 407 209 406 0.4897473803344743 0.2887043024053334 0.5426629707323243
3 53 406 54 0.4897473803344743 0.2887043024053334 0.5426629707323243
3 407 204 205 0.4897473803344743 0.2887043024053334 0.5426629707323243
3 205 408 407 0.4897473803344743 0.2887043024053334 0.5426629707323243
3 333 332 211 0.4897473803344743 0.2887043024053334 0.5426629707323243
3 211 332 210 0.4897473803344743 0.2887043024053334 0.5426629707323243
3 210 408 211 0.4897473803344743 0.2887043024053334 0.5426629707323243
3 211 408 409 0.4897473803344743 0.2887043024053334 0.5426629707323243
3 276 277 200 0.4897473803344743 0.2887043024053334 0.5426629707323243
3 453 140 452 0.4897473803344743 0.2887043024053334 0.5426629707323243
3 452 105 453 0.4897473803344743 0.2887043024053334 0.5426629707323243
3 103 104 451 0.4897473803344743 0.2887043024053334 0.5426629707323243
3 138 450 451 0.4897473803344743 0.2887043024053334 0.5426629707323243
3 451 450 103 0.4897473803344743 0.2887043024053334 0.5426629707323243
3 451 104 452 0.4897473803344743 0.2887043024053334 0.5426629707323243
3 46 131 102 0.4897473803344743 0.2887043024053334 0.5426629707323243
3 102 47 46 0.4897473803344743 0.2887043024053334 0.5426629707323243
3 449 47 102 0.4897473803344743 0.2887043024053334 0.5426629707323243
3 102 450 449 0.4897473803344743 0.2887043024053334 0.5426629707323243
3 102 131 103 0.4897473803344743 0.2887043024053334 0.5426629707323243
3 103 450 102 0.4897473803344743 0.2887043024053334 0.5426629707323243
3 310 311 280 0.4897473803344743 0.2887043024053334 0.5426629707323243
3 456 202 280 0.4897473803344743 0.2887043024053334 0.5426629707323243
3 280 311 312 0.4897473803344743 0.2887043024053334 0.5426629707323243
3 280 457 456 0.4897473803344743 0.2887043024053334 0.5426629707323243
3 312 457 280 0.4897473803344743 0.2887043024053334 0.5426629707323243
3 458 312 514 0.4897473803344743 0.2887043024053334 0.5426629707323243
3 458 457 312 0.4897473803344743 0.2887043024053334 0.5426629707323243
3 512 311 511 0.4897473803344743 0.2887043024053334 0.5426629707323243
3 273 513 512 0.4897473803344743 0.2887043024053334 0.5426629707323243
3 312 311 512 0.4897473803344743 0.2887043024053334 0.5426629707323243
3 512 513 312 0.4897473803344743 0.2887043024053334 0.5426629707323243
3 272 273 512 0.4897473803344743 0.2887043024053334 0.5426629707323243
3 512 511 272 0.4897473803344743 0.2887043024053334 0.5426629707323243
3 346 465 345 0.4897473803344743 0.2887043024053334 0.5426629707323243
3 145 345 344 0.4897473803344743 0.2887043024053334 0.5426629707323243
3 145 523 345 0.4897473803344743 0.2887043024053334 0.5426629707323243
3 344 343 145 0.4897473803344743 0.2887043024053334 0.5426629707323243
3 343 144 145 0.4897473803344743 0.2887043024053334 0.5426629707323243
3 214 412 336 0.4897473803344743 0.2887043024053334 0.5426629707323243
3 133 132 198 0.4897473803344743 0.2887043024053334 0.5426629707323243
3 198 132 197 0.4897473803344743 0.2887043024053334 0.5426629707323243
3 274 44 43 0.4897473803344743 0.2887043024053334 0.5426629707323243
3 197 44 274 0.4897473803344743 0.2887043024053334 0.5426629707323243
3 274 198 197 0.4897473803344743 0.2887043024053334 0.5426629707323243
3 275 198 274 0.4897473803344743 0.2887043024053334 0.5426629707323243
3 328 412 411 0.4897473803344743 0.2887043024053334 0.5426629707323243
3 277 278 201 0.4897473803344743 0.2887043024053334 0.5426629707323243
3 135 200 201 0.4897473803344743 0.2887043024053334 0.5426629707323243
3 201 200 277 0.4897473803344743 0.2887043024053334 0.5426629707323243
3 201 202 135 0.4897473803344743 0.2887043024053334 0.5426629707323243
3 201 278 202 0.4897473803344743 0.2887043024053334 0.5426629707323243
3 276 275 306 0.4897473803344743 0.2887043024053334 0.5426629707323243
3 306 307 276 0.4897473803344743 0.2887043024053334 0.5426629707323243
3 99 307 306 0.4897473803344743 0.2887043024053334 0.5426629707323243
3 306 98 99 0.4897473803344743 0.2887043024053334 0.5426629707323243
3 159 351 352 0.4897473803344743 0.2887043024053334 0.5426629707323243
3 352 160 159 0.4897473803344743 0.2887043024053334 0.5426629707323243
3 353 160 352 0.4897473803344743 0.2887043024053334 0.5426629707323243
3 352 154 353 0.4897473803344743 0.2887043024053334 0.5426629707323243
3 352 351 153 0.4897473803344743 0.2887043024053334 0.5426629707323243
3 153 154 352 0.4897473803344743 0.2887043024053334 0.5426629707323243
3 538 480 366 0.4897473803344743 0.2887043024053334 0.5426629707323243
3 366 537 538 0.4897473803344743 0.2887043024053334 0.5426629707323243
3 366 480 551 0.4897473803344743 0.2887043024053334 0.5426629707323243
3 551 479 366 0.4897473803344743 0.2887043024053334 0.5426629707323243
3 357 356 467 0.4897473803344743 0.2887043024053334 0.5426629707323243
3 469 539 357 0.4897473803344743 0.2887043024053334 0.5426629707323243
3 357 539 538 0.4897473803344743 0.2887043024053334 0.5426629707323243
3 538 356 357 0.4897473803344743 0.2887043024053334 0.5426629707323243
3 463 150 464 0.4897473803344743 0.2887043024053334 0.5426629707323243
3 463 464 155 0.4897473803344743 0.2887043024053334 0.5426629707323243
3 155 154 463 0.4897473803344743 0.2887043024053334 0.5426629707323243
3 355 465 466 0.4897473803344743 0.2887043024053334 0.5426629707323243
3 467 356 466 0.4897473803344743 0.2887043024053334 0.5426629707323243
3 466 356 355 0.4897473803344743 0.2887043024053334 0.5426629707323243
3 465 346 466 0.4897473803344743 0.2887043024053334 0.5426629707323243
3 466 347 467 0.4897473803344743 0.2887043024053334 0.5426629707323243
3 466 346 347 0.4897473803344743 0.2887043024053334 0.5426629707323243
3 470 528 529 0.4897473803344743 0.2887043024053334 0.5426629707323243
3 469 528 470 0.4897473803344743 0.2887043024053334 0.5426629707323243
3 470 529 541 0.4897473803344743 0.2887043024053334 0.5426629707323243
3 541 540 470 0.4897473803344743 0.2887043024053334 0.5426629707323243
3 540 469 470 0.4897473803344743 0.2887043024053334 0.5426629707323243
3 516 448 517 0.4897473803344743 0.2887043024053334 0.5426629707323243
3 517 554 529 0.4897473803344743 0.2887043024053334 0.5426629707323243
3 405 448 516 0.4897473803344743 0.2887043024053334 0.5426629707323243
3 467 348 468 0.4897473803344743 0.2887043024053334 0.5426629707323243
3 468 348 469 0.4897473803344743 0.2887043024053334 0.5426629707323243
3 468 357 467 0.4897473803344743 0.2887043024053334 0.5426629707323243
3 469 357 468 0.4897473803344743 0.2887043024053334 0.5426629707323243
3 137 136 449 0.4897473803344743 0.2887043024053334 0.5426629707323243
3 449 450 137 0.4897473803344743 0.2887043024053334 0.5426629707323243
3 137 450 138 0.4897473803344743 0.2887043024053334 0.5426629707323243
3 449 136 48 0.4897473803344743 0.2887043024053334 0.5426629707323243
3 48 47 449 0.4897473803344743 0.2887043024053334 0.5426629707323243
3 48 136 49 0.4897473803344743 0.2887043024053334 0.5426629707323243
3 334 213 335 0.4897473803344743 0.2887043024053334 0.5426629707323243
3 335 218 334 0.4897473803344743 0.2887043024053334 0.5426629707323243
3 335 213 214 0.4897473803344743 0.2887043024053334 0.5426629707323243
3 214 336 335 0.4897473803344743 0.2887043024053334 0.5426629707323243
3 147 460 146 0.4897473803344743 0.2887043024053334 0.5426629707323243
3 60 340 146 0.4897473803344743 0.2887043024053334 0.5426629707323243
3 146 61 60 0.4897473803344743 0.2887043024053334 0.5426629707323243
3 146 460 61 0.4897473803344743 0.2887043024053334 0.5426629707323243
3 341 147 146 0.4897473803344743 0.2887043024053334 0.5426629707323243
3 146 340 341 0.4897473803344743 0.2887043024053334 0.5426629707323243
3 58 518 141 0.4897473803344743 0.2887043024053334 0.5426629707323243
3 141 59 58 0.4897473803344743 0.2887043024053334 0.5426629707323243
3 141 340 59 0.4897473803344743 0.2887043024053334 0.5426629707323243
3 141 142 340 0.4897473803344743 0.2887043024053334 0.5426629707323243
3 333 217 216 0.4897473803344743 0.2887043024053334 0.5426629707323243
3 216 518 215 0.4897473803344743 0.2887043024053334 0.5426629707323243
3 216 332 333 0.4897473803344743 0.2887043024053334 0.5426629707323243
3 215 332 216 0.4897473803344743 0.2887043024053334 0.5426629707323243
3 13 482 179 0.4897473803344743 0.2887043024053334 0.5426629707323243
3 180 313 179 0.4897473803344743 0.2887043024053334 0.5426629707323243
3 14 13 179 0.4897473803344743 0.2887043024053334 0.5426629707323243
3 179 313 14 0.4897473803344743 0.2887043024053334 0.5426629707323243
3 112 113 483 0.4897473803344743 0.2887043024053334 0.5426629707323243
3 483 482 112 0.4897473803344743 0.2887043024053334 0.5426629707323243
3 180 179 483 0.4897473803344743 0.2887043024053334 0.5426629707323243
3 483 179 482 0.4897473803344743 0.2887043024053334 0.5426629707323243
3 183 317 316 0.4897473803344743 0.2887043024053334 0.5426629707323243
3 184 317 183 0.4897473803344743 0.2887043024053334 0.5426629707323243
3 114 113 176 0.4897473803344743 0.2887043024053334 0.5426629707323243
3 181 314 180 0.4897473803344743 0.2887043024053334 0.5426629707323243
3 181 315 314 0.4897473803344743 0.2887043024053334 0.5426629707323243
3 535 354 536 0.4897473803344743 0.2887043024053334 0.5426629707323243
3 160 354 535 0.4897473803344743 0.2887043024053334 0.5426629707323243
3 479 478 365 0.4897473803344743 0.2887043024053334 0.5426629707323243
3 365 366 479 0.4897473803344743 0.2887043024053334 0.5426629707323243
3 536 537 365 0.4897473803344743 0.2887043024053334 0.5426629707323243
3 537 366 365 0.4897473803344743 0.2887043024053334 0.5426629707323243
3 375 478 479 0.4897473803344743 0.2887043024053334 0.5426629707323243
3 375 424 423 0.4897473803344743 0.2887043024053334 0.5426629707323243
3 551 424 375 0.4897473803344743 0.2887043024053334 0.5426629707323243
3 375 479 551 0.4897473803344743 0.2887043024053334 0.5426629707323243
3 157 349 350 0.4897473803344743 0.2887043024053334 0.5426629707323243
3 156 349 157 0.4897473803344743 0.2887043024053334 0.5426629707323243
3 378 379 248 0.4897473803344743 0.2887043024053334 0.5426629707323243
3 248 247 378 0.4897473803344743 0.2887043024053334 0.5426629707323243
3 248 249 175 0.4897473803344743 0.2887043024053334 0.5426629707323243
3 379 249 248 0.4897473803344743 0.2887043024053334 0.5426629707323243
3 173 247 174 0.4897473803344743 0.2887043024053334 0.5426629707323243
3 174 112 111 0.4897473803344743 0.2887043024053334 0.5426629707323243
3 111 173 174 0.4897473803344743 0.2887043024053334 0.5426629707323243
3 247 248 174 0.4897473803344743 0.2887043024053334 0.5426629707323243
3 175 112 174 0.4897473803344743 0.2887043024053334 0.5426629707323243
3 174 248 175 0.4897473803344743 0.2887043024053334 0.5426629707323243
3 185 254 186 0.4897473803344743 0.2887043024053334 0.5426629707323243
3 187 117 186 0.4897473803344743 0.2887043024053334 0.5426629707323243
3 186 116 185 0.4897473803344743 0.2887043024053334 0.5426629707323243
3 186 117 116 0.4897473803344743 0.2887043024053334 0.5426629707323243
3 255 315 316 0.4897473803344743 0.2887043024053334 0.5426629707323243
3 255 254 315 0.4897473803344743 0.2887043024053334 0.5426629707323243
3 187 186 255 0.4897473803344743 0.2887043024053334 0.5426629707323243
3 255 186 254 0.4897473803344743 0.2887043024053334 0.5426629707323243
3 253 254 185 0.4897473803344743 0.2887043024053334 0.5426629707323243
3 185 17 253 0.4897473803344743 0.2887043024053334 0.5426629707323243
3 17 16 253 0.4897473803344743 0.2887043024053334 0.5426629707323243
3 314 254 253 0.4897473803344743 0.2887043024053334 0.5426629707323243
3 253 313 314 0.4897473803344743 0.2887043024053334 0.5426629707323243
3 16 313 253 0.4897473803344743 0.2887043024053334 0.5426629707323243
3 227 472 471 0.4897473803344743 0.2887043024053334 0.5426629707323243
3 471 69 68 0.4897473803344743 0.2887043024053334 0.5426629707323243
3 67 227 68 0.4897473803344743 0.2887043024053334 0.5426629707323243
3 68 227 471 0.4897473803344743 0.2887043024053334 0.5426629707323243
3 240 543 369 0.4897473803344743 0.2887043024053334 0.5426629707323243
3 233 471 234 0.4897473803344743 0.2887043024053334 0.5426629707323243
3 234 543 233 0.4897473803344743 0.2887043024053334 0.5426629707323243
3 234 369 543 0.4897473803344743 0.2887043024053334 0.5426629707323243
3 471 472 234 0.4897473803344743 0.2887043024053334 0.5426629707323243
3 70 69 233 0.4897473803344743 0.2887043024053334 0.5426629707323243
3 3 161 4 0.4897473803344743 0.2887043024053334 0.5426629707323243
3 416 417 167 0.4897473803344743 0.2887043024053334 0.5426629707323243
3 416 5 106 0.4897473803344743 0.2887043024053334 0.5426629707323243
3 167 6 416 0.4897473803344743 0.2887043024053334 0.5426629707323243
3 6 5 416 0.4897473803344743 0.2887043024053334 0.5426629707323243
3 167 417 168 0.4897473803344743 0.2887043024053334 0.5426629707323243
3 168 376 167 0.4897473803344743 0.2887043024053334 0.5426629707323243
3 168 377 376 0.4897473803344743 0.2887043024053334 0.5426629707323243
3 108 417 107 0.4897473803344743 0.2887043024053334 0.5426629707323243
3 106 162 107 0.4897473803344743 0.2887043024053334 0.5426629707323243
3 107 416 106 0.4897473803344743 0.2887043024053334 0.5426629707323243
3 417 416 107 0.4897473803344743 0.2887043024053334 0.5426629707323243
3 108 107 163 0.4897473803344743 0.2887043024053334 0.5426629707323243
3 163 107 162 0.4897473803344743 0.2887043024053334 0.5426629707323243
3 170 379 378 0.4897473803344743 0.2887043024053334 0.5426629707323243
3 87 386 387 0.4897473803344743 0.2887043024053334 0.5426629707323243
3 291 290 87 0.4897473803344743 0.2887043024053334 0.5426629707323243
3 87 290 86 0.4897473803344743 0.2887043024053334 0.5426629707323243
3 86 386 87 0.4897473803344743 0.2887043024053334 0.5426629707323243
3 87 88 291 0.4897473803344743 0.2887043024053334 0.5426629707323243
3 387 88 87 0.4897473803344743 0.2887043024053334 0.5426629707323243
3 263 262 497 0.4897473803344743 0.2887043024053334 0.5426629707323243
3 497 123 124 0.4897473803344743 0.2887043024053334 0.5426629707323243
3 497 262 496 0.4897473803344743 0.2887043024053334 0.5426629707323243
3 496 123 497 0.4897473803344743 0.2887043024053334 0.5426629707323243
3 497 498 263 0.4897473803344743 0.2887043024053334 0.5426629707323243
3 124 498 497 0.4897473803344743 0.2887043024053334 0.5426629707323243
3 283 79 80 0.4897473803344743 0.2887043024053334 0.5426629707323243
3 81 284 80 0.4897473803344743 0.2887043024053334 0.5426629707323243
3 80 284 283 0.4897473803344743 0.2887043024053334 0.5426629707323243
3 80 79 428 0.4897473803344743 0.2887043024053334 0.5426629707323243
3 388 83 84 0.4897473803344743 0.2887043024053334 0.5426629707323243
3 282 79 283 0.4897473803344743 0.2887043024053334 0.5426629707323243
3 283 84 282 0.4897473803344743 0.2887043024053334 0.5426629707323243
3 282 84 83 0.4897473803344743 0.2887043024053334 0.5426629707323243
3 282 83 281 0.4897473803344743 0.2887043024053334 0.5426629707323243
3 282 281 78 0.4897473803344743 0.2887043024053334 0.5426629707323243
3 78 79 282 0.4897473803344743 0.2887043024053334 0.5426629707323243
3 432 190 433 0.4897473803344743 0.2887043024053334 0.5426629707323243
3 433 259 434 0.4897473803344743 0.2887043024053334 0.5426629707323243
3 433 190 259 0.4897473803344743 0.2887043024053334 0.5426629707323243
3 264 194 263 0.4897473803344743 0.2887043024053334 0.5426629707323243
3 263 498 264 0.4897473803344743 0.2887043024053334 0.5426629707323243
3 264 498 499 0.4897473803344743 0.2887043024053334 0.5426629707323243
3 499 265 264 0.4897473803344743 0.2887043024053334 0.5426629707323243
3 443 130 196 0.4897473803344743 0.2887043024053334 0.5426629707323243
3 431 432 286 0.4897473803344743 0.2887043024053334 0.5426629707323243
3 96 398 95 0.4897473803344743 0.2887043024053334 0.5426629707323243
3 96 300 97 0.4897473803344743 0.2887043024053334 0.5426629707323243
3 270 398 399 0.4897473803344743 0.2887043024053334 0.5426629707323243
3 97 400 399 0.4897473803344743 0.2887043024053334 0.5426629707323243
3 399 96 97 0.4897473803344743 0.2887043024053334 0.5426629707323243
3 398 96 399 0.4897473803344743 0.2887043024053334 0.5426629707323243
3 399 271 270 0.4897473803344743 0.2887043024053334 0.5426629707323243
3 399 400 271 0.4897473803344743 0.2887043024053334 0.5426629707323243
3 397 396 95 0.4897473803344743 0.2887043024053334 0.5426629707323243
3 95 398 397 0.4897473803344743 0.2887043024053334 0.5426629707323243
3 268 396 397 0.4897473803344743 0.2887043024053334 0.5426629707323243
3 397 269 268 0.4897473803344743 0.2887043024053334 0.5426629707323243
3 397 398 269 0.4897473803344743 0.2887043024053334 0.5426629707323243
3 302 401 301 0.4897473803344743 0.2887043024053334 0.5426629707323243
3 401 400 301 0.4897473803344743 0.2887043024053334 0.5426629707323243
3 301 400 97 0.4897473803344743 0.2887043024053334 0.5426629707323243
3 97 300 301 0.4897473803344743 0.2887043024053334 0.5426629707323243
3 443 302 301 0.4897473803344743 0.2887043024053334 0.5426629707323243
3 93 130 442 0.4897473803344743 0.2887043024053334 0.5426629707323243
3 442 130 443 0.4897473803344743 0.2887043024053334 0.5426629707323243
3 443 301 442 0.4897473803344743 0.2887043024053334 0.5426629707323243
3 442 301 300 0.4897473803344743 0.2887043024053334 0.5426629707323243
3 490 321 320 0.4897473803344743 0.2887043024053334 0.5426629707323243
3 320 321 259 0.4897473803344743 0.2887043024053334 0.5426629707323243
3 436 492 437 0.4897473803344743 0.2887043024053334 0.5426629707323243
3 504 395 437 0.4897473803344743 0.2887043024053334 0.5426629707323243
3 395 436 437 0.4897473803344743 0.2887043024053334 0.5426629707323243
3 493 492 553 0.4897473803344743 0.2887043024053334 0.5426629707323243
3 541 554 493 0.4897473803344743 0.2887043024053334 0.5426629707323243
3 493 553 541 0.4897473803344743 0.2887043024053334 0.5426629707323243
3 493 437 492 0.4897473803344743 0.2887043024053334 0.5426629707323243
3 428 117 429 0.4897473803344743 0.2887043024053334 0.5426629707323243
3 117 118 429 0.4897473803344743 0.2887043024053334 0.5426629707323243
3 429 80 428 0.4897473803344743 0.2887043024053334 0.5426629707323243
3 81 80 429 0.4897473803344743 0.2887043024053334 0.5426629707323243
3 189 188 257 0.4897473803344743 0.2887043024053334 0.5426629707323243
3 189 190 120 0.4897473803344743 0.2887043024053334 0.5426629707323243
3 120 119 189 0.4897473803344743 0.2887043024053334 0.5426629707323243
3 119 188 189 0.4897473803344743 0.2887043024053334 0.5426629707323243
3 257 318 258 0.4897473803344743 0.2887043024053334 0.5426629707323243
3 258 189 257 0.4897473803344743 0.2887043024053334 0.5426629707323243
3 190 189 258 0.4897473803344743 0.2887043024053334 0.5426629707323243
3 259 190 258 0.4897473803344743 0.2887043024053334 0.5426629707323243
3 136 137 323 0.4897473803344743 0.2887043024053334 0.5426629707323243
3 322 136 323 0.4897473803344743 0.2887043024053334 0.5426629707323243
3 324 205 204 0.4897473803344743 0.2887043024053334 0.5426629707323243
3 324 137 138 0.4897473803344743 0.2887043024053334 0.5426629707323243
3 204 323 324 0.4897473803344743 0.2887043024053334 0.5426629707323243
3 324 323 137 0.4897473803344743 0.2887043024053334 0.5426629707323243
3 452 140 139 0.4897473803344743 0.2887043024053334 0.5426629707323243
3 138 451 139 0.4897473803344743 0.2887043024053334 0.5426629707323243
3 139 451 452 0.4897473803344743 0.2887043024053334 0.5426629707323243
3 134 200 135 0.4897473803344743 0.2887043024053334 0.5426629707323243
3 135 453 134 0.4897473803344743 0.2887043024053334 0.5426629707323243
3 134 453 105 0.4897473803344743 0.2887043024053334 0.5426629707323243
3 134 105 133 0.4897473803344743 0.2887043024053334 0.5426629707323243
3 310 280 279 0.4897473803344743 0.2887043024053334 0.5426629707323243
3 279 280 202 0.4897473803344743 0.2887043024053334 0.5426629707323243
3 202 278 279 0.4897473803344743 0.2887043024053334 0.5426629707323243
3 279 309 310 0.4897473803344743 0.2887043024053334 0.5426629707323243
3 279 278 309 0.4897473803344743 0.2887043024053334 0.5426629707323243
3 515 458 514 0.4897473803344743 0.2887043024053334 0.5426629707323243
3 515 405 516 0.4897473803344743 0.2887043024053334 0.5426629707323243
3 514 404 515 0.4897473803344743 0.2887043024053334 0.5426629707323243
3 404 405 515 0.4897473803344743 0.2887043024053334 0.5426629707323243
3 212 213 334 0.4897473803344743 0.2887043024053334 0.5426629707323243
3 212 410 213 0.4897473803344743 0.2887043024053334 0.5426629707323243
3 212 334 333 0.4897473803344743 0.2887043024053334 0.5426629707323243
3 333 211 212 0.4897473803344743 0.2887043024053334 0.5426629707323243
3 212 211 409 0.4897473803344743 0.2887043024053334 0.5426629707323243
3 212 409 207 0.4897473803344743 0.2887043024053334 0.5426629707323243
3 207 410 212 0.4897473803344743 0.2887043024053334 0.5426629707323243
3 456 457 330 0.4897473803344743 0.2887043024053334 0.5426629707323243
3 345 523 524 0.4897473803344743 0.2887043024053334 0.5426629707323243
3 524 346 345 0.4897473803344743 0.2887043024053334 0.5426629707323243
3 522 144 521 0.4897473803344743 0.2887043024053334 0.5426629707323243
3 522 145 144 0.4897473803344743 0.2887043024053334 0.5426629707323243
3 523 145 522 0.4897473803344743 0.2887043024053334 0.5426629707323243
3 337 524 523 0.4897473803344743 0.2887043024053334 0.5426629707323243
3 338 524 337 0.4897473803344743 0.2887043024053334 0.5426629707323243
3 337 336 412 0.4897473803344743 0.2887043024053334 0.5426629707323243
3 412 328 329 0.4897473803344743 0.2887043024053334 0.5426629707323243
3 329 328 455 0.4897473803344743 0.2887043024053334 0.5426629707323243
3 329 455 456 0.4897473803344743 0.2887043024053334 0.5426629707323243
3 456 330 329 0.4897473803344743 0.2887043024053334 0.5426629707323243
3 208 328 411 0.4897473803344743 0.2887043024053334 0.5426629707323243
3 411 213 208 0.4897473803344743 0.2887043024053334 0.5426629707323243
3 213 410 208 0.4897473803344743 0.2887043024053334 0.5426629707323243
3 275 274 305 0.4897473803344743 0.2887043024053334 0.5426629707323243
3 305 306 275 0.4897473803344743 0.2887043024053334 0.5426629707323243
3 305 274 43 0.4897473803344743 0.2887043024053334 0.5426629707323243
3 98 306 305 0.4897473803344743 0.2887043024053334 0.5426629707323243
3 43 42 305 0.4897473803344743 0.2887043024053334 0.5426629707323243
3 305 42 98 0.4897473803344743 0.2887043024053334 0.5426629707323243
3 461 147 148 0.4897473803344743 0.2887043024053334 0.5426629707323243
3 148 342 343 0.4897473803344743 0.2887043024053334 0.5426629707323243
3 147 342 148 0.4897473803344743 0.2887043024053334 0.5426629707323243
3 554 517 505 0.4897473803344743 0.2887043024053334 0.5426629707323243
3 505 517 448 0.4897473803344743 0.2887043024053334 0.5426629707323243
3 505 493 554 0.4897473803344743 0.2887043024053334 0.5426629707323243
3 437 493 505 0.4897473803344743 0.2887043024053334 0.5426629707323243
3 505 448 504 0.4897473803344743 0.2887043024053334 0.5426629707323243
3 504 437 505 0.4897473803344743 0.2887043024053334 0.5426629707323243
3 448 405 447 0.4897473803344743 0.2887043024053334 0.5426629707323243
3 504 448 447 0.4897473803344743 0.2887043024053334 0.5426629707323243
3 447 404 446 0.4897473803344743 0.2887043024053334 0.5426629707323243
3 447 405 404 0.4897473803344743 0.2887043024053334 0.5426629707323243
3 219 335 336 0.4897473803344743 0.2887043024053334 0.5426629707323243
3 219 522 521 0.4897473803344743 0.2887043024053334 0.5426629707323243
3 521 218 219 0.4897473803344743 0.2887043024053334 0.5426629707323243
3 218 335 219 0.4897473803344743 0.2887043024053334 0.5426629707323243
3 519 141 518 0.4897473803344743 0.2887043024053334 0.5426629707323243
3 519 217 520 0.4897473803344743 0.2887043024053334 0.5426629707323243
3 520 142 519 0.4897473803344743 0.2887043024053334 0.5426629707323243
3 142 141 519 0.4897473803344743 0.2887043024053334 0.5426629707323243
3 518 216 519 0.4897473803344743 0.2887043024053334 0.5426629707323243
3 519 216 217 0.4897473803344743 0.2887043024053334 0.5426629707323243
3 381 380 172 0.4897473803344743 0.2887043024053334 0.5426629707323243
3 172 421 422 0.4897473803344743 0.2887043024053334 0.5426629707323243
3 172 382 381 0.4897473803344743 0.2887043024053334 0.5426629707323243
3 172 422 382 0.4897473803344743 0.2887043024053334 0.5426629707323243
3 485 114 115 0.4897473803344743 0.2887043024053334 0.5426629707323243
3 182 181 485 0.4897473803344743 0.2887043024053334 0.5426629707323243
3 182 183 316 0.4897473803344743 0.2887043024053334 0.5426629707323243
3 316 315 182 0.4897473803344743 0.2887043024053334 0.5426629707323243
3 315 181 182 0.4897473803344743 0.2887043024053334 0.5426629707323243
3 485 181 484 0.4897473803344743 0.2887043024053334 0.5426629707323243
3 113 114 484 0.4897473803344743 0.2887043024053334 0.5426629707323243
3 484 114 485 0.4897473803344743 0.2887043024053334 0.5426629707323243
3 484 483 113 0.4897473803344743 0.2887043024053334 0.5426629707323243
3 180 483 484 0.4897473803344743 0.2887043024053334 0.5426629707323243
3 484 181 180 0.4897473803344743 0.2887043024053334 0.5426629707323243
3 165 166 110 0.4897473803344743 0.2887043024053334 0.5426629707323243
3 110 109 165 0.4897473803344743 0.2887043024053334 0.5426629707323243
3 158 532 157 0.4897473803344743 0.2887043024053334 0.5426629707323243
3 158 351 159 0.4897473803344743 0.2887043024053334 0.5426629707323243
3 350 351 158 0.4897473803344743 0.2887043024053334 0.5426629707323243
3 158 157 350 0.4897473803344743 0.2887043024053334 0.5426629707323243
3 245 421 166 0.4897473803344743 0.2887043024053334 0.5426629707323243
3 422 421 245 0.4897473803344743 0.2887043024053334 0.5426629707323243
3 166 165 244 0.4897473803344743 0.2887043024053334 0.5426629707323243
3 244 165 243 0.4897473803344743 0.2887043024053334 0.5426629707323243
3 244 245 166 0.4897473803344743 0.2887043024053334 0.5426629707323243
3 257 188 256 0.4897473803344743 0.2887043024053334 0.5426629707323243
3 256 255 316 0.4897473803344743 0.2887043024053334 0.5426629707323243
3 256 188 187 0.4897473803344743 0.2887043024053334 0.5426629707323243
3 187 255 256 0.4897473803344743 0.2887043024053334 0.5426629707323243
3 316 317 256 0.4897473803344743 0.2887043024053334 0.5426629707323243
3 317 257 256 0.4897473803344743 0.2887043024053334 0.5426629707323243
3 236 371 370 0.4897473803344743 0.2887043024053334 0.5426629707323243
3 472 473 235 0.4897473803344743 0.2887043024053334 0.5426629707323243
3 370 369 235 0.4897473803344743 0.2887043024053334 0.5426629707323243
3 235 236 370 0.4897473803344743 0.2887043024053334 0.5426629707323243
3 473 236 235 0.4897473803344743 0.2887043024053334 0.5426629707323243
3 235 234 472 0.4897473803344743 0.2887043024053334 0.5426629707323243
3 369 234 235 0.4897473803344743 0.2887043024053334 0.5426629707323243
3 472 227 228 0.4897473803344743 0.2887043024053334 0.5426629707323243
3 228 473 472 0.4897473803344743 0.2887043024053334 0.5426629707323243
3 161 3 239 0.4897473803344743 0.2887043024053334 0.5426629707323243
3 239 543 240 0.4897473803344743 0.2887043024053334 0.5426629707323243
3 240 161 239 0.4897473803344743 0.2887043024053334 0.5426629707323243
3 378 377 169 0.4897473803344743 0.2887043024053334 0.5426629707323243
3 377 168 169 0.4897473803344743 0.2887043024053334 0.5426629707323243
3 169 170 378 0.4897473803344743 0.2887043024053334 0.5426629707323243
3 370 371 242 0.4897473803344743 0.2887043024053334 0.5426629707323243
3 371 243 242 0.4897473803344743 0.2887043024053334 0.5426629707323243
3 240 369 241 0.4897473803344743 0.2887043024053334 0.5426629707323243
3 241 162 240 0.4897473803344743 0.2887043024053334 0.5426629707323243
3 241 163 162 0.4897473803344743 0.2887043024053334 0.5426629707323243
3 241 369 370 0.4897473803344743 0.2887043024053334 0.5426629707323243
3 370 242 241 0.4897473803344743 0.2887043024053334 0.5426629707323243
3 241 242 163 0.4897473803344743 0.2887043024053334 0.5426629707323243
3 419 109 110 0.4897473803344743 0.2887043024053334 0.5426629707323243
3 170 169 419 0.4897473803344743 0.2887043024053334 0.5426629707323243
3 421 172 171 0.4897473803344743 0.2887043024053334 0.5426629707323243
3 171 172 380 0.4897473803344743 0.2887043024053334 0.5426629707323243
3 171 380 379 0.4897473803344743 0.2887043024053334 0.5426629707323243
3 379 170 171 0.4897473803344743 0.2887043024053334 0.5426629707323243
3 297 76 298 0.4897473803344743 0.2887043024053334 0.5426629707323243
3 95 94 298 0.4897473803344743 0.2887043024053334 0.5426629707323243
3 94 297 298 0.4897473803344743 0.2887043024053334 0.5426629707323243
3 439 438 73 0.4897473803344743 0.2887043024053334 0.5426629707323243
3 439 440 76 0.4897473803344743 0.2887043024053334 0.5426629707323243
3 73 74 439 0.4897473803344743 0.2887043024053334 0.5426629707323243
3 74 440 439 0.4897473803344743 0.2887043024053334 0.5426629707323243
3 75 76 297 0.4897473803344743 0.2887043024053334 0.5426629707323243
3 35 438 75 0.4897473803344743 0.2887043024053334 0.5426629707323243
3 438 439 75 0.4897473803344743 0.2887043024053334 0.5426629707323243
3 75 439 76 0.4897473803344743 0.2887043024053334 0.5426629707323243
3 36 35 75 0.4897473803344743 0.2887043024053334 0.5426629707323243
3 75 297 36 0.4897473803344743 0.2887043024053334 0.5426629707323243
3 283 284 85 0.4897473803344743 0.2887043024053334 0.5426629707323243
3 85 84 283 0.4897473803344743 0.2887043024053334 0.5426629707323243
3 499 498 125 0.4897473803344743 0.2887043024053334 0.5426629707323243
3 125 293 499 0.4897473803344743 0.2887043024053334 0.5426629707323243
3 292 293 125 0.4897473803344743 0.2887043024053334 0.5426629707323243
3 125 124 292 0.4897473803344743 0.2887043024053334 0.5426629707323243
3 125 498 124 0.4897473803344743 0.2887043024053334 0.5426629707323243
3 89 293 292 0.4897473803344743 0.2887043024053334 0.5426629707323243
3 292 88 89 0.4897473803344743 0.2887043024053334 0.5426629707323243
3 89 88 388 0.4897473803344743 0.2887043024053334 0.5426629707323243
3 195 264 265 0.4897473803344743 0.2887043024053334 0.5426629707323243
3 195 196 130 0.4897473803344743 0.2887043024053334 0.5426629707323243
3 265 196 195 0.4897473803344743 0.2887043024053334 0.5426629707323243
3 195 130 129 0.4897473803344743 0.2887043024053334 0.5426629707323243
3 129 194 195 0.4897473803344743 0.2887043024053334 0.5426629707323243
3 194 264 195 0.4897473803344743 0.2887043024053334 0.5426629707323243
3 81 431 285 0.4897473803344743 0.2887043024053334 0.5426629707323243
3 431 286 285 0.4897473803344743 0.2887043024053334 0.5426629707323243
3 285 284 81 0.4897473803344743 0.2887043024053334 0.5426629707323243
3 285 85 284 0.4897473803344743 0.2887043024053334 0.5426629707323243
3 390 85 285 0.4897473803344743 0.2887043024053334 0.5426629707323243
3 500 265 499 0.4897473803344743 0.2887043024053334 0.5426629707323243
3 294 293 390 0.4897473803344743 0.2887043024053334 0.5426629707323243
3 295 500 294 0.4897473803344743 0.2887043024053334 0.5426629707323243
3 499 293 294 0.4897473803344743 0.2887043024053334 0.5426629707323243
3 294 500 499 0.4897473803344743 0.2887043024053334 0.5426629707323243
3 390 285 391 0.4897473803344743 0.2887043024053334 0.5426629707323243
3 391 285 286 0.4897473803344743 0.2887043024053334 0.5426629707323243
3 391 294 390 0.4897473803344743 0.2887043024053334 0.5426629707323243
3 295 294 391 0.4897473803344743 0.2887043024053334 0.5426629707323243
3 434 435 288 0.4897473803344743 0.2887043024053334 0.5426629707323243
3 288 433 434 0.4897473803344743 0.2887043024053334 0.5426629707323243
3 503 395 504 0.4897473803344743 0.2887043024053334 0.5426629707323243
3 503 447 446 0.4897473803344743 0.2887043024053334 0.5426629707323243
3 504 447 503 0.4897473803344743 0.2887043024053334 0.5426629707323243
3 490 320 489 0.4897473803344743 0.2887043024053334 0.5426629707323243
3 384 490 489 0.4897473803344743 0.2887043024053334 0.5426629707323243
3 489 383 384 0.4897473803344743 0.2887043024053334 0.5426629707323243
3 489 488 383 0.4897473803344743 0.2887043024053334 0.5426629707323243
3 319 320 259 0.4897473803344743 0.2887043024053334 0.5426629707323243
3 259 258 319 0.4897473803344743 0.2887043024053334 0.5426629707323243
3 319 258 318 0.4897473803344743 0.2887043024053334 0.5426629707323243
3 184 488 319 0.4897473803344743 0.2887043024053334 0.5426629707323243
3 319 318 184 0.4897473803344743 0.2887043024053334 0.5426629707323243
3 488 489 319 0.4897473803344743 0.2887043024053334 0.5426629707323243
3 319 489 320 0.4897473803344743 0.2887043024053334 0.5426629707323243
3 81 429 430 0.4897473803344743 0.2887043024053334 0.5426629707323243
3 430 431 81 0.4897473803344743 0.2887043024053334 0.5426629707323243
3 430 119 431 0.4897473803344743 0.2887043024053334 0.5426629707323243
3 430 118 119 0.4897473803344743 0.2887043024053334 0.5426629707323243
3 430 429 118 0.4897473803344743 0.2887043024053334 0.5426629707323243
3 204 406 203 0.4897473803344743 0.2887043024053334 0.5426629707323243
3 203 323 204 0.4897473803344743 0.2887043024053334 0.5426629707323243
3 406 53 203 0.4897473803344743 0.2887043024053334 0.5426629707323243
3 203 53 52 0.4897473803344743 0.2887043024053334 0.5426629707323243
3 203 52 322 0.4897473803344743 0.2887043024053334 0.5426629707323243
3 322 323 203 0.4897473803344743 0.2887043024053334 0.5426629707323243
3 408 205 325 0.4897473803344743 0.2887043024053334 0.5426629707323243
3 138 139 325 0.4897473803344743 0.2887043024053334 0.5426629707323243
3 325 324 138 0.4897473803344743 0.2887043024053334 0.5426629707323243
3 205 324 325 0.4897473803344743 0.2887043024053334 0.5426629707323243
3 199 134 133 0.4897473803344743 0.2887043024053334 0.5426629707323243
3 199 275 276 0.4897473803344743 0.2887043024053334 0.5426629707323243
3 276 200 199 0.4897473803344743 0.2887043024053334 0.5426629707323243
3 200 134 199 0.4897473803344743 0.2887043024053334 0.5426629707323243
3 133 198 199 0.4897473803344743 0.2887043024053334 0.5426629707323243
3 199 198 275 0.4897473803344743 0.2887043024053334 0.5426629707323243
3 459 515 516 0.4897473803344743 0.2887043024053334 0.5426629707323243
3 458 515 459 0.4897473803344743 0.2887043024053334 0.5426629707323243
3 516 517 459 0.4897473803344743 0.2887043024053334 0.5426629707323243
3 459 415 458 0.4897473803344743 0.2887043024053334 0.5426629707323243
3 529 528 459 0.4897473803344743 0.2887043024053334 0.5426629707323243
3 459 517 529 0.4897473803344743 0.2887043024053334 0.5426629707323243
3 526 415 527 0.4897473803344743 0.2887043024053334 0.5426629707323243
3 527 348 526 0.4897473803344743 0.2887043024053334 0.5426629707323243
3 527 459 528 0.4897473803344743 0.2887043024053334 0.5426629707323243
3 415 459 527 0.4897473803344743 0.2887043024053334 0.5426629707323243
3 527 528 469 0.4897473803344743 0.2887043024053334 0.5426629707323243
3 469 348 527 0.4897473803344743 0.2887043024053334 0.5426629707323243
3 414 330 457 0.4897473803344743 0.2887043024053334 0.5426629707323243
3 457 458 414 0.4897473803344743 0.2887043024053334 0.5426629707323243
3 458 415 414 0.4897473803344743 0.2887043024053334 0.5426629707323243
3 525 524 338 0.4897473803344743 0.2887043024053334 0.5426629707323243
3 526 347 525 0.4897473803344743 0.2887043024053334 0.5426629707323243
3 347 346 525 0.4897473803344743 0.2887043024053334 0.5426629707323243
3 346 524 525 0.4897473803344743 0.2887043024053334 0.5426629707323243
3 523 522 220 0.4897473803344743 0.2887043024053334 0.5426629707323243
3 220 337 523 0.4897473803344743 0.2887043024053334 0.5426629707323243
3 336 337 220 0.4897473803344743 0.2887043024053334 0.5426629707323243
3 220 219 336 0.4897473803344743 0.2887043024053334 0.5426629707323243
3 522 219 220 0.4897473803344743 0.2887043024053334 0.5426629707323243
3 338 337 413 0.4897473803344743 0.2887043024053334 0.5426629707323243
3 413 414 338 0.4897473803344743 0.2887043024053334 0.5426629707323243
3 330 414 413 0.4897473803344743 0.2887043024053334 0.5426629707323243
3 413 329 330 0.4897473803344743 0.2887043024053334 0.5426629707323243
3 413 337 412 0.4897473803344743 0.2887043024053334 0.5426629707323243
3 412 329 413 0.4897473803344743 0.2887043024053334 0.5426629707323243
3 327 410 207 0.4897473803344743 0.2887043024053334 0.5426629707323243
3 327 208 410 0.4897473803344743 0.2887043024053334 0.5426629707323243
3 207 140 327 0.4897473803344743 0.2887043024053334 0.5426629707323243
3 140 453 327 0.4897473803344743 0.2887043024053334 0.5426629707323243
3 328 208 327 0.4897473803344743 0.2887043024053334 0.5426629707323243
3 461 148 462 0.4897473803344743 0.2887043024053334 0.5426629707323243
3 153 461 462 0.4897473803344743 0.2887043024053334 0.5426629707323243
3 462 154 153 0.4897473803344743 0.2887043024053334 0.5426629707323243
3 462 463 154 0.4897473803344743 0.2887043024053334 0.5426629707323243
3 150 463 149 0.4897473803344743 0.2887043024053334 0.5426629707323243
3 149 148 343 0.4897473803344743 0.2887043024053334 0.5426629707323243
3 463 462 149 0.4897473803344743 0.2887043024053334 0.5426629707323243
3 149 462 148 0.4897473803344743 0.2887043024053334 0.5426629707323243
3 149 343 344 0.4897473803344743 0.2887043024053334 0.5426629707323243
3 344 150 149 0.4897473803344743 0.2887043024053334 0.5426629707323243
3 485 115 486 0.4897473803344743 0.2887043024053334 0.5426629707323243
3 486 182 485 0.4897473803344743 0.2887043024053334 0.5426629707323243
3 183 182 486 0.4897473803344743 0.2887043024053334 0.5426629707323243
3 250 380 381 0.4897473803344743 0.2887043024053334 0.5426629707323243
3 176 249 250 0.4897473803344743 0.2887043024053334 0.5426629707323243
3 250 249 380 0.4897473803344743 0.2887043024053334 0.5426629707323243
3 177 114 176 0.4897473803344743 0.2887043024053334 0.5426629707323243
3 177 115 114 0.4897473803344743 0.2887043024053334 0.5426629707323243
3 176 250 177 0.4897473803344743 0.2887043024053334 0.5426629707323243
3 164 165 109 0.4897473803344743 0.2887043024053334 0.5426629707323243
3 243 165 164 0.4897473803344743 0.2887043024053334 0.5426629707323243
3 164 242 243 0.4897473803344743 0.2887043024053334 0.5426629707323243
3 163 242 164 0.4897473803344743 0.2887043024053334 0.5426629707323243
3 164 109 108 0.4897473803344743 0.2887043024053334 0.5426629707323243
3 108 163 164 0.4897473803344743 0.2887043024053334 0.5426629707323243
3 478 375 549 0.4897473803344743 0.2887043024053334 0.5426629707323243
3 549 375 423 0.4897473803344743 0.2887043024053334 0.5426629707323243
3 423 422 549 0.4897473803344743 0.2887043024053334 0.5426629707323243
3 422 245 549 0.4897473803344743 0.2887043024053334 0.5426629707323243
3 364 365 478 0.4897473803344743 0.2887043024053334 0.5426629707323243
3 364 535 536 0.4897473803344743 0.2887043024053334 0.5426629707323243
3 536 365 364 0.4897473803344743 0.2887043024053334 0.5426629707323243
3 363 362 225 0.4897473803344743 0.2887043024053334 0.5426629707323243
3 67 66 358 0.4897473803344743 0.2887043024053334 0.5426629707323243
3 358 227 67 0.4897473803344743 0.2887043024053334 0.5426629707323243
3 358 228 227 0.4897473803344743 0.2887043024053334 0.5426629707323243
3 543 239 367 0.4897473803344743 0.2887043024053334 0.5426629707323243
3 233 543 367 0.4897473803344743 0.2887043024053334 0.5426629707323243
3 367 70 233 0.4897473803344743 0.2887043024053334 0.5426629707323243
3 0 70 367 0.4897473803344743 0.2887043024053334 0.5426629707323243
3 418 168 417 0.4897473803344743 0.2887043024053334 0.5426629707323243
3 418 169 168 0.4897473803344743 0.2887043024053334 0.5426629707323243
3 418 417 108 0.4897473803344743 0.2887043024053334 0.5426629707323243
3 418 419 169 0.4897473803344743 0.2887043024053334 0.5426629707323243
3 108 109 418 0.4897473803344743 0.2887043024053334 0.5426629707323243
3 109 419 418 0.4897473803344743 0.2887043024053334 0.5426629707323243
3 170 419 420 0.4897473803344743 0.2887043024053334 0.5426629707323243
3 420 171 170 0.4897473803344743 0.2887043024053334 0.5426629707323243
3 420 419 110 0.4897473803344743 0.2887043024053334 0.5426629707323243
3 421 171 420 0.4897473803344743 0.2887043024053334 0.5426629707323243
3 110 166 420 0.4897473803344743 0.2887043024053334 0.5426629707323243
3 166 421 420 0.4897473803344743 0.2887043024053334 0.5426629707323243
3 300 96 299 0.4897473803344743 0.2887043024053334 0.5426629707323243
3 299 96 95 0.4897473803344743 0.2887043024053334 0.5426629707323243
3 95 298 299 0.4897473803344743 0.2887043024053334 0.5426629707323243
3 441 442 300 0.4897473803344743 0.2887043024053334 0.5426629707323243
3 93 442 441 0.4897473803344743 0.2887043024053334 0.5426629707323243
3 441 74 93 0.4897473803344743 0.2887043024053334 0.5426629707323243
3 441 440 74 0.4897473803344743 0.2887043024053334 0.5426629707323243
3 389 85 390 0.4897473803344743 0.2887043024053334 0.5426629707323243
3 390 293 389 0.4897473803344743 0.2887043024053334 0.5426629707323243
3 293 89 389 0.4897473803344743 0.2887043024053334 0.5426629707323243
3 84 85 389 0.4897473803344743 0.2887043024053334 0.5426629707323243
3 388 84 389 0.4897473803344743 0.2887043024053334 0.5426629707323243
3 389 89 388 0.4897473803344743 0.2887043024053334 0.5426629707323243
3 266 196 265 0.4897473803344743 0.2887043024053334 0.5426629707323243
3 265 500 266 0.4897473803344743 0.2887043024053334 0.5426629707323243
3 266 444 443 0.4897473803344743 0.2887043024053334 0.5426629707323243
3 443 196 266 0.4897473803344743 0.2887043024053334 0.5426629707323243
3 392 391 286 0.4897473803344743 0.2887043024053334 0.5426629707323243
3 295 391 392 0.4897473803344743 0.2887043024053334 0.5426629707323243
3 409 408 206 0.4897473803344743 0.2887043024053334 0.5426629707323243
3 408 325 206 0.4897473803344743 0.2887043024053334 0.5426629707323243
3 206 325 139 0.4897473803344743 0.2887043024053334 0.5426629707323243
3 338 414 339 0.4897473803344743 0.2887043024053334 0.5426629707323243
3 339 525 338 0.4897473803344743 0.2887043024053334 0.5426629707323243
3 339 414 415 0.4897473803344743 0.2887043024053334 0.5426629707323243
3 339 415 526 0.4897473803344743 0.2887043024053334 0.5426629707323243
3 526 525 339 0.4897473803344743 0.2887043024053334 0.5426629707323243
3 454 327 453 0.4897473803344743 0.2887043024053334 0.5426629707323243
3 328 327 454 0.4897473803344743 0.2887043024053334 0.5426629707323243
3 454 453 135 0.4897473803344743 0.2887043024053334 0.5426629707323243
3 455 328 454 0.4897473803344743 0.2887043024053334 0.5426629707323243
3 135 202 454 0.4897473803344743 0.2887043024053334 0.5426629707323243
3 202 455 454 0.4897473803344743 0.2887043024053334 0.5426629707323243
3 184 183 487 0.4897473803344743 0.2887043024053334 0.5426629707323243
3 183 486 487 0.4897473803344743 0.2887043024053334 0.5426629707323243
3 487 488 184 0.4897473803344743 0.2887043024053334 0.5426629707323243
3 252 488 487 0.4897473803344743 0.2887043024053334 0.5426629707323243
3 487 486 115 0.4897473803344743 0.2887043024053334 0.5426629707323243
3 251 382 252 0.4897473803344743 0.2887043024053334 0.5426629707323243
3 381 382 251 0.4897473803344743 0.2887043024053334 0.5426629707323243
3 251 250 381 0.4897473803344743 0.2887043024053334 0.5426629707323243
3 251 177 250 0.4897473803344743 0.2887043024053334 0.5426629707323243
3 548 549 245 0.4897473803344743 0.2887043024053334 0.5426629707323243
3 548 238 476 0.4897473803344743 0.2887043024053334 0.5426629707323243
3 245 244 548 0.4897473803344743 0.2887043024053334 0.5426629707323243
3 244 238 548 0.4897473803344743 0.2887043024053334 0.5426629707323243
3 232 362 363 0.4897473803344743 0.2887043024053334 0.5426629707323243
3 372 243 371 0.4897473803344743 0.2887043024053334 0.5426629707323243
3 372 244 243 0.4897473803344743 0.2887043024053334 0.5426629707323243
3 372 238 244 0.4897473803344743 0.2887043024053334 0.5426629707323243
3 535 364 226 0.4897473803344743 0.2887043024053334 0.5426629707323243
3 226 364 363 0.4897473803344743 0.2887043024053334 0.5426629707323243
3 363 225 226 0.4897473803344743 0.2887043024053334 0.5426629707323243
3 533 158 159 0.4897473803344743 0.2887043024053334 0.5426629707323243
3 532 158 533 0.4897473803344743 0.2887043024053334 0.5426629707323243
3 0 367 2 0.4897473803344743 0.2887043024053334 0.5426629707323243
3 2 239 3 0.4897473803344743 0.2887043024053334 0.5426629707323243
3 2 367 239 0.4897473803344743 0.2887043024053334 0.5426629707323243
3 440 441 77 0.4897473803344743 0.2887043024053334 0.5426629707323243
3 76 440 77 0.4897473803344743 0.2887043024053334 0.5426629707323243
3 300 299 77 0.4897473803344743 0.2887043024053334 0.5426629707323243
3 77 441 300 0.4897473803344743 0.2887043024053334 0.5426629707323243
3 77 298 76 0.4897473803344743 0.2887043024053334 0.5426629707323243
3 77 299 298 0.4897473803344743 0.2887043024053334 0.5426629707323243
3 501 500 295 0.4897473803344743 0.2887043024053334 0.5426629707323243
3 501 266 500 0.4897473803344743 0.2887043024053334 0.5426629707323243
3 501 445 444 0.4897473803344743 0.2887043024053334 0.5426629707323243
3 444 266 501 0.4897473803344743 0.2887043024053334 0.5426629707323243
3 287 392 286 0.4897473803344743 0.2887043024053334 0.5426629707323243
3 433 288 287 0.4897473803344743 0.2887043024053334 0.5426629707323243
3 432 433 287 0.4897473803344743 0.2887043024053334 0.5426629707323243
3 287 286 432 0.4897473803344743 0.2887043024053334 0.5426629707323243
3 393 287 288 0.4897473803344743 0.2887043024053334 0.5426629707323243
3 392 287 393 0.4897473803344743 0.2887043024053334 0.5426629707323243
3 207 409 326 0.4897473803344743 0.2887043024053334 0.5426629707323243
3 409 206 326 0.4897473803344743 0.2887043024053334 0.5426629707323243
3 326 140 207 0.4897473803344743 0.2887043024053334 0.5426629707323243
3 326 139 140 0.4897473803344743 0.2887043024053334 0.5426629707323243
3 326 206 139 0.4897473803344743 0.2887043024053334 0.5426629707323243
3 178 487 115 0.4897473803344743 0.2887043024053334 0.5426629707323243
3 115 177 178 0.4897473803344743 0.2887043024053334 0.5426629707323243
3 177 251 178 0.4897473803344743 0.2887043024053334 0.5426629707323243
3 252 487 178 0.4897473803344743 0.2887043024053334 0.5426629707323243
3 178 251 252 0.4897473803344743 0.2887043024053334 0.5426629707323243
3 477 548 476 0.4897473803344743 0.2887043024053334 0.5426629707323243
3 549 548 477 0.4897473803344743 0.2887043024053334 0.5426629707323243
3 476 232 477 0.4897473803344743 0.2887043024053334 0.5426629707323243
3 477 232 363 0.4897473803344743 0.2887043024053334 0.5426629707323243
3 478 549 477 0.4897473803344743 0.2887043024053334 0.5426629707323243
3 477 364 478 0.4897473803344743 0.2887043024053334 0.5426629707323243
3 363 364 477 0.4897473803344743 0.2887043024053334 0.5426629707323243
3 474 236 473 0.4897473803344743 0.2887043024053334 0.5426629707323243
3 371 236 474 0.4897473803344743 0.2887043024053334 0.5426629707323243
3 476 238 231 0.4897473803344743 0.2887043024053334 0.5426629707323243
3 231 232 476 0.4897473803344743 0.2887043024053334 0.5426629707323243
3 362 232 231 0.4897473803344743 0.2887043024053334 0.5426629707323243
3 534 226 225 0.4897473803344743 0.2887043024053334 0.5426629707323243
3 225 533 534 0.4897473803344743 0.2887043024053334 0.5426629707323243
3 160 535 534 0.4897473803344743 0.2887043024053334 0.5426629707323243
3 535 226 534 0.4897473803344743 0.2887043024053334 0.5426629707323243
3 159 160 534 0.4897473803344743 0.2887043024053334 0.5426629707323243
3 534 533 159 0.4897473803344743 0.2887043024053334 0.5426629707323243
3 394 393 288 0.4897473803344743 0.2887043024053334 0.5426629707323243
3 394 435 395 0.4897473803344743 0.2887043024053334 0.5426629707323243
3 394 288 435 0.4897473803344743 0.2887043024053334 0.5426629707323243
3 395 503 394 0.4897473803344743 0.2887043024053334 0.5426629707323243
3 445 501 502 0.4897473803344743 0.2887043024053334 0.5426629707323243
3 502 394 503 0.4897473803344743 0.2887043024053334 0.5426629707323243
3 393 394 502 0.4897473803344743 0.2887043024053334 0.5426629707323243
3 446 445 502 0.4897473803344743 0.2887043024053334 0.5426629707323243
3 502 503 446 0.4897473803344743 0.2887043024053334 0.5426629707323243
3 296 501 295 0.4897473803344743 0.2887043024053334 0.5426629707323243
3 295 392 296 0.4897473803344743 0.2887043024053334 0.5426629707323243
3 392 393 296 0.4897473803344743 0.2887043024053334 0.5426629707323243
3 296 502 501 0.4897473803344743 0.2887043024053334 0.5426629707323243
3 393 502 296 0.4897473803344743 0.2887043024053334 0.5426629707323243
3 473 228 229 0.4897473803344743 0.2887043024053334 0.5426629707323243
3 229 474 473 0.4897473803344743 0.2887043024053334 0.5426629707323243
3 230 474 229 0.4897473803344743 0.2887043024053334 0.5426629707323243
3 229 360 230 0.4897473803344743 0.2887043024053334 0.5426629707323243
3 237 372 371 0.4897473803344743 0.2887043024053334 0.5426629707323243
3 371 474 237 0.4897473803344743 0.2887043024053334 0.5426629707323243
3 221 358 66 0.4897473803344743 0.2887043024053334 0.5426629707323243
3 66 65 221 0.4897473803344743 0.2887043024053334 0.5426629707323243
3 362 231 361 0.4897473803344743 0.2887043024053334 0.5426629707323243
3 230 360 361 0.4897473803344743 0.2887043024053334 0.5426629707323243
3 361 231 230 0.4897473803344743 0.2887043024053334 0.5426629707323243
3 475 231 238 0.4897473803344743 0.2887043024053334 0.5426629707323243
3 230 231 475 0.4897473803344743 0.2887043024053334 0.5426629707323243
3 238 372 475 0.4897473803344743 0.2887043024053334 0.5426629707323243
3 372 237 475 0.4897473803344743 0.2887043024053334 0.5426629707323243
3 475 474 230 0.4897473803344743 0.2887043024053334 0.5426629707323243
3 475 237 474 0.4897473803344743 0.2887043024053334 0.5426629707323243
3 228 358 359 0.4897473803344743 0.2887043024053334 0.5426629707323243
3 359 229 228 0.4897473803344743 0.2887043024053334 0.5426629707323243
3 358 221 359 0.4897473803344743 0.2887043024053334 0.5426629707323243
3 360 229 359 0.4897473803344743 0.2887043024053334 0.5426629707323243
3 530 221 65 0.4897473803344743 0.2887043024053334 0.5426629707323243
3 530 64 156 0.4897473803344743 0.2887043024053334 0.5426629707323243
3 530 65 64 0.4897473803344743 0.2887043024053334 0.5426629707323243
3 362 361 224 0.4897473803344743 0.2887043024053334 0.5426629707323243
3 224 225 362 0.4897473803344743 0.2887043024053334 0.5426629707323243
3 532 533 224 0.4897473803344743 0.2887043024053334 0.5426629707323243
3 224 533 225 0.4897473803344743 0.2887043024053334 0.5426629707323243
3 531 530 156 0.4897473803344743 0.2887043024053334 0.5426629707323243
3 156 157 531 0.4897473803344743 0.2887043024053334 0.5426629707323243
3 157 532 531 0.4897473803344743 0.2887043024053334 0.5426629707323243
3 221 530 222 0.4897473803344743 0.2887043024053334 0.5426629707323243
3 360 359 222 0.4897473803344743 0.2887043024053334 0.5426629707323243
3 222 359 221 0.4897473803344743 0.2887043024053334 0.5426629707323243
3 530 531 222 0.4897473803344743 0.2887043024053334 0.5426629707323243
3 223 222 531 0.4897473803344743 0.2887043024053334 0.5426629707323243
3 223 224 361 0.4897473803344743 0.2887043024053334 0.5426629707323243
3 223 361 360 0.4897473803344743 0.2887043024053334 0.5426629707323243
3 360 222 223 0.4897473803344743 0.2887043024053334 0.5426629707323243
3 532 224 223 0.4897473803344743 0.2887043024053334 0.5426629707323243
3 223 531 532 0.4897473803344743 0.2887043024053334 0.5426629707323243
