OFF
25 19 0


28.6979 35.3085 9.3898
28.6979 35.3085 9.3898
28.6334 35.2981 9.3556
28.569 35.2877 9.3214
28.5045 35.2773 9.2873
28.44 35.2669 9.2531
28.3755 35.2564 9.2189
28.3755 35.2564 9.2189
28.3173 35.3525 9.2939
28.2711 35.4263 9.351
28.2302 35.4898 9.3997
28.1905 35.5502 9.4457
28.148 35.6133 9.4935
28.0976 35.6863 9.5482
28.0307 35.7804 9.6181
28.1392 35.7087 9.586
28.223 35.6543 9.5622
28.2954 35.6079 9.5423
28.3647 35.5641 9.5238
28.4379 35.5185 9.5049
28.5233 35.4659 9.4835
28.6357 35.3979 9.4566
28.6357 35.3979 9.4566
28.6667 35.3532 9.4231
28.6979 35.3085 9.3898
3 9 20 19 0.3091943984087294 0.8759636861588153 0.5995238401073887
3 10 9 19 0.3091943984087294 0.8759636861588153 0.5995238401073887
3 11 17 12 0.3091943984087294 0.8759636861588153 0.5995238401073887
3 21 20 3 0.3091943984087294 0.8759636861588153 0.5995238401073887
3 20 4 3 0.3091943984087294 0.8759636861588153 0.5995238401073887
3 20 9 8 0.3091943984087294 0.8759636861588153 0.5995238401073887
3 8 4 20 0.3091943984087294 0.8759636861588153 0.5995238401073887
3 8 5 4 0.3091943984087294 0.8759636861588153 0.5995238401073887
3 6 5 8 0.3091943984087294 0.8759636861588153 0.5995238401073887
3 14 13 15 0.3091943984087294 0.8759636861588153 0.5995238401073887
3 18 17 11 0.3091943984087294 0.8759636861588153 0.5995238401073887
3 11 10 18 0.3091943984087294 0.8759636861588153 0.5995238401073887
3 18 10 19 0.3091943984087294 0.8759636861588153 0.5995238401073887
3 2 23 21 0.3091943984087294 0.8759636861588153 0.5995238401073887
3 21 3 2 0.3091943984087294 0.8759636861588153 0.5995238401073887
3 0 23 2 0.3091943984087294 0.8759636861588153 0.5995238401073887
3 16 12 17 0.3091943984087294 0.8759636861588153 0.5995238401073887
3 13 12 16 0.3091943984087294 0.8759636861588153 0.5995238401073887
3 16 15 13 0.3091943984087294 0.8759636861588153 0.5995238401073887
