OFF
384 706 0


27.3046 34.7557 7.0443
27.3046 34.7557 7.0443
27.292 34.6897 7.1478
27.2824 34.6423 7.2232
27.2685 34.5775 7.3273
27.2685 34.5775 7.3273
27.2442 34.4701 7.4057
27.222 34.3766 7.4701
27.2012 34.2925 7.5252
27.1812 34.2143 7.574
27.1615 34.1391 7.6189
27.1414 34.0645 7.6615
27.1204 33.9882 7.7033
27.0976 33.9074 7.7457
27.072 33.8188 7.7901
27.0423 33.718 7.8381
27.0063 33.5985 7.8922
27.0287 33.6614 7.7688
27.0485 33.72 7.6567
27.0661 33.7751 7.5537
27.0819 33.8272 7.4582
27.0962 33.8771 7.3689
27.1093 33.9251 7.2845
27.1214 33.9717 7.2042
27.1327 34.0172 7.127
27.1433 34.062 7.0524
27.1533 34.1065 6.9795
27.1629 34.1508 6.9078
27.1721 34.1954 6.8367
27.1811 34.2406 6.7657
27.1898 34.2867 6.6941
27.1985 34.3341 6.6213
27.2071 34.3833 6.5468
27.2157 34.4347 6.4697
27.2245 34.4889 6.3894
27.2334 34.5465 6.3048
27.2427 34.6085 6.2148
27.2523 34.6758 6.118
27.2624 34.7497 6.0128
27.2733 34.8319 5.8969
27.2733 34.8319 5.8969
27.2781 34.8138 6.0466
27.2817 34.801 6.1636
27.2847 34.7911 6.2616
27.2873 34.7832 6.3486
27.2896 34.7765 6.4296
27.2918 34.7708 6.5088
27.294 34.7657 6.5896
27.2962 34.7612 6.6762
27.2986 34.7575 6.774
27.3013 34.7551 6.8913
27.3046 34.7557 7.0443
27.2973 34.7215 7.0364
27.2806 34.7386 6.4102
27.2742 34.6962 6.4691
27.2678 34.6558 6.5254
27.2848 34.7297 6.5518
27.278 34.6902 6.5933
27.2713 34.652 6.6336
27.1673 34.168 6.9116
27.1716 34.185 6.9155
27.1759 34.202 6.9193
27.1802 34.2189 6.9231
27.184 34.2504 6.7821
27.1868 34.26 6.7985
27.1897 34.2696 6.8146
27.1924 34.2791 6.8306
27.2 34.3357 6.6517
27.2015 34.3373 6.6814
27.2029 34.3388 6.7107
27.2042 34.3404 6.7394
27.2159 34.4266 6.5161
27.216 34.4188 6.5611
27.216 34.4113 6.6048
27.2159 34.4039 6.6473
27.2783 34.7444 6.3342
27.2721 34.7002 6.403
27.2659 34.6584 6.4683
27.2599 34.6186 6.5307
27.289 34.7232 6.7016
27.2819 34.6861 6.7265
27.2749 34.6499 6.7509
27.2679 34.6144 6.7747
27.2772 34.6188 7.2013
27.2719 34.5953 7.1794
27.2666 34.5717 7.1574
27.2611 34.548 7.1354
27.2555 34.5242 7.1132
27.1847 34.2248 7.5249
27.188 34.2354 7.4758
27.1911 34.2462 7.4264
27.1941 34.257 7.3768
27.1969 34.268 7.3267
27.1486 34.0873 7.6039
27.1555 34.11 7.5466
27.1622 34.1327 7.4896
27.1686 34.1556 7.4327
27.1747 34.1786 7.3755
27.1094 33.9442 7.6782
27.1206 33.9804 7.6121
27.1313 34.0163 7.5469
27.1416 34.052 7.4825
27.1514 34.0876 7.4184
27.1187 33.9603 7.2567
27.1278 33.9954 7.2291
27.1368 34.0304 7.2016
27.1457 34.0654 7.1743
27.1544 34.1005 7.147
27.1397 34.045 7.1124
27.1467 34.0726 7.0979
27.1536 34.1003 7.0834
27.1604 34.128 7.069
27.1671 34.1557 7.0546
27.1585 34.1271 6.9772
27.1637 34.1477 6.975
27.1688 34.1683 6.9727
27.1738 34.1888 6.9705
27.1788 34.2093 6.9683
27.2321 34.5265 6.3707
27.2308 34.5073 6.4337
27.2293 34.489 6.4941
27.2278 34.4715 6.5521
27.2262 34.4547 6.608
27.2493 34.6399 6.209
27.2463 34.6064 6.2944
27.2432 34.5749 6.3749
27.2401 34.5452 6.4511
27.2369 34.5171 6.5234
27.2682 34.7739 6.0222
27.2632 34.7211 6.137
27.2582 34.6725 6.2427
27.2533 34.6276 6.3409
27.2484 34.5859 6.4325
27.2724 34.7609 6.1489
27.2668 34.7118 6.244
27.2613 34.6662 6.3327
27.2559 34.6235 6.416
27.2506 34.5834 6.4945
27.2029 34.2969 7.4803
27.2044 34.3014 7.4353
27.2059 34.306 7.39
27.2072 34.3106 7.3443
27.2084 34.3154 7.2981
27.2094 34.3202 7.2514
27.0607 33.774 7.7574
27.0779 33.8281 7.6798
27.0941 33.8809 7.6047
27.1094 33.9326 7.5315
27.124 33.9836 7.4596
27.1379 34.0344 7.3886
27.0652 33.7747 7.594
27.0811 33.8282 7.5331
27.0962 33.8806 7.4737
27.1108 33.9323 7.4155
27.1247 33.9836 7.358
27.1382 34.0347 7.301
27.0943 33.8711 7.4151
27.1063 33.9145 7.3726
27.1179 33.9576 7.3305
27.1293 34.0004 7.2889
27.1403 34.0432 7.2474
27.1512 34.0861 7.2061
27.2756 34.7515 6.2493
27.2697 34.7052 6.3297
27.2638 34.6617 6.4056
27.2581 34.6206 6.4774
27.2524 34.5817 6.5456
27.2467 34.5447 6.6107
27.294 34.7198 6.8966
27.2867 34.685 6.9018
27.2795 34.6505 6.9069
27.2722 34.6164 6.9121
27.2649 34.5826 6.9173
27.2576 34.5491 6.9224
27.2422 34.4608 7.3702
27.2402 34.4514 7.3345
27.2381 34.4419 7.2985
27.2358 34.4324 7.2622
27.2334 34.4228 7.2255
27.2309 34.4131 7.1884
27.2283 34.4033 7.1508
27.0484 33.723 7.6938
27.0667 33.7825 7.6217
27.0841 33.8403 7.552
27.1005 33.897 7.4841
27.1162 33.9529 7.4176
27.1313 34.0083 7.352
27.1457 34.0637 7.2868
27.2869 34.7262 6.6239
27.2799 34.6879 6.6572
27.273 34.6507 6.6897
27.2662 34.6145 6.7214
27.2595 34.5792 6.7523
27.2528 34.5448 6.7826
27.2461 34.5111 6.8123
27.1297 34.0176 7.641
27.1387 34.0467 7.5795
27.1472 34.0758 7.5186
27.1554 34.1048 7.4579
27.1634 34.134 7.3974
27.1711 34.1634 7.3366
27.1785 34.1931 7.2754
27.1857 34.2234 7.2135
27.1295 34.0031 7.1832
27.1375 34.0344 7.1622
27.1454 34.0657 7.1414
27.1532 34.097 7.1206
27.1609 34.1283 7.0999
27.1685 34.1597 7.0792
27.1761 34.1913 7.0584
27.1835 34.223 7.0376
27.1921 34.2925 6.7173
27.1942 34.2983 6.7401
27.1963 34.3039 6.7627
27.1984 34.3095 6.785
27.2004 34.3151 6.8069
27.2023 34.3205 6.8286
27.2042 34.3259 6.85
27.2061 34.3313 6.8712
27.2239 34.4752 6.445
27.2233 34.462 6.4985
27.2226 34.4493 6.5502
27.2218 34.4371 6.6002
27.2209 34.4253 6.6487
27.22 34.4139 6.6957
27.219 34.4029 6.7414
27.2179 34.3921 6.7859
27.2585 34.7038 6.1195
27.2545 34.6614 6.2185
27.2505 34.6219 6.3108
27.2466 34.5851 6.3974
27.2425 34.5505 6.4789
27.2385 34.5179 6.5561
27.2344 34.487 6.6294
27.2302 34.4576 6.6994
27.2859 34.662 7.1317
27.2798 34.6342 7.1156
27.2735 34.6065 7.0996
27.2672 34.5787 7.0835
27.2608 34.5508 7.0675
27.2543 34.5229 7.0514
27.2477 34.4948 7.0352
27.241 34.4666 7.0191
27.2342 34.4383 7.0028
27.2219 34.3746 7.4297
27.2217 34.3725 7.3891
27.2214 34.3705 7.3481
27.221 34.3684 7.3068
27.2204 34.3664 7.265
27.2198 34.3644 7.2227
27.219 34.3623 7.1798
27.2181 34.3603 7.1362
27.217 34.3583 7.0919
27.0296 33.6682 7.8022
27.051 33.7347 7.717
27.0709 33.7987 7.6355
27.0896 33.8609 7.5569
27.1072 33.9217 7.4804
27.124 33.9817 7.4055
27.1399 34.0414 7.3314
27.1553 34.1013 7.2576
27.1702 34.1618 7.1835
27.0804 33.824 7.5015
27.0942 33.8721 7.4504
27.1075 33.9197 7.4001
27.1203 33.9668 7.3505
27.1328 34.0137 7.3013
27.1449 34.0606 7.2524
27.1567 34.1077 7.2036
27.1683 34.1551 7.1546
27.1796 34.203 7.1053
27.1758 34.2089 6.8468
27.1793 34.2224 6.8568
27.1829 34.2357 6.8667
27.1864 34.249 6.8766
27.1898 34.2621 6.8864
27.1933 34.2752 6.8961
27.1966 34.2882 6.9058
27.2 34.3011 6.9154
27.2033 34.314 6.925
27.2828 34.7338 6.4816
27.2761 34.693 6.5315
27.2696 34.6537 6.5796
27.2631 34.6159 6.626
27.2567 34.5794 6.6709
27.2504 34.5441 6.7144
27.2441 34.5099 6.7567
27.2378 34.4767 6.7979
27.2316 34.4444 6.838
27.2973 34.7215 7.0364
27.2899 34.6875 7.0286
27.2826 34.6538 7.0209
27.2751 34.6201 7.0133
27.2676 34.5866 7.0057
27.2601 34.5531 6.9981
27.2525 34.5197 6.9906
27.2448 34.4863 6.9832
27.237 34.4528 6.9757
27.1668 34.1557 7.5656
27.1718 34.1723 7.5124
27.1767 34.189 7.4592
27.1813 34.2058 7.4059
27.1858 34.2229 7.3522
27.1901 34.2402 7.2981
27.1943 34.2577 7.2433
27.1983 34.2756 7.1877
27.2022 34.294 7.1311
27.2059 34.3128 7.0734
27.1069 33.9164 7.3338
27.1174 33.9555 7.299
27.1277 33.9945 7.2645
27.1377 34.0333 7.2302
27.1475 34.0722 7.1961
27.1572 34.1111 7.1619
27.1668 34.1503 7.1278
27.1762 34.1897 7.0935
27.1855 34.2295 7.059
27.1947 34.2698 7.0242
27.2079 34.3803 6.5848
27.2087 34.3773 6.6219
27.2094 34.3745 6.6581
27.2101 34.3718 6.6936
27.2107 34.3691 6.7283
27.2112 34.3665 6.7623
27.2116 34.3639 6.7956
27.212 34.3614 6.8283
27.2123 34.359 6.8604
27.2126 34.3567 6.8919
27.2914 34.7209 6.7899
27.2842 34.685 6.8056
27.277 34.6496 6.8211
27.2699 34.6149 6.8364
27.2627 34.5806 6.8515
27.2556 34.5469 6.8664
27.2486 34.5135 6.8812
27.2415 34.4806 6.8958
27.2344 34.448 6.9104
27.2273 34.4158 6.9248
27.0868 33.8642 7.7166
27.1007 33.9086 7.6452
27.1139 33.9522 7.5754
27.1264 33.9953 7.5068
27.1385 34.0381 7.439
27.15 34.081 7.3716
27.1612 34.1241 7.3042
27.172 34.1677 7.2364
27.1825 34.212 7.1679
27.1929 34.2573 7.0982
27.203 34.3039 7.0269
27.1494 34.0862 7.044
27.1554 34.1104 7.0356
27.1613 34.1345 7.0273
27.1672 34.1585 7.0191
27.1731 34.1826 7.0108
27.1789 34.2067 7.0026
27.1847 34.2308 6.9944
27.1904 34.255 6.9862
27.1961 34.2791 6.978
27.2018 34.3034 6.9698
27.2074 34.3277 6.9617
27.2406 34.5811 6.2923
27.2384 34.5553 6.3659
27.2362 34.5308 6.4358
27.2339 34.5074 6.5025
27.2315 34.4852 6.5663
27.229 34.464 6.6275
27.2265 34.4436 6.6864
27.224 34.424 6.7432
27.2213 34.4051 6.7981
27.2186 34.3869 6.8514
27.2159 34.3692 6.9031
27.2646 34.5596 7.2976
27.2606 34.5416 7.2677
27.2564 34.5235 7.2377
27.2521 34.5052 7.2074
27.2477 34.4868 7.1769
27.2432 34.4683 7.1462
27.2386 34.4496 7.1151
27.2338 34.4306 7.0836
27.2288 34.4114 7.0518
27.2237 34.3919 7.0195
27.2185 34.3722 6.9868
27.213 34.3521 6.9535
27.213 34.3521 6.9535
3 382 381 359 0.3516182154038523 0.7196130915603006 0.3392689742735193
3 1 2 289 0.3516182154038523 0.7196130915603006 0.3392689742735193
3 2 235 289 0.3516182154038523 0.7196130915603006 0.3392689742735193
3 1 289 50 0.3516182154038523 0.7196130915603006 0.3392689742735193
3 50 289 168 0.3516182154038523 0.7196130915603006 0.3392689742735193
3 236 237 291 0.3516182154038523 0.7196130915603006 0.3392689742735193
3 42 133 41 0.3516182154038523 0.7196130915603006 0.3392689742735193
3 41 133 128 0.3516182154038523 0.7196130915603006 0.3392689742735193
3 39 41 128 0.3516182154038523 0.7196130915603006 0.3392689742735193
3 128 38 39 0.3516182154038523 0.7196130915603006 0.3392689742735193
3 28 29 63 0.3516182154038523 0.7196130915603006 0.3392689742735193
3 276 62 275 0.3516182154038523 0.7196130915603006 0.3392689742735193
3 370 382 279 0.3516182154038523 0.7196130915603006 0.3392689742735193
3 279 382 359 0.3516182154038523 0.7196130915603006 0.3392689742735193
3 66 276 275 0.3516182154038523 0.7196130915603006 0.3392689742735193
3 370 279 327 0.3516182154038523 0.7196130915603006 0.3392689742735193
3 156 20 21 0.3516182154038523 0.7196130915603006 0.3392689742735193
3 24 25 108 0.3516182154038523 0.7196130915603006 0.3392689742735193
3 48 49 79 0.3516182154038523 0.7196130915603006 0.3392689742735193
3 168 289 290 0.3516182154038523 0.7196130915603006 0.3392689742735193
3 290 289 235 0.3516182154038523 0.7196130915603006 0.3392689742735193
3 290 236 291 0.3516182154038523 0.7196130915603006 0.3392689742735193
3 235 236 290 0.3516182154038523 0.7196130915603006 0.3392689742735193
3 291 237 292 0.3516182154038523 0.7196130915603006 0.3392689742735193
3 328 168 329 0.3516182154038523 0.7196130915603006 0.3392689742735193
3 328 50 168 0.3516182154038523 0.7196130915603006 0.3392689742735193
3 49 50 328 0.3516182154038523 0.7196130915603006 0.3392689742735193
3 328 79 49 0.3516182154038523 0.7196130915603006 0.3392689742735193
3 280 45 46 0.3516182154038523 0.7196130915603006 0.3392689742735193
3 46 56 280 0.3516182154038523 0.7196130915603006 0.3392689742735193
3 280 56 281 0.3516182154038523 0.7196130915603006 0.3392689742735193
3 360 35 36 0.3516182154038523 0.7196130915603006 0.3392689742735193
3 129 128 133 0.3516182154038523 0.7196130915603006 0.3392689742735193
3 162 42 43 0.3516182154038523 0.7196130915603006 0.3392689742735193
3 133 42 162 0.3516182154038523 0.7196130915603006 0.3392689742735193
3 27 28 59 0.3516182154038523 0.7196130915603006 0.3392689742735193
3 59 28 271 0.3516182154038523 0.7196130915603006 0.3392689742735193
3 271 60 59 0.3516182154038523 0.7196130915603006 0.3392689742735193
3 61 273 62 0.3516182154038523 0.7196130915603006 0.3392689742735193
3 48 79 188 0.3516182154038523 0.7196130915603006 0.3392689742735193
3 32 71 72 0.3516182154038523 0.7196130915603006 0.3392689742735193
3 167 284 233 0.3516182154038523 0.7196130915603006 0.3392689742735193
3 233 284 285 0.3516182154038523 0.7196130915603006 0.3392689742735193
3 63 29 212 0.3516182154038523 0.7196130915603006 0.3392689742735193
3 62 276 277 0.3516182154038523 0.7196130915603006 0.3392689742735193
3 274 66 275 0.3516182154038523 0.7196130915603006 0.3392689742735193
3 273 66 274 0.3516182154038523 0.7196130915603006 0.3392689742735193
3 275 62 274 0.3516182154038523 0.7196130915603006 0.3392689742735193
3 62 273 274 0.3516182154038523 0.7196130915603006 0.3392689742735193
3 273 61 272 0.3516182154038523 0.7196130915603006 0.3392689742735193
3 272 60 271 0.3516182154038523 0.7196130915603006 0.3392689742735193
3 272 61 60 0.3516182154038523 0.7196130915603006 0.3392689742735193
3 287 367 286 0.3516182154038523 0.7196130915603006 0.3392689742735193
3 286 285 193 0.3516182154038523 0.7196130915603006 0.3392689742735193
3 276 66 217 0.3516182154038523 0.7196130915603006 0.3392689742735193
3 375 376 87 0.3516182154038523 0.7196130915603006 0.3392689742735193
3 83 235 2 0.3516182154038523 0.7196130915603006 0.3392689742735193
3 2 3 83 0.3516182154038523 0.7196130915603006 0.3392689742735193
3 21 22 308 0.3516182154038523 0.7196130915603006 0.3392689742735193
3 22 23 103 0.3516182154038523 0.7196130915603006 0.3392689742735193
3 20 156 263 0.3516182154038523 0.7196130915603006 0.3392689742735193
3 341 148 101 0.3516182154038523 0.7196130915603006 0.3392689742735193
3 257 148 341 0.3516182154038523 0.7196130915603006 0.3392689742735193
3 257 263 153 0.3516182154038523 0.7196130915603006 0.3392689742735193
3 153 263 156 0.3516182154038523 0.7196130915603006 0.3392689742735193
3 253 15 16 0.3516182154038523 0.7196130915603006 0.3392689742735193
3 16 17 253 0.3516182154038523 0.7196130915603006 0.3392689742735193
3 109 108 25 0.3516182154038523 0.7196130915603006 0.3392689742735193
3 380 379 252 0.3516182154038523 0.7196130915603006 0.3392689742735193
3 242 241 378 0.3516182154038523 0.7196130915603006 0.3392689742735193
3 378 379 242 0.3516182154038523 0.7196130915603006 0.3392689742735193
3 252 379 378 0.3516182154038523 0.7196130915603006 0.3392689742735193
3 378 180 252 0.3516182154038523 0.7196130915603006 0.3392689742735193
3 80 81 190 0.3516182154038523 0.7196130915603006 0.3392689742735193
3 79 328 80 0.3516182154038523 0.7196130915603006 0.3392689742735193
3 329 81 80 0.3516182154038523 0.7196130915603006 0.3392689742735193
3 80 328 329 0.3516182154038523 0.7196130915603006 0.3392689742735193
3 294 172 293 0.3516182154038523 0.7196130915603006 0.3392689742735193
3 293 239 294 0.3516182154038523 0.7196130915603006 0.3392689742735193
3 336 288 335 0.3516182154038523 0.7196130915603006 0.3392689742735193
3 171 292 293 0.3516182154038523 0.7196130915603006 0.3392689742735193
3 293 172 171 0.3516182154038523 0.7196130915603006 0.3392689742735193
3 87 241 240 0.3516182154038523 0.7196130915603006 0.3392689742735193
3 240 239 87 0.3516182154038523 0.7196130915603006 0.3392689742735193
3 240 294 239 0.3516182154038523 0.7196130915603006 0.3392689742735193
3 240 241 295 0.3516182154038523 0.7196130915603006 0.3392689742735193
3 295 294 240 0.3516182154038523 0.7196130915603006 0.3392689742735193
3 293 292 238 0.3516182154038523 0.7196130915603006 0.3392689742735193
3 238 239 293 0.3516182154038523 0.7196130915603006 0.3392689742735193
3 238 292 237 0.3516182154038523 0.7196130915603006 0.3392689742735193
3 87 239 238 0.3516182154038523 0.7196130915603006 0.3392689742735193
3 53 45 280 0.3516182154038523 0.7196130915603006 0.3392689742735193
3 123 36 37 0.3516182154038523 0.7196130915603006 0.3392689742735193
3 130 36 123 0.3516182154038523 0.7196130915603006 0.3392689742735193
3 38 128 227 0.3516182154038523 0.7196130915603006 0.3392689742735193
3 128 129 227 0.3516182154038523 0.7196130915603006 0.3392689742735193
3 37 38 227 0.3516182154038523 0.7196130915603006 0.3392689742735193
3 227 129 37 0.3516182154038523 0.7196130915603006 0.3392689742735193
3 134 129 133 0.3516182154038523 0.7196130915603006 0.3392689742735193
3 133 162 134 0.3516182154038523 0.7196130915603006 0.3392689742735193
3 119 219 34 0.3516182154038523 0.7196130915603006 0.3392689742735193
3 120 219 119 0.3516182154038523 0.7196130915603006 0.3392689742735193
3 120 220 219 0.3516182154038523 0.7196130915603006 0.3392689742735193
3 283 284 167 0.3516182154038523 0.7196130915603006 0.3392689742735193
3 283 282 58 0.3516182154038523 0.7196130915603006 0.3392689742735193
3 283 58 190 0.3516182154038523 0.7196130915603006 0.3392689742735193
3 190 284 283 0.3516182154038523 0.7196130915603006 0.3392689742735193
3 283 167 166 0.3516182154038523 0.7196130915603006 0.3392689742735193
3 166 282 283 0.3516182154038523 0.7196130915603006 0.3392689742735193
3 285 284 191 0.3516182154038523 0.7196130915603006 0.3392689742735193
3 190 81 191 0.3516182154038523 0.7196130915603006 0.3392689742735193
3 191 284 190 0.3516182154038523 0.7196130915603006 0.3392689742735193
3 56 46 47 0.3516182154038523 0.7196130915603006 0.3392689742735193
3 47 188 56 0.3516182154038523 0.7196130915603006 0.3392689742735193
3 48 188 47 0.3516182154038523 0.7196130915603006 0.3392689742735193
3 189 188 79 0.3516182154038523 0.7196130915603006 0.3392689742735193
3 190 58 189 0.3516182154038523 0.7196130915603006 0.3392689742735193
3 189 80 190 0.3516182154038523 0.7196130915603006 0.3392689742735193
3 79 80 189 0.3516182154038523 0.7196130915603006 0.3392689742735193
3 31 319 67 0.3516182154038523 0.7196130915603006 0.3392689742735193
3 67 30 31 0.3516182154038523 0.7196130915603006 0.3392689742735193
3 364 233 122 0.3516182154038523 0.7196130915603006 0.3392689742735193
3 167 233 364 0.3516182154038523 0.7196130915603006 0.3392689742735193
3 29 30 211 0.3516182154038523 0.7196130915603006 0.3392689742735193
3 211 212 29 0.3516182154038523 0.7196130915603006 0.3392689742735193
3 64 272 271 0.3516182154038523 0.7196130915603006 0.3392689742735193
3 64 28 63 0.3516182154038523 0.7196130915603006 0.3392689742735193
3 271 28 64 0.3516182154038523 0.7196130915603006 0.3392689742735193
3 325 217 216 0.3516182154038523 0.7196130915603006 0.3392689742735193
3 216 217 66 0.3516182154038523 0.7196130915603006 0.3392689742735193
3 337 297 381 0.3516182154038523 0.7196130915603006 0.3392689742735193
3 336 297 337 0.3516182154038523 0.7196130915603006 0.3392689742735193
3 381 382 337 0.3516182154038523 0.7196130915603006 0.3392689742735193
3 337 382 370 0.3516182154038523 0.7196130915603006 0.3392689742735193
3 370 327 369 0.3516182154038523 0.7196130915603006 0.3392689742735193
3 369 337 370 0.3516182154038523 0.7196130915603006 0.3392689742735193
3 369 288 336 0.3516182154038523 0.7196130915603006 0.3392689742735193
3 336 337 369 0.3516182154038523 0.7196130915603006 0.3392689742735193
3 234 233 285 0.3516182154038523 0.7196130915603006 0.3392689742735193
3 285 286 234 0.3516182154038523 0.7196130915603006 0.3392689742735193
3 234 367 224 0.3516182154038523 0.7196130915603006 0.3392689742735193
3 234 286 367 0.3516182154038523 0.7196130915603006 0.3392689742735193
3 326 217 325 0.3516182154038523 0.7196130915603006 0.3392689742735193
3 325 369 326 0.3516182154038523 0.7196130915603006 0.3392689742735193
3 326 369 327 0.3516182154038523 0.7196130915603006 0.3392689742735193
3 374 373 177 0.3516182154038523 0.7196130915603006 0.3392689742735193
3 84 236 235 0.3516182154038523 0.7196130915603006 0.3392689742735193
3 235 83 84 0.3516182154038523 0.7196130915603006 0.3392689742735193
3 371 3 4 0.3516182154038523 0.7196130915603006 0.3392689742735193
3 246 175 174 0.3516182154038523 0.7196130915603006 0.3392689742735193
3 4 6 174 0.3516182154038523 0.7196130915603006 0.3392689742735193
3 174 371 4 0.3516182154038523 0.7196130915603006 0.3392689742735193
3 175 371 174 0.3516182154038523 0.7196130915603006 0.3392689742735193
3 177 373 176 0.3516182154038523 0.7196130915603006 0.3392689742735193
3 176 175 246 0.3516182154038523 0.7196130915603006 0.3392689742735193
3 186 266 259 0.3516182154038523 0.7196130915603006 0.3392689742735193
3 259 149 186 0.3516182154038523 0.7196130915603006 0.3392689742735193
3 343 149 259 0.3516182154038523 0.7196130915603006 0.3392689742735193
3 309 103 310 0.3516182154038523 0.7196130915603006 0.3392689742735193
3 22 103 309 0.3516182154038523 0.7196130915603006 0.3392689742735193
3 309 308 22 0.3516182154038523 0.7196130915603006 0.3392689742735193
3 257 341 147 0.3516182154038523 0.7196130915603006 0.3392689742735193
3 147 184 257 0.3516182154038523 0.7196130915603006 0.3392689742735193
3 256 184 147 0.3516182154038523 0.7196130915603006 0.3392689742735193
3 101 148 342 0.3516182154038523 0.7196130915603006 0.3392689742735193
3 264 156 21 0.3516182154038523 0.7196130915603006 0.3392689742735193
3 264 153 156 0.3516182154038523 0.7196130915603006 0.3392689742735193
3 186 149 258 0.3516182154038523 0.7196130915603006 0.3392689742735193
3 258 342 148 0.3516182154038523 0.7196130915603006 0.3392689742735193
3 149 342 258 0.3516182154038523 0.7196130915603006 0.3392689742735193
3 245 174 6 0.3516182154038523 0.7196130915603006 0.3392689742735193
3 246 174 245 0.3516182154038523 0.7196130915603006 0.3392689742735193
3 351 352 112 0.3516182154038523 0.7196130915603006 0.3392689742735193
3 206 109 110 0.3516182154038523 0.7196130915603006 0.3392689742735193
3 110 109 25 0.3516182154038523 0.7196130915603006 0.3392689742735193
3 27 59 114 0.3516182154038523 0.7196130915603006 0.3392689742735193
3 358 279 359 0.3516182154038523 0.7196130915603006 0.3392689742735193
3 278 279 358 0.3516182154038523 0.7196130915603006 0.3392689742735193
3 243 297 242 0.3516182154038523 0.7196130915603006 0.3392689742735193
3 242 379 243 0.3516182154038523 0.7196130915603006 0.3392689742735193
3 379 380 243 0.3516182154038523 0.7196130915603006 0.3392689742735193
3 381 297 243 0.3516182154038523 0.7196130915603006 0.3392689742735193
3 243 380 381 0.3516182154038523 0.7196130915603006 0.3392689742735193
3 178 374 177 0.3516182154038523 0.7196130915603006 0.3392689742735193
3 375 374 178 0.3516182154038523 0.7196130915603006 0.3392689742735193
3 177 248 178 0.3516182154038523 0.7196130915603006 0.3392689742735193
3 377 241 87 0.3516182154038523 0.7196130915603006 0.3392689742735193
3 377 378 241 0.3516182154038523 0.7196130915603006 0.3392689742735193
3 87 376 377 0.3516182154038523 0.7196130915603006 0.3392689742735193
3 376 180 377 0.3516182154038523 0.7196130915603006 0.3392689742735193
3 180 378 377 0.3516182154038523 0.7196130915603006 0.3392689742735193
3 201 302 200 0.3516182154038523 0.7196130915603006 0.3392689742735193
3 303 201 304 0.3516182154038523 0.7196130915603006 0.3392689742735193
3 92 302 303 0.3516182154038523 0.7196130915603006 0.3392689742735193
3 303 302 201 0.3516182154038523 0.7196130915603006 0.3392689742735193
3 173 294 295 0.3516182154038523 0.7196130915603006 0.3392689742735193
3 172 294 173 0.3516182154038523 0.7196130915603006 0.3392689742735193
3 296 297 336 0.3516182154038523 0.7196130915603006 0.3392689742735193
3 336 335 296 0.3516182154038523 0.7196130915603006 0.3392689742735193
3 242 297 296 0.3516182154038523 0.7196130915603006 0.3392689742735193
3 296 173 295 0.3516182154038523 0.7196130915603006 0.3392689742735193
3 335 173 296 0.3516182154038523 0.7196130915603006 0.3392689742735193
3 295 241 296 0.3516182154038523 0.7196130915603006 0.3392689742735193
3 296 241 242 0.3516182154038523 0.7196130915603006 0.3392689742735193
3 194 288 287 0.3516182154038523 0.7196130915603006 0.3392689742735193
3 194 286 193 0.3516182154038523 0.7196130915603006 0.3392689742735193
3 287 286 194 0.3516182154038523 0.7196130915603006 0.3392689742735193
3 82 331 193 0.3516182154038523 0.7196130915603006 0.3392689742735193
3 82 191 81 0.3516182154038523 0.7196130915603006 0.3392689742735193
3 291 292 170 0.3516182154038523 0.7196130915603006 0.3392689742735193
3 292 171 170 0.3516182154038523 0.7196130915603006 0.3392689742735193
3 170 171 331 0.3516182154038523 0.7196130915603006 0.3392689742735193
3 131 135 164 0.3516182154038523 0.7196130915603006 0.3392689742735193
3 75 162 43 0.3516182154038523 0.7196130915603006 0.3392689742735193
3 54 77 164 0.3516182154038523 0.7196130915603006 0.3392689742735193
3 54 53 280 0.3516182154038523 0.7196130915603006 0.3392689742735193
3 280 281 54 0.3516182154038523 0.7196130915603006 0.3392689742735193
3 164 77 136 0.3516182154038523 0.7196130915603006 0.3392689742735193
3 136 131 164 0.3516182154038523 0.7196130915603006 0.3392689742735193
3 281 282 55 0.3516182154038523 0.7196130915603006 0.3392689742735193
3 55 54 281 0.3516182154038523 0.7196130915603006 0.3392689742735193
3 77 54 55 0.3516182154038523 0.7196130915603006 0.3392689742735193
3 58 282 57 0.3516182154038523 0.7196130915603006 0.3392689742735193
3 57 189 58 0.3516182154038523 0.7196130915603006 0.3392689742735193
3 188 189 57 0.3516182154038523 0.7196130915603006 0.3392689742735193
3 56 188 57 0.3516182154038523 0.7196130915603006 0.3392689742735193
3 57 281 56 0.3516182154038523 0.7196130915603006 0.3392689742735193
3 57 282 281 0.3516182154038523 0.7196130915603006 0.3392689742735193
3 130 123 228 0.3516182154038523 0.7196130915603006 0.3392689742735193
3 228 134 130 0.3516182154038523 0.7196130915603006 0.3392689742735193
3 129 134 228 0.3516182154038523 0.7196130915603006 0.3392689742735193
3 37 129 228 0.3516182154038523 0.7196130915603006 0.3392689742735193
3 228 123 37 0.3516182154038523 0.7196130915603006 0.3392689742735193
3 361 35 360 0.3516182154038523 0.7196130915603006 0.3392689742735193
3 33 220 71 0.3516182154038523 0.7196130915603006 0.3392689742735193
3 219 220 33 0.3516182154038523 0.7196130915603006 0.3392689742735193
3 33 34 219 0.3516182154038523 0.7196130915603006 0.3392689742735193
3 33 71 32 0.3516182154038523 0.7196130915603006 0.3392689742735193
3 193 285 192 0.3516182154038523 0.7196130915603006 0.3392689742735193
3 285 191 192 0.3516182154038523 0.7196130915603006 0.3392689742735193
3 192 82 193 0.3516182154038523 0.7196130915603006 0.3392689742735193
3 191 82 192 0.3516182154038523 0.7196130915603006 0.3392689742735193
3 67 319 320 0.3516182154038523 0.7196130915603006 0.3392689742735193
3 122 233 365 0.3516182154038523 0.7196130915603006 0.3392689742735193
3 365 223 122 0.3516182154038523 0.7196130915603006 0.3392689742735193
3 32 72 318 0.3516182154038523 0.7196130915603006 0.3392689742735193
3 72 73 318 0.3516182154038523 0.7196130915603006 0.3392689742735193
3 318 73 319 0.3516182154038523 0.7196130915603006 0.3392689742735193
3 318 31 32 0.3516182154038523 0.7196130915603006 0.3392689742735193
3 319 31 318 0.3516182154038523 0.7196130915603006 0.3392689742735193
3 222 73 72 0.3516182154038523 0.7196130915603006 0.3392689742735193
3 122 223 222 0.3516182154038523 0.7196130915603006 0.3392689742735193
3 223 73 222 0.3516182154038523 0.7196130915603006 0.3392689742735193
3 319 73 74 0.3516182154038523 0.7196130915603006 0.3392689742735193
3 74 73 223 0.3516182154038523 0.7196130915603006 0.3392689742735193
3 74 320 319 0.3516182154038523 0.7196130915603006 0.3392689742735193
3 74 223 224 0.3516182154038523 0.7196130915603006 0.3392689742735193
3 224 320 74 0.3516182154038523 0.7196130915603006 0.3392689742735193
3 167 364 232 0.3516182154038523 0.7196130915603006 0.3392689742735193
3 166 167 232 0.3516182154038523 0.7196130915603006 0.3392689742735193
3 232 127 166 0.3516182154038523 0.7196130915603006 0.3392689742735193
3 272 64 65 0.3516182154038523 0.7196130915603006 0.3392689742735193
3 65 66 273 0.3516182154038523 0.7196130915603006 0.3392689742735193
3 273 272 65 0.3516182154038523 0.7196130915603006 0.3392689742735193
3 368 369 325 0.3516182154038523 0.7196130915603006 0.3392689742735193
3 288 369 368 0.3516182154038523 0.7196130915603006 0.3392689742735193
3 368 367 287 0.3516182154038523 0.7196130915603006 0.3392689742735193
3 287 288 368 0.3516182154038523 0.7196130915603006 0.3392689742735193
3 325 216 215 0.3516182154038523 0.7196130915603006 0.3392689742735193
3 215 216 66 0.3516182154038523 0.7196130915603006 0.3392689742735193
3 66 65 215 0.3516182154038523 0.7196130915603006 0.3392689742735193
3 218 326 327 0.3516182154038523 0.7196130915603006 0.3392689742735193
3 217 326 218 0.3516182154038523 0.7196130915603006 0.3392689742735193
3 218 279 278 0.3516182154038523 0.7196130915603006 0.3392689742735193
3 218 327 279 0.3516182154038523 0.7196130915603006 0.3392689742735193
3 278 277 218 0.3516182154038523 0.7196130915603006 0.3392689742735193
3 218 277 276 0.3516182154038523 0.7196130915603006 0.3392689742735193
3 276 217 218 0.3516182154038523 0.7196130915603006 0.3392689742735193
3 237 236 85 0.3516182154038523 0.7196130915603006 0.3392689742735193
3 236 84 85 0.3516182154038523 0.7196130915603006 0.3392689742735193
3 373 374 85 0.3516182154038523 0.7196130915603006 0.3392689742735193
3 85 84 373 0.3516182154038523 0.7196130915603006 0.3392689742735193
3 372 83 3 0.3516182154038523 0.7196130915603006 0.3392689742735193
3 3 371 372 0.3516182154038523 0.7196130915603006 0.3392689742735193
3 373 84 372 0.3516182154038523 0.7196130915603006 0.3392689742735193
3 372 84 83 0.3516182154038523 0.7196130915603006 0.3392689742735193
3 372 176 373 0.3516182154038523 0.7196130915603006 0.3392689742735193
3 372 371 175 0.3516182154038523 0.7196130915603006 0.3392689742735193
3 175 176 372 0.3516182154038523 0.7196130915603006 0.3392689742735193
3 343 259 187 0.3516182154038523 0.7196130915603006 0.3392689742735193
3 159 309 310 0.3516182154038523 0.7196130915603006 0.3392689742735193
3 267 161 260 0.3516182154038523 0.7196130915603006 0.3392689742735193
3 260 187 267 0.3516182154038523 0.7196130915603006 0.3392689742735193
3 152 263 257 0.3516182154038523 0.7196130915603006 0.3392689742735193
3 257 184 152 0.3516182154038523 0.7196130915603006 0.3392689742735193
3 20 263 152 0.3516182154038523 0.7196130915603006 0.3392689742735193
3 152 184 256 0.3516182154038523 0.7196130915603006 0.3392689742735193
3 256 147 146 0.3516182154038523 0.7196130915603006 0.3392689742735193
3 146 183 256 0.3516182154038523 0.7196130915603006 0.3392689742735193
3 102 149 343 0.3516182154038523 0.7196130915603006 0.3392689742735193
3 102 342 149 0.3516182154038523 0.7196130915603006 0.3392689742735193
3 21 308 157 0.3516182154038523 0.7196130915603006 0.3392689742735193
3 157 264 21 0.3516182154038523 0.7196130915603006 0.3392689742735193
3 157 308 265 0.3516182154038523 0.7196130915603006 0.3392689742735193
3 265 264 157 0.3516182154038523 0.7196130915603006 0.3392689742735193
3 186 258 154 0.3516182154038523 0.7196130915603006 0.3392689742735193
3 154 258 265 0.3516182154038523 0.7196130915603006 0.3392689742735193
3 185 258 148 0.3516182154038523 0.7196130915603006 0.3392689742735193
3 185 148 257 0.3516182154038523 0.7196130915603006 0.3392689742735193
3 257 153 185 0.3516182154038523 0.7196130915603006 0.3392689742735193
3 153 264 185 0.3516182154038523 0.7196130915603006 0.3392689742735193
3 185 264 265 0.3516182154038523 0.7196130915603006 0.3392689742735193
3 265 258 185 0.3516182154038523 0.7196130915603006 0.3392689742735193
3 19 183 150 0.3516182154038523 0.7196130915603006 0.3392689742735193
3 150 18 19 0.3516182154038523 0.7196130915603006 0.3392689742735193
3 254 253 17 0.3516182154038523 0.7196130915603006 0.3392689742735193
3 98 12 13 0.3516182154038523 0.7196130915603006 0.3392689742735193
3 6 7 244 0.3516182154038523 0.7196130915603006 0.3392689742735193
3 244 245 6 0.3516182154038523 0.7196130915603006 0.3392689742735193
3 88 8 9 0.3516182154038523 0.7196130915603006 0.3392689742735193
3 89 8 88 0.3516182154038523 0.7196130915603006 0.3392689742735193
3 300 95 96 0.3516182154038523 0.7196130915603006 0.3392689742735193
3 96 301 300 0.3516182154038523 0.7196130915603006 0.3392689742735193
3 207 314 206 0.3516182154038523 0.7196130915603006 0.3392689742735193
3 206 110 207 0.3516182154038523 0.7196130915603006 0.3392689742735193
3 26 351 350 0.3516182154038523 0.7196130915603006 0.3392689742735193
3 113 26 27 0.3516182154038523 0.7196130915603006 0.3392689742735193
3 27 114 113 0.3516182154038523 0.7196130915603006 0.3392689742735193
3 113 351 26 0.3516182154038523 0.7196130915603006 0.3392689742735193
3 352 351 113 0.3516182154038523 0.7196130915603006 0.3392689742735193
3 113 114 352 0.3516182154038523 0.7196130915603006 0.3392689742735193
3 115 59 60 0.3516182154038523 0.7196130915603006 0.3392689742735193
3 115 114 59 0.3516182154038523 0.7196130915603006 0.3392689742735193
3 352 114 115 0.3516182154038523 0.7196130915603006 0.3392689742735193
3 314 269 313 0.3516182154038523 0.7196130915603006 0.3392689742735193
3 313 269 261 0.3516182154038523 0.7196130915603006 0.3392689742735193
3 252 180 251 0.3516182154038523 0.7196130915603006 0.3392689742735193
3 251 180 250 0.3516182154038523 0.7196130915603006 0.3392689742735193
3 306 251 250 0.3516182154038523 0.7196130915603006 0.3392689742735193
3 252 251 306 0.3516182154038523 0.7196130915603006 0.3392689742735193
3 304 201 202 0.3516182154038523 0.7196130915603006 0.3392689742735193
3 62 277 357 0.3516182154038523 0.7196130915603006 0.3392689742735193
3 357 356 62 0.3516182154038523 0.7196130915603006 0.3392689742735193
3 357 277 278 0.3516182154038523 0.7196130915603006 0.3392689742735193
3 278 358 357 0.3516182154038523 0.7196130915603006 0.3392689742735193
3 356 357 317 0.3516182154038523 0.7196130915603006 0.3392689742735193
3 250 180 179 0.3516182154038523 0.7196130915603006 0.3392689742735193
3 179 180 376 0.3516182154038523 0.7196130915603006 0.3392689742735193
3 376 375 179 0.3516182154038523 0.7196130915603006 0.3392689742735193
3 375 178 179 0.3516182154038523 0.7196130915603006 0.3392689742735193
3 249 178 248 0.3516182154038523 0.7196130915603006 0.3392689742735193
3 249 143 250 0.3516182154038523 0.7196130915603006 0.3392689742735193
3 248 143 249 0.3516182154038523 0.7196130915603006 0.3392689742735193
3 250 179 249 0.3516182154038523 0.7196130915603006 0.3392689742735193
3 249 179 178 0.3516182154038523 0.7196130915603006 0.3392689742735193
3 343 200 199 0.3516182154038523 0.7196130915603006 0.3392689742735193
3 199 102 343 0.3516182154038523 0.7196130915603006 0.3392689742735193
3 172 173 333 0.3516182154038523 0.7196130915603006 0.3392689742735193
3 331 82 330 0.3516182154038523 0.7196130915603006 0.3392689742735193
3 330 170 331 0.3516182154038523 0.7196130915603006 0.3392689742735193
3 330 81 329 0.3516182154038523 0.7196130915603006 0.3392689742735193
3 330 82 81 0.3516182154038523 0.7196130915603006 0.3392689742735193
3 169 290 291 0.3516182154038523 0.7196130915603006 0.3392689742735193
3 291 170 169 0.3516182154038523 0.7196130915603006 0.3392689742735193
3 168 290 169 0.3516182154038523 0.7196130915603006 0.3392689742735193
3 170 330 169 0.3516182154038523 0.7196130915603006 0.3392689742735193
3 329 168 169 0.3516182154038523 0.7196130915603006 0.3392689742735193
3 169 330 329 0.3516182154038523 0.7196130915603006 0.3392689742735193
3 360 36 124 0.3516182154038523 0.7196130915603006 0.3392689742735193
3 124 36 130 0.3516182154038523 0.7196130915603006 0.3392689742735193
3 163 135 130 0.3516182154038523 0.7196130915603006 0.3392689742735193
3 130 134 163 0.3516182154038523 0.7196130915603006 0.3392689742735193
3 163 134 162 0.3516182154038523 0.7196130915603006 0.3392689742735193
3 162 75 163 0.3516182154038523 0.7196130915603006 0.3392689742735193
3 45 53 44 0.3516182154038523 0.7196130915603006 0.3392689742735193
3 53 75 44 0.3516182154038523 0.7196130915603006 0.3392689742735193
3 44 75 43 0.3516182154038523 0.7196130915603006 0.3392689742735193
3 137 231 132 0.3516182154038523 0.7196130915603006 0.3392689742735193
3 166 127 137 0.3516182154038523 0.7196130915603006 0.3392689742735193
3 127 231 137 0.3516182154038523 0.7196130915603006 0.3392689742735193
3 132 231 126 0.3516182154038523 0.7196130915603006 0.3392689742735193
3 363 231 127 0.3516182154038523 0.7196130915603006 0.3392689742735193
3 363 126 231 0.3516182154038523 0.7196130915603006 0.3392689742735193
3 363 120 119 0.3516182154038523 0.7196130915603006 0.3392689742735193
3 119 126 363 0.3516182154038523 0.7196130915603006 0.3392689742735193
3 76 54 164 0.3516182154038523 0.7196130915603006 0.3392689742735193
3 53 54 76 0.3516182154038523 0.7196130915603006 0.3392689742735193
3 164 135 76 0.3516182154038523 0.7196130915603006 0.3392689742735193
3 135 163 76 0.3516182154038523 0.7196130915603006 0.3392689742735193
3 76 75 53 0.3516182154038523 0.7196130915603006 0.3392689742735193
3 76 163 75 0.3516182154038523 0.7196130915603006 0.3392689742735193
3 118 34 35 0.3516182154038523 0.7196130915603006 0.3392689742735193
3 35 361 118 0.3516182154038523 0.7196130915603006 0.3392689742735193
3 119 34 118 0.3516182154038523 0.7196130915603006 0.3392689742735193
3 360 131 125 0.3516182154038523 0.7196130915603006 0.3392689742735193
3 125 361 360 0.3516182154038523 0.7196130915603006 0.3392689742735193
3 223 365 366 0.3516182154038523 0.7196130915603006 0.3392689742735193
3 224 223 366 0.3516182154038523 0.7196130915603006 0.3392689742735193
3 366 234 224 0.3516182154038523 0.7196130915603006 0.3392689742735193
3 233 234 366 0.3516182154038523 0.7196130915603006 0.3392689742735193
3 366 365 233 0.3516182154038523 0.7196130915603006 0.3392689742735193
3 221 222 72 0.3516182154038523 0.7196130915603006 0.3392689742735193
3 221 72 71 0.3516182154038523 0.7196130915603006 0.3392689742735193
3 122 222 221 0.3516182154038523 0.7196130915603006 0.3392689742735193
3 71 220 221 0.3516182154038523 0.7196130915603006 0.3392689742735193
3 324 368 325 0.3516182154038523 0.7196130915603006 0.3392689742735193
3 325 215 324 0.3516182154038523 0.7196130915603006 0.3392689742735193
3 323 322 225 0.3516182154038523 0.7196130915603006 0.3392689742735193
3 224 367 225 0.3516182154038523 0.7196130915603006 0.3392689742735193
3 225 322 224 0.3516182154038523 0.7196130915603006 0.3392689742735193
3 63 212 213 0.3516182154038523 0.7196130915603006 0.3392689742735193
3 213 64 63 0.3516182154038523 0.7196130915603006 0.3392689742735193
3 321 320 224 0.3516182154038523 0.7196130915603006 0.3392689742735193
3 224 322 321 0.3516182154038523 0.7196130915603006 0.3392689742735193
3 304 143 142 0.3516182154038523 0.7196130915603006 0.3392689742735193
3 92 303 142 0.3516182154038523 0.7196130915603006 0.3392689742735193
3 142 303 304 0.3516182154038523 0.7196130915603006 0.3392689742735193
3 142 143 248 0.3516182154038523 0.7196130915603006 0.3392689742735193
3 86 238 237 0.3516182154038523 0.7196130915603006 0.3392689742735193
3 237 85 86 0.3516182154038523 0.7196130915603006 0.3392689742735193
3 87 238 86 0.3516182154038523 0.7196130915603006 0.3392689742735193
3 86 375 87 0.3516182154038523 0.7196130915603006 0.3392689742735193
3 86 374 375 0.3516182154038523 0.7196130915603006 0.3392689742735193
3 86 85 374 0.3516182154038523 0.7196130915603006 0.3392689742735193
3 155 259 266 0.3516182154038523 0.7196130915603006 0.3392689742735193
3 155 187 259 0.3516182154038523 0.7196130915603006 0.3392689742735193
3 266 159 155 0.3516182154038523 0.7196130915603006 0.3392689742735193
3 344 200 343 0.3516182154038523 0.7196130915603006 0.3392689742735193
3 343 187 344 0.3516182154038523 0.7196130915603006 0.3392689742735193
3 187 260 344 0.3516182154038523 0.7196130915603006 0.3392689742735193
3 201 200 344 0.3516182154038523 0.7196130915603006 0.3392689742735193
3 309 159 158 0.3516182154038523 0.7196130915603006 0.3392689742735193
3 265 308 158 0.3516182154038523 0.7196130915603006 0.3392689742735193
3 308 309 158 0.3516182154038523 0.7196130915603006 0.3392689742735193
3 158 159 266 0.3516182154038523 0.7196130915603006 0.3392689742735193
3 158 154 265 0.3516182154038523 0.7196130915603006 0.3392689742735193
3 158 266 186 0.3516182154038523 0.7196130915603006 0.3392689742735193
3 186 154 158 0.3516182154038523 0.7196130915603006 0.3392689742735193
3 261 202 345 0.3516182154038523 0.7196130915603006 0.3392689742735193
3 345 202 201 0.3516182154038523 0.7196130915603006 0.3392689742735193
3 201 344 345 0.3516182154038523 0.7196130915603006 0.3392689742735193
3 345 344 260 0.3516182154038523 0.7196130915603006 0.3392689742735193
3 205 109 206 0.3516182154038523 0.7196130915603006 0.3392689742735193
3 108 109 205 0.3516182154038523 0.7196130915603006 0.3392689742735193
3 203 23 24 0.3516182154038523 0.7196130915603006 0.3392689742735193
3 312 161 267 0.3516182154038523 0.7196130915603006 0.3392689742735193
3 312 313 161 0.3516182154038523 0.7196130915603006 0.3392689742735193
3 106 313 312 0.3516182154038523 0.7196130915603006 0.3392689742735193
3 20 152 262 0.3516182154038523 0.7196130915603006 0.3392689742735193
3 19 20 262 0.3516182154038523 0.7196130915603006 0.3392689742735193
3 145 146 339 0.3516182154038523 0.7196130915603006 0.3392689742735193
3 339 99 98 0.3516182154038523 0.7196130915603006 0.3392689742735193
3 340 147 341 0.3516182154038523 0.7196130915603006 0.3392689742735193
3 340 146 147 0.3516182154038523 0.7196130915603006 0.3392689742735193
3 340 339 146 0.3516182154038523 0.7196130915603006 0.3392689742735193
3 99 339 340 0.3516182154038523 0.7196130915603006 0.3392689742735193
3 96 95 198 0.3516182154038523 0.7196130915603006 0.3392689742735193
3 198 199 96 0.3516182154038523 0.7196130915603006 0.3392689742735193
3 102 199 198 0.3516182154038523 0.7196130915603006 0.3392689742735193
3 198 197 101 0.3516182154038523 0.7196130915603006 0.3392689742735193
3 95 197 198 0.3516182154038523 0.7196130915603006 0.3392689742735193
3 101 342 198 0.3516182154038523 0.7196130915603006 0.3392689742735193
3 342 102 198 0.3516182154038523 0.7196130915603006 0.3392689742735193
3 255 146 145 0.3516182154038523 0.7196130915603006 0.3392689742735193
3 183 146 255 0.3516182154038523 0.7196130915603006 0.3392689742735193
3 255 150 183 0.3516182154038523 0.7196130915603006 0.3392689742735193
3 145 254 255 0.3516182154038523 0.7196130915603006 0.3392689742735193
3 181 17 18 0.3516182154038523 0.7196130915603006 0.3392689742735193
3 181 254 17 0.3516182154038523 0.7196130915603006 0.3392689742735193
3 18 255 181 0.3516182154038523 0.7196130915603006 0.3392689742735193
3 181 255 254 0.3516182154038523 0.7196130915603006 0.3392689742735193
3 9 10 298 0.3516182154038523 0.7196130915603006 0.3392689742735193
3 139 244 7 0.3516182154038523 0.7196130915603006 0.3392689742735193
3 97 200 302 0.3516182154038523 0.7196130915603006 0.3392689742735193
3 302 301 97 0.3516182154038523 0.7196130915603006 0.3392689742735193
3 97 199 200 0.3516182154038523 0.7196130915603006 0.3392689742735193
3 97 301 96 0.3516182154038523 0.7196130915603006 0.3392689742735193
3 96 199 97 0.3516182154038523 0.7196130915603006 0.3392689742735193
3 95 300 299 0.3516182154038523 0.7196130915603006 0.3392689742735193
3 89 88 299 0.3516182154038523 0.7196130915603006 0.3392689742735193
3 299 300 89 0.3516182154038523 0.7196130915603006 0.3392689742735193
3 299 88 9 0.3516182154038523 0.7196130915603006 0.3392689742735193
3 9 298 299 0.3516182154038523 0.7196130915603006 0.3392689742735193
3 111 207 110 0.3516182154038523 0.7196130915603006 0.3392689742735193
3 110 350 111 0.3516182154038523 0.7196130915603006 0.3392689742735193
3 111 351 112 0.3516182154038523 0.7196130915603006 0.3392689742735193
3 111 350 351 0.3516182154038523 0.7196130915603006 0.3392689742735193
3 349 110 25 0.3516182154038523 0.7196130915603006 0.3392689742735193
3 349 350 110 0.3516182154038523 0.7196130915603006 0.3392689742735193
3 25 26 349 0.3516182154038523 0.7196130915603006 0.3392689742735193
3 26 350 349 0.3516182154038523 0.7196130915603006 0.3392689742735193
3 60 61 116 0.3516182154038523 0.7196130915603006 0.3392689742735193
3 116 115 60 0.3516182154038523 0.7196130915603006 0.3392689742735193
3 268 313 261 0.3516182154038523 0.7196130915603006 0.3392689742735193
3 161 313 268 0.3516182154038523 0.7196130915603006 0.3392689742735193
3 261 345 268 0.3516182154038523 0.7196130915603006 0.3392689742735193
3 268 260 161 0.3516182154038523 0.7196130915603006 0.3392689742735193
3 268 345 260 0.3516182154038523 0.7196130915603006 0.3392689742735193
3 314 207 208 0.3516182154038523 0.7196130915603006 0.3392689742735193
3 208 315 314 0.3516182154038523 0.7196130915603006 0.3392689742735193
3 208 111 112 0.3516182154038523 0.7196130915603006 0.3392689742735193
3 207 111 208 0.3516182154038523 0.7196130915603006 0.3392689742735193
3 112 352 209 0.3516182154038523 0.7196130915603006 0.3392689742735193
3 209 208 112 0.3516182154038523 0.7196130915603006 0.3392689742735193
3 315 208 209 0.3516182154038523 0.7196130915603006 0.3392689742735193
3 304 202 305 0.3516182154038523 0.7196130915603006 0.3392689742735193
3 305 143 304 0.3516182154038523 0.7196130915603006 0.3392689742735193
3 250 143 305 0.3516182154038523 0.7196130915603006 0.3392689742735193
3 305 306 250 0.3516182154038523 0.7196130915603006 0.3392689742735193
3 346 305 202 0.3516182154038523 0.7196130915603006 0.3392689742735193
3 347 306 346 0.3516182154038523 0.7196130915603006 0.3392689742735193
3 306 305 346 0.3516182154038523 0.7196130915603006 0.3392689742735193
3 261 269 346 0.3516182154038523 0.7196130915603006 0.3392689742735193
3 346 202 261 0.3516182154038523 0.7196130915603006 0.3392689742735193
3 348 357 358 0.3516182154038523 0.7196130915603006 0.3392689742735193
3 348 317 357 0.3516182154038523 0.7196130915603006 0.3392689742735193
3 359 381 348 0.3516182154038523 0.7196130915603006 0.3392689742735193
3 348 358 359 0.3516182154038523 0.7196130915603006 0.3392689742735193
3 381 380 348 0.3516182154038523 0.7196130915603006 0.3392689742735193
3 194 333 334 0.3516182154038523 0.7196130915603006 0.3392689742735193
3 334 335 288 0.3516182154038523 0.7196130915603006 0.3392689742735193
3 288 194 334 0.3516182154038523 0.7196130915603006 0.3392689742735193
3 334 173 335 0.3516182154038523 0.7196130915603006 0.3392689742735193
3 334 333 173 0.3516182154038523 0.7196130915603006 0.3392689742735193
3 332 194 193 0.3516182154038523 0.7196130915603006 0.3392689742735193
3 332 333 194 0.3516182154038523 0.7196130915603006 0.3392689742735193
3 193 331 332 0.3516182154038523 0.7196130915603006 0.3392689742735193
3 172 333 332 0.3516182154038523 0.7196130915603006 0.3392689742735193
3 332 171 172 0.3516182154038523 0.7196130915603006 0.3392689742735193
3 331 171 332 0.3516182154038523 0.7196130915603006 0.3392689742735193
3 135 131 229 0.3516182154038523 0.7196130915603006 0.3392689742735193
3 130 135 229 0.3516182154038523 0.7196130915603006 0.3392689742735193
3 229 124 130 0.3516182154038523 0.7196130915603006 0.3392689742735193
3 229 131 360 0.3516182154038523 0.7196130915603006 0.3392689742735193
3 360 124 229 0.3516182154038523 0.7196130915603006 0.3392689742735193
3 77 55 165 0.3516182154038523 0.7196130915603006 0.3392689742735193
3 165 137 132 0.3516182154038523 0.7196130915603006 0.3392689742735193
3 132 136 165 0.3516182154038523 0.7196130915603006 0.3392689742735193
3 165 136 77 0.3516182154038523 0.7196130915603006 0.3392689742735193
3 131 136 230 0.3516182154038523 0.7196130915603006 0.3392689742735193
3 230 125 131 0.3516182154038523 0.7196130915603006 0.3392689742735193
3 230 136 132 0.3516182154038523 0.7196130915603006 0.3392689742735193
3 361 125 230 0.3516182154038523 0.7196130915603006 0.3392689742735193
3 121 364 122 0.3516182154038523 0.7196130915603006 0.3392689742735193
3 122 221 121 0.3516182154038523 0.7196130915603006 0.3392689742735193
3 121 221 220 0.3516182154038523 0.7196130915603006 0.3392689742735193
3 220 120 121 0.3516182154038523 0.7196130915603006 0.3392689742735193
3 121 363 127 0.3516182154038523 0.7196130915603006 0.3392689742735193
3 120 363 121 0.3516182154038523 0.7196130915603006 0.3392689742735193
3 127 232 121 0.3516182154038523 0.7196130915603006 0.3392689742735193
3 121 232 364 0.3516182154038523 0.7196130915603006 0.3392689742735193
3 226 324 323 0.3516182154038523 0.7196130915603006 0.3392689742735193
3 368 324 226 0.3516182154038523 0.7196130915603006 0.3392689742735193
3 323 225 226 0.3516182154038523 0.7196130915603006 0.3392689742735193
3 367 368 226 0.3516182154038523 0.7196130915603006 0.3392689742735193
3 226 225 367 0.3516182154038523 0.7196130915603006 0.3392689742735193
3 70 213 212 0.3516182154038523 0.7196130915603006 0.3392689742735193
3 70 322 323 0.3516182154038523 0.7196130915603006 0.3392689742735193
3 323 324 214 0.3516182154038523 0.7196130915603006 0.3392689742735193
3 214 70 323 0.3516182154038523 0.7196130915603006 0.3392689742735193
3 213 70 214 0.3516182154038523 0.7196130915603006 0.3392689742735193
3 214 324 215 0.3516182154038523 0.7196130915603006 0.3392689742735193
3 64 213 214 0.3516182154038523 0.7196130915603006 0.3392689742735193
3 214 65 64 0.3516182154038523 0.7196130915603006 0.3392689742735193
3 214 215 65 0.3516182154038523 0.7196130915603006 0.3392689742735193
3 67 320 68 0.3516182154038523 0.7196130915603006 0.3392689742735193
3 320 321 68 0.3516182154038523 0.7196130915603006 0.3392689742735193
3 68 30 67 0.3516182154038523 0.7196130915603006 0.3392689742735193
3 92 142 141 0.3516182154038523 0.7196130915603006 0.3392689742735193
3 246 245 141 0.3516182154038523 0.7196130915603006 0.3392689742735193
3 247 142 248 0.3516182154038523 0.7196130915603006 0.3392689742735193
3 247 176 246 0.3516182154038523 0.7196130915603006 0.3392689742735193
3 246 141 247 0.3516182154038523 0.7196130915603006 0.3392689742735193
3 247 141 142 0.3516182154038523 0.7196130915603006 0.3392689742735193
3 247 248 177 0.3516182154038523 0.7196130915603006 0.3392689742735193
3 177 176 247 0.3516182154038523 0.7196130915603006 0.3392689742735193
3 107 313 106 0.3516182154038523 0.7196130915603006 0.3392689742735193
3 106 205 107 0.3516182154038523 0.7196130915603006 0.3392689742735193
3 107 205 206 0.3516182154038523 0.7196130915603006 0.3392689742735193
3 206 314 107 0.3516182154038523 0.7196130915603006 0.3392689742735193
3 314 313 107 0.3516182154038523 0.7196130915603006 0.3392689742735193
3 204 205 106 0.3516182154038523 0.7196130915603006 0.3392689742735193
3 204 203 24 0.3516182154038523 0.7196130915603006 0.3392689742735193
3 24 108 204 0.3516182154038523 0.7196130915603006 0.3392689742735193
3 108 205 204 0.3516182154038523 0.7196130915603006 0.3392689742735193
3 23 203 104 0.3516182154038523 0.7196130915603006 0.3392689742735193
3 104 103 23 0.3516182154038523 0.7196130915603006 0.3392689742735193
3 310 103 104 0.3516182154038523 0.7196130915603006 0.3392689742735193
3 151 152 256 0.3516182154038523 0.7196130915603006 0.3392689742735193
3 151 262 152 0.3516182154038523 0.7196130915603006 0.3392689742735193
3 256 183 151 0.3516182154038523 0.7196130915603006 0.3392689742735193
3 151 183 19 0.3516182154038523 0.7196130915603006 0.3392689742735193
3 19 262 151 0.3516182154038523 0.7196130915603006 0.3392689742735193
3 145 339 338 0.3516182154038523 0.7196130915603006 0.3392689742735193
3 13 14 338 0.3516182154038523 0.7196130915603006 0.3392689742735193
3 98 13 338 0.3516182154038523 0.7196130915603006 0.3392689742735193
3 338 339 98 0.3516182154038523 0.7196130915603006 0.3392689742735193
3 100 340 341 0.3516182154038523 0.7196130915603006 0.3392689742735193
3 99 340 100 0.3516182154038523 0.7196130915603006 0.3392689742735193
3 100 341 101 0.3516182154038523 0.7196130915603006 0.3392689742735193
3 101 197 100 0.3516182154038523 0.7196130915603006 0.3392689742735193
3 18 150 182 0.3516182154038523 0.7196130915603006 0.3392689742735193
3 182 255 18 0.3516182154038523 0.7196130915603006 0.3392689742735193
3 150 255 182 0.3516182154038523 0.7196130915603006 0.3392689742735193
3 144 254 145 0.3516182154038523 0.7196130915603006 0.3392689742735193
3 145 338 144 0.3516182154038523 0.7196130915603006 0.3392689742735193
3 144 338 14 0.3516182154038523 0.7196130915603006 0.3392689742735193
3 144 14 15 0.3516182154038523 0.7196130915603006 0.3392689742735193
3 15 253 144 0.3516182154038523 0.7196130915603006 0.3392689742735193
3 253 254 144 0.3516182154038523 0.7196130915603006 0.3392689742735193
3 10 11 93 0.3516182154038523 0.7196130915603006 0.3392689742735193
3 94 197 95 0.3516182154038523 0.7196130915603006 0.3392689742735193
3 95 299 94 0.3516182154038523 0.7196130915603006 0.3392689742735193
3 94 299 298 0.3516182154038523 0.7196130915603006 0.3392689742735193
3 94 298 10 0.3516182154038523 0.7196130915603006 0.3392689742735193
3 10 93 94 0.3516182154038523 0.7196130915603006 0.3392689742735193
3 245 244 140 0.3516182154038523 0.7196130915603006 0.3392689742735193
3 244 139 140 0.3516182154038523 0.7196130915603006 0.3392689742735193
3 140 141 245 0.3516182154038523 0.7196130915603006 0.3392689742735193
3 7 8 138 0.3516182154038523 0.7196130915603006 0.3392689742735193
3 138 139 7 0.3516182154038523 0.7196130915603006 0.3392689742735193
3 138 8 89 0.3516182154038523 0.7196130915603006 0.3392689742735193
3 117 61 62 0.3516182154038523 0.7196130915603006 0.3392689742735193
3 117 116 61 0.3516182154038523 0.7196130915603006 0.3392689742735193
3 62 356 117 0.3516182154038523 0.7196130915603006 0.3392689742735193
3 315 209 316 0.3516182154038523 0.7196130915603006 0.3392689742735193
3 316 209 210 0.3516182154038523 0.7196130915603006 0.3392689742735193
3 316 317 347 0.3516182154038523 0.7196130915603006 0.3392689742735193
3 210 317 316 0.3516182154038523 0.7196130915603006 0.3392689742735193
3 307 380 252 0.3516182154038523 0.7196130915603006 0.3392689742735193
3 307 348 380 0.3516182154038523 0.7196130915603006 0.3392689742735193
3 252 306 307 0.3516182154038523 0.7196130915603006 0.3392689742735193
3 307 306 347 0.3516182154038523 0.7196130915603006 0.3392689742735193
3 347 317 307 0.3516182154038523 0.7196130915603006 0.3392689742735193
3 317 348 307 0.3516182154038523 0.7196130915603006 0.3392689742735193
3 78 165 55 0.3516182154038523 0.7196130915603006 0.3392689742735193
3 137 165 78 0.3516182154038523 0.7196130915603006 0.3392689742735193
3 166 137 78 0.3516182154038523 0.7196130915603006 0.3392689742735193
3 78 282 166 0.3516182154038523 0.7196130915603006 0.3392689742735193
3 78 55 282 0.3516182154038523 0.7196130915603006 0.3392689742735193
3 362 118 361 0.3516182154038523 0.7196130915603006 0.3392689742735193
3 361 230 362 0.3516182154038523 0.7196130915603006 0.3392689742735193
3 362 126 119 0.3516182154038523 0.7196130915603006 0.3392689742735193
3 119 118 362 0.3516182154038523 0.7196130915603006 0.3392689742735193
3 132 126 362 0.3516182154038523 0.7196130915603006 0.3392689742735193
3 362 230 132 0.3516182154038523 0.7196130915603006 0.3392689742735193
3 322 70 69 0.3516182154038523 0.7196130915603006 0.3392689742735193
3 69 321 322 0.3516182154038523 0.7196130915603006 0.3392689742735193
3 69 68 321 0.3516182154038523 0.7196130915603006 0.3392689742735193
3 212 211 69 0.3516182154038523 0.7196130915603006 0.3392689742735193
3 69 70 212 0.3516182154038523 0.7196130915603006 0.3392689742735193
3 69 211 30 0.3516182154038523 0.7196130915603006 0.3392689742735193
3 30 68 69 0.3516182154038523 0.7196130915603006 0.3392689742735193
3 203 204 105 0.3516182154038523 0.7196130915603006 0.3392689742735193
3 105 104 203 0.3516182154038523 0.7196130915603006 0.3392689742735193
3 106 312 105 0.3516182154038523 0.7196130915603006 0.3392689742735193
3 105 204 106 0.3516182154038523 0.7196130915603006 0.3392689742735193
3 196 100 197 0.3516182154038523 0.7196130915603006 0.3392689742735193
3 197 94 196 0.3516182154038523 0.7196130915603006 0.3392689742735193
3 196 94 93 0.3516182154038523 0.7196130915603006 0.3392689742735193
3 99 100 196 0.3516182154038523 0.7196130915603006 0.3392689742735193
3 90 140 139 0.3516182154038523 0.7196130915603006 0.3392689742735193
3 89 300 90 0.3516182154038523 0.7196130915603006 0.3392689742735193
3 90 300 301 0.3516182154038523 0.7196130915603006 0.3392689742735193
3 90 138 89 0.3516182154038523 0.7196130915603006 0.3392689742735193
3 139 138 90 0.3516182154038523 0.7196130915603006 0.3392689742735193
3 92 141 91 0.3516182154038523 0.7196130915603006 0.3392689742735193
3 141 140 91 0.3516182154038523 0.7196130915603006 0.3392689742735193
3 91 302 92 0.3516182154038523 0.7196130915603006 0.3392689742735193
3 140 90 91 0.3516182154038523 0.7196130915603006 0.3392689742735193
3 91 301 302 0.3516182154038523 0.7196130915603006 0.3392689742735193
3 91 90 301 0.3516182154038523 0.7196130915603006 0.3392689742735193
3 355 117 356 0.3516182154038523 0.7196130915603006 0.3392689742735193
3 356 317 355 0.3516182154038523 0.7196130915603006 0.3392689742735193
3 355 317 210 0.3516182154038523 0.7196130915603006 0.3392689742735193
3 270 316 347 0.3516182154038523 0.7196130915603006 0.3392689742735193
3 315 316 270 0.3516182154038523 0.7196130915603006 0.3392689742735193
3 347 346 270 0.3516182154038523 0.7196130915603006 0.3392689742735193
3 270 346 269 0.3516182154038523 0.7196130915603006 0.3392689742735193
3 270 269 314 0.3516182154038523 0.7196130915603006 0.3392689742735193
3 314 315 270 0.3516182154038523 0.7196130915603006 0.3392689742735193
3 104 105 311 0.3516182154038523 0.7196130915603006 0.3392689742735193
3 310 104 311 0.3516182154038523 0.7196130915603006 0.3392689742735193
3 311 312 267 0.3516182154038523 0.7196130915603006 0.3392689742735193
3 311 105 312 0.3516182154038523 0.7196130915603006 0.3392689742735193
3 99 196 195 0.3516182154038523 0.7196130915603006 0.3392689742735193
3 195 11 12 0.3516182154038523 0.7196130915603006 0.3392689742735193
3 195 93 11 0.3516182154038523 0.7196130915603006 0.3392689742735193
3 195 196 93 0.3516182154038523 0.7196130915603006 0.3392689742735193
3 195 12 98 0.3516182154038523 0.7196130915603006 0.3392689742735193
3 98 99 195 0.3516182154038523 0.7196130915603006 0.3392689742735193
3 116 117 354 0.3516182154038523 0.7196130915603006 0.3392689742735193
3 117 355 354 0.3516182154038523 0.7196130915603006 0.3392689742735193
3 354 355 210 0.3516182154038523 0.7196130915603006 0.3392689742735193
3 310 311 160 0.3516182154038523 0.7196130915603006 0.3392689742735193
3 160 311 267 0.3516182154038523 0.7196130915603006 0.3392689742735193
3 160 159 310 0.3516182154038523 0.7196130915603006 0.3392689742735193
3 160 155 159 0.3516182154038523 0.7196130915603006 0.3392689742735193
3 267 187 160 0.3516182154038523 0.7196130915603006 0.3392689742735193
3 187 155 160 0.3516182154038523 0.7196130915603006 0.3392689742735193
3 115 116 353 0.3516182154038523 0.7196130915603006 0.3392689742735193
3 116 354 353 0.3516182154038523 0.7196130915603006 0.3392689742735193
3 352 115 353 0.3516182154038523 0.7196130915603006 0.3392689742735193
3 353 209 352 0.3516182154038523 0.7196130915603006 0.3392689742735193
3 210 209 353 0.3516182154038523 0.7196130915603006 0.3392689742735193
3 353 354 210 0.3516182154038523 0.7196130915603006 0.3392689742735193
