OFF
69 62 0


32.509 31.4326 8.4445
32.509 31.4326 8.4445
32.5345 31.2938 8.4397
32.5566 31.1703 8.4345
32.5762 31.0585 8.4291
32.5939 30.956 8.4236
32.61 30.8606 8.418
32.6249 30.7707 8.4123
32.639 30.6849 8.4064
32.6523 30.6021 8.4004
32.6652 30.5212 8.3943
32.6777 30.4412 8.3879
32.6901 30.3613 8.3812
32.7024 30.2806 8.3742
32.7149 30.198 8.3668
32.7276 30.1125 8.3588
32.7408 30.0229 8.3502
32.7546 29.9278 8.3408
32.7693 29.8254 8.3303
32.7851 29.7136 8.3185
32.8025 29.5895 8.3051
32.8218 29.4493 8.2894
32.8218 29.4493 8.2894
32.8247 29.3733 8.268
32.8276 29.2972 8.2465
32.8305 29.2212 8.2251
32.8334 29.1451 8.2036
32.8363 29.069 8.1822
32.8392 28.993 8.1608
32.8421 28.9169 8.1393
32.845 28.8409 8.1179
32.845 28.8409 8.1179
32.8195 28.8712 8.0851
32.794 28.9014 8.0523
32.7686 28.9317 8.0195
32.7431 28.962 7.9867
32.6753 29.0703 7.9088
32.6191 29.1603 7.8444
32.5708 29.238 7.7891
32.5276 29.3075 7.7399
32.4879 29.3717 7.6946
32.4504 29.4327 7.6519
32.4139 29.4922 7.6104
32.3774 29.5518 7.5691
32.3401 29.6131 7.5268
32.3009 29.6778 7.4825
32.2583 29.7484 7.4346
32.2108 29.8277 7.3813
32.1558 29.9203 7.3198
32.0893 30.0334 7.2459
32.0893 30.0334 7.2459
32.104 30.1468 7.3102
32.119 30.25 7.3714
32.1344 30.345 7.4306
32.1504 30.4334 7.4884
32.167 30.5162 7.5453
32.1844 30.5946 7.602
32.2026 30.6692 7.6589
32.2218 30.741 7.7164
32.2421 30.8103 7.7749
32.2636 30.878 7.8349
32.2865 30.9445 7.8968
32.3109 31.0104 7.9612
32.3371 31.0763 8.0286
32.3654 31.1429 8.0999
32.3962 31.2108 8.1758
32.43 31.2811 8.2575
32.4673 31.3545 8.3465
32.509 31.4326 8.4445
3 8 60 59 0.39871245671765665 0.35830660856012764 0.659830526548423
3 59 9 8 0.39871245671765665 0.35830660856012764 0.659830526548423
3 53 52 15 0.39871245671765665 0.35830660856012764 0.659830526548423
3 15 52 47 0.39871245671765665 0.35830660856012764 0.659830526548423
3 15 47 16 0.39871245671765665 0.35830660856012764 0.659830526548423
3 54 12 55 0.39871245671765665 0.35830660856012764 0.659830526548423
3 13 12 54 0.39871245671765665 0.35830660856012764 0.659830526548423
3 54 53 13 0.39871245671765665 0.35830660856012764 0.659830526548423
3 52 51 48 0.39871245671765665 0.35830660856012764 0.659830526548423
3 48 47 52 0.39871245671765665 0.35830660856012764 0.659830526548423
3 48 51 49 0.39871245671765665 0.35830660856012764 0.659830526548423
3 36 25 37 0.39871245671765665 0.35830660856012764 0.659830526548423
3 28 33 29 0.39871245671765665 0.35830660856012764 0.659830526548423
3 44 18 17 0.39871245671765665 0.35830660856012764 0.659830526548423
3 21 40 39 0.39871245671765665 0.35830660856012764 0.659830526548423
3 37 25 24 0.39871245671765665 0.35830660856012764 0.659830526548423
3 24 38 37 0.39871245671765665 0.35830660856012764 0.659830526548423
3 20 40 21 0.39871245671765665 0.35830660856012764 0.659830526548423
3 20 41 40 0.39871245671765665 0.35830660856012764 0.659830526548423
3 43 18 44 0.39871245671765665 0.35830660856012764 0.659830526548423
3 62 5 63 0.39871245671765665 0.35830660856012764 0.659830526548423
3 2 66 3 0.39871245671765665 0.35830660856012764 0.659830526548423
3 3 66 65 0.39871245671765665 0.35830660856012764 0.659830526548423
3 3 65 4 0.39871245671765665 0.35830660856012764 0.659830526548423
3 4 65 64 0.39871245671765665 0.35830660856012764 0.659830526548423
3 64 63 4 0.39871245671765665 0.35830660856012764 0.659830526548423
3 4 63 5 0.39871245671765665 0.35830660856012764 0.659830526548423
3 58 9 59 0.39871245671765665 0.35830660856012764 0.659830526548423
3 10 57 56 0.39871245671765665 0.35830660856012764 0.659830526548423
3 9 58 10 0.39871245671765665 0.35830660856012764 0.659830526548423
3 10 58 57 0.39871245671765665 0.35830660856012764 0.659830526548423
3 14 53 15 0.39871245671765665 0.35830660856012764 0.659830526548423
3 14 13 53 0.39871245671765665 0.35830660856012764 0.659830526548423
3 30 29 32 0.39871245671765665 0.35830660856012764 0.659830526548423
3 29 33 32 0.39871245671765665 0.35830660856012764 0.659830526548423
3 34 28 35 0.39871245671765665 0.35830660856012764 0.659830526548423
3 33 28 34 0.39871245671765665 0.35830660856012764 0.659830526548423
3 25 36 26 0.39871245671765665 0.35830660856012764 0.659830526548423
3 46 16 47 0.39871245671765665 0.35830660856012764 0.659830526548423
3 46 17 16 0.39871245671765665 0.35830660856012764 0.659830526548423
3 38 24 23 0.39871245671765665 0.35830660856012764 0.659830526548423
3 21 39 23 0.39871245671765665 0.35830660856012764 0.659830526548423
3 23 39 38 0.39871245671765665 0.35830660856012764 0.659830526548423
3 18 43 19 0.39871245671765665 0.35830660856012764 0.659830526548423
3 41 20 19 0.39871245671765665 0.35830660856012764 0.659830526548423
3 6 5 62 0.39871245671765665 0.35830660856012764 0.659830526548423
3 62 61 6 0.39871245671765665 0.35830660856012764 0.659830526548423
3 67 2 0 0.39871245671765665 0.35830660856012764 0.659830526548423
3 66 2 67 0.39871245671765665 0.35830660856012764 0.659830526548423
3 11 10 56 0.39871245671765665 0.35830660856012764 0.659830526548423
3 11 55 12 0.39871245671765665 0.35830660856012764 0.659830526548423
3 56 55 11 0.39871245671765665 0.35830660856012764 0.659830526548423
3 35 28 27 0.39871245671765665 0.35830660856012764 0.659830526548423
3 27 36 35 0.39871245671765665 0.35830660856012764 0.659830526548423
3 27 26 36 0.39871245671765665 0.35830660856012764 0.659830526548423
3 44 17 45 0.39871245671765665 0.35830660856012764 0.659830526548423
3 17 46 45 0.39871245671765665 0.35830660856012764 0.659830526548423
3 41 19 42 0.39871245671765665 0.35830660856012764 0.659830526548423
3 42 19 43 0.39871245671765665 0.35830660856012764 0.659830526548423
3 7 61 60 0.39871245671765665 0.35830660856012764 0.659830526548423
3 7 6 61 0.39871245671765665 0.35830660856012764 0.659830526548423
3 60 8 7 0.39871245671765665 0.35830660856012764 0.659830526548423
