OFF
138 220 0


26.9691 33.1401 8.4789
26.9691 33.1401 8.4789
26.9163 33.0697 8.5279
26.8636 32.9994 8.5773
26.8636 32.9994 8.5773
26.7389 32.945 8.6337
26.6526 32.9099 8.6719
26.5655 32.8763 8.7099
26.437 32.8302 8.7649
26.437 32.8302 8.7649
26.3029 32.8083 8.8085
26.2056 32.7929 8.8405
26.1217 32.7798 8.8683
26.0377 32.7671 8.8962
25.9405 32.7526 8.9288
25.6917 32.755 8.9916
25.8128 32.7965 8.9367
25.9167 32.8313 8.8905
26.0088 32.8616 8.8503
26.0928 32.8887 8.8143
26.1714 32.9136 8.7812
26.2467 32.9371 8.75
26.3206 32.9597 8.7199
26.3948 32.982 8.6902
26.471 33.0045 8.6603
26.5512 33.0276 8.6294
26.6377 33.052 8.5969
26.7332 33.0783 8.5618
26.8419 33.1073 8.523
26.9691 33.1401 8.4789
25.8066 32.7332 8.974
25.7491 32.7441 8.9828
25.6917 32.755 8.9916
26.1648 32.8035 8.8444
26.2071 32.8268 8.8211
26.0171 32.7814 8.8932
26.0912 32.8096 8.859
26.0712 32.8708 8.8296
26.1325 32.88 8.8094
26.2047 32.9141 8.7729
26.2379 32.9145 8.7647
26.3286 32.9526 8.722
26.3367 32.9455 8.724
26.4544 32.9901 8.672
26.4376 32.9756 8.6839
26.594 33.0298 8.6187
26.5499 33.0074 8.6408
26.8256 33.0435 8.5611
26.7352 33.0177 8.5945
26.6448 32.9923 8.6281
26.6773 32.94 8.6499
26.6158 32.9351 8.6661
26.5544 32.9303 8.6824
26.5326 32.883 8.7136
26.4998 32.8897 8.7173
26.467 32.8964 8.7211
26.3142 32.8268 8.7955
26.3254 32.8451 8.7826
26.3365 32.8633 8.7698
25.9129 32.8174 8.8993
26.0094 32.8378 8.8635
26.1029 32.8579 8.8291
26.7645 33.0754 8.5566
26.6869 33.0438 8.5906
26.609 33.0122 8.625
25.817 32.7839 8.9427
25.9361 32.8117 8.8966
26.05 32.8387 8.8529
26.7811 32.985 8.6026
26.6991 32.9709 8.628
26.6172 32.9571 8.6536
26.5351 32.9435 8.6795
26.4255 32.8449 8.7594
26.4141 32.8594 8.7539
26.4028 32.8739 8.7484
26.3915 32.8882 8.743
26.0961 32.7931 8.8671
26.153 32.8187 8.8387
26.2087 32.8437 8.8112
26.2632 32.8684 8.7843
25.9964 32.8459 8.8622
26.0741 32.8602 8.8349
26.1499 32.8745 8.8083
26.2243 32.8886 8.7824
26.2671 32.9337 8.747
26.2876 32.9302 8.7441
26.308 32.9268 8.7411
26.3284 32.9235 8.7382
26.5216 33.0094 8.6461
26.4917 32.9912 8.6629
26.4615 32.9728 8.68
26.4311 32.9542 8.6972
26.8699 33.1022 8.5199
26.7712 33.0648 8.561
26.6724 33.0278 8.6026
26.5729 32.9909 8.6448
26.6053 32.9108 8.6819
26.558 32.9118 8.6919
26.5109 32.9129 8.7019
26.4637 32.9141 8.712
26.4165 32.9154 8.7221
26.2338 32.8142 8.8217
26.2617 32.8352 8.8033
26.2891 32.8559 8.7852
26.3161 32.8764 8.7673
26.3428 32.8967 8.7497
25.817 32.7839 8.9427
25.9361 32.8117 8.8966
26.05 32.8387 8.8529
26.1596 32.8651 8.8112
26.2658 32.891 8.7711
26.14 32.8933 8.8002
26.1866 32.8979 8.7863
26.2328 32.9026 8.7725
26.2786 32.9073 8.759
26.3241 32.912 8.7456
26.3906 32.9713 8.6971
26.3864 32.9605 8.7041
26.3821 32.9496 8.7111
26.3778 32.9387 8.7181
26.3736 32.9278 8.7252
26.6739 33.0516 8.5892
26.6143 33.0248 8.6169
26.5541 32.9981 8.645
26.4933 32.9712 8.6736
26.4318 32.9441 8.7027
25.9093 32.7659 8.9292
26.0077 32.7976 8.8865
26.1023 32.8283 8.8458
26.1937 32.8583 8.8067
26.2826 32.8877 8.7689
26.8699 33.1022 8.5199
26.7712 33.0648 8.561
26.6724 33.0278 8.6026
26.5729 32.9909 8.6448
26.472 32.954 8.688
26.3692 32.9167 8.7324
26.3692 32.9167 8.7324
3 8 57 56 0.8606262394672457 0.48691715654889733 0.9820615700588381
3 31 16 15 0.8606262394672457 0.48691715654889733 0.9820615700588381
3 68 5 3 0.8606262394672457 0.48691715654889733 0.9820615700588381
3 72 57 8 0.8606262394672457 0.48691715654889733 0.9820615700588381
3 8 55 72 0.8606262394672457 0.48691715654889733 0.9820615700588381
3 100 55 99 0.8606262394672457 0.48691715654889733 0.9820615700588381
3 74 55 100 0.8606262394672457 0.48691715654889733 0.9820615700588381
3 101 11 10 0.8606262394672457 0.48691715654889733 0.9820615700588381
3 8 56 10 0.8606262394672457 0.48691715654889733 0.9820615700588381
3 101 10 102 0.8606262394672457 0.48691715654889733 0.9820615700588381
3 102 10 56 0.8606262394672457 0.48691715654889733 0.9820615700588381
3 106 31 30 0.8606262394672457 0.48691715654889733 0.9820615700588381
3 16 31 106 0.8606262394672457 0.48691715654889733 0.9820615700588381
3 49 50 69 0.8606262394672457 0.48691715654889733 0.9820615700588381
3 69 50 5 0.8606262394672457 0.48691715654889733 0.9820615700588381
3 47 68 3 0.8606262394672457 0.48691715654889733 0.9820615700588381
3 3 2 47 0.8606262394672457 0.48691715654889733 0.9820615700588381
3 25 24 88 0.8606262394672457 0.48691715654889733 0.9820615700588381
3 58 104 57 0.8606262394672457 0.48691715654889733 0.9820615700588381
3 58 105 104 0.8606262394672457 0.48691715654889733 0.9820615700588381
3 75 100 136 0.8606262394672457 0.48691715654889733 0.9820615700588381
3 74 100 75 0.8606262394672457 0.48691715654889733 0.9820615700588381
3 136 105 75 0.8606262394672457 0.48691715654889733 0.9820615700588381
3 75 58 74 0.8606262394672457 0.48691715654889733 0.9820615700588381
3 105 58 75 0.8606262394672457 0.48691715654889733 0.9820615700588381
3 101 102 78 0.8606262394672457 0.48691715654889733 0.9820615700588381
3 57 104 103 0.8606262394672457 0.48691715654889733 0.9820615700588381
3 103 56 57 0.8606262394672457 0.48691715654889733 0.9820615700588381
3 103 102 56 0.8606262394672457 0.48691715654889733 0.9820615700588381
3 39 21 20 0.8606262394672457 0.48691715654889733 0.9820615700588381
3 16 106 126 0.8606262394672457 0.48691715654889733 0.9820615700588381
3 126 106 30 0.8606262394672457 0.48691715654889733 0.9820615700588381
3 13 108 35 0.8606262394672457 0.48691715654889733 0.9820615700588381
3 108 127 35 0.8606262394672457 0.48691715654889733 0.9820615700588381
3 71 135 98 0.8606262394672457 0.48691715654889733 0.9820615700588381
3 98 135 99 0.8606262394672457 0.48691715654889733 0.9820615700588381
3 5 68 48 0.8606262394672457 0.48691715654889733 0.9820615700588381
3 48 69 5 0.8606262394672457 0.48691715654889733 0.9820615700588381
3 28 47 92 0.8606262394672457 0.48691715654889733 0.9820615700588381
3 92 47 2 0.8606262394672457 0.48691715654889733 0.9820615700588381
3 0 28 92 0.8606262394672457 0.48691715654889733 0.9820615700588381
3 92 2 0 0.8606262394672457 0.48691715654889733 0.9820615700588381
3 52 95 71 0.8606262394672457 0.48691715654889733 0.9820615700588381
3 71 98 52 0.8606262394672457 0.48691715654889733 0.9820615700588381
3 50 51 6 0.8606262394672457 0.48691715654889733 0.9820615700588381
3 5 50 6 0.8606262394672457 0.48691715654889733 0.9820615700588381
3 49 122 64 0.8606262394672457 0.48691715654889733 0.9820615700588381
3 45 26 25 0.8606262394672457 0.48691715654889733 0.9820615700588381
3 45 122 26 0.8606262394672457 0.48691715654889733 0.9820615700588381
3 45 64 122 0.8606262394672457 0.48691715654889733 0.9820615700588381
3 25 95 45 0.8606262394672457 0.48691715654889733 0.9820615700588381
3 95 64 45 0.8606262394672457 0.48691715654889733 0.9820615700588381
3 124 135 71 0.8606262394672457 0.48691715654889733 0.9820615700588381
3 71 88 124 0.8606262394672457 0.48691715654889733 0.9820615700588381
3 46 95 25 0.8606262394672457 0.48691715654889733 0.9820615700588381
3 25 88 46 0.8606262394672457 0.48691715654889733 0.9820615700588381
3 86 41 22 0.8606262394672457 0.48691715654889733 0.9820615700588381
3 74 58 73 0.8606262394672457 0.48691715654889733 0.9820615700588381
3 73 55 74 0.8606262394672457 0.48691715654889733 0.9820615700588381
3 73 72 55 0.8606262394672457 0.48691715654889733 0.9820615700588381
3 57 72 73 0.8606262394672457 0.48691715654889733 0.9820615700588381
3 73 58 57 0.8606262394672457 0.48691715654889733 0.9820615700588381
3 120 42 136 0.8606262394672457 0.48691715654889733 0.9820615700588381
3 120 119 42 0.8606262394672457 0.48691715654889733 0.9820615700588381
3 136 100 120 0.8606262394672457 0.48691715654889733 0.9820615700588381
3 100 119 120 0.8606262394672457 0.48691715654889733 0.9820615700588381
3 33 12 11 0.8606262394672457 0.48691715654889733 0.9820615700588381
3 33 77 12 0.8606262394672457 0.48691715654889733 0.9820615700588381
3 12 77 128 0.8606262394672457 0.48691715654889733 0.9820615700588381
3 80 107 127 0.8606262394672457 0.48691715654889733 0.9820615700588381
3 18 17 80 0.8606262394672457 0.48691715654889733 0.9820615700588381
3 17 107 80 0.8606262394672457 0.48691715654889733 0.9820615700588381
3 59 17 16 0.8606262394672457 0.48691715654889733 0.9820615700588381
3 16 126 59 0.8606262394672457 0.48691715654889733 0.9820615700588381
3 59 107 17 0.8606262394672457 0.48691715654889733 0.9820615700588381
3 59 126 107 0.8606262394672457 0.48691715654889733 0.9820615700588381
3 14 126 30 0.8606262394672457 0.48691715654889733 0.9820615700588381
3 13 35 14 0.8606262394672457 0.48691715654889733 0.9820615700588381
3 107 126 14 0.8606262394672457 0.48691715654889733 0.9820615700588381
3 127 107 14 0.8606262394672457 0.48691715654889733 0.9820615700588381
3 14 35 127 0.8606262394672457 0.48691715654889733 0.9820615700588381
3 8 7 53 0.8606262394672457 0.48691715654889733 0.9820615700588381
3 62 28 27 0.8606262394672457 0.48691715654889733 0.9820615700588381
3 68 47 132 0.8606262394672457 0.48691715654889733 0.9820615700588381
3 132 48 68 0.8606262394672457 0.48691715654889733 0.9820615700588381
3 132 47 28 0.8606262394672457 0.48691715654889733 0.9820615700588381
3 28 62 132 0.8606262394672457 0.48691715654889733 0.9820615700588381
3 27 48 132 0.8606262394672457 0.48691715654889733 0.9820615700588381
3 132 62 27 0.8606262394672457 0.48691715654889733 0.9820615700588381
3 63 48 27 0.8606262394672457 0.48691715654889733 0.9820615700588381
3 95 52 70 0.8606262394672457 0.48691715654889733 0.9820615700588381
3 70 52 51 0.8606262394672457 0.48691715654889733 0.9820615700588381
3 49 64 70 0.8606262394672457 0.48691715654889733 0.9820615700588381
3 70 64 95 0.8606262394672457 0.48691715654889733 0.9820615700588381
3 70 50 49 0.8606262394672457 0.48691715654889733 0.9820615700588381
3 70 51 50 0.8606262394672457 0.48691715654889733 0.9820615700588381
3 51 52 96 0.8606262394672457 0.48691715654889733 0.9820615700588381
3 7 6 96 0.8606262394672457 0.48691715654889733 0.9820615700588381
3 96 6 51 0.8606262394672457 0.48691715654889733 0.9820615700588381
3 118 119 100 0.8606262394672457 0.48691715654889733 0.9820615700588381
3 42 119 118 0.8606262394672457 0.48691715654889733 0.9820615700588381
3 89 88 24 0.8606262394672457 0.48691715654889733 0.9820615700588381
3 89 124 88 0.8606262394672457 0.48691715654889733 0.9820615700588381
3 24 43 89 0.8606262394672457 0.48691715654889733 0.9820615700588381
3 71 95 123 0.8606262394672457 0.48691715654889733 0.9820615700588381
3 95 46 123 0.8606262394672457 0.48691715654889733 0.9820615700588381
3 123 88 71 0.8606262394672457 0.48691715654889733 0.9820615700588381
3 123 46 88 0.8606262394672457 0.48691715654889733 0.9820615700588381
3 104 105 115 0.8606262394672457 0.48691715654889733 0.9820615700588381
3 42 41 87 0.8606262394672457 0.48691715654889733 0.9820615700588381
3 41 86 87 0.8606262394672457 0.48691715654889733 0.9820615700588381
3 86 115 87 0.8606262394672457 0.48691715654889733 0.9820615700588381
3 136 42 87 0.8606262394672457 0.48691715654889733 0.9820615700588381
3 87 105 136 0.8606262394672457 0.48691715654889733 0.9820615700588381
3 87 115 105 0.8606262394672457 0.48691715654889733 0.9820615700588381
3 85 86 22 0.8606262394672457 0.48691715654889733 0.9820615700588381
3 130 103 104 0.8606262394672457 0.48691715654889733 0.9820615700588381
3 104 115 130 0.8606262394672457 0.48691715654889733 0.9820615700588381
3 40 21 39 0.8606262394672457 0.48691715654889733 0.9820615700588381
3 102 103 79 0.8606262394672457 0.48691715654889733 0.9820615700588381
3 79 110 83 0.8606262394672457 0.48691715654889733 0.9820615700588381
3 103 130 79 0.8606262394672457 0.48691715654889733 0.9820615700588381
3 79 130 110 0.8606262394672457 0.48691715654889733 0.9820615700588381
3 79 78 102 0.8606262394672457 0.48691715654889733 0.9820615700588381
3 79 83 78 0.8606262394672457 0.48691715654889733 0.9820615700588381
3 77 33 34 0.8606262394672457 0.48691715654889733 0.9820615700588381
3 34 33 11 0.8606262394672457 0.48691715654889733 0.9820615700588381
3 34 11 101 0.8606262394672457 0.48691715654889733 0.9820615700588381
3 101 78 34 0.8606262394672457 0.48691715654889733 0.9820615700588381
3 39 20 112 0.8606262394672457 0.48691715654889733 0.9820615700588381
3 112 83 39 0.8606262394672457 0.48691715654889733 0.9820615700588381
3 82 109 112 0.8606262394672457 0.48691715654889733 0.9820615700588381
3 112 111 82 0.8606262394672457 0.48691715654889733 0.9820615700588381
3 20 111 112 0.8606262394672457 0.48691715654889733 0.9820615700588381
3 13 12 76 0.8606262394672457 0.48691715654889733 0.9820615700588381
3 77 109 61 0.8606262394672457 0.48691715654889733 0.9820615700588381
3 61 128 77 0.8606262394672457 0.48691715654889733 0.9820615700588381
3 60 127 108 0.8606262394672457 0.48691715654889733 0.9820615700588381
3 60 80 127 0.8606262394672457 0.48691715654889733 0.9820615700588381
3 60 108 18 0.8606262394672457 0.48691715654889733 0.9820615700588381
3 18 80 60 0.8606262394672457 0.48691715654889733 0.9820615700588381
3 54 53 98 0.8606262394672457 0.48691715654889733 0.9820615700588381
3 99 55 54 0.8606262394672457 0.48691715654889733 0.9820615700588381
3 54 98 99 0.8606262394672457 0.48691715654889733 0.9820615700588381
3 54 55 8 0.8606262394672457 0.48691715654889733 0.9820615700588381
3 8 53 54 0.8606262394672457 0.48691715654889733 0.9820615700588381
3 27 26 121 0.8606262394672457 0.48691715654889733 0.9820615700588381
3 121 63 27 0.8606262394672457 0.48691715654889733 0.9820615700588381
3 69 48 133 0.8606262394672457 0.48691715654889733 0.9820615700588381
3 48 63 133 0.8606262394672457 0.48691715654889733 0.9820615700588381
3 49 69 133 0.8606262394672457 0.48691715654889733 0.9820615700588381
3 63 121 133 0.8606262394672457 0.48691715654889733 0.9820615700588381
3 133 121 26 0.8606262394672457 0.48691715654889733 0.9820615700588381
3 133 122 49 0.8606262394672457 0.48691715654889733 0.9820615700588381
3 26 122 133 0.8606262394672457 0.48691715654889733 0.9820615700588381
3 7 96 97 0.8606262394672457 0.48691715654889733 0.9820615700588381
3 97 96 52 0.8606262394672457 0.48691715654889733 0.9820615700588381
3 97 53 7 0.8606262394672457 0.48691715654889733 0.9820615700588381
3 97 52 98 0.8606262394672457 0.48691715654889733 0.9820615700588381
3 98 53 97 0.8606262394672457 0.48691715654889733 0.9820615700588381
3 125 118 100 0.8606262394672457 0.48691715654889733 0.9820615700588381
3 125 100 99 0.8606262394672457 0.48691715654889733 0.9820615700588381
3 99 135 125 0.8606262394672457 0.48691715654889733 0.9820615700588381
3 135 91 125 0.8606262394672457 0.48691715654889733 0.9820615700588381
3 90 91 135 0.8606262394672457 0.48691715654889733 0.9820615700588381
3 135 124 90 0.8606262394672457 0.48691715654889733 0.9820615700588381
3 124 89 90 0.8606262394672457 0.48691715654889733 0.9820615700588381
3 90 89 43 0.8606262394672457 0.48691715654889733 0.9820615700588381
3 23 43 24 0.8606262394672457 0.48691715654889733 0.9820615700588381
3 86 85 114 0.8606262394672457 0.48691715654889733 0.9820615700588381
3 114 115 86 0.8606262394672457 0.48691715654889733 0.9820615700588381
3 114 130 115 0.8606262394672457 0.48691715654889733 0.9820615700588381
3 110 130 114 0.8606262394672457 0.48691715654889733 0.9820615700588381
3 114 40 110 0.8606262394672457 0.48691715654889733 0.9820615700588381
3 83 110 113 0.8606262394672457 0.48691715654889733 0.9820615700588381
3 110 40 113 0.8606262394672457 0.48691715654889733 0.9820615700588381
3 39 83 113 0.8606262394672457 0.48691715654889733 0.9820615700588381
3 113 40 39 0.8606262394672457 0.48691715654889733 0.9820615700588381
3 129 109 77 0.8606262394672457 0.48691715654889733 0.9820615700588381
3 77 34 129 0.8606262394672457 0.48691715654889733 0.9820615700588381
3 129 34 78 0.8606262394672457 0.48691715654889733 0.9820615700588381
3 129 112 109 0.8606262394672457 0.48691715654889733 0.9820615700588381
3 78 83 129 0.8606262394672457 0.48691715654889733 0.9820615700588381
3 83 112 129 0.8606262394672457 0.48691715654889733 0.9820615700588381
3 36 128 108 0.8606262394672457 0.48691715654889733 0.9820615700588381
3 36 108 13 0.8606262394672457 0.48691715654889733 0.9820615700588381
3 13 76 36 0.8606262394672457 0.48691715654889733 0.9820615700588381
3 12 128 36 0.8606262394672457 0.48691715654889733 0.9820615700588381
3 36 76 12 0.8606262394672457 0.48691715654889733 0.9820615700588381
3 82 111 38 0.8606262394672457 0.48691715654889733 0.9820615700588381
3 38 109 82 0.8606262394672457 0.48691715654889733 0.9820615700588381
3 38 61 109 0.8606262394672457 0.48691715654889733 0.9820615700588381
3 19 111 20 0.8606262394672457 0.48691715654889733 0.9820615700588381
3 19 38 111 0.8606262394672457 0.48691715654889733 0.9820615700588381
3 61 38 19 0.8606262394672457 0.48691715654889733 0.9820615700588381
3 117 125 91 0.8606262394672457 0.48691715654889733 0.9820615700588381
3 118 125 117 0.8606262394672457 0.48691715654889733 0.9820615700588381
3 117 41 42 0.8606262394672457 0.48691715654889733 0.9820615700588381
3 42 118 117 0.8606262394672457 0.48691715654889733 0.9820615700588381
3 22 41 117 0.8606262394672457 0.48691715654889733 0.9820615700588381
3 44 23 91 0.8606262394672457 0.48691715654889733 0.9820615700588381
3 43 23 44 0.8606262394672457 0.48691715654889733 0.9820615700588381
3 91 90 44 0.8606262394672457 0.48691715654889733 0.9820615700588381
3 44 90 43 0.8606262394672457 0.48691715654889733 0.9820615700588381
3 21 40 84 0.8606262394672457 0.48691715654889733 0.9820615700588381
3 40 114 84 0.8606262394672457 0.48691715654889733 0.9820615700588381
3 84 114 85 0.8606262394672457 0.48691715654889733 0.9820615700588381
3 22 21 84 0.8606262394672457 0.48691715654889733 0.9820615700588381
3 84 85 22 0.8606262394672457 0.48691715654889733 0.9820615700588381
3 61 19 37 0.8606262394672457 0.48691715654889733 0.9820615700588381
3 18 108 37 0.8606262394672457 0.48691715654889733 0.9820615700588381
3 37 19 18 0.8606262394672457 0.48691715654889733 0.9820615700588381
3 91 23 116 0.8606262394672457 0.48691715654889733 0.9820615700588381
3 116 117 91 0.8606262394672457 0.48691715654889733 0.9820615700588381
3 116 23 22 0.8606262394672457 0.48691715654889733 0.9820615700588381
3 22 117 116 0.8606262394672457 0.48691715654889733 0.9820615700588381
3 128 61 81 0.8606262394672457 0.48691715654889733 0.9820615700588381
3 61 37 81 0.8606262394672457 0.48691715654889733 0.9820615700588381
3 108 128 81 0.8606262394672457 0.48691715654889733 0.9820615700588381
3 81 37 108 0.8606262394672457 0.48691715654889733 0.9820615700588381
