OFF
40 34 0


28.1481 32.0571 10.9602
28.1481 32.0571 10.9602
28.2272 31.95 10.9434
28.2924 31.8603 10.9315
28.3491 31.7813 10.9229
28.4007 31.7084 10.9163
28.4499 31.6381 10.9114
28.4987 31.5675 10.9078
28.5492 31.4934 10.9054
28.6038 31.4123 10.9045
28.6654 31.3193 10.9055
28.7385 31.2072 10.9095
28.7385 31.2072 10.9095
28.8173 31.1141 10.8724
28.8961 31.0207 10.8361
28.9539 31.0187 10.7105
28.9983 31.0165 10.6152
29.0365 31.0142 10.5335
29.0732 31.0115 10.4559
29.112 31.0083 10.3745
29.1575 31.004 10.2798
29.2178 30.9974 10.1555
29.2178 30.9974 10.1555
29.1315 31.0784 10.2271
29.0557 31.15 10.2891
28.9878 31.2148 10.3439
28.9257 31.2745 10.3933
28.868 31.3304 10.4388
28.8133 31.3837 10.4813
28.7606 31.4352 10.5217
28.7092 31.4859 10.5608
28.6582 31.5365 10.5991
28.6068 31.5878 10.6373
28.5541 31.6406 10.676
28.4994 31.6958 10.7157
28.4415 31.7545 10.7572
28.3793 31.818 10.8012
28.3111 31.888 10.8488
28.235 31.9667 10.9013
28.1481 32.0571 10.9602
3 2 38 0 0.24672637904318617 0.794797247357021 0.3358482858821551
3 24 19 23 0.24672637904318617 0.794797247357021 0.3358482858821551
3 35 36 5 0.24672637904318617 0.794797247357021 0.3358482858821551
3 21 23 20 0.24672637904318617 0.794797247357021 0.3358482858821551
3 20 23 19 0.24672637904318617 0.794797247357021 0.3358482858821551
3 28 29 11 0.24672637904318617 0.794797247357021 0.3358482858821551
3 11 13 28 0.24672637904318617 0.794797247357021 0.3358482858821551
3 4 36 37 0.24672637904318617 0.794797247357021 0.3358482858821551
3 4 5 36 0.24672637904318617 0.794797247357021 0.3358482858821551
3 8 32 33 0.24672637904318617 0.794797247357021 0.3358482858821551
3 18 19 24 0.24672637904318617 0.794797247357021 0.3358482858821551
3 27 28 15 0.24672637904318617 0.794797247357021 0.3358482858821551
3 15 28 13 0.24672637904318617 0.794797247357021 0.3358482858821551
3 15 13 14 0.24672637904318617 0.794797247357021 0.3358482858821551
3 3 4 37 0.24672637904318617 0.794797247357021 0.3358482858821551
3 37 38 3 0.24672637904318617 0.794797247357021 0.3358482858821551
3 38 2 3 0.24672637904318617 0.794797247357021 0.3358482858821551
3 11 29 10 0.24672637904318617 0.794797247357021 0.3358482858821551
3 29 30 10 0.24672637904318617 0.794797247357021 0.3358482858821551
3 33 34 7 0.24672637904318617 0.794797247357021 0.3358482858821551
3 7 8 33 0.24672637904318617 0.794797247357021 0.3358482858821551
3 25 18 24 0.24672637904318617 0.794797247357021 0.3358482858821551
3 25 26 17 0.24672637904318617 0.794797247357021 0.3358482858821551
3 17 18 25 0.24672637904318617 0.794797247357021 0.3358482858821551
3 16 26 27 0.24672637904318617 0.794797247357021 0.3358482858821551
3 27 15 16 0.24672637904318617 0.794797247357021 0.3358482858821551
3 17 26 16 0.24672637904318617 0.794797247357021 0.3358482858821551
3 31 32 9 0.24672637904318617 0.794797247357021 0.3358482858821551
3 32 8 9 0.24672637904318617 0.794797247357021 0.3358482858821551
3 9 30 31 0.24672637904318617 0.794797247357021 0.3358482858821551
3 9 10 30 0.24672637904318617 0.794797247357021 0.3358482858821551
3 6 7 34 0.24672637904318617 0.794797247357021 0.3358482858821551
3 35 5 6 0.24672637904318617 0.794797247357021 0.3358482858821551
3 6 34 35 0.24672637904318617 0.794797247357021 0.3358482858821551
