OFF
127 123 0


32.9148 32.2527 8.5997
32.9148 32.2527 8.5997
32.8768 32.3054 8.5027
32.8404 32.3575 8.4067
32.8055 32.4091 8.3117
32.7722 32.4602 8.2173
32.7407 32.5108 8.1237
32.7109 32.5611 8.0305
32.6829 32.6111 7.9377
32.657 32.6609 7.8453
32.6333 32.7104 7.7531
32.6118 32.7597 7.661
32.5928 32.8088 7.5691
32.5765 32.8577 7.4772
32.5629 32.9065 7.3854
32.5523 32.955 7.2938
32.5446 33.0033 7.2022
32.5401 33.0514 7.1109
32.5386 33.0991 7.0199
32.5401 33.1465 6.9292
32.5447 33.1935 6.839
32.552 33.2401 6.7494
32.5619 33.2862 6.6604
32.5743 33.3318 6.5721
32.5889 33.3769 6.4845
32.6055 33.4215 6.3977
32.6238 33.4656 6.3117
32.6438 33.5092 6.2265
32.6651 33.5523 6.1421
32.6877 33.595 6.0584
32.7114 33.6372 5.9754
32.736 33.6791 5.893
32.7615 33.7207 5.8111
32.7878 33.7619 5.7298
32.8148 33.8029 5.6488
32.8425 33.8437 5.5682
32.8707 33.8844 5.4878
32.8996 33.9249 5.4075
32.929 33.9654 5.3273
32.959 34.0059 5.247
32.9895 34.0465 5.1666
33.0205 34.0871 5.0859
33.0521 34.128 5.0049
33.0843 34.169 4.9233
33.1171 34.2103 4.8412
33.1505 34.252 4.7583
33.1846 34.2941 4.6747
33.2194 34.3366 4.59
33.2549 34.3797 4.5042
33.2912 34.4235 4.4172
33.3284 34.4679 4.3287
33.3665 34.5131 4.2387
33.4055 34.5591 4.1469
33.4456 34.6062 4.0531
33.4869 34.6543 3.9573
33.5294 34.7035 3.859
33.5732 34.7541 3.7581
33.6185 34.8061 3.6544
33.6653 34.8597 3.5475
33.6653 34.8597 3.5475
33.5892 34.7989 3.671
33.5194 34.7435 3.7837
33.4551 34.6924 3.8875
33.3953 34.6451 3.9837
33.3394 34.6009 4.0736
33.2866 34.5593 4.1581
33.2366 34.52 4.2381
33.1889 34.4826 4.3141
33.1432 34.4469 4.3869
33.0991 34.4125 4.4568
33.0564 34.3793 4.5245
33.0148 34.3471 4.5901
32.9741 34.3156 4.6542
32.9341 34.2847 4.717
32.8946 34.2544 4.7789
32.8553 34.2243 4.84
32.8162 34.1945 4.9009
32.777 34.1647 4.9615
32.7375 34.1349 5.0224
32.6976 34.1049 5.0836
32.657 34.0745 5.1456
32.6156 34.0436 5.2086
32.573 34.0121 5.2729
32.5291 33.9798 5.3389
32.4835 33.9465 5.407
32.4358 33.912 5.4775
32.3857 33.8761 5.5511
32.3325 33.8384 5.6282
32.2758 33.7987 5.7097
32.2147 33.7564 5.7962
32.1481 33.7113 5.889
32.0748 33.6625 5.9893
31.9928 33.6094 6.0988
31.8995 33.5507 6.22
31.9678 33.5014 6.3074
32.0313 33.4536 6.3925
32.0906 33.4069 6.4759
32.1458 33.3612 6.5578
32.1972 33.3162 6.6386
32.245 33.2719 6.7187
32.2893 33.228 6.7981
32.3302 33.1846 6.8771
32.368 33.1414 6.9558
32.4027 33.0985 7.0344
32.4344 33.0557 7.113
32.4632 33.0131 7.1916
32.4894 32.9705 7.2704
32.5131 32.9279 7.3495
32.5344 32.8852 7.4289
32.5535 32.8423 7.5089
32.5705 32.7993 7.5895
32.5856 32.7558 7.671
32.599 32.7119 7.7535
32.6107 32.6674 7.8375
32.6208 32.622 7.923
32.6295 32.5757 8.0106
32.6369 32.5282 8.1006
32.643 32.4793 8.1934
32.6478 32.4287 8.2897
32.6514 32.376 8.3899
32.6538 32.3209 8.4949
32.6549 32.2629 8.6056
32.6549 32.2629 8.6056
32.7199 32.2603 8.6041
32.7848 32.2578 8.6026
32.8498 32.2552 8.6012
32.9148 32.2527 8.5997
3 28 90 91 0.89278097404561 0.09906842122352288 0.19360547607982204
3 118 5 117 0.89278097404561 0.09906842122352288 0.19360547607982204
3 88 89 31 0.89278097404561 0.09906842122352288 0.19360547607982204
3 87 33 86 0.89278097404561 0.09906842122352288 0.19360547607982204
3 58 60 57 0.89278097404561 0.09906842122352288 0.19360547607982204
3 54 55 62 0.89278097404561 0.09906842122352288 0.19360547607982204
3 28 91 27 0.89278097404561 0.09906842122352288 0.19360547607982204
3 120 3 119 0.89278097404561 0.09906842122352288 0.19360547607982204
3 123 120 121 0.89278097404561 0.09906842122352288 0.19360547607982204
3 124 120 123 0.89278097404561 0.09906842122352288 0.19360547607982204
3 116 7 115 0.89278097404561 0.09906842122352288 0.19360547607982204
3 9 113 114 0.89278097404561 0.09906842122352288 0.19360547607982204
3 33 87 32 0.89278097404561 0.09906842122352288 0.19360547607982204
3 88 31 32 0.89278097404561 0.09906842122352288 0.19360547607982204
3 32 87 88 0.89278097404561 0.09906842122352288 0.19360547607982204
3 30 31 89 0.89278097404561 0.09906842122352288 0.19360547607982204
3 2 120 124 0.89278097404561 0.09906842122352288 0.19360547607982204
3 2 3 120 0.89278097404561 0.09906842122352288 0.19360547607982204
3 39 79 80 0.89278097404561 0.09906842122352288 0.19360547607982204
3 77 42 76 0.89278097404561 0.09906842122352288 0.19360547607982204
3 38 80 81 0.89278097404561 0.09906842122352288 0.19360547607982204
3 39 80 38 0.89278097404561 0.09906842122352288 0.19360547607982204
3 84 85 35 0.89278097404561 0.09906842122352288 0.19360547607982204
3 72 73 45 0.89278097404561 0.09906842122352288 0.19360547607982204
3 45 73 44 0.89278097404561 0.09906842122352288 0.19360547607982204
3 62 55 61 0.89278097404561 0.09906842122352288 0.19360547607982204
3 52 64 65 0.89278097404561 0.09906842122352288 0.19360547607982204
3 66 51 65 0.89278097404561 0.09906842122352288 0.19360547607982204
3 65 51 52 0.89278097404561 0.09906842122352288 0.19360547607982204
3 63 54 62 0.89278097404561 0.09906842122352288 0.19360547607982204
3 56 61 55 0.89278097404561 0.09906842122352288 0.19360547607982204
3 56 57 60 0.89278097404561 0.09906842122352288 0.19360547607982204
3 60 61 56 0.89278097404561 0.09906842122352288 0.19360547607982204
3 54 63 53 0.89278097404561 0.09906842122352288 0.19360547607982204
3 53 64 52 0.89278097404561 0.09906842122352288 0.19360547607982204
3 53 63 64 0.89278097404561 0.09906842122352288 0.19360547607982204
3 46 47 71 0.89278097404561 0.09906842122352288 0.19360547607982204
3 46 72 45 0.89278097404561 0.09906842122352288 0.19360547607982204
3 71 72 46 0.89278097404561 0.09906842122352288 0.19360547607982204
3 49 68 48 0.89278097404561 0.09906842122352288 0.19360547607982204
3 50 51 66 0.89278097404561 0.09906842122352288 0.19360547607982204
3 69 48 68 0.89278097404561 0.09906842122352288 0.19360547607982204
3 47 48 69 0.89278097404561 0.09906842122352288 0.19360547607982204
3 26 96 25 0.89278097404561 0.09906842122352288 0.19360547607982204
3 9 114 8 0.89278097404561 0.09906842122352288 0.19360547607982204
3 115 7 8 0.89278097404561 0.09906842122352288 0.19360547607982204
3 8 114 115 0.89278097404561 0.09906842122352288 0.19360547607982204
3 96 26 95 0.89278097404561 0.09906842122352288 0.19360547607982204
3 95 26 27 0.89278097404561 0.09906842122352288 0.19360547607982204
3 99 100 21 0.89278097404561 0.09906842122352288 0.19360547607982204
3 25 96 97 0.89278097404561 0.09906842122352288 0.19360547607982204
3 14 15 107 0.89278097404561 0.09906842122352288 0.19360547607982204
3 98 99 23 0.89278097404561 0.09906842122352288 0.19360547607982204
3 21 100 20 0.89278097404561 0.09906842122352288 0.19360547607982204
3 4 5 118 0.89278097404561 0.09906842122352288 0.19360547607982204
3 118 119 4 0.89278097404561 0.09906842122352288 0.19360547607982204
3 4 119 3 0.89278097404561 0.09906842122352288 0.19360547607982204
3 7 116 6 0.89278097404561 0.09906842122352288 0.19360547607982204
3 6 117 5 0.89278097404561 0.09906842122352288 0.19360547607982204
3 6 116 117 0.89278097404561 0.09906842122352288 0.19360547607982204
3 29 90 28 0.89278097404561 0.09906842122352288 0.19360547607982204
3 29 89 90 0.89278097404561 0.09906842122352288 0.19360547607982204
3 29 30 89 0.89278097404561 0.09906842122352288 0.19360547607982204
3 0 2 125 0.89278097404561 0.09906842122352288 0.19360547607982204
3 125 2 124 0.89278097404561 0.09906842122352288 0.19360547607982204
3 82 83 37 0.89278097404561 0.09906842122352288 0.19360547607982204
3 82 38 81 0.89278097404561 0.09906842122352288 0.19360547607982204
3 37 38 82 0.89278097404561 0.09906842122352288 0.19360547607982204
3 34 35 85 0.89278097404561 0.09906842122352288 0.19360547607982204
3 86 33 34 0.89278097404561 0.09906842122352288 0.19360547607982204
3 34 85 86 0.89278097404561 0.09906842122352288 0.19360547607982204
3 36 83 84 0.89278097404561 0.09906842122352288 0.19360547607982204
3 84 35 36 0.89278097404561 0.09906842122352288 0.19360547607982204
3 37 83 36 0.89278097404561 0.09906842122352288 0.19360547607982204
3 76 42 43 0.89278097404561 0.09906842122352288 0.19360547607982204
3 67 68 49 0.89278097404561 0.09906842122352288 0.19360547607982204
3 49 50 67 0.89278097404561 0.09906842122352288 0.19360547607982204
3 67 50 66 0.89278097404561 0.09906842122352288 0.19360547607982204
3 71 47 70 0.89278097404561 0.09906842122352288 0.19360547607982204
3 47 69 70 0.89278097404561 0.09906842122352288 0.19360547607982204
3 92 27 91 0.89278097404561 0.09906842122352288 0.19360547607982204
3 92 95 27 0.89278097404561 0.09906842122352288 0.19360547607982204
3 94 95 92 0.89278097404561 0.09906842122352288 0.19360547607982204
3 93 94 92 0.89278097404561 0.09906842122352288 0.19360547607982204
3 108 14 107 0.89278097404561 0.09906842122352288 0.19360547607982204
3 108 109 13 0.89278097404561 0.09906842122352288 0.19360547607982204
3 13 14 108 0.89278097404561 0.09906842122352288 0.19360547607982204
3 10 113 9 0.89278097404561 0.09906842122352288 0.19360547607982204
3 10 112 113 0.89278097404561 0.09906842122352288 0.19360547607982204
3 111 112 10 0.89278097404561 0.09906842122352288 0.19360547607982204
3 10 11 111 0.89278097404561 0.09906842122352288 0.19360547607982204
3 111 11 110 0.89278097404561 0.09906842122352288 0.19360547607982204
3 22 99 21 0.89278097404561 0.09906842122352288 0.19360547607982204
3 22 23 99 0.89278097404561 0.09906842122352288 0.19360547607982204
3 25 97 24 0.89278097404561 0.09906842122352288 0.19360547607982204
3 24 97 98 0.89278097404561 0.09906842122352288 0.19360547607982204
3 98 23 24 0.89278097404561 0.09906842122352288 0.19360547607982204
3 12 110 11 0.89278097404561 0.09906842122352288 0.19360547607982204
3 13 109 12 0.89278097404561 0.09906842122352288 0.19360547607982204
3 109 110 12 0.89278097404561 0.09906842122352288 0.19360547607982204
3 107 15 106 0.89278097404561 0.09906842122352288 0.19360547607982204
3 17 105 16 0.89278097404561 0.09906842122352288 0.19360547607982204
3 16 106 15 0.89278097404561 0.09906842122352288 0.19360547607982204
3 105 106 16 0.89278097404561 0.09906842122352288 0.19360547607982204
3 104 105 17 0.89278097404561 0.09906842122352288 0.19360547607982204
3 18 104 17 0.89278097404561 0.09906842122352288 0.19360547607982204
3 101 20 100 0.89278097404561 0.09906842122352288 0.19360547607982204
3 102 20 101 0.89278097404561 0.09906842122352288 0.19360547607982204
3 40 79 39 0.89278097404561 0.09906842122352288 0.19360547607982204
3 40 78 79 0.89278097404561 0.09906842122352288 0.19360547607982204
3 74 44 73 0.89278097404561 0.09906842122352288 0.19360547607982204
3 74 43 44 0.89278097404561 0.09906842122352288 0.19360547607982204
3 104 18 103 0.89278097404561 0.09906842122352288 0.19360547607982204
3 19 18 16 0.89278097404561 0.09906842122352288 0.19360547607982204
3 19 16 15 0.89278097404561 0.09906842122352288 0.19360547607982204
3 19 20 102 0.89278097404561 0.09906842122352288 0.19360547607982204
3 102 103 19 0.89278097404561 0.09906842122352288 0.19360547607982204
3 19 103 18 0.89278097404561 0.09906842122352288 0.19360547607982204
3 77 78 41 0.89278097404561 0.09906842122352288 0.19360547607982204
3 78 40 41 0.89278097404561 0.09906842122352288 0.19360547607982204
3 42 77 41 0.89278097404561 0.09906842122352288 0.19360547607982204
3 76 43 75 0.89278097404561 0.09906842122352288 0.19360547607982204
3 43 74 75 0.89278097404561 0.09906842122352288 0.19360547607982204
