OFF
16 13 0


25.6917 32.755 8.9916
25.6917 32.755 8.9916
25.7491 32.7441 8.9828
25.6917 32.755 8.9916
25.6917 32.755 8.9916
25.5979 32.7411 9.011
25.5041 32.7269 9.0305
25.5397 32.6945 9.0286
25.5752 32.662 9.0268
25.5752 32.662 9.0268
25.5752 32.662 9.0268
25.6909 32.6973 9.0002
25.6654 32.7345 8.9994
25.5722 32.7203 9.0188
25.665 32.7056 9.0038
25.6389 32.7138 9.0073
3 2 0 11 0.40259074658842864 0.2982958133071507 0.0048090096414131756
3 15 8 14 0.40259074658842864 0.2982958133071507 0.0048090096414131756
3 8 11 14 0.40259074658842864 0.2982958133071507 0.0048090096414131756
3 13 8 15 0.40259074658842864 0.2982958133071507 0.0048090096414131756
3 15 5 13 0.40259074658842864 0.2982958133071507 0.0048090096414131756
3 13 7 8 0.40259074658842864 0.2982958133071507 0.0048090096414131756
3 6 7 13 0.40259074658842864 0.2982958133071507 0.0048090096414131756
3 13 5 6 0.40259074658842864 0.2982958133071507 0.0048090096414131756
3 12 11 0 0.40259074658842864 0.2982958133071507 0.0048090096414131756
3 12 14 11 0.40259074658842864 0.2982958133071507 0.0048090096414131756
3 15 14 12 0.40259074658842864 0.2982958133071507 0.0048090096414131756
3 12 5 15 0.40259074658842864 0.2982958133071507 0.0048090096414131756
3 0 5 12 0.40259074658842864 0.2982958133071507 0.0048090096414131756
