OFF
58 52 0


27.9628 31.5555 7.0133
27.9628 31.5555 7.0133
27.9906 31.5489 6.9384
28.0184 31.5424 6.8635
28.0462 31.5358 6.7886
28.0741 31.5293 6.7137
28.1019 31.5228 6.6388
28.1297 31.5162 6.5639
28.1575 31.5097 6.489
28.1853 31.5031 6.4141
28.1853 31.5031 6.4141
28.0668 31.4672 6.3665
27.9634 31.4356 6.3232
27.8711 31.4071 6.2832
27.7868 31.3809 6.2452
27.7081 31.3562 6.2086
27.6334 31.3325 6.1725
27.561 31.3094 6.1363
27.4897 31.2863 6.0994
27.4182 31.263 6.061
27.3453 31.239 6.0204
27.2698 31.2138 5.9765
27.1903 31.1869 5.9283
27.1051 31.1576 5.8743
27.0123 31.1252 5.8124
26.9098 31.0888 5.74
26.9092 31.1107 5.8667
26.906 31.13 5.9822
26.9006 31.1473 6.0891
26.8934 31.1631 6.1891
26.8845 31.1775 6.284
26.874 31.1909 6.375
26.8618 31.2034 6.4633
26.8479 31.2152 6.5501
26.8321 31.2265 6.6361
26.8143 31.2374 6.7224
26.7942 31.2479 6.8098
26.7713 31.2582 6.8994
26.7452 31.2682 6.9921
26.7152 31.2781 7.089
26.6806 31.2878 7.1914
26.6403 31.2974 7.3007
26.5929 31.3069 7.4187
26.5929 31.3069 7.4187
26.7229 31.3289 7.3713
26.8353 31.3483 7.3321
26.9352 31.3657 7.2986
27.0262 31.3818 7.2692
27.1113 31.397 7.2425
27.1927 31.4117 7.2178
27.2724 31.4261 7.1943
27.3521 31.4407 7.1714
27.4337 31.4558 7.1486
27.5193 31.4717 7.1253
27.6112 31.4888 7.1009
27.7126 31.5079 7.0748
27.8277 31.5297 7.046
27.9628 31.5555 7.0133
3 52 33 16 0.45978832192004426 0.3735141244062882 0.28150102443865643
3 34 33 52 0.45978832192004426 0.3735141244062882 0.28150102443865643
3 52 51 34 0.45978832192004426 0.3735141244062882 0.28150102443865643
3 19 31 30 0.45978832192004426 0.3735141244062882 0.28150102443865643
3 38 47 46 0.45978832192004426 0.3735141244062882 0.28150102443865643
3 49 37 36 0.45978832192004426 0.3735141244062882 0.28150102443865643
3 35 34 51 0.45978832192004426 0.3735141244062882 0.28150102443865643
3 11 8 7 0.45978832192004426 0.3735141244062882 0.28150102443865643
3 9 8 11 0.45978832192004426 0.3735141244062882 0.28150102443865643
3 52 16 53 0.45978832192004426 0.3735141244062882 0.28150102443865643
3 15 53 16 0.45978832192004426 0.3735141244062882 0.28150102443865643
3 54 53 15 0.45978832192004426 0.3735141244062882 0.28150102443865643
3 0 56 2 0.45978832192004426 0.3735141244062882 0.28150102443865643
3 24 27 26 0.45978832192004426 0.3735141244062882 0.28150102443865643
3 24 23 27 0.45978832192004426 0.3735141244062882 0.28150102443865643
3 24 26 25 0.45978832192004426 0.3735141244062882 0.28150102443865643
3 30 29 20 0.45978832192004426 0.3735141244062882 0.28150102443865643
3 20 19 30 0.45978832192004426 0.3735141244062882 0.28150102443865643
3 17 16 33 0.45978832192004426 0.3735141244062882 0.28150102443865643
3 33 32 17 0.45978832192004426 0.3735141244062882 0.28150102443865643
3 18 32 31 0.45978832192004426 0.3735141244062882 0.28150102443865643
3 31 19 18 0.45978832192004426 0.3735141244062882 0.28150102443865643
3 18 17 32 0.45978832192004426 0.3735141244062882 0.28150102443865643
3 44 40 45 0.45978832192004426 0.3735141244062882 0.28150102443865643
3 41 44 42 0.45978832192004426 0.3735141244062882 0.28150102443865643
3 40 44 41 0.45978832192004426 0.3735141244062882 0.28150102443865643
3 38 46 39 0.45978832192004426 0.3735141244062882 0.28150102443865643
3 45 40 39 0.45978832192004426 0.3735141244062882 0.28150102443865643
3 39 46 45 0.45978832192004426 0.3735141244062882 0.28150102443865643
3 37 49 48 0.45978832192004426 0.3735141244062882 0.28150102443865643
3 48 47 38 0.45978832192004426 0.3735141244062882 0.28150102443865643
3 38 37 48 0.45978832192004426 0.3735141244062882 0.28150102443865643
3 50 35 51 0.45978832192004426 0.3735141244062882 0.28150102443865643
3 50 49 36 0.45978832192004426 0.3735141244062882 0.28150102443865643
3 36 35 50 0.45978832192004426 0.3735141244062882 0.28150102443865643
3 21 29 28 0.45978832192004426 0.3735141244062882 0.28150102443865643
3 21 20 29 0.45978832192004426 0.3735141244062882 0.28150102443865643
3 3 56 55 0.45978832192004426 0.3735141244062882 0.28150102443865643
3 55 4 3 0.45978832192004426 0.3735141244062882 0.28150102443865643
3 3 2 56 0.45978832192004426 0.3735141244062882 0.28150102443865643
3 55 54 14 0.45978832192004426 0.3735141244062882 0.28150102443865643
3 54 15 14 0.45978832192004426 0.3735141244062882 0.28150102443865643
3 22 21 28 0.45978832192004426 0.3735141244062882 0.28150102443865643
3 28 27 22 0.45978832192004426 0.3735141244062882 0.28150102443865643
3 27 23 22 0.45978832192004426 0.3735141244062882 0.28150102443865643
3 13 4 55 0.45978832192004426 0.3735141244062882 0.28150102443865643
3 55 14 13 0.45978832192004426 0.3735141244062882 0.28150102443865643
3 4 13 5 0.45978832192004426 0.3735141244062882 0.28150102443865643
3 12 5 13 0.45978832192004426 0.3735141244062882 0.28150102443865643
3 12 11 7 0.45978832192004426 0.3735141244062882 0.28150102443865643
3 6 12 7 0.45978832192004426 0.3735141244062882 0.28150102443865643
3 5 12 6 0.45978832192004426 0.3735141244062882 0.28150102443865643
