OFF
94 88 0


29.4407 36.001 5.4152
29.4407 36.001 5.4152
29.435 36.0483 5.3379
29.4293 36.0957 5.2607
29.4236 36.1431 5.1834
29.4178 36.1905 5.1062
29.4121 36.2379 5.029
29.4064 36.2853 4.9517
29.4007 36.3327 4.8745
29.395 36.3801 4.7972
29.3893 36.4275 4.72
29.3836 36.4749 4.6427
29.3778 36.5223 4.5655
29.3721 36.5697 4.4883
29.3664 36.617 4.411
29.3607 36.6644 4.3338
29.355 36.7118 4.2565
29.3493 36.7592 4.1793
29.3436 36.8066 4.1021
29.3378 36.854 4.0248
29.3321 36.9014 3.9476
29.3264 36.9488 3.8703
29.3207 36.9962 3.7931
29.3207 36.9962 3.7931
29.3379 37.019 3.9549
29.3535 37.04 4.1009
29.3677 37.0594 4.234
29.3807 37.0776 4.3564
29.3929 37.0947 4.4697
29.4042 37.111 4.5755
29.4148 37.1266 4.6749
29.4249 37.1416 4.7688
29.4345 37.1561 4.8582
29.4437 37.1702 4.9437
29.4525 37.1841 5.026
29.4611 37.1978 5.1055
29.4694 37.2113 5.1828
29.4776 37.2248 5.2584
29.4856 37.2384 5.3325
29.4935 37.252 5.4057
29.5014 37.2659 5.4782
29.5093 37.28 5.5504
29.5172 37.2945 5.6227
29.5251 37.3094 5.6954
29.5331 37.325 5.7689
29.5413 37.3413 5.8436
29.5497 37.3585 5.9198
29.5584 37.3768 5.9982
29.5673 37.3964 6.0792
29.5767 37.4177 6.1634
29.5866 37.441 6.2516
29.597 37.4668 6.3448
29.6083 37.496 6.4441
29.6204 37.5294 6.551
29.6338 37.5686 6.6676
29.6488 37.6156 6.7968
29.666 37.6742 6.9432
29.6864 37.7504 7.114
29.6864 37.7504 7.114
29.6782 37.6321 7.0824
29.6708 37.5205 7.0565
29.6641 37.4143 7.0353
29.658 37.3125 7.0184
29.6525 37.2142 7.0053
29.6474 37.1186 6.9956
29.6427 37.0249 6.9891
29.6384 36.9324 6.9856
29.6344 36.8405 6.9852
29.6307 36.7485 6.9878
29.6273 36.6559 6.9934
29.6241 36.5621 7.0022
29.6212 36.4663 7.0146
29.6186 36.368 7.0307
29.6163 36.2664 7.051
29.6143 36.1608 7.0761
29.6126 36.0503 7.1065
29.6112 35.934 7.1433
29.5965 35.948 6.9903
29.5841 35.958 6.8626
29.5733 35.9655 6.752
29.5637 35.9714 6.6533
29.5548 35.9761 6.563
29.5465 35.98 6.4784
29.5385 35.9834 6.3976
29.5308 35.9862 6.3189
29.523 35.9888 6.2409
29.5152 35.991 6.162
29.5072 35.9931 6.0808
29.4987 35.9949 5.9957
29.4896 35.9965 5.9046
29.4797 35.998 5.8051
29.4686 35.9993 5.6938
29.4558 36.0003 5.5662
29.4407 36.001 5.4152
3 5 89 70 0.05498307882570319 0.7350408026328054 0.8292789709931269
3 38 9 8 0.05498307882570319 0.7350408026328054 0.8292789709931269
3 92 91 3 0.05498307882570319 0.7350408026328054 0.8292789709931269
3 90 89 5 0.05498307882570319 0.7350408026328054 0.8292789709931269
3 27 26 18 0.05498307882570319 0.7350408026328054 0.8292789709931269
3 38 8 68 0.05498307882570319 0.7350408026328054 0.8292789709931269
3 67 41 68 0.05498307882570319 0.7350408026328054 0.8292789709931269
3 5 70 6 0.05498307882570319 0.7350408026328054 0.8292789709931269
3 61 60 54 0.05498307882570319 0.7350408026328054 0.8292789709931269
3 1 92 2 0.05498307882570319 0.7350408026328054 0.8292789709931269
3 2 92 3 0.05498307882570319 0.7350408026328054 0.8292789709931269
3 4 90 5 0.05498307882570319 0.7350408026328054 0.8292789709931269
3 3 91 4 0.05498307882570319 0.7350408026328054 0.8292789709931269
3 91 90 4 0.05498307882570319 0.7350408026328054 0.8292789709931269
3 18 26 19 0.05498307882570319 0.7350408026328054 0.8292789709931269
3 21 24 22 0.05498307882570319 0.7350408026328054 0.8292789709931269
3 20 24 21 0.05498307882570319 0.7350408026328054 0.8292789709931269
3 32 31 13 0.05498307882570319 0.7350408026328054 0.8292789709931269
3 29 15 30 0.05498307882570319 0.7350408026328054 0.8292789709931269
3 37 9 38 0.05498307882570319 0.7350408026328054 0.8292789709931269
3 12 32 13 0.05498307882570319 0.7350408026328054 0.8292789709931269
3 33 32 12 0.05498307882570319 0.7350408026328054 0.8292789709931269
3 9 37 10 0.05498307882570319 0.7350408026328054 0.8292789709931269
3 10 37 36 0.05498307882570319 0.7350408026328054 0.8292789709931269
3 33 12 34 0.05498307882570319 0.7350408026328054 0.8292789709931269
3 34 12 11 0.05498307882570319 0.7350408026328054 0.8292789709931269
3 25 24 20 0.05498307882570319 0.7350408026328054 0.8292789709931269
3 25 19 26 0.05498307882570319 0.7350408026328054 0.8292789709931269
3 20 19 25 0.05498307882570319 0.7350408026328054 0.8292789709931269
3 38 68 39 0.05498307882570319 0.7350408026328054 0.8292789709931269
3 69 6 70 0.05498307882570319 0.7350408026328054 0.8292789709931269
3 69 68 8 0.05498307882570319 0.7350408026328054 0.8292789709931269
3 62 52 51 0.05498307882570319 0.7350408026328054 0.8292789709931269
3 50 63 51 0.05498307882570319 0.7350408026328054 0.8292789709931269
3 51 63 62 0.05498307882570319 0.7350408026328054 0.8292789709931269
3 66 43 67 0.05498307882570319 0.7350408026328054 0.8292789709931269
3 44 43 66 0.05498307882570319 0.7350408026328054 0.8292789709931269
3 54 60 55 0.05498307882570319 0.7350408026328054 0.8292789709931269
3 60 59 55 0.05498307882570319 0.7350408026328054 0.8292789709931269
3 53 61 54 0.05498307882570319 0.7350408026328054 0.8292789709931269
3 53 52 62 0.05498307882570319 0.7350408026328054 0.8292789709931269
3 62 61 53 0.05498307882570319 0.7350408026328054 0.8292789709931269
3 42 41 67 0.05498307882570319 0.7350408026328054 0.8292789709931269
3 67 43 42 0.05498307882570319 0.7350408026328054 0.8292789709931269
3 73 72 83 0.05498307882570319 0.7350408026328054 0.8292789709931269
3 83 82 73 0.05498307882570319 0.7350408026328054 0.8292789709931269
3 14 30 15 0.05498307882570319 0.7350408026328054 0.8292789709931269
3 13 31 14 0.05498307882570319 0.7350408026328054 0.8292789709931269
3 31 30 14 0.05498307882570319 0.7350408026328054 0.8292789709931269
3 35 34 11 0.05498307882570319 0.7350408026328054 0.8292789709931269
3 35 10 36 0.05498307882570319 0.7350408026328054 0.8292789709931269
3 11 10 35 0.05498307882570319 0.7350408026328054 0.8292789709931269
3 17 27 18 0.05498307882570319 0.7350408026328054 0.8292789709931269
3 17 28 27 0.05498307882570319 0.7350408026328054 0.8292789709931269
3 40 68 41 0.05498307882570319 0.7350408026328054 0.8292789709931269
3 40 39 68 0.05498307882570319 0.7350408026328054 0.8292789709931269
3 7 69 8 0.05498307882570319 0.7350408026328054 0.8292789709931269
3 6 69 7 0.05498307882570319 0.7350408026328054 0.8292789709931269
3 49 63 50 0.05498307882570319 0.7350408026328054 0.8292789709931269
3 49 64 63 0.05498307882570319 0.7350408026328054 0.8292789709931269
3 65 46 45 0.05498307882570319 0.7350408026328054 0.8292789709931269
3 45 66 65 0.05498307882570319 0.7350408026328054 0.8292789709931269
3 44 66 45 0.05498307882570319 0.7350408026328054 0.8292789709931269
3 56 59 57 0.05498307882570319 0.7350408026328054 0.8292789709931269
3 56 55 59 0.05498307882570319 0.7350408026328054 0.8292789709931269
3 73 82 81 0.05498307882570319 0.7350408026328054 0.8292789709931269
3 81 74 73 0.05498307882570319 0.7350408026328054 0.8292789709931269
3 80 74 81 0.05498307882570319 0.7350408026328054 0.8292789709931269
3 75 74 78 0.05498307882570319 0.7350408026328054 0.8292789709931269
3 72 71 86 0.05498307882570319 0.7350408026328054 0.8292789709931269
3 86 85 72 0.05498307882570319 0.7350408026328054 0.8292789709931269
3 71 87 86 0.05498307882570319 0.7350408026328054 0.8292789709931269
3 72 85 84 0.05498307882570319 0.7350408026328054 0.8292789709931269
3 84 83 72 0.05498307882570319 0.7350408026328054 0.8292789709931269
3 28 17 16 0.05498307882570319 0.7350408026328054 0.8292789709931269
3 16 15 29 0.05498307882570319 0.7350408026328054 0.8292789709931269
3 29 28 16 0.05498307882570319 0.7350408026328054 0.8292789709931269
3 64 49 48 0.05498307882570319 0.7350408026328054 0.8292789709931269
3 76 75 77 0.05498307882570319 0.7350408026328054 0.8292789709931269
3 75 78 77 0.05498307882570319 0.7350408026328054 0.8292789709931269
3 79 74 80 0.05498307882570319 0.7350408026328054 0.8292789709931269
3 79 78 74 0.05498307882570319 0.7350408026328054 0.8292789709931269
3 88 87 71 0.05498307882570319 0.7350408026328054 0.8292789709931269
3 88 70 89 0.05498307882570319 0.7350408026328054 0.8292789709931269
3 88 71 70 0.05498307882570319 0.7350408026328054 0.8292789709931269
3 65 64 47 0.05498307882570319 0.7350408026328054 0.8292789709931269
3 64 48 47 0.05498307882570319 0.7350408026328054 0.8292789709931269
3 47 46 65 0.05498307882570319 0.7350408026328054 0.8292789709931269
