OFF
43 37 0


31.03 31.2542 12.0727
31.03 31.2542 12.0727
31.0099 31.2108 12.0552
30.9897 31.1673 12.0376
30.9696 31.1238 12.0201
30.9696 31.1238 12.0201
30.8961 31.053 11.9388
30.8379 30.9984 11.8743
30.7878 30.9524 11.8184
30.741 30.9102 11.7661
30.694 30.8688 11.7135
30.6432 30.8248 11.6564
30.5839 30.7746 11.5896
30.5081 30.7121 11.5037
30.5081 30.7121 11.5037
30.5336 30.8283 11.5139
30.559 30.9383 11.5253
30.5848 31.0434 11.5381
30.6114 31.1449 11.5526
30.6393 31.2437 11.5694
30.669 31.3402 11.589
30.7012 31.4348 11.612
30.7363 31.5272 11.6394
30.7749 31.617 11.6718
30.8173 31.7034 11.7098
30.8638 31.7855 11.7537
30.914 31.8628 11.8036
30.9677 31.935 11.8589
31.0244 32.0022 11.9191
31.0838 32.0652 11.9836
31.1457 32.1247 12.0521
31.2104 32.1816 12.1246
31.2781 32.237 12.2014
31.2491 32.1056 12.1895
31.2245 31.9985 12.1786
31.2025 31.9061 12.1683
31.182 31.8222 12.1582
31.162 31.7422 12.148
31.1416 31.6624 12.1372
31.1197 31.5792 12.1252
31.0953 31.488 12.1114
31.0664 31.3828 12.0946
31.03 31.2542 12.0727
3 41 21 1 0.019140216273069277 0.25609688412179277 0.573466611068747
3 41 23 22 0.019140216273069277 0.25609688412179277 0.573466611068747
3 22 21 41 0.019140216273069277 0.25609688412179277 0.573466611068747
3 2 1 21 0.019140216273069277 0.25609688412179277 0.573466611068747
3 40 23 41 0.019140216273069277 0.25609688412179277 0.573466611068747
3 7 19 18 0.019140216273069277 0.25609688412179277 0.573466611068747
3 20 2 21 0.019140216273069277 0.25609688412179277 0.573466611068747
3 39 25 24 0.019140216273069277 0.25609688412179277 0.573466611068747
3 23 40 24 0.019140216273069277 0.25609688412179277 0.573466611068747
3 24 40 39 0.019140216273069277 0.25609688412179277 0.573466611068747
3 38 25 39 0.019140216273069277 0.25609688412179277 0.573466611068747
3 8 7 18 0.019140216273069277 0.25609688412179277 0.573466611068747
3 18 17 8 0.019140216273069277 0.25609688412179277 0.573466611068747
3 8 17 9 0.019140216273069277 0.25609688412179277 0.573466611068747
3 19 7 6 0.019140216273069277 0.25609688412179277 0.573466611068747
3 6 20 19 0.019140216273069277 0.25609688412179277 0.573466611068747
3 34 33 30 0.019140216273069277 0.25609688412179277 0.573466611068747
3 2 20 3 0.019140216273069277 0.25609688412179277 0.573466611068747
3 3 6 4 0.019140216273069277 0.25609688412179277 0.573466611068747
3 20 6 3 0.019140216273069277 0.25609688412179277 0.573466611068747
3 25 38 26 0.019140216273069277 0.25609688412179277 0.573466611068747
3 15 11 16 0.019140216273069277 0.25609688412179277 0.573466611068747
3 16 11 10 0.019140216273069277 0.25609688412179277 0.573466611068747
3 9 17 10 0.019140216273069277 0.25609688412179277 0.573466611068747
3 10 17 16 0.019140216273069277 0.25609688412179277 0.573466611068747
3 29 35 34 0.019140216273069277 0.25609688412179277 0.573466611068747
3 34 30 29 0.019140216273069277 0.25609688412179277 0.573466611068747
3 31 33 32 0.019140216273069277 0.25609688412179277 0.573466611068747
3 31 30 33 0.019140216273069277 0.25609688412179277 0.573466611068747
3 37 26 38 0.019140216273069277 0.25609688412179277 0.573466611068747
3 36 27 37 0.019140216273069277 0.25609688412179277 0.573466611068747
3 27 26 37 0.019140216273069277 0.25609688412179277 0.573466611068747
3 12 15 13 0.019140216273069277 0.25609688412179277 0.573466611068747
3 11 15 12 0.019140216273069277 0.25609688412179277 0.573466611068747
3 35 29 28 0.019140216273069277 0.25609688412179277 0.573466611068747
3 28 27 36 0.019140216273069277 0.25609688412179277 0.573466611068747
3 36 35 28 0.019140216273069277 0.25609688412179277 0.573466611068747
