OFF
50 43 0


27.2004 35.4766 5.169
27.2004 35.4766 5.169
27.2036 35.474 5.3079
27.2062 35.4717 5.4207
27.2085 35.4694 5.5174
27.2105 35.4672 5.6046
27.2125 35.465 5.6866
27.2144 35.4626 5.767
27.2164 35.46 5.8491
27.2185 35.457 5.9363
27.2209 35.4533 6.0331
27.2237 35.4486 6.1458
27.2273 35.4421 6.2843
27.2273 35.4421 6.2843
27.2337 35.3849 6.3476
27.2401 35.3277 6.411
27.2466 35.2705 6.4743
27.253 35.2133 6.5376
27.2595 35.1561 6.601
27.2659 35.0989 6.6643
27.2724 35.0417 6.7276
27.2788 34.9845 6.791
27.2852 34.9273 6.8543
27.2917 34.8701 6.9176
27.2981 34.8129 6.981
27.3046 34.7557 7.0443
27.3046 34.7557 7.0443
27.3013 34.7551 6.8913
27.2986 34.7575 6.774
27.2962 34.7612 6.6762
27.294 34.7657 6.5896
27.2918 34.7708 6.5088
27.2896 34.7765 6.4296
27.2873 34.7832 6.3486
27.2847 34.7911 6.2616
27.2817 34.801 6.1636
27.2781 34.8138 6.0466
27.2733 34.8319 5.8969
27.267 34.8838 5.821
27.2608 34.936 5.7453
27.2608 34.936 5.7453
27.2541 34.996 5.6813
27.2474 35.0561 5.6173
27.2406 35.1162 5.5532
27.2339 35.1762 5.4892
27.2272 35.2363 5.4251
27.2205 35.2964 5.3611
27.2138 35.3565 5.2971
27.2071 35.4165 5.233
27.2004 35.4766 5.169
3 11 10 36 0.3749995372273113 0.2882780872242172 0.03849739835023214
3 38 37 36 0.3749995372273113 0.2882780872242172 0.03849739835023214
3 36 10 38 0.3749995372273113 0.2882780872242172 0.03849739835023214
3 35 11 36 0.3749995372273113 0.2882780872242172 0.03849739835023214
3 35 34 16 0.3749995372273113 0.2882780872242172 0.03849739835023214
3 15 35 16 0.3749995372273113 0.2882780872242172 0.03849739835023214
3 16 34 17 0.3749995372273113 0.2882780872242172 0.03849739835023214
3 27 26 24 0.3749995372273113 0.2882780872242172 0.03849739835023214
3 24 23 27 0.3749995372273113 0.2882780872242172 0.03849739835023214
3 27 23 28 0.3749995372273113 0.2882780872242172 0.03849739835023214
3 29 28 21 0.3749995372273113 0.2882780872242172 0.03849739835023214
3 6 43 7 0.3749995372273113 0.2882780872242172 0.03849739835023214
3 9 38 10 0.3749995372273113 0.2882780872242172 0.03849739835023214
3 41 9 8 0.3749995372273113 0.2882780872242172 0.03849739835023214
3 12 11 14 0.3749995372273113 0.2882780872242172 0.03849739835023214
3 11 35 14 0.3749995372273113 0.2882780872242172 0.03849739835023214
3 35 15 14 0.3749995372273113 0.2882780872242172 0.03849739835023214
3 18 32 31 0.3749995372273113 0.2882780872242172 0.03849739835023214
3 33 17 34 0.3749995372273113 0.2882780872242172 0.03849739835023214
3 33 32 18 0.3749995372273113 0.2882780872242172 0.03849739835023214
3 18 17 33 0.3749995372273113 0.2882780872242172 0.03849739835023214
3 18 31 19 0.3749995372273113 0.2882780872242172 0.03849739835023214
3 19 31 30 0.3749995372273113 0.2882780872242172 0.03849739835023214
3 20 30 29 0.3749995372273113 0.2882780872242172 0.03849739835023214
3 29 21 20 0.3749995372273113 0.2882780872242172 0.03849739835023214
3 20 19 30 0.3749995372273113 0.2882780872242172 0.03849739835023214
3 22 28 23 0.3749995372273113 0.2882780872242172 0.03849739835023214
3 22 21 28 0.3749995372273113 0.2882780872242172 0.03849739835023214
3 46 3 47 0.3749995372273113 0.2882780872242172 0.03849739835023214
3 44 43 6 0.3749995372273113 0.2882780872242172 0.03849739835023214
3 4 3 46 0.3749995372273113 0.2882780872242172 0.03849739835023214
3 46 45 4 0.3749995372273113 0.2882780872242172 0.03849739835023214
3 38 9 40 0.3749995372273113 0.2882780872242172 0.03849739835023214
3 9 41 40 0.3749995372273113 0.2882780872242172 0.03849739835023214
3 8 7 42 0.3749995372273113 0.2882780872242172 0.03849739835023214
3 42 41 8 0.3749995372273113 0.2882780872242172 0.03849739835023214
3 42 7 43 0.3749995372273113 0.2882780872242172 0.03849739835023214
3 2 47 3 0.3749995372273113 0.2882780872242172 0.03849739835023214
3 45 44 5 0.3749995372273113 0.2882780872242172 0.03849739835023214
3 5 4 45 0.3749995372273113 0.2882780872242172 0.03849739835023214
3 5 44 6 0.3749995372273113 0.2882780872242172 0.03849739835023214
3 48 2 0 0.3749995372273113 0.2882780872242172 0.03849739835023214
3 47 2 48 0.3749995372273113 0.2882780872242172 0.03849739835023214
