OFF
44 38 0


27.2273 35.4421 6.2843
27.2273 35.4421 6.2843
27.2337 35.3849 6.3476
27.2401 35.3277 6.411
27.2466 35.2705 6.4743
27.253 35.2133 6.5376
27.2595 35.1561 6.601
27.2659 35.0989 6.6643
27.2724 35.0417 6.7276
27.2788 34.9845 6.791
27.2852 34.9273 6.8543
27.2917 34.8701 6.9176
27.2981 34.8129 6.981
27.3046 34.7557 7.0443
27.3046 34.7557 7.0443
27.292 34.6897 7.1478
27.2824 34.6423 7.2232
27.2685 34.5775 7.3273
27.201 34.6708 7.3113
27.1379 34.7624 7.2905
27.0797 34.8527 7.2642
27.0265 34.9416 7.2316
26.9789 35.0291 7.1926
26.9371 35.1145 7.1473
26.901 35.1974 7.0964
26.8702 35.2777 7.0408
26.844 35.3553 6.9816
26.8216 35.4304 6.9196
26.8024 35.5036 6.8554
26.7856 35.5755 6.789
26.7708 35.6469 6.7204
26.7574 35.7186 6.6492
26.7452 35.7914 6.5747
26.7337 35.8664 6.4962
26.7229 35.9448 6.4125
26.7125 36.0279 6.3221
26.7125 36.0279 6.3221
26.8076 35.9229 6.3109
26.8804 35.8417 6.3035
26.9428 35.7714 6.2981
27.002 35.704 6.2938
27.0638 35.633 6.29
27.1351 35.5503 6.2868
27.2273 35.4421 6.2843
3 6 26 7 0.4381467204564259 0.7785016955542933 0.7108690813350369
3 21 12 11 0.4381467204564259 0.7785016955542933 0.7108690813350369
3 27 26 6 0.4381467204564259 0.7785016955542933 0.7108690813350369
3 4 3 29 0.4381467204564259 0.7785016955542933 0.7108690813350369
3 29 28 4 0.4381467204564259 0.7785016955542933 0.7108690813350369
3 15 13 19 0.4381467204564259 0.7785016955542933 0.7108690813350369
3 19 13 20 0.4381467204564259 0.7785016955542933 0.7108690813350369
3 20 12 21 0.4381467204564259 0.7785016955542933 0.7108690813350369
3 20 13 12 0.4381467204564259 0.7785016955542933 0.7108690813350369
3 24 23 9 0.4381467204564259 0.7785016955542933 0.7108690813350369
3 9 23 10 0.4381467204564259 0.7785016955542933 0.7108690813350369
3 34 37 35 0.4381467204564259 0.7785016955542933 0.7108690813350369
3 32 39 38 0.4381467204564259 0.7785016955542933 0.7108690813350369
3 40 39 32 0.4381467204564259 0.7785016955542933 0.7108690813350369
3 32 31 40 0.4381467204564259 0.7785016955542933 0.7108690813350369
3 28 27 5 0.4381467204564259 0.7785016955542933 0.7108690813350369
3 5 4 28 0.4381467204564259 0.7785016955542933 0.7108690813350369
3 5 27 6 0.4381467204564259 0.7785016955542933 0.7108690813350369
3 18 15 19 0.4381467204564259 0.7785016955542933 0.7108690813350369
3 8 24 9 0.4381467204564259 0.7785016955542933 0.7108690813350369
3 25 7 26 0.4381467204564259 0.7785016955542933 0.7108690813350369
3 25 8 7 0.4381467204564259 0.7785016955542933 0.7108690813350369
3 24 8 25 0.4381467204564259 0.7785016955542933 0.7108690813350369
3 22 10 23 0.4381467204564259 0.7785016955542933 0.7108690813350369
3 21 11 22 0.4381467204564259 0.7785016955542933 0.7108690813350369
3 11 10 22 0.4381467204564259 0.7785016955542933 0.7108690813350369
3 32 38 33 0.4381467204564259 0.7785016955542933 0.7108690813350369
3 37 34 33 0.4381467204564259 0.7785016955542933 0.7108690813350369
3 33 38 37 0.4381467204564259 0.7785016955542933 0.7108690813350369
3 41 40 31 0.4381467204564259 0.7785016955542933 0.7108690813350369
3 16 18 17 0.4381467204564259 0.7785016955542933 0.7108690813350369
3 15 18 16 0.4381467204564259 0.7785016955542933 0.7108690813350369
3 30 41 31 0.4381467204564259 0.7785016955542933 0.7108690813350369
3 29 3 42 0.4381467204564259 0.7785016955542933 0.7108690813350369
3 42 30 29 0.4381467204564259 0.7785016955542933 0.7108690813350369
3 41 30 42 0.4381467204564259 0.7785016955542933 0.7108690813350369
3 3 2 42 0.4381467204564259 0.7785016955542933 0.7108690813350369
3 42 2 0 0.4381467204564259 0.7785016955542933 0.7108690813350369
