OFF
14 12 0


27.2608 34.936 5.7453
27.2608 34.936 5.7453
27.2835 34.8886 5.7754
27.2733 34.8319 5.8969
27.267 34.8838 5.821
27.2608 34.936 5.7453
27.3065 34.8412 5.8053
27.2899 34.8364 5.8511
27.2733 34.8319 5.8969
27.2667 34.9104 5.7759
27.2729 34.8582 5.852
27.2667 34.9104 5.7759
27.2896 34.8632 5.8055
27.2725 34.8854 5.8058
3 9 2 0 0.9215669502827563 0.9891870342577461 0.7329564580128811
3 13 2 9 0.9215669502827563 0.9891870342577461 0.7329564580128811
3 0 4 9 0.9215669502827563 0.9891870342577461 0.7329564580128811
3 9 4 13 0.9215669502827563 0.9891870342577461 0.7329564580128811
3 6 2 12 0.9215669502827563 0.9891870342577461 0.7329564580128811
3 12 2 13 0.9215669502827563 0.9891870342577461 0.7329564580128811
3 13 4 12 0.9215669502827563 0.9891870342577461 0.7329564580128811
3 10 4 3 0.9215669502827563 0.9891870342577461 0.7329564580128811
3 10 12 4 0.9215669502827563 0.9891870342577461 0.7329564580128811
3 6 12 7 0.9215669502827563 0.9891870342577461 0.7329564580128811
3 12 10 7 0.9215669502827563 0.9891870342577461 0.7329564580128811
3 7 10 3 0.9215669502827563 0.9891870342577461 0.7329564580128811
