OFF
53 72 0


28.3352 32.019 12.1603
28.3352 32.019 12.1603
28.395 31.9455 12.1587
28.3352 32.019 12.1603
28.3352 32.019 12.1603
28.2426 32.1125 12.1351
28.176 32.1807 12.1172
28.116 32.2427 12.1011
28.05 32.3115 12.0835
27.9592 32.4072 12.0594
27.9592 32.4072 12.0594
27.9592 32.325 11.954
27.9594 32.266 11.8776
27.9597 32.213 11.8082
27.9602 32.1546 11.7312
27.9612 32.0745 11.6243
27.9612 32.0745 11.6243
28.0526 32.0397 11.7304
28.1194 32.0136 11.8059
28.176 31.9909 11.8684
28.2299 31.9689 11.9267
28.2874 31.9449 11.9875
28.3568 31.9153 12.0589
28.313 31.9981 12.0981
28.2714 32.0488 12.0983
28.2078 32.1125 12.08
28.1228 32.1987 12.0555
28.0214 32.303 12.0266
28.0212 32.2123 11.9086
28.0215 32.1399 11.8133
28.0809 32.0645 11.8108
28.1629 32.031 11.9006
28.2388 31.9987 11.9807
28.1628 32.158 12.067
28.1498 32.1353 12.0167
28.0796 32.243 12.0432
28.1085 32.1768 12.0041
28.0212 32.2504 11.9583
28.0803 32.1798 11.9623
28.0213 32.1779 11.8634
28.0802 32.1445 11.9159
28.0219 32.0877 11.7441
28.0803 32.1003 11.8576
28.125 32.0466 11.8595
28.1309 32.0796 11.9129
28.1995 32.0156 11.9395
28.1685 32.0635 11.9527
28.2867 31.9777 12.0296
28.2136 32.0432 11.9988
28.2714 32.0488 12.0983
28.2054 32.0799 12.0338
28.1369 32.1126 11.9661
28.1369 32.1126 11.9661
3 37 11 12 0.3140281754370302 0.6832368430021827 0.3254882362008118
3 23 22 2 0.3140281754370302 0.6832368430021827 0.3254882362008118
3 2 1 23 0.3140281754370302 0.6832368430021827 0.3254882362008118
3 45 19 20 0.3140281754370302 0.6832368430021827 0.3254882362008118
3 31 19 45 0.3140281754370302 0.6832368430021827 0.3254882362008118
3 9 11 27 0.3140281754370302 0.6832368430021827 0.3254882362008118
3 11 37 27 0.3140281754370302 0.6832368430021827 0.3254882362008118
3 30 17 18 0.3140281754370302 0.6832368430021827 0.3254882362008118
3 47 21 22 0.3140281754370302 0.6832368430021827 0.3254882362008118
3 22 23 47 0.3140281754370302 0.6832368430021827 0.3254882362008118
3 24 47 23 0.3140281754370302 0.6832368430021827 0.3254882362008118
3 1 5 24 0.3140281754370302 0.6832368430021827 0.3254882362008118
3 24 23 1 0.3140281754370302 0.6832368430021827 0.3254882362008118
3 46 50 51 0.3140281754370302 0.6832368430021827 0.3254882362008118
3 51 44 46 0.3140281754370302 0.6832368430021827 0.3254882362008118
3 46 44 31 0.3140281754370302 0.6832368430021827 0.3254882362008118
3 31 45 46 0.3140281754370302 0.6832368430021827 0.3254882362008118
3 50 24 25 0.3140281754370302 0.6832368430021827 0.3254882362008118
3 25 24 5 0.3140281754370302 0.6832368430021827 0.3254882362008118
3 25 5 6 0.3140281754370302 0.6832368430021827 0.3254882362008118
3 6 33 25 0.3140281754370302 0.6832368430021827 0.3254882362008118
3 36 38 51 0.3140281754370302 0.6832368430021827 0.3254882362008118
3 28 37 12 0.3140281754370302 0.6832368430021827 0.3254882362008118
3 12 39 28 0.3140281754370302 0.6832368430021827 0.3254882362008118
3 28 38 37 0.3140281754370302 0.6832368430021827 0.3254882362008118
3 13 14 29 0.3140281754370302 0.6832368430021827 0.3254882362008118
3 29 39 13 0.3140281754370302 0.6832368430021827 0.3254882362008118
3 13 39 12 0.3140281754370302 0.6832368430021827 0.3254882362008118
3 40 44 51 0.3140281754370302 0.6832368430021827 0.3254882362008118
3 51 38 40 0.3140281754370302 0.6832368430021827 0.3254882362008118
3 38 28 40 0.3140281754370302 0.6832368430021827 0.3254882362008118
3 40 28 39 0.3140281754370302 0.6832368430021827 0.3254882362008118
3 9 27 8 0.3140281754370302 0.6832368430021827 0.3254882362008118
3 41 30 29 0.3140281754370302 0.6832368430021827 0.3254882362008118
3 17 30 41 0.3140281754370302 0.6832368430021827 0.3254882362008118
3 29 14 41 0.3140281754370302 0.6832368430021827 0.3254882362008118
3 41 14 15 0.3140281754370302 0.6832368430021827 0.3254882362008118
3 15 17 41 0.3140281754370302 0.6832368430021827 0.3254882362008118
3 31 44 43 0.3140281754370302 0.6832368430021827 0.3254882362008118
3 43 30 18 0.3140281754370302 0.6832368430021827 0.3254882362008118
3 18 19 43 0.3140281754370302 0.6832368430021827 0.3254882362008118
3 43 19 31 0.3140281754370302 0.6832368430021827 0.3254882362008118
3 50 46 48 0.3140281754370302 0.6832368430021827 0.3254882362008118
3 48 46 45 0.3140281754370302 0.6832368430021827 0.3254882362008118
3 48 24 50 0.3140281754370302 0.6832368430021827 0.3254882362008118
3 47 24 48 0.3140281754370302 0.6832368430021827 0.3254882362008118
3 34 36 51 0.3140281754370302 0.6832368430021827 0.3254882362008118
3 51 50 34 0.3140281754370302 0.6832368430021827 0.3254882362008118
3 50 25 34 0.3140281754370302 0.6832368430021827 0.3254882362008118
3 34 25 33 0.3140281754370302 0.6832368430021827 0.3254882362008118
3 6 7 26 0.3140281754370302 0.6832368430021827 0.3254882362008118
3 26 33 6 0.3140281754370302 0.6832368430021827 0.3254882362008118
3 26 34 33 0.3140281754370302 0.6832368430021827 0.3254882362008118
3 36 34 26 0.3140281754370302 0.6832368430021827 0.3254882362008118
3 44 40 42 0.3140281754370302 0.6832368430021827 0.3254882362008118
3 42 43 44 0.3140281754370302 0.6832368430021827 0.3254882362008118
3 30 43 42 0.3140281754370302 0.6832368430021827 0.3254882362008118
3 29 30 42 0.3140281754370302 0.6832368430021827 0.3254882362008118
3 42 39 29 0.3140281754370302 0.6832368430021827 0.3254882362008118
3 42 40 39 0.3140281754370302 0.6832368430021827 0.3254882362008118
3 47 48 32 0.3140281754370302 0.6832368430021827 0.3254882362008118
3 20 21 32 0.3140281754370302 0.6832368430021827 0.3254882362008118
3 21 47 32 0.3140281754370302 0.6832368430021827 0.3254882362008118
3 32 45 20 0.3140281754370302 0.6832368430021827 0.3254882362008118
3 32 48 45 0.3140281754370302 0.6832368430021827 0.3254882362008118
3 36 26 35 0.3140281754370302 0.6832368430021827 0.3254882362008118
3 37 38 35 0.3140281754370302 0.6832368430021827 0.3254882362008118
3 38 36 35 0.3140281754370302 0.6832368430021827 0.3254882362008118
3 35 27 37 0.3140281754370302 0.6832368430021827 0.3254882362008118
3 35 26 7 0.3140281754370302 0.6832368430021827 0.3254882362008118
3 7 8 35 0.3140281754370302 0.6832368430021827 0.3254882362008118
3 35 8 27 0.3140281754370302 0.6832368430021827 0.3254882362008118
