OFF
400 719 0


28.0632 28.588 9.3584
28.0632 28.588 9.3584
28.0917 28.5252 9.243
28.1123 28.4805 9.161
28.1331 28.4357 9.0792
28.1629 28.3726 8.9643
28.1629 28.3726 8.9643
28.0332 28.3326 9.0202
27.9203 28.2968 9.0688
27.8197 28.2641 9.1119
27.7283 28.2337 9.1511
27.6437 28.205 9.1872
27.5639 28.1776 9.2213
27.4874 28.1508 9.2538
27.4128 28.1243 9.2855
27.3389 28.0977 9.3169
27.2645 28.0705 9.3484
27.1885 28.0424 9.3805
27.1094 28.0128 9.4139
27.0257 27.981 9.4492
26.9356 27.9464 9.4872
26.8366 27.9078 9.5288
26.7255 27.864 9.5754
26.5979 27.8129 9.6288
26.5979 27.8129 9.6288
26.6059 27.8973 9.7451
26.6123 27.9634 9.8368
26.6179 28.0192 9.9147
26.6229 28.0693 9.9848
26.6277 28.1167 10.0515
26.6327 28.1639 10.1183
26.6379 28.2134 10.1887
26.6438 28.2682 10.2672
26.6509 28.3326 10.3601
26.6601 28.4141 10.4785
26.7033 28.4894 10.5516
26.7452 28.5641 10.6261
26.7452 28.5641 10.6261
26.8472 28.581 10.5425
26.9388 28.5948 10.4661
27.0224 28.606 10.3951
27.0996 28.6152 10.3283
27.172 28.6226 10.2646
27.2407 28.6286 10.203
27.3067 28.6332 10.1429
27.3707 28.6365 10.0834
27.4336 28.6387 10.024
27.4959 28.6397 9.9638
27.5585 28.6395 9.9024
27.6219 28.638 9.8388
27.6868 28.635 9.7724
27.7539 28.6304 9.7022
27.8241 28.6238 9.6271
27.8983 28.6149 9.5459
27.9775 28.6032 9.457
28.0632 28.588 9.3584
26.6976 28.1402 10.0146
26.7651 28.1629 9.9791
26.8305 28.1849 9.9449
28.0356 28.4677 9.21
27.9601 28.4551 9.2587
27.8856 28.4424 9.3072
27.8118 28.4298 9.3557
27.5373 28.1934 9.2684
27.5113 28.2089 9.3147
27.4858 28.2242 9.3604
27.4608 28.2392 9.4055
27.401 28.1456 9.327
27.3895 28.1664 9.3678
27.3783 28.1869 9.4079
27.3673 28.207 9.4473
27.2676 28.0976 9.3844
27.2706 28.124 9.4196
27.2736 28.1499 9.4542
27.2765 28.1752 9.488
27.1285 28.0464 9.4441
27.1472 28.0792 9.4734
27.1654 28.111 9.502
27.1831 28.142 9.5299
26.6905 28.0539 9.8918
26.7604 28.0871 9.8699
26.8277 28.119 9.8489
26.8927 28.1497 9.8289
26.7052 28.2265 10.1382
26.7705 28.2392 10.0894
26.834 28.2515 10.0422
26.8959 28.2634 9.9964
27.3055 28.6086 10.1061
27.3043 28.5836 10.0689
27.3032 28.5583 10.0312
27.3022 28.5326 9.993
27.4221 28.6141 9.9977
27.4104 28.589 9.9711
27.3986 28.5635 9.944
27.3866 28.5375 9.9165
27.6858 28.244 9.2043
27.6441 28.2541 9.2568
27.6032 28.264 9.3086
27.563 28.2738 9.3598
27.5235 28.2834 9.4104
26.9737 27.9882 9.5104
27.0106 28.0285 9.5329
27.0463 28.0675 9.5546
27.0809 28.1051 9.5757
27.1145 28.1416 9.5962
26.7885 27.9168 9.5897
26.8487 27.9672 9.6034
26.9063 28.0153 9.6166
26.9617 28.0615 9.6293
27.0148 28.1057 9.6416
26.6867 28.0046 9.8222
26.7579 28.0441 9.8082
26.8264 28.0818 9.795
26.8922 28.1181 9.7823
26.9558 28.153 9.7702
26.7153 28.3334 10.2927
26.778 28.3342 10.2276
26.8392 28.3349 10.1644
26.8992 28.3356 10.103
26.9581 28.3362 10.0431
26.9705 28.5714 10.3953
27.0021 28.5483 10.3254
27.0338 28.5253 10.2562
27.0655 28.5023 10.1875
27.0974 28.4794 10.1192
27.1162 28.591 10.2731
27.1329 28.5668 10.218
27.1498 28.5425 10.1627
27.167 28.518 10.1074
27.1845 28.4933 10.0518
27.245 28.6041 10.1605
27.2494 28.5793 10.1177
27.254 28.5542 10.0745
27.2587 28.5288 10.0308
27.2636 28.503 9.9867
27.537 28.6151 9.8863
27.5151 28.5901 9.87
27.4928 28.5647 9.8534
27.4701 28.5387 9.8365
27.4469 28.5121 9.8193
27.6548 28.6109 9.7669
27.6222 28.5864 9.7613
27.589 28.5614 9.7557
27.5552 28.5358 9.75
27.5208 28.5097 9.7442
27.7802 28.6004 9.6333
27.7357 28.5767 9.6397
27.6906 28.5525 9.6463
27.6447 28.5278 9.6531
27.598 28.5027 9.6601
28.0189 28.5087 9.2835
27.9469 28.4923 9.324
27.8753 28.4759 9.3646
27.8041 28.4594 9.4054
27.7329 28.4428 9.4466
27.6617 28.4261 9.4882
28.0758 28.3697 9.0355
27.9914 28.3667 9.1051
27.9094 28.3638 9.1734
27.8294 28.3608 9.2408
27.7509 28.3578 9.3076
27.6738 28.3548 9.3738
27.8587 28.3011 9.1296
27.7985 28.3052 9.1894
27.7396 28.3093 9.2484
27.6819 28.3132 9.3067
27.6251 28.317 9.3645
27.5691 28.3208 9.4219
26.6823 27.9466 9.7404
26.7552 27.9936 9.736
26.825 28.0384 9.732
26.8919 28.0813 9.7282
26.9561 28.1224 9.7246
27.0179 28.1619 9.7213
26.7605 28.4748 10.4665
26.8164 28.4605 10.384
26.8713 28.4464 10.3036
26.9255 28.4326 10.2252
26.979 28.419 10.1485
27.0321 28.4055 10.073
26.8882 28.5584 10.4622
26.9288 28.536 10.3835
26.9692 28.514 10.3062
27.0094 28.4921 10.2299
27.0496 28.4703 10.1545
27.0899 28.4486 10.0797
27.919 28.581 9.4775
27.8601 28.5585 9.4983
27.8008 28.5358 9.5194
27.7411 28.5128 9.5409
27.6806 28.4894 9.5629
27.6195 28.4657 9.5854
27.96 28.3335 9.0857
27.8887 28.3343 9.15
27.8191 28.335 9.2133
27.751 28.3357 9.2758
27.6841 28.3363 9.3378
27.6182 28.3368 9.3993
27.5531 28.3373 9.4607
27.4683 28.1693 9.2981
27.4496 28.1875 9.3416
27.4313 28.2053 9.3845
27.4134 28.2229 9.4267
27.3958 28.2402 9.4683
27.3786 28.2572 9.5094
27.3617 28.2739 9.5499
27.1993 28.0726 9.4137
27.2099 28.1021 9.4461
27.2203 28.1308 9.4777
27.2305 28.1589 9.5086
27.2405 28.1863 9.5388
27.2503 28.2131 9.5684
27.2599 28.2393 9.5974
26.8862 27.9546 9.5479
26.9339 27.9996 9.5663
26.9798 28.0428 9.5841
27.0241 28.0844 9.6013
27.0669 28.1245 9.6179
27.1083 28.1632 9.634
27.1483 28.2006 9.6496
26.7012 28.1823 10.0747
26.7676 28.2 10.0327
26.8321 28.2172 9.9921
26.8949 28.2339 9.9529
26.956 28.25 9.9149
27.0157 28.2657 9.8781
27.0741 28.281 9.8423
27.6094 28.2181 9.2373
27.5757 28.231 9.2866
27.5428 28.2436 9.3353
27.5104 28.2561 9.3833
27.4786 28.2683 9.4308
27.4473 28.2804 9.4778
27.4164 28.2923 9.5244
27.386 28.3041 9.5706
26.7227 28.4067 10.3996
26.7837 28.3996 10.3232
26.8435 28.3926 10.2491
26.9022 28.3857 10.1769
26.9599 28.3788 10.1065
27.0169 28.3721 10.0375
27.0734 28.3654 9.9698
27.1295 28.3587 9.9032
27.1822 28.5983 10.216
27.1925 28.5737 10.1672
27.203 28.5489 10.1182
27.2138 28.5239 10.0688
27.2248 28.4986 10.0191
27.236 28.473 9.9688
27.2475 28.447 9.918
27.2594 28.4207 9.8666
27.4794 28.6152 9.9427
27.4627 28.5901 9.9212
27.4457 28.5646 9.8994
27.4283 28.5386 9.8771
27.4107 28.512 9.8544
27.3927 28.4848 9.8313
27.3743 28.4569 9.8077
27.3555 28.4285 9.7835
27.7162 28.6066 9.7023
27.6779 28.5824 9.7025
27.6389 28.5577 9.7028
27.5993 28.5326 9.7031
27.5588 28.5068 9.7035
27.5176 28.4805 9.704
27.4755 28.4536 9.7046
27.4324 28.426 9.7052
27.9956 28.5666 9.3877
27.9281 28.5451 9.4171
27.8605 28.5235 9.447
27.7927 28.5017 9.4772
27.7246 28.4797 9.5079
27.6558 28.4573 9.5392
27.5863 28.4346 9.5712
27.5159 28.4115 9.6039
28.0523 28.4269 9.1371
27.9732 28.4181 9.1943
27.8957 28.4094 9.2509
27.8193 28.4008 9.3072
27.7439 28.3921 9.3633
27.6692 28.3835 9.4195
27.5948 28.3747 9.4759
27.5207 28.3659 9.5327
27.4465 28.357 9.5902
27.7682 28.2715 9.1687
27.7177 28.2787 9.2247
27.6683 28.2858 9.2799
27.6197 28.2927 9.3344
27.572 28.2995 9.3885
27.5249 28.3062 9.4421
27.4785 28.3129 9.4955
27.4325 28.3194 9.5486
27.387 28.3259 9.6016
27.0539 28.0185 9.4761
27.0812 28.0548 9.5022
27.1077 28.09 9.5275
27.1336 28.1242 9.5521
27.1587 28.1574 9.5761
27.1831 28.1897 9.5994
27.207 28.221 9.6221
27.2302 28.2516 9.6443
27.2529 28.2814 9.6659
26.6941 28.0981 9.9546
26.7627 28.1259 9.9257
26.8291 28.1526 9.898
26.8933 28.1785 9.8713
26.9556 28.2034 9.8455
27.0161 28.2276 9.8207
27.075 28.2511 9.7967
27.1324 28.2738 9.7734
27.1884 28.296 9.7509
26.7973 28.5424 10.5347
26.8484 28.5212 10.4458
26.8987 28.5004 10.3592
26.9485 28.4799 10.2745
26.998 28.4596 10.1913
27.0472 28.4394 10.1094
27.0965 28.4194 10.0283
27.1459 28.3994 9.9479
27.1957 28.3793 9.8679
27.046 28.5822 10.3326
27.0698 28.5584 10.2704
27.0937 28.5347 10.2085
27.1178 28.5109 10.1468
27.1422 28.487 10.085
27.1669 28.4629 10.0232
27.1919 28.4386 9.9611
27.2174 28.4142 9.8986
27.2433 28.3894 9.8356
27.5952 28.6137 9.828
27.5681 28.5889 9.8169
27.5405 28.5637 9.8057
27.5123 28.5378 9.7943
27.4835 28.5114 9.7827
27.4542 28.4844 9.7708
27.4242 28.4567 9.7588
27.3935 28.4284 9.7464
27.362 28.3993 9.7338
27.3344 28.1218 9.3557
27.3301 28.1454 9.3937
27.326 28.1685 9.431
27.3219 28.1911 9.4676
27.318 28.2134 9.5036
27.3142 28.2352 9.539
27.3105 28.2566 9.5738
27.3069 28.2776 9.608
27.3034 28.2983 9.6417
27.3001 28.3187 9.675
26.677 27.873 9.6373
26.7522 27.93 9.6454
26.8236 27.9841 9.6532
26.8918 28.0355 9.6608
26.9569 28.0846 9.6681
27.0192 28.1314 9.6751
27.079 28.1763 9.682
27.1365 28.2193 9.6887
27.1918 28.2606 9.6952
27.2452 28.3004 9.7015
26.7097 28.2756 10.2089
26.7738 28.2827 10.1526
26.8363 28.2897 10.098
26.8973 28.2964 10.0451
26.9571 28.3029 9.9936
27.0158 28.3092 9.9434
27.0734 28.3154 9.8944
27.1302 28.3214 9.8464
27.1863 28.3273 9.7994
27.2418 28.333 9.7532
27.3643 28.6119 10.052
27.3578 28.5869 10.0202
27.3513 28.5614 9.9878
27.3447 28.5355 9.955
27.3381 28.5091 9.9216
27.3314 28.4822 9.8877
27.3247 28.4547 9.8531
27.3178 28.4267 9.8179
27.3109 28.398 9.7819
27.3039 28.3687 9.7452
27.8475 28.592 9.5588
27.7962 28.5688 9.572
27.7444 28.5453 9.5855
27.6918 28.5213 9.5993
27.6385 28.497 9.6134
27.5844 28.4721 9.628
27.5293 28.4467 9.643
27.4731 28.4207 9.6584
27.4157 28.3941 9.6743
27.357 28.3668 9.6907
27.9956 28.5666 9.3877
27.9281 28.5451 9.4171
27.8605 28.5235 9.447
27.7927 28.5017 9.4772
27.7246 28.4797 9.5079
27.6558 28.4573 9.5392
27.5863 28.4346 9.5712
27.5159 28.4115 9.6039
27.4443 28.3878 9.6375
27.3714 28.3636 9.6721
27.2968 28.3387 9.7077
27.2968 28.3387 9.7077
3 22 348 23 0.4894831574422054 0.0177718302645834 0.6646272614801982
3 83 358 31 0.4894831574422054 0.0177718302645834 0.6646272614801982
3 174 35 34 0.4894831574422054 0.0177718302645834 0.6646272614801982
3 348 22 349 0.4894831574422054 0.0177718302645834 0.6646272614801982
3 347 387 398 0.4894831574422054 0.0177718302645834 0.6646272614801982
3 356 310 309 0.4894831574422054 0.0177718302645834 0.6646272614801982
3 305 58 304 0.4894831574422054 0.0177718302645834 0.6646272614801982
3 3 2 59 0.4894831574422054 0.0177718302645834 0.6646272614801982
3 94 255 254 0.4894831574422054 0.0177718302645834 0.6646272614801982
3 50 259 51 0.4894831574422054 0.0177718302645834 0.6646272614801982
3 30 83 31 0.4894831574422054 0.0177718302645834 0.6646272614801982
3 115 116 236 0.4894831574422054 0.0177718302645834 0.6646272614801982
3 358 116 115 0.4894831574422054 0.0177718302645834 0.6646272614801982
3 235 174 34 0.4894831574422054 0.0177718302645834 0.6646272614801982
3 34 33 235 0.4894831574422054 0.0177718302645834 0.6646272614801982
3 235 115 236 0.4894831574422054 0.0177718302645834 0.6646272614801982
3 33 115 235 0.4894831574422054 0.0177718302645834 0.6646272614801982
3 312 174 175 0.4894831574422054 0.0177718302645834 0.6646272614801982
3 175 313 312 0.4894831574422054 0.0177718302645834 0.6646272614801982
3 175 235 236 0.4894831574422054 0.0177718302645834 0.6646272614801982
3 174 235 175 0.4894831574422054 0.0177718302645834 0.6646272614801982
3 35 174 311 0.4894831574422054 0.0177718302645834 0.6646272614801982
3 311 38 36 0.4894831574422054 0.0177718302645834 0.6646272614801982
3 36 35 311 0.4894831574422054 0.0177718302645834 0.6646272614801982
3 312 38 311 0.4894831574422054 0.0177718302645834 0.6646272614801982
3 311 174 312 0.4894831574422054 0.0177718302645834 0.6646272614801982
3 176 175 236 0.4894831574422054 0.0177718302645834 0.6646272614801982
3 313 175 176 0.4894831574422054 0.0177718302645834 0.6646272614801982
3 350 349 105 0.4894831574422054 0.0177718302645834 0.6646272614801982
3 105 349 22 0.4894831574422054 0.0177718302645834 0.6646272614801982
3 22 21 105 0.4894831574422054 0.0177718302645834 0.6646272614801982
3 213 21 20 0.4894831574422054 0.0177718302645834 0.6646272614801982
3 357 347 398 0.4894831574422054 0.0177718302645834 0.6646272614801982
3 310 356 357 0.4894831574422054 0.0177718302645834 0.6646272614801982
3 29 28 56 0.4894831574422054 0.0177718302645834 0.6646272614801982
3 56 28 302 0.4894831574422054 0.0177718302645834 0.6646272614801982
3 169 349 350 0.4894831574422054 0.0177718302645834 0.6646272614801982
3 27 110 79 0.4894831574422054 0.0177718302645834 0.6646272614801982
3 79 28 27 0.4894831574422054 0.0177718302645834 0.6646272614801982
3 302 28 79 0.4894831574422054 0.0177718302645834 0.6646272614801982
3 26 110 27 0.4894831574422054 0.0177718302645834 0.6646272614801982
3 225 226 364 0.4894831574422054 0.0177718302645834 0.6646272614801982
3 225 307 226 0.4894831574422054 0.0177718302645834 0.6646272614801982
3 60 59 150 0.4894831574422054 0.0177718302645834 0.6646272614801982
3 150 59 2 0.4894831574422054 0.0177718302645834 0.6646272614801982
3 150 2 0 0.4894831574422054 0.0177718302645834 0.6646272614801982
3 284 10 9 0.4894831574422054 0.0177718302645834 0.6646272614801982
3 8 162 9 0.4894831574422054 0.0177718302645834 0.6646272614801982
3 8 7 192 0.4894831574422054 0.0177718302645834 0.6646272614801982
3 7 157 192 0.4894831574422054 0.0177718302645834 0.6646272614801982
3 192 157 158 0.4894831574422054 0.0177718302645834 0.6646272614801982
3 158 157 276 0.4894831574422054 0.0177718302645834 0.6646272614801982
3 276 59 60 0.4894831574422054 0.0177718302645834 0.6646272614801982
3 276 277 158 0.4894831574422054 0.0177718302645834 0.6646272614801982
3 60 277 276 0.4894831574422054 0.0177718302645834 0.6646272614801982
3 156 157 7 0.4894831574422054 0.0177718302645834 0.6646272614801982
3 156 7 5 0.4894831574422054 0.0177718302645834 0.6646272614801982
3 5 4 156 0.4894831574422054 0.0177718302645834 0.6646272614801982
3 15 67 338 0.4894831574422054 0.0177718302645834 0.6646272614801982
3 338 16 15 0.4894831574422054 0.0177718302645834 0.6646272614801982
3 14 67 15 0.4894831574422054 0.0177718302645834 0.6646272614801982
3 75 18 17 0.4894831574422054 0.0177718302645834 0.6646272614801982
3 76 294 75 0.4894831574422054 0.0177718302645834 0.6646272614801982
3 331 143 142 0.4894831574422054 0.0177718302645834 0.6646272614801982
3 259 50 260 0.4894831574422054 0.0177718302645834 0.6646272614801982
3 147 259 260 0.4894831574422054 0.0177718302645834 0.6646272614801982
3 320 41 40 0.4894831574422054 0.0177718302645834 0.6646272614801982
3 40 121 320 0.4894831574422054 0.0177718302645834 0.6646272614801982
3 178 184 315 0.4894831574422054 0.0177718302645834 0.6646272614801982
3 316 184 178 0.4894831574422054 0.0177718302645834 0.6646272614801982
3 42 243 43 0.4894831574422054 0.0177718302645834 0.6646272614801982
3 323 128 127 0.4894831574422054 0.0177718302645834 0.6646272614801982
3 359 116 358 0.4894831574422054 0.0177718302645834 0.6646272614801982
3 359 117 116 0.4894831574422054 0.0177718302645834 0.6646272614801982
3 359 83 84 0.4894831574422054 0.0177718302645834 0.6646272614801982
3 358 83 359 0.4894831574422054 0.0177718302645834 0.6646272614801982
3 239 178 238 0.4894831574422054 0.0177718302645834 0.6646272614801982
3 358 115 32 0.4894831574422054 0.0177718302645834 0.6646272614801982
3 32 115 33 0.4894831574422054 0.0177718302645834 0.6646272614801982
3 31 358 32 0.4894831574422054 0.0177718302645834 0.6646272614801982
3 180 38 312 0.4894831574422054 0.0177718302645834 0.6646272614801982
3 180 39 38 0.4894831574422054 0.0177718302645834 0.6646272614801982
3 236 116 237 0.4894831574422054 0.0177718302645834 0.6646272614801982
3 237 176 236 0.4894831574422054 0.0177718302645834 0.6646272614801982
3 116 117 237 0.4894831574422054 0.0177718302645834 0.6646272614801982
3 237 117 238 0.4894831574422054 0.0177718302645834 0.6646272614801982
3 177 178 315 0.4894831574422054 0.0177718302645834 0.6646272614801982
3 238 178 177 0.4894831574422054 0.0177718302645834 0.6646272614801982
3 177 237 238 0.4894831574422054 0.0177718302645834 0.6646272614801982
3 176 237 177 0.4894831574422054 0.0177718302645834 0.6646272614801982
3 173 307 114 0.4894831574422054 0.0177718302645834 0.6646272614801982
3 350 105 106 0.4894831574422054 0.0177718302645834 0.6646272614801982
3 106 105 21 0.4894831574422054 0.0177718302645834 0.6646272614801982
3 21 213 106 0.4894831574422054 0.0177718302645834 0.6646272614801982
3 397 386 387 0.4894831574422054 0.0177718302645834 0.6646272614801982
3 387 347 397 0.4894831574422054 0.0177718302645834 0.6646272614801982
3 347 346 397 0.4894831574422054 0.0177718302645834 0.6646272614801982
3 295 294 76 0.4894831574422054 0.0177718302645834 0.6646272614801982
3 298 219 218 0.4894831574422054 0.0177718302645834 0.6646272614801982
3 71 338 339 0.4894831574422054 0.0177718302645834 0.6646272614801982
3 16 338 71 0.4894831574422054 0.0177718302645834 0.6646272614801982
3 355 356 309 0.4894831574422054 0.0177718302645834 0.6646272614801982
3 355 219 356 0.4894831574422054 0.0177718302645834 0.6646272614801982
3 301 346 347 0.4894831574422054 0.0177718302645834 0.6646272614801982
3 347 357 301 0.4894831574422054 0.0177718302645834 0.6646272614801982
3 301 357 356 0.4894831574422054 0.0177718302645834 0.6646272614801982
3 57 56 302 0.4894831574422054 0.0177718302645834 0.6646272614801982
3 58 222 57 0.4894831574422054 0.0177718302645834 0.6646272614801982
3 84 83 220 0.4894831574422054 0.0177718302645834 0.6646272614801982
3 83 30 220 0.4894831574422054 0.0177718302645834 0.6646272614801982
3 220 30 29 0.4894831574422054 0.0177718302645834 0.6646272614801982
3 29 56 220 0.4894831574422054 0.0177718302645834 0.6646272614801982
3 348 349 168 0.4894831574422054 0.0177718302645834 0.6646272614801982
3 349 169 168 0.4894831574422054 0.0177718302645834 0.6646272614801982
3 168 169 110 0.4894831574422054 0.0177718302645834 0.6646272614801982
3 110 26 168 0.4894831574422054 0.0177718302645834 0.6646272614801982
3 350 351 170 0.4894831574422054 0.0177718302645834 0.6646272614801982
3 170 169 350 0.4894831574422054 0.0177718302645834 0.6646272614801982
3 302 79 303 0.4894831574422054 0.0177718302645834 0.6646272614801982
3 303 57 302 0.4894831574422054 0.0177718302645834 0.6646272614801982
3 304 58 303 0.4894831574422054 0.0177718302645834 0.6646272614801982
3 58 57 303 0.4894831574422054 0.0177718302645834 0.6646272614801982
3 224 305 306 0.4894831574422054 0.0177718302645834 0.6646272614801982
3 306 225 224 0.4894831574422054 0.0177718302645834 0.6646272614801982
3 307 225 306 0.4894831574422054 0.0177718302645834 0.6646272614801982
3 114 307 306 0.4894831574422054 0.0177718302645834 0.6646272614801982
3 306 82 114 0.4894831574422054 0.0177718302645834 0.6646272614801982
3 305 82 306 0.4894831574422054 0.0177718302645834 0.6646272614801982
3 309 226 308 0.4894831574422054 0.0177718302645834 0.6646272614801982
3 226 307 308 0.4894831574422054 0.0177718302645834 0.6646272614801982
3 307 173 308 0.4894831574422054 0.0177718302645834 0.6646272614801982
3 308 355 309 0.4894831574422054 0.0177718302645834 0.6646272614801982
3 309 310 366 0.4894831574422054 0.0177718302645834 0.6646272614801982
3 325 185 317 0.4894831574422054 0.0177718302645834 0.6646272614801982
3 319 327 318 0.4894831574422054 0.0177718302645834 0.6646272614801982
3 318 327 326 0.4894831574422054 0.0177718302645834 0.6646272614801982
3 318 325 317 0.4894831574422054 0.0177718302645834 0.6646272614801982
3 326 325 318 0.4894831574422054 0.0177718302645834 0.6646272614801982
3 388 150 0 0.4894831574422054 0.0177718302645834 0.6646272614801982
3 0 54 388 0.4894831574422054 0.0177718302645834 0.6646272614801982
3 388 54 268 0.4894831574422054 0.0177718302645834 0.6646272614801982
3 158 194 193 0.4894831574422054 0.0177718302645834 0.6646272614801982
3 193 194 162 0.4894831574422054 0.0177718302645834 0.6646272614801982
3 193 192 158 0.4894831574422054 0.0177718302645834 0.6646272614801982
3 193 162 8 0.4894831574422054 0.0177718302645834 0.6646272614801982
3 8 192 193 0.4894831574422054 0.0177718302645834 0.6646272614801982
3 162 194 163 0.4894831574422054 0.0177718302645834 0.6646272614801982
3 284 9 163 0.4894831574422054 0.0177718302645834 0.6646272614801982
3 163 9 162 0.4894831574422054 0.0177718302645834 0.6646272614801982
3 159 277 278 0.4894831574422054 0.0177718302645834 0.6646272614801982
3 158 277 159 0.4894831574422054 0.0177718302645834 0.6646272614801982
3 159 194 158 0.4894831574422054 0.0177718302645834 0.6646272614801982
3 60 150 151 0.4894831574422054 0.0177718302645834 0.6646272614801982
3 150 388 151 0.4894831574422054 0.0177718302645834 0.6646272614801982
3 268 152 151 0.4894831574422054 0.0177718302645834 0.6646272614801982
3 151 388 268 0.4894831574422054 0.0177718302645834 0.6646272614801982
3 278 277 61 0.4894831574422054 0.0177718302645834 0.6646272614801982
3 61 151 152 0.4894831574422054 0.0177718302645834 0.6646272614801982
3 61 277 60 0.4894831574422054 0.0177718302645834 0.6646272614801982
3 60 151 61 0.4894831574422054 0.0177718302645834 0.6646272614801982
3 62 152 153 0.4894831574422054 0.0177718302645834 0.6646272614801982
3 278 61 62 0.4894831574422054 0.0177718302645834 0.6646272614801982
3 62 61 152 0.4894831574422054 0.0177718302645834 0.6646272614801982
3 285 10 284 0.4894831574422054 0.0177718302645834 0.6646272614801982
3 284 163 285 0.4894831574422054 0.0177718302645834 0.6646272614801982
3 275 156 4 0.4894831574422054 0.0177718302645834 0.6646272614801982
3 157 156 275 0.4894831574422054 0.0177718302645834 0.6646272614801982
3 275 4 3 0.4894831574422054 0.0177718302645834 0.6646272614801982
3 3 59 275 0.4894831574422054 0.0177718302645834 0.6646272614801982
3 59 276 275 0.4894831574422054 0.0177718302645834 0.6646272614801982
3 275 276 157 0.4894831574422054 0.0177718302645834 0.6646272614801982
3 188 189 270 0.4894831574422054 0.0177718302645834 0.6646272614801982
3 270 187 188 0.4894831574422054 0.0177718302645834 0.6646272614801982
3 153 270 154 0.4894831574422054 0.0177718302645834 0.6646272614801982
3 147 148 381 0.4894831574422054 0.0177718302645834 0.6646272614801982
3 146 259 147 0.4894831574422054 0.0177718302645834 0.6646272614801982
3 51 259 146 0.4894831574422054 0.0177718302645834 0.6646272614801982
3 146 145 51 0.4894831574422054 0.0177718302645834 0.6646272614801982
3 145 146 380 0.4894831574422054 0.0177718302645834 0.6646272614801982
3 380 381 189 0.4894831574422054 0.0177718302645834 0.6646272614801982
3 147 381 380 0.4894831574422054 0.0177718302645834 0.6646272614801982
3 380 146 147 0.4894831574422054 0.0177718302645834 0.6646272614801982
3 378 187 53 0.4894831574422054 0.0177718302645834 0.6646272614801982
3 188 187 378 0.4894831574422054 0.0177718302645834 0.6646272614801982
3 186 54 53 0.4894831574422054 0.0177718302645834 0.6646272614801982
3 53 187 186 0.4894831574422054 0.0177718302645834 0.6646272614801982
3 268 54 186 0.4894831574422054 0.0177718302645834 0.6646272614801982
3 206 75 17 0.4894831574422054 0.0177718302645834 0.6646272614801982
3 206 71 207 0.4894831574422054 0.0177718302645834 0.6646272614801982
3 206 207 76 0.4894831574422054 0.0177718302645834 0.6646272614801982
3 76 75 206 0.4894831574422054 0.0177718302645834 0.6646272614801982
3 17 16 206 0.4894831574422054 0.0177718302645834 0.6646272614801982
3 16 71 206 0.4894831574422054 0.0177718302645834 0.6646272614801982
3 48 47 135 0.4894831574422054 0.0177718302645834 0.6646272614801982
3 135 329 48 0.4894831574422054 0.0177718302645834 0.6646272614801982
3 91 47 46 0.4894831574422054 0.0177718302645834 0.6646272614801982
3 89 370 369 0.4894831574422054 0.0177718302645834 0.6646272614801982
3 370 92 369 0.4894831574422054 0.0177718302645834 0.6646272614801982
3 92 91 369 0.4894831574422054 0.0177718302645834 0.6646272614801982
3 93 92 370 0.4894831574422054 0.0177718302645834 0.6646272614801982
3 370 371 93 0.4894831574422054 0.0177718302645834 0.6646272614801982
3 93 371 94 0.4894831574422054 0.0177718302645834 0.6646272614801982
3 93 252 92 0.4894831574422054 0.0177718302645834 0.6646272614801982
3 249 327 250 0.4894831574422054 0.0177718302645834 0.6646272614801982
3 326 327 249 0.4894831574422054 0.0177718302645834 0.6646272614801982
3 140 329 141 0.4894831574422054 0.0177718302645834 0.6646272614801982
3 141 260 140 0.4894831574422054 0.0177718302645834 0.6646272614801982
3 140 260 50 0.4894831574422054 0.0177718302645834 0.6646272614801982
3 149 263 383 0.4894831574422054 0.0177718302645834 0.6646272614801982
3 331 142 330 0.4894831574422054 0.0177718302645834 0.6646272614801982
3 330 136 331 0.4894831574422054 0.0177718302645834 0.6646272614801982
3 141 329 330 0.4894831574422054 0.0177718302645834 0.6646272614801982
3 330 142 141 0.4894831574422054 0.0177718302645834 0.6646272614801982
3 330 135 136 0.4894831574422054 0.0177718302645834 0.6646272614801982
3 329 135 330 0.4894831574422054 0.0177718302645834 0.6646272614801982
3 324 128 323 0.4894831574422054 0.0177718302645834 0.6646272614801982
3 185 325 324 0.4894831574422054 0.0177718302645834 0.6646272614801982
3 315 184 123 0.4894831574422054 0.0177718302645834 0.6646272614801982
3 124 324 323 0.4894831574422054 0.0177718302645834 0.6646272614801982
3 185 324 124 0.4894831574422054 0.0177718302645834 0.6646272614801982
3 323 123 124 0.4894831574422054 0.0177718302645834 0.6646272614801982
3 124 123 184 0.4894831574422054 0.0177718302645834 0.6646272614801982
3 316 185 124 0.4894831574422054 0.0177718302645834 0.6646272614801982
3 124 184 316 0.4894831574422054 0.0177718302645834 0.6646272614801982
3 245 127 128 0.4894831574422054 0.0177718302645834 0.6646272614801982
3 88 132 89 0.4894831574422054 0.0177718302645834 0.6646272614801982
3 89 369 88 0.4894831574422054 0.0177718302645834 0.6646272614801982
3 238 117 118 0.4894831574422054 0.0177718302645834 0.6646272614801982
3 118 239 238 0.4894831574422054 0.0177718302645834 0.6646272614801982
3 224 225 363 0.4894831574422054 0.0177718302645834 0.6646272614801982
3 363 225 364 0.4894831574422054 0.0177718302645834 0.6646272614801982
3 316 178 179 0.4894831574422054 0.0177718302645834 0.6646272614801982
3 178 239 179 0.4894831574422054 0.0177718302645834 0.6646272614801982
3 317 185 179 0.4894831574422054 0.0177718302645834 0.6646272614801982
3 179 185 316 0.4894831574422054 0.0177718302645834 0.6646272614801982
3 39 180 181 0.4894831574422054 0.0177718302645834 0.6646272614801982
3 312 313 181 0.4894831574422054 0.0177718302645834 0.6646272614801982
3 181 180 312 0.4894831574422054 0.0177718302645834 0.6646272614801982
3 314 177 315 0.4894831574422054 0.0177718302645834 0.6646272614801982
3 313 176 314 0.4894831574422054 0.0177718302645834 0.6646272614801982
3 176 177 314 0.4894831574422054 0.0177718302645834 0.6646272614801982
3 218 219 354 0.4894831574422054 0.0177718302645834 0.6646272614801982
3 219 355 354 0.4894831574422054 0.0177718302645834 0.6646272614801982
3 354 308 173 0.4894831574422054 0.0177718302645834 0.6646272614801982
3 355 308 354 0.4894831574422054 0.0177718302645834 0.6646272614801982
3 353 352 109 0.4894831574422054 0.0177718302645834 0.6646272614801982
3 353 354 173 0.4894831574422054 0.0177718302645834 0.6646272614801982
3 100 20 19 0.4894831574422054 0.0177718302645834 0.6646272614801982
3 294 101 293 0.4894831574422054 0.0177718302645834 0.6646272614801982
3 19 18 293 0.4894831574422054 0.0177718302645834 0.6646272614801982
3 293 100 19 0.4894831574422054 0.0177718302645834 0.6646272614801982
3 101 100 293 0.4894831574422054 0.0177718302645834 0.6646272614801982
3 293 75 294 0.4894831574422054 0.0177718302645834 0.6646272614801982
3 18 75 293 0.4894831574422054 0.0177718302645834 0.6646272614801982
3 103 295 296 0.4894831574422054 0.0177718302645834 0.6646272614801982
3 299 211 212 0.4894831574422054 0.0177718302645834 0.6646272614801982
3 298 211 299 0.4894831574422054 0.0177718302645834 0.6646272614801982
3 356 219 299 0.4894831574422054 0.0177718302645834 0.6646272614801982
3 219 298 299 0.4894831574422054 0.0177718302645834 0.6646272614801982
3 77 295 76 0.4894831574422054 0.0177718302645834 0.6646272614801982
3 296 295 77 0.4894831574422054 0.0177718302645834 0.6646272614801982
3 76 207 77 0.4894831574422054 0.0177718302645834 0.6646272614801982
3 207 208 77 0.4894831574422054 0.0177718302645834 0.6646272614801982
3 72 208 207 0.4894831574422054 0.0177718302645834 0.6646272614801982
3 207 71 72 0.4894831574422054 0.0177718302645834 0.6646272614801982
3 72 71 339 0.4894831574422054 0.0177718302645834 0.6646272614801982
3 221 57 222 0.4894831574422054 0.0177718302645834 0.6646272614801982
3 84 220 221 0.4894831574422054 0.0177718302645834 0.6646272614801982
3 56 57 221 0.4894831574422054 0.0177718302645834 0.6646272614801982
3 221 220 56 0.4894831574422054 0.0177718302645834 0.6646272614801982
3 25 168 26 0.4894831574422054 0.0177718302645834 0.6646272614801982
3 23 348 25 0.4894831574422054 0.0177718302645834 0.6646272614801982
3 348 168 25 0.4894831574422054 0.0177718302645834 0.6646272614801982
3 304 303 80 0.4894831574422054 0.0177718302645834 0.6646272614801982
3 80 303 79 0.4894831574422054 0.0177718302645834 0.6646272614801982
3 351 352 171 0.4894831574422054 0.0177718302645834 0.6646272614801982
3 171 170 351 0.4894831574422054 0.0177718302645834 0.6646272614801982
3 365 226 309 0.4894831574422054 0.0177718302645834 0.6646272614801982
3 309 366 365 0.4894831574422054 0.0177718302645834 0.6646272614801982
3 364 226 365 0.4894831574422054 0.0177718302645834 0.6646272614801982
3 365 366 319 0.4894831574422054 0.0177718302645834 0.6646272614801982
3 319 366 328 0.4894831574422054 0.0177718302645834 0.6646272614801982
3 250 327 328 0.4894831574422054 0.0177718302645834 0.6646272614801982
3 328 327 319 0.4894831574422054 0.0177718302645834 0.6646272614801982
3 328 375 250 0.4894831574422054 0.0177718302645834 0.6646272614801982
3 246 245 128 0.4894831574422054 0.0177718302645834 0.6646272614801982
3 132 245 246 0.4894831574422054 0.0177718302645834 0.6646272614801982
3 257 375 258 0.4894831574422054 0.0177718302645834 0.6646272614801982
3 258 336 257 0.4894831574422054 0.0177718302645834 0.6646272614801982
3 335 257 336 0.4894831574422054 0.0177718302645834 0.6646272614801982
3 335 266 265 0.4894831574422054 0.0177718302645834 0.6646272614801982
3 336 266 335 0.4894831574422054 0.0177718302645834 0.6646272614801982
3 387 386 337 0.4894831574422054 0.0177718302645834 0.6646272614801982
3 337 336 258 0.4894831574422054 0.0177718302645834 0.6646272614801982
3 386 266 337 0.4894831574422054 0.0177718302645834 0.6646272614801982
3 337 266 336 0.4894831574422054 0.0177718302645834 0.6646272614801982
3 278 62 279 0.4894831574422054 0.0177718302645834 0.6646272614801982
3 279 62 153 0.4894831574422054 0.0177718302645834 0.6646272614801982
3 153 154 279 0.4894831574422054 0.0177718302645834 0.6646272614801982
3 278 279 160 0.4894831574422054 0.0177718302645834 0.6646272614801982
3 13 12 63 0.4894831574422054 0.0177718302645834 0.6646272614801982
3 265 266 385 0.4894831574422054 0.0177718302645834 0.6646272614801982
3 385 266 386 0.4894831574422054 0.0177718302645834 0.6646272614801982
3 187 270 390 0.4894831574422054 0.0177718302645834 0.6646272614801982
3 268 186 390 0.4894831574422054 0.0177718302645834 0.6646272614801982
3 390 186 187 0.4894831574422054 0.0177718302645834 0.6646272614801982
3 390 152 268 0.4894831574422054 0.0177718302645834 0.6646272614801982
3 153 152 390 0.4894831574422054 0.0177718302645834 0.6646272614801982
3 390 270 153 0.4894831574422054 0.0177718302645834 0.6646272614801982
3 379 189 188 0.4894831574422054 0.0177718302645834 0.6646272614801982
3 379 380 189 0.4894831574422054 0.0177718302645834 0.6646272614801982
3 188 378 379 0.4894831574422054 0.0177718302645834 0.6646272614801982
3 145 380 379 0.4894831574422054 0.0177718302645834 0.6646272614801982
3 52 378 53 0.4894831574422054 0.0177718302645834 0.6646272614801982
3 51 145 52 0.4894831574422054 0.0177718302645834 0.6646272614801982
3 145 379 52 0.4894831574422054 0.0177718302645834 0.6646272614801982
3 52 379 378 0.4894831574422054 0.0177718302645834 0.6646272614801982
3 332 138 333 0.4894831574422054 0.0177718302645834 0.6646272614801982
3 332 143 331 0.4894831574422054 0.0177718302645834 0.6646272614801982
3 254 138 253 0.4894831574422054 0.0177718302645834 0.6646272614801982
3 252 93 253 0.4894831574422054 0.0177718302645834 0.6646272614801982
3 94 254 253 0.4894831574422054 0.0177718302645834 0.6646272614801982
3 253 93 94 0.4894831574422054 0.0177718302645834 0.6646272614801982
3 136 135 251 0.4894831574422054 0.0177718302645834 0.6646272614801982
3 251 252 136 0.4894831574422054 0.0177718302645834 0.6646272614801982
3 251 135 47 0.4894831574422054 0.0177718302645834 0.6646272614801982
3 47 91 251 0.4894831574422054 0.0177718302645834 0.6646272614801982
3 251 91 92 0.4894831574422054 0.0177718302645834 0.6646272614801982
3 92 252 251 0.4894831574422054 0.0177718302645834 0.6646272614801982
3 373 249 250 0.4894831574422054 0.0177718302645834 0.6646272614801982
3 373 255 94 0.4894831574422054 0.0177718302645834 0.6646272614801982
3 49 140 50 0.4894831574422054 0.0177718302645834 0.6646272614801982
3 329 140 49 0.4894831574422054 0.0177718302645834 0.6646272614801982
3 48 329 49 0.4894831574422054 0.0177718302645834 0.6646272614801982
3 265 264 144 0.4894831574422054 0.0177718302645834 0.6646272614801982
3 144 332 333 0.4894831574422054 0.0177718302645834 0.6646272614801982
3 143 332 144 0.4894831574422054 0.0177718302645834 0.6646272614801982
3 144 263 143 0.4894831574422054 0.0177718302645834 0.6646272614801982
3 144 264 263 0.4894831574422054 0.0177718302645834 0.6646272614801982
3 263 149 262 0.4894831574422054 0.0177718302645834 0.6646272614801982
3 143 263 262 0.4894831574422054 0.0177718302645834 0.6646272614801982
3 262 142 143 0.4894831574422054 0.0177718302645834 0.6646272614801982
3 262 149 148 0.4894831574422054 0.0177718302645834 0.6646272614801982
3 321 320 121 0.4894831574422054 0.0177718302645834 0.6646272614801982
3 41 320 321 0.4894831574422054 0.0177718302645834 0.6646272614801982
3 130 44 43 0.4894831574422054 0.0177718302645834 0.6646272614801982
3 127 245 244 0.4894831574422054 0.0177718302645834 0.6646272614801982
3 43 243 244 0.4894831574422054 0.0177718302645834 0.6646272614801982
3 244 130 43 0.4894831574422054 0.0177718302645834 0.6646272614801982
3 368 88 369 0.4894831574422054 0.0177718302645834 0.6646272614801982
3 46 45 368 0.4894831574422054 0.0177718302645834 0.6646272614801982
3 368 91 46 0.4894831574422054 0.0177718302645834 0.6646272614801982
3 368 369 91 0.4894831574422054 0.0177718302645834 0.6646272614801982
3 117 359 360 0.4894831574422054 0.0177718302645834 0.6646272614801982
3 360 118 117 0.4894831574422054 0.0177718302645834 0.6646272614801982
3 360 359 84 0.4894831574422054 0.0177718302645834 0.6646272614801982
3 360 361 118 0.4894831574422054 0.0177718302645834 0.6646272614801982
3 241 318 317 0.4894831574422054 0.0177718302645834 0.6646272614801982
3 241 363 364 0.4894831574422054 0.0177718302645834 0.6646272614801982
3 40 39 120 0.4894831574422054 0.0177718302645834 0.6646272614801982
3 39 181 120 0.4894831574422054 0.0177718302645834 0.6646272614801982
3 120 121 40 0.4894831574422054 0.0177718302645834 0.6646272614801982
3 120 181 121 0.4894831574422054 0.0177718302645834 0.6646272614801982
3 214 213 20 0.4894831574422054 0.0177718302645834 0.6646272614801982
3 20 100 214 0.4894831574422054 0.0177718302645834 0.6646272614801982
3 214 100 101 0.4894831574422054 0.0177718302645834 0.6646272614801982
3 101 215 214 0.4894831574422054 0.0177718302645834 0.6646272614801982
3 109 352 108 0.4894831574422054 0.0177718302645834 0.6646272614801982
3 108 352 351 0.4894831574422054 0.0177718302645834 0.6646272614801982
3 217 353 109 0.4894831574422054 0.0177718302645834 0.6646272614801982
3 218 354 217 0.4894831574422054 0.0177718302645834 0.6646272614801982
3 354 353 217 0.4894831574422054 0.0177718302645834 0.6646272614801982
3 104 103 296 0.4894831574422054 0.0177718302645834 0.6646272614801982
3 218 217 104 0.4894831574422054 0.0177718302645834 0.6646272614801982
3 104 217 103 0.4894831574422054 0.0177718302645834 0.6646272614801982
3 109 108 216 0.4894831574422054 0.0177718302645834 0.6646272614801982
3 216 108 215 0.4894831574422054 0.0177718302645834 0.6646272614801982
3 216 217 109 0.4894831574422054 0.0177718302645834 0.6646272614801982
3 103 217 216 0.4894831574422054 0.0177718302645834 0.6646272614801982
3 294 295 102 0.4894831574422054 0.0177718302645834 0.6646272614801982
3 295 103 102 0.4894831574422054 0.0177718302645834 0.6646272614801982
3 102 101 294 0.4894831574422054 0.0177718302645834 0.6646272614801982
3 103 216 102 0.4894831574422054 0.0177718302645834 0.6646272614801982
3 102 215 101 0.4894831574422054 0.0177718302645834 0.6646272614801982
3 102 216 215 0.4894831574422054 0.0177718302645834 0.6646272614801982
3 300 301 356 0.4894831574422054 0.0177718302645834 0.6646272614801982
3 356 299 300 0.4894831574422054 0.0177718302645834 0.6646272614801982
3 212 301 300 0.4894831574422054 0.0177718302645834 0.6646272614801982
3 300 299 212 0.4894831574422054 0.0177718302645834 0.6646272614801982
3 78 77 208 0.4894831574422054 0.0177718302645834 0.6646272614801982
3 296 77 78 0.4894831574422054 0.0177718302645834 0.6646272614801982
3 208 72 73 0.4894831574422054 0.0177718302645834 0.6646272614801982
3 304 80 81 0.4894831574422054 0.0177718302645834 0.6646272614801982
3 81 305 304 0.4894831574422054 0.0177718302645834 0.6646272614801982
3 81 82 305 0.4894831574422054 0.0177718302645834 0.6646272614801982
3 169 170 111 0.4894831574422054 0.0177718302645834 0.6646272614801982
3 110 169 111 0.4894831574422054 0.0177718302645834 0.6646272614801982
3 111 79 110 0.4894831574422054 0.0177718302645834 0.6646272614801982
3 111 80 79 0.4894831574422054 0.0177718302645834 0.6646272614801982
3 172 171 352 0.4894831574422054 0.0177718302645834 0.6646272614801982
3 172 173 114 0.4894831574422054 0.0177718302645834 0.6646272614801982
3 172 353 173 0.4894831574422054 0.0177718302645834 0.6646272614801982
3 352 353 172 0.4894831574422054 0.0177718302645834 0.6646272614801982
3 364 365 242 0.4894831574422054 0.0177718302645834 0.6646272614801982
3 242 241 364 0.4894831574422054 0.0177718302645834 0.6646272614801982
3 318 241 242 0.4894831574422054 0.0177718302645834 0.6646272614801982
3 319 318 242 0.4894831574422054 0.0177718302645834 0.6646272614801982
3 242 365 319 0.4894831574422054 0.0177718302645834 0.6646272614801982
3 367 328 366 0.4894831574422054 0.0177718302645834 0.6646272614801982
3 367 357 398 0.4894831574422054 0.0177718302645834 0.6646272614801982
3 310 357 367 0.4894831574422054 0.0177718302645834 0.6646272614801982
3 367 366 310 0.4894831574422054 0.0177718302645834 0.6646272614801982
3 128 324 129 0.4894831574422054 0.0177718302645834 0.6646272614801982
3 129 246 128 0.4894831574422054 0.0177718302645834 0.6646272614801982
3 129 324 325 0.4894831574422054 0.0177718302645834 0.6646272614801982
3 334 335 265 0.4894831574422054 0.0177718302645834 0.6646272614801982
3 334 144 333 0.4894831574422054 0.0177718302645834 0.6646272614801982
3 265 144 334 0.4894831574422054 0.0177718302645834 0.6646272614801982
3 95 96 11 0.4894831574422054 0.0177718302645834 0.6646272614801982
3 285 96 95 0.4894831574422054 0.0177718302645834 0.6646272614801982
3 11 10 95 0.4894831574422054 0.0177718302645834 0.6646272614801982
3 10 285 95 0.4894831574422054 0.0177718302645834 0.6646272614801982
3 286 96 285 0.4894831574422054 0.0177718302645834 0.6646272614801982
3 165 286 164 0.4894831574422054 0.0177718302645834 0.6646272614801982
3 164 286 285 0.4894831574422054 0.0177718302645834 0.6646272614801982
3 164 163 194 0.4894831574422054 0.0177718302645834 0.6646272614801982
3 164 285 163 0.4894831574422054 0.0177718302645834 0.6646272614801982
3 199 14 13 0.4894831574422054 0.0177718302645834 0.6646272614801982
3 13 63 199 0.4894831574422054 0.0177718302645834 0.6646272614801982
3 67 14 199 0.4894831574422054 0.0177718302645834 0.6646272614801982
3 199 200 67 0.4894831574422054 0.0177718302645834 0.6646272614801982
3 383 273 191 0.4894831574422054 0.0177718302645834 0.6646272614801982
3 384 273 383 0.4894831574422054 0.0177718302645834 0.6646272614801982
3 383 263 384 0.4894831574422054 0.0177718302645834 0.6646272614801982
3 263 264 384 0.4894831574422054 0.0177718302645834 0.6646272614801982
3 384 264 265 0.4894831574422054 0.0177718302645834 0.6646272614801982
3 265 385 384 0.4894831574422054 0.0177718302645834 0.6646272614801982
3 136 252 137 0.4894831574422054 0.0177718302645834 0.6646272614801982
3 252 253 137 0.4894831574422054 0.0177718302645834 0.6646272614801982
3 137 253 138 0.4894831574422054 0.0177718302645834 0.6646272614801982
3 331 136 137 0.4894831574422054 0.0177718302645834 0.6646272614801982
3 137 332 331 0.4894831574422054 0.0177718302645834 0.6646272614801982
3 138 332 137 0.4894831574422054 0.0177718302645834 0.6646272614801982
3 375 257 374 0.4894831574422054 0.0177718302645834 0.6646272614801982
3 250 375 374 0.4894831574422054 0.0177718302645834 0.6646272614801982
3 374 373 250 0.4894831574422054 0.0177718302645834 0.6646272614801982
3 90 370 89 0.4894831574422054 0.0177718302645834 0.6646272614801982
3 90 371 370 0.4894831574422054 0.0177718302645834 0.6646272614801982
3 249 373 372 0.4894831574422054 0.0177718302645834 0.6646272614801982
3 372 134 249 0.4894831574422054 0.0177718302645834 0.6646272614801982
3 94 371 372 0.4894831574422054 0.0177718302645834 0.6646272614801982
3 372 373 94 0.4894831574422054 0.0177718302645834 0.6646272614801982
3 371 90 372 0.4894831574422054 0.0177718302645834 0.6646272614801982
3 372 90 134 0.4894831574422054 0.0177718302645834 0.6646272614801982
3 89 132 133 0.4894831574422054 0.0177718302645834 0.6646272614801982
3 133 90 89 0.4894831574422054 0.0177718302645834 0.6646272614801982
3 134 90 133 0.4894831574422054 0.0177718302645834 0.6646272614801982
3 132 246 133 0.4894831574422054 0.0177718302645834 0.6646272614801982
3 261 262 148 0.4894831574422054 0.0177718302645834 0.6646272614801982
3 261 148 147 0.4894831574422054 0.0177718302645834 0.6646272614801982
3 147 260 261 0.4894831574422054 0.0177718302645834 0.6646272614801982
3 261 260 141 0.4894831574422054 0.0177718302645834 0.6646272614801982
3 141 142 261 0.4894831574422054 0.0177718302645834 0.6646272614801982
3 142 262 261 0.4894831574422054 0.0177718302645834 0.6646272614801982
3 122 321 121 0.4894831574422054 0.0177718302645834 0.6646272614801982
3 125 42 41 0.4894831574422054 0.0177718302645834 0.6646272614801982
3 41 321 125 0.4894831574422054 0.0177718302645834 0.6646272614801982
3 323 127 322 0.4894831574422054 0.0177718302645834 0.6646272614801982
3 322 123 323 0.4894831574422054 0.0177718302645834 0.6646272614801982
3 322 122 123 0.4894831574422054 0.0177718302645834 0.6646272614801982
3 321 122 322 0.4894831574422054 0.0177718302645834 0.6646272614801982
3 132 88 131 0.4894831574422054 0.0177718302645834 0.6646272614801982
3 131 245 132 0.4894831574422054 0.0177718302645834 0.6646272614801982
3 131 244 245 0.4894831574422054 0.0177718302645834 0.6646272614801982
3 130 244 131 0.4894831574422054 0.0177718302645834 0.6646272614801982
3 239 118 119 0.4894831574422054 0.0177718302645834 0.6646272614801982
3 118 361 119 0.4894831574422054 0.0177718302645834 0.6646272614801982
3 85 360 84 0.4894831574422054 0.0177718302645834 0.6646272614801982
3 84 221 85 0.4894831574422054 0.0177718302645834 0.6646272614801982
3 85 221 222 0.4894831574422054 0.0177718302645834 0.6646272614801982
3 361 360 85 0.4894831574422054 0.0177718302645834 0.6646272614801982
3 222 86 85 0.4894831574422054 0.0177718302645834 0.6646272614801982
3 85 86 361 0.4894831574422054 0.0177718302645834 0.6646272614801982
3 107 108 351 0.4894831574422054 0.0177718302645834 0.6646272614801982
3 107 214 215 0.4894831574422054 0.0177718302645834 0.6646272614801982
3 215 108 107 0.4894831574422054 0.0177718302645834 0.6646272614801982
3 107 351 350 0.4894831574422054 0.0177718302645834 0.6646272614801982
3 350 106 107 0.4894831574422054 0.0177718302645834 0.6646272614801982
3 107 106 213 0.4894831574422054 0.0177718302645834 0.6646272614801982
3 213 214 107 0.4894831574422054 0.0177718302645834 0.6646272614801982
3 296 78 297 0.4894831574422054 0.0177718302645834 0.6646272614801982
3 297 78 298 0.4894831574422054 0.0177718302645834 0.6646272614801982
3 297 104 296 0.4894831574422054 0.0177718302645834 0.6646272614801982
3 297 298 218 0.4894831574422054 0.0177718302645834 0.6646272614801982
3 218 104 297 0.4894831574422054 0.0177718302645834 0.6646272614801982
3 209 78 208 0.4894831574422054 0.0177718302645834 0.6646272614801982
3 209 73 74 0.4894831574422054 0.0177718302645834 0.6646272614801982
3 208 73 209 0.4894831574422054 0.0177718302645834 0.6646272614801982
3 82 81 113 0.4894831574422054 0.0177718302645834 0.6646272614801982
3 114 82 113 0.4894831574422054 0.0177718302645834 0.6646272614801982
3 113 172 114 0.4894831574422054 0.0177718302645834 0.6646272614801982
3 171 172 113 0.4894831574422054 0.0177718302645834 0.6646272614801982
3 112 111 170 0.4894831574422054 0.0177718302645834 0.6646272614801982
3 112 113 81 0.4894831574422054 0.0177718302645834 0.6646272614801982
3 112 81 80 0.4894831574422054 0.0177718302645834 0.6646272614801982
3 80 111 112 0.4894831574422054 0.0177718302645834 0.6646272614801982
3 170 171 112 0.4894831574422054 0.0177718302645834 0.6646272614801982
3 171 113 112 0.4894831574422054 0.0177718302645834 0.6646272614801982
3 375 328 376 0.4894831574422054 0.0177718302645834 0.6646272614801982
3 328 367 376 0.4894831574422054 0.0177718302645834 0.6646272614801982
3 258 375 376 0.4894831574422054 0.0177718302645834 0.6646272614801982
3 376 337 258 0.4894831574422054 0.0177718302645834 0.6646272614801982
3 248 325 326 0.4894831574422054 0.0177718302645834 0.6646272614801982
3 326 249 248 0.4894831574422054 0.0177718302645834 0.6646272614801982
3 249 134 248 0.4894831574422054 0.0177718302645834 0.6646272614801982
3 139 254 255 0.4894831574422054 0.0177718302645834 0.6646272614801982
3 139 138 254 0.4894831574422054 0.0177718302645834 0.6646272614801982
3 333 138 139 0.4894831574422054 0.0177718302645834 0.6646272614801982
3 139 334 333 0.4894831574422054 0.0177718302645834 0.6646272614801982
3 257 335 256 0.4894831574422054 0.0177718302645834 0.6646272614801982
3 335 334 256 0.4894831574422054 0.0177718302645834 0.6646272614801982
3 334 139 256 0.4894831574422054 0.0177718302645834 0.6646272614801982
3 256 139 255 0.4894831574422054 0.0177718302645834 0.6646272614801982
3 255 373 256 0.4894831574422054 0.0177718302645834 0.6646272614801982
3 256 374 257 0.4894831574422054 0.0177718302645834 0.6646272614801982
3 373 374 256 0.4894831574422054 0.0177718302645834 0.6646272614801982
3 195 160 165 0.4894831574422054 0.0177718302645834 0.6646272614801982
3 165 164 195 0.4894831574422054 0.0177718302645834 0.6646272614801982
3 195 159 278 0.4894831574422054 0.0177718302645834 0.6646272614801982
3 278 160 195 0.4894831574422054 0.0177718302645834 0.6646272614801982
3 194 159 195 0.4894831574422054 0.0177718302645834 0.6646272614801982
3 195 164 194 0.4894831574422054 0.0177718302645834 0.6646272614801982
3 229 228 97 0.4894831574422054 0.0177718302645834 0.6646272614801982
3 96 286 97 0.4894831574422054 0.0177718302645834 0.6646272614801982
3 97 228 96 0.4894831574422054 0.0177718302645834 0.6646272614801982
3 96 228 227 0.4894831574422054 0.0177718302645834 0.6646272614801982
3 227 12 11 0.4894831574422054 0.0177718302645834 0.6646272614801982
3 11 96 227 0.4894831574422054 0.0177718302645834 0.6646272614801982
3 227 63 12 0.4894831574422054 0.0177718302645834 0.6646272614801982
3 227 228 63 0.4894831574422054 0.0177718302645834 0.6646272614801982
3 200 199 64 0.4894831574422054 0.0177718302645834 0.6646272614801982
3 64 199 63 0.4894831574422054 0.0177718302645834 0.6646272614801982
3 64 228 229 0.4894831574422054 0.0177718302645834 0.6646272614801982
3 63 228 64 0.4894831574422054 0.0177718302645834 0.6646272614801982
3 67 200 68 0.4894831574422054 0.0177718302645834 0.6646272614801982
3 68 69 339 0.4894831574422054 0.0177718302645834 0.6646272614801982
3 339 338 68 0.4894831574422054 0.0177718302645834 0.6646272614801982
3 68 338 67 0.4894831574422054 0.0177718302645834 0.6646272614801982
3 339 69 340 0.4894831574422054 0.0177718302645834 0.6646272614801982
3 340 72 339 0.4894831574422054 0.0177718302645834 0.6646272614801982
3 340 73 72 0.4894831574422054 0.0177718302645834 0.6646272614801982
3 382 381 148 0.4894831574422054 0.0177718302645834 0.6646272614801982
3 148 149 382 0.4894831574422054 0.0177718302645834 0.6646272614801982
3 382 149 383 0.4894831574422054 0.0177718302645834 0.6646272614801982
3 383 191 382 0.4894831574422054 0.0177718302645834 0.6646272614801982
3 189 381 190 0.4894831574422054 0.0177718302645834 0.6646272614801982
3 381 382 190 0.4894831574422054 0.0177718302645834 0.6646272614801982
3 190 382 191 0.4894831574422054 0.0177718302645834 0.6646272614801982
3 165 160 196 0.4894831574422054 0.0177718302645834 0.6646272614801982
3 196 160 279 0.4894831574422054 0.0177718302645834 0.6646272614801982
3 161 196 279 0.4894831574422054 0.0177718302645834 0.6646272614801982
3 134 133 247 0.4894831574422054 0.0177718302645834 0.6646272614801982
3 247 248 134 0.4894831574422054 0.0177718302645834 0.6646272614801982
3 246 129 247 0.4894831574422054 0.0177718302645834 0.6646272614801982
3 247 133 246 0.4894831574422054 0.0177718302645834 0.6646272614801982
3 247 129 325 0.4894831574422054 0.0177718302645834 0.6646272614801982
3 325 248 247 0.4894831574422054 0.0177718302645834 0.6646272614801982
3 182 122 121 0.4894831574422054 0.0177718302645834 0.6646272614801982
3 313 314 182 0.4894831574422054 0.0177718302645834 0.6646272614801982
3 182 181 313 0.4894831574422054 0.0177718302645834 0.6646272614801982
3 121 181 182 0.4894831574422054 0.0177718302645834 0.6646272614801982
3 183 314 315 0.4894831574422054 0.0177718302645834 0.6646272614801982
3 315 123 183 0.4894831574422054 0.0177718302645834 0.6646272614801982
3 123 122 183 0.4894831574422054 0.0177718302645834 0.6646272614801982
3 183 182 314 0.4894831574422054 0.0177718302645834 0.6646272614801982
3 122 182 183 0.4894831574422054 0.0177718302645834 0.6646272614801982
3 243 42 126 0.4894831574422054 0.0177718302645834 0.6646272614801982
3 42 125 126 0.4894831574422054 0.0177718302645834 0.6646272614801982
3 126 322 127 0.4894831574422054 0.0177718302645834 0.6646272614801982
3 126 125 321 0.4894831574422054 0.0177718302645834 0.6646272614801982
3 321 322 126 0.4894831574422054 0.0177718302645834 0.6646272614801982
3 126 244 243 0.4894831574422054 0.0177718302645834 0.6646272614801982
3 127 244 126 0.4894831574422054 0.0177718302645834 0.6646272614801982
3 87 131 88 0.4894831574422054 0.0177718302645834 0.6646272614801982
3 87 45 44 0.4894831574422054 0.0177718302645834 0.6646272614801982
3 44 130 87 0.4894831574422054 0.0177718302645834 0.6646272614801982
3 130 131 87 0.4894831574422054 0.0177718302645834 0.6646272614801982
3 87 368 45 0.4894831574422054 0.0177718302645834 0.6646272614801982
3 88 368 87 0.4894831574422054 0.0177718302645834 0.6646272614801982
3 223 222 58 0.4894831574422054 0.0177718302645834 0.6646272614801982
3 223 86 222 0.4894831574422054 0.0177718302645834 0.6646272614801982
3 223 305 224 0.4894831574422054 0.0177718302645834 0.6646272614801982
3 58 305 223 0.4894831574422054 0.0177718302645834 0.6646272614801982
3 240 179 239 0.4894831574422054 0.0177718302645834 0.6646272614801982
3 239 119 240 0.4894831574422054 0.0177718302645834 0.6646272614801982
3 317 179 240 0.4894831574422054 0.0177718302645834 0.6646272614801982
3 240 241 317 0.4894831574422054 0.0177718302645834 0.6646272614801982
3 363 241 240 0.4894831574422054 0.0177718302645834 0.6646272614801982
3 361 86 362 0.4894831574422054 0.0177718302645834 0.6646272614801982
3 362 119 361 0.4894831574422054 0.0177718302645834 0.6646272614801982
3 224 363 362 0.4894831574422054 0.0177718302645834 0.6646272614801982
3 363 240 362 0.4894831574422054 0.0177718302645834 0.6646272614801982
3 362 240 119 0.4894831574422054 0.0177718302645834 0.6646272614801982
3 362 223 224 0.4894831574422054 0.0177718302645834 0.6646272614801982
3 86 223 362 0.4894831574422054 0.0177718302645834 0.6646272614801982
3 210 209 74 0.4894831574422054 0.0177718302645834 0.6646272614801982
3 78 209 210 0.4894831574422054 0.0177718302645834 0.6646272614801982
3 210 211 298 0.4894831574422054 0.0177718302645834 0.6646272614801982
3 298 78 210 0.4894831574422054 0.0177718302645834 0.6646272614801982
3 377 367 398 0.4894831574422054 0.0177718302645834 0.6646272614801982
3 377 376 367 0.4894831574422054 0.0177718302645834 0.6646272614801982
3 337 376 377 0.4894831574422054 0.0177718302645834 0.6646272614801982
3 398 387 377 0.4894831574422054 0.0177718302645834 0.6646272614801982
3 387 337 377 0.4894831574422054 0.0177718302645834 0.6646272614801982
3 229 97 98 0.4894831574422054 0.0177718302645834 0.6646272614801982
3 287 286 165 0.4894831574422054 0.0177718302645834 0.6646272614801982
3 287 97 286 0.4894831574422054 0.0177718302645834 0.6646272614801982
3 165 196 287 0.4894831574422054 0.0177718302645834 0.6646272614801982
3 287 98 97 0.4894831574422054 0.0177718302645834 0.6646272614801982
3 65 64 229 0.4894831574422054 0.0177718302645834 0.6646272614801982
3 200 64 65 0.4894831574422054 0.0177718302645834 0.6646272614801982
3 211 210 343 0.4894831574422054 0.0177718302645834 0.6646272614801982
3 292 397 346 0.4894831574422054 0.0177718302645834 0.6646272614801982
3 189 190 392 0.4894831574422054 0.0177718302645834 0.6646272614801982
3 392 155 154 0.4894831574422054 0.0177718302645834 0.6646272614801982
3 392 270 189 0.4894831574422054 0.0177718302645834 0.6646272614801982
3 392 154 270 0.4894831574422054 0.0177718302645834 0.6646272614801982
3 393 191 273 0.4894831574422054 0.0177718302645834 0.6646272614801982
3 273 155 393 0.4894831574422054 0.0177718302645834 0.6646272614801982
3 393 190 191 0.4894831574422054 0.0177718302645834 0.6646272614801982
3 393 392 190 0.4894831574422054 0.0177718302645834 0.6646272614801982
3 155 392 393 0.4894831574422054 0.0177718302645834 0.6646272614801982
3 197 161 280 0.4894831574422054 0.0177718302645834 0.6646272614801982
3 154 155 280 0.4894831574422054 0.0177718302645834 0.6646272614801982
3 280 279 154 0.4894831574422054 0.0177718302645834 0.6646272614801982
3 280 161 279 0.4894831574422054 0.0177718302645834 0.6646272614801982
3 196 161 166 0.4894831574422054 0.0177718302645834 0.6646272614801982
3 166 287 196 0.4894831574422054 0.0177718302645834 0.6646272614801982
3 166 161 197 0.4894831574422054 0.0177718302645834 0.6646272614801982
3 212 211 344 0.4894831574422054 0.0177718302645834 0.6646272614801982
3 211 343 344 0.4894831574422054 0.0177718302645834 0.6646272614801982
3 342 210 74 0.4894831574422054 0.0177718302645834 0.6646272614801982
3 342 343 210 0.4894831574422054 0.0177718302645834 0.6646272614801982
3 204 343 342 0.4894831574422054 0.0177718302645834 0.6646272614801982
3 70 340 69 0.4894831574422054 0.0177718302645834 0.6646272614801982
3 70 203 204 0.4894831574422054 0.0177718302645834 0.6646272614801982
3 204 342 70 0.4894831574422054 0.0177718302645834 0.6646272614801982
3 386 397 396 0.4894831574422054 0.0177718302645834 0.6646272614801982
3 397 292 396 0.4894831574422054 0.0177718302645834 0.6646272614801982
3 396 385 386 0.4894831574422054 0.0177718302645834 0.6646272614801982
3 212 344 345 0.4894831574422054 0.0177718302645834 0.6646272614801982
3 345 301 212 0.4894831574422054 0.0177718302645834 0.6646272614801982
3 346 301 345 0.4894831574422054 0.0177718302645834 0.6646272614801982
3 345 292 346 0.4894831574422054 0.0177718302645834 0.6646272614801982
3 205 343 204 0.4894831574422054 0.0177718302645834 0.6646272614801982
3 205 344 343 0.4894831574422054 0.0177718302645834 0.6646272614801982
3 205 345 344 0.4894831574422054 0.0177718302645834 0.6646272614801982
3 341 342 74 0.4894831574422054 0.0177718302645834 0.6646272614801982
3 74 73 341 0.4894831574422054 0.0177718302645834 0.6646272614801982
3 73 340 341 0.4894831574422054 0.0177718302645834 0.6646272614801982
3 340 70 341 0.4894831574422054 0.0177718302645834 0.6646272614801982
3 341 70 342 0.4894831574422054 0.0177718302645834 0.6646272614801982
3 202 70 69 0.4894831574422054 0.0177718302645834 0.6646272614801982
3 203 70 202 0.4894831574422054 0.0177718302645834 0.6646272614801982
3 230 66 65 0.4894831574422054 0.0177718302645834 0.6646272614801982
3 229 98 230 0.4894831574422054 0.0177718302645834 0.6646272614801982
3 230 65 229 0.4894831574422054 0.0177718302645834 0.6646272614801982
3 283 396 292 0.4894831574422054 0.0177718302645834 0.6646272614801982
3 292 291 283 0.4894831574422054 0.0177718302645834 0.6646272614801982
3 291 282 283 0.4894831574422054 0.0177718302645834 0.6646272614801982
3 204 203 232 0.4894831574422054 0.0177718302645834 0.6646272614801982
3 203 202 232 0.4894831574422054 0.0177718302645834 0.6646272614801982
3 233 205 204 0.4894831574422054 0.0177718302645834 0.6646272614801982
3 204 232 233 0.4894831574422054 0.0177718302645834 0.6646272614801982
3 66 202 201 0.4894831574422054 0.0177718302645834 0.6646272614801982
3 200 65 201 0.4894831574422054 0.0177718302645834 0.6646272614801982
3 65 66 201 0.4894831574422054 0.0177718302645834 0.6646272614801982
3 201 68 200 0.4894831574422054 0.0177718302645834 0.6646272614801982
3 69 68 201 0.4894831574422054 0.0177718302645834 0.6646272614801982
3 201 202 69 0.4894831574422054 0.0177718302645834 0.6646272614801982
3 395 283 282 0.4894831574422054 0.0177718302645834 0.6646272614801982
3 273 384 395 0.4894831574422054 0.0177718302645834 0.6646272614801982
3 395 282 273 0.4894831574422054 0.0177718302645834 0.6646272614801982
3 395 384 385 0.4894831574422054 0.0177718302645834 0.6646272614801982
3 385 396 395 0.4894831574422054 0.0177718302645834 0.6646272614801982
3 396 283 395 0.4894831574422054 0.0177718302645834 0.6646272614801982
3 231 202 66 0.4894831574422054 0.0177718302645834 0.6646272614801982
3 231 232 202 0.4894831574422054 0.0177718302645834 0.6646272614801982
3 66 230 231 0.4894831574422054 0.0177718302645834 0.6646272614801982
3 290 282 291 0.4894831574422054 0.0177718302645834 0.6646272614801982
3 291 233 290 0.4894831574422054 0.0177718302645834 0.6646272614801982
3 290 233 232 0.4894831574422054 0.0177718302645834 0.6646272614801982
3 232 231 290 0.4894831574422054 0.0177718302645834 0.6646272614801982
3 234 233 291 0.4894831574422054 0.0177718302645834 0.6646272614801982
3 205 233 234 0.4894831574422054 0.0177718302645834 0.6646272614801982
3 234 291 292 0.4894831574422054 0.0177718302645834 0.6646272614801982
3 292 345 234 0.4894831574422054 0.0177718302645834 0.6646272614801982
3 345 205 234 0.4894831574422054 0.0177718302645834 0.6646272614801982
3 98 287 288 0.4894831574422054 0.0177718302645834 0.6646272614801982
3 287 166 288 0.4894831574422054 0.0177718302645834 0.6646272614801982
3 288 166 197 0.4894831574422054 0.0177718302645834 0.6646272614801982
3 197 167 288 0.4894831574422054 0.0177718302645834 0.6646272614801982
3 281 167 197 0.4894831574422054 0.0177718302645834 0.6646272614801982
3 197 280 281 0.4894831574422054 0.0177718302645834 0.6646272614801982
3 281 280 155 0.4894831574422054 0.0177718302645834 0.6646272614801982
3 281 155 273 0.4894831574422054 0.0177718302645834 0.6646272614801982
3 273 282 281 0.4894831574422054 0.0177718302645834 0.6646272614801982
3 289 290 231 0.4894831574422054 0.0177718302645834 0.6646272614801982
3 99 231 230 0.4894831574422054 0.0177718302645834 0.6646272614801982
3 99 289 231 0.4894831574422054 0.0177718302645834 0.6646272614801982
3 99 230 98 0.4894831574422054 0.0177718302645834 0.6646272614801982
3 98 288 99 0.4894831574422054 0.0177718302645834 0.6646272614801982
3 99 288 167 0.4894831574422054 0.0177718302645834 0.6646272614801982
3 167 289 99 0.4894831574422054 0.0177718302645834 0.6646272614801982
3 282 290 198 0.4894831574422054 0.0177718302645834 0.6646272614801982
3 290 289 198 0.4894831574422054 0.0177718302645834 0.6646272614801982
3 198 281 282 0.4894831574422054 0.0177718302645834 0.6646272614801982
3 167 281 198 0.4894831574422054 0.0177718302645834 0.6646272614801982
3 198 289 167 0.4894831574422054 0.0177718302645834 0.6646272614801982
