OFF
73 62 0


26.437 32.8302 8.7649
26.437 32.8302 8.7649
26.3029 32.8083 8.8085
26.2056 32.7929 8.8405
26.1217 32.7798 8.8683
26.0377 32.7671 8.8962
25.9405 32.7526 8.9288
25.8066 32.7332 8.974
25.6909 32.6973 9.0002
25.5752 32.662 9.0268
25.5752 32.662 9.0268
25.5449 32.5473 8.9627
25.5225 32.4641 8.9165
25.5028 32.3924 8.8767
25.4829 32.3206 8.8371
25.4594 32.2375 8.7913
25.4264 32.1229 8.7285
25.4264 32.1229 8.7285
25.4258 32.1151 8.7235
25.4253 32.1073 8.7185
25.4253 32.1073 8.7185
25.4253 32.1073 8.7185
25.4289 32.048 8.677
25.4326 31.9887 8.6354
25.4363 31.9294 8.5939
25.4399 31.87 8.5523
25.4436 31.8107 8.5108
25.4472 31.7514 8.4692
25.4509 31.6921 8.4277
25.569 31.661 8.3554
25.6537 31.6371 8.3024
25.7378 31.612 8.2489
25.8526 31.5752 8.1741
25.8526 31.5752 8.1741
25.9724 31.6259 8.156
26.0824 31.67 8.1379
26.1846 31.7091 8.1197
26.2807 31.7439 8.1013
26.3719 31.7753 8.0827
26.4596 31.8039 8.0638
26.5447 31.8301 8.0444
26.6282 31.8544 8.0245
26.7109 31.8771 8.0037
26.7937 31.8983 7.982
26.8775 31.9185 7.959
26.9632 31.9376 7.9346
27.0516 31.9558 7.9084
27.144 31.9733 7.88
27.2415 31.99 7.8488
27.3456 32.0061 7.8143
27.4581 32.0213 7.7755
27.5813 32.0358 7.7316
27.5813 32.0358 7.7316
27.5003 32.1164 7.8212
27.4322 32.185 7.8971
27.373 32.2455 7.9635
27.3199 32.3003 8.0236
27.2709 32.3514 8.0793
27.2245 32.4003 8.1325
27.1795 32.4481 8.1843
27.1346 32.4962 8.2362
27.0889 32.5456 8.2894
27.0412 32.5977 8.3452
26.9901 32.6541 8.4055
26.9337 32.7168 8.4722
26.8697 32.7888 8.5486
26.7945 32.8743 8.639
26.7945 32.8743 8.639
26.723 32.8655 8.6641
26.6515 32.8567 8.6893
26.58 32.8479 8.7145
26.5085 32.839 8.7397
26.437 32.8302 8.7649
3 22 23 35 0.12623143994808483 0.2557957285580299 0.2318890164655748
3 11 8 9 0.12623143994808483 0.2557957285580299 0.2318890164655748
3 66 68 65 0.12623143994808483 0.2557957285580299 0.2318890164655748
3 51 53 50 0.12623143994808483 0.2557957285580299 0.2318890164655748
3 50 53 49 0.12623143994808483 0.2557957285580299 0.2318890164655748
3 36 4 15 0.12623143994808483 0.2557957285580299 0.2318890164655748
3 15 22 36 0.12623143994808483 0.2557957285580299 0.2318890164655748
3 36 22 35 0.12623143994808483 0.2557957285580299 0.2318890164655748
3 3 4 37 0.12623143994808483 0.2557957285580299 0.2318890164655748
3 4 36 37 0.12623143994808483 0.2557957285580299 0.2318890164655748
3 55 47 48 0.12623143994808483 0.2557957285580299 0.2318890164655748
3 15 16 18 0.12623143994808483 0.2557957285580299 0.2318890164655748
3 18 22 15 0.12623143994808483 0.2557957285580299 0.2318890164655748
3 31 34 35 0.12623143994808483 0.2557957285580299 0.2318890164655748
3 35 30 31 0.12623143994808483 0.2557957285580299 0.2318890164655748
3 32 34 31 0.12623143994808483 0.2557957285580299 0.2318890164655748
3 35 23 24 0.12623143994808483 0.2557957285580299 0.2318890164655748
3 24 30 35 0.12623143994808483 0.2557957285580299 0.2318890164655748
3 49 53 54 0.12623143994808483 0.2557957285580299 0.2318890164655748
3 55 48 54 0.12623143994808483 0.2557957285580299 0.2318890164655748
3 54 48 49 0.12623143994808483 0.2557957285580299 0.2318890164655748
3 47 57 46 0.12623143994808483 0.2557957285580299 0.2318890164655748
3 56 47 55 0.12623143994808483 0.2557957285580299 0.2318890164655748
3 56 57 47 0.12623143994808483 0.2557957285580299 0.2318890164655748
3 44 45 59 0.12623143994808483 0.2557957285580299 0.2318890164655748
3 60 44 59 0.12623143994808483 0.2557957285580299 0.2318890164655748
3 43 44 60 0.12623143994808483 0.2557957285580299 0.2318890164655748
3 63 41 62 0.12623143994808483 0.2557957285580299 0.2318890164655748
3 22 18 21 0.12623143994808483 0.2557957285580299 0.2318890164655748
3 40 41 63 0.12623143994808483 0.2557957285580299 0.2318890164655748
3 63 64 40 0.12623143994808483 0.2557957285580299 0.2318890164655748
3 13 6 12 0.12623143994808483 0.2557957285580299 0.2318890164655748
3 15 4 5 0.12623143994808483 0.2557957285580299 0.2318890164655748
3 12 6 7 0.12623143994808483 0.2557957285580299 0.2318890164655748
3 8 11 7 0.12623143994808483 0.2557957285580299 0.2318890164655748
3 7 11 12 0.12623143994808483 0.2557957285580299 0.2318890164655748
3 59 45 58 0.12623143994808483 0.2557957285580299 0.2318890164655748
3 45 46 58 0.12623143994808483 0.2557957285580299 0.2318890164655748
3 58 46 57 0.12623143994808483 0.2557957285580299 0.2318890164655748
3 42 62 41 0.12623143994808483 0.2557957285580299 0.2318890164655748
3 43 60 61 0.12623143994808483 0.2557957285580299 0.2318890164655748
3 61 42 43 0.12623143994808483 0.2557957285580299 0.2318890164655748
3 62 42 61 0.12623143994808483 0.2557957285580299 0.2318890164655748
3 30 24 25 0.12623143994808483 0.2557957285580299 0.2318890164655748
3 25 29 30 0.12623143994808483 0.2557957285580299 0.2318890164655748
3 26 29 25 0.12623143994808483 0.2557957285580299 0.2318890164655748
3 15 5 14 0.12623143994808483 0.2557957285580299 0.2318890164655748
3 6 13 14 0.12623143994808483 0.2557957285580299 0.2318890164655748
3 14 5 6 0.12623143994808483 0.2557957285580299 0.2318890164655748
3 28 29 27 0.12623143994808483 0.2557957285580299 0.2318890164655748
3 27 29 26 0.12623143994808483 0.2557957285580299 0.2318890164655748
3 71 40 64 0.12623143994808483 0.2557957285580299 0.2318890164655748
3 2 37 38 0.12623143994808483 0.2557957285580299 0.2318890164655748
3 3 37 2 0.12623143994808483 0.2557957285580299 0.2318890164655748
3 39 2 38 0.12623143994808483 0.2557957285580299 0.2318890164655748
3 0 2 39 0.12623143994808483 0.2557957285580299 0.2318890164655748
3 40 71 39 0.12623143994808483 0.2557957285580299 0.2318890164655748
3 39 71 0 0.12623143994808483 0.2557957285580299 0.2318890164655748
3 70 64 65 0.12623143994808483 0.2557957285580299 0.2318890164655748
3 70 71 64 0.12623143994808483 0.2557957285580299 0.2318890164655748
3 69 65 68 0.12623143994808483 0.2557957285580299 0.2318890164655748
3 69 70 65 0.12623143994808483 0.2557957285580299 0.2318890164655748
