OFF
66 91 0


30.6085 30.6479 11.8565
30.6085 30.6479 11.8565
30.5638 30.6605 11.7228
30.531 30.6702 11.6257
30.5081 30.7121 11.5037
30.5839 30.7746 11.5896
30.6432 30.8248 11.6564
30.694 30.8688 11.7135
30.741 30.9102 11.7661
30.7878 30.9524 11.8184
30.8379 30.9984 11.8743
30.8961 31.053 11.9388
30.9696 31.1238 12.0201
30.9696 31.1238 12.0201
30.894 31.0218 11.9847
30.8388 30.9482 11.9592
30.7909 30.8848 11.9374
30.7427 30.8215 11.9157
30.6865 30.7484 11.8907
30.6085 30.6479 11.8565
30.5081 30.7121 11.5037
30.4967 30.6983 11.4981
30.4853 30.6844 11.4925
30.697 30.8609 11.7337
30.7679 30.9241 11.8129
30.8058 30.9201 11.9184
30.7334 30.8254 11.8852
30.6009 30.7061 11.7418
30.6369 30.7506 11.7603
30.5585 30.7429 11.5775
30.6081 30.7739 11.6506
30.6146 30.7898 11.641
30.6451 30.8053 11.6924
30.6589 30.8277 11.6909
30.6746 30.8308 11.7256
30.8059 30.9588 11.8552
30.7733 30.9187 11.8358
30.9055 31.0522 11.9652
30.8405 30.9809 11.9097
30.8477 30.9754 11.9379
30.8011 30.9293 11.891
30.6916 30.7713 11.8662
30.6966 30.7937 11.8423
30.5762 30.7126 11.6695
30.6204 30.7545 11.7124
30.6637 30.796 11.7545
30.7325 30.8923 11.7734
30.7239 30.8741 11.7808
30.7151 30.8558 11.7883
30.8499 30.9996 11.904
30.8031 30.946 11.8686
30.7552 30.8919 11.8326
30.7696 30.8726 11.9017
30.7484 30.8606 11.8663
30.7273 30.8488 11.831
30.6344 30.6976 11.8406
30.6593 30.7457 11.8252
30.6832 30.7921 11.8103
30.5585 30.7429 11.5775
30.6081 30.7739 11.6506
30.6573 30.8052 11.7233
30.6344 30.6976 11.8406
30.6593 30.7457 11.8252
30.6832 30.7921 11.8103
30.7062 30.8371 11.7959
30.7062 30.8371 11.7959
3 64 45 57 0.7705728675178433 0.9958450827064077 0.867982755212206
3 22 3 21 0.7705728675178433 0.9958450827064077 0.867982755212206
3 21 3 4 0.7705728675178433 0.9958450827064077 0.867982755212206
3 12 11 37 0.7705728675178433 0.9958450827064077 0.867982755212206
3 37 14 12 0.7705728675178433 0.9958450827064077 0.867982755212206
3 11 14 37 0.7705728675178433 0.9958450827064077 0.867982755212206
3 32 30 44 0.7705728675178433 0.9958450827064077 0.867982755212206
3 64 57 42 0.7705728675178433 0.9958450827064077 0.867982755212206
3 0 18 55 0.7705728675178433 0.9958450827064077 0.867982755212206
3 29 5 4 0.7705728675178433 0.9958450827064077 0.867982755212206
3 4 3 29 0.7705728675178433 0.9958450827064077 0.867982755212206
3 31 6 5 0.7705728675178433 0.9958450827064077 0.867982755212206
3 5 30 31 0.7705728675178433 0.9958450827064077 0.867982755212206
3 31 32 6 0.7705728675178433 0.9958450827064077 0.867982755212206
3 30 32 31 0.7705728675178433 0.9958450827064077 0.867982755212206
3 3 2 43 0.7705728675178433 0.9958450827064077 0.867982755212206
3 43 29 3 0.7705728675178433 0.9958450827064077 0.867982755212206
3 44 30 43 0.7705728675178433 0.9958450827064077 0.867982755212206
3 43 30 5 0.7705728675178433 0.9958450827064077 0.867982755212206
3 5 29 43 0.7705728675178433 0.9958450827064077 0.867982755212206
3 52 17 16 0.7705728675178433 0.9958450827064077 0.867982755212206
3 26 17 52 0.7705728675178433 0.9958450827064077 0.867982755212206
3 9 8 24 0.7705728675178433 0.9958450827064077 0.867982755212206
3 64 42 54 0.7705728675178433 0.9958450827064077 0.867982755212206
3 54 42 26 0.7705728675178433 0.9958450827064077 0.867982755212206
3 49 14 11 0.7705728675178433 0.9958450827064077 0.867982755212206
3 11 10 49 0.7705728675178433 0.9958450827064077 0.867982755212206
3 49 10 38 0.7705728675178433 0.9958450827064077 0.867982755212206
3 60 32 44 0.7705728675178433 0.9958450827064077 0.867982755212206
3 62 55 18 0.7705728675178433 0.9958450827064077 0.867982755212206
3 62 42 57 0.7705728675178433 0.9958450827064077 0.867982755212206
3 27 2 0 0.7705728675178433 0.9958450827064077 0.867982755212206
3 0 55 27 0.7705728675178433 0.9958450827064077 0.867982755212206
3 44 43 27 0.7705728675178433 0.9958450827064077 0.867982755212206
3 27 43 2 0.7705728675178433 0.9958450827064077 0.867982755212206
3 36 24 51 0.7705728675178433 0.9958450827064077 0.867982755212206
3 51 52 36 0.7705728675178433 0.9958450827064077 0.867982755212206
3 36 52 40 0.7705728675178433 0.9958450827064077 0.867982755212206
3 9 24 36 0.7705728675178433 0.9958450827064077 0.867982755212206
3 47 54 51 0.7705728675178433 0.9958450827064077 0.867982755212206
3 53 52 51 0.7705728675178433 0.9958450827064077 0.867982755212206
3 51 54 53 0.7705728675178433 0.9958450827064077 0.867982755212206
3 26 52 53 0.7705728675178433 0.9958450827064077 0.867982755212206
3 53 54 26 0.7705728675178433 0.9958450827064077 0.867982755212206
3 38 10 35 0.7705728675178433 0.9958450827064077 0.867982755212206
3 35 10 9 0.7705728675178433 0.9958450827064077 0.867982755212206
3 14 49 39 0.7705728675178433 0.9958450827064077 0.867982755212206
3 39 49 38 0.7705728675178433 0.9958450827064077 0.867982755212206
3 39 15 14 0.7705728675178433 0.9958450827064077 0.867982755212206
3 38 15 39 0.7705728675178433 0.9958450827064077 0.867982755212206
3 38 40 25 0.7705728675178433 0.9958450827064077 0.867982755212206
3 25 15 38 0.7705728675178433 0.9958450827064077 0.867982755212206
3 16 15 25 0.7705728675178433 0.9958450827064077 0.867982755212206
3 25 52 16 0.7705728675178433 0.9958450827064077 0.867982755212206
3 40 52 25 0.7705728675178433 0.9958450827064077 0.867982755212206
3 34 60 45 0.7705728675178433 0.9958450827064077 0.867982755212206
3 34 45 64 0.7705728675178433 0.9958450827064077 0.867982755212206
3 64 23 34 0.7705728675178433 0.9958450827064077 0.867982755212206
3 34 23 7 0.7705728675178433 0.9958450827064077 0.867982755212206
3 41 62 18 0.7705728675178433 0.9958450827064077 0.867982755212206
3 42 62 41 0.7705728675178433 0.9958450827064077 0.867982755212206
3 26 42 41 0.7705728675178433 0.9958450827064077 0.867982755212206
3 18 17 41 0.7705728675178433 0.9958450827064077 0.867982755212206
3 41 17 26 0.7705728675178433 0.9958450827064077 0.867982755212206
3 28 57 45 0.7705728675178433 0.9958450827064077 0.867982755212206
3 28 62 57 0.7705728675178433 0.9958450827064077 0.867982755212206
3 28 60 44 0.7705728675178433 0.9958450827064077 0.867982755212206
3 45 60 28 0.7705728675178433 0.9958450827064077 0.867982755212206
3 44 27 28 0.7705728675178433 0.9958450827064077 0.867982755212206
3 55 62 28 0.7705728675178433 0.9958450827064077 0.867982755212206
3 28 27 55 0.7705728675178433 0.9958450827064077 0.867982755212206
3 46 47 51 0.7705728675178433 0.9958450827064077 0.867982755212206
3 46 24 8 0.7705728675178433 0.9958450827064077 0.867982755212206
3 51 24 46 0.7705728675178433 0.9958450827064077 0.867982755212206
3 23 47 46 0.7705728675178433 0.9958450827064077 0.867982755212206
3 46 8 7 0.7705728675178433 0.9958450827064077 0.867982755212206
3 7 23 46 0.7705728675178433 0.9958450827064077 0.867982755212206
3 64 54 48 0.7705728675178433 0.9958450827064077 0.867982755212206
3 54 47 48 0.7705728675178433 0.9958450827064077 0.867982755212206
3 48 23 64 0.7705728675178433 0.9958450827064077 0.867982755212206
3 48 47 23 0.7705728675178433 0.9958450827064077 0.867982755212206
3 50 36 40 0.7705728675178433 0.9958450827064077 0.867982755212206
3 50 40 38 0.7705728675178433 0.9958450827064077 0.867982755212206
3 38 35 50 0.7705728675178433 0.9958450827064077 0.867982755212206
3 9 36 50 0.7705728675178433 0.9958450827064077 0.867982755212206
3 50 35 9 0.7705728675178433 0.9958450827064077 0.867982755212206
3 7 6 33 0.7705728675178433 0.9958450827064077 0.867982755212206
3 33 34 7 0.7705728675178433 0.9958450827064077 0.867982755212206
3 6 32 33 0.7705728675178433 0.9958450827064077 0.867982755212206
3 32 60 33 0.7705728675178433 0.9958450827064077 0.867982755212206
3 60 34 33 0.7705728675178433 0.9958450827064077 0.867982755212206
