OFF
72 66 0


28.0094 31.8921 7.2873
28.0094 31.8921 7.2873
28.0399 31.8917 7.2128
28.0705 31.8913 7.1382
28.1011 31.8909 7.0637
28.1316 31.8904 6.9892
28.1622 31.89 6.9147
28.1928 31.8896 6.8402
28.2234 31.8892 6.7657
28.2539 31.8888 6.6911
28.2845 31.8884 6.6166
28.3151 31.888 6.5421
28.3151 31.888 6.5421
28.4099 31.9323 6.6183
28.499 31.9738 6.6883
28.5836 32.0129 6.7531
28.6645 32.05 6.8136
28.7424 32.0856 6.8702
28.818 32.1198 6.9236
28.8918 32.153 6.9742
28.9643 32.1854 7.0223
29.0359 32.2172 7.0682
29.1071 32.2486 7.1123
29.1783 32.2796 7.1546
29.2499 32.3106 7.1954
29.3221 32.3416 7.2348
29.3954 32.3728 7.2729
29.4701 32.4043 7.3099
29.5466 32.4363 7.3457
29.6253 32.4689 7.3805
29.7065 32.5022 7.4142
29.7907 32.5364 7.447
29.8784 32.5716 7.4788
29.9701 32.6082 7.5098
30.0664 32.6462 7.5398
30.1681 32.686 7.5691
30.2759 32.7277 7.5975
30.3908 32.7719 7.6252
30.3908 32.7719 7.6252
30.3889 32.7921 7.7662
30.3883 32.8075 7.871
30.3883 32.821 7.9621
30.3889 32.8347 8.0533
30.3902 32.8507 8.1579
30.393 32.8726 8.2987
30.2761 32.8225 8.2357
30.168 32.7764 8.1784
30.0673 32.7335 8.126
29.9725 32.6933 8.0776
29.8828 32.6554 8.0326
29.7973 32.6193 7.9905
29.7152 32.5849 7.9509
29.6359 32.5517 7.9134
29.5589 32.5195 7.8777
29.4835 32.4882 7.8435
29.4095 32.4575 7.8105
29.3362 32.4272 7.7786
29.2634 32.3972 7.7474
29.1906 32.3673 7.7169
29.1174 32.3374 7.6868
29.0434 32.3072 7.657
28.9682 32.2766 7.6272
28.8913 32.2453 7.5974
28.8121 32.2133 7.5673
28.7302 32.1802 7.5367
28.6449 32.1459 7.5054
28.5555 32.1099 7.4732
28.461 32.0721 7.4399
28.3606 32.0319 7.405
28.2529 31.9889 7.3682
28.1364 31.9426 7.3292
28.0094 31.8921 7.2873
3 14 9 13 0.13681385578354377 0.5418235867820109 0.6164156504786574
3 60 61 24 0.13681385578354377 0.5418235867820109 0.6164156504786574
3 35 40 48 0.13681385578354377 0.5418235867820109 0.6164156504786574
3 46 41 42 0.13681385578354377 0.5418235867820109 0.6164156504786574
3 32 33 51 0.13681385578354377 0.5418235867820109 0.6164156504786574
3 56 27 28 0.13681385578354377 0.5418235867820109 0.6164156504786574
3 31 32 52 0.13681385578354377 0.5418235867820109 0.6164156504786574
3 52 32 51 0.13681385578354377 0.5418235867820109 0.6164156504786574
3 2 70 0 0.13681385578354377 0.5418235867820109 0.6164156504786574
3 2 3 70 0.13681385578354377 0.5418235867820109 0.6164156504786574
3 70 3 4 0.13681385578354377 0.5418235867820109 0.6164156504786574
3 7 15 6 0.13681385578354377 0.5418235867820109 0.6164156504786574
3 14 15 7 0.13681385578354377 0.5418235867820109 0.6164156504786574
3 6 15 16 0.13681385578354377 0.5418235867820109 0.6164156504786574
3 59 26 58 0.13681385578354377 0.5418235867820109 0.6164156504786574
3 35 48 49 0.13681385578354377 0.5418235867820109 0.6164156504786574
3 47 41 46 0.13681385578354377 0.5418235867820109 0.6164156504786574
3 47 40 41 0.13681385578354377 0.5418235867820109 0.6164156504786574
3 47 48 40 0.13681385578354377 0.5418235867820109 0.6164156504786574
3 64 20 21 0.13681385578354377 0.5418235867820109 0.6164156504786574
3 35 49 34 0.13681385578354377 0.5418235867820109 0.6164156504786574
3 39 40 35 0.13681385578354377 0.5418235867820109 0.6164156504786574
3 35 36 39 0.13681385578354377 0.5418235867820109 0.6164156504786574
3 39 36 37 0.13681385578354377 0.5418235867820109 0.6164156504786574
3 18 67 17 0.13681385578354377 0.5418235867820109 0.6164156504786574
3 18 66 67 0.13681385578354377 0.5418235867820109 0.6164156504786574
3 65 20 64 0.13681385578354377 0.5418235867820109 0.6164156504786574
3 45 43 44 0.13681385578354377 0.5418235867820109 0.6164156504786574
3 46 42 45 0.13681385578354377 0.5418235867820109 0.6164156504786574
3 45 42 43 0.13681385578354377 0.5418235867820109 0.6164156504786574
3 55 56 28 0.13681385578354377 0.5418235867820109 0.6164156504786574
3 31 52 53 0.13681385578354377 0.5418235867820109 0.6164156504786574
3 53 30 31 0.13681385578354377 0.5418235867820109 0.6164156504786574
3 54 30 53 0.13681385578354377 0.5418235867820109 0.6164156504786574
3 8 9 14 0.13681385578354377 0.5418235867820109 0.6164156504786574
3 14 7 8 0.13681385578354377 0.5418235867820109 0.6164156504786574
3 68 5 6 0.13681385578354377 0.5418235867820109 0.6164156504786574
3 6 16 68 0.13681385578354377 0.5418235867820109 0.6164156504786574
3 17 67 68 0.13681385578354377 0.5418235867820109 0.6164156504786574
3 68 16 17 0.13681385578354377 0.5418235867820109 0.6164156504786574
3 26 59 25 0.13681385578354377 0.5418235867820109 0.6164156504786574
3 25 60 24 0.13681385578354377 0.5418235867820109 0.6164156504786574
3 25 59 60 0.13681385578354377 0.5418235867820109 0.6164156504786574
3 51 33 50 0.13681385578354377 0.5418235867820109 0.6164156504786574
3 33 34 50 0.13681385578354377 0.5418235867820109 0.6164156504786574
3 50 34 49 0.13681385578354377 0.5418235867820109 0.6164156504786574
3 24 61 23 0.13681385578354377 0.5418235867820109 0.6164156504786574
3 61 62 23 0.13681385578354377 0.5418235867820109 0.6164156504786574
3 23 62 22 0.13681385578354377 0.5418235867820109 0.6164156504786574
3 63 21 22 0.13681385578354377 0.5418235867820109 0.6164156504786574
3 22 62 63 0.13681385578354377 0.5418235867820109 0.6164156504786574
3 64 21 63 0.13681385578354377 0.5418235867820109 0.6164156504786574
3 20 65 19 0.13681385578354377 0.5418235867820109 0.6164156504786574
3 66 18 19 0.13681385578354377 0.5418235867820109 0.6164156504786574
3 19 65 66 0.13681385578354377 0.5418235867820109 0.6164156504786574
3 29 30 54 0.13681385578354377 0.5418235867820109 0.6164156504786574
3 54 55 29 0.13681385578354377 0.5418235867820109 0.6164156504786574
3 29 55 28 0.13681385578354377 0.5418235867820109 0.6164156504786574
3 27 56 57 0.13681385578354377 0.5418235867820109 0.6164156504786574
3 58 26 57 0.13681385578354377 0.5418235867820109 0.6164156504786574
3 26 27 57 0.13681385578354377 0.5418235867820109 0.6164156504786574
3 11 13 10 0.13681385578354377 0.5418235867820109 0.6164156504786574
3 10 13 9 0.13681385578354377 0.5418235867820109 0.6164156504786574
3 69 4 5 0.13681385578354377 0.5418235867820109 0.6164156504786574
3 5 68 69 0.13681385578354377 0.5418235867820109 0.6164156504786574
3 70 4 69 0.13681385578354377 0.5418235867820109 0.6164156504786574
