OFF
39 34 0


30.0303 31.3851 6.1424
30.0303 31.3851 6.1424
29.9449 31.3664 6.1211
29.8596 31.3477 6.0998
29.7742 31.329 6.0785
29.6889 31.3103 6.0572
29.6035 31.2916 6.0359
29.5182 31.2729 6.0146
29.4328 31.2542 5.9933
29.3475 31.2355 5.972
29.2621 31.2167 5.9507
29.1768 31.198 5.9294
29.0914 31.1793 5.9081
29.196 31.1936 5.8185
29.285 31.2055 5.7395
29.3633 31.2159 5.6678
29.434 31.225 5.6009
29.4997 31.2334 5.5369
29.5621 31.2412 5.4742
29.623 31.2487 5.4112
29.6836 31.256 5.3465
29.7454 31.2633 5.2783
29.8098 31.2707 5.2046
29.8785 31.2784 5.123
29.9534 31.2864 5.0301
30.037 31.2951 4.9213
30.037 31.2951 4.9213
30.0215 31.3017 5.052
30.0107 31.308 5.165
30.0033 31.3141 5.2659
29.9984 31.3201 5.3587
29.9953 31.326 5.4466
29.9939 31.3322 5.5322
29.9941 31.3386 5.6178
29.996 31.3456 5.7058
29.9998 31.3533 5.7987
30.0061 31.3621 5.8996
30.0158 31.3725 6.0124
30.0303 31.3851 6.1424
3 33 34 18 0.623141997026153 0.13579481813856042 0.22736295089011505
3 19 20 32 0.623141997026153 0.13579481813856042 0.22736295089011505
3 19 33 18 0.623141997026153 0.13579481813856042 0.22736295089011505
3 32 33 19 0.623141997026153 0.13579481813856042 0.22736295089011505
3 8 9 15 0.623141997026153 0.13579481813856042 0.22736295089011505
3 6 16 17 0.623141997026153 0.13579481813856042 0.22736295089011505
3 18 34 17 0.623141997026153 0.13579481813856042 0.22736295089011505
3 17 34 6 0.623141997026153 0.13579481813856042 0.22736295089011505
3 15 9 14 0.623141997026153 0.13579481813856042 0.22736295089011505
3 9 10 14 0.623141997026153 0.13579481813856042 0.22736295089011505
3 14 10 13 0.623141997026153 0.13579481813856042 0.22736295089011505
3 23 29 22 0.623141997026153 0.13579481813856042 0.22736295089011505
3 22 29 30 0.623141997026153 0.13579481813856042 0.22736295089011505
3 27 24 25 0.623141997026153 0.13579481813856042 0.22736295089011505
3 12 13 11 0.623141997026153 0.13579481813856042 0.22736295089011505
3 13 10 11 0.623141997026153 0.13579481813856042 0.22736295089011505
3 15 16 7 0.623141997026153 0.13579481813856042 0.22736295089011505
3 7 8 15 0.623141997026153 0.13579481813856042 0.22736295089011505
3 7 16 6 0.623141997026153 0.13579481813856042 0.22736295089011505
3 4 36 3 0.623141997026153 0.13579481813856042 0.22736295089011505
3 4 5 35 0.623141997026153 0.13579481813856042 0.22736295089011505
3 35 36 4 0.623141997026153 0.13579481813856042 0.22736295089011505
3 6 34 35 0.623141997026153 0.13579481813856042 0.22736295089011505
3 35 5 6 0.623141997026153 0.13579481813856042 0.22736295089011505
3 22 30 21 0.623141997026153 0.13579481813856042 0.22736295089011505
3 32 20 31 0.623141997026153 0.13579481813856042 0.22736295089011505
3 20 21 31 0.623141997026153 0.13579481813856042 0.22736295089011505
3 31 21 30 0.623141997026153 0.13579481813856042 0.22736295089011505
3 29 23 28 0.623141997026153 0.13579481813856042 0.22736295089011505
3 28 23 24 0.623141997026153 0.13579481813856042 0.22736295089011505
3 24 27 28 0.623141997026153 0.13579481813856042 0.22736295089011505
3 2 3 37 0.623141997026153 0.13579481813856042 0.22736295089011505
3 37 3 36 0.623141997026153 0.13579481813856042 0.22736295089011505
3 0 2 37 0.623141997026153 0.13579481813856042 0.22736295089011505
