OFF
136 222 0


30.09 35.2892 8.9989
30.09 35.2892 8.9989
29.9496 35.2949 9.0324
29.8347 35.3002 9.0601
29.7355 35.3054 9.0843
29.6459 35.3105 9.1064
29.5616 35.3158 9.1275
29.4789 35.3214 9.1482
29.3946 35.3275 9.1696
29.3053 35.3344 9.1925
29.2067 35.3426 9.2181
29.0926 35.3528 9.248
28.9635 35.3734 9.2099
28.9585 35.3698 9.2474
28.9537 35.3663 9.2849
28.9635 35.3734 9.2099
28.9635 35.3734 9.2099
29.0791 35.3664 9.1424
29.1781 35.3616 9.0813
29.2656 35.3583 9.0245
29.3453 35.3562 8.9704
29.4198 35.355 8.9176
29.4913 35.3547 8.8647
29.5619 35.3551 8.8103
29.6332 35.3564 8.753
29.707 35.3586 8.6909
29.7855 35.3621 8.6219
29.8709 35.3674 8.5428
29.9661 35.375 8.4495
29.9978 35.3528 8.5826
30.0202 35.3372 8.6795
30.04 35.3236 8.7674
30.0613 35.3089 8.8646
30.09 35.2892 8.9989
29.0617 35.3583 9.2328
29.0671 35.3645 9.1719
29.7044 35.3102 9.0668
29.674 35.3149 9.0497
29.5611 35.3188 9.1027
29.5606 35.3217 9.0783
29.4231 35.3282 9.1378
29.451 35.329 9.1064
29.268 35.3402 9.178
29.3281 35.3381 9.1385
29.3799 35.3523 8.9728
29.4149 35.3484 8.9752
29.5021 35.3512 8.8838
29.513 35.3477 8.9033
29.6214 35.3525 8.7898
29.6094 35.3486 8.8273
29.9565 35.324 8.806
29.8748 35.3249 8.8433
29.879 35.3012 9.0241
29.8109 35.3076 9.0159
29.745 35.314 9.0079
29.0671 35.3645 9.1719
29.1681 35.3566 9.1345
29.2672 35.3496 9.0972
29.1606 35.3596 9.1164
29.241 35.3533 9.0904
29.3207 35.3476 9.0643
29.3137 35.3538 9.0182
29.3621 35.3494 9.0118
29.4106 35.3452 9.0052
29.7497 35.3567 8.6799
29.7133 35.3516 8.7386
29.6761 35.3466 8.7983
29.9009 35.3661 8.5371
29.8352 35.358 8.6244
29.7688 35.3507 8.7122
29.9252 35.3478 8.6504
29.8529 35.3436 8.7174
29.7805 35.34 8.784
29.9919 35.2963 8.9969
29.8984 35.3034 8.9947
29.8088 35.3107 8.9924
29.7856 35.3058 9.0469
29.7378 35.3113 9.0339
29.6914 35.3169 9.0212
29.6461 35.3224 9.0088
29.4927 35.3233 9.12
29.5063 35.3253 9.0921
29.5197 35.3272 9.0647
29.5329 35.3292 9.0376
29.1745 35.3481 9.2026
29.2543 35.344 9.1581
29.3322 35.3405 9.1142
29.4087 35.3375 9.0708
29.2415 35.3561 9.0656
29.3048 35.351 9.0499
29.3679 35.3462 9.0339
29.4312 35.3416 9.0177
29.4421 35.3514 8.9284
29.4647 35.3478 8.9393
29.4877 35.3442 8.9504
29.511 35.3406 8.9617
29.6837 35.3541 8.7377
29.6598 35.3498 8.7852
29.6355 35.3455 8.8335
29.6105 35.3413 8.8828
29.942 35.3351 8.7323
29.8648 35.3336 8.784
29.7882 35.3326 8.8348
29.7119 35.3323 8.885
29.6307 35.3144 9.0852
29.6157 35.3183 9.0643
29.6011 35.3221 9.0438
29.5867 35.3259 9.0237
29.5725 35.3296 9.004
29.3493 35.3337 9.1568
29.3925 35.3332 9.1216
29.4349 35.333 9.0868
29.4767 35.3329 9.0524
29.5179 35.333 9.0184
29.5614 35.3515 8.838
29.5609 35.3479 8.8663
29.5604 35.3443 8.895
29.5598 35.3407 8.9243
29.5592 35.337 8.9542
29.8214 35.3606 8.6141
29.7712 35.3542 8.6859
29.7201 35.3483 8.7584
29.6679 35.3429 8.8321
29.6142 35.3379 8.9074
29.9719 35.3121 8.8867
29.8852 35.3156 8.9078
29.8009 35.3195 8.9281
29.7186 35.3237 8.9476
29.638 35.3283 8.9664
29.9919 35.2963 8.9969
29.8984 35.3034 8.9947
29.8088 35.3107 8.9924
29.7226 35.3181 8.99
29.6393 35.3256 8.9874
29.5587 35.3333 8.9846
29.5587 35.3333 8.9846
3 14 11 34 0.4132183163978298 0.6497530260492688 0.4559105266822313
3 73 2 0 0.4132183163978298 0.6497530260492688 0.4559105266822313
3 101 51 50 0.4132183163978298 0.6497530260492688 0.4559105266822313
3 102 51 101 0.4132183163978298 0.6497530260492688 0.4559105266822313
3 28 67 29 0.4132183163978298 0.6497530260492688 0.4559105266822313
3 29 70 30 0.4132183163978298 0.6497530260492688 0.4559105266822313
3 67 70 29 0.4132183163978298 0.6497530260492688 0.4559105266822313
3 11 10 84 0.4132183163978298 0.6497530260492688 0.4559105266822313
3 14 34 13 0.4132183163978298 0.6497530260492688 0.4559105266822313
3 13 34 15 0.4132183163978298 0.6497530260492688 0.4559105266822313
3 35 34 11 0.4132183163978298 0.6497530260492688 0.4559105266822313
3 11 84 35 0.4132183163978298 0.6497530260492688 0.4559105266822313
3 35 84 17 0.4132183163978298 0.6497530260492688 0.4559105266822313
3 35 17 15 0.4132183163978298 0.6497530260492688 0.4559105266822313
3 15 34 35 0.4132183163978298 0.6497530260492688 0.4559105266822313
3 112 81 82 0.4132183163978298 0.6497530260492688 0.4559105266822313
3 82 113 112 0.4132183163978298 0.6497530260492688 0.4559105266822313
3 83 113 82 0.4132183163978298 0.6497530260492688 0.4559105266822313
3 41 81 112 0.4132183163978298 0.6497530260492688 0.4559105266822313
3 40 7 41 0.4132183163978298 0.6497530260492688 0.4559105266822313
3 112 113 91 0.4132183163978298 0.6497530260492688 0.4559105266822313
3 20 19 61 0.4132183163978298 0.6497530260492688 0.4559105266822313
3 30 70 100 0.4132183163978298 0.6497530260492688 0.4559105266822313
3 101 50 100 0.4132183163978298 0.6497530260492688 0.4559105266822313
3 30 100 31 0.4132183163978298 0.6497530260492688 0.4559105266822313
3 31 100 50 0.4132183163978298 0.6497530260492688 0.4559105266822313
3 124 51 125 0.4132183163978298 0.6497530260492688 0.4559105266822313
3 124 50 51 0.4132183163978298 0.6497530260492688 0.4559105266822313
3 108 113 83 0.4132183163978298 0.6497530260492688 0.4559105266822313
3 52 131 53 0.4132183163978298 0.6497530260492688 0.4559105266822313
3 77 4 76 0.4132183163978298 0.6497530260492688 0.4559105266822313
3 88 19 18 0.4132183163978298 0.6497530260492688 0.4559105266822313
3 24 23 48 0.4132183163978298 0.6497530260492688 0.4559105266822313
3 48 23 49 0.4132183163978298 0.6497530260492688 0.4559105266822313
3 115 47 116 0.4132183163978298 0.6497530260492688 0.4559105266822313
3 22 21 92 0.4132183163978298 0.6497530260492688 0.4559105266822313
3 26 25 64 0.4132183163978298 0.6497530260492688 0.4559105266822313
3 64 25 69 0.4132183163978298 0.6497530260492688 0.4559105266822313
3 72 102 101 0.4132183163978298 0.6497530260492688 0.4559105266822313
3 71 72 101 0.4132183163978298 0.6497530260492688 0.4559105266822313
3 69 72 71 0.4132183163978298 0.6497530260492688 0.4559105266822313
3 70 68 71 0.4132183163978298 0.6497530260492688 0.4559105266822313
3 101 100 71 0.4132183163978298 0.6497530260492688 0.4559105266822313
3 71 100 70 0.4132183163978298 0.6497530260492688 0.4559105266822313
3 26 68 119 0.4132183163978298 0.6497530260492688 0.4559105266822313
3 27 70 67 0.4132183163978298 0.6497530260492688 0.4559105266822313
3 27 68 70 0.4132183163978298 0.6497530260492688 0.4559105266822313
3 27 119 68 0.4132183163978298 0.6497530260492688 0.4559105266822313
3 26 119 27 0.4132183163978298 0.6497530260492688 0.4559105266822313
3 27 67 28 0.4132183163978298 0.6497530260492688 0.4559105266822313
3 85 84 10 0.4132183163978298 0.6497530260492688 0.4559105266822313
3 81 41 80 0.4132183163978298 0.6497530260492688 0.4559105266822313
3 80 41 7 0.4132183163978298 0.6497530260492688 0.4559105266822313
3 6 81 80 0.4132183163978298 0.6497530260492688 0.4559105266822313
3 80 7 6 0.4132183163978298 0.6497530260492688 0.4559105266822313
3 90 87 63 0.4132183163978298 0.6497530260492688 0.4559105266822313
3 63 87 91 0.4132183163978298 0.6497530260492688 0.4559105266822313
3 32 73 0 0.4132183163978298 0.6497530260492688 0.4559105266822313
3 32 124 73 0.4132183163978298 0.6497530260492688 0.4559105266822313
3 32 31 50 0.4132183163978298 0.6497530260492688 0.4559105266822313
3 50 124 32 0.4132183163978298 0.6497530260492688 0.4559105266822313
3 113 108 134 0.4132183163978298 0.6497530260492688 0.4559105266822313
3 134 128 118 0.4132183163978298 0.6497530260492688 0.4559105266822313
3 108 128 134 0.4132183163978298 0.6497530260492688 0.4559105266822313
3 36 4 77 0.4132183163978298 0.6497530260492688 0.4559105266822313
3 105 37 79 0.4132183163978298 0.6497530260492688 0.4559105266822313
3 125 131 74 0.4132183163978298 0.6497530260492688 0.4559105266822313
3 131 52 74 0.4132183163978298 0.6497530260492688 0.4559105266822313
3 74 52 2 0.4132183163978298 0.6497530260492688 0.4559105266822313
3 2 73 74 0.4132183163978298 0.6497530260492688 0.4559105266822313
3 74 124 125 0.4132183163978298 0.6497530260492688 0.4559105266822313
3 73 124 74 0.4132183163978298 0.6497530260492688 0.4559105266822313
3 3 76 4 0.4132183163978298 0.6497530260492688 0.4559105266822313
3 2 52 3 0.4132183163978298 0.6497530260492688 0.4559105266822313
3 3 52 53 0.4132183163978298 0.6497530260492688 0.4559105266822313
3 53 76 3 0.4132183163978298 0.6497530260492688 0.4559105266822313
3 59 88 18 0.4132183163978298 0.6497530260492688 0.4559105266822313
3 57 88 59 0.4132183163978298 0.6497530260492688 0.4559105266822313
3 59 85 57 0.4132183163978298 0.6497530260492688 0.4559105266822313
3 90 61 60 0.4132183163978298 0.6497530260492688 0.4559105266822313
3 60 87 90 0.4132183163978298 0.6497530260492688 0.4559105266822313
3 86 87 60 0.4132183163978298 0.6497530260492688 0.4559105266822313
3 57 86 60 0.4132183163978298 0.6497530260492688 0.4559105266822313
3 95 134 118 0.4132183163978298 0.6497530260492688 0.4559105266822313
3 113 134 95 0.4132183163978298 0.6497530260492688 0.4559105266822313
3 116 47 117 0.4132183163978298 0.6497530260492688 0.4559105266822313
3 117 95 118 0.4132183163978298 0.6497530260492688 0.4559105266822313
3 47 95 117 0.4132183163978298 0.6497530260492688 0.4559105266822313
3 133 128 108 0.4132183163978298 0.6497530260492688 0.4559105266822313
3 128 127 103 0.4132183163978298 0.6497530260492688 0.4559105266822313
3 49 23 114 0.4132183163978298 0.6497530260492688 0.4559105266822313
3 114 115 49 0.4132183163978298 0.6497530260492688 0.4559105266822313
3 114 23 22 0.4132183163978298 0.6497530260492688 0.4559105266822313
3 22 115 114 0.4132183163978298 0.6497530260492688 0.4559105266822313
3 46 115 22 0.4132183163978298 0.6497530260492688 0.4559105266822313
3 47 115 46 0.4132183163978298 0.6497530260492688 0.4559105266822313
3 93 47 46 0.4132183163978298 0.6497530260492688 0.4559105266822313
3 22 92 46 0.4132183163978298 0.6497530260492688 0.4559105266822313
3 46 92 93 0.4132183163978298 0.6497530260492688 0.4559105266822313
3 26 64 120 0.4132183163978298 0.6497530260492688 0.4559105266822313
3 120 64 69 0.4132183163978298 0.6497530260492688 0.4559105266822313
3 120 68 26 0.4132183163978298 0.6497530260492688 0.4559105266822313
3 69 71 120 0.4132183163978298 0.6497530260492688 0.4559105266822313
3 120 71 68 0.4132183163978298 0.6497530260492688 0.4559105266822313
3 121 72 69 0.4132183163978298 0.6497530260492688 0.4559105266822313
3 42 10 9 0.4132183163978298 0.6497530260492688 0.4559105266822313
3 42 85 10 0.4132183163978298 0.6497530260492688 0.4559105266822313
3 84 85 56 0.4132183163978298 0.6497530260492688 0.4559105266822313
3 17 84 56 0.4132183163978298 0.6497530260492688 0.4559105266822313
3 56 59 18 0.4132183163978298 0.6497530260492688 0.4559105266822313
3 85 59 56 0.4132183163978298 0.6497530260492688 0.4559105266822313
3 40 41 111 0.4132183163978298 0.6497530260492688 0.4559105266822313
3 111 41 112 0.4132183163978298 0.6497530260492688 0.4559105266822313
3 112 91 111 0.4132183163978298 0.6497530260492688 0.4559105266822313
3 91 87 111 0.4132183163978298 0.6497530260492688 0.4559105266822313
3 90 63 62 0.4132183163978298 0.6497530260492688 0.4559105266822313
3 20 61 62 0.4132183163978298 0.6497530260492688 0.4559105266822313
3 62 61 90 0.4132183163978298 0.6497530260492688 0.4559105266822313
3 45 92 21 0.4132183163978298 0.6497530260492688 0.4559105266822313
3 93 92 45 0.4132183163978298 0.6497530260492688 0.4559105266822313
3 45 63 91 0.4132183163978298 0.6497530260492688 0.4559105266822313
3 106 105 79 0.4132183163978298 0.6497530260492688 0.4559105266822313
3 5 36 37 0.4132183163978298 0.6497530260492688 0.4559105266822313
3 4 36 5 0.4132183163978298 0.6497530260492688 0.4559105266822313
3 9 109 43 0.4132183163978298 0.6497530260492688 0.4559105266822313
3 43 109 86 0.4132183163978298 0.6497530260492688 0.4559105266822313
3 43 42 9 0.4132183163978298 0.6497530260492688 0.4559105266822313
3 85 42 43 0.4132183163978298 0.6497530260492688 0.4559105266822313
3 43 86 57 0.4132183163978298 0.6497530260492688 0.4559105266822313
3 57 85 43 0.4132183163978298 0.6497530260492688 0.4559105266822313
3 8 7 40 0.4132183163978298 0.6497530260492688 0.4559105266822313
3 8 109 9 0.4132183163978298 0.6497530260492688 0.4559105266822313
3 89 61 19 0.4132183163978298 0.6497530260492688 0.4559105266822313
3 89 60 61 0.4132183163978298 0.6497530260492688 0.4559105266822313
3 57 60 89 0.4132183163978298 0.6497530260492688 0.4559105266822313
3 19 88 89 0.4132183163978298 0.6497530260492688 0.4559105266822313
3 89 88 57 0.4132183163978298 0.6497530260492688 0.4559105266822313
3 94 47 93 0.4132183163978298 0.6497530260492688 0.4559105266822313
3 94 95 47 0.4132183163978298 0.6497530260492688 0.4559105266822313
3 93 45 94 0.4132183163978298 0.6497530260492688 0.4559105266822313
3 94 45 91 0.4132183163978298 0.6497530260492688 0.4559105266822313
3 94 91 113 0.4132183163978298 0.6497530260492688 0.4559105266822313
3 113 95 94 0.4132183163978298 0.6497530260492688 0.4559105266822313
3 126 131 125 0.4132183163978298 0.6497530260492688 0.4559105266822313
3 102 103 126 0.4132183163978298 0.6497530260492688 0.4559105266822313
3 126 103 127 0.4132183163978298 0.6497530260492688 0.4559105266822313
3 125 51 126 0.4132183163978298 0.6497530260492688 0.4559105266822313
3 51 102 126 0.4132183163978298 0.6497530260492688 0.4559105266822313
3 132 127 128 0.4132183163978298 0.6497530260492688 0.4559105266822313
3 128 133 132 0.4132183163978298 0.6497530260492688 0.4559105266822313
3 98 48 49 0.4132183163978298 0.6497530260492688 0.4559105266822313
3 69 25 65 0.4132183163978298 0.6497530260492688 0.4559105266822313
3 65 121 69 0.4132183163978298 0.6497530260492688 0.4559105266822313
3 24 48 97 0.4132183163978298 0.6497530260492688 0.4559105266822313
3 48 98 97 0.4132183163978298 0.6497530260492688 0.4559105266822313
3 18 17 58 0.4132183163978298 0.6497530260492688 0.4559105266822313
3 58 56 18 0.4132183163978298 0.6497530260492688 0.4559105266822313
3 17 56 58 0.4132183163978298 0.6497530260492688 0.4559105266822313
3 40 111 110 0.4132183163978298 0.6497530260492688 0.4559105266822313
3 110 111 87 0.4132183163978298 0.6497530260492688 0.4559105266822313
3 110 87 86 0.4132183163978298 0.6497530260492688 0.4559105266822313
3 86 109 110 0.4132183163978298 0.6497530260492688 0.4559105266822313
3 110 8 40 0.4132183163978298 0.6497530260492688 0.4559105266822313
3 109 8 110 0.4132183163978298 0.6497530260492688 0.4559105266822313
3 44 21 20 0.4132183163978298 0.6497530260492688 0.4559105266822313
3 44 45 21 0.4132183163978298 0.6497530260492688 0.4559105266822313
3 20 62 44 0.4132183163978298 0.6497530260492688 0.4559105266822313
3 44 62 63 0.4132183163978298 0.6497530260492688 0.4559105266822313
3 63 45 44 0.4132183163978298 0.6497530260492688 0.4559105266822313
3 79 133 107 0.4132183163978298 0.6497530260492688 0.4559105266822313
3 107 106 79 0.4132183163978298 0.6497530260492688 0.4559105266822313
3 107 133 108 0.4132183163978298 0.6497530260492688 0.4559105266822313
3 107 108 83 0.4132183163978298 0.6497530260492688 0.4559105266822313
3 83 82 39 0.4132183163978298 0.6497530260492688 0.4559105266822313
3 39 107 83 0.4132183163978298 0.6497530260492688 0.4559105266822313
3 106 107 39 0.4132183163978298 0.6497530260492688 0.4559105266822313
3 39 82 81 0.4132183163978298 0.6497530260492688 0.4559105266822313
3 105 106 39 0.4132183163978298 0.6497530260492688 0.4559105266822313
3 37 105 104 0.4132183163978298 0.6497530260492688 0.4559105266822313
3 104 5 37 0.4132183163978298 0.6497530260492688 0.4559105266822313
3 6 5 104 0.4132183163978298 0.6497530260492688 0.4559105266822313
3 54 132 77 0.4132183163978298 0.6497530260492688 0.4559105266822313
3 53 131 54 0.4132183163978298 0.6497530260492688 0.4559105266822313
3 131 126 54 0.4132183163978298 0.6497530260492688 0.4559105266822313
3 77 76 54 0.4132183163978298 0.6497530260492688 0.4559105266822313
3 54 76 53 0.4132183163978298 0.6497530260492688 0.4559105266822313
3 54 126 127 0.4132183163978298 0.6497530260492688 0.4559105266822313
3 127 132 54 0.4132183163978298 0.6497530260492688 0.4559105266822313
3 78 133 79 0.4132183163978298 0.6497530260492688 0.4559105266822313
3 78 132 133 0.4132183163978298 0.6497530260492688 0.4559105266822313
3 79 37 78 0.4132183163978298 0.6497530260492688 0.4559105266822313
3 77 132 78 0.4132183163978298 0.6497530260492688 0.4559105266822313
3 78 36 77 0.4132183163978298 0.6497530260492688 0.4559105266822313
3 37 36 78 0.4132183163978298 0.6497530260492688 0.4559105266822313
3 128 103 123 0.4132183163978298 0.6497530260492688 0.4559105266822313
3 116 117 123 0.4132183163978298 0.6497530260492688 0.4559105266822313
3 118 128 123 0.4132183163978298 0.6497530260492688 0.4559105266822313
3 123 117 118 0.4132183163978298 0.6497530260492688 0.4559105266822313
3 121 65 96 0.4132183163978298 0.6497530260492688 0.4559105266822313
3 24 97 96 0.4132183163978298 0.6497530260492688 0.4559105266822313
3 96 25 24 0.4132183163978298 0.6497530260492688 0.4559105266822313
3 96 65 25 0.4132183163978298 0.6497530260492688 0.4559105266822313
3 122 97 98 0.4132183163978298 0.6497530260492688 0.4559105266822313
3 38 81 6 0.4132183163978298 0.6497530260492688 0.4559105266822313
3 38 39 81 0.4132183163978298 0.6497530260492688 0.4559105266822313
3 6 104 38 0.4132183163978298 0.6497530260492688 0.4559105266822313
3 105 39 38 0.4132183163978298 0.6497530260492688 0.4559105266822313
3 38 104 105 0.4132183163978298 0.6497530260492688 0.4559105266822313
3 99 122 98 0.4132183163978298 0.6497530260492688 0.4559105266822313
3 99 98 49 0.4132183163978298 0.6497530260492688 0.4559105266822313
3 99 123 103 0.4132183163978298 0.6497530260492688 0.4559105266822313
3 103 122 99 0.4132183163978298 0.6497530260492688 0.4559105266822313
3 49 115 99 0.4132183163978298 0.6497530260492688 0.4559105266822313
3 99 115 116 0.4132183163978298 0.6497530260492688 0.4559105266822313
3 116 123 99 0.4132183163978298 0.6497530260492688 0.4559105266822313
3 97 122 66 0.4132183163978298 0.6497530260492688 0.4559105266822313
3 121 96 66 0.4132183163978298 0.6497530260492688 0.4559105266822313
3 66 96 97 0.4132183163978298 0.6497530260492688 0.4559105266822313
3 102 72 66 0.4132183163978298 0.6497530260492688 0.4559105266822313
3 72 121 66 0.4132183163978298 0.6497530260492688 0.4559105266822313
3 66 103 102 0.4132183163978298 0.6497530260492688 0.4559105266822313
3 66 122 103 0.4132183163978298 0.6497530260492688 0.4559105266822313
