OFF
461 838 0


30.4754 32.6845 7.3842
30.4754 32.6845 7.3842
30.5546 32.6248 7.3315
30.6133 32.5811 7.293
30.6936 32.5222 7.241
30.6936 32.5222 7.241
30.7553 32.5775 7.1725
30.8171 32.6332 7.1044
30.8615 32.7351 7.0388
30.9038 32.8265 6.9788
30.9446 32.9097 6.9232
30.9847 32.9864 6.8709
31.0243 33.058 6.8212
31.064 33.1256 6.7732
31.1042 33.1902 6.7263
31.1453 33.2527 6.6801
31.1877 33.3136 6.6341
31.232 33.3737 6.5876
31.2785 33.4336 6.5402
31.3281 33.4939 6.4913
31.3814 33.5552 6.4404
31.4392 33.6185 6.3866
31.5028 33.6844 6.3292
31.5735 33.7539 6.267
31.6533 33.8285 6.1986
31.6533 33.8285 6.1986
31.5722 33.9294 6.2398
31.499 34.0165 6.279
31.4315 34.0933 6.3168
31.368 34.1627 6.3536
31.3072 34.2269 6.3901
31.2476 34.2874 6.4269
31.1882 34.3457 6.4646
31.1275 34.4031 6.5041
31.0644 34.4608 6.5462
30.9971 34.52 6.5921
30.9239 34.582 6.6433
30.8423 34.6484 6.7017
30.7488 34.721 6.7701
30.7488 34.721 6.7701
30.7212 34.7228 6.7926
30.6936 34.7246 6.8151
30.6936 34.7246 6.8151
30.6852 34.5914 6.8358
30.677 34.4703 6.856
30.6691 34.3588 6.8757
30.6613 34.255 6.8953
30.6536 34.1574 6.9149
30.6458 34.0647 6.9346
30.638 33.9758 6.9547
30.6301 33.8898 6.9752
30.6219 33.8059 6.9963
30.6135 33.7233 7.0181
30.6048 33.6414 7.0409
30.5956 33.5594 7.0648
30.586 33.4768 7.0901
30.5758 33.3927 7.1169
30.5649 33.3065 7.1457
30.5532 33.2173 7.1766
30.5406 33.1241 7.2103
30.5267 33.0257 7.2471
30.5115 32.9209 7.2878
30.4945 32.8079 7.3331
30.4754 32.6845 7.3842
30.7147 34.5991 6.8106
30.7344 34.4845 6.8069
30.6428 32.703 7.2328
30.67 32.8138 7.1787
30.6956 32.9158 7.1294
30.7681 32.6957 7.1279
30.7804 32.8042 7.0875
30.7922 32.905 7.0504
30.8037 32.9995 7.0162
31.157 34.2743 6.4969
31.1277 34.2066 6.5277
31.1001 34.1421 6.5574
31.0739 34.0804 6.5861
30.6612 33.9454 6.9398
30.6839 33.9156 6.9254
30.7063 33.8865 6.9113
30.7282 33.8579 6.8976
30.6461 33.7913 6.9782
30.6699 33.777 6.9604
30.6935 33.763 6.943
30.7167 33.7491 6.9259
30.6303 33.6415 7.0189
30.6555 33.6417 6.9973
30.6805 33.6419 6.9761
30.7051 33.6421 6.9552
30.6134 33.4918 7.0632
30.6404 33.5065 7.037
30.667 33.5209 7.0113
30.6932 33.5351 6.9861
30.5949 33.3377 7.1125
30.6242 33.3681 7.0805
30.6528 33.3977 7.0494
30.6809 33.4267 7.0191
30.5908 32.7417 7.2669
30.6243 32.8481 7.2087
30.6555 32.946 7.1557
30.6851 33.0371 7.1069
30.7133 33.1227 7.0614
30.863 32.8277 7.0121
30.8648 32.9149 6.9873
30.8669 32.9976 6.9641
30.8691 33.0767 6.9423
30.8716 33.1528 6.9217
30.9388 32.9789 6.91
30.9333 33.0456 6.8975
30.9283 33.1101 6.8857
30.9236 33.1729 6.8744
30.9192 33.2342 6.8636
31.012 33.1104 6.8182
31.0001 33.1616 6.8154
30.9885 33.2119 6.8128
30.9773 33.2613 6.8105
30.9664 33.3101 6.8083
31.0855 33.2296 6.7319
31.0672 33.2684 6.7375
31.0492 33.3067 6.7431
31.0315 33.3447 6.7488
31.014 33.3823 6.7545
31.1621 33.3419 6.6476
31.1369 33.37 6.661
31.112 33.3977 6.6744
31.0874 33.4253 6.6878
31.063 33.4527 6.7013
31.2447 33.4518 6.5619
31.2114 33.4697 6.5835
31.1787 33.4875 6.6048
31.1463 33.5051 6.6261
31.1144 33.5225 6.6473
31.3369 33.5631 6.4715
31.2936 33.5708 6.5022
31.2514 33.5784 6.5323
31.21 33.5858 6.5621
31.1693 33.5932 6.5916
31.4437 33.6804 6.3723
31.3872 33.6766 6.4141
31.3328 33.6729 6.4546
31.2802 33.6694 6.4942
31.2291 33.6659 6.533
31.3763 34.0481 6.3633
31.3241 34.0053 6.4077
31.2746 33.9644 6.4504
31.2273 33.9251 6.4916
31.1819 33.8873 6.5317
31.2645 34.1683 6.4294
31.2242 34.1126 6.467
31.1859 34.0595 6.5032
31.1494 34.0085 6.5382
31.1144 33.9592 6.5723
31.0453 34.3756 6.5707
31.0275 34.2953 6.5941
31.011 34.2193 6.6165
30.9955 34.1469 6.6381
30.9809 34.0776 6.6591
30.9191 34.4802 6.6581
30.9149 34.3854 6.6722
30.9112 34.2964 6.6857
30.908 34.2124 6.6988
30.9053 34.1326 6.7116
30.6986 34.383 6.8482
30.7192 34.3009 6.8413
30.7389 34.2233 6.8349
30.7579 34.1496 6.8291
30.7762 34.0792 6.8238
30.6834 34.1949 6.8848
30.7048 34.1373 6.8748
30.7256 34.0818 6.8654
30.7458 34.0282 6.8564
30.7655 33.9762 6.8479
30.6686 34.0254 6.9213
30.6909 33.9871 6.9084
30.7127 33.9499 6.8959
30.734 33.9134 6.8838
30.7551 33.8778 6.872
30.574 33.1747 7.1687
30.6063 33.2232 7.1291
30.6375 33.2699 7.0912
30.6679 33.315 7.0548
30.6976 33.3587 7.0197
30.5499 32.9966 7.2343
30.5862 33.0675 7.1845
30.6207 33.1345 7.1379
30.6539 33.1981 7.0939
30.686 33.2591 7.0522
30.521 32.7951 7.3133
30.5629 32.8956 7.2494
30.6019 32.988 7.1911
30.6386 33.0739 7.1375
30.6735 33.1546 7.0875
31.5726 33.8091 6.2585
31.4973 33.791 6.3151
31.4265 33.7739 6.3688
31.3595 33.7577 6.4204
31.2956 33.7422 6.4701
31.2342 33.7272 6.5185
31.4365 33.9788 6.3295
31.3777 33.9431 6.3776
31.3219 33.9091 6.4237
31.2687 33.8766 6.4682
31.2176 33.8452 6.5114
31.1684 33.8148 6.5535
30.7635 34.5967 6.7709
30.7773 34.483 6.772
30.7904 34.3781 6.7734
30.8029 34.2803 6.7751
30.8151 34.1885 6.777
30.8269 34.1016 6.7792
30.8231 32.7413 7.069
30.8291 32.8417 7.0365
30.8351 32.9357 7.0065
30.8412 33.0246 6.9785
30.8473 33.1093 6.9523
30.8536 33.1907 6.9275
30.86 33.2694 6.9039
30.8666 33.3461 6.8813
30.9755 33.0466 6.8631
30.9668 33.105 6.8557
30.9585 33.1621 6.8487
30.9505 33.2179 6.842
30.9428 33.2727 6.8356
30.9355 33.3267 6.8295
30.9283 33.3801 6.8236
30.9214 33.433 6.818
31.1233 33.2863 6.6897
31.1016 33.3196 6.6992
31.0802 33.3525 6.7088
31.0591 33.3852 6.7183
31.0383 33.4176 6.7279
31.0176 33.4499 6.7376
30.9971 33.4821 6.7472
30.9767 33.5143 6.757
31.2893 33.507 6.5176
31.2514 33.5199 6.5435
31.2141 33.5326 6.5691
31.1775 33.5452 6.5945
31.1413 33.5577 6.6198
31.1056 33.57 6.6449
31.0703 33.5823 6.6701
31.0351 33.5945 6.6952
31.5048 33.7429 6.3177
31.4397 33.7324 6.3662
31.3778 33.7224 6.4129
31.3185 33.7128 6.4582
31.2614 33.7035 6.5022
31.2061 33.6946 6.5453
31.1524 33.6858 6.5877
31.0998 33.6772 6.6297
31.2108 34.2224 6.4627
31.176 34.1607 6.497
31.143 34.1019 6.5299
31.1117 34.0454 6.5618
31.0816 33.991 6.5928
31.0528 33.9384 6.6231
31.0249 33.8871 6.6528
30.9979 33.837 6.682
30.9847 34.427 6.6121
30.9734 34.3398 6.6312
30.963 34.2576 6.6494
30.9533 34.1796 6.6671
30.9444 34.1051 6.6842
30.9361 34.0337 6.7009
30.9283 33.9647 6.7172
30.921 33.8978 6.7334
30.7065 34.4867 6.8297
30.7267 34.3897 6.8243
30.7458 34.299 6.8195
30.7641 34.2137 6.8154
30.7817 34.1329 6.8118
30.7988 34.0558 6.8086
30.8155 33.982 6.8059
30.8318 33.9108 6.8035
30.676 34.1083 6.903
30.6978 34.0609 6.8915
30.7191 34.0148 6.8806
30.7399 33.9701 6.87
30.7602 33.9265 6.8599
30.7803 33.884 6.8501
30.8 33.8423 6.8407
30.8195 33.8014 6.8315
30.6383 33.7162 6.9982
30.6628 33.7092 6.9786
30.687 33.7023 6.9593
30.7109 33.6955 6.9404
30.7346 33.6888 6.9217
30.7581 33.6822 6.9033
30.7814 33.6756 6.8852
30.8045 33.6691 6.8672
30.6044 33.4156 7.0872
30.6324 33.4379 7.0582
30.66 33.4597 7.0299
30.6871 33.4812 7.0023
30.7139 33.5023 6.9753
30.7404 33.5231 6.9488
30.7666 33.5436 6.9227
30.7926 33.5639 6.8971
30.5624 33.088 7.2001
30.5965 33.147 7.1558
30.6293 33.2033 7.1138
30.661 33.2573 7.0739
30.6918 33.3094 7.0356
30.7219 33.3599 6.9988
30.7514 33.409 6.9632
30.7806 33.4571 6.9287
30.7138 32.6512 7.1866
30.7326 32.7683 7.1377
30.7504 32.876 7.0934
30.7674 32.9761 7.0527
30.7838 33.0701 7.0149
30.7999 33.1593 6.9796
30.8157 33.2448 6.9462
30.8314 33.3274 6.9144
30.8471 33.4079 6.8839
31.3193 34.1107 6.3964
31.2733 34.0613 6.4374
31.2295 34.014 6.4768
31.1877 33.9687 6.5149
31.1476 33.9249 6.552
31.109 33.8825 6.5882
31.0715 33.8412 6.6237
31.035 33.8007 6.6588
30.9994 33.7609 6.6935
30.691 34.2861 6.8666
30.7119 34.2171 6.8581
30.7322 34.1511 6.8502
30.7518 34.0879 6.8428
30.7708 34.027 6.8359
30.7894 33.9682 6.8294
30.8076 33.9111 6.8233
30.8256 33.8555 6.8175
30.8433 33.8012 6.812
30.9014 32.9063 6.9594
30.8995 32.9825 6.9412
30.8978 33.0555 6.924
30.8965 33.126 6.9077
30.8955 33.1944 6.8922
30.8948 33.261 6.8773
30.8943 33.3263 6.863
30.8941 33.3906 6.8492
30.8942 33.4542 6.8357
30.8944 33.5173 6.8227
31.2024 33.3969 6.6051
31.1734 33.4199 6.6225
31.1447 33.4426 6.6399
31.1164 33.4652 6.6572
31.0883 33.4876 6.6744
31.0605 33.5099 6.6917
31.0329 33.5321 6.709
31.0054 33.5543 6.7264
30.9779 33.5765 6.7439
30.9506 33.5988 6.7615
31.5014 33.9002 6.2947
31.435 33.8726 6.3467
31.3722 33.8464 6.3965
31.3125 33.8214 6.4444
31.2554 33.7974 6.4908
31.2004 33.7742 6.536
31.1471 33.7516 6.5804
31.0952 33.7295 6.624
31.0444 33.7078 6.6674
30.9944 33.6863 6.7105
30.8462 34.5364 6.7102
30.8502 34.4328 6.7185
30.8543 34.3364 6.7265
30.8584 34.2459 6.7344
30.8626 34.1603 6.7422
30.8669 34.0789 6.7499
30.8713 34.0009 6.7576
30.8759 33.9257 6.7654
30.8806 33.8529 6.7732
30.8854 33.7819 6.7811
30.622 33.5669 7.0406
30.6481 33.5743 7.0168
30.6738 33.5815 6.9934
30.6992 33.5887 6.9705
30.7244 33.5958 6.9479
30.7493 33.6028 6.9256
30.774 33.6097 6.9036
30.7985 33.6166 6.882
30.823 33.6234 6.8605
30.8473 33.6302 6.8393
30.5361 32.8994 7.2718
30.575 32.984 7.2156
30.6116 33.0629 7.1636
30.6465 33.1371 7.1151
30.6799 33.2075 7.0694
30.7121 33.2749 7.0262
30.7436 33.3397 6.985
30.7744 33.4026 6.9454
30.8048 33.464 6.9071
30.835 33.5244 6.8698
31.0485 33.1711 6.7746
31.0334 33.2159 6.7761
31.0187 33.2599 6.7777
31.0043 33.3035 6.7795
30.9901 33.3465 6.7813
30.9762 33.3893 6.7832
30.9624 33.4317 6.7853
30.9489 33.474 6.7874
30.9354 33.5163 6.7897
30.9221 33.5586 6.7921
30.9089 33.601 6.7946
31.3881 33.6207 6.4233
31.3387 33.6229 6.4592
31.2908 33.625 6.4943
31.2441 33.6271 6.5288
31.1985 33.6292 6.5628
31.1538 33.6313 6.5964
31.1099 33.6333 6.6298
31.0665 33.6354 6.6631
31.0235 33.6374 6.6964
30.9808 33.6395 6.7298
30.9383 33.6416 6.7634
31.1022 34.325 6.5326
31.0786 34.2512 6.5599
31.0564 34.1811 6.5861
31.0354 34.1141 6.6113
31.0154 34.0497 6.6359
30.9964 33.9876 6.6598
30.9782 33.9273 6.6833
30.9607 33.8686 6.7064
30.9438 33.8112 6.7292
30.9273 33.7547 6.7519
30.9114 33.699 6.7746
30.6537 33.8675 6.9588
30.677 33.8457 6.9427
30.6999 33.8243 6.927
30.7225 33.8032 6.9116
30.7448 33.7824 6.8965
30.7669 33.7619 6.8817
30.7888 33.7417 6.8671
30.8104 33.7217 6.8528
30.8319 33.702 6.8386
30.8533 33.6824 6.8247
30.8745 33.663 6.8109
30.5848 33.2577 7.1396
30.6155 33.2967 7.104
30.6453 33.3345 7.0697
30.6745 33.3713 7.0366
30.7031 33.4072 7.0044
30.7313 33.4424 6.9731
30.7591 33.4769 6.9425
30.7866 33.5108 6.9126
30.814 33.5444 6.8832
30.8412 33.5777 6.8542
30.8684 33.6107 6.8256
30.521 32.7951 7.3133
30.5629 32.8956 7.2494
30.6019 32.988 7.1911
30.6386 33.0739 7.1375
30.6735 33.1546 7.0875
30.7071 33.2311 7.0407
30.7395 33.3043 6.9964
30.7712 33.3749 6.954
30.8024 33.4436 6.9133
30.8334 33.511 6.8738
30.8645 33.5775 6.8353
30.8957 33.6437 6.7973
30.8957 33.6437 6.7973
3 24 26 192 0.9749853728610903 0.201840221320562 0.03132077503878716
3 192 26 353 0.9749853728610903 0.201840221320562 0.03132077503878716
3 24 192 23 0.9749853728610903 0.201840221320562 0.03132077503878716
3 403 460 447 0.9749853728610903 0.201840221320562 0.03132077503878716
3 32 73 31 0.9749853728610903 0.201840221320562 0.03132077503878716
3 193 192 353 0.9749853728610903 0.201840221320562 0.03132077503878716
3 193 23 192 0.9749853728610903 0.201840221320562 0.03132077503878716
3 250 73 74 0.9749853728610903 0.201840221320562 0.03132077503878716
3 31 73 250 0.9749853728610903 0.201840221320562 0.03132077503878716
3 355 200 356 0.9749853728610903 0.201840221320562 0.03132077503878716
3 355 356 195 0.9749853728610903 0.201840221320562 0.03132077503878716
3 1 448 62 0.9749853728610903 0.201840221320562 0.03132077503878716
3 306 6 7 0.9749853728610903 0.201840221320562 0.03132077503878716
3 306 3 4 0.9749853728610903 0.201840221320562 0.03132077503878716
3 4 6 306 0.9749853728610903 0.201840221320562 0.03132077503878716
3 55 89 54 0.9749853728610903 0.201840221320562 0.03132077503878716
3 77 173 49 0.9749853728610903 0.201840221320562 0.03132077503878716
3 49 50 77 0.9749853728610903 0.201840221320562 0.03132077503878716
3 50 78 77 0.9749853728610903 0.201840221320562 0.03132077503878716
3 174 78 175 0.9749853728610903 0.201840221320562 0.03132077503878716
3 174 77 78 0.9749853728610903 0.201840221320562 0.03132077503878716
3 173 77 174 0.9749853728610903 0.201840221320562 0.03132077503878716
3 446 447 382 0.9749853728610903 0.201840221320562 0.03132077503878716
3 403 447 458 0.9749853728610903 0.201840221320562 0.03132077503878716
3 458 447 446 0.9749853728610903 0.201840221320562 0.03132077503878716
3 330 272 329 0.9749853728610903 0.201840221320562 0.03132077503878716
3 93 56 57 0.9749853728610903 0.201840221320562 0.03132077503878716
3 93 94 56 0.9749853728610903 0.201840221320562 0.03132077503878716
3 93 439 94 0.9749853728610903 0.201840221320562 0.03132077503878716
3 86 282 85 0.9749853728610903 0.201840221320562 0.03132077503878716
3 74 73 416 0.9749853728610903 0.201840221320562 0.03132077503878716
3 420 264 421 0.9749853728610903 0.201840221320562 0.03132077503878716
3 254 420 255 0.9749853728610903 0.201840221320562 0.03132077503878716
3 255 420 421 0.9749853728610903 0.201840221320562 0.03132077503878716
3 354 193 353 0.9749853728610903 0.201840221320562 0.03132077503878716
3 254 255 151 0.9749853728610903 0.201840221320562 0.03132077503878716
3 151 255 320 0.9749853728610903 0.201840221320562 0.03132077503878716
3 258 34 35 0.9749853728610903 0.201840221320562 0.03132077503878716
3 353 26 27 0.9749853728610903 0.201840221320562 0.03132077503878716
3 315 148 316 0.9749853728610903 0.201840221320562 0.03132077503878716
3 147 148 315 0.9749853728610903 0.201840221320562 0.03132077503878716
3 22 23 242 0.9749853728610903 0.201840221320562 0.03132077503878716
3 23 193 242 0.9749853728610903 0.201840221320562 0.03132077503878716
3 75 76 252 0.9749853728610903 0.201840221320562 0.03132077503878716
3 317 144 316 0.9749853728610903 0.201840221320562 0.03132077503878716
3 147 250 251 0.9749853728610903 0.201840221320562 0.03132077503878716
3 251 148 147 0.9749853728610903 0.201840221320562 0.03132077503878716
3 251 250 74 0.9749853728610903 0.201840221320562 0.03132077503878716
3 252 148 251 0.9749853728610903 0.201840221320562 0.03132077503878716
3 74 75 251 0.9749853728610903 0.201840221320562 0.03132077503878716
3 251 75 252 0.9749853728610903 0.201840221320562 0.03132077503878716
3 207 269 208 0.9749853728610903 0.201840221320562 0.03132077503878716
3 162 267 44 0.9749853728610903 0.201840221320562 0.03132077503878716
3 114 115 221 0.9749853728610903 0.201840221320562 0.03132077503878716
3 395 115 114 0.9749853728610903 0.201840221320562 0.03132077503878716
3 18 127 17 0.9749853728610903 0.201840221320562 0.03132077503878716
3 17 127 343 0.9749853728610903 0.201840221320562 0.03132077503878716
3 122 16 17 0.9749853728610903 0.201840221320562 0.03132077503878716
3 17 343 122 0.9749853728610903 0.201840221320562 0.03132077503878716
3 196 356 357 0.9749853728610903 0.201840221320562 0.03132077503878716
3 245 195 196 0.9749853728610903 0.201840221320562 0.03132077503878716
3 196 195 356 0.9749853728610903 0.201840221320562 0.03132077503878716
3 355 195 194 0.9749853728610903 0.201840221320562 0.03132077503878716
3 194 354 355 0.9749853728610903 0.201840221320562 0.03132077503878716
3 193 354 194 0.9749853728610903 0.201840221320562 0.03132077503878716
3 245 196 246 0.9749853728610903 0.201840221320562 0.03132077503878716
3 360 322 361 0.9749853728610903 0.201840221320562 0.03132077503878716
3 283 282 86 0.9749853728610903 0.201840221320562 0.03132077503878716
3 175 78 79 0.9749853728610903 0.201840221320562 0.03132077503878716
3 426 78 50 0.9749853728610903 0.201840221320562 0.03132077503878716
3 50 51 426 0.9749853728610903 0.201840221320562 0.03132077503878716
3 51 427 426 0.9749853728610903 0.201840221320562 0.03132077503878716
3 426 79 78 0.9749853728610903 0.201840221320562 0.03132077503878716
3 427 79 426 0.9749853728610903 0.201840221320562 0.03132077503878716
3 90 89 292 0.9749853728610903 0.201840221320562 0.03132077503878716
3 54 89 90 0.9749853728610903 0.201840221320562 0.03132077503878716
3 53 85 52 0.9749853728610903 0.201840221320562 0.03132077503878716
3 52 85 282 0.9749853728610903 0.201840221320562 0.03132077503878716
3 292 89 291 0.9749853728610903 0.201840221320562 0.03132077503878716
3 89 55 291 0.9749853728610903 0.201840221320562 0.03132077503878716
3 329 272 328 0.9749853728610903 0.201840221320562 0.03132077503878716
3 125 346 126 0.9749853728610903 0.201840221320562 0.03132077503878716
3 381 289 380 0.9749853728610903 0.201840221320562 0.03132077503878716
3 381 382 289 0.9749853728610903 0.201840221320562 0.03132077503878716
3 380 446 381 0.9749853728610903 0.201840221320562 0.03132077503878716
3 446 382 381 0.9749853728610903 0.201840221320562 0.03132077503878716
3 331 330 279 0.9749853728610903 0.201840221320562 0.03132077503878716
3 370 272 273 0.9749853728610903 0.201840221320562 0.03132077503878716
3 272 330 273 0.9749853728610903 0.201840221320562 0.03132077503878716
3 273 330 331 0.9749853728610903 0.201840221320562 0.03132077503878716
3 289 382 435 0.9749853728610903 0.201840221320562 0.03132077503878716
3 370 273 371 0.9749853728610903 0.201840221320562 0.03132077503878716
3 371 273 331 0.9749853728610903 0.201840221320562 0.03132077503878716
3 455 390 304 0.9749853728610903 0.201840221320562 0.03132077503878716
3 313 314 455 0.9749853728610903 0.201840221320562 0.03132077503878716
3 455 314 390 0.9749853728610903 0.201840221320562 0.03132077503878716
3 297 446 380 0.9749853728610903 0.201840221320562 0.03132077503878716
3 392 458 446 0.9749853728610903 0.201840221320562 0.03132077503878716
3 342 458 392 0.9749853728610903 0.201840221320562 0.03132077503878716
3 212 72 309 0.9749853728610903 0.201840221320562 0.03132077503878716
3 313 216 217 0.9749853728610903 0.201840221320562 0.03132077503878716
3 217 314 313 0.9749853728610903 0.201840221320562 0.03132077503878716
3 312 453 311 0.9749853728610903 0.201840221320562 0.03132077503878716
3 313 454 312 0.9749853728610903 0.201840221320562 0.03132077503878716
3 312 216 313 0.9749853728610903 0.201840221320562 0.03132077503878716
3 214 106 311 0.9749853728610903 0.201840221320562 0.03132077503878716
3 94 439 440 0.9749853728610903 0.201840221320562 0.03132077503878716
3 376 88 87 0.9749853728610903 0.201840221320562 0.03132077503878716
3 87 88 284 0.9749853728610903 0.201840221320562 0.03132077503878716
3 284 283 87 0.9749853728610903 0.201840221320562 0.03132077503878716
3 87 283 86 0.9749853728610903 0.201840221320562 0.03132077503878716
3 377 88 376 0.9749853728610903 0.201840221320562 0.03132077503878716
3 378 88 377 0.9749853728610903 0.201840221320562 0.03132077503878716
3 284 88 285 0.9749853728610903 0.201840221320562 0.03132077503878716
3 285 88 286 0.9749853728610903 0.201840221320562 0.03132077503878716
3 287 431 286 0.9749853728610903 0.201840221320562 0.03132077503878716
3 286 88 287 0.9749853728610903 0.201840221320562 0.03132077503878716
3 287 88 378 0.9749853728610903 0.201840221320562 0.03132077503878716
3 331 279 280 0.9749853728610903 0.201840221320562 0.03132077503878716
3 282 283 82 0.9749853728610903 0.201840221320562 0.03132077503878716
3 352 351 413 0.9749853728610903 0.201840221320562 0.03132077503878716
3 122 343 123 0.9749853728610903 0.201840221320562 0.03132077503878716
3 343 344 123 0.9749853728610903 0.201840221320562 0.03132077503878716
3 206 365 364 0.9749853728610903 0.201840221320562 0.03132077503878716
3 364 205 206 0.9749853728610903 0.201840221320562 0.03132077503878716
3 206 205 267 0.9749853728610903 0.201840221320562 0.03132077503878716
3 207 365 206 0.9749853728610903 0.201840221320562 0.03132077503878716
3 366 365 207 0.9749853728610903 0.201840221320562 0.03132077503878716
3 207 208 366 0.9749853728610903 0.201840221320562 0.03132077503878716
3 366 208 367 0.9749853728610903 0.201840221320562 0.03132077503878716
3 254 76 419 0.9749853728610903 0.201840221320562 0.03132077503878716
3 419 420 254 0.9749853728610903 0.201840221320562 0.03132077503878716
3 256 255 421 0.9749853728610903 0.201840221320562 0.03132077503878716
3 320 255 256 0.9749853728610903 0.201840221320562 0.03132077503878716
3 199 200 355 0.9749853728610903 0.201840221320562 0.03132077503878716
3 355 354 199 0.9749853728610903 0.201840221320562 0.03132077503878716
3 150 151 318 0.9749853728610903 0.201840221320562 0.03132077503878716
3 318 317 150 0.9749853728610903 0.201840221320562 0.03132077503878716
3 254 151 150 0.9749853728610903 0.201840221320562 0.03132077503878716
3 318 151 319 0.9749853728610903 0.201840221320562 0.03132077503878716
3 319 146 318 0.9749853728610903 0.201840221320562 0.03132077503878716
3 319 151 320 0.9749853728610903 0.201840221320562 0.03132077503878716
3 320 146 319 0.9749853728610903 0.201840221320562 0.03132077503878716
3 357 356 201 0.9749853728610903 0.201840221320562 0.03132077503878716
3 201 356 200 0.9749853728610903 0.201840221320562 0.03132077503878716
3 200 144 201 0.9749853728610903 0.201840221320562 0.03132077503878716
3 147 315 29 0.9749853728610903 0.201840221320562 0.03132077503878716
3 47 48 274 0.9749853728610903 0.201840221320562 0.03132077503878716
3 274 48 275 0.9749853728610903 0.201840221320562 0.03132077503878716
3 269 326 165 0.9749853728610903 0.201840221320562 0.03132077503878716
3 165 208 269 0.9749853728610903 0.201840221320562 0.03132077503878716
3 326 327 165 0.9749853728610903 0.201840221320562 0.03132077503878716
3 267 205 65 0.9749853728610903 0.201840221320562 0.03132077503878716
3 65 205 204 0.9749853728610903 0.201840221320562 0.03132077503878716
3 157 258 35 0.9749853728610903 0.201840221320562 0.03132077503878716
3 35 36 157 0.9749853728610903 0.201840221320562 0.03132077503878716
3 39 204 37 0.9749853728610903 0.201840221320562 0.03132077503878716
3 204 205 363 0.9749853728610903 0.201840221320562 0.03132077503878716
3 363 37 204 0.9749853728610903 0.201840221320562 0.03132077503878716
3 36 37 363 0.9749853728610903 0.201840221320562 0.03132077503878716
3 363 157 36 0.9749853728610903 0.201840221320562 0.03132077503878716
3 363 205 364 0.9749853728610903 0.201840221320562 0.03132077503878716
3 364 157 363 0.9749853728610903 0.201840221320562 0.03132077503878716
3 107 10 11 0.9749853728610903 0.201840221320562 0.03132077503878716
3 107 334 10 0.9749853728610903 0.201840221320562 0.03132077503878716
3 21 22 137 0.9749853728610903 0.201840221320562 0.03132077503878716
3 21 404 20 0.9749853728610903 0.201840221320562 0.03132077503878716
3 112 12 13 0.9749853728610903 0.201840221320562 0.03132077503878716
3 128 127 235 0.9749853728610903 0.201840221320562 0.03132077503878716
3 129 344 128 0.9749853728610903 0.201840221320562 0.03132077503878716
3 343 127 128 0.9749853728610903 0.201840221320562 0.03132077503878716
3 128 344 343 0.9749853728610903 0.201840221320562 0.03132077503878716
3 136 408 409 0.9749853728610903 0.201840221320562 0.03132077503878716
3 135 408 136 0.9749853728610903 0.201840221320562 0.03132077503878716
3 129 128 236 0.9749853728610903 0.201840221320562 0.03132077503878716
3 236 128 235 0.9749853728610903 0.201840221320562 0.03132077503878716
3 235 134 236 0.9749853728610903 0.201840221320562 0.03132077503878716
3 236 134 135 0.9749853728610903 0.201840221320562 0.03132077503878716
3 20 404 405 0.9749853728610903 0.201840221320562 0.03132077503878716
3 405 132 20 0.9749853728610903 0.201840221320562 0.03132077503878716
3 405 139 406 0.9749853728610903 0.201840221320562 0.03132077503878716
3 20 132 19 0.9749853728610903 0.201840221320562 0.03132077503878716
3 390 314 456 0.9749853728610903 0.201840221320562 0.03132077503878716
3 121 398 397 0.9749853728610903 0.201840221320562 0.03132077503878716
3 341 314 340 0.9749853728610903 0.201840221320562 0.03132077503878716
3 314 217 340 0.9749853728610903 0.201840221320562 0.03132077503878716
3 395 114 394 0.9749853728610903 0.201840221320562 0.03132077503878716
3 137 22 243 0.9749853728610903 0.201840221320562 0.03132077503878716
3 22 242 243 0.9749853728610903 0.201840221320562 0.03132077503878716
3 243 242 193 0.9749853728610903 0.201840221320562 0.03132077503878716
3 193 194 243 0.9749853728610903 0.201840221320562 0.03132077503878716
3 349 232 348 0.9749853728610903 0.201840221320562 0.03132077503878716
3 131 238 239 0.9749853728610903 0.201840221320562 0.03132077503878716
3 239 348 131 0.9749853728610903 0.201840221320562 0.03132077503878716
3 239 238 410 0.9749853728610903 0.201840221320562 0.03132077503878716
3 410 136 409 0.9749853728610903 0.201840221320562 0.03132077503878716
3 238 136 410 0.9749853728610903 0.201840221320562 0.03132077503878716
3 412 411 361 0.9749853728610903 0.201840221320562 0.03132077503878716
3 349 348 240 0.9749853728610903 0.201840221320562 0.03132077503878716
3 240 348 239 0.9749853728610903 0.201840221320562 0.03132077503878716
3 239 410 240 0.9749853728610903 0.201840221320562 0.03132077503878716
3 240 410 411 0.9749853728610903 0.201840221320562 0.03132077503878716
3 197 196 357 0.9749853728610903 0.201840221320562 0.03132077503878716
3 197 246 196 0.9749853728610903 0.201840221320562 0.03132077503878716
3 409 408 248 0.9749853728610903 0.201840221320562 0.03132077503878716
3 248 408 247 0.9749853728610903 0.201840221320562 0.03132077503878716
3 248 410 409 0.9749853728610903 0.201840221320562 0.03132077503878716
3 322 360 321 0.9749853728610903 0.201840221320562 0.03132077503878716
3 320 256 321 0.9749853728610903 0.201840221320562 0.03132077503878716
3 358 197 357 0.9749853728610903 0.201840221320562 0.03132077503878716
3 247 197 358 0.9749853728610903 0.201840221320562 0.03132077503878716
3 383 62 448 0.9749853728610903 0.201840221320562 0.03132077503878716
3 80 79 427 0.9749853728610903 0.201840221320562 0.03132077503878716
3 86 85 374 0.9749853728610903 0.201840221320562 0.03132077503878716
3 290 55 56 0.9749853728610903 0.201840221320562 0.03132077503878716
3 290 291 55 0.9749853728610903 0.201840221320562 0.03132077503878716
3 56 94 290 0.9749853728610903 0.201840221320562 0.03132077503878716
3 277 174 175 0.9749853728610903 0.201840221320562 0.03132077503878716
3 173 174 277 0.9749853728610903 0.201840221320562 0.03132077503878716
3 277 276 173 0.9749853728610903 0.201840221320562 0.03132077503878716
3 275 48 172 0.9749853728610903 0.201840221320562 0.03132077503878716
3 173 276 172 0.9749853728610903 0.201840221320562 0.03132077503878716
3 172 276 275 0.9749853728610903 0.201840221320562 0.03132077503878716
3 49 173 172 0.9749853728610903 0.201840221320562 0.03132077503878716
3 172 48 49 0.9749853728610903 0.201840221320562 0.03132077503878716
3 121 229 230 0.9749853728610903 0.201840221320562 0.03132077503878716
3 125 126 230 0.9749853728610903 0.201840221320562 0.03132077503878716
3 230 229 125 0.9749853728610903 0.201840221320562 0.03132077503878716
3 233 232 349 0.9749853728610903 0.201840221320562 0.03132077503878716
3 278 279 330 0.9749853728610903 0.201840221320562 0.03132077503878716
3 278 330 329 0.9749853728610903 0.201840221320562 0.03132077503878716
3 278 277 175 0.9749853728610903 0.201840221320562 0.03132077503878716
3 434 435 372 0.9749853728610903 0.201840221320562 0.03132077503878716
3 289 435 434 0.9749853728610903 0.201840221320562 0.03132077503878716
3 414 352 413 0.9749853728610903 0.201840221320562 0.03132077503878716
3 414 460 403 0.9749853728610903 0.201840221320562 0.03132077503878716
3 403 352 414 0.9749853728610903 0.201840221320562 0.03132077503878716
3 436 435 382 0.9749853728610903 0.201840221320562 0.03132077503878716
3 436 447 460 0.9749853728610903 0.201840221320562 0.03132077503878716
3 436 382 447 0.9749853728610903 0.201840221320562 0.03132077503878716
3 372 435 425 0.9749853728610903 0.201840221320562 0.03132077503878716
3 425 424 372 0.9749853728610903 0.201840221320562 0.03132077503878716
3 435 436 425 0.9749853728610903 0.201840221320562 0.03132077503878716
3 425 436 460 0.9749853728610903 0.201840221320562 0.03132077503878716
3 460 414 425 0.9749853728610903 0.201840221320562 0.03132077503878716
3 361 322 323 0.9749853728610903 0.201840221320562 0.03132077503878716
3 370 371 265 0.9749853728610903 0.201840221320562 0.03132077503878716
3 265 264 370 0.9749853728610903 0.201840221320562 0.03132077503878716
3 421 264 265 0.9749853728610903 0.201840221320562 0.03132077503878716
3 388 454 302 0.9749853728610903 0.201840221320562 0.03132077503878716
3 388 312 454 0.9749853728610903 0.201840221320562 0.03132077503878716
3 453 312 388 0.9749853728610903 0.201840221320562 0.03132077503878716
3 311 453 101 0.9749853728610903 0.201840221320562 0.03132077503878716
3 379 297 380 0.9749853728610903 0.201840221320562 0.03132077503878716
3 378 297 379 0.9749853728610903 0.201840221320562 0.03132077503878716
3 379 287 378 0.9749853728610903 0.201840221320562 0.03132077503878716
3 293 90 292 0.9749853728610903 0.201840221320562 0.03132077503878716
3 293 442 294 0.9749853728610903 0.201840221320562 0.03132077503878716
3 445 297 444 0.9749853728610903 0.201840221320562 0.03132077503878716
3 446 297 445 0.9749853728610903 0.201840221320562 0.03132077503878716
3 445 392 446 0.9749853728610903 0.201840221320562 0.03132077503878716
3 10 334 333 0.9749853728610903 0.201840221320562 0.03132077503878716
3 334 103 333 0.9749853728610903 0.201840221320562 0.03132077503878716
3 9 10 333 0.9749853728610903 0.201840221320562 0.03132077503878716
3 104 72 212 0.9749853728610903 0.201840221320562 0.03132077503878716
3 212 103 104 0.9749853728610903 0.201840221320562 0.03132077503878716
3 104 103 334 0.9749853728610903 0.201840221320562 0.03132077503878716
3 104 334 335 0.9749853728610903 0.201840221320562 0.03132077503878716
3 221 115 222 0.9749853728610903 0.201840221320562 0.03132077503878716
3 339 340 217 0.9749853728610903 0.201840221320562 0.03132077503878716
3 339 222 223 0.9749853728610903 0.201840221320562 0.03132077503878716
3 338 222 339 0.9749853728610903 0.201840221320562 0.03132077503878716
3 339 217 216 0.9749853728610903 0.201840221320562 0.03132077503878716
3 216 338 339 0.9749853728610903 0.201840221320562 0.03132077503878716
3 216 312 215 0.9749853728610903 0.201840221320562 0.03132077503878716
3 311 106 215 0.9749853728610903 0.201840221320562 0.03132077503878716
3 215 312 311 0.9749853728610903 0.201840221320562 0.03132077503878716
3 11 12 218 0.9749853728610903 0.201840221320562 0.03132077503878716
3 337 215 106 0.9749853728610903 0.201840221320562 0.03132077503878716
3 337 338 216 0.9749853728610903 0.201840221320562 0.03132077503878716
3 216 215 337 0.9749853728610903 0.201840221320562 0.03132077503878716
3 113 394 114 0.9749853728610903 0.201840221320562 0.03132077503878716
3 294 442 443 0.9749853728610903 0.201840221320562 0.03132077503878716
3 302 454 303 0.9749853728610903 0.201840221320562 0.03132077503878716
3 303 455 304 0.9749853728610903 0.201840221320562 0.03132077503878716
3 94 440 95 0.9749853728610903 0.201840221320562 0.03132077503878716
3 95 290 94 0.9749853728610903 0.201840221320562 0.03132077503878716
3 291 290 95 0.9749853728610903 0.201840221320562 0.03132077503878716
3 295 443 444 0.9749853728610903 0.201840221320562 0.03132077503878716
3 294 443 295 0.9749853728610903 0.201840221320562 0.03132077503878716
3 295 377 376 0.9749853728610903 0.201840221320562 0.03132077503878716
3 286 431 84 0.9749853728610903 0.201840221320562 0.03132077503878716
3 84 285 286 0.9749853728610903 0.201840221320562 0.03132077503878716
3 284 285 84 0.9749853728610903 0.201840221320562 0.03132077503878716
3 431 287 432 0.9749853728610903 0.201840221320562 0.03132077503878716
3 81 427 51 0.9749853728610903 0.201840221320562 0.03132077503878716
3 81 82 427 0.9749853728610903 0.201840221320562 0.03132077503878716
3 51 52 81 0.9749853728610903 0.201840221320562 0.03132077503878716
3 81 52 282 0.9749853728610903 0.201840221320562 0.03132077503878716
3 282 82 81 0.9749853728610903 0.201840221320562 0.03132077503878716
3 351 352 402 0.9749853728610903 0.201840221320562 0.03132077503878716
3 402 233 351 0.9749853728610903 0.201840221320562 0.03132077503878716
3 401 233 402 0.9749853728610903 0.201840221320562 0.03132077503878716
3 402 352 403 0.9749853728610903 0.201840221320562 0.03132077503878716
3 342 401 402 0.9749853728610903 0.201840221320562 0.03132077503878716
3 403 458 402 0.9749853728610903 0.201840221320562 0.03132077503878716
3 402 458 342 0.9749853728610903 0.201840221320562 0.03132077503878716
3 228 123 124 0.9749853728610903 0.201840221320562 0.03132077503878716
3 125 229 124 0.9749853728610903 0.201840221320562 0.03132077503878716
3 124 229 228 0.9749853728610903 0.201840221320562 0.03132077503878716
3 124 123 344 0.9749853728610903 0.201840221320562 0.03132077503878716
3 226 16 122 0.9749853728610903 0.201840221320562 0.03132077503878716
3 160 261 260 0.9749853728610903 0.201840221320562 0.03132077503878716
3 160 366 367 0.9749853728610903 0.201840221320562 0.03132077503878716
3 74 416 417 0.9749853728610903 0.201840221320562 0.03132077503878716
3 417 75 74 0.9749853728610903 0.201840221320562 0.03132077503878716
3 369 272 370 0.9749853728610903 0.201840221320562 0.03132077503878716
3 370 264 369 0.9749853728610903 0.201840221320562 0.03132077503878716
3 271 328 272 0.9749853728610903 0.201840221320562 0.03132077503878716
3 272 369 271 0.9749853728610903 0.201840221320562 0.03132077503878716
3 271 369 368 0.9749853728610903 0.201840221320562 0.03132077503878716
3 166 328 271 0.9749853728610903 0.201840221320562 0.03132077503878716
3 367 368 161 0.9749853728610903 0.201840221320562 0.03132077503878716
3 161 160 367 0.9749853728610903 0.201840221320562 0.03132077503878716
3 261 160 161 0.9749853728610903 0.201840221320562 0.03132077503878716
3 28 29 142 0.9749853728610903 0.201840221320562 0.03132077503878716
3 142 29 315 0.9749853728610903 0.201840221320562 0.03132077503878716
3 353 27 198 0.9749853728610903 0.201840221320562 0.03132077503878716
3 198 354 353 0.9749853728610903 0.201840221320562 0.03132077503878716
3 198 199 354 0.9749853728610903 0.201840221320562 0.03132077503878716
3 198 142 199 0.9749853728610903 0.201840221320562 0.03132077503878716
3 198 27 28 0.9749853728610903 0.201840221320562 0.03132077503878716
3 28 142 198 0.9749853728610903 0.201840221320562 0.03132077503878716
3 149 150 317 0.9749853728610903 0.201840221320562 0.03132077503878716
3 149 148 252 0.9749853728610903 0.201840221320562 0.03132077503878716
3 316 148 149 0.9749853728610903 0.201840221320562 0.03132077503878716
3 149 317 316 0.9749853728610903 0.201840221320562 0.03132077503878716
3 252 76 253 0.9749853728610903 0.201840221320562 0.03132077503878716
3 253 149 252 0.9749853728610903 0.201840221320562 0.03132077503878716
3 150 149 253 0.9749853728610903 0.201840221320562 0.03132077503878716
3 253 76 254 0.9749853728610903 0.201840221320562 0.03132077503878716
3 254 150 253 0.9749853728610903 0.201840221320562 0.03132077503878716
3 318 146 145 0.9749853728610903 0.201840221320562 0.03132077503878716
3 145 201 144 0.9749853728610903 0.201840221320562 0.03132077503878716
3 145 317 318 0.9749853728610903 0.201840221320562 0.03132077503878716
3 144 317 145 0.9749853728610903 0.201840221320562 0.03132077503878716
3 364 365 158 0.9749853728610903 0.201840221320562 0.03132077503878716
3 158 259 258 0.9749853728610903 0.201840221320562 0.03132077503878716
3 158 157 364 0.9749853728610903 0.201840221320562 0.03132077503878716
3 258 157 158 0.9749853728610903 0.201840221320562 0.03132077503878716
3 260 259 159 0.9749853728610903 0.201840221320562 0.03132077503878716
3 365 366 159 0.9749853728610903 0.201840221320562 0.03132077503878716
3 159 158 365 0.9749853728610903 0.201840221320562 0.03132077503878716
3 259 158 159 0.9749853728610903 0.201840221320562 0.03132077503878716
3 159 160 260 0.9749853728610903 0.201840221320562 0.03132077503878716
3 366 160 159 0.9749853728610903 0.201840221320562 0.03132077503878716
3 153 259 260 0.9749853728610903 0.201840221320562 0.03132077503878716
3 147 29 30 0.9749853728610903 0.201840221320562 0.03132077503878716
3 31 250 30 0.9749853728610903 0.201840221320562 0.03132077503878716
3 30 250 147 0.9749853728610903 0.201840221320562 0.03132077503878716
3 326 325 167 0.9749853728610903 0.201840221320562 0.03132077503878716
3 164 326 269 0.9749853728610903 0.201840221320562 0.03132077503878716
3 164 325 326 0.9749853728610903 0.201840221320562 0.03132077503878716
3 47 274 168 0.9749853728610903 0.201840221320562 0.03132077503878716
3 168 167 47 0.9749853728610903 0.201840221320562 0.03132077503878716
3 326 167 168 0.9749853728610903 0.201840221320562 0.03132077503878716
3 208 165 270 0.9749853728610903 0.201840221320562 0.03132077503878716
3 270 327 166 0.9749853728610903 0.201840221320562 0.03132077503878716
3 270 165 327 0.9749853728610903 0.201840221320562 0.03132077503878716
3 44 267 266 0.9749853728610903 0.201840221320562 0.03132077503878716
3 267 65 266 0.9749853728610903 0.201840221320562 0.03132077503878716
3 266 43 44 0.9749853728610903 0.201840221320562 0.03132077503878716
3 64 65 204 0.9749853728610903 0.201840221320562 0.03132077503878716
3 43 266 64 0.9749853728610903 0.201840221320562 0.03132077503878716
3 64 266 65 0.9749853728610903 0.201840221320562 0.03132077503878716
3 64 40 41 0.9749853728610903 0.201840221320562 0.03132077503878716
3 41 43 64 0.9749853728610903 0.201840221320562 0.03132077503878716
3 39 40 64 0.9749853728610903 0.201840221320562 0.03132077503878716
3 64 204 39 0.9749853728610903 0.201840221320562 0.03132077503878716
3 244 195 245 0.9749853728610903 0.201840221320562 0.03132077503878716
3 245 139 244 0.9749853728610903 0.201840221320562 0.03132077503878716
3 137 243 244 0.9749853728610903 0.201840221320562 0.03132077503878716
3 244 194 195 0.9749853728610903 0.201840221320562 0.03132077503878716
3 244 243 194 0.9749853728610903 0.201840221320562 0.03132077503878716
3 133 134 235 0.9749853728610903 0.201840221320562 0.03132077503878716
3 406 134 133 0.9749853728610903 0.201840221320562 0.03132077503878716
3 133 405 406 0.9749853728610903 0.201840221320562 0.03132077503878716
3 132 405 133 0.9749853728610903 0.201840221320562 0.03132077503878716
3 247 408 141 0.9749853728610903 0.201840221320562 0.03132077503878716
3 141 197 247 0.9749853728610903 0.201840221320562 0.03132077503878716
3 246 197 141 0.9749853728610903 0.201840221320562 0.03132077503878716
3 135 134 407 0.9749853728610903 0.201840221320562 0.03132077503878716
3 407 408 135 0.9749853728610903 0.201840221320562 0.03132077503878716
3 407 141 408 0.9749853728610903 0.201840221320562 0.03132077503878716
3 407 134 406 0.9749853728610903 0.201840221320562 0.03132077503878716
3 129 236 237 0.9749853728610903 0.201840221320562 0.03132077503878716
3 237 136 238 0.9749853728610903 0.201840221320562 0.03132077503878716
3 135 136 237 0.9749853728610903 0.201840221320562 0.03132077503878716
3 237 236 135 0.9749853728610903 0.201840221320562 0.03132077503878716
3 457 445 444 0.9749853728610903 0.201840221320562 0.03132077503878716
3 392 445 457 0.9749853728610903 0.201840221320562 0.03132077503878716
3 341 342 457 0.9749853728610903 0.201840221320562 0.03132077503878716
3 342 392 457 0.9749853728610903 0.201840221320562 0.03132077503878716
3 121 397 120 0.9749853728610903 0.201840221320562 0.03132077503878716
3 120 229 121 0.9749853728610903 0.201840221320562 0.03132077503878716
3 228 229 120 0.9749853728610903 0.201840221320562 0.03132077503878716
3 120 119 228 0.9749853728610903 0.201840221320562 0.03132077503878716
3 116 397 223 0.9749853728610903 0.201840221320562 0.03132077503878716
3 223 222 116 0.9749853728610903 0.201840221320562 0.03132077503878716
3 116 222 115 0.9749853728610903 0.201840221320562 0.03132077503878716
3 395 119 396 0.9749853728610903 0.201840221320562 0.03132077503878716
3 397 116 396 0.9749853728610903 0.201840221320562 0.03132077503878716
3 119 120 396 0.9749853728610903 0.201840221320562 0.03132077503878716
3 396 120 397 0.9749853728610903 0.201840221320562 0.03132077503878716
3 396 115 395 0.9749853728610903 0.201840221320562 0.03132077503878716
3 396 116 115 0.9749853728610903 0.201840221320562 0.03132077503878716
3 400 342 341 0.9749853728610903 0.201840221320562 0.03132077503878716
3 400 401 342 0.9749853728610903 0.201840221320562 0.03132077503878716
3 400 233 401 0.9749853728610903 0.201840221320562 0.03132077503878716
3 400 399 232 0.9749853728610903 0.201840221320562 0.03132077503878716
3 232 233 400 0.9749853728610903 0.201840221320562 0.03132077503878716
3 398 399 224 0.9749853728610903 0.201840221320562 0.03132077503878716
3 223 397 224 0.9749853728610903 0.201840221320562 0.03132077503878716
3 224 397 398 0.9749853728610903 0.201840221320562 0.03132077503878716
3 224 339 223 0.9749853728610903 0.201840221320562 0.03132077503878716
3 340 339 224 0.9749853728610903 0.201840221320562 0.03132077503878716
3 118 119 395 0.9749853728610903 0.201840221320562 0.03132077503878716
3 395 394 118 0.9749853728610903 0.201840221320562 0.03132077503878716
3 231 348 232 0.9749853728610903 0.201840221320562 0.03132077503878716
3 126 348 231 0.9749853728610903 0.201840221320562 0.03132077503878716
3 231 230 126 0.9749853728610903 0.201840221320562 0.03132077503878716
3 232 399 231 0.9749853728610903 0.201840221320562 0.03132077503878716
3 121 230 231 0.9749853728610903 0.201840221320562 0.03132077503878716
3 231 398 121 0.9749853728610903 0.201840221320562 0.03132077503878716
3 231 399 398 0.9749853728610903 0.201840221320562 0.03132077503878716
3 346 131 347 0.9749853728610903 0.201840221320562 0.03132077503878716
3 347 131 348 0.9749853728610903 0.201840221320562 0.03132077503878716
3 347 126 346 0.9749853728610903 0.201840221320562 0.03132077503878716
3 347 348 126 0.9749853728610903 0.201840221320562 0.03132077503878716
3 130 131 346 0.9749853728610903 0.201840221320562 0.03132077503878716
3 238 131 130 0.9749853728610903 0.201840221320562 0.03132077503878716
3 129 237 130 0.9749853728610903 0.201840221320562 0.03132077503878716
3 130 237 238 0.9749853728610903 0.201840221320562 0.03132077503878716
3 411 410 249 0.9749853728610903 0.201840221320562 0.03132077503878716
3 361 411 249 0.9749853728610903 0.201840221320562 0.03132077503878716
3 249 360 361 0.9749853728610903 0.201840221320562 0.03132077503878716
3 249 248 360 0.9749853728610903 0.201840221320562 0.03132077503878716
3 410 248 249 0.9749853728610903 0.201840221320562 0.03132077503878716
3 413 351 241 0.9749853728610903 0.201840221320562 0.03132077503878716
3 241 412 413 0.9749853728610903 0.201840221320562 0.03132077503878716
3 349 240 241 0.9749853728610903 0.201840221320562 0.03132077503878716
3 411 412 241 0.9749853728610903 0.201840221320562 0.03132077503878716
3 241 240 411 0.9749853728610903 0.201840221320562 0.03132077503878716
3 320 321 203 0.9749853728610903 0.201840221320562 0.03132077503878716
3 203 146 320 0.9749853728610903 0.201840221320562 0.03132077503878716
3 360 248 359 0.9749853728610903 0.201840221320562 0.03132077503878716
3 358 203 359 0.9749853728610903 0.201840221320562 0.03132077503878716
3 359 248 247 0.9749853728610903 0.201840221320562 0.03132077503878716
3 247 358 359 0.9749853728610903 0.201840221320562 0.03132077503878716
3 359 321 360 0.9749853728610903 0.201840221320562 0.03132077503878716
3 359 203 321 0.9749853728610903 0.201840221320562 0.03132077503878716
3 451 385 100 0.9749853728610903 0.201840221320562 0.03132077503878716
3 184 385 451 0.9749853728610903 0.201840221320562 0.03132077503878716
3 100 101 451 0.9749853728610903 0.201840221320562 0.03132077503878716
3 59 60 298 0.9749853728610903 0.201840221320562 0.03132077503878716
3 176 280 279 0.9749853728610903 0.201840221320562 0.03132077503878716
3 176 80 280 0.9749853728610903 0.201840221320562 0.03132077503878716
3 176 278 175 0.9749853728610903 0.201840221320562 0.03132077503878716
3 279 278 176 0.9749853728610903 0.201840221320562 0.03132077503878716
3 175 79 176 0.9749853728610903 0.201840221320562 0.03132077503878716
3 79 80 176 0.9749853728610903 0.201840221320562 0.03132077503878716
3 54 90 373 0.9749853728610903 0.201840221320562 0.03132077503878716
3 53 54 373 0.9749853728610903 0.201840221320562 0.03132077503878716
3 373 85 53 0.9749853728610903 0.201840221320562 0.03132077503878716
3 373 374 85 0.9749853728610903 0.201840221320562 0.03132077503878716
3 90 293 91 0.9749853728610903 0.201840221320562 0.03132077503878716
3 91 373 90 0.9749853728610903 0.201840221320562 0.03132077503878716
3 374 373 91 0.9749853728610903 0.201840221320562 0.03132077503878716
3 86 374 375 0.9749853728610903 0.201840221320562 0.03132077503878716
3 376 87 375 0.9749853728610903 0.201840221320562 0.03132077503878716
3 375 87 86 0.9749853728610903 0.201840221320562 0.03132077503878716
3 374 91 375 0.9749853728610903 0.201840221320562 0.03132077503878716
3 276 277 170 0.9749853728610903 0.201840221320562 0.03132077503878716
3 275 276 170 0.9749853728610903 0.201840221320562 0.03132077503878716
3 170 328 166 0.9749853728610903 0.201840221320562 0.03132077503878716
3 166 327 170 0.9749853728610903 0.201840221320562 0.03132077503878716
3 171 278 329 0.9749853728610903 0.201840221320562 0.03132077503878716
3 277 278 171 0.9749853728610903 0.201840221320562 0.03132077503878716
3 329 328 171 0.9749853728610903 0.201840221320562 0.03132077503878716
3 328 170 171 0.9749853728610903 0.201840221320562 0.03132077503878716
3 171 170 277 0.9749853728610903 0.201840221320562 0.03132077503878716
3 362 414 413 0.9749853728610903 0.201840221320562 0.03132077503878716
3 362 425 414 0.9749853728610903 0.201840221320562 0.03132077503878716
3 361 323 362 0.9749853728610903 0.201840221320562 0.03132077503878716
3 424 425 362 0.9749853728610903 0.201840221320562 0.03132077503878716
3 362 323 424 0.9749853728610903 0.201840221320562 0.03132077503878716
3 362 412 361 0.9749853728610903 0.201840221320562 0.03132077503878716
3 413 412 362 0.9749853728610903 0.201840221320562 0.03132077503878716
3 424 323 423 0.9749853728610903 0.201840221320562 0.03132077503878716
3 423 265 371 0.9749853728610903 0.201840221320562 0.03132077503878716
3 372 424 423 0.9749853728610903 0.201840221320562 0.03132077503878716
3 423 371 372 0.9749853728610903 0.201840221320562 0.03132077503878716
3 180 440 439 0.9749853728610903 0.201840221320562 0.03132077503878716
3 453 388 186 0.9749853728610903 0.201840221320562 0.03132077503878716
3 186 388 302 0.9749853728610903 0.201840221320562 0.03132077503878716
3 302 180 186 0.9749853728610903 0.201840221320562 0.03132077503878716
3 439 93 438 0.9749853728610903 0.201840221320562 0.03132077503878716
3 438 180 439 0.9749853728610903 0.201840221320562 0.03132077503878716
3 179 180 438 0.9749853728610903 0.201840221320562 0.03132077503878716
3 438 437 179 0.9749853728610903 0.201840221320562 0.03132077503878716
3 438 93 57 0.9749853728610903 0.201840221320562 0.03132077503878716
3 57 437 438 0.9749853728610903 0.201840221320562 0.03132077503878716
3 310 101 100 0.9749853728610903 0.201840221320562 0.03132077503878716
3 100 309 310 0.9749853728610903 0.201840221320562 0.03132077503878716
3 310 309 72 0.9749853728610903 0.201840221320562 0.03132077503878716
3 310 214 311 0.9749853728610903 0.201840221320562 0.03132077503878716
3 311 101 310 0.9749853728610903 0.201840221320562 0.03132077503878716
3 71 103 212 0.9749853728610903 0.201840221320562 0.03132077503878716
3 71 211 103 0.9749853728610903 0.201840221320562 0.03132077503878716
3 212 309 71 0.9749853728610903 0.201840221320562 0.03132077503878716
3 103 211 102 0.9749853728610903 0.201840221320562 0.03132077503878716
3 9 333 102 0.9749853728610903 0.201840221320562 0.03132077503878716
3 102 333 103 0.9749853728610903 0.201840221320562 0.03132077503878716
3 102 8 9 0.9749853728610903 0.201840221320562 0.03132077503878716
3 221 222 111 0.9749853728610903 0.201840221320562 0.03132077503878716
3 111 222 338 0.9749853728610903 0.201840221320562 0.03132077503878716
3 338 337 111 0.9749853728610903 0.201840221320562 0.03132077503878716
3 108 109 335 0.9749853728610903 0.201840221320562 0.03132077503878716
3 335 334 108 0.9749853728610903 0.201840221320562 0.03132077503878716
3 334 107 108 0.9749853728610903 0.201840221320562 0.03132077503878716
3 108 107 11 0.9749853728610903 0.201840221320562 0.03132077503878716
3 11 218 108 0.9749853728610903 0.201840221320562 0.03132077503878716
3 220 114 221 0.9749853728610903 0.201840221320562 0.03132077503878716
3 220 113 114 0.9749853728610903 0.201840221320562 0.03132077503878716
3 106 214 336 0.9749853728610903 0.201840221320562 0.03132077503878716
3 335 109 336 0.9749853728610903 0.201840221320562 0.03132077503878716
3 394 113 393 0.9749853728610903 0.201840221320562 0.03132077503878716
3 393 13 14 0.9749853728610903 0.201840221320562 0.03132077503878716
3 112 13 393 0.9749853728610903 0.201840221320562 0.03132077503878716
3 393 113 112 0.9749853728610903 0.201840221320562 0.03132077503878716
3 305 442 304 0.9749853728610903 0.201840221320562 0.03132077503878716
3 305 443 442 0.9749853728610903 0.201840221320562 0.03132077503878716
3 304 390 305 0.9749853728610903 0.201840221320562 0.03132077503878716
3 390 456 305 0.9749853728610903 0.201840221320562 0.03132077503878716
3 444 443 305 0.9749853728610903 0.201840221320562 0.03132077503878716
3 302 303 181 0.9749853728610903 0.201840221320562 0.03132077503878716
3 181 180 302 0.9749853728610903 0.201840221320562 0.03132077503878716
3 440 180 181 0.9749853728610903 0.201840221320562 0.03132077503878716
3 389 303 454 0.9749853728610903 0.201840221320562 0.03132077503878716
3 455 303 389 0.9749853728610903 0.201840221320562 0.03132077503878716
3 389 454 313 0.9749853728610903 0.201840221320562 0.03132077503878716
3 313 455 389 0.9749853728610903 0.201840221320562 0.03132077503878716
3 378 377 296 0.9749853728610903 0.201840221320562 0.03132077503878716
3 377 295 296 0.9749853728610903 0.201840221320562 0.03132077503878716
3 296 297 378 0.9749853728610903 0.201840221320562 0.03132077503878716
3 444 297 296 0.9749853728610903 0.201840221320562 0.03132077503878716
3 296 295 444 0.9749853728610903 0.201840221320562 0.03132077503878716
3 284 84 83 0.9749853728610903 0.201840221320562 0.03132077503878716
3 83 283 284 0.9749853728610903 0.201840221320562 0.03132077503878716
3 83 82 283 0.9749853728610903 0.201840221320562 0.03132077503878716
3 84 429 83 0.9749853728610903 0.201840221320562 0.03132077503878716
3 288 432 287 0.9749853728610903 0.201840221320562 0.03132077503878716
3 287 379 288 0.9749853728610903 0.201840221320562 0.03132077503878716
3 380 289 288 0.9749853728610903 0.201840221320562 0.03132077503878716
3 288 379 380 0.9749853728610903 0.201840221320562 0.03132077503878716
3 332 434 372 0.9749853728610903 0.201840221320562 0.03132077503878716
3 332 371 331 0.9749853728610903 0.201840221320562 0.03132077503878716
3 372 371 332 0.9749853728610903 0.201840221320562 0.03132077503878716
3 345 124 344 0.9749853728610903 0.201840221320562 0.03132077503878716
3 345 344 129 0.9749853728610903 0.201840221320562 0.03132077503878716
3 345 346 125 0.9749853728610903 0.201840221320562 0.03132077503878716
3 125 124 345 0.9749853728610903 0.201840221320562 0.03132077503878716
3 129 130 345 0.9749853728610903 0.201840221320562 0.03132077503878716
3 345 130 346 0.9749853728610903 0.201840221320562 0.03132077503878716
3 16 226 15 0.9749853728610903 0.201840221320562 0.03132077503878716
3 228 119 227 0.9749853728610903 0.201840221320562 0.03132077503878716
3 227 123 228 0.9749853728610903 0.201840221320562 0.03132077503878716
3 119 118 227 0.9749853728610903 0.201840221320562 0.03132077503878716
3 227 118 226 0.9749853728610903 0.201840221320562 0.03132077503878716
3 122 123 227 0.9749853728610903 0.201840221320562 0.03132077503878716
3 227 226 122 0.9749853728610903 0.201840221320562 0.03132077503878716
3 418 417 155 0.9749853728610903 0.201840221320562 0.03132077503878716
3 418 419 76 0.9749853728610903 0.201840221320562 0.03132077503878716
3 76 75 418 0.9749853728610903 0.201840221320562 0.03132077503878716
3 75 417 418 0.9749853728610903 0.201840221320562 0.03132077503878716
3 418 155 156 0.9749853728610903 0.201840221320562 0.03132077503878716
3 156 419 418 0.9749853728610903 0.201840221320562 0.03132077503878716
3 368 369 263 0.9749853728610903 0.201840221320562 0.03132077503878716
3 263 369 264 0.9749853728610903 0.201840221320562 0.03132077503878716
3 264 420 263 0.9749853728610903 0.201840221320562 0.03132077503878716
3 263 419 156 0.9749853728610903 0.201840221320562 0.03132077503878716
3 420 419 263 0.9749853728610903 0.201840221320562 0.03132077503878716
3 143 315 316 0.9749853728610903 0.201840221320562 0.03132077503878716
3 143 142 315 0.9749853728610903 0.201840221320562 0.03132077503878716
3 316 144 143 0.9749853728610903 0.201840221320562 0.03132077503878716
3 199 142 143 0.9749853728610903 0.201840221320562 0.03132077503878716
3 143 144 200 0.9749853728610903 0.201840221320562 0.03132077503878716
3 200 199 143 0.9749853728610903 0.201840221320562 0.03132077503878716
3 154 417 416 0.9749853728610903 0.201840221320562 0.03132077503878716
3 416 153 154 0.9749853728610903 0.201840221320562 0.03132077503878716
3 154 153 260 0.9749853728610903 0.201840221320562 0.03132077503878716
3 155 417 154 0.9749853728610903 0.201840221320562 0.03132077503878716
3 260 261 154 0.9749853728610903 0.201840221320562 0.03132077503878716
3 261 155 154 0.9749853728610903 0.201840221320562 0.03132077503878716
3 415 153 416 0.9749853728610903 0.201840221320562 0.03132077503878716
3 415 416 73 0.9749853728610903 0.201840221320562 0.03132077503878716
3 73 32 415 0.9749853728610903 0.201840221320562 0.03132077503878716
3 415 32 33 0.9749853728610903 0.201840221320562 0.03132077503878716
3 46 167 325 0.9749853728610903 0.201840221320562 0.03132077503878716
3 47 167 46 0.9749853728610903 0.201840221320562 0.03132077503878716
3 169 327 326 0.9749853728610903 0.201840221320562 0.03132077503878716
3 326 168 169 0.9749853728610903 0.201840221320562 0.03132077503878716
3 275 170 169 0.9749853728610903 0.201840221320562 0.03132077503878716
3 169 170 327 0.9749853728610903 0.201840221320562 0.03132077503878716
3 169 274 275 0.9749853728610903 0.201840221320562 0.03132077503878716
3 169 168 274 0.9749853728610903 0.201840221320562 0.03132077503878716
3 209 271 368 0.9749853728610903 0.201840221320562 0.03132077503878716
3 209 368 367 0.9749853728610903 0.201840221320562 0.03132077503878716
3 166 271 209 0.9749853728610903 0.201840221320562 0.03132077503878716
3 209 270 166 0.9749853728610903 0.201840221320562 0.03132077503878716
3 367 208 209 0.9749853728610903 0.201840221320562 0.03132077503878716
3 208 270 209 0.9749853728610903 0.201840221320562 0.03132077503878716
3 138 244 139 0.9749853728610903 0.201840221320562 0.03132077503878716
3 138 405 404 0.9749853728610903 0.201840221320562 0.03132077503878716
3 139 405 138 0.9749853728610903 0.201840221320562 0.03132077503878716
3 137 244 138 0.9749853728610903 0.201840221320562 0.03132077503878716
3 138 21 137 0.9749853728610903 0.201840221320562 0.03132077503878716
3 404 21 138 0.9749853728610903 0.201840221320562 0.03132077503878716
3 234 19 132 0.9749853728610903 0.201840221320562 0.03132077503878716
3 132 133 234 0.9749853728610903 0.201840221320562 0.03132077503878716
3 234 133 235 0.9749853728610903 0.201840221320562 0.03132077503878716
3 18 19 234 0.9749853728610903 0.201840221320562 0.03132077503878716
3 234 127 18 0.9749853728610903 0.201840221320562 0.03132077503878716
3 235 127 234 0.9749853728610903 0.201840221320562 0.03132077503878716
3 246 141 140 0.9749853728610903 0.201840221320562 0.03132077503878716
3 406 139 140 0.9749853728610903 0.201840221320562 0.03132077503878716
3 140 407 406 0.9749853728610903 0.201840221320562 0.03132077503878716
3 141 407 140 0.9749853728610903 0.201840221320562 0.03132077503878716
3 245 246 140 0.9749853728610903 0.201840221320562 0.03132077503878716
3 140 139 245 0.9749853728610903 0.201840221320562 0.03132077503878716
3 391 457 444 0.9749853728610903 0.201840221320562 0.03132077503878716
3 444 305 391 0.9749853728610903 0.201840221320562 0.03132077503878716
3 391 305 456 0.9749853728610903 0.201840221320562 0.03132077503878716
3 391 456 314 0.9749853728610903 0.201840221320562 0.03132077503878716
3 391 314 341 0.9749853728610903 0.201840221320562 0.03132077503878716
3 341 457 391 0.9749853728610903 0.201840221320562 0.03132077503878716
3 225 224 399 0.9749853728610903 0.201840221320562 0.03132077503878716
3 225 400 341 0.9749853728610903 0.201840221320562 0.03132077503878716
3 399 400 225 0.9749853728610903 0.201840221320562 0.03132077503878716
3 341 340 225 0.9749853728610903 0.201840221320562 0.03132077503878716
3 340 224 225 0.9749853728610903 0.201840221320562 0.03132077503878716
3 117 118 394 0.9749853728610903 0.201840221320562 0.03132077503878716
3 117 393 14 0.9749853728610903 0.201840221320562 0.03132077503878716
3 394 393 117 0.9749853728610903 0.201840221320562 0.03132077503878716
3 14 15 117 0.9749853728610903 0.201840221320562 0.03132077503878716
3 226 118 117 0.9749853728610903 0.201840221320562 0.03132077503878716
3 117 15 226 0.9749853728610903 0.201840221320562 0.03132077503878716
3 349 241 350 0.9749853728610903 0.201840221320562 0.03132077503878716
3 350 241 351 0.9749853728610903 0.201840221320562 0.03132077503878716
3 350 233 349 0.9749853728610903 0.201840221320562 0.03132077503878716
3 351 233 350 0.9749853728610903 0.201840221320562 0.03132077503878716
3 202 358 357 0.9749853728610903 0.201840221320562 0.03132077503878716
3 202 203 358 0.9749853728610903 0.201840221320562 0.03132077503878716
3 146 203 202 0.9749853728610903 0.201840221320562 0.03132077503878716
3 357 201 202 0.9749853728610903 0.201840221320562 0.03132077503878716
3 202 145 146 0.9749853728610903 0.201840221320562 0.03132077503878716
3 201 145 202 0.9749853728610903 0.201840221320562 0.03132077503878716
3 66 2 3 0.9749853728610903 0.201840221320562 0.03132077503878716
3 3 306 66 0.9749853728610903 0.201840221320562 0.03132077503878716
3 306 307 66 0.9749853728610903 0.201840221320562 0.03132077503878716
3 66 307 67 0.9749853728610903 0.201840221320562 0.03132077503878716
3 182 383 384 0.9749853728610903 0.201840221320562 0.03132077503878716
3 62 383 61 0.9749853728610903 0.201840221320562 0.03132077503878716
3 383 182 61 0.9749853728610903 0.201840221320562 0.03132077503878716
3 61 182 60 0.9749853728610903 0.201840221320562 0.03132077503878716
3 183 385 184 0.9749853728610903 0.201840221320562 0.03132077503878716
3 183 182 384 0.9749853728610903 0.201840221320562 0.03132077503878716
3 183 298 60 0.9749853728610903 0.201840221320562 0.03132077503878716
3 60 182 183 0.9749853728610903 0.201840221320562 0.03132077503878716
3 376 375 92 0.9749853728610903 0.201840221320562 0.03132077503878716
3 92 375 91 0.9749853728610903 0.201840221320562 0.03132077503878716
3 92 295 376 0.9749853728610903 0.201840221320562 0.03132077503878716
3 294 295 92 0.9749853728610903 0.201840221320562 0.03132077503878716
3 92 293 294 0.9749853728610903 0.201840221320562 0.03132077503878716
3 92 91 293 0.9749853728610903 0.201840221320562 0.03132077503878716
3 257 323 322 0.9749853728610903 0.201840221320562 0.03132077503878716
3 257 423 323 0.9749853728610903 0.201840221320562 0.03132077503878716
3 322 321 257 0.9749853728610903 0.201840221320562 0.03132077503878716
3 257 321 256 0.9749853728610903 0.201840221320562 0.03132077503878716
3 301 180 179 0.9749853728610903 0.201840221320562 0.03132077503878716
3 301 186 180 0.9749853728610903 0.201840221320562 0.03132077503878716
3 179 300 301 0.9749853728610903 0.201840221320562 0.03132077503878716
3 179 437 178 0.9749853728610903 0.201840221320562 0.03132077503878716
3 178 300 179 0.9749853728610903 0.201840221320562 0.03132077503878716
3 214 310 213 0.9749853728610903 0.201840221320562 0.03132077503878716
3 213 104 335 0.9749853728610903 0.201840221320562 0.03132077503878716
3 72 104 213 0.9749853728610903 0.201840221320562 0.03132077503878716
3 213 310 72 0.9749853728610903 0.201840221320562 0.03132077503878716
3 110 220 221 0.9749853728610903 0.201840221320562 0.03132077503878716
3 221 111 110 0.9749853728610903 0.201840221320562 0.03132077503878716
3 110 111 337 0.9749853728610903 0.201840221320562 0.03132077503878716
3 110 337 106 0.9749853728610903 0.201840221320562 0.03132077503878716
3 106 336 110 0.9749853728610903 0.201840221320562 0.03132077503878716
3 109 220 110 0.9749853728610903 0.201840221320562 0.03132077503878716
3 110 336 109 0.9749853728610903 0.201840221320562 0.03132077503878716
3 112 113 219 0.9749853728610903 0.201840221320562 0.03132077503878716
3 113 220 219 0.9749853728610903 0.201840221320562 0.03132077503878716
3 219 220 109 0.9749853728610903 0.201840221320562 0.03132077503878716
3 219 12 112 0.9749853728610903 0.201840221320562 0.03132077503878716
3 219 218 12 0.9749853728610903 0.201840221320562 0.03132077503878716
3 109 108 219 0.9749853728610903 0.201840221320562 0.03132077503878716
3 219 108 218 0.9749853728610903 0.201840221320562 0.03132077503878716
3 441 181 303 0.9749853728610903 0.201840221320562 0.03132077503878716
3 304 442 441 0.9749853728610903 0.201840221320562 0.03132077503878716
3 441 303 304 0.9749853728610903 0.201840221320562 0.03132077503878716
3 440 181 441 0.9749853728610903 0.201840221320562 0.03132077503878716
3 430 84 431 0.9749853728610903 0.201840221320562 0.03132077503878716
3 430 429 84 0.9749853728610903 0.201840221320562 0.03132077503878716
3 431 280 430 0.9749853728610903 0.201840221320562 0.03132077503878716
3 280 80 430 0.9749853728610903 0.201840221320562 0.03132077503878716
3 80 429 430 0.9749853728610903 0.201840221320562 0.03132077503878716
3 428 80 427 0.9749853728610903 0.201840221320562 0.03132077503878716
3 428 429 80 0.9749853728610903 0.201840221320562 0.03132077503878716
3 427 82 428 0.9749853728610903 0.201840221320562 0.03132077503878716
3 82 83 428 0.9749853728610903 0.201840221320562 0.03132077503878716
3 428 83 429 0.9749853728610903 0.201840221320562 0.03132077503878716
3 434 332 433 0.9749853728610903 0.201840221320562 0.03132077503878716
3 289 434 433 0.9749853728610903 0.201840221320562 0.03132077503878716
3 433 288 289 0.9749853728610903 0.201840221320562 0.03132077503878716
3 432 288 433 0.9749853728610903 0.201840221320562 0.03132077503878716
3 262 161 368 0.9749853728610903 0.201840221320562 0.03132077503878716
3 368 263 262 0.9749853728610903 0.201840221320562 0.03132077503878716
3 262 263 156 0.9749853728610903 0.201840221320562 0.03132077503878716
3 156 155 262 0.9749853728610903 0.201840221320562 0.03132077503878716
3 262 155 261 0.9749853728610903 0.201840221320562 0.03132077503878716
3 261 161 262 0.9749853728610903 0.201840221320562 0.03132077503878716
3 153 415 152 0.9749853728610903 0.201840221320562 0.03132077503878716
3 258 259 152 0.9749853728610903 0.201840221320562 0.03132077503878716
3 259 153 152 0.9749853728610903 0.201840221320562 0.03132077503878716
3 34 258 152 0.9749853728610903 0.201840221320562 0.03132077503878716
3 33 34 152 0.9749853728610903 0.201840221320562 0.03132077503878716
3 152 415 33 0.9749853728610903 0.201840221320562 0.03132077503878716
3 45 162 44 0.9749853728610903 0.201840221320562 0.03132077503878716
3 162 45 163 0.9749853728610903 0.201840221320562 0.03132077503878716
3 267 162 163 0.9749853728610903 0.201840221320562 0.03132077503878716
3 188 383 448 0.9749853728610903 0.201840221320562 0.03132077503878716
3 448 98 188 0.9749853728610903 0.201840221320562 0.03132077503878716
3 384 383 188 0.9749853728610903 0.201840221320562 0.03132077503878716
3 98 99 188 0.9749853728610903 0.201840221320562 0.03132077503878716
3 8 102 210 0.9749853728610903 0.201840221320562 0.03132077503878716
3 210 102 211 0.9749853728610903 0.201840221320562 0.03132077503878716
3 7 8 210 0.9749853728610903 0.201840221320562 0.03132077503878716
3 70 210 211 0.9749853728610903 0.201840221320562 0.03132077503878716
3 307 210 70 0.9749853728610903 0.201840221320562 0.03132077503878716
3 67 98 97 0.9749853728610903 0.201840221320562 0.03132077503878716
3 97 66 67 0.9749853728610903 0.201840221320562 0.03132077503878716
3 97 98 448 0.9749853728610903 0.201840221320562 0.03132077503878716
3 2 66 97 0.9749853728610903 0.201840221320562 0.03132077503878716
3 97 448 1 0.9749853728610903 0.201840221320562 0.03132077503878716
3 1 2 97 0.9749853728610903 0.201840221320562 0.03132077503878716
3 265 423 422 0.9749853728610903 0.201840221320562 0.03132077503878716
3 423 257 422 0.9749853728610903 0.201840221320562 0.03132077503878716
3 421 265 422 0.9749853728610903 0.201840221320562 0.03132077503878716
3 422 256 421 0.9749853728610903 0.201840221320562 0.03132077503878716
3 422 257 256 0.9749853728610903 0.201840221320562 0.03132077503878716
3 387 101 453 0.9749853728610903 0.201840221320562 0.03132077503878716
3 387 191 101 0.9749853728610903 0.201840221320562 0.03132077503878716
3 453 186 387 0.9749853728610903 0.201840221320562 0.03132077503878716
3 186 301 387 0.9749853728610903 0.201840221320562 0.03132077503878716
3 386 300 184 0.9749853728610903 0.201840221320562 0.03132077503878716
3 184 451 386 0.9749853728610903 0.201840221320562 0.03132077503878716
3 386 451 101 0.9749853728610903 0.201840221320562 0.03132077503878716
3 101 191 386 0.9749853728610903 0.201840221320562 0.03132077503878716
3 59 298 299 0.9749853728610903 0.201840221320562 0.03132077503878716
3 184 300 299 0.9749853728610903 0.201840221320562 0.03132077503878716
3 299 183 184 0.9749853728610903 0.201840221320562 0.03132077503878716
3 298 183 299 0.9749853728610903 0.201840221320562 0.03132077503878716
3 58 178 437 0.9749853728610903 0.201840221320562 0.03132077503878716
3 58 437 57 0.9749853728610903 0.201840221320562 0.03132077503878716
3 105 213 335 0.9749853728610903 0.201840221320562 0.03132077503878716
3 214 213 105 0.9749853728610903 0.201840221320562 0.03132077503878716
3 335 336 105 0.9749853728610903 0.201840221320562 0.03132077503878716
3 105 336 214 0.9749853728610903 0.201840221320562 0.03132077503878716
3 96 95 440 0.9749853728610903 0.201840221320562 0.03132077503878716
3 440 441 96 0.9749853728610903 0.201840221320562 0.03132077503878716
3 292 291 96 0.9749853728610903 0.201840221320562 0.03132077503878716
3 291 95 96 0.9749853728610903 0.201840221320562 0.03132077503878716
3 96 293 292 0.9749853728610903 0.201840221320562 0.03132077503878716
3 442 293 96 0.9749853728610903 0.201840221320562 0.03132077503878716
3 96 441 442 0.9749853728610903 0.201840221320562 0.03132077503878716
3 432 433 281 0.9749853728610903 0.201840221320562 0.03132077503878716
3 281 433 332 0.9749853728610903 0.201840221320562 0.03132077503878716
3 431 432 281 0.9749853728610903 0.201840221320562 0.03132077503878716
3 281 280 431 0.9749853728610903 0.201840221320562 0.03132077503878716
3 331 280 281 0.9749853728610903 0.201840221320562 0.03132077503878716
3 281 332 331 0.9749853728610903 0.201840221320562 0.03132077503878716
3 324 46 325 0.9749853728610903 0.201840221320562 0.03132077503878716
3 325 164 324 0.9749853728610903 0.201840221320562 0.03132077503878716
3 164 163 324 0.9749853728610903 0.201840221320562 0.03132077503878716
3 324 45 46 0.9749853728610903 0.201840221320562 0.03132077503878716
3 324 163 45 0.9749853728610903 0.201840221320562 0.03132077503878716
3 268 163 164 0.9749853728610903 0.201840221320562 0.03132077503878716
3 268 269 207 0.9749853728610903 0.201840221320562 0.03132077503878716
3 268 164 269 0.9749853728610903 0.201840221320562 0.03132077503878716
3 207 206 268 0.9749853728610903 0.201840221320562 0.03132077503878716
3 268 206 267 0.9749853728610903 0.201840221320562 0.03132077503878716
3 267 163 268 0.9749853728610903 0.201840221320562 0.03132077503878716
3 189 183 384 0.9749853728610903 0.201840221320562 0.03132077503878716
3 385 183 189 0.9749853728610903 0.201840221320562 0.03132077503878716
3 384 188 189 0.9749853728610903 0.201840221320562 0.03132077503878716
3 189 188 99 0.9749853728610903 0.201840221320562 0.03132077503878716
3 100 385 189 0.9749853728610903 0.201840221320562 0.03132077503878716
3 189 99 100 0.9749853728610903 0.201840221320562 0.03132077503878716
3 68 98 67 0.9749853728610903 0.201840221320562 0.03132077503878716
3 68 99 98 0.9749853728610903 0.201840221320562 0.03132077503878716
3 68 309 100 0.9749853728610903 0.201840221320562 0.03132077503878716
3 100 99 68 0.9749853728610903 0.201840221320562 0.03132077503878716
3 69 306 7 0.9749853728610903 0.201840221320562 0.03132077503878716
3 7 210 69 0.9749853728610903 0.201840221320562 0.03132077503878716
3 69 307 306 0.9749853728610903 0.201840221320562 0.03132077503878716
3 69 210 307 0.9749853728610903 0.201840221320562 0.03132077503878716
3 191 387 185 0.9749853728610903 0.201840221320562 0.03132077503878716
3 300 386 185 0.9749853728610903 0.201840221320562 0.03132077503878716
3 185 386 191 0.9749853728610903 0.201840221320562 0.03132077503878716
3 185 301 300 0.9749853728610903 0.201840221320562 0.03132077503878716
3 185 387 301 0.9749853728610903 0.201840221320562 0.03132077503878716
3 178 58 177 0.9749853728610903 0.201840221320562 0.03132077503878716
3 300 178 177 0.9749853728610903 0.201840221320562 0.03132077503878716
3 177 299 300 0.9749853728610903 0.201840221320562 0.03132077503878716
3 59 299 177 0.9749853728610903 0.201840221320562 0.03132077503878716
3 177 58 59 0.9749853728610903 0.201840221320562 0.03132077503878716
3 308 71 309 0.9749853728610903 0.201840221320562 0.03132077503878716
3 309 68 308 0.9749853728610903 0.201840221320562 0.03132077503878716
3 211 71 308 0.9749853728610903 0.201840221320562 0.03132077503878716
3 308 70 211 0.9749853728610903 0.201840221320562 0.03132077503878716
3 308 68 67 0.9749853728610903 0.201840221320562 0.03132077503878716
3 67 307 308 0.9749853728610903 0.201840221320562 0.03132077503878716
3 307 70 308 0.9749853728610903 0.201840221320562 0.03132077503878716
