OFF
262 464 0


29.2192 34.2643 9.734
29.2192 34.2643 9.734
29.2012 34.2444 9.8752
29.1877 34.2299 9.9835
29.1766 34.2182 10.0745
29.1668 34.2081 10.157
29.1574 34.1987 10.2369
29.148 34.1894 10.3194
29.1378 34.1797 10.4107
29.1261 34.1689 10.5195
29.1112 34.1561 10.6622
29.0809 34.2143 10.6213
29.0513 34.2722 10.5794
29.0513 34.2722 10.5794
29.0152 34.3577 10.4773
28.9836 34.4346 10.3884
28.9553 34.505 10.3095
28.9295 34.5706 10.238
28.9055 34.6326 10.1721
28.8828 34.6923 10.11
28.8609 34.7507 10.0507
28.8395 34.8086 9.9929
28.8183 34.8671 9.9358
28.7968 34.927 9.8783
28.7746 34.9895 9.8195
28.7514 35.0558 9.7582
28.7267 35.1275 9.6931
28.6997 35.2065 9.6226
28.6698 35.2954 9.5447
28.6357 35.3979 9.4566
28.6357 35.3979 9.4566
28.6667 35.3532 9.4231
28.6979 35.3085 9.3898
28.6979 35.3085 9.3898
28.7575 35.1825 9.4237
28.807 35.0797 9.4518
28.8502 34.9912 9.4763
28.8896 34.9115 9.4987
28.9271 34.8366 9.5199
28.9642 34.7633 9.541
29.0024 34.6888 9.5626
29.0432 34.61 9.5857
29.0889 34.5231 9.6115
29.1424 34.4229 9.6417
29.2085 34.3013 9.679
29.2085 34.3013 9.679
29.2138 34.2828 9.7065
29.2192 34.2643 9.734
28.7035 35.2585 9.4818
29.0657 34.2598 10.539
29.051 34.3052 10.4581
29.1858 34.3121 9.7516
29.1536 34.3584 9.7687
29.1419 34.2579 10.1244
29.1176 34.3072 10.0924
29.0937 34.3561 10.0609
29.1255 34.2399 10.269
29.1035 34.2902 10.2194
29.0818 34.3403 10.1704
28.8707 34.74 10.0326
28.8807 34.7292 10.0142
28.8908 34.7183 9.9956
28.8329 34.8435 9.9295
28.8477 34.8198 9.9231
28.8626 34.796 9.9168
28.7946 34.9511 9.8257
28.8145 34.9129 9.832
28.8344 34.875 9.8384
28.8974 34.8786 9.5455
28.905 34.8468 9.591
28.9125 34.816 9.6351
28.9629 34.7491 9.5823
28.9617 34.7354 9.6225
28.9606 34.7221 9.6617
29.0323 34.6147 9.6215
29.0217 34.6194 9.6564
29.0114 34.6239 9.6904
29.1598 34.2789 9.9705
29.1326 34.3272 9.958
29.1059 34.3746 9.9457
29.0798 34.4215 9.9339
28.9319 34.5784 10.201
28.9344 34.5865 10.1633
28.937 34.5947 10.1251
28.9397 34.6032 10.0861
28.8902 34.6878 10.0859
28.8977 34.6832 10.0615
28.9054 34.6786 10.0366
28.9133 34.6739 10.0114
28.753 35.0704 9.7142
28.779 35.0147 9.7351
28.8046 34.9602 9.7558
28.83 34.9067 9.7763
28.7047 35.2125 9.5856
28.7385 35.1335 9.625
28.7712 35.0578 9.6632
28.803 34.985 9.7004
28.8252 35.0243 9.5053
28.8428 34.9713 9.5568
28.8599 34.9205 9.6065
28.8766 34.8717 9.6547
29.119 34.4509 9.6709
29.0963 34.478 9.6992
29.0743 34.5044 9.7268
29.053 34.5301 9.7536
29.1711 34.293 9.8751
29.1418 34.3404 9.8751
29.1133 34.3868 9.8752
29.0855 34.4323 9.8755
29.0584 34.4771 9.8759
29.1058 34.2205 10.4471
29.0861 34.2719 10.376
29.0669 34.3232 10.3057
29.048 34.3749 10.2359
29.0294 34.4272 10.1661
29.0397 34.3109 10.5035
29.0285 34.3498 10.4281
29.0177 34.3892 10.3529
29.007 34.4293 10.2774
28.9965 34.4703 10.2012
28.9801 34.4561 10.3353
28.9767 34.478 10.2818
28.9734 34.5004 10.2275
28.9701 34.5234 10.1725
28.967 34.547 10.1165
28.7308 35.2196 9.4532
28.7622 35.136 9.5134
28.7922 35.0572 9.5707
28.8211 34.9824 9.6258
28.8491 34.9109 9.6789
29.1858 34.3121 9.7516
29.1536 34.3584 9.7687
29.1226 34.4033 9.7854
29.0926 34.4469 9.8017
29.0635 34.4893 9.8176
29.0353 34.5307 9.8332
29.1338 34.2488 10.1955
29.1107 34.2986 10.1547
29.0879 34.3481 10.1146
29.0654 34.3976 10.0749
29.0432 34.4472 10.0355
29.0212 34.497 9.9963
28.9104 34.6342 10.1417
28.9155 34.6359 10.1109
28.9207 34.6376 10.0795
28.9261 34.6394 10.0476
28.9316 34.6413 10.0152
28.9373 34.6433 9.9821
28.814 34.8964 9.8781
28.8312 34.8657 9.8779
28.8486 34.8351 9.8778
28.866 34.8044 9.8778
28.8836 34.7736 9.8778
28.9013 34.7428 9.8779
28.73 35.1377 9.6528
28.7596 35.0713 9.6822
28.7885 35.007 9.7111
28.8169 34.9444 9.7396
28.845 34.8833 9.7677
28.8728 34.8235 9.7955
28.7822 35.1125 9.4815
28.806 35.0461 9.5368
28.8289 34.9828 9.59
28.8511 34.9223 9.6413
28.8727 34.8641 9.691
28.8939 34.808 9.7394
28.9303 34.8132 9.564
28.9335 34.7906 9.6067
28.9367 34.7687 9.6484
28.9398 34.7474 9.689
28.9429 34.7268 9.7286
28.946 34.7068 9.7673
29.0723 34.5386 9.6443
29.0562 34.5536 9.6761
29.0406 34.5683 9.7072
29.0254 34.5826 9.7374
29.0106 34.5966 9.7669
28.9962 34.6103 9.7958
29.1164 34.2307 10.3503
29.0955 34.2814 10.2909
29.0751 34.3321 10.2321
29.0549 34.3831 10.1738
29.0349 34.4344 10.1156
29.0151 34.4865 10.0573
28.9952 34.5395 9.9985
29.0081 34.3872 10.414
29.0011 34.417 10.3505
28.9943 34.4474 10.2867
28.9876 34.4785 10.2221
28.981 34.5104 10.1566
28.9745 34.5432 10.0898
28.9681 34.5773 10.0215
28.7744 35.0087 9.7714
28.7972 34.9623 9.7847
28.8198 34.9165 9.7979
28.8424 34.8712 9.8112
28.8649 34.8264 9.8245
28.8874 34.7819 9.8378
28.91 34.7376 9.8513
28.8629 34.9478 9.5263
28.8752 34.9061 9.5745
28.8873 34.8659 9.6213
28.8991 34.8271 9.6668
28.9107 34.7895 9.7111
28.9221 34.7531 9.7542
28.9333 34.7177 9.7965
29.1762 34.3448 9.7037
29.1452 34.3869 9.7277
29.1153 34.4276 9.7509
29.0865 34.4671 9.7735
29.0586 34.5055 9.7955
29.0316 34.5429 9.8169
29.0055 34.5793 9.8379
29.1504 34.2676 10.0511
29.1247 34.3165 10.0283
29.0996 34.3647 10.0059
29.0748 34.4126 9.9839
29.0504 34.4602 9.9623
29.0263 34.5076 9.941
29.0025 34.5549 9.92
28.9788 34.6022 9.8992
29.0921 34.2087 10.5734
29.0737 34.2608 10.4867
29.056 34.3129 10.4014
29.0388 34.3654 10.3167
29.0219 34.4187 10.232
29.0053 34.4733 10.1466
28.9887 34.5296 10.0597
28.9721 34.5882 9.9706
28.9549 34.5194 10.265
28.9546 34.5342 10.2199
28.9544 34.5492 10.1741
28.9543 34.5647 10.1275
28.9543 34.5806 10.08
28.9544 34.597 10.0314
28.9546 34.614 9.9818
28.9549 34.6315 9.9309
28.8517 34.7917 9.9807
28.8641 34.7745 9.9683
28.8766 34.7573 9.9559
28.8892 34.7398 9.9433
28.9021 34.7222 9.9306
28.9151 34.7043 9.9178
28.9283 34.6863 9.9049
28.9417 34.6681 9.8918
28.6764 35.2974 9.5105
28.7151 35.2031 9.5617
28.7521 35.1141 9.6107
28.7879 35.0294 9.658
28.8226 34.9485 9.7037
28.8565 34.8705 9.7484
28.8897 34.795 9.7923
28.9226 34.7215 9.8356
28.9964 34.6838 9.6012
28.9907 34.679 9.6388
28.9852 34.6744 9.6755
28.9798 34.67 9.7113
28.9746 34.6656 9.7463
28.9695 34.6614 9.7804
28.9647 34.6574 9.8138
28.9599 34.6534 9.8465
28.9553 34.6496 9.8785
3 29 245 31 0.8889358040396416 0.30890894227100385 0.10191739989511883
3 28 245 29 0.8889358040396416 0.30890894227100385 0.10191739989511883
3 5 136 6 0.8889358040396416 0.30890894227100385 0.10191739989511883
3 245 28 48 0.8889358040396416 0.30890894227100385 0.10191739989511883
3 32 31 48 0.8889358040396416 0.30890894227100385 0.10191739989511883
3 48 31 245 0.8889358040396416 0.30890894227100385 0.10191739989511883
3 246 48 28 0.8889358040396416 0.30890894227100385 0.10191739989511883
3 20 237 21 0.8889358040396416 0.30890894227100385 0.10191739989511883
3 10 221 11 0.8889358040396416 0.30890894227100385 0.10191739989511883
3 11 221 13 0.8889358040396416 0.30890894227100385 0.10191739989511883
3 147 88 146 0.8889358040396416 0.30890894227100385 0.10191739989511883
3 188 118 225 0.8889358040396416 0.30890894227100385 0.10191739989511883
3 1 46 51 0.8889358040396416 0.30890894227100385 0.10191739989511883
3 51 2 1 0.8889358040396416 0.30890894227100385 0.10191739989511883
3 105 2 51 0.8889358040396416 0.30890894227100385 0.10191739989511883
3 176 76 257 0.8889358040396416 0.30890894227100385 0.10191739989511883
3 176 257 177 0.8889358040396416 0.30890894227100385 0.10191739989511883
3 251 204 165 0.8889358040396416 0.30890894227100385 0.10191739989511883
3 71 39 166 0.8889358040396416 0.30890894227100385 0.10191739989511883
3 166 39 38 0.8889358040396416 0.30890894227100385 0.10191739989511883
3 48 246 125 0.8889358040396416 0.30890894227100385 0.10191739989511883
3 125 34 32 0.8889358040396416 0.30890894227100385 0.10191739989511883
3 32 48 125 0.8889358040396416 0.30890894227100385 0.10191739989511883
3 93 28 27 0.8889358040396416 0.30890894227100385 0.10191739989511883
3 93 246 28 0.8889358040396416 0.30890894227100385 0.10191739989511883
3 100 163 129 0.8889358040396416 0.30890894227100385 0.10191739989511883
3 9 8 110 0.8889358040396416 0.30890894227100385 0.10191739989511883
3 110 222 9 0.8889358040396416 0.30890894227100385 0.10191739989511883
3 9 221 10 0.8889358040396416 0.30890894227100385 0.10191739989511883
3 115 14 13 0.8889358040396416 0.30890894227100385 0.10191739989511883
3 13 221 49 0.8889358040396416 0.30890894227100385 0.10191739989511883
3 49 115 13 0.8889358040396416 0.30890894227100385 0.10191739989511883
3 222 115 49 0.8889358040396416 0.30890894227100385 0.10191739989511883
3 221 9 49 0.8889358040396416 0.30890894227100385 0.10191739989511883
3 49 9 222 0.8889358040396416 0.30890894227100385 0.10191739989511883
3 88 147 242 0.8889358040396416 0.30890894227100385 0.10191739989511883
3 146 88 87 0.8889358040396416 0.30890894227100385 0.10191739989511883
3 60 86 87 0.8889358040396416 0.30890894227100385 0.10191739989511883
3 19 18 142 0.8889358040396416 0.30890894227100385 0.10191739989511883
3 59 86 60 0.8889358040396416 0.30890894227100385 0.10191739989511883
3 59 237 20 0.8889358040396416 0.30890894227100385 0.10191739989511883
3 120 16 15 0.8889358040396416 0.30890894227100385 0.10191739989511883
3 121 16 120 0.8889358040396416 0.30890894227100385 0.10191739989511883
3 50 222 110 0.8889358040396416 0.30890894227100385 0.10191739989511883
3 14 115 50 0.8889358040396416 0.30890894227100385 0.10191739989511883
3 50 115 222 0.8889358040396416 0.30890894227100385 0.10191739989511883
3 110 8 178 0.8889358040396416 0.30890894227100385 0.10191739989511883
3 186 120 15 0.8889358040396416 0.30890894227100385 0.10191739989511883
3 142 18 82 0.8889358040396416 0.30890894227100385 0.10191739989511883
3 187 188 121 0.8889358040396416 0.30890894227100385 0.10191739989511883
3 118 188 187 0.8889358040396416 0.30890894227100385 0.10191739989511883
3 121 120 187 0.8889358040396416 0.30890894227100385 0.10191739989511883
3 187 186 118 0.8889358040396416 0.30890894227100385 0.10191739989511883
3 120 186 187 0.8889358040396416 0.30890894227100385 0.10191739989511883
3 123 189 124 0.8889358040396416 0.30890894227100385 0.10191739989511883
3 124 231 123 0.8889358040396416 0.30890894227100385 0.10191739989511883
3 121 188 122 0.8889358040396416 0.30890894227100385 0.10191739989511883
3 53 54 137 0.8889358040396416 0.30890894227100385 0.10191739989511883
3 137 136 53 0.8889358040396416 0.30890894227100385 0.10191739989511883
3 136 5 53 0.8889358040396416 0.30890894227100385 0.10191739989511883
3 53 5 4 0.8889358040396416 0.30890894227100385 0.10191739989511883
3 77 2 105 0.8889358040396416 0.30890894227100385 0.10191739989511883
3 119 188 225 0.8889358040396416 0.30890894227100385 0.10191739989511883
3 119 226 189 0.8889358040396416 0.30890894227100385 0.10191739989511883
3 189 123 119 0.8889358040396416 0.30890894227100385 0.10191739989511883
3 119 122 188 0.8889358040396416 0.30890894227100385 0.10191739989511883
3 123 122 119 0.8889358040396416 0.30890894227100385 0.10191739989511883
3 124 189 190 0.8889358040396416 0.30890894227100385 0.10191739989511883
3 189 226 190 0.8889358040396416 0.30890894227100385 0.10191739989511883
3 141 218 184 0.8889358040396416 0.30890894227100385 0.10191739989511883
3 58 181 180 0.8889358040396416 0.30890894227100385 0.10191739989511883
3 113 181 225 0.8889358040396416 0.30890894227100385 0.10191739989511883
3 180 181 113 0.8889358040396416 0.30890894227100385 0.10191739989511883
3 225 118 113 0.8889358040396416 0.30890894227100385 0.10191739989511883
3 118 224 113 0.8889358040396416 0.30890894227100385 0.10191739989511883
3 105 51 52 0.8889358040396416 0.30890894227100385 0.10191739989511883
3 80 107 108 0.8889358040396416 0.30890894227100385 0.10191739989511883
3 175 76 176 0.8889358040396416 0.30890894227100385 0.10191739989511883
3 74 254 75 0.8889358040396416 0.30890894227100385 0.10191739989511883
3 40 39 71 0.8889358040396416 0.30890894227100385 0.10191739989511883
3 73 168 169 0.8889358040396416 0.30890894227100385 0.10191739989511883
3 76 75 255 0.8889358040396416 0.30890894227100385 0.10191739989511883
3 255 75 254 0.8889358040396416 0.30890894227100385 0.10191739989511883
3 254 73 255 0.8889358040396416 0.30890894227100385 0.10191739989511883
3 202 168 70 0.8889358040396416 0.30890894227100385 0.10191739989511883
3 70 168 167 0.8889358040396416 0.30890894227100385 0.10191739989511883
3 71 166 167 0.8889358040396416 0.30890894227100385 0.10191739989511883
3 201 163 100 0.8889358040396416 0.30890894227100385 0.10191739989511883
3 100 202 201 0.8889358040396416 0.30890894227100385 0.10191739989511883
3 201 202 70 0.8889358040396416 0.30890894227100385 0.10191739989511883
3 200 201 69 0.8889358040396416 0.30890894227100385 0.10191739989511883
3 69 201 70 0.8889358040396416 0.30890894227100385 0.10191739989511883
3 70 167 69 0.8889358040396416 0.30890894227100385 0.10191739989511883
3 69 167 166 0.8889358040396416 0.30890894227100385 0.10191739989511883
3 22 21 62 0.8889358040396416 0.30890894227100385 0.10191739989511883
3 148 23 22 0.8889358040396416 0.30890894227100385 0.10191739989511883
3 24 23 65 0.8889358040396416 0.30890894227100385 0.10191739989511883
3 198 252 197 0.8889358040396416 0.30890894227100385 0.10191739989511883
3 196 195 67 0.8889358040396416 0.30890894227100385 0.10191739989511883
3 151 197 196 0.8889358040396416 0.30890894227100385 0.10191739989511883
3 196 197 251 0.8889358040396416 0.30890894227100385 0.10191739989511883
3 152 151 64 0.8889358040396416 0.30890894227100385 0.10191739989511883
3 152 197 151 0.8889358040396416 0.30890894227100385 0.10191739989511883
3 152 153 198 0.8889358040396416 0.30890894227100385 0.10191739989511883
3 198 197 152 0.8889358040396416 0.30890894227100385 0.10191739989511883
3 260 244 261 0.8889358040396416 0.30890894227100385 0.10191739989511883
3 260 252 244 0.8889358040396416 0.30890894227100385 0.10191739989511883
3 259 252 260 0.8889358040396416 0.30890894227100385 0.10191739989511883
3 260 177 259 0.8889358040396416 0.30890894227100385 0.10191739989511883
3 261 220 260 0.8889358040396416 0.30890894227100385 0.10191739989511883
3 205 204 251 0.8889358040396416 0.30890894227100385 0.10191739989511883
3 251 197 205 0.8889358040396416 0.30890894227100385 0.10191739989511883
3 205 197 252 0.8889358040396416 0.30890894227100385 0.10191739989511883
3 205 171 204 0.8889358040396416 0.30890894227100385 0.10191739989511883
3 205 252 259 0.8889358040396416 0.30890894227100385 0.10191739989511883
3 234 191 235 0.8889358040396416 0.30890894227100385 0.10191739989511883
3 146 234 235 0.8889358040396416 0.30890894227100385 0.10191739989511883
3 235 147 146 0.8889358040396416 0.30890894227100385 0.10191739989511883
3 243 242 147 0.8889358040396416 0.30890894227100385 0.10191739989511883
3 244 252 243 0.8889358040396416 0.30890894227100385 0.10191739989511883
3 243 252 198 0.8889358040396416 0.30890894227100385 0.10191739989511883
3 198 153 243 0.8889358040396416 0.30890894227100385 0.10191739989511883
3 153 242 243 0.8889358040396416 0.30890894227100385 0.10191739989511883
3 88 242 61 0.8889358040396416 0.30890894227100385 0.10191739989511883
3 61 87 88 0.8889358040396416 0.30890894227100385 0.10191739989511883
3 60 87 61 0.8889358040396416 0.30890894227100385 0.10191739989511883
3 64 237 238 0.8889358040396416 0.30890894227100385 0.10191739989511883
3 237 59 238 0.8889358040396416 0.30890894227100385 0.10191739989511883
3 238 59 60 0.8889358040396416 0.30890894227100385 0.10191739989511883
3 184 218 219 0.8889358040396416 0.30890894227100385 0.10191739989511883
3 145 87 86 0.8889358040396416 0.30890894227100385 0.10191739989511883
3 86 144 145 0.8889358040396416 0.30890894227100385 0.10191739989511883
3 146 87 145 0.8889358040396416 0.30890894227100385 0.10191739989511883
3 145 234 146 0.8889358040396416 0.30890894227100385 0.10191739989511883
3 20 19 85 0.8889358040396416 0.30890894227100385 0.10191739989511883
3 85 59 20 0.8889358040396416 0.30890894227100385 0.10191739989511883
3 86 59 85 0.8889358040396416 0.30890894227100385 0.10191739989511883
3 85 144 86 0.8889358040396416 0.30890894227100385 0.10191739989511883
3 143 19 142 0.8889358040396416 0.30890894227100385 0.10191739989511883
3 144 85 143 0.8889358040396416 0.30890894227100385 0.10191739989511883
3 143 85 19 0.8889358040396416 0.30890894227100385 0.10191739989511883
3 14 50 116 0.8889358040396416 0.30890894227100385 0.10191739989511883
3 7 178 8 0.8889358040396416 0.30890894227100385 0.10191739989511883
3 81 18 17 0.8889358040396416 0.30890894227100385 0.10191739989511883
3 81 82 18 0.8889358040396416 0.30890894227100385 0.10191739989511883
3 231 82 81 0.8889358040396416 0.30890894227100385 0.10191739989511883
3 229 16 121 0.8889358040396416 0.30890894227100385 0.10191739989511883
3 121 122 229 0.8889358040396416 0.30890894227100385 0.10191739989511883
3 17 16 229 0.8889358040396416 0.30890894227100385 0.10191739989511883
3 230 123 231 0.8889358040396416 0.30890894227100385 0.10191739989511883
3 230 122 123 0.8889358040396416 0.30890894227100385 0.10191739989511883
3 230 81 17 0.8889358040396416 0.30890894227100385 0.10191739989511883
3 231 81 230 0.8889358040396416 0.30890894227100385 0.10191739989511883
3 17 229 230 0.8889358040396416 0.30890894227100385 0.10191739989511883
3 230 229 122 0.8889358040396416 0.30890894227100385 0.10191739989511883
3 55 54 214 0.8889358040396416 0.30890894227100385 0.10191739989511883
3 79 107 80 0.8889358040396416 0.30890894227100385 0.10191739989511883
3 80 216 79 0.8889358040396416 0.30890894227100385 0.10191739989511883
3 2 77 3 0.8889358040396416 0.30890894227100385 0.10191739989511883
3 233 191 234 0.8889358040396416 0.30890894227100385 0.10191739989511883
3 124 190 233 0.8889358040396416 0.30890894227100385 0.10191739989511883
3 217 216 80 0.8889358040396416 0.30890894227100385 0.10191739989511883
3 218 141 217 0.8889358040396416 0.30890894227100385 0.10191739989511883
3 217 140 216 0.8889358040396416 0.30890894227100385 0.10191739989511883
3 141 140 217 0.8889358040396416 0.30890894227100385 0.10191739989511883
3 181 58 138 0.8889358040396416 0.30890894227100385 0.10191739989511883
3 138 54 55 0.8889358040396416 0.30890894227100385 0.10191739989511883
3 137 54 138 0.8889358040396416 0.30890894227100385 0.10191739989511883
3 138 58 137 0.8889358040396416 0.30890894227100385 0.10191739989511883
3 227 141 184 0.8889358040396416 0.30890894227100385 0.10191739989511883
3 184 191 227 0.8889358040396416 0.30890894227100385 0.10191739989511883
3 191 233 227 0.8889358040396416 0.30890894227100385 0.10191739989511883
3 227 233 190 0.8889358040396416 0.30890894227100385 0.10191739989511883
3 105 52 106 0.8889358040396416 0.30890894227100385 0.10191739989511883
3 107 79 106 0.8889358040396416 0.30890894227100385 0.10191739989511883
3 132 107 106 0.8889358040396416 0.30890894227100385 0.10191739989511883
3 106 52 132 0.8889358040396416 0.30890894227100385 0.10191739989511883
3 132 52 207 0.8889358040396416 0.30890894227100385 0.10191739989511883
3 135 219 109 0.8889358040396416 0.30890894227100385 0.10191739989511883
3 109 219 218 0.8889358040396416 0.30890894227100385 0.10191739989511883
3 218 217 109 0.8889358040396416 0.30890894227100385 0.10191739989511883
3 80 108 109 0.8889358040396416 0.30890894227100385 0.10191739989511883
3 109 217 80 0.8889358040396416 0.30890894227100385 0.10191739989511883
3 104 175 176 0.8889358040396416 0.30890894227100385 0.10191739989511883
3 74 75 173 0.8889358040396416 0.30890894227100385 0.10191739989511883
3 253 40 71 0.8889358040396416 0.30890894227100385 0.10191739989511883
3 253 254 74 0.8889358040396416 0.30890894227100385 0.10191739989511883
3 253 74 41 0.8889358040396416 0.30890894227100385 0.10191739989511883
3 41 40 253 0.8889358040396416 0.30890894227100385 0.10191739989511883
3 168 73 72 0.8889358040396416 0.30890894227100385 0.10191739989511883
3 71 167 72 0.8889358040396416 0.30890894227100385 0.10191739989511883
3 72 167 168 0.8889358040396416 0.30890894227100385 0.10191739989511883
3 72 253 71 0.8889358040396416 0.30890894227100385 0.10191739989511883
3 72 73 254 0.8889358040396416 0.30890894227100385 0.10191739989511883
3 254 253 72 0.8889358040396416 0.30890894227100385 0.10191739989511883
3 256 257 76 0.8889358040396416 0.30890894227100385 0.10191739989511883
3 76 255 256 0.8889358040396416 0.30890894227100385 0.10191739989511883
3 256 255 73 0.8889358040396416 0.30890894227100385 0.10191739989511883
3 257 171 258 0.8889358040396416 0.30890894227100385 0.10191739989511883
3 259 177 258 0.8889358040396416 0.30890894227100385 0.10191739989511883
3 258 177 257 0.8889358040396416 0.30890894227100385 0.10191739989511883
3 258 205 259 0.8889358040396416 0.30890894227100385 0.10191739989511883
3 171 205 258 0.8889358040396416 0.30890894227100385 0.10191739989511883
3 203 202 165 0.8889358040396416 0.30890894227100385 0.10191739989511883
3 203 204 169 0.8889358040396416 0.30890894227100385 0.10191739989511883
3 203 165 204 0.8889358040396416 0.30890894227100385 0.10191739989511883
3 169 168 203 0.8889358040396416 0.30890894227100385 0.10191739989511883
3 168 202 203 0.8889358040396416 0.30890894227100385 0.10191739989511883
3 165 202 164 0.8889358040396416 0.30890894227100385 0.10191739989511883
3 164 250 165 0.8889358040396416 0.30890894227100385 0.10191739989511883
3 164 202 100 0.8889358040396416 0.30890894227100385 0.10191739989511883
3 100 129 164 0.8889358040396416 0.30890894227100385 0.10191739989511883
3 129 250 164 0.8889358040396416 0.30890894227100385 0.10191739989511883
3 251 165 159 0.8889358040396416 0.30890894227100385 0.10191739989511883
3 165 250 159 0.8889358040396416 0.30890894227100385 0.10191739989511883
3 159 196 251 0.8889358040396416 0.30890894227100385 0.10191739989511883
3 195 196 159 0.8889358040396416 0.30890894227100385 0.10191739989511883
3 158 195 159 0.8889358040396416 0.30890894227100385 0.10191739989511883
3 159 250 158 0.8889358040396416 0.30890894227100385 0.10191739989511883
3 158 250 157 0.8889358040396416 0.30890894227100385 0.10191739989511883
3 157 250 129 0.8889358040396416 0.30890894227100385 0.10191739989511883
3 96 91 157 0.8889358040396416 0.30890894227100385 0.10191739989511883
3 199 37 36 0.8889358040396416 0.30890894227100385 0.10191739989511883
3 200 37 199 0.8889358040396416 0.30890894227100385 0.10191739989511883
3 200 199 98 0.8889358040396416 0.30890894227100385 0.10191739989511883
3 98 199 36 0.8889358040396416 0.30890894227100385 0.10191739989511883
3 96 128 248 0.8889358040396416 0.30890894227100385 0.10191739989511883
3 163 201 99 0.8889358040396416 0.30890894227100385 0.10191739989511883
3 99 201 200 0.8889358040396416 0.30890894227100385 0.10191739989511883
3 200 98 99 0.8889358040396416 0.30890894227100385 0.10191739989511883
3 99 128 163 0.8889358040396416 0.30890894227100385 0.10191739989511883
3 38 37 68 0.8889358040396416 0.30890894227100385 0.10191739989511883
3 68 37 200 0.8889358040396416 0.30890894227100385 0.10191739989511883
3 200 69 68 0.8889358040396416 0.30890894227100385 0.10191739989511883
3 68 166 38 0.8889358040396416 0.30890894227100385 0.10191739989511883
3 68 69 166 0.8889358040396416 0.30890894227100385 0.10191739989511883
3 64 151 63 0.8889358040396416 0.30890894227100385 0.10191739989511883
3 63 237 64 0.8889358040396416 0.30890894227100385 0.10191739989511883
3 63 21 237 0.8889358040396416 0.30890894227100385 0.10191739989511883
3 63 62 21 0.8889358040396416 0.30890894227100385 0.10191739989511883
3 22 62 149 0.8889358040396416 0.30890894227100385 0.10191739989511883
3 149 148 22 0.8889358040396416 0.30890894227100385 0.10191739989511883
3 67 148 149 0.8889358040396416 0.30890894227100385 0.10191739989511883
3 24 65 193 0.8889358040396416 0.30890894227100385 0.10191739989511883
3 194 91 193 0.8889358040396416 0.30890894227100385 0.10191739989511883
3 193 65 194 0.8889358040396416 0.30890894227100385 0.10191739989511883
3 23 148 66 0.8889358040396416 0.30890894227100385 0.10191739989511883
3 66 65 23 0.8889358040396416 0.30890894227100385 0.10191739989511883
3 194 65 66 0.8889358040396416 0.30890894227100385 0.10191739989511883
3 66 148 67 0.8889358040396416 0.30890894227100385 0.10191739989511883
3 66 195 194 0.8889358040396416 0.30890894227100385 0.10191739989511883
3 67 195 66 0.8889358040396416 0.30890894227100385 0.10191739989511883
3 147 235 236 0.8889358040396416 0.30890894227100385 0.10191739989511883
3 244 243 236 0.8889358040396416 0.30890894227100385 0.10191739989511883
3 236 243 147 0.8889358040396416 0.30890894227100385 0.10191739989511883
3 261 244 236 0.8889358040396416 0.30890894227100385 0.10191739989511883
3 236 220 261 0.8889358040396416 0.30890894227100385 0.10191739989511883
3 228 191 184 0.8889358040396416 0.30890894227100385 0.10191739989511883
3 228 235 191 0.8889358040396416 0.30890894227100385 0.10191739989511883
3 184 219 228 0.8889358040396416 0.30890894227100385 0.10191739989511883
3 228 219 220 0.8889358040396416 0.30890894227100385 0.10191739989511883
3 220 236 228 0.8889358040396416 0.30890894227100385 0.10191739989511883
3 228 236 235 0.8889358040396416 0.30890894227100385 0.10191739989511883
3 240 152 64 0.8889358040396416 0.30890894227100385 0.10191739989511883
3 153 152 240 0.8889358040396416 0.30890894227100385 0.10191739989511883
3 60 61 239 0.8889358040396416 0.30890894227100385 0.10191739989511883
3 239 238 60 0.8889358040396416 0.30890894227100385 0.10191739989511883
3 61 240 239 0.8889358040396416 0.30890894227100385 0.10191739989511883
3 64 238 239 0.8889358040396416 0.30890894227100385 0.10191739989511883
3 239 240 64 0.8889358040396416 0.30890894227100385 0.10191739989511883
3 212 219 135 0.8889358040396416 0.30890894227100385 0.10191739989511883
3 220 219 212 0.8889358040396416 0.30890894227100385 0.10191739989511883
3 176 177 212 0.8889358040396416 0.30890894227100385 0.10191739989511883
3 177 260 212 0.8889358040396416 0.30890894227100385 0.10191739989511883
3 212 260 220 0.8889358040396416 0.30890894227100385 0.10191739989511883
3 142 82 83 0.8889358040396416 0.30890894227100385 0.10191739989511883
3 83 143 142 0.8889358040396416 0.30890894227100385 0.10191739989511883
3 223 116 50 0.8889358040396416 0.30890894227100385 0.10191739989511883
3 15 14 185 0.8889358040396416 0.30890894227100385 0.10191739989511883
3 14 116 185 0.8889358040396416 0.30890894227100385 0.10191739989511883
3 185 186 15 0.8889358040396416 0.30890894227100385 0.10191739989511883
3 112 179 180 0.8889358040396416 0.30890894227100385 0.10191739989511883
3 180 113 112 0.8889358040396416 0.30890894227100385 0.10191739989511883
3 112 113 224 0.8889358040396416 0.30890894227100385 0.10191739989511883
3 224 223 112 0.8889358040396416 0.30890894227100385 0.10191739989511883
3 180 179 57 0.8889358040396416 0.30890894227100385 0.10191739989511883
3 57 136 137 0.8889358040396416 0.30890894227100385 0.10191739989511883
3 137 58 57 0.8889358040396416 0.30890894227100385 0.10191739989511883
3 57 58 180 0.8889358040396416 0.30890894227100385 0.10191739989511883
3 6 136 56 0.8889358040396416 0.30890894227100385 0.10191739989511883
3 56 7 6 0.8889358040396416 0.30890894227100385 0.10191739989511883
3 136 57 56 0.8889358040396416 0.30890894227100385 0.10191739989511883
3 56 57 179 0.8889358040396416 0.30890894227100385 0.10191739989511883
3 56 179 178 0.8889358040396416 0.30890894227100385 0.10191739989511883
3 178 7 56 0.8889358040396416 0.30890894227100385 0.10191739989511883
3 213 214 54 0.8889358040396416 0.30890894227100385 0.10191739989511883
3 213 53 4 0.8889358040396416 0.30890894227100385 0.10191739989511883
3 54 53 213 0.8889358040396416 0.30890894227100385 0.10191739989511883
3 77 214 213 0.8889358040396416 0.30890894227100385 0.10191739989511883
3 4 3 213 0.8889358040396416 0.30890894227100385 0.10191739989511883
3 213 3 77 0.8889358040396416 0.30890894227100385 0.10191739989511883
3 78 214 77 0.8889358040396416 0.30890894227100385 0.10191739989511883
3 78 106 79 0.8889358040396416 0.30890894227100385 0.10191739989511883
3 78 77 105 0.8889358040396416 0.30890894227100385 0.10191739989511883
3 105 106 78 0.8889358040396416 0.30890894227100385 0.10191739989511883
3 55 214 215 0.8889358040396416 0.30890894227100385 0.10191739989511883
3 215 79 216 0.8889358040396416 0.30890894227100385 0.10191739989511883
3 214 78 215 0.8889358040396416 0.30890894227100385 0.10191739989511883
3 215 78 79 0.8889358040396416 0.30890894227100385 0.10191739989511883
3 114 182 226 0.8889358040396416 0.30890894227100385 0.10191739989511883
3 181 182 114 0.8889358040396416 0.30890894227100385 0.10191739989511883
3 226 119 114 0.8889358040396416 0.30890894227100385 0.10191739989511883
3 225 181 114 0.8889358040396416 0.30890894227100385 0.10191739989511883
3 114 119 225 0.8889358040396416 0.30890894227100385 0.10191739989511883
3 140 182 139 0.8889358040396416 0.30890894227100385 0.10191739989511883
3 216 140 139 0.8889358040396416 0.30890894227100385 0.10191739989511883
3 139 138 55 0.8889358040396416 0.30890894227100385 0.10191739989511883
3 55 215 139 0.8889358040396416 0.30890894227100385 0.10191739989511883
3 139 215 216 0.8889358040396416 0.30890894227100385 0.10191739989511883
3 181 138 139 0.8889358040396416 0.30890894227100385 0.10191739989511883
3 139 182 181 0.8889358040396416 0.30890894227100385 0.10191739989511883
3 183 182 140 0.8889358040396416 0.30890894227100385 0.10191739989511883
3 183 140 141 0.8889358040396416 0.30890894227100385 0.10191739989511883
3 141 227 183 0.8889358040396416 0.30890894227100385 0.10191739989511883
3 226 182 183 0.8889358040396416 0.30890894227100385 0.10191739989511883
3 183 190 226 0.8889358040396416 0.30890894227100385 0.10191739989511883
3 183 227 190 0.8889358040396416 0.30890894227100385 0.10191739989511883
3 206 52 51 0.8889358040396416 0.30890894227100385 0.10191739989511883
3 206 207 52 0.8889358040396416 0.30890894227100385 0.10191739989511883
3 206 46 44 0.8889358040396416 0.30890894227100385 0.10191739989511883
3 206 51 46 0.8889358040396416 0.30890894227100385 0.10191739989511883
3 44 43 206 0.8889358040396416 0.30890894227100385 0.10191739989511883
3 43 207 206 0.8889358040396416 0.30890894227100385 0.10191739989511883
3 211 104 176 0.8889358040396416 0.30890894227100385 0.10191739989511883
3 176 212 211 0.8889358040396416 0.30890894227100385 0.10191739989511883
3 211 212 135 0.8889358040396416 0.30890894227100385 0.10191739989511883
3 135 109 134 0.8889358040396416 0.30890894227100385 0.10191739989511883
3 134 109 108 0.8889358040396416 0.30890894227100385 0.10191739989511883
3 132 207 208 0.8889358040396416 0.30890894227100385 0.10191739989511883
3 76 175 174 0.8889358040396416 0.30890894227100385 0.10191739989511883
3 174 75 76 0.8889358040396416 0.30890894227100385 0.10191739989511883
3 174 173 75 0.8889358040396416 0.30890894227100385 0.10191739989511883
3 175 104 174 0.8889358040396416 0.30890894227100385 0.10191739989511883
3 74 173 172 0.8889358040396416 0.30890894227100385 0.10191739989511883
3 172 42 41 0.8889358040396416 0.30890894227100385 0.10191739989511883
3 41 74 172 0.8889358040396416 0.30890894227100385 0.10191739989511883
3 170 171 257 0.8889358040396416 0.30890894227100385 0.10191739989511883
3 257 256 170 0.8889358040396416 0.30890894227100385 0.10191739989511883
3 169 204 170 0.8889358040396416 0.30890894227100385 0.10191739989511883
3 204 171 170 0.8889358040396416 0.30890894227100385 0.10191739989511883
3 170 73 169 0.8889358040396416 0.30890894227100385 0.10191739989511883
3 170 256 73 0.8889358040396416 0.30890894227100385 0.10191739989511883
3 158 157 92 0.8889358040396416 0.30890894227100385 0.10191739989511883
3 194 195 92 0.8889358040396416 0.30890894227100385 0.10191739989511883
3 92 195 158 0.8889358040396416 0.30890894227100385 0.10191739989511883
3 92 91 194 0.8889358040396416 0.30890894227100385 0.10191739989511883
3 92 157 91 0.8889358040396416 0.30890894227100385 0.10191739989511883
3 96 157 249 0.8889358040396416 0.30890894227100385 0.10191739989511883
3 249 157 129 0.8889358040396416 0.30890894227100385 0.10191739989511883
3 249 129 163 0.8889358040396416 0.30890894227100385 0.10191739989511883
3 163 128 249 0.8889358040396416 0.30890894227100385 0.10191739989511883
3 249 128 96 0.8889358040396416 0.30890894227100385 0.10191739989511883
3 96 248 156 0.8889358040396416 0.30890894227100385 0.10191739989511883
3 156 91 96 0.8889358040396416 0.30890894227100385 0.10191739989511883
3 156 90 91 0.8889358040396416 0.30890894227100385 0.10191739989511883
3 151 196 150 0.8889358040396416 0.30890894227100385 0.10191739989511883
3 150 63 151 0.8889358040396416 0.30890894227100385 0.10191739989511883
3 150 196 67 0.8889358040396416 0.30890894227100385 0.10191739989511883
3 67 149 150 0.8889358040396416 0.30890894227100385 0.10191739989511883
3 62 63 150 0.8889358040396416 0.30890894227100385 0.10191739989511883
3 150 149 62 0.8889358040396416 0.30890894227100385 0.10191739989511883
3 91 90 192 0.8889358040396416 0.30890894227100385 0.10191739989511883
3 192 193 91 0.8889358040396416 0.30890894227100385 0.10191739989511883
3 24 193 192 0.8889358040396416 0.30890894227100385 0.10191739989511883
3 192 25 24 0.8889358040396416 0.30890894227100385 0.10191739989511883
3 90 25 192 0.8889358040396416 0.30890894227100385 0.10191739989511883
3 241 61 242 0.8889358040396416 0.30890894227100385 0.10191739989511883
3 241 240 61 0.8889358040396416 0.30890894227100385 0.10191739989511883
3 241 242 153 0.8889358040396416 0.30890894227100385 0.10191739989511883
3 153 240 241 0.8889358040396416 0.30890894227100385 0.10191739989511883
3 232 83 82 0.8889358040396416 0.30890894227100385 0.10191739989511883
3 232 231 124 0.8889358040396416 0.30890894227100385 0.10191739989511883
3 232 82 231 0.8889358040396416 0.30890894227100385 0.10191739989511883
3 124 233 232 0.8889358040396416 0.30890894227100385 0.10191739989511883
3 233 83 232 0.8889358040396416 0.30890894227100385 0.10191739989511883
3 144 143 84 0.8889358040396416 0.30890894227100385 0.10191739989511883
3 143 83 84 0.8889358040396416 0.30890894227100385 0.10191739989511883
3 84 83 233 0.8889358040396416 0.30890894227100385 0.10191739989511883
3 84 145 144 0.8889358040396416 0.30890894227100385 0.10191739989511883
3 234 145 84 0.8889358040396416 0.30890894227100385 0.10191739989511883
3 84 233 234 0.8889358040396416 0.30890894227100385 0.10191739989511883
3 186 185 117 0.8889358040396416 0.30890894227100385 0.10191739989511883
3 117 224 118 0.8889358040396416 0.30890894227100385 0.10191739989511883
3 118 186 117 0.8889358040396416 0.30890894227100385 0.10191739989511883
3 117 185 116 0.8889358040396416 0.30890894227100385 0.10191739989511883
3 117 223 224 0.8889358040396416 0.30890894227100385 0.10191739989511883
3 116 223 117 0.8889358040396416 0.30890894227100385 0.10191739989511883
3 179 112 111 0.8889358040396416 0.30890894227100385 0.10191739989511883
3 111 112 223 0.8889358040396416 0.30890894227100385 0.10191739989511883
3 178 179 111 0.8889358040396416 0.30890894227100385 0.10191739989511883
3 110 178 111 0.8889358040396416 0.30890894227100385 0.10191739989511883
3 111 50 110 0.8889358040396416 0.30890894227100385 0.10191739989511883
3 111 223 50 0.8889358040396416 0.30890894227100385 0.10191739989511883
3 210 211 135 0.8889358040396416 0.30890894227100385 0.10191739989511883
3 135 134 210 0.8889358040396416 0.30890894227100385 0.10191739989511883
3 104 211 210 0.8889358040396416 0.30890894227100385 0.10191739989511883
3 102 172 173 0.8889358040396416 0.30890894227100385 0.10191739989511883
3 42 172 102 0.8889358040396416 0.30890894227100385 0.10191739989511883
3 89 25 90 0.8889358040396416 0.30890894227100385 0.10191739989511883
3 90 156 89 0.8889358040396416 0.30890894227100385 0.10191739989511883
3 26 25 89 0.8889358040396416 0.30890894227100385 0.10191739989511883
3 27 26 154 0.8889358040396416 0.30890894227100385 0.10191739989511883
3 246 247 126 0.8889358040396416 0.30890894227100385 0.10191739989511883
3 34 125 126 0.8889358040396416 0.30890894227100385 0.10191739989511883
3 126 125 246 0.8889358040396416 0.30890894227100385 0.10191739989511883
3 127 248 128 0.8889358040396416 0.30890894227100385 0.10191739989511883
3 127 126 247 0.8889358040396416 0.30890894227100385 0.10191739989511883
3 209 210 134 0.8889358040396416 0.30890894227100385 0.10191739989511883
3 208 102 209 0.8889358040396416 0.30890894227100385 0.10191739989511883
3 43 42 101 0.8889358040396416 0.30890894227100385 0.10191739989511883
3 42 102 101 0.8889358040396416 0.30890894227100385 0.10191739989511883
3 101 102 208 0.8889358040396416 0.30890894227100385 0.10191739989511883
3 101 207 43 0.8889358040396416 0.30890894227100385 0.10191739989511883
3 101 208 207 0.8889358040396416 0.30890894227100385 0.10191739989511883
3 155 89 156 0.8889358040396416 0.30890894227100385 0.10191739989511883
3 247 154 155 0.8889358040396416 0.30890894227100385 0.10191739989511883
3 26 89 155 0.8889358040396416 0.30890894227100385 0.10191739989511883
3 155 154 26 0.8889358040396416 0.30890894227100385 0.10191739989511883
3 27 154 94 0.8889358040396416 0.30890894227100385 0.10191739989511883
3 94 154 247 0.8889358040396416 0.30890894227100385 0.10191739989511883
3 94 93 27 0.8889358040396416 0.30890894227100385 0.10191739989511883
3 246 93 94 0.8889358040396416 0.30890894227100385 0.10191739989511883
3 94 247 246 0.8889358040396416 0.30890894227100385 0.10191739989511883
3 35 34 160 0.8889358040396416 0.30890894227100385 0.10191739989511883
3 34 126 160 0.8889358040396416 0.30890894227100385 0.10191739989511883
3 162 127 128 0.8889358040396416 0.30890894227100385 0.10191739989511883
3 128 99 162 0.8889358040396416 0.30890894227100385 0.10191739989511883
3 162 99 98 0.8889358040396416 0.30890894227100385 0.10191739989511883
3 97 36 35 0.8889358040396416 0.30890894227100385 0.10191739989511883
3 97 98 36 0.8889358040396416 0.30890894227100385 0.10191739989511883
3 133 134 108 0.8889358040396416 0.30890894227100385 0.10191739989511883
3 133 209 134 0.8889358040396416 0.30890894227100385 0.10191739989511883
3 133 107 132 0.8889358040396416 0.30890894227100385 0.10191739989511883
3 133 108 107 0.8889358040396416 0.30890894227100385 0.10191739989511883
3 132 208 133 0.8889358040396416 0.30890894227100385 0.10191739989511883
3 208 209 133 0.8889358040396416 0.30890894227100385 0.10191739989511883
3 103 209 102 0.8889358040396416 0.30890894227100385 0.10191739989511883
3 103 102 173 0.8889358040396416 0.30890894227100385 0.10191739989511883
3 104 210 103 0.8889358040396416 0.30890894227100385 0.10191739989511883
3 210 209 103 0.8889358040396416 0.30890894227100385 0.10191739989511883
3 103 174 104 0.8889358040396416 0.30890894227100385 0.10191739989511883
3 173 174 103 0.8889358040396416 0.30890894227100385 0.10191739989511883
3 95 156 248 0.8889358040396416 0.30890894227100385 0.10191739989511883
3 95 155 156 0.8889358040396416 0.30890894227100385 0.10191739989511883
3 247 155 95 0.8889358040396416 0.30890894227100385 0.10191739989511883
3 248 127 95 0.8889358040396416 0.30890894227100385 0.10191739989511883
3 95 127 247 0.8889358040396416 0.30890894227100385 0.10191739989511883
3 161 162 98 0.8889358040396416 0.30890894227100385 0.10191739989511883
3 98 97 161 0.8889358040396416 0.30890894227100385 0.10191739989511883
3 127 162 161 0.8889358040396416 0.30890894227100385 0.10191739989511883
3 126 127 161 0.8889358040396416 0.30890894227100385 0.10191739989511883
3 161 160 126 0.8889358040396416 0.30890894227100385 0.10191739989511883
3 35 160 161 0.8889358040396416 0.30890894227100385 0.10191739989511883
3 161 97 35 0.8889358040396416 0.30890894227100385 0.10191739989511883
