OFF
42 53 0


26.437 32.8302 8.7649
26.437 32.8302 8.7649
26.3297 32.8085 8.8277
26.2545 32.7939 8.8697
26.1865 32.7811 8.9064
26.11 32.7673 8.9463
25.8066 32.7332 8.974
25.9405 32.7526 8.9288
26.0377 32.7671 8.8962
26.1217 32.7798 8.8683
26.2056 32.7929 8.8405
26.3029 32.8083 8.8085
26.437 32.8302 8.7649
25.9984 32.748 9.0019
25.9025 32.7405 8.9878
25.8066 32.7332 8.974
26.2736 32.7999 8.8433
26.1774 32.7817 8.8961
26.0151 32.7627 8.9104
26.1342 32.7808 8.8706
26.2553 32.7998 8.8305
25.9901 32.7546 8.9492
26.223 32.7902 8.8715
26.1912 32.7865 8.8734
26.1263 32.7724 8.9226
26.1427 32.7776 8.899
25.9289 32.7499 8.9394
26.0461 32.7664 8.9066
26.0787 32.7723 8.8891
26.1192 32.7776 8.8821
26.1901 32.7895 8.8521
26.1746 32.7861 8.8636
26.3457 32.8143 8.8009
26.2532 32.7985 8.8376
26.0524 32.7595 8.9592
26.1059 32.7711 8.917
25.9289 32.7499 8.9394
26.0461 32.7664 8.9066
26.3457 32.8143 8.8009
26.2532 32.7985 8.8376
26.1591 32.7828 8.8753
26.1591 32.7828 8.8753
3 3 2 16 0.9728939679946105 0.6556338149129727 0.9046835954781663
3 32 2 0 0.9728939679946105 0.6556338149129727 0.9046835954781663
3 19 9 29 0.9728939679946105 0.6556338149129727 0.9046835954781663
3 5 4 24 0.9728939679946105 0.6556338149129727 0.9046835954781663
3 24 35 5 0.9728939679946105 0.6556338149129727 0.9046835954781663
3 24 29 35 0.9728939679946105 0.6556338149129727 0.9046835954781663
3 3 16 39 0.9728939679946105 0.6556338149129727 0.9046835954781663
3 39 16 20 0.9728939679946105 0.6556338149129727 0.9046835954781663
3 20 10 39 0.9728939679946105 0.6556338149129727 0.9046835954781663
3 22 4 3 0.9728939679946105 0.6556338149129727 0.9046835954781663
3 3 39 22 0.9728939679946105 0.6556338149129727 0.9046835954781663
3 22 39 10 0.9728939679946105 0.6556338149129727 0.9046835954781663
3 11 10 20 0.9728939679946105 0.6556338149129727 0.9046835954781663
3 2 32 11 0.9728939679946105 0.6556338149129727 0.9046835954781663
3 11 32 0 0.9728939679946105 0.6556338149129727 0.9046835954781663
3 11 16 2 0.9728939679946105 0.6556338149129727 0.9046835954781663
3 20 16 11 0.9728939679946105 0.6556338149129727 0.9046835954781663
3 25 24 4 0.9728939679946105 0.6556338149129727 0.9046835954781663
3 19 29 25 0.9728939679946105 0.6556338149129727 0.9046835954781663
3 29 24 25 0.9728939679946105 0.6556338149129727 0.9046835954781663
3 36 21 7 0.9728939679946105 0.6556338149129727 0.9046835954781663
3 36 7 6 0.9728939679946105 0.6556338149129727 0.9046835954781663
3 6 14 36 0.9728939679946105 0.6556338149129727 0.9046835954781663
3 36 14 13 0.9728939679946105 0.6556338149129727 0.9046835954781663
3 13 21 36 0.9728939679946105 0.6556338149129727 0.9046835954781663
3 13 5 34 0.9728939679946105 0.6556338149129727 0.9046835954781663
3 34 21 13 0.9728939679946105 0.6556338149129727 0.9046835954781663
3 5 35 34 0.9728939679946105 0.6556338149129727 0.9046835954781663
3 4 22 23 0.9728939679946105 0.6556338149129727 0.9046835954781663
3 41 31 19 0.9728939679946105 0.6556338149129727 0.9046835954781663
3 19 25 41 0.9728939679946105 0.6556338149129727 0.9046835954781663
3 35 29 28 0.9728939679946105 0.6556338149129727 0.9046835954781663
3 28 29 9 0.9728939679946105 0.6556338149129727 0.9046835954781663
3 9 8 28 0.9728939679946105 0.6556338149129727 0.9046835954781663
3 21 34 18 0.9728939679946105 0.6556338149129727 0.9046835954781663
3 7 21 18 0.9728939679946105 0.6556338149129727 0.9046835954781663
3 18 8 7 0.9728939679946105 0.6556338149129727 0.9046835954781663
3 30 22 10 0.9728939679946105 0.6556338149129727 0.9046835954781663
3 30 23 22 0.9728939679946105 0.6556338149129727 0.9046835954781663
3 31 23 30 0.9728939679946105 0.6556338149129727 0.9046835954781663
3 30 10 9 0.9728939679946105 0.6556338149129727 0.9046835954781663
3 30 9 19 0.9728939679946105 0.6556338149129727 0.9046835954781663
3 19 31 30 0.9728939679946105 0.6556338149129727 0.9046835954781663
3 17 25 4 0.9728939679946105 0.6556338149129727 0.9046835954781663
3 17 41 25 0.9728939679946105 0.6556338149129727 0.9046835954781663
3 4 23 17 0.9728939679946105 0.6556338149129727 0.9046835954781663
3 17 23 31 0.9728939679946105 0.6556338149129727 0.9046835954781663
3 31 41 17 0.9728939679946105 0.6556338149129727 0.9046835954781663
3 37 34 35 0.9728939679946105 0.6556338149129727 0.9046835954781663
3 35 28 37 0.9728939679946105 0.6556338149129727 0.9046835954781663
3 37 28 8 0.9728939679946105 0.6556338149129727 0.9046835954781663
3 37 18 34 0.9728939679946105 0.6556338149129727 0.9046835954781663
3 8 18 37 0.9728939679946105 0.6556338149129727 0.9046835954781663
