OFF
65 59 0


28.8856 29.7677 9.1621
28.8856 29.7677 9.1621
28.9189 29.8863 9.2392
28.9477 29.987 9.3059
28.9735 30.0752 9.3654
28.9973 30.1547 9.4199
29.0196 30.2284 9.4711
29.0411 30.2982 9.5204
29.0624 30.3662 9.569
29.0839 30.4337 9.6179
29.1061 30.5025 9.6683
29.1296 30.5741 9.7216
29.1551 30.6507 9.7793
29.1834 30.7347 9.8434
29.216 30.8294 9.9168
29.2546 30.9398 10.0036
29.1897 30.9659 9.8783
29.1309 30.9902 9.7648
29.0769 31.0131 9.6607
29.0268 31.0349 9.5642
28.9799 31.0559 9.4738
28.9356 31.0763 9.3884
28.8933 31.0963 9.3071
28.8526 31.116 9.2289
28.8131 31.1356 9.1531
28.7746 31.1553 9.0791
28.7366 31.1752 9.0063
28.699 31.1955 8.9341
28.6614 31.2163 8.8621
28.6235 31.2377 8.7896
28.5852 31.26 8.7161
28.5459 31.2834 8.6412
28.5056 31.308 8.564
28.4637 31.3342 8.4841
28.4198 31.3622 8.4005
28.3736 31.3924 8.3123
28.3243 31.4253 8.2185
28.2714 31.4614 8.1177
28.2139 31.5014 8.0083
28.1506 31.5462 7.8881
28.1506 31.5462 7.8881
28.1506 31.5462 7.8881
28.1866 31.4332 7.948
28.2176 31.3324 7.9991
28.2447 31.2404 8.0436
28.2692 31.1544 8.0834
28.2916 31.0724 8.1195
28.3125 30.9926 8.153
28.3324 30.9133 8.1844
28.3516 30.8333 8.2144
28.3705 30.7508 8.2435
28.3892 30.6643 8.2719
28.408 30.5719 8.3
28.4273 30.4712 8.328
28.4471 30.3595 8.3562
28.4678 30.2329 8.3845
28.5288 30.1795 8.4995
28.5789 30.132 8.5935
28.6223 30.088 8.6748
28.6621 30.0453 8.7491
28.7006 30.0021 8.8205
28.7396 29.9562 8.8929
28.7814 29.9049 8.9702
28.8287 29.8442 9.0574
28.8856 29.7677 9.1621
3 3 62 2 0.0916779455961404 0.7855661593739311 0.9492196719449173
3 36 37 43 0.0916779455961404 0.7855661593739311 0.9492196719449173
3 51 23 24 0.0916779455961404 0.7855661593739311 0.9492196719449173
3 51 24 50 0.0916779455961404 0.7855661593739311 0.9492196719449173
3 50 24 25 0.0916779455961404 0.7855661593739311 0.9492196719449173
3 27 49 26 0.0916779455961404 0.7855661593739311 0.9492196719449173
3 49 50 26 0.0916779455961404 0.7855661593739311 0.9492196719449173
3 26 50 25 0.0916779455961404 0.7855661593739311 0.9492196719449173
3 20 21 11 0.0916779455961404 0.7855661593739311 0.9492196719449173
3 0 2 63 0.0916779455961404 0.7855661593739311 0.9492196719449173
3 2 62 63 0.0916779455961404 0.7855661593739311 0.9492196719449173
3 62 3 61 0.0916779455961404 0.7855661593739311 0.9492196719449173
3 8 53 54 0.0916779455961404 0.7855661593739311 0.9492196719449173
3 54 7 8 0.0916779455961404 0.7855661593739311 0.9492196719449173
3 57 7 54 0.0916779455961404 0.7855661593739311 0.9492196719449173
3 42 37 38 0.0916779455961404 0.7855661593739311 0.9492196719449173
3 42 43 37 0.0916779455961404 0.7855661593739311 0.9492196719449173
3 42 38 39 0.0916779455961404 0.7855661593739311 0.9492196719449173
3 28 49 27 0.0916779455961404 0.7855661593739311 0.9492196719449173
3 28 48 49 0.0916779455961404 0.7855661593739311 0.9492196719449173
3 20 11 12 0.0916779455961404 0.7855661593739311 0.9492196719449173
3 47 30 31 0.0916779455961404 0.7855661593739311 0.9492196719449173
3 22 23 51 0.0916779455961404 0.7855661593739311 0.9492196719449173
3 51 52 22 0.0916779455961404 0.7855661593739311 0.9492196719449173
3 22 52 10 0.0916779455961404 0.7855661593739311 0.9492196719449173
3 10 11 22 0.0916779455961404 0.7855661593739311 0.9492196719449173
3 22 11 21 0.0916779455961404 0.7855661593739311 0.9492196719449173
3 36 43 35 0.0916779455961404 0.7855661593739311 0.9492196719449173
3 43 44 35 0.0916779455961404 0.7855661593739311 0.9492196719449173
3 34 35 44 0.0916779455961404 0.7855661593739311 0.9492196719449173
3 45 33 34 0.0916779455961404 0.7855661593739311 0.9492196719449173
3 34 44 45 0.0916779455961404 0.7855661593739311 0.9492196719449173
3 14 17 13 0.0916779455961404 0.7855661593739311 0.9492196719449173
3 13 17 18 0.0916779455961404 0.7855661593739311 0.9492196719449173
3 16 14 15 0.0916779455961404 0.7855661593739311 0.9492196719449173
3 17 14 16 0.0916779455961404 0.7855661593739311 0.9492196719449173
3 56 54 55 0.0916779455961404 0.7855661593739311 0.9492196719449173
3 56 57 54 0.0916779455961404 0.7855661593739311 0.9492196719449173
3 60 61 4 0.0916779455961404 0.7855661593739311 0.9492196719449173
3 4 61 3 0.0916779455961404 0.7855661593739311 0.9492196719449173
3 60 4 59 0.0916779455961404 0.7855661593739311 0.9492196719449173
3 59 4 5 0.0916779455961404 0.7855661593739311 0.9492196719449173
3 7 57 6 0.0916779455961404 0.7855661593739311 0.9492196719449173
3 53 8 9 0.0916779455961404 0.7855661593739311 0.9492196719449173
3 10 52 9 0.0916779455961404 0.7855661593739311 0.9492196719449173
3 9 52 53 0.0916779455961404 0.7855661593739311 0.9492196719449173
3 48 28 29 0.0916779455961404 0.7855661593739311 0.9492196719449173
3 29 30 47 0.0916779455961404 0.7855661593739311 0.9492196719449173
3 47 48 29 0.0916779455961404 0.7855661593739311 0.9492196719449173
3 47 31 46 0.0916779455961404 0.7855661593739311 0.9492196719449173
3 32 46 31 0.0916779455961404 0.7855661593739311 0.9492196719449173
3 32 33 45 0.0916779455961404 0.7855661593739311 0.9492196719449173
3 45 46 32 0.0916779455961404 0.7855661593739311 0.9492196719449173
3 19 12 13 0.0916779455961404 0.7855661593739311 0.9492196719449173
3 13 18 19 0.0916779455961404 0.7855661593739311 0.9492196719449173
3 20 12 19 0.0916779455961404 0.7855661593739311 0.9492196719449173
3 58 6 57 0.0916779455961404 0.7855661593739311 0.9492196719449173
3 58 59 5 0.0916779455961404 0.7855661593739311 0.9492196719449173
3 5 6 58 0.0916779455961404 0.7855661593739311 0.9492196719449173
