OFF
633 1161 0


28.7385 31.2072 10.9095
28.7385 31.2072 10.9095
28.6375 31.3025 10.9533
28.5565 31.3794 10.9894
28.4871 31.4453 11.0209
28.4245 31.5052 11.05
28.3649 31.5622 11.0781
28.3055 31.6192 11.1066
28.2435 31.679 11.1368
28.1752 31.7449 11.1706
28.0959 31.8217 11.2106
27.9979 31.917 11.261
27.9979 31.917 11.261
27.8753 31.8715 11.2846
27.7886 31.8396 11.302
27.7107 31.8111 11.318
27.6241 31.7798 11.3364
27.5015 31.7358 11.3632
27.5015 31.7358 11.3632
27.4221 31.5972 11.3551
27.3654 31.4926 11.3487
27.3206 31.4058 11.3433
27.2824 31.3284 11.3383
27.2477 31.2549 11.3334
27.2142 31.1809 11.3284
27.1802 31.102 11.323
27.1436 31.0119 11.3166
27.1015 30.901 11.3085
27.0494 30.749 11.297
27.0607 30.6208 11.2697
27.0681 30.5066 11.2473
27.0725 30.4029 11.2285
27.0747 30.3068 11.2123
27.0751 30.2161 11.1982
27.074 30.1289 11.1856
27.0717 30.0434 11.1742
27.068 29.958 11.1636
27.0631 29.871 11.1537
27.0567 29.7806 11.1443
27.0486 29.6846 11.1351
27.0385 29.5805 11.1262
27.0256 29.4647 11.1173
27.0092 29.3327 11.1084
27.0092 29.3327 11.1084
27.1189 29.4161 11.0812
27.2181 29.4921 11.0574
27.3089 29.5624 11.0362
27.393 29.6282 11.0172
27.4718 29.6904 11.0
27.5462 29.7497 10.9843
27.6174 29.807 10.9699
27.6859 29.8627 10.9565
27.7525 29.9175 10.944
27.8178 29.9717 10.9323
27.8824 30.0259 10.9213
27.9468 30.0805 10.9109
28.0115 30.136 10.901
28.0771 30.1929 10.8915
28.1442 30.2517 10.8826
28.2132 30.313 10.874
28.2851 30.3775 10.8658
28.3604 30.4459 10.858
28.4401 30.5193 10.8506
28.5254 30.5987 10.8436
28.6175 30.6856 10.8371
28.7183 30.7817 10.8312
28.7183 30.7817 10.8312
28.7183 30.7817 10.8312
28.8069 30.9014 10.8333
28.8961 31.0207 10.8361
28.8173 31.1141 10.8724
28.7385 31.2072 10.9095
27.7129 31.7064 11.2921
27.715 31.6087 11.2682
27.7171 31.5169 11.2462
27.7192 31.4303 11.2256
27.2872 31.2079 11.3103
27.3253 31.1627 11.2883
27.3621 31.119 11.2672
27.3978 31.0767 11.2469
28.3639 31.4324 11.049
28.307 31.3636 11.0483
28.2531 31.2985 11.048
28.202 31.2364 11.0479
28.1532 31.1771 11.0481
28.2547 31.5351 11.1005
28.207 31.4561 11.095
28.1621 31.3814 11.0902
28.1195 31.3104 11.0858
28.079 31.2426 11.082
27.7836 31.7313 11.2773
27.7789 31.6305 11.2546
27.7747 31.536 11.2337
27.7708 31.447 11.2143
27.7672 31.3626 11.1962
27.3197 31.2747 11.3144
27.3554 31.2232 11.2916
27.3899 31.1737 11.2699
27.4232 31.1258 11.2492
27.4555 31.0794 11.2293
27.2242 31.0681 11.3014
27.2667 31.0353 11.2806
27.308 31.0035 11.2607
27.3481 30.9726 11.2414
27.3872 30.9425 11.2228
27.1256 30.1714 11.1745
27.1754 30.2123 11.164
27.2237 30.2518 11.1541
27.2707 30.2902 11.1446
27.3166 30.3275 11.1355
27.1217 30.0158 11.1535
27.1732 30.0711 11.1442
27.2228 30.1241 11.1354
27.2707 30.1751 11.1272
27.3172 30.2245 11.1195
27.1138 29.8563 11.1349
27.1679 29.9277 11.1263
27.2194 29.9956 11.1185
27.2688 30.0604 11.1114
27.3164 30.1226 11.1048
27.1006 29.6792 11.1172
27.1587 29.7709 11.1093
27.2132 29.8568 11.1023
27.2648 29.9377 11.096
27.314 30.0145 11.0905
27.6264 29.873 10.9753
27.6352 29.9368 10.9809
27.6438 29.9987 10.9864
27.6522 30.059 10.9921
27.6606 30.1179 10.9978
27.7514 29.9728 10.9515
27.7503 30.0268 10.959
27.7494 30.0797 10.9664
27.7485 30.1315 10.9739
27.7476 30.1824 10.9815
27.8721 30.0721 10.9304
27.862 30.1174 10.9395
27.8522 30.1619 10.9486
27.8425 30.2058 10.9577
27.8329 30.2492 10.9668
28.4214 31.378 11.0225
28.3594 31.3145 11.0242
28.3008 31.2542 11.0261
28.2451 31.1967 11.0282
28.1919 31.1417 11.0304
28.141 31.0888 11.0328
28.1349 31.6471 11.1584
28.0973 31.5558 11.1472
28.0621 31.4699 11.1371
28.029 31.3887 11.1278
27.9977 31.3115 11.1193
27.9679 31.2379 11.1114
27.3553 31.3448 11.3185
27.3885 31.2865 11.2949
27.4203 31.2306 11.2726
27.451 31.1767 11.2512
27.4807 31.1247 11.2309
27.5095 31.0743 11.2113
27.1251 30.3347 11.1997
27.1741 30.3617 11.1876
27.2219 30.3879 11.176
27.2686 30.4135 11.1649
27.3143 30.4385 11.1541
27.3592 30.4629 11.1437
27.0794 29.4646 11.0995
27.1436 29.5845 11.092
27.2027 29.6945 11.0856
27.2577 29.7964 11.0802
27.3094 29.8917 11.0757
27.3584 29.9815 11.0719
27.2637 29.5978 11.0546
27.3064 29.6961 11.0525
27.3466 29.7884 11.0508
27.3847 29.8755 11.0497
27.4212 29.9583 11.049
27.4562 30.0375 11.0487
27.4211 29.7148 11.0186
27.4479 29.797 11.0202
27.4735 29.8753 11.022
27.4983 29.9504 11.024
27.5222 30.0227 11.0263
27.5455 30.0926 11.0288
27.561 29.8218 10.9886
27.5752 29.8912 10.993
27.589 29.9582 10.9974
27.6025 30.023 11.002
27.6158 30.0861 11.0067
27.6287 30.1477 11.0115
27.9923 30.1738 10.9116
27.9734 30.211 10.9221
27.9547 30.2477 10.9326
27.9364 30.2839 10.9431
27.9182 30.3197 10.9536
27.9002 30.3552 10.9641
28.1155 30.2814 10.8945
28.0874 30.3106 10.9064
28.0596 30.3393 10.9182
28.0322 30.3678 10.93
28.0051 30.3959 10.9417
27.9782 30.4237 10.9535
28.2458 30.3987 10.8791
28.2072 30.4194 10.8922
28.1693 30.4398 10.9053
28.132 30.4598 10.9183
28.0952 30.4796 10.9312
28.0589 30.4991 10.9441
28.4847 31.3179 10.9936
28.4171 31.2599 10.9979
28.3532 31.2048 11.0023
28.2924 31.1523 11.0067
28.2344 31.102 11.0111
28.1787 31.0537 11.0157
28.1251 31.0069 11.0203
27.862 31.759 11.2612
27.8497 31.6545 11.2397
27.8384 31.5568 11.22
27.8278 31.465 11.2018
27.818 31.3782 11.185
27.8087 31.2958 11.1692
27.7999 31.217 11.1545
27.3969 31.423 11.3228
27.427 31.3567 11.2983
27.4558 31.2934 11.2752
27.4834 31.2327 11.2532
27.51 31.1744 11.2323
27.5357 31.118 11.2124
27.5607 31.0634 11.1933
27.1228 30.4233 11.2148
27.1718 30.4431 11.2017
27.2197 30.4624 11.189
27.2665 30.4812 11.1768
27.3124 30.4995 11.165
27.3574 30.5175 11.1535
27.4018 30.5351 11.1424
27.1757 29.5337 11.0757
27.2282 29.642 11.0711
27.2772 29.7425 11.0673
27.3232 29.8366 11.0642
27.3669 29.9254 11.0617
27.4085 30.0097 11.0598
27.4486 30.0903 11.0584
28.3877 30.5307 10.8653
28.3367 30.5419 10.8798
28.2868 30.5527 10.894
28.2381 30.5632 10.9082
28.1904 30.5735 10.9222
28.1434 30.5836 10.9361
28.0973 30.5935 10.95
27.9724 31.7978 11.2391
27.9491 31.6877 11.2193
27.9275 31.5853 11.2012
27.9074 31.4895 11.1847
27.8886 31.3992 11.1694
27.8709 31.3136 11.1553
27.8542 31.2321 11.1422
27.8383 31.1541 11.13
27.5228 31.6392 11.3336
27.5427 31.5488 11.3062
27.5616 31.4637 11.2808
27.5795 31.3831 11.2569
27.5966 31.3065 11.2346
27.613 31.2333 11.2135
27.6288 31.1631 11.1935
27.6441 31.0955 11.1746
27.1508 30.8833 11.2885
27.1986 30.8661 11.2692
27.2452 30.8494 11.2505
27.2905 30.833 11.2325
27.3349 30.8169 11.215
27.3783 30.8012 11.1981
27.4209 30.7858 11.1816
27.4628 30.7706 11.1655
27.1122 30.6247 11.253
27.1623 30.6285 11.2368
27.2113 30.6321 11.2212
27.2591 30.6356 11.2061
27.3059 30.639 11.1914
27.3519 30.6423 11.1771
27.3972 30.6455 11.1632
27.4417 30.6486 11.1497
28.5476 30.6847 10.8534
28.4804 30.6838 10.8693
28.4156 30.6828 10.8848
28.3529 30.6818 10.9
28.2921 30.6808 10.915
28.233 30.6798 10.9299
28.1752 30.6787 10.9446
28.1187 30.6775 10.9591
28.7142 30.882 10.8507
28.6269 30.8636 10.8675
28.5442 30.846 10.8837
28.4655 30.8292 10.8994
28.3902 30.813 10.9148
28.3179 30.7974 10.9299
28.2481 30.7821 10.9447
28.1804 30.7673 10.9594
28.7206 31.0751 10.8868
28.6302 31.0385 10.9006
28.5451 31.0039 10.914
28.4645 30.971 10.9269
28.3879 30.9396 10.9396
28.3146 30.9094 10.952
28.2443 30.8803 10.9643
28.1764 30.8521 10.9764
28.5585 31.2476 10.9606
28.4841 31.1959 10.9678
28.4137 31.1468 10.9749
28.3469 31.1 10.982
28.2831 31.0552 10.989
28.222 31.0121 10.996
28.1631 30.9705 11.003
28.1062 30.9301 11.01
28.051 30.8908 11.0171
28.1976 31.5886 11.1279
28.1547 31.5038 11.1198
28.1144 31.4239 11.1125
28.0764 31.3481 11.1058
28.0402 31.2759 11.0997
28.0058 31.2068 11.0942
27.9728 31.1404 11.0892
27.9411 31.0763 11.0846
27.9105 31.0142 11.0804
27.1183 29.9373 11.144
27.171 30.0003 11.1351
27.2214 30.0605 11.1268
27.27 30.1182 11.1192
27.317 30.1739 11.1121
27.3625 30.2277 11.1054
27.407 30.2799 11.0993
27.4504 30.3309 11.0935
27.4931 30.3808 11.0881
27.19 30.9854 11.2958
27.2349 30.9597 11.2757
27.2787 30.9347 11.2563
27.3212 30.9104 11.2377
27.3628 30.8866 11.2196
27.4034 30.8633 11.202
27.4432 30.8405 11.185
27.4823 30.818 11.1684
27.5208 30.796 11.1523
27.5586 30.7742 11.1365
27.1242 30.0934 11.1636
27.1747 30.1413 11.1537
27.2236 30.1875 11.1444
27.271 30.2321 11.1356
27.3171 30.2755 11.1273
27.3621 30.3176 11.1194
27.4062 30.3588 11.1118
27.4495 30.3992 11.1046
27.4922 30.4388 11.0978
27.5344 30.4778 11.0912
27.0913 29.5783 11.1084
27.152 29.6827 11.1007
27.2086 29.7796 11.094
27.2617 29.8702 11.0882
27.312 29.9557 11.0832
27.36 30.0367 11.0788
27.4061 30.1142 11.0751
27.4506 30.1888 11.0719
27.4938 30.2609 11.0692
27.5361 30.3311 11.0669
27.4928 29.7693 11.0029
27.513 29.8447 11.006
27.5324 29.9171 11.0093
27.5513 29.9869 11.0126
27.5697 30.0544 11.0162
27.5877 30.1201 11.0199
27.6054 30.1841 11.0237
27.6227 30.2469 11.0278
27.6399 30.3085 11.032
27.657 30.3693 11.0364
27.812 30.0223 10.9406
27.8064 30.0719 10.949
27.801 30.1205 10.9573
27.7956 30.1683 10.9656
27.7904 30.2154 10.9739
27.7853 30.2619 10.9823
27.7803 30.3079 10.9908
27.7753 30.3534 10.9993
27.7705 30.3987 11.0078
27.7657 30.4437 11.0165
28.0533 30.2266 10.9028
28.0298 30.2598 10.914
28.0067 30.2926 10.9252
27.9839 30.325 10.9364
27.9613 30.357 10.9475
27.939 30.3887 10.9587
27.9168 30.4202 10.9698
27.8948 30.4515 10.9811
27.8729 30.4826 10.9923
27.8511 30.5136 11.0037
27.4495 31.5165 11.3277
27.4755 31.4403 11.302
27.5002 31.3678 11.2779
27.5239 31.2987 11.2552
27.5465 31.2325 11.2336
27.5684 31.1689 11.2132
27.5895 31.1076 11.1937
27.61 31.0482 11.175
27.63 30.9905 11.1572
27.6495 30.9343 11.14
27.6686 30.8794 11.1234
27.1187 30.5191 11.2323
27.1681 30.5313 11.2179
27.2163 30.5431 11.2039
27.2634 30.5546 11.1904
27.3096 30.5659 11.1772
27.3551 30.5768 11.1645
27.3998 30.5876 11.1521
27.4438 30.5982 11.14
27.4874 30.6086 11.1282
27.5305 30.6188 11.1167
27.5733 30.6289 11.1053
28.3149 30.4625 10.872
28.2705 30.4786 10.8858
28.2269 30.4944 10.8994
28.1841 30.5099 10.913
28.1421 30.5251 10.9265
28.1006 30.5401 10.9399
28.0597 30.5548 10.9533
28.0192 30.5694 10.9667
27.9791 30.5838 10.9801
27.9393 30.5981 10.9935
27.8998 30.6123 11.007
28.6369 30.7729 10.8483
28.5595 30.7645 10.865
28.4855 30.7563 10.8811
28.4145 30.7484 10.8969
28.3461 30.7407 10.9124
28.2799 30.7331 10.9276
28.2157 30.7257 10.9426
28.1532 30.7184 10.9575
28.092 30.7112 10.9723
28.032 30.7041 10.987
27.973 30.697 11.0018
28.6497 31.1603 10.9206
28.5664 31.1161 10.9314
28.4878 31.0743 10.9419
28.4133 31.0345 10.9521
28.3423 30.9965 10.9622
28.2743 30.96 10.9721
28.209 30.9247 10.982
28.1459 30.8905 10.9918
28.0847 30.8572 11.0016
28.0251 30.8247 11.0114
27.9668 30.7927 11.0212
28.0621 31.7148 11.1942
28.0308 31.6153 11.1793
28.0016 31.5223 11.1658
27.9743 31.4346 11.1533
27.9485 31.3516 11.1418
27.9242 31.2726 11.1312
27.9009 31.1971 11.1214
27.8788 31.1245 11.1122
27.8575 31.0545 11.1036
27.8369 30.9866 11.0956
27.8171 30.9205 11.088
27.7978 30.8559 11.0809
27.3451 29.6579 11.0357
27.3793 29.7476 11.0356
27.4118 29.8325 11.0358
27.4429 29.9133 11.0363
27.4728 29.9907 11.0372
27.5017 30.0651 11.0384
27.5298 30.137 11.0399
27.5573 30.2069 11.0416
27.5842 30.2752 11.0437
27.6108 30.3422 11.046
27.6371 30.4082 11.0486
27.6633 30.4735 11.0515
27.932 30.1224 10.9207
27.9176 30.1636 10.9306
27.9033 30.2042 10.9404
27.8893 30.2443 10.9502
27.8755 30.2839 10.9601
27.8618 30.3231 10.9699
27.8482 30.3619 10.9798
27.8348 30.4005 10.9897
27.8215 30.4389 10.9997
27.8083 30.4772 11.0098
27.7951 30.5154 11.0199
27.7819 30.5535 11.0302
28.3093 31.4839 11.0746
28.257 31.4101 11.0716
28.2076 31.3402 11.069
28.1608 31.2737 11.0668
28.1161 31.2102 11.065
28.0734 31.1492 11.0635
28.0324 31.0904 11.0623
27.9928 31.0335 11.0614
27.9545 30.9782 11.0608
27.9173 30.9243 11.0604
27.881 30.8716 11.0602
27.8455 30.8198 11.0603
27.8106 30.7689 11.0606
27.256 31.1404 11.3061
27.2963 31.1013 11.2847
27.3353 31.0634 11.2642
27.3732 31.0267 11.2444
27.41 30.9909 11.2254
27.4459 30.9561 11.207
27.481 30.922 11.1891
27.5154 30.8886 11.1718
27.5491 30.8559 11.155
27.5823 30.8237 11.1386
27.615 30.792 11.1227
27.6473 30.7607 11.107
27.6792 30.7297 11.0917
27.1259 30.2513 11.1864
27.1753 30.2853 11.1752
27.2232 30.3182 11.1645
27.27 30.3503 11.1542
27.3157 30.3815 11.1444
27.3605 30.4121 11.1349
27.4046 30.442 11.1258
27.448 30.4714 11.117
27.4908 30.5003 11.1084
27.5332 30.5289 11.1002
27.5753 30.5571 11.0921
27.6172 30.5852 11.0843
27.6589 30.613 11.0767
27.6897 29.9232 10.963
27.6934 29.9819 10.9696
27.6971 30.0392 10.9761
27.7008 30.0951 10.9827
27.7045 30.15 10.9894
27.7081 30.2038 10.9961
27.7118 30.2569 11.0029
27.7155 30.3093 11.0098
27.7192 30.3611 11.0168
27.7229 30.4126 11.0239
27.7267 30.4638 11.0312
27.7305 30.5149 11.0386
27.7344 30.5659 11.0462
28.4649 30.6044 10.8591
28.4064 30.6099 10.8742
28.3496 30.6152 10.8891
28.2943 30.6203 10.9038
28.2403 30.6253 10.9184
28.1875 30.6301 10.9327
28.1357 30.6347 10.947
28.0849 30.6392 10.9613
28.0347 30.6436 10.9755
27.9851 30.648 10.9897
27.9361 30.6522 11.0039
27.8874 30.6563 11.0182
27.8389 30.6604 11.0327
27.6342 31.6786 11.309
27.6437 31.5841 11.2838
27.6528 31.4952 11.2603
27.6614 31.4111 11.2385
27.6697 31.3313 11.218
27.6777 31.2551 11.1988
27.6855 31.182 11.1806
27.693 31.1117 11.1634
27.7003 31.0438 11.147
27.7076 30.9778 11.1314
27.7146 30.9136 11.1165
27.7216 30.8507 11.1021
27.7286 30.7891 11.0883
27.7355 30.7284 11.0749
27.1025 30.7431 11.2779
27.154 30.7373 11.2595
27.2042 30.7317 11.2417
27.2531 30.7261 11.2245
27.301 30.7207 11.2079
27.3478 30.7153 11.1917
27.3938 30.71 11.176
27.4391 30.7047 11.1607
27.4837 30.6995 11.1457
27.5277 30.6943 11.1311
27.5713 30.6891 11.1168
27.6144 30.6839 11.1028
27.6573 30.6788 11.089
27.6999 30.6736 11.0754
27.108 29.7709 11.126
27.1638 29.8518 11.1178
27.2167 29.9282 11.1104
27.2671 30.0006 11.1037
27.3154 30.0698 11.0977
27.3619 30.1362 11.0922
27.407 30.2002 11.0873
27.4508 30.2623 11.0828
27.4937 30.3228 11.0787
27.5358 30.3819 11.0751
27.5775 30.4402 11.0718
27.6187 30.4976 11.0688
27.6598 30.5547 11.0662
27.701 30.6115 11.0639
28.1795 30.3385 10.8866
28.1463 30.3636 10.8991
28.1137 30.3883 10.9116
28.0815 30.4126 10.9239
28.0497 30.4366 10.9363
28.0182 30.4604 10.9486
27.987 30.484 10.961
27.956 30.5073 10.9733
27.9253 30.5305 10.9857
27.8947 30.5536 10.9982
27.8642 30.5766 11.0107
27.8338 30.5996 11.0234
27.8033 30.6225 11.0361
27.7729 30.6455 11.0489
28.7909 30.9896 10.8538
28.6928 30.9606 10.8707
28.6009 30.9332 10.8869
28.5141 30.9072 10.9025
28.4318 30.8824 10.9177
28.3533 30.8586 10.9326
28.278 30.8357 10.9472
28.2054 30.8135 10.9615
28.1352 30.7919 10.9758
28.0668 30.7707 10.99
28.0 30.7499 11.0041
27.9345 30.7293 11.0184
27.8699 30.709 11.0327
27.8059 30.6887 11.0472
28.6497 31.1603 10.9206
28.5664 31.1161 10.9314
28.4878 31.0743 10.9419
28.4133 31.0345 10.9521
28.3423 30.9965 10.9622
28.2743 30.96 10.9721
28.209 30.9247 10.982
28.1459 30.8905 10.9918
28.0847 30.8572 11.0016
28.0251 30.8247 11.0114
27.9668 30.7927 11.0212
27.9096 30.7613 11.0312
27.8533 30.7301 11.0413
27.7976 30.6992 11.0515
27.7424 30.6685 11.0619
27.7424 30.6685 11.0619
3 7 8 313 0.38822465214338375 0.7366549729378717 0.9714684974726587
3 296 71 435 0.38822465214338375 0.7366549729378717 0.9714684974726587
3 64 65 424 0.38822465214338375 0.7366549729378717 0.9714684974726587
3 435 71 2 0.38822465214338375 0.7366549729378717 0.9714684974726587
3 85 7 313 0.38822465214338375 0.7366549729378717 0.9714684974726587
3 447 446 249 0.38822465214338375 0.7366549729378717 0.9714684974726587
3 19 20 391 0.38822465214338375 0.7366549729378717 0.9714684974726587
3 71 296 70 0.38822465214338375 0.7366549729378717 0.9714684974726587
3 439 300 438 0.38822465214338375 0.7366549729378717 0.9714684974726587
3 439 308 440 0.38822465214338375 0.7366549729378717 0.9714684974726587
3 207 140 141 0.38822465214338375 0.7366549729378717 0.9714684974726587
3 206 140 207 0.38822465214338375 0.7366549729378717 0.9714684974726587
3 207 305 206 0.38822465214338375 0.7366549729378717 0.9714684974726587
3 4 140 206 0.38822465214338375 0.7366549729378717 0.9714684974726587
3 435 2 304 0.38822465214338375 0.7366549729378717 0.9714684974726587
3 304 206 305 0.38822465214338375 0.7366549729378717 0.9714684974726587
3 207 141 208 0.38822465214338375 0.7366549729378717 0.9714684974726587
3 151 150 451 0.38822465214338375 0.7366549729378717 0.9714684974726587
3 318 151 319 0.38822465214338375 0.7366549729378717 0.9714684974726587
3 452 151 451 0.38822465214338375 0.7366549729378717 0.9714684974726587
3 453 319 452 0.38822465214338375 0.7366549729378717 0.9714684974726587
3 452 319 151 0.38822465214338375 0.7366549729378717 0.9714684974726587
3 453 452 255 0.38822465214338375 0.7366549729378717 0.9714684974726587
3 489 312 311 0.38822465214338375 0.7366549729378717 0.9714684974726587
3 311 212 489 0.38822465214338375 0.7366549729378717 0.9714684974726587
3 309 308 210 0.38822465214338375 0.7366549729378717 0.9714684974726587
3 440 308 309 0.38822465214338375 0.7366549729378717 0.9714684974726587
3 490 312 489 0.38822465214338375 0.7366549729378717 0.9714684974726587
3 490 491 312 0.38822465214338375 0.7366549729378717 0.9714684974726587
3 28 561 27 0.38822465214338375 0.7366549729378717 0.9714684974726587
3 29 561 28 0.38822465214338375 0.7366549729378717 0.9714684974726587
3 34 35 341 0.38822465214338375 0.7366549729378717 0.9714684974726587
3 10 446 9 0.38822465214338375 0.7366549729378717 0.9714684974726587
3 9 446 146 0.38822465214338375 0.7366549729378717 0.9714684974726587
3 313 8 146 0.38822465214338375 0.7366549729378717 0.9714684974726587
3 8 9 146 0.38822465214338375 0.7366549729378717 0.9714684974726587
3 146 147 313 0.38822465214338375 0.7366549729378717 0.9714684974726587
3 146 446 447 0.38822465214338375 0.7366549729378717 0.9714684974726587
3 447 147 146 0.38822465214338375 0.7366549729378717 0.9714684974726587
3 80 140 4 0.38822465214338375 0.7366549729378717 0.9714684974726587
3 210 144 211 0.38822465214338375 0.7366549729378717 0.9714684974726587
3 211 309 210 0.38822465214338375 0.7366549729378717 0.9714684974726587
3 487 89 318 0.38822465214338375 0.7366549729378717 0.9714684974726587
3 318 319 487 0.38822465214338375 0.7366549729378717 0.9714684974726587
3 314 85 313 0.38822465214338375 0.7366549729378717 0.9714684974726587
3 313 147 314 0.38822465214338375 0.7366549729378717 0.9714684974726587
3 314 147 148 0.38822465214338375 0.7366549729378717 0.9714684974726587
3 83 82 485 0.38822465214338375 0.7366549729378717 0.9714684974726587
3 318 89 317 0.38822465214338375 0.7366549729378717 0.9714684974726587
3 317 151 318 0.38822465214338375 0.7366549729378717 0.9714684974726587
3 150 151 317 0.38822465214338375 0.7366549729378717 0.9714684974726587
3 150 317 316 0.38822465214338375 0.7366549729378717 0.9714684974726587
3 574 588 631 0.38822465214338375 0.7366549729378717 0.9714684974726587
3 631 560 574 0.38822465214338375 0.7366549729378717 0.9714684974726587
3 574 560 507 0.38822465214338375 0.7366549729378717 0.9714684974726587
3 550 258 259 0.38822465214338375 0.7366549729378717 0.9714684974726587
3 220 391 20 0.38822465214338375 0.7366549729378717 0.9714684974726587
3 20 21 220 0.38822465214338375 0.7366549729378717 0.9714684974726587
3 220 21 152 0.38822465214338375 0.7366549729378717 0.9714684974726587
3 213 13 14 0.38822465214338375 0.7366549729378717 0.9714684974726587
3 435 304 436 0.38822465214338375 0.7366549729378717 0.9714684974726587
3 436 304 305 0.38822465214338375 0.7366549729378717 0.9714684974726587
3 64 424 425 0.38822465214338375 0.7366549729378717 0.9714684974726587
3 200 59 60 0.38822465214338375 0.7366549729378717 0.9714684974726587
3 589 59 200 0.38822465214338375 0.7366549729378717 0.9714684974726587
3 300 607 299 0.38822465214338375 0.7366549729378717 0.9714684974726587
3 438 300 299 0.38822465214338375 0.7366549729378717 0.9714684974726587
3 4 206 3 0.38822465214338375 0.7366549729378717 0.9714684974726587
3 3 304 2 0.38822465214338375 0.7366549729378717 0.9714684974726587
3 206 304 3 0.38822465214338375 0.7366549729378717 0.9714684974726587
3 210 308 209 0.38822465214338375 0.7366549729378717 0.9714684974726587
3 448 147 447 0.38822465214338375 0.7366549729378717 0.9714684974726587
3 148 147 448 0.38822465214338375 0.7366549729378717 0.9714684974726587
3 148 448 449 0.38822465214338375 0.7366549729378717 0.9714684974726587
3 449 448 251 0.38822465214338375 0.7366549729378717 0.9714684974726587
3 320 319 453 0.38822465214338375 0.7366549729378717 0.9714684974726587
3 254 255 452 0.38822465214338375 0.7366549729378717 0.9714684974726587
3 254 452 451 0.38822465214338375 0.7366549729378717 0.9714684974726587
3 453 255 454 0.38822465214338375 0.7366549729378717 0.9714684974726587
3 454 320 453 0.38822465214338375 0.7366549729378717 0.9714684974726587
3 507 560 559 0.38822465214338375 0.7366549729378717 0.9714684974726587
3 340 504 339 0.38822465214338375 0.7366549729378717 0.9714684974726587
3 212 311 310 0.38822465214338375 0.7366549729378717 0.9714684974726587
3 310 211 212 0.38822465214338375 0.7366549729378717 0.9714684974726587
3 309 211 310 0.38822465214338375 0.7366549729378717 0.9714684974726587
3 321 455 491 0.38822465214338375 0.7366549729378717 0.9714684974726587
3 491 490 321 0.38822465214338375 0.7366549729378717 0.9714684974726587
3 321 454 455 0.38822465214338375 0.7366549729378717 0.9714684974726587
3 320 454 321 0.38822465214338375 0.7366549729378717 0.9714684974726587
3 321 490 489 0.38822465214338375 0.7366549729378717 0.9714684974726587
3 489 320 321 0.38822465214338375 0.7366549729378717 0.9714684974726587
3 104 499 103 0.38822465214338375 0.7366549729378717 0.9714684974726587
3 500 499 104 0.38822465214338375 0.7366549729378717 0.9714684974726587
3 274 404 405 0.38822465214338375 0.7366549729378717 0.9714684974726587
3 272 561 29 0.38822465214338375 0.7366549729378717 0.9714684974726587
3 511 161 160 0.38822465214338375 0.7366549729378717 0.9714684974726587
3 512 161 511 0.38822465214338375 0.7366549729378717 0.9714684974726587
3 467 585 584 0.38822465214338375 0.7366549729378717 0.9714684974726587
3 233 516 409 0.38822465214338375 0.7366549729378717 0.9714684974726587
3 515 516 233 0.38822465214338375 0.7366549729378717 0.9714684974726587
3 575 38 39 0.38822465214338375 0.7366549729378717 0.9714684974726587
3 42 44 41 0.38822465214338375 0.7366549729378717 0.9714684974726587
3 41 44 164 0.38822465214338375 0.7366549729378717 0.9714684974726587
3 110 341 35 0.38822465214338375 0.7366549729378717 0.9714684974726587
3 110 35 36 0.38822465214338375 0.7366549729378717 0.9714684974726587
3 111 110 323 0.38822465214338375 0.7366549729378717 0.9714684974726587
3 341 110 111 0.38822465214338375 0.7366549729378717 0.9714684974726587
3 342 341 111 0.38822465214338375 0.7366549729378717 0.9714684974726587
3 111 112 342 0.38822465214338375 0.7366549729378717 0.9714684974726587
3 576 575 121 0.38822465214338375 0.7366549729378717 0.9714684974726587
3 458 459 171 0.38822465214338375 0.7366549729378717 0.9714684974726587
3 46 47 458 0.38822465214338375 0.7366549729378717 0.9714684974726587
3 248 249 446 0.38822465214338375 0.7366549729378717 0.9714684974726587
3 446 10 248 0.38822465214338375 0.7366549729378717 0.9714684974726587
3 248 10 11 0.38822465214338375 0.7366549729378717 0.9714684974726587
3 248 213 249 0.38822465214338375 0.7366549729378717 0.9714684974726587
3 11 13 248 0.38822465214338375 0.7366549729378717 0.9714684974726587
3 13 213 248 0.38822465214338375 0.7366549729378717 0.9714684974726587
3 81 141 140 0.38822465214338375 0.7366549729378717 0.9714684974726587
3 140 80 81 0.38822465214338375 0.7366549729378717 0.9714684974726587
3 81 80 483 0.38822465214338375 0.7366549729378717 0.9714684974726587
3 82 141 81 0.38822465214338375 0.7366549729378717 0.9714684974726587
3 7 85 6 0.38822465214338375 0.7366549729378717 0.9714684974726587
3 145 211 144 0.38822465214338375 0.7366549729378717 0.9714684974726587
3 144 84 145 0.38822465214338375 0.7366549729378717 0.9714684974726587
3 145 84 487 0.38822465214338375 0.7366549729378717 0.9714684974726587
3 212 211 145 0.38822465214338375 0.7366549729378717 0.9714684974726587
3 488 487 319 0.38822465214338375 0.7366549729378717 0.9714684974726587
3 488 320 489 0.38822465214338375 0.7366549729378717 0.9714684974726587
3 319 320 488 0.38822465214338375 0.7366549729378717 0.9714684974726587
3 488 145 487 0.38822465214338375 0.7366549729378717 0.9714684974726587
3 489 212 488 0.38822465214338375 0.7366549729378717 0.9714684974726587
3 212 145 488 0.38822465214338375 0.7366549729378717 0.9714684974726587
3 86 87 483 0.38822465214338375 0.7366549729378717 0.9714684974726587
3 85 314 86 0.38822465214338375 0.7366549729378717 0.9714684974726587
3 315 314 148 0.38822465214338375 0.7366549729378717 0.9714684974726587
3 315 316 87 0.38822465214338375 0.7366549729378717 0.9714684974726587
3 87 86 315 0.38822465214338375 0.7366549729378717 0.9714684974726587
3 315 86 314 0.38822465214338375 0.7366549729378717 0.9714684974726587
3 484 485 82 0.38822465214338375 0.7366549729378717 0.9714684974726587
3 483 87 484 0.38822465214338375 0.7366549729378717 0.9714684974726587
3 484 81 483 0.38822465214338375 0.7366549729378717 0.9714684974726587
3 82 81 484 0.38822465214338375 0.7366549729378717 0.9714684974726587
3 87 316 88 0.38822465214338375 0.7366549729378717 0.9714684974726587
3 88 484 87 0.38822465214338375 0.7366549729378717 0.9714684974726587
3 485 484 88 0.38822465214338375 0.7366549729378717 0.9714684974726587
3 89 485 88 0.38822465214338375 0.7366549729378717 0.9714684974726587
3 88 317 89 0.38822465214338375 0.7366549729378717 0.9714684974726587
3 88 316 317 0.38822465214338375 0.7366549729378717 0.9714684974726587
3 157 156 99 0.38822465214338375 0.7366549729378717 0.9714684974726587
3 79 499 99 0.38822465214338375 0.7366549729378717 0.9714684974726587
3 99 500 157 0.38822465214338375 0.7366549729378717 0.9714684974726587
3 99 499 500 0.38822465214338375 0.7366549729378717 0.9714684974726587
3 225 156 157 0.38822465214338375 0.7366549729378717 0.9714684974726587
3 156 225 224 0.38822465214338375 0.7366549729378717 0.9714684974726587
3 152 95 153 0.38822465214338375 0.7366549729378717 0.9714684974726587
3 153 95 96 0.38822465214338375 0.7366549729378717 0.9714684974726587
3 79 99 98 0.38822465214338375 0.7366549729378717 0.9714684974726587
3 98 99 156 0.38822465214338375 0.7366549729378717 0.9714684974726587
3 103 499 498 0.38822465214338375 0.7366549729378717 0.9714684974726587
3 498 499 79 0.38822465214338375 0.7366549729378717 0.9714684974726587
3 550 259 551 0.38822465214338375 0.7366549729378717 0.9714684974726587
3 217 94 218 0.38822465214338375 0.7366549729378717 0.9714684974726587
3 554 255 219 0.38822465214338375 0.7366549729378717 0.9714684974726587
3 219 553 554 0.38822465214338375 0.7366549729378717 0.9714684974726587
3 255 254 219 0.38822465214338375 0.7366549729378717 0.9714684974726587
3 219 254 218 0.38822465214338375 0.7366549729378717 0.9714684974726587
3 221 220 152 0.38822465214338375 0.7366549729378717 0.9714684974726587
3 221 153 222 0.38822465214338375 0.7366549729378717 0.9714684974726587
3 152 153 221 0.38822465214338375 0.7366549729378717 0.9714684974726587
3 549 258 550 0.38822465214338375 0.7366549729378717 0.9714684974726587
3 258 549 257 0.38822465214338375 0.7366549729378717 0.9714684974726587
3 257 549 548 0.38822465214338375 0.7366549729378717 0.9714684974726587
3 19 391 257 0.38822465214338375 0.7366549729378717 0.9714684974726587
3 15 16 72 0.38822465214338375 0.7366549729378717 0.9714684974726587
3 256 257 548 0.38822465214338375 0.7366549729378717 0.9714684974726587
3 256 17 19 0.38822465214338375 0.7366549729378717 0.9714684974726587
3 19 257 256 0.38822465214338375 0.7366549729378717 0.9714684974726587
3 72 16 547 0.38822465214338375 0.7366549729378717 0.9714684974726587
3 547 256 548 0.38822465214338375 0.7366549729378717 0.9714684974726587
3 547 16 17 0.38822465214338375 0.7366549729378717 0.9714684974726587
3 17 256 547 0.38822465214338375 0.7366549729378717 0.9714684974726587
3 65 68 288 0.38822465214338375 0.7366549729378717 0.9714684974726587
3 298 605 297 0.38822465214338375 0.7366549729378717 0.9714684974726587
3 297 436 298 0.38822465214338375 0.7366549729378717 0.9714684974726587
3 297 296 435 0.38822465214338375 0.7366549729378717 0.9714684974726587
3 435 436 297 0.38822465214338375 0.7366549729378717 0.9714684974726587
3 289 605 290 0.38822465214338375 0.7366549729378717 0.9714684974726587
3 290 425 289 0.38822465214338375 0.7366549729378717 0.9714684974726587
3 289 425 424 0.38822465214338375 0.7366549729378717 0.9714684974726587
3 289 424 65 0.38822465214338375 0.7366549729378717 0.9714684974726587
3 65 288 289 0.38822465214338375 0.7366549729378717 0.9714684974726587
3 298 436 437 0.38822465214338375 0.7366549729378717 0.9714684974726587
3 438 299 437 0.38822465214338375 0.7366549729378717 0.9714684974726587
3 437 299 298 0.38822465214338375 0.7366549729378717 0.9714684974726587
3 437 436 305 0.38822465214338375 0.7366549729378717 0.9714684974726587
3 64 425 280 0.38822465214338375 0.7366549729378717 0.9714684974726587
3 280 63 64 0.38822465214338375 0.7366549729378717 0.9714684974726587
3 281 63 280 0.38822465214338375 0.7366549729378717 0.9714684974726587
3 534 63 281 0.38822465214338375 0.7366549729378717 0.9714684974726587
3 606 299 607 0.38822465214338375 0.7366549729378717 0.9714684974726587
3 290 605 606 0.38822465214338375 0.7366549729378717 0.9714684974726587
3 606 605 298 0.38822465214338375 0.7366549729378717 0.9714684974726587
3 298 299 606 0.38822465214338375 0.7366549729378717 0.9714684974726587
3 282 427 283 0.38822465214338375 0.7366549729378717 0.9714684974726587
3 281 427 282 0.38822465214338375 0.7366549729378717 0.9714684974726587
3 282 534 281 0.38822465214338375 0.7366549729378717 0.9714684974726587
3 426 427 281 0.38822465214338375 0.7366549729378717 0.9714684974726587
3 281 280 426 0.38822465214338375 0.7366549729378717 0.9714684974726587
3 426 280 425 0.38822465214338375 0.7366549729378717 0.9714684974726587
3 426 425 290 0.38822465214338375 0.7366549729378717 0.9714684974726587
3 143 144 210 0.38822465214338375 0.7366549729378717 0.9714684974726587
3 210 209 143 0.38822465214338375 0.7366549729378717 0.9714684974726587
3 83 84 143 0.38822465214338375 0.7366549729378717 0.9714684974726587
3 143 84 144 0.38822465214338375 0.7366549729378717 0.9714684974726587
3 307 209 308 0.38822465214338375 0.7366549729378717 0.9714684974726587
3 307 439 438 0.38822465214338375 0.7366549729378717 0.9714684974726587
3 308 439 307 0.38822465214338375 0.7366549729378717 0.9714684974726587
3 208 209 307 0.38822465214338375 0.7366549729378717 0.9714684974726587
3 447 249 250 0.38822465214338375 0.7366549729378717 0.9714684974726587
3 250 448 447 0.38822465214338375 0.7366549729378717 0.9714684974726587
3 251 448 250 0.38822465214338375 0.7366549729378717 0.9714684974726587
3 150 316 149 0.38822465214338375 0.7366549729378717 0.9714684974726587
3 148 449 149 0.38822465214338375 0.7366549729378717 0.9714684974726587
3 149 315 148 0.38822465214338375 0.7366549729378717 0.9714684974726587
3 316 315 149 0.38822465214338375 0.7366549729378717 0.9714684974726587
3 451 150 450 0.38822465214338375 0.7366549729378717 0.9714684974726587
3 150 149 450 0.38822465214338375 0.7366549729378717 0.9714684974726587
3 450 149 449 0.38822465214338375 0.7366549729378717 0.9714684974726587
3 72 91 90 0.38822465214338375 0.7366549729378717 0.9714684974726587
3 90 213 14 0.38822465214338375 0.7366549729378717 0.9714684974726587
3 14 15 90 0.38822465214338375 0.7366549729378717 0.9714684974726587
3 90 15 72 0.38822465214338375 0.7366549729378717 0.9714684974726587
3 73 91 72 0.38822465214338375 0.7366549729378717 0.9714684974726587
3 72 547 73 0.38822465214338375 0.7366549729378717 0.9714684974726587
3 73 547 548 0.38822465214338375 0.7366549729378717 0.9714684974726587
3 455 556 456 0.38822465214338375 0.7366549729378717 0.9714684974726587
3 457 492 456 0.38822465214338375 0.7366549729378717 0.9714684974726587
3 491 455 456 0.38822465214338375 0.7366549729378717 0.9714684974726587
3 456 492 491 0.38822465214338375 0.7366549729378717 0.9714684974726587
3 555 556 455 0.38822465214338375 0.7366549729378717 0.9714684974726587
3 455 454 555 0.38822465214338375 0.7366549729378717 0.9714684974726587
3 555 399 556 0.38822465214338375 0.7366549729378717 0.9714684974726587
3 555 255 554 0.38822465214338375 0.7366549729378717 0.9714684974726587
3 555 454 255 0.38822465214338375 0.7366549729378717 0.9714684974726587
3 398 399 555 0.38822465214338375 0.7366549729378717 0.9714684974726587
3 504 340 505 0.38822465214338375 0.7366549729378717 0.9714684974726587
3 491 492 627 0.38822465214338375 0.7366549729378717 0.9714684974726587
3 613 627 614 0.38822465214338375 0.7366549729378717 0.9714684974726587
3 470 55 56 0.38822465214338375 0.7366549729378717 0.9714684974726587
3 440 309 441 0.38822465214338375 0.7366549729378717 0.9714684974726587
3 309 310 441 0.38822465214338375 0.7366549729378717 0.9714684974726587
3 538 539 245 0.38822465214338375 0.7366549729378717 0.9714684974726587
3 245 539 246 0.38822465214338375 0.7366549729378717 0.9714684974726587
3 245 246 417 0.38822465214338375 0.7366549729378717 0.9714684974726587
3 244 537 538 0.38822465214338375 0.7366549729378717 0.9714684974726587
3 538 245 244 0.38822465214338375 0.7366549729378717 0.9714684974726587
3 570 340 339 0.38822465214338375 0.7366549729378717 0.9714684974726587
3 408 233 409 0.38822465214338375 0.7366549729378717 0.9714684974726587
3 566 276 277 0.38822465214338375 0.7366549729378717 0.9714684974726587
3 564 563 274 0.38822465214338375 0.7366549729378717 0.9714684974726587
3 271 270 568 0.38822465214338375 0.7366549729378717 0.9714684974726587
3 107 509 106 0.38822465214338375 0.7366549729378717 0.9714684974726587
3 273 404 274 0.38822465214338375 0.7366549729378717 0.9714684974726587
3 274 563 273 0.38822465214338375 0.7366549729378717 0.9714684974726587
3 162 161 512 0.38822465214338375 0.7366549729378717 0.9714684974726587
3 230 405 404 0.38822465214338375 0.7366549729378717 0.9714684974726587
3 161 162 230 0.38822465214338375 0.7366549729378717 0.9714684974726587
3 510 511 160 0.38822465214338375 0.7366549729378717 0.9714684974726587
3 510 509 107 0.38822465214338375 0.7366549729378717 0.9714684974726587
3 346 512 109 0.38822465214338375 0.7366549729378717 0.9714684974726587
3 512 511 109 0.38822465214338375 0.7366549729378717 0.9714684974726587
3 360 584 330 0.38822465214338375 0.7366549729378717 0.9714684974726587
3 359 466 360 0.38822465214338375 0.7366549729378717 0.9714684974726587
3 467 584 360 0.38822465214338375 0.7366549729378717 0.9714684974726587
3 360 466 467 0.38822465214338375 0.7366549729378717 0.9714684974726587
3 587 586 469 0.38822465214338375 0.7366549729378717 0.9714684974726587
3 349 516 515 0.38822465214338375 0.7366549729378717 0.9714684974726587
3 330 584 349 0.38822465214338375 0.7366549729378717 0.9714684974726587
3 349 584 585 0.38822465214338375 0.7366549729378717 0.9714684974726587
3 163 233 232 0.38822465214338375 0.7366549729378717 0.9714684974726587
3 163 162 513 0.38822465214338375 0.7366549729378717 0.9714684974726587
3 513 162 512 0.38822465214338375 0.7366549729378717 0.9714684974726587
3 513 512 346 0.38822465214338375 0.7366549729378717 0.9714684974726587
3 346 347 513 0.38822465214338375 0.7366549729378717 0.9714684974726587
3 32 33 508 0.38822465214338375 0.7366549729378717 0.9714684974726587
3 508 106 509 0.38822465214338375 0.7366549729378717 0.9714684974726587
3 164 44 234 0.38822465214338375 0.7366549729378717 0.9714684974726587
3 234 235 165 0.38822465214338375 0.7366549729378717 0.9714684974726587
3 40 41 164 0.38822465214338375 0.7366549729378717 0.9714684974726587
3 369 368 527 0.38822465214338375 0.7366549729378717 0.9714684974726587
3 467 466 369 0.38822465214338375 0.7366549729378717 0.9714684974726587
3 369 466 368 0.38822465214338375 0.7366549729378717 0.9714684974726587
3 375 139 376 0.38822465214338375 0.7366549729378717 0.9714684974726587
3 376 527 375 0.38822465214338375 0.7366549729378717 0.9714684974726587
3 375 527 526 0.38822465214338375 0.7366549729378717 0.9714684974726587
3 527 368 526 0.38822465214338375 0.7366549729378717 0.9714684974726587
3 526 368 367 0.38822465214338375 0.7366549729378717 0.9714684974726587
3 465 464 367 0.38822465214338375 0.7366549729378717 0.9714684974726587
3 465 466 359 0.38822465214338375 0.7366549729378717 0.9714684974726587
3 367 368 465 0.38822465214338375 0.7366549729378717 0.9714684974726587
3 368 466 465 0.38822465214338375 0.7366549729378717 0.9714684974726587
3 50 182 49 0.38822465214338375 0.7366549729378717 0.9714684974726587
3 125 182 50 0.38822465214338375 0.7366549729378717 0.9714684974726587
3 125 50 51 0.38822465214338375 0.7366549729378717 0.9714684974726587
3 36 37 322 0.38822465214338375 0.7366549729378717 0.9714684974726587
3 322 110 36 0.38822465214338375 0.7366549729378717 0.9714684974726587
3 322 116 323 0.38822465214338375 0.7366549729378717 0.9714684974726587
3 323 110 322 0.38822465214338375 0.7366549729378717 0.9714684974726587
3 38 575 115 0.38822465214338375 0.7366549729378717 0.9714684974726587
3 115 37 38 0.38822465214338375 0.7366549729378717 0.9714684974726587
3 575 576 115 0.38822465214338375 0.7366549729378717 0.9714684974726587
3 115 322 37 0.38822465214338375 0.7366549729378717 0.9714684974726587
3 115 576 116 0.38822465214338375 0.7366549729378717 0.9714684974726587
3 116 322 115 0.38822465214338375 0.7366549729378717 0.9714684974726587
3 323 116 117 0.38822465214338375 0.7366549729378717 0.9714684974726587
3 353 576 121 0.38822465214338375 0.7366549729378717 0.9714684974726587
3 353 236 167 0.38822465214338375 0.7366549729378717 0.9714684974726587
3 122 353 167 0.38822465214338375 0.7366549729378717 0.9714684974726587
3 576 353 122 0.38822465214338375 0.7366549729378717 0.9714684974726587
3 116 576 122 0.38822465214338375 0.7366549729378717 0.9714684974726587
3 165 235 352 0.38822465214338375 0.7366549729378717 0.9714684974726587
3 121 575 352 0.38822465214338375 0.7366549729378717 0.9714684974726587
3 166 235 171 0.38822465214338375 0.7366549729378717 0.9714684974726587
3 171 236 166 0.38822465214338375 0.7366549729378717 0.9714684974726587
3 236 353 166 0.38822465214338375 0.7366549729378717 0.9714684974726587
3 166 352 235 0.38822465214338375 0.7366549729378717 0.9714684974726587
3 166 353 121 0.38822465214338375 0.7366549729378717 0.9714684974726587
3 121 352 166 0.38822465214338375 0.7366549729378717 0.9714684974726587
3 176 458 47 0.38822465214338375 0.7366549729378717 0.9714684974726587
3 459 458 176 0.38822465214338375 0.7366549729378717 0.9714684974726587
3 176 47 48 0.38822465214338375 0.7366549729378717 0.9714684974726587
3 183 182 125 0.38822465214338375 0.7366549729378717 0.9714684974726587
3 482 6 85 0.38822465214338375 0.7366549729378717 0.9714684974726587
3 483 80 482 0.38822465214338375 0.7366549729378717 0.9714684974726587
3 482 86 483 0.38822465214338375 0.7366549729378717 0.9714684974726587
3 85 86 482 0.38822465214338375 0.7366549729378717 0.9714684974726587
3 5 80 4 0.38822465214338375 0.7366549729378717 0.9714684974726587
3 5 482 80 0.38822465214338375 0.7366549729378717 0.9714684974726587
3 6 482 5 0.38822465214338375 0.7366549729378717 0.9714684974726587
3 89 487 486 0.38822465214338375 0.7366549729378717 0.9714684974726587
3 487 84 486 0.38822465214338375 0.7366549729378717 0.9714684974726587
3 486 485 89 0.38822465214338375 0.7366549729378717 0.9714684974726587
3 83 485 486 0.38822465214338375 0.7366549729378717 0.9714684974726587
3 486 84 83 0.38822465214338375 0.7366549729378717 0.9714684974726587
3 600 481 599 0.38822465214338375 0.7366549729378717 0.9714684974726587
3 601 481 600 0.38822465214338375 0.7366549729378717 0.9714684974726587
3 600 546 601 0.38822465214338375 0.7366549729378717 0.9714684974726587
3 599 423 600 0.38822465214338375 0.7366549729378717 0.9714684974726587
3 545 546 600 0.38822465214338375 0.7366549729378717 0.9714684974726587
3 600 423 545 0.38822465214338375 0.7366549729378717 0.9714684974726587
3 533 481 601 0.38822465214338375 0.7366549729378717 0.9714684974726587
3 533 588 587 0.38822465214338375 0.7366549729378717 0.9714684974726587
3 595 205 420 0.38822465214338375 0.7366549729378717 0.9714684974726587
3 331 26 27 0.38822465214338375 0.7366549729378717 0.9714684974726587
3 332 101 331 0.38822465214338375 0.7366549729378717 0.9714684974726587
3 226 225 157 0.38822465214338375 0.7366549729378717 0.9714684974726587
3 226 399 398 0.38822465214338375 0.7366549729378717 0.9714684974726587
3 397 226 398 0.38822465214338375 0.7366549729378717 0.9714684974726587
3 225 226 397 0.38822465214338375 0.7366549729378717 0.9714684974726587
3 152 21 22 0.38822465214338375 0.7366549729378717 0.9714684974726587
3 22 95 152 0.38822465214338375 0.7366549729378717 0.9714684974726587
3 23 95 22 0.38822465214338375 0.7366549729378717 0.9714684974726587
3 222 153 154 0.38822465214338375 0.7366549729378717 0.9714684974726587
3 154 153 96 0.38822465214338375 0.7366549729378717 0.9714684974726587
3 25 495 24 0.38822465214338375 0.7366549729378717 0.9714684974726587
3 76 95 23 0.38822465214338375 0.7366549729378717 0.9714684974726587
3 96 95 76 0.38822465214338375 0.7366549729378717 0.9714684974726587
3 23 24 76 0.38822465214338375 0.7366549729378717 0.9714684974726587
3 76 24 495 0.38822465214338375 0.7366549729378717 0.9714684974726587
3 100 495 25 0.38822465214338375 0.7366549729378717 0.9714684974726587
3 100 331 101 0.38822465214338375 0.7366549729378717 0.9714684974726587
3 25 26 100 0.38822465214338375 0.7366549729378717 0.9714684974726587
3 26 331 100 0.38822465214338375 0.7366549729378717 0.9714684974726587
3 79 98 78 0.38822465214338375 0.7366549729378717 0.9714684974726587
3 103 498 102 0.38822465214338375 0.7366549729378717 0.9714684974726587
3 102 101 332 0.38822465214338375 0.7366549729378717 0.9714684974726587
3 261 553 552 0.38822465214338375 0.7366549729378717 0.9714684974726587
3 552 219 218 0.38822465214338375 0.7366549729378717 0.9714684974726587
3 553 219 552 0.38822465214338375 0.7366549729378717 0.9714684974726587
3 218 94 552 0.38822465214338375 0.7366549729378717 0.9714684974726587
3 94 551 552 0.38822465214338375 0.7366549729378717 0.9714684974726587
3 260 551 259 0.38822465214338375 0.7366549729378717 0.9714684974726587
3 259 394 260 0.38822465214338375 0.7366549729378717 0.9714684974726587
3 261 552 260 0.38822465214338375 0.7366549729378717 0.9714684974726587
3 260 552 551 0.38822465214338375 0.7366549729378717 0.9714684974726587
3 260 395 261 0.38822465214338375 0.7366549729378717 0.9714684974726587
3 394 395 260 0.38822465214338375 0.7366549729378717 0.9714684974726587
3 220 221 392 0.38822465214338375 0.7366549729378717 0.9714684974726587
3 391 220 392 0.38822465214338375 0.7366549729378717 0.9714684974726587
3 258 257 392 0.38822465214338375 0.7366549729378717 0.9714684974726587
3 392 257 391 0.38822465214338375 0.7366549729378717 0.9714684974726587
3 603 288 68 0.38822465214338375 0.7366549729378717 0.9714684974726587
3 603 68 69 0.38822465214338375 0.7366549729378717 0.9714684974726587
3 69 70 603 0.38822465214338375 0.7366549729378717 0.9714684974726587
3 603 70 296 0.38822465214338375 0.7366549729378717 0.9714684974726587
3 604 297 605 0.38822465214338375 0.7366549729378717 0.9714684974726587
3 605 289 604 0.38822465214338375 0.7366549729378717 0.9714684974726587
3 604 289 288 0.38822465214338375 0.7366549729378717 0.9714684974726587
3 288 603 604 0.38822465214338375 0.7366549729378717 0.9714684974726587
3 296 297 604 0.38822465214338375 0.7366549729378717 0.9714684974726587
3 604 603 296 0.38822465214338375 0.7366549729378717 0.9714684974726587
3 283 427 428 0.38822465214338375 0.7366549729378717 0.9714684974726587
3 292 428 427 0.38822465214338375 0.7366549729378717 0.9714684974726587
3 293 428 292 0.38822465214338375 0.7366549729378717 0.9714684974726587
3 142 82 83 0.38822465214338375 0.7366549729378717 0.9714684974726587
3 83 143 142 0.38822465214338375 0.7366549729378717 0.9714684974726587
3 142 141 82 0.38822465214338375 0.7366549729378717 0.9714684974726587
3 142 208 141 0.38822465214338375 0.7366549729378717 0.9714684974726587
3 142 209 208 0.38822465214338375 0.7366549729378717 0.9714684974726587
3 142 143 209 0.38822465214338375 0.7366549729378717 0.9714684974726587
3 208 307 306 0.38822465214338375 0.7366549729378717 0.9714684974726587
3 306 305 207 0.38822465214338375 0.7366549729378717 0.9714684974726587
3 207 208 306 0.38822465214338375 0.7366549729378717 0.9714684974726587
3 306 437 305 0.38822465214338375 0.7366549729378717 0.9714684974726587
3 438 437 306 0.38822465214338375 0.7366549729378717 0.9714684974726587
3 306 307 438 0.38822465214338375 0.7366549729378717 0.9714684974726587
3 214 250 249 0.38822465214338375 0.7366549729378717 0.9714684974726587
3 249 213 214 0.38822465214338375 0.7366549729378717 0.9714684974726587
3 213 90 214 0.38822465214338375 0.7366549729378717 0.9714684974726587
3 214 90 91 0.38822465214338375 0.7366549729378717 0.9714684974726587
3 251 250 215 0.38822465214338375 0.7366549729378717 0.9714684974726587
3 215 214 91 0.38822465214338375 0.7366549729378717 0.9714684974726587
3 250 214 215 0.38822465214338375 0.7366549729378717 0.9714684974726587
3 451 450 253 0.38822465214338375 0.7366549729378717 0.9714684974726587
3 253 254 451 0.38822465214338375 0.7366549729378717 0.9714684974726587
3 218 254 253 0.38822465214338375 0.7366549729378717 0.9714684974726587
3 253 217 218 0.38822465214338375 0.7366549729378717 0.9714684974726587
3 252 449 251 0.38822465214338375 0.7366549729378717 0.9714684974726587
3 252 450 449 0.38822465214338375 0.7366549729378717 0.9714684974726587
3 217 253 252 0.38822465214338375 0.7366549729378717 0.9714684974726587
3 252 253 450 0.38822465214338375 0.7366549729378717 0.9714684974726587
3 457 456 557 0.38822465214338375 0.7366549729378717 0.9714684974726587
3 557 456 556 0.38822465214338375 0.7366549729378717 0.9714684974726587
3 400 399 502 0.38822465214338375 0.7366549729378717 0.9714684974726587
3 556 399 400 0.38822465214338375 0.7366549729378717 0.9714684974726587
3 400 557 556 0.38822465214338375 0.7366549729378717 0.9714684974726587
3 507 559 506 0.38822465214338375 0.7366549729378717 0.9714684974726587
3 506 505 340 0.38822465214338375 0.7366549729378717 0.9714684974726587
3 601 546 616 0.38822465214338375 0.7366549729378717 0.9714684974726587
3 614 627 628 0.38822465214338375 0.7366549729378717 0.9714684974726587
3 628 627 492 0.38822465214338375 0.7366549729378717 0.9714684974726587
3 312 491 444 0.38822465214338375 0.7366549729378717 0.9714684974726587
3 491 627 444 0.38822465214338375 0.7366549729378717 0.9714684974726587
3 444 613 612 0.38822465214338375 0.7366549729378717 0.9714684974726587
3 627 613 444 0.38822465214338375 0.7366549729378717 0.9714684974726587
3 432 611 612 0.38822465214338375 0.7366549729378717 0.9714684974726587
3 443 311 312 0.38822465214338375 0.7366549729378717 0.9714684974726587
3 312 444 443 0.38822465214338375 0.7366549729378717 0.9714684974726587
3 612 611 443 0.38822465214338375 0.7366549729378717 0.9714684974726587
3 443 444 612 0.38822465214338375 0.7366549729378717 0.9714684974726587
3 472 137 471 0.38822465214338375 0.7366549729378717 0.9714684974726587
3 471 189 472 0.38822465214338375 0.7366549729378717 0.9714684974726587
3 136 471 137 0.38822465214338375 0.7366549729378717 0.9714684974726587
3 470 471 136 0.38822465214338375 0.7366549729378717 0.9714684974726587
3 475 139 474 0.38822465214338375 0.7366549729378717 0.9714684974726587
3 139 473 474 0.38822465214338375 0.7366549729378717 0.9714684974726587
3 138 473 139 0.38822465214338375 0.7366549729378717 0.9714684974726587
3 138 139 375 0.38822465214338375 0.7366549729378717 0.9714684974726587
3 138 137 472 0.38822465214338375 0.7366549729378717 0.9714684974726587
3 472 473 138 0.38822465214338375 0.7366549729378717 0.9714684974726587
3 201 200 414 0.38822465214338375 0.7366549729378717 0.9714684974726587
3 414 415 201 0.38822465214338375 0.7366549729378717 0.9714684974726587
3 589 200 201 0.38822465214338375 0.7366549729378717 0.9714684974726587
3 614 545 544 0.38822465214338375 0.7366549729378717 0.9714684974726587
3 545 423 544 0.38822465214338375 0.7366549729378717 0.9714684974726587
3 417 246 418 0.38822465214338375 0.7366549729378717 0.9714684974726587
3 246 247 418 0.38822465214338375 0.7366549729378717 0.9714684974726587
3 204 205 593 0.38822465214338375 0.7366549729378717 0.9714684974726587
3 204 418 205 0.38822465214338375 0.7366549729378717 0.9714684974726587
3 204 203 417 0.38822465214338375 0.7366549729378717 0.9714684974726587
3 417 418 204 0.38822465214338375 0.7366549729378717 0.9714684974726587
3 188 470 56 0.38822465214338375 0.7366549729378717 0.9714684974726587
3 188 471 470 0.38822465214338375 0.7366549729378717 0.9714684974726587
3 189 471 188 0.38822465214338375 0.7366549729378717 0.9714684974726587
3 191 474 473 0.38822465214338375 0.7366549729378717 0.9714684974726587
3 195 591 196 0.38822465214338375 0.7366549729378717 0.9714684974726587
3 197 385 384 0.38822465214338375 0.7366549729378717 0.9714684974726587
3 384 196 197 0.38822465214338375 0.7366549729378717 0.9714684974726587
3 416 245 417 0.38822465214338375 0.7366549729378717 0.9714684974726587
3 417 203 416 0.38822465214338375 0.7366549729378717 0.9714684974726587
3 415 244 416 0.38822465214338375 0.7366549729378717 0.9714684974726587
3 416 244 245 0.38822465214338375 0.7366549729378717 0.9714684974726587
3 568 279 569 0.38822465214338375 0.7366549729378717 0.9714684974726587
3 569 271 568 0.38822465214338375 0.7366549729378717 0.9714684974726587
3 569 570 339 0.38822465214338375 0.7366549729378717 0.9714684974726587
3 339 271 569 0.38822465214338375 0.7366549729378717 0.9714684974726587
3 410 279 409 0.38822465214338375 0.7366549729378717 0.9714684974726587
3 410 569 279 0.38822465214338375 0.7366549729378717 0.9714684974726587
3 570 569 410 0.38822465214338375 0.7366549729378717 0.9714684974726587
3 410 516 517 0.38822465214338375 0.7366549729378717 0.9714684974726587
3 409 516 410 0.38822465214338375 0.7366549729378717 0.9714684974726587
3 566 277 567 0.38822465214338375 0.7366549729378717 0.9714684974726587
3 568 270 567 0.38822465214338375 0.7366549729378717 0.9714684974726587
3 408 277 407 0.38822465214338375 0.7366549729378717 0.9714684974726587
3 406 232 407 0.38822465214338375 0.7366549729378717 0.9714684974726587
3 407 276 406 0.38822465214338375 0.7366549729378717 0.9714684974726587
3 407 277 276 0.38822465214338375 0.7366549729378717 0.9714684974726587
3 233 408 407 0.38822465214338375 0.7366549729378717 0.9714684974726587
3 407 232 233 0.38822465214338375 0.7366549729378717 0.9714684974726587
3 275 564 274 0.38822465214338375 0.7366549729378717 0.9714684974726587
3 274 405 275 0.38822465214338375 0.7366549729378717 0.9714684974726587
3 406 276 275 0.38822465214338375 0.7366549729378717 0.9714684974726587
3 275 405 406 0.38822465214338375 0.7366549729378717 0.9714684974726587
3 565 276 566 0.38822465214338375 0.7366549729378717 0.9714684974726587
3 565 275 276 0.38822465214338375 0.7366549729378717 0.9714684974726587
3 564 275 565 0.38822465214338375 0.7366549729378717 0.9714684974726587
3 563 564 266 0.38822465214338375 0.7366549729378717 0.9714684974726587
3 266 265 563 0.38822465214338375 0.7366549729378717 0.9714684974726587
3 358 465 359 0.38822465214338375 0.7366549729378717 0.9714684974726587
3 464 465 358 0.38822465214338375 0.7366549729378717 0.9714684974726587
3 358 581 357 0.38822465214338375 0.7366549729378717 0.9714684974726587
3 114 113 326 0.38822465214338375 0.7366549729378717 0.9714684974726587
3 326 113 119 0.38822465214338375 0.7366549729378717 0.9714684974726587
3 326 327 114 0.38822465214338375 0.7366549729378717 0.9714684974726587
3 107 106 343 0.38822465214338375 0.7366549729378717 0.9714684974726587
3 112 113 343 0.38822465214338375 0.7366549729378717 0.9714684974726587
3 342 112 343 0.38822465214338375 0.7366549729378717 0.9714684974726587
3 343 106 342 0.38822465214338375 0.7366549729378717 0.9714684974726587
3 342 106 105 0.38822465214338375 0.7366549729378717 0.9714684974726587
3 105 33 34 0.38822465214338375 0.7366549729378717 0.9714684974726587
3 105 508 33 0.38822465214338375 0.7366549729378717 0.9714684974726587
3 106 508 105 0.38822465214338375 0.7366549729378717 0.9714684974726587
3 105 341 342 0.38822465214338375 0.7366549729378717 0.9714684974726587
3 34 341 105 0.38822465214338375 0.7366549729378717 0.9714684974726587
3 561 272 562 0.38822465214338375 0.7366549729378717 0.9714684974726587
3 272 273 562 0.38822465214338375 0.7366549729378717 0.9714684974726587
3 562 273 563 0.38822465214338375 0.7366549729378717 0.9714684974726587
3 563 265 562 0.38822465214338375 0.7366549729378717 0.9714684974726587
3 158 31 32 0.38822465214338375 0.7366549729378717 0.9714684974726587
3 32 508 158 0.38822465214338375 0.7366549729378717 0.9714684974726587
3 158 508 509 0.38822465214338375 0.7366549729378717 0.9714684974726587
3 406 405 231 0.38822465214338375 0.7366549729378717 0.9714684974726587
3 405 230 231 0.38822465214338375 0.7366549729378717 0.9714684974726587
3 231 232 406 0.38822465214338375 0.7366549729378717 0.9714684974726587
3 231 230 162 0.38822465214338375 0.7366549729378717 0.9714684974726587
3 231 162 163 0.38822465214338375 0.7366549729378717 0.9714684974726587
3 163 232 231 0.38822465214338375 0.7366549729378717 0.9714684974726587
3 346 109 345 0.38822465214338375 0.7366549729378717 0.9714684974726587
3 345 327 346 0.38822465214338375 0.7366549729378717 0.9714684974726587
3 114 327 345 0.38822465214338375 0.7366549729378717 0.9714684974726587
3 467 369 370 0.38822465214338375 0.7366549729378717 0.9714684974726587
3 348 349 515 0.38822465214338375 0.7366549729378717 0.9714684974726587
3 330 349 348 0.38822465214338375 0.7366549729378717 0.9714684974726587
3 348 329 330 0.38822465214338375 0.7366549729378717 0.9714684974726587
3 347 329 348 0.38822465214338375 0.7366549729378717 0.9714684974726587
3 350 349 585 0.38822465214338375 0.7366549729378717 0.9714684974726587
3 516 349 350 0.38822465214338375 0.7366549729378717 0.9714684974726587
3 517 516 350 0.38822465214338375 0.7366549729378717 0.9714684974726587
3 350 586 517 0.38822465214338375 0.7366549729378717 0.9714684974726587
3 585 586 350 0.38822465214338375 0.7366549729378717 0.9714684974726587
3 583 360 330 0.38822465214338375 0.7366549729378717 0.9714684974726587
3 330 329 583 0.38822465214338375 0.7366549729378717 0.9714684974726587
3 359 360 583 0.38822465214338375 0.7366549729378717 0.9714684974726587
3 582 358 359 0.38822465214338375 0.7366549729378717 0.9714684974726587
3 581 358 582 0.38822465214338375 0.7366549729378717 0.9714684974726587
3 359 583 582 0.38822465214338375 0.7366549729378717 0.9714684974726587
3 582 583 329 0.38822465214338375 0.7366549729378717 0.9714684974726587
3 45 234 44 0.38822465214338375 0.7366549729378717 0.9714684974726587
3 235 234 170 0.38822465214338375 0.7366549729378717 0.9714684974726587
3 46 458 170 0.38822465214338375 0.7366549729378717 0.9714684974726587
3 170 45 46 0.38822465214338375 0.7366549729378717 0.9714684974726587
3 234 45 170 0.38822465214338375 0.7366549729378717 0.9714684974726587
3 171 235 170 0.38822465214338375 0.7366549729378717 0.9714684974726587
3 170 458 171 0.38822465214338375 0.7366549729378717 0.9714684974726587
3 351 40 164 0.38822465214338375 0.7366549729378717 0.9714684974726587
3 164 234 351 0.38822465214338375 0.7366549729378717 0.9714684974726587
3 351 234 165 0.38822465214338375 0.7366549729378717 0.9714684974726587
3 374 138 375 0.38822465214338375 0.7366549729378717 0.9714684974726587
3 137 138 374 0.38822465214338375 0.7366549729378717 0.9714684974726587
3 53 54 371 0.38822465214338375 0.7366549729378717 0.9714684974726587
3 525 133 134 0.38822465214338375 0.7366549729378717 0.9714684974726587
3 134 526 525 0.38822465214338375 0.7366549729378717 0.9714684974726587
3 133 374 134 0.38822465214338375 0.7366549729378717 0.9714684974726587
3 375 526 134 0.38822465214338375 0.7366549729378717 0.9714684974726587
3 134 374 375 0.38822465214338375 0.7366549729378717 0.9714684974726587
3 112 111 324 0.38822465214338375 0.7366549729378717 0.9714684974726587
3 324 111 323 0.38822465214338375 0.7366549729378717 0.9714684974726587
3 323 117 324 0.38822465214338375 0.7366549729378717 0.9714684974726587
3 325 113 112 0.38822465214338375 0.7366549729378717 0.9714684974726587
3 119 113 325 0.38822465214338375 0.7366549729378717 0.9714684974726587
3 112 324 325 0.38822465214338375 0.7366549729378717 0.9714684974726587
3 325 324 118 0.38822465214338375 0.7366549729378717 0.9714684974726587
3 579 118 124 0.38822465214338375 0.7366549729378717 0.9714684974726587
3 119 325 579 0.38822465214338375 0.7366549729378717 0.9714684974726587
3 579 325 118 0.38822465214338375 0.7366549729378717 0.9714684974726587
3 237 167 172 0.38822465214338375 0.7366549729378717 0.9714684974726587
3 167 236 172 0.38822465214338375 0.7366549729378717 0.9714684974726587
3 171 459 172 0.38822465214338375 0.7366549729378717 0.9714684974726587
3 172 236 171 0.38822465214338375 0.7366549729378717 0.9714684974726587
3 238 173 461 0.38822465214338375 0.7366549729378717 0.9714684974726587
3 124 355 169 0.38822465214338375 0.7366549729378717 0.9714684974726587
3 169 355 238 0.38822465214338375 0.7366549729378717 0.9714684974726587
3 240 175 463 0.38822465214338375 0.7366549729378717 0.9714684974726587
3 240 463 464 0.38822465214338375 0.7366549729378717 0.9714684974726587
3 240 358 357 0.38822465214338375 0.7366549729378717 0.9714684974726587
3 464 358 240 0.38822465214338375 0.7366549729378717 0.9714684974726587
3 577 117 116 0.38822465214338375 0.7366549729378717 0.9714684974726587
3 123 117 577 0.38822465214338375 0.7366549729378717 0.9714684974726587
3 116 122 577 0.38822465214338375 0.7366549729378717 0.9714684974726587
3 124 118 578 0.38822465214338375 0.7366549729378717 0.9714684974726587
3 578 117 123 0.38822465214338375 0.7366549729378717 0.9714684974726587
3 118 324 578 0.38822465214338375 0.7366549729378717 0.9714684974726587
3 578 324 117 0.38822465214338375 0.7366549729378717 0.9714684974726587
3 578 355 124 0.38822465214338375 0.7366549729378717 0.9714684974726587
3 123 355 578 0.38822465214338375 0.7366549729378717 0.9714684974726587
3 168 355 123 0.38822465214338375 0.7366549729378717 0.9714684974726587
3 238 355 168 0.38822465214338375 0.7366549729378717 0.9714684974726587
3 237 173 168 0.38822465214338375 0.7366549729378717 0.9714684974726587
3 168 173 238 0.38822465214338375 0.7366549729378717 0.9714684974726587
3 463 175 180 0.38822465214338375 0.7366549729378717 0.9714684974726587
3 481 533 532 0.38822465214338375 0.7366549729378717 0.9714684974726587
3 587 469 532 0.38822465214338375 0.7366549729378717 0.9714684974726587
3 532 533 587 0.38822465214338375 0.7366549729378717 0.9714684974726587
3 389 388 597 0.38822465214338375 0.7366549729378717 0.9714684974726587
3 594 595 199 0.38822465214338375 0.7366549729378717 0.9714684974726587
3 593 205 594 0.38822465214338375 0.7366549729378717 0.9714684974726587
3 205 595 594 0.38822465214338375 0.7366549729378717 0.9714684974726587
3 599 481 390 0.38822465214338375 0.7366549729378717 0.9714684974726587
3 390 479 389 0.38822465214338375 0.7366549729378717 0.9714684974726587
3 264 265 332 0.38822465214338375 0.7366549729378717 0.9714684974726587
3 332 331 264 0.38822465214338375 0.7366549729378717 0.9714684974726587
3 264 331 27 0.38822465214338375 0.7366549729378717 0.9714684974726587
3 27 561 264 0.38822465214338375 0.7366549729378717 0.9714684974726587
3 561 562 264 0.38822465214338375 0.7366549729378717 0.9714684974726587
3 264 562 265 0.38822465214338375 0.7366549729378717 0.9714684974726587
3 502 399 501 0.38822465214338375 0.7366549729378717 0.9714684974726587
3 399 226 501 0.38822465214338375 0.7366549729378717 0.9714684974726587
3 501 337 502 0.38822465214338375 0.7366549729378717 0.9714684974726587
3 157 500 501 0.38822465214338375 0.7366549729378717 0.9714684974726587
3 501 226 157 0.38822465214338375 0.7366549729378717 0.9714684974726587
3 396 224 225 0.38822465214338375 0.7366549729378717 0.9714684974726587
3 225 397 396 0.38822465214338375 0.7366549729378717 0.9714684974726587
3 396 395 224 0.38822465214338375 0.7366549729378717 0.9714684974726587
3 261 395 396 0.38822465214338375 0.7366549729378717 0.9714684974726587
3 554 553 262 0.38822465214338375 0.7366549729378717 0.9714684974726587
3 262 396 397 0.38822465214338375 0.7366549729378717 0.9714684974726587
3 262 553 261 0.38822465214338375 0.7366549729378717 0.9714684974726587
3 261 396 262 0.38822465214338375 0.7366549729378717 0.9714684974726587
3 156 224 155 0.38822465214338375 0.7366549729378717 0.9714684974726587
3 155 98 156 0.38822465214338375 0.7366549729378717 0.9714684974726587
3 97 78 98 0.38822465214338375 0.7366549729378717 0.9714684974726587
3 98 155 97 0.38822465214338375 0.7366549729378717 0.9714684974726587
3 97 154 96 0.38822465214338375 0.7366549729378717 0.9714684974726587
3 97 155 154 0.38822465214338375 0.7366549729378717 0.9714684974726587
3 77 76 495 0.38822465214338375 0.7366549729378717 0.9714684974726587
3 96 76 77 0.38822465214338375 0.7366549729378717 0.9714684974726587
3 77 97 96 0.38822465214338375 0.7366549729378717 0.9714684974726587
3 78 97 77 0.38822465214338375 0.7366549729378717 0.9714684974726587
3 497 102 498 0.38822465214338375 0.7366549729378717 0.9714684974726587
3 497 498 79 0.38822465214338375 0.7366549729378717 0.9714684974726587
3 79 78 497 0.38822465214338375 0.7366549729378717 0.9714684974726587
3 101 102 497 0.38822465214338375 0.7366549729378717 0.9714684974726587
3 393 392 221 0.38822465214338375 0.7366549729378717 0.9714684974726587
3 222 394 393 0.38822465214338375 0.7366549729378717 0.9714684974726587
3 393 221 222 0.38822465214338375 0.7366549729378717 0.9714684974726587
3 393 394 259 0.38822465214338375 0.7366549729378717 0.9714684974726587
3 393 259 258 0.38822465214338375 0.7366549729378717 0.9714684974726587
3 258 392 393 0.38822465214338375 0.7366549729378717 0.9714684974726587
3 427 426 291 0.38822465214338375 0.7366549729378717 0.9714684974726587
3 291 292 427 0.38822465214338375 0.7366549729378717 0.9714684974726587
3 607 292 291 0.38822465214338375 0.7366549729378717 0.9714684974726587
3 291 426 290 0.38822465214338375 0.7366549729378717 0.9714684974726587
3 290 606 291 0.38822465214338375 0.7366549729378717 0.9714684974726587
3 291 606 607 0.38822465214338375 0.7366549729378717 0.9714684974726587
3 608 607 300 0.38822465214338375 0.7366549729378717 0.9714684974726587
3 608 292 607 0.38822465214338375 0.7366549729378717 0.9714684974726587
3 293 292 608 0.38822465214338375 0.7366549729378717 0.9714684974726587
3 608 609 293 0.38822465214338375 0.7366549729378717 0.9714684974726587
3 548 549 74 0.38822465214338375 0.7366549729378717 0.9714684974726587
3 74 73 548 0.38822465214338375 0.7366549729378717 0.9714684974726587
3 558 506 559 0.38822465214338375 0.7366549729378717 0.9714684974726587
3 505 506 558 0.38822465214338375 0.7366549729378717 0.9714684974726587
3 558 559 457 0.38822465214338375 0.7366549729378717 0.9714684974726587
3 457 557 558 0.38822465214338375 0.7366549729378717 0.9714684974726587
3 503 400 502 0.38822465214338375 0.7366549729378717 0.9714684974726587
3 339 504 503 0.38822465214338375 0.7366549729378717 0.9714684974726587
3 504 505 401 0.38822465214338375 0.7366549729378717 0.9714684974726587
3 401 503 504 0.38822465214338375 0.7366549729378717 0.9714684974726587
3 400 503 401 0.38822465214338375 0.7366549729378717 0.9714684974726587
3 505 558 401 0.38822465214338375 0.7366549729378717 0.9714684974726587
3 557 400 401 0.38822465214338375 0.7366549729378717 0.9714684974726587
3 401 558 557 0.38822465214338375 0.7366549729378717 0.9714684974726587
3 340 570 571 0.38822465214338375 0.7366549729378717 0.9714684974726587
3 571 506 340 0.38822465214338375 0.7366549729378717 0.9714684974726587
3 601 616 602 0.38822465214338375 0.7366549729378717 0.9714684974726587
3 631 588 602 0.38822465214338375 0.7366549729378717 0.9714684974726587
3 602 533 601 0.38822465214338375 0.7366549729378717 0.9714684974726587
3 588 533 602 0.38822465214338375 0.7366549729378717 0.9714684974726587
3 246 539 540 0.38822465214338375 0.7366549729378717 0.9714684974726587
3 541 247 540 0.38822465214338375 0.7366549729378717 0.9714684974726587
3 540 247 246 0.38822465214338375 0.7366549729378717 0.9714684974726587
3 311 443 442 0.38822465214338375 0.7366549729378717 0.9714684974726587
3 442 310 311 0.38822465214338375 0.7366549729378717 0.9714684974726587
3 442 441 310 0.38822465214338375 0.7366549729378717 0.9714684974726587
3 135 136 372 0.38822465214338375 0.7366549729378717 0.9714684974726587
3 372 371 135 0.38822465214338375 0.7366549729378717 0.9714684974726587
3 135 371 54 0.38822465214338375 0.7366549729378717 0.9714684974726587
3 135 54 55 0.38822465214338375 0.7366549729378717 0.9714684974726587
3 55 470 135 0.38822465214338375 0.7366549729378717 0.9714684974726587
3 470 136 135 0.38822465214338375 0.7366549729378717 0.9714684974726587
3 420 205 419 0.38822465214338375 0.7366549729378717 0.9714684974726587
3 205 418 419 0.38822465214338375 0.7366549729378717 0.9714684974726587
3 419 247 420 0.38822465214338375 0.7366549729378717 0.9714684974726587
3 419 418 247 0.38822465214338375 0.7366549729378717 0.9714684974726587
3 472 189 190 0.38822465214338375 0.7366549729378717 0.9714684974726587
3 190 473 472 0.38822465214338375 0.7366549729378717 0.9714684974726587
3 190 191 473 0.38822465214338375 0.7366549729378717 0.9714684974726587
3 384 385 192 0.38822465214338375 0.7366549729378717 0.9714684974726587
3 192 191 384 0.38822465214338375 0.7366549729378717 0.9714684974726587
3 475 474 192 0.38822465214338375 0.7366549729378717 0.9714684974726587
3 474 191 192 0.38822465214338375 0.7366549729378717 0.9714684974726587
3 189 188 381 0.38822465214338375 0.7366549729378717 0.9714684974726587
3 591 195 590 0.38822465214338375 0.7366549729378717 0.9714684974726587
3 589 201 590 0.38822465214338375 0.7366549729378717 0.9714684974726587
3 198 197 593 0.38822465214338375 0.7366549729378717 0.9714684974726587
3 198 594 199 0.38822465214338375 0.7366549729378717 0.9714684974726587
3 593 594 198 0.38822465214338375 0.7366549729378717 0.9714684974726587
3 385 197 198 0.38822465214338375 0.7366549729378717 0.9714684974726587
3 199 386 198 0.38822465214338375 0.7366549729378717 0.9714684974726587
3 198 386 385 0.38822465214338375 0.7366549729378717 0.9714684974726587
3 196 591 592 0.38822465214338375 0.7366549729378717 0.9714684974726587
3 592 197 196 0.38822465214338375 0.7366549729378717 0.9714684974726587
3 593 197 592 0.38822465214338375 0.7366549729378717 0.9714684974726587
3 592 591 203 0.38822465214338375 0.7366549729378717 0.9714684974726587
3 592 204 593 0.38822465214338375 0.7366549729378717 0.9714684974726587
3 203 204 592 0.38822465214338375 0.7366549729378717 0.9714684974726587
3 293 609 294 0.38822465214338375 0.7366549729378717 0.9714684974726587
3 286 540 539 0.38822465214338375 0.7366549729378717 0.9714684974726587
3 430 286 285 0.38822465214338375 0.7366549729378717 0.9714684974726587
3 285 539 538 0.38822465214338375 0.7366549729378717 0.9714684974726587
3 285 286 539 0.38822465214338375 0.7366549729378717 0.9714684974726587
3 202 416 203 0.38822465214338375 0.7366549729378717 0.9714684974726587
3 203 591 202 0.38822465214338375 0.7366549729378717 0.9714684974726587
3 202 201 415 0.38822465214338375 0.7366549729378717 0.9714684974726587
3 415 416 202 0.38822465214338375 0.7366549729378717 0.9714684974726587
3 202 590 201 0.38822465214338375 0.7366549729378717 0.9714684974726587
3 591 590 202 0.38822465214338375 0.7366549729378717 0.9714684974726587
3 517 586 518 0.38822465214338375 0.7366549729378717 0.9714684974726587
3 587 588 520 0.38822465214338375 0.7366549729378717 0.9714684974726587
3 588 574 520 0.38822465214338375 0.7366549729378717 0.9714684974726587
3 278 567 277 0.38822465214338375 0.7366549729378717 0.9714684974726587
3 278 277 408 0.38822465214338375 0.7366549729378717 0.9714684974726587
3 278 279 568 0.38822465214338375 0.7366549729378717 0.9714684974726587
3 568 567 278 0.38822465214338375 0.7366549729378717 0.9714684974726587
3 409 279 278 0.38822465214338375 0.7366549729378717 0.9714684974726587
3 278 408 409 0.38822465214338375 0.7366549729378717 0.9714684974726587
3 564 565 267 0.38822465214338375 0.7366549729378717 0.9714684974726587
3 267 266 564 0.38822465214338375 0.7366549729378717 0.9714684974726587
3 332 265 333 0.38822465214338375 0.7366549729378717 0.9714684974726587
3 265 266 333 0.38822465214338375 0.7366549729378717 0.9714684974726587
3 103 102 333 0.38822465214338375 0.7366549729378717 0.9714684974726587
3 333 102 332 0.38822465214338375 0.7366549729378717 0.9714684974726587
3 270 271 338 0.38822465214338375 0.7366549729378717 0.9714684974726587
3 338 337 270 0.38822465214338375 0.7366549729378717 0.9714684974726587
3 338 271 339 0.38822465214338375 0.7366549729378717 0.9714684974726587
3 502 337 338 0.38822465214338375 0.7366549729378717 0.9714684974726587
3 339 503 338 0.38822465214338375 0.7366549729378717 0.9714684974726587
3 338 503 502 0.38822465214338375 0.7366549729378717 0.9714684974726587
3 581 327 580 0.38822465214338375 0.7366549729378717 0.9714684974726587
3 327 326 580 0.38822465214338375 0.7366549729378717 0.9714684974726587
3 357 581 580 0.38822465214338375 0.7366549729378717 0.9714684974726587
3 580 326 119 0.38822465214338375 0.7366549729378717 0.9714684974726587
3 119 579 580 0.38822465214338375 0.7366549729378717 0.9714684974726587
3 404 273 403 0.38822465214338375 0.7366549729378717 0.9714684974726587
3 403 273 272 0.38822465214338375 0.7366549729378717 0.9714684974726587
3 30 31 227 0.38822465214338375 0.7366549729378717 0.9714684974726587
3 31 158 227 0.38822465214338375 0.7366549729378717 0.9714684974726587
3 229 230 404 0.38822465214338375 0.7366549729378717 0.9714684974726587
3 404 403 229 0.38822465214338375 0.7366549729378717 0.9714684974726587
3 229 403 228 0.38822465214338375 0.7366549729378717 0.9714684974726587
3 161 230 229 0.38822465214338375 0.7366549729378717 0.9714684974726587
3 160 161 229 0.38822465214338375 0.7366549729378717 0.9714684974726587
3 229 228 160 0.38822465214338375 0.7366549729378717 0.9714684974726587
3 114 345 344 0.38822465214338375 0.7366549729378717 0.9714684974726587
3 344 113 114 0.38822465214338375 0.7366549729378717 0.9714684974726587
3 107 343 344 0.38822465214338375 0.7366549729378717 0.9714684974726587
3 344 343 113 0.38822465214338375 0.7366549729378717 0.9714684974726587
3 108 109 511 0.38822465214338375 0.7366549729378717 0.9714684974726587
3 108 345 109 0.38822465214338375 0.7366549729378717 0.9714684974726587
3 511 510 108 0.38822465214338375 0.7366549729378717 0.9714684974726587
3 108 510 107 0.38822465214338375 0.7366549729378717 0.9714684974726587
3 107 344 108 0.38822465214338375 0.7366549729378717 0.9714684974726587
3 108 344 345 0.38822465214338375 0.7366549729378717 0.9714684974726587
3 514 348 515 0.38822465214338375 0.7366549729378717 0.9714684974726587
3 163 513 514 0.38822465214338375 0.7366549729378717 0.9714684974726587
3 514 513 347 0.38822465214338375 0.7366549729378717 0.9714684974726587
3 347 348 514 0.38822465214338375 0.7366549729378717 0.9714684974726587
3 514 233 163 0.38822465214338375 0.7366549729378717 0.9714684974726587
3 515 233 514 0.38822465214338375 0.7366549729378717 0.9714684974726587
3 346 327 328 0.38822465214338375 0.7366549729378717 0.9714684974726587
3 328 582 329 0.38822465214338375 0.7366549729378717 0.9714684974726587
3 328 327 581 0.38822465214338375 0.7366549729378717 0.9714684974726587
3 581 582 328 0.38822465214338375 0.7366549729378717 0.9714684974726587
3 328 347 346 0.38822465214338375 0.7366549729378717 0.9714684974726587
3 328 329 347 0.38822465214338375 0.7366549729378717 0.9714684974726587
3 165 352 120 0.38822465214338375 0.7366549729378717 0.9714684974726587
3 120 351 165 0.38822465214338375 0.7366549729378717 0.9714684974726587
3 120 575 39 0.38822465214338375 0.7366549729378717 0.9714684974726587
3 120 352 575 0.38822465214338375 0.7366549729378717 0.9714684974726587
3 39 40 120 0.38822465214338375 0.7366549729378717 0.9714684974726587
3 40 351 120 0.38822465214338375 0.7366549729378717 0.9714684974726587
3 478 479 380 0.38822465214338375 0.7366549729378717 0.9714684974726587
3 389 479 478 0.38822465214338375 0.7366549729378717 0.9714684974726587
3 478 388 389 0.38822465214338375 0.7366549729378717 0.9714684974726587
3 527 376 377 0.38822465214338375 0.7366549729378717 0.9714684974726587
3 377 139 475 0.38822465214338375 0.7366549729378717 0.9714684974726587
3 377 376 139 0.38822465214338375 0.7366549729378717 0.9714684974726587
3 528 369 527 0.38822465214338375 0.7366549729378717 0.9714684974726587
3 528 370 369 0.38822465214338375 0.7366549729378717 0.9714684974726587
3 527 377 528 0.38822465214338375 0.7366549729378717 0.9714684974726587
3 528 377 378 0.38822465214338375 0.7366549729378717 0.9714684974726587
3 373 374 133 0.38822465214338375 0.7366549729378717 0.9714684974726587
3 372 136 373 0.38822465214338375 0.7366549729378717 0.9714684974726587
3 373 136 137 0.38822465214338375 0.7366549729378717 0.9714684974726587
3 137 374 373 0.38822465214338375 0.7366549729378717 0.9714684974726587
3 125 51 521 0.38822465214338375 0.7366549729378717 0.9714684974726587
3 459 176 177 0.38822465214338375 0.7366549729378717 0.9714684974726587
3 174 461 179 0.38822465214338375 0.7366549729378717 0.9714684974726587
3 238 461 174 0.38822465214338375 0.7366549729378717 0.9714684974726587
3 174 169 238 0.38822465214338375 0.7366549729378717 0.9714684974726587
3 356 579 124 0.38822465214338375 0.7366549729378717 0.9714684974726587
3 124 169 356 0.38822465214338375 0.7366549729378717 0.9714684974726587
3 357 580 356 0.38822465214338375 0.7366549729378717 0.9714684974726587
3 356 580 579 0.38822465214338375 0.7366549729378717 0.9714684974726587
3 356 240 357 0.38822465214338375 0.7366549729378717 0.9714684974726587
3 354 168 123 0.38822465214338375 0.7366549729378717 0.9714684974726587
3 123 577 354 0.38822465214338375 0.7366549729378717 0.9714684974726587
3 354 577 122 0.38822465214338375 0.7366549729378717 0.9714684974726587
3 354 122 167 0.38822465214338375 0.7366549729378717 0.9714684974726587
3 354 167 237 0.38822465214338375 0.7366549729378717 0.9714684974726587
3 237 168 354 0.38822465214338375 0.7366549729378717 0.9714684974726587
3 463 180 365 0.38822465214338375 0.7366549729378717 0.9714684974726587
3 481 532 480 0.38822465214338375 0.7366549729378717 0.9714684974726587
3 480 390 481 0.38822465214338375 0.7366549729378717 0.9714684974726587
3 479 390 480 0.38822465214338375 0.7366549729378717 0.9714684974726587
3 380 479 480 0.38822465214338375 0.7366549729378717 0.9714684974726587
3 387 386 199 0.38822465214338375 0.7366549729378717 0.9714684974726587
3 199 595 387 0.38822465214338375 0.7366549729378717 0.9714684974726587
3 598 423 599 0.38822465214338375 0.7366549729378717 0.9714684974726587
3 599 390 598 0.38822465214338375 0.7366549729378717 0.9714684974726587
3 389 597 598 0.38822465214338375 0.7366549729378717 0.9714684974726587
3 598 390 389 0.38822465214338375 0.7366549729378717 0.9714684974726587
3 554 262 263 0.38822465214338375 0.7366549729378717 0.9714684974726587
3 263 262 397 0.38822465214338375 0.7366549729378717 0.9714684974726587
3 263 397 398 0.38822465214338375 0.7366549729378717 0.9714684974726587
3 263 555 554 0.38822465214338375 0.7366549729378717 0.9714684974726587
3 398 555 263 0.38822465214338375 0.7366549729378717 0.9714684974726587
3 154 155 223 0.38822465214338375 0.7366549729378717 0.9714684974726587
3 222 154 223 0.38822465214338375 0.7366549729378717 0.9714684974726587
3 224 395 223 0.38822465214338375 0.7366549729378717 0.9714684974726587
3 223 155 224 0.38822465214338375 0.7366549729378717 0.9714684974726587
3 223 394 222 0.38822465214338375 0.7366549729378717 0.9714684974726587
3 223 395 394 0.38822465214338375 0.7366549729378717 0.9714684974726587
3 78 77 496 0.38822465214338375 0.7366549729378717 0.9714684974726587
3 496 497 78 0.38822465214338375 0.7366549729378717 0.9714684974726587
3 496 77 495 0.38822465214338375 0.7366549729378717 0.9714684974726587
3 101 497 496 0.38822465214338375 0.7366549729378717 0.9714684974726587
3 496 100 101 0.38822465214338375 0.7366549729378717 0.9714684974726587
3 495 100 496 0.38822465214338375 0.7366549729378717 0.9714684974726587
3 414 242 243 0.38822465214338375 0.7366549729378717 0.9714684974726587
3 243 415 414 0.38822465214338375 0.7366549729378717 0.9714684974726587
3 243 244 415 0.38822465214338375 0.7366549729378717 0.9714684974726587
3 537 244 243 0.38822465214338375 0.7366549729378717 0.9714684974726587
3 535 282 283 0.38822465214338375 0.7366549729378717 0.9714684974726587
3 534 282 535 0.38822465214338375 0.7366549729378717 0.9714684974726587
3 60 61 413 0.38822465214338375 0.7366549729378717 0.9714684974726587
3 413 200 60 0.38822465214338375 0.7366549729378717 0.9714684974726587
3 414 200 413 0.38822465214338375 0.7366549729378717 0.9714684974726587
3 413 242 414 0.38822465214338375 0.7366549729378717 0.9714684974726587
3 241 242 413 0.38822465214338375 0.7366549729378717 0.9714684974726587
3 413 61 241 0.38822465214338375 0.7366549729378717 0.9714684974726587
3 241 61 62 0.38822465214338375 0.7366549729378717 0.9714684974726587
3 63 534 62 0.38822465214338375 0.7366549729378717 0.9714684974726587
3 534 535 62 0.38822465214338375 0.7366549729378717 0.9714684974726587
3 62 535 241 0.38822465214338375 0.7366549729378717 0.9714684974726587
3 609 608 301 0.38822465214338375 0.7366549729378717 0.9714684974726587
3 301 608 300 0.38822465214338375 0.7366549729378717 0.9714684974726587
3 301 439 440 0.38822465214338375 0.7366549729378717 0.9714684974726587
3 300 439 301 0.38822465214338375 0.7366549729378717 0.9714684974726587
3 91 73 92 0.38822465214338375 0.7366549729378717 0.9714684974726587
3 73 74 92 0.38822465214338375 0.7366549729378717 0.9714684974726587
3 92 215 91 0.38822465214338375 0.7366549729378717 0.9714684974726587
3 93 92 74 0.38822465214338375 0.7366549729378717 0.9714684974726587
3 94 217 93 0.38822465214338375 0.7366549729378717 0.9714684974726587
3 75 549 550 0.38822465214338375 0.7366549729378717 0.9714684974726587
3 75 74 549 0.38822465214338375 0.7366549729378717 0.9714684974726587
3 75 93 74 0.38822465214338375 0.7366549729378717 0.9714684974726587
3 94 93 75 0.38822465214338375 0.7366549729378717 0.9714684974726587
3 550 551 75 0.38822465214338375 0.7366549729378717 0.9714684974726587
3 75 551 94 0.38822465214338375 0.7366549729378717 0.9714684974726587
3 507 506 572 0.38822465214338375 0.7366549729378717 0.9714684974726587
3 506 571 572 0.38822465214338375 0.7366549729378717 0.9714684974726587
3 572 571 412 0.38822465214338375 0.7366549729378717 0.9714684974726587
3 412 520 572 0.38822465214338375 0.7366549729378717 0.9714684974726587
3 494 559 560 0.38822465214338375 0.7366549729378717 0.9714684974726587
3 457 559 494 0.38822465214338375 0.7366549729378717 0.9714684974726587
3 615 616 546 0.38822465214338375 0.7366549729378717 0.9714684974726587
3 615 629 616 0.38822465214338375 0.7366549729378717 0.9714684974726587
3 615 546 545 0.38822465214338375 0.7366549729378717 0.9714684974726587
3 615 545 614 0.38822465214338375 0.7366549729378717 0.9714684974726587
3 614 628 615 0.38822465214338375 0.7366549729378717 0.9714684974726587
3 628 629 615 0.38822465214338375 0.7366549729378717 0.9714684974726587
3 441 442 303 0.38822465214338375 0.7366549729378717 0.9714684974726587
3 303 443 611 0.38822465214338375 0.7366549729378717 0.9714684974726587
3 303 442 443 0.38822465214338375 0.7366549729378717 0.9714684974726587
3 422 544 423 0.38822465214338375 0.7366549729378717 0.9714684974726587
3 423 598 422 0.38822465214338375 0.7366549729378717 0.9714684974726587
3 597 421 422 0.38822465214338375 0.7366549729378717 0.9714684974726587
3 422 598 597 0.38822465214338375 0.7366549729378717 0.9714684974726587
3 542 421 420 0.38822465214338375 0.7366549729378717 0.9714684974726587
3 542 247 541 0.38822465214338375 0.7366549729378717 0.9714684974726587
3 420 247 542 0.38822465214338375 0.7366549729378717 0.9714684974726587
3 596 421 597 0.38822465214338375 0.7366549729378717 0.9714684974726587
3 596 597 388 0.38822465214338375 0.7366549729378717 0.9714684974726587
3 596 595 420 0.38822465214338375 0.7366549729378717 0.9714684974726587
3 420 421 596 0.38822465214338375 0.7366549729378717 0.9714684974726587
3 596 387 595 0.38822465214338375 0.7366549729378717 0.9714684974726587
3 388 387 596 0.38822465214338375 0.7366549729378717 0.9714684974726587
3 382 190 189 0.38822465214338375 0.7366549729378717 0.9714684974726587
3 189 381 382 0.38822465214338375 0.7366549729378717 0.9714684974726587
3 57 188 56 0.38822465214338375 0.7366549729378717 0.9714684974726587
3 57 381 188 0.38822465214338375 0.7366549729378717 0.9714684974726587
3 429 428 293 0.38822465214338375 0.7366549729378717 0.9714684974726587
3 293 294 429 0.38822465214338375 0.7366549729378717 0.9714684974726587
3 429 294 430 0.38822465214338375 0.7366549729378717 0.9714684974726587
3 430 285 429 0.38822465214338375 0.7366549729378717 0.9714684974726587
3 610 303 611 0.38822465214338375 0.7366549729378717 0.9714684974726587
3 610 294 609 0.38822465214338375 0.7366549729378717 0.9714684974726587
3 540 286 287 0.38822465214338375 0.7366549729378717 0.9714684974726587
3 287 432 541 0.38822465214338375 0.7366549729378717 0.9714684974726587
3 541 540 287 0.38822465214338375 0.7366549729378717 0.9714684974726587
3 411 518 412 0.38822465214338375 0.7366549729378717 0.9714684974726587
3 570 410 411 0.38822465214338375 0.7366549729378717 0.9714684974726587
3 411 410 517 0.38822465214338375 0.7366549729378717 0.9714684974726587
3 517 518 411 0.38822465214338375 0.7366549729378717 0.9714684974726587
3 411 571 570 0.38822465214338375 0.7366549729378717 0.9714684974726587
3 412 571 411 0.38822465214338375 0.7366549729378717 0.9714684974726587
3 412 518 519 0.38822465214338375 0.7366549729378717 0.9714684974726587
3 519 520 412 0.38822465214338375 0.7366549729378717 0.9714684974726587
3 587 520 519 0.38822465214338375 0.7366549729378717 0.9714684974726587
3 519 586 587 0.38822465214338375 0.7366549729378717 0.9714684974726587
3 519 518 586 0.38822465214338375 0.7366549729378717 0.9714684974726587
3 268 565 566 0.38822465214338375 0.7366549729378717 0.9714684974726587
3 268 267 565 0.38822465214338375 0.7366549729378717 0.9714684974726587
3 267 268 335 0.38822465214338375 0.7366549729378717 0.9714684974726587
3 30 227 402 0.38822465214338375 0.7366549729378717 0.9714684974726587
3 402 403 272 0.38822465214338375 0.7366549729378717 0.9714684974726587
3 228 403 402 0.38822465214338375 0.7366549729378717 0.9714684974726587
3 402 227 228 0.38822465214338375 0.7366549729378717 0.9714684974726587
3 402 272 29 0.38822465214338375 0.7366549729378717 0.9714684974726587
3 29 30 402 0.38822465214338375 0.7366549729378717 0.9714684974726587
3 159 227 158 0.38822465214338375 0.7366549729378717 0.9714684974726587
3 159 510 160 0.38822465214338375 0.7366549729378717 0.9714684974726587
3 160 228 159 0.38822465214338375 0.7366549729378717 0.9714684974726587
3 228 227 159 0.38822465214338375 0.7366549729378717 0.9714684974726587
3 509 510 159 0.38822465214338375 0.7366549729378717 0.9714684974726587
3 159 158 509 0.38822465214338375 0.7366549729378717 0.9714684974726587
3 468 530 469 0.38822465214338375 0.7366549729378717 0.9714684974726587
3 370 530 468 0.38822465214338375 0.7366549729378717 0.9714684974726587
3 468 586 585 0.38822465214338375 0.7366549729378717 0.9714684974726587
3 468 469 586 0.38822465214338375 0.7366549729378717 0.9714684974726587
3 468 585 467 0.38822465214338375 0.7366549729378717 0.9714684974726587
3 467 370 468 0.38822465214338375 0.7366549729378717 0.9714684974726587
3 531 532 469 0.38822465214338375 0.7366549729378717 0.9714684974726587
3 469 530 531 0.38822465214338375 0.7366549729378717 0.9714684974726587
3 531 530 380 0.38822465214338375 0.7366549729378717 0.9714684974726587
3 380 480 531 0.38822465214338375 0.7366549729378717 0.9714684974726587
3 531 480 532 0.38822465214338375 0.7366549729378717 0.9714684974726587
3 379 478 380 0.38822465214338375 0.7366549729378717 0.9714684974726587
3 380 530 379 0.38822465214338375 0.7366549729378717 0.9714684974726587
3 476 377 475 0.38822465214338375 0.7366549729378717 0.9714684974726587
3 378 377 476 0.38822465214338375 0.7366549729378717 0.9714684974726587
3 529 530 370 0.38822465214338375 0.7366549729378717 0.9714684974726587
3 370 528 529 0.38822465214338375 0.7366549729378717 0.9714684974726587
3 529 528 378 0.38822465214338375 0.7366549729378717 0.9714684974726587
3 378 379 529 0.38822465214338375 0.7366549729378717 0.9714684974726587
3 529 379 530 0.38822465214338375 0.7366549729378717 0.9714684974726587
3 131 371 372 0.38822465214338375 0.7366549729378717 0.9714684974726587
3 53 371 130 0.38822465214338375 0.7366549729378717 0.9714684974726587
3 371 131 130 0.38822465214338375 0.7366549729378717 0.9714684974726587
3 460 461 173 0.38822465214338375 0.7366549729378717 0.9714684974726587
3 460 173 237 0.38822465214338375 0.7366549729378717 0.9714684974726587
3 237 172 460 0.38822465214338375 0.7366549729378717 0.9714684974726587
3 460 172 459 0.38822465214338375 0.7366549729378717 0.9714684974726587
3 459 177 460 0.38822465214338375 0.7366549729378717 0.9714684974726587
3 49 182 361 0.38822465214338375 0.7366549729378717 0.9714684974726587
3 361 48 49 0.38822465214338375 0.7366549729378717 0.9714684974726587
3 361 176 48 0.38822465214338375 0.7366549729378717 0.9714684974726587
3 361 177 176 0.38822465214338375 0.7366549729378717 0.9714684974726587
3 362 361 182 0.38822465214338375 0.7366549729378717 0.9714684974726587
3 177 361 362 0.38822465214338375 0.7366549729378717 0.9714684974726587
3 182 183 362 0.38822465214338375 0.7366549729378717 0.9714684974726587
3 183 363 362 0.38822465214338375 0.7366549729378717 0.9714684974726587
3 462 174 179 0.38822465214338375 0.7366549729378717 0.9714684974726587
3 179 180 462 0.38822465214338375 0.7366549729378717 0.9714684974726587
3 462 180 175 0.38822465214338375 0.7366549729378717 0.9714684974726587
3 169 174 239 0.38822465214338375 0.7366549729378717 0.9714684974726587
3 239 356 169 0.38822465214338375 0.7366549729378717 0.9714684974726587
3 239 462 175 0.38822465214338375 0.7366549729378717 0.9714684974726587
3 174 462 239 0.38822465214338375 0.7366549729378717 0.9714684974726587
3 175 240 239 0.38822465214338375 0.7366549729378717 0.9714684974726587
3 240 356 239 0.38822465214338375 0.7366549729378717 0.9714684974726587
3 367 464 366 0.38822465214338375 0.7366549729378717 0.9714684974726587
3 364 365 180 0.38822465214338375 0.7366549729378717 0.9714684974726587
3 364 180 179 0.38822465214338375 0.7366549729378717 0.9714684974726587
3 179 363 364 0.38822465214338375 0.7366549729378717 0.9714684974726587
3 536 242 241 0.38822465214338375 0.7366549729378717 0.9714684974726587
3 241 535 536 0.38822465214338375 0.7366549729378717 0.9714684974726587
3 537 243 536 0.38822465214338375 0.7366549729378717 0.9714684974726587
3 536 243 242 0.38822465214338375 0.7366549729378717 0.9714684974726587
3 283 537 536 0.38822465214338375 0.7366549729378717 0.9714684974726587
3 536 535 283 0.38822465214338375 0.7366549729378717 0.9714684974726587
3 215 92 216 0.38822465214338375 0.7366549729378717 0.9714684974726587
3 92 93 216 0.38822465214338375 0.7366549729378717 0.9714684974726587
3 251 215 216 0.38822465214338375 0.7366549729378717 0.9714684974726587
3 216 252 251 0.38822465214338375 0.7366549729378717 0.9714684974726587
3 217 252 216 0.38822465214338375 0.7366549729378717 0.9714684974726587
3 216 93 217 0.38822465214338375 0.7366549729378717 0.9714684974726587
3 573 520 574 0.38822465214338375 0.7366549729378717 0.9714684974726587
3 573 572 520 0.38822465214338375 0.7366549729378717 0.9714684974726587
3 573 574 507 0.38822465214338375 0.7366549729378717 0.9714684974726587
3 507 572 573 0.38822465214338375 0.7366549729378717 0.9714684974726587
3 630 494 560 0.38822465214338375 0.7366549729378717 0.9714684974726587
3 630 560 631 0.38822465214338375 0.7366549729378717 0.9714684974726587
3 616 629 630 0.38822465214338375 0.7366549729378717 0.9714684974726587
3 629 494 630 0.38822465214338375 0.7366549729378717 0.9714684974726587
3 631 602 630 0.38822465214338375 0.7366549729378717 0.9714684974726587
3 630 602 616 0.38822465214338375 0.7366549729378717 0.9714684974726587
3 493 492 457 0.38822465214338375 0.7366549729378717 0.9714684974726587
3 457 494 493 0.38822465214338375 0.7366549729378717 0.9714684974726587
3 493 628 492 0.38822465214338375 0.7366549729378717 0.9714684974726587
3 493 629 628 0.38822465214338375 0.7366549729378717 0.9714684974726587
3 493 494 629 0.38822465214338375 0.7366549729378717 0.9714684974726587
3 441 303 302 0.38822465214338375 0.7366549729378717 0.9714684974726587
3 609 301 302 0.38822465214338375 0.7366549729378717 0.9714684974726587
3 302 610 609 0.38822465214338375 0.7366549729378717 0.9714684974726587
3 303 610 302 0.38822465214338375 0.7366549729378717 0.9714684974726587
3 440 441 302 0.38822465214338375 0.7366549729378717 0.9714684974726587
3 302 301 440 0.38822465214338375 0.7366549729378717 0.9714684974726587
3 421 542 543 0.38822465214338375 0.7366549729378717 0.9714684974726587
3 544 422 543 0.38822465214338375 0.7366549729378717 0.9714684974726587
3 543 422 421 0.38822465214338375 0.7366549729378717 0.9714684974726587
3 190 382 383 0.38822465214338375 0.7366549729378717 0.9714684974726587
3 384 191 383 0.38822465214338375 0.7366549729378717 0.9714684974726587
3 191 190 383 0.38822465214338375 0.7366549729378717 0.9714684974726587
3 383 196 384 0.38822465214338375 0.7366549729378717 0.9714684974726587
3 383 195 196 0.38822465214338375 0.7366549729378717 0.9714684974726587
3 383 382 195 0.38822465214338375 0.7366549729378717 0.9714684974726587
3 381 57 58 0.38822465214338375 0.7366549729378717 0.9714684974726587
3 58 59 589 0.38822465214338375 0.7366549729378717 0.9714684974726587
3 284 429 285 0.38822465214338375 0.7366549729378717 0.9714684974726587
3 538 537 284 0.38822465214338375 0.7366549729378717 0.9714684974726587
3 284 285 538 0.38822465214338375 0.7366549729378717 0.9714684974726587
3 284 537 283 0.38822465214338375 0.7366549729378717 0.9714684974726587
3 283 428 284 0.38822465214338375 0.7366549729378717 0.9714684974726587
3 428 429 284 0.38822465214338375 0.7366549729378717 0.9714684974726587
3 295 610 611 0.38822465214338375 0.7366549729378717 0.9714684974726587
3 430 294 295 0.38822465214338375 0.7366549729378717 0.9714684974726587
3 294 610 295 0.38822465214338375 0.7366549729378717 0.9714684974726587
3 269 268 566 0.38822465214338375 0.7366549729378717 0.9714684974726587
3 566 567 269 0.38822465214338375 0.7366549729378717 0.9714684974726587
3 269 567 270 0.38822465214338375 0.7366549729378717 0.9714684974726587
3 270 337 269 0.38822465214338375 0.7366549729378717 0.9714684974726587
3 267 335 334 0.38822465214338375 0.7366549729378717 0.9714684974726587
3 266 267 334 0.38822465214338375 0.7366549729378717 0.9714684974726587
3 334 333 266 0.38822465214338375 0.7366549729378717 0.9714684974726587
3 103 333 334 0.38822465214338375 0.7366549729378717 0.9714684974726587
3 334 104 103 0.38822465214338375 0.7366549729378717 0.9714684974726587
3 334 335 104 0.38822465214338375 0.7366549729378717 0.9714684974726587
3 477 387 388 0.38822465214338375 0.7366549729378717 0.9714684974726587
3 477 476 387 0.38822465214338375 0.7366549729378717 0.9714684974726587
3 388 478 477 0.38822465214338375 0.7366549729378717 0.9714684974726587
3 478 379 477 0.38822465214338375 0.7366549729378717 0.9714684974726587
3 477 379 378 0.38822465214338375 0.7366549729378717 0.9714684974726587
3 378 476 477 0.38822465214338375 0.7366549729378717 0.9714684974726587
3 475 192 193 0.38822465214338375 0.7366549729378717 0.9714684974726587
3 193 476 475 0.38822465214338375 0.7366549729378717 0.9714684974726587
3 385 386 193 0.38822465214338375 0.7366549729378717 0.9714684974726587
3 193 192 385 0.38822465214338375 0.7366549729378717 0.9714684974726587
3 386 387 193 0.38822465214338375 0.7366549729378717 0.9714684974726587
3 387 476 193 0.38822465214338375 0.7366549729378717 0.9714684974726587
3 132 131 372 0.38822465214338375 0.7366549729378717 0.9714684974726587
3 372 373 132 0.38822465214338375 0.7366549729378717 0.9714684974726587
3 132 373 133 0.38822465214338375 0.7366549729378717 0.9714684974726587
3 52 521 51 0.38822465214338375 0.7366549729378717 0.9714684974726587
3 52 130 521 0.38822465214338375 0.7366549729378717 0.9714684974726587
3 53 130 52 0.38822465214338375 0.7366549729378717 0.9714684974726587
3 178 460 177 0.38822465214338375 0.7366549729378717 0.9714684974726587
3 177 362 178 0.38822465214338375 0.7366549729378717 0.9714684974726587
3 461 460 178 0.38822465214338375 0.7366549729378717 0.9714684974726587
3 178 362 363 0.38822465214338375 0.7366549729378717 0.9714684974726587
3 179 461 178 0.38822465214338375 0.7366549729378717 0.9714684974726587
3 178 363 179 0.38822465214338375 0.7366549729378717 0.9714684974726587
3 181 366 464 0.38822465214338375 0.7366549729378717 0.9714684974726587
3 365 366 181 0.38822465214338375 0.7366549729378717 0.9714684974726587
3 464 463 181 0.38822465214338375 0.7366549729378717 0.9714684974726587
3 463 365 181 0.38822465214338375 0.7366549729378717 0.9714684974726587
3 367 366 187 0.38822465214338375 0.7366549729378717 0.9714684974726587
3 187 129 525 0.38822465214338375 0.7366549729378717 0.9714684974726587
3 187 526 367 0.38822465214338375 0.7366549729378717 0.9714684974726587
3 525 526 187 0.38822465214338375 0.7366549729378717 0.9714684974726587
3 186 366 365 0.38822465214338375 0.7366549729378717 0.9714684974726587
3 129 187 186 0.38822465214338375 0.7366549729378717 0.9714684974726587
3 186 187 366 0.38822465214338375 0.7366549729378717 0.9714684974726587
3 433 543 542 0.38822465214338375 0.7366549729378717 0.9714684974726587
3 612 613 433 0.38822465214338375 0.7366549729378717 0.9714684974726587
3 433 432 612 0.38822465214338375 0.7366549729378717 0.9714684974726587
3 541 432 433 0.38822465214338375 0.7366549729378717 0.9714684974726587
3 433 542 541 0.38822465214338375 0.7366549729378717 0.9714684974726587
3 381 58 194 0.38822465214338375 0.7366549729378717 0.9714684974726587
3 195 382 194 0.38822465214338375 0.7366549729378717 0.9714684974726587
3 194 382 381 0.38822465214338375 0.7366549729378717 0.9714684974726587
3 194 58 589 0.38822465214338375 0.7366549729378717 0.9714684974726587
3 589 590 194 0.38822465214338375 0.7366549729378717 0.9714684974726587
3 194 590 195 0.38822465214338375 0.7366549729378717 0.9714684974726587
3 431 287 286 0.38822465214338375 0.7366549729378717 0.9714684974726587
3 431 286 430 0.38822465214338375 0.7366549729378717 0.9714684974726587
3 430 295 431 0.38822465214338375 0.7366549729378717 0.9714684974726587
3 432 287 431 0.38822465214338375 0.7366549729378717 0.9714684974726587
3 611 432 431 0.38822465214338375 0.7366549729378717 0.9714684974726587
3 431 295 611 0.38822465214338375 0.7366549729378717 0.9714684974726587
3 336 269 337 0.38822465214338375 0.7366549729378717 0.9714684974726587
3 104 335 336 0.38822465214338375 0.7366549729378717 0.9714684974726587
3 336 335 268 0.38822465214338375 0.7366549729378717 0.9714684974726587
3 268 269 336 0.38822465214338375 0.7366549729378717 0.9714684974726587
3 337 501 336 0.38822465214338375 0.7366549729378717 0.9714684974726587
3 500 104 336 0.38822465214338375 0.7366549729378717 0.9714684974726587
3 336 501 500 0.38822465214338375 0.7366549729378717 0.9714684974726587
3 365 364 185 0.38822465214338375 0.7366549729378717 0.9714684974726587
3 185 186 365 0.38822465214338375 0.7366549729378717 0.9714684974726587
3 522 130 131 0.38822465214338375 0.7366549729378717 0.9714684974726587
3 521 130 522 0.38822465214338375 0.7366549729378717 0.9714684974726587
3 184 363 183 0.38822465214338375 0.7366549729378717 0.9714684974726587
3 184 364 363 0.38822465214338375 0.7366549729378717 0.9714684974726587
3 184 185 364 0.38822465214338375 0.7366549729378717 0.9714684974726587
3 127 185 184 0.38822465214338375 0.7366549729378717 0.9714684974726587
3 131 132 523 0.38822465214338375 0.7366549729378717 0.9714684974726587
3 523 522 131 0.38822465214338375 0.7366549729378717 0.9714684974726587
3 127 522 523 0.38822465214338375 0.7366549729378717 0.9714684974726587
3 434 433 613 0.38822465214338375 0.7366549729378717 0.9714684974726587
3 543 433 434 0.38822465214338375 0.7366549729378717 0.9714684974726587
3 434 613 614 0.38822465214338375 0.7366549729378717 0.9714684974726587
3 614 544 434 0.38822465214338375 0.7366549729378717 0.9714684974726587
3 544 543 434 0.38822465214338375 0.7366549729378717 0.9714684974726587
3 128 185 127 0.38822465214338375 0.7366549729378717 0.9714684974726587
3 186 185 128 0.38822465214338375 0.7366549729378717 0.9714684974726587
3 127 523 128 0.38822465214338375 0.7366549729378717 0.9714684974726587
3 129 186 128 0.38822465214338375 0.7366549729378717 0.9714684974726587
3 126 183 125 0.38822465214338375 0.7366549729378717 0.9714684974726587
3 126 184 183 0.38822465214338375 0.7366549729378717 0.9714684974726587
3 125 521 126 0.38822465214338375 0.7366549729378717 0.9714684974726587
3 127 184 126 0.38822465214338375 0.7366549729378717 0.9714684974726587
3 521 522 126 0.38822465214338375 0.7366549729378717 0.9714684974726587
3 126 522 127 0.38822465214338375 0.7366549729378717 0.9714684974726587
3 524 523 132 0.38822465214338375 0.7366549729378717 0.9714684974726587
3 525 129 524 0.38822465214338375 0.7366549729378717 0.9714684974726587
3 129 128 524 0.38822465214338375 0.7366549729378717 0.9714684974726587
3 524 128 523 0.38822465214338375 0.7366549729378717 0.9714684974726587
3 524 133 525 0.38822465214338375 0.7366549729378717 0.9714684974726587
3 524 132 133 0.38822465214338375 0.7366549729378717 0.9714684974726587
