OFF
322 571 0


32.6585 34.313 10.663
32.6585 34.313 10.663
32.6346 34.2027 10.5611
32.6143 34.1088 10.4749
32.5964 34.0264 10.3996
32.5803 33.9523 10.3323
32.5655 33.8842 10.2706
32.5516 33.8203 10.213
32.5383 33.7591 10.1581
32.5252 33.6994 10.1048
32.5123 33.6402 10.0522
32.4992 33.5803 9.9992
32.4856 33.5187 9.945
32.4714 33.454 9.8885
32.4562 33.3849 9.8284
32.4395 33.3094 9.7632
32.4208 33.2248 9.6908
32.3993 33.1276 9.6084
32.3736 33.0121 9.5116
32.3736 33.0121 9.5116
32.2985 32.938 9.4194
32.2432 32.8847 9.353
32.1655 32.8117 9.262
32.0907 32.9123 9.2939
32.0309 32.9897 9.318
31.9779 33.0562 9.3382
31.9264 33.1191 9.3571
31.8713 33.1843 9.3762
31.8066 33.2586 9.3975
31.7215 33.3524 9.4237
31.7215 33.3524 9.4237
31.7925 33.4528 9.5328
31.8526 33.5318 9.6218
31.9052 33.5972 9.6978
31.9527 33.6536 9.7648
31.9967 33.7036 9.8257
32.0381 33.7492 9.8822
32.078 33.7918 9.9359
32.1171 33.8322 9.9878
32.156 33.8715 10.0389
32.1955 33.9104 10.0902
32.2362 33.9495 10.1426
32.2789 33.9895 10.197
32.3246 34.0313 10.2547
32.3744 34.0759 10.317
32.4299 34.1244 10.3857
32.4933 34.1783 10.4635
32.5678 34.2401 10.5541
32.6585 34.313 10.663
32.5227 33.801 10.1821
32.4945 33.7821 10.1519
32.4668 33.7635 10.1224
32.5 33.6935 10.0864
32.4751 33.6877 10.0684
32.4506 33.6819 10.0505
32.4773 33.5869 9.9923
32.4557 33.5934 9.9855
32.4342 33.5998 9.9787
32.099 33.7771 9.9355
32.1199 33.7623 9.9352
32.1409 33.7476 9.9348
32.1696 33.8482 10.028
32.1832 33.8249 10.0171
32.1966 33.8019 10.0063
32.2418 33.917 10.1202
32.2473 33.8851 10.0982
32.2527 33.8536 10.0765
32.3207 33.9887 10.2189
32.3169 33.947 10.1841
32.3132 33.9064 10.1502
32.5607 33.9819 10.3447
32.5262 33.9392 10.2921
32.4931 33.898 10.2415
32.461 33.8582 10.1928
32.5346 33.8574 10.2326
32.5045 33.8313 10.1957
32.4751 33.8059 10.1598
32.4465 33.7811 10.1249
32.453 33.4732 9.8929
32.4346 33.4923 9.8973
32.4162 33.5114 9.9018
32.3978 33.5303 9.9062
32.0076 33.1117 9.3928
32.0372 33.1672 9.4478
32.0669 33.2231 9.5034
32.0968 33.2795 9.56
31.9103 33.2272 9.4267
31.9494 33.2704 9.4778
31.9889 33.3139 9.5297
32.0289 33.358 9.5826
32.0249 33.6979 9.836
32.0533 33.6921 9.8463
32.0819 33.6863 9.8568
32.1106 33.6804 9.8673
32.4138 34.069 10.333
32.3982 34.0156 10.2822
32.3831 33.9641 10.2334
32.3685 33.9143 10.1863
32.5923 34.1341 10.4828
32.5522 34.0692 10.409
32.5141 34.0076 10.3393
32.4778 33.9489 10.2731
32.4431 33.8929 10.2101
32.4247 33.3425 9.7799
32.4099 33.3757 9.7965
32.395 33.4089 9.8132
32.38 33.4421 9.83
32.3649 33.4753 9.8469
32.2486 32.9592 9.4083
32.2538 33.0331 9.4636
32.2587 33.1067 9.519
32.2634 33.1805 9.5748
32.2679 33.2546 9.6312
32.056 33.052 9.3749
32.0809 33.1143 9.4321
32.1058 33.1767 9.4898
32.1307 33.2396 9.5484
32.1558 33.3032 9.608
31.9414 33.6018 9.7197
31.9779 33.6064 9.742
32.0149 33.6109 9.7645
32.0522 33.6155 9.7874
32.09 33.6201 9.8106
32.5339 34.1671 10.4769
32.5017 34.098 10.4042
32.4711 34.0324 10.3354
32.4419 33.9699 10.27
32.4138 33.9102 10.2077
32.4888 33.6406 10.0396
32.4655 33.6409 10.0272
32.4425 33.6413 10.0149
32.4197 33.6416 10.0028
32.3972 33.6419 9.9908
32.3749 33.6422 9.979
32.3889 33.1783 9.6397
32.3784 33.2289 9.6711
32.3677 33.2796 9.7027
32.3569 33.3304 9.7344
32.346 33.3814 9.7665
32.3348 33.4328 9.7988
32.2984 33.0072 9.4684
32.2981 33.076 9.5175
32.2976 33.1447 9.5668
32.2968 33.2135 9.6165
32.2959 33.2826 9.6666
32.2948 33.3524 9.7176
32.1106 32.9829 9.3538
32.1302 33.0532 9.4137
32.1496 33.1234 9.4741
32.1689 33.1939 9.535
32.1882 33.265 9.5969
32.2075 33.3371 9.6601
31.7741 33.3798 9.4698
31.827 33.4074 9.5165
31.8805 33.4351 9.5639
31.9348 33.4632 9.6123
31.9899 33.4916 9.6617
32.0463 33.5205 9.7125
31.8933 33.5425 9.6505
31.9345 33.5533 9.6796
31.9761 33.5641 9.7091
32.0184 33.575 9.7391
32.0612 33.586 9.7697
32.1048 33.5972 9.8009
32.1344 33.8132 9.9822
32.1517 33.7942 9.9766
32.1689 33.7753 9.971
32.186 33.7564 9.9655
32.2031 33.7375 9.96
32.2201 33.7186 9.9545
32.28 33.9522 10.1683
32.2811 33.9156 10.1401
32.2821 33.8796 10.1126
32.2831 33.8443 10.0855
32.284 33.8095 10.059
32.2849 33.7753 10.0329
32.5755 34.0533 10.4094
32.5385 34.0004 10.3471
32.503 33.9498 10.2877
32.469 33.9012 10.2309
32.4363 33.8545 10.1765
32.4047 33.8095 10.1242
32.3741 33.766 10.0738
32.5113 33.7467 10.1336
32.4847 33.7345 10.1097
32.4587 33.7224 10.0862
32.4331 33.7106 10.0631
32.4079 33.699 10.0404
32.3831 33.6875 10.0182
32.3588 33.6762 9.9963
32.4395 33.4108 9.8388
32.4228 33.4367 9.8491
32.4061 33.4625 9.8595
32.3894 33.4883 9.8699
32.3726 33.5141 9.8803
32.3557 33.5399 9.8907
32.3388 33.5656 9.9012
31.8513 33.2945 9.446
31.8963 33.3307 9.495
31.9418 33.3672 9.5449
31.9879 33.4042 9.5957
32.0348 33.4417 9.6477
32.0827 33.48 9.701
32.1317 33.519 9.756
32.0627 33.7389 9.8871
32.0873 33.7286 9.8921
32.1121 33.7181 9.897
32.1368 33.7077 9.902
32.1617 33.6971 9.9071
32.1867 33.6865 9.9121
32.2118 33.6758 9.9172
32.4693 34.115 10.3999
32.4462 34.0545 10.3392
32.4241 33.9965 10.2812
32.4028 33.9407 10.2257
32.3822 33.8871 10.1724
32.3622 33.8352 10.1212
32.3429 33.7851 10.0717
32.5471 33.9173 10.2864
32.515 33.8833 10.2421
32.4838 33.8504 10.1992
32.4536 33.8184 10.1578
32.4242 33.7874 10.1176
32.3955 33.7571 10.0786
32.3676 33.7276 10.0407
32.3404 33.6989 10.0038
32.4081 33.2661 9.7144
32.3953 33.3074 9.7379
32.3824 33.3487 9.7616
32.3693 33.3901 9.7855
32.3562 33.4317 9.8095
32.3429 33.4734 9.8336
32.3294 33.5154 9.858
32.3157 33.5576 9.8827
32.1788 32.8938 9.3261
32.1917 32.9749 9.3899
32.2042 33.0555 9.4537
32.2164 33.136 9.5179
32.2285 33.2168 9.5829
32.2404 33.2985 9.6489
32.2522 33.3814 9.7165
32.2639 33.4661 9.786
31.8385 33.4709 9.5693
31.885 33.489 9.6063
31.9321 33.5073 9.6439
31.9798 33.5258 9.6822
32.0284 33.5445 9.7213
32.0779 33.5635 9.7614
32.1284 33.5828 9.8024
32.1801 33.6025 9.8446
32.2052 33.8826 10.0737
32.2149 33.8551 10.0574
32.2244 33.8278 10.0413
32.2337 33.8008 10.0253
32.243 33.774 10.0095
32.2521 33.7475 9.9939
32.2612 33.7211 9.9784
32.2701 33.695 9.9631
32.6117 34.2278 10.5685
32.5679 34.1482 10.4806
32.5266 34.0734 10.3983
32.4876 34.0029 10.321
32.4506 33.936 10.2481
32.4154 33.8724 10.179
32.3816 33.8116 10.1133
32.3492 33.7533 10.0506
32.4655 33.5315 9.9437
32.4454 33.5442 9.9425
32.4254 33.5568 9.9412
32.4055 33.5693 9.94
32.3857 33.5818 9.9387
32.366 33.5942 9.9375
32.3463 33.6066 9.9363
32.3267 33.6188 9.9352
32.3072 33.631 9.934
32.366 33.0743 9.5522
32.3582 33.1362 9.5928
32.3502 33.198 9.6335
32.3421 33.2599 9.6745
32.3337 33.3221 9.7159
32.3251 33.3847 9.7578
32.3163 33.448 9.8003
32.3071 33.512 9.8435
32.2976 33.577 9.8877
31.9605 33.1683 9.4095
31.9947 33.2177 9.4626
32.0291 33.2675 9.5163
32.0639 33.3178 9.5711
32.0991 33.3689 9.6269
32.135 33.4209 9.6842
32.1716 33.4741 9.7431
32.2091 33.5287 9.804
32.2478 33.5849 9.8671
31.9848 33.6528 9.7807
32.0172 33.6519 9.7968
32.0498 33.651 9.8131
32.0827 33.65 9.8295
32.1159 33.649 9.8462
32.1495 33.648 9.863
32.1834 33.6469 9.8801
32.2177 33.6457 9.8974
32.2525 33.6445 9.915
32.3649 34.0273 10.2733
32.3556 33.9801 10.2311
32.3466 33.9343 10.1902
32.3377 33.8897 10.1504
32.329 33.8463 10.1118
32.3205 33.8039 10.0742
32.3121 33.7624 10.0376
32.3039 33.7219 10.0019
32.2957 33.6821 9.967
32.6117 34.2278 10.5685
32.5679 34.1482 10.4806
32.5266 34.0734 10.3983
32.4876 34.0029 10.321
32.4506 33.936 10.2481
32.4154 33.8724 10.179
32.3816 33.8116 10.1133
32.3492 33.7533 10.0506
32.3179 33.6973 9.9905
32.2877 33.6432 9.9328
32.2877 33.6432 9.9328
3 197 152 29 0.26877616341685273 0.41288885645038476 0.7940670868378367
3 18 141 140 0.26877616341685273 0.41288885645038476 0.7940670868378367
3 109 140 141 0.26877616341685273 0.41288885645038476 0.7940670868378367
3 117 151 288 0.26877616341685273 0.41288885645038476 0.7940670868378367
3 287 117 288 0.26877616341685273 0.41288885645038476 0.7940670868378367
3 234 21 235 0.26877616341685273 0.41288885645038476 0.7940670868378367
3 235 146 234 0.26877616341685273 0.41288885645038476 0.7940670868378367
3 234 146 23 0.26877616341685273 0.41288885645038476 0.7940670868378367
3 22 21 234 0.26877616341685273 0.41288885645038476 0.7940670868378367
3 234 23 22 0.26877616341685273 0.41288885645038476 0.7940670868378367
3 147 146 235 0.26877616341685273 0.41288885645038476 0.7940670868378367
3 147 148 114 0.26877616341685273 0.41288885645038476 0.7940670868378367
3 23 146 24 0.26877616341685273 0.41288885645038476 0.7940670868378367
3 0 258 2 0.26877616341685273 0.41288885645038476 0.7940670868378367
3 70 5 4 0.26877616341685273 0.41288885645038476 0.7940670868378367
3 235 21 108 0.26877616341685273 0.41288885645038476 0.7940670868378367
3 108 109 235 0.26877616341685273 0.41288885645038476 0.7940670868378367
3 140 109 108 0.26877616341685273 0.41288885645038476 0.7940670868378367
3 275 141 18 0.26877616341685273 0.41288885645038476 0.7940670868378367
3 18 17 275 0.26877616341685273 0.41288885645038476 0.7940670868378367
3 17 276 275 0.26877616341685273 0.41288885645038476 0.7940670868378367
3 114 148 115 0.26877616341685273 0.41288885645038476 0.7940670868378367
3 83 82 114 0.26877616341685273 0.41288885645038476 0.7940670868378367
3 114 115 83 0.26877616341685273 0.41288885645038476 0.7940670868378367
3 78 12 79 0.26877616341685273 0.41288885645038476 0.7940670868378367
3 226 16 15 0.26877616341685273 0.41288885645038476 0.7940670868378367
3 226 135 16 0.26877616341685273 0.41288885645038476 0.7940670868378367
3 150 117 116 0.26877616341685273 0.41288885645038476 0.7940670868378367
3 29 152 31 0.26877616341685273 0.41288885645038476 0.7940670868378367
3 84 115 116 0.26877616341685273 0.41288885645038476 0.7940670868378367
3 285 83 84 0.26877616341685273 0.41288885645038476 0.7940670868378367
3 84 83 115 0.26877616341685273 0.41288885645038476 0.7940670868378367
3 198 197 87 0.26877616341685273 0.41288885645038476 0.7940670868378367
3 152 197 198 0.26877616341685273 0.41288885645038476 0.7940670868378367
3 200 199 89 0.26877616341685273 0.41288885645038476 0.7940670868378367
3 89 287 288 0.26877616341685273 0.41288885645038476 0.7940670868378367
3 25 82 26 0.26877616341685273 0.41288885645038476 0.7940670868378367
3 28 197 29 0.26877616341685273 0.41288885645038476 0.7940670868378367
3 148 147 236 0.26877616341685273 0.41288885645038476 0.7940670868378367
3 236 237 148 0.26877616341685273 0.41288885645038476 0.7940670868378367
3 235 109 236 0.26877616341685273 0.41288885645038476 0.7940670868378367
3 236 147 235 0.26877616341685273 0.41288885645038476 0.7940670868378367
3 146 147 113 0.26877616341685273 0.41288885645038476 0.7940670868378367
3 113 24 146 0.26877616341685273 0.41288885645038476 0.7940670868378367
3 114 82 113 0.26877616341685273 0.41288885645038476 0.7940670868378367
3 113 147 114 0.26877616341685273 0.41288885645038476 0.7940670868378367
3 113 82 25 0.26877616341685273 0.41288885645038476 0.7940670868378367
3 25 24 113 0.26877616341685273 0.41288885645038476 0.7940670868378367
3 164 38 37 0.26877616341685273 0.41288885645038476 0.7940670868378367
3 58 164 37 0.26877616341685273 0.41288885645038476 0.7940670868378367
3 168 60 208 0.26877616341685273 0.41288885645038476 0.7940670868378367
3 4 3 176 0.26877616341685273 0.41288885645038476 0.7940670868378367
3 3 99 176 0.26877616341685273 0.41288885645038476 0.7940670868378367
3 47 2 258 0.26877616341685273 0.41288885645038476 0.7940670868378367
3 47 258 0 0.26877616341685273 0.41288885645038476 0.7940670868378367
3 2 47 312 0.26877616341685273 0.41288885645038476 0.7940670868378367
3 312 47 123 0.26877616341685273 0.41288885645038476 0.7940670868378367
3 99 312 124 0.26877616341685273 0.41288885645038476 0.7940670868378367
3 124 312 123 0.26877616341685273 0.41288885645038476 0.7940670868378367
3 224 225 188 0.26877616341685273 0.41288885645038476 0.7940670868378367
3 66 174 173 0.26877616341685273 0.41288885645038476 0.7940670868378367
3 253 175 174 0.26877616341685273 0.41288885645038476 0.7940670868378367
3 134 276 17 0.26877616341685273 0.41288885645038476 0.7940670868378367
3 17 16 134 0.26877616341685273 0.41288885645038476 0.7940670868378367
3 16 135 134 0.26877616341685273 0.41288885645038476 0.7940670868378367
3 20 108 21 0.26877616341685273 0.41288885645038476 0.7940670868378367
3 18 140 20 0.26877616341685273 0.41288885645038476 0.7940670868378367
3 140 108 20 0.26877616341685273 0.41288885645038476 0.7940670868378367
3 141 275 142 0.26877616341685273 0.41288885645038476 0.7940670868378367
3 142 275 276 0.26877616341685273 0.41288885645038476 0.7940670868378367
3 301 283 320 0.26877616341685273 0.41288885645038476 0.7940670868378367
3 301 292 283 0.26877616341685273 0.41288885645038476 0.7940670868378367
3 192 78 79 0.26877616341685273 0.41288885645038476 0.7940670868378367
3 201 89 288 0.26877616341685273 0.41288885645038476 0.7940670868378367
3 200 89 201 0.26877616341685273 0.41288885645038476 0.7940670868378367
3 57 130 131 0.26877616341685273 0.41288885645038476 0.7940670868378367
3 57 270 269 0.26877616341685273 0.41288885645038476 0.7940670868378367
3 12 78 13 0.26877616341685273 0.41288885645038476 0.7940670868378367
3 151 145 240 0.26877616341685273 0.41288885645038476 0.7940670868378367
3 32 31 242 0.26877616341685273 0.41288885645038476 0.7940670868378367
3 200 201 155 0.26877616341685273 0.41288885645038476 0.7940670868378367
3 85 84 116 0.26877616341685273 0.41288885645038476 0.7940670868378367
3 116 117 85 0.26877616341685273 0.41288885645038476 0.7940670868378367
3 117 287 85 0.26877616341685273 0.41288885645038476 0.7940670868378367
3 242 31 153 0.26877616341685273 0.41288885645038476 0.7940670868378367
3 153 198 199 0.26877616341685273 0.41288885645038476 0.7940670868378367
3 153 31 152 0.26877616341685273 0.41288885645038476 0.7940670868378367
3 152 198 153 0.26877616341685273 0.41288885645038476 0.7940670868378367
3 88 89 199 0.26877616341685273 0.41288885645038476 0.7940670868378367
3 88 198 87 0.26877616341685273 0.41288885645038476 0.7940670868378367
3 199 198 88 0.26877616341685273 0.41288885645038476 0.7940670868378367
3 287 89 88 0.26877616341685273 0.41288885645038476 0.7940670868378367
3 284 26 82 0.26877616341685273 0.41288885645038476 0.7940670868378367
3 82 83 284 0.26877616341685273 0.41288885645038476 0.7940670868378367
3 284 83 285 0.26877616341685273 0.41288885645038476 0.7940670868378367
3 27 26 284 0.26877616341685273 0.41288885645038476 0.7940670868378367
3 204 37 36 0.26877616341685273 0.41288885645038476 0.7940670868378367
3 204 58 37 0.26877616341685273 0.41288885645038476 0.7940670868378367
3 205 58 204 0.26877616341685273 0.41288885645038476 0.7940670868378367
3 206 205 92 0.26877616341685273 0.41288885645038476 0.7940670868378367
3 205 204 92 0.26877616341685273 0.41288885645038476 0.7940670868378367
3 248 203 291 0.26877616341685273 0.41288885645038476 0.7940670868378367
3 210 301 257 0.26877616341685273 0.41288885645038476 0.7940670868378367
3 320 310 257 0.26877616341685273 0.41288885645038476 0.7940670868378367
3 257 301 320 0.26877616341685273 0.41288885645038476 0.7940670868378367
3 164 58 165 0.26877616341685273 0.41288885645038476 0.7940670868378367
3 208 60 207 0.26877616341685273 0.41288885645038476 0.7940670868378367
3 207 60 206 0.26877616341685273 0.41288885645038476 0.7940670868378367
3 206 60 59 0.26877616341685273 0.41288885645038476 0.7940670868378367
3 59 205 206 0.26877616341685273 0.41288885645038476 0.7940670868378367
3 59 58 205 0.26877616341685273 0.41288885645038476 0.7940670868378367
3 59 165 58 0.26877616341685273 0.41288885645038476 0.7940670868378367
3 59 60 166 0.26877616341685273 0.41288885645038476 0.7940670868378367
3 166 165 59 0.26877616341685273 0.41288885645038476 0.7940670868378367
3 166 60 167 0.26877616341685273 0.41288885645038476 0.7940670868378367
3 60 168 167 0.26877616341685273 0.41288885645038476 0.7940670868378367
3 123 47 46 0.26877616341685273 0.41288885645038476 0.7940670868378367
3 211 124 46 0.26877616341685273 0.41288885645038476 0.7940670868378367
3 46 124 123 0.26877616341685273 0.41288885645038476 0.7940670868378367
3 98 99 3 0.26877616341685273 0.41288885645038476 0.7940670868378367
3 98 312 99 0.26877616341685273 0.41288885645038476 0.7940670868378367
3 3 2 98 0.26877616341685273 0.41288885645038476 0.7940670868378367
3 2 312 98 0.26877616341685273 0.41288885645038476 0.7940670868378367
3 99 124 313 0.26877616341685273 0.41288885645038476 0.7940670868378367
3 185 186 53 0.26877616341685273 0.41288885645038476 0.7940670868378367
3 174 175 308 0.26877616341685273 0.41288885645038476 0.7940670868378367
3 307 173 174 0.26877616341685273 0.41288885645038476 0.7940670868378367
3 307 308 217 0.26877616341685273 0.41288885645038476 0.7940670868378367
3 174 308 307 0.26877616341685273 0.41288885645038476 0.7940670868378367
3 252 174 66 0.26877616341685273 0.41288885645038476 0.7940670868378367
3 252 253 174 0.26877616341685273 0.41288885645038476 0.7940670868378367
3 276 134 277 0.26877616341685273 0.41288885645038476 0.7940670868378367
3 143 142 277 0.26877616341685273 0.41288885645038476 0.7940670868378367
3 277 142 276 0.26877616341685273 0.41288885645038476 0.7940670868378367
3 277 134 135 0.26877616341685273 0.41288885645038476 0.7940670868378367
3 277 278 143 0.26877616341685273 0.41288885645038476 0.7940670868378367
3 135 278 277 0.26877616341685273 0.41288885645038476 0.7940670868378367
3 141 142 110 0.26877616341685273 0.41288885645038476 0.7940670868378367
3 110 109 141 0.26877616341685273 0.41288885645038476 0.7940670868378367
3 110 236 109 0.26877616341685273 0.41288885645038476 0.7940670868378367
3 237 236 110 0.26877616341685273 0.41288885645038476 0.7940670868378367
3 209 168 208 0.26877616341685273 0.41288885645038476 0.7940670868378367
3 281 139 231 0.26877616341685273 0.41288885645038476 0.7940670868378367
3 231 139 230 0.26877616341685273 0.41288885645038476 0.7940670868378367
3 118 34 33 0.26877616341685273 0.41288885645038476 0.7940670868378367
3 118 119 34 0.26877616341685273 0.41288885645038476 0.7940670868378367
3 203 248 247 0.26877616341685273 0.41288885645038476 0.7940670868378367
3 283 292 282 0.26877616341685273 0.41288885645038476 0.7940670868378367
3 241 281 282 0.26877616341685273 0.41288885645038476 0.7940670868378367
3 282 281 231 0.26877616341685273 0.41288885645038476 0.7940670868378367
3 282 291 241 0.26877616341685273 0.41288885645038476 0.7940670868378367
3 282 292 291 0.26877616341685273 0.41288885645038476 0.7940670868378367
3 270 195 81 0.26877616341685273 0.41288885645038476 0.7940670868378367
3 81 269 270 0.26877616341685273 0.41288885645038476 0.7940670868378367
3 195 194 81 0.26877616341685273 0.41288885645038476 0.7940670868378367
3 283 282 233 0.26877616341685273 0.41288885645038476 0.7940670868378367
3 196 195 270 0.26877616341685273 0.41288885645038476 0.7940670868378367
3 196 233 195 0.26877616341685273 0.41288885645038476 0.7940670868378367
3 283 233 196 0.26877616341685273 0.41288885645038476 0.7940670868378367
3 196 273 283 0.26877616341685273 0.41288885645038476 0.7940670868378367
3 272 273 196 0.26877616341685273 0.41288885645038476 0.7940670868378367
3 271 196 270 0.26877616341685273 0.41288885645038476 0.7940670868378367
3 272 196 271 0.26877616341685273 0.41288885645038476 0.7940670868378367
3 188 225 189 0.26877616341685273 0.41288885645038476 0.7940670868378367
3 189 225 319 0.26877616341685273 0.41288885645038476 0.7940670868378367
3 319 310 189 0.26877616341685273 0.41288885645038476 0.7940670868378367
3 78 192 191 0.26877616341685273 0.41288885645038476 0.7940670868378367
3 191 13 78 0.26877616341685273 0.41288885645038476 0.7940670868378367
3 151 240 289 0.26877616341685273 0.41288885645038476 0.7940670868378367
3 288 151 289 0.26877616341685273 0.41288885645038476 0.7940670868378367
3 289 201 288 0.26877616341685273 0.41288885645038476 0.7940670868378367
3 202 201 289 0.26877616341685273 0.41288885645038476 0.7940670868378367
3 112 238 143 0.26877616341685273 0.41288885645038476 0.7940670868378367
3 150 238 112 0.26877616341685273 0.41288885645038476 0.7940670868378367
3 227 226 15 0.26877616341685273 0.41288885645038476 0.7940670868378367
3 280 240 145 0.26877616341685273 0.41288885645038476 0.7940670868378367
3 139 281 280 0.26877616341685273 0.41288885645038476 0.7940670868378367
3 241 240 280 0.26877616341685273 0.41288885645038476 0.7940670868378367
3 280 281 241 0.26877616341685273 0.41288885645038476 0.7940670868378367
3 111 238 237 0.26877616341685273 0.41288885645038476 0.7940670868378367
3 237 110 111 0.26877616341685273 0.41288885645038476 0.7940670868378367
3 111 110 142 0.26877616341685273 0.41288885645038476 0.7940670868378367
3 111 142 143 0.26877616341685273 0.41288885645038476 0.7940670868378367
3 143 238 111 0.26877616341685273 0.41288885645038476 0.7940670868378367
3 149 150 116 0.26877616341685273 0.41288885645038476 0.7940670868378367
3 149 238 150 0.26877616341685273 0.41288885645038476 0.7940670868378367
3 237 238 149 0.26877616341685273 0.41288885645038476 0.7940670868378367
3 116 115 149 0.26877616341685273 0.41288885645038476 0.7940670868378367
3 149 115 148 0.26877616341685273 0.41288885645038476 0.7940670868378367
3 148 237 149 0.26877616341685273 0.41288885645038476 0.7940670868378367
3 33 32 158 0.26877616341685273 0.41288885645038476 0.7940670868378367
3 154 199 200 0.26877616341685273 0.41288885645038476 0.7940670868378367
3 200 155 154 0.26877616341685273 0.41288885645038476 0.7940670868378367
3 242 153 154 0.26877616341685273 0.41288885645038476 0.7940670868378367
3 154 153 199 0.26877616341685273 0.41288885645038476 0.7940670868378367
3 243 32 242 0.26877616341685273 0.41288885645038476 0.7940670868378367
3 242 154 243 0.26877616341685273 0.41288885645038476 0.7940670868378367
3 243 154 155 0.26877616341685273 0.41288885645038476 0.7940670868378367
3 243 155 244 0.26877616341685273 0.41288885645038476 0.7940670868378367
3 244 158 243 0.26877616341685273 0.41288885645038476 0.7940670868378367
3 243 158 32 0.26877616341685273 0.41288885645038476 0.7940670868378367
3 286 85 287 0.26877616341685273 0.41288885645038476 0.7940670868378367
3 84 85 286 0.26877616341685273 0.41288885645038476 0.7940670868378367
3 287 88 286 0.26877616341685273 0.41288885645038476 0.7940670868378367
3 285 84 286 0.26877616341685273 0.41288885645038476 0.7940670868378367
3 87 285 286 0.26877616341685273 0.41288885645038476 0.7940670868378367
3 286 88 87 0.26877616341685273 0.41288885645038476 0.7940670868378367
3 27 284 86 0.26877616341685273 0.41288885645038476 0.7940670868378367
3 87 197 86 0.26877616341685273 0.41288885645038476 0.7940670868378367
3 86 285 87 0.26877616341685273 0.41288885645038476 0.7940670868378367
3 86 284 285 0.26877616341685273 0.41288885645038476 0.7940670868378367
3 197 28 86 0.26877616341685273 0.41288885645038476 0.7940670868378367
3 86 28 27 0.26877616341685273 0.41288885645038476 0.7940670868378367
3 297 92 296 0.26877616341685273 0.41288885645038476 0.7940670868378367
3 93 92 297 0.26877616341685273 0.41288885645038476 0.7940670868378367
3 208 207 93 0.26877616341685273 0.41288885645038476 0.7940670868378367
3 206 92 93 0.26877616341685273 0.41288885645038476 0.7940670868378367
3 93 207 206 0.26877616341685273 0.41288885645038476 0.7940670868378367
3 255 175 254 0.26877616341685273 0.41288885645038476 0.7940670868378367
3 175 253 254 0.26877616341685273 0.41288885645038476 0.7940670868378367
3 254 168 255 0.26877616341685273 0.41288885645038476 0.7940670868378367
3 254 167 168 0.26877616341685273 0.41288885645038476 0.7940670868378367
3 187 224 188 0.26877616341685273 0.41288885645038476 0.7940670868378367
3 188 131 187 0.26877616341685273 0.41288885645038476 0.7940670868378367
3 187 131 130 0.26877616341685273 0.41288885645038476 0.7940670868378367
3 10 9 52 0.26877616341685273 0.41288885645038476 0.7940670868378367
3 52 53 10 0.26877616341685273 0.41288885645038476 0.7940670868378367
3 9 184 52 0.26877616341685273 0.41288885645038476 0.7940670868378367
3 52 184 185 0.26877616341685273 0.41288885645038476 0.7940670868378367
3 185 53 52 0.26877616341685273 0.41288885645038476 0.7940670868378367
3 10 53 128 0.26877616341685273 0.41288885645038476 0.7940670868378367
3 128 11 10 0.26877616341685273 0.41288885645038476 0.7940670868378367
3 128 55 11 0.26877616341685273 0.41288885645038476 0.7940670868378367
3 74 7 6 0.26877616341685273 0.41288885645038476 0.7940670868378367
3 6 219 74 0.26877616341685273 0.41288885645038476 0.7940670868378367
3 173 307 306 0.26877616341685273 0.41288885645038476 0.7940670868378367
3 65 250 66 0.26877616341685273 0.41288885645038476 0.7940670868378367
3 225 224 309 0.26877616341685273 0.41288885645038476 0.7940670868378367
3 319 225 309 0.26877616341685273 0.41288885645038476 0.7940670868378367
3 256 257 309 0.26877616341685273 0.41288885645038476 0.7940670868378367
3 255 256 309 0.26877616341685273 0.41288885645038476 0.7940670868378367
3 309 310 319 0.26877616341685273 0.41288885645038476 0.7940670868378367
3 309 257 310 0.26877616341685273 0.41288885645038476 0.7940670868378367
3 309 175 255 0.26877616341685273 0.41288885645038476 0.7940670868378367
3 309 308 175 0.26877616341685273 0.41288885645038476 0.7940670868378367
3 66 250 251 0.26877616341685273 0.41288885645038476 0.7940670868378367
3 251 252 66 0.26877616341685273 0.41288885645038476 0.7940670868378367
3 251 250 39 0.26877616341685273 0.41288885645038476 0.7940670868378367
3 252 251 62 0.26877616341685273 0.41288885645038476 0.7940670868378367
3 164 165 62 0.26877616341685273 0.41288885645038476 0.7940670868378367
3 168 209 169 0.26877616341685273 0.41288885645038476 0.7940670868378367
3 169 209 210 0.26877616341685273 0.41288885645038476 0.7940670868378367
3 210 257 169 0.26877616341685273 0.41288885645038476 0.7940670868378367
3 169 257 256 0.26877616341685273 0.41288885645038476 0.7940670868378367
3 169 256 255 0.26877616341685273 0.41288885645038476 0.7940670868378367
3 255 168 169 0.26877616341685273 0.41288885645038476 0.7940670868378367
3 210 209 299 0.26877616341685273 0.41288885645038476 0.7940670868378367
3 299 209 208 0.26877616341685273 0.41288885645038476 0.7940670868378367
3 231 230 106 0.26877616341685273 0.41288885645038476 0.7940670868378367
3 106 230 105 0.26877616341685273 0.41288885645038476 0.7940670868378367
3 105 191 106 0.26877616341685273 0.41288885645038476 0.7940670868378367
3 106 191 192 0.26877616341685273 0.41288885645038476 0.7940670868378367
3 35 294 90 0.26877616341685273 0.41288885645038476 0.7940670868378367
3 35 90 36 0.26877616341685273 0.41288885645038476 0.7940670868378367
3 34 119 293 0.26877616341685273 0.41288885645038476 0.7940670868378367
3 293 35 34 0.26877616341685273 0.41288885645038476 0.7940670868378367
3 294 35 293 0.26877616341685273 0.41288885645038476 0.7940670868378367
3 156 201 202 0.26877616341685273 0.41288885645038476 0.7940670868378367
3 156 245 244 0.26877616341685273 0.41288885645038476 0.7940670868378367
3 244 155 156 0.26877616341685273 0.41288885645038476 0.7940670868378367
3 156 155 201 0.26877616341685273 0.41288885645038476 0.7940670868378367
3 159 118 33 0.26877616341685273 0.41288885645038476 0.7940670868378367
3 33 158 159 0.26877616341685273 0.41288885645038476 0.7940670868378367
3 244 245 159 0.26877616341685273 0.41288885645038476 0.7940670868378367
3 159 158 244 0.26877616341685273 0.41288885645038476 0.7940670868378367
3 231 106 107 0.26877616341685273 0.41288885645038476 0.7940670868378367
3 107 106 192 0.26877616341685273 0.41288885645038476 0.7940670868378367
3 232 194 195 0.26877616341685273 0.41288885645038476 0.7940670868378367
3 195 233 232 0.26877616341685273 0.41288885645038476 0.7940670868378367
3 232 233 282 0.26877616341685273 0.41288885645038476 0.7940670868378367
3 232 107 194 0.26877616341685273 0.41288885645038476 0.7940670868378367
3 232 282 231 0.26877616341685273 0.41288885645038476 0.7940670868378367
3 231 107 232 0.26877616341685273 0.41288885645038476 0.7940670868378367
3 80 81 194 0.26877616341685273 0.41288885645038476 0.7940670868378367
3 57 269 268 0.26877616341685273 0.41288885645038476 0.7940670868378367
3 269 81 268 0.26877616341685273 0.41288885645038476 0.7940670868378367
3 81 80 268 0.26877616341685273 0.41288885645038476 0.7940670868378367
3 268 80 267 0.26877616341685273 0.41288885645038476 0.7940670868378367
3 56 267 55 0.26877616341685273 0.41288885645038476 0.7940670868378367
3 56 130 57 0.26877616341685273 0.41288885645038476 0.7940670868378367
3 57 268 56 0.26877616341685273 0.41288885645038476 0.7940670868378367
3 56 268 267 0.26877616341685273 0.41288885645038476 0.7940670868378367
3 55 267 266 0.26877616341685273 0.41288885645038476 0.7940670868378367
3 12 11 266 0.26877616341685273 0.41288885645038476 0.7940670868378367
3 11 55 266 0.26877616341685273 0.41288885645038476 0.7940670868378367
3 79 12 266 0.26877616341685273 0.41288885645038476 0.7940670868378367
3 266 80 79 0.26877616341685273 0.41288885645038476 0.7940670868378367
3 267 80 266 0.26877616341685273 0.41288885645038476 0.7940670868378367
3 320 283 274 0.26877616341685273 0.41288885645038476 0.7940670868378367
3 283 273 274 0.26877616341685273 0.41288885645038476 0.7940670868378367
3 274 310 320 0.26877616341685273 0.41288885645038476 0.7940670868378367
3 274 189 310 0.26877616341685273 0.41288885645038476 0.7940670868378367
3 57 131 132 0.26877616341685273 0.41288885645038476 0.7940670868378367
3 132 131 188 0.26877616341685273 0.41288885645038476 0.7940670868378367
3 188 189 132 0.26877616341685273 0.41288885645038476 0.7940670868378367
3 132 270 57 0.26877616341685273 0.41288885645038476 0.7940670868378367
3 133 273 272 0.26877616341685273 0.41288885645038476 0.7940670868378367
3 133 132 189 0.26877616341685273 0.41288885645038476 0.7940670868378367
3 133 274 273 0.26877616341685273 0.41288885645038476 0.7940670868378367
3 189 274 133 0.26877616341685273 0.41288885645038476 0.7940670868378367
3 272 271 133 0.26877616341685273 0.41288885645038476 0.7940670868378367
3 133 271 270 0.26877616341685273 0.41288885645038476 0.7940670868378367
3 270 132 133 0.26877616341685273 0.41288885645038476 0.7940670868378367
3 190 14 13 0.26877616341685273 0.41288885645038476 0.7940670868378367
3 13 191 190 0.26877616341685273 0.41288885645038476 0.7940670868378367
3 190 191 105 0.26877616341685273 0.41288885645038476 0.7940670868378367
3 105 104 190 0.26877616341685273 0.41288885645038476 0.7940670868378367
3 190 104 14 0.26877616341685273 0.41288885645038476 0.7940670868378367
3 290 203 202 0.26877616341685273 0.41288885645038476 0.7940670868378367
3 202 289 290 0.26877616341685273 0.41288885645038476 0.7940670868378367
3 241 291 290 0.26877616341685273 0.41288885645038476 0.7940670868378367
3 291 203 290 0.26877616341685273 0.41288885645038476 0.7940670868378367
3 290 240 241 0.26877616341685273 0.41288885645038476 0.7940670868378367
3 290 289 240 0.26877616341685273 0.41288885645038476 0.7940670868378367
3 143 278 144 0.26877616341685273 0.41288885645038476 0.7940670868378367
3 144 112 143 0.26877616341685273 0.41288885645038476 0.7940670868378367
3 226 227 136 0.26877616341685273 0.41288885645038476 0.7940670868378367
3 135 226 136 0.26877616341685273 0.41288885645038476 0.7940670868378367
3 136 278 135 0.26877616341685273 0.41288885645038476 0.7940670868378367
3 137 227 228 0.26877616341685273 0.41288885645038476 0.7940670868378367
3 137 280 145 0.26877616341685273 0.41288885645038476 0.7940670868378367
3 137 136 227 0.26877616341685273 0.41288885645038476 0.7940670868378367
3 229 104 105 0.26877616341685273 0.41288885645038476 0.7940670868378367
3 228 104 229 0.26877616341685273 0.41288885645038476 0.7940670868378367
3 105 230 229 0.26877616341685273 0.41288885645038476 0.7940670868378367
3 229 230 139 0.26877616341685273 0.41288885645038476 0.7940670868378367
3 297 296 122 0.26877616341685273 0.41288885645038476 0.7940670868378367
3 90 294 295 0.26877616341685273 0.41288885645038476 0.7940670868378367
3 295 294 121 0.26877616341685273 0.41288885645038476 0.7940670868378367
3 121 122 295 0.26877616341685273 0.41288885645038476 0.7940670868378367
3 295 122 296 0.26877616341685273 0.41288885645038476 0.7940670868378367
3 54 128 53 0.26877616341685273 0.41288885645038476 0.7940670868378367
3 54 53 186 0.26877616341685273 0.41288885645038476 0.7940670868378367
3 54 187 130 0.26877616341685273 0.41288885645038476 0.7940670868378367
3 186 187 54 0.26877616341685273 0.41288885645038476 0.7940670868378367
3 8 50 183 0.26877616341685273 0.41288885645038476 0.7940670868378367
3 183 9 8 0.26877616341685273 0.41288885645038476 0.7940670868378367
3 183 184 9 0.26877616341685273 0.41288885645038476 0.7940670868378367
3 185 184 51 0.26877616341685273 0.41288885645038476 0.7940670868378367
3 184 183 51 0.26877616341685273 0.41288885645038476 0.7940670868378367
3 51 183 50 0.26877616341685273 0.41288885645038476 0.7940670868378367
3 224 187 223 0.26877616341685273 0.41288885645038476 0.7940670868378367
3 223 187 186 0.26877616341685273 0.41288885645038476 0.7940670868378367
3 223 186 185 0.26877616341685273 0.41288885645038476 0.7940670868378367
3 185 222 223 0.26877616341685273 0.41288885645038476 0.7940670868378367
3 76 50 49 0.26877616341685273 0.41288885645038476 0.7940670868378367
3 8 7 49 0.26877616341685273 0.41288885645038476 0.7940670868378367
3 49 50 8 0.26877616341685273 0.41288885645038476 0.7940670868378367
3 220 74 219 0.26877616341685273 0.41288885645038476 0.7940670868378367
3 219 72 220 0.26877616341685273 0.41288885645038476 0.7940670868378367
3 220 221 76 0.26877616341685273 0.41288885645038476 0.7940670868378367
3 6 5 218 0.26877616341685273 0.41288885645038476 0.7940670868378367
3 218 219 6 0.26877616341685273 0.41288885645038476 0.7940670868378367
3 218 72 219 0.26877616341685273 0.41288885645038476 0.7940670868378367
3 177 70 4 0.26877616341685273 0.41288885645038476 0.7940670868378367
3 4 176 177 0.26877616341685273 0.41288885645038476 0.7940670868378367
3 177 176 99 0.26877616341685273 0.41288885645038476 0.7940670868378367
3 99 313 177 0.26877616341685273 0.41288885645038476 0.7940670868378367
3 125 313 124 0.26877616341685273 0.41288885645038476 0.7940670868378367
3 317 223 222 0.26877616341685273 0.41288885645038476 0.7940670868378367
3 250 65 40 0.26877616341685273 0.41288885645038476 0.7940670868378367
3 39 250 40 0.26877616341685273 0.41288885645038476 0.7940670868378367
3 173 306 172 0.26877616341685273 0.41288885645038476 0.7940670868378367
3 66 173 172 0.26877616341685273 0.41288885645038476 0.7940670868378367
3 172 65 66 0.26877616341685273 0.41288885645038476 0.7940670868378367
3 265 309 224 0.26877616341685273 0.41288885645038476 0.7940670868378367
3 308 309 265 0.26877616341685273 0.41288885645038476 0.7940670868378367
3 217 308 265 0.26877616341685273 0.41288885645038476 0.7940670868378367
3 61 251 39 0.26877616341685273 0.41288885645038476 0.7940670868378367
3 61 62 251 0.26877616341685273 0.41288885645038476 0.7940670868378367
3 39 38 61 0.26877616341685273 0.41288885645038476 0.7940670868378367
3 38 164 61 0.26877616341685273 0.41288885645038476 0.7940670868378367
3 164 62 61 0.26877616341685273 0.41288885645038476 0.7940670868378367
3 253 252 63 0.26877616341685273 0.41288885645038476 0.7940670868378367
3 252 62 63 0.26877616341685273 0.41288885645038476 0.7940670868378367
3 63 254 253 0.26877616341685273 0.41288885645038476 0.7940670868378367
3 63 165 166 0.26877616341685273 0.41288885645038476 0.7940670868378367
3 63 62 165 0.26877616341685273 0.41288885645038476 0.7940670868378367
3 166 167 63 0.26877616341685273 0.41288885645038476 0.7940670868378367
3 167 254 63 0.26877616341685273 0.41288885645038476 0.7940670868378367
3 300 301 210 0.26877616341685273 0.41288885645038476 0.7940670868378367
3 210 299 300 0.26877616341685273 0.41288885645038476 0.7940670868378367
3 292 301 300 0.26877616341685273 0.41288885645038476 0.7940670868378367
3 291 292 249 0.26877616341685273 0.41288885645038476 0.7940670868378367
3 249 248 291 0.26877616341685273 0.41288885645038476 0.7940670868378367
3 292 300 249 0.26877616341685273 0.41288885645038476 0.7940670868378367
3 249 300 299 0.26877616341685273 0.41288885645038476 0.7940670868378367
3 297 248 249 0.26877616341685273 0.41288885645038476 0.7940670868378367
3 208 93 298 0.26877616341685273 0.41288885645038476 0.7940670868378367
3 298 299 208 0.26877616341685273 0.41288885645038476 0.7940670868378367
3 298 93 297 0.26877616341685273 0.41288885645038476 0.7940670868378367
3 297 249 298 0.26877616341685273 0.41288885645038476 0.7940670868378367
3 298 249 299 0.26877616341685273 0.41288885645038476 0.7940670868378367
3 120 293 119 0.26877616341685273 0.41288885645038476 0.7940670868378367
3 294 293 120 0.26877616341685273 0.41288885645038476 0.7940670868378367
3 121 294 120 0.26877616341685273 0.41288885645038476 0.7940670868378367
3 245 156 157 0.26877616341685273 0.41288885645038476 0.7940670868378367
3 157 246 245 0.26877616341685273 0.41288885645038476 0.7940670868378367
3 157 156 202 0.26877616341685273 0.41288885645038476 0.7940670868378367
3 247 246 157 0.26877616341685273 0.41288885645038476 0.7940670868378367
3 202 203 157 0.26877616341685273 0.41288885645038476 0.7940670868378367
3 203 247 157 0.26877616341685273 0.41288885645038476 0.7940670868378367
3 245 246 160 0.26877616341685273 0.41288885645038476 0.7940670868378367
3 119 118 160 0.26877616341685273 0.41288885645038476 0.7940670868378367
3 118 159 160 0.26877616341685273 0.41288885645038476 0.7940670868378367
3 160 159 245 0.26877616341685273 0.41288885645038476 0.7940670868378367
3 193 107 192 0.26877616341685273 0.41288885645038476 0.7940670868378367
3 194 107 193 0.26877616341685273 0.41288885645038476 0.7940670868378367
3 193 80 194 0.26877616341685273 0.41288885645038476 0.7940670868378367
3 193 192 79 0.26877616341685273 0.41288885645038476 0.7940670868378367
3 79 80 193 0.26877616341685273 0.41288885645038476 0.7940670868378367
3 15 14 103 0.26877616341685273 0.41288885645038476 0.7940670868378367
3 14 104 103 0.26877616341685273 0.41288885645038476 0.7940670868378367
3 103 104 228 0.26877616341685273 0.41288885645038476 0.7940670868378367
3 103 227 15 0.26877616341685273 0.41288885645038476 0.7940670868378367
3 228 227 103 0.26877616341685273 0.41288885645038476 0.7940670868378367
3 239 145 151 0.26877616341685273 0.41288885645038476 0.7940670868378367
3 239 144 145 0.26877616341685273 0.41288885645038476 0.7940670868378367
3 112 144 239 0.26877616341685273 0.41288885645038476 0.7940670868378367
3 150 112 239 0.26877616341685273 0.41288885645038476 0.7940670868378367
3 151 117 239 0.26877616341685273 0.41288885645038476 0.7940670868378367
3 117 150 239 0.26877616341685273 0.41288885645038476 0.7940670868378367
3 138 137 228 0.26877616341685273 0.41288885645038476 0.7940670868378367
3 280 137 138 0.26877616341685273 0.41288885645038476 0.7940670868378367
3 228 229 138 0.26877616341685273 0.41288885645038476 0.7940670868378367
3 139 280 138 0.26877616341685273 0.41288885645038476 0.7940670868378367
3 138 229 139 0.26877616341685273 0.41288885645038476 0.7940670868378367
3 136 137 279 0.26877616341685273 0.41288885645038476 0.7940670868378367
3 279 144 278 0.26877616341685273 0.41288885645038476 0.7940670868378367
3 278 136 279 0.26877616341685273 0.41288885645038476 0.7940670868378367
3 145 144 279 0.26877616341685273 0.41288885645038476 0.7940670868378367
3 279 137 145 0.26877616341685273 0.41288885645038476 0.7940670868378367
3 163 248 297 0.26877616341685273 0.41288885645038476 0.7940670868378367
3 297 122 163 0.26877616341685273 0.41288885645038476 0.7940670868378367
3 163 247 248 0.26877616341685273 0.41288885645038476 0.7940670868378367
3 163 122 121 0.26877616341685273 0.41288885645038476 0.7940670868378367
3 90 295 91 0.26877616341685273 0.41288885645038476 0.7940670868378367
3 91 92 204 0.26877616341685273 0.41288885645038476 0.7940670868378367
3 91 296 92 0.26877616341685273 0.41288885645038476 0.7940670868378367
3 91 295 296 0.26877616341685273 0.41288885645038476 0.7940670868378367
3 36 90 91 0.26877616341685273 0.41288885645038476 0.7940670868378367
3 91 204 36 0.26877616341685273 0.41288885645038476 0.7940670868378367
3 129 54 130 0.26877616341685273 0.41288885645038476 0.7940670868378367
3 128 54 129 0.26877616341685273 0.41288885645038476 0.7940670868378367
3 55 128 129 0.26877616341685273 0.41288885645038476 0.7940670868378367
3 130 56 129 0.26877616341685273 0.41288885645038476 0.7940670868378367
3 129 56 55 0.26877616341685273 0.41288885645038476 0.7940670868378367
3 77 222 185 0.26877616341685273 0.41288885645038476 0.7940670868378367
3 185 51 77 0.26877616341685273 0.41288885645038476 0.7940670868378367
3 77 221 222 0.26877616341685273 0.41288885645038476 0.7940670868378367
3 76 221 77 0.26877616341685273 0.41288885645038476 0.7940670868378367
3 77 50 76 0.26877616341685273 0.41288885645038476 0.7940670868378367
3 77 51 50 0.26877616341685273 0.41288885645038476 0.7940670868378367
3 180 221 73 0.26877616341685273 0.41288885645038476 0.7940670868378367
3 221 220 73 0.26877616341685273 0.41288885645038476 0.7940670868378367
3 7 74 75 0.26877616341685273 0.41288885645038476 0.7940670868378367
3 74 220 75 0.26877616341685273 0.41288885645038476 0.7940670868378367
3 75 49 7 0.26877616341685273 0.41288885645038476 0.7940670868378367
3 76 49 75 0.26877616341685273 0.41288885645038476 0.7940670868378367
3 75 220 76 0.26877616341685273 0.41288885645038476 0.7940670868378367
3 100 177 313 0.26877616341685273 0.41288885645038476 0.7940670868378367
3 313 125 100 0.26877616341685273 0.41288885645038476 0.7940670868378367
3 181 221 180 0.26877616341685273 0.41288885645038476 0.7940670868378367
3 222 221 181 0.26877616341685273 0.41288885645038476 0.7940670868378367
3 181 317 222 0.26877616341685273 0.41288885645038476 0.7940670868378367
3 182 317 217 0.26877616341685273 0.41288885645038476 0.7940670868378367
3 223 317 182 0.26877616341685273 0.41288885645038476 0.7940670868378367
3 217 265 182 0.26877616341685273 0.41288885645038476 0.7940670868378367
3 224 223 182 0.26877616341685273 0.41288885645038476 0.7940670868378367
3 182 265 224 0.26877616341685273 0.41288885645038476 0.7940670868378367
3 216 306 307 0.26877616341685273 0.41288885645038476 0.7940670868378367
3 216 307 217 0.26877616341685273 0.41288885645038476 0.7940670868378367
3 217 317 216 0.26877616341685273 0.41288885645038476 0.7940670868378367
3 317 181 216 0.26877616341685273 0.41288885645038476 0.7940670868378367
3 65 172 64 0.26877616341685273 0.41288885645038476 0.7940670868378367
3 41 40 64 0.26877616341685273 0.41288885645038476 0.7940670868378367
3 64 40 65 0.26877616341685273 0.41288885645038476 0.7940670868378367
3 161 246 247 0.26877616341685273 0.41288885645038476 0.7940670868378367
3 161 120 119 0.26877616341685273 0.41288885645038476 0.7940670868378367
3 119 160 161 0.26877616341685273 0.41288885645038476 0.7940670868378367
3 161 160 246 0.26877616341685273 0.41288885645038476 0.7940670868378367
3 72 218 71 0.26877616341685273 0.41288885645038476 0.7940670868378367
3 5 70 71 0.26877616341685273 0.41288885645038476 0.7940670868378367
3 71 218 5 0.26877616341685273 0.41288885645038476 0.7940670868378367
3 70 177 71 0.26877616341685273 0.41288885645038476 0.7940670868378367
3 177 100 71 0.26877616341685273 0.41288885645038476 0.7940670868378367
3 180 73 102 0.26877616341685273 0.41288885645038476 0.7940670868378367
3 41 64 171 0.26877616341685273 0.41288885645038476 0.7940670868378367
3 171 64 172 0.26877616341685273 0.41288885645038476 0.7940670868378367
3 211 46 45 0.26877616341685273 0.41288885645038476 0.7940670868378367
3 162 161 247 0.26877616341685273 0.41288885645038476 0.7940670868378367
3 162 163 121 0.26877616341685273 0.41288885645038476 0.7940670868378367
3 247 163 162 0.26877616341685273 0.41288885645038476 0.7940670868378367
3 121 120 162 0.26877616341685273 0.41288885645038476 0.7940670868378367
3 120 161 162 0.26877616341685273 0.41288885645038476 0.7940670868378367
3 180 102 316 0.26877616341685273 0.41288885645038476 0.7940670868378367
3 316 181 180 0.26877616341685273 0.41288885645038476 0.7940670868378367
3 316 216 181 0.26877616341685273 0.41288885645038476 0.7940670868378367
3 94 45 44 0.26877616341685273 0.41288885645038476 0.7940670868378367
3 314 100 125 0.26877616341685273 0.41288885645038476 0.7940670868378367
3 125 213 314 0.26877616341685273 0.41288885645038476 0.7940670868378367
3 170 42 41 0.26877616341685273 0.41288885645038476 0.7940670868378367
3 41 171 170 0.26877616341685273 0.41288885645038476 0.7940670868378367
3 44 43 302 0.26877616341685273 0.41288885645038476 0.7940670868378367
3 302 43 303 0.26877616341685273 0.41288885645038476 0.7940670868378367
3 127 316 102 0.26877616341685273 0.41288885645038476 0.7940670868378367
3 127 262 214 0.26877616341685273 0.41288885645038476 0.7940670868378367
3 102 262 127 0.26877616341685273 0.41288885645038476 0.7940670868378367
3 72 262 179 0.26877616341685273 0.41288885645038476 0.7940670868378367
3 179 262 102 0.26877616341685273 0.41288885645038476 0.7940670868378367
3 179 102 73 0.26877616341685273 0.41288885645038476 0.7940670868378367
3 179 220 72 0.26877616341685273 0.41288885645038476 0.7940670868378367
3 179 73 220 0.26877616341685273 0.41288885645038476 0.7940670868378367
3 214 262 126 0.26877616341685273 0.41288885645038476 0.7940670868378367
3 126 96 214 0.26877616341685273 0.41288885645038476 0.7940670868378367
3 213 96 126 0.26877616341685273 0.41288885645038476 0.7940670868378367
3 126 314 213 0.26877616341685273 0.41288885645038476 0.7940670868378367
3 212 213 125 0.26877616341685273 0.41288885645038476 0.7940670868378367
3 212 124 211 0.26877616341685273 0.41288885645038476 0.7940670868378367
3 212 125 124 0.26877616341685273 0.41288885645038476 0.7940670868378367
3 211 45 212 0.26877616341685273 0.41288885645038476 0.7940670868378367
3 45 94 212 0.26877616341685273 0.41288885645038476 0.7940670868378367
3 303 43 67 0.26877616341685273 0.41288885645038476 0.7940670868378367
3 67 43 42 0.26877616341685273 0.41288885645038476 0.7940670868378367
3 95 94 44 0.26877616341685273 0.41288885645038476 0.7940670868378367
3 44 302 95 0.26877616341685273 0.41288885645038476 0.7940670868378367
3 213 212 95 0.26877616341685273 0.41288885645038476 0.7940670868378367
3 95 212 94 0.26877616341685273 0.41288885645038476 0.7940670868378367
3 95 96 213 0.26877616341685273 0.41288885645038476 0.7940670868378367
3 303 96 95 0.26877616341685273 0.41288885645038476 0.7940670868378367
3 95 302 303 0.26877616341685273 0.41288885645038476 0.7940670868378367
3 97 127 214 0.26877616341685273 0.41288885645038476 0.7940670868378367
3 178 71 100 0.26877616341685273 0.41288885645038476 0.7940670868378367
3 100 314 178 0.26877616341685273 0.41288885645038476 0.7940670868378367
3 72 71 178 0.26877616341685273 0.41288885645038476 0.7940670868378367
3 316 127 215 0.26877616341685273 0.41288885645038476 0.7940670868378367
3 127 97 215 0.26877616341685273 0.41288885645038476 0.7940670868378367
3 216 316 215 0.26877616341685273 0.41288885645038476 0.7940670868378367
3 42 170 68 0.26877616341685273 0.41288885645038476 0.7940670868378367
3 68 67 42 0.26877616341685273 0.41288885645038476 0.7940670868378367
3 214 96 304 0.26877616341685273 0.41288885645038476 0.7940670868378367
3 304 97 214 0.26877616341685273 0.41288885645038476 0.7940670868378367
3 304 96 303 0.26877616341685273 0.41288885645038476 0.7940670868378367
3 303 67 304 0.26877616341685273 0.41288885645038476 0.7940670868378367
3 67 68 304 0.26877616341685273 0.41288885645038476 0.7940670868378367
3 314 126 101 0.26877616341685273 0.41288885645038476 0.7940670868378367
3 101 178 314 0.26877616341685273 0.41288885645038476 0.7940670868378367
3 101 126 262 0.26877616341685273 0.41288885645038476 0.7940670868378367
3 101 262 72 0.26877616341685273 0.41288885645038476 0.7940670868378367
3 72 178 101 0.26877616341685273 0.41288885645038476 0.7940670868378367
3 306 216 305 0.26877616341685273 0.41288885645038476 0.7940670868378367
3 216 215 305 0.26877616341685273 0.41288885645038476 0.7940670868378367
3 305 172 306 0.26877616341685273 0.41288885645038476 0.7940670868378367
3 305 215 97 0.26877616341685273 0.41288885645038476 0.7940670868378367
3 97 304 305 0.26877616341685273 0.41288885645038476 0.7940670868378367
3 69 171 172 0.26877616341685273 0.41288885645038476 0.7940670868378367
3 172 305 69 0.26877616341685273 0.41288885645038476 0.7940670868378367
3 69 170 171 0.26877616341685273 0.41288885645038476 0.7940670868378367
3 69 68 170 0.26877616341685273 0.41288885645038476 0.7940670868378367
3 69 304 68 0.26877616341685273 0.41288885645038476 0.7940670868378367
3 69 305 304 0.26877616341685273 0.41288885645038476 0.7940670868378367
