OFF
87 141 0


30.1225 35.1825 6.6531
30.1225 35.1825 6.6531
30.2027 35.1176 6.7293
30.2647 35.0672 6.7856
30.32 35.0223 6.8339
30.3758 34.9769 6.8808
30.44 34.9246 6.9327
30.5254 34.8549 6.9984
30.5254 34.8549 6.9984
30.5382 34.8735 6.8832
30.5486 34.8856 6.8005
30.5646 34.9008 6.6853
30.4749 34.9744 6.6079
30.4029 35.0322 6.5481
30.3401 35.0817 6.4973
30.2811 35.1275 6.4508
30.2215 35.1732 6.405
30.1567 35.2221 6.3564
30.0806 35.2786 6.3008
29.9826 35.35 6.2315
29.9826 35.35 6.2315
30.0245 35.3017 6.3545
30.0538 35.2669 6.4422
30.0827 35.232 6.5299
30.1225 35.1825 6.6531
30.1512 35.1669 6.6451
30.2651 35.0744 6.7518
30.2655 35.0816 6.7176
30.3546 35.002 6.8283
30.3331 35.0272 6.7753
30.4843 34.9202 6.829
30.4304 34.9663 6.7751
30.5041 34.9425 6.6704
30.4442 34.9835 6.6558
30.3752 35.0468 6.5612
30.3477 35.0612 6.5743
30.2781 35.1226 6.4841
30.2752 35.1178 6.5169
30.1798 35.1975 6.4099
30.2023 35.1735 6.4622
30.0757 35.2605 6.4087
30.1252 35.2203 6.4614
30.1201 35.2061 6.5467
30.1571 35.1803 6.5634
30.3096 35.0384 6.7906
30.2991 35.0545 6.7469
30.2884 35.0707 6.7027
30.4745 34.9053 6.9215
30.4235 34.955 6.845
30.3721 35.0044 6.7685
30.4922 34.93 6.7626
30.4359 34.9738 6.7251
30.3797 35.0172 6.6877
30.3251 35.0862 6.5209
30.3102 35.0906 6.5442
30.2954 35.0949 6.5673
30.1203 35.242 6.3668
30.1585 35.2063 6.4307
30.1955 35.1714 6.4929
30.0979 35.2335 6.4773
30.141 35.2006 6.5119
30.1834 35.1679 6.5459
30.2153 35.1148 6.7064
30.2279 35.1121 6.6833
30.2406 35.1092 6.66
30.2534 35.1063 6.6365
30.4062 34.9604 6.8697
30.3721 34.996 6.8064
30.3375 35.0316 6.7427
30.3023 35.0673 6.6782
30.4326 35.0008 6.6089
30.3907 35.0269 6.6098
30.3491 35.0526 6.6108
30.3076 35.0781 6.6118
30.2309 35.1589 6.448
30.24 35.1448 6.4902
30.249 35.1309 6.5317
30.2577 35.1171 6.5725
30.0446 35.2975 6.3139
30.1035 35.247 6.3926
30.1598 35.1981 6.4682
30.2139 35.1503 6.5414
30.1512 35.1669 6.6451
30.1799 35.1512 6.637
30.2086 35.1353 6.629
30.2374 35.1194 6.6209
30.2663 35.1034 6.6128
3 9 10 30 0.2757842603367213 0.37695678372374053 0.8563146652274128
3 11 12 32 0.2757842603367213 0.37695678372374053 0.8563146652274128
3 40 21 22 0.2757842603367213 0.37695678372374053 0.8563146652274128
3 9 30 47 0.2757842603367213 0.37695678372374053 0.8563146652274128
3 7 9 47 0.2757842603367213 0.37695678372374053 0.8563146652274128
3 47 6 7 0.2757842603367213 0.37695678372374053 0.8563146652274128
3 48 30 31 0.2757842603367213 0.37695678372374053 0.8563146652274128
3 6 47 48 0.2757842603367213 0.37695678372374053 0.8563146652274128
3 48 47 30 0.2757842603367213 0.37695678372374053 0.8563146652274128
3 35 73 72 0.2757842603367213 0.37695678372374053 0.8563146652274128
3 70 12 13 0.2757842603367213 0.37695678372374053 0.8563146652274128
3 50 30 10 0.2757842603367213 0.37695678372374053 0.8563146652274128
3 50 10 11 0.2757842603367213 0.37695678372374053 0.8563146652274128
3 11 32 50 0.2757842603367213 0.37695678372374053 0.8563146652274128
3 31 30 50 0.2757842603367213 0.37695678372374053 0.8563146652274128
3 65 73 86 0.2757842603367213 0.37695678372374053 0.8563146652274128
3 62 2 27 0.2757842603367213 0.37695678372374053 0.8563146652274128
3 52 72 69 0.2757842603367213 0.37695678372374053 0.8563146652274128
3 72 73 69 0.2757842603367213 0.37695678372374053 0.8563146652274128
3 73 65 69 0.2757842603367213 0.37695678372374053 0.8563146652274128
3 26 2 3 0.2757842603367213 0.37695678372374053 0.8563146652274128
3 26 27 2 0.2757842603367213 0.37695678372374053 0.8563146652274128
3 46 27 45 0.2757842603367213 0.37695678372374053 0.8563146652274128
3 27 26 45 0.2757842603367213 0.37695678372374053 0.8563146652274128
3 45 26 3 0.2757842603367213 0.37695678372374053 0.8563146652274128
3 19 21 78 0.2757842603367213 0.37695678372374053 0.8563146652274128
3 78 18 19 0.2757842603367213 0.37695678372374053 0.8563146652274128
3 78 21 40 0.2757842603367213 0.37695678372374053 0.8563146652274128
3 40 18 78 0.2757842603367213 0.37695678372374053 0.8563146652274128
3 17 18 56 0.2757842603367213 0.37695678372374053 0.8563146652274128
3 60 43 61 0.2757842603367213 0.37695678372374053 0.8563146652274128
3 76 37 75 0.2757842603367213 0.37695678372374053 0.8563146652274128
3 61 43 83 0.2757842603367213 0.37695678372374053 0.8563146652274128
3 83 84 61 0.2757842603367213 0.37695678372374053 0.8563146652274128
3 66 5 6 0.2757842603367213 0.37695678372374053 0.8563146652274128
3 6 48 66 0.2757842603367213 0.37695678372374053 0.8563146652274128
3 34 35 72 0.2757842603367213 0.37695678372374053 0.8563146652274128
3 13 14 34 0.2757842603367213 0.37695678372374053 0.8563146652274128
3 34 14 53 0.2757842603367213 0.37695678372374053 0.8563146652274128
3 53 35 34 0.2757842603367213 0.37695678372374053 0.8563146652274128
3 71 72 52 0.2757842603367213 0.37695678372374053 0.8563146652274128
3 71 34 72 0.2757842603367213 0.37695678372374053 0.8563146652274128
3 71 70 13 0.2757842603367213 0.37695678372374053 0.8563146652274128
3 13 34 71 0.2757842603367213 0.37695678372374053 0.8563146652274128
3 33 71 52 0.2757842603367213 0.37695678372374053 0.8563146652274128
3 70 71 33 0.2757842603367213 0.37695678372374053 0.8563146652274128
3 33 32 12 0.2757842603367213 0.37695678372374053 0.8563146652274128
3 12 70 33 0.2757842603367213 0.37695678372374053 0.8563146652274128
3 77 37 76 0.2757842603367213 0.37695678372374053 0.8563146652274128
3 85 65 86 0.2757842603367213 0.37695678372374053 0.8563146652274128
3 86 77 85 0.2757842603367213 0.37695678372374053 0.8563146652274128
3 64 85 84 0.2757842603367213 0.37695678372374053 0.8563146652274128
3 65 85 64 0.2757842603367213 0.37695678372374053 0.8563146652274128
3 64 27 46 0.2757842603367213 0.37695678372374053 0.8563146652274128
3 46 69 64 0.2757842603367213 0.37695678372374053 0.8563146652274128
3 64 69 65 0.2757842603367213 0.37695678372374053 0.8563146652274128
3 68 49 52 0.2757842603367213 0.37695678372374053 0.8563146652274128
3 29 49 68 0.2757842603367213 0.37695678372374053 0.8563146652274128
3 68 45 29 0.2757842603367213 0.37695678372374053 0.8563146652274128
3 52 69 68 0.2757842603367213 0.37695678372374053 0.8563146652274128
3 68 69 46 0.2757842603367213 0.37695678372374053 0.8563146652274128
3 46 45 68 0.2757842603367213 0.37695678372374053 0.8563146652274128
3 67 48 31 0.2757842603367213 0.37695678372374053 0.8563146652274128
3 31 49 67 0.2757842603367213 0.37695678372374053 0.8563146652274128
3 67 66 48 0.2757842603367213 0.37695678372374053 0.8563146652274128
3 67 49 29 0.2757842603367213 0.37695678372374053 0.8563146652274128
3 3 4 44 0.2757842603367213 0.37695678372374053 0.8563146652274128
3 44 4 29 0.2757842603367213 0.37695678372374053 0.8563146652274128
3 44 45 3 0.2757842603367213 0.37695678372374053 0.8563146652274128
3 29 45 44 0.2757842603367213 0.37695678372374053 0.8563146652274128
3 17 56 57 0.2757842603367213 0.37695678372374053 0.8563146652274128
3 40 22 59 0.2757842603367213 0.37695678372374053 0.8563146652274128
3 0 43 42 0.2757842603367213 0.37695678372374053 0.8563146652274128
3 43 60 42 0.2757842603367213 0.37695678372374053 0.8563146652274128
3 76 75 81 0.2757842603367213 0.37695678372374053 0.8563146652274128
3 81 77 76 0.2757842603367213 0.37695678372374053 0.8563146652274128
3 61 84 81 0.2757842603367213 0.37695678372374053 0.8563146652274128
3 84 85 81 0.2757842603367213 0.37695678372374053 0.8563146652274128
3 81 85 77 0.2757842603367213 0.37695678372374053 0.8563146652274128
3 39 57 80 0.2757842603367213 0.37695678372374053 0.8563146652274128
3 15 75 36 0.2757842603367213 0.37695678372374053 0.8563146652274128
3 36 75 37 0.2757842603367213 0.37695678372374053 0.8563146652274128
3 36 14 15 0.2757842603367213 0.37695678372374053 0.8563146652274128
3 53 14 36 0.2757842603367213 0.37695678372374053 0.8563146652274128
3 36 37 53 0.2757842603367213 0.37695678372374053 0.8563146652274128
3 25 2 62 0.2757842603367213 0.37695678372374053 0.8563146652274128
3 62 83 25 0.2757842603367213 0.37695678372374053 0.8563146652274128
3 0 2 25 0.2757842603367213 0.37695678372374053 0.8563146652274128
3 25 43 0 0.2757842603367213 0.37695678372374053 0.8563146652274128
3 25 83 43 0.2757842603367213 0.37695678372374053 0.8563146652274128
3 51 33 52 0.2757842603367213 0.37695678372374053 0.8563146652274128
3 51 49 31 0.2757842603367213 0.37695678372374053 0.8563146652274128
3 52 49 51 0.2757842603367213 0.37695678372374053 0.8563146652274128
3 31 50 51 0.2757842603367213 0.37695678372374053 0.8563146652274128
3 51 50 32 0.2757842603367213 0.37695678372374053 0.8563146652274128
3 32 33 51 0.2757842603367213 0.37695678372374053 0.8563146652274128
3 37 77 55 0.2757842603367213 0.37695678372374053 0.8563146652274128
3 73 35 55 0.2757842603367213 0.37695678372374053 0.8563146652274128
3 86 73 55 0.2757842603367213 0.37695678372374053 0.8563146652274128
3 55 77 86 0.2757842603367213 0.37695678372374053 0.8563146652274128
3 63 64 84 0.2757842603367213 0.37695678372374053 0.8563146652274128
3 63 83 62 0.2757842603367213 0.37695678372374053 0.8563146652274128
3 84 83 63 0.2757842603367213 0.37695678372374053 0.8563146652274128
3 62 27 63 0.2757842603367213 0.37695678372374053 0.8563146652274128
3 27 64 63 0.2757842603367213 0.37695678372374053 0.8563146652274128
3 29 4 28 0.2757842603367213 0.37695678372374053 0.8563146652274128
3 28 67 29 0.2757842603367213 0.37695678372374053 0.8563146652274128
3 28 4 5 0.2757842603367213 0.37695678372374053 0.8563146652274128
3 5 66 28 0.2757842603367213 0.37695678372374053 0.8563146652274128
3 66 67 28 0.2757842603367213 0.37695678372374053 0.8563146652274128
3 38 16 17 0.2757842603367213 0.37695678372374053 0.8563146652274128
3 17 57 38 0.2757842603367213 0.37695678372374053 0.8563146652274128
3 38 39 16 0.2757842603367213 0.37695678372374053 0.8563146652274128
3 57 39 38 0.2757842603367213 0.37695678372374053 0.8563146652274128
3 79 57 56 0.2757842603367213 0.37695678372374053 0.8563146652274128
3 79 18 40 0.2757842603367213 0.37695678372374053 0.8563146652274128
3 79 56 18 0.2757842603367213 0.37695678372374053 0.8563146652274128
3 60 59 23 0.2757842603367213 0.37695678372374053 0.8563146652274128
3 23 42 60 0.2757842603367213 0.37695678372374053 0.8563146652274128
3 23 59 22 0.2757842603367213 0.37695678372374053 0.8563146652274128
3 0 42 23 0.2757842603367213 0.37695678372374053 0.8563146652274128
3 16 39 74 0.2757842603367213 0.37695678372374053 0.8563146652274128
3 74 39 75 0.2757842603367213 0.37695678372374053 0.8563146652274128
3 15 16 74 0.2757842603367213 0.37695678372374053 0.8563146652274128
3 74 75 15 0.2757842603367213 0.37695678372374053 0.8563146652274128
3 58 81 75 0.2757842603367213 0.37695678372374053 0.8563146652274128
3 75 39 58 0.2757842603367213 0.37695678372374053 0.8563146652274128
3 61 81 58 0.2757842603367213 0.37695678372374053 0.8563146652274128
3 58 39 80 0.2757842603367213 0.37695678372374053 0.8563146652274128
3 58 60 61 0.2757842603367213 0.37695678372374053 0.8563146652274128
3 80 60 58 0.2757842603367213 0.37695678372374053 0.8563146652274128
3 53 37 54 0.2757842603367213 0.37695678372374053 0.8563146652274128
3 37 55 54 0.2757842603367213 0.37695678372374053 0.8563146652274128
3 54 35 53 0.2757842603367213 0.37695678372374053 0.8563146652274128
3 54 55 35 0.2757842603367213 0.37695678372374053 0.8563146652274128
3 57 79 41 0.2757842603367213 0.37695678372374053 0.8563146652274128
3 80 57 41 0.2757842603367213 0.37695678372374053 0.8563146652274128
3 40 59 41 0.2757842603367213 0.37695678372374053 0.8563146652274128
3 41 79 40 0.2757842603367213 0.37695678372374053 0.8563146652274128
3 41 60 80 0.2757842603367213 0.37695678372374053 0.8563146652274128
3 41 59 60 0.2757842603367213 0.37695678372374053 0.8563146652274128
