OFF
37 30 0


27.564 35.5914 4.6064
27.564 35.5914 4.6064
27.4867 35.5685 4.7241
27.4299 35.5513 4.8113
27.3807 35.5359 4.8871
27.3317 35.5203 4.963
27.2757 35.502 5.0505
27.2004 35.4766 5.169
27.2004 35.4766 5.169
27.2071 35.4165 5.233
27.2138 35.3565 5.2971
27.2205 35.2964 5.3611
27.2272 35.2363 5.4251
27.2339 35.1762 5.4892
27.2406 35.1162 5.5532
27.2474 35.0561 5.6173
27.2541 34.996 5.6813
27.2608 34.936 5.7453
27.2608 34.936 5.7453
27.2835 34.8886 5.7754
27.3065 34.8412 5.8053
27.3962 34.8524 5.6869
27.459 34.8625 5.6014
27.5107 34.8722 5.5294
27.5589 34.8823 5.4609
27.6092 34.8941 5.388
27.6685 34.9093 5.3005
27.7493 34.9326 5.1781
27.7493 34.9326 5.1781
27.7196 35.041 5.0831
27.6964 35.1246 5.0102
27.6766 35.1957 4.9483
27.6581 35.2614 4.8912
27.6395 35.3273 4.8342
27.6193 35.3985 4.7726
27.5954 35.4823 4.7003
27.564 35.5914 4.6064
3 13 24 25 0.28264615641130075 0.9912701698572473 0.26273161513940235
3 5 6 32 0.28264615641130075 0.9912701698572473 0.26273161513940235
3 33 34 4 0.28264615641130075 0.9912701698572473 0.26273161513940235
3 33 5 32 0.28264615641130075 0.9912701698572473 0.26273161513940235
3 4 5 33 0.28264615641130075 0.9912701698572473 0.26273161513940235
3 32 6 31 0.28264615641130075 0.9912701698572473 0.26273161513940235
3 9 6 7 0.28264615641130075 0.9912701698572473 0.26273161513940235
3 30 31 10 0.28264615641130075 0.9912701698572473 0.26273161513940235
3 10 31 6 0.28264615641130075 0.9912701698572473 0.26273161513940235
3 6 9 10 0.28264615641130075 0.9912701698572473 0.26273161513940235
3 20 21 19 0.28264615641130075 0.9912701698572473 0.26273161513940235
3 14 24 13 0.28264615641130075 0.9912701698572473 0.26273161513940235
3 18 21 16 0.28264615641130075 0.9912701698572473 0.26273161513940235
3 18 19 21 0.28264615641130075 0.9912701698572473 0.26273161513940235
3 16 21 22 0.28264615641130075 0.9912701698572473 0.26273161513940235
3 22 15 16 0.28264615641130075 0.9912701698572473 0.26273161513940235
3 0 2 35 0.28264615641130075 0.9912701698572473 0.26273161513940235
3 4 34 3 0.28264615641130075 0.9912701698572473 0.26273161513940235
3 34 35 3 0.28264615641130075 0.9912701698572473 0.26273161513940235
3 3 35 2 0.28264615641130075 0.9912701698572473 0.26273161513940235
3 29 30 11 0.28264615641130075 0.9912701698572473 0.26273161513940235
3 30 10 11 0.28264615641130075 0.9912701698572473 0.26273161513940235
3 23 14 15 0.28264615641130075 0.9912701698572473 0.26273161513940235
3 15 22 23 0.28264615641130075 0.9912701698572473 0.26273161513940235
3 24 14 23 0.28264615641130075 0.9912701698572473 0.26273161513940235
3 29 11 26 0.28264615641130075 0.9912701698572473 0.26273161513940235
3 27 29 26 0.28264615641130075 0.9912701698572473 0.26273161513940235
3 25 26 12 0.28264615641130075 0.9912701698572473 0.26273161513940235
3 12 26 11 0.28264615641130075 0.9912701698572473 0.26273161513940235
3 13 25 12 0.28264615641130075 0.9912701698572473 0.26273161513940235
