OFF
16 11 0


28.3603 31.1763 5.5621
28.3603 31.1763 5.5621
28.4189 31.169 5.6718
28.4618 31.1634 5.7515
28.521 31.1553 5.8608
28.521 31.1553 5.8608
28.4882 31.1998 5.9012
28.4555 31.2442 5.9415
28.4227 31.2886 5.9819
28.3899 31.333 6.0223
28.3571 31.3775 6.0627
28.359 31.3271 5.9396
28.3598 31.2917 5.8522
28.3603 31.26 5.7734
28.3606 31.2251 5.6858
28.3603 31.1763 5.5621
3 13 14 3 0.2939252690605233 0.8608705449723066 0.2699543228101895
3 8 9 11 0.2939252690605233 0.8608705449723066 0.2699543228101895
3 11 7 8 0.2939252690605233 0.8608705449723066 0.2699543228101895
3 11 9 10 0.2939252690605233 0.8608705449723066 0.2699543228101895
3 13 3 6 0.2939252690605233 0.8608705449723066 0.2699543228101895
3 6 3 4 0.2939252690605233 0.8608705449723066 0.2699543228101895
3 2 14 0 0.2939252690605233 0.8608705449723066 0.2699543228101895
3 2 3 14 0.2939252690605233 0.8608705449723066 0.2699543228101895
3 7 11 12 0.2939252690605233 0.8608705449723066 0.2699543228101895
3 13 6 12 0.2939252690605233 0.8608705449723066 0.2699543228101895
3 12 6 7 0.2939252690605233 0.8608705449723066 0.2699543228101895
