OFF
84 78 0


32.2505 33.3575 12.5148
32.2505 33.3575 12.5148
32.2802 33.4383 12.4233
32.3075 33.5116 12.3351
32.3328 33.5785 12.2497
32.3564 33.6401 12.1667
32.3786 33.6971 12.0857
32.3995 33.75 12.0062
32.4194 33.7997 11.9279
32.4384 33.8464 11.8502
32.4567 33.8906 11.7727
32.4744 33.9327 11.695
32.4916 33.973 11.6166
32.5084 34.0117 11.5371
32.5251 34.0491 11.4558
32.5415 34.0853 11.3723
32.5579 34.1205 11.2859
32.5743 34.1548 11.1959
32.5907 34.1883 11.1017
32.6073 34.2209 11.0023
32.6241 34.2527 10.8968
32.6412 34.2834 10.7841
32.6585 34.313 10.663
32.6585 34.313 10.663
32.6346 34.2027 10.5611
32.6143 34.1088 10.4749
32.5964 34.0264 10.3996
32.5803 33.9523 10.3323
32.5655 33.8842 10.2706
32.5516 33.8203 10.213
32.5383 33.7591 10.1581
32.5252 33.6994 10.1048
32.5123 33.6402 10.0522
32.4992 33.5803 9.9992
32.4856 33.5187 9.945
32.4714 33.454 9.8885
32.4562 33.3849 9.8284
32.4395 33.3094 9.7632
32.4208 33.2248 9.6908
32.3993 33.1276 9.6084
32.3736 33.0121 9.5116
32.3465 32.9426 9.6111
32.3207 32.8767 9.7069
32.2961 32.8142 9.7998
32.2725 32.7546 9.8905
32.2497 32.6976 9.9795
32.2278 32.6433 10.0672
32.2067 32.5914 10.1543
32.1862 32.5419 10.241
32.1665 32.4949 10.3277
32.1474 32.4504 10.4149
32.1291 32.4087 10.5028
32.1115 32.37 10.5915
32.0948 32.3344 10.6814
32.0789 32.3022 10.7723
32.064 32.2734 10.8644
32.0499 32.248 10.9576
32.0367 32.226 11.0519
32.0243 32.2072 11.147
32.0127 32.1912 11.2431
32.0018 32.1779 11.3402
31.9914 32.1669 11.4383
31.9815 32.1578 11.5376
31.972 32.1506 11.6385
31.9628 32.1449 11.7411
31.9539 32.1405 11.846
31.945 32.1373 11.9535
31.9363 32.1352 12.0643
31.9275 32.1341 12.1789
31.9187 32.1339 12.2982
31.9097 32.1346 12.4228
31.9097 32.1346 12.4228
31.9498 32.2793 12.4373
31.9821 32.3959 12.4482
32.0097 32.4952 12.4569
32.0343 32.5838 12.4642
32.0572 32.6662 12.4708
32.0794 32.7457 12.4768
32.1016 32.8252 12.4825
32.1246 32.9077 12.4882
32.1494 32.9965 12.494
32.1772 33.0961 12.5002
32.2099 33.2129 12.507
32.2505 33.3575 12.5148
3 12 55 54 0.006065910781765105 0.9576018345869015 0.42226464100293815
3 56 55 11 0.006065910781765105 0.9576018345869015 0.42226464100293815
3 55 12 11 0.006065910781765105 0.9576018345869015 0.42226464100293815
3 4 81 80 0.006065910781765105 0.9576018345869015 0.42226464100293815
3 61 60 7 0.006065910781765105 0.9576018345869015 0.42226464100293815
3 9 59 58 0.006065910781765105 0.9576018345869015 0.42226464100293815
3 58 57 9 0.006065910781765105 0.9576018345869015 0.42226464100293815
3 69 72 70 0.006065910781765105 0.9576018345869015 0.42226464100293815
3 73 67 74 0.006065910781765105 0.9576018345869015 0.42226464100293815
3 64 78 77 0.006065910781765105 0.9576018345869015 0.42226464100293815
3 77 65 64 0.006065910781765105 0.9576018345869015 0.42226464100293815
3 76 65 77 0.006065910781765105 0.9576018345869015 0.42226464100293815
3 63 62 79 0.006065910781765105 0.9576018345869015 0.42226464100293815
3 79 78 63 0.006065910781765105 0.9576018345869015 0.42226464100293815
3 63 78 64 0.006065910781765105 0.9576018345869015 0.42226464100293815
3 74 67 66 0.006065910781765105 0.9576018345869015 0.42226464100293815
3 4 80 5 0.006065910781765105 0.9576018345869015 0.42226464100293815
3 79 62 5 0.006065910781765105 0.9576018345869015 0.42226464100293815
3 5 80 79 0.006065910781765105 0.9576018345869015 0.42226464100293815
3 3 81 4 0.006065910781765105 0.9576018345869015 0.42226464100293815
3 13 12 54 0.006065910781765105 0.9576018345869015 0.42226464100293815
3 53 13 54 0.006065910781765105 0.9576018345869015 0.42226464100293815
3 14 13 53 0.006065910781765105 0.9576018345869015 0.42226464100293815
3 59 9 8 0.006065910781765105 0.9576018345869015 0.42226464100293815
3 7 60 8 0.006065910781765105 0.9576018345869015 0.42226464100293815
3 60 59 8 0.006065910781765105 0.9576018345869015 0.42226464100293815
3 10 9 57 0.006065910781765105 0.9576018345869015 0.42226464100293815
3 56 11 10 0.006065910781765105 0.9576018345869015 0.42226464100293815
3 10 57 56 0.006065910781765105 0.9576018345869015 0.42226464100293815
3 35 34 46 0.006065910781765105 0.9576018345869015 0.42226464100293815
3 49 48 31 0.006065910781765105 0.9576018345869015 0.42226464100293815
3 31 48 32 0.006065910781765105 0.9576018345869015 0.42226464100293815
3 30 49 31 0.006065910781765105 0.9576018345869015 0.42226464100293815
3 50 49 30 0.006065910781765105 0.9576018345869015 0.42226464100293815
3 51 29 15 0.006065910781765105 0.9576018345869015 0.42226464100293815
3 50 30 51 0.006065910781765105 0.9576018345869015 0.42226464100293815
3 51 30 29 0.006065910781765105 0.9576018345869015 0.42226464100293815
3 67 73 68 0.006065910781765105 0.9576018345869015 0.42226464100293815
3 72 69 68 0.006065910781765105 0.9576018345869015 0.42226464100293815
3 68 73 72 0.006065910781765105 0.9576018345869015 0.42226464100293815
3 75 65 76 0.006065910781765105 0.9576018345869015 0.42226464100293815
3 75 66 65 0.006065910781765105 0.9576018345869015 0.42226464100293815
3 74 66 75 0.006065910781765105 0.9576018345869015 0.42226464100293815
3 62 61 6 0.006065910781765105 0.9576018345869015 0.42226464100293815
3 6 5 62 0.006065910781765105 0.9576018345869015 0.42226464100293815
3 6 61 7 0.006065910781765105 0.9576018345869015 0.42226464100293815
3 81 3 82 0.006065910781765105 0.9576018345869015 0.42226464100293815
3 82 3 2 0.006065910781765105 0.9576018345869015 0.42226464100293815
3 82 2 0 0.006065910781765105 0.9576018345869015 0.42226464100293815
3 43 38 37 0.006065910781765105 0.9576018345869015 0.42226464100293815
3 36 44 37 0.006065910781765105 0.9576018345869015 0.42226464100293815
3 37 44 43 0.006065910781765105 0.9576018345869015 0.42226464100293815
3 45 44 36 0.006065910781765105 0.9576018345869015 0.42226464100293815
3 36 35 45 0.006065910781765105 0.9576018345869015 0.42226464100293815
3 45 35 46 0.006065910781765105 0.9576018345869015 0.42226464100293815
3 47 32 48 0.006065910781765105 0.9576018345869015 0.42226464100293815
3 47 33 32 0.006065910781765105 0.9576018345869015 0.42226464100293815
3 46 34 47 0.006065910781765105 0.9576018345869015 0.42226464100293815
3 34 33 47 0.006065910781765105 0.9576018345869015 0.42226464100293815
3 15 14 52 0.006065910781765105 0.9576018345869015 0.42226464100293815
3 52 51 15 0.006065910781765105 0.9576018345869015 0.42226464100293815
3 14 53 52 0.006065910781765105 0.9576018345869015 0.42226464100293815
3 26 19 18 0.006065910781765105 0.9576018345869015 0.42226464100293815
3 18 27 26 0.006065910781765105 0.9576018345869015 0.42226464100293815
3 17 27 18 0.006065910781765105 0.9576018345869015 0.42226464100293815
3 21 24 22 0.006065910781765105 0.9576018345869015 0.42226464100293815
3 25 19 26 0.006065910781765105 0.9576018345869015 0.42226464100293815
3 39 41 40 0.006065910781765105 0.9576018345869015 0.42226464100293815
3 42 38 43 0.006065910781765105 0.9576018345869015 0.42226464100293815
3 42 39 38 0.006065910781765105 0.9576018345869015 0.42226464100293815
3 41 39 42 0.006065910781765105 0.9576018345869015 0.42226464100293815
3 17 16 28 0.006065910781765105 0.9576018345869015 0.42226464100293815
3 28 27 17 0.006065910781765105 0.9576018345869015 0.42226464100293815
3 15 29 28 0.006065910781765105 0.9576018345869015 0.42226464100293815
3 28 16 15 0.006065910781765105 0.9576018345869015 0.42226464100293815
3 19 25 20 0.006065910781765105 0.9576018345869015 0.42226464100293815
3 20 25 24 0.006065910781765105 0.9576018345869015 0.42226464100293815
3 24 21 20 0.006065910781765105 0.9576018345869015 0.42226464100293815
