OFF
321 570 0


31.1747 32.4117 8.876
31.1747 32.4117 8.876
31.1471 32.2944 8.9407
31.1262 32.1965 8.9947
31.1096 32.1104 9.042
31.0958 32.031 9.0855
31.0841 31.9546 9.1274
31.0738 31.8778 9.1693
31.0648 31.7975 9.213
31.0571 31.7098 9.2607
31.0511 31.6098 9.3149
31.0477 31.4903 9.3794
31.0477 31.4903 9.3794
30.978 31.4015 9.455
30.9185 31.3279 9.5193
30.8658 31.2645 9.5762
30.8175 31.2076 9.6282
30.7719 31.1549 9.6774
30.7273 31.1044 9.7254
30.6824 31.0546 9.7737
30.6358 31.0038 9.8238
30.5859 30.9503 9.8774
30.5304 30.892 9.9369
30.4666 30.8263 10.0054
30.3724 30.7581 10.0901
30.3944 30.8608 10.0176
30.4169 30.9559 9.9502
30.4399 31.0447 9.887
30.4636 31.1283 9.8274
30.488 31.2077 9.7705
30.5133 31.2834 9.7161
30.5396 31.3563 9.6635
30.5669 31.4268 9.6125
30.5954 31.4953 9.5626
30.6252 31.5625 9.5136
30.6565 31.6286 9.4651
30.6894 31.6941 9.4169
30.7242 31.7594 9.3687
30.761 31.8248 9.3202
30.8001 31.8907 9.271
30.8418 31.9577 9.2209
30.8866 32.0261 9.1695
30.9347 32.0965 9.1164
30.9869 32.1695 9.0611
31.0437 32.2457 9.003
31.106 32.3262 8.9416
31.1747 32.4117 8.876
30.3899 30.749 10.0876
30.3899 30.749 10.0876
30.3811 30.7536 10.0888
31.0612 31.9762 9.1255
31.0279 31.9234 9.1644
30.9957 31.8724 9.2022
31.0429 31.8418 9.1992
31.0128 31.8066 9.2286
30.9833 31.7723 9.2575
30.7736 31.1963 9.6531
30.7754 31.237 9.6292
30.7771 31.2771 9.6059
30.6939 31.1078 9.7378
30.7051 31.1597 9.7031
30.7161 31.2104 9.6694
30.6086 31.017 9.8279
30.6305 31.0814 9.7806
30.6517 31.1436 9.7353
31.0861 32.1189 9.0469
31.0482 32.0456 9.0967
31.0121 31.9759 9.1447
30.9775 31.9093 9.191
31.0289 31.6926 9.2806
31.001 31.6756 9.3002
30.9735 31.6589 9.3197
30.9464 31.6425 9.339
30.8578 31.2939 9.563
30.8499 31.3229 9.5501
30.8421 31.3518 9.5373
30.8344 31.3803 9.5247
30.5048 30.9114 9.9368
30.5409 30.9918 9.8728
30.5751 31.0683 9.8126
30.608 31.1416 9.7555
30.4411 30.9415 9.9477
30.4852 31.0178 9.8824
30.5271 31.0904 9.821
30.5672 31.1601 9.7628
30.4785 31.0998 9.8373
30.5157 31.1531 9.7896
30.5519 31.205 9.7437
30.5872 31.2557 9.6993
30.5196 31.243 9.7362
30.5507 31.2779 9.7027
30.5813 31.3123 9.6699
30.6115 31.3463 9.6377
30.5649 31.3755 9.6417
30.59 31.3947 9.6201
30.615 31.4138 9.5988
30.64 31.4329 9.5775
30.6147 31.5005 9.5515
30.6339 31.5057 9.5405
30.6532 31.5109 9.5294
30.6726 31.5161 9.5184
30.6696 31.6206 9.4638
30.6828 31.6126 9.4625
30.696 31.6046 9.4612
30.7093 31.5966 9.4599
30.7307 31.7382 9.3769
30.7372 31.717 9.3852
30.7437 31.6959 9.3934
30.7502 31.6748 9.4017
30.7989 31.8553 9.2892
30.7978 31.8203 9.3074
30.7967 31.7856 9.3254
30.7956 31.7512 9.3435
30.876 31.9745 9.199
30.8657 31.9241 9.2279
30.8557 31.8748 9.2565
30.8458 31.8264 9.2848
30.9642 32.0982 9.104
30.9425 32.0299 9.1455
30.9217 31.9643 9.1858
30.9015 31.9009 9.2252
31.0669 32.2298 9.0016
31.0304 32.1399 9.0583
30.996 32.0554 9.1122
30.9634 31.9752 9.164
31.103 32.202 9.0009
31.0618 32.1157 9.0577
31.023 32.0345 9.1119
30.9861 31.9576 9.1638
30.9509 31.8841 9.214
30.9051 31.3507 9.5122
30.8918 31.3732 9.5051
30.8787 31.3956 9.4982
30.8656 31.4178 9.4914
30.8527 31.4398 9.4847
31.0515 31.9093 9.1622
31.0199 31.8655 9.1963
30.9891 31.823 9.2296
30.9591 31.7815 9.2624
30.9298 31.741 9.2947
30.901 31.7012 9.3266
31.0207 31.4963 9.3869
30.9939 31.5022 9.3943
30.9675 31.508 9.4016
30.9414 31.5138 9.4089
30.9155 31.5196 9.4162
30.8899 31.5254 9.4235
30.7338 31.1516 9.6954
30.7402 31.1979 9.6663
30.7466 31.2433 9.6378
30.7528 31.2881 9.6099
30.759 31.3322 9.5827
30.7652 31.376 9.5559
30.5601 30.9671 9.8788
30.5885 31.0388 9.824
30.6157 31.1076 9.7718
30.642 31.1741 9.722
30.6675 31.2388 9.674
30.6925 31.3021 9.6276
31.0237 31.6032 9.3291
30.9966 31.5967 9.3431
30.9698 31.5903 9.357
30.9434 31.5841 9.3709
30.9172 31.5779 9.3846
30.8912 31.5718 9.3982
30.8655 31.5658 9.4118
30.4593 31.0229 9.8911
30.4999 31.087 9.8351
30.5389 31.1487 9.7818
30.5766 31.2085 9.7308
30.6134 31.2669 9.6815
30.6493 31.3241 9.6338
30.6847 31.3805 9.5873
30.5417 31.3104 9.6883
30.5698 31.3371 9.661
30.5976 31.3637 9.6341
30.6252 31.3901 9.6075
30.6527 31.4164 9.5812
30.6801 31.4426 9.5551
30.7074 31.4689 9.5292
30.6415 31.561 9.5075
30.6577 31.5596 9.5013
30.674 31.5581 9.4952
30.6904 31.5567 9.4891
30.7068 31.5552 9.4829
30.7232 31.5538 9.4768
30.7397 31.5524 9.4707
30.7638 31.7967 9.3333
30.7666 31.7687 9.3464
30.7695 31.7409 9.3595
30.7723 31.7132 9.3726
30.7752 31.6856 9.3858
30.778 31.658 9.399
30.7809 31.6305 9.4122
30.9185 32.0355 9.1522
30.9029 31.9766 9.1872
30.8877 31.9194 9.2215
30.8729 31.8637 9.2552
30.8585 31.8092 9.2884
30.8444 31.7557 9.3214
30.8304 31.703 9.3541
31.125 32.2999 8.9466
31.0793 32.1972 9.0122
31.0369 32.1019 9.0739
30.9971 32.0126 9.1326
30.9594 31.9281 9.1888
30.9234 31.8474 9.2432
30.8887 31.7698 9.2963
31.0725 32.045 9.0877
31.0371 31.9826 9.1317
31.0032 31.9227 9.1743
30.9704 31.8651 9.2158
30.9387 31.8093 9.2564
30.9078 31.755 9.2962
30.8775 31.702 9.3356
30.8479 31.65 9.3746
30.9584 31.4166 9.4545
30.939 31.4317 9.4542
30.9198 31.4465 9.4538
30.9007 31.4613 9.4535
30.8819 31.476 9.4532
30.8631 31.4906 9.453
30.8446 31.5051 9.4527
30.8261 31.5195 9.4525
30.6526 31.0634 9.7815
30.6689 31.1212 9.7408
30.6848 31.1775 9.7016
30.7003 31.2325 9.6635
30.7155 31.2865 9.6266
30.7306 31.3397 9.5905
30.7454 31.3923 9.5551
30.7602 31.4444 9.5204
30.4986 31.173 9.7858
30.5327 31.2167 9.7455
30.566 31.2594 9.7064
30.5988 31.3015 9.6683
30.6311 31.3431 9.631
30.6631 31.3843 9.5944
30.6948 31.4253 9.5584
30.7264 31.4661 9.5227
30.6993 31.6796 9.4204
30.7093 31.665 9.4238
30.7192 31.6505 9.4273
30.7292 31.6359 9.4308
30.7392 31.6214 9.4343
30.7492 31.6068 9.4378
30.7592 31.5922 9.4414
30.7693 31.5775 9.445
31.0135 32.1628 9.0539
30.9849 32.0843 9.1026
30.9577 32.0096 9.1494
30.9316 31.938 9.1948
30.9065 31.8691 9.2391
30.8822 31.8023 9.2824
30.8584 31.7371 9.3252
30.8352 31.6733 9.3676
31.0354 31.7706 9.2381
31.0065 31.7443 9.2628
30.9781 31.7185 9.2871
30.9502 31.6931 9.3112
30.9227 31.6682 9.3351
30.8955 31.6436 9.3587
30.8687 31.6194 9.3822
30.8421 31.5954 9.4056
30.8157 31.5717 9.429
30.8145 31.2431 9.6094
30.8116 31.2782 9.5909
30.8087 31.3128 9.5727
30.8058 31.3471 9.5549
30.803 31.3811 9.5372
30.8003 31.4149 9.5199
30.7975 31.4484 9.5027
30.7948 31.4818 9.4857
30.7922 31.515 9.4689
30.4238 30.855 10.0076
30.4716 30.945 9.9318
30.5164 31.0297 9.8614
30.559 31.11 9.7954
30.5997 31.1871 9.733
30.639 31.2617 9.6734
30.6773 31.3344 9.616
30.715 31.406 9.5604
30.7523 31.4771 9.5059
30.5892 31.4388 9.5962
30.6114 31.4508 9.58
30.6336 31.4628 9.5639
30.6558 31.4749 9.5478
30.6779 31.487 9.5319
30.7001 31.4991 9.5159
30.7224 31.5113 9.5
30.7447 31.5235 9.4841
30.7671 31.5358 9.4682
30.8362 31.9145 9.2445
30.8308 31.872 9.2679
30.8254 31.8302 9.2912
30.8201 31.7889 9.3142
30.8149 31.7481 9.3372
30.8097 31.7077 9.3602
30.8046 31.6675 9.3831
30.7996 31.6276 9.4061
30.7946 31.5878 9.4291
30.4392 30.847 10.0053
30.4849 30.9382 9.9298
30.5279 31.0239 9.8596
30.5687 31.1053 9.7939
30.6077 31.1832 9.7317
30.6454 31.2587 9.6723
30.6821 31.3322 9.6152
30.7182 31.4046 9.5598
30.7539 31.4764 9.5056
31.125 32.2999 8.9466
31.0793 32.1972 9.0122
31.0369 32.1019 9.0739
30.9971 32.0126 9.1326
30.9594 31.9281 9.1888
30.9234 31.8474 9.2432
30.8887 31.7698 9.2963
30.8551 31.6945 9.3486
30.8221 31.6208 9.4004
30.7896 31.5481 9.4523
30.7896 31.5481 9.4523
3 141 13 12 0.6553082872527526 0.007708930408308223 0.35962152631055255
3 141 142 13 0.6553082872527526 0.007708930408308223 0.35962152631055255
3 13 142 216 0.6553082872527526 0.007708930408308223 0.35962152631055255
3 216 143 217 0.6553082872527526 0.007708930408308223 0.35962152631055255
3 142 143 216 0.6553082872527526 0.007708930408308223 0.35962152631055255
3 223 264 319 0.6553082872527526 0.007708930408308223 0.35962152631055255
3 45 2 0 0.6553082872527526 0.007708930408308223 0.35962152631055255
3 319 264 300 0.6553082872527526 0.007708930408308223 0.35962152631055255
3 140 254 214 0.6553082872527526 0.007708930408308223 0.35962152631055255
3 213 254 140 0.6553082872527526 0.007708930408308223 0.35962152631055255
3 220 219 145 0.6553082872527526 0.007708930408308223 0.35962152631055255
3 217 143 218 0.6553082872527526 0.007708930408308223 0.35962152631055255
3 222 223 272 0.6553082872527526 0.007708930408308223 0.35962152631055255
3 272 223 273 0.6553082872527526 0.007708930408308223 0.35962152631055255
3 319 291 273 0.6553082872527526 0.007708930408308223 0.35962152631055255
3 273 223 319 0.6553082872527526 0.007708930408308223 0.35962152631055255
3 35 181 101 0.6553082872527526 0.007708930408308223 0.35962152631055255
3 102 101 181 0.6553082872527526 0.007708930408308223 0.35962152631055255
3 144 163 145 0.6553082872527526 0.007708930408308223 0.35962152631055255
3 144 218 143 0.6553082872527526 0.007708930408308223 0.35962152631055255
3 145 219 144 0.6553082872527526 0.007708930408308223 0.35962152631055255
3 219 218 144 0.6553082872527526 0.007708930408308223 0.35962152631055255
3 10 70 159 0.6553082872527526 0.007708930408308223 0.35962152631055255
3 159 12 10 0.6553082872527526 0.007708930408308223 0.35962152631055255
3 159 141 12 0.6553082872527526 0.007708930408308223 0.35962152631055255
3 9 257 69 0.6553082872527526 0.007708930408308223 0.35962152631055255
3 10 9 69 0.6553082872527526 0.007708930408308223 0.35962152631055255
3 69 70 10 0.6553082872527526 0.007708930408308223 0.35962152631055255
3 258 70 69 0.6553082872527526 0.007708930408308223 0.35962152631055255
3 69 257 258 0.6553082872527526 0.007708930408308223 0.35962152631055255
3 256 9 8 0.6553082872527526 0.007708930408308223 0.35962152631055255
3 256 257 9 0.6553082872527526 0.007708930408308223 0.35962152631055255
3 137 211 315 0.6553082872527526 0.007708930408308223 0.35962152631055255
3 198 294 295 0.6553082872527526 0.007708930408308223 0.35962152631055255
3 316 254 213 0.6553082872527526 0.007708930408308223 0.35962152631055255
3 253 198 316 0.6553082872527526 0.007708930408308223 0.35962152631055255
3 213 140 139 0.6553082872527526 0.007708930408308223 0.35962152631055255
3 259 70 258 0.6553082872527526 0.007708930408308223 0.35962152631055255
3 258 139 259 0.6553082872527526 0.007708930408308223 0.35962152631055255
3 259 139 140 0.6553082872527526 0.007708930408308223 0.35962152631055255
3 101 102 242 0.6553082872527526 0.007708930408308223 0.35962152631055255
3 193 246 300 0.6553082872527526 0.007708930408308223 0.35962152631055255
3 292 40 39 0.6553082872527526 0.007708930408308223 0.35962152631055255
3 109 39 38 0.6553082872527526 0.007708930408308223 0.35962152631055255
3 188 111 187 0.6553082872527526 0.007708930408308223 0.35962152631055255
3 38 37 187 0.6553082872527526 0.007708930408308223 0.35962152631055255
3 187 37 188 0.6553082872527526 0.007708930408308223 0.35962152631055255
3 110 109 38 0.6553082872527526 0.007708930408308223 0.35962152631055255
3 294 109 110 0.6553082872527526 0.007708930408308223 0.35962152631055255
3 38 187 110 0.6553082872527526 0.007708930408308223 0.35962152631055255
3 110 187 111 0.6553082872527526 0.007708930408308223 0.35962152631055255
3 295 294 110 0.6553082872527526 0.007708930408308223 0.35962152631055255
3 110 111 295 0.6553082872527526 0.007708930408308223 0.35962152631055255
3 134 220 221 0.6553082872527526 0.007708930408308223 0.35962152631055255
3 221 222 134 0.6553082872527526 0.007708930408308223 0.35962152631055255
3 134 222 272 0.6553082872527526 0.007708930408308223 0.35962152631055255
3 219 220 134 0.6553082872527526 0.007708930408308223 0.35962152631055255
3 301 274 47 0.6553082872527526 0.007708930408308223 0.35962152631055255
3 47 23 301 0.6553082872527526 0.007708930408308223 0.35962152631055255
3 232 28 86 0.6553082872527526 0.007708930408308223 0.35962152631055255
3 29 28 232 0.6553082872527526 0.007708930408308223 0.35962152631055255
3 85 28 27 0.6553082872527526 0.007708930408308223 0.35962152631055255
3 86 28 85 0.6553082872527526 0.007708930408308223 0.35962152631055255
3 275 26 81 0.6553082872527526 0.007708930408308223 0.35962152631055255
3 274 301 81 0.6553082872527526 0.007708930408308223 0.35962152631055255
3 24 49 25 0.6553082872527526 0.007708930408308223 0.35962152631055255
3 274 81 25 0.6553082872527526 0.007708930408308223 0.35962152631055255
3 25 81 26 0.6553082872527526 0.007708930408308223 0.35962152631055255
3 47 274 25 0.6553082872527526 0.007708930408308223 0.35962152631055255
3 25 49 47 0.6553082872527526 0.007708930408308223 0.35962152631055255
3 184 183 289 0.6553082872527526 0.007708930408308223 0.35962152631055255
3 289 288 239 0.6553082872527526 0.007708930408308223 0.35962152631055255
3 239 282 289 0.6553082872527526 0.007708930408308223 0.35962152631055255
3 182 102 181 0.6553082872527526 0.007708930408308223 0.35962152631055255
3 183 103 182 0.6553082872527526 0.007708930408308223 0.35962152631055255
3 103 102 182 0.6553082872527526 0.007708930408308223 0.35962152631055255
3 104 186 246 0.6553082872527526 0.007708930408308223 0.35962152631055255
3 104 183 184 0.6553082872527526 0.007708930408308223 0.35962152631055255
3 104 103 183 0.6553082872527526 0.007708930408308223 0.35962152631055255
3 271 134 272 0.6553082872527526 0.007708930408308223 0.35962152631055255
3 146 222 221 0.6553082872527526 0.007708930408308223 0.35962152631055255
3 146 220 145 0.6553082872527526 0.007708930408308223 0.35962152631055255
3 221 220 146 0.6553082872527526 0.007708930408308223 0.35962152631055255
3 290 273 291 0.6553082872527526 0.007708930408308223 0.35962152631055255
3 290 289 282 0.6553082872527526 0.007708930408308223 0.35962152631055255
3 272 273 290 0.6553082872527526 0.007708930408308223 0.35962152631055255
3 291 186 290 0.6553082872527526 0.007708930408308223 0.35962152631055255
3 41 194 42 0.6553082872527526 0.007708930408308223 0.35962152631055255
3 4 3 125 0.6553082872527526 0.007708930408308223 0.35962152631055255
3 2 45 201 0.6553082872527526 0.007708930408308223 0.35962152631055255
3 121 125 201 0.6553082872527526 0.007708930408308223 0.35962152631055255
3 201 45 44 0.6553082872527526 0.007708930408308223 0.35962152631055255
3 44 121 201 0.6553082872527526 0.007708930408308223 0.35962152631055255
3 201 3 2 0.6553082872527526 0.007708930408308223 0.35962152631055255
3 201 125 3 0.6553082872527526 0.007708930408308223 0.35962152631055255
3 44 43 248 0.6553082872527526 0.007708930408308223 0.35962152631055255
3 54 256 8 0.6553082872527526 0.007708930408308223 0.35962152631055255
3 8 53 54 0.6553082872527526 0.007708930408308223 0.35962152631055255
3 54 53 137 0.6553082872527526 0.007708930408308223 0.35962152631055255
3 212 315 253 0.6553082872527526 0.007708930408308223 0.35962152631055255
3 212 316 213 0.6553082872527526 0.007708930408308223 0.35962152631055255
3 253 316 212 0.6553082872527526 0.007708930408308223 0.35962152631055255
3 137 315 212 0.6553082872527526 0.007708930408308223 0.35962152631055255
3 197 315 252 0.6553082872527526 0.007708930408308223 0.35962152631055255
3 253 315 197 0.6553082872527526 0.007708930408308223 0.35962152631055255
3 295 111 296 0.6553082872527526 0.007708930408308223 0.35962152631055255
3 317 261 214 0.6553082872527526 0.007708930408308223 0.35962152631055255
3 215 261 317 0.6553082872527526 0.007708930408308223 0.35962152631055255
3 214 254 317 0.6553082872527526 0.007708930408308223 0.35962152631055255
3 105 37 36 0.6553082872527526 0.007708930408308223 0.35962152631055255
3 36 106 105 0.6553082872527526 0.007708930408308223 0.35962152631055255
3 191 297 190 0.6553082872527526 0.007708930408308223 0.35962152631055255
3 107 108 191 0.6553082872527526 0.007708930408308223 0.35962152631055255
3 191 190 107 0.6553082872527526 0.007708930408308223 0.35962152631055255
3 107 190 106 0.6553082872527526 0.007708930408308223 0.35962152631055255
3 107 106 36 0.6553082872527526 0.007708930408308223 0.35962152631055255
3 241 242 108 0.6553082872527526 0.007708930408308223 0.35962152631055255
3 108 107 241 0.6553082872527526 0.007708930408308223 0.35962152631055255
3 35 101 241 0.6553082872527526 0.007708930408308223 0.35962152631055255
3 101 242 241 0.6553082872527526 0.007708930408308223 0.35962152631055255
3 243 102 103 0.6553082872527526 0.007708930408308223 0.35962152631055255
3 243 242 102 0.6553082872527526 0.007708930408308223 0.35962152631055255
3 243 104 244 0.6553082872527526 0.007708930408308223 0.35962152631055255
3 103 104 243 0.6553082872527526 0.007708930408308223 0.35962152631055255
3 108 242 243 0.6553082872527526 0.007708930408308223 0.35962152631055255
3 244 193 243 0.6553082872527526 0.007708930408308223 0.35962152631055255
3 191 108 192 0.6553082872527526 0.007708930408308223 0.35962152631055255
3 108 243 192 0.6553082872527526 0.007708930408308223 0.35962152631055255
3 192 243 193 0.6553082872527526 0.007708930408308223 0.35962152631055255
3 205 251 129 0.6553082872527526 0.007708930408308223 0.35962152631055255
3 252 315 129 0.6553082872527526 0.007708930408308223 0.35962152631055255
3 129 315 211 0.6553082872527526 0.007708930408308223 0.35962152631055255
3 41 40 113 0.6553082872527526 0.007708930408308223 0.35962152631055255
3 133 218 219 0.6553082872527526 0.007708930408308223 0.35962152631055255
3 219 134 133 0.6553082872527526 0.007708930408308223 0.35962152631055255
3 239 288 179 0.6553082872527526 0.007708930408308223 0.35962152631055255
3 179 238 239 0.6553082872527526 0.007708930408308223 0.35962152631055255
3 178 238 179 0.6553082872527526 0.007708930408308223 0.35962152631055255
3 283 33 32 0.6553082872527526 0.007708930408308223 0.35962152631055255
3 168 232 86 0.6553082872527526 0.007708930408308223 0.35962152631055255
3 77 301 23 0.6553082872527526 0.007708930408308223 0.35962152631055255
3 77 81 301 0.6553082872527526 0.007708930408308223 0.35962152631055255
3 166 26 275 0.6553082872527526 0.007708930408308223 0.35962152631055255
3 275 82 166 0.6553082872527526 0.007708930408308223 0.35962152631055255
3 27 26 166 0.6553082872527526 0.007708930408308223 0.35962152631055255
3 166 82 27 0.6553082872527526 0.007708930408308223 0.35962152631055255
3 276 82 78 0.6553082872527526 0.007708930408308223 0.35962152631055255
3 167 82 276 0.6553082872527526 0.007708930408308223 0.35962152631055255
3 167 85 27 0.6553082872527526 0.007708930408308223 0.35962152631055255
3 27 82 167 0.6553082872527526 0.007708930408308223 0.35962152631055255
3 34 99 180 0.6553082872527526 0.007708930408308223 0.35962152631055255
3 180 99 181 0.6553082872527526 0.007708930408308223 0.35962152631055255
3 35 34 180 0.6553082872527526 0.007708930408308223 0.35962152631055255
3 180 181 35 0.6553082872527526 0.007708930408308223 0.35962152631055255
3 100 182 181 0.6553082872527526 0.007708930408308223 0.35962152631055255
3 181 99 100 0.6553082872527526 0.007708930408308223 0.35962152631055255
3 183 182 100 0.6553082872527526 0.007708930408308223 0.35962152631055255
3 100 289 183 0.6553082872527526 0.007708930408308223 0.35962152631055255
3 288 289 100 0.6553082872527526 0.007708930408308223 0.35962152631055255
3 33 283 284 0.6553082872527526 0.007708930408308223 0.35962152631055255
3 285 96 178 0.6553082872527526 0.007708930408308223 0.35962152631055255
3 285 284 96 0.6553082872527526 0.007708930408308223 0.35962152631055255
3 33 284 285 0.6553082872527526 0.007708930408308223 0.35962152631055255
3 246 186 247 0.6553082872527526 0.007708930408308223 0.35962152631055255
3 319 300 247 0.6553082872527526 0.007708930408308223 0.35962152631055255
3 300 246 247 0.6553082872527526 0.007708930408308223 0.35962152631055255
3 247 291 319 0.6553082872527526 0.007708930408308223 0.35962152631055255
3 247 186 291 0.6553082872527526 0.007708930408308223 0.35962152631055255
3 244 104 245 0.6553082872527526 0.007708930408308223 0.35962152631055255
3 245 104 246 0.6553082872527526 0.007708930408308223 0.35962152631055255
3 245 193 244 0.6553082872527526 0.007708930408308223 0.35962152631055255
3 246 193 245 0.6553082872527526 0.007708930408308223 0.35962152631055255
3 231 282 239 0.6553082872527526 0.007708930408308223 0.35962152631055255
3 272 290 309 0.6553082872527526 0.007708930408308223 0.35962152631055255
3 309 290 282 0.6553082872527526 0.007708930408308223 0.35962152631055255
3 309 271 272 0.6553082872527526 0.007708930408308223 0.35962152631055255
3 282 231 309 0.6553082872527526 0.007708930408308223 0.35962152631055255
3 309 231 271 0.6553082872527526 0.007708930408308223 0.35962152631055255
3 185 290 186 0.6553082872527526 0.007708930408308223 0.35962152631055255
3 185 104 184 0.6553082872527526 0.007708930408308223 0.35962152631055255
3 186 104 185 0.6553082872527526 0.007708930408308223 0.35962152631055255
3 184 289 185 0.6553082872527526 0.007708930408308223 0.35962152631055255
3 289 290 185 0.6553082872527526 0.007708930408308223 0.35962152631055255
3 269 152 268 0.6553082872527526 0.007708930408308223 0.35962152631055255
3 268 152 151 0.6553082872527526 0.007708930408308223 0.35962152631055255
3 123 203 249 0.6553082872527526 0.007708930408308223 0.35962152631055255
3 6 5 50 0.6553082872527526 0.007708930408308223 0.35962152631055255
3 7 53 8 0.6553082872527526 0.007708930408308223 0.35962152631055255
3 202 121 44 0.6553082872527526 0.007708930408308223 0.35962152631055255
3 44 248 202 0.6553082872527526 0.007708930408308223 0.35962152631055255
3 202 125 121 0.6553082872527526 0.007708930408308223 0.35962152631055255
3 263 300 264 0.6553082872527526 0.007708930408308223 0.35962152631055255
3 263 318 300 0.6553082872527526 0.007708930408308223 0.35962152631055255
3 299 193 300 0.6553082872527526 0.007708930408308223 0.35962152631055255
3 300 318 299 0.6553082872527526 0.007708930408308223 0.35962152631055255
3 299 192 193 0.6553082872527526 0.007708930408308223 0.35962152631055255
3 213 139 138 0.6553082872527526 0.007708930408308223 0.35962152631055255
3 138 212 213 0.6553082872527526 0.007708930408308223 0.35962152631055255
3 138 139 258 0.6553082872527526 0.007708930408308223 0.35962152631055255
3 137 212 138 0.6553082872527526 0.007708930408308223 0.35962152631055255
3 294 198 116 0.6553082872527526 0.007708930408308223 0.35962152631055255
3 116 198 253 0.6553082872527526 0.007708930408308223 0.35962152631055255
3 253 197 116 0.6553082872527526 0.007708930408308223 0.35962152631055255
3 293 292 39 0.6553082872527526 0.007708930408308223 0.35962152631055255
3 39 109 293 0.6553082872527526 0.007708930408308223 0.35962152631055255
3 293 109 294 0.6553082872527526 0.007708930408308223 0.35962152631055255
3 294 116 293 0.6553082872527526 0.007708930408308223 0.35962152631055255
3 295 296 199 0.6553082872527526 0.007708930408308223 0.35962152631055255
3 199 296 254 0.6553082872527526 0.007708930408308223 0.35962152631055255
3 254 316 199 0.6553082872527526 0.007708930408308223 0.35962152631055255
3 199 198 295 0.6553082872527526 0.007708930408308223 0.35962152631055255
3 199 316 198 0.6553082872527526 0.007708930408308223 0.35962152631055255
3 215 317 255 0.6553082872527526 0.007708930408308223 0.35962152631055255
3 142 141 160 0.6553082872527526 0.007708930408308223 0.35962152631055255
3 141 159 160 0.6553082872527526 0.007708930408308223 0.35962152631055255
3 70 259 71 0.6553082872527526 0.007708930408308223 0.35962152631055255
3 72 160 71 0.6553082872527526 0.007708930408308223 0.35962152631055255
3 71 159 70 0.6553082872527526 0.007708930408308223 0.35962152631055255
3 71 160 159 0.6553082872527526 0.007708930408308223 0.35962152631055255
3 261 72 260 0.6553082872527526 0.007708930408308223 0.35962152631055255
3 260 140 214 0.6553082872527526 0.007708930408308223 0.35962152631055255
3 214 261 260 0.6553082872527526 0.007708930408308223 0.35962152631055255
3 260 259 140 0.6553082872527526 0.007708930408308223 0.35962152631055255
3 260 71 259 0.6553082872527526 0.007708930408308223 0.35962152631055255
3 72 71 260 0.6553082872527526 0.007708930408308223 0.35962152631055255
3 297 296 112 0.6553082872527526 0.007708930408308223 0.35962152631055255
3 112 111 188 0.6553082872527526 0.007708930408308223 0.35962152631055255
3 112 296 111 0.6553082872527526 0.007708930408308223 0.35962152631055255
3 240 107 36 0.6553082872527526 0.007708930408308223 0.35962152631055255
3 240 241 107 0.6553082872527526 0.007708930408308223 0.35962152631055255
3 240 36 35 0.6553082872527526 0.007708930408308223 0.35962152631055255
3 35 241 240 0.6553082872527526 0.007708930408308223 0.35962152631055255
3 40 292 114 0.6553082872527526 0.007708930408308223 0.35962152631055255
3 114 113 40 0.6553082872527526 0.007708930408308223 0.35962152631055255
3 196 113 114 0.6553082872527526 0.007708930408308223 0.35962152631055255
3 120 197 252 0.6553082872527526 0.007708930408308223 0.35962152631055255
3 252 129 120 0.6553082872527526 0.007708930408308223 0.35962152631055255
3 196 114 120 0.6553082872527526 0.007708930408308223 0.35962152631055255
3 120 129 251 0.6553082872527526 0.007708930408308223 0.35962152631055255
3 251 196 120 0.6553082872527526 0.007708930408308223 0.35962152631055255
3 131 216 217 0.6553082872527526 0.007708930408308223 0.35962152631055255
3 134 271 270 0.6553082872527526 0.007708930408308223 0.35962152631055255
3 270 133 134 0.6553082872527526 0.007708930408308223 0.35962152631055255
3 271 231 270 0.6553082872527526 0.007708930408308223 0.35962152631055255
3 270 231 230 0.6553082872527526 0.007708930408308223 0.35962152631055255
3 230 152 270 0.6553082872527526 0.007708930408308223 0.35962152631055255
3 270 152 269 0.6553082872527526 0.007708930408308223 0.35962152631055255
3 287 179 288 0.6553082872527526 0.007708930408308223 0.35962152631055255
3 288 100 287 0.6553082872527526 0.007708930408308223 0.35962152631055255
3 287 100 99 0.6553082872527526 0.007708930408308223 0.35962152631055255
3 178 179 287 0.6553082872527526 0.007708930408308223 0.35962152631055255
3 32 31 93 0.6553082872527526 0.007708930408308223 0.35962152631055255
3 31 174 93 0.6553082872527526 0.007708930408308223 0.35962152631055255
3 19 18 59 0.6553082872527526 0.007708930408308223 0.35962152631055255
3 277 168 86 0.6553082872527526 0.007708930408308223 0.35962152631055255
3 168 277 84 0.6553082872527526 0.007708930408308223 0.35962152631055255
3 89 30 29 0.6553082872527526 0.007708930408308223 0.35962152631055255
3 22 77 23 0.6553082872527526 0.007708930408308223 0.35962152631055255
3 275 81 302 0.6553082872527526 0.007708930408308223 0.35962152631055255
3 81 77 302 0.6553082872527526 0.007708930408308223 0.35962152631055255
3 302 82 275 0.6553082872527526 0.007708930408308223 0.35962152631055255
3 302 78 82 0.6553082872527526 0.007708930408308223 0.35962152631055255
3 276 78 303 0.6553082872527526 0.007708930408308223 0.35962152631055255
3 98 99 34 0.6553082872527526 0.007708930408308223 0.35962152631055255
3 66 203 123 0.6553082872527526 0.007708930408308223 0.35962152631055255
3 123 127 66 0.6553082872527526 0.007708930408308223 0.35962152631055255
3 66 209 50 0.6553082872527526 0.007708930408308223 0.35962152631055255
3 127 209 66 0.6553082872527526 0.007708930408308223 0.35962152631055255
3 43 42 117 0.6553082872527526 0.007708930408308223 0.35962152631055255
3 42 249 117 0.6553082872527526 0.007708930408308223 0.35962152631055255
3 194 250 118 0.6553082872527526 0.007708930408308223 0.35962152631055255
3 118 42 194 0.6553082872527526 0.007708930408308223 0.35962152631055255
3 123 249 118 0.6553082872527526 0.007708930408308223 0.35962152631055255
3 118 249 42 0.6553082872527526 0.007708930408308223 0.35962152631055255
3 67 209 313 0.6553082872527526 0.007708930408308223 0.35962152631055255
3 313 209 127 0.6553082872527526 0.007708930408308223 0.35962152631055255
3 313 127 123 0.6553082872527526 0.007708930408308223 0.35962152631055255
3 123 118 313 0.6553082872527526 0.007708930408308223 0.35962152631055255
3 313 118 250 0.6553082872527526 0.007708930408308223 0.35962152631055255
3 119 196 251 0.6553082872527526 0.007708930408308223 0.35962152631055255
3 51 209 67 0.6553082872527526 0.007708930408308223 0.35962152631055255
3 51 6 50 0.6553082872527526 0.007708930408308223 0.35962152631055255
3 50 209 51 0.6553082872527526 0.007708930408308223 0.35962152631055255
3 4 125 65 0.6553082872527526 0.007708930408308223 0.35962152631055255
3 125 202 65 0.6553082872527526 0.007708930408308223 0.35962152631055255
3 122 202 248 0.6553082872527526 0.007708930408308223 0.35962152631055255
3 203 126 122 0.6553082872527526 0.007708930408308223 0.35962152631055255
3 122 65 202 0.6553082872527526 0.007708930408308223 0.35962152631055255
3 126 65 122 0.6553082872527526 0.007708930408308223 0.35962152631055255
3 122 248 43 0.6553082872527526 0.007708930408308223 0.35962152631055255
3 43 117 122 0.6553082872527526 0.007708930408308223 0.35962152631055255
3 122 249 203 0.6553082872527526 0.007708930408308223 0.35962152631055255
3 122 117 249 0.6553082872527526 0.007708930408308223 0.35962152631055255
3 165 263 264 0.6553082872527526 0.007708930408308223 0.35962152631055255
3 264 223 165 0.6553082872527526 0.007708930408308223 0.35962152631055255
3 223 222 165 0.6553082872527526 0.007708930408308223 0.35962152631055255
3 222 146 165 0.6553082872527526 0.007708930408308223 0.35962152631055255
3 163 261 262 0.6553082872527526 0.007708930408308223 0.35962152631055255
3 262 261 215 0.6553082872527526 0.007708930408308223 0.35962152631055255
3 215 318 262 0.6553082872527526 0.007708930408308223 0.35962152631055255
3 318 263 262 0.6553082872527526 0.007708930408308223 0.35962152631055255
3 258 257 55 0.6553082872527526 0.007708930408308223 0.35962152631055255
3 55 138 258 0.6553082872527526 0.007708930408308223 0.35962152631055255
3 257 256 55 0.6553082872527526 0.007708930408308223 0.35962152631055255
3 256 54 55 0.6553082872527526 0.007708930408308223 0.35962152631055255
3 55 54 137 0.6553082872527526 0.007708930408308223 0.35962152631055255
3 137 138 55 0.6553082872527526 0.007708930408308223 0.35962152631055255
3 115 116 197 0.6553082872527526 0.007708930408308223 0.35962152631055255
3 115 293 116 0.6553082872527526 0.007708930408308223 0.35962152631055255
3 292 293 115 0.6553082872527526 0.007708930408308223 0.35962152631055255
3 115 114 292 0.6553082872527526 0.007708930408308223 0.35962152631055255
3 197 120 115 0.6553082872527526 0.007708930408308223 0.35962152631055255
3 115 120 114 0.6553082872527526 0.007708930408308223 0.35962152631055255
3 297 255 200 0.6553082872527526 0.007708930408308223 0.35962152631055255
3 200 255 317 0.6553082872527526 0.007708930408308223 0.35962152631055255
3 200 317 254 0.6553082872527526 0.007708930408308223 0.35962152631055255
3 254 296 200 0.6553082872527526 0.007708930408308223 0.35962152631055255
3 200 296 297 0.6553082872527526 0.007708930408308223 0.35962152631055255
3 192 299 298 0.6553082872527526 0.007708930408308223 0.35962152631055255
3 191 192 298 0.6553082872527526 0.007708930408308223 0.35962152631055255
3 298 299 318 0.6553082872527526 0.007708930408308223 0.35962152631055255
3 298 297 191 0.6553082872527526 0.007708930408308223 0.35962152631055255
3 298 255 297 0.6553082872527526 0.007708930408308223 0.35962152631055255
3 298 318 215 0.6553082872527526 0.007708930408308223 0.35962152631055255
3 215 255 298 0.6553082872527526 0.007708930408308223 0.35962152631055255
3 161 160 72 0.6553082872527526 0.007708930408308223 0.35962152631055255
3 161 143 142 0.6553082872527526 0.007708930408308223 0.35962152631055255
3 142 160 161 0.6553082872527526 0.007708930408308223 0.35962152631055255
3 189 190 297 0.6553082872527526 0.007708930408308223 0.35962152631055255
3 297 112 189 0.6553082872527526 0.007708930408308223 0.35962152631055255
3 189 112 188 0.6553082872527526 0.007708930408308223 0.35962152631055255
3 188 37 189 0.6553082872527526 0.007708930408308223 0.35962152631055255
3 37 105 189 0.6553082872527526 0.007708930408308223 0.35962152631055255
3 189 105 106 0.6553082872527526 0.007708930408308223 0.35962152631055255
3 106 190 189 0.6553082872527526 0.007708930408308223 0.35962152631055255
3 13 216 130 0.6553082872527526 0.007708930408308223 0.35962152631055255
3 216 131 130 0.6553082872527526 0.007708930408308223 0.35962152631055255
3 14 13 130 0.6553082872527526 0.007708930408308223 0.35962152631055255
3 130 74 14 0.6553082872527526 0.007708930408308223 0.35962152631055255
3 76 270 269 0.6553082872527526 0.007708930408308223 0.35962152631055255
3 133 270 76 0.6553082872527526 0.007708930408308223 0.35962152631055255
3 286 285 178 0.6553082872527526 0.007708930408308223 0.35962152631055255
3 178 287 286 0.6553082872527526 0.007708930408308223 0.35962152631055255
3 286 98 285 0.6553082872527526 0.007708930408308223 0.35962152631055255
3 286 287 99 0.6553082872527526 0.007708930408308223 0.35962152631055255
3 99 98 286 0.6553082872527526 0.007708930408308223 0.35962152631055255
3 56 148 17 0.6553082872527526 0.007708930408308223 0.35962152631055255
3 15 266 265 0.6553082872527526 0.007708930408308223 0.35962152631055255
3 147 18 17 0.6553082872527526 0.007708930408308223 0.35962152631055255
3 17 148 147 0.6553082872527526 0.007708930408308223 0.35962152631055255
3 225 63 224 0.6553082872527526 0.007708930408308223 0.35962152631055255
3 19 59 224 0.6553082872527526 0.007708930408308223 0.35962152631055255
3 224 59 225 0.6553082872527526 0.007708930408308223 0.35962152631055255
3 304 277 79 0.6553082872527526 0.007708930408308223 0.35962152631055255
3 80 84 304 0.6553082872527526 0.007708930408308223 0.35962152631055255
3 304 84 277 0.6553082872527526 0.007708930408308223 0.35962152631055255
3 79 277 83 0.6553082872527526 0.007708930408308223 0.35962152631055255
3 83 303 79 0.6553082872527526 0.007708930408308223 0.35962152631055255
3 83 277 86 0.6553082872527526 0.007708930408308223 0.35962152631055255
3 83 167 276 0.6553082872527526 0.007708930408308223 0.35962152631055255
3 276 303 83 0.6553082872527526 0.007708930408308223 0.35962152631055255
3 86 85 83 0.6553082872527526 0.007708930408308223 0.35962152631055255
3 85 167 83 0.6553082872527526 0.007708930408308223 0.35962152631055255
3 233 89 29 0.6553082872527526 0.007708930408308223 0.35962152631055255
3 29 232 233 0.6553082872527526 0.007708930408308223 0.35962152631055255
3 21 62 153 0.6553082872527526 0.007708930408308223 0.35962152631055255
3 153 62 78 0.6553082872527526 0.007708930408308223 0.35962152631055255
3 153 22 21 0.6553082872527526 0.007708930408308223 0.35962152631055255
3 77 22 153 0.6553082872527526 0.007708930408308223 0.35962152631055255
3 153 302 77 0.6553082872527526 0.007708930408308223 0.35962152631055255
3 78 302 153 0.6553082872527526 0.007708930408308223 0.35962152631055255
3 20 62 21 0.6553082872527526 0.007708930408308223 0.35962152631055255
3 19 224 20 0.6553082872527526 0.007708930408308223 0.35962152631055255
3 20 224 62 0.6553082872527526 0.007708930408308223 0.35962152631055255
3 154 303 78 0.6553082872527526 0.007708930408308223 0.35962152631055255
3 78 62 154 0.6553082872527526 0.007708930408308223 0.35962152631055255
3 79 303 154 0.6553082872527526 0.007708930408308223 0.35962152631055255
3 154 63 79 0.6553082872527526 0.007708930408308223 0.35962152631055255
3 154 224 63 0.6553082872527526 0.007708930408308223 0.35962152631055255
3 62 224 154 0.6553082872527526 0.007708930408308223 0.35962152631055255
3 33 285 97 0.6553082872527526 0.007708930408308223 0.35962152631055255
3 285 98 97 0.6553082872527526 0.007708930408308223 0.35962152631055255
3 34 33 97 0.6553082872527526 0.007708930408308223 0.35962152631055255
3 97 98 34 0.6553082872527526 0.007708930408308223 0.35962152631055255
3 170 235 88 0.6553082872527526 0.007708930408308223 0.35962152631055255
3 238 172 281 0.6553082872527526 0.007708930408308223 0.35962152631055255
3 239 238 281 0.6553082872527526 0.007708930408308223 0.35962152631055255
3 229 152 230 0.6553082872527526 0.007708930408308223 0.35962152631055255
3 151 152 229 0.6553082872527526 0.007708930408308223 0.35962152631055255
3 229 172 307 0.6553082872527526 0.007708930408308223 0.35962152631055255
3 305 157 306 0.6553082872527526 0.007708930408308223 0.35962152631055255
3 305 170 88 0.6553082872527526 0.007708930408308223 0.35962152631055255
3 306 157 158 0.6553082872527526 0.007708930408308223 0.35962152631055255
3 158 229 307 0.6553082872527526 0.007708930408308223 0.35962152631055255
3 228 229 158 0.6553082872527526 0.007708930408308223 0.35962152631055255
3 157 227 158 0.6553082872527526 0.007708930408308223 0.35962152631055255
3 158 227 228 0.6553082872527526 0.007708930408308223 0.35962152631055255
3 208 65 126 0.6553082872527526 0.007708930408308223 0.35962152631055255
3 50 5 208 0.6553082872527526 0.007708930408308223 0.35962152631055255
3 208 66 50 0.6553082872527526 0.007708930408308223 0.35962152631055255
3 208 126 203 0.6553082872527526 0.007708930408308223 0.35962152631055255
3 203 66 208 0.6553082872527526 0.007708930408308223 0.35962152631055255
3 208 5 4 0.6553082872527526 0.007708930408308223 0.35962152631055255
3 4 65 208 0.6553082872527526 0.007708930408308223 0.35962152631055255
3 195 194 41 0.6553082872527526 0.007708930408308223 0.35962152631055255
3 41 113 195 0.6553082872527526 0.007708930408308223 0.35962152631055255
3 195 250 194 0.6553082872527526 0.007708930408308223 0.35962152631055255
3 195 119 250 0.6553082872527526 0.007708930408308223 0.35962152631055255
3 195 113 196 0.6553082872527526 0.007708930408308223 0.35962152631055255
3 196 119 195 0.6553082872527526 0.007708930408308223 0.35962152631055255
3 250 119 124 0.6553082872527526 0.007708930408308223 0.35962152631055255
3 124 251 205 0.6553082872527526 0.007708930408308223 0.35962152631055255
3 124 119 251 0.6553082872527526 0.007708930408308223 0.35962152631055255
3 67 313 124 0.6553082872527526 0.007708930408308223 0.35962152631055255
3 124 313 250 0.6553082872527526 0.007708930408308223 0.35962152631055255
3 205 129 68 0.6553082872527526 0.007708930408308223 0.35962152631055255
3 68 129 211 0.6553082872527526 0.007708930408308223 0.35962152631055255
3 135 7 6 0.6553082872527526 0.007708930408308223 0.35962152631055255
3 6 51 135 0.6553082872527526 0.007708930408308223 0.35962152631055255
3 163 262 164 0.6553082872527526 0.007708930408308223 0.35962152631055255
3 164 165 146 0.6553082872527526 0.007708930408308223 0.35962152631055255
3 263 165 164 0.6553082872527526 0.007708930408308223 0.35962152631055255
3 164 262 263 0.6553082872527526 0.007708930408308223 0.35962152631055255
3 145 163 164 0.6553082872527526 0.007708930408308223 0.35962152631055255
3 164 146 145 0.6553082872527526 0.007708930408308223 0.35962152631055255
3 162 161 72 0.6553082872527526 0.007708930408308223 0.35962152631055255
3 162 261 163 0.6553082872527526 0.007708930408308223 0.35962152631055255
3 162 72 261 0.6553082872527526 0.007708930408308223 0.35962152631055255
3 163 144 162 0.6553082872527526 0.007708930408308223 0.35962152631055255
3 162 144 143 0.6553082872527526 0.007708930408308223 0.35962152631055255
3 143 161 162 0.6553082872527526 0.007708930408308223 0.35962152631055255
3 74 130 75 0.6553082872527526 0.007708930408308223 0.35962152631055255
3 75 130 131 0.6553082872527526 0.007708930408308223 0.35962152631055255
3 131 76 75 0.6553082872527526 0.007708930408308223 0.35962152631055255
3 75 268 74 0.6553082872527526 0.007708930408308223 0.35962152631055255
3 269 268 75 0.6553082872527526 0.007708930408308223 0.35962152631055255
3 75 76 269 0.6553082872527526 0.007708930408308223 0.35962152631055255
3 133 76 132 0.6553082872527526 0.007708930408308223 0.35962152631055255
3 132 76 131 0.6553082872527526 0.007708930408308223 0.35962152631055255
3 132 131 217 0.6553082872527526 0.007708930408308223 0.35962152631055255
3 217 218 132 0.6553082872527526 0.007708930408308223 0.35962152631055255
3 218 133 132 0.6553082872527526 0.007708930408308223 0.35962152631055255
3 175 93 174 0.6553082872527526 0.007708930408308223 0.35962152631055255
3 307 172 280 0.6553082872527526 0.007708930408308223 0.35962152631055255
3 280 158 307 0.6553082872527526 0.007708930408308223 0.35962152631055255
3 306 158 171 0.6553082872527526 0.007708930408308223 0.35962152631055255
3 171 280 236 0.6553082872527526 0.007708930408308223 0.35962152631055255
3 158 280 171 0.6553082872527526 0.007708930408308223 0.35962152631055255
3 96 284 95 0.6553082872527526 0.007708930408308223 0.35962152631055255
3 95 284 283 0.6553082872527526 0.007708930408308223 0.35962152631055255
3 267 268 151 0.6553082872527526 0.007708930408308223 0.35962152631055255
3 74 268 267 0.6553082872527526 0.007708930408308223 0.35962152631055255
3 16 56 17 0.6553082872527526 0.007708930408308223 0.35962152631055255
3 16 15 265 0.6553082872527526 0.007708930408308223 0.35962152631055255
3 265 57 16 0.6553082872527526 0.007708930408308223 0.35962152631055255
3 16 57 56 0.6553082872527526 0.007708930408308223 0.35962152631055255
3 266 15 73 0.6553082872527526 0.007708930408308223 0.35962152631055255
3 74 267 73 0.6553082872527526 0.007708930408308223 0.35962152631055255
3 73 267 266 0.6553082872527526 0.007708930408308223 0.35962152631055255
3 14 74 73 0.6553082872527526 0.007708930408308223 0.35962152631055255
3 73 15 14 0.6553082872527526 0.007708930408308223 0.35962152631055255
3 226 227 157 0.6553082872527526 0.007708930408308223 0.35962152631055255
3 79 63 155 0.6553082872527526 0.007708930408308223 0.35962152631055255
3 155 304 79 0.6553082872527526 0.007708930408308223 0.35962152631055255
3 80 304 155 0.6553082872527526 0.007708930408308223 0.35962152631055255
3 155 63 225 0.6553082872527526 0.007708930408308223 0.35962152631055255
3 155 64 80 0.6553082872527526 0.007708930408308223 0.35962152631055255
3 225 64 155 0.6553082872527526 0.007708930408308223 0.35962152631055255
3 87 84 169 0.6553082872527526 0.007708930408308223 0.35962152631055255
3 168 84 87 0.6553082872527526 0.007708930408308223 0.35962152631055255
3 232 168 87 0.6553082872527526 0.007708930408308223 0.35962152631055255
3 87 233 232 0.6553082872527526 0.007708930408308223 0.35962152631055255
3 173 91 174 0.6553082872527526 0.007708930408308223 0.35962152631055255
3 31 30 173 0.6553082872527526 0.007708930408308223 0.35962152631055255
3 173 174 31 0.6553082872527526 0.007708930408308223 0.35962152631055255
3 88 235 90 0.6553082872527526 0.007708930408308223 0.35962152631055255
3 235 91 90 0.6553082872527526 0.007708930408308223 0.35962152631055255
3 91 173 90 0.6553082872527526 0.007708930408308223 0.35962152631055255
3 90 173 30 0.6553082872527526 0.007708930408308223 0.35962152631055255
3 30 89 90 0.6553082872527526 0.007708930408308223 0.35962152631055255
3 308 231 239 0.6553082872527526 0.007708930408308223 0.35962152631055255
3 239 281 308 0.6553082872527526 0.007708930408308223 0.35962152631055255
3 230 231 308 0.6553082872527526 0.007708930408308223 0.35962152631055255
3 308 229 230 0.6553082872527526 0.007708930408308223 0.35962152631055255
3 308 281 172 0.6553082872527526 0.007708930408308223 0.35962152631055255
3 172 229 308 0.6553082872527526 0.007708930408308223 0.35962152631055255
3 278 84 80 0.6553082872527526 0.007708930408308223 0.35962152631055255
3 80 305 278 0.6553082872527526 0.007708930408308223 0.35962152631055255
3 169 84 278 0.6553082872527526 0.007708930408308223 0.35962152631055255
3 278 88 169 0.6553082872527526 0.007708930408308223 0.35962152631055255
3 278 305 88 0.6553082872527526 0.007708930408308223 0.35962152631055255
3 128 51 67 0.6553082872527526 0.007708930408308223 0.35962152631055255
3 67 124 128 0.6553082872527526 0.007708930408308223 0.35962152631055255
3 128 124 205 0.6553082872527526 0.007708930408308223 0.35962152631055255
3 52 68 211 0.6553082872527526 0.007708930408308223 0.35962152631055255
3 52 211 137 0.6553082872527526 0.007708930408308223 0.35962152631055255
3 92 175 174 0.6553082872527526 0.007708930408308223 0.35962152631055255
3 236 175 92 0.6553082872527526 0.007708930408308223 0.35962152631055255
3 174 91 92 0.6553082872527526 0.007708930408308223 0.35962152631055255
3 92 91 235 0.6553082872527526 0.007708930408308223 0.35962152631055255
3 235 171 92 0.6553082872527526 0.007708930408308223 0.35962152631055255
3 92 171 236 0.6553082872527526 0.007708930408308223 0.35962152631055255
3 32 93 94 0.6553082872527526 0.007708930408308223 0.35962152631055255
3 93 175 94 0.6553082872527526 0.007708930408308223 0.35962152631055255
3 94 283 32 0.6553082872527526 0.007708930408308223 0.35962152631055255
3 94 95 283 0.6553082872527526 0.007708930408308223 0.35962152631055255
3 306 171 279 0.6553082872527526 0.007708930408308223 0.35962152631055255
3 279 171 235 0.6553082872527526 0.007708930408308223 0.35962152631055255
3 235 170 279 0.6553082872527526 0.007708930408308223 0.35962152631055255
3 279 305 306 0.6553082872527526 0.007708930408308223 0.35962152631055255
3 170 305 279 0.6553082872527526 0.007708930408308223 0.35962152631055255
3 96 95 177 0.6553082872527526 0.007708930408308223 0.35962152631055255
3 177 172 238 0.6553082872527526 0.007708930408308223 0.35962152631055255
3 178 96 177 0.6553082872527526 0.007708930408308223 0.35962152631055255
3 177 238 178 0.6553082872527526 0.007708930408308223 0.35962152631055255
3 176 175 236 0.6553082872527526 0.007708930408308223 0.35962152631055255
3 176 94 175 0.6553082872527526 0.007708930408308223 0.35962152631055255
3 95 94 176 0.6553082872527526 0.007708930408308223 0.35962152631055255
3 176 177 95 0.6553082872527526 0.007708930408308223 0.35962152631055255
3 265 266 58 0.6553082872527526 0.007708930408308223 0.35962152631055255
3 58 57 265 0.6553082872527526 0.007708930408308223 0.35962152631055255
3 58 267 151 0.6553082872527526 0.007708930408308223 0.35962152631055255
3 266 267 58 0.6553082872527526 0.007708930408308223 0.35962152631055255
3 228 227 149 0.6553082872527526 0.007708930408308223 0.35962152631055255
3 57 58 149 0.6553082872527526 0.007708930408308223 0.35962152631055255
3 148 56 149 0.6553082872527526 0.007708930408308223 0.35962152631055255
3 56 57 149 0.6553082872527526 0.007708930408308223 0.35962152631055255
3 64 226 156 0.6553082872527526 0.007708930408308223 0.35962152631055255
3 80 64 156 0.6553082872527526 0.007708930408308223 0.35962152631055255
3 156 305 80 0.6553082872527526 0.007708930408308223 0.35962152631055255
3 157 305 156 0.6553082872527526 0.007708930408308223 0.35962152631055255
3 156 226 157 0.6553082872527526 0.007708930408308223 0.35962152631055255
3 60 64 225 0.6553082872527526 0.007708930408308223 0.35962152631055255
3 60 226 64 0.6553082872527526 0.007708930408308223 0.35962152631055255
3 225 59 60 0.6553082872527526 0.007708930408308223 0.35962152631055255
3 60 59 18 0.6553082872527526 0.007708930408308223 0.35962152631055255
3 18 147 60 0.6553082872527526 0.007708930408308223 0.35962152631055255
3 60 147 148 0.6553082872527526 0.007708930408308223 0.35962152631055255
3 227 226 61 0.6553082872527526 0.007708930408308223 0.35962152631055255
3 148 149 61 0.6553082872527526 0.007708930408308223 0.35962152631055255
3 61 149 227 0.6553082872527526 0.007708930408308223 0.35962152631055255
3 61 60 148 0.6553082872527526 0.007708930408308223 0.35962152631055255
3 226 60 61 0.6553082872527526 0.007708930408308223 0.35962152631055255
3 88 90 234 0.6553082872527526 0.007708930408308223 0.35962152631055255
3 234 90 89 0.6553082872527526 0.007708930408308223 0.35962152631055255
3 169 88 234 0.6553082872527526 0.007708930408308223 0.35962152631055255
3 89 233 234 0.6553082872527526 0.007708930408308223 0.35962152631055255
3 234 87 169 0.6553082872527526 0.007708930408308223 0.35962152631055255
3 233 87 234 0.6553082872527526 0.007708930408308223 0.35962152631055255
3 51 128 210 0.6553082872527526 0.007708930408308223 0.35962152631055255
3 68 52 210 0.6553082872527526 0.007708930408308223 0.35962152631055255
3 205 68 210 0.6553082872527526 0.007708930408308223 0.35962152631055255
3 210 128 205 0.6553082872527526 0.007708930408308223 0.35962152631055255
3 136 135 51 0.6553082872527526 0.007708930408308223 0.35962152631055255
3 51 210 136 0.6553082872527526 0.007708930408308223 0.35962152631055255
3 136 210 52 0.6553082872527526 0.007708930408308223 0.35962152631055255
3 53 7 136 0.6553082872527526 0.007708930408308223 0.35962152631055255
3 7 135 136 0.6553082872527526 0.007708930408308223 0.35962152631055255
3 137 53 136 0.6553082872527526 0.007708930408308223 0.35962152631055255
3 136 52 137 0.6553082872527526 0.007708930408308223 0.35962152631055255
3 236 280 237 0.6553082872527526 0.007708930408308223 0.35962152631055255
3 237 176 236 0.6553082872527526 0.007708930408308223 0.35962152631055255
3 237 280 172 0.6553082872527526 0.007708930408308223 0.35962152631055255
3 172 177 237 0.6553082872527526 0.007708930408308223 0.35962152631055255
3 177 176 237 0.6553082872527526 0.007708930408308223 0.35962152631055255
3 228 149 150 0.6553082872527526 0.007708930408308223 0.35962152631055255
3 150 149 58 0.6553082872527526 0.007708930408308223 0.35962152631055255
3 150 58 151 0.6553082872527526 0.007708930408308223 0.35962152631055255
3 151 229 150 0.6553082872527526 0.007708930408308223 0.35962152631055255
3 150 229 228 0.6553082872527526 0.007708930408308223 0.35962152631055255
