OFF
550 1011 0


27.5273 35.695 4.4189
27.5273 35.695 4.4189
27.5457 35.6432 4.5126
27.5273 35.695 4.4189
27.5273 35.695 4.4189
27.48 35.77 4.3011
27.4387 35.8352 4.1983
27.402 35.8932 4.1067
27.3687 35.9457 4.0236
27.3379 35.994 3.9469
27.3091 36.0394 3.8748
27.2816 36.0825 3.8062
27.255 36.1241 3.7399
27.229 36.1648 3.6749
27.2032 36.2052 3.6103
27.1772 36.2458 3.5452
27.1506 36.2873 3.4789
27.1232 36.3301 3.4101
27.0943 36.3751 3.3379
27.0635 36.423 3.2609
27.0302 36.4748 3.1775
26.9934 36.5319 3.0855
26.9521 36.5961 2.982
26.9046 36.6697 2.8631
26.9046 36.6697 2.8631
26.7815 36.6802 2.95
26.6868 36.6891 3.0148
26.6074 36.697 3.0676
26.5362 36.7045 3.1138
26.4685 36.712 3.1569
26.4004 36.7199 3.1991
26.328 36.7286 3.2431
26.2462 36.7389 3.2914
26.147 36.7521 3.3482
26.0153 36.7707 3.4205
26.0906 36.6912 3.5289
26.1574 36.6205 3.6251
26.2174 36.5567 3.7119
26.2723 36.4983 3.7912
26.3229 36.4443 3.8646
26.3702 36.3937 3.9333
26.4149 36.3459 3.9983
26.4575 36.3001 4.0604
26.4985 36.2559 4.1203
26.5384 36.2128 4.1786
26.5775 36.1705 4.2359
26.6162 36.1285 4.2927
26.6548 36.0865 4.3495
26.6937 36.0441 4.4069
26.7331 36.0009 4.4652
26.7736 35.9565 4.5251
26.8154 35.9104 4.5873
26.8591 35.8621 4.6524
26.9052 35.8109 4.7212
26.9543 35.7561 4.7948
27.0072 35.6968 4.8745
27.0649 35.6316 4.9619
27.1287 35.5589 5.0591
27.2004 35.4766 5.169
27.2004 35.4766 5.169
27.2757 35.502 5.0505
27.3317 35.5203 4.963
27.3807 35.5359 4.8871
27.4299 35.5513 4.8113
27.4867 35.5685 4.7241
27.564 35.5914 4.6064
27.2032 36.1641 3.6996
27.1776 36.1634 3.7242
27.1522 36.1626 3.7486
27.127 36.1619 3.7728
27.1549 36.2384 3.5815
27.1329 36.231 3.6173
27.1112 36.2237 3.6526
27.0898 36.2165 3.6875
27.1048 36.3153 3.459
27.0868 36.3007 3.5069
27.0692 36.2863 3.554
27.0519 36.2722 3.6003
26.571 36.6534 3.1949
26.6046 36.6041 3.2732
26.637 36.5564 3.3486
26.6683 36.5104 3.4215
26.4477 36.6677 3.2719
26.4933 36.6172 3.342
26.5374 36.5684 3.4099
26.5799 36.5212 3.4754
27.2782 36.0484 3.8831
27.2474 36.0574 3.8914
27.2165 36.0663 3.8996
27.1857 36.0752 3.9079
27.1549 36.0841 3.9162
27.2275 36.1266 3.7591
27.2002 36.1291 3.7783
27.1729 36.1316 3.7973
27.1459 36.134 3.8163
27.119 36.1364 3.8351
27.0499 36.3995 3.3245
27.0366 36.3765 3.3866
27.0236 36.3541 3.4471
27.0109 36.3322 3.5062
26.9985 36.3108 3.564
26.6357 36.6464 3.1533
26.6629 36.5976 3.236
26.6892 36.5505 3.3156
26.7145 36.505 3.3925
26.739 36.461 3.4669
26.3076 36.6853 3.3552
26.3669 36.6334 3.4169
26.4241 36.5831 3.4765
26.4795 36.5345 3.5342
26.5331 36.4873 3.5901
26.414 36.3745 3.9372
26.4573 36.3555 3.9411
26.5002 36.3366 3.945
26.5427 36.3178 3.9488
26.5848 36.2992 3.9527
26.4929 36.2888 4.0542
26.5283 36.2775 4.048
26.5634 36.2663 4.042
26.5985 36.2551 4.0359
26.6334 36.2439 4.0299
26.5666 36.2085 4.1636
26.5948 36.2042 4.1486
26.6231 36.1998 4.1337
26.6514 36.1954 4.1187
26.6798 36.191 4.1037
26.6378 36.1306 4.2698
26.6595 36.1326 4.2467
26.6814 36.1346 4.2235
26.7034 36.1366 4.2001
26.7256 36.1386 4.1766
26.7091 36.0521 4.3764
26.7246 36.0602 4.3457
26.7404 36.0684 4.3146
26.7563 36.0766 4.2831
26.7724 36.0849 4.2513
26.783 35.9703 4.4874
26.7925 35.9844 4.4491
26.8022 35.9987 4.4102
26.812 36.0132 4.3707
26.822 36.0279 4.3306
27.3054 36.0064 3.9495
27.2727 36.0187 3.9522
27.2401 36.031 3.9549
27.2073 36.0433 3.9576
27.1745 36.0557 3.9603
27.1416 36.068 3.9631
26.9857 36.4976 3.1675
26.9782 36.4644 3.2469
26.9709 36.4322 3.3239
26.9639 36.4009 3.3985
26.957 36.3704 3.4709
26.9503 36.3409 3.5413
26.7077 36.639 3.1059
26.7278 36.5907 3.1936
26.7472 36.5442 3.2781
26.7659 36.4993 3.3596
26.784 36.4559 3.4383
26.8014 36.4139 3.5143
26.2769 36.5225 3.735
26.3352 36.4889 3.7577
26.3923 36.4559 3.7799
26.4482 36.4235 3.8018
26.5031 36.3917 3.8233
26.557 36.3604 3.8444
26.3714 36.4206 3.8742
26.4192 36.3972 3.8838
26.4664 36.374 3.8932
26.513 36.3511 3.9026
26.559 36.3284 3.9118
26.6045 36.3059 3.921
26.8625 35.8819 4.6073
26.8659 35.9021 4.5614
26.8693 35.9227 4.5145
26.8729 35.9437 4.4667
26.8765 35.9651 4.4177
26.8802 35.987 4.3678
27.3972 35.5898 4.7589
27.3635 35.6293 4.7051
27.3289 35.6699 4.6498
27.2932 35.7116 4.5928
27.2563 35.7546 4.534
27.2182 35.7988 4.4734
27.5032 35.678 4.4769
27.4598 35.7133 4.4406
27.4155 35.7492 4.4035
27.3702 35.7859 4.3657
27.3239 35.8233 4.3271
27.2765 35.8614 4.2876
27.2279 35.9004 4.2473
27.4851 35.7268 4.3889
27.4422 35.7591 4.3584
27.3985 35.7919 4.3275
27.354 35.8252 4.296
27.3086 35.8591 4.2639
27.2623 35.8936 4.2313
27.2151 35.9286 4.198
27.3659 35.9125 4.0976
27.3296 35.932 4.0883
27.2929 35.9516 4.0791
27.256 35.9712 4.0697
27.2187 35.991 4.0604
27.1812 36.0109 4.0509
27.1433 36.031 4.0414
26.905 36.6207 2.9701
26.9054 36.5737 3.0728
26.9058 36.5285 3.1715
26.9061 36.485 3.2663
26.9065 36.443 3.3576
26.9068 36.4026 3.4456
26.9071 36.3636 3.5304
26.1643 36.6434 3.5695
26.2358 36.5969 3.6089
26.3053 36.5517 3.6473
26.3728 36.5077 3.6847
26.4385 36.4647 3.7211
26.5025 36.4228 3.7565
26.5648 36.3819 3.7911
26.9513 35.7822 4.7422
26.9483 35.8088 4.6883
26.9452 35.8362 4.6329
26.9421 35.8642 4.5761
26.9388 35.8929 4.5177
26.9354 35.9224 4.4577
26.9319 35.9527 4.396
27.3515 35.5749 4.8308
27.3215 35.6149 4.7728
27.2904 35.6561 4.7131
27.2584 35.6985 4.6514
27.2252 35.7423 4.5877
27.1908 35.7874 4.5219
27.1552 35.8341 4.4536
27.4007 35.8584 4.1827
27.3624 35.8818 4.167
27.3236 35.9053 4.1511
27.2843 35.9291 4.1351
27.2446 35.9531 4.1189
27.2045 35.9773 4.1026
27.1638 36.0018 4.0861
27.1227 36.0265 4.0694
27.1303 36.2762 3.5212
27.1102 36.2654 3.5629
27.0905 36.2546 3.604
27.0711 36.244 3.6444
27.0519 36.2335 3.6842
27.0331 36.2232 3.7234
27.0145 36.213 3.7621
26.9962 36.2029 3.8002
26.7936 36.6307 3.0478
26.8052 36.583 3.1419
26.8164 36.5371 3.2324
26.8271 36.4928 3.3196
26.8374 36.4501 3.4036
26.8474 36.4088 3.4847
26.857 36.3689 3.5631
26.8663 36.3303 3.6388
26.3819 36.6757 3.3115
26.4339 36.6246 3.3776
26.4842 36.5752 3.4415
26.5328 36.5273 3.5033
26.5798 36.4809 3.5632
26.6253 36.4359 3.6212
26.6694 36.3923 3.6775
26.7122 36.3498 3.7321
26.098 36.7144 3.4722
26.1777 36.6599 3.5221
26.2548 36.6072 3.5704
26.3293 36.5561 3.6172
26.4015 36.5065 3.6625
26.4714 36.4583 3.7065
26.5393 36.4114 3.7493
26.6051 36.3658 3.7908
27.0552 35.6645 4.901
27.0453 35.6983 4.8383
27.035 35.7331 4.7737
27.0244 35.7689 4.7069
27.0135 35.8059 4.6379
27.0021 35.8442 4.5665
26.9903 35.8837 4.4925
26.978 35.9246 4.4158
27.306 35.5597 4.9029
27.2794 35.6003 4.8408
27.2519 35.6421 4.7768
27.2234 35.6852 4.7105
27.1939 35.7298 4.6419
27.1632 35.7759 4.5709
27.1313 35.8236 4.497
27.0982 35.8732 4.4203
27.44 35.7973 4.2786
27.3994 35.8249 4.2558
27.3583 35.8528 4.2328
27.3165 35.8811 4.2095
27.2742 35.9098 4.1858
27.2311 35.9388 4.1618
27.1874 35.9682 4.1375
27.1429 35.998 4.1128
27.0977 36.0283 4.0877
27.0193 36.4463 3.2497
27.0087 36.4185 3.3199
26.9984 36.3915 3.3882
26.9883 36.3651 3.4546
26.9786 36.3394 3.5193
26.969 36.3143 3.5824
26.9598 36.2899 3.6439
26.9507 36.266 3.7038
26.9418 36.2426 3.7623
26.3259 36.4697 3.8072
26.3787 36.4414 3.823
26.4306 36.4136 3.8385
26.4817 36.3862 3.8538
26.5319 36.3591 3.8689
26.5814 36.3324 3.8838
26.6301 36.306 3.8985
26.6782 36.28 3.913
26.7255 36.2543 3.9273
26.5302 36.2482 4.1096
26.5619 36.2405 4.0989
26.5936 36.2328 4.0882
26.6252 36.225 4.0776
26.6567 36.2172 4.067
26.6883 36.2095 4.0565
26.7198 36.2017 4.0459
26.7513 36.1938 4.0354
26.7827 36.186 4.0249
26.6733 36.0916 4.3228
26.6919 36.0966 4.2958
26.7107 36.1018 4.2687
26.7296 36.1069 4.2412
26.7488 36.112 4.2136
26.7681 36.1172 4.1857
26.7876 36.1224 4.1576
26.8072 36.1277 4.1292
26.8271 36.1329 4.1005
26.8218 35.9272 4.5459
26.8283 35.9443 4.5039
26.8349 35.9617 4.461
26.8416 35.9794 4.4174
26.8485 35.9974 4.3729
26.8555 36.0158 4.3276
26.8626 36.0344 4.2813
26.8698 36.0534 4.2342
26.8772 36.0728 4.186
27.2537 35.542 4.986
27.2309 35.5832 4.9193
27.2074 35.6257 4.8504
27.1829 35.6696 4.779
27.1575 35.7151 4.7048
27.1311 35.7623 4.6278
27.1035 35.8114 4.5477
27.0747 35.8624 4.4641
27.0446 35.9156 4.3768
27.5211 35.6289 4.5652
27.4773 35.6672 4.5232
27.4324 35.7062 4.4802
27.3864 35.7461 4.4362
27.3392 35.7869 4.3912
27.2907 35.8287 4.345
27.2409 35.8715 4.2976
27.1897 35.9154 4.249
27.1369 35.9605 4.1989
27.2524 36.0882 3.82
27.2233 36.094 3.8337
27.1943 36.0997 3.8474
27.1654 36.1053 3.8611
27.1365 36.1109 3.8747
27.1078 36.1164 3.8883
27.0791 36.122 3.9019
27.0505 36.1274 3.9155
27.022 36.1329 3.929
26.9935 36.1383 3.9426
27.0782 36.3561 3.3938
27.0624 36.3375 3.4485
27.047 36.3193 3.5021
27.0319 36.3014 3.5545
27.0171 36.2839 3.6059
27.0026 36.2667 3.6562
26.9884 36.2497 3.7056
26.9744 36.2331 3.754
26.9607 36.2168 3.8015
26.9473 36.2008 3.8482
26.2175 36.6974 3.4066
26.2856 36.6444 3.4631
26.3513 36.5932 3.5177
26.4149 36.5435 3.5706
26.4765 36.4953 3.6219
26.5361 36.4485 3.6716
26.594 36.4031 3.7198
26.6502 36.3589 3.7667
26.7047 36.3158 3.8123
26.7577 36.2739 3.8567
27.001 35.7261 4.8179
26.9946 35.7563 4.7597
26.988 35.7872 4.6998
26.9812 35.819 4.6382
26.9742 35.8517 4.5747
26.967 35.8854 4.5092
26.9595 35.9201 4.4416
26.9517 35.9559 4.3717
26.9437 35.9929 4.2995
26.9354 36.0312 4.2246
27.1833 35.5174 5.0987
27.1655 35.5595 5.026
27.1471 35.6031 4.9505
27.128 35.6482 4.8722
27.108 35.695 4.7907
27.0871 35.7437 4.7058
27.0653 35.7945 4.6171
27.0425 35.8474 4.5243
27.0185 35.9028 4.427
26.9932 35.961 4.3247
27.3344 35.9614 4.0205
27.2999 35.9772 4.0174
27.2653 35.9931 4.0142
27.2305 36.0089 4.0111
27.1956 36.0249 4.008
27.1604 36.0408 4.0049
27.1251 36.0569 4.0018
27.0895 36.0729 3.9986
27.0538 36.0891 3.9955
27.0178 36.1053 3.9924
26.9816 36.1216 3.9893
26.9481 36.5551 3.0754
26.9442 36.5156 3.1655
26.9404 36.4773 3.2524
26.9367 36.4404 3.3364
26.9332 36.4046 3.4176
26.9298 36.37 3.4961
26.9265 36.3364 3.5722
26.9233 36.3039 3.6459
26.9201 36.2722 3.7173
26.9171 36.2415 3.7867
26.9142 36.2116 3.854
26.2235 36.58 3.6563
26.2879 36.5404 3.6868
26.3508 36.5017 3.7166
26.4122 36.4638 3.7458
26.4722 36.4267 3.7743
26.5308 36.3904 3.8022
26.5882 36.3548 3.8295
26.6443 36.3198 3.8563
26.6993 36.2856 3.8826
26.7531 36.2519 3.9084
26.8059 36.2188 3.9337
26.6023 36.1694 4.2169
26.6273 36.1683 4.1978
26.6523 36.1672 4.1786
26.6774 36.166 4.1594
26.7026 36.1648 4.1401
26.728 36.1636 4.1207
26.7534 36.1624 4.1013
26.779 36.1611 4.0818
26.8046 36.1598 4.0622
26.8304 36.1585 4.0425
26.8563 36.1571 4.0228
26.9054 35.8338 4.6724
26.9057 35.8572 4.6226
26.9059 35.881 4.5715
26.9062 35.9055 4.5193
26.9064 35.9304 4.4658
26.9067 35.956 4.4109
26.9069 35.9822 4.3546
26.9072 36.009 4.2968
26.9074 36.0366 4.2375
26.9077 36.0648 4.1766
26.908 36.0938 4.1139
27.4498 35.6066 4.6764
27.4119 35.6456 4.6275
27.373 35.6855 4.5773
27.333 35.7265 4.5258
27.2918 35.7685 4.4728
27.2493 35.8117 4.4183
27.2055 35.8561 4.3621
27.1602 35.9019 4.3042
27.1134 35.9491 4.2443
27.065 35.9978 4.1825
27.0148 36.0481 4.1184
27.1791 36.2012 3.6407
27.1553 36.1972 3.6708
27.1317 36.1932 3.7006
27.1084 36.1892 3.7301
27.0853 36.1853 3.7593
27.0624 36.1813 3.7882
27.0398 36.1774 3.8168
27.0174 36.1735 3.8451
26.9952 36.1697 3.8732
26.9732 36.1658 3.901
26.9514 36.1619 3.9286
26.9299 36.1581 3.9559
26.5095 36.6604 3.2337
26.5491 36.6105 3.3078
26.5873 36.5623 3.3794
26.6243 36.5157 3.4487
26.6599 36.4705 3.5156
26.6945 36.4268 3.5804
26.7279 36.3844 3.6432
26.7603 36.3433 3.7041
26.7917 36.3033 3.7631
26.8222 36.2645 3.8205
26.8518 36.2268 3.8762
26.8805 36.1901 3.9303
26.4543 36.3308 3.9969
26.4935 36.3157 3.9956
26.5324 36.3008 3.9944
26.5711 36.2859 3.9931
26.6095 36.2711 3.9919
26.6476 36.2563 3.9907
26.6855 36.2416 3.9895
26.7232 36.2269 3.9884
26.7607 36.2123 3.9873
26.7979 36.1978 3.9862
26.835 36.1832 3.9851
26.8718 36.1687 3.9841
26.7455 36.0118 4.4311
26.7581 36.0229 4.3966
26.7708 36.0341 4.3616
26.7837 36.0455 4.3261
26.7968 36.057 4.2902
26.81 36.0686 4.2537
26.8235 36.0804 4.2168
26.8371 36.0923 4.1792
26.8509 36.1044 4.1412
26.865 36.1166 4.1025
26.8793 36.129 4.0633
26.8938 36.1415 4.0235
27.1155 35.5956 4.9937
27.1018 35.6334 4.9262
27.0876 35.6723 4.8564
27.0729 35.7126 4.7841
27.0576 35.7543 4.7091
27.0417 35.7975 4.6313
27.0251 35.8423 4.5504
27.0079 35.8889 4.4661
26.9898 35.9374 4.3781
26.9709 35.988 4.2862
26.9511 36.0409 4.19
26.9304 36.0962 4.0891
27.4851 35.7268 4.3889
27.4422 35.7591 4.3584
27.3985 35.7919 4.3275
27.354 35.8252 4.296
27.3086 35.8591 4.2639
27.2623 35.8936 4.2313
27.2151 35.9286 4.198
27.1668 35.9644 4.164
27.1175 36.0008 4.1294
27.0671 36.038 4.094
27.0155 36.0759 4.0579
26.9627 36.1147 4.0209
26.9085 36.1543 3.983
26.9085 36.1543 3.983
3 2 351 65 0.7064612386038038 0.8191701105423242 0.2795853320748207
3 225 62 63 0.7064612386038038 0.8191701105423242 0.2795853320748207
3 280 62 225 0.7064612386038038 0.8191701105423242 0.2795853320748207
3 332 521 522 0.7064612386038038 0.8191701105423242 0.2795853320748207
3 523 453 522 0.7064612386038038 0.8191701105423242 0.2795853320748207
3 43 44 315 0.7064612386038038 0.8191701105423242 0.2795853320748207
3 18 370 17 0.7064612386038038 0.8191701105423242 0.2795853320748207
3 524 56 57 0.7064612386038038 0.8191701105423242 0.2795853320748207
3 400 57 58 0.7064612386038038 0.8191701105423242 0.2795853320748207
3 58 60 400 0.7064612386038038 0.8191701105423242 0.2795853320748207
3 62 280 61 0.7064612386038038 0.8191701105423242 0.2795853320748207
3 346 283 284 0.7064612386038038 0.8191701105423242 0.2795853320748207
3 345 283 346 0.7064612386038038 0.8191701105423242 0.2795853320748207
3 55 56 272 0.7064612386038038 0.8191701105423242 0.2795853320748207
3 272 273 55 0.7064612386038038 0.8191701105423242 0.2795853320748207
3 282 283 345 0.7064612386038038 0.8191701105423242 0.2795853320748207
3 345 403 344 0.7064612386038038 0.8191701105423242 0.2795853320748207
3 344 282 345 0.7064612386038038 0.8191701105423242 0.2795853320748207
3 344 403 402 0.7064612386038038 0.8191701105423242 0.2795853320748207
3 402 343 344 0.7064612386038038 0.8191701105423242 0.2795853320748207
3 57 400 401 0.7064612386038038 0.8191701105423242 0.2795853320748207
3 401 400 60 0.7064612386038038 0.8191701105423242 0.2795853320748207
3 401 343 402 0.7064612386038038 0.8191701105423242 0.2795853320748207
3 402 524 401 0.7064612386038038 0.8191701105423242 0.2795853320748207
3 401 524 57 0.7064612386038038 0.8191701105423242 0.2795853320748207
3 469 470 182 0.7064612386038038 0.8191701105423242 0.2795853320748207
3 225 63 177 0.7064612386038038 0.8191701105423242 0.2795853320748207
3 284 283 228 0.7064612386038038 0.8191701105423242 0.2795853320748207
3 421 21 22 0.7064612386038038 0.8191701105423242 0.2795853320748207
3 26 248 25 0.7064612386038038 0.8191701105423242 0.2795853320748207
3 153 248 26 0.7064612386038038 0.8191701105423242 0.2795853320748207
3 26 27 153 0.7064612386038038 0.8191701105423242 0.2795853320748207
3 153 27 101 0.7064612386038038 0.8191701105423242 0.2795853320748207
3 12 13 66 0.7064612386038038 0.8191701105423242 0.2795853320748207
3 476 66 13 0.7064612386038038 0.8191701105423242 0.2795853320748207
3 332 522 452 0.7064612386038038 0.8191701105423242 0.2795853320748207
3 452 451 332 0.7064612386038038 0.8191701105423242 0.2795853320748207
3 452 522 453 0.7064612386038038 0.8191701105423242 0.2795853320748207
3 389 497 496 0.7064612386038038 0.8191701105423242 0.2795853320748207
3 496 255 495 0.7064612386038038 0.8191701105423242 0.2795853320748207
3 511 453 523 0.7064612386038038 0.8191701105423242 0.2795853320748207
3 431 497 498 0.7064612386038038 0.8191701105423242 0.2795853320748207
3 498 497 389 0.7064612386038038 0.8191701105423242 0.2795853320748207
3 495 255 494 0.7064612386038038 0.8191701105423242 0.2795853320748207
3 494 158 493 0.7064612386038038 0.8191701105423242 0.2795853320748207
3 263 496 495 0.7064612386038038 0.8191701105423242 0.2795853320748207
3 495 494 263 0.7064612386038038 0.8191701105423242 0.2795853320748207
3 382 383 108 0.7064612386038038 0.8191701105423242 0.2795853320748207
3 34 35 264 0.7064612386038038 0.8191701105423242 0.2795853320748207
3 265 264 35 0.7064612386038038 0.8191701105423242 0.2795853320748207
3 159 37 38 0.7064612386038038 0.8191701105423242 0.2795853320748207
3 280 343 342 0.7064612386038038 0.8191701105423242 0.2795853320748207
3 342 61 280 0.7064612386038038 0.8191701105423242 0.2795853320748207
3 60 61 342 0.7064612386038038 0.8191701105423242 0.2795853320748207
3 342 401 60 0.7064612386038038 0.8191701105423242 0.2795853320748207
3 343 401 342 0.7064612386038038 0.8191701105423242 0.2795853320748207
3 526 272 403 0.7064612386038038 0.8191701105423242 0.2795853320748207
3 273 272 526 0.7064612386038038 0.8191701105423242 0.2795853320748207
3 345 346 404 0.7064612386038038 0.8191701105423242 0.2795853320748207
3 273 526 404 0.7064612386038038 0.8191701105423242 0.2795853320748207
3 404 403 345 0.7064612386038038 0.8191701105423242 0.2795853320748207
3 404 526 403 0.7064612386038038 0.8191701105423242 0.2795853320748207
3 347 346 284 0.7064612386038038 0.8191701105423242 0.2795853320748207
3 284 285 347 0.7064612386038038 0.8191701105423242 0.2795853320748207
3 525 272 56 0.7064612386038038 0.8191701105423242 0.2795853320748207
3 403 272 525 0.7064612386038038 0.8191701105423242 0.2795853320748207
3 402 403 525 0.7064612386038038 0.8191701105423242 0.2795853320748207
3 525 524 402 0.7064612386038038 0.8191701105423242 0.2795853320748207
3 56 524 525 0.7064612386038038 0.8191701105423242 0.2795853320748207
3 225 177 226 0.7064612386038038 0.8191701105423242 0.2795853320748207
3 226 177 178 0.7064612386038038 0.8191701105423242 0.2795853320748207
3 283 282 227 0.7064612386038038 0.8191701105423242 0.2795853320748207
3 179 228 227 0.7064612386038038 0.8191701105423242 0.2795853320748207
3 227 228 283 0.7064612386038038 0.8191701105423242 0.2795853320748207
3 227 178 179 0.7064612386038038 0.8191701105423242 0.2795853320748207
3 227 226 178 0.7064612386038038 0.8191701105423242 0.2795853320748207
3 282 226 227 0.7064612386038038 0.8191701105423242 0.2795853320748207
3 282 344 281 0.7064612386038038 0.8191701105423242 0.2795853320748207
3 225 226 281 0.7064612386038038 0.8191701105423242 0.2795853320748207
3 281 226 282 0.7064612386038038 0.8191701105423242 0.2795853320748207
3 281 280 225 0.7064612386038038 0.8191701105423242 0.2795853320748207
3 281 343 280 0.7064612386038038 0.8191701105423242 0.2795853320748207
3 281 344 343 0.7064612386038038 0.8191701105423242 0.2795853320748207
3 286 285 230 0.7064612386038038 0.8191701105423242 0.2795853320748207
3 231 470 471 0.7064612386038038 0.8191701105423242 0.2795853320748207
3 231 182 470 0.7064612386038038 0.8191701105423242 0.2795853320748207
3 471 287 231 0.7064612386038038 0.8191701105423242 0.2795853320748207
3 286 230 231 0.7064612386038038 0.8191701105423242 0.2795853320748207
3 231 230 182 0.7064612386038038 0.8191701105423242 0.2795853320748207
3 178 177 465 0.7064612386038038 0.8191701105423242 0.2795853320748207
3 65 351 465 0.7064612386038038 0.8191701105423242 0.2795853320748207
3 179 467 180 0.7064612386038038 0.8191701105423242 0.2795853320748207
3 180 228 179 0.7064612386038038 0.8191701105423242 0.2795853320748207
3 101 27 28 0.7064612386038038 0.8191701105423242 0.2795853320748207
3 102 101 78 0.7064612386038038 0.8191701105423242 0.2795853320748207
3 101 28 78 0.7064612386038038 0.8191701105423242 0.2795853320748207
3 29 488 78 0.7064612386038038 0.8191701105423242 0.2795853320748207
3 78 28 29 0.7064612386038038 0.8191701105423242 0.2795853320748207
3 489 488 83 0.7064612386038038 0.8191701105423242 0.2795853320748207
3 83 84 489 0.7064612386038038 0.8191701105423242 0.2795853320748207
3 83 488 82 0.7064612386038038 0.8191701105423242 0.2795853320748207
3 82 488 29 0.7064612386038038 0.8191701105423242 0.2795853320748207
3 421 22 205 0.7064612386038038 0.8191701105423242 0.2795853320748207
3 430 497 431 0.7064612386038038 0.8191701105423242 0.2795853320748207
3 431 378 430 0.7064612386038038 0.8191701105423242 0.2795853320748207
3 430 496 497 0.7064612386038038 0.8191701105423242 0.2795853320748207
3 14 476 13 0.7064612386038038 0.8191701105423242 0.2795853320748207
3 70 14 15 0.7064612386038038 0.8191701105423242 0.2795853320748207
3 476 14 70 0.7064612386038038 0.8191701105423242 0.2795853320748207
3 546 547 535 0.7064612386038038 0.8191701105423242 0.2795853320748207
3 523 522 535 0.7064612386038038 0.8191701105423242 0.2795853320748207
3 535 547 523 0.7064612386038038 0.8191701105423242 0.2795853320748207
3 9 410 8 0.7064612386038038 0.8191701105423242 0.2795853320748207
3 255 496 429 0.7064612386038038 0.8191701105423242 0.2795853320748207
3 304 428 429 0.7064612386038038 0.8191701105423242 0.2795853320748207
3 429 428 255 0.7064612386038038 0.8191701105423242 0.2795853320748207
3 496 430 429 0.7064612386038038 0.8191701105423242 0.2795853320748207
3 379 378 431 0.7064612386038038 0.8191701105423242 0.2795853320748207
3 431 485 379 0.7064612386038038 0.8191701105423242 0.2795853320748207
3 485 484 379 0.7064612386038038 0.8191701105423242 0.2795853320748207
3 379 247 378 0.7064612386038038 0.8191701105423242 0.2795853320748207
3 379 484 483 0.7064612386038038 0.8191701105423242 0.2795853320748207
3 483 247 379 0.7064612386038038 0.8191701105423242 0.2795853320748207
3 431 498 499 0.7064612386038038 0.8191701105423242 0.2795853320748207
3 499 498 442 0.7064612386038038 0.8191701105423242 0.2795853320748207
3 453 511 510 0.7064612386038038 0.8191701105423242 0.2795853320748207
3 510 452 453 0.7064612386038038 0.8191701105423242 0.2795853320748207
3 510 499 442 0.7064612386038038 0.8191701105423242 0.2795853320748207
3 511 499 510 0.7064612386038038 0.8191701105423242 0.2795853320748207
3 255 428 427 0.7064612386038038 0.8191701105423242 0.2795853320748207
3 254 494 255 0.7064612386038038 0.8191701105423242 0.2795853320748207
3 158 494 254 0.7064612386038038 0.8191701105423242 0.2795853320748207
3 255 427 254 0.7064612386038038 0.8191701105423242 0.2795853320748207
3 43 315 116 0.7064612386038038 0.8191701105423242 0.2795853320748207
3 389 496 388 0.7064612386038038 0.8191701105423242 0.2795853320748207
3 496 263 388 0.7064612386038038 0.8191701105423242 0.2795853320748207
3 109 110 259 0.7064612386038038 0.8191701105423242 0.2795853320748207
3 109 108 383 0.7064612386038038 0.8191701105423242 0.2795853320748207
3 38 39 306 0.7064612386038038 0.8191701105423242 0.2795853320748207
3 384 109 383 0.7064612386038038 0.8191701105423242 0.2795853320748207
3 110 109 384 0.7064612386038038 0.8191701105423242 0.2795853320748207
3 158 254 253 0.7064612386038038 0.8191701105423242 0.2795853320748207
3 105 81 492 0.7064612386038038 0.8191701105423242 0.2795853320748207
3 492 493 105 0.7064612386038038 0.8191701105423242 0.2795853320748207
3 493 158 105 0.7064612386038038 0.8191701105423242 0.2795853320748207
3 422 21 421 0.7064612386038038 0.8191701105423242 0.2795853320748207
3 15 16 240 0.7064612386038038 0.8191701105423242 0.2795853320748207
3 74 16 17 0.7064612386038038 0.8191701105423242 0.2795853320748207
3 467 353 468 0.7064612386038038 0.8191701105423242 0.2795853320748207
3 468 180 467 0.7064612386038038 0.8191701105423242 0.2795853320748207
3 469 468 354 0.7064612386038038 0.8191701105423242 0.2795853320748207
3 354 468 353 0.7064612386038038 0.8191701105423242 0.2795853320748207
3 353 184 354 0.7064612386038038 0.8191701105423242 0.2795853320748207
3 355 470 469 0.7064612386038038 0.8191701105423242 0.2795853320748207
3 469 354 355 0.7064612386038038 0.8191701105423242 0.2795853320748207
3 187 355 186 0.7064612386038038 0.8191701105423242 0.2795853320748207
3 186 355 354 0.7064612386038038 0.8191701105423242 0.2795853320748207
3 72 73 478 0.7064612386038038 0.8191701105423242 0.2795853320748207
3 373 374 77 0.7064612386038038 0.8191701105423242 0.2795853320748207
3 300 99 98 0.7064612386038038 0.8191701105423242 0.2795853320748207
3 20 297 19 0.7064612386038038 0.8191701105423242 0.2795853320748207
3 258 84 83 0.7064612386038038 0.8191701105423242 0.2795853320748207
3 259 84 258 0.7064612386038038 0.8191701105423242 0.2795853320748207
3 258 109 259 0.7064612386038038 0.8191701105423242 0.2795853320748207
3 108 109 258 0.7064612386038038 0.8191701105423242 0.2795853320748207
3 492 81 491 0.7064612386038038 0.8191701105423242 0.2795853320748207
3 211 35 36 0.7064612386038038 0.8191701105423242 0.2795853320748207
3 211 265 35 0.7064612386038038 0.8191701105423242 0.2795853320748207
3 36 37 432 0.7064612386038038 0.8191701105423242 0.2795853320748207
3 37 159 433 0.7064612386038038 0.8191701105423242 0.2795853320748207
3 433 432 37 0.7064612386038038 0.8191701105423242 0.2795853320748207
3 213 432 433 0.7064612386038038 0.8191701105423242 0.2795853320748207
3 201 202 238 0.7064612386038038 0.8191701105423242 0.2795853320748207
3 235 199 236 0.7064612386038038 0.8191701105423242 0.2795853320748207
3 236 199 200 0.7064612386038038 0.8191701105423242 0.2795853320748207
3 197 7 8 0.7064612386038038 0.8191701105423242 0.2795853320748207
3 7 197 233 0.7064612386038038 0.8191701105423242 0.2795853320748207
3 392 219 218 0.7064612386038038 0.8191701105423242 0.2795853320748207
3 392 391 275 0.7064612386038038 0.8191701105423242 0.2795853320748207
3 218 391 392 0.7064612386038038 0.8191701105423242 0.2795853320748207
3 54 391 218 0.7064612386038038 0.8191701105423242 0.2795853320748207
3 273 404 527 0.7064612386038038 0.8191701105423242 0.2795853320748207
3 346 347 405 0.7064612386038038 0.8191701105423242 0.2795853320748207
3 405 404 346 0.7064612386038038 0.8191701105423242 0.2795853320748207
3 405 527 404 0.7064612386038038 0.8191701105423242 0.2795853320748207
3 406 405 347 0.7064612386038038 0.8191701105423242 0.2795853320748207
3 349 407 286 0.7064612386038038 0.8191701105423242 0.2795853320748207
3 286 231 349 0.7064612386038038 0.8191701105423242 0.2795853320748207
3 349 231 287 0.7064612386038038 0.8191701105423242 0.2795853320748207
3 520 521 332 0.7064612386038038 0.8191701105423242 0.2795853320748207
3 408 349 287 0.7064612386038038 0.8191701105423242 0.2795853320748207
3 64 177 63 0.7064612386038038 0.8191701105423242 0.2795853320748207
3 64 465 177 0.7064612386038038 0.8191701105423242 0.2795853320748207
3 65 465 64 0.7064612386038038 0.8191701105423242 0.2795853320748207
3 179 178 466 0.7064612386038038 0.8191701105423242 0.2795853320748207
3 178 465 466 0.7064612386038038 0.8191701105423242 0.2795853320748207
3 466 467 179 0.7064612386038038 0.8191701105423242 0.2795853320748207
3 466 465 351 0.7064612386038038 0.8191701105423242 0.2795853320748207
3 469 182 181 0.7064612386038038 0.8191701105423242 0.2795853320748207
3 182 230 181 0.7064612386038038 0.8191701105423242 0.2795853320748207
3 181 468 469 0.7064612386038038 0.8191701105423242 0.2795853320748207
3 180 468 181 0.7064612386038038 0.8191701105423242 0.2795853320748207
3 79 78 488 0.7064612386038038 0.8191701105423242 0.2795853320748207
3 488 489 79 0.7064612386038038 0.8191701105423242 0.2795853320748207
3 102 78 79 0.7064612386038038 0.8191701105423242 0.2795853320748207
3 79 489 80 0.7064612386038038 0.8191701105423242 0.2795853320748207
3 80 489 490 0.7064612386038038 0.8191701105423242 0.2795853320748207
3 490 489 84 0.7064612386038038 0.8191701105423242 0.2795853320748207
3 81 80 490 0.7064612386038038 0.8191701105423242 0.2795853320748207
3 490 491 81 0.7064612386038038 0.8191701105423242 0.2795853320748207
3 30 82 29 0.7064612386038038 0.8191701105423242 0.2795853320748207
3 248 205 204 0.7064612386038038 0.8191701105423242 0.2795853320748207
3 204 205 22 0.7064612386038038 0.8191701105423242 0.2795853320748207
3 204 25 248 0.7064612386038038 0.8191701105423242 0.2795853320748207
3 204 22 23 0.7064612386038038 0.8191701105423242 0.2795853320748207
3 23 25 204 0.7064612386038038 0.8191701105423242 0.2795853320748207
3 482 247 483 0.7064612386038038 0.8191701105423242 0.2795853320748207
3 483 366 482 0.7064612386038038 0.8191701105423242 0.2795853320748207
3 366 95 482 0.7064612386038038 0.8191701105423242 0.2795853320748207
3 246 480 245 0.7064612386038038 0.8191701105423242 0.2795853320748207
3 247 482 246 0.7064612386038038 0.8191701105423242 0.2795853320748207
3 304 376 375 0.7064612386038038 0.8191701105423242 0.2795853320748207
3 375 77 374 0.7064612386038038 0.8191701105423242 0.2795853320748207
3 305 430 378 0.7064612386038038 0.8191701105423242 0.2795853320748207
3 304 429 305 0.7064612386038038 0.8191701105423242 0.2795853320748207
3 305 429 430 0.7064612386038038 0.8191701105423242 0.2795853320748207
3 478 68 67 0.7064612386038038 0.8191701105423242 0.2795853320748207
3 68 92 67 0.7064612386038038 0.8191701105423242 0.2795853320748207
3 479 68 478 0.7064612386038038 0.8191701105423242 0.2795853320748207
3 478 73 479 0.7064612386038038 0.8191701105423242 0.2795853320748207
3 245 480 479 0.7064612386038038 0.8191701105423242 0.2795853320748207
3 479 73 245 0.7064612386038038 0.8191701105423242 0.2795853320748207
3 69 95 94 0.7064612386038038 0.8191701105423242 0.2795853320748207
3 69 479 480 0.7064612386038038 0.8191701105423242 0.2795853320748207
3 68 479 69 0.7064612386038038 0.8191701105423242 0.2795853320748207
3 360 87 86 0.7064612386038038 0.8191701105423242 0.2795853320748207
3 10 11 86 0.7064612386038038 0.8191701105423242 0.2795853320748207
3 86 11 360 0.7064612386038038 0.8191701105423242 0.2795853320748207
3 86 87 142 0.7064612386038038 0.8191701105423242 0.2795853320748207
3 88 362 89 0.7064612386038038 0.8191701105423242 0.2795853320748207
3 89 144 88 0.7064612386038038 0.8191701105423242 0.2795853320748207
3 361 87 360 0.7064612386038038 0.8191701105423242 0.2795853320748207
3 360 92 361 0.7064612386038038 0.8191701105423242 0.2795853320748207
3 361 88 87 0.7064612386038038 0.8191701105423242 0.2795853320748207
3 362 88 361 0.7064612386038038 0.8191701105423242 0.2795853320748207
3 94 362 93 0.7064612386038038 0.8191701105423242 0.2795853320748207
3 93 92 68 0.7064612386038038 0.8191701105423242 0.2795853320748207
3 93 361 92 0.7064612386038038 0.8191701105423242 0.2795853320748207
3 362 361 93 0.7064612386038038 0.8191701105423242 0.2795853320748207
3 93 69 94 0.7064612386038038 0.8191701105423242 0.2795853320748207
3 68 69 93 0.7064612386038038 0.8191701105423242 0.2795853320748207
3 410 9 411 0.7064612386038038 0.8191701105423242 0.2795853320748207
3 411 199 410 0.7064612386038038 0.8191701105423242 0.2795853320748207
3 200 199 411 0.7064612386038038 0.8191701105423242 0.2795853320748207
3 367 418 366 0.7064612386038038 0.8191701105423242 0.2795853320748207
3 367 366 483 0.7064612386038038 0.8191701105423242 0.2795853320748207
3 483 484 367 0.7064612386038038 0.8191701105423242 0.2795853320748207
3 417 146 366 0.7064612386038038 0.8191701105423242 0.2795853320748207
3 366 418 417 0.7064612386038038 0.8191701105423242 0.2795853320748207
3 417 418 546 0.7064612386038038 0.8191701105423242 0.2795853320748207
3 546 418 419 0.7064612386038038 0.8191701105423242 0.2795853320748207
3 419 547 546 0.7064612386038038 0.8191701105423242 0.2795853320748207
3 145 144 89 0.7064612386038038 0.8191701105423242 0.2795853320748207
3 145 146 415 0.7064612386038038 0.8191701105423242 0.2795853320748207
3 142 87 143 0.7064612386038038 0.8191701105423242 0.2795853320748207
3 87 88 143 0.7064612386038038 0.8191701105423242 0.2795853320748207
3 143 88 144 0.7064612386038038 0.8191701105423242 0.2795853320748207
3 415 202 414 0.7064612386038038 0.8191701105423242 0.2795853320748207
3 414 145 415 0.7064612386038038 0.8191701105423242 0.2795853320748207
3 144 145 414 0.7064612386038038 0.8191701105423242 0.2795853320748207
3 318 119 317 0.7064612386038038 0.8191701105423242 0.2795853320748207
3 486 485 431 0.7064612386038038 0.8191701105423242 0.2795853320748207
3 431 499 486 0.7064612386038038 0.8191701105423242 0.2795853320748207
3 499 487 486 0.7064612386038038 0.8191701105423242 0.2795853320748207
3 369 485 486 0.7064612386038038 0.8191701105423242 0.2795853320748207
3 486 487 369 0.7064612386038038 0.8191701105423242 0.2795853320748207
3 450 322 449 0.7064612386038038 0.8191701105423242 0.2795853320748207
3 332 451 450 0.7064612386038038 0.8191701105423242 0.2795853320748207
3 507 322 508 0.7064612386038038 0.8191701105423242 0.2795853320748207
3 508 322 323 0.7064612386038038 0.8191701105423242 0.2795853320748207
3 452 510 323 0.7064612386038038 0.8191701105423242 0.2795853320748207
3 451 452 323 0.7064612386038038 0.8191701105423242 0.2795853320748207
3 323 450 451 0.7064612386038038 0.8191701105423242 0.2795853320748207
3 322 450 323 0.7064612386038038 0.8191701105423242 0.2795853320748207
3 302 427 428 0.7064612386038038 0.8191701105423242 0.2795853320748207
3 302 152 427 0.7064612386038038 0.8191701105423242 0.2795853320748207
3 261 493 492 0.7064612386038038 0.8191701105423242 0.2795853320748207
3 210 254 427 0.7064612386038038 0.8191701105423242 0.2795853320748207
3 210 152 426 0.7064612386038038 0.8191701105423242 0.2795853320748207
3 427 152 210 0.7064612386038038 0.8191701105423242 0.2795853320748207
3 426 253 210 0.7064612386038038 0.8191701105423242 0.2795853320748207
3 210 253 254 0.7064612386038038 0.8191701105423242 0.2795853320748207
3 43 116 42 0.7064612386038038 0.8191701105423242 0.2795853320748207
3 116 501 42 0.7064612386038038 0.8191701105423242 0.2795853320748207
3 503 119 504 0.7064612386038038 0.8191701105423242 0.2795853320748207
3 439 388 387 0.7064612386038038 0.8191701105423242 0.2795853320748207
3 387 388 263 0.7064612386038038 0.8191701105423242 0.2795853320748207
3 160 159 38 0.7064612386038038 0.8191701105423242 0.2795853320748207
3 38 306 160 0.7064612386038038 0.8191701105423242 0.2795853320748207
3 252 253 209 0.7064612386038038 0.8191701105423242 0.2795853320748207
3 209 253 426 0.7064612386038038 0.8191701105423242 0.2795853320748207
3 252 209 208 0.7064612386038038 0.8191701105423242 0.2795853320748207
3 157 105 158 0.7064612386038038 0.8191701105423242 0.2795853320748207
3 158 253 157 0.7064612386038038 0.8191701105423242 0.2795853320748207
3 157 253 252 0.7064612386038038 0.8191701105423242 0.2795853320748207
3 252 156 157 0.7064612386038038 0.8191701105423242 0.2795853320748207
3 102 155 154 0.7064612386038038 0.8191701105423242 0.2795853320748207
3 154 101 102 0.7064612386038038 0.8191701105423242 0.2795853320748207
3 154 153 101 0.7064612386038038 0.8191701105423242 0.2795853320748207
3 421 205 206 0.7064612386038038 0.8191701105423242 0.2795853320748207
3 206 422 421 0.7064612386038038 0.8191701105423242 0.2795853320748207
3 147 20 21 0.7064612386038038 0.8191701105423242 0.2795853320748207
3 21 422 147 0.7064612386038038 0.8191701105423242 0.2795853320748207
3 373 77 76 0.7064612386038038 0.8191701105423242 0.2795853320748207
3 76 77 242 0.7064612386038038 0.8191701105423242 0.2795853320748207
3 371 17 370 0.7064612386038038 0.8191701105423242 0.2795853320748207
3 371 74 17 0.7064612386038038 0.8191701105423242 0.2795853320748207
3 370 98 371 0.7064612386038038 0.8191701105423242 0.2795853320748207
3 536 184 0 0.7064612386038038 0.8191701105423242 0.2795853320748207
3 536 0 5 0.7064612386038038 0.8191701105423242 0.2795853320748207
3 5 537 536 0.7064612386038038 0.8191701105423242 0.2795853320748207
3 183 184 353 0.7064612386038038 0.8191701105423242 0.2795853320748207
3 2 0 183 0.7064612386038038 0.8191701105423242 0.2795853320748207
3 0 184 183 0.7064612386038038 0.8191701105423242 0.2795853320748207
3 185 354 184 0.7064612386038038 0.8191701105423242 0.2795853320748207
3 185 536 537 0.7064612386038038 0.8191701105423242 0.2795853320748207
3 184 536 185 0.7064612386038038 0.8191701105423242 0.2795853320748207
3 537 186 185 0.7064612386038038 0.8191701105423242 0.2795853320748207
3 185 186 354 0.7064612386038038 0.8191701105423242 0.2795853320748207
3 471 470 356 0.7064612386038038 0.8191701105423242 0.2795853320748207
3 470 355 356 0.7064612386038038 0.8191701105423242 0.2795853320748207
3 356 355 187 0.7064612386038038 0.8191701105423242 0.2795853320748207
3 5 6 288 0.7064612386038038 0.8191701105423242 0.2795853320748207
3 6 289 288 0.7064612386038038 0.8191701105423242 0.2795853320748207
3 288 537 5 0.7064612386038038 0.8191701105423242 0.2795853320748207
3 187 186 192 0.7064612386038038 0.8191701105423242 0.2795853320748207
3 192 288 289 0.7064612386038038 0.8191701105423242 0.2795853320748207
3 192 186 537 0.7064612386038038 0.8191701105423242 0.2795853320748207
3 537 288 192 0.7064612386038038 0.8191701105423242 0.2795853320748207
3 539 540 187 0.7064612386038038 0.8191701105423242 0.2795853320748207
3 187 192 539 0.7064612386038038 0.8191701105423242 0.2795853320748207
3 539 192 289 0.7064612386038038 0.8191701105423242 0.2795853320748207
3 242 72 71 0.7064612386038038 0.8191701105423242 0.2795853320748207
3 476 70 71 0.7064612386038038 0.8191701105423242 0.2795853320748207
3 477 72 478 0.7064612386038038 0.8191701105423242 0.2795853320748207
3 66 476 477 0.7064612386038038 0.8191701105423242 0.2795853320748207
3 476 71 477 0.7064612386038038 0.8191701105423242 0.2795853320748207
3 477 71 72 0.7064612386038038 0.8191701105423242 0.2795853320748207
3 478 67 477 0.7064612386038038 0.8191701105423242 0.2795853320748207
3 477 67 66 0.7064612386038038 0.8191701105423242 0.2795853320748207
3 242 77 243 0.7064612386038038 0.8191701105423242 0.2795853320748207
3 243 72 242 0.7064612386038038 0.8191701105423242 0.2795853320748207
3 73 72 243 0.7064612386038038 0.8191701105423242 0.2795853320748207
3 77 375 243 0.7064612386038038 0.8191701105423242 0.2795853320748207
3 151 209 426 0.7064612386038038 0.8191701105423242 0.2795853320748207
3 18 19 96 0.7064612386038038 0.8191701105423242 0.2795853320748207
3 85 84 259 0.7064612386038038 0.8191701105423242 0.2795853320748207
3 492 491 85 0.7064612386038038 0.8191701105423242 0.2795853320748207
3 85 490 84 0.7064612386038038 0.8191701105423242 0.2795853320748207
3 491 490 85 0.7064612386038038 0.8191701105423242 0.2795853320748207
3 382 108 107 0.7064612386038038 0.8191701105423242 0.2795853320748207
3 107 381 382 0.7064612386038038 0.8191701105423242 0.2795853320748207
3 264 265 380 0.7064612386038038 0.8191701105423242 0.2795853320748207
3 265 381 380 0.7064612386038038 0.8191701105423242 0.2795853320748207
3 212 211 36 0.7064612386038038 0.8191701105423242 0.2795853320748207
3 36 432 212 0.7064612386038038 0.8191701105423242 0.2795853320748207
3 212 432 213 0.7064612386038038 0.8191701105423242 0.2795853320748207
3 472 287 471 0.7064612386038038 0.8191701105423242 0.2795853320748207
3 471 356 357 0.7064612386038038 0.8191701105423242 0.2795853320748207
3 357 472 471 0.7064612386038038 0.8191701105423242 0.2795853320748207
3 358 472 357 0.7064612386038038 0.8191701105423242 0.2795853320748207
3 237 200 201 0.7064612386038038 0.8191701105423242 0.2795853320748207
3 237 236 200 0.7064612386038038 0.8191701105423242 0.2795853320748207
3 201 238 237 0.7064612386038038 0.8191701105423242 0.2795853320748207
3 198 199 235 0.7064612386038038 0.8191701105423242 0.2795853320748207
3 410 199 198 0.7064612386038038 0.8191701105423242 0.2795853320748207
3 8 410 198 0.7064612386038038 0.8191701105423242 0.2795853320748207
3 198 197 8 0.7064612386038038 0.8191701105423242 0.2795853320748207
3 6 7 232 0.7064612386038038 0.8191701105423242 0.2795853320748207
3 7 233 232 0.7064612386038038 0.8191701105423242 0.2795853320748207
3 232 289 6 0.7064612386038038 0.8191701105423242 0.2795853320748207
3 234 233 197 0.7064612386038038 0.8191701105423242 0.2795853320748207
3 234 198 235 0.7064612386038038 0.8191701105423242 0.2795853320748207
3 197 198 234 0.7064612386038038 0.8191701105423242 0.2795853320748207
3 235 292 234 0.7064612386038038 0.8191701105423242 0.2795853320748207
3 234 292 291 0.7064612386038038 0.8191701105423242 0.2795853320748207
3 291 233 234 0.7064612386038038 0.8191701105423242 0.2795853320748207
3 218 219 53 0.7064612386038038 0.8191701105423242 0.2795853320748207
3 53 54 218 0.7064612386038038 0.8191701105423242 0.2795853320748207
3 391 54 390 0.7064612386038038 0.8191701105423242 0.2795853320748207
3 55 273 390 0.7064612386038038 0.8191701105423242 0.2795853320748207
3 390 54 55 0.7064612386038038 0.8191701105423242 0.2795853320748207
3 275 391 274 0.7064612386038038 0.8191701105423242 0.2795853320748207
3 391 390 274 0.7064612386038038 0.8191701105423242 0.2795853320748207
3 273 527 274 0.7064612386038038 0.8191701105423242 0.2795853320748207
3 274 390 273 0.7064612386038038 0.8191701105423242 0.2795853320748207
3 406 530 529 0.7064612386038038 0.8191701105423242 0.2795853320748207
3 286 407 348 0.7064612386038038 0.8191701105423242 0.2795853320748207
3 348 285 286 0.7064612386038038 0.8191701105423242 0.2795853320748207
3 407 530 348 0.7064612386038038 0.8191701105423242 0.2795853320748207
3 348 530 406 0.7064612386038038 0.8191701105423242 0.2795853320748207
3 348 347 285 0.7064612386038038 0.8191701105423242 0.2795853320748207
3 348 406 347 0.7064612386038038 0.8191701105423242 0.2795853320748207
3 519 520 331 0.7064612386038038 0.8191701105423242 0.2795853320748207
3 331 330 519 0.7064612386038038 0.8191701105423242 0.2795853320748207
3 331 520 332 0.7064612386038038 0.8191701105423242 0.2795853320748207
3 332 450 331 0.7064612386038038 0.8191701105423242 0.2795853320748207
3 449 330 331 0.7064612386038038 0.8191701105423242 0.2795853320748207
3 331 450 449 0.7064612386038038 0.8191701105423242 0.2795853320748207
3 546 535 475 0.7064612386038038 0.8191701105423242 0.2795853320748207
3 474 475 534 0.7064612386038038 0.8191701105423242 0.2795853320748207
3 317 316 122 0.7064612386038038 0.8191701105423242 0.2795853320748207
3 514 140 515 0.7064612386038038 0.8191701105423242 0.2795853320748207
3 139 514 513 0.7064612386038038 0.8191701105423242 0.2795853320748207
3 139 140 514 0.7064612386038038 0.8191701105423242 0.2795853320748207
3 180 181 229 0.7064612386038038 0.8191701105423242 0.2795853320748207
3 284 228 229 0.7064612386038038 0.8191701105423242 0.2795853320748207
3 228 180 229 0.7064612386038038 0.8191701105423242 0.2795853320748207
3 229 285 284 0.7064612386038038 0.8191701105423242 0.2795853320748207
3 229 230 285 0.7064612386038038 0.8191701105423242 0.2795853320748207
3 229 181 230 0.7064612386038038 0.8191701105423242 0.2795853320748207
3 480 246 481 0.7064612386038038 0.8191701105423242 0.2795853320748207
3 481 246 482 0.7064612386038038 0.8191701105423242 0.2795853320748207
3 481 482 95 0.7064612386038038 0.8191701105423242 0.2795853320748207
3 481 69 480 0.7064612386038038 0.8191701105423242 0.2795853320748207
3 95 69 481 0.7064612386038038 0.8191701105423242 0.2795853320748207
3 245 376 377 0.7064612386038038 0.8191701105423242 0.2795853320748207
3 377 246 245 0.7064612386038038 0.8191701105423242 0.2795853320748207
3 377 376 304 0.7064612386038038 0.8191701105423242 0.2795853320748207
3 304 305 377 0.7064612386038038 0.8191701105423242 0.2795853320748207
3 377 305 378 0.7064612386038038 0.8191701105423242 0.2795853320748207
3 378 247 377 0.7064612386038038 0.8191701105423242 0.2795853320748207
3 247 246 377 0.7064612386038038 0.8191701105423242 0.2795853320748207
3 91 67 92 0.7064612386038038 0.8191701105423242 0.2795853320748207
3 91 92 360 0.7064612386038038 0.8191701105423242 0.2795853320748207
3 12 66 91 0.7064612386038038 0.8191701105423242 0.2795853320748207
3 66 67 91 0.7064612386038038 0.8191701105423242 0.2795853320748207
3 91 11 12 0.7064612386038038 0.8191701105423242 0.2795853320748207
3 360 11 91 0.7064612386038038 0.8191701105423242 0.2795853320748207
3 141 411 9 0.7064612386038038 0.8191701105423242 0.2795853320748207
3 141 9 10 0.7064612386038038 0.8191701105423242 0.2795853320748207
3 10 86 141 0.7064612386038038 0.8191701105423242 0.2795853320748207
3 141 86 142 0.7064612386038038 0.8191701105423242 0.2795853320748207
3 89 362 363 0.7064612386038038 0.8191701105423242 0.2795853320748207
3 363 362 94 0.7064612386038038 0.8191701105423242 0.2795853320748207
3 94 95 363 0.7064612386038038 0.8191701105423242 0.2795853320748207
3 95 364 363 0.7064612386038038 0.8191701105423242 0.2795853320748207
3 90 145 89 0.7064612386038038 0.8191701105423242 0.2795853320748207
3 146 145 90 0.7064612386038038 0.8191701105423242 0.2795853320748207
3 89 363 90 0.7064612386038038 0.8191701105423242 0.2795853320748207
3 90 363 364 0.7064612386038038 0.8191701105423242 0.2795853320748207
3 368 367 484 0.7064612386038038 0.8191701105423242 0.2795853320748207
3 368 485 369 0.7064612386038038 0.8191701105423242 0.2795853320748207
3 368 484 485 0.7064612386038038 0.8191701105423242 0.2795853320748207
3 369 419 368 0.7064612386038038 0.8191701105423242 0.2795853320748207
3 418 367 368 0.7064612386038038 0.8191701105423242 0.2795853320748207
3 368 419 418 0.7064612386038038 0.8191701105423242 0.2795853320748207
3 415 146 416 0.7064612386038038 0.8191701105423242 0.2795853320748207
3 146 417 416 0.7064612386038038 0.8191701105423242 0.2795853320748207
3 545 417 546 0.7064612386038038 0.8191701105423242 0.2795853320748207
3 296 417 545 0.7064612386038038 0.8191701105423242 0.2795853320748207
3 546 475 545 0.7064612386038038 0.8191701105423242 0.2795853320748207
3 545 475 474 0.7064612386038038 0.8191701105423242 0.2795853320748207
3 420 419 369 0.7064612386038038 0.8191701105423242 0.2795853320748207
3 547 419 420 0.7064612386038038 0.8191701105423242 0.2795853320748207
3 369 487 420 0.7064612386038038 0.8191701105423242 0.2795853320748207
3 413 143 144 0.7064612386038038 0.8191701105423242 0.2795853320748207
3 144 414 413 0.7064612386038038 0.8191701105423242 0.2795853320748207
3 142 143 413 0.7064612386038038 0.8191701105423242 0.2795853320748207
3 413 202 201 0.7064612386038038 0.8191701105423242 0.2795853320748207
3 413 414 202 0.7064612386038038 0.8191701105423242 0.2795853320748207
3 117 116 315 0.7064612386038038 0.8191701105423242 0.2795853320748207
3 315 316 117 0.7064612386038038 0.8191701105423242 0.2795853320748207
3 548 499 511 0.7064612386038038 0.8191701105423242 0.2795853320748207
3 548 487 499 0.7064612386038038 0.8191701105423242 0.2795853320748207
3 548 511 523 0.7064612386038038 0.8191701105423242 0.2795853320748207
3 523 547 548 0.7064612386038038 0.8191701105423242 0.2795853320748207
3 547 420 548 0.7064612386038038 0.8191701105423242 0.2795853320748207
3 548 420 487 0.7064612386038038 0.8191701105423242 0.2795853320748207
3 119 318 120 0.7064612386038038 0.8191701105423242 0.2795853320748207
3 504 119 120 0.7064612386038038 0.8191701105423242 0.2795853320748207
3 120 505 504 0.7064612386038038 0.8191701105423242 0.2795853320748207
3 320 506 120 0.7064612386038038 0.8191701105423242 0.2795853320748207
3 506 505 120 0.7064612386038038 0.8191701105423242 0.2795853320748207
3 313 505 506 0.7064612386038038 0.8191701105423242 0.2795853320748207
3 322 507 321 0.7064612386038038 0.8191701105423242 0.2795853320748207
3 449 322 321 0.7064612386038038 0.8191701105423242 0.2795853320748207
3 321 506 320 0.7064612386038038 0.8191701105423242 0.2795853320748207
3 321 507 506 0.7064612386038038 0.8191701105423242 0.2795853320748207
3 320 125 321 0.7064612386038038 0.8191701105423242 0.2795853320748207
3 508 323 509 0.7064612386038038 0.8191701105423242 0.2795853320748207
3 509 323 510 0.7064612386038038 0.8191701105423242 0.2795853320748207
3 442 508 509 0.7064612386038038 0.8191701105423242 0.2795853320748207
3 509 510 442 0.7064612386038038 0.8191701105423242 0.2795853320748207
3 303 302 428 0.7064612386038038 0.8191701105423242 0.2795853320748207
3 303 428 304 0.7064612386038038 0.8191701105423242 0.2795853320748207
3 304 375 303 0.7064612386038038 0.8191701105423242 0.2795853320748207
3 303 375 374 0.7064612386038038 0.8191701105423242 0.2795853320748207
3 374 302 303 0.7064612386038038 0.8191701105423242 0.2795853320748207
3 152 302 100 0.7064612386038038 0.8191701105423242 0.2795853320748207
3 373 99 100 0.7064612386038038 0.8191701105423242 0.2795853320748207
3 100 374 373 0.7064612386038038 0.8191701105423242 0.2795853320748207
3 100 302 374 0.7064612386038038 0.8191701105423242 0.2795853320748207
3 385 261 110 0.7064612386038038 0.8191701105423242 0.2795853320748207
3 386 261 385 0.7064612386038038 0.8191701105423242 0.2795853320748207
3 110 384 385 0.7064612386038038 0.8191701105423242 0.2795853320748207
3 384 269 385 0.7064612386038038 0.8191701105423242 0.2795853320748207
3 260 261 492 0.7064612386038038 0.8191701105423242 0.2795853320748207
3 110 261 260 0.7064612386038038 0.8191701105423242 0.2795853320748207
3 492 85 260 0.7064612386038038 0.8191701105423242 0.2795853320748207
3 259 110 260 0.7064612386038038 0.8191701105423242 0.2795853320748207
3 260 85 259 0.7064612386038038 0.8191701105423242 0.2795853320748207
3 262 261 386 0.7064612386038038 0.8191701105423242 0.2795853320748207
3 262 263 494 0.7064612386038038 0.8191701105423242 0.2795853320748207
3 262 494 493 0.7064612386038038 0.8191701105423242 0.2795853320748207
3 493 261 262 0.7064612386038038 0.8191701105423242 0.2795853320748207
3 262 387 263 0.7064612386038038 0.8191701105423242 0.2795853320748207
3 386 387 262 0.7064612386038038 0.8191701105423242 0.2795853320748207
3 111 40 41 0.7064612386038038 0.8191701105423242 0.2795853320748207
3 307 306 39 0.7064612386038038 0.8191701105423242 0.2795853320748207
3 114 113 501 0.7064612386038038 0.8191701105423242 0.2795853320748207
3 439 387 271 0.7064612386038038 0.8191701105423242 0.2795853320748207
3 271 386 217 0.7064612386038038 0.8191701105423242 0.2795853320748207
3 271 387 386 0.7064612386038038 0.8191701105423242 0.2795853320748207
3 434 160 435 0.7064612386038038 0.8191701105423242 0.2795853320748207
3 434 433 159 0.7064612386038038 0.8191701105423242 0.2795853320748207
3 159 160 434 0.7064612386038038 0.8191701105423242 0.2795853320748207
3 81 105 104 0.7064612386038038 0.8191701105423242 0.2795853320748207
3 104 80 81 0.7064612386038038 0.8191701105423242 0.2795853320748207
3 105 157 104 0.7064612386038038 0.8191701105423242 0.2795853320748207
3 104 157 156 0.7064612386038038 0.8191701105423242 0.2795853320748207
3 155 156 251 0.7064612386038038 0.8191701105423242 0.2795853320748207
3 251 208 207 0.7064612386038038 0.8191701105423242 0.2795853320748207
3 252 208 251 0.7064612386038038 0.8191701105423242 0.2795853320748207
3 251 156 252 0.7064612386038038 0.8191701105423242 0.2795853320748207
3 249 205 248 0.7064612386038038 0.8191701105423242 0.2795853320748207
3 249 206 205 0.7064612386038038 0.8191701105423242 0.2795853320748207
3 248 153 249 0.7064612386038038 0.8191701105423242 0.2795853320748207
3 153 154 249 0.7064612386038038 0.8191701105423242 0.2795853320748207
3 241 76 242 0.7064612386038038 0.8191701105423242 0.2795853320748207
3 242 71 241 0.7064612386038038 0.8191701105423242 0.2795853320748207
3 241 71 70 0.7064612386038038 0.8191701105423242 0.2795853320748207
3 241 70 15 0.7064612386038038 0.8191701105423242 0.2795853320748207
3 15 240 241 0.7064612386038038 0.8191701105423242 0.2795853320748207
3 74 371 372 0.7064612386038038 0.8191701105423242 0.2795853320748207
3 98 99 372 0.7064612386038038 0.8191701105423242 0.2795853320748207
3 372 371 98 0.7064612386038038 0.8191701105423242 0.2795853320748207
3 372 99 373 0.7064612386038038 0.8191701105423242 0.2795853320748207
3 373 76 372 0.7064612386038038 0.8191701105423242 0.2795853320748207
3 352 183 353 0.7064612386038038 0.8191701105423242 0.2795853320748207
3 352 353 467 0.7064612386038038 0.8191701105423242 0.2795853320748207
3 351 2 352 0.7064612386038038 0.8191701105423242 0.2795853320748207
3 2 183 352 0.7064612386038038 0.8191701105423242 0.2795853320748207
3 352 466 351 0.7064612386038038 0.8191701105423242 0.2795853320748207
3 467 466 352 0.7064612386038038 0.8191701105423242 0.2795853320748207
3 244 243 375 0.7064612386038038 0.8191701105423242 0.2795853320748207
3 244 376 245 0.7064612386038038 0.8191701105423242 0.2795853320748207
3 244 375 376 0.7064612386038038 0.8191701105423242 0.2795853320748207
3 245 73 244 0.7064612386038038 0.8191701105423242 0.2795853320748207
3 73 243 244 0.7064612386038038 0.8191701105423242 0.2795853320748207
3 209 151 425 0.7064612386038038 0.8191701105423242 0.2795853320748207
3 150 208 425 0.7064612386038038 0.8191701105423242 0.2795853320748207
3 425 208 209 0.7064612386038038 0.8191701105423242 0.2795853320748207
3 425 300 150 0.7064612386038038 0.8191701105423242 0.2795853320748207
3 425 151 300 0.7064612386038038 0.8191701105423242 0.2795853320748207
3 97 98 370 0.7064612386038038 0.8191701105423242 0.2795853320748207
3 97 370 18 0.7064612386038038 0.8191701105423242 0.2795853320748207
3 18 96 97 0.7064612386038038 0.8191701105423242 0.2795853320748207
3 108 258 257 0.7064612386038038 0.8191701105423242 0.2795853320748207
3 257 107 108 0.7064612386038038 0.8191701105423242 0.2795853320748207
3 257 258 83 0.7064612386038038 0.8191701105423242 0.2795853320748207
3 83 82 257 0.7064612386038038 0.8191701105423242 0.2795853320748207
3 256 30 31 0.7064612386038038 0.8191701105423242 0.2795853320748207
3 82 30 256 0.7064612386038038 0.8191701105423242 0.2795853320748207
3 256 257 82 0.7064612386038038 0.8191701105423242 0.2795853320748207
3 107 257 256 0.7064612386038038 0.8191701105423242 0.2795853320748207
3 34 264 33 0.7064612386038038 0.8191701105423242 0.2795853320748207
3 264 380 33 0.7064612386038038 0.8191701105423242 0.2795853320748207
3 33 380 32 0.7064612386038038 0.8191701105423242 0.2795853320748207
3 381 107 106 0.7064612386038038 0.8191701105423242 0.2795853320748207
3 106 380 381 0.7064612386038038 0.8191701105423242 0.2795853320748207
3 107 256 106 0.7064612386038038 0.8191701105423242 0.2795853320748207
3 32 380 106 0.7064612386038038 0.8191701105423242 0.2795853320748207
3 106 31 32 0.7064612386038038 0.8191701105423242 0.2795853320748207
3 106 256 31 0.7064612386038038 0.8191701105423242 0.2795853320748207
3 265 211 266 0.7064612386038038 0.8191701105423242 0.2795853320748207
3 211 212 266 0.7064612386038038 0.8191701105423242 0.2795853320748207
3 266 381 265 0.7064612386038038 0.8191701105423242 0.2795853320748207
3 382 381 266 0.7064612386038038 0.8191701105423242 0.2795853320748207
3 473 472 358 0.7064612386038038 0.8191701105423242 0.2795853320748207
3 188 357 356 0.7064612386038038 0.8191701105423242 0.2795853320748207
3 187 540 188 0.7064612386038038 0.8191701105423242 0.2795853320748207
3 188 356 187 0.7064612386038038 0.8191701105423242 0.2795853320748207
3 357 188 541 0.7064612386038038 0.8191701105423242 0.2795853320748207
3 541 188 540 0.7064612386038038 0.8191701105423242 0.2795853320748207
3 291 292 541 0.7064612386038038 0.8191701105423242 0.2795853320748207
3 541 540 291 0.7064612386038038 0.8191701105423242 0.2795853320748207
3 544 543 295 0.7064612386038038 0.8191701105423242 0.2795853320748207
3 295 296 544 0.7064612386038038 0.8191701105423242 0.2795853320748207
3 544 545 474 0.7064612386038038 0.8191701105423242 0.2795853320748207
3 296 545 544 0.7064612386038038 0.8191701105423242 0.2795853320748207
3 293 292 235 0.7064612386038038 0.8191701105423242 0.2795853320748207
3 235 236 293 0.7064612386038038 0.8191701105423242 0.2795853320748207
3 289 232 290 0.7064612386038038 0.8191701105423242 0.2795853320748207
3 291 540 290 0.7064612386038038 0.8191701105423242 0.2795853320748207
3 290 233 291 0.7064612386038038 0.8191701105423242 0.2795853320748207
3 290 232 233 0.7064612386038038 0.8191701105423242 0.2795853320748207
3 540 539 290 0.7064612386038038 0.8191701105423242 0.2795853320748207
3 290 539 289 0.7064612386038038 0.8191701105423242 0.2795853320748207
3 454 53 219 0.7064612386038038 0.8191701105423242 0.2795853320748207
3 52 53 454 0.7064612386038038 0.8191701105423242 0.2795853320748207
3 219 220 454 0.7064612386038038 0.8191701105423242 0.2795853320748207
3 527 405 528 0.7064612386038038 0.8191701105423242 0.2795853320748207
3 528 274 527 0.7064612386038038 0.8191701105423242 0.2795853320748207
3 275 274 528 0.7064612386038038 0.8191701105423242 0.2795853320748207
3 528 529 275 0.7064612386038038 0.8191701105423242 0.2795853320748207
3 405 406 528 0.7064612386038038 0.8191701105423242 0.2795853320748207
3 406 529 528 0.7064612386038038 0.8191701105423242 0.2795853320748207
3 277 529 530 0.7064612386038038 0.8191701105423242 0.2795853320748207
3 219 392 393 0.7064612386038038 0.8191701105423242 0.2795853320748207
3 393 220 219 0.7064612386038038 0.8191701105423242 0.2795853320748207
3 394 220 393 0.7064612386038038 0.8191701105423242 0.2795853320748207
3 393 277 394 0.7064612386038038 0.8191701105423242 0.2795853320748207
3 340 518 517 0.7064612386038038 0.8191701105423242 0.2795853320748207
3 517 339 340 0.7064612386038038 0.8191701105423242 0.2795853320748207
3 125 447 448 0.7064612386038038 0.8191701105423242 0.2795853320748207
3 449 321 448 0.7064612386038038 0.8191701105423242 0.2795853320748207
3 448 321 125 0.7064612386038038 0.8191701105423242 0.2795853320748207
3 448 330 449 0.7064612386038038 0.8191701105423242 0.2795853320748207
3 446 125 124 0.7064612386038038 0.8191701105423242 0.2795853320748207
3 446 447 125 0.7064612386038038 0.8191701105423242 0.2795853320748207
3 532 409 397 0.7064612386038038 0.8191701105423242 0.2795853320748207
3 287 472 350 0.7064612386038038 0.8191701105423242 0.2795853320748207
3 409 532 350 0.7064612386038038 0.8191701105423242 0.2795853320748207
3 472 473 350 0.7064612386038038 0.8191701105423242 0.2795853320748207
3 350 473 409 0.7064612386038038 0.8191701105423242 0.2795853320748207
3 350 408 287 0.7064612386038038 0.8191701105423242 0.2795853320748207
3 350 532 408 0.7064612386038038 0.8191701105423242 0.2795853320748207
3 399 534 463 0.7064612386038038 0.8191701105423242 0.2795853320748207
3 123 122 444 0.7064612386038038 0.8191701105423242 0.2795853320748207
3 317 122 123 0.7064612386038038 0.8191701105423242 0.2795853320748207
3 124 318 123 0.7064612386038038 0.8191701105423242 0.2795853320748207
3 123 318 317 0.7064612386038038 0.8191701105423242 0.2795853320748207
3 121 122 316 0.7064612386038038 0.8191701105423242 0.2795853320748207
3 121 315 44 0.7064612386038038 0.8191701105423242 0.2795853320748207
3 121 316 315 0.7064612386038038 0.8191701105423242 0.2795853320748207
3 44 45 121 0.7064612386038038 0.8191701105423242 0.2795853320748207
3 443 45 126 0.7064612386038038 0.8191701105423242 0.2795853320748207
3 443 121 45 0.7064612386038038 0.8191701105423242 0.2795853320748207
3 444 122 443 0.7064612386038038 0.8191701105423242 0.2795853320748207
3 122 121 443 0.7064612386038038 0.8191701105423242 0.2795853320748207
3 126 45 46 0.7064612386038038 0.8191701105423242 0.2795853320748207
3 46 324 126 0.7064612386038038 0.8191701105423242 0.2795853320748207
3 47 324 46 0.7064612386038038 0.8191701105423242 0.2795853320748207
3 519 330 329 0.7064612386038038 0.8191701105423242 0.2795853320748207
3 329 518 519 0.7064612386038038 0.8191701105423242 0.2795853320748207
3 133 515 134 0.7064612386038038 0.8191701105423242 0.2795853320748207
3 513 48 512 0.7064612386038038 0.8191701105423242 0.2795853320748207
3 512 48 49 0.7064612386038038 0.8191701105423242 0.2795853320748207
3 513 514 131 0.7064612386038038 0.8191701105423242 0.2795853320748207
3 131 48 513 0.7064612386038038 0.8191701105423242 0.2795853320748207
3 47 48 131 0.7064612386038038 0.8191701105423242 0.2795853320748207
3 133 134 326 0.7064612386038038 0.8191701105423242 0.2795853320748207
3 326 134 327 0.7064612386038038 0.8191701105423242 0.2795853320748207
3 327 128 326 0.7064612386038038 0.8191701105423242 0.2795853320748207
3 397 409 398 0.7064612386038038 0.8191701105423242 0.2795853320748207
3 399 461 398 0.7064612386038038 0.8191701105423242 0.2795853320748207
3 171 51 52 0.7064612386038038 0.8191701105423242 0.2795853320748207
3 172 51 171 0.7064612386038038 0.8191701105423242 0.2795853320748207
3 407 349 531 0.7064612386038038 0.8191701105423242 0.2795853320748207
3 349 408 531 0.7064612386038038 0.8191701105423242 0.2795853320748207
3 365 90 364 0.7064612386038038 0.8191701105423242 0.2795853320748207
3 365 95 366 0.7064612386038038 0.8191701105423242 0.2795853320748207
3 365 364 95 0.7064612386038038 0.8191701105423242 0.2795853320748207
3 366 146 365 0.7064612386038038 0.8191701105423242 0.2795853320748207
3 146 90 365 0.7064612386038038 0.8191701105423242 0.2795853320748207
3 415 416 203 0.7064612386038038 0.8191701105423242 0.2795853320748207
3 203 202 415 0.7064612386038038 0.8191701105423242 0.2795853320748207
3 203 238 202 0.7064612386038038 0.8191701105423242 0.2795853320748207
3 239 417 296 0.7064612386038038 0.8191701105423242 0.2795853320748207
3 239 416 417 0.7064612386038038 0.8191701105423242 0.2795853320748207
3 239 203 416 0.7064612386038038 0.8191701105423242 0.2795853320748207
3 238 203 239 0.7064612386038038 0.8191701105423242 0.2795853320748207
3 295 238 239 0.7064612386038038 0.8191701105423242 0.2795853320748207
3 239 296 295 0.7064612386038038 0.8191701105423242 0.2795853320748207
3 142 413 412 0.7064612386038038 0.8191701105423242 0.2795853320748207
3 412 141 142 0.7064612386038038 0.8191701105423242 0.2795853320748207
3 411 141 412 0.7064612386038038 0.8191701105423242 0.2795853320748207
3 200 411 412 0.7064612386038038 0.8191701105423242 0.2795853320748207
3 201 200 412 0.7064612386038038 0.8191701105423242 0.2795853320748207
3 412 413 201 0.7064612386038038 0.8191701105423242 0.2795853320748207
3 118 117 316 0.7064612386038038 0.8191701105423242 0.2795853320748207
3 317 119 118 0.7064612386038038 0.8191701105423242 0.2795853320748207
3 118 316 317 0.7064612386038038 0.8191701105423242 0.2795853320748207
3 119 503 118 0.7064612386038038 0.8191701105423242 0.2795853320748207
3 320 120 319 0.7064612386038038 0.8191701105423242 0.2795853320748207
3 319 120 318 0.7064612386038038 0.8191701105423242 0.2795853320748207
3 319 125 320 0.7064612386038038 0.8191701105423242 0.2795853320748207
3 124 125 319 0.7064612386038038 0.8191701105423242 0.2795853320748207
3 319 318 124 0.7064612386038038 0.8191701105423242 0.2795853320748207
3 506 507 314 0.7064612386038038 0.8191701105423242 0.2795853320748207
3 314 313 506 0.7064612386038038 0.8191701105423242 0.2795853320748207
3 314 507 508 0.7064612386038038 0.8191701105423242 0.2795853320748207
3 301 100 99 0.7064612386038038 0.8191701105423242 0.2795853320748207
3 152 100 301 0.7064612386038038 0.8191701105423242 0.2795853320748207
3 99 300 301 0.7064612386038038 0.8191701105423242 0.2795853320748207
3 300 151 301 0.7064612386038038 0.8191701105423242 0.2795853320748207
3 426 152 301 0.7064612386038038 0.8191701105423242 0.2795853320748207
3 301 151 426 0.7064612386038038 0.8191701105423242 0.2795853320748207
3 112 111 41 0.7064612386038038 0.8191701105423242 0.2795853320748207
3 167 111 112 0.7064612386038038 0.8191701105423242 0.2795853320748207
3 40 111 166 0.7064612386038038 0.8191701105423242 0.2795853320748207
3 166 111 167 0.7064612386038038 0.8191701105423242 0.2795853320748207
3 435 160 161 0.7064612386038038 0.8191701105423242 0.2795853320748207
3 161 160 306 0.7064612386038038 0.8191701105423242 0.2795853320748207
3 306 307 161 0.7064612386038038 0.8191701105423242 0.2795853320748207
3 309 166 167 0.7064612386038038 0.8191701105423242 0.2795853320748207
3 308 166 309 0.7064612386038038 0.8191701105423242 0.2795853320748207
3 217 386 270 0.7064612386038038 0.8191701105423242 0.2795853320748207
3 386 385 270 0.7064612386038038 0.8191701105423242 0.2795853320748207
3 502 114 501 0.7064612386038038 0.8191701105423242 0.2795853320748207
3 503 114 502 0.7064612386038038 0.8191701105423242 0.2795853320748207
3 502 501 116 0.7064612386038038 0.8191701105423242 0.2795853320748207
3 116 117 502 0.7064612386038038 0.8191701105423242 0.2795853320748207
3 502 118 503 0.7064612386038038 0.8191701105423242 0.2795853320748207
3 117 118 502 0.7064612386038038 0.8191701105423242 0.2795853320748207
3 115 503 504 0.7064612386038038 0.8191701105423242 0.2795853320748207
3 115 114 503 0.7064612386038038 0.8191701105423242 0.2795853320748207
3 217 270 437 0.7064612386038038 0.8191701105423242 0.2795853320748207
3 213 433 214 0.7064612386038038 0.8191701105423242 0.2795853320748207
3 433 434 214 0.7064612386038038 0.8191701105423242 0.2795853320748207
3 214 434 435 0.7064612386038038 0.8191701105423242 0.2795853320748207
3 148 149 297 0.7064612386038038 0.8191701105423242 0.2795853320748207
3 148 297 20 0.7064612386038038 0.8191701105423242 0.2795853320748207
3 20 147 148 0.7064612386038038 0.8191701105423242 0.2795853320748207
3 207 208 424 0.7064612386038038 0.8191701105423242 0.2795853320748207
3 424 208 150 0.7064612386038038 0.8191701105423242 0.2795853320748207
3 150 149 424 0.7064612386038038 0.8191701105423242 0.2795853320748207
3 80 104 103 0.7064612386038038 0.8191701105423242 0.2795853320748207
3 103 155 102 0.7064612386038038 0.8191701105423242 0.2795853320748207
3 103 156 155 0.7064612386038038 0.8191701105423242 0.2795853320748207
3 103 104 156 0.7064612386038038 0.8191701105423242 0.2795853320748207
3 102 79 103 0.7064612386038038 0.8191701105423242 0.2795853320748207
3 103 79 80 0.7064612386038038 0.8191701105423242 0.2795853320748207
3 250 251 207 0.7064612386038038 0.8191701105423242 0.2795853320748207
3 155 251 250 0.7064612386038038 0.8191701105423242 0.2795853320748207
3 207 206 250 0.7064612386038038 0.8191701105423242 0.2795853320748207
3 206 249 250 0.7064612386038038 0.8191701105423242 0.2795853320748207
3 250 154 155 0.7064612386038038 0.8191701105423242 0.2795853320748207
3 250 249 154 0.7064612386038038 0.8191701105423242 0.2795853320748207
3 74 372 75 0.7064612386038038 0.8191701105423242 0.2795853320748207
3 75 240 16 0.7064612386038038 0.8191701105423242 0.2795853320748207
3 16 74 75 0.7064612386038038 0.8191701105423242 0.2795853320748207
3 75 372 76 0.7064612386038038 0.8191701105423242 0.2795853320748207
3 75 241 240 0.7064612386038038 0.8191701105423242 0.2795853320748207
3 76 241 75 0.7064612386038038 0.8191701105423242 0.2795853320748207
3 297 149 298 0.7064612386038038 0.8191701105423242 0.2795853320748207
3 298 19 297 0.7064612386038038 0.8191701105423242 0.2795853320748207
3 298 96 19 0.7064612386038038 0.8191701105423242 0.2795853320748207
3 267 212 213 0.7064612386038038 0.8191701105423242 0.2795853320748207
3 267 266 212 0.7064612386038038 0.8191701105423242 0.2795853320748207
3 382 266 267 0.7064612386038038 0.8191701105423242 0.2795853320748207
3 267 383 382 0.7064612386038038 0.8191701105423242 0.2795853320748207
3 213 214 267 0.7064612386038038 0.8191701105423242 0.2795853320748207
3 359 473 358 0.7064612386038038 0.8191701105423242 0.2795853320748207
3 474 473 359 0.7064612386038038 0.8191701105423242 0.2795853320748207
3 359 544 474 0.7064612386038038 0.8191701105423242 0.2795853320748207
3 543 544 359 0.7064612386038038 0.8191701105423242 0.2795853320748207
3 358 357 189 0.7064612386038038 0.8191701105423242 0.2795853320748207
3 357 541 189 0.7064612386038038 0.8191701105423242 0.2795853320748207
3 236 237 294 0.7064612386038038 0.8191701105423242 0.2795853320748207
3 294 293 236 0.7064612386038038 0.8191701105423242 0.2795853320748207
3 543 293 294 0.7064612386038038 0.8191701105423242 0.2795853320748207
3 295 543 294 0.7064612386038038 0.8191701105423242 0.2795853320748207
3 294 238 295 0.7064612386038038 0.8191701105423242 0.2795853320748207
3 294 237 238 0.7064612386038038 0.8191701105423242 0.2795853320748207
3 52 454 455 0.7064612386038038 0.8191701105423242 0.2795853320748207
3 455 454 220 0.7064612386038038 0.8191701105423242 0.2795853320748207
3 455 171 52 0.7064612386038038 0.8191701105423242 0.2795853320748207
3 276 393 392 0.7064612386038038 0.8191701105423242 0.2795853320748207
3 276 392 275 0.7064612386038038 0.8191701105423242 0.2795853320748207
3 275 529 276 0.7064612386038038 0.8191701105423242 0.2795853320748207
3 529 277 276 0.7064612386038038 0.8191701105423242 0.2795853320748207
3 277 393 276 0.7064612386038038 0.8191701105423242 0.2795853320748207
3 408 532 279 0.7064612386038038 0.8191701105423242 0.2795853320748207
3 279 532 397 0.7064612386038038 0.8191701105423242 0.2795853320748207
3 464 463 534 0.7064612386038038 0.8191701105423242 0.2795853320748207
3 464 475 535 0.7064612386038038 0.8191701105423242 0.2795853320748207
3 464 534 475 0.7064612386038038 0.8191701105423242 0.2795853320748207
3 520 463 464 0.7064612386038038 0.8191701105423242 0.2795853320748207
3 521 520 464 0.7064612386038038 0.8191701105423242 0.2795853320748207
3 464 522 521 0.7064612386038038 0.8191701105423242 0.2795853320748207
3 464 535 522 0.7064612386038038 0.8191701105423242 0.2795853320748207
3 341 520 519 0.7064612386038038 0.8191701105423242 0.2795853320748207
3 341 463 520 0.7064612386038038 0.8191701105423242 0.2795853320748207
3 519 518 341 0.7064612386038038 0.8191701105423242 0.2795853320748207
3 518 340 341 0.7064612386038038 0.8191701105423242 0.2795853320748207
3 399 463 462 0.7064612386038038 0.8191701105423242 0.2795853320748207
3 462 461 399 0.7064612386038038 0.8191701105423242 0.2795853320748207
3 462 341 340 0.7064612386038038 0.8191701105423242 0.2795853320748207
3 463 341 462 0.7064612386038038 0.8191701105423242 0.2795853320748207
3 462 339 461 0.7064612386038038 0.8191701105423242 0.2795853320748207
3 462 340 339 0.7064612386038038 0.8191701105423242 0.2795853320748207
3 445 123 444 0.7064612386038038 0.8191701105423242 0.2795853320748207
3 444 128 445 0.7064612386038038 0.8191701105423242 0.2795853320748207
3 445 446 124 0.7064612386038038 0.8191701105423242 0.2795853320748207
3 124 123 445 0.7064612386038038 0.8191701105423242 0.2795853320748207
3 327 134 135 0.7064612386038038 0.8191701105423242 0.2795853320748207
3 517 518 135 0.7064612386038038 0.8191701105423242 0.2795853320748207
3 518 329 135 0.7064612386038038 0.8191701105423242 0.2795853320748207
3 516 134 515 0.7064612386038038 0.8191701105423242 0.2795853320748207
3 516 515 140 0.7064612386038038 0.8191701105423242 0.2795853320748207
3 517 135 516 0.7064612386038038 0.8191701105423242 0.2795853320748207
3 516 135 134 0.7064612386038038 0.8191701105423242 0.2795853320748207
3 516 339 517 0.7064612386038038 0.8191701105423242 0.2795853320748207
3 140 339 516 0.7064612386038038 0.8191701105423242 0.2795853320748207
3 127 128 444 0.7064612386038038 0.8191701105423242 0.2795853320748207
3 127 443 126 0.7064612386038038 0.8191701105423242 0.2795853320748207
3 444 443 127 0.7064612386038038 0.8191701105423242 0.2795853320748207
3 127 326 128 0.7064612386038038 0.8191701105423242 0.2795853320748207
3 130 448 447 0.7064612386038038 0.8191701105423242 0.2795853320748207
3 447 446 130 0.7064612386038038 0.8191701105423242 0.2795853320748207
3 330 448 130 0.7064612386038038 0.8191701105423242 0.2795853320748207
3 130 329 330 0.7064612386038038 0.8191701105423242 0.2795853320748207
3 132 324 47 0.7064612386038038 0.8191701105423242 0.2795853320748207
3 47 131 132 0.7064612386038038 0.8191701105423242 0.2795853320748207
3 132 131 514 0.7064612386038038 0.8191701105423242 0.2795853320748207
3 514 515 132 0.7064612386038038 0.8191701105423242 0.2795853320748207
3 132 515 133 0.7064612386038038 0.8191701105423242 0.2795853320748207
3 133 326 325 0.7064612386038038 0.8191701105423242 0.2795853320748207
3 325 132 133 0.7064612386038038 0.8191701105423242 0.2795853320748207
3 324 132 325 0.7064612386038038 0.8191701105423242 0.2795853320748207
3 126 324 325 0.7064612386038038 0.8191701105423242 0.2795853320748207
3 325 127 126 0.7064612386038038 0.8191701105423242 0.2795853320748207
3 326 127 325 0.7064612386038038 0.8191701105423242 0.2795853320748207
3 533 398 409 0.7064612386038038 0.8191701105423242 0.2795853320748207
3 533 473 474 0.7064612386038038 0.8191701105423242 0.2795853320748207
3 409 473 533 0.7064612386038038 0.8191701105423242 0.2795853320748207
3 399 398 533 0.7064612386038038 0.8191701105423242 0.2795853320748207
3 474 534 533 0.7064612386038038 0.8191701105423242 0.2795853320748207
3 533 534 399 0.7064612386038038 0.8191701105423242 0.2795853320748207
3 140 139 337 0.7064612386038038 0.8191701105423242 0.2795853320748207
3 460 398 461 0.7064612386038038 0.8191701105423242 0.2795853320748207
3 397 398 460 0.7064612386038038 0.8191701105423242 0.2795853320748207
3 176 337 175 0.7064612386038038 0.8191701105423242 0.2795853320748207
3 49 50 136 0.7064612386038038 0.8191701105423242 0.2795853320748207
3 136 50 334 0.7064612386038038 0.8191701105423242 0.2795853320748207
3 334 50 333 0.7064612386038038 0.8191701105423242 0.2795853320748207
3 333 50 51 0.7064612386038038 0.8191701105423242 0.2795853320748207
3 333 51 172 0.7064612386038038 0.8191701105423242 0.2795853320748207
3 333 173 334 0.7064612386038038 0.8191701105423242 0.2795853320748207
3 172 173 333 0.7064612386038038 0.8191701105423242 0.2795853320748207
3 457 173 172 0.7064612386038038 0.8191701105423242 0.2795853320748207
3 441 508 442 0.7064612386038038 0.8191701105423242 0.2795853320748207
3 441 314 508 0.7064612386038038 0.8191701105423242 0.2795853320748207
3 441 498 389 0.7064612386038038 0.8191701105423242 0.2795853320748207
3 442 498 441 0.7064612386038038 0.8191701105423242 0.2795853320748207
3 313 314 440 0.7064612386038038 0.8191701105423242 0.2795853320748207
3 389 388 440 0.7064612386038038 0.8191701105423242 0.2795853320748207
3 440 441 389 0.7064612386038038 0.8191701105423242 0.2795853320748207
3 314 441 440 0.7064612386038038 0.8191701105423242 0.2795853320748207
3 440 388 439 0.7064612386038038 0.8191701105423242 0.2795853320748207
3 500 112 41 0.7064612386038038 0.8191701105423242 0.2795853320748207
3 41 42 500 0.7064612386038038 0.8191701105423242 0.2795853320748207
3 500 42 501 0.7064612386038038 0.8191701105423242 0.2795853320748207
3 501 113 500 0.7064612386038038 0.8191701105423242 0.2795853320748207
3 113 112 500 0.7064612386038038 0.8191701105423242 0.2795853320748207
3 39 40 165 0.7064612386038038 0.8191701105423242 0.2795853320748207
3 40 166 165 0.7064612386038038 0.8191701105423242 0.2795853320748207
3 165 307 39 0.7064612386038038 0.8191701105423242 0.2795853320748207
3 308 307 165 0.7064612386038038 0.8191701105423242 0.2795853320748207
3 165 166 308 0.7064612386038038 0.8191701105423242 0.2795853320748207
3 113 114 168 0.7064612386038038 0.8191701105423242 0.2795853320748207
3 168 309 167 0.7064612386038038 0.8191701105423242 0.2795853320748207
3 167 112 168 0.7064612386038038 0.8191701105423242 0.2795853320748207
3 168 112 113 0.7064612386038038 0.8191701105423242 0.2795853320748207
3 269 436 216 0.7064612386038038 0.8191701105423242 0.2795853320748207
3 216 385 269 0.7064612386038038 0.8191701105423242 0.2795853320748207
3 216 270 385 0.7064612386038038 0.8191701105423242 0.2795853320748207
3 216 437 270 0.7064612386038038 0.8191701105423242 0.2795853320748207
3 216 436 163 0.7064612386038038 0.8191701105423242 0.2795853320748207
3 163 437 216 0.7064612386038038 0.8191701105423242 0.2795853320748207
3 435 161 162 0.7064612386038038 0.8191701105423242 0.2795853320748207
3 162 436 435 0.7064612386038038 0.8191701105423242 0.2795853320748207
3 162 307 308 0.7064612386038038 0.8191701105423242 0.2795853320748207
3 162 161 307 0.7064612386038038 0.8191701105423242 0.2795853320748207
3 163 436 162 0.7064612386038038 0.8191701105423242 0.2795853320748207
3 308 309 162 0.7064612386038038 0.8191701105423242 0.2795853320748207
3 162 309 163 0.7064612386038038 0.8191701105423242 0.2795853320748207
3 504 505 170 0.7064612386038038 0.8191701105423242 0.2795853320748207
3 170 115 504 0.7064612386038038 0.8191701105423242 0.2795853320748207
3 505 313 170 0.7064612386038038 0.8191701105423242 0.2795853320748207
3 215 214 435 0.7064612386038038 0.8191701105423242 0.2795853320748207
3 435 436 215 0.7064612386038038 0.8191701105423242 0.2795853320748207
3 215 436 269 0.7064612386038038 0.8191701105423242 0.2795853320748207
3 149 148 423 0.7064612386038038 0.8191701105423242 0.2795853320748207
3 207 424 423 0.7064612386038038 0.8191701105423242 0.2795853320748207
3 423 424 149 0.7064612386038038 0.8191701105423242 0.2795853320748207
3 423 206 207 0.7064612386038038 0.8191701105423242 0.2795853320748207
3 422 206 423 0.7064612386038038 0.8191701105423242 0.2795853320748207
3 423 147 422 0.7064612386038038 0.8191701105423242 0.2795853320748207
3 423 148 147 0.7064612386038038 0.8191701105423242 0.2795853320748207
3 299 97 96 0.7064612386038038 0.8191701105423242 0.2795853320748207
3 96 298 299 0.7064612386038038 0.8191701105423242 0.2795853320748207
3 150 300 299 0.7064612386038038 0.8191701105423242 0.2795853320748207
3 299 149 150 0.7064612386038038 0.8191701105423242 0.2795853320748207
3 299 298 149 0.7064612386038038 0.8191701105423242 0.2795853320748207
3 299 300 98 0.7064612386038038 0.8191701105423242 0.2795853320748207
3 98 97 299 0.7064612386038038 0.8191701105423242 0.2795853320748207
3 383 267 268 0.7064612386038038 0.8191701105423242 0.2795853320748207
3 268 267 214 0.7064612386038038 0.8191701105423242 0.2795853320748207
3 268 384 383 0.7064612386038038 0.8191701105423242 0.2795853320748207
3 214 215 268 0.7064612386038038 0.8191701105423242 0.2795853320748207
3 268 269 384 0.7064612386038038 0.8191701105423242 0.2795853320748207
3 268 215 269 0.7064612386038038 0.8191701105423242 0.2795853320748207
3 292 293 542 0.7064612386038038 0.8191701105423242 0.2795853320748207
3 542 541 292 0.7064612386038038 0.8191701105423242 0.2795853320748207
3 542 189 541 0.7064612386038038 0.8191701105423242 0.2795853320748207
3 358 189 542 0.7064612386038038 0.8191701105423242 0.2795853320748207
3 542 293 543 0.7064612386038038 0.8191701105423242 0.2795853320748207
3 542 359 358 0.7064612386038038 0.8191701105423242 0.2795853320748207
3 543 359 542 0.7064612386038038 0.8191701105423242 0.2795853320748207
3 396 531 408 0.7064612386038038 0.8191701105423242 0.2795853320748207
3 408 279 396 0.7064612386038038 0.8191701105423242 0.2795853320748207
3 329 130 328 0.7064612386038038 0.8191701105423242 0.2795853320748207
3 327 135 328 0.7064612386038038 0.8191701105423242 0.2795853320748207
3 328 135 329 0.7064612386038038 0.8191701105423242 0.2795853320748207
3 129 130 446 0.7064612386038038 0.8191701105423242 0.2795853320748207
3 446 445 129 0.7064612386038038 0.8191701105423242 0.2795853320748207
3 129 445 128 0.7064612386038038 0.8191701105423242 0.2795853320748207
3 129 328 130 0.7064612386038038 0.8191701105423242 0.2795853320748207
3 129 128 327 0.7064612386038038 0.8191701105423242 0.2795853320748207
3 327 328 129 0.7064612386038038 0.8191701105423242 0.2795853320748207
3 140 337 338 0.7064612386038038 0.8191701105423242 0.2795853320748207
3 338 337 176 0.7064612386038038 0.8191701105423242 0.2795853320748207
3 338 339 140 0.7064612386038038 0.8191701105423242 0.2795853320748207
3 461 339 338 0.7064612386038038 0.8191701105423242 0.2795853320748207
3 338 460 461 0.7064612386038038 0.8191701105423242 0.2795853320748207
3 176 460 338 0.7064612386038038 0.8191701105423242 0.2795853320748207
3 334 173 174 0.7064612386038038 0.8191701105423242 0.2795853320748207
3 459 460 176 0.7064612386038038 0.8191701105423242 0.2795853320748207
3 176 175 459 0.7064612386038038 0.8191701105423242 0.2795853320748207
3 138 337 139 0.7064612386038038 0.8191701105423242 0.2795853320748207
3 138 139 513 0.7064612386038038 0.8191701105423242 0.2795853320748207
3 513 512 138 0.7064612386038038 0.8191701105423242 0.2795853320748207
3 394 277 395 0.7064612386038038 0.8191701105423242 0.2795853320748207
3 395 277 530 0.7064612386038038 0.8191701105423242 0.2795853320748207
3 456 457 172 0.7064612386038038 0.8191701105423242 0.2795853320748207
3 172 171 456 0.7064612386038038 0.8191701105423242 0.2795853320748207
3 171 455 456 0.7064612386038038 0.8191701105423242 0.2795853320748207
3 438 271 217 0.7064612386038038 0.8191701105423242 0.2795853320748207
3 439 271 438 0.7064612386038038 0.8191701105423242 0.2795853320748207
3 312 170 313 0.7064612386038038 0.8191701105423242 0.2795853320748207
3 312 440 439 0.7064612386038038 0.8191701105423242 0.2795853320748207
3 313 440 312 0.7064612386038038 0.8191701105423242 0.2795853320748207
3 169 168 114 0.7064612386038038 0.8191701105423242 0.2795853320748207
3 114 115 169 0.7064612386038038 0.8191701105423242 0.2795853320748207
3 115 170 169 0.7064612386038038 0.8191701105423242 0.2795853320748207
3 335 136 334 0.7064612386038038 0.8191701105423242 0.2795853320748207
3 334 174 335 0.7064612386038038 0.8191701105423242 0.2795853320748207
3 335 174 175 0.7064612386038038 0.8191701105423242 0.2795853320748207
3 173 457 458 0.7064612386038038 0.8191701105423242 0.2795853320748207
3 458 174 173 0.7064612386038038 0.8191701105423242 0.2795853320748207
3 458 457 223 0.7064612386038038 0.8191701105423242 0.2795853320748207
3 223 459 458 0.7064612386038038 0.8191701105423242 0.2795853320748207
3 175 174 458 0.7064612386038038 0.8191701105423242 0.2795853320748207
3 458 459 175 0.7064612386038038 0.8191701105423242 0.2795853320748207
3 223 396 224 0.7064612386038038 0.8191701105423242 0.2795853320748207
3 224 459 223 0.7064612386038038 0.8191701105423242 0.2795853320748207
3 224 396 279 0.7064612386038038 0.8191701105423242 0.2795853320748207
3 224 279 397 0.7064612386038038 0.8191701105423242 0.2795853320748207
3 397 460 224 0.7064612386038038 0.8191701105423242 0.2795853320748207
3 460 459 224 0.7064612386038038 0.8191701105423242 0.2795853320748207
3 223 457 222 0.7064612386038038 0.8191701105423242 0.2795853320748207
3 222 395 223 0.7064612386038038 0.8191701105423242 0.2795853320748207
3 457 456 222 0.7064612386038038 0.8191701105423242 0.2795853320748207
3 278 396 223 0.7064612386038038 0.8191701105423242 0.2795853320748207
3 223 395 278 0.7064612386038038 0.8191701105423242 0.2795853320748207
3 531 396 278 0.7064612386038038 0.8191701105423242 0.2795853320748207
3 407 531 278 0.7064612386038038 0.8191701105423242 0.2795853320748207
3 278 530 407 0.7064612386038038 0.8191701105423242 0.2795853320748207
3 278 395 530 0.7064612386038038 0.8191701105423242 0.2795853320748207
3 221 456 455 0.7064612386038038 0.8191701105423242 0.2795853320748207
3 221 220 394 0.7064612386038038 0.8191701105423242 0.2795853320748207
3 221 455 220 0.7064612386038038 0.8191701105423242 0.2795853320748207
3 221 222 456 0.7064612386038038 0.8191701105423242 0.2795853320748207
3 394 395 221 0.7064612386038038 0.8191701105423242 0.2795853320748207
3 395 222 221 0.7064612386038038 0.8191701105423242 0.2795853320748207
3 168 169 310 0.7064612386038038 0.8191701105423242 0.2795853320748207
3 163 309 310 0.7064612386038038 0.8191701105423242 0.2795853320748207
3 309 168 310 0.7064612386038038 0.8191701105423242 0.2795853320748207
3 170 312 311 0.7064612386038038 0.8191701105423242 0.2795853320748207
3 311 169 170 0.7064612386038038 0.8191701105423242 0.2795853320748207
3 439 438 311 0.7064612386038038 0.8191701105423242 0.2795853320748207
3 311 312 439 0.7064612386038038 0.8191701105423242 0.2795853320748207
3 311 310 169 0.7064612386038038 0.8191701105423242 0.2795853320748207
3 136 335 137 0.7064612386038038 0.8191701105423242 0.2795853320748207
3 137 138 512 0.7064612386038038 0.8191701105423242 0.2795853320748207
3 137 512 49 0.7064612386038038 0.8191701105423242 0.2795853320748207
3 49 136 137 0.7064612386038038 0.8191701105423242 0.2795853320748207
3 336 335 175 0.7064612386038038 0.8191701105423242 0.2795853320748207
3 336 175 337 0.7064612386038038 0.8191701105423242 0.2795853320748207
3 337 138 336 0.7064612386038038 0.8191701105423242 0.2795853320748207
3 138 137 336 0.7064612386038038 0.8191701105423242 0.2795853320748207
3 336 137 335 0.7064612386038038 0.8191701105423242 0.2795853320748207
3 164 311 438 0.7064612386038038 0.8191701105423242 0.2795853320748207
3 310 311 164 0.7064612386038038 0.8191701105423242 0.2795853320748207
3 217 437 164 0.7064612386038038 0.8191701105423242 0.2795853320748207
3 164 438 217 0.7064612386038038 0.8191701105423242 0.2795853320748207
3 164 437 163 0.7064612386038038 0.8191701105423242 0.2795853320748207
3 163 310 164 0.7064612386038038 0.8191701105423242 0.2795853320748207
