OFF
39 34 0


31.6533 33.8285 6.1986
31.6533 33.8285 6.1986
31.5735 33.7539 6.267
31.5028 33.6844 6.3292
31.4392 33.6185 6.3866
31.3814 33.5552 6.4404
31.3281 33.4939 6.4913
31.2785 33.4336 6.5402
31.232 33.3737 6.5876
31.1877 33.3136 6.6341
31.1453 33.2527 6.6801
31.1042 33.1902 6.7263
31.064 33.1256 6.7732
31.0243 33.058 6.8212
30.9847 32.9864 6.8709
30.9446 32.9097 6.9232
30.9038 32.8265 6.9788
30.8615 32.7351 7.0388
30.8171 32.6332 7.1044
30.9159 32.7002 7.0314
31.0021 32.7604 6.9669
31.0788 32.8157 6.9086
31.1485 32.8674 6.8551
31.213 32.9167 6.8048
31.2738 32.9644 6.7569
31.3319 33.0115 6.7104
31.3885 33.0586 6.6646
31.4443 33.1065 6.6187
31.5004 33.156 6.572
31.5575 33.2079 6.5237
31.6166 33.2633 6.473
31.6788 33.3234 6.4188
31.7455 33.3898 6.3598
31.8183 33.4646 6.2943
31.8995 33.5507 6.22
31.8995 33.5507 6.22
31.8124 33.6536 6.2104
31.7451 33.7295 6.2045
31.6533 33.8285 6.1986
3 2 37 0 0.0593179210545175 0.3976677946772288 0.9759192880362508
3 26 27 9 0.0593179210545175 0.3976677946772288 0.9759192880362508
3 34 36 33 0.0593179210545175 0.3976677946772288 0.9759192880362508
3 37 2 3 0.0593179210545175 0.3976677946772288 0.9759192880362508
3 3 36 37 0.0593179210545175 0.3976677946772288 0.9759192880362508
3 3 33 36 0.0593179210545175 0.3976677946772288 0.9759192880362508
3 26 9 10 0.0593179210545175 0.3976677946772288 0.9759192880362508
3 29 7 28 0.0593179210545175 0.3976677946772288 0.9759192880362508
3 33 3 32 0.0593179210545175 0.3976677946772288 0.9759192880362508
3 4 31 32 0.0593179210545175 0.3976677946772288 0.9759192880362508
3 32 3 4 0.0593179210545175 0.3976677946772288 0.9759192880362508
3 6 7 29 0.0593179210545175 0.3976677946772288 0.9759192880362508
3 29 30 6 0.0593179210545175 0.3976677946772288 0.9759192880362508
3 8 28 7 0.0593179210545175 0.3976677946772288 0.9759192880362508
3 8 9 27 0.0593179210545175 0.3976677946772288 0.9759192880362508
3 27 28 8 0.0593179210545175 0.3976677946772288 0.9759192880362508
3 18 19 17 0.0593179210545175 0.3976677946772288 0.9759192880362508
3 21 15 20 0.0593179210545175 0.3976677946772288 0.9759192880362508
3 11 24 25 0.0593179210545175 0.3976677946772288 0.9759192880362508
3 26 10 25 0.0593179210545175 0.3976677946772288 0.9759192880362508
3 25 10 11 0.0593179210545175 0.3976677946772288 0.9759192880362508
3 12 24 11 0.0593179210545175 0.3976677946772288 0.9759192880362508
3 23 24 12 0.0593179210545175 0.3976677946772288 0.9759192880362508
3 12 13 23 0.0593179210545175 0.3976677946772288 0.9759192880362508
3 14 15 21 0.0593179210545175 0.3976677946772288 0.9759192880362508
3 5 31 4 0.0593179210545175 0.3976677946772288 0.9759192880362508
3 5 30 31 0.0593179210545175 0.3976677946772288 0.9759192880362508
3 5 6 30 0.0593179210545175 0.3976677946772288 0.9759192880362508
3 16 20 15 0.0593179210545175 0.3976677946772288 0.9759192880362508
3 16 17 19 0.0593179210545175 0.3976677946772288 0.9759192880362508
3 19 20 16 0.0593179210545175 0.3976677946772288 0.9759192880362508
3 22 14 21 0.0593179210545175 0.3976677946772288 0.9759192880362508
3 23 13 22 0.0593179210545175 0.3976677946772288 0.9759192880362508
3 13 14 22 0.0593179210545175 0.3976677946772288 0.9759192880362508
