OFF
92 85 0


31.5839 26.8795 9.1592
31.5839 26.8795 9.1592
31.4899 26.9418 9.2032
31.3988 27.002 9.2456
31.3103 27.0604 9.2866
31.2239 27.1172 9.3262
31.1394 27.1727 9.3648
31.0564 27.2271 9.4024
30.9747 27.2806 9.4391
30.8938 27.3333 9.475
30.8137 27.3854 9.5103
30.734 27.437 9.5449
30.6544 27.4883 9.579
30.5747 27.5395 9.6126
30.4948 27.5906 9.6456
30.4143 27.6417 9.6782
30.3329 27.6929 9.7103
30.2506 27.7444 9.7417
30.1669 27.7962 9.7725
30.0817 27.8483 9.8023
29.9947 27.9007 9.831
29.9057 27.9533 9.8581
29.8146 28.0061 9.883
29.721 28.0587 9.9051
29.6251 28.1108 9.9234
29.5268 28.1618 9.9367
29.4265 28.211 9.9437
29.3245 28.2578 9.9431
29.2216 28.3012 9.9337
29.1185 28.3409 9.9154
29.0158 28.3765 9.8882
28.9143 28.4082 9.8532
28.8143 28.4364 9.8115
28.7159 28.4616 9.7645
28.6192 28.4842 9.7134
28.524 28.5047 9.6591
28.4301 28.5236 9.6023
28.3374 28.5411 9.5435
28.2455 28.5575 9.4832
28.1542 28.5731 9.4214
28.0632 28.588 9.3584
28.0632 28.588 9.3584
28.0917 28.5252 9.243
28.1123 28.4805 9.161
28.1331 28.4357 9.0792
28.1629 28.3726 8.9643
28.1629 28.3726 8.9643
28.2193 28.3327 8.932
28.2758 28.2929 8.8997
28.3322 28.253 8.8674
28.3887 28.2131 8.8352
28.4452 28.1732 8.8029
28.5016 28.1333 8.7706
28.5581 28.0934 8.7383
28.6145 28.0535 8.706
28.6937 28.0146 8.7004
28.7729 27.9756 8.6947
28.8521 27.9367 8.6891
28.9313 27.8978 8.6834
29.0105 27.8589 8.6778
29.0897 27.8199 8.6721
29.1689 27.781 8.6665
29.2481 27.7421 8.6608
29.3272 27.7031 8.6552
29.4064 27.6642 8.6495
29.4856 27.6253 8.6439
29.5648 27.5863 8.6382
29.644 27.5474 8.6326
29.7232 27.5085 8.6269
29.8024 27.4695 8.6213
29.8024 27.4695 8.6213
29.8872 27.4414 8.6469
29.9721 27.4133 8.6725
30.0569 27.3852 8.6981
30.1417 27.3572 8.7237
30.2266 27.3291 8.7493
30.3114 27.301 8.775
30.3963 27.2729 8.8006
30.4811 27.2448 8.8262
30.5659 27.2167 8.8518
30.6508 27.1886 8.8774
30.7356 27.1605 8.9031
30.8204 27.1324 8.9287
30.9053 27.1043 8.9543
30.9901 27.0762 8.9799
31.0749 27.0481 9.0055
31.1598 27.02 9.0311
31.2446 26.9919 9.0568
31.3294 26.9638 9.0824
31.4143 26.9357 9.108
31.4991 26.9076 9.1336
31.5839 26.8795 9.1592
3 42 43 38 0.9151397895814546 0.039465559163807895 0.1373123710003452
3 59 28 29 0.9151397895814546 0.039465559163807895 0.1373123710003452
3 29 30 59 0.9151397895814546 0.039465559163807895 0.1373123710003452
3 80 10 11 0.9151397895814546 0.039465559163807895 0.1373123710003452
3 40 42 39 0.9151397895814546 0.039465559163807895 0.1373123710003452
3 39 42 38 0.9151397895814546 0.039465559163807895 0.1373123710003452
3 26 61 25 0.9151397895814546 0.039465559163807895 0.1373123710003452
3 23 64 22 0.9151397895814546 0.039465559163807895 0.1373123710003452
3 22 65 21 0.9151397895814546 0.039465559163807895 0.1373123710003452
3 64 65 22 0.9151397895814546 0.039465559163807895 0.1373123710003452
3 23 24 63 0.9151397895814546 0.039465559163807895 0.1373123710003452
3 63 64 23 0.9151397895814546 0.039465559163807895 0.1373123710003452
3 60 61 26 0.9151397895814546 0.039465559163807895 0.1373123710003452
3 26 27 60 0.9151397895814546 0.039465559163807895 0.1373123710003452
3 60 27 28 0.9151397895814546 0.039465559163807895 0.1373123710003452
3 28 59 60 0.9151397895814546 0.039465559163807895 0.1373123710003452
3 58 30 31 0.9151397895814546 0.039465559163807895 0.1373123710003452
3 58 59 30 0.9151397895814546 0.039465559163807895 0.1373123710003452
3 7 83 84 0.9151397895814546 0.039465559163807895 0.1373123710003452
3 81 10 80 0.9151397895814546 0.039465559163807895 0.1373123710003452
3 8 83 7 0.9151397895814546 0.039465559163807895 0.1373123710003452
3 13 77 78 0.9151397895814546 0.039465559163807895 0.1373123710003452
3 78 12 13 0.9151397895814546 0.039465559163807895 0.1373123710003452
3 74 17 73 0.9151397895814546 0.039465559163807895 0.1373123710003452
3 18 73 17 0.9151397895814546 0.039465559163807895 0.1373123710003452
3 72 73 18 0.9151397895814546 0.039465559163807895 0.1373123710003452
3 50 35 36 0.9151397895814546 0.039465559163807895 0.1373123710003452
3 36 49 50 0.9151397895814546 0.039465559163807895 0.1373123710003452
3 51 35 50 0.9151397895814546 0.039465559163807895 0.1373123710003452
3 52 34 51 0.9151397895814546 0.039465559163807895 0.1373123710003452
3 51 34 35 0.9151397895814546 0.039465559163807895 0.1373123710003452
3 20 21 66 0.9151397895814546 0.039465559163807895 0.1373123710003452
3 21 65 66 0.9151397895814546 0.039465559163807895 0.1373123710003452
3 67 20 66 0.9151397895814546 0.039465559163807895 0.1373123710003452
3 62 63 24 0.9151397895814546 0.039465559163807895 0.1373123710003452
3 62 25 61 0.9151397895814546 0.039465559163807895 0.1373123710003452
3 24 25 62 0.9151397895814546 0.039465559163807895 0.1373123710003452
3 31 32 57 0.9151397895814546 0.039465559163807895 0.1373123710003452
3 57 58 31 0.9151397895814546 0.039465559163807895 0.1373123710003452
3 47 44 46 0.9151397895814546 0.039465559163807895 0.1373123710003452
3 48 44 47 0.9151397895814546 0.039465559163807895 0.1373123710003452
3 85 5 6 0.9151397895814546 0.039465559163807895 0.1373123710003452
3 7 84 6 0.9151397895814546 0.039465559163807895 0.1373123710003452
3 6 84 85 0.9151397895814546 0.039465559163807895 0.1373123710003452
3 86 5 85 0.9151397895814546 0.039465559163807895 0.1373123710003452
3 88 89 3 0.9151397895814546 0.039465559163807895 0.1373123710003452
3 3 89 2 0.9151397895814546 0.039465559163807895 0.1373123710003452
3 76 15 75 0.9151397895814546 0.039465559163807895 0.1373123710003452
3 83 8 82 0.9151397895814546 0.039465559163807895 0.1373123710003452
3 80 11 79 0.9151397895814546 0.039465559163807895 0.1373123710003452
3 11 12 79 0.9151397895814546 0.039465559163807895 0.1373123710003452
3 12 78 79 0.9151397895814546 0.039465559163807895 0.1373123710003452
3 16 17 74 0.9151397895814546 0.039465559163807895 0.1373123710003452
3 74 75 16 0.9151397895814546 0.039465559163807895 0.1373123710003452
3 16 75 15 0.9151397895814546 0.039465559163807895 0.1373123710003452
3 14 15 76 0.9151397895814546 0.039465559163807895 0.1373123710003452
3 14 77 13 0.9151397895814546 0.039465559163807895 0.1373123710003452
3 14 76 77 0.9151397895814546 0.039465559163807895 0.1373123710003452
3 69 71 68 0.9151397895814546 0.039465559163807895 0.1373123710003452
3 19 71 72 0.9151397895814546 0.039465559163807895 0.1373123710003452
3 72 18 19 0.9151397895814546 0.039465559163807895 0.1373123710003452
3 19 68 71 0.9151397895814546 0.039465559163807895 0.1373123710003452
3 67 68 19 0.9151397895814546 0.039465559163807895 0.1373123710003452
3 19 20 67 0.9151397895814546 0.039465559163807895 0.1373123710003452
3 38 43 37 0.9151397895814546 0.039465559163807895 0.1373123710003452
3 43 44 37 0.9151397895814546 0.039465559163807895 0.1373123710003452
3 37 44 48 0.9151397895814546 0.039465559163807895 0.1373123710003452
3 48 49 37 0.9151397895814546 0.039465559163807895 0.1373123710003452
3 49 36 37 0.9151397895814546 0.039465559163807895 0.1373123710003452
3 56 32 33 0.9151397895814546 0.039465559163807895 0.1373123710003452
3 56 57 32 0.9151397895814546 0.039465559163807895 0.1373123710003452
3 0 2 90 0.9151397895814546 0.039465559163807895 0.1373123710003452
3 2 89 90 0.9151397895814546 0.039465559163807895 0.1373123710003452
3 88 3 4 0.9151397895814546 0.039465559163807895 0.1373123710003452
3 88 4 87 0.9151397895814546 0.039465559163807895 0.1373123710003452
3 5 86 87 0.9151397895814546 0.039465559163807895 0.1373123710003452
3 87 4 5 0.9151397895814546 0.039465559163807895 0.1373123710003452
3 9 82 8 0.9151397895814546 0.039465559163807895 0.1373123710003452
3 10 81 9 0.9151397895814546 0.039465559163807895 0.1373123710003452
3 81 82 9 0.9151397895814546 0.039465559163807895 0.1373123710003452
3 55 56 33 0.9151397895814546 0.039465559163807895 0.1373123710003452
3 33 34 55 0.9151397895814546 0.039465559163807895 0.1373123710003452
3 55 34 52 0.9151397895814546 0.039465559163807895 0.1373123710003452
3 52 53 55 0.9151397895814546 0.039465559163807895 0.1373123710003452
3 55 53 54 0.9151397895814546 0.039465559163807895 0.1373123710003452
