OFF
53 46 0


27.2685 34.5775 7.3273
27.2685 34.5775 7.3273
27.2868 34.5391 7.4558
27.3046 34.5082 7.5703
27.322 34.483 7.6748
27.3393 34.4621 7.7722
27.3569 34.4446 7.865
27.3748 34.4297 7.9551
27.3935 34.4173 8.0444
27.4134 34.4068 8.1347
27.4349 34.3984 8.2279
27.4585 34.3919 8.3261
27.4851 34.3877 8.4316
27.5157 34.3863 8.5476
27.5516 34.3884 8.678
27.5516 34.3884 8.678
27.484 34.2488 8.6459
27.4304 34.1371 8.6224
27.3854 34.0424 8.6039
27.3457 33.9583 8.5885
27.3093 33.8808 8.5752
27.2747 33.8067 8.5631
27.2408 33.7336 8.5518
27.2063 33.6591 8.5408
27.1702 33.5806 8.53
27.1311 33.4951 8.5188
27.0869 33.3984 8.5069
27.0351 33.2842 8.4938
26.9703 33.141 8.4778
26.9743 33.1919 8.4127
26.9783 33.2427 8.3477
26.9823 33.2935 8.2826
26.9863 33.3443 8.2175
26.9903 33.3952 8.1525
26.9943 33.446 8.0874
26.9983 33.4968 8.0223
27.0023 33.5476 7.9573
27.0063 33.5985 7.8922
27.0063 33.5985 7.8922
27.0423 33.718 7.8381
27.072 33.8188 7.7901
27.0976 33.9074 7.7457
27.1204 33.9882 7.7033
27.1414 34.0645 7.6615
27.1615 34.1391 7.6189
27.1812 34.2143 7.574
27.2012 34.2925 7.5252
27.222 34.3766 7.4701
27.2442 34.4701 7.4057
27.2685 34.5775 7.3273
26.9709 33.142 8.4787
26.9709 33.142 8.4787
26.9706 33.1415 8.4782
3 22 39 36 0.003515050172085865 0.6262400101927098 0.1325006813587366
3 36 39 37 0.003515050172085865 0.6262400101927098 0.1325006813587366
3 42 8 7 0.003515050172085865 0.6262400101927098 0.1325006813587366
3 26 31 27 0.003515050172085865 0.6262400101927098 0.1325006813587366
3 22 36 23 0.003515050172085865 0.6262400101927098 0.1325006813587366
3 30 27 31 0.003515050172085865 0.6262400101927098 0.1325006813587366
3 21 20 40 0.003515050172085865 0.6262400101927098 0.1325006813587366
3 40 39 21 0.003515050172085865 0.6262400101927098 0.1325006813587366
3 21 39 22 0.003515050172085865 0.6262400101927098 0.1325006813587366
3 5 4 45 0.003515050172085865 0.6262400101927098 0.1325006813587366
3 44 5 45 0.003515050172085865 0.6262400101927098 0.1325006813587366
3 9 8 41 0.003515050172085865 0.6262400101927098 0.1325006813587366
3 8 42 41 0.003515050172085865 0.6262400101927098 0.1325006813587366
3 40 20 41 0.003515050172085865 0.6262400101927098 0.1325006813587366
3 41 20 9 0.003515050172085865 0.6262400101927098 0.1325006813587366
3 32 31 26 0.003515050172085865 0.6262400101927098 0.1325006813587366
3 26 25 32 0.003515050172085865 0.6262400101927098 0.1325006813587366
3 28 52 29 0.003515050172085865 0.6262400101927098 0.1325006813587366
3 29 52 50 0.003515050172085865 0.6262400101927098 0.1325006813587366
3 50 27 29 0.003515050172085865 0.6262400101927098 0.1325006813587366
3 27 30 29 0.003515050172085865 0.6262400101927098 0.1325006813587366
3 16 12 17 0.003515050172085865 0.6262400101927098 0.1325006813587366
3 9 20 19 0.003515050172085865 0.6262400101927098 0.1325006813587366
3 17 12 11 0.003515050172085865 0.6262400101927098 0.1325006813587366
3 11 18 17 0.003515050172085865 0.6262400101927098 0.1325006813587366
3 48 2 0 0.003515050172085865 0.6262400101927098 0.1325006813587366
3 45 4 46 0.003515050172085865 0.6262400101927098 0.1325006813587366
3 4 47 46 0.003515050172085865 0.6262400101927098 0.1325006813587366
3 43 42 7 0.003515050172085865 0.6262400101927098 0.1325006813587366
3 5 44 6 0.003515050172085865 0.6262400101927098 0.1325006813587366
3 6 43 7 0.003515050172085865 0.6262400101927098 0.1325006813587366
3 44 43 6 0.003515050172085865 0.6262400101927098 0.1325006813587366
3 24 23 35 0.003515050172085865 0.6262400101927098 0.1325006813587366
3 35 23 36 0.003515050172085865 0.6262400101927098 0.1325006813587366
3 3 47 4 0.003515050172085865 0.6262400101927098 0.1325006813587366
3 3 48 47 0.003515050172085865 0.6262400101927098 0.1325006813587366
3 2 48 3 0.003515050172085865 0.6262400101927098 0.1325006813587366
3 13 16 14 0.003515050172085865 0.6262400101927098 0.1325006813587366
3 12 16 13 0.003515050172085865 0.6262400101927098 0.1325006813587366
3 10 19 18 0.003515050172085865 0.6262400101927098 0.1325006813587366
3 18 11 10 0.003515050172085865 0.6262400101927098 0.1325006813587366
3 9 19 10 0.003515050172085865 0.6262400101927098 0.1325006813587366
3 34 25 24 0.003515050172085865 0.6262400101927098 0.1325006813587366
3 24 35 34 0.003515050172085865 0.6262400101927098 0.1325006813587366
3 33 32 25 0.003515050172085865 0.6262400101927098 0.1325006813587366
3 25 34 33 0.003515050172085865 0.6262400101927098 0.1325006813587366
