OFF
11 8 0


25.424 32.1171 8.7251
25.424 32.1171 8.7251
25.4252 32.12 8.7268
25.424 32.1171 8.7251
25.424 32.1171 8.7251
25.4247 32.1122 8.7218
25.4264 32.1229 8.7285
25.4258 32.1151 8.7235
25.4253 32.1073 8.7185
25.4244 32.116 8.7243
25.4248 32.1148 8.7235
3 9 7 0 0.6447475036766422 0.905752115160109 0.9082476219200217
3 8 7 5 0.6447475036766422 0.905752115160109 0.9082476219200217
3 9 0 5 0.6447475036766422 0.905752115160109 0.9082476219200217
3 2 7 6 0.6447475036766422 0.905752115160109 0.9082476219200217
3 2 0 7 0.6447475036766422 0.905752115160109 0.9082476219200217
3 10 7 9 0.6447475036766422 0.905752115160109 0.9082476219200217
3 9 5 10 0.6447475036766422 0.905752115160109 0.9082476219200217
3 10 5 7 0.6447475036766422 0.905752115160109 0.9082476219200217
