OFF
11 6 0


31.03 31.2542 12.0727
31.03 31.2542 12.0727
31.115 31.3035 12.1086
31.2012 31.3507 12.1442
31.1176 31.2669 12.0989
31.055 31.2057 12.0654
30.9696 31.1238 12.0201
30.9696 31.1238 12.0201
30.9897 31.1673 12.0376
31.0099 31.2108 12.0552
31.03 31.2542 12.0727
3 0 4 2 0.5242418472625162 0.24560919416268512 0.7671435844684056
3 2 4 3 0.5242418472625162 0.24560919416268512 0.7671435844684056
3 5 4 0 0.5242418472625162 0.24560919416268512 0.7671435844684056
3 9 5 0 0.5242418472625162 0.24560919416268512 0.7671435844684056
3 6 5 8 0.5242418472625162 0.24560919416268512 0.7671435844684056
3 5 9 8 0.5242418472625162 0.24560919416268512 0.7671435844684056
