OFF
53 45 0


27.9628 31.5555 7.0133
27.9628 31.5555 7.0133
28.0042 31.4183 7.0681
28.0363 31.3107 7.1121
28.063 31.2206 7.1497
28.0864 31.1406 7.1839
28.108 31.0661 7.2162
28.1289 30.9934 7.2484
28.1499 30.9194 7.2818
28.1721 30.8404 7.3183
28.1967 30.7519 7.3601
28.2253 30.6469 7.4113
28.261 30.5127 7.4792
28.261 30.5127 7.4792
28.3011 30.5418 7.321
28.3335 30.5602 7.2
28.3612 30.5729 7.1
28.3862 30.5823 7.0128
28.4097 30.5895 6.9331
28.4324 30.5952 6.8576
28.4552 30.5997 6.7832
28.4789 30.6032 6.7075
28.5044 30.6058 6.6277
28.5328 30.6075 6.5401
28.566 30.6079 6.4401
28.6067 30.6064 6.32
28.66 30.6016 6.1664
28.66 30.6016 6.1664
28.6302 30.7184 6.1032
28.6085 30.8045 6.0562
28.5897 30.8791 6.0151
28.5711 30.9536 5.9738
28.5497 31.0393 5.926
28.521 31.1553 5.8608
28.521 31.1553 5.8608
28.4882 31.1998 5.9012
28.4555 31.2442 5.9415
28.4227 31.2886 5.9819
28.3899 31.333 6.0223
28.3571 31.3775 6.0627
28.307 31.4136 6.1657
28.2714 31.4396 6.2387
28.2357 31.4658 6.3117
28.1853 31.5031 6.4141
28.1853 31.5031 6.4141
28.1575 31.5097 6.489
28.1297 31.5162 6.5639
28.1019 31.5228 6.6388
28.0741 31.5293 6.7137
28.0462 31.5358 6.7886
28.0184 31.5424 6.8635
27.9906 31.5489 6.9384
27.9628 31.5555 7.0133
3 23 24 41 0.8963519606113936 0.7958503556074548 0.5365447108062301
3 28 25 26 0.8963519606113936 0.7958503556074548 0.5365447108062301
3 46 5 21 0.8963519606113936 0.7958503556074548 0.5365447108062301
3 4 5 46 0.8963519606113936 0.7958503556074548 0.5365447108062301
3 21 5 20 0.8963519606113936 0.7958503556074548 0.5365447108062301
3 20 5 6 0.8963519606113936 0.7958503556074548 0.5365447108062301
3 21 22 45 0.8963519606113936 0.7958503556074548 0.5365447108062301
3 45 46 21 0.8963519606113936 0.7958503556074548 0.5365447108062301
3 4 46 47 0.8963519606113936 0.7958503556074548 0.5365447108062301
3 0 2 51 0.8963519606113936 0.7958503556074548 0.5365447108062301
3 51 2 50 0.8963519606113936 0.7958503556074548 0.5365447108062301
3 12 14 11 0.8963519606113936 0.7958503556074548 0.5365447108062301
3 11 14 10 0.8963519606113936 0.7958503556074548 0.5365447108062301
3 10 14 15 0.8963519606113936 0.7958503556074548 0.5365447108062301
3 16 8 9 0.8963519606113936 0.7958503556074548 0.5365447108062301
3 9 15 16 0.8963519606113936 0.7958503556074548 0.5365447108062301
3 10 15 9 0.8963519606113936 0.7958503556074548 0.5365447108062301
3 7 18 6 0.8963519606113936 0.7958503556074548 0.5365447108062301
3 17 8 16 0.8963519606113936 0.7958503556074548 0.5365447108062301
3 18 7 17 0.8963519606113936 0.7958503556074548 0.5365447108062301
3 17 7 8 0.8963519606113936 0.7958503556074548 0.5365447108062301
3 6 18 19 0.8963519606113936 0.7958503556074548 0.5365447108062301
3 19 20 6 0.8963519606113936 0.7958503556074548 0.5365447108062301
3 38 39 40 0.8963519606113936 0.7958503556074548 0.5365447108062301
3 38 31 37 0.8963519606113936 0.7958503556074548 0.5365447108062301
3 40 31 38 0.8963519606113936 0.7958503556074548 0.5365447108062301
3 37 31 32 0.8963519606113936 0.7958503556074548 0.5365447108062301
3 30 31 40 0.8963519606113936 0.7958503556074548 0.5365447108062301
3 41 24 30 0.8963519606113936 0.7958503556074548 0.5365447108062301
3 30 40 41 0.8963519606113936 0.7958503556074548 0.5365447108062301
3 42 45 22 0.8963519606113936 0.7958503556074548 0.5365447108062301
3 42 23 41 0.8963519606113936 0.7958503556074548 0.5365447108062301
3 42 22 23 0.8963519606113936 0.7958503556074548 0.5365447108062301
3 3 4 48 0.8963519606113936 0.7958503556074548 0.5365447108062301
3 4 47 48 0.8963519606113936 0.7958503556074548 0.5365447108062301
3 37 32 36 0.8963519606113936 0.7958503556074548 0.5365447108062301
3 25 28 29 0.8963519606113936 0.7958503556074548 0.5365447108062301
3 24 25 29 0.8963519606113936 0.7958503556074548 0.5365447108062301
3 29 30 24 0.8963519606113936 0.7958503556074548 0.5365447108062301
3 45 42 44 0.8963519606113936 0.7958503556074548 0.5365447108062301
3 3 48 49 0.8963519606113936 0.7958503556074548 0.5365447108062301
3 49 2 3 0.8963519606113936 0.7958503556074548 0.5365447108062301
3 50 2 49 0.8963519606113936 0.7958503556074548 0.5365447108062301
3 35 32 34 0.8963519606113936 0.7958503556074548 0.5365447108062301
3 35 36 32 0.8963519606113936 0.7958503556074548 0.5365447108062301
