OFF
62 57 0


26.8873 31.5803 11.3928
26.8873 31.5803 11.3928
26.7519 31.5771 11.4385
26.6515 31.5749 11.4719
26.5662 31.5732 11.4997
26.4852 31.5717 11.5259
26.3996 31.5702 11.5532
26.2986 31.5687 11.5849
26.1621 31.5669 11.6271
26.1446 31.6012 11.5418
26.1272 31.6355 11.4565
26.1097 31.6698 11.3712
26.0922 31.7041 11.2859
26.0747 31.7384 11.2006
26.0572 31.7727 11.1152
26.0397 31.807 11.0299
26.0222 31.8413 10.9446
26.0047 31.8756 10.8593
25.9872 31.9099 10.774
25.9697 31.9442 10.6887
25.9522 31.9785 10.6033
25.9347 32.0128 10.518
25.9172 32.0471 10.4327
25.8997 32.0814 10.3474
25.8822 32.1157 10.2621
25.8647 32.15 10.1768
25.8472 32.1843 10.0914
25.8297 32.2186 10.0061
25.8123 32.2529 9.9208
25.7948 32.2872 9.8355
25.7773 32.3215 9.7502
25.7598 32.3558 9.6649
25.7423 32.3901 9.5796
25.7248 32.4244 9.4942
25.7073 32.4587 9.4089
25.6898 32.493 9.3236
25.6898 32.493 9.3236
25.7732 32.4498 9.4142
25.8502 32.4091 9.5001
25.9218 32.3704 9.582
25.9887 32.3334 9.6608
26.0516 32.2978 9.7372
26.1109 32.2632 9.8117
26.1671 32.2295 9.8848
26.2206 32.1965 9.957
26.2716 32.1638 10.0286
26.3203 32.1315 10.1002
26.3671 32.0994 10.1719
26.412 32.0672 10.2441
26.4551 32.0349 10.3171
26.4967 32.0023 10.3913
26.5369 31.9693 10.467
26.5757 31.9358 10.5443
26.6133 31.9016 10.6238
26.6498 31.8666 10.7058
26.6854 31.8306 10.7906
26.7201 31.7934 10.8788
26.7542 31.7548 10.9708
26.7877 31.7146 11.0674
26.821 31.6723 11.1693
26.8541 31.6277 11.2774
26.8873 31.5803 11.3928
3 7 6 10 0.8876054957140581 0.0529764699816625 0.6575009180410699
3 10 6 11 0.8876054957140581 0.0529764699816625 0.6575009180410699
3 20 19 51 0.8876054957140581 0.0529764699816625 0.6575009180410699
3 17 53 18 0.8876054957140581 0.0529764699816625 0.6575009180410699
3 8 7 9 0.8876054957140581 0.0529764699816625 0.6575009180410699
3 9 7 10 0.8876054957140581 0.0529764699816625 0.6575009180410699
3 0 60 2 0.8876054957140581 0.0529764699816625 0.6575009180410699
3 49 22 21 0.8876054957140581 0.0529764699816625 0.6575009180410699
3 56 15 14 0.8876054957140581 0.0529764699816625 0.6575009180410699
3 55 15 56 0.8876054957140581 0.0529764699816625 0.6575009180410699
3 20 51 50 0.8876054957140581 0.0529764699816625 0.6575009180410699
3 50 21 20 0.8876054957140581 0.0529764699816625 0.6575009180410699
3 49 21 50 0.8876054957140581 0.0529764699816625 0.6575009180410699
3 52 18 53 0.8876054957140581 0.0529764699816625 0.6575009180410699
3 52 51 19 0.8876054957140581 0.0529764699816625 0.6575009180410699
3 19 18 52 0.8876054957140581 0.0529764699816625 0.6575009180410699
3 48 22 49 0.8876054957140581 0.0529764699816625 0.6575009180410699
3 23 46 24 0.8876054957140581 0.0529764699816625 0.6575009180410699
3 27 42 28 0.8876054957140581 0.0529764699816625 0.6575009180410699
3 26 25 44 0.8876054957140581 0.0529764699816625 0.6575009180410699
3 15 55 16 0.8876054957140581 0.0529764699816625 0.6575009180410699
3 12 58 13 0.8876054957140581 0.0529764699816625 0.6575009180410699
3 58 12 4 0.8876054957140581 0.0529764699816625 0.6575009180410699
3 13 58 57 0.8876054957140581 0.0529764699816625 0.6575009180410699
3 56 14 57 0.8876054957140581 0.0529764699816625 0.6575009180410699
3 57 14 13 0.8876054957140581 0.0529764699816625 0.6575009180410699
3 46 23 47 0.8876054957140581 0.0529764699816625 0.6575009180410699
3 22 48 47 0.8876054957140581 0.0529764699816625 0.6575009180410699
3 47 23 22 0.8876054957140581 0.0529764699816625 0.6575009180410699
3 29 40 30 0.8876054957140581 0.0529764699816625 0.6575009180410699
3 45 44 25 0.8876054957140581 0.0529764699816625 0.6575009180410699
3 24 46 45 0.8876054957140581 0.0529764699816625 0.6575009180410699
3 45 25 24 0.8876054957140581 0.0529764699816625 0.6575009180410699
3 43 27 26 0.8876054957140581 0.0529764699816625 0.6575009180410699
3 26 44 43 0.8876054957140581 0.0529764699816625 0.6575009180410699
3 42 27 43 0.8876054957140581 0.0529764699816625 0.6575009180410699
3 39 32 31 0.8876054957140581 0.0529764699816625 0.6575009180410699
3 30 40 31 0.8876054957140581 0.0529764699816625 0.6575009180410699
3 31 40 39 0.8876054957140581 0.0529764699816625 0.6575009180410699
3 54 16 55 0.8876054957140581 0.0529764699816625 0.6575009180410699
3 54 53 17 0.8876054957140581 0.0529764699816625 0.6575009180410699
3 17 16 54 0.8876054957140581 0.0529764699816625 0.6575009180410699
3 58 4 59 0.8876054957140581 0.0529764699816625 0.6575009180410699
3 59 2 60 0.8876054957140581 0.0529764699816625 0.6575009180410699
3 5 12 11 0.8876054957140581 0.0529764699816625 0.6575009180410699
3 5 4 12 0.8876054957140581 0.0529764699816625 0.6575009180410699
3 5 11 6 0.8876054957140581 0.0529764699816625 0.6575009180410699
3 40 29 41 0.8876054957140581 0.0529764699816625 0.6575009180410699
3 28 42 41 0.8876054957140581 0.0529764699816625 0.6575009180410699
3 41 29 28 0.8876054957140581 0.0529764699816625 0.6575009180410699
3 34 33 37 0.8876054957140581 0.0529764699816625 0.6575009180410699
3 35 34 37 0.8876054957140581 0.0529764699816625 0.6575009180410699
3 38 32 39 0.8876054957140581 0.0529764699816625 0.6575009180410699
3 38 33 32 0.8876054957140581 0.0529764699816625 0.6575009180410699
3 38 37 33 0.8876054957140581 0.0529764699816625 0.6575009180410699
3 2 59 3 0.8876054957140581 0.0529764699816625 0.6575009180410699
3 3 59 4 0.8876054957140581 0.0529764699816625 0.6575009180410699
