OFF
46 39 0


32.1862 32.1216 8.5847
32.1862 32.1216 8.5847
32.0873 32.1394 8.4928
32.0012 32.1551 8.414
31.924 32.1693 8.3447
31.8533 32.1825 8.282
31.7869 32.1949 8.2241
31.7232 32.2069 8.1695
31.661 32.2188 8.117
31.5989 32.2308 8.0654
31.5357 32.2431 8.0138
31.4702 32.2559 7.9613
31.4008 32.2697 7.9068
31.3258 32.2847 7.8492
31.243 32.3015 7.7869
31.1494 32.3207 7.7184
31.0408 32.3432 7.6412
31.0427 32.3592 7.7719
31.047 32.372 7.8846
31.0531 32.3829 7.9848
31.0605 32.3922 8.0766
31.0689 32.4006 8.1632
31.0786 32.4083 8.2472
31.0895 32.4156 8.3309
31.1021 32.4227 8.4169
31.1169 32.4297 8.5076
31.1345 32.4369 8.6064
31.1561 32.4445 8.7175
31.1837 32.4526 8.8471
31.1837 32.4526 8.8471
31.1837 32.4526 8.8471
31.1931 32.4503 8.851
31.2025 32.448 8.8549
31.2025 32.448 8.8549
31.2794 32.426 8.8622
31.3563 32.4041 8.8696
31.4331 32.3822 8.877
31.51 32.3603 8.8843
31.5869 32.3384 8.8917
31.6638 32.3164 8.8991
31.7742 32.2755 8.8348
31.8558 32.2452 8.7867
31.9265 32.2189 8.7444
31.9969 32.1926 8.7017
32.0777 32.1624 8.6522
32.1862 32.1216 8.5847
3 16 15 17 0.9827685490538822 0.3044417798123221 0.8953288692598683
3 37 25 7 0.9827685490538822 0.3044417798123221 0.8953288692598683
3 12 20 13 0.9827685490538822 0.3044417798123221 0.8953288692598683
3 10 9 23 0.9827685490538822 0.3044417798123221 0.8953288692598683
3 17 15 18 0.9827685490538822 0.3044417798123221 0.8953288692598683
3 15 14 18 0.9827685490538822 0.3044417798123221 0.8953288692598683
3 0 44 2 0.9827685490538822 0.3044417798123221 0.8953288692598683
3 42 3 43 0.9827685490538822 0.3044417798123221 0.8953288692598683
3 3 2 43 0.9827685490538822 0.3044417798123221 0.8953288692598683
3 43 2 44 0.9827685490538822 0.3044417798123221 0.8953288692598683
3 40 5 41 0.9827685490538822 0.3044417798123221 0.8953288692598683
3 4 3 42 0.9827685490538822 0.3044417798123221 0.8953288692598683
3 42 41 4 0.9827685490538822 0.3044417798123221 0.8953288692598683
3 4 41 5 0.9827685490538822 0.3044417798123221 0.8953288692598683
3 6 5 40 0.9827685490538822 0.3044417798123221 0.8953288692598683
3 6 37 7 0.9827685490538822 0.3044417798123221 0.8953288692598683
3 7 25 8 0.9827685490538822 0.3044417798123221 0.8953288692598683
3 21 20 12 0.9827685490538822 0.3044417798123221 0.8953288692598683
3 12 11 21 0.9827685490538822 0.3044417798123221 0.8953288692598683
3 25 37 36 0.9827685490538822 0.3044417798123221 0.8953288692598683
3 19 13 20 0.9827685490538822 0.3044417798123221 0.8953288692598683
3 14 13 19 0.9827685490538822 0.3044417798123221 0.8953288692598683
3 19 18 14 0.9827685490538822 0.3044417798123221 0.8953288692598683
3 37 6 38 0.9827685490538822 0.3044417798123221 0.8953288692598683
3 38 6 40 0.9827685490538822 0.3044417798123221 0.8953288692598683
3 38 40 39 0.9827685490538822 0.3044417798123221 0.8953288692598683
3 24 23 9 0.9827685490538822 0.3044417798123221 0.8953288692598683
3 9 8 24 0.9827685490538822 0.3044417798123221 0.8953288692598683
3 24 8 25 0.9827685490538822 0.3044417798123221 0.8953288692598683
3 22 11 10 0.9827685490538822 0.3044417798123221 0.8953288692598683
3 22 21 11 0.9827685490538822 0.3044417798123221 0.8953288692598683
3 10 23 22 0.9827685490538822 0.3044417798123221 0.8953288692598683
3 25 36 26 0.9827685490538822 0.3044417798123221 0.8953288692598683
3 26 36 35 0.9827685490538822 0.3044417798123221 0.8953288692598683
3 35 27 26 0.9827685490538822 0.3044417798123221 0.8953288692598683
3 34 27 35 0.9827685490538822 0.3044417798123221 0.8953288692598683
3 28 27 31 0.9827685490538822 0.3044417798123221 0.8953288692598683
3 27 34 33 0.9827685490538822 0.3044417798123221 0.8953288692598683
3 33 31 27 0.9827685490538822 0.3044417798123221 0.8953288692598683
