OFF
26 20 0


26.6163 28.7613 11.0854
26.6163 28.7613 11.0854
26.6813 28.8697 11.1078
26.7278 28.948 11.124
26.7696 29.0189 11.1388
26.8156 29.0976 11.1552
26.8788 29.2068 11.1782
26.8788 29.2068 11.1782
26.8656 29.2438 11.1928
26.8524 29.2808 11.2075
26.7522 29.357 11.2522
26.6745 29.4133 11.286
26.605 29.4615 11.3155
26.5345 29.5085 11.3448
26.4532 29.5603 11.3778
26.345 29.6255 11.4205
26.345 29.6255 11.4205
26.3824 29.4918 11.3695
26.4121 29.39 11.3305
26.4377 29.3049 11.2978
26.4614 29.228 11.268
26.4849 29.1536 11.2392
26.5096 29.077 11.2093
26.5374 28.9925 11.1763
26.5712 28.892 11.1369
26.6163 28.7613 11.0854
3 22 23 4 0.22559700337779187 0.573557986484153 0.35951078935502045
3 22 5 21 0.22559700337779187 0.573557986484153 0.35951078935502045
3 4 5 22 0.22559700337779187 0.573557986484153 0.35951078935502045
3 9 5 8 0.22559700337779187 0.573557986484153 0.35951078935502045
3 8 5 7 0.22559700337779187 0.573557986484153 0.35951078935502045
3 15 17 14 0.22559700337779187 0.573557986484153 0.35951078935502045
3 19 20 11 0.22559700337779187 0.573557986484153 0.35951078935502045
3 0 2 24 0.22559700337779187 0.573557986484153 0.35951078935502045
3 4 23 3 0.22559700337779187 0.573557986484153 0.35951078935502045
3 23 24 3 0.22559700337779187 0.573557986484153 0.35951078935502045
3 3 24 2 0.22559700337779187 0.573557986484153 0.35951078935502045
3 18 19 12 0.22559700337779187 0.573557986484153 0.35951078935502045
3 19 11 12 0.22559700337779187 0.573557986484153 0.35951078935502045
3 10 20 21 0.22559700337779187 0.573557986484153 0.35951078935502045
3 10 11 20 0.22559700337779187 0.573557986484153 0.35951078935502045
3 10 5 9 0.22559700337779187 0.573557986484153 0.35951078935502045
3 21 5 10 0.22559700337779187 0.573557986484153 0.35951078935502045
3 18 12 13 0.22559700337779187 0.573557986484153 0.35951078935502045
3 13 17 18 0.22559700337779187 0.573557986484153 0.35951078935502045
3 13 14 17 0.22559700337779187 0.573557986484153 0.35951078935502045
