OFF
54 79 0


30.393 32.8726 8.2987
30.393 32.8726 8.2987
30.3994 32.9728 8.396
30.405 33.0469 8.4689
30.4104 33.1112 8.5328
30.4162 33.1751 8.597
30.4235 33.2481 8.6709
30.4343 33.3454 8.7708
30.4792 33.2094 8.7495
30.5116 33.111 8.7333
30.5408 33.0219 8.7181
30.5731 32.9236 8.7007
30.6174 32.7881 8.6756
30.6174 32.7881 8.6756
30.5513 32.8117 8.5645
30.5051 32.8288 8.4869
30.4589 32.8465 8.4093
30.393 32.8726 8.2987
30.4255 33.0808 8.538
30.5232 33.0136 8.6765
30.4966 32.8692 8.5037
30.4173 32.9768 8.4353
30.4353 32.9809 8.4746
30.4299 33.1287 8.5862
30.4437 33.0822 8.5754
30.4435 33.2545 8.7156
30.4527 33.1652 8.6613
30.4771 33.1536 8.7
30.4751 33.0984 8.651
30.5014 33.0801 8.688
30.4913 33.0496 8.6429
30.5798 32.8397 8.6443
30.543 32.8903 8.6137
30.531 32.8567 8.5618
30.5109 32.9012 8.5591
30.4125 32.9017 8.3627
30.4321 32.9308 8.4264
30.4215 33.0325 8.49
30.4381 33.0181 8.5111
30.4547 33.0037 8.5323
30.4354 33.1829 8.6415
30.4474 33.1182 8.6123
30.4594 33.0537 8.583
30.5472 32.9403 8.6633
30.5217 32.9567 8.6264
30.4964 32.973 8.5899
30.462 32.8823 8.4456
30.4651 32.918 8.4817
30.4683 32.9535 8.5177
30.4125 32.9017 8.3627
30.4321 32.9308 8.4264
30.4517 32.9599 8.49
30.4715 32.9891 8.5537
30.4715 32.9891 8.5537
3 25 8 7 0.6219464998801212 0.42978049404080043 0.7605703597267518
3 35 2 0 0.6219464998801212 0.42978049404080043 0.7605703597267518
3 9 8 27 0.6219464998801212 0.42978049404080043 0.7605703597267518
3 34 48 47 0.6219464998801212 0.42978049404080043 0.7605703597267518
3 16 35 0 0.6219464998801212 0.42978049404080043 0.7605703597267518
3 52 42 39 0.6219464998801212 0.42978049404080043 0.7605703597267518
3 39 48 52 0.6219464998801212 0.42978049404080043 0.7605703597267518
3 4 3 18 0.6219464998801212 0.42978049404080043 0.7605703597267518
3 18 3 37 0.6219464998801212 0.42978049404080043 0.7605703597267518
3 9 27 29 0.6219464998801212 0.42978049404080043 0.7605703597267518
3 29 27 28 0.6219464998801212 0.42978049404080043 0.7605703597267518
3 29 10 9 0.6219464998801212 0.42978049404080043 0.7605703597267518
3 19 10 29 0.6219464998801212 0.42978049404080043 0.7605703597267518
3 45 42 52 0.6219464998801212 0.42978049404080043 0.7605703597267518
3 52 48 45 0.6219464998801212 0.42978049404080043 0.7605703597267518
3 48 34 45 0.6219464998801212 0.42978049404080043 0.7605703597267518
3 8 25 26 0.6219464998801212 0.42978049404080043 0.7605703597267518
3 26 27 8 0.6219464998801212 0.42978049404080043 0.7605703597267518
3 28 27 26 0.6219464998801212 0.42978049404080043 0.7605703597267518
3 26 41 28 0.6219464998801212 0.42978049404080043 0.7605703597267518
3 31 14 12 0.6219464998801212 0.42978049404080043 0.7605703597267518
3 12 11 31 0.6219464998801212 0.42978049404080043 0.7605703597267518
3 11 32 31 0.6219464998801212 0.42978049404080043 0.7605703597267518
3 20 34 47 0.6219464998801212 0.42978049404080043 0.7605703597267518
3 35 16 46 0.6219464998801212 0.42978049404080043 0.7605703597267518
3 46 20 47 0.6219464998801212 0.42978049404080043 0.7605703597267518
3 46 16 15 0.6219464998801212 0.42978049404080043 0.7605703597267518
3 15 20 46 0.6219464998801212 0.42978049404080043 0.7605703597267518
3 24 42 28 0.6219464998801212 0.42978049404080043 0.7605703597267518
3 28 41 24 0.6219464998801212 0.42978049404080043 0.7605703597267518
3 24 18 42 0.6219464998801212 0.42978049404080043 0.7605703597267518
3 4 18 24 0.6219464998801212 0.42978049404080043 0.7605703597267518
3 38 18 37 0.6219464998801212 0.42978049404080043 0.7605703597267518
3 37 22 38 0.6219464998801212 0.42978049404080043 0.7605703597267518
3 38 22 39 0.6219464998801212 0.42978049404080043 0.7605703597267518
3 38 39 42 0.6219464998801212 0.42978049404080043 0.7605703597267518
3 42 18 38 0.6219464998801212 0.42978049404080043 0.7605703597267518
3 30 29 28 0.6219464998801212 0.42978049404080043 0.7605703597267518
3 19 29 30 0.6219464998801212 0.42978049404080043 0.7605703597267518
3 28 42 30 0.6219464998801212 0.42978049404080043 0.7605703597267518
3 42 45 30 0.6219464998801212 0.42978049404080043 0.7605703597267518
3 30 45 19 0.6219464998801212 0.42978049404080043 0.7605703597267518
3 11 10 43 0.6219464998801212 0.42978049404080043 0.7605703597267518
3 43 10 19 0.6219464998801212 0.42978049404080043 0.7605703597267518
3 43 32 11 0.6219464998801212 0.42978049404080043 0.7605703597267518
3 50 46 47 0.6219464998801212 0.42978049404080043 0.7605703597267518
3 2 35 50 0.6219464998801212 0.42978049404080043 0.7605703597267518
3 35 46 50 0.6219464998801212 0.42978049404080043 0.7605703597267518
3 47 48 51 0.6219464998801212 0.42978049404080043 0.7605703597267518
3 51 50 47 0.6219464998801212 0.42978049404080043 0.7605703597267518
3 22 50 51 0.6219464998801212 0.42978049404080043 0.7605703597267518
3 48 39 51 0.6219464998801212 0.42978049404080043 0.7605703597267518
3 39 22 51 0.6219464998801212 0.42978049404080043 0.7605703597267518
3 34 20 33 0.6219464998801212 0.42978049404080043 0.7605703597267518
3 32 34 33 0.6219464998801212 0.42978049404080043 0.7605703597267518
3 15 14 33 0.6219464998801212 0.42978049404080043 0.7605703597267518
3 33 20 15 0.6219464998801212 0.42978049404080043 0.7605703597267518
3 33 31 32 0.6219464998801212 0.42978049404080043 0.7605703597267518
3 14 31 33 0.6219464998801212 0.42978049404080043 0.7605703597267518
3 4 24 23 0.6219464998801212 0.42978049404080043 0.7605703597267518
3 23 24 41 0.6219464998801212 0.42978049404080043 0.7605703597267518
3 23 5 4 0.6219464998801212 0.42978049404080043 0.7605703597267518
3 41 5 23 0.6219464998801212 0.42978049404080043 0.7605703597267518
3 19 45 44 0.6219464998801212 0.42978049404080043 0.7605703597267518
3 44 43 19 0.6219464998801212 0.42978049404080043 0.7605703597267518
3 32 43 44 0.6219464998801212 0.42978049404080043 0.7605703597267518
3 44 34 32 0.6219464998801212 0.42978049404080043 0.7605703597267518
3 44 45 34 0.6219464998801212 0.42978049404080043 0.7605703597267518
3 6 26 25 0.6219464998801212 0.42978049404080043 0.7605703597267518
3 6 25 7 0.6219464998801212 0.42978049404080043 0.7605703597267518
3 2 50 21 0.6219464998801212 0.42978049404080043 0.7605703597267518
3 21 50 22 0.6219464998801212 0.42978049404080043 0.7605703597267518
3 21 3 2 0.6219464998801212 0.42978049404080043 0.7605703597267518
3 37 3 21 0.6219464998801212 0.42978049404080043 0.7605703597267518
3 21 22 37 0.6219464998801212 0.42978049404080043 0.7605703597267518
3 26 6 40 0.6219464998801212 0.42978049404080043 0.7605703597267518
3 40 6 5 0.6219464998801212 0.42978049404080043 0.7605703597267518
3 41 26 40 0.6219464998801212 0.42978049404080043 0.7605703597267518
3 40 5 41 0.6219464998801212 0.42978049404080043 0.7605703597267518
