OFF
262 471 0


28.3343 28.5208 8.8108
28.3343 28.5208 8.8108
28.3259 28.5478 8.7904
28.3343 28.5208 8.8108
28.3343 28.5208 8.8108
28.3877 28.6515 8.8474
28.4321 28.7591 8.8776
28.4706 28.8514 8.9034
28.5053 28.9335 8.9265
28.5375 29.0088 8.9476
28.5682 29.08 8.9677
28.5983 29.1492 8.9871
28.6287 29.2182 9.0066
28.6603 29.2889 9.0265
28.6939 29.3634 9.0475
28.7309 29.4441 9.0703
28.7731 29.5346 9.0959
28.8231 29.6398 9.1258
28.8856 29.7677 9.1621
28.8856 29.7677 9.1621
28.8287 29.8442 9.0574
28.7814 29.9049 8.9702
28.7396 29.9562 8.8929
28.7006 30.0021 8.8205
28.6621 30.0453 8.7491
28.6223 30.088 8.6748
28.5789 30.132 8.5935
28.5288 30.1795 8.4995
28.4678 30.2329 8.3845
28.4537 30.075 8.4341
28.4415 29.9517 8.4684
28.4305 29.8487 8.4943
28.4203 29.7583 8.5152
28.4106 29.6756 8.5329
28.401 29.5975 8.5485
28.3915 29.5213 8.5626
28.3816 29.4447 8.5759
28.3712 29.3655 8.5888
28.3597 29.2811 8.6016
28.3469 29.1881 8.6146
28.3319 29.0819 8.6284
28.3136 28.9556 8.6433
28.2901 28.7973 8.6601
28.2901 28.7973 8.6601
28.3036 28.686 8.715
28.3175 28.5748 8.7699
28.5605 29.1155 8.9454
28.5532 29.15 8.9238
28.4752 28.9195 8.8883
28.4796 28.9844 8.8738
28.4839 29.0462 8.8599
28.5335 29.054 8.9275
28.5298 29.0976 8.908
28.5262 29.1398 8.8891
28.6142 29.2359 8.9805
28.6 29.2533 8.9549
28.5861 29.2704 8.9298
28.6723 29.3637 9.0177
28.651 29.3641 8.9882
28.6299 29.3646 8.9589
28.4119 29.5735 8.5734
28.4229 29.5492 8.5986
28.4342 29.5246 8.6241
28.3952 29.4363 8.5989
28.4088 29.4278 8.6219
28.4226 29.4194 8.645
28.3765 29.2909 8.6228
28.3932 29.3006 8.6438
28.4098 29.3103 8.6647
28.4039 28.7521 8.8395
28.4192 28.8458 8.8319
28.4337 28.9336 8.8246
28.4475 29.0161 8.8177
28.7431 29.5158 9.062
28.7134 29.4971 9.028
28.6839 29.4785 8.994
28.6545 29.46 8.96
28.7159 29.8978 8.8833
28.6919 29.8383 8.8732
28.6675 29.7774 8.8627
28.6427 29.715 8.8517
28.6464 29.9802 8.7535
28.6305 29.9135 8.7579
28.6143 29.8449 8.7622
28.5979 29.7739 8.7664
28.4285 29.7191 8.5427
28.437 29.6792 8.5706
28.4459 29.6383 8.5991
28.4551 29.5964 8.6282
28.3531 29.1166 8.6479
28.3738 29.1505 8.6669
28.3941 29.1836 8.6853
28.414 29.2159 8.7032
28.3313 28.7805 8.7256
28.3574 28.8689 8.7354
28.3821 28.952 8.7443
28.4055 29.0304 8.7527
28.6423 29.298 8.9986
28.6246 29.307 8.9711
28.6072 29.3159 8.9439
28.5901 29.3248 8.917
28.5732 29.3335 8.8904
28.7943 29.7941 9.0302
28.76 29.7438 9.0024
28.7254 29.6929 8.9742
28.6907 29.6415 8.9452
28.6555 29.5892 8.9155
28.5708 30.0597 8.6128
28.5629 29.9856 8.6323
28.555 29.9093 8.6521
28.5473 29.8301 8.6724
28.5395 29.7476 8.6933
28.4373 29.8013 8.5235
28.4445 29.7529 8.5532
28.4521 29.7032 8.5835
28.4601 29.6521 8.6147
28.4686 29.5994 8.6467
28.3188 28.8735 8.6776
28.346 28.9457 8.694
28.372 29.0143 8.7095
28.3969 29.0797 8.724
28.4208 29.1421 8.7378
28.4419 28.8417 8.8656
28.4513 28.9196 8.8542
28.4603 28.9933 8.8434
28.4689 29.0633 8.833
28.4772 29.1298 8.823
28.4853 29.1932 8.8134
28.5872 29.1756 8.963
28.5764 29.2014 8.9393
28.5659 29.2266 8.9162
28.5556 29.2513 8.8935
28.5456 29.2755 8.8713
28.5359 29.2993 8.8495
28.8435 29.7237 9.1225
28.8019 29.68 9.0826
28.7604 29.6363 9.0424
28.719 29.5927 9.0018
28.6776 29.5488 8.9606
28.6359 29.5045 8.9186
28.4693 30.1499 8.4244
28.4714 30.0657 8.4645
28.4742 29.9795 8.5053
28.4776 29.8907 8.547
28.4817 29.7982 8.59
28.4867 29.701 8.6349
28.4573 30.0071 8.4687
28.4615 29.9378 8.5039
28.4661 29.8665 8.5399
28.4713 29.7929 8.5768
28.4771 29.7165 8.6149
28.4836 29.6365 8.6546
28.4036 29.5049 8.5865
28.4159 29.4884 8.6106
28.4284 29.4717 8.6349
28.4411 29.4549 8.6594
28.4541 29.4379 8.6842
28.4672 29.4207 8.7093
28.3657 29.2091 8.635
28.3842 29.2299 8.6551
28.4025 29.2503 8.6747
28.4205 29.2705 8.6941
28.4384 29.2904 8.7131
28.4561 29.3101 8.7318
28.5054 28.9893 8.9087
28.5055 29.043 8.8915
28.5057 29.0945 8.875
28.5059 29.1441 8.859
28.5062 29.1919 8.8436
28.5066 29.2381 8.8287
28.5071 29.2827 8.8142
28.7879 29.6095 9.0893
28.7529 29.5795 9.0526
28.718 29.5495 9.0159
28.6833 29.5196 8.9788
28.6485 29.4896 8.9414
28.6137 29.4595 8.9035
28.5788 29.4292 8.8652
28.681 29.9403 8.8181
28.6611 29.8771 8.8154
28.641 29.8122 8.8124
28.6205 29.7454 8.8091
28.5994 29.6762 8.8054
28.5778 29.6043 8.8013
28.5555 29.5293 8.7969
28.5251 30.1026 8.5279
28.5217 30.024 8.5565
28.5187 29.9432 8.5857
28.516 29.8595 8.6157
28.5137 29.7723 8.6466
28.5117 29.6805 8.6788
28.5101 29.5834 8.7125
28.4468 29.8951 8.4998
28.4526 29.8371 8.5318
28.4588 29.7775 8.5645
28.4655 29.7161 8.5982
28.4727 29.6524 8.6329
28.4805 29.5862 8.6688
28.4889 29.517 8.7062
28.3862 29.3657 8.6109
28.4013 29.3659 8.6329
28.4164 29.3661 8.6549
28.4315 29.3663 8.6768
28.4467 29.3666 8.6988
28.462 29.3668 8.7207
28.4773 29.3671 8.7426
28.3441 28.6887 8.7731
28.3689 28.794 8.7758
28.3921 28.892 8.7782
28.4139 28.9834 8.7802
28.4346 29.0692 8.7819
28.4542 29.15 8.7834
28.473 29.2263 8.7846
28.3588 28.6446 8.8081
28.3816 28.7584 8.8054
28.4028 28.8637 8.8027
28.4228 28.9614 8.8
28.4416 29.0528 8.7973
28.4594 29.1384 8.7946
28.4763 29.2191 8.7919
28.4925 29.2954 8.7892
28.7054 29.4353 9.0386
28.6801 29.4266 9.0069
28.6551 29.418 8.9754
28.6302 29.4094 8.9439
28.6056 29.401 8.9125
28.581 29.3926 8.881
28.5566 29.3843 8.8496
28.5323 29.376 8.818
28.7529 29.8502 8.9525
28.7242 29.7948 8.9344
28.6952 29.7385 8.9156
28.6657 29.6811 8.8963
28.6358 29.6222 8.8762
28.6052 29.5618 8.8552
28.5738 29.4994 8.8334
28.5415 29.4349 8.8105
28.6103 30.0195 8.6864
28.5983 29.9492 8.698
28.5862 29.8768 8.7097
28.574 29.8018 8.7216
28.5615 29.7238 8.7338
28.5488 29.642 8.7463
28.5357 29.556 8.7591
28.5222 29.4649 8.7725
28.4201 29.6442 8.559
28.4299 29.6121 8.5854
28.44 29.5796 8.6123
28.4504 29.5463 8.6398
28.4611 29.5123 8.6678
28.4722 29.4776 8.6964
28.4837 29.4419 8.7256
28.4957 29.4054 8.7556
28.3379 29.0078 8.6619
28.3615 29.0581 8.6797
28.3842 29.1067 8.6967
28.4063 29.1536 8.7131
28.4277 29.199 8.7288
28.4486 29.243 8.744
28.4689 29.2857 8.7586
28.4887 29.3273 8.7727
28.5081 29.3678 8.7864
3 0 5 2 0.6957618104318842 0.8397903127198805 0.23702318853473137
3 5 206 213 0.6957618104318842 0.8397903127198805 0.23702318853473137
3 213 2 5 0.6957618104318842 0.8397903127198805 0.23702318853473137
3 45 2 213 0.6957618104318842 0.8397903127198805 0.23702318853473137
3 213 44 45 0.6957618104318842 0.8397903127198805 0.23702318853473137
3 206 44 213 0.6957618104318842 0.8397903127198805 0.23702318853473137
3 8 9 164 0.6957618104318842 0.8397903127198805 0.23702318853473137
3 14 57 13 0.6957618104318842 0.8397903127198805 0.23702318853473137
3 13 57 97 0.6957618104318842 0.8397903127198805 0.23702318853473137
3 243 242 191 0.6957618104318842 0.8397903127198805 0.23702318853473137
3 252 228 236 0.6957618104318842 0.8397903127198805 0.23702318853473137
3 171 16 17 0.6957618104318842 0.8397903127198805 0.23702318853473137
3 15 16 73 0.6957618104318842 0.8397903127198805 0.23702318853473137
3 73 74 15 0.6957618104318842 0.8397903127198805 0.23702318853473137
3 106 138 137 0.6957618104318842 0.8397903127198805 0.23702318853473137
3 176 224 76 0.6957618104318842 0.8397903127198805 0.23702318853473137
3 137 138 173 0.6957618104318842 0.8397903127198805 0.23702318853473137
3 74 73 173 0.6957618104318842 0.8397903127198805 0.23702318853473137
3 117 41 42 0.6957618104318842 0.8397903127198805 0.23702318853473137
3 42 44 93 0.6957618104318842 0.8397903127198805 0.23702318853473137
3 93 44 206 0.6957618104318842 0.8397903127198805 0.23702318853473137
3 93 117 42 0.6957618104318842 0.8397903127198805 0.23702318853473137
3 94 117 93 0.6957618104318842 0.8397903127198805 0.23702318853473137
3 40 41 253 0.6957618104318842 0.8397903127198805 0.23702318853473137
3 261 133 228 0.6957618104318842 0.8397903127198805 0.23702318853473137
3 261 260 133 0.6957618104318842 0.8397903127198805 0.23702318853473137
3 261 228 252 0.6957618104318842 0.8397903127198805 0.23702318853473137
3 107 25 26 0.6957618104318842 0.8397903127198805 0.23702318853473137
3 193 31 112 0.6957618104318842 0.8397903127198805 0.23702318853473137
3 32 112 31 0.6957618104318842 0.8397903127198805 0.23702318853473137
3 140 27 28 0.6957618104318842 0.8397903127198805 0.23702318853473137
3 11 12 128 0.6957618104318842 0.8397903127198805 0.23702318853473137
3 48 7 8 0.6957618104318842 0.8397903127198805 0.23702318853473137
3 48 123 7 0.6957618104318842 0.8397903127198805 0.23702318853473137
3 7 123 122 0.6957618104318842 0.8397903127198805 0.23702318853473137
3 6 7 122 0.6957618104318842 0.8397903127198805 0.23702318853473137
3 58 97 57 0.6957618104318842 0.8397903127198805 0.23702318853473137
3 98 55 97 0.6957618104318842 0.8397903127198805 0.23702318853473137
3 97 58 98 0.6957618104318842 0.8397903127198805 0.23702318853473137
3 168 47 130 0.6957618104318842 0.8397903127198805 0.23702318853473137
3 130 131 168 0.6957618104318842 0.8397903127198805 0.23702318853473137
3 168 131 169 0.6957618104318842 0.8397903127198805 0.23702318853473137
3 37 66 199 0.6957618104318842 0.8397903127198805 0.23702318853473137
3 79 230 78 0.6957618104318842 0.8397903127198805 0.23702318853473137
3 241 242 182 0.6957618104318842 0.8397903127198805 0.23702318853473137
3 233 80 182 0.6957618104318842 0.8397903127198805 0.23702318853473137
3 233 106 105 0.6957618104318842 0.8397903127198805 0.23702318853473137
3 105 106 137 0.6957618104318842 0.8397903127198805 0.23702318853473137
3 225 224 176 0.6957618104318842 0.8397903127198805 0.23702318853473137
3 226 101 225 0.6957618104318842 0.8397903127198805 0.23702318853473137
3 225 101 100 0.6957618104318842 0.8397903127198805 0.23702318853473137
3 242 243 183 0.6957618104318842 0.8397903127198805 0.23702318853473137
3 233 182 183 0.6957618104318842 0.8397903127198805 0.23702318853473137
3 183 182 242 0.6957618104318842 0.8397903127198805 0.23702318853473137
3 227 236 228 0.6957618104318842 0.8397903127198805 0.23702318853473137
3 227 101 226 0.6957618104318842 0.8397903127198805 0.23702318853473137
3 228 133 227 0.6957618104318842 0.8397903127198805 0.23702318853473137
3 133 101 227 0.6957618104318842 0.8397903127198805 0.23702318853473137
3 244 236 235 0.6957618104318842 0.8397903127198805 0.23702318853473137
3 244 251 252 0.6957618104318842 0.8397903127198805 0.23702318853473137
3 252 236 244 0.6957618104318842 0.8397903127198805 0.23702318853473137
3 176 235 177 0.6957618104318842 0.8397903127198805 0.23702318853473137
3 235 236 177 0.6957618104318842 0.8397903127198805 0.23702318853473137
3 177 225 176 0.6957618104318842 0.8397903127198805 0.23702318853473137
3 226 225 177 0.6957618104318842 0.8397903127198805 0.23702318853473137
3 177 227 226 0.6957618104318842 0.8397903127198805 0.23702318853473137
3 236 227 177 0.6957618104318842 0.8397903127198805 0.23702318853473137
3 134 17 18 0.6957618104318842 0.8397903127198805 0.23702318853473137
3 139 235 176 0.6957618104318842 0.8397903127198805 0.23702318853473137
3 138 106 139 0.6957618104318842 0.8397903127198805 0.23702318853473137
3 74 173 174 0.6957618104318842 0.8397903127198805 0.23702318853473137
3 174 173 138 0.6957618104318842 0.8397903127198805 0.23702318853473137
3 221 14 15 0.6957618104318842 0.8397903127198805 0.23702318853473137
3 15 74 221 0.6957618104318842 0.8397903127198805 0.23702318853473137
3 16 171 172 0.6957618104318842 0.8397903127198805 0.23702318853473137
3 172 73 16 0.6957618104318842 0.8397903127198805 0.23702318853473137
3 172 173 73 0.6957618104318842 0.8397903127198805 0.23702318853473137
3 137 173 172 0.6957618104318842 0.8397903127198805 0.23702318853473137
3 23 24 81 0.6957618104318842 0.8397903127198805 0.23702318853473137
3 81 178 23 0.6957618104318842 0.8397903127198805 0.23702318853473137
3 78 230 229 0.6957618104318842 0.8397903127198805 0.23702318853473137
3 215 94 207 0.6957618104318842 0.8397903127198805 0.23702318853473137
3 94 93 207 0.6957618104318842 0.8397903127198805 0.23702318853473137
3 40 253 254 0.6957618104318842 0.8397903127198805 0.23702318853473137
3 40 254 89 0.6957618104318842 0.8397903127198805 0.23702318853473137
3 147 143 187 0.6957618104318842 0.8397903127198805 0.23702318853473137
3 148 31 193 0.6957618104318842 0.8397903127198805 0.23702318853473137
3 187 143 188 0.6957618104318842 0.8397903127198805 0.23702318853473137
3 143 148 188 0.6957618104318842 0.8397903127198805 0.23702318853473137
3 188 189 110 0.6957618104318842 0.8397903127198805 0.23702318853473137
3 185 107 26 0.6957618104318842 0.8397903127198805 0.23702318853473137
3 26 27 185 0.6957618104318842 0.8397903127198805 0.23702318853473137
3 27 140 185 0.6957618104318842 0.8397903127198805 0.23702318853473137
3 185 140 141 0.6957618104318842 0.8397903127198805 0.23702318853473137
3 29 146 141 0.6957618104318842 0.8397903127198805 0.23702318853473137
3 141 140 29 0.6957618104318842 0.8397903127198805 0.23702318853473137
3 30 146 29 0.6957618104318842 0.8397903127198805 0.23702318853473137
3 29 140 28 0.6957618104318842 0.8397903127198805 0.23702318853473137
3 130 47 129 0.6957618104318842 0.8397903127198805 0.23702318853473137
3 47 128 129 0.6957618104318842 0.8397903127198805 0.23702318853473137
3 129 55 130 0.6957618104318842 0.8397903127198805 0.23702318853473137
3 257 258 92 0.6957618104318842 0.8397903127198805 0.23702318853473137
3 210 121 120 0.6957618104318842 0.8397903127198805 0.23702318853473137
3 120 121 255 0.6957618104318842 0.8397903127198805 0.23702318853473137
3 90 89 255 0.6957618104318842 0.8397903127198805 0.23702318853473137
3 255 254 120 0.6957618104318842 0.8397903127198805 0.23702318853473137
3 255 89 254 0.6957618104318842 0.8397903127198805 0.23702318853473137
3 124 123 49 0.6957618104318842 0.8397903127198805 0.23702318853473137
3 123 48 49 0.6957618104318842 0.8397903127198805 0.23702318853473137
3 49 50 124 0.6957618104318842 0.8397903127198805 0.23702318853473137
3 8 164 49 0.6957618104318842 0.8397903127198805 0.23702318853473137
3 49 48 8 0.6957618104318842 0.8397903127198805 0.23702318853473137
3 70 123 215 0.6957618104318842 0.8397903127198805 0.23702318853473137
3 70 122 123 0.6957618104318842 0.8397903127198805 0.23702318853473137
3 215 207 70 0.6957618104318842 0.8397903127198805 0.23702318853473137
3 6 122 70 0.6957618104318842 0.8397903127198805 0.23702318853473137
3 118 253 41 0.6957618104318842 0.8397903127198805 0.23702318853473137
3 41 117 118 0.6957618104318842 0.8397903127198805 0.23702318853473137
3 118 117 94 0.6957618104318842 0.8397903127198805 0.23702318853473137
3 94 95 118 0.6957618104318842 0.8397903127198805 0.23702318853473137
3 120 254 119 0.6957618104318842 0.8397903127198805 0.23702318853473137
3 119 254 253 0.6957618104318842 0.8397903127198805 0.23702318853473137
3 253 118 119 0.6957618104318842 0.8397903127198805 0.23702318853473137
3 119 118 95 0.6957618104318842 0.8397903127198805 0.23702318853473137
3 223 76 224 0.6957618104318842 0.8397903127198805 0.23702318853473137
3 223 58 57 0.6957618104318842 0.8397903127198805 0.23702318853473137
3 169 131 132 0.6957618104318842 0.8397903127198805 0.23702318853473137
3 133 170 132 0.6957618104318842 0.8397903127198805 0.23702318853473137
3 132 170 169 0.6957618104318842 0.8397903127198805 0.23702318853473137
3 132 101 133 0.6957618104318842 0.8397903127198805 0.23702318853473137
3 100 101 132 0.6957618104318842 0.8397903127198805 0.23702318853473137
3 99 100 56 0.6957618104318842 0.8397903127198805 0.23702318853473137
3 130 55 56 0.6957618104318842 0.8397903127198805 0.23702318853473137
3 56 131 130 0.6957618104318842 0.8397903127198805 0.23702318853473137
3 100 132 56 0.6957618104318842 0.8397903127198805 0.23702318853473137
3 56 132 131 0.6957618104318842 0.8397903127198805 0.23702318853473137
3 56 98 99 0.6957618104318842 0.8397903127198805 0.23702318853473137
3 55 98 56 0.6957618104318842 0.8397903127198805 0.23702318853473137
3 127 169 219 0.6957618104318842 0.8397903127198805 0.23702318853473137
3 127 168 169 0.6957618104318842 0.8397903127198805 0.23702318853473137
3 133 260 220 0.6957618104318842 0.8397903127198805 0.23702318853473137
3 220 170 133 0.6957618104318842 0.8397903127198805 0.23702318853473137
3 163 68 162 0.6957618104318842 0.8397903127198805 0.23702318853473137
3 260 261 205 0.6957618104318842 0.8397903127198805 0.23702318853473137
3 205 163 260 0.6957618104318842 0.8397903127198805 0.23702318853473137
3 204 163 205 0.6957618104318842 0.8397903127198805 0.23702318853473137
3 205 261 252 0.6957618104318842 0.8397903127198805 0.23702318853473137
3 252 251 157 0.6957618104318842 0.8397903127198805 0.23702318853473137
3 157 205 252 0.6957618104318842 0.8397903127198805 0.23702318853473137
3 204 205 157 0.6957618104318842 0.8397903127198805 0.23702318853473137
3 33 34 245 0.6957618104318842 0.8397903127198805 0.23702318853473137
3 33 245 86 0.6957618104318842 0.8397903127198805 0.23702318853473137
3 198 243 191 0.6957618104318842 0.8397903127198805 0.23702318853473137
3 191 197 198 0.6957618104318842 0.8397903127198805 0.23702318853473137
3 198 197 249 0.6957618104318842 0.8397903127198805 0.23702318853473137
3 198 244 243 0.6957618104318842 0.8397903127198805 0.23702318853473137
3 230 79 231 0.6957618104318842 0.8397903127198805 0.23702318853473137
3 231 79 80 0.6957618104318842 0.8397903127198805 0.23702318853473137
3 78 179 180 0.6957618104318842 0.8397903127198805 0.23702318853473137
3 180 79 78 0.6957618104318842 0.8397903127198805 0.23702318853473137
3 224 225 59 0.6957618104318842 0.8397903127198805 0.23702318853473137
3 59 223 224 0.6957618104318842 0.8397903127198805 0.23702318853473137
3 58 223 59 0.6957618104318842 0.8397903127198805 0.23702318853473137
3 99 98 59 0.6957618104318842 0.8397903127198805 0.23702318853473137
3 59 98 58 0.6957618104318842 0.8397903127198805 0.23702318853473137
3 59 100 99 0.6957618104318842 0.8397903127198805 0.23702318853473137
3 59 225 100 0.6957618104318842 0.8397903127198805 0.23702318853473137
3 233 183 234 0.6957618104318842 0.8397903127198805 0.23702318853473137
3 234 106 233 0.6957618104318842 0.8397903127198805 0.23702318853473137
3 235 139 234 0.6957618104318842 0.8397903127198805 0.23702318853473137
3 234 139 106 0.6957618104318842 0.8397903127198805 0.23702318853473137
3 184 244 235 0.6957618104318842 0.8397903127198805 0.23702318853473137
3 243 244 184 0.6957618104318842 0.8397903127198805 0.23702318853473137
3 235 234 184 0.6957618104318842 0.8397903127198805 0.23702318853473137
3 184 183 243 0.6957618104318842 0.8397903127198805 0.23702318853473137
3 184 234 183 0.6957618104318842 0.8397903127198805 0.23702318853473137
3 176 76 175 0.6957618104318842 0.8397903127198805 0.23702318853473137
3 175 139 176 0.6957618104318842 0.8397903127198805 0.23702318853473137
3 138 139 175 0.6957618104318842 0.8397903127198805 0.23702318853473137
3 175 174 138 0.6957618104318842 0.8397903127198805 0.23702318853473137
3 74 174 75 0.6957618104318842 0.8397903127198805 0.23702318853473137
3 75 221 74 0.6957618104318842 0.8397903127198805 0.23702318853473137
3 75 175 76 0.6957618104318842 0.8397903127198805 0.23702318853473137
3 174 175 75 0.6957618104318842 0.8397903127198805 0.23702318853473137
3 179 178 82 0.6957618104318842 0.8397903127198805 0.23702318853473137
3 178 81 82 0.6957618104318842 0.8397903127198805 0.23702318853473137
3 78 229 77 0.6957618104318842 0.8397903127198805 0.23702318853473137
3 77 179 78 0.6957618104318842 0.8397903127198805 0.23702318853473137
3 77 178 179 0.6957618104318842 0.8397903127198805 0.23702318853473137
3 77 229 21 0.6957618104318842 0.8397903127198805 0.23702318853473137
3 21 229 20 0.6957618104318842 0.8397903127198805 0.23702318853473137
3 20 134 18 0.6957618104318842 0.8397903127198805 0.23702318853473137
3 92 160 159 0.6957618104318842 0.8397903127198805 0.23702318853473137
3 159 160 66 0.6957618104318842 0.8397903127198805 0.23702318853473137
3 162 68 161 0.6957618104318842 0.8397903127198805 0.23702318853473137
3 161 258 162 0.6957618104318842 0.8397903127198805 0.23702318853473137
3 92 258 161 0.6957618104318842 0.8397903127198805 0.23702318853473137
3 161 160 92 0.6957618104318842 0.8397903127198805 0.23702318853473137
3 66 160 67 0.6957618104318842 0.8397903127198805 0.23702318853473137
3 67 199 66 0.6957618104318842 0.8397903127198805 0.23702318853473137
3 160 161 67 0.6957618104318842 0.8397903127198805 0.23702318853473137
3 67 161 68 0.6957618104318842 0.8397903127198805 0.23702318853473137
3 201 68 202 0.6957618104318842 0.8397903127198805 0.23702318853473137
3 202 65 201 0.6957618104318842 0.8397903127198805 0.23702318853473137
3 31 148 192 0.6957618104318842 0.8397903127198805 0.23702318853473137
3 30 31 192 0.6957618104318842 0.8397903127198805 0.23702318853473137
3 192 147 30 0.6957618104318842 0.8397903127198805 0.23702318853473137
3 143 147 192 0.6957618104318842 0.8397903127198805 0.23702318853473137
3 192 148 143 0.6957618104318842 0.8397903127198805 0.23702318853473137
3 187 188 109 0.6957618104318842 0.8397903127198805 0.23702318853473137
3 109 108 187 0.6957618104318842 0.8397903127198805 0.23702318853473137
3 109 110 239 0.6957618104318842 0.8397903127198805 0.23702318853473137
3 109 188 110 0.6957618104318842 0.8397903127198805 0.23702318853473137
3 142 147 187 0.6957618104318842 0.8397903127198805 0.23702318853473137
3 142 146 30 0.6957618104318842 0.8397903127198805 0.23702318853473137
3 30 147 142 0.6957618104318842 0.8397903127198805 0.23702318853473137
3 54 128 12 0.6957618104318842 0.8397903127198805 0.23702318853473137
3 54 129 128 0.6957618104318842 0.8397903127198805 0.23702318853473137
3 55 129 54 0.6957618104318842 0.8397903127198805 0.23702318853473137
3 97 55 54 0.6957618104318842 0.8397903127198805 0.23702318853473137
3 54 12 13 0.6957618104318842 0.8397903127198805 0.23702318853473137
3 13 97 54 0.6957618104318842 0.8397903127198805 0.23702318853473137
3 124 50 72 0.6957618104318842 0.8397903127198805 0.23702318853473137
3 72 216 124 0.6957618104318842 0.8397903127198805 0.23702318853473137
3 46 10 11 0.6957618104318842 0.8397903127198805 0.23702318853473137
3 11 128 46 0.6957618104318842 0.8397903127198805 0.23702318853473137
3 46 128 47 0.6957618104318842 0.8397903127198805 0.23702318853473137
3 10 46 52 0.6957618104318842 0.8397903127198805 0.23702318853473137
3 52 46 47 0.6957618104318842 0.8397903127198805 0.23702318853473137
3 165 164 9 0.6957618104318842 0.8397903127198805 0.23702318853473137
3 165 49 164 0.6957618104318842 0.8397903127198805 0.23702318853473137
3 50 49 165 0.6957618104318842 0.8397903127198805 0.23702318853473137
3 90 255 256 0.6957618104318842 0.8397903127198805 0.23702318853473137
3 256 255 121 0.6957618104318842 0.8397903127198805 0.23702318853473137
3 121 257 256 0.6957618104318842 0.8397903127198805 0.23702318853473137
3 6 70 69 0.6957618104318842 0.8397903127198805 0.23702318853473137
3 69 5 6 0.6957618104318842 0.8397903127198805 0.23702318853473137
3 69 206 5 0.6957618104318842 0.8397903127198805 0.23702318853473137
3 71 123 124 0.6957618104318842 0.8397903127198805 0.23702318853473137
3 124 216 71 0.6957618104318842 0.8397903127198805 0.23702318853473137
3 215 123 71 0.6957618104318842 0.8397903127198805 0.23702318853473137
3 96 72 217 0.6957618104318842 0.8397903127198805 0.23702318853473137
3 217 210 96 0.6957618104318842 0.8397903127198805 0.23702318853473137
3 96 210 120 0.6957618104318842 0.8397903127198805 0.23702318853473137
3 120 119 96 0.6957618104318842 0.8397903127198805 0.23702318853473137
3 222 223 57 0.6957618104318842 0.8397903127198805 0.23702318853473137
3 57 14 222 0.6957618104318842 0.8397903127198805 0.23702318853473137
3 14 221 222 0.6957618104318842 0.8397903127198805 0.23702318853473137
3 221 75 222 0.6957618104318842 0.8397903127198805 0.23702318853473137
3 76 223 222 0.6957618104318842 0.8397903127198805 0.23702318853473137
3 222 75 76 0.6957618104318842 0.8397903127198805 0.23702318853473137
3 162 258 259 0.6957618104318842 0.8397903127198805 0.23702318853473137
3 259 163 162 0.6957618104318842 0.8397903127198805 0.23702318853473137
3 259 220 260 0.6957618104318842 0.8397903127198805 0.23702318853473137
3 260 163 259 0.6957618104318842 0.8397903127198805 0.23702318853473137
3 170 220 212 0.6957618104318842 0.8397903127198805 0.23702318853473137
3 219 169 212 0.6957618104318842 0.8397903127198805 0.23702318853473137
3 169 170 212 0.6957618104318842 0.8397903127198805 0.23702318853473137
3 220 259 212 0.6957618104318842 0.8397903127198805 0.23702318853473137
3 212 259 258 0.6957618104318842 0.8397903127198805 0.23702318853473137
3 212 257 219 0.6957618104318842 0.8397903127198805 0.23702318853473137
3 258 257 212 0.6957618104318842 0.8397903127198805 0.23702318853473137
3 203 163 204 0.6957618104318842 0.8397903127198805 0.23702318853473137
3 203 157 202 0.6957618104318842 0.8397903127198805 0.23702318853473137
3 204 157 203 0.6957618104318842 0.8397903127198805 0.23702318853473137
3 202 68 203 0.6957618104318842 0.8397903127198805 0.23702318853473137
3 68 163 203 0.6957618104318842 0.8397903127198805 0.23702318853473137
3 156 65 202 0.6957618104318842 0.8397903127198805 0.23702318853473137
3 202 157 156 0.6957618104318842 0.8397903127198805 0.23702318853473137
3 156 157 251 0.6957618104318842 0.8397903127198805 0.23702318853473137
3 63 36 37 0.6957618104318842 0.8397903127198805 0.23702318853473137
3 37 199 63 0.6957618104318842 0.8397903127198805 0.23702318853473137
3 199 64 63 0.6957618104318842 0.8397903127198805 0.23702318853473137
3 152 61 35 0.6957618104318842 0.8397903127198805 0.23702318853473137
3 35 36 152 0.6957618104318842 0.8397903127198805 0.23702318853473137
3 246 245 34 0.6957618104318842 0.8397903127198805 0.23702318853473137
3 249 197 248 0.6957618104318842 0.8397903127198805 0.23702318853473137
3 112 32 113 0.6957618104318842 0.8397903127198805 0.23702318853473137
3 113 194 112 0.6957618104318842 0.8397903127198805 0.23702318853473137
3 193 112 149 0.6957618104318842 0.8397903127198805 0.23702318853473137
3 112 194 149 0.6957618104318842 0.8397903127198805 0.23702318853473137
3 232 231 80 0.6957618104318842 0.8397903127198805 0.23702318853473137
3 232 80 233 0.6957618104318842 0.8397903127198805 0.23702318853473137
3 233 105 232 0.6957618104318842 0.8397903127198805 0.23702318853473137
3 230 231 103 0.6957618104318842 0.8397903127198805 0.23702318853473137
3 237 24 25 0.6957618104318842 0.8397903127198805 0.23702318853473137
3 237 81 24 0.6957618104318842 0.8397903127198805 0.23702318853473137
3 25 107 237 0.6957618104318842 0.8397903127198805 0.23702318853473137
3 107 108 237 0.6957618104318842 0.8397903127198805 0.23702318853473137
3 22 77 21 0.6957618104318842 0.8397903127198805 0.23702318853473137
3 23 178 22 0.6957618104318842 0.8397903127198805 0.23702318853473137
3 178 77 22 0.6957618104318842 0.8397903127198805 0.23702318853473137
3 92 159 91 0.6957618104318842 0.8397903127198805 0.23702318853473137
3 90 256 91 0.6957618104318842 0.8397903127198805 0.23702318853473137
3 91 257 92 0.6957618104318842 0.8397903127198805 0.23702318853473137
3 91 256 257 0.6957618104318842 0.8397903127198805 0.23702318853473137
3 40 89 39 0.6957618104318842 0.8397903127198805 0.23702318853473137
3 39 89 90 0.6957618104318842 0.8397903127198805 0.23702318853473137
3 199 67 200 0.6957618104318842 0.8397903127198805 0.23702318853473137
3 200 67 68 0.6957618104318842 0.8397903127198805 0.23702318853473137
3 68 201 200 0.6957618104318842 0.8397903127198805 0.23702318853473137
3 200 201 65 0.6957618104318842 0.8397903127198805 0.23702318853473137
3 200 64 199 0.6957618104318842 0.8397903127198805 0.23702318853473137
3 65 64 200 0.6957618104318842 0.8397903127198805 0.23702318853473137
3 107 185 186 0.6957618104318842 0.8397903127198805 0.23702318853473137
3 186 108 107 0.6957618104318842 0.8397903127198805 0.23702318853473137
3 186 185 141 0.6957618104318842 0.8397903127198805 0.23702318853473137
3 187 108 186 0.6957618104318842 0.8397903127198805 0.23702318853473137
3 186 142 187 0.6957618104318842 0.8397903127198805 0.23702318853473137
3 141 146 186 0.6957618104318842 0.8397903127198805 0.23702318853473137
3 146 142 186 0.6957618104318842 0.8397903127198805 0.23702318853473137
3 217 72 125 0.6957618104318842 0.8397903127198805 0.23702318853473137
3 125 72 50 0.6957618104318842 0.8397903127198805 0.23702318853473137
3 125 210 217 0.6957618104318842 0.8397903127198805 0.23702318853473137
3 125 126 210 0.6957618104318842 0.8397903127198805 0.23702318853473137
3 9 10 51 0.6957618104318842 0.8397903127198805 0.23702318853473137
3 51 165 9 0.6957618104318842 0.8397903127198805 0.23702318853473137
3 10 52 51 0.6957618104318842 0.8397903127198805 0.23702318853473137
3 52 165 51 0.6957618104318842 0.8397903127198805 0.23702318853473137
3 214 70 207 0.6957618104318842 0.8397903127198805 0.23702318853473137
3 214 69 70 0.6957618104318842 0.8397903127198805 0.23702318853473137
3 206 69 214 0.6957618104318842 0.8397903127198805 0.23702318853473137
3 214 93 206 0.6957618104318842 0.8397903127198805 0.23702318853473137
3 214 207 93 0.6957618104318842 0.8397903127198805 0.23702318853473137
3 208 216 95 0.6957618104318842 0.8397903127198805 0.23702318853473137
3 208 71 216 0.6957618104318842 0.8397903127198805 0.23702318853473137
3 215 71 208 0.6957618104318842 0.8397903127198805 0.23702318853473137
3 208 94 215 0.6957618104318842 0.8397903127198805 0.23702318853473137
3 208 95 94 0.6957618104318842 0.8397903127198805 0.23702318853473137
3 216 72 209 0.6957618104318842 0.8397903127198805 0.23702318853473137
3 72 96 209 0.6957618104318842 0.8397903127198805 0.23702318853473137
3 95 216 209 0.6957618104318842 0.8397903127198805 0.23702318853473137
3 209 119 95 0.6957618104318842 0.8397903127198805 0.23702318853473137
3 209 96 119 0.6957618104318842 0.8397903127198805 0.23702318853473137
3 121 210 218 0.6957618104318842 0.8397903127198805 0.23702318853473137
3 210 126 218 0.6957618104318842 0.8397903127198805 0.23702318853473137
3 218 126 127 0.6957618104318842 0.8397903127198805 0.23702318853473137
3 168 127 167 0.6957618104318842 0.8397903127198805 0.23702318853473137
3 127 126 167 0.6957618104318842 0.8397903127198805 0.23702318853473137
3 154 63 64 0.6957618104318842 0.8397903127198805 0.23702318853473137
3 250 156 251 0.6957618104318842 0.8397903127198805 0.23702318853473137
3 250 198 249 0.6957618104318842 0.8397903127198805 0.23702318853473137
3 251 244 250 0.6957618104318842 0.8397903127198805 0.23702318853473137
3 244 198 250 0.6957618104318842 0.8397903127198805 0.23702318853473137
3 60 246 34 0.6957618104318842 0.8397903127198805 0.23702318853473137
3 34 35 60 0.6957618104318842 0.8397903127198805 0.23702318853473137
3 60 35 61 0.6957618104318842 0.8397903127198805 0.23702318853473137
3 87 86 245 0.6957618104318842 0.8397903127198805 0.23702318853473137
3 245 246 87 0.6957618104318842 0.8397903127198805 0.23702318853473137
3 87 246 88 0.6957618104318842 0.8397903127198805 0.23702318853473137
3 62 61 152 0.6957618104318842 0.8397903127198805 0.23702318853473137
3 62 248 61 0.6957618104318842 0.8397903127198805 0.23702318853473137
3 249 248 62 0.6957618104318842 0.8397903127198805 0.23702318853473137
3 62 154 249 0.6957618104318842 0.8397903127198805 0.23702318853473137
3 189 145 111 0.6957618104318842 0.8397903127198805 0.23702318853473137
3 110 189 111 0.6957618104318842 0.8397903127198805 0.23702318853473137
3 191 242 151 0.6957618104318842 0.8397903127198805 0.23702318853473137
3 151 197 191 0.6957618104318842 0.8397903127198805 0.23702318853473137
3 150 145 189 0.6957618104318842 0.8397903127198805 0.23702318853473137
3 85 32 33 0.6957618104318842 0.8397903127198805 0.23702318853473137
3 85 113 32 0.6957618104318842 0.8397903127198805 0.23702318853473137
3 33 86 85 0.6957618104318842 0.8397903127198805 0.23702318853473137
3 144 148 193 0.6957618104318842 0.8397903127198805 0.23702318853473137
3 193 149 144 0.6957618104318842 0.8397903127198805 0.23702318853473137
3 144 188 148 0.6957618104318842 0.8397903127198805 0.23702318853473137
3 189 188 144 0.6957618104318842 0.8397903127198805 0.23702318853473137
3 144 150 189 0.6957618104318842 0.8397903127198805 0.23702318853473137
3 144 149 194 0.6957618104318842 0.8397903127198805 0.23702318853473137
3 194 150 144 0.6957618104318842 0.8397903127198805 0.23702318853473137
3 135 171 17 0.6957618104318842 0.8397903127198805 0.23702318853473137
3 17 134 135 0.6957618104318842 0.8397903127198805 0.23702318853473137
3 134 20 102 0.6957618104318842 0.8397903127198805 0.23702318853473137
3 102 135 134 0.6957618104318842 0.8397903127198805 0.23702318853473137
3 103 135 102 0.6957618104318842 0.8397903127198805 0.23702318853473137
3 102 20 229 0.6957618104318842 0.8397903127198805 0.23702318853473137
3 102 229 230 0.6957618104318842 0.8397903127198805 0.23702318853473137
3 230 103 102 0.6957618104318842 0.8397903127198805 0.23702318853473137
3 83 84 180 0.6957618104318842 0.8397903127198805 0.23702318853473137
3 83 82 239 0.6957618104318842 0.8397903127198805 0.23702318853473137
3 83 180 179 0.6957618104318842 0.8397903127198805 0.23702318853473137
3 179 82 83 0.6957618104318842 0.8397903127198805 0.23702318853473137
3 180 84 181 0.6957618104318842 0.8397903127198805 0.23702318853473137
3 80 79 181 0.6957618104318842 0.8397903127198805 0.23702318853473137
3 79 180 181 0.6957618104318842 0.8397903127198805 0.23702318853473137
3 181 182 80 0.6957618104318842 0.8397903127198805 0.23702318853473137
3 241 182 181 0.6957618104318842 0.8397903127198805 0.23702318853473137
3 181 84 241 0.6957618104318842 0.8397903127198805 0.23702318853473137
3 238 82 81 0.6957618104318842 0.8397903127198805 0.23702318853473137
3 81 237 238 0.6957618104318842 0.8397903127198805 0.23702318853473137
3 239 82 238 0.6957618104318842 0.8397903127198805 0.23702318853473137
3 238 109 239 0.6957618104318842 0.8397903127198805 0.23702318853473137
3 108 109 238 0.6957618104318842 0.8397903127198805 0.23702318853473137
3 238 237 108 0.6957618104318842 0.8397903127198805 0.23702318853473137
3 38 159 66 0.6957618104318842 0.8397903127198805 0.23702318853473137
3 38 66 37 0.6957618104318842 0.8397903127198805 0.23702318853473137
3 211 257 121 0.6957618104318842 0.8397903127198805 0.23702318853473137
3 121 218 211 0.6957618104318842 0.8397903127198805 0.23702318853473137
3 211 218 127 0.6957618104318842 0.8397903127198805 0.23702318853473137
3 219 257 211 0.6957618104318842 0.8397903127198805 0.23702318853473137
3 211 127 219 0.6957618104318842 0.8397903127198805 0.23702318853473137
3 47 168 53 0.6957618104318842 0.8397903127198805 0.23702318853473137
3 168 167 53 0.6957618104318842 0.8397903127198805 0.23702318853473137
3 53 52 47 0.6957618104318842 0.8397903127198805 0.23702318853473137
3 126 125 166 0.6957618104318842 0.8397903127198805 0.23702318853473137
3 166 167 126 0.6957618104318842 0.8397903127198805 0.23702318853473137
3 166 125 50 0.6957618104318842 0.8397903127198805 0.23702318853473137
3 52 53 166 0.6957618104318842 0.8397903127198805 0.23702318853473137
3 166 53 167 0.6957618104318842 0.8397903127198805 0.23702318853473137
3 50 165 166 0.6957618104318842 0.8397903127198805 0.23702318853473137
3 166 165 52 0.6957618104318842 0.8397903127198805 0.23702318853473137
3 156 250 155 0.6957618104318842 0.8397903127198805 0.23702318853473137
3 65 156 155 0.6957618104318842 0.8397903127198805 0.23702318853473137
3 249 154 155 0.6957618104318842 0.8397903127198805 0.23702318853473137
3 155 250 249 0.6957618104318842 0.8397903127198805 0.23702318853473137
3 155 64 65 0.6957618104318842 0.8397903127198805 0.23702318853473137
3 155 154 64 0.6957618104318842 0.8397903127198805 0.23702318853473137
3 88 246 247 0.6957618104318842 0.8397903127198805 0.23702318853473137
3 246 60 247 0.6957618104318842 0.8397903127198805 0.23702318853473137
3 247 60 61 0.6957618104318842 0.8397903127198805 0.23702318853473137
3 247 248 88 0.6957618104318842 0.8397903127198805 0.23702318853473137
3 61 248 247 0.6957618104318842 0.8397903127198805 0.23702318853473137
3 153 62 152 0.6957618104318842 0.8397903127198805 0.23702318853473137
3 154 62 153 0.6957618104318842 0.8397903127198805 0.23702318853473137
3 63 154 153 0.6957618104318842 0.8397903127198805 0.23702318853473137
3 152 36 153 0.6957618104318842 0.8397903127198805 0.23702318853473137
3 36 63 153 0.6957618104318842 0.8397903127198805 0.23702318853473137
3 110 111 240 0.6957618104318842 0.8397903127198805 0.23702318853473137
3 84 83 240 0.6957618104318842 0.8397903127198805 0.23702318853473137
3 241 84 240 0.6957618104318842 0.8397903127198805 0.23702318853473137
3 240 111 241 0.6957618104318842 0.8397903127198805 0.23702318853473137
3 239 110 240 0.6957618104318842 0.8397903127198805 0.23702318853473137
3 240 83 239 0.6957618104318842 0.8397903127198805 0.23702318853473137
3 190 151 242 0.6957618104318842 0.8397903127198805 0.23702318853473137
3 190 242 241 0.6957618104318842 0.8397903127198805 0.23702318853473137
3 241 111 190 0.6957618104318842 0.8397903127198805 0.23702318853473137
3 190 111 145 0.6957618104318842 0.8397903127198805 0.23702318853473137
3 196 190 145 0.6957618104318842 0.8397903127198805 0.23702318853473137
3 151 190 196 0.6957618104318842 0.8397903127198805 0.23702318853473137
3 197 151 116 0.6957618104318842 0.8397903127198805 0.23702318853473137
3 88 248 116 0.6957618104318842 0.8397903127198805 0.23702318853473137
3 116 248 197 0.6957618104318842 0.8397903127198805 0.23702318853473137
3 116 196 88 0.6957618104318842 0.8397903127198805 0.23702318853473137
3 151 196 116 0.6957618104318842 0.8397903127198805 0.23702318853473137
3 194 113 195 0.6957618104318842 0.8397903127198805 0.23702318853473137
3 195 150 194 0.6957618104318842 0.8397903127198805 0.23702318853473137
3 145 150 195 0.6957618104318842 0.8397903127198805 0.23702318853473137
3 171 135 136 0.6957618104318842 0.8397903127198805 0.23702318853473137
3 137 172 136 0.6957618104318842 0.8397903127198805 0.23702318853473137
3 136 172 171 0.6957618104318842 0.8397903127198805 0.23702318853473137
3 136 135 103 0.6957618104318842 0.8397903127198805 0.23702318853473137
3 159 38 158 0.6957618104318842 0.8397903127198805 0.23702318853473137
3 158 38 39 0.6957618104318842 0.8397903127198805 0.23702318853473137
3 158 91 159 0.6957618104318842 0.8397903127198805 0.23702318853473137
3 90 91 158 0.6957618104318842 0.8397903127198805 0.23702318853473137
3 158 39 90 0.6957618104318842 0.8397903127198805 0.23702318853473137
3 114 85 86 0.6957618104318842 0.8397903127198805 0.23702318853473137
3 113 85 114 0.6957618104318842 0.8397903127198805 0.23702318853473137
3 114 195 113 0.6957618104318842 0.8397903127198805 0.23702318853473137
3 145 195 114 0.6957618104318842 0.8397903127198805 0.23702318853473137
3 104 136 103 0.6957618104318842 0.8397903127198805 0.23702318853473137
3 104 103 231 0.6957618104318842 0.8397903127198805 0.23702318853473137
3 104 105 137 0.6957618104318842 0.8397903127198805 0.23702318853473137
3 137 136 104 0.6957618104318842 0.8397903127198805 0.23702318853473137
3 104 232 105 0.6957618104318842 0.8397903127198805 0.23702318853473137
3 231 232 104 0.6957618104318842 0.8397903127198805 0.23702318853473137
3 115 196 145 0.6957618104318842 0.8397903127198805 0.23702318853473137
3 145 114 115 0.6957618104318842 0.8397903127198805 0.23702318853473137
3 115 114 86 0.6957618104318842 0.8397903127198805 0.23702318853473137
3 86 87 115 0.6957618104318842 0.8397903127198805 0.23702318853473137
3 115 87 88 0.6957618104318842 0.8397903127198805 0.23702318853473137
3 88 196 115 0.6957618104318842 0.8397903127198805 0.23702318853473137
