OFF
14 10 0


30.5883 34.835 7.9752
30.5883 34.835 7.9752
30.5976 34.8359 7.922
30.5884 34.8291 7.8033
30.5881 34.8322 7.8893
30.5883 34.835 7.9752
30.6064 34.8366 7.8687
30.5973 34.8328 7.8361
30.5884 34.8291 7.8033
30.5897 34.8343 7.9375
30.5898 34.8313 7.8516
30.5897 34.8343 7.9375
30.5989 34.835 7.8844
30.5912 34.8335 7.9002
3 7 10 3 0.6547768766359957 0.9061039832287155 0.5262283745474484
3 6 10 7 0.6547768766359957 0.9061039832287155 0.5262283745474484
3 12 10 6 0.6547768766359957 0.9061039832287155 0.5262283745474484
3 12 4 10 0.6547768766359957 0.9061039832287155 0.5262283745474484
3 13 4 12 0.6547768766359957 0.9061039832287155 0.5262283745474484
3 6 2 12 0.6547768766359957 0.9061039832287155 0.5262283745474484
3 12 2 13 0.6547768766359957 0.9061039832287155 0.5262283745474484
3 9 4 13 0.6547768766359957 0.9061039832287155 0.5262283745474484
3 9 2 0 0.6547768766359957 0.9061039832287155 0.5262283745474484
3 13 2 9 0.6547768766359957 0.9061039832287155 0.5262283745474484
