OFF
158 267 0


30.2781 31.3833 6.2378
30.2781 31.3833 6.2378
30.3639 31.4563 6.3278
30.4267 31.5095 6.3926
30.5137 31.5829 6.4809
30.5137 31.5829 6.4809
30.535 31.6835 6.5651
30.5516 31.7662 6.6331
30.5653 31.8381 6.6912
30.5773 31.904 6.7437
30.5883 31.9674 6.7934
30.599 32.031 6.8427
30.6097 32.0981 6.8939
30.621 32.1722 6.9498
30.6334 32.2586 7.0138
30.6478 32.3655 7.0916
30.5741 32.2824 7.0102
30.5114 32.2076 6.9371
30.4569 32.1389 6.8701
30.4085 32.0745 6.8074
30.3646 32.013 6.7477
30.3241 31.9532 6.6896
30.286 31.894 6.6322
30.2496 31.8342 6.5744
30.2141 31.7727 6.515
30.179 31.7083 6.4529
30.1437 31.6395 6.3866
30.1076 31.5644 6.3144
30.07 31.4807 6.234
30.0303 31.3851 6.1424
30.0303 31.3851 6.1424
30.1541 31.3838 6.1903
30.2781 31.3833 6.2378
30.5497 31.8893 6.7234
30.5222 31.8747 6.7031
30.5679 31.9976 6.8082
30.5371 31.9646 6.7737
30.4203 31.5529 6.424
30.4141 31.5957 6.4547
30.4081 31.6378 6.4848
30.5276 31.7713 6.6285
30.5038 31.7764 6.6239
30.48 31.7815 6.6193
30.5858 32.1168 6.899
30.5514 32.0627 6.849
30.5176 32.0097 6.7994
30.4925 32.1472 6.8884
30.474 32.0882 6.8402
30.4558 32.0301 6.7925
30.405 32.0351 6.778
30.4015 31.996 6.7487
30.3982 31.9572 6.7193
30.3328 31.9316 6.677
30.3414 31.91 6.6644
30.3501 31.8885 6.6517
30.269 31.8295 6.5782
30.2884 31.8249 6.582
30.3078 31.8204 6.5858
30.2092 31.7219 6.4748
30.239 31.7354 6.4963
30.2686 31.7489 6.5176
30.1497 31.6002 6.3586
30.1907 31.6352 6.4014
30.2308 31.6694 6.443
30.3669 31.5084 6.3697
30.3699 31.5593 6.4104
30.3729 31.6093 6.4501
30.3759 31.6584 6.4888
30.5133 31.7006 6.5704
30.4917 31.7176 6.5755
30.4702 31.7346 6.5807
30.4488 31.7515 6.5857
30.559 31.9434 6.766
30.5299 31.9196 6.7386
30.5009 31.896 6.7113
30.4719 31.8725 6.6838
30.6064 32.2768 7.0172
30.567 32.1923 6.9455
30.5291 32.1112 6.8757
30.4924 32.0324 6.8069
30.5452 32.2092 6.9498
30.5172 32.1383 6.8907
30.49 32.0694 6.8325
30.4634 32.0017 6.7748
30.0873 31.4517 6.218
30.1414 31.515 6.289
30.1931 31.5756 6.3563
30.2429 31.6342 6.4206
30.1904 31.4494 6.2565
30.2251 31.5123 6.3193
30.2587 31.5731 6.3794
30.2912 31.632 6.4372
30.5395 31.8329 6.6784
30.5137 31.8277 6.6655
30.488 31.8226 6.6526
30.4622 31.8174 6.6397
30.4365 31.8124 6.6267
30.5955 32.1888 6.9528
30.5589 32.1214 6.8931
30.5232 32.0559 6.8344
30.4882 31.9916 6.7762
30.4537 31.9282 6.7181
30.4462 32.0896 6.8315
30.4358 32.041 6.7932
30.4255 31.9929 6.7549
30.4153 31.9451 6.7167
30.4052 31.8975 6.6783
30.3674 31.9828 6.7268
30.3703 31.9526 6.706
30.3732 31.9225 6.6851
30.3761 31.8925 6.6641
30.3791 31.8624 6.6431
30.2389 31.7769 6.5275
30.2635 31.7811 6.5399
30.288 31.7853 6.5522
30.3124 31.7895 6.5645
30.3367 31.7938 6.5766
30.119 31.5303 6.2923
30.1663 31.5783 6.348
30.212 31.6248 6.4016
30.2565 31.6702 6.4534
30.3 31.7148 6.5036
30.2945 31.4481 6.2953
30.3103 31.5107 6.3503
30.3258 31.5714 6.4033
30.3409 31.6306 6.4546
30.3558 31.6886 6.5044
30.2945 31.4481 6.2953
30.3103 31.5107 6.3503
30.3258 31.5714 6.4033
30.3409 31.6306 6.4546
30.3558 31.6886 6.5044
30.3705 31.7457 6.553
30.4948 31.615 6.4987
30.476 31.6467 6.5162
30.4575 31.6781 6.5335
30.4392 31.7094 6.5505
30.421 31.7405 6.5674
30.403 31.7714 6.5841
30.5767 32.0544 6.8518
30.5442 32.0115 6.81
30.5121 31.9691 6.7683
30.4802 31.9272 6.7267
30.4485 31.8855 6.685
30.4168 31.8439 6.643
30.3002 31.8808 6.6278
30.3143 31.8677 6.6233
30.3284 31.8546 6.6188
30.3426 31.8415 6.6143
30.3567 31.8284 6.6098
30.3709 31.8153 6.6052
30.1796 31.6635 6.4189
30.2149 31.6871 6.4505
30.2496 31.7105 6.4814
30.284 31.7337 6.5119
30.3179 31.7567 6.5419
30.3516 31.7795 6.5714
30.3851 31.8023 6.6006
3 88 31 0 0.455893240858666 0.7410430224192137 0.45432118917223663
3 26 27 61 0.455893240858666 0.7410430224192137 0.45432118917223663
3 133 38 4 0.455893240858666 0.7410430224192137 0.45432118917223663
3 64 2 3 0.455893240858666 0.7410430224192137 0.45432118917223663
3 26 151 25 0.455893240858666 0.7410430224192137 0.45432118917223663
3 124 64 65 0.455893240858666 0.7410430224192137 0.45432118917223663
3 65 64 3 0.455893240858666 0.7410430224192137 0.45432118917223663
3 124 65 66 0.455893240858666 0.7410430224192137 0.45432118917223663
3 66 65 38 0.455893240858666 0.7410430224192137 0.45432118917223663
3 84 88 85 0.455893240858666 0.7410430224192137 0.45432118917223663
3 31 88 84 0.455893240858666 0.7410430224192137 0.45432118917223663
3 29 31 84 0.455893240858666 0.7410430224192137 0.45432118917223663
3 85 88 89 0.455893240858666 0.7410430224192137 0.45432118917223663
3 118 61 27 0.455893240858666 0.7410430224192137 0.45432118917223663
3 86 61 118 0.455893240858666 0.7410430224192137 0.45432118917223663
3 118 117 85 0.455893240858666 0.7410430224192137 0.45432118917223663
3 27 117 118 0.455893240858666 0.7410430224192137 0.45432118917223663
3 85 89 118 0.455893240858666 0.7410430224192137 0.45432118917223663
3 118 89 86 0.455893240858666 0.7410430224192137 0.45432118917223663
3 55 56 145 0.455893240858666 0.7410430224192137 0.45432118917223663
3 55 22 23 0.455893240858666 0.7410430224192137 0.45432118917223663
3 145 22 55 0.455893240858666 0.7410430224192137 0.45432118917223663
3 23 113 55 0.455893240858666 0.7410430224192137 0.45432118917223663
3 22 52 21 0.455893240858666 0.7410430224192137 0.45432118917223663
3 57 56 115 0.455893240858666 0.7410430224192137 0.45432118917223663
3 80 16 17 0.455893240858666 0.7410430224192137 0.45432118917223663
3 37 65 3 0.455893240858666 0.7410430224192137 0.45432118917223663
3 38 65 37 0.455893240858666 0.7410430224192137 0.45432118917223663
3 37 3 4 0.455893240858666 0.7410430224192137 0.45432118917223663
3 4 38 37 0.455893240858666 0.7410430224192137 0.45432118917223663
3 115 56 114 0.455893240858666 0.7410430224192137 0.45432118917223663
3 56 55 114 0.455893240858666 0.7410430224192137 0.45432118917223663
3 114 55 113 0.455893240858666 0.7410430224192137 0.45432118917223663
3 152 151 63 0.455893240858666 0.7410430224192137 0.45432118917223663
3 152 25 151 0.455893240858666 0.7410430224192137 0.45432118917223663
3 120 91 121 0.455893240858666 0.7410430224192137 0.45432118917223663
3 121 153 120 0.455893240858666 0.7410430224192137 0.45432118917223663
3 120 152 63 0.455893240858666 0.7410430224192137 0.45432118917223663
3 153 152 120 0.455893240858666 0.7410430224192137 0.45432118917223663
3 63 119 87 0.455893240858666 0.7410430224192137 0.45432118917223663
3 87 120 63 0.455893240858666 0.7410430224192137 0.45432118917223663
3 91 120 87 0.455893240858666 0.7410430224192137 0.45432118917223663
3 63 151 62 0.455893240858666 0.7410430224192137 0.45432118917223663
3 62 119 63 0.455893240858666 0.7410430224192137 0.45432118917223663
3 62 151 26 0.455893240858666 0.7410430224192137 0.45432118917223663
3 26 61 62 0.455893240858666 0.7410430224192137 0.45432118917223663
3 62 61 86 0.455893240858666 0.7410430224192137 0.45432118917223663
3 86 119 62 0.455893240858666 0.7410430224192137 0.45432118917223663
3 125 66 67 0.455893240858666 0.7410430224192137 0.45432118917223663
3 121 91 125 0.455893240858666 0.7410430224192137 0.45432118917223663
3 125 91 124 0.455893240858666 0.7410430224192137 0.45432118917223663
3 124 66 125 0.455893240858666 0.7410430224192137 0.45432118917223663
3 85 117 28 0.455893240858666 0.7410430224192137 0.45432118917223663
3 28 84 85 0.455893240858666 0.7410430224192137 0.45432118917223663
3 28 117 27 0.455893240858666 0.7410430224192137 0.45432118917223663
3 29 84 28 0.455893240858666 0.7410430224192137 0.45432118917223663
3 2 64 128 0.455893240858666 0.7410430224192137 0.45432118917223663
3 128 64 124 0.455893240858666 0.7410430224192137 0.45432118917223663
3 115 114 155 0.455893240858666 0.7410430224192137 0.45432118917223663
3 126 125 67 0.455893240858666 0.7410430224192137 0.45432118917223663
3 121 125 126 0.455893240858666 0.7410430224192137 0.45432118917223663
3 126 155 121 0.455893240858666 0.7410430224192137 0.45432118917223663
3 132 155 126 0.455893240858666 0.7410430224192137 0.45432118917223663
3 39 135 67 0.455893240858666 0.7410430224192137 0.45432118917223663
3 67 66 39 0.455893240858666 0.7410430224192137 0.45432118917223663
3 39 66 38 0.455893240858666 0.7410430224192137 0.45432118917223663
3 38 133 39 0.455893240858666 0.7410430224192137 0.45432118917223663
3 115 155 156 0.455893240858666 0.7410430224192137 0.45432118917223663
3 156 155 132 0.455893240858666 0.7410430224192137 0.45432118917223663
3 15 16 76 0.455893240858666 0.7410430224192137 0.45432118917223663
3 76 14 15 0.455893240858666 0.7410430224192137 0.45432118917223663
3 49 104 103 0.455893240858666 0.7410430224192137 0.45432118917223663
3 19 49 103 0.455893240858666 0.7410430224192137 0.45432118917223663
3 20 49 19 0.455893240858666 0.7410430224192137 0.45432118917223663
3 72 9 10 0.455893240858666 0.7410430224192137 0.45432118917223663
3 10 36 72 0.455893240858666 0.7410430224192137 0.45432118917223663
3 20 21 107 0.455893240858666 0.7410430224192137 0.45432118917223663
3 11 12 139 0.455893240858666 0.7410430224192137 0.45432118917223663
3 43 12 13 0.455893240858666 0.7410430224192137 0.45432118917223663
3 139 12 43 0.455893240858666 0.7410430224192137 0.45432118917223663
3 79 83 100 0.455893240858666 0.7410430224192137 0.45432118917223663
3 24 59 112 0.455893240858666 0.7410430224192137 0.45432118917223663
3 23 24 112 0.455893240858666 0.7410430224192137 0.45432118917223663
3 112 113 23 0.455893240858666 0.7410430224192137 0.45432118917223663
3 58 152 153 0.455893240858666 0.7410430224192137 0.45432118917223663
3 153 59 58 0.455893240858666 0.7410430224192137 0.45432118917223663
3 25 152 58 0.455893240858666 0.7410430224192137 0.45432118917223663
3 24 25 58 0.455893240858666 0.7410430224192137 0.45432118917223663
3 58 59 24 0.455893240858666 0.7410430224192137 0.45432118917223663
3 154 153 121 0.455893240858666 0.7410430224192137 0.45432118917223663
3 154 59 153 0.455893240858666 0.7410430224192137 0.45432118917223663
3 121 155 154 0.455893240858666 0.7410430224192137 0.45432118917223663
3 0 2 122 0.455893240858666 0.7410430224192137 0.45432118917223663
3 2 128 122 0.455893240858666 0.7410430224192137 0.45432118917223663
3 122 128 89 0.455893240858666 0.7410430224192137 0.45432118917223663
3 122 88 0 0.455893240858666 0.7410430224192137 0.45432118917223663
3 122 89 88 0.455893240858666 0.7410430224192137 0.45432118917223663
3 90 128 124 0.455893240858666 0.7410430224192137 0.45432118917223663
3 90 119 86 0.455893240858666 0.7410430224192137 0.45432118917223663
3 86 89 90 0.455893240858666 0.7410430224192137 0.45432118917223663
3 89 128 90 0.455893240858666 0.7410430224192137 0.45432118917223663
3 90 87 119 0.455893240858666 0.7410430224192137 0.45432118917223663
3 124 91 90 0.455893240858666 0.7410430224192137 0.45432118917223663
3 91 87 90 0.455893240858666 0.7410430224192137 0.45432118917223663
3 135 69 136 0.455893240858666 0.7410430224192137 0.45432118917223663
3 137 132 136 0.455893240858666 0.7410430224192137 0.45432118917223663
3 132 126 136 0.455893240858666 0.7410430224192137 0.45432118917223663
3 67 135 136 0.455893240858666 0.7410430224192137 0.45432118917223663
3 136 126 67 0.455893240858666 0.7410430224192137 0.45432118917223663
3 134 39 133 0.455893240858666 0.7410430224192137 0.45432118917223663
3 135 39 134 0.455893240858666 0.7410430224192137 0.45432118917223663
3 116 57 115 0.455893240858666 0.7410430224192137 0.45432118917223663
3 115 156 116 0.455893240858666 0.7410430224192137 0.45432118917223663
3 102 19 103 0.455893240858666 0.7410430224192137 0.45432118917223663
3 47 18 102 0.455893240858666 0.7410430224192137 0.45432118917223663
3 18 19 102 0.455893240858666 0.7410430224192137 0.45432118917223663
3 92 7 8 0.455893240858666 0.7410430224192137 0.45432118917223663
3 92 40 7 0.455893240858666 0.7410430224192137 0.45432118917223663
3 34 92 8 0.455893240858666 0.7410430224192137 0.45432118917223663
3 20 107 50 0.455893240858666 0.7410430224192137 0.45432118917223663
3 50 49 20 0.455893240858666 0.7410430224192137 0.45432118917223663
3 104 49 50 0.455893240858666 0.7410430224192137 0.45432118917223663
3 97 43 13 0.455893240858666 0.7410430224192137 0.45432118917223663
3 13 14 97 0.455893240858666 0.7410430224192137 0.45432118917223663
3 14 76 97 0.455893240858666 0.7410430224192137 0.45432118917223663
3 16 80 97 0.455893240858666 0.7410430224192137 0.45432118917223663
3 97 76 16 0.455893240858666 0.7410430224192137 0.45432118917223663
3 77 80 17 0.455893240858666 0.7410430224192137 0.45432118917223663
3 77 97 80 0.455893240858666 0.7410430224192137 0.45432118917223663
3 43 97 77 0.455893240858666 0.7410430224192137 0.45432118917223663
3 46 18 47 0.455893240858666 0.7410430224192137 0.45432118917223663
3 17 18 46 0.455893240858666 0.7410430224192137 0.45432118917223663
3 78 46 47 0.455893240858666 0.7410430224192137 0.45432118917223663
3 82 79 99 0.455893240858666 0.7410430224192137 0.45432118917223663
3 82 78 47 0.455893240858666 0.7410430224192137 0.45432118917223663
3 99 78 82 0.455893240858666 0.7410430224192137 0.45432118917223663
3 47 102 82 0.455893240858666 0.7410430224192137 0.45432118917223663
3 82 102 103 0.455893240858666 0.7410430224192137 0.45432118917223663
3 83 79 48 0.455893240858666 0.7410430224192137 0.45432118917223663
3 103 104 48 0.455893240858666 0.7410430224192137 0.45432118917223663
3 104 83 48 0.455893240858666 0.7410430224192137 0.45432118917223663
3 48 82 103 0.455893240858666 0.7410430224192137 0.45432118917223663
3 79 82 48 0.455893240858666 0.7410430224192137 0.45432118917223663
3 45 79 100 0.455893240858666 0.7410430224192137 0.45432118917223663
3 100 141 45 0.455893240858666 0.7410430224192137 0.45432118917223663
3 45 141 36 0.455893240858666 0.7410430224192137 0.45432118917223663
3 99 79 45 0.455893240858666 0.7410430224192137 0.45432118917223663
3 60 112 59 0.455893240858666 0.7410430224192137 0.45432118917223663
3 59 154 60 0.455893240858666 0.7410430224192137 0.45432118917223663
3 113 112 60 0.455893240858666 0.7410430224192137 0.45432118917223663
3 60 154 155 0.455893240858666 0.7410430224192137 0.45432118917223663
3 60 114 113 0.455893240858666 0.7410430224192137 0.45432118917223663
3 60 155 114 0.455893240858666 0.7410430224192137 0.45432118917223663
3 6 134 133 0.455893240858666 0.7410430224192137 0.45432118917223663
3 6 133 4 0.455893240858666 0.7410430224192137 0.45432118917223663
3 137 136 70 0.455893240858666 0.7410430224192137 0.45432118917223663
3 70 71 137 0.455893240858666 0.7410430224192137 0.45432118917223663
3 70 136 69 0.455893240858666 0.7410430224192137 0.45432118917223663
3 96 71 42 0.455893240858666 0.7410430224192137 0.45432118917223663
3 71 70 42 0.455893240858666 0.7410430224192137 0.45432118917223663
3 53 22 145 0.455893240858666 0.7410430224192137 0.45432118917223663
3 145 54 53 0.455893240858666 0.7410430224192137 0.45432118917223663
3 53 52 22 0.455893240858666 0.7410430224192137 0.45432118917223663
3 57 148 147 0.455893240858666 0.7410430224192137 0.45432118917223663
3 111 54 147 0.455893240858666 0.7410430224192137 0.45432118917223663
3 147 148 111 0.455893240858666 0.7410430224192137 0.45432118917223663
3 92 34 93 0.455893240858666 0.7410430224192137 0.45432118917223663
3 40 92 93 0.455893240858666 0.7410430224192137 0.45432118917223663
3 8 9 33 0.455893240858666 0.7410430224192137 0.45432118917223663
3 33 34 8 0.455893240858666 0.7410430224192137 0.45432118917223663
3 75 93 34 0.455893240858666 0.7410430224192137 0.45432118917223663
3 52 53 109 0.455893240858666 0.7410430224192137 0.45432118917223663
3 142 83 104 0.455893240858666 0.7410430224192137 0.45432118917223663
3 104 101 142 0.455893240858666 0.7410430224192137 0.45432118917223663
3 100 83 142 0.455893240858666 0.7410430224192137 0.45432118917223663
3 142 141 100 0.455893240858666 0.7410430224192137 0.45432118917223663
3 105 101 104 0.455893240858666 0.7410430224192137 0.45432118917223663
3 139 43 98 0.455893240858666 0.7410430224192137 0.45432118917223663
3 43 77 98 0.455893240858666 0.7410430224192137 0.45432118917223663
3 99 45 140 0.455893240858666 0.7410430224192137 0.45432118917223663
3 140 11 139 0.455893240858666 0.7410430224192137 0.45432118917223663
3 140 45 36 0.455893240858666 0.7410430224192137 0.45432118917223663
3 135 134 68 0.455893240858666 0.7410430224192137 0.45432118917223663
3 134 6 68 0.455893240858666 0.7410430224192137 0.45432118917223663
3 68 69 135 0.455893240858666 0.7410430224192137 0.45432118917223663
3 68 6 7 0.455893240858666 0.7410430224192137 0.45432118917223663
3 7 40 68 0.455893240858666 0.7410430224192137 0.45432118917223663
3 68 40 69 0.455893240858666 0.7410430224192137 0.45432118917223663
3 146 54 145 0.455893240858666 0.7410430224192137 0.45432118917223663
3 146 147 54 0.455893240858666 0.7410430224192137 0.45432118917223663
3 145 56 146 0.455893240858666 0.7410430224192137 0.45432118917223663
3 56 57 146 0.455893240858666 0.7410430224192137 0.45432118917223663
3 57 147 146 0.455893240858666 0.7410430224192137 0.45432118917223663
3 150 116 156 0.455893240858666 0.7410430224192137 0.45432118917223663
3 156 157 150 0.455893240858666 0.7410430224192137 0.45432118917223663
3 138 71 96 0.455893240858666 0.7410430224192137 0.45432118917223663
3 96 157 138 0.455893240858666 0.7410430224192137 0.45432118917223663
3 137 71 138 0.455893240858666 0.7410430224192137 0.45432118917223663
3 138 132 137 0.455893240858666 0.7410430224192137 0.45432118917223663
3 138 156 132 0.455893240858666 0.7410430224192137 0.45432118917223663
3 138 157 156 0.455893240858666 0.7410430224192137 0.45432118917223663
3 40 93 41 0.455893240858666 0.7410430224192137 0.45432118917223663
3 41 42 70 0.455893240858666 0.7410430224192137 0.45432118917223663
3 69 40 41 0.455893240858666 0.7410430224192137 0.45432118917223663
3 41 70 69 0.455893240858666 0.7410430224192137 0.45432118917223663
3 111 150 144 0.455893240858666 0.7410430224192137 0.45432118917223663
3 144 157 96 0.455893240858666 0.7410430224192137 0.45432118917223663
3 144 150 157 0.455893240858666 0.7410430224192137 0.45432118917223663
3 93 75 94 0.455893240858666 0.7410430224192137 0.45432118917223663
3 42 41 94 0.455893240858666 0.7410430224192137 0.45432118917223663
3 94 41 93 0.455893240858666 0.7410430224192137 0.45432118917223663
3 101 105 106 0.455893240858666 0.7410430224192137 0.45432118917223663
3 106 105 109 0.455893240858666 0.7410430224192137 0.45432118917223663
3 111 144 106 0.455893240858666 0.7410430224192137 0.45432118917223663
3 34 33 74 0.455893240858666 0.7410430224192137 0.45432118917223663
3 74 75 34 0.455893240858666 0.7410430224192137 0.45432118917223663
3 74 142 101 0.455893240858666 0.7410430224192137 0.45432118917223663
3 51 50 107 0.455893240858666 0.7410430224192137 0.45432118917223663
3 109 105 51 0.455893240858666 0.7410430224192137 0.45432118917223663
3 104 50 51 0.455893240858666 0.7410430224192137 0.45432118917223663
3 51 105 104 0.455893240858666 0.7410430224192137 0.45432118917223663
3 139 98 44 0.455893240858666 0.7410430224192137 0.45432118917223663
3 44 98 78 0.455893240858666 0.7410430224192137 0.45432118917223663
3 44 78 99 0.455893240858666 0.7410430224192137 0.45432118917223663
3 44 140 139 0.455893240858666 0.7410430224192137 0.45432118917223663
3 99 140 44 0.455893240858666 0.7410430224192137 0.45432118917223663
3 46 78 81 0.455893240858666 0.7410430224192137 0.45432118917223663
3 78 98 81 0.455893240858666 0.7410430224192137 0.45432118917223663
3 81 98 77 0.455893240858666 0.7410430224192137 0.45432118917223663
3 81 77 17 0.455893240858666 0.7410430224192137 0.45432118917223663
3 17 46 81 0.455893240858666 0.7410430224192137 0.45432118917223663
3 10 11 35 0.455893240858666 0.7410430224192137 0.45432118917223663
3 11 140 35 0.455893240858666 0.7410430224192137 0.45432118917223663
3 35 36 10 0.455893240858666 0.7410430224192137 0.45432118917223663
3 35 140 36 0.455893240858666 0.7410430224192137 0.45432118917223663
3 116 150 149 0.455893240858666 0.7410430224192137 0.45432118917223663
3 149 148 57 0.455893240858666 0.7410430224192137 0.45432118917223663
3 57 116 149 0.455893240858666 0.7410430224192137 0.45432118917223663
3 111 148 149 0.455893240858666 0.7410430224192137 0.45432118917223663
3 149 150 111 0.455893240858666 0.7410430224192137 0.45432118917223663
3 96 42 95 0.455893240858666 0.7410430224192137 0.45432118917223663
3 42 94 95 0.455893240858666 0.7410430224192137 0.45432118917223663
3 95 144 96 0.455893240858666 0.7410430224192137 0.45432118917223663
3 75 144 95 0.455893240858666 0.7410430224192137 0.45432118917223663
3 95 94 75 0.455893240858666 0.7410430224192137 0.45432118917223663
3 143 144 75 0.455893240858666 0.7410430224192137 0.45432118917223663
3 143 106 144 0.455893240858666 0.7410430224192137 0.45432118917223663
3 101 106 143 0.455893240858666 0.7410430224192137 0.45432118917223663
3 143 74 101 0.455893240858666 0.7410430224192137 0.45432118917223663
3 75 74 143 0.455893240858666 0.7410430224192137 0.45432118917223663
3 110 106 109 0.455893240858666 0.7410430224192137 0.45432118917223663
3 110 53 54 0.455893240858666 0.7410430224192137 0.45432118917223663
3 110 109 53 0.455893240858666 0.7410430224192137 0.45432118917223663
3 110 54 111 0.455893240858666 0.7410430224192137 0.45432118917223663
3 111 106 110 0.455893240858666 0.7410430224192137 0.45432118917223663
3 73 74 33 0.455893240858666 0.7410430224192137 0.45432118917223663
3 142 74 73 0.455893240858666 0.7410430224192137 0.45432118917223663
3 9 72 73 0.455893240858666 0.7410430224192137 0.45432118917223663
3 73 33 9 0.455893240858666 0.7410430224192137 0.45432118917223663
3 141 142 73 0.455893240858666 0.7410430224192137 0.45432118917223663
3 73 72 36 0.455893240858666 0.7410430224192137 0.45432118917223663
3 36 141 73 0.455893240858666 0.7410430224192137 0.45432118917223663
3 108 51 107 0.455893240858666 0.7410430224192137 0.45432118917223663
3 109 51 108 0.455893240858666 0.7410430224192137 0.45432118917223663
3 108 107 21 0.455893240858666 0.7410430224192137 0.45432118917223663
3 108 21 52 0.455893240858666 0.7410430224192137 0.45432118917223663
3 52 109 108 0.455893240858666 0.7410430224192137 0.45432118917223663
