OFF
143 242 0


28.032 34.8578 9.0428
28.032 34.8578 9.0428
28.1181 34.9549 9.087
28.1784 35.024 9.118
28.2323 35.0866 9.1456
28.2919 35.1567 9.1761
28.3755 35.2564 9.2189
28.3755 35.2564 9.2189
28.3173 35.3525 9.2939
28.2711 35.4263 9.351
28.2302 35.4898 9.3997
28.1905 35.5502 9.4457
28.148 35.6133 9.4935
28.0976 35.6863 9.5482
28.0307 35.7804 9.6181
28.0307 35.7804 9.6181
27.9239 35.8338 9.6719
27.818 35.8891 9.7253
27.8577 35.7818 9.6559
27.8892 35.688 9.595
27.9151 35.6036 9.5399
27.9369 35.5254 9.4887
27.9556 35.451 9.4398
27.972 35.3782 9.3917
27.9866 35.3051 9.3433
27.9995 35.2299 9.2932
28.0108 35.1504 9.2401
28.0204 35.0641 9.1822
28.0278 34.9679 9.1174
28.032 34.8578 9.0428
28.2078 35.4681 9.3919
28.1858 35.447 9.3842
28.1382 35.5726 9.4714
28.1286 35.533 9.4498
28.1653 35.0706 9.1516
28.1519 35.1168 9.1849
28.1385 35.163 9.2178
28.2609 35.1853 9.2022
28.2303 35.2134 9.2277
28.2001 35.2411 9.2526
28.2423 35.4143 9.3506
28.2142 35.4026 9.3502
28.1867 35.3912 9.3497
27.9185 35.6377 9.5593
27.9471 35.5883 9.5239
27.9751 35.5395 9.4887
27.9579 35.5001 9.4689
27.9788 35.4749 9.449
27.9996 35.4496 9.429
27.9875 35.374 9.3856
28.003 35.3698 9.3795
28.0186 35.3655 9.3733
28.0109 35.2461 9.3008
28.0225 35.2625 9.3084
28.0342 35.2792 9.3161
28.0293 35.1028 9.2052
28.0381 35.142 9.2283
28.047 35.1818 9.2517
28.114 35.0103 9.1247
28.1095 35.0656 9.162
28.1047 35.1212 9.1991
28.0997 35.177 9.2361
28.2814 35.3518 9.3023
28.2463 35.3511 9.3105
28.2121 35.3505 9.3184
28.1786 35.3499 9.326
28.0397 35.7129 9.5768
28.048 35.6477 9.5366
28.0558 35.5846 9.4975
28.0631 35.5233 9.4591
27.861 35.8047 9.6684
27.9017 35.7236 9.613
27.9405 35.6452 9.5589
27.9777 35.5689 9.5056
27.8928 35.7161 9.6106
27.9267 35.6521 9.566
27.9594 35.5896 9.5219
27.9913 35.5282 9.4783
28.0402 34.9253 9.0861
28.0481 34.9931 9.1292
28.0555 35.0615 9.1722
28.0627 35.1309 9.2154
28.0402 34.9253 9.0861
28.0481 34.9931 9.1292
28.0555 35.0615 9.1722
28.0627 35.1309 9.2154
28.0696 35.2015 9.2589
28.3304 35.2706 9.2392
28.2865 35.2844 9.2588
28.2437 35.2978 9.2777
28.202 35.3108 9.296
28.1613 35.3235 9.3138
28.0958 35.6341 9.5178
28.0939 35.5834 9.4881
28.0918 35.5341 9.459
28.0896 35.486 9.4305
28.0874 35.4391 9.4025
27.9398 35.5666 9.5126
27.9642 35.5298 9.4853
27.9882 35.4933 9.458
28.0121 35.4569 9.4306
28.0357 35.4206 9.4032
27.9998 35.3111 9.3439
28.0132 35.3171 9.3446
28.0268 35.3231 9.3452
28.0405 35.3293 9.3458
28.0543 35.3355 9.3465
28.036 35.0198 9.1497
28.0441 35.0723 9.182
28.052 35.1254 9.2144
28.0598 35.1794 9.2472
28.0674 35.2344 9.2802
28.2108 35.1249 9.1757
28.1894 35.1627 9.2053
28.1681 35.2002 9.2345
28.1468 35.2375 9.2632
28.1254 35.2745 9.2917
28.104 35.3114 9.3198
28.1741 35.5193 9.4309
28.1581 35.4891 9.4164
28.1425 35.4596 9.4022
28.1271 35.4309 9.3882
28.112 35.4027 9.3745
28.0971 35.3751 9.361
27.9498 35.7581 9.6228
27.9744 35.6852 9.575
27.9978 35.6146 9.5283
28.0202 35.5459 9.4824
28.0417 35.4788 9.4372
28.0624 35.413 9.3923
27.9736 35.4365 9.4269
27.9916 35.422 9.414
28.0097 35.4073 9.401
28.0278 35.3927 9.3879
28.0459 35.3779 9.3746
28.0642 35.3631 9.3612
28.0208 35.1773 9.255
28.0308 35.2047 9.27
28.041 35.2325 9.2852
28.0512 35.2607 9.3005
28.0615 35.2893 9.3161
28.072 35.3185 9.3318
28.0825 35.3482 9.3477
3 0 2 82 0.5167875029272513 0.29958279719955416 0.7743768603954013
3 37 5 6 0.5167875029272513 0.29958279719955416 0.7743768603954013
3 58 2 3 0.5167875029272513 0.29958279719955416 0.7743768603954013
3 83 58 107 0.5167875029272513 0.29958279719955416 0.7743768603954013
3 2 58 83 0.5167875029272513 0.29958279719955416 0.7743768603954013
3 51 104 105 0.5167875029272513 0.29958279719955416 0.7743768603954013
3 105 106 51 0.5167875029272513 0.29958279719955416 0.7743768603954013
3 6 8 87 0.5167875029272513 0.29958279719955416 0.7743768603954013
3 8 88 87 0.5167875029272513 0.29958279719955416 0.7743768603954013
3 87 37 6 0.5167875029272513 0.29958279719955416 0.7743768603954013
3 38 88 39 0.5167875029272513 0.29958279719955416 0.7743768603954013
3 38 113 37 0.5167875029272513 0.29958279719955416 0.7743768603954013
3 37 87 38 0.5167875029272513 0.29958279719955416 0.7743768603954013
3 38 87 88 0.5167875029272513 0.29958279719955416 0.7743768603954013
3 62 8 9 0.5167875029272513 0.29958279719955416 0.7743768603954013
3 62 88 8 0.5167875029272513 0.29958279719955416 0.7743768603954013
3 142 117 91 0.5167875029272513 0.29958279719955416 0.7743768603954013
3 117 116 91 0.5167875029272513 0.29958279719955416 0.7743768603954013
3 90 91 116 0.5167875029272513 0.29958279719955416 0.7743768603954013
3 90 115 39 0.5167875029272513 0.29958279719955416 0.7743768603954013
3 116 115 90 0.5167875029272513 0.29958279719955416 0.7743768603954013
3 10 11 118 0.5167875029272513 0.29958279719955416 0.7743768603954013
3 32 11 12 0.5167875029272513 0.29958279719955416 0.7743768603954013
3 128 101 96 0.5167875029272513 0.29958279719955416 0.7743768603954013
3 96 101 129 0.5167875029272513 0.29958279719955416 0.7743768603954013
3 95 96 120 0.5167875029272513 0.29958279719955416 0.7743768603954013
3 128 96 95 0.5167875029272513 0.29958279719955416 0.7743768603954013
3 40 62 9 0.5167875029272513 0.29958279719955416 0.7743768603954013
3 28 82 2 0.5167875029272513 0.29958279719955416 0.7743768603954013
3 2 83 28 0.5167875029272513 0.29958279719955416 0.7743768603954013
3 28 83 107 0.5167875029272513 0.29958279719955416 0.7743768603954013
3 107 27 28 0.5167875029272513 0.29958279719955416 0.7743768603954013
3 0 82 28 0.5167875029272513 0.29958279719955416 0.7743768603954013
3 104 51 103 0.5167875029272513 0.29958279719955416 0.7743768603954013
3 103 50 102 0.5167875029272513 0.29958279719955416 0.7743768603954013
3 51 50 103 0.5167875029272513 0.29958279719955416 0.7743768603954013
3 135 106 142 0.5167875029272513 0.29958279719955416 0.7743768603954013
3 135 51 106 0.5167875029272513 0.29958279719955416 0.7743768603954013
3 5 37 112 0.5167875029272513 0.29958279719955416 0.7743768603954013
3 37 113 112 0.5167875029272513 0.29958279719955416 0.7743768603954013
3 60 109 108 0.5167875029272513 0.29958279719955416 0.7743768603954013
3 56 136 26 0.5167875029272513 0.29958279719955416 0.7743768603954013
3 26 136 25 0.5167875029272513 0.29958279719955416 0.7743768603954013
3 61 115 86 0.5167875029272513 0.29958279719955416 0.7743768603954013
3 86 110 61 0.5167875029272513 0.29958279719955416 0.7743768603954013
3 60 36 61 0.5167875029272513 0.29958279719955416 0.7743768603954013
3 36 113 114 0.5167875029272513 0.29958279719955416 0.7743768603954013
3 114 61 36 0.5167875029272513 0.29958279719955416 0.7743768603954013
3 115 61 114 0.5167875029272513 0.29958279719955416 0.7743768603954013
3 39 115 114 0.5167875029272513 0.29958279719955416 0.7743768603954013
3 114 38 39 0.5167875029272513 0.29958279719955416 0.7743768603954013
3 113 38 114 0.5167875029272513 0.29958279719955416 0.7743768603954013
3 116 139 111 0.5167875029272513 0.29958279719955416 0.7743768603954013
3 86 115 111 0.5167875029272513 0.29958279719955416 0.7743768603954013
3 111 115 116 0.5167875029272513 0.29958279719955416 0.7743768603954013
3 111 138 86 0.5167875029272513 0.29958279719955416 0.7743768603954013
3 139 138 111 0.5167875029272513 0.29958279719955416 0.7743768603954013
3 140 116 117 0.5167875029272513 0.29958279719955416 0.7743768603954013
3 140 139 116 0.5167875029272513 0.29958279719955416 0.7743768603954013
3 105 104 140 0.5167875029272513 0.29958279719955416 0.7743768603954013
3 142 91 123 0.5167875029272513 0.29958279719955416 0.7743768603954013
3 123 135 142 0.5167875029272513 0.29958279719955416 0.7743768603954013
3 88 62 89 0.5167875029272513 0.29958279719955416 0.7743768603954013
3 39 88 89 0.5167875029272513 0.29958279719955416 0.7743768603954013
3 89 90 39 0.5167875029272513 0.29958279719955416 0.7743768603954013
3 100 101 128 0.5167875029272513 0.29958279719955416 0.7743768603954013
3 51 135 134 0.5167875029272513 0.29958279719955416 0.7743768603954013
3 134 123 129 0.5167875029272513 0.29958279719955416 0.7743768603954013
3 135 123 134 0.5167875029272513 0.29958279719955416 0.7743768603954013
3 30 10 118 0.5167875029272513 0.29958279719955416 0.7743768603954013
3 9 10 30 0.5167875029272513 0.29958279719955416 0.7743768603954013
3 30 40 9 0.5167875029272513 0.29958279719955416 0.7743768603954013
3 12 13 92 0.5167875029272513 0.29958279719955416 0.7743768603954013
3 13 67 92 0.5167875029272513 0.29958279719955416 0.7743768603954013
3 119 95 120 0.5167875029272513 0.29958279719955416 0.7743768603954013
3 119 30 118 0.5167875029272513 0.29958279719955416 0.7743768603954013
3 62 40 63 0.5167875029272513 0.29958279719955416 0.7743768603954013
3 63 89 62 0.5167875029272513 0.29958279719955416 0.7743768603954013
3 64 90 63 0.5167875029272513 0.29958279719955416 0.7743768603954013
3 90 89 63 0.5167875029272513 0.29958279719955416 0.7743768603954013
3 14 16 124 0.5167875029272513 0.29958279719955416 0.7743768603954013
3 16 18 124 0.5167875029272513 0.29958279719955416 0.7743768603954013
3 23 24 49 0.5167875029272513 0.29958279719955416 0.7743768603954013
3 49 24 102 0.5167875029272513 0.29958279719955416 0.7743768603954013
3 102 50 49 0.5167875029272513 0.29958279719955416 0.7743768603954013
3 34 58 3 0.5167875029272513 0.29958279719955416 0.7743768603954013
3 59 58 34 0.5167875029272513 0.29958279719955416 0.7743768603954013
3 57 136 56 0.5167875029272513 0.29958279719955416 0.7743768603954013
3 56 110 57 0.5167875029272513 0.29958279719955416 0.7743768603954013
3 57 110 86 0.5167875029272513 0.29958279719955416 0.7743768603954013
3 80 59 60 0.5167875029272513 0.29958279719955416 0.7743768603954013
3 60 108 80 0.5167875029272513 0.29958279719955416 0.7743768603954013
3 107 58 80 0.5167875029272513 0.29958279719955416 0.7743768603954013
3 80 58 59 0.5167875029272513 0.29958279719955416 0.7743768603954013
3 80 27 107 0.5167875029272513 0.29958279719955416 0.7743768603954013
3 80 108 27 0.5167875029272513 0.29958279719955416 0.7743768603954013
3 55 109 56 0.5167875029272513 0.29958279719955416 0.7743768603954013
3 56 26 55 0.5167875029272513 0.29958279719955416 0.7743768603954013
3 55 26 27 0.5167875029272513 0.29958279719955416 0.7743768603954013
3 55 108 109 0.5167875029272513 0.29958279719955416 0.7743768603954013
3 27 108 55 0.5167875029272513 0.29958279719955416 0.7743768603954013
3 81 61 110 0.5167875029272513 0.29958279719955416 0.7743768603954013
3 56 109 81 0.5167875029272513 0.29958279719955416 0.7743768603954013
3 81 110 56 0.5167875029272513 0.29958279719955416 0.7743768603954013
3 81 109 60 0.5167875029272513 0.29958279719955416 0.7743768603954013
3 60 61 81 0.5167875029272513 0.29958279719955416 0.7743768603954013
3 25 138 52 0.5167875029272513 0.29958279719955416 0.7743768603954013
3 52 24 25 0.5167875029272513 0.29958279719955416 0.7743768603954013
3 141 106 105 0.5167875029272513 0.29958279719955416 0.7743768603954013
3 105 140 141 0.5167875029272513 0.29958279719955416 0.7743768603954013
3 141 140 117 0.5167875029272513 0.29958279719955416 0.7743768603954013
3 141 117 142 0.5167875029272513 0.29958279719955416 0.7743768603954013
3 142 106 141 0.5167875029272513 0.29958279719955416 0.7743768603954013
3 104 103 54 0.5167875029272513 0.29958279719955416 0.7743768603954013
3 54 140 104 0.5167875029272513 0.29958279719955416 0.7743768603954013
3 54 103 102 0.5167875029272513 0.29958279719955416 0.7743768603954013
3 102 24 54 0.5167875029272513 0.29958279719955416 0.7743768603954013
3 139 140 54 0.5167875029272513 0.29958279719955416 0.7743768603954013
3 64 63 41 0.5167875029272513 0.29958279719955416 0.7743768603954013
3 41 63 40 0.5167875029272513 0.29958279719955416 0.7743768603954013
3 120 96 121 0.5167875029272513 0.29958279719955416 0.7743768603954013
3 131 101 48 0.5167875029272513 0.29958279719955416 0.7743768603954013
3 101 100 48 0.5167875029272513 0.29958279719955416 0.7743768603954013
3 129 101 133 0.5167875029272513 0.29958279719955416 0.7743768603954013
3 133 134 129 0.5167875029272513 0.29958279719955416 0.7743768603954013
3 133 50 51 0.5167875029272513 0.29958279719955416 0.7743768603954013
3 51 134 133 0.5167875029272513 0.29958279719955416 0.7743768603954013
3 68 92 67 0.5167875029272513 0.29958279719955416 0.7743768603954013
3 94 95 33 0.5167875029272513 0.29958279719955416 0.7743768603954013
3 95 119 33 0.5167875029272513 0.29958279719955416 0.7743768603954013
3 33 119 118 0.5167875029272513 0.29958279719955416 0.7743768603954013
3 33 32 94 0.5167875029272513 0.29958279719955416 0.7743768603954013
3 118 11 33 0.5167875029272513 0.29958279719955416 0.7743768603954013
3 11 32 33 0.5167875029272513 0.29958279719955416 0.7743768603954013
3 70 16 17 0.5167875029272513 0.29958279719955416 0.7743768603954013
3 17 18 70 0.5167875029272513 0.29958279719955416 0.7743768603954013
3 70 18 16 0.5167875029272513 0.29958279719955416 0.7743768603954013
3 74 18 19 0.5167875029272513 0.29958279719955416 0.7743768603954013
3 20 21 97 0.5167875029272513 0.29958279719955416 0.7743768603954013
3 46 77 98 0.5167875029272513 0.29958279719955416 0.7743768603954013
3 98 21 46 0.5167875029272513 0.29958279719955416 0.7743768603954013
3 98 97 21 0.5167875029272513 0.29958279719955416 0.7743768603954013
3 71 125 124 0.5167875029272513 0.29958279719955416 0.7743768603954013
3 71 18 74 0.5167875029272513 0.29958279719955416 0.7743768603954013
3 71 124 18 0.5167875029272513 0.29958279719955416 0.7743768603954013
3 74 19 71 0.5167875029272513 0.29958279719955416 0.7743768603954013
3 71 19 125 0.5167875029272513 0.29958279719955416 0.7743768603954013
3 14 124 66 0.5167875029272513 0.29958279719955416 0.7743768603954013
3 124 125 66 0.5167875029272513 0.29958279719955416 0.7743768603954013
3 66 13 14 0.5167875029272513 0.29958279719955416 0.7743768603954013
3 66 67 13 0.5167875029272513 0.29958279719955416 0.7743768603954013
3 66 125 67 0.5167875029272513 0.29958279719955416 0.7743768603954013
3 4 34 3 0.5167875029272513 0.29958279719955416 0.7743768603954013
3 112 34 4 0.5167875029272513 0.29958279719955416 0.7743768603954013
3 5 112 4 0.5167875029272513 0.29958279719955416 0.7743768603954013
3 35 34 112 0.5167875029272513 0.29958279719955416 0.7743768603954013
3 35 112 113 0.5167875029272513 0.29958279719955416 0.7743768603954013
3 60 59 35 0.5167875029272513 0.29958279719955416 0.7743768603954013
3 59 34 35 0.5167875029272513 0.29958279719955416 0.7743768603954013
3 35 36 60 0.5167875029272513 0.29958279719955416 0.7743768603954013
3 35 113 36 0.5167875029272513 0.29958279719955416 0.7743768603954013
3 136 57 137 0.5167875029272513 0.29958279719955416 0.7743768603954013
3 25 136 137 0.5167875029272513 0.29958279719955416 0.7743768603954013
3 137 138 25 0.5167875029272513 0.29958279719955416 0.7743768603954013
3 86 138 137 0.5167875029272513 0.29958279719955416 0.7743768603954013
3 137 57 86 0.5167875029272513 0.29958279719955416 0.7743768603954013
3 24 52 53 0.5167875029272513 0.29958279719955416 0.7743768603954013
3 53 54 24 0.5167875029272513 0.29958279719955416 0.7743768603954013
3 139 54 53 0.5167875029272513 0.29958279719955416 0.7743768603954013
3 53 138 139 0.5167875029272513 0.29958279719955416 0.7743768603954013
3 53 52 138 0.5167875029272513 0.29958279719955416 0.7743768603954013
3 65 123 91 0.5167875029272513 0.29958279719955416 0.7743768603954013
3 65 90 64 0.5167875029272513 0.29958279719955416 0.7743768603954013
3 91 90 65 0.5167875029272513 0.29958279719955416 0.7743768603954013
3 40 30 31 0.5167875029272513 0.29958279719955416 0.7743768603954013
3 31 41 40 0.5167875029272513 0.29958279719955416 0.7743768603954013
3 120 121 31 0.5167875029272513 0.29958279719955416 0.7743768603954013
3 31 119 120 0.5167875029272513 0.29958279719955416 0.7743768603954013
3 30 119 31 0.5167875029272513 0.29958279719955416 0.7743768603954013
3 46 21 22 0.5167875029272513 0.29958279719955416 0.7743768603954013
3 47 48 100 0.5167875029272513 0.29958279719955416 0.7743768603954013
3 46 22 47 0.5167875029272513 0.29958279719955416 0.7743768603954013
3 132 101 131 0.5167875029272513 0.29958279719955416 0.7743768603954013
3 132 133 101 0.5167875029272513 0.29958279719955416 0.7743768603954013
3 132 131 23 0.5167875029272513 0.29958279719955416 0.7743768603954013
3 23 49 132 0.5167875029272513 0.29958279719955416 0.7743768603954013
3 132 49 50 0.5167875029272513 0.29958279719955416 0.7743768603954013
3 50 133 132 0.5167875029272513 0.29958279719955416 0.7743768603954013
3 126 68 67 0.5167875029272513 0.29958279719955416 0.7743768603954013
3 67 125 126 0.5167875029272513 0.29958279719955416 0.7743768603954013
3 94 68 69 0.5167875029272513 0.29958279719955416 0.7743768603954013
3 128 95 69 0.5167875029272513 0.29958279719955416 0.7743768603954013
3 69 95 94 0.5167875029272513 0.29958279719955416 0.7743768603954013
3 92 68 93 0.5167875029272513 0.29958279719955416 0.7743768603954013
3 93 32 12 0.5167875029272513 0.29958279719955416 0.7743768603954013
3 12 92 93 0.5167875029272513 0.29958279719955416 0.7743768603954013
3 94 32 93 0.5167875029272513 0.29958279719955416 0.7743768603954013
3 93 68 94 0.5167875029272513 0.29958279719955416 0.7743768603954013
3 125 19 75 0.5167875029272513 0.29958279719955416 0.7743768603954013
3 44 97 76 0.5167875029272513 0.29958279719955416 0.7743768603954013
3 20 97 44 0.5167875029272513 0.29958279719955416 0.7743768603954013
3 45 98 77 0.5167875029272513 0.29958279719955416 0.7743768603954013
3 97 98 45 0.5167875029272513 0.29958279719955416 0.7743768603954013
3 41 31 42 0.5167875029272513 0.29958279719955416 0.7743768603954013
3 42 31 121 0.5167875029272513 0.29958279719955416 0.7743768603954013
3 64 41 42 0.5167875029272513 0.29958279719955416 0.7743768603954013
3 42 65 64 0.5167875029272513 0.29958279719955416 0.7743768603954013
3 123 65 42 0.5167875029272513 0.29958279719955416 0.7743768603954013
3 131 48 130 0.5167875029272513 0.29958279719955416 0.7743768603954013
3 23 131 130 0.5167875029272513 0.29958279719955416 0.7743768603954013
3 130 22 23 0.5167875029272513 0.29958279719955416 0.7743768603954013
3 48 47 130 0.5167875029272513 0.29958279719955416 0.7743768603954013
3 130 47 22 0.5167875029272513 0.29958279719955416 0.7743768603954013
3 99 100 128 0.5167875029272513 0.29958279719955416 0.7743768603954013
3 99 47 100 0.5167875029272513 0.29958279719955416 0.7743768603954013
3 128 69 99 0.5167875029272513 0.29958279719955416 0.7743768603954013
3 99 77 46 0.5167875029272513 0.29958279719955416 0.7743768603954013
3 46 47 99 0.5167875029272513 0.29958279719955416 0.7743768603954013
3 72 126 125 0.5167875029272513 0.29958279719955416 0.7743768603954013
3 125 75 72 0.5167875029272513 0.29958279719955416 0.7743768603954013
3 76 126 72 0.5167875029272513 0.29958279719955416 0.7743768603954013
3 72 44 76 0.5167875029272513 0.29958279719955416 0.7743768603954013
3 20 44 72 0.5167875029272513 0.29958279719955416 0.7743768603954013
3 68 126 73 0.5167875029272513 0.29958279719955416 0.7743768603954013
3 73 126 76 0.5167875029272513 0.29958279719955416 0.7743768603954013
3 76 97 73 0.5167875029272513 0.29958279719955416 0.7743768603954013
3 97 45 73 0.5167875029272513 0.29958279719955416 0.7743768603954013
3 123 42 122 0.5167875029272513 0.29958279719955416 0.7743768603954013
3 122 42 121 0.5167875029272513 0.29958279719955416 0.7743768603954013
3 129 123 122 0.5167875029272513 0.29958279719955416 0.7743768603954013
3 122 96 129 0.5167875029272513 0.29958279719955416 0.7743768603954013
3 122 121 96 0.5167875029272513 0.29958279719955416 0.7743768603954013
3 20 72 43 0.5167875029272513 0.29958279719955416 0.7743768603954013
3 43 72 75 0.5167875029272513 0.29958279719955416 0.7743768603954013
3 43 19 20 0.5167875029272513 0.29958279719955416 0.7743768603954013
3 43 75 19 0.5167875029272513 0.29958279719955416 0.7743768603954013
3 68 73 127 0.5167875029272513 0.29958279719955416 0.7743768603954013
3 127 69 68 0.5167875029272513 0.29958279719955416 0.7743768603954013
3 127 45 77 0.5167875029272513 0.29958279719955416 0.7743768603954013
3 127 73 45 0.5167875029272513 0.29958279719955416 0.7743768603954013
3 77 99 127 0.5167875029272513 0.29958279719955416 0.7743768603954013
3 127 99 69 0.5167875029272513 0.29958279719955416 0.7743768603954013
