OFF
383 692 0


31.03 31.2542 12.0727
31.03 31.2542 12.0727
31.115 31.3035 12.1086
31.03 31.2542 12.0727
31.03 31.2542 12.0727
31.0664 31.3828 12.0946
31.0953 31.488 12.1114
31.1197 31.5792 12.1252
31.1416 31.6624 12.1372
31.162 31.7422 12.148
31.182 31.8222 12.1582
31.2025 31.9061 12.1683
31.2245 31.9985 12.1786
31.2491 32.1056 12.1895
31.2781 32.237 12.2014
31.2781 32.237 12.2014
31.3671 32.362 12.2338
31.4407 32.4597 12.2597
31.5045 32.5408 12.2816
31.5618 32.6114 12.3008
31.6149 32.675 12.3183
31.6654 32.7342 12.3348
31.7148 32.7909 12.3507
31.7641 32.8466 12.3664
31.8147 32.9026 12.3823
31.8677 32.9606 12.3989
31.9248 33.022 12.4165
31.988 33.0889 12.4359
32.0602 33.1641 12.4578
32.1454 33.2515 12.4835
32.2505 33.3575 12.5148
32.2505 33.3575 12.5148
32.2099 33.2129 12.507
32.1772 33.0961 12.5002
32.1494 32.9965 12.494
32.1246 32.9077 12.4882
32.1016 32.8252 12.4825
32.0794 32.7457 12.4768
32.0572 32.6662 12.4708
32.0343 32.5838 12.4642
32.0097 32.4952 12.4569
31.9821 32.3959 12.4482
31.9498 32.2793 12.4373
31.9097 32.1346 12.4228
31.9097 32.1346 12.4228
31.8193 32.0266 12.3906
31.7447 31.9394 12.3633
31.6797 31.8645 12.3389
31.62 31.7967 12.3162
31.5626 31.7326 12.2938
31.5047 31.6689 12.2709
31.4437 31.6028 12.2464
31.3763 31.531 12.2187
31.2979 31.4492 12.1858
31.7089 32.747 12.3497
31.7032 32.7036 12.3487
31.6974 32.6609 12.3475
31.7994 32.8461 12.3786
31.7844 32.791 12.3749
31.7696 32.7372 12.3711
31.898 32.9507 12.4096
31.8721 32.8821 12.4028
31.8469 32.8158 12.3959
32.0367 32.701 12.4632
31.9955 32.6579 12.45
31.9557 32.6164 12.4372
31.1993 31.7842 12.1634
31.2368 31.8265 12.1788
31.2746 31.8694 12.194
31.3129 31.9128 12.2092
31.6177 32.6429 12.32
31.6205 32.6109 12.3215
31.6232 32.5791 12.323
31.6259 32.5473 12.3244
32.0176 33.0733 12.4466
31.9771 32.9872 12.4356
31.9384 32.9053 12.4249
31.9014 32.8271 12.4143
32.0973 32.9232 12.4785
32.0477 32.8536 12.4636
32.0004 32.7873 12.4491
31.9551 32.7239 12.4351
32.056 32.7718 12.4683
32.0122 32.7206 12.4545
31.9701 32.6713 12.4412
31.9295 32.6239 12.4281
31.9971 32.556 12.452
31.9609 32.529 12.44
31.9257 32.5028 12.4284
31.8916 32.4773 12.4169
31.1616 31.6351 12.1436
31.2034 31.6911 12.1616
31.2452 31.7472 12.1792
31.2871 31.8038 12.1966
31.3294 31.8609 12.2139
31.2359 31.9351 12.1814
31.2697 31.9645 12.1946
31.304 31.9945 12.2078
31.3389 32.0249 12.2211
31.3744 32.0559 12.2345
31.5689 32.5853 12.3038
31.576 32.5592 12.3067
31.583 32.533 12.3095
31.5901 32.5069 12.3123
31.5972 32.4807 12.3151
32.1211 33.0105 12.484
32.068 32.9296 12.4684
32.0175 32.8531 12.4533
31.9695 32.7803 12.4388
31.9236 32.7109 12.4246
31.9507 32.3865 12.4376
31.92 32.3772 12.4272
31.89 32.3682 12.417
31.8607 32.3594 12.407
31.832 32.3508 12.3972
31.6225 31.8393 12.3182
31.6249 31.8815 12.3202
31.6273 31.9235 12.322
31.6296 31.9652 12.3237
31.6319 32.0067 12.3253
31.517 31.7215 12.2772
31.5292 31.7739 12.2833
31.5412 31.8259 12.2891
31.5531 31.8778 12.2948
31.5649 31.9296 12.3002
31.161 31.3872 12.1311
31.206 31.4693 12.1525
31.2501 31.5502 12.1729
31.2936 31.6304 12.1926
31.3368 31.7103 12.2117
31.3798 31.7902 12.2301
31.0837 31.3425 12.0989
31.1359 31.4286 12.1238
31.1869 31.5134 12.1475
31.2372 31.5972 12.1703
31.287 31.6806 12.1922
31.3365 31.764 12.2135
31.1401 31.5523 12.1317
31.1845 31.6163 12.1514
31.2287 31.6802 12.1706
31.2729 31.7442 12.1894
31.3172 31.8087 12.2078
31.3617 31.8738 12.226
31.2786 32.1196 12.2005
31.3086 32.1339 12.2117
31.3392 32.1485 12.223
31.3704 32.1633 12.2344
31.4022 32.1785 12.2461
31.4347 32.194 12.2578
31.516 32.521 12.2859
31.5275 32.5012 12.2903
31.5391 32.4812 12.2946
31.5508 32.4611 12.2989
31.5625 32.4409 12.3032
31.5743 32.4206 12.3075
32.1827 33.2367 12.4968
32.1197 33.1246 12.4796
32.0607 33.0201 12.4632
32.0054 32.9222 12.4473
31.9531 32.83 12.432
31.9036 32.7428 12.4171
32.1488 33.1121 12.49
32.0913 33.0176 12.4736
32.0372 32.9288 12.4579
31.9859 32.8448 12.4428
31.9371 32.7653 12.4281
31.8907 32.6895 12.4137
31.7363 31.9705 12.361
31.7279 32.0013 12.3586
31.7195 32.0318 12.3563
31.7113 32.062 12.3538
31.703 32.0919 12.3514
31.6948 32.1216 12.3489
31.3995 31.5949 12.23
31.4224 31.6582 12.2409
31.445 31.7211 12.2514
31.4674 31.7838 12.2615
31.4897 31.8464 12.2714
31.512 31.9091 12.2809
31.1149 31.4574 12.1173
31.1627 31.5311 12.1392
31.2098 31.6042 12.1603
31.2567 31.677 12.1808
31.3034 31.75 12.2008
31.3502 31.8234 12.2203
31.3973 31.8977 12.2395
31.4569 32.4468 12.2656
31.4732 32.4338 12.2716
31.4897 32.4206 12.2776
31.5064 32.4074 12.2836
31.5233 32.3939 12.2896
31.5403 32.3803 12.2957
31.5575 32.3666 12.3018
31.7537 32.7965 12.3641
31.7435 32.7474 12.3617
31.7333 32.6992 12.3593
31.7233 32.6519 12.3567
31.7135 32.6052 12.3541
31.7037 32.5593 12.3514
31.694 32.514 12.3486
31.9541 33.0087 12.4271
31.9215 32.932 12.4183
31.8902 32.8585 12.4096
31.8599 32.7878 12.4011
31.8307 32.7196 12.3925
31.8024 32.6537 12.3841
31.7748 32.5899 12.3756
31.8857 32.1493 12.4148
31.8621 32.1637 12.4069
31.839 32.1779 12.3991
31.8162 32.1918 12.3914
31.7938 32.2055 12.3838
31.7718 32.219 12.3763
31.7501 32.2322 12.3689
31.0837 31.3425 12.0989
31.1359 31.4286 12.1238
31.1869 31.5134 12.1475
31.2372 31.5972 12.1703
31.287 31.6806 12.1922
31.3365 31.764 12.2135
31.3862 31.8481 12.2342
31.4362 31.9331 12.2544
31.2173 31.8577 12.1725
31.2529 31.8937 12.1867
31.289 31.9302 12.2009
31.3256 31.9672 12.2151
31.3627 32.0049 12.2294
31.4005 32.0434 12.2438
31.439 32.0827 12.2582
31.4784 32.1229 12.2728
31.3885 32.357 12.2416
31.4101 32.3518 12.2494
31.4321 32.3466 12.2573
31.4544 32.3412 12.2653
31.4771 32.3358 12.2734
31.5001 32.3303 12.2816
31.5235 32.3248 12.2899
31.5473 32.3191 12.2983
31.9752 32.4762 12.4454
31.9417 32.4577 12.4342
31.909 32.4397 12.4232
31.8771 32.4221 12.4124
31.846 32.4049 12.4018
31.8156 32.3882 12.3915
31.7859 32.3719 12.3813
31.7568 32.3559 12.3714
31.57 31.7802 12.298
31.5773 31.8275 12.302
31.5845 31.8745 12.3058
31.5916 31.9213 12.3094
31.5986 31.968 12.3129
31.6056 32.0146 12.3162
31.6125 32.0612 12.3194
31.6194 32.1078 12.3224
31.3055 32.2413 12.2114
31.3334 32.2457 12.2216
31.3619 32.2502 12.2319
31.3908 32.2548 12.2424
31.4204 32.2595 12.2531
31.4506 32.2643 12.2639
31.4814 32.2691 12.2749
31.5129 32.2741 12.2861
31.5451 32.2792 12.2975
31.847 32.8971 12.3937
31.8268 32.8355 12.3884
31.8072 32.7757 12.3832
31.788 32.7175 12.3778
31.7692 32.6608 12.3725
31.7508 32.6054 12.3671
31.7328 32.5513 12.3616
31.715 32.4982 12.356
31.6976 32.4462 12.3504
32.076 32.8449 12.4734
32.0294 32.7849 12.459
31.9848 32.7275 12.4451
31.942 32.6725 12.4316
31.9008 32.6196 12.4184
31.861 32.5686 12.4055
31.8225 32.5194 12.3929
31.7853 32.4718 12.3806
31.7492 32.4257 12.3684
31.804 32.0506 12.3857
31.7888 32.0742 12.3808
31.7739 32.0975 12.376
31.7592 32.1205 12.3711
31.7446 32.1432 12.3663
31.7301 32.1657 12.3616
31.7159 32.1879 12.3568
31.7017 32.2098 12.352
31.6878 32.2315 12.3473
31.3278 31.52 12.2004
31.3573 31.59 12.2144
31.3864 31.6595 12.2279
31.4153 31.7286 12.2409
31.4439 31.7975 12.2535
31.4724 31.8665 12.2657
31.5009 31.9359 12.2776
31.5295 32.0058 12.2892
31.5583 32.0764 12.3005
31.2559 32.0205 12.1907
31.2879 32.0429 12.2028
31.3204 32.0656 12.2151
31.3535 32.0888 12.2275
31.3873 32.1125 12.24
31.4217 32.1367 12.2527
31.4569 32.1615 12.2655
31.4929 32.1868 12.2786
31.5298 32.2129 12.2918
31.5677 32.2396 12.3053
32.092 33.1477 12.4693
32.0417 33.0502 12.4557
31.9941 32.9582 12.4424
31.949 32.8712 12.4295
31.906 32.7884 12.4169
31.8648 32.7095 12.4045
31.8253 32.634 12.3923
31.7873 32.5615 12.3803
31.7505 32.4916 12.3684
31.7149 32.4242 12.3566
32.0173 32.6299 12.4578
31.9786 32.5948 12.4452
31.9411 32.5609 12.4329
31.9047 32.528 12.421
31.8694 32.4961 12.4092
31.8351 32.4651 12.3977
31.8017 32.4349 12.3865
31.7692 32.4056 12.3755
31.7374 32.377 12.3646
31.7064 32.3491 12.354
31.9217 32.2808 12.4278
31.8943 32.2823 12.4185
31.8674 32.2837 12.4093
31.841 32.2851 12.4003
31.8151 32.2864 12.3914
31.7898 32.2878 12.3827
31.7648 32.2891 12.3741
31.7403 32.2904 12.3657
31.7163 32.2916 12.3574
31.6927 32.2929 12.3492
31.4612 31.6608 12.255
31.4784 31.7183 12.2633
31.4955 31.7756 12.2713
31.5124 31.8327 12.2791
31.5292 31.8896 12.2866
31.546 31.9466 12.2939
31.5627 32.0038 12.3009
31.5794 32.0611 12.3077
31.596 32.1189 12.3144
31.6128 32.177 12.3208
31.181 31.7111 12.154
31.2205 31.76 12.1705
31.2602 31.8093 12.1869
31.3002 31.8591 12.2031
31.3407 31.9095 12.2193
31.3817 31.9608 12.2354
31.4233 32.0131 12.2514
31.4657 32.0664 12.2675
31.5091 32.1211 12.2837
31.5536 32.1774 12.3
31.5994 32.2354 12.3165
31.664 32.6962 12.3351
31.6625 32.6585 12.3354
31.661 32.6212 12.3355
31.6595 32.5842 12.3356
31.6579 32.5474 12.3356
31.6564 32.5108 12.3355
31.6548 32.4745 12.3353
31.6532 32.4384 12.335
31.6516 32.4024 12.3347
31.6499 32.3666 12.3343
31.6483 32.3309 12.3337
31.677 31.9016 12.3389
31.6743 31.9384 12.3388
31.6716 31.975 12.3386
31.6689 32.0113 12.3383
31.6662 32.0474 12.3379
31.6634 32.0832 12.3375
31.6607 32.1189 12.337
31.6579 32.1544 12.3364
31.6551 32.1898 12.3357
31.6523 32.225 12.3349
31.6494 32.2602 12.3341
31.6466 32.2953 12.3331
3 331 209 330 0.9200079420533471 0.1601930347901761 0.3343730471836647
3 0 2 214 0.9200079420533471 0.1601930347901761 0.3343730471836647
3 214 5 0 0.9200079420533471 0.1601930347901761 0.3343730471836647
3 13 143 14 0.9200079420533471 0.1601930347901761 0.3343730471836647
3 178 296 295 0.9200079420533471 0.1601930347901761 0.3343730471836647
3 103 151 104 0.9200079420533471 0.1601930347901761 0.3343730471836647
3 255 256 16 0.9200079420533471 0.1601930347901761 0.3343730471836647
3 231 186 17 0.9200079420533471 0.1601930347901761 0.3343730471836647
3 41 239 110 0.9200079420533471 0.1601930347901761 0.3343730471836647
3 22 193 23 0.9200079420533471 0.1601930347901761 0.3343730471836647
3 324 278 279 0.9200079420533471 0.1601930347901761 0.3343730471836647
3 323 278 324 0.9200079420533471 0.1601930347901761 0.3343730471836647
3 110 239 240 0.9200079420533471 0.1601930347901761 0.3343730471836647
3 279 278 317 0.9200079420533471 0.1601930347901761 0.3343730471836647
3 277 278 323 0.9200079420533471 0.1601930347901761 0.3343730471836647
3 137 7 6 0.9200079420533471 0.1601930347901761 0.3343730471836647
3 11 10 222 0.9200079420533471 0.1601930347901761 0.3343730471836647
3 66 10 9 0.9200079420533471 0.1601930347901761 0.3343730471836647
3 303 304 146 0.9200079420533471 0.1601930347901761 0.3343730471836647
3 256 255 146 0.9200079420533471 0.1601930347901761 0.3343730471836647
3 381 289 338 0.9200079420533471 0.1601930347901761 0.3343730471836647
3 338 289 337 0.9200079420533471 0.1601930347901761 0.3343730471836647
3 325 324 279 0.9200079420533471 0.1601930347901761 0.3343730471836647
3 242 324 325 0.9200079420533471 0.1601930347901761 0.3343730471836647
3 53 52 290 0.9200079420533471 0.1601930347901761 0.3343730471836647
3 52 291 290 0.9200079420533471 0.1601930347901761 0.3343730471836647
3 308 358 359 0.9200079420533471 0.1601930347901761 0.3343730471836647
3 287 379 378 0.9200079420533471 0.1601930347901761 0.3343730471836647
3 189 188 233 0.9200079420533471 0.1601930347901761 0.3343730471836647
3 190 153 189 0.9200079420533471 0.1601930347901761 0.3343730471836647
3 151 103 150 0.9200079420533471 0.1601930347901761 0.3343730471836647
3 16 256 230 0.9200079420533471 0.1601930347901761 0.3343730471836647
3 230 17 16 0.9200079420533471 0.1601930347901761 0.3343730471836647
3 230 231 17 0.9200079420533471 0.1601930347901761 0.3343730471836647
3 233 188 232 0.9200079420533471 0.1601930347901761 0.3343730471836647
3 236 235 261 0.9200079420533471 0.1601930347901761 0.3343730471836647
3 235 260 261 0.9200079420533471 0.1601930347901761 0.3343730471836647
3 113 112 242 0.9200079420533471 0.1601930347901761 0.3343730471836647
3 114 331 113 0.9200079420533471 0.1601930347901761 0.3343730471836647
3 331 330 113 0.9200079420533471 0.1601930347901761 0.3343730471836647
3 330 112 113 0.9200079420533471 0.1601930347901761 0.3343730471836647
3 210 209 331 0.9200079420533471 0.1601930347901761 0.3343730471836647
3 288 379 287 0.9200079420533471 0.1601930347901761 0.3343730471836647
3 289 379 288 0.9200079420533471 0.1601930347901761 0.3343730471836647
3 238 41 40 0.9200079420533471 0.1601930347901761 0.3343730471836647
3 239 41 238 0.9200079420533471 0.1601930347901761 0.3343730471836647
3 88 239 238 0.9200079420533471 0.1601930347901761 0.3343730471836647
3 42 41 110 0.9200079420533471 0.1601930347901761 0.3343730471836647
3 42 207 43 0.9200079420533471 0.1601930347901761 0.3343730471836647
3 208 330 209 0.9200079420533471 0.1601930347901761 0.3343730471836647
3 209 283 208 0.9200079420533471 0.1601930347901761 0.3343730471836647
3 82 83 37 0.9200079420533471 0.1601930347901761 0.3343730471836647
3 82 37 36 0.9200079420533471 0.1601930347901761 0.3343730471836647
3 155 32 30 0.9200079420533471 0.1601930347901761 0.3343730471836647
3 310 162 156 0.9200079420533471 0.1601930347901761 0.3343730471836647
3 32 155 156 0.9200079420533471 0.1601930347901761 0.3343730471836647
3 74 28 27 0.9200079420533471 0.1601930347901761 0.3343730471836647
3 267 268 205 0.9200079420533471 0.1601930347901761 0.3343730471836647
3 360 361 56 0.9200079420533471 0.1601930347901761 0.3343730471836647
3 20 361 360 0.9200079420533471 0.1601930347901761 0.3343730471836647
3 274 83 80 0.9200079420533471 0.1601930347901761 0.3343730471836647
3 203 313 77 0.9200079420533471 0.1601930347901761 0.3343730471836647
3 160 313 203 0.9200079420533471 0.1601930347901761 0.3343730471836647
3 160 166 109 0.9200079420533471 0.1601930347901761 0.3343730471836647
3 160 165 313 0.9200079420533471 0.1601930347901761 0.3343730471836647
3 109 81 160 0.9200079420533471 0.1601930347901761 0.3343730471836647
3 81 165 160 0.9200079420533471 0.1601930347901761 0.3343730471836647
3 59 265 58 0.9200079420533471 0.1601930347901761 0.3343730471836647
3 58 23 193 0.9200079420533471 0.1601930347901761 0.3343730471836647
3 109 166 275 0.9200079420533471 0.1601930347901761 0.3343730471836647
3 275 81 109 0.9200079420533471 0.1601930347901761 0.3343730471836647
3 276 166 315 0.9200079420533471 0.1601930347901761 0.3343730471836647
3 315 277 276 0.9200079420533471 0.1601930347901761 0.3343730471836647
3 85 275 276 0.9200079420533471 0.1601930347901761 0.3343730471836647
3 276 275 166 0.9200079420533471 0.1601930347901761 0.3343730471836647
3 203 265 204 0.9200079420533471 0.1601930347901761 0.3343730471836647
3 85 276 321 0.9200079420533471 0.1601930347901761 0.3343730471836647
3 321 276 277 0.9200079420533471 0.1601930347901761 0.3343730471836647
3 242 112 241 0.9200079420533471 0.1601930347901761 0.3343730471836647
3 241 324 242 0.9200079420533471 0.1601930347901761 0.3343730471836647
3 110 240 111 0.9200079420533471 0.1601930347901761 0.3343730471836647
3 111 42 110 0.9200079420533471 0.1601930347901761 0.3343730471836647
3 111 241 112 0.9200079420533471 0.1601930347901761 0.3343730471836647
3 240 241 111 0.9200079420533471 0.1601930347901761 0.3343730471836647
3 198 364 199 0.9200079420533471 0.1601930347901761 0.3343730471836647
3 322 277 323 0.9200079420533471 0.1601930347901761 0.3343730471836647
3 322 321 277 0.9200079420533471 0.1601930347901761 0.3343730471836647
3 180 137 6 0.9200079420533471 0.1601930347901761 0.3343730471836647
3 7 137 138 0.9200079420533471 0.1601930347901761 0.3343730471836647
3 5 214 125 0.9200079420533471 0.1601930347901761 0.3343730471836647
3 125 214 2 0.9200079420533471 0.1601930347901761 0.3343730471836647
3 2 53 125 0.9200079420533471 0.1601930347901761 0.3343730471836647
3 53 126 125 0.9200079420533471 0.1601930347901761 0.3343730471836647
3 67 222 10 0.9200079420533471 0.1601930347901761 0.3343730471836647
3 67 66 351 0.9200079420533471 0.1601930347901761 0.3343730471836647
3 10 66 67 0.9200079420533471 0.1601930347901761 0.3343730471836647
3 350 92 351 0.9200079420533471 0.1601930347901761 0.3343730471836647
3 351 66 350 0.9200079420533471 0.1601930347901761 0.3343730471836647
3 350 66 9 0.9200079420533471 0.1601930347901761 0.3343730471836647
3 256 146 147 0.9200079420533471 0.1601930347901761 0.3343730471836647
3 147 146 304 0.9200079420533471 0.1601930347901761 0.3343730471836647
3 147 305 148 0.9200079420533471 0.1601930347901761 0.3343730471836647
3 304 305 147 0.9200079420533471 0.1601930347901761 0.3343730471836647
3 145 146 255 0.9200079420533471 0.1601930347901761 0.3343730471836647
3 303 146 145 0.9200079420533471 0.1601930347901761 0.3343730471836647
3 145 302 303 0.9200079420533471 0.1601930347901761 0.3343730471836647
3 328 338 337 0.9200079420533471 0.1601930347901761 0.3343730471836647
3 328 245 327 0.9200079420533471 0.1601930347901761 0.3343730471836647
3 327 318 328 0.9200079420533471 0.1601930347901761 0.3343730471836647
3 173 52 51 0.9200079420533471 0.1601930347901761 0.3343730471836647
3 173 291 52 0.9200079420533471 0.1601930347901761 0.3343730471836647
3 128 291 292 0.9200079420533471 0.1601930347901761 0.3343730471836647
3 291 173 292 0.9200079420533471 0.1601930347901761 0.3343730471836647
3 9 8 349 0.9200079420533471 0.1601930347901761 0.3343730471836647
3 349 350 9 0.9200079420533471 0.1601930347901761 0.3343730471836647
3 92 139 182 0.9200079420533471 0.1601930347901761 0.3343730471836647
3 182 217 128 0.9200079420533471 0.1601930347901761 0.3343730471836647
3 139 217 182 0.9200079420533471 0.1601930347901761 0.3343730471836647
3 281 45 43 0.9200079420533471 0.1601930347901761 0.3343730471836647
3 43 207 281 0.9200079420533471 0.1601930347901761 0.3343730471836647
3 167 46 45 0.9200079420533471 0.1601930347901761 0.3343730471836647
3 172 378 377 0.9200079420533471 0.1601930347901761 0.3343730471836647
3 287 378 172 0.9200079420533471 0.1601930347901761 0.3343730471836647
3 344 296 178 0.9200079420533471 0.1601930347901761 0.3343730471836647
3 381 359 380 0.9200079420533471 0.1601930347901761 0.3343730471836647
3 380 289 381 0.9200079420533471 0.1601930347901761 0.3343730471836647
3 380 379 289 0.9200079420533471 0.1601930347901761 0.3343730471836647
3 348 378 379 0.9200079420533471 0.1601930347901761 0.3343730471836647
3 348 359 358 0.9200079420533471 0.1601930347901761 0.3343730471836647
3 379 380 348 0.9200079420533471 0.1601930347901761 0.3343730471836647
3 348 380 359 0.9200079420533471 0.1601930347901761 0.3343730471836647
3 48 246 49 0.9200079420533471 0.1601930347901761 0.3343730471836647
3 49 246 121 0.9200079420533471 0.1601930347901761 0.3343730471836647
3 295 294 177 0.9200079420533471 0.1601930347901761 0.3343730471836647
3 136 293 130 0.9200079420533471 0.1601930347901761 0.3343730471836647
3 293 294 130 0.9200079420533471 0.1601930347901761 0.3343730471836647
3 104 151 152 0.9200079420533471 0.1601930347901761 0.3343730471836647
3 152 153 104 0.9200079420533471 0.1601930347901761 0.3343730471836647
3 152 189 153 0.9200079420533471 0.1601930347901761 0.3343730471836647
3 151 188 152 0.9200079420533471 0.1601930347901761 0.3343730471836647
3 188 189 152 0.9200079420533471 0.1601930347901761 0.3343730471836647
3 104 153 154 0.9200079420533471 0.1601930347901761 0.3343730471836647
3 154 153 190 0.9200079420533471 0.1601930347901761 0.3343730471836647
3 234 235 190 0.9200079420533471 0.1601930347901761 0.3343730471836647
3 190 189 234 0.9200079420533471 0.1601930347901761 0.3343730471836647
3 234 189 233 0.9200079420533471 0.1601930347901761 0.3343730471836647
3 234 260 235 0.9200079420533471 0.1601930347901761 0.3343730471836647
3 18 17 149 0.9200079420533471 0.1601930347901761 0.3343730471836647
3 17 186 149 0.9200079420533471 0.1601930347901761 0.3343730471836647
3 186 150 149 0.9200079420533471 0.1601930347901761 0.3343730471836647
3 257 230 256 0.9200079420533471 0.1601930347901761 0.3343730471836647
3 231 230 257 0.9200079420533471 0.1601930347901761 0.3343730471836647
3 257 147 148 0.9200079420533471 0.1601930347901761 0.3343730471836647
3 256 147 257 0.9200079420533471 0.1601930347901761 0.3343730471836647
3 186 231 187 0.9200079420533471 0.1601930347901761 0.3343730471836647
3 231 232 187 0.9200079420533471 0.1601930347901761 0.3343730471836647
3 187 232 188 0.9200079420533471 0.1601930347901761 0.3343730471836647
3 187 188 151 0.9200079420533471 0.1601930347901761 0.3343730471836647
3 151 150 187 0.9200079420533471 0.1601930347901761 0.3343730471836647
3 187 150 186 0.9200079420533471 0.1601930347901761 0.3343730471836647
3 262 237 236 0.9200079420533471 0.1601930347901761 0.3343730471836647
3 236 261 262 0.9200079420533471 0.1601930347901761 0.3343730471836647
3 308 359 262 0.9200079420533471 0.1601930347901761 0.3343730471836647
3 229 305 304 0.9200079420533471 0.1601930347901761 0.3343730471836647
3 356 357 229 0.9200079420533471 0.1601930347901761 0.3343730471836647
3 148 305 306 0.9200079420533471 0.1601930347901761 0.3343730471836647
3 357 358 306 0.9200079420533471 0.1601930347901761 0.3343730471836647
3 306 229 357 0.9200079420533471 0.1601930347901761 0.3343730471836647
3 305 229 306 0.9200079420533471 0.1601930347901761 0.3343730471836647
3 333 334 212 0.9200079420533471 0.1601930347901761 0.3343730471836647
3 114 334 333 0.9200079420533471 0.1601930347901761 0.3343730471836647
3 212 334 213 0.9200079420533471 0.1601930347901761 0.3343730471836647
3 337 289 213 0.9200079420533471 0.1601930347901761 0.3343730471836647
3 289 288 213 0.9200079420533471 0.1601930347901761 0.3343730471836647
3 287 212 213 0.9200079420533471 0.1601930347901761 0.3343730471836647
3 213 288 287 0.9200079420533471 0.1601930347901761 0.3343730471836647
3 335 334 245 0.9200079420533471 0.1601930347901761 0.3343730471836647
3 335 213 334 0.9200079420533471 0.1601930347901761 0.3343730471836647
3 63 64 38 0.9200079420533471 0.1601930347901761 0.3343730471836647
3 83 64 63 0.9200079420533471 0.1601930347901761 0.3343730471836647
3 38 37 63 0.9200079420533471 0.1601930347901761 0.3343730471836647
3 37 83 63 0.9200079420533471 0.1601930347901761 0.3343730471836647
3 319 39 38 0.9200079420533471 0.1601930347901761 0.3343730471836647
3 38 64 319 0.9200079420533471 0.1601930347901761 0.3343730471836647
3 80 83 273 0.9200079420533471 0.1601930347901761 0.3343730471836647
3 83 82 273 0.9200079420533471 0.1601930347901761 0.3343730471836647
3 273 107 80 0.9200079420533471 0.1601930347901761 0.3343730471836647
3 273 79 107 0.9200079420533471 0.1601930347901761 0.3343730471836647
3 272 82 36 0.9200079420533471 0.1601930347901761 0.3343730471836647
3 36 35 272 0.9200079420533471 0.1601930347901761 0.3343730471836647
3 272 273 82 0.9200079420533471 0.1601930347901761 0.3343730471836647
3 79 273 272 0.9200079420533471 0.1601930347901761 0.3343730471836647
3 105 34 33 0.9200079420533471 0.1601930347901761 0.3343730471836647
3 107 79 163 0.9200079420533471 0.1601930347901761 0.3343730471836647
3 202 77 312 0.9200079420533471 0.1601930347901761 0.3343730471836647
3 29 155 30 0.9200079420533471 0.1601930347901761 0.3343730471836647
3 28 74 309 0.9200079420533471 0.1601930347901761 0.3343730471836647
3 309 29 28 0.9200079420533471 0.1601930347901761 0.3343730471836647
3 310 156 309 0.9200079420533471 0.1601930347901761 0.3343730471836647
3 309 74 310 0.9200079420533471 0.1601930347901761 0.3343730471836647
3 309 156 155 0.9200079420533471 0.1601930347901761 0.3343730471836647
3 155 29 309 0.9200079420533471 0.1601930347901761 0.3343730471836647
3 316 317 278 0.9200079420533471 0.1601930347901761 0.3343730471836647
3 278 277 316 0.9200079420533471 0.1601930347901761 0.3343730471836647
3 316 277 315 0.9200079420533471 0.1601930347901761 0.3343730471836647
3 196 195 56 0.9200079420533471 0.1601930347901761 0.3343730471836647
3 267 195 196 0.9200079420533471 0.1601930347901761 0.3343730471836647
3 196 268 267 0.9200079420533471 0.1601930347901761 0.3343730471836647
3 56 197 196 0.9200079420533471 0.1601930347901761 0.3343730471836647
3 197 268 196 0.9200079420533471 0.1601930347901761 0.3343730471836647
3 194 195 59 0.9200079420533471 0.1601930347901761 0.3343730471836647
3 54 195 194 0.9200079420533471 0.1601930347901761 0.3343730471836647
3 59 58 194 0.9200079420533471 0.1601930347901761 0.3343730471836647
3 194 58 193 0.9200079420533471 0.1601930347901761 0.3343730471836647
3 194 193 22 0.9200079420533471 0.1601930347901761 0.3343730471836647
3 22 54 194 0.9200079420533471 0.1601930347901761 0.3343730471836647
3 55 195 54 0.9200079420533471 0.1601930347901761 0.3343730471836647
3 56 195 55 0.9200079420533471 0.1601930347901761 0.3343730471836647
3 55 360 56 0.9200079420533471 0.1601930347901761 0.3343730471836647
3 21 54 22 0.9200079420533471 0.1601930347901761 0.3343730471836647
3 20 360 21 0.9200079420533471 0.1601930347901761 0.3343730471836647
3 21 55 54 0.9200079420533471 0.1601930347901761 0.3343730471836647
3 360 55 21 0.9200079420533471 0.1601930347901761 0.3343730471836647
3 80 107 164 0.9200079420533471 0.1601930347901761 0.3343730471836647
3 264 58 265 0.9200079420533471 0.1601930347901761 0.3343730471836647
3 84 64 83 0.9200079420533471 0.1601930347901761 0.3343730471836647
3 83 274 84 0.9200079420533471 0.1601930347901761 0.3343730471836647
3 84 274 81 0.9200079420533471 0.1601930347901761 0.3343730471836647
3 81 275 84 0.9200079420533471 0.1601930347901761 0.3343730471836647
3 266 265 59 0.9200079420533471 0.1601930347901761 0.3343730471836647
3 266 204 265 0.9200079420533471 0.1601930347901761 0.3343730471836647
3 59 195 266 0.9200079420533471 0.1601930347901761 0.3343730471836647
3 266 195 267 0.9200079420533471 0.1601930347901761 0.3343730471836647
3 267 205 266 0.9200079420533471 0.1601930347901761 0.3343730471836647
3 205 204 266 0.9200079420533471 0.1601930347901761 0.3343730471836647
3 314 160 203 0.9200079420533471 0.1601930347901761 0.3343730471836647
3 203 204 314 0.9200079420533471 0.1601930347901761 0.3343730471836647
3 166 160 314 0.9200079420533471 0.1601930347901761 0.3343730471836647
3 315 166 314 0.9200079420533471 0.1601930347901761 0.3343730471836647
3 314 205 315 0.9200079420533471 0.1601930347901761 0.3343730471836647
3 314 204 205 0.9200079420533471 0.1601930347901761 0.3343730471836647
3 87 238 40 0.9200079420533471 0.1601930347901761 0.3343730471836647
3 88 238 87 0.9200079420533471 0.1601930347901761 0.3343730471836647
3 87 322 88 0.9200079420533471 0.1601930347901761 0.3343730471836647
3 321 322 87 0.9200079420533471 0.1601930347901761 0.3343730471836647
3 89 241 240 0.9200079420533471 0.1601930347901761 0.3343730471836647
3 323 324 89 0.9200079420533471 0.1601930347901761 0.3343730471836647
3 324 241 89 0.9200079420533471 0.1601930347901761 0.3343730471836647
3 88 322 89 0.9200079420533471 0.1601930347901761 0.3343730471836647
3 89 322 323 0.9200079420533471 0.1601930347901761 0.3343730471836647
3 89 239 88 0.9200079420533471 0.1601930347901761 0.3343730471836647
3 89 240 239 0.9200079420533471 0.1601930347901761 0.3343730471836647
3 42 111 329 0.9200079420533471 0.1601930347901761 0.3343730471836647
3 207 42 329 0.9200079420533471 0.1601930347901761 0.3343730471836647
3 329 112 330 0.9200079420533471 0.1601930347901761 0.3343730471836647
3 329 111 112 0.9200079420533471 0.1601930347901761 0.3343730471836647
3 330 208 329 0.9200079420533471 0.1601930347901761 0.3343730471836647
3 329 208 207 0.9200079420533471 0.1601930347901761 0.3343730471836647
3 366 199 365 0.9200079420533471 0.1601930347901761 0.3343730471836647
3 365 199 364 0.9200079420533471 0.1601930347901761 0.3343730471836647
3 364 73 365 0.9200079420533471 0.1601930347901761 0.3343730471836647
3 365 73 103 0.9200079420533471 0.1601930347901761 0.3343730471836647
3 365 103 104 0.9200079420533471 0.1601930347901761 0.3343730471836647
3 104 366 365 0.9200079420533471 0.1601930347901761 0.3343730471836647
3 270 199 366 0.9200079420533471 0.1601930347901761 0.3343730471836647
3 90 8 7 0.9200079420533471 0.1601930347901761 0.3343730471836647
3 7 138 90 0.9200079420533471 0.1601930347901761 0.3343730471836647
3 137 180 181 0.9200079420533471 0.1601930347901761 0.3343730471836647
3 181 138 137 0.9200079420533471 0.1601930347901761 0.3343730471836647
3 181 180 133 0.9200079420533471 0.1601930347901761 0.3343730471836647
3 139 138 181 0.9200079420533471 0.1601930347901761 0.3343730471836647
3 181 217 139 0.9200079420533471 0.1601930347901761 0.3343730471836647
3 5 125 132 0.9200079420533471 0.1601930347901761 0.3343730471836647
3 132 125 126 0.9200079420533471 0.1601930347901761 0.3343730471836647
3 254 145 255 0.9200079420533471 0.1601930347901761 0.3343730471836647
3 254 16 14 0.9200079420533471 0.1601930347901761 0.3343730471836647
3 254 255 16 0.9200079420533471 0.1601930347901761 0.3343730471836647
3 14 143 144 0.9200079420533471 0.1601930347901761 0.3343730471836647
3 144 254 14 0.9200079420533471 0.1601930347901761 0.3343730471836647
3 145 254 144 0.9200079420533471 0.1601930347901761 0.3343730471836647
3 302 145 144 0.9200079420533471 0.1601930347901761 0.3343730471836647
3 280 318 327 0.9200079420533471 0.1601930347901761 0.3343730471836647
3 327 326 280 0.9200079420533471 0.1601930347901761 0.3343730471836647
3 279 317 280 0.9200079420533471 0.1601930347901761 0.3343730471836647
3 280 325 279 0.9200079420533471 0.1601930347901761 0.3343730471836647
3 280 326 325 0.9200079420533471 0.1601930347901761 0.3343730471836647
3 244 334 114 0.9200079420533471 0.1601930347901761 0.3343730471836647
3 245 334 244 0.9200079420533471 0.1601930347901761 0.3343730471836647
3 327 245 244 0.9200079420533471 0.1601930347901761 0.3343730471836647
3 244 326 327 0.9200079420533471 0.1601930347901761 0.3343730471836647
3 128 292 129 0.9200079420533471 0.1601930347901761 0.3343730471836647
3 136 183 129 0.9200079420533471 0.1601930347901761 0.3343730471836647
3 129 293 136 0.9200079420533471 0.1601930347901761 0.3343730471836647
3 129 292 293 0.9200079420533471 0.1601930347901761 0.3343730471836647
3 92 182 140 0.9200079420533471 0.1601930347901761 0.3343730471836647
3 183 93 140 0.9200079420533471 0.1601930347901761 0.3343730471836647
3 351 92 140 0.9200079420533471 0.1601930347901761 0.3343730471836647
3 140 93 351 0.9200079420533471 0.1601930347901761 0.3343730471836647
3 372 371 46 0.9200079420533471 0.1601930347901761 0.3343730471836647
3 372 167 373 0.9200079420533471 0.1601930347901761 0.3343730471836647
3 46 167 372 0.9200079420533471 0.1601930347901761 0.3343730471836647
3 169 281 282 0.9200079420533471 0.1601930347901761 0.3343730471836647
3 282 208 283 0.9200079420533471 0.1601930347901761 0.3343730471836647
3 207 208 282 0.9200079420533471 0.1601930347901761 0.3343730471836647
3 282 281 207 0.9200079420533471 0.1601930347901761 0.3343730471836647
3 373 167 168 0.9200079420533471 0.1601930347901761 0.3343730471836647
3 168 281 169 0.9200079420533471 0.1601930347901761 0.3343730471836647
3 45 281 168 0.9200079420533471 0.1601930347901761 0.3343730471836647
3 168 167 45 0.9200079420533471 0.1601930347901761 0.3343730471836647
3 285 172 284 0.9200079420533471 0.1601930347901761 0.3343730471836647
3 284 210 285 0.9200079420533471 0.1601930347901761 0.3343730471836647
3 284 283 209 0.9200079420533471 0.1601930347901761 0.3343730471836647
3 209 210 284 0.9200079420533471 0.1601930347901761 0.3343730471836647
3 170 282 283 0.9200079420533471 0.1601930347901761 0.3343730471836647
3 169 282 170 0.9200079420533471 0.1601930347901761 0.3343730471836647
3 287 172 286 0.9200079420533471 0.1601930347901761 0.3343730471836647
3 286 172 285 0.9200079420533471 0.1601930347901761 0.3343730471836647
3 286 212 287 0.9200079420533471 0.1601930347901761 0.3343730471836647
3 124 344 178 0.9200079420533471 0.1601930347901761 0.3343730471836647
3 296 344 297 0.9200079420533471 0.1601930347901761 0.3343730471836647
3 169 170 375 0.9200079420533471 0.1601930347901761 0.3343730471836647
3 250 124 249 0.9200079420533471 0.1601930347901761 0.3343730471836647
3 344 124 250 0.9200079420533471 0.1601930347901761 0.3343730471836647
3 347 348 358 0.9200079420533471 0.1601930347901761 0.3343730471836647
3 347 358 357 0.9200079420533471 0.1601930347901761 0.3343730471836647
3 221 295 296 0.9200079420533471 0.1601930347901761 0.3343730471836647
3 303 302 99 0.9200079420533471 0.1601930347901761 0.3343730471836647
3 46 371 47 0.9200079420533471 0.1601930347901761 0.3343730471836647
3 115 48 47 0.9200079420533471 0.1601930347901761 0.3343730471836647
3 47 116 115 0.9200079420533471 0.1601930347901761 0.3343730471836647
3 371 116 47 0.9200079420533471 0.1601930347901761 0.3343730471836647
3 49 121 120 0.9200079420533471 0.1601930347901761 0.3343730471836647
3 120 50 49 0.9200079420533471 0.1601930347901761 0.3343730471836647
3 340 50 120 0.9200079420533471 0.1601930347901761 0.3343730471836647
3 341 340 120 0.9200079420533471 0.1601930347901761 0.3343730471836647
3 120 121 341 0.9200079420533471 0.1601930347901761 0.3343730471836647
3 115 116 248 0.9200079420533471 0.1601930347901761 0.3343730471836647
3 248 116 249 0.9200079420533471 0.1601930347901761 0.3343730471836647
3 122 121 246 0.9200079420533471 0.1601930347901761 0.3343730471836647
3 176 177 294 0.9200079420533471 0.1601930347901761 0.3343730471836647
3 176 340 341 0.9200079420533471 0.1601930347901761 0.3343730471836647
3 176 175 340 0.9200079420533471 0.1601930347901761 0.3343730471836647
3 176 294 293 0.9200079420533471 0.1601930347901761 0.3343730471836647
3 293 175 176 0.9200079420533471 0.1601930347901761 0.3343730471836647
3 293 292 174 0.9200079420533471 0.1601930347901761 0.3343730471836647
3 174 175 293 0.9200079420533471 0.1601930347901761 0.3343730471836647
3 174 173 51 0.9200079420533471 0.1601930347901761 0.3343730471836647
3 174 292 173 0.9200079420533471 0.1601930347901761 0.3343730471836647
3 191 154 190 0.9200079420533471 0.1601930347901761 0.3343730471836647
3 190 235 191 0.9200079420533471 0.1601930347901761 0.3343730471836647
3 191 235 236 0.9200079420533471 0.1601930347901761 0.3343730471836647
3 18 149 101 0.9200079420533471 0.1601930347901761 0.3343730471836647
3 18 101 100 0.9200079420533471 0.1601930347901761 0.3343730471836647
3 258 232 231 0.9200079420533471 0.1601930347901761 0.3343730471836647
3 231 257 258 0.9200079420533471 0.1601930347901761 0.3343730471836647
3 258 257 148 0.9200079420533471 0.1601930347901761 0.3343730471836647
3 307 261 260 0.9200079420533471 0.1601930347901761 0.3343730471836647
3 260 306 307 0.9200079420533471 0.1601930347901761 0.3343730471836647
3 308 262 307 0.9200079420533471 0.1601930347901761 0.3343730471836647
3 307 262 261 0.9200079420533471 0.1601930347901761 0.3343730471836647
3 307 358 308 0.9200079420533471 0.1601930347901761 0.3343730471836647
3 307 306 358 0.9200079420533471 0.1601930347901761 0.3343730471836647
3 211 333 212 0.9200079420533471 0.1601930347901761 0.3343730471836647
3 285 210 211 0.9200079420533471 0.1601930347901761 0.3343730471836647
3 212 286 211 0.9200079420533471 0.1601930347901761 0.3343730471836647
3 211 286 285 0.9200079420533471 0.1601930347901761 0.3343730471836647
3 332 210 331 0.9200079420533471 0.1601930347901761 0.3343730471836647
3 332 331 114 0.9200079420533471 0.1601930347901761 0.3343730471836647
3 114 333 332 0.9200079420533471 0.1601930347901761 0.3343730471836647
3 332 211 210 0.9200079420533471 0.1601930347901761 0.3343730471836647
3 333 211 332 0.9200079420533471 0.1601930347901761 0.3343730471836647
3 336 335 245 0.9200079420533471 0.1601930347901761 0.3343730471836647
3 336 328 337 0.9200079420533471 0.1601930347901761 0.3343730471836647
3 245 328 336 0.9200079420533471 0.1601930347901761 0.3343730471836647
3 337 213 336 0.9200079420533471 0.1601930347901761 0.3343730471836647
3 213 335 336 0.9200079420533471 0.1601930347901761 0.3343730471836647
3 65 319 64 0.9200079420533471 0.1601930347901761 0.3343730471836647
3 64 84 65 0.9200079420533471 0.1601930347901761 0.3343730471836647
3 85 321 65 0.9200079420533471 0.1601930347901761 0.3343730471836647
3 65 275 85 0.9200079420533471 0.1601930347901761 0.3343730471836647
3 65 84 275 0.9200079420533471 0.1601930347901761 0.3343730471836647
3 161 156 162 0.9200079420533471 0.1601930347901761 0.3343730471836647
3 162 105 161 0.9200079420533471 0.1601930347901761 0.3343730471836647
3 161 105 33 0.9200079420533471 0.1601930347901761 0.3343730471836647
3 33 32 161 0.9200079420533471 0.1601930347901761 0.3343730471836647
3 32 156 161 0.9200079420533471 0.1601930347901761 0.3343730471836647
3 106 163 79 0.9200079420533471 0.1601930347901761 0.3343730471836647
3 79 272 106 0.9200079420533471 0.1601930347901761 0.3343730471836647
3 157 162 310 0.9200079420533471 0.1601930347901761 0.3343730471836647
3 157 106 162 0.9200079420533471 0.1601930347901761 0.3343730471836647
3 163 106 157 0.9200079420533471 0.1601930347901761 0.3343730471836647
3 310 74 75 0.9200079420533471 0.1601930347901761 0.3343730471836647
3 75 157 310 0.9200079420533471 0.1601930347901761 0.3343730471836647
3 202 312 76 0.9200079420533471 0.1601930347901761 0.3343730471836647
3 202 76 61 0.9200079420533471 0.1601930347901761 0.3343730471836647
3 61 76 201 0.9200079420533471 0.1601930347901761 0.3343730471836647
3 61 264 202 0.9200079420533471 0.1601930347901761 0.3343730471836647
3 317 316 269 0.9200079420533471 0.1601930347901761 0.3343730471836647
3 269 270 317 0.9200079420533471 0.1601930347901761 0.3343730471836647
3 198 199 269 0.9200079420533471 0.1601930347901761 0.3343730471836647
3 199 270 269 0.9200079420533471 0.1601930347901761 0.3343730471836647
3 269 197 198 0.9200079420533471 0.1601930347901761 0.3343730471836647
3 269 268 197 0.9200079420533471 0.1601930347901761 0.3343730471836647
3 206 316 315 0.9200079420533471 0.1601930347901761 0.3343730471836647
3 315 205 206 0.9200079420533471 0.1601930347901761 0.3343730471836647
3 206 205 268 0.9200079420533471 0.1601930347901761 0.3343730471836647
3 268 269 206 0.9200079420533471 0.1601930347901761 0.3343730471836647
3 206 269 316 0.9200079420533471 0.1601930347901761 0.3343730471836647
3 108 274 80 0.9200079420533471 0.1601930347901761 0.3343730471836647
3 81 274 108 0.9200079420533471 0.1601930347901761 0.3343730471836647
3 108 165 81 0.9200079420533471 0.1601930347901761 0.3343730471836647
3 159 312 77 0.9200079420533471 0.1601930347901761 0.3343730471836647
3 159 164 312 0.9200079420533471 0.1601930347901761 0.3343730471836647
3 159 77 313 0.9200079420533471 0.1601930347901761 0.3343730471836647
3 80 164 159 0.9200079420533471 0.1601930347901761 0.3343730471836647
3 159 108 80 0.9200079420533471 0.1601930347901761 0.3343730471836647
3 313 165 159 0.9200079420533471 0.1601930347901761 0.3343730471836647
3 165 108 159 0.9200079420533471 0.1601930347901761 0.3343730471836647
3 62 265 203 0.9200079420533471 0.1601930347901761 0.3343730471836647
3 62 264 265 0.9200079420533471 0.1601930347901761 0.3343730471836647
3 203 77 62 0.9200079420533471 0.1601930347901761 0.3343730471836647
3 62 77 202 0.9200079420533471 0.1601930347901761 0.3343730471836647
3 202 264 62 0.9200079420533471 0.1601930347901761 0.3343730471836647
3 91 139 92 0.9200079420533471 0.1601930347901761 0.3343730471836647
3 91 138 139 0.9200079420533471 0.1601930347901761 0.3343730471836647
3 91 90 138 0.9200079420533471 0.1601930347901761 0.3343730471836647
3 91 349 8 0.9200079420533471 0.1601930347901761 0.3343730471836647
3 8 90 91 0.9200079420533471 0.1601930347901761 0.3343730471836647
3 92 350 91 0.9200079420533471 0.1601930347901761 0.3343730471836647
3 350 349 91 0.9200079420533471 0.1601930347901761 0.3343730471836647
3 127 181 133 0.9200079420533471 0.1601930347901761 0.3343730471836647
3 217 181 127 0.9200079420533471 0.1601930347901761 0.3343730471836647
3 133 126 127 0.9200079420533471 0.1601930347901761 0.3343730471836647
3 128 217 127 0.9200079420533471 0.1601930347901761 0.3343730471836647
3 127 126 53 0.9200079420533471 0.1601930347901761 0.3343730471836647
3 53 290 127 0.9200079420533471 0.1601930347901761 0.3343730471836647
3 127 291 128 0.9200079420533471 0.1601930347901761 0.3343730471836647
3 127 290 291 0.9200079420533471 0.1601930347901761 0.3343730471836647
3 6 5 179 0.9200079420533471 0.1601930347901761 0.3343730471836647
3 5 132 179 0.9200079420533471 0.1601930347901761 0.3343730471836647
3 179 180 6 0.9200079420533471 0.1601930347901761 0.3343730471836647
3 133 180 179 0.9200079420533471 0.1601930347901761 0.3343730471836647
3 179 126 133 0.9200079420533471 0.1601930347901761 0.3343730471836647
3 179 132 126 0.9200079420533471 0.1601930347901761 0.3343730471836647
3 381 338 382 0.9200079420533471 0.1601930347901761 0.3343730471836647
3 237 262 382 0.9200079420533471 0.1601930347901761 0.3343730471836647
3 382 359 381 0.9200079420533471 0.1601930347901761 0.3343730471836647
3 382 262 359 0.9200079420533471 0.1601930347901761 0.3343730471836647
3 367 366 104 0.9200079420533471 0.1601930347901761 0.3343730471836647
3 104 154 367 0.9200079420533471 0.1601930347901761 0.3343730471836647
3 243 244 114 0.9200079420533471 0.1601930347901761 0.3343730471836647
3 114 113 243 0.9200079420533471 0.1601930347901761 0.3343730471836647
3 243 113 242 0.9200079420533471 0.1601930347901761 0.3343730471836647
3 242 325 243 0.9200079420533471 0.1601930347901761 0.3343730471836647
3 325 326 243 0.9200079420533471 0.1601930347901761 0.3343730471836647
3 326 244 243 0.9200079420533471 0.1601930347901761 0.3343730471836647
3 218 182 128 0.9200079420533471 0.1601930347901761 0.3343730471836647
3 128 129 218 0.9200079420533471 0.1601930347901761 0.3343730471836647
3 218 140 182 0.9200079420533471 0.1601930347901761 0.3343730471836647
3 218 129 183 0.9200079420533471 0.1601930347901761 0.3343730471836647
3 183 140 218 0.9200079420533471 0.1601930347901761 0.3343730471836647
3 371 372 117 0.9200079420533471 0.1601930347901761 0.3343730471836647
3 117 116 371 0.9200079420533471 0.1601930347901761 0.3343730471836647
3 249 116 117 0.9200079420533471 0.1601930347901761 0.3343730471836647
3 117 250 249 0.9200079420533471 0.1601930347901761 0.3343730471836647
3 283 284 171 0.9200079420533471 0.1601930347901761 0.3343730471836647
3 171 170 283 0.9200079420533471 0.1601930347901761 0.3343730471836647
3 171 284 172 0.9200079420533471 0.1601930347901761 0.3343730471836647
3 356 297 298 0.9200079420533471 0.1601930347901761 0.3343730471836647
3 298 297 346 0.9200079420533471 0.1601930347901761 0.3343730471836647
3 298 357 356 0.9200079420533471 0.1601930347901761 0.3343730471836647
3 298 347 357 0.9200079420533471 0.1601930347901761 0.3343730471836647
3 346 347 298 0.9200079420533471 0.1601930347901761 0.3343730471836647
3 252 375 376 0.9200079420533471 0.1601930347901761 0.3343730471836647
3 376 172 377 0.9200079420533471 0.1601930347901761 0.3343730471836647
3 376 171 172 0.9200079420533471 0.1601930347901761 0.3343730471836647
3 376 375 170 0.9200079420533471 0.1601930347901761 0.3343730471836647
3 170 171 376 0.9200079420533471 0.1601930347901761 0.3343730471836647
3 251 252 346 0.9200079420533471 0.1601930347901761 0.3343730471836647
3 345 297 344 0.9200079420533471 0.1601930347901761 0.3343730471836647
3 344 250 345 0.9200079420533471 0.1601930347901761 0.3343730471836647
3 250 251 345 0.9200079420533471 0.1601930347901761 0.3343730471836647
3 346 297 345 0.9200079420533471 0.1601930347901761 0.3343730471836647
3 345 251 346 0.9200079420533471 0.1601930347901761 0.3343730471836647
3 346 252 253 0.9200079420533471 0.1601930347901761 0.3343730471836647
3 253 347 346 0.9200079420533471 0.1601930347901761 0.3343730471836647
3 252 376 253 0.9200079420533471 0.1601930347901761 0.3343730471836647
3 253 376 377 0.9200079420533471 0.1601930347901761 0.3343730471836647
3 377 378 253 0.9200079420533471 0.1601930347901761 0.3343730471836647
3 378 348 253 0.9200079420533471 0.1601930347901761 0.3343730471836647
3 348 347 253 0.9200079420533471 0.1601930347901761 0.3343730471836647
3 354 221 355 0.9200079420533471 0.1601930347901761 0.3343730471836647
3 355 297 356 0.9200079420533471 0.1601930347901761 0.3343730471836647
3 296 297 355 0.9200079420533471 0.1601930347901761 0.3343730471836647
3 355 221 296 0.9200079420533471 0.1601930347901761 0.3343730471836647
3 295 221 185 0.9200079420533471 0.1601930347901761 0.3343730471836647
3 185 221 354 0.9200079420533471 0.1601930347901761 0.3343730471836647
3 228 304 303 0.9200079420533471 0.1601930347901761 0.3343730471836647
3 356 229 228 0.9200079420533471 0.1601930347901761 0.3343730471836647
3 228 229 304 0.9200079420533471 0.1601930347901761 0.3343730471836647
3 11 222 223 0.9200079420533471 0.1601930347901761 0.3343730471836647
3 341 121 342 0.9200079420533471 0.1601930347901761 0.3343730471836647
3 121 122 342 0.9200079420533471 0.1601930347901761 0.3343730471836647
3 342 176 341 0.9200079420533471 0.1601930347901761 0.3343730471836647
3 177 176 342 0.9200079420533471 0.1601930347901761 0.3343730471836647
3 247 122 246 0.9200079420533471 0.1601930347901761 0.3343730471836647
3 247 48 115 0.9200079420533471 0.1601930347901761 0.3343730471836647
3 246 48 247 0.9200079420533471 0.1601930347901761 0.3343730471836647
3 115 248 247 0.9200079420533471 0.1601930347901761 0.3343730471836647
3 123 342 122 0.9200079420533471 0.1601930347901761 0.3343730471836647
3 123 247 248 0.9200079420533471 0.1601930347901761 0.3343730471836647
3 122 247 123 0.9200079420533471 0.1601930347901761 0.3343730471836647
3 249 124 123 0.9200079420533471 0.1601930347901761 0.3343730471836647
3 123 248 249 0.9200079420533471 0.1601930347901761 0.3343730471836647
3 340 175 339 0.9200079420533471 0.1601930347901761 0.3343730471836647
3 175 174 339 0.9200079420533471 0.1601930347901761 0.3343730471836647
3 339 50 340 0.9200079420533471 0.1601930347901761 0.3343730471836647
3 51 50 339 0.9200079420533471 0.1601930347901761 0.3343730471836647
3 339 174 51 0.9200079420533471 0.1601930347901761 0.3343730471836647
3 192 369 154 0.9200079420533471 0.1601930347901761 0.3343730471836647
3 154 191 192 0.9200079420533471 0.1601930347901761 0.3343730471836647
3 236 237 192 0.9200079420533471 0.1601930347901761 0.3343730471836647
3 192 191 236 0.9200079420533471 0.1601930347901761 0.3343730471836647
3 103 73 102 0.9200079420533471 0.1601930347901761 0.3343730471836647
3 73 101 102 0.9200079420533471 0.1601930347901761 0.3343730471836647
3 102 150 103 0.9200079420533471 0.1601930347901761 0.3343730471836647
3 102 149 150 0.9200079420533471 0.1601930347901761 0.3343730471836647
3 102 101 149 0.9200079420533471 0.1601930347901761 0.3343730471836647
3 198 197 363 0.9200079420533471 0.1601930347901761 0.3343730471836647
3 363 364 198 0.9200079420533471 0.1601930347901761 0.3343730471836647
3 70 361 20 0.9200079420533471 0.1601930347901761 0.3343730471836647
3 233 232 259 0.9200079420533471 0.1601930347901761 0.3343730471836647
3 232 258 259 0.9200079420533471 0.1601930347901761 0.3343730471836647
3 259 234 233 0.9200079420533471 0.1601930347901761 0.3343730471836647
3 260 234 259 0.9200079420533471 0.1601930347901761 0.3343730471836647
3 259 258 148 0.9200079420533471 0.1601930347901761 0.3343730471836647
3 148 306 259 0.9200079420533471 0.1601930347901761 0.3343730471836647
3 259 306 260 0.9200079420533471 0.1601930347901761 0.3343730471836647
3 39 319 320 0.9200079420533471 0.1601930347901761 0.3343730471836647
3 319 65 320 0.9200079420533471 0.1601930347901761 0.3343730471836647
3 320 65 321 0.9200079420533471 0.1601930347901761 0.3343730471836647
3 78 272 35 0.9200079420533471 0.1601930347901761 0.3343730471836647
3 78 106 272 0.9200079420533471 0.1601930347901761 0.3343730471836647
3 78 35 34 0.9200079420533471 0.1601930347901761 0.3343730471836647
3 34 105 78 0.9200079420533471 0.1601930347901761 0.3343730471836647
3 78 105 162 0.9200079420533471 0.1601930347901761 0.3343730471836647
3 162 106 78 0.9200079420533471 0.1601930347901761 0.3343730471836647
3 163 157 311 0.9200079420533471 0.1601930347901761 0.3343730471836647
3 157 75 311 0.9200079420533471 0.1601930347901761 0.3343730471836647
3 311 75 201 0.9200079420533471 0.1601930347901761 0.3343730471836647
3 201 76 311 0.9200079420533471 0.1601930347901761 0.3343730471836647
3 158 76 312 0.9200079420533471 0.1601930347901761 0.3343730471836647
3 107 163 158 0.9200079420533471 0.1601930347901761 0.3343730471836647
3 163 311 158 0.9200079420533471 0.1601930347901761 0.3343730471836647
3 158 311 76 0.9200079420533471 0.1601930347901761 0.3343730471836647
3 158 164 107 0.9200079420533471 0.1601930347901761 0.3343730471836647
3 312 164 158 0.9200079420533471 0.1601930347901761 0.3343730471836647
3 60 61 201 0.9200079420533471 0.1601930347901761 0.3343730471836647
3 60 26 25 0.9200079420533471 0.1601930347901761 0.3343730471836647
3 264 61 263 0.9200079420533471 0.1601930347901761 0.3343730471836647
3 263 60 25 0.9200079420533471 0.1601930347901761 0.3343730471836647
3 61 60 263 0.9200079420533471 0.1601930347901761 0.3343730471836647
3 366 367 271 0.9200079420533471 0.1601930347901761 0.3343730471836647
3 271 270 366 0.9200079420533471 0.1601930347901761 0.3343730471836647
3 317 270 271 0.9200079420533471 0.1601930347901761 0.3343730471836647
3 271 280 317 0.9200079420533471 0.1601930347901761 0.3343730471836647
3 318 280 271 0.9200079420533471 0.1601930347901761 0.3343730471836647
3 154 369 368 0.9200079420533471 0.1601930347901761 0.3343730471836647
3 368 367 154 0.9200079420533471 0.1601930347901761 0.3343730471836647
3 368 328 318 0.9200079420533471 0.1601930347901761 0.3343730471836647
3 368 369 328 0.9200079420533471 0.1601930347901761 0.3343730471836647
3 318 271 368 0.9200079420533471 0.1601930347901761 0.3343730471836647
3 368 271 367 0.9200079420533471 0.1601930347901761 0.3343730471836647
3 250 117 118 0.9200079420533471 0.1601930347901761 0.3343730471836647
3 118 372 373 0.9200079420533471 0.1601930347901761 0.3343730471836647
3 118 117 372 0.9200079420533471 0.1601930347901761 0.3343730471836647
3 169 375 374 0.9200079420533471 0.1601930347901761 0.3343730471836647
3 373 168 374 0.9200079420533471 0.1601930347901761 0.3343730471836647
3 374 168 169 0.9200079420533471 0.1601930347901761 0.3343730471836647
3 119 375 252 0.9200079420533471 0.1601930347901761 0.3343730471836647
3 252 251 119 0.9200079420533471 0.1601930347901761 0.3343730471836647
3 119 374 375 0.9200079420533471 0.1601930347901761 0.3343730471836647
3 119 251 250 0.9200079420533471 0.1601930347901761 0.3343730471836647
3 250 118 119 0.9200079420533471 0.1601930347901761 0.3343730471836647
3 119 118 373 0.9200079420533471 0.1601930347901761 0.3343730471836647
3 373 374 119 0.9200079420533471 0.1601930347901761 0.3343730471836647
3 354 355 226 0.9200079420533471 0.1601930347901761 0.3343730471836647
3 353 185 354 0.9200079420533471 0.1601930347901761 0.3343730471836647
3 95 223 224 0.9200079420533471 0.1601930347901761 0.3343730471836647
3 224 96 95 0.9200079420533471 0.1601930347901761 0.3343730471836647
3 11 223 95 0.9200079420533471 0.1601930347901761 0.3343730471836647
3 95 12 11 0.9200079420533471 0.1601930347901761 0.3343730471836647
3 95 96 12 0.9200079420533471 0.1601930347901761 0.3343730471836647
3 343 124 178 0.9200079420533471 0.1601930347901761 0.3343730471836647
3 343 123 124 0.9200079420533471 0.1601930347901761 0.3343730471836647
3 178 295 343 0.9200079420533471 0.1601930347901761 0.3343730471836647
3 295 177 343 0.9200079420533471 0.1601930347901761 0.3343730471836647
3 177 342 343 0.9200079420533471 0.1601930347901761 0.3343730471836647
3 342 123 343 0.9200079420533471 0.1601930347901761 0.3343730471836647
3 369 192 370 0.9200079420533471 0.1601930347901761 0.3343730471836647
3 328 369 370 0.9200079420533471 0.1601930347901761 0.3343730471836647
3 237 382 370 0.9200079420533471 0.1601930347901761 0.3343730471836647
3 370 192 237 0.9200079420533471 0.1601930347901761 0.3343730471836647
3 338 328 370 0.9200079420533471 0.1601930347901761 0.3343730471836647
3 370 382 338 0.9200079420533471 0.1601930347901761 0.3343730471836647
3 72 363 71 0.9200079420533471 0.1601930347901761 0.3343730471836647
3 72 101 73 0.9200079420533471 0.1601930347901761 0.3343730471836647
3 72 73 364 0.9200079420533471 0.1601930347901761 0.3343730471836647
3 364 363 72 0.9200079420533471 0.1601930347901761 0.3343730471836647
3 72 100 101 0.9200079420533471 0.1601930347901761 0.3343730471836647
3 72 71 100 0.9200079420533471 0.1601930347901761 0.3343730471836647
3 362 363 197 0.9200079420533471 0.1601930347901761 0.3343730471836647
3 56 361 362 0.9200079420533471 0.1601930347901761 0.3343730471836647
3 362 197 56 0.9200079420533471 0.1601930347901761 0.3343730471836647
3 71 363 362 0.9200079420533471 0.1601930347901761 0.3343730471836647
3 361 70 362 0.9200079420533471 0.1601930347901761 0.3343730471836647
3 362 70 71 0.9200079420533471 0.1601930347901761 0.3343730471836647
3 100 71 19 0.9200079420533471 0.1601930347901761 0.3343730471836647
3 71 70 19 0.9200079420533471 0.1601930347901761 0.3343730471836647
3 19 70 20 0.9200079420533471 0.1601930347901761 0.3343730471836647
3 18 100 19 0.9200079420533471 0.1601930347901761 0.3343730471836647
3 39 320 86 0.9200079420533471 0.1601930347901761 0.3343730471836647
3 40 39 86 0.9200079420533471 0.1601930347901761 0.3343730471836647
3 86 87 40 0.9200079420533471 0.1601930347901761 0.3343730471836647
3 321 87 86 0.9200079420533471 0.1601930347901761 0.3343730471836647
3 86 320 321 0.9200079420533471 0.1601930347901761 0.3343730471836647
3 26 60 200 0.9200079420533471 0.1601930347901761 0.3343730471836647
3 27 26 200 0.9200079420533471 0.1601930347901761 0.3343730471836647
3 201 75 200 0.9200079420533471 0.1601930347901761 0.3343730471836647
3 200 60 201 0.9200079420533471 0.1601930347901761 0.3343730471836647
3 200 74 27 0.9200079420533471 0.1601930347901761 0.3343730471836647
3 200 75 74 0.9200079420533471 0.1601930347901761 0.3343730471836647
3 264 263 24 0.9200079420533471 0.1601930347901761 0.3343730471836647
3 24 263 25 0.9200079420533471 0.1601930347901761 0.3343730471836647
3 99 226 227 0.9200079420533471 0.1601930347901761 0.3343730471836647
3 227 226 355 0.9200079420533471 0.1601930347901761 0.3343730471836647
3 303 99 227 0.9200079420533471 0.1601930347901761 0.3343730471836647
3 227 228 303 0.9200079420533471 0.1601930347901761 0.3343730471836647
3 227 355 356 0.9200079420533471 0.1601930347901761 0.3343730471836647
3 356 228 227 0.9200079420533471 0.1601930347901761 0.3343730471836647
3 225 96 224 0.9200079420533471 0.1601930347901761 0.3343730471836647
3 354 226 225 0.9200079420533471 0.1601930347901761 0.3343730471836647
3 225 353 354 0.9200079420533471 0.1601930347901761 0.3343730471836647
3 143 13 300 0.9200079420533471 0.1601930347901761 0.3343730471836647
3 351 93 352 0.9200079420533471 0.1601930347901761 0.3343730471836647
3 57 24 23 0.9200079420533471 0.1601930347901761 0.3343730471836647
3 264 24 57 0.9200079420533471 0.1601930347901761 0.3343730471836647
3 23 58 57 0.9200079420533471 0.1601930347901761 0.3343730471836647
3 58 264 57 0.9200079420533471 0.1601930347901761 0.3343730471836647
3 69 225 224 0.9200079420533471 0.1601930347901761 0.3343730471836647
3 353 225 69 0.9200079420533471 0.1601930347901761 0.3343730471836647
3 301 99 302 0.9200079420533471 0.1601930347901761 0.3343730471836647
3 143 300 301 0.9200079420533471 0.1601930347901761 0.3343730471836647
3 301 144 143 0.9200079420533471 0.1601930347901761 0.3343730471836647
3 302 144 301 0.9200079420533471 0.1601930347901761 0.3343730471836647
3 96 225 97 0.9200079420533471 0.1601930347901761 0.3343730471836647
3 13 12 299 0.9200079420533471 0.1601930347901761 0.3343730471836647
3 299 300 13 0.9200079420533471 0.1601930347901761 0.3343730471836647
3 299 97 300 0.9200079420533471 0.1601930347901761 0.3343730471836647
3 12 96 299 0.9200079420533471 0.1601930347901761 0.3343730471836647
3 96 97 299 0.9200079420533471 0.1601930347901761 0.3343730471836647
3 141 352 93 0.9200079420533471 0.1601930347901761 0.3343730471836647
3 141 183 136 0.9200079420533471 0.1601930347901761 0.3343730471836647
3 141 93 183 0.9200079420533471 0.1601930347901761 0.3343730471836647
3 185 353 142 0.9200079420533471 0.1601930347901761 0.3343730471836647
3 352 69 68 0.9200079420533471 0.1601930347901761 0.3343730471836647
3 224 223 68 0.9200079420533471 0.1601930347901761 0.3343730471836647
3 68 69 224 0.9200079420533471 0.1601930347901761 0.3343730471836647
3 222 67 68 0.9200079420533471 0.1601930347901761 0.3343730471836647
3 68 223 222 0.9200079420533471 0.1601930347901761 0.3343730471836647
3 68 67 351 0.9200079420533471 0.1601930347901761 0.3343730471836647
3 351 352 68 0.9200079420533471 0.1601930347901761 0.3343730471836647
3 98 226 99 0.9200079420533471 0.1601930347901761 0.3343730471836647
3 99 301 98 0.9200079420533471 0.1601930347901761 0.3343730471836647
3 98 225 226 0.9200079420533471 0.1601930347901761 0.3343730471836647
3 98 97 225 0.9200079420533471 0.1601930347901761 0.3343730471836647
3 98 301 300 0.9200079420533471 0.1601930347901761 0.3343730471836647
3 300 97 98 0.9200079420533471 0.1601930347901761 0.3343730471836647
3 94 142 353 0.9200079420533471 0.1601930347901761 0.3343730471836647
3 353 69 94 0.9200079420533471 0.1601930347901761 0.3343730471836647
3 94 69 352 0.9200079420533471 0.1601930347901761 0.3343730471836647
3 352 141 94 0.9200079420533471 0.1601930347901761 0.3343730471836647
3 185 142 220 0.9200079420533471 0.1601930347901761 0.3343730471836647
3 220 294 295 0.9200079420533471 0.1601930347901761 0.3343730471836647
3 295 185 220 0.9200079420533471 0.1601930347901761 0.3343730471836647
3 220 130 294 0.9200079420533471 0.1601930347901761 0.3343730471836647
3 184 94 141 0.9200079420533471 0.1601930347901761 0.3343730471836647
3 130 220 184 0.9200079420533471 0.1601930347901761 0.3343730471836647
3 142 94 184 0.9200079420533471 0.1601930347901761 0.3343730471836647
3 184 220 142 0.9200079420533471 0.1601930347901761 0.3343730471836647
3 136 130 184 0.9200079420533471 0.1601930347901761 0.3343730471836647
3 184 141 136 0.9200079420533471 0.1601930347901761 0.3343730471836647
