OFF
42 53 0


28.8227 35.8421 9.5428
28.8227 35.8421 9.5428
28.8504 35.7215 9.4786
28.8715 35.6389 9.4342
28.8918 35.5654 9.3944
28.916 35.4837 9.3497
28.9537 35.3663 9.2849
28.9537 35.3663 9.2849
28.8256 35.3374 9.3369
28.6979 35.3085 9.3898
28.6979 35.3085 9.3898
28.6667 35.3532 9.4231
28.6357 35.3979 9.4566
28.6358 35.4164 9.4639
28.6358 35.435 9.4713
28.6358 35.435 9.4713
28.688 35.5568 9.4935
28.7254 35.6401 9.5084
28.764 35.7228 9.5227
28.8227 35.8421 9.5428
28.8286 35.665 9.4664
28.8561 35.5599 9.4099
28.8959 35.4282 9.3377
28.7275 35.3915 9.4074
28.7448 35.6098 9.4861
28.8098 35.7466 9.5094
28.8427 35.6092 9.4366
28.8135 35.5792 9.439
28.8718 35.5054 9.3803
28.8278 35.5271 9.4109
28.8112 35.4096 9.3725
28.7974 35.48 9.4073
28.6864 35.4496 9.4513
28.7358 35.4998 9.4463
28.7201 35.5541 9.4761
28.7521 35.5514 9.4588
28.7705 35.6655 9.4959
28.7771 35.6076 9.4689
28.8098 35.7466 9.5094
28.7969 35.6491 9.4758
28.784 35.5487 9.4416
28.784 35.5487 9.4416
3 22 8 6 0.9113558633445278 0.4322266855965088 0.21762182199088465
3 30 8 22 0.9113558633445278 0.4322266855965088 0.21762182199088465
3 30 22 28 0.9113558633445278 0.4322266855965088 0.21762182199088465
3 9 8 23 0.9113558633445278 0.4322266855965088 0.21762182199088465
3 23 8 30 0.9113558633445278 0.4322266855965088 0.21762182199088465
3 14 32 16 0.9113558633445278 0.4322266855965088 0.21762182199088465
3 13 32 14 0.9113558633445278 0.4322266855965088 0.21762182199088465
3 12 32 13 0.9113558633445278 0.4322266855965088 0.21762182199088465
3 30 28 31 0.9113558633445278 0.4322266855965088 0.21762182199088465
3 31 23 30 0.9113558633445278 0.4322266855965088 0.21762182199088465
3 40 31 29 0.9113558633445278 0.4322266855965088 0.21762182199088465
3 29 31 28 0.9113558633445278 0.4322266855965088 0.21762182199088465
3 4 28 5 0.9113558633445278 0.4322266855965088 0.21762182199088465
3 5 28 22 0.9113558633445278 0.4322266855965088 0.21762182199088465
3 5 22 6 0.9113558633445278 0.4322266855965088 0.21762182199088465
3 11 32 12 0.9113558633445278 0.4322266855965088 0.21762182199088465
3 11 23 32 0.9113558633445278 0.4322266855965088 0.21762182199088465
3 9 23 11 0.9113558633445278 0.4322266855965088 0.21762182199088465
3 33 16 32 0.9113558633445278 0.4322266855965088 0.21762182199088465
3 33 31 40 0.9113558633445278 0.4322266855965088 0.21762182199088465
3 32 23 33 0.9113558633445278 0.4322266855965088 0.21762182199088465
3 23 31 33 0.9113558633445278 0.4322266855965088 0.21762182199088465
3 21 28 4 0.9113558633445278 0.4322266855965088 0.21762182199088465
3 21 29 28 0.9113558633445278 0.4322266855965088 0.21762182199088465
3 20 3 2 0.9113558633445278 0.4322266855965088 0.21762182199088465
3 36 18 17 0.9113558633445278 0.4322266855965088 0.21762182199088465
3 17 16 24 0.9113558633445278 0.4322266855965088 0.21762182199088465
3 24 36 17 0.9113558633445278 0.4322266855965088 0.21762182199088465
3 37 36 24 0.9113558633445278 0.4322266855965088 0.21762182199088465
3 26 3 20 0.9113558633445278 0.4322266855965088 0.21762182199088465
3 4 3 26 0.9113558633445278 0.4322266855965088 0.21762182199088465
3 26 21 4 0.9113558633445278 0.4322266855965088 0.21762182199088465
3 16 33 34 0.9113558633445278 0.4322266855965088 0.21762182199088465
3 34 24 16 0.9113558633445278 0.4322266855965088 0.21762182199088465
3 20 36 39 0.9113558633445278 0.4322266855965088 0.21762182199088465
3 39 36 37 0.9113558633445278 0.4322266855965088 0.21762182199088465
3 39 26 20 0.9113558633445278 0.4322266855965088 0.21762182199088465
3 37 26 39 0.9113558633445278 0.4322266855965088 0.21762182199088465
3 18 36 25 0.9113558633445278 0.4322266855965088 0.21762182199088465
3 0 18 25 0.9113558633445278 0.4322266855965088 0.21762182199088465
3 25 2 0 0.9113558633445278 0.4322266855965088 0.21762182199088465
3 20 2 25 0.9113558633445278 0.4322266855965088 0.21762182199088465
3 25 36 20 0.9113558633445278 0.4322266855965088 0.21762182199088465
3 27 37 40 0.9113558633445278 0.4322266855965088 0.21762182199088465
3 27 26 37 0.9113558633445278 0.4322266855965088 0.21762182199088465
3 21 26 27 0.9113558633445278 0.4322266855965088 0.21762182199088465
3 40 29 27 0.9113558633445278 0.4322266855965088 0.21762182199088465
3 29 21 27 0.9113558633445278 0.4322266855965088 0.21762182199088465
3 35 33 40 0.9113558633445278 0.4322266855965088 0.21762182199088465
3 35 34 33 0.9113558633445278 0.4322266855965088 0.21762182199088465
3 40 37 35 0.9113558633445278 0.4322266855965088 0.21762182199088465
3 37 24 35 0.9113558633445278 0.4322266855965088 0.21762182199088465
3 24 34 35 0.9113558633445278 0.4322266855965088 0.21762182199088465
