OFF
51 46 0


29.6112 35.934 7.1433
29.6112 35.934 7.1433
29.6544 35.879 7.2656
29.6901 35.8318 7.3717
29.7205 35.79 7.4663
29.7471 35.7522 7.5528
29.7711 35.7169 7.6339
29.7932 35.6834 7.7116
29.8141 35.6507 7.7879
29.8342 35.6182 7.8643
29.854 35.5851 7.9427
29.874 35.5505 8.0248
29.8946 35.5136 8.1131
29.9163 35.4733 8.2104
29.9399 35.4278 8.3206
29.9661 35.375 8.4495
29.8709 35.3674 8.5428
29.7855 35.3621 8.6219
29.707 35.3586 8.6909
29.6332 35.3564 8.753
29.5619 35.3551 8.8103
29.4913 35.3547 8.8647
29.4198 35.355 8.9176
29.3453 35.3562 8.9704
29.2656 35.3583 9.0245
29.1781 35.3616 9.0813
29.0791 35.3664 9.1424
28.9635 35.3734 9.2099
28.9635 35.3734 9.2099
28.9728 35.4138 9.0892
28.9826 35.4511 8.9768
28.9931 35.4859 8.8709
29.0043 35.5186 8.7703
29.0165 35.5496 8.6739
29.0299 35.5791 8.5807
29.0446 35.6074 8.4899
29.0609 35.6346 8.401
29.079 35.6609 8.3134
29.0993 35.6863 8.2266
29.122 35.7109 8.1403
29.1475 35.7346 8.0542
29.1761 35.7575 7.968
29.2081 35.7797 7.8816
29.2437 35.801 7.7948
29.283 35.8215 7.7073
29.3263 35.8414 7.6188
29.3738 35.8605 7.529
29.4257 35.8792 7.4373
29.4822 35.8976 7.343
29.5439 35.9158 7.2453
29.6112 35.934 7.1433
3 44 43 8 0.9745678368776562 0.015715201990876726 0.5583917214210884
3 30 24 31 0.9745678368776562 0.015715201990876726 0.5583917214210884
3 17 14 13 0.9745678368776562 0.015715201990876726 0.5583917214210884
3 10 42 41 0.9745678368776562 0.015715201990876726 0.5583917214210884
3 41 40 10 0.9745678368776562 0.015715201990876726 0.5583917214210884
3 35 34 20 0.9745678368776562 0.015715201990876726 0.5583917214210884
3 29 26 30 0.9745678368776562 0.015715201990876726 0.5583917214210884
3 27 26 29 0.9745678368776562 0.015715201990876726 0.5583917214210884
3 25 24 30 0.9745678368776562 0.015715201990876726 0.5583917214210884
3 30 26 25 0.9745678368776562 0.015715201990876726 0.5583917214210884
3 23 31 24 0.9745678368776562 0.015715201990876726 0.5583917214210884
3 20 34 21 0.9745678368776562 0.015715201990876726 0.5583917214210884
3 33 21 34 0.9745678368776562 0.015715201990876726 0.5583917214210884
3 22 21 33 0.9745678368776562 0.015715201990876726 0.5583917214210884
3 15 14 16 0.9745678368776562 0.015715201990876726 0.5583917214210884
3 16 14 17 0.9745678368776562 0.015715201990876726 0.5583917214210884
3 17 13 37 0.9745678368776562 0.015715201990876726 0.5583917214210884
3 37 18 17 0.9745678368776562 0.015715201990876726 0.5583917214210884
3 36 18 37 0.9745678368776562 0.015715201990876726 0.5583917214210884
3 42 10 9 0.9745678368776562 0.015715201990876726 0.5583917214210884
3 8 43 9 0.9745678368776562 0.015715201990876726 0.5583917214210884
3 43 42 9 0.9745678368776562 0.015715201990876726 0.5583917214210884
3 11 10 40 0.9745678368776562 0.015715201990876726 0.5583917214210884
3 39 12 11 0.9745678368776562 0.015715201990876726 0.5583917214210884
3 11 40 39 0.9745678368776562 0.015715201990876726 0.5583917214210884
3 36 35 19 0.9745678368776562 0.015715201990876726 0.5583917214210884
3 19 18 36 0.9745678368776562 0.015715201990876726 0.5583917214210884
3 19 35 20 0.9745678368776562 0.015715201990876726 0.5583917214210884
3 31 23 32 0.9745678368776562 0.015715201990876726 0.5583917214210884
3 32 23 22 0.9745678368776562 0.015715201990876726 0.5583917214210884
3 22 33 32 0.9745678368776562 0.015715201990876726 0.5583917214210884
3 38 37 13 0.9745678368776562 0.015715201990876726 0.5583917214210884
3 38 12 39 0.9745678368776562 0.015715201990876726 0.5583917214210884
3 38 13 12 0.9745678368776562 0.015715201990876726 0.5583917214210884
3 7 44 8 0.9745678368776562 0.015715201990876726 0.5583917214210884
3 7 6 44 0.9745678368776562 0.015715201990876726 0.5583917214210884
3 4 47 46 0.9745678368776562 0.015715201990876726 0.5583917214210884
3 49 2 0 0.9745678368776562 0.015715201990876726 0.5583917214210884
3 3 47 4 0.9745678368776562 0.015715201990876726 0.5583917214210884
3 44 6 45 0.9745678368776562 0.015715201990876726 0.5583917214210884
3 4 46 5 0.9745678368776562 0.015715201990876726 0.5583917214210884
3 5 45 6 0.9745678368776562 0.015715201990876726 0.5583917214210884
3 46 45 5 0.9745678368776562 0.015715201990876726 0.5583917214210884
3 47 3 48 0.9745678368776562 0.015715201990876726 0.5583917214210884
3 2 49 48 0.9745678368776562 0.015715201990876726 0.5583917214210884
3 48 3 2 0.9745678368776562 0.015715201990876726 0.5583917214210884
