OFF
611 1119 0


31.1057 29.4444 9.4054
31.1057 29.4444 9.4054
31.1109 29.3178 9.3306
31.117 29.2269 9.2782
31.1235 29.1506 9.2349
31.1308 29.0782 9.1946
31.1397 29.0013 9.1523
31.1516 28.9091 9.1024
31.1705 28.7809 9.0342
31.0563 28.8534 9.0465
30.95 28.9196 9.0577
30.8502 28.9807 9.068
30.7555 29.0375 9.0773
30.665 29.0907 9.086
30.5776 29.1408 9.0941
30.4927 29.1883 9.1016
30.4096 29.2335 9.1087
30.3276 29.2768 9.1153
30.2462 29.3184 9.1216
30.1649 29.3585 9.1274
30.0831 29.3973 9.1329
30.0005 29.4348 9.138
29.9164 29.4712 9.1427
29.8305 29.5064 9.147
29.7423 29.5406 9.1509
29.6512 29.5736 9.1544
29.5568 29.6054 9.1574
29.4585 29.6359 9.1598
29.3557 29.6652 9.1617
29.2479 29.693 9.1629
29.1342 29.7194 9.1634
29.0138 29.7443 9.1632
28.8856 29.7677 9.1621
28.8856 29.7677 9.1621
28.8856 29.7677 9.1621
28.9189 29.8863 9.2392
28.9477 29.987 9.3059
28.9735 30.0752 9.3654
28.9973 30.1547 9.4199
29.0196 30.2284 9.4711
29.0411 30.2982 9.5204
29.0624 30.3662 9.569
29.0839 30.4337 9.6179
29.1061 30.5025 9.6683
29.1296 30.5741 9.7216
29.1551 30.6507 9.7793
29.1834 30.7347 9.8434
29.216 30.8294 9.9168
29.2546 30.9398 10.0036
29.2998 30.9585 10.0245
29.3449 30.9773 10.0456
29.3449 30.9773 10.0456
29.3449 30.9773 10.0456
29.4833 30.9511 10.0493
29.595 30.9292 10.0528
29.6908 30.9099 10.0562
29.7776 30.892 10.0595
29.8603 30.8746 10.063
29.9429 30.8568 10.0667
30.0295 30.8377 10.0708
30.1248 30.8162 10.0757
30.2355 30.7907 10.0819
30.3724 30.7581 10.0901
30.3811 30.7536 10.0888
30.3899 30.749 10.0876
30.3899 30.749 10.0876
30.4553 30.6403 10.0248
30.5115 30.5453 9.971
30.561 30.4604 9.9235
30.6057 30.3828 9.8808
30.6469 30.3103 9.8414
30.6856 30.2414 9.8045
30.7226 30.1747 9.7691
30.7588 30.1089 9.7346
30.7947 30.0429 9.7004
30.8311 29.9755 9.6658
30.8685 29.9053 9.6303
30.9077 29.8309 9.593
30.9497 29.7505 9.5531
30.9956 29.6616 9.5096
31.0469 29.5611 9.4611
31.1057 29.4444 9.4054
31.0022 29.2499 9.2619
30.8929 29.3389 9.2866
30.7934 29.4195 9.3094
31.0117 29.1231 9.1901
30.8978 29.2309 9.2242
30.7952 29.3276 9.2552
30.9365 28.9962 9.098
30.8306 29.1217 9.1439
30.7356 29.2336 9.1854
30.6495 29.3344 9.2234
30.7634 29.0971 9.1133
30.6847 29.2021 9.1548
30.6126 29.2976 9.193
30.546 29.3854 9.2286
30.604 29.1866 9.1266
30.5475 29.275 9.1644
30.4948 29.357 9.1999
30.4452 29.4336 9.2334
30.4527 29.2679 9.1383
30.4149 29.3426 9.1731
30.3791 29.4131 9.2062
30.3449 29.4799 9.2379
30.3053 29.3432 9.1488
30.2838 29.4065 9.181
30.2632 29.4671 9.212
30.2432 29.5252 9.2421
29.8083 30.8056 10.0018
29.8369 30.7242 9.9481
29.8637 30.6469 9.8975
29.8891 30.573 9.8498
29.9575 30.774 10.0089
29.9709 30.6957 9.9547
29.9835 30.6212 9.9037
29.9954 30.5499 9.8553
30.6293 30.2173 9.7737
30.5754 30.1941 9.7444
30.5236 30.1718 9.7165
30.4736 30.1502 9.6897
30.695 30.0971 9.7102
30.6341 30.0857 9.6871
30.5756 30.0748 9.665
30.5193 30.0641 9.644
30.7591 29.9764 9.6476
30.6907 29.9771 9.6304
30.6252 29.9777 9.6141
30.5625 29.9782 9.5987
30.8262 29.8463 9.5813
30.749 29.8607 9.5705
30.6759 29.8743 9.5603
30.6061 29.8871 9.5509
30.9986 29.3155 9.2998
30.8912 29.3953 9.3198
30.793 29.4679 9.3384
30.7025 29.5346 9.3558
30.6183 29.5961 9.3724
31.0304 28.94 9.0893
30.9083 29.0779 9.1378
30.8001 29.1992 9.1813
30.7031 29.3074 9.2206
30.6149 29.4052 9.2568
30.158 29.4141 9.1583
30.1513 29.4678 9.1883
30.1447 29.5196 9.2175
30.1382 29.57 9.2461
30.1318 29.619 9.2741
30.0078 29.4815 9.1667
30.0149 29.5269 9.1949
30.0217 29.5712 9.2226
30.0284 29.6146 9.2499
30.0348 29.6571 9.2768
29.8516 29.5458 9.1741
29.8722 29.5843 9.2009
29.8924 29.622 9.2273
29.9122 29.6592 9.2535
29.9317 29.6958 9.2794
29.1135 30.2082 9.4699
29.203 30.1887 9.4691
29.2889 30.1697 9.4688
29.3719 30.151 9.4689
29.4527 30.1326 9.4693
29.1531 30.3338 9.5592
29.2395 30.3027 9.5502
29.3222 30.2725 9.542
29.4021 30.2431 9.5345
29.4798 30.2141 9.5276
29.1946 30.4574 9.6494
29.2786 30.4143 9.6319
29.3587 30.3728 9.6155
29.4358 30.3325 9.6001
29.5104 30.2931 9.5855
29.2422 30.5905 9.7493
29.3241 30.5335 9.7215
29.4017 30.4791 9.6955
29.4758 30.4266 9.6711
29.5471 30.3756 9.6479
29.7302 30.8213 9.9983
29.7668 30.7381 9.9444
29.8012 30.6592 9.894
29.8337 30.5839 9.8465
29.8646 30.5116 9.8014
30.1217 30.7367 10.0169
30.1186 30.6615 9.9618
30.1156 30.5899 9.9097
30.1125 30.5214 9.8604
30.1093 30.4555 9.8133
30.557 30.3454 9.8427
30.5103 30.3096 9.8065
30.4655 30.2752 9.7719
30.4223 30.2419 9.7389
30.3806 30.2098 9.7071
30.9015 29.6954 9.5058
30.8135 29.7268 9.5025
30.7308 29.7561 9.4996
30.6528 29.7837 9.4971
30.5787 29.8096 9.4949
29.6866 29.607 9.1804
29.7212 29.6397 9.206
29.7553 29.6718 9.2315
29.7888 29.7034 9.2567
29.8219 29.7346 9.2819
29.8547 29.7654 9.307
29.51 29.6646 9.1852
29.5602 29.6926 9.2102
29.6094 29.7199 9.235
29.6578 29.7467 9.2596
29.7055 29.7731 9.2841
29.7526 29.7991 9.3086
29.3191 29.7182 9.1883
29.3879 29.7424 9.2132
29.4545 29.7658 9.2376
29.5195 29.7884 9.2618
29.5832 29.8105 9.2859
29.6458 29.832 9.3099
29.111 29.7671 9.1894
29.2029 29.7883 9.2146
29.2906 29.8084 9.2392
29.375 29.8275 9.2634
29.4566 29.8458 9.2872
29.5361 29.8634 9.3109
29.0724 30.0684 9.3733
29.1663 30.0616 9.3813
29.2563 30.0549 9.3894
29.3431 30.0481 9.3977
29.4273 30.0413 9.4061
29.5098 30.0343 9.4148
29.3024 30.7486 9.8713
29.3823 30.6731 9.8296
29.4571 30.602 9.791
29.5277 30.5343 9.7549
29.5949 30.4692 9.7209
29.6594 30.4061 9.6886
29.4222 30.8777 9.9847
29.4929 30.7858 9.9294
29.5584 30.7001 9.8785
29.6195 30.6192 9.8313
29.6772 30.5422 9.787
29.7321 30.4681 9.7451
29.6443 30.838 9.9944
29.69 30.7525 9.9404
29.7328 30.6718 9.89
29.7732 30.595 9.8426
29.8115 30.5214 9.7978
29.8482 30.4501 9.755
30.4712 30.4921 9.9235
30.4328 30.4413 9.8785
30.396 30.3927 9.8358
30.3606 30.3461 9.7951
30.3265 30.301 9.7561
30.2934 30.2575 9.7187
30.9933 29.5048 9.4124
30.8901 29.56 9.4192
30.7947 29.6108 9.4257
30.7058 29.6578 9.4321
30.6225 29.7016 9.4383
30.544 29.7427 9.4444
30.9954 29.3942 9.346
30.8901 29.4635 9.3605
30.7932 29.5268 9.374
30.7035 29.5852 9.3869
30.6198 29.6393 9.3992
30.5412 29.6899 9.411
30.4669 29.7374 9.4225
31.0189 29.0459 9.1472
30.9018 29.166 9.1873
30.797 29.2728 9.2235
30.7021 29.369 9.2566
30.6153 29.4564 9.2874
30.5351 29.5367 9.3161
30.4603 29.611 9.3433
29.0501 29.988 9.3191
29.1471 29.9887 9.3321
29.2397 29.9891 9.345
29.3288 29.9892 9.3579
29.4151 29.9891 9.3708
29.4994 29.9887 9.3838
29.5823 29.988 9.3971
30.3447 30.6821 10.0284
30.3184 30.6105 9.9707
30.2935 30.5427 9.9166
30.2696 30.4781 9.8655
30.2467 30.4162 9.8169
30.2245 30.3567 9.7706
30.203 30.2991 9.7262
30.6824 29.143 9.1202
30.6153 29.2393 9.1597
30.5532 29.3278 9.1965
30.4954 29.4098 9.2311
30.4411 29.4863 9.2637
30.3897 29.5582 9.2948
30.3409 29.6261 9.3246
30.2942 29.6906 9.3533
30.3787 29.3062 9.1437
30.3494 29.375 9.1771
30.3213 29.4403 9.2092
30.2944 29.5027 9.24
30.2684 29.5624 9.2698
30.2432 29.6198 9.2988
30.2187 29.6752 9.327
30.1949 29.7289 9.3546
30.0835 29.4482 9.1626
30.0837 29.4976 9.1917
30.0839 29.5455 9.2201
30.084 29.5923 9.248
30.084 29.638 9.2755
30.084 29.6827 9.3026
30.0838 29.7266 9.3293
30.0836 29.7698 9.3559
29.026 29.8966 9.2586
29.1269 29.906 9.2773
29.2228 29.9147 9.2957
29.3146 29.9227 9.3137
29.4033 29.9303 9.3317
29.4897 29.9373 9.3497
29.5743 29.944 9.3678
29.6579 29.9503 9.3862
30.0357 30.7565 10.0127
30.0413 30.6798 9.9581
30.0464 30.6067 9.9067
30.0512 30.5367 9.8579
30.0556 30.4693 9.8113
30.0596 30.4041 9.7667
30.0634 30.3406 9.7237
30.0669 30.2786 9.6821
30.6627 30.1568 9.7416
30.6052 30.1395 9.7154
30.5501 30.1229 9.6905
30.4969 30.1068 9.6666
30.4456 30.0912 9.6438
30.396 30.0761 9.6218
30.3478 30.0613 9.6007
30.3009 30.0469 9.5802
30.792 29.9131 9.6152
30.7194 29.9204 9.6011
30.6502 29.9273 9.5878
30.5841 29.9337 9.5753
30.5207 29.9398 9.5635
30.4597 29.9455 9.5523
30.4009 29.9509 9.5416
30.344 29.9561 9.5315
30.8478 29.0483 9.1059
30.7563 29.163 9.1495
30.6733 29.2663 9.1893
30.5972 29.3604 9.2261
30.527 29.4468 9.2604
30.4614 29.5268 9.2927
30.3998 29.6016 9.3233
30.3415 29.6719 9.3526
30.2858 29.7384 9.3808
29.7703 29.5768 9.1774
29.7979 29.6122 9.2036
29.8249 29.647 9.2294
29.8515 29.6813 9.2551
29.8777 29.7152 9.2807
29.9036 29.7486 9.3062
29.9293 29.7818 9.3316
29.9547 29.8147 9.3571
29.9801 29.8475 9.3826
29.4165 29.692 9.187
29.4755 29.718 9.2118
29.5331 29.7432 9.2364
29.5895 29.7678 9.2608
29.645 29.792 9.285
29.6997 29.8157 9.3093
29.754 29.8391 9.3336
29.808 29.8623 9.3582
29.8619 29.8854 9.3829
28.9992 29.7895 9.189
29.1053 29.8097 9.2147
29.2054 29.8284 9.2396
29.3007 29.8459 9.2638
29.3922 29.8625 9.2876
29.4808 29.8783 9.3113
29.5674 29.8935 9.3349
29.6526 29.9082 9.3587
29.737 29.9226 9.3828
29.1333 30.272 9.5149
29.2211 30.2466 9.51
29.3053 30.222 9.5058
29.3867 30.1979 9.502
29.4659 30.1741 9.4988
29.5435 30.1505 9.4959
29.6199 30.127 9.4935
29.6957 30.1034 9.4915
29.7712 30.0795 9.4898
29.2174 30.522 9.6975
29.3002 30.4723 9.6751
29.3791 30.4246 9.6542
29.4547 30.3785 9.6345
29.5278 30.3335 9.6158
29.5988 30.2893 9.598
29.6684 30.2457 9.5809
29.737 30.2023 9.5644
29.8051 30.1589 9.5484
29.5447 30.8563 9.99
29.6014 30.7682 9.9355
29.6541 30.6853 9.885
29.7037 30.6067 9.8378
29.7507 30.5315 9.7932
29.7956 30.4589 9.7508
29.8388 30.3884 9.7103
29.8807 30.3194 9.6712
29.9216 30.2513 9.6332
30.5163 30.4156 9.8811
30.4736 30.3727 9.8408
30.4326 30.3316 9.8025
30.3932 30.292 9.7658
30.355 30.2537 9.7306
30.3181 30.2165 9.6968
30.2821 30.1804 9.6642
30.2471 30.1452 9.6326
30.2128 30.1108 9.602
30.9446 29.6067 9.4621
30.8498 29.6488 9.4634
30.7613 29.6879 9.4648
30.6782 29.7244 9.4664
30.5999 29.7586 9.4681
30.5256 29.7908 9.47
30.4548 29.8213 9.472
30.387 29.8503 9.4742
30.3219 29.878 9.4765
31.0065 29.1881 9.2267
30.895 29.2861 9.2559
30.7941 29.3744 9.2827
30.7017 29.4548 9.3076
30.6165 29.5285 9.3309
30.5371 29.5967 9.3529
30.4626 29.6603 9.3739
30.3922 29.72 9.394
30.3253 29.7764 9.4134
30.2612 29.8301 9.4323
30.2318 29.3792 9.1537
30.2179 29.4374 9.1847
30.2044 29.4935 9.2148
30.1913 29.5476 9.2441
30.1784 29.6 9.2727
30.1658 29.6509 9.3007
30.1534 29.7005 9.3282
30.1411 29.7489 9.3552
30.129 29.7963 9.382
30.1171 29.8428 9.4084
29.3408 30.8446 9.9471
29.4197 30.7567 9.8959
29.4927 30.6745 9.8488
29.561 30.597 9.8051
29.6255 30.5232 9.7642
29.6871 30.452 9.7256
29.7463 30.383 9.6887
29.8037 30.3153 9.6533
29.8599 30.2485 9.6189
29.9153 30.182 9.5854
30.4199 30.5771 9.9711
30.3864 30.5173 9.9206
30.3543 30.4602 9.8728
30.3236 30.4056 9.8274
30.294 30.353 9.7841
30.2653 30.3023 9.7427
30.2375 30.2531 9.7028
30.2104 30.2052 9.6643
30.1839 30.1584 9.627
30.1578 30.1125 9.5908
30.727 30.0373 9.6791
30.6624 30.0319 9.6589
30.6005 30.0266 9.6397
30.541 30.0215 9.6215
30.4838 30.0165 9.6041
30.4285 30.0115 9.5874
30.375 30.0067 9.5714
30.323 30.0019 9.5561
30.2724 29.9971 9.5413
30.2231 29.9924 9.5271
30.5276 29.2281 9.1326
30.4809 29.3094 9.1688
30.4368 29.3854 9.2031
30.3951 29.4569 9.2357
30.3554 29.5246 9.2669
30.3174 29.589 9.2968
30.2809 29.6505 9.3258
30.2456 29.7095 9.354
30.2113 29.7664 9.3814
30.1779 29.8215 9.4083
30.1452 29.8751 9.4348
29.5999 29.6363 9.183
29.6421 29.6665 9.2083
29.6835 29.6961 9.2333
29.7242 29.7252 9.2582
29.7645 29.7539 9.283
29.8043 29.7823 9.3078
29.8439 29.8104 9.3327
29.8833 29.8384 9.3577
29.9226 29.8663 9.3828
29.9619 29.8942 9.4083
30.0014 29.9221 9.434
29.0933 30.141 9.4231
29.1848 30.1276 9.4266
29.2726 30.1145 9.4303
29.3574 30.1016 9.4344
29.4398 30.0887 9.4387
29.5206 30.0758 9.4433
29.6001 30.0628 9.4483
29.679 30.0497 9.4536
29.7577 30.0363 9.4593
29.8368 30.0226 9.4654
29.9168 30.0085 9.472
29.2701 30.6652 9.8065
29.3511 30.5998 9.7724
29.4273 30.5376 9.7406
29.4998 30.4781 9.7108
29.5692 30.4205 9.6826
29.6362 30.3644 9.6558
29.7014 30.3094 9.63
29.7653 30.255 9.605
29.8284 30.2008 9.5808
29.891 30.1465 9.557
29.9538 30.0916 9.5335
30.2216 30.7128 10.022
30.2083 30.6392 9.9659
30.1955 30.5694 9.913
30.1832 30.5026 9.8629
30.1713 30.4385 9.8152
30.1596 30.3766 9.7696
30.1482 30.3165 9.7258
30.1369 30.258 9.6834
30.1258 30.2007 9.6423
30.1147 30.1443 9.6023
30.1036 30.0887 9.5632
30.8624 29.7744 9.5452
30.7802 29.7967 9.5379
30.7026 29.8177 9.5312
30.6289 29.8374 9.525
30.5587 29.8561 9.5193
30.4915 29.8738 9.5141
30.4271 29.8907 9.5093
30.365 29.9068 9.5048
30.3051 29.9222 9.5007
30.2469 29.937 9.4968
30.1904 29.9513 9.4933
30.9933 29.5048 9.4124
30.8901 29.56 9.4192
30.7947 29.6108 9.4257
30.7058 29.6578 9.4321
30.6225 29.7016 9.4383
30.544 29.7427 9.4444
30.4696 29.7813 9.4505
30.3987 29.8179 9.4565
30.3308 29.8528 9.4625
30.2655 29.886 9.4686
30.2024 29.918 9.4746
30.1411 29.9487 9.4807
29.9306 29.514 9.1706
29.9445 29.5558 9.198
29.958 29.5967 9.225
29.9712 29.6369 9.2517
29.9841 29.6764 9.2782
29.9968 29.7153 9.3044
30.0093 29.7537 9.3305
30.0216 29.7918 9.3565
30.0337 29.8295 9.3824
30.0458 29.8669 9.4084
30.0577 29.9042 9.4344
30.0696 29.9414 9.4606
29.2174 29.7433 9.1891
29.297 29.7659 9.2141
29.3737 29.7875 9.2386
29.448 29.8083 9.2627
29.5203 29.8284 9.2866
29.5912 29.848 9.3105
29.6611 29.8671 9.3344
29.7304 29.8859 9.3585
29.7995 29.9044 9.383
29.8688 29.9229 9.4079
29.9385 29.9413 9.4334
30.0093 29.9598 9.4597
29.1734 30.3952 9.6037
29.2585 30.3582 9.5905
29.3399 30.3225 9.5784
29.4184 30.2877 9.567
29.4946 30.2535 9.5563
29.569 30.2199 9.5462
29.6422 30.1864 9.5367
29.7146 30.153 9.5275
29.7867 30.1194 9.5188
29.859 30.0853 9.5105
29.9319 30.0507 9.5024
30.0058 30.0152 9.4945
29.8829 30.7901 10.0053
29.9039 30.7103 9.9514
29.9236 30.6344 9.9007
29.9422 30.5618 9.8527
29.9598 30.4919 9.8069
29.9767 30.4242 9.763
29.9929 30.3582 9.7208
30.0086 30.2936 9.6798
30.0237 30.2299 9.64
30.0385 30.1669 9.6009
30.053 30.1043 9.5626
30.0673 30.0416 9.5246
30.5943 30.2798 9.8072
30.544 30.2505 9.7746
30.4956 30.2222 9.7435
30.4489 30.195 9.7137
30.4038 30.1686 9.6851
30.3601 30.143 9.6575
30.3176 30.118 9.6309
30.2762 30.0937 9.6052
30.2358 30.0699 9.5803
30.1962 30.0465 9.5561
30.1573 30.0235 9.5325
30.1191 30.0009 9.5094
30.0814 29.9785 9.4869
3 442 49 48 0.33847416064420766 0.3239393679119008 0.9819858388333975
3 68 67 245 0.33847416064420766 0.3239393679119008 0.9819858388333975
3 147 550 22 0.33847416064420766 0.3239393679119008 0.9819858388333975
3 22 21 147 0.33847416064420766 0.3239393679119008 0.9819858388333975
3 591 321 590 0.33847416064420766 0.3239393679119008 0.9819858388333975
3 61 60 182 0.33847416064420766 0.3239393679119008 0.9819858388333975
3 59 58 112 0.33847416064420766 0.3239393679119008 0.9819858388333975
3 44 386 172 0.33847416064420766 0.3239393679119008 0.9819858388333975
3 173 506 172 0.33847416064420766 0.3239393679119008 0.9819858388333975
3 172 386 173 0.33847416064420766 0.3239393679119008 0.9819858388333975
3 47 442 48 0.33847416064420766 0.3239393679119008 0.9819858388333975
3 227 47 46 0.33847416064420766 0.3239393679119008 0.9819858388333975
3 442 47 227 0.33847416064420766 0.3239393679119008 0.9819858388333975
3 43 386 44 0.33847416064420766 0.3239393679119008 0.9819858388333975
3 574 42 41 0.33847416064420766 0.3239393679119008 0.9819858388333975
3 116 71 598 0.33847416064420766 0.3239393679119008 0.9819858388333975
3 71 70 598 0.33847416064420766 0.3239393679119008 0.9819858388333975
3 69 68 404 0.33847416064420766 0.3239393679119008 0.9819858388333975
3 404 68 245 0.33847416064420766 0.3239393679119008 0.9819858388333975
3 319 318 114 0.33847416064420766 0.3239393679119008 0.9819858388333975
3 259 258 539 0.33847416064420766 0.3239393679119008 0.9819858388333975
3 413 414 539 0.33847416064420766 0.3239393679119008 0.9819858388333975
3 539 251 413 0.33847416064420766 0.3239393679119008 0.9819858388333975
3 258 251 539 0.33847416064420766 0.3239393679119008 0.9819858388333975
3 413 79 192 0.33847416064420766 0.3239393679119008 0.9819858388333975
3 192 414 413 0.33847416064420766 0.3239393679119008 0.9819858388333975
3 192 79 78 0.33847416064420766 0.3239393679119008 0.9819858388333975
3 429 430 349 0.33847416064420766 0.3239393679119008 0.9819858388333975
3 143 142 433 0.33847416064420766 0.3239393679119008 0.9819858388333975
3 433 434 143 0.33847416064420766 0.3239393679119008 0.9819858388333975
3 143 434 144 0.33847416064420766 0.3239393679119008 0.9819858388333975
3 149 303 304 0.33847416064420766 0.3239393679119008 0.9819858388333975
3 149 552 551 0.33847416064420766 0.3239393679119008 0.9819858388333975
3 143 144 302 0.33847416064420766 0.3239393679119008 0.9819858388333975
3 302 144 303 0.33847416064420766 0.3239393679119008 0.9819858388333975
3 522 521 323 0.33847416064420766 0.3239393679119008 0.9819858388333975
3 519 185 186 0.33847416064420766 0.3239393679119008 0.9819858388333975
3 186 185 321 0.33847416064420766 0.3239393679119008 0.9819858388333975
3 323 593 324 0.33847416064420766 0.3239393679119008 0.9819858388333975
3 324 522 323 0.33847416064420766 0.3239393679119008 0.9819858388333975
3 523 522 324 0.33847416064420766 0.3239393679119008 0.9819858388333975
3 324 593 594 0.33847416064420766 0.3239393679119008 0.9819858388333975
3 402 593 592 0.33847416064420766 0.3239393679119008 0.9819858388333975
3 592 401 402 0.33847416064420766 0.3239393679119008 0.9819858388333975
3 591 401 592 0.33847416064420766 0.3239393679119008 0.9819858388333975
3 592 593 323 0.33847416064420766 0.3239393679119008 0.9819858388333975
3 403 593 402 0.33847416064420766 0.3239393679119008 0.9819858388333975
3 402 450 403 0.33847416064420766 0.3239393679119008 0.9819858388333975
3 594 593 403 0.33847416064420766 0.3239393679119008 0.9819858388333975
3 361 204 205 0.33847416064420766 0.3239393679119008 0.9819858388333975
3 271 310 272 0.33847416064420766 0.3239393679119008 0.9819858388333975
3 309 310 271 0.33847416064420766 0.3239393679119008 0.9819858388333975
3 368 35 32 0.33847416064420766 0.3239393679119008 0.9819858388333975
3 309 35 368 0.33847416064420766 0.3239393679119008 0.9819858388333975
3 221 271 272 0.33847416064420766 0.3239393679119008 0.9819858388333975
3 37 271 221 0.33847416064420766 0.3239393679119008 0.9819858388333975
3 215 30 562 0.33847416064420766 0.3239393679119008 0.9819858388333975
3 44 172 45 0.33847416064420766 0.3239393679119008 0.9819858388333975
3 449 450 402 0.33847416064420766 0.3239393679119008 0.9819858388333975
3 402 401 449 0.33847416064420766 0.3239393679119008 0.9819858388333975
3 176 391 510 0.33847416064420766 0.3239393679119008 0.9819858388333975
3 389 176 175 0.33847416064420766 0.3239393679119008 0.9819858388333975
3 505 227 46 0.33847416064420766 0.3239393679119008 0.9819858388333975
3 46 45 505 0.33847416064420766 0.3239393679119008 0.9819858388333975
3 505 45 172 0.33847416064420766 0.3239393679119008 0.9819858388333975
3 505 172 506 0.33847416064420766 0.3239393679119008 0.9819858388333975
3 442 227 443 0.33847416064420766 0.3239393679119008 0.9819858388333975
3 69 404 187 0.33847416064420766 0.3239393679119008 0.9819858388333975
3 187 70 69 0.33847416064420766 0.3239393679119008 0.9819858388333975
3 187 598 70 0.33847416064420766 0.3239393679119008 0.9819858388333975
3 317 318 182 0.33847416064420766 0.3239393679119008 0.9819858388333975
3 317 59 112 0.33847416064420766 0.3239393679119008 0.9819858388333975
3 182 60 317 0.33847416064420766 0.3239393679119008 0.9819858388333975
3 60 59 317 0.33847416064420766 0.3239393679119008 0.9819858388333975
3 319 114 115 0.33847416064420766 0.3239393679119008 0.9819858388333975
3 590 321 115 0.33847416064420766 0.3239393679119008 0.9819858388333975
3 516 517 279 0.33847416064420766 0.3239393679119008 0.9819858388333975
3 516 61 182 0.33847416064420766 0.3239393679119008 0.9819858388333975
3 461 607 412 0.33847416064420766 0.3239393679119008 0.9819858388333975
3 605 411 412 0.33847416064420766 0.3239393679119008 0.9819858388333975
3 604 411 605 0.33847416064420766 0.3239393679119008 0.9819858388333975
3 325 120 72 0.33847416064420766 0.3239393679119008 0.9819858388333975
3 72 71 116 0.33847416064420766 0.3239393679119008 0.9819858388333975
3 116 325 72 0.33847416064420766 0.3239393679119008 0.9819858388333975
3 462 74 73 0.33847416064420766 0.3239393679119008 0.9819858388333975
3 73 120 462 0.33847416064420766 0.3239393679119008 0.9819858388333975
3 73 72 120 0.33847416064420766 0.3239393679119008 0.9819858388333975
3 414 192 193 0.33847416064420766 0.3239393679119008 0.9819858388333975
3 254 255 261 0.33847416064420766 0.3239393679119008 0.9819858388333975
3 261 255 262 0.33847416064420766 0.3239393679119008 0.9819858388333975
3 80 79 413 0.33847416064420766 0.3239393679119008 0.9819858388333975
3 413 251 80 0.33847416064420766 0.3239393679119008 0.9819858388333975
3 80 251 1 0.33847416064420766 0.3239393679119008 0.9819858388333975
3 128 333 129 0.33847416064420766 0.3239393679119008 0.9819858388333975
3 129 528 128 0.33847416064420766 0.3239393679119008 0.9819858388333975
3 529 528 129 0.33847416064420766 0.3239393679119008 0.9819858388333975
3 124 333 75 0.33847416064420766 0.3239393679119008 0.9819858388333975
3 124 74 462 0.33847416064420766 0.3239393679119008 0.9819858388333975
3 124 75 74 0.33847416064420766 0.3239393679119008 0.9819858388333975
3 75 333 76 0.33847416064420766 0.3239393679119008 0.9819858388333975
3 128 77 76 0.33847416064420766 0.3239393679119008 0.9819858388333975
3 76 333 128 0.33847416064420766 0.3239393679119008 0.9819858388333975
3 195 529 530 0.33847416064420766 0.3239393679119008 0.9819858388333975
3 527 77 128 0.33847416064420766 0.3239393679119008 0.9819858388333975
3 128 528 527 0.33847416064420766 0.3239393679119008 0.9819858388333975
3 528 193 527 0.33847416064420766 0.3239393679119008 0.9819858388333975
3 78 77 527 0.33847416064420766 0.3239393679119008 0.9819858388333975
3 527 192 78 0.33847416064420766 0.3239393679119008 0.9819858388333975
3 527 193 192 0.33847416064420766 0.3239393679119008 0.9819858388333975
3 5 4 85 0.33847416064420766 0.3239393679119008 0.9819858388333975
3 12 11 341 0.33847416064420766 0.3239393679119008 0.9819858388333975
3 477 290 347 0.33847416064420766 0.3239393679119008 0.9819858388333975
3 290 346 347 0.33847416064420766 0.3239393679119008 0.9819858388333975
3 430 429 545 0.33847416064420766 0.3239393679119008 0.9819858388333975
3 134 258 259 0.33847416064420766 0.3239393679119008 0.9819858388333975
3 535 470 536 0.33847416064420766 0.3239393679119008 0.9819858388333975
3 340 470 535 0.33847416064420766 0.3239393679119008 0.9819858388333975
3 536 547 535 0.33847416064420766 0.3239393679119008 0.9819858388333975
3 535 547 421 0.33847416064420766 0.3239393679119008 0.9819858388333975
3 421 547 546 0.33847416064420766 0.3239393679119008 0.9819858388333975
3 420 421 546 0.33847416064420766 0.3239393679119008 0.9819858388333975
3 546 545 420 0.33847416064420766 0.3239393679119008 0.9819858388333975
3 430 545 546 0.33847416064420766 0.3239393679119008 0.9819858388333975
3 355 354 156 0.33847416064420766 0.3239393679119008 0.9819858388333975
3 156 553 554 0.33847416064420766 0.3239393679119008 0.9819858388333975
3 490 356 357 0.33847416064420766 0.3239393679119008 0.9819858388333975
3 356 556 357 0.33847416064420766 0.3239393679119008 0.9819858388333975
3 103 296 295 0.33847416064420766 0.3239393679119008 0.9819858388333975
3 434 433 106 0.33847416064420766 0.3239393679119008 0.9819858388333975
3 295 296 106 0.33847416064420766 0.3239393679119008 0.9819858388333975
3 435 144 434 0.33847416064420766 0.3239393679119008 0.9819858388333975
3 435 297 436 0.33847416064420766 0.3239393679119008 0.9819858388333975
3 303 144 145 0.33847416064420766 0.3239393679119008 0.9819858388333975
3 145 304 303 0.33847416064420766 0.3239393679119008 0.9819858388333975
3 145 435 436 0.33847416064420766 0.3239393679119008 0.9819858388333975
3 144 435 145 0.33847416064420766 0.3239393679119008 0.9819858388333975
3 550 147 148 0.33847416064420766 0.3239393679119008 0.9819858388333975
3 148 551 550 0.33847416064420766 0.3239393679119008 0.9819858388333975
3 149 551 148 0.33847416064420766 0.3239393679119008 0.9819858388333975
3 147 302 148 0.33847416064420766 0.3239393679119008 0.9819858388333975
3 148 303 149 0.33847416064420766 0.3239393679119008 0.9819858388333975
3 148 302 303 0.33847416064420766 0.3239393679119008 0.9819858388333975
3 143 302 301 0.33847416064420766 0.3239393679119008 0.9819858388333975
3 20 142 301 0.33847416064420766 0.3239393679119008 0.9819858388333975
3 301 142 143 0.33847416064420766 0.3239393679119008 0.9819858388333975
3 301 302 147 0.33847416064420766 0.3239393679119008 0.9819858388333975
3 301 21 20 0.33847416064420766 0.3239393679119008 0.9819858388333975
3 301 147 21 0.33847416064420766 0.3239393679119008 0.9819858388333975
3 460 525 461 0.33847416064420766 0.3239393679119008 0.9819858388333975
3 461 412 460 0.33847416064420766 0.3239393679119008 0.9819858388333975
3 460 412 411 0.33847416064420766 0.3239393679119008 0.9819858388333975
3 116 598 599 0.33847416064420766 0.3239393679119008 0.9819858388333975
3 284 523 458 0.33847416064420766 0.3239393679119008 0.9819858388333975
3 284 522 523 0.33847416064420766 0.3239393679119008 0.9819858388333975
3 323 521 322 0.33847416064420766 0.3239393679119008 0.9819858388333975
3 521 186 322 0.33847416064420766 0.3239393679119008 0.9819858388333975
3 322 186 321 0.33847416064420766 0.3239393679119008 0.9819858388333975
3 321 591 322 0.33847416064420766 0.3239393679119008 0.9819858388333975
3 322 592 323 0.33847416064420766 0.3239393679119008 0.9819858388333975
3 591 592 322 0.33847416064420766 0.3239393679119008 0.9819858388333975
3 272 310 311 0.33847416064420766 0.3239393679119008 0.9819858388333975
3 376 502 316 0.33847416064420766 0.3239393679119008 0.9819858388333975
3 376 375 569 0.33847416064420766 0.3239393679119008 0.9819858388333975
3 316 375 376 0.33847416064420766 0.3239393679119008 0.9819858388333975
3 597 585 610 0.33847416064420766 0.3239393679119008 0.9819858388333975
3 596 515 597 0.33847416064420766 0.3239393679119008 0.9819858388333975
3 597 515 585 0.33847416064420766 0.3239393679119008 0.9819858388333975
3 503 571 504 0.33847416064420766 0.3239393679119008 0.9819858388333975
3 504 583 503 0.33847416064420766 0.3239393679119008 0.9819858388333975
3 595 515 596 0.33847416064420766 0.3239393679119008 0.9819858388333975
3 596 525 595 0.33847416064420766 0.3239393679119008 0.9819858388333975
3 484 205 204 0.33847416064420766 0.3239393679119008 0.9819858388333975
3 27 26 203 0.33847416064420766 0.3239393679119008 0.9819858388333975
3 226 277 500 0.33847416064420766 0.3239393679119008 0.9819858388333975
3 277 226 276 0.33847416064420766 0.3239393679119008 0.9819858388333975
3 568 375 374 0.33847416064420766 0.3239393679119008 0.9819858388333975
3 569 375 568 0.33847416064420766 0.3239393679119008 0.9819858388333975
3 316 277 315 0.33847416064420766 0.3239393679119008 0.9819858388333975
3 315 375 316 0.33847416064420766 0.3239393679119008 0.9819858388333975
3 374 375 315 0.33847416064420766 0.3239393679119008 0.9819858388333975
3 277 276 315 0.33847416064420766 0.3239393679119008 0.9819858388333975
3 567 213 214 0.33847416064420766 0.3239393679119008 0.9819858388333975
3 567 568 374 0.33847416064420766 0.3239393679119008 0.9819858388333975
3 214 568 567 0.33847416064420766 0.3239393679119008 0.9819858388333975
3 490 366 489 0.33847416064420766 0.3239393679119008 0.9819858388333975
3 489 356 490 0.33847416064420766 0.3239393679119008 0.9819858388333975
3 367 366 490 0.33847416064420766 0.3239393679119008 0.9819858388333975
3 365 208 488 0.33847416064420766 0.3239393679119008 0.9819858388333975
3 488 489 365 0.33847416064420766 0.3239393679119008 0.9819858388333975
3 365 489 366 0.33847416064420766 0.3239393679119008 0.9819858388333975
3 365 366 569 0.33847416064420766 0.3239393679119008 0.9819858388333975
3 488 208 487 0.33847416064420766 0.3239393679119008 0.9819858388333975
3 486 200 487 0.33847416064420766 0.3239393679119008 0.9819858388333975
3 488 487 201 0.33847416064420766 0.3239393679119008 0.9819858388333975
3 201 487 200 0.33847416064420766 0.3239393679119008 0.9819858388333975
3 550 551 153 0.33847416064420766 0.3239393679119008 0.9819858388333975
3 36 271 37 0.33847416064420766 0.3239393679119008 0.9819858388333975
3 36 35 309 0.33847416064420766 0.3239393679119008 0.9819858388333975
3 309 271 36 0.33847416064420766 0.3239393679119008 0.9819858388333975
3 31 30 215 0.33847416064420766 0.3239393679119008 0.9819858388333975
3 215 368 31 0.33847416064420766 0.3239393679119008 0.9819858388333975
3 31 368 32 0.33847416064420766 0.3239393679119008 0.9819858388333975
3 222 221 272 0.33847416064420766 0.3239393679119008 0.9819858388333975
3 40 39 157 0.33847416064420766 0.3239393679119008 0.9819858388333975
3 157 39 494 0.33847416064420766 0.3239393679119008 0.9819858388333975
3 221 222 494 0.33847416064420766 0.3239393679119008 0.9819858388333975
3 29 562 30 0.33847416064420766 0.3239393679119008 0.9819858388333975
3 562 29 563 0.33847416064420766 0.3239393679119008 0.9819858388333975
3 359 28 27 0.33847416064420766 0.3239393679119008 0.9819858388333975
3 359 210 28 0.33847416064420766 0.3239393679119008 0.9819858388333975
3 27 203 359 0.33847416064420766 0.3239393679119008 0.9819858388333975
3 236 397 235 0.33847416064420766 0.3239393679119008 0.9819858388333975
3 399 400 243 0.33847416064420766 0.3239393679119008 0.9819858388333975
3 244 401 591 0.33847416064420766 0.3239393679119008 0.9819858388333975
3 244 400 401 0.33847416064420766 0.3239393679119008 0.9819858388333975
3 244 591 590 0.33847416064420766 0.3239393679119008 0.9819858388333975
3 244 243 400 0.33847416064420766 0.3239393679119008 0.9819858388333975
3 230 229 507 0.33847416064420766 0.3239393679119008 0.9819858388333975
3 507 506 173 0.33847416064420766 0.3239393679119008 0.9819858388333975
3 507 229 506 0.33847416064420766 0.3239393679119008 0.9819858388333975
3 238 400 399 0.33847416064420766 0.3239393679119008 0.9819858388333975
3 510 391 511 0.33847416064420766 0.3239393679119008 0.9819858388333975
3 448 449 401 0.33847416064420766 0.3239393679119008 0.9819858388333975
3 448 238 447 0.33847416064420766 0.3239393679119008 0.9819858388333975
3 448 511 449 0.33847416064420766 0.3239393679119008 0.9819858388333975
3 401 400 448 0.33847416064420766 0.3239393679119008 0.9819858388333975
3 400 238 448 0.33847416064420766 0.3239393679119008 0.9819858388333975
3 510 511 448 0.33847416064420766 0.3239393679119008 0.9819858388333975
3 509 175 176 0.33847416064420766 0.3239393679119008 0.9819858388333975
3 509 176 510 0.33847416064420766 0.3239393679119008 0.9819858388333975
3 228 505 506 0.33847416064420766 0.3239393679119008 0.9819858388333975
3 227 505 228 0.33847416064420766 0.3239393679119008 0.9819858388333975
3 228 443 227 0.33847416064420766 0.3239393679119008 0.9819858388333975
3 506 229 228 0.33847416064420766 0.3239393679119008 0.9819858388333975
3 396 395 234 0.33847416064420766 0.3239393679119008 0.9819858388333975
3 396 234 235 0.33847416064420766 0.3239393679119008 0.9819858388333975
3 235 397 396 0.33847416064420766 0.3239393679119008 0.9819858388333975
3 396 397 240 0.33847416064420766 0.3239393679119008 0.9819858388333975
3 53 395 54 0.33847416064420766 0.3239393679119008 0.9819858388333975
3 234 395 233 0.33847416064420766 0.3239393679119008 0.9819858388333975
3 442 443 233 0.33847416064420766 0.3239393679119008 0.9819858388333975
3 233 443 234 0.33847416064420766 0.3239393679119008 0.9819858388333975
3 395 53 233 0.33847416064420766 0.3239393679119008 0.9819858388333975
3 233 53 50 0.33847416064420766 0.3239393679119008 0.9819858388333975
3 50 49 233 0.33847416064420766 0.3239393679119008 0.9819858388333975
3 49 442 233 0.33847416064420766 0.3239393679119008 0.9819858388333975
3 391 176 390 0.33847416064420766 0.3239393679119008 0.9819858388333975
3 390 176 389 0.33847416064420766 0.3239393679119008 0.9819858388333975
3 389 170 390 0.33847416064420766 0.3239393679119008 0.9819858388333975
3 173 386 387 0.33847416064420766 0.3239393679119008 0.9819858388333975
3 574 168 167 0.33847416064420766 0.3239393679119008 0.9819858388333975
3 386 43 167 0.33847416064420766 0.3239393679119008 0.9819858388333975
3 167 387 386 0.33847416064420766 0.3239393679119008 0.9819858388333975
3 168 387 167 0.33847416064420766 0.3239393679119008 0.9819858388333975
3 167 43 42 0.33847416064420766 0.3239393679119008 0.9819858388333975
3 42 574 167 0.33847416064420766 0.3239393679119008 0.9819858388333975
3 576 163 164 0.33847416064420766 0.3239393679119008 0.9819858388333975
3 164 163 378 0.33847416064420766 0.3239393679119008 0.9819858388333975
3 575 168 574 0.33847416064420766 0.3239393679119008 0.9819858388333975
3 163 576 575 0.33847416064420766 0.3239393679119008 0.9819858388333975
3 162 574 41 0.33847416064420766 0.3239393679119008 0.9819858388333975
3 41 40 162 0.33847416064420766 0.3239393679119008 0.9819858388333975
3 162 575 574 0.33847416064420766 0.3239393679119008 0.9819858388333975
3 163 575 162 0.33847416064420766 0.3239393679119008 0.9819858388333975
3 279 453 452 0.33847416064420766 0.3239393679119008 0.9819858388333975
3 67 66 452 0.33847416064420766 0.3239393679119008 0.9819858388333975
3 245 67 452 0.33847416064420766 0.3239393679119008 0.9819858388333975
3 452 453 245 0.33847416064420766 0.3239393679119008 0.9819858388333975
3 519 186 520 0.33847416064420766 0.3239393679119008 0.9819858388333975
3 520 186 521 0.33847416064420766 0.3239393679119008 0.9819858388333975
3 519 281 518 0.33847416064420766 0.3239393679119008 0.9819858388333975
3 517 184 518 0.33847416064420766 0.3239393679119008 0.9819858388333975
3 518 185 519 0.33847416064420766 0.3239393679119008 0.9819858388333975
3 518 184 185 0.33847416064420766 0.3239393679119008 0.9819858388333975
3 454 453 280 0.33847416064420766 0.3239393679119008 0.9819858388333975
3 280 281 454 0.33847416064420766 0.3239393679119008 0.9819858388333975
3 280 453 279 0.33847416064420766 0.3239393679119008 0.9819858388333975
3 280 518 281 0.33847416064420766 0.3239393679119008 0.9819858388333975
3 279 517 280 0.33847416064420766 0.3239393679119008 0.9819858388333975
3 517 518 280 0.33847416064420766 0.3239393679119008 0.9819858388333975
3 405 187 404 0.33847416064420766 0.3239393679119008 0.9819858388333975
3 405 247 406 0.33847416064420766 0.3239393679119008 0.9819858388333975
3 246 404 245 0.33847416064420766 0.3239393679119008 0.9819858388333975
3 454 247 246 0.33847416064420766 0.3239393679119008 0.9819858388333975
3 246 405 404 0.33847416064420766 0.3239393679119008 0.9819858388333975
3 247 405 246 0.33847416064420766 0.3239393679119008 0.9819858388333975
3 245 453 246 0.33847416064420766 0.3239393679119008 0.9819858388333975
3 246 453 454 0.33847416064420766 0.3239393679119008 0.9819858388333975
3 454 281 455 0.33847416064420766 0.3239393679119008 0.9819858388333975
3 455 247 454 0.33847416064420766 0.3239393679119008 0.9819858388333975
3 321 185 320 0.33847416064420766 0.3239393679119008 0.9819858388333975
3 320 115 321 0.33847416064420766 0.3239393679119008 0.9819858388333975
3 319 115 320 0.33847416064420766 0.3239393679119008 0.9819858388333975
3 320 184 319 0.33847416064420766 0.3239393679119008 0.9819858388333975
3 185 184 320 0.33847416064420766 0.3239393679119008 0.9819858388333975
3 278 516 279 0.33847416064420766 0.3239393679119008 0.9819858388333975
3 278 63 62 0.33847416064420766 0.3239393679119008 0.9819858388333975
3 62 61 278 0.33847416064420766 0.3239393679119008 0.9819858388333975
3 61 516 278 0.33847416064420766 0.3239393679119008 0.9819858388333975
3 65 63 278 0.33847416064420766 0.3239393679119008 0.9819858388333975
3 278 66 65 0.33847416064420766 0.3239393679119008 0.9819858388333975
3 279 452 278 0.33847416064420766 0.3239393679119008 0.9819858388333975
3 278 452 66 0.33847416064420766 0.3239393679119008 0.9819858388333975
3 605 412 606 0.33847416064420766 0.3239393679119008 0.9819858388333975
3 606 412 607 0.33847416064420766 0.3239393679119008 0.9819858388333975
3 607 470 606 0.33847416064420766 0.3239393679119008 0.9819858388333975
3 526 607 461 0.33847416064420766 0.3239393679119008 0.9819858388333975
3 526 608 607 0.33847416064420766 0.3239393679119008 0.9819858388333975
3 526 597 608 0.33847416064420766 0.3239393679119008 0.9819858388333975
3 596 597 526 0.33847416064420766 0.3239393679119008 0.9819858388333975
3 461 525 526 0.33847416064420766 0.3239393679119008 0.9819858388333975
3 526 525 596 0.33847416064420766 0.3239393679119008 0.9819858388333975
3 536 470 471 0.33847416064420766 0.3239393679119008 0.9819858388333975
3 607 608 471 0.33847416064420766 0.3239393679119008 0.9819858388333975
3 471 470 607 0.33847416064420766 0.3239393679119008 0.9819858388333975
3 340 535 534 0.33847416064420766 0.3239393679119008 0.9819858388333975
3 534 535 421 0.33847416064420766 0.3239393679119008 0.9819858388333975
3 534 421 420 0.33847416064420766 0.3239393679119008 0.9819858388333975
3 420 533 534 0.33847416064420766 0.3239393679119008 0.9819858388333975
3 260 254 261 0.33847416064420766 0.3239393679119008 0.9819858388333975
3 255 254 416 0.33847416064420766 0.3239393679119008 0.9819858388333975
3 195 417 416 0.33847416064420766 0.3239393679119008 0.9819858388333975
3 416 417 255 0.33847416064420766 0.3239393679119008 0.9819858388333975
3 255 417 256 0.33847416064420766 0.3239393679119008 0.9819858388333975
3 256 262 255 0.33847416064420766 0.3239393679119008 0.9819858388333975
3 256 417 418 0.33847416064420766 0.3239393679119008 0.9819858388333975
3 529 129 130 0.33847416064420766 0.3239393679119008 0.9819858388333975
3 130 530 529 0.33847416064420766 0.3239393679119008 0.9819858388333975
3 333 124 334 0.33847416064420766 0.3239393679119008 0.9819858388333975
3 334 129 333 0.33847416064420766 0.3239393679119008 0.9819858388333975
3 335 130 334 0.33847416064420766 0.3239393679119008 0.9819858388333975
3 334 130 129 0.33847416064420766 0.3239393679119008 0.9819858388333975
3 125 124 462 0.33847416064420766 0.3239393679119008 0.9819858388333975
3 335 334 125 0.33847416064420766 0.3239393679119008 0.9819858388333975
3 125 334 124 0.33847416064420766 0.3239393679119008 0.9819858388333975
3 123 329 466 0.33847416064420766 0.3239393679119008 0.9819858388333975
3 338 533 532 0.33847416064420766 0.3239393679119008 0.9819858388333975
3 532 337 338 0.33847416064420766 0.3239393679119008 0.9819858388333975
3 338 337 466 0.33847416064420766 0.3239393679119008 0.9819858388333975
3 466 337 127 0.33847416064420766 0.3239393679119008 0.9819858388333975
3 131 130 335 0.33847416064420766 0.3239393679119008 0.9819858388333975
3 530 130 131 0.33847416064420766 0.3239393679119008 0.9819858388333975
3 196 417 195 0.33847416064420766 0.3239393679119008 0.9819858388333975
3 195 530 196 0.33847416064420766 0.3239393679119008 0.9819858388333975
3 418 417 196 0.33847416064420766 0.3239393679119008 0.9819858388333975
3 422 85 4 0.33847416064420766 0.3239393679119008 0.9819858388333975
3 7 9 8 0.33847416064420766 0.3239393679119008 0.9819858388333975
3 9 7 137 0.33847416064420766 0.3239393679119008 0.9819858388333975
3 428 347 270 0.33847416064420766 0.3239393679119008 0.9819858388333975
3 270 347 346 0.33847416064420766 0.3239393679119008 0.9819858388333975
3 263 545 429 0.33847416064420766 0.3239393679119008 0.9819858388333975
3 263 429 428 0.33847416064420766 0.3239393679119008 0.9819858388333975
3 428 262 263 0.33847416064420766 0.3239393679119008 0.9819858388333975
3 262 256 263 0.33847416064420766 0.3239393679119008 0.9819858388333975
3 299 478 479 0.33847416064420766 0.3239393679119008 0.9819858388333975
3 348 429 349 0.33847416064420766 0.3239393679119008 0.9819858388333975
3 428 429 348 0.33847416064420766 0.3239393679119008 0.9819858388333975
3 348 347 428 0.33847416064420766 0.3239393679119008 0.9819858388333975
3 298 478 299 0.33847416064420766 0.3239393679119008 0.9819858388333975
3 298 437 436 0.33847416064420766 0.3239393679119008 0.9819858388333975
3 299 437 298 0.33847416064420766 0.3239393679119008 0.9819858388333975
3 436 297 298 0.33847416064420766 0.3239393679119008 0.9819858388333975
3 477 478 298 0.33847416064420766 0.3239393679119008 0.9819858388333975
3 298 297 477 0.33847416064420766 0.3239393679119008 0.9819858388333975
3 146 437 306 0.33847416064420766 0.3239393679119008 0.9819858388333975
3 436 437 146 0.33847416064420766 0.3239393679119008 0.9819858388333975
3 146 145 436 0.33847416064420766 0.3239393679119008 0.9819858388333975
3 304 145 146 0.33847416064420766 0.3239393679119008 0.9819858388333975
3 306 437 438 0.33847416064420766 0.3239393679119008 0.9819858388333975
3 438 437 299 0.33847416064420766 0.3239393679119008 0.9819858388333975
3 439 438 300 0.33847416064420766 0.3239393679119008 0.9819858388333975
3 299 479 300 0.33847416064420766 0.3239393679119008 0.9819858388333975
3 300 438 299 0.33847416064420766 0.3239393679119008 0.9819858388333975
3 92 341 89 0.33847416064420766 0.3239393679119008 0.9819858388333975
3 12 341 92 0.33847416064420766 0.3239393679119008 0.9819858388333975
3 94 91 344 0.33847416064420766 0.3239393679119008 0.9819858388333975
3 343 91 94 0.33847416064420766 0.3239393679119008 0.9819858388333975
3 96 285 93 0.33847416064420766 0.3239393679119008 0.9819858388333975
3 14 285 96 0.33847416064420766 0.3239393679119008 0.9819858388333975
3 610 549 609 0.33847416064420766 0.3239393679119008 0.9819858388333975
3 609 597 610 0.33847416064420766 0.3239393679119008 0.9819858388333975
3 608 597 609 0.33847416064420766 0.3239393679119008 0.9819858388333975
3 151 554 553 0.33847416064420766 0.3239393679119008 0.9819858388333975
3 296 103 476 0.33847416064420766 0.3239393679119008 0.9819858388333975
3 476 290 477 0.33847416064420766 0.3239393679119008 0.9819858388333975
3 477 297 476 0.33847416064420766 0.3239393679119008 0.9819858388333975
3 476 297 296 0.33847416064420766 0.3239393679119008 0.9819858388333975
3 296 297 107 0.33847416064420766 0.3239393679119008 0.9819858388333975
3 434 106 107 0.33847416064420766 0.3239393679119008 0.9819858388333975
3 107 106 296 0.33847416064420766 0.3239393679119008 0.9819858388333975
3 107 435 434 0.33847416064420766 0.3239393679119008 0.9819858388333975
3 297 435 107 0.33847416064420766 0.3239393679119008 0.9819858388333975
3 525 460 524 0.33847416064420766 0.3239393679119008 0.9819858388333975
3 524 324 594 0.33847416064420766 0.3239393679119008 0.9819858388333975
3 523 324 524 0.33847416064420766 0.3239393679119008 0.9819858388333975
3 594 595 524 0.33847416064420766 0.3239393679119008 0.9819858388333975
3 524 595 525 0.33847416064420766 0.3239393679119008 0.9819858388333975
3 458 523 459 0.33847416064420766 0.3239393679119008 0.9819858388333975
3 459 460 411 0.33847416064420766 0.3239393679119008 0.9819858388333975
3 523 524 459 0.33847416064420766 0.3239393679119008 0.9819858388333975
3 459 524 460 0.33847416064420766 0.3239393679119008 0.9819858388333975
3 183 318 319 0.33847416064420766 0.3239393679119008 0.9819858388333975
3 319 184 183 0.33847416064420766 0.3239393679119008 0.9819858388333975
3 183 184 517 0.33847416064420766 0.3239393679119008 0.9819858388333975
3 182 318 183 0.33847416064420766 0.3239393679119008 0.9819858388333975
3 183 516 182 0.33847416064420766 0.3239393679119008 0.9819858388333975
3 517 516 183 0.33847416064420766 0.3239393679119008 0.9819858388333975
3 190 408 191 0.33847416064420766 0.3239393679119008 0.9819858388333975
3 407 408 190 0.33847416064420766 0.3239393679119008 0.9819858388333975
3 370 311 310 0.33847416064420766 0.3239393679119008 0.9819858388333975
3 371 311 370 0.33847416064420766 0.3239393679119008 0.9819858388333975
3 275 224 274 0.33847416064420766 0.3239393679119008 0.9819858388333975
3 274 224 223 0.33847416064420766 0.3239393679119008 0.9819858388333975
3 514 583 515 0.33847416064420766 0.3239393679119008 0.9819858388333975
3 570 367 571 0.33847416064420766 0.3239393679119008 0.9819858388333975
3 366 367 570 0.33847416064420766 0.3239393679119008 0.9819858388333975
3 570 571 503 0.33847416064420766 0.3239393679119008 0.9819858388333975
3 569 366 570 0.33847416064420766 0.3239393679119008 0.9819858388333975
3 570 376 569 0.33847416064420766 0.3239393679119008 0.9819858388333975
3 503 502 570 0.33847416064420766 0.3239393679119008 0.9819858388333975
3 502 376 570 0.33847416064420766 0.3239393679119008 0.9819858388333975
3 585 515 584 0.33847416064420766 0.3239393679119008 0.9819858388333975
3 584 504 585 0.33847416064420766 0.3239393679119008 0.9819858388333975
3 515 583 584 0.33847416064420766 0.3239393679119008 0.9819858388333975
3 583 504 584 0.33847416064420766 0.3239393679119008 0.9819858388333975
3 585 504 573 0.33847416064420766 0.3239393679119008 0.9819858388333975
3 610 585 573 0.33847416064420766 0.3239393679119008 0.9819858388333975
3 572 504 571 0.33847416064420766 0.3239393679119008 0.9819858388333975
3 572 492 493 0.33847416064420766 0.3239393679119008 0.9819858388333975
3 493 573 572 0.33847416064420766 0.3239393679119008 0.9819858388333975
3 572 573 504 0.33847416064420766 0.3239393679119008 0.9819858388333975
3 207 206 486 0.33847416064420766 0.3239393679119008 0.9819858388333975
3 486 487 207 0.33847416064420766 0.3239393679119008 0.9819858388333975
3 207 487 208 0.33847416064420766 0.3239393679119008 0.9819858388333975
3 205 206 362 0.33847416064420766 0.3239393679119008 0.9819858388333975
3 361 205 362 0.33847416064420766 0.3239393679119008 0.9819858388333975
3 483 484 204 0.33847416064420766 0.3239393679119008 0.9819858388333975
3 204 203 483 0.33847416064420766 0.3239393679119008 0.9819858388333975
3 483 203 26 0.33847416064420766 0.3239393679119008 0.9819858388333975
3 483 26 25 0.33847416064420766 0.3239393679119008 0.9819858388333975
3 197 483 25 0.33847416064420766 0.3239393679119008 0.9819858388333975
3 484 483 197 0.33847416064420766 0.3239393679119008 0.9819858388333975
3 497 224 225 0.33847416064420766 0.3239393679119008 0.9819858388333975
3 225 224 275 0.33847416064420766 0.3239393679119008 0.9819858388333975
3 275 276 225 0.33847416064420766 0.3239393679119008 0.9819858388333975
3 225 276 226 0.33847416064420766 0.3239393679119008 0.9819858388333975
3 314 276 275 0.33847416064420766 0.3239393679119008 0.9819858388333975
3 314 315 276 0.33847416064420766 0.3239393679119008 0.9819858388333975
3 374 315 314 0.33847416064420766 0.3239393679119008 0.9819858388333975
3 571 367 491 0.33847416064420766 0.3239393679119008 0.9819858388333975
3 491 572 571 0.33847416064420766 0.3239393679119008 0.9819858388333975
3 492 572 491 0.33847416064420766 0.3239393679119008 0.9819858388333975
3 491 367 490 0.33847416064420766 0.3239393679119008 0.9819858388333975
3 358 492 491 0.33847416064420766 0.3239393679119008 0.9819858388333975
3 490 357 491 0.33847416064420766 0.3239393679119008 0.9819858388333975
3 491 357 358 0.33847416064420766 0.3239393679119008 0.9819858388333975
3 354 355 202 0.33847416064420766 0.3239393679119008 0.9819858388333975
3 202 201 354 0.33847416064420766 0.3239393679119008 0.9819858388333975
3 202 355 356 0.33847416064420766 0.3239393679119008 0.9819858388333975
3 356 489 202 0.33847416064420766 0.3239393679119008 0.9819858388333975
3 202 489 488 0.33847416064420766 0.3239393679119008 0.9819858388333975
3 488 201 202 0.33847416064420766 0.3239393679119008 0.9819858388333975
3 154 551 552 0.33847416064420766 0.3239393679119008 0.9819858388333975
3 154 153 551 0.33847416064420766 0.3239393679119008 0.9819858388333975
3 22 550 23 0.33847416064420766 0.3239393679119008 0.9819858388333975
3 495 222 223 0.33847416064420766 0.3239393679119008 0.9819858388333975
3 495 494 222 0.33847416064420766 0.3239393679119008 0.9819858388333975
3 157 494 495 0.33847416064420766 0.3239393679119008 0.9819858388333975
3 38 494 39 0.33847416064420766 0.3239393679119008 0.9819858388333975
3 37 221 38 0.33847416064420766 0.3239393679119008 0.9819858388333975
3 221 494 38 0.33847416064420766 0.3239393679119008 0.9819858388333975
3 564 210 211 0.33847416064420766 0.3239393679119008 0.9819858388333975
3 564 563 210 0.33847416064420766 0.3239393679119008 0.9819858388333975
3 565 564 211 0.33847416064420766 0.3239393679119008 0.9819858388333975
3 218 564 565 0.33847416064420766 0.3239393679119008 0.9819858388333975
3 313 314 275 0.33847416064420766 0.3239393679119008 0.9819858388333975
3 373 314 313 0.33847416064420766 0.3239393679119008 0.9819858388333975
3 275 274 313 0.33847416064420766 0.3239393679119008 0.9819858388333975
3 28 210 209 0.33847416064420766 0.3239393679119008 0.9819858388333975
3 210 563 209 0.33847416064420766 0.3239393679119008 0.9819858388333975
3 209 29 28 0.33847416064420766 0.3239393679119008 0.9819858388333975
3 209 563 29 0.33847416064420766 0.3239393679119008 0.9819858388333975
3 360 359 203 0.33847416064420766 0.3239393679119008 0.9819858388333975
3 361 211 360 0.33847416064420766 0.3239393679119008 0.9819858388333975
3 211 210 360 0.33847416064420766 0.3239393679119008 0.9819858388333975
3 210 359 360 0.33847416064420766 0.3239393679119008 0.9819858388333975
3 360 204 361 0.33847416064420766 0.3239393679119008 0.9819858388333975
3 360 203 204 0.33847416064420766 0.3239393679119008 0.9819858388333975
3 56 108 57 0.33847416064420766 0.3239393679119008 0.9819858388333975
3 56 177 108 0.33847416064420766 0.3239393679119008 0.9819858388333975
3 177 56 55 0.33847416064420766 0.3239393679119008 0.9819858388333975
3 113 114 318 0.33847416064420766 0.3239393679119008 0.9819858388333975
3 113 317 112 0.33847416064420766 0.3239393679119008 0.9819858388333975
3 318 317 113 0.33847416064420766 0.3239393679119008 0.9819858388333975
3 108 109 586 0.33847416064420766 0.3239393679119008 0.9819858388333975
3 57 108 586 0.33847416064420766 0.3239393679119008 0.9819858388333975
3 586 58 57 0.33847416064420766 0.3239393679119008 0.9819858388333975
3 112 58 586 0.33847416064420766 0.3239393679119008 0.9819858388333975
3 240 397 241 0.33847416064420766 0.3239393679119008 0.9819858388333975
3 444 228 229 0.33847416064420766 0.3239393679119008 0.9819858388333975
3 443 228 444 0.33847416064420766 0.3239393679119008 0.9819858388333975
3 235 234 444 0.33847416064420766 0.3239393679119008 0.9819858388333975
3 234 443 444 0.33847416064420766 0.3239393679119008 0.9819858388333975
3 114 113 588 0.33847416064420766 0.3239393679119008 0.9819858388333975
3 181 244 590 0.33847416064420766 0.3239393679119008 0.9819858388333975
3 243 244 181 0.33847416064420766 0.3239393679119008 0.9819858388333975
3 450 449 512 0.33847416064420766 0.3239393679119008 0.9819858388333975
3 449 511 512 0.33847416064420766 0.3239393679119008 0.9819858388333975
3 392 511 391 0.33847416064420766 0.3239393679119008 0.9819858388333975
3 393 512 392 0.33847416064420766 0.3239393679119008 0.9819858388333975
3 392 512 511 0.33847416064420766 0.3239393679119008 0.9819858388333975
3 230 507 508 0.33847416064420766 0.3239393679119008 0.9819858388333975
3 175 509 508 0.33847416064420766 0.3239393679119008 0.9819858388333975
3 510 448 232 0.33847416064420766 0.3239393679119008 0.9819858388333975
3 232 448 447 0.33847416064420766 0.3239393679119008 0.9819858388333975
3 232 509 510 0.33847416064420766 0.3239393679119008 0.9819858388333975
3 395 396 239 0.33847416064420766 0.3239393679119008 0.9819858388333975
3 177 55 239 0.33847416064420766 0.3239393679119008 0.9819858388333975
3 240 177 239 0.33847416064420766 0.3239393679119008 0.9819858388333975
3 239 396 240 0.33847416064420766 0.3239393679119008 0.9819858388333975
3 54 395 239 0.33847416064420766 0.3239393679119008 0.9819858388333975
3 239 55 54 0.33847416064420766 0.3239393679119008 0.9819858388333975
3 499 226 500 0.33847416064420766 0.3239393679119008 0.9819858388333975
3 175 508 174 0.33847416064420766 0.3239393679119008 0.9819858388333975
3 174 508 507 0.33847416064420766 0.3239393679119008 0.9819858388333975
3 174 507 173 0.33847416064420766 0.3239393679119008 0.9819858388333975
3 173 387 174 0.33847416064420766 0.3239393679119008 0.9819858388333975
3 164 378 379 0.33847416064420766 0.3239393679119008 0.9819858388333975
3 379 378 159 0.33847416064420766 0.3239393679119008 0.9819858388333975
3 379 165 164 0.33847416064420766 0.3239393679119008 0.9819858388333975
3 377 40 157 0.33847416064420766 0.3239393679119008 0.9819858388333975
3 377 162 40 0.33847416064420766 0.3239393679119008 0.9819858388333975
3 377 378 163 0.33847416064420766 0.3239393679119008 0.9819858388333975
3 163 162 377 0.33847416064420766 0.3239393679119008 0.9819858388333975
3 329 603 330 0.33847416064420766 0.3239393679119008 0.9819858388333975
3 330 603 604 0.33847416064420766 0.3239393679119008 0.9819858388333975
3 605 606 332 0.33847416064420766 0.3239393679119008 0.9819858388333975
3 332 606 470 0.33847416064420766 0.3239393679119008 0.9819858388333975
3 469 470 340 0.33847416064420766 0.3239393679119008 0.9819858388333975
3 340 468 469 0.33847416064420766 0.3239393679119008 0.9819858388333975
3 469 332 470 0.33847416064420766 0.3239393679119008 0.9819858388333975
3 188 405 406 0.33847416064420766 0.3239393679119008 0.9819858388333975
3 187 405 188 0.33847416064420766 0.3239393679119008 0.9819858388333975
3 598 187 188 0.33847416064420766 0.3239393679119008 0.9819858388333975
3 188 599 598 0.33847416064420766 0.3239393679119008 0.9819858388333975
3 521 522 283 0.33847416064420766 0.3239393679119008 0.9819858388333975
3 522 284 283 0.33847416064420766 0.3239393679119008 0.9819858388333975
3 282 455 281 0.33847416064420766 0.3239393679119008 0.9819858388333975
3 282 281 519 0.33847416064420766 0.3239393679119008 0.9819858388333975
3 519 520 282 0.33847416064420766 0.3239393679119008 0.9819858388333975
3 282 520 521 0.33847416064420766 0.3239393679119008 0.9819858388333975
3 521 283 282 0.33847416064420766 0.3239393679119008 0.9819858388333975
3 247 455 248 0.33847416064420766 0.3239393679119008 0.9819858388333975
3 248 407 406 0.33847416064420766 0.3239393679119008 0.9819858388333975
3 406 247 248 0.33847416064420766 0.3239393679119008 0.9819858388333975
3 191 603 602 0.33847416064420766 0.3239393679119008 0.9819858388333975
3 602 603 329 0.33847416064420766 0.3239393679119008 0.9819858388333975
3 409 603 191 0.33847416064420766 0.3239393679119008 0.9819858388333975
3 191 408 409 0.33847416064420766 0.3239393679119008 0.9819858388333975
3 409 408 250 0.33847416064420766 0.3239393679119008 0.9819858388333975
3 409 250 458 0.33847416064420766 0.3239393679119008 0.9819858388333975
3 537 471 608 0.33847416064420766 0.3239393679119008 0.9819858388333975
3 608 609 537 0.33847416064420766 0.3239393679119008 0.9819858388333975
3 537 609 549 0.33847416064420766 0.3239393679119008 0.9819858388333975
3 536 471 537 0.33847416064420766 0.3239393679119008 0.9819858388333975
3 254 260 540 0.33847416064420766 0.3239393679119008 0.9819858388333975
3 540 260 259 0.33847416064420766 0.3239393679119008 0.9819858388333975
3 259 539 540 0.33847416064420766 0.3239393679119008 0.9819858388333975
3 540 539 414 0.33847416064420766 0.3239393679119008 0.9819858388333975
3 415 416 254 0.33847416064420766 0.3239393679119008 0.9819858388333975
3 254 540 415 0.33847416064420766 0.3239393679119008 0.9819858388333975
3 414 193 415 0.33847416064420766 0.3239393679119008 0.9819858388333975
3 415 540 414 0.33847416064420766 0.3239393679119008 0.9819858388333975
3 194 529 195 0.33847416064420766 0.3239393679119008 0.9819858388333975
3 195 416 194 0.33847416064420766 0.3239393679119008 0.9819858388333975
3 194 528 529 0.33847416064420766 0.3239393679119008 0.9819858388333975
3 416 415 194 0.33847416064420766 0.3239393679119008 0.9819858388333975
3 194 193 528 0.33847416064420766 0.3239393679119008 0.9819858388333975
3 194 415 193 0.33847416064420766 0.3239393679119008 0.9819858388333975
3 463 125 462 0.33847416064420766 0.3239393679119008 0.9819858388333975
3 462 120 463 0.33847416064420766 0.3239393679119008 0.9819858388333975
3 467 338 466 0.33847416064420766 0.3239393679119008 0.9819858388333975
3 467 330 468 0.33847416064420766 0.3239393679119008 0.9819858388333975
3 466 329 467 0.33847416064420766 0.3239393679119008 0.9819858388333975
3 329 330 467 0.33847416064420766 0.3239393679119008 0.9819858388333975
3 339 534 533 0.33847416064420766 0.3239393679119008 0.9819858388333975
3 533 338 339 0.33847416064420766 0.3239393679119008 0.9819858388333975
3 340 534 339 0.33847416064420766 0.3239393679119008 0.9819858388333975
3 339 468 340 0.33847416064420766 0.3239393679119008 0.9819858388333975
3 339 467 468 0.33847416064420766 0.3239393679119008 0.9819858388333975
3 338 467 339 0.33847416064420766 0.3239393679119008 0.9819858388333975
3 464 127 126 0.33847416064420766 0.3239393679119008 0.9819858388333975
3 335 125 126 0.33847416064420766 0.3239393679119008 0.9819858388333975
3 126 463 464 0.33847416064420766 0.3239393679119008 0.9819858388333975
3 125 463 126 0.33847416064420766 0.3239393679119008 0.9819858388333975
3 465 127 464 0.33847416064420766 0.3239393679119008 0.9819858388333975
3 465 123 466 0.33847416064420766 0.3239393679119008 0.9819858388333975
3 466 127 465 0.33847416064420766 0.3239393679119008 0.9819858388333975
3 336 127 337 0.33847416064420766 0.3239393679119008 0.9819858388333975
3 336 131 335 0.33847416064420766 0.3239393679119008 0.9819858388333975
3 335 126 336 0.33847416064420766 0.3239393679119008 0.9819858388333975
3 336 126 127 0.33847416064420766 0.3239393679119008 0.9819858388333975
3 531 337 532 0.33847416064420766 0.3239393679119008 0.9819858388333975
3 531 336 337 0.33847416064420766 0.3239393679119008 0.9819858388333975
3 131 336 531 0.33847416064420766 0.3239393679119008 0.9819858388333975
3 531 532 418 0.33847416064420766 0.3239393679119008 0.9819858388333975
3 418 196 531 0.33847416064420766 0.3239393679119008 0.9819858388333975
3 530 131 531 0.33847416064420766 0.3239393679119008 0.9819858388333975
3 531 196 530 0.33847416064420766 0.3239393679119008 0.9819858388333975
3 3 2 82 0.33847416064420766 0.3239393679119008 0.9819858388333975
3 3 422 4 0.33847416064420766 0.3239393679119008 0.9819858388333975
3 82 422 3 0.33847416064420766 0.3239393679119008 0.9819858388333975
3 257 133 83 0.33847416064420766 0.3239393679119008 0.9819858388333975
3 257 2 1 0.33847416064420766 0.3239393679119008 0.9819858388333975
3 1 251 257 0.33847416064420766 0.3239393679119008 0.9819858388333975
3 257 251 258 0.33847416064420766 0.3239393679119008 0.9819858388333975
3 258 133 257 0.33847416064420766 0.3239393679119008 0.9819858388333975
3 6 137 7 0.33847416064420766 0.3239393679119008 0.9819858388333975
3 9 137 10 0.33847416064420766 0.3239393679119008 0.9819858388333975
3 474 288 99 0.33847416064420766 0.3239393679119008 0.9819858388333975
3 545 263 544 0.33847416064420766 0.3239393679119008 0.9819858388333975
3 544 256 418 0.33847416064420766 0.3239393679119008 0.9819858388333975
3 544 263 256 0.33847416064420766 0.3239393679119008 0.9819858388333975
3 292 479 478 0.33847416064420766 0.3239393679119008 0.9819858388333975
3 478 348 292 0.33847416064420766 0.3239393679119008 0.9819858388333975
3 349 479 292 0.33847416064420766 0.3239393679119008 0.9819858388333975
3 292 348 349 0.33847416064420766 0.3239393679119008 0.9819858388333975
3 291 478 477 0.33847416064420766 0.3239393679119008 0.9819858388333975
3 291 348 478 0.33847416064420766 0.3239393679119008 0.9819858388333975
3 477 347 291 0.33847416064420766 0.3239393679119008 0.9819858388333975
3 347 348 291 0.33847416064420766 0.3239393679119008 0.9819858388333975
3 96 93 286 0.33847416064420766 0.3239393679119008 0.9819858388333975
3 286 93 343 0.33847416064420766 0.3239393679119008 0.9819858388333975
3 343 94 286 0.33847416064420766 0.3239393679119008 0.9819858388333975
3 285 14 13 0.33847416064420766 0.3239393679119008 0.9819858388333975
3 12 92 13 0.33847416064420766 0.3239393679119008 0.9819858388333975
3 13 92 285 0.33847416064420766 0.3239393679119008 0.9819858388333975
3 561 549 610 0.33847416064420766 0.3239393679119008 0.9819858388333975
3 610 573 561 0.33847416064420766 0.3239393679119008 0.9819858388333975
3 493 560 561 0.33847416064420766 0.3239393679119008 0.9819858388333975
3 561 573 493 0.33847416064420766 0.3239393679119008 0.9819858388333975
3 480 479 349 0.33847416064420766 0.3239393679119008 0.9819858388333975
3 480 300 479 0.33847416064420766 0.3239393679119008 0.9819858388333975
3 439 300 480 0.33847416064420766 0.3239393679119008 0.9819858388333975
3 430 546 431 0.33847416064420766 0.3239393679119008 0.9819858388333975
3 431 546 547 0.33847416064420766 0.3239393679119008 0.9819858388333975
3 481 480 431 0.33847416064420766 0.3239393679119008 0.9819858388333975
3 349 430 431 0.33847416064420766 0.3239393679119008 0.9819858388333975
3 431 480 349 0.33847416064420766 0.3239393679119008 0.9819858388333975
3 150 151 553 0.33847416064420766 0.3239393679119008 0.9819858388333975
3 150 552 149 0.33847416064420766 0.3239393679119008 0.9819858388333975
3 150 553 552 0.33847416064420766 0.3239393679119008 0.9819858388333975
3 149 304 150 0.33847416064420766 0.3239393679119008 0.9819858388333975
3 304 146 305 0.33847416064420766 0.3239393679119008 0.9819858388333975
3 305 150 304 0.33847416064420766 0.3239393679119008 0.9819858388333975
3 151 150 305 0.33847416064420766 0.3239393679119008 0.9819858388333975
3 305 146 306 0.33847416064420766 0.3239393679119008 0.9819858388333975
3 306 151 305 0.33847416064420766 0.3239393679119008 0.9819858388333975
3 554 151 555 0.33847416064420766 0.3239393679119008 0.9819858388333975
3 156 554 555 0.33847416064420766 0.3239393679119008 0.9819858388333975
3 555 151 306 0.33847416064420766 0.3239393679119008 0.9819858388333975
3 555 355 156 0.33847416064420766 0.3239393679119008 0.9819858388333975
3 356 355 555 0.33847416064420766 0.3239393679119008 0.9819858388333975
3 555 556 356 0.33847416064420766 0.3239393679119008 0.9819858388333975
3 557 308 558 0.33847416064420766 0.3239393679119008 0.9819858388333975
3 556 308 557 0.33847416064420766 0.3239393679119008 0.9819858388333975
3 557 357 556 0.33847416064420766 0.3239393679119008 0.9819858388333975
3 558 358 557 0.33847416064420766 0.3239393679119008 0.9819858388333975
3 358 357 557 0.33847416064420766 0.3239393679119008 0.9819858388333975
3 307 308 556 0.33847416064420766 0.3239393679119008 0.9819858388333975
3 307 555 306 0.33847416064420766 0.3239393679119008 0.9819858388333975
3 556 555 307 0.33847416064420766 0.3239393679119008 0.9819858388333975
3 439 308 307 0.33847416064420766 0.3239393679119008 0.9819858388333975
3 306 438 307 0.33847416064420766 0.3239393679119008 0.9819858388333975
3 307 438 439 0.33847416064420766 0.3239393679119008 0.9819858388333975
3 369 370 310 0.33847416064420766 0.3239393679119008 0.9819858388333975
3 369 310 309 0.33847416064420766 0.3239393679119008 0.9819858388333975
3 369 368 215 0.33847416064420766 0.3239393679119008 0.9819858388333975
3 309 368 369 0.33847416064420766 0.3239393679119008 0.9819858388333975
3 215 562 216 0.33847416064420766 0.3239393679119008 0.9819858388333975
3 216 369 215 0.33847416064420766 0.3239393679119008 0.9819858388333975
3 370 369 216 0.33847416064420766 0.3239393679119008 0.9819858388333975
3 562 563 216 0.33847416064420766 0.3239393679119008 0.9819858388333975
3 212 211 361 0.33847416064420766 0.3239393679119008 0.9819858388333975
3 361 362 212 0.33847416064420766 0.3239393679119008 0.9819858388333975
3 212 565 211 0.33847416064420766 0.3239393679119008 0.9819858388333975
3 566 565 212 0.33847416064420766 0.3239393679119008 0.9819858388333975
3 213 566 212 0.33847416064420766 0.3239393679119008 0.9819858388333975
3 212 362 213 0.33847416064420766 0.3239393679119008 0.9819858388333975
3 373 566 220 0.33847416064420766 0.3239393679119008 0.9819858388333975
3 374 314 220 0.33847416064420766 0.3239393679119008 0.9819858388333975
3 220 314 373 0.33847416064420766 0.3239393679119008 0.9819858388333975
3 220 567 374 0.33847416064420766 0.3239393679119008 0.9819858388333975
3 213 567 220 0.33847416064420766 0.3239393679119008 0.9819858388333975
3 220 566 213 0.33847416064420766 0.3239393679119008 0.9819858388333975
3 273 274 223 0.33847416064420766 0.3239393679119008 0.9819858388333975
3 272 311 273 0.33847416064420766 0.3239393679119008 0.9819858388333975
3 273 222 272 0.33847416064420766 0.3239393679119008 0.9819858388333975
3 223 222 273 0.33847416064420766 0.3239393679119008 0.9819858388333975
3 515 595 451 0.33847416064420766 0.3239393679119008 0.9819858388333975
3 451 514 515 0.33847416064420766 0.3239393679119008 0.9819858388333975
3 594 403 451 0.33847416064420766 0.3239393679119008 0.9819858388333975
3 451 595 594 0.33847416064420766 0.3239393679119008 0.9819858388333975
3 451 403 450 0.33847416064420766 0.3239393679119008 0.9819858388333975
3 364 207 208 0.33847416064420766 0.3239393679119008 0.9819858388333975
3 208 365 364 0.33847416064420766 0.3239393679119008 0.9819858388333975
3 364 568 214 0.33847416064420766 0.3239393679119008 0.9819858388333975
3 569 568 364 0.33847416064420766 0.3239393679119008 0.9819858388333975
3 364 365 569 0.33847416064420766 0.3239393679119008 0.9819858388333975
3 206 207 363 0.33847416064420766 0.3239393679119008 0.9819858388333975
3 363 362 206 0.33847416064420766 0.3239393679119008 0.9819858388333975
3 363 364 214 0.33847416064420766 0.3239393679119008 0.9819858388333975
3 207 364 363 0.33847416064420766 0.3239393679119008 0.9819858388333975
3 214 213 363 0.33847416064420766 0.3239393679119008 0.9819858388333975
3 213 362 363 0.33847416064420766 0.3239393679119008 0.9819858388333975
3 486 206 485 0.33847416064420766 0.3239393679119008 0.9819858388333975
3 485 206 205 0.33847416064420766 0.3239393679119008 0.9819858388333975
3 205 484 485 0.33847416064420766 0.3239393679119008 0.9819858388333975
3 552 553 155 0.33847416064420766 0.3239393679119008 0.9819858388333975
3 155 154 552 0.33847416064420766 0.3239393679119008 0.9819858388333975
3 155 553 156 0.33847416064420766 0.3239393679119008 0.9819858388333975
3 156 354 155 0.33847416064420766 0.3239393679119008 0.9819858388333975
3 153 154 352 0.33847416064420766 0.3239393679119008 0.9819858388333975
3 550 153 152 0.33847416064420766 0.3239393679119008 0.9819858388333975
3 152 23 550 0.33847416064420766 0.3239393679119008 0.9819858388333975
3 152 350 23 0.33847416064420766 0.3239393679119008 0.9819858388333975
3 496 495 223 0.33847416064420766 0.3239393679119008 0.9819858388333975
3 497 159 496 0.33847416064420766 0.3239393679119008 0.9819858388333975
3 496 224 497 0.33847416064420766 0.3239393679119008 0.9819858388333975
3 223 224 496 0.33847416064420766 0.3239393679119008 0.9819858388333975
3 159 378 158 0.33847416064420766 0.3239393679119008 0.9819858388333975
3 158 496 159 0.33847416064420766 0.3239393679119008 0.9819858388333975
3 495 496 158 0.33847416064420766 0.3239393679119008 0.9819858388333975
3 157 495 158 0.33847416064420766 0.3239393679119008 0.9819858388333975
3 158 377 157 0.33847416064420766 0.3239393679119008 0.9819858388333975
3 378 377 158 0.33847416064420766 0.3239393679119008 0.9819858388333975
3 219 566 373 0.33847416064420766 0.3239393679119008 0.9819858388333975
3 219 565 566 0.33847416064420766 0.3239393679119008 0.9819858388333975
3 312 313 274 0.33847416064420766 0.3239393679119008 0.9819858388333975
3 312 311 371 0.33847416064420766 0.3239393679119008 0.9819858388333975
3 312 273 311 0.33847416064420766 0.3239393679119008 0.9819858388333975
3 274 273 312 0.33847416064420766 0.3239393679119008 0.9819858388333975
3 587 586 109 0.33847416064420766 0.3239393679119008 0.9819858388333975
3 587 588 113 0.33847416064420766 0.3239393679119008 0.9819858388333975
3 587 113 112 0.33847416064420766 0.3239393679119008 0.9819858388333975
3 112 586 587 0.33847416064420766 0.3239393679119008 0.9819858388333975
3 240 241 178 0.33847416064420766 0.3239393679119008 0.9819858388333975
3 178 109 108 0.33847416064420766 0.3239393679119008 0.9819858388333975
3 178 177 240 0.33847416064420766 0.3239393679119008 0.9819858388333975
3 108 177 178 0.33847416064420766 0.3239393679119008 0.9819858388333975
3 397 236 398 0.33847416064420766 0.3239393679119008 0.9819858388333975
3 398 241 397 0.33847416064420766 0.3239393679119008 0.9819858388333975
3 230 446 445 0.33847416064420766 0.3239393679119008 0.9819858388333975
3 445 446 236 0.33847416064420766 0.3239393679119008 0.9819858388333975
3 445 229 230 0.33847416064420766 0.3239393679119008 0.9819858388333975
3 445 444 229 0.33847416064420766 0.3239393679119008 0.9819858388333975
3 445 236 235 0.33847416064420766 0.3239393679119008 0.9819858388333975
3 235 444 445 0.33847416064420766 0.3239393679119008 0.9819858388333975
3 231 446 230 0.33847416064420766 0.3239393679119008 0.9819858388333975
3 230 508 231 0.33847416064420766 0.3239393679119008 0.9819858388333975
3 231 508 509 0.33847416064420766 0.3239393679119008 0.9819858388333975
3 447 446 231 0.33847416064420766 0.3239393679119008 0.9819858388333975
3 231 232 447 0.33847416064420766 0.3239393679119008 0.9819858388333975
3 509 232 231 0.33847416064420766 0.3239393679119008 0.9819858388333975
3 589 115 114 0.33847416064420766 0.3239393679119008 0.9819858388333975
3 114 588 589 0.33847416064420766 0.3239393679119008 0.9819858388333975
3 590 115 589 0.33847416064420766 0.3239393679119008 0.9819858388333975
3 589 181 590 0.33847416064420766 0.3239393679119008 0.9819858388333975
3 243 181 180 0.33847416064420766 0.3239393679119008 0.9819858388333975
3 450 512 513 0.33847416064420766 0.3239393679119008 0.9819858388333975
3 513 512 393 0.33847416064420766 0.3239393679119008 0.9819858388333975
3 513 451 450 0.33847416064420766 0.3239393679119008 0.9819858388333975
3 514 451 513 0.33847416064420766 0.3239393679119008 0.9819858388333975
3 385 502 503 0.33847416064420766 0.3239393679119008 0.9819858388333975
3 503 583 385 0.33847416064420766 0.3239393679119008 0.9819858388333975
3 583 582 385 0.33847416064420766 0.3239393679119008 0.9819858388333975
3 583 514 394 0.33847416064420766 0.3239393679119008 0.9819858388333975
3 394 582 583 0.33847416064420766 0.3239393679119008 0.9819858388333975
3 514 513 394 0.33847416064420766 0.3239393679119008 0.9819858388333975
3 394 513 393 0.33847416064420766 0.3239393679119008 0.9819858388333975
3 382 499 500 0.33847416064420766 0.3239393679119008 0.9819858388333975
3 577 576 164 0.33847416064420766 0.3239393679119008 0.9819858388333975
3 164 165 577 0.33847416064420766 0.3239393679119008 0.9819858388333975
3 170 576 577 0.33847416064420766 0.3239393679119008 0.9819858388333975
3 497 225 498 0.33847416064420766 0.3239393679119008 0.9819858388333975
3 498 225 226 0.33847416064420766 0.3239393679119008 0.9819858388333975
3 226 499 498 0.33847416064420766 0.3239393679119008 0.9819858388333975
3 169 170 389 0.33847416064420766 0.3239393679119008 0.9819858388333975
3 169 576 170 0.33847416064420766 0.3239393679119008 0.9819858388333975
3 168 575 169 0.33847416064420766 0.3239393679119008 0.9819858388333975
3 169 575 576 0.33847416064420766 0.3239393679119008 0.9819858388333975
3 160 159 497 0.33847416064420766 0.3239393679119008 0.9819858388333975
3 160 379 159 0.33847416064420766 0.3239393679119008 0.9819858388333975
3 497 498 160 0.33847416064420766 0.3239393679119008 0.9819858388333975
3 468 330 331 0.33847416064420766 0.3239393679119008 0.9819858388333975
3 331 469 468 0.33847416064420766 0.3239393679119008 0.9819858388333975
3 332 469 331 0.33847416064420766 0.3239393679119008 0.9819858388333975
3 331 330 604 0.33847416064420766 0.3239393679119008 0.9819858388333975
3 331 604 605 0.33847416064420766 0.3239393679119008 0.9819858388333975
3 605 332 331 0.33847416064420766 0.3239393679119008 0.9819858388333975
3 599 188 189 0.33847416064420766 0.3239393679119008 0.9819858388333975
3 189 188 406 0.33847416064420766 0.3239393679119008 0.9819858388333975
3 406 407 189 0.33847416064420766 0.3239393679119008 0.9819858388333975
3 407 190 189 0.33847416064420766 0.3239393679119008 0.9819858388333975
3 457 283 284 0.33847416064420766 0.3239393679119008 0.9819858388333975
3 458 250 457 0.33847416064420766 0.3239393679119008 0.9819858388333975
3 457 284 458 0.33847416064420766 0.3239393679119008 0.9819858388333975
3 456 248 455 0.33847416064420766 0.3239393679119008 0.9819858388333975
3 455 282 456 0.33847416064420766 0.3239393679119008 0.9819858388333975
3 456 282 283 0.33847416064420766 0.3239393679119008 0.9819858388333975
3 283 457 456 0.33847416064420766 0.3239393679119008 0.9819858388333975
3 604 603 410 0.33847416064420766 0.3239393679119008 0.9819858388333975
3 603 409 410 0.33847416064420766 0.3239393679119008 0.9819858388333975
3 411 604 410 0.33847416064420766 0.3239393679119008 0.9819858388333975
3 410 459 411 0.33847416064420766 0.3239393679119008 0.9819858388333975
3 458 459 410 0.33847416064420766 0.3239393679119008 0.9819858388333975
3 410 409 458 0.33847416064420766 0.3239393679119008 0.9819858388333975
3 482 441 481 0.33847416064420766 0.3239393679119008 0.9819858388333975
3 560 441 482 0.33847416064420766 0.3239393679119008 0.9819858388333975
3 549 561 482 0.33847416064420766 0.3239393679119008 0.9819858388333975
3 482 561 560 0.33847416064420766 0.3239393679119008 0.9819858388333975
3 267 425 141 0.33847416064420766 0.3239393679119008 0.9819858388333975
3 344 91 141 0.33847416064420766 0.3239393679119008 0.9819858388333975
3 141 91 267 0.33847416064420766 0.3239393679119008 0.9819858388333975
3 135 134 259 0.33847416064420766 0.3239393679119008 0.9819858388333975
3 135 425 134 0.33847416064420766 0.3239393679119008 0.9819858388333975
3 259 260 135 0.33847416064420766 0.3239393679119008 0.9819858388333975
3 122 465 464 0.33847416064420766 0.3239393679119008 0.9819858388333975
3 123 465 122 0.33847416064420766 0.3239393679119008 0.9819858388333975
3 258 134 84 0.33847416064420766 0.3239393679119008 0.9819858388333975
3 84 133 258 0.33847416064420766 0.3239393679119008 0.9819858388333975
3 84 425 267 0.33847416064420766 0.3239393679119008 0.9819858388333975
3 134 425 84 0.33847416064420766 0.3239393679119008 0.9819858388333975
3 267 91 140 0.33847416064420766 0.3239393679119008 0.9819858388333975
3 140 91 343 0.33847416064420766 0.3239393679119008 0.9819858388333975
3 342 92 89 0.33847416064420766 0.3239393679119008 0.9819858388333975
3 285 92 342 0.33847416064420766 0.3239393679119008 0.9819858388333975
3 342 93 285 0.33847416064420766 0.3239393679119008 0.9819858388333975
3 343 93 90 0.33847416064420766 0.3239393679119008 0.9819858388333975
3 90 140 343 0.33847416064420766 0.3239393679119008 0.9819858388333975
3 266 140 90 0.33847416064420766 0.3239393679119008 0.9819858388333975
3 93 342 90 0.33847416064420766 0.3239393679119008 0.9819858388333975
3 85 422 265 0.33847416064420766 0.3239393679119008 0.9819858388333975
3 82 2 132 0.33847416064420766 0.3239393679119008 0.9819858388333975
3 2 257 132 0.33847416064420766 0.3239393679119008 0.9819858388333975
3 132 257 83 0.33847416064420766 0.3239393679119008 0.9819858388333975
3 88 10 137 0.33847416064420766 0.3239393679119008 0.9819858388333975
3 88 341 11 0.33847416064420766 0.3239393679119008 0.9819858388333975
3 11 10 88 0.33847416064420766 0.3239393679119008 0.9819858388333975
3 474 99 102 0.33847416064420766 0.3239393679119008 0.9819858388333975
3 289 346 290 0.33847416064420766 0.3239393679119008 0.9819858388333975
3 290 476 289 0.33847416064420766 0.3239393679119008 0.9819858388333975
3 545 544 419 0.33847416064420766 0.3239393679119008 0.9819858388333975
3 532 533 419 0.33847416064420766 0.3239393679119008 0.9819858388333975
3 418 532 419 0.33847416064420766 0.3239393679119008 0.9819858388333975
3 419 544 418 0.33847416064420766 0.3239393679119008 0.9819858388333975
3 419 533 420 0.33847416064420766 0.3239393679119008 0.9819858388333975
3 420 545 419 0.33847416064420766 0.3239393679119008 0.9819858388333975
3 474 102 101 0.33847416064420766 0.3239393679119008 0.9819858388333975
3 97 286 94 0.33847416064420766 0.3239393679119008 0.9819858388333975
3 473 97 287 0.33847416064420766 0.3239393679119008 0.9819858388333975
3 287 94 344 0.33847416064420766 0.3239393679119008 0.9819858388333975
3 287 97 94 0.33847416064420766 0.3239393679119008 0.9819858388333975
3 98 288 474 0.33847416064420766 0.3239393679119008 0.9819858388333975
3 474 101 98 0.33847416064420766 0.3239393679119008 0.9819858388333975
3 98 101 473 0.33847416064420766 0.3239393679119008 0.9819858388333975
3 473 287 98 0.33847416064420766 0.3239393679119008 0.9819858388333975
3 19 142 20 0.33847416064420766 0.3239393679119008 0.9819858388333975
3 295 106 105 0.33847416064420766 0.3239393679119008 0.9819858388333975
3 105 106 433 0.33847416064420766 0.3239393679119008 0.9819858388333975
3 558 441 559 0.33847416064420766 0.3239393679119008 0.9819858388333975
3 559 441 560 0.33847416064420766 0.3239393679119008 0.9819858388333975
3 559 358 558 0.33847416064420766 0.3239393679119008 0.9819858388333975
3 559 560 493 0.33847416064420766 0.3239393679119008 0.9819858388333975
3 493 492 559 0.33847416064420766 0.3239393679119008 0.9819858388333975
3 559 492 358 0.33847416064420766 0.3239393679119008 0.9819858388333975
3 558 308 440 0.33847416064420766 0.3239393679119008 0.9819858388333975
3 440 441 558 0.33847416064420766 0.3239393679119008 0.9819858388333975
3 440 308 439 0.33847416064420766 0.3239393679119008 0.9819858388333975
3 481 441 440 0.33847416064420766 0.3239393679119008 0.9819858388333975
3 439 480 440 0.33847416064420766 0.3239393679119008 0.9819858388333975
3 440 480 481 0.33847416064420766 0.3239393679119008 0.9819858388333975
3 217 216 563 0.33847416064420766 0.3239393679119008 0.9819858388333975
3 370 216 217 0.33847416064420766 0.3239393679119008 0.9819858388333975
3 371 370 217 0.33847416064420766 0.3239393679119008 0.9819858388333975
3 563 564 217 0.33847416064420766 0.3239393679119008 0.9819858388333975
3 217 218 371 0.33847416064420766 0.3239393679119008 0.9819858388333975
3 217 564 218 0.33847416064420766 0.3239393679119008 0.9819858388333975
3 23 350 24 0.33847416064420766 0.3239393679119008 0.9819858388333975
3 24 197 25 0.33847416064420766 0.3239393679119008 0.9819858388333975
3 24 350 197 0.33847416064420766 0.3239393679119008 0.9819858388333975
3 154 155 353 0.33847416064420766 0.3239393679119008 0.9819858388333975
3 353 352 154 0.33847416064420766 0.3239393679119008 0.9819858388333975
3 353 155 354 0.33847416064420766 0.3239393679119008 0.9819858388333975
3 200 352 353 0.33847416064420766 0.3239393679119008 0.9819858388333975
3 354 201 353 0.33847416064420766 0.3239393679119008 0.9819858388333975
3 353 201 200 0.33847416064420766 0.3239393679119008 0.9819858388333975
3 153 352 351 0.33847416064420766 0.3239393679119008 0.9819858388333975
3 351 152 153 0.33847416064420766 0.3239393679119008 0.9819858388333975
3 350 152 351 0.33847416064420766 0.3239393679119008 0.9819858388333975
3 313 312 372 0.33847416064420766 0.3239393679119008 0.9819858388333975
3 218 565 372 0.33847416064420766 0.3239393679119008 0.9819858388333975
3 565 219 372 0.33847416064420766 0.3239393679119008 0.9819858388333975
3 373 313 372 0.33847416064420766 0.3239393679119008 0.9819858388333975
3 372 219 373 0.33847416064420766 0.3239393679119008 0.9819858388333975
3 371 218 372 0.33847416064420766 0.3239393679119008 0.9819858388333975
3 372 312 371 0.33847416064420766 0.3239393679119008 0.9819858388333975
3 236 446 237 0.33847416064420766 0.3239393679119008 0.9819858388333975
3 237 398 236 0.33847416064420766 0.3239393679119008 0.9819858388333975
3 399 398 237 0.33847416064420766 0.3239393679119008 0.9819858388333975
3 237 238 399 0.33847416064420766 0.3239393679119008 0.9819858388333975
3 447 238 237 0.33847416064420766 0.3239393679119008 0.9819858388333975
3 237 446 447 0.33847416064420766 0.3239393679119008 0.9819858388333975
3 241 398 242 0.33847416064420766 0.3239393679119008 0.9819858388333975
3 242 398 399 0.33847416064420766 0.3239393679119008 0.9819858388333975
3 399 243 242 0.33847416064420766 0.3239393679119008 0.9819858388333975
3 243 180 242 0.33847416064420766 0.3239393679119008 0.9819858388333975
3 110 587 109 0.33847416064420766 0.3239393679119008 0.9819858388333975
3 588 587 110 0.33847416064420766 0.3239393679119008 0.9819858388333975
3 111 589 588 0.33847416064420766 0.3239393679119008 0.9819858388333975
3 588 110 111 0.33847416064420766 0.3239393679119008 0.9819858388333975
3 111 110 180 0.33847416064420766 0.3239393679119008 0.9819858388333975
3 181 589 111 0.33847416064420766 0.3239393679119008 0.9819858388333975
3 111 180 181 0.33847416064420766 0.3239393679119008 0.9819858388333975
3 502 385 384 0.33847416064420766 0.3239393679119008 0.9819858388333975
3 384 385 582 0.33847416064420766 0.3239393679119008 0.9819858388333975
3 393 392 580 0.33847416064420766 0.3239393679119008 0.9819858388333975
3 578 577 165 0.33847416064420766 0.3239393679119008 0.9819858388333975
3 161 498 499 0.33847416064420766 0.3239393679119008 0.9819858388333975
3 161 382 381 0.33847416064420766 0.3239393679119008 0.9819858388333975
3 499 382 161 0.33847416064420766 0.3239393679119008 0.9819858388333975
3 161 160 498 0.33847416064420766 0.3239393679119008 0.9819858388333975
3 388 174 387 0.33847416064420766 0.3239393679119008 0.9819858388333975
3 388 387 168 0.33847416064420766 0.3239393679119008 0.9819858388333975
3 168 169 388 0.33847416064420766 0.3239393679119008 0.9819858388333975
3 388 169 389 0.33847416064420766 0.3239393679119008 0.9819858388333975
3 389 175 388 0.33847416064420766 0.3239393679119008 0.9819858388333975
3 175 174 388 0.33847416064420766 0.3239393679119008 0.9819858388333975
3 165 379 380 0.33847416064420766 0.3239393679119008 0.9819858388333975
3 379 160 380 0.33847416064420766 0.3239393679119008 0.9819858388333975
3 380 161 381 0.33847416064420766 0.3239393679119008 0.9819858388333975
3 160 161 380 0.33847416064420766 0.3239393679119008 0.9819858388333975
3 248 456 249 0.33847416064420766 0.3239393679119008 0.9819858388333975
3 249 456 457 0.33847416064420766 0.3239393679119008 0.9819858388333975
3 249 408 407 0.33847416064420766 0.3239393679119008 0.9819858388333975
3 407 248 249 0.33847416064420766 0.3239393679119008 0.9819858388333975
3 250 408 249 0.33847416064420766 0.3239393679119008 0.9819858388333975
3 249 457 250 0.33847416064420766 0.3239393679119008 0.9819858388333975
3 601 190 191 0.33847416064420766 0.3239393679119008 0.9819858388333975
3 191 602 601 0.33847416064420766 0.3239393679119008 0.9819858388333975
3 116 599 117 0.33847416064420766 0.3239393679119008 0.9819858388333975
3 117 118 326 0.33847416064420766 0.3239393679119008 0.9819858388333975
3 117 325 116 0.33847416064420766 0.3239393679119008 0.9819858388333975
3 117 326 325 0.33847416064420766 0.3239393679119008 0.9819858388333975
3 123 122 327 0.33847416064420766 0.3239393679119008 0.9819858388333975
3 326 118 327 0.33847416064420766 0.3239393679119008 0.9819858388333975
3 327 122 326 0.33847416064420766 0.3239393679119008 0.9819858388333975
3 548 537 549 0.33847416064420766 0.3239393679119008 0.9819858388333975
3 549 482 548 0.33847416064420766 0.3239393679119008 0.9819858388333975
3 548 547 536 0.33847416064420766 0.3239393679119008 0.9819858388333975
3 536 537 548 0.33847416064420766 0.3239393679119008 0.9819858388333975
3 548 431 547 0.33847416064420766 0.3239393679119008 0.9819858388333975
3 481 431 548 0.33847416064420766 0.3239393679119008 0.9819858388333975
3 548 482 481 0.33847416064420766 0.3239393679119008 0.9819858388333975
3 344 141 95 0.33847416064420766 0.3239393679119008 0.9819858388333975
3 288 98 95 0.33847416064420766 0.3239393679119008 0.9819858388333975
3 95 287 344 0.33847416064420766 0.3239393679119008 0.9819858388333975
3 95 98 287 0.33847416064420766 0.3239393679119008 0.9819858388333975
3 269 270 346 0.33847416064420766 0.3239393679119008 0.9819858388333975
3 464 463 121 0.33847416064420766 0.3239393679119008 0.9819858388333975
3 121 122 464 0.33847416064420766 0.3239393679119008 0.9819858388333975
3 121 463 120 0.33847416064420766 0.3239393679119008 0.9819858388333975
3 326 122 121 0.33847416064420766 0.3239393679119008 0.9819858388333975
3 121 120 325 0.33847416064420766 0.3239393679119008 0.9819858388333975
3 325 326 121 0.33847416064420766 0.3239393679119008 0.9819858388333975
3 83 133 424 0.33847416064420766 0.3239393679119008 0.9819858388333975
3 133 84 424 0.33847416064420766 0.3239393679119008 0.9819858388333975
3 424 84 267 0.33847416064420766 0.3239393679119008 0.9819858388333975
3 266 90 139 0.33847416064420766 0.3239393679119008 0.9819858388333975
3 139 90 342 0.33847416064420766 0.3239393679119008 0.9819858388333975
3 139 342 89 0.33847416064420766 0.3239393679119008 0.9819858388333975
3 89 265 139 0.33847416064420766 0.3239393679119008 0.9819858388333975
3 82 132 423 0.33847416064420766 0.3239393679119008 0.9819858388333975
3 423 132 83 0.33847416064420766 0.3239393679119008 0.9819858388333975
3 86 422 82 0.33847416064420766 0.3239393679119008 0.9819858388333975
3 86 265 422 0.33847416064420766 0.3239393679119008 0.9819858388333975
3 82 423 86 0.33847416064420766 0.3239393679119008 0.9819858388333975
3 86 139 265 0.33847416064420766 0.3239393679119008 0.9819858388333975
3 266 139 86 0.33847416064420766 0.3239393679119008 0.9819858388333975
3 86 423 266 0.33847416064420766 0.3239393679119008 0.9819858388333975
3 264 88 137 0.33847416064420766 0.3239393679119008 0.9819858388333975
3 137 6 264 0.33847416064420766 0.3239393679119008 0.9819858388333975
3 5 85 264 0.33847416064420766 0.3239393679119008 0.9819858388333975
3 264 6 5 0.33847416064420766 0.3239393679119008 0.9819858388333975
3 475 476 103 0.33847416064420766 0.3239393679119008 0.9819858388333975
3 475 289 476 0.33847416064420766 0.3239393679119008 0.9819858388333975
3 99 289 475 0.33847416064420766 0.3239393679119008 0.9819858388333975
3 475 102 99 0.33847416064420766 0.3239393679119008 0.9819858388333975
3 475 103 295 0.33847416064420766 0.3239393679119008 0.9819858388333975
3 295 102 475 0.33847416064420766 0.3239393679119008 0.9819858388333975
3 473 101 100 0.33847416064420766 0.3239393679119008 0.9819858388333975
3 100 16 15 0.33847416064420766 0.3239393679119008 0.9819858388333975
3 100 97 473 0.33847416064420766 0.3239393679119008 0.9819858388333975
3 432 19 18 0.33847416064420766 0.3239393679119008 0.9819858388333975
3 432 105 433 0.33847416064420766 0.3239393679119008 0.9819858388333975
3 432 433 142 0.33847416064420766 0.3239393679119008 0.9819858388333975
3 142 19 432 0.33847416064420766 0.3239393679119008 0.9819858388333975
3 104 18 17 0.33847416064420766 0.3239393679119008 0.9819858388333975
3 104 432 18 0.33847416064420766 0.3239393679119008 0.9819858388333975
3 105 432 104 0.33847416064420766 0.3239393679119008 0.9819858388333975
3 197 350 198 0.33847416064420766 0.3239393679119008 0.9819858388333975
3 350 351 198 0.33847416064420766 0.3239393679119008 0.9819858388333975
3 484 197 198 0.33847416064420766 0.3239393679119008 0.9819858388333975
3 198 485 484 0.33847416064420766 0.3239393679119008 0.9819858388333975
3 179 242 180 0.33847416064420766 0.3239393679119008 0.9819858388333975
3 180 110 179 0.33847416064420766 0.3239393679119008 0.9819858388333975
3 241 242 179 0.33847416064420766 0.3239393679119008 0.9819858388333975
3 179 110 109 0.33847416064420766 0.3239393679119008 0.9819858388333975
3 109 178 179 0.33847416064420766 0.3239393679119008 0.9819858388333975
3 179 178 241 0.33847416064420766 0.3239393679119008 0.9819858388333975
3 502 384 501 0.33847416064420766 0.3239393679119008 0.9819858388333975
3 316 502 501 0.33847416064420766 0.3239393679119008 0.9819858388333975
3 500 277 501 0.33847416064420766 0.3239393679119008 0.9819858388333975
3 501 277 316 0.33847416064420766 0.3239393679119008 0.9819858388333975
3 393 580 581 0.33847416064420766 0.3239393679119008 0.9819858388333975
3 581 384 582 0.33847416064420766 0.3239393679119008 0.9819858388333975
3 581 394 393 0.33847416064420766 0.3239393679119008 0.9819858388333975
3 582 394 581 0.33847416064420766 0.3239393679119008 0.9819858388333975
3 383 382 500 0.33847416064420766 0.3239393679119008 0.9819858388333975
3 383 580 382 0.33847416064420766 0.3239393679119008 0.9819858388333975
3 500 501 383 0.33847416064420766 0.3239393679119008 0.9819858388333975
3 383 501 384 0.33847416064420766 0.3239393679119008 0.9819858388333975
3 384 581 383 0.33847416064420766 0.3239393679119008 0.9819858388333975
3 383 581 580 0.33847416064420766 0.3239393679119008 0.9819858388333975
3 170 577 171 0.33847416064420766 0.3239393679119008 0.9819858388333975
3 577 578 171 0.33847416064420766 0.3239393679119008 0.9819858388333975
3 171 390 170 0.33847416064420766 0.3239393679119008 0.9819858388333975
3 391 390 171 0.33847416064420766 0.3239393679119008 0.9819858388333975
3 166 578 165 0.33847416064420766 0.3239393679119008 0.9819858388333975
3 166 380 381 0.33847416064420766 0.3239393679119008 0.9819858388333975
3 165 380 166 0.33847416064420766 0.3239393679119008 0.9819858388333975
3 381 382 166 0.33847416064420766 0.3239393679119008 0.9819858388333975
3 579 392 391 0.33847416064420766 0.3239393679119008 0.9819858388333975
3 579 580 392 0.33847416064420766 0.3239393679119008 0.9819858388333975
3 391 171 579 0.33847416064420766 0.3239393679119008 0.9819858388333975
3 579 171 578 0.33847416064420766 0.3239393679119008 0.9819858388333975
3 382 580 579 0.33847416064420766 0.3239393679119008 0.9819858388333975
3 579 166 382 0.33847416064420766 0.3239393679119008 0.9819858388333975
3 578 166 579 0.33847416064420766 0.3239393679119008 0.9819858388333975
3 600 189 190 0.33847416064420766 0.3239393679119008 0.9819858388333975
3 190 601 600 0.33847416064420766 0.3239393679119008 0.9819858388333975
3 599 189 600 0.33847416064420766 0.3239393679119008 0.9819858388333975
3 600 601 118 0.33847416064420766 0.3239393679119008 0.9819858388333975
3 600 117 599 0.33847416064420766 0.3239393679119008 0.9819858388333975
3 118 117 600 0.33847416064420766 0.3239393679119008 0.9819858388333975
3 119 602 329 0.33847416064420766 0.3239393679119008 0.9819858388333975
3 119 601 602 0.33847416064420766 0.3239393679119008 0.9819858388333975
3 118 601 119 0.33847416064420766 0.3239393679119008 0.9819858388333975
3 119 327 118 0.33847416064420766 0.3239393679119008 0.9819858388333975
3 288 95 345 0.33847416064420766 0.3239393679119008 0.9819858388333975
3 345 95 141 0.33847416064420766 0.3239393679119008 0.9819858388333975
3 345 99 288 0.33847416064420766 0.3239393679119008 0.9819858388333975
3 345 289 99 0.33847416064420766 0.3239393679119008 0.9819858388333975
3 346 289 345 0.33847416064420766 0.3239393679119008 0.9819858388333975
3 345 269 346 0.33847416064420766 0.3239393679119008 0.9819858388333975
3 136 260 261 0.33847416064420766 0.3239393679119008 0.9819858388333975
3 136 135 260 0.33847416064420766 0.3239393679119008 0.9819858388333975
3 425 135 426 0.33847416064420766 0.3239393679119008 0.9819858388333975
3 135 136 426 0.33847416064420766 0.3239393679119008 0.9819858388333975
3 83 424 87 0.33847416064420766 0.3239393679119008 0.9819858388333975
3 87 423 83 0.33847416064420766 0.3239393679119008 0.9819858388333975
3 266 423 87 0.33847416064420766 0.3239393679119008 0.9819858388333975
3 87 140 266 0.33847416064420766 0.3239393679119008 0.9819858388333975
3 267 140 87 0.33847416064420766 0.3239393679119008 0.9819858388333975
3 87 424 267 0.33847416064420766 0.3239393679119008 0.9819858388333975
3 85 265 138 0.33847416064420766 0.3239393679119008 0.9819858388333975
3 138 264 85 0.33847416064420766 0.3239393679119008 0.9819858388333975
3 89 341 138 0.33847416064420766 0.3239393679119008 0.9819858388333975
3 138 265 89 0.33847416064420766 0.3239393679119008 0.9819858388333975
3 341 88 138 0.33847416064420766 0.3239393679119008 0.9819858388333975
3 88 264 138 0.33847416064420766 0.3239393679119008 0.9819858388333975
3 293 100 101 0.33847416064420766 0.3239393679119008 0.9819858388333975
3 293 104 17 0.33847416064420766 0.3239393679119008 0.9819858388333975
3 17 16 293 0.33847416064420766 0.3239393679119008 0.9819858388333975
3 16 100 293 0.33847416064420766 0.3239393679119008 0.9819858388333975
3 472 100 15 0.33847416064420766 0.3239393679119008 0.9819858388333975
3 97 100 472 0.33847416064420766 0.3239393679119008 0.9819858388333975
3 472 14 96 0.33847416064420766 0.3239393679119008 0.9819858388333975
3 15 14 472 0.33847416064420766 0.3239393679119008 0.9819858388333975
3 96 286 472 0.33847416064420766 0.3239393679119008 0.9819858388333975
3 286 97 472 0.33847416064420766 0.3239393679119008 0.9819858388333975
3 294 101 102 0.33847416064420766 0.3239393679119008 0.9819858388333975
3 105 104 294 0.33847416064420766 0.3239393679119008 0.9819858388333975
3 294 293 101 0.33847416064420766 0.3239393679119008 0.9819858388333975
3 104 293 294 0.33847416064420766 0.3239393679119008 0.9819858388333975
3 294 102 295 0.33847416064420766 0.3239393679119008 0.9819858388333975
3 295 105 294 0.33847416064420766 0.3239393679119008 0.9819858388333975
3 486 485 199 0.33847416064420766 0.3239393679119008 0.9819858388333975
3 485 198 199 0.33847416064420766 0.3239393679119008 0.9819858388333975
3 199 200 486 0.33847416064420766 0.3239393679119008 0.9819858388333975
3 199 352 200 0.33847416064420766 0.3239393679119008 0.9819858388333975
3 199 351 352 0.33847416064420766 0.3239393679119008 0.9819858388333975
3 199 198 351 0.33847416064420766 0.3239393679119008 0.9819858388333975
3 123 327 328 0.33847416064420766 0.3239393679119008 0.9819858388333975
3 327 119 328 0.33847416064420766 0.3239393679119008 0.9819858388333975
3 329 123 328 0.33847416064420766 0.3239393679119008 0.9819858388333975
3 328 119 329 0.33847416064420766 0.3239393679119008 0.9819858388333975
3 270 269 427 0.33847416064420766 0.3239393679119008 0.9819858388333975
3 269 426 427 0.33847416064420766 0.3239393679119008 0.9819858388333975
3 427 426 136 0.33847416064420766 0.3239393679119008 0.9819858388333975
3 427 262 428 0.33847416064420766 0.3239393679119008 0.9819858388333975
3 428 270 427 0.33847416064420766 0.3239393679119008 0.9819858388333975
3 261 262 427 0.33847416064420766 0.3239393679119008 0.9819858388333975
3 427 136 261 0.33847416064420766 0.3239393679119008 0.9819858388333975
3 268 141 425 0.33847416064420766 0.3239393679119008 0.9819858388333975
3 425 426 268 0.33847416064420766 0.3239393679119008 0.9819858388333975
3 268 345 141 0.33847416064420766 0.3239393679119008 0.9819858388333975
3 269 345 268 0.33847416064420766 0.3239393679119008 0.9819858388333975
3 268 426 269 0.33847416064420766 0.3239393679119008 0.9819858388333975
