OFF
27 22 0


30.065 30.7611 11.2865
30.065 30.7611 11.2865
29.9389 30.7831 11.2639
29.8345 30.8022 11.2428
29.7434 30.8195 11.2226
29.6602 30.8357 11.2026
29.5809 30.8517 11.1821
29.502 30.868 11.1604
29.4202 30.8855 11.1363
29.3316 30.9049 11.1086
29.2312 30.9276 11.0751
29.0354 30.9893 10.9572
29.1605 30.9657 10.9848
29.2657 30.9451 11.0103
29.3581 30.9263 11.0345
29.4423 30.9087 11.0583
29.5218 30.8916 11.0821
29.5995 30.8744 11.1069
29.6781 30.8566 11.1334
29.7602 30.8373 11.1628
29.849 30.8159 11.1964
29.9487 30.7911 11.2366
30.065 30.7611 11.2865
29.1116 30.9556 11.0324
29.1116 30.9556 11.0324
29.0862 30.9668 11.0073
29.0608 30.9781 10.9823
3 23 10 12 0.7700278127070435 0.28022241666898384 0.448517340174292
3 4 20 19 0.7700278127070435 0.28022241666898384 0.448517340174292
3 19 5 4 0.7700278127070435 0.28022241666898384 0.448517340174292
3 6 17 7 0.7700278127070435 0.28022241666898384 0.448517340174292
3 23 12 25 0.7700278127070435 0.28022241666898384 0.448517340174292
3 9 15 14 0.7700278127070435 0.28022241666898384 0.448517340174292
3 13 12 10 0.7700278127070435 0.28022241666898384 0.448517340174292
3 10 9 13 0.7700278127070435 0.28022241666898384 0.448517340174292
3 13 9 14 0.7700278127070435 0.28022241666898384 0.448517340174292
3 21 2 0 0.7700278127070435 0.28022241666898384 0.448517340174292
3 3 20 4 0.7700278127070435 0.28022241666898384 0.448517340174292
3 3 21 20 0.7700278127070435 0.28022241666898384 0.448517340174292
3 2 21 3 0.7700278127070435 0.28022241666898384 0.448517340174292
3 5 19 18 0.7700278127070435 0.28022241666898384 0.448517340174292
3 17 6 18 0.7700278127070435 0.28022241666898384 0.448517340174292
3 18 6 5 0.7700278127070435 0.28022241666898384 0.448517340174292
3 26 12 11 0.7700278127070435 0.28022241666898384 0.448517340174292
3 26 25 12 0.7700278127070435 0.28022241666898384 0.448517340174292
3 7 17 16 0.7700278127070435 0.28022241666898384 0.448517340174292
3 15 9 8 0.7700278127070435 0.28022241666898384 0.448517340174292
3 7 16 8 0.7700278127070435 0.28022241666898384 0.448517340174292
3 8 16 15 0.7700278127070435 0.28022241666898384 0.448517340174292
