OFF
508 926 0


30.2781 31.3833 6.2378
30.2781 31.3833 6.2378
30.2952 31.3678 6.1034
30.3125 31.3542 5.9784
30.3298 31.3423 5.8613
30.3473 31.3317 5.7509
30.3649 31.3224 5.6464
30.3826 31.3141 5.5469
30.4003 31.3068 5.4516
30.4182 31.3002 5.3599
30.4363 31.2942 5.2712
30.4545 31.2889 5.1849
30.4729 31.2841 5.1007
30.4915 31.2798 5.0179
30.5105 31.2758 4.9362
30.5298 31.2723 4.8552
30.5495 31.269 4.7743
30.5697 31.266 4.6933
30.5906 31.2633 4.6115
30.6121 31.2608 4.5287
30.6344 31.2585 4.4443
30.6577 31.2564 4.3577
30.6822 31.2545 4.2685
30.7079 31.2527 4.1759
30.7352 31.2512 4.0791
30.7643 31.2498 3.9774
30.7955 31.2486 3.8697
30.8292 31.2476 3.7548
30.866 31.2468 3.6311
30.9063 31.2463 3.4969
30.9063 31.2463 3.4969
30.8342 31.2472 3.6427
30.7742 31.2484 3.7608
30.7221 31.2497 3.8607
30.6754 31.2511 3.948
30.6324 31.2526 4.0266
30.5918 31.2542 4.0993
30.5523 31.2559 4.1682
30.5132 31.2578 4.2349
30.4735 31.2599 4.3011
30.4322 31.2623 4.3681
30.3881 31.2651 4.4376
30.3398 31.2684 4.5114
30.2851 31.2725 4.592
30.2209 31.2777 4.6829
30.1416 31.2847 4.7895
30.037 31.2951 4.9213
30.0215 31.3017 5.052
30.0107 31.308 5.165
30.0033 31.3141 5.2659
29.9984 31.3201 5.3587
29.9953 31.326 5.4466
29.9939 31.3322 5.5322
29.9941 31.3386 5.6178
29.996 31.3456 5.7058
29.9998 31.3533 5.7987
30.0061 31.3621 5.8996
30.0158 31.3725 6.0124
30.0303 31.3851 6.1424
30.0303 31.3851 6.1424
30.1541 31.3838 6.1903
30.2781 31.3833 6.2378
30.574 31.2555 4.1744
30.557 31.2568 4.2461
30.5408 31.2583 4.3148
30.5034 31.259 4.2946
30.494 31.2602 4.3523
30.485 31.2615 4.4079
30.43 31.2633 4.4139
30.4279 31.2642 4.4585
30.4259 31.2652 4.5019
30.5757 31.2642 4.6338
30.561 31.2652 4.6559
30.5465 31.2662 4.6777
30.5321 31.2672 4.6994
30.615 31.2597 4.482
30.596 31.2609 4.5189
30.5774 31.2622 4.5551
30.5591 31.2635 4.5906
30.6572 31.2558 4.3241
30.6331 31.2572 4.378
30.6098 31.2587 4.4302
30.5872 31.2603 4.4809
30.6483 31.2524 4.0417
30.6227 31.2538 4.1302
30.5985 31.2554 4.2142
30.5756 31.2571 4.294
30.4682 31.2835 5.085
30.4635 31.283 5.0691
30.4588 31.2824 5.0532
30.454 31.2818 5.0371
30.4492 31.2813 5.0209
30.5028 31.2759 4.9324
30.4952 31.276 4.9286
30.4875 31.2761 4.9248
30.4798 31.2762 4.9209
30.4721 31.2763 4.9171
30.5385 31.2696 4.783
30.5276 31.2702 4.7917
30.5166 31.2707 4.8003
30.5058 31.2714 4.8089
30.4949 31.272 4.8175
30.7035 31.2526 4.1564
30.6732 31.2541 4.2301
30.6444 31.2557 4.3006
30.6169 31.2574 4.3682
30.5904 31.2592 4.4332
30.7552 31.2499 3.9737
30.7175 31.2514 4.0714
30.682 31.253 4.1634
30.6486 31.2549 4.2504
30.617 31.2568 4.333
30.8144 31.2479 3.7697
30.7672 31.2492 3.8971
30.7237 31.2508 4.015
30.6833 31.2526 4.1248
30.6457 31.2546 4.2276
30.7347 31.2496 3.88
30.698 31.251 3.9909
30.6639 31.2526 4.0946
30.632 31.2544 4.192
30.602 31.2564 4.2839
30.3457 31.2689 4.5435
30.3515 31.2695 4.5749
30.3572 31.2701 4.6057
30.3627 31.2707 4.6359
30.3682 31.2714 4.6656
30.027 31.3213 5.4029
30.0585 31.3167 5.3595
30.0898 31.3123 5.3164
30.1211 31.3082 5.2736
30.1524 31.3041 5.2309
30.0258 31.3324 5.5606
30.0571 31.3265 5.5041
30.0883 31.3209 5.4482
30.1194 31.3156 5.3926
30.1505 31.3105 5.3373
30.3842 31.3107 5.4998
30.3859 31.3074 5.4525
30.3876 31.3041 5.4048
30.3894 31.301 5.3566
30.3913 31.298 5.3079
30.3932 31.2951 5.2585
30.4175 31.2981 5.3261
30.4167 31.2961 5.2921
30.416 31.2942 5.2576
30.4152 31.2923 5.2228
30.4145 31.2905 5.1876
30.4138 31.2887 5.1519
30.4512 31.2879 5.1633
30.4478 31.287 5.1415
30.4445 31.286 5.1195
30.4411 31.285 5.0973
30.4377 31.2841 5.0749
30.4342 31.2832 5.0522
30.7864 31.2483 3.7794
30.7426 31.2496 3.9053
30.7022 31.2512 4.0219
30.6646 31.253 4.1306
30.6296 31.255 4.2325
30.5967 31.2572 4.3284
30.2365 31.2775 4.6998
30.2519 31.2774 4.7164
30.2671 31.2773 4.7327
30.2821 31.2772 4.7489
30.2969 31.2771 4.7649
30.3115 31.2771 4.7806
30.0348 31.3106 5.2359
30.0661 31.3072 5.2062
30.0973 31.304 5.1767
30.1283 31.3008 5.1474
30.1593 31.2978 5.1182
30.1903 31.2949 5.0891
30.0311 31.3453 5.7265
30.062 31.3377 5.6557
30.0927 31.3306 5.5859
30.1231 31.3239 5.5168
30.1535 31.3175 5.4483
30.184 31.3115 5.38
30.303 31.3577 6.0086
30.3108 31.3483 5.9162
30.3186 31.3395 5.8254
30.3265 31.3313 5.7358
30.3344 31.3237 5.6467
30.3426 31.3165 5.5576
30.3509 31.3098 5.468
30.335 31.3356 5.7894
30.3403 31.3292 5.718
30.3456 31.3232 5.6469
30.3511 31.3175 5.5758
30.3567 31.3121 5.5044
30.3624 31.3069 5.4324
30.3683 31.302 5.3596
30.3677 31.3181 5.5919
30.3706 31.3139 5.5373
30.3735 31.3099 5.4824
30.3765 31.306 5.4271
30.3797 31.3023 5.3712
30.3829 31.2987 5.3146
30.3862 31.2953 5.2572
30.5387 31.2571 4.2353
30.5256 31.2585 4.2997
30.513 31.2599 4.3618
30.5009 31.2613 4.4216
30.4893 31.2628 4.4794
30.4781 31.2644 4.5353
30.4673 31.2661 4.5895
30.042 31.3051 5.1428
30.073 31.3023 5.1207
30.1039 31.2996 5.0989
30.1347 31.297 5.0772
30.1653 31.2945 5.0556
30.1958 31.2921 5.0342
30.2263 31.2897 5.0128
30.0464 31.3618 5.9208
30.0763 31.3519 5.8319
30.1057 31.3427 5.7452
30.1348 31.3341 5.66
30.1637 31.3261 5.5759
30.1927 31.3186 5.4924
30.2218 31.3115 5.409
30.5569 31.2668 4.7086
30.5441 31.2676 4.7238
30.5315 31.2684 4.7389
30.5189 31.2692 4.7539
30.5064 31.27 4.7689
30.494 31.2709 4.7837
30.4816 31.2717 4.7985
30.4694 31.2726 4.8132
30.6357 31.2577 4.404
30.6142 31.259 4.4491
30.5933 31.2604 4.4931
30.573 31.2618 4.536
30.5532 31.2633 4.5779
30.5338 31.2649 4.6189
30.5149 31.2665 4.6591
30.4964 31.2682 4.6985
30.7285 31.2512 4.0673
30.6948 31.2527 4.1523
30.6628 31.2543 4.2331
30.6324 31.2561 4.3101
30.6035 31.258 4.3837
30.5759 31.26 4.4542
30.5494 31.2621 4.522
30.5239 31.2644 4.5874
30.8478 31.2471 3.6568
30.7948 31.2483 3.8021
30.7465 31.2498 3.9353
30.7021 31.2515 4.0581
30.661 31.2536 4.1721
30.6228 31.2558 4.2787
30.5871 31.2583 4.3788
30.5535 31.261 4.4733
30.6893 31.251 3.9659
30.6586 31.2524 4.0647
30.6298 31.254 4.1577
30.6027 31.2558 4.2457
30.577 31.2577 4.3292
30.5527 31.2597 4.4088
30.5295 31.2618 4.4848
30.5074 31.2641 4.5577
30.3899 31.2659 4.4766
30.3916 31.2667 4.5147
30.3933 31.2675 4.5519
30.395 31.2684 4.5884
30.3966 31.2692 4.624
30.3982 31.2701 4.6589
30.3998 31.2711 4.6932
30.4014 31.272 4.7267
30.0524 31.2994 5.0385
30.083 31.2972 5.0252
30.1134 31.295 5.0121
30.1436 31.293 4.999
30.1736 31.291 4.9861
30.2034 31.289 4.9733
30.2331 31.2871 4.9606
30.2626 31.2853 4.9479
30.1735 31.3714 6.0836
30.1924 31.36 5.9807
30.211 31.3495 5.8808
30.2294 31.3397 5.7831
30.2478 31.3307 5.6868
30.2663 31.3223 5.5912
30.2849 31.3145 5.4958
30.3039 31.3072 5.3998
30.4343 31.2928 5.2436
30.4322 31.2913 5.2157
30.4302 31.2899 5.1876
30.4282 31.2885 5.1591
30.4261 31.2872 5.1304
30.424 31.2858 5.1012
30.422 31.2845 5.0718
30.4199 31.2832 5.0419
30.4177 31.282 5.0116
30.5205 31.2726 4.8575
30.5113 31.273 4.8598
30.502 31.2733 4.8622
30.4927 31.2737 4.8645
30.4835 31.274 4.8669
30.4742 31.2744 4.8692
30.4649 31.2748 4.8716
30.4556 31.2752 4.8739
30.4463 31.2756 4.8763
30.0672 31.2934 4.9183
30.0972 31.2917 4.9153
30.1268 31.2901 4.9124
30.1561 31.2886 4.9096
30.1851 31.2871 4.9068
30.2139 31.2857 4.904
30.2424 31.2843 4.9013
30.2707 31.283 4.8986
30.2988 31.2817 4.896
30.0256 31.3267 5.4818
30.0571 31.3215 5.4319
30.0884 31.3166 5.3824
30.1196 31.3118 5.3332
30.1509 31.3073 5.2842
30.1822 31.3029 5.2353
30.2136 31.2987 5.1863
30.2453 31.2947 5.1372
30.2772 31.2909 5.0879
30.0371 31.3529 5.8185
30.0676 31.3443 5.7393
30.0978 31.3362 5.6616
30.1276 31.3287 5.585
30.1574 31.3215 5.5091
30.1873 31.3148 5.4336
30.2173 31.3085 5.3581
30.2476 31.3025 5.2823
30.2783 31.2969 5.2058
30.3189 31.346 5.8959
30.3254 31.3382 5.8147
30.332 31.331 5.7343
30.3386 31.3241 5.6543
30.3454 31.3177 5.5744
30.3524 31.3116 5.4941
30.3595 31.3058 5.4131
30.3669 31.3003 5.3309
30.3746 31.2952 5.2471
30.3826 31.2903 5.1612
30.6798 31.2541 4.2418
30.6527 31.2556 4.3051
30.6268 31.2572 4.3661
30.6018 31.2588 4.425
30.5777 31.2605 4.482
30.5544 31.2623 4.5372
30.5319 31.2642 4.5908
30.51 31.2662 4.6429
30.4888 31.2682 4.6937
30.4681 31.2704 4.7433
30.6102 31.2539 4.1104
30.5891 31.2553 4.1901
30.5691 31.2568 4.266
30.5501 31.2585 4.3386
30.5319 31.2602 4.4082
30.5144 31.262 4.4751
30.4977 31.2639 4.5395
30.4817 31.2659 4.6017
30.4662 31.268 4.6618
30.4512 31.2702 4.7202
30.2956 31.2727 4.6168
30.3058 31.273 4.6411
30.3159 31.2733 4.6651
30.3259 31.2736 4.6886
30.3356 31.2739 4.7118
30.3453 31.2743 4.7347
30.3548 31.2747 4.7572
30.3641 31.275 4.7794
30.3734 31.2754 4.8012
30.3825 31.2759 4.8228
30.2873 31.3708 6.1284
30.2965 31.3594 6.0229
30.3055 31.3489 5.9204
30.3146 31.3392 5.8201
30.3238 31.3302 5.7211
30.3331 31.3218 5.6227
30.3426 31.3141 5.5241
30.3525 31.3068 5.4247
30.3627 31.3001 5.3237
30.3733 31.2937 5.2202
30.3513 31.3263 5.6883
30.3554 31.3212 5.6257
30.3595 31.3162 5.563
30.3638 31.3115 5.5001
30.3681 31.307 5.4366
30.3726 31.3027 5.3725
30.3772 31.2985 5.3076
30.382 31.2946 5.2415
30.387 31.2908 5.1741
30.3921 31.2871 5.1051
30.3975 31.2837 5.0342
30.4854 31.2796 5.0081
30.4793 31.2793 4.9983
30.4731 31.2791 4.9884
30.4669 31.2789 4.9784
30.4606 31.2787 4.9684
30.4543 31.2785 4.9583
30.448 31.2783 4.9481
30.4416 31.2781 4.9379
30.4352 31.2779 4.9276
30.4287 31.2777 4.9173
30.4222 31.2775 4.9069
30.7837 31.2488 3.8749
30.7415 31.2502 3.9865
30.7023 31.2519 4.0908
30.6656 31.2537 4.1888
30.631 31.2557 4.2811
30.5985 31.2578 4.3686
30.5677 31.2602 4.4518
30.5383 31.2626 4.5312
30.5104 31.2653 4.6073
30.4836 31.268 4.6805
30.4578 31.2709 4.7511
30.4675 31.261 4.3537
30.4618 31.2621 4.4048
30.4562 31.2633 4.4543
30.4508 31.2645 4.5025
30.4456 31.2657 4.5493
30.4406 31.267 4.5949
30.4357 31.2684 4.6393
30.431 31.2697 4.6827
30.4263 31.2711 4.725
30.4219 31.2726 4.7665
30.4175 31.2741 4.807
30.1635 31.284 4.7974
30.1852 31.2833 4.8051
30.2066 31.2826 4.8128
30.2278 31.2819 4.8204
30.2488 31.2813 4.828
30.2695 31.2807 4.8354
30.29 31.2801 4.8428
30.3103 31.2796 4.8501
30.3305 31.279 4.8574
30.3504 31.2785 4.8646
30.3701 31.2781 4.8717
30.0275 31.3385 5.6414
30.0587 31.3319 5.578
30.0897 31.3256 5.5154
30.1205 31.3196 5.4533
30.1513 31.3139 5.3916
30.1822 31.3084 5.33
30.2132 31.3033 5.2683
30.2446 31.2984 5.2064
30.2763 31.2937 5.144
30.3085 31.2893 5.081
30.3412 31.285 5.0171
30.4008 31.3041 5.4114
30.4013 31.3015 5.3709
30.4018 31.2989 5.33
30.4023 31.2965 5.2886
30.4029 31.2941 5.2467
30.4035 31.2917 5.2043
30.4042 31.2895 5.1613
30.4049 31.2873 5.1175
30.4056 31.2851 5.073
30.4064 31.2831 5.0277
30.4073 31.281 4.9814
30.4081 31.2791 4.9342
30.595 31.2618 4.5584
30.5782 31.263 4.5877
30.5618 31.2641 4.6166
30.5455 31.2653 4.645
30.5295 31.2665 4.673
30.5138 31.2677 4.7007
30.4982 31.269 4.728
30.4829 31.2703 4.755
30.4678 31.2716 4.7817
30.4528 31.273 4.8081
30.4381 31.2743 4.8343
30.4235 31.2757 4.8602
30.03 31.316 5.3217
30.0614 31.312 5.285
30.0927 31.3082 5.2485
30.124 31.3045 5.2122
30.1552 31.301 5.1761
30.1864 31.2976 5.14
30.2177 31.2943 5.104
30.2491 31.2912 5.068
30.2806 31.2882 5.0319
30.3123 31.2853 4.9957
30.3443 31.2825 4.9593
30.3765 31.2798 4.9227
30.0602 31.3726 6.0378
30.0893 31.361 5.9372
30.1177 31.3504 5.8396
30.1456 31.3406 5.7444
30.1733 31.3314 5.6508
30.201 31.3229 5.5583
30.2288 31.315 5.4661
30.2569 31.3076 5.3737
30.2855 31.3007 5.2804
30.3148 31.2942 5.1857
30.345 31.2882 5.0889
30.3763 31.2825 4.9892
30.2873 31.3708 6.1284
30.2965 31.3594 6.0229
30.3055 31.3489 5.9204
30.3146 31.3392 5.8201
30.3238 31.3302 5.7211
30.3331 31.3218 5.6227
30.3426 31.3141 5.5241
30.3525 31.3068 5.4247
30.3627 31.3001 5.3237
30.3733 31.2937 5.2202
30.3845 31.2878 5.1134
30.3964 31.2823 5.0023
30.4091 31.2772 4.8858
30.4091 31.2772 4.8858
3 132 53 52 0.7130101987801197 0.16553097509142778 0.48084307333925547
3 436 53 132 0.7130101987801197 0.16553097509142778 0.48084307333925547
3 59 277 60 0.7130101987801197 0.16553097509142778 0.48084307333925547
3 437 175 436 0.7130101987801197 0.16553097509142778 0.48084307333925547
3 370 60 277 0.7130101987801197 0.16553097509142778 0.48084307333925547
3 277 2 370 0.7130101987801197 0.16553097509142778 0.48084307333925547
3 0 60 370 0.7130101987801197 0.16553097509142778 0.48084307333925547
3 370 2 0 0.7130101987801197 0.16553097509142778 0.48084307333925547
3 457 481 401 0.7130101987801197 0.16553097509142778 0.48084307333925547
3 401 481 506 0.7130101987801197 0.16553097509142778 0.48084307333925547
3 28 31 29 0.7130101987801197 0.16553097509142778 0.48084307333925547
3 488 283 219 0.7130101987801197 0.16553097509142778 0.48084307333925547
3 436 132 133 0.7130101987801197 0.16553097509142778 0.48084307333925547
3 133 437 436 0.7130101987801197 0.16553097509142778 0.48084307333925547
3 133 132 52 0.7130101987801197 0.16553097509142778 0.48084307333925547
3 175 437 176 0.7130101987801197 0.16553097509142778 0.48084307333925547
3 330 4 3 0.7130101987801197 0.16553097509142778 0.48084307333925547
3 371 2 277 0.7130101987801197 0.16553097509142778 0.48084307333925547
3 277 278 371 0.7130101987801197 0.16553097509142778 0.48084307333925547
3 280 373 279 0.7130101987801197 0.16553097509142778 0.48084307333925547
3 484 280 279 0.7130101987801197 0.16553097509142778 0.48084307333925547
3 279 4 330 0.7130101987801197 0.16553097509142778 0.48084307333925547
3 435 53 436 0.7130101987801197 0.16553097509142778 0.48084307333925547
3 436 175 174 0.7130101987801197 0.16553097509142778 0.48084307333925547
3 174 435 436 0.7130101987801197 0.16553097509142778 0.48084307333925547
3 269 47 46 0.7130101987801197 0.16553097509142778 0.48084307333925547
3 302 401 506 0.7130101987801197 0.16553097509142778 0.48084307333925547
3 19 18 458 0.7130101987801197 0.16553097509142778 0.48084307333925547
3 18 459 458 0.7130101987801197 0.16553097509142778 0.48084307333925547
3 317 442 441 0.7130101987801197 0.16553097509142778 0.48084307333925547
3 441 316 317 0.7130101987801197 0.16553097509142778 0.48084307333925547
3 113 26 25 0.7130101987801197 0.16553097509142778 0.48084307333925547
3 245 28 27 0.7130101987801197 0.16553097509142778 0.48084307333925547
3 31 28 245 0.7130101987801197 0.16553097509142778 0.48084307333925547
3 27 32 245 0.7130101987801197 0.16553097509142778 0.48084307333925547
3 245 32 31 0.7130101987801197 0.16553097509142778 0.48084307333925547
3 276 478 213 0.7130101987801197 0.16553097509142778 0.48084307333925547
3 213 275 276 0.7130101987801197 0.16553097509142778 0.48084307333925547
3 213 477 212 0.7130101987801197 0.16553097509142778 0.48084307333925547
3 478 477 213 0.7130101987801197 0.16553097509142778 0.48084307333925547
3 212 273 213 0.7130101987801197 0.16553097509142778 0.48084307333925547
3 272 273 212 0.7130101987801197 0.16553097509142778 0.48084307333925547
3 274 273 306 0.7130101987801197 0.16553097509142778 0.48084307333925547
3 275 213 274 0.7130101987801197 0.16553097509142778 0.48084307333925547
3 274 213 273 0.7130101987801197 0.16553097509142778 0.48084307333925547
3 493 481 457 0.7130101987801197 0.16553097509142778 0.48084307333925547
3 493 480 481 0.7130101987801197 0.16553097509142778 0.48084307333925547
3 479 478 276 0.7130101987801197 0.16553097509142778 0.48084307333925547
3 276 480 479 0.7130101987801197 0.16553097509142778 0.48084307333925547
3 171 474 170 0.7130101987801197 0.16553097509142778 0.48084307333925547
3 170 209 171 0.7130101987801197 0.16553097509142778 0.48084307333925547
3 444 492 443 0.7130101987801197 0.16553097509142778 0.48084307333925547
3 52 51 312 0.7130101987801197 0.16553097509142778 0.48084307333925547
3 312 133 52 0.7130101987801197 0.16553097509142778 0.48084307333925547
3 441 442 328 0.7130101987801197 0.16553097509142778 0.48084307333925547
3 489 327 328 0.7130101987801197 0.16553097509142778 0.48084307333925547
3 220 327 489 0.7130101987801197 0.16553097509142778 0.48084307333925547
3 185 335 283 0.7130101987801197 0.16553097509142778 0.48084307333925547
3 283 184 282 0.7130101987801197 0.16553097509142778 0.48084307333925547
3 278 3 179 0.7130101987801197 0.16553097509142778 0.48084307333925547
3 179 371 278 0.7130101987801197 0.16553097509142778 0.48084307333925547
3 179 3 2 0.7130101987801197 0.16553097509142778 0.48084307333925547
3 2 371 179 0.7130101987801197 0.16553097509142778 0.48084307333925547
3 496 3 278 0.7130101987801197 0.16553097509142778 0.48084307333925547
3 278 279 496 0.7130101987801197 0.16553097509142778 0.48084307333925547
3 496 279 330 0.7130101987801197 0.16553097509142778 0.48084307333925547
3 4 279 181 0.7130101987801197 0.16553097509142778 0.48084307333925547
3 181 279 373 0.7130101987801197 0.16553097509142778 0.48084307333925547
3 181 331 4 0.7130101987801197 0.16553097509142778 0.48084307333925547
3 373 331 181 0.7130101987801197 0.16553097509142778 0.48084307333925547
3 484 279 483 0.7130101987801197 0.16553097509142778 0.48084307333925547
3 483 279 278 0.7130101987801197 0.16553097509142778 0.48084307333925547
3 53 435 54 0.7130101987801197 0.16553097509142778 0.48084307333925547
3 54 174 173 0.7130101987801197 0.16553097509142778 0.48084307333925547
3 435 174 54 0.7130101987801197 0.16553097509142778 0.48084307333925547
3 173 174 322 0.7130101987801197 0.16553097509142778 0.48084307333925547
3 170 474 169 0.7130101987801197 0.16553097509142778 0.48084307333925547
3 49 48 167 0.7130101987801197 0.16553097509142778 0.48084307333925547
3 48 168 167 0.7130101987801197 0.16553097509142778 0.48084307333925547
3 209 269 270 0.7130101987801197 0.16553097509142778 0.48084307333925547
3 270 269 46 0.7130101987801197 0.16553097509142778 0.48084307333925547
3 300 96 301 0.7130101987801197 0.16553097509142778 0.48084307333925547
3 301 96 302 0.7130101987801197 0.16553097509142778 0.48084307333925547
3 401 302 400 0.7130101987801197 0.16553097509142778 0.48084307333925547
3 302 96 400 0.7130101987801197 0.16553097509142778 0.48084307333925547
3 457 401 400 0.7130101987801197 0.16553097509142778 0.48084307333925547
3 299 96 300 0.7130101987801197 0.16553097509142778 0.48084307333925547
3 339 148 452 0.7130101987801197 0.16553097509142778 0.48084307333925547
3 149 12 11 0.7130101987801197 0.16553097509142778 0.48084307333925547
3 396 94 395 0.7130101987801197 0.16553097509142778 0.48084307333925547
3 456 396 395 0.7130101987801197 0.16553097509142778 0.48084307333925547
3 397 396 456 0.7130101987801197 0.16553097509142778 0.48084307333925547
3 457 397 456 0.7130101987801197 0.16553097509142778 0.48084307333925547
3 456 493 457 0.7130101987801197 0.16553097509142778 0.48084307333925547
3 505 493 456 0.7130101987801197 0.16553097509142778 0.48084307333925547
3 26 113 402 0.7130101987801197 0.16553097509142778 0.48084307333925547
3 33 246 402 0.7130101987801197 0.16553097509142778 0.48084307333925547
3 402 246 26 0.7130101987801197 0.16553097509142778 0.48084307333925547
3 35 34 253 0.7130101987801197 0.16553097509142778 0.48084307333925547
3 253 118 35 0.7130101987801197 0.16553097509142778 0.48084307333925547
3 118 253 403 0.7130101987801197 0.16553097509142778 0.48084307333925547
3 37 36 62 0.7130101987801197 0.16553097509142778 0.48084307333925547
3 112 32 27 0.7130101987801197 0.16553097509142778 0.48084307333925547
3 27 26 112 0.7130101987801197 0.16553097509142778 0.48084307333925547
3 26 246 112 0.7130101987801197 0.16553097509142778 0.48084307333925547
3 304 272 271 0.7130101987801197 0.16553097509142778 0.48084307333925547
3 424 425 306 0.7130101987801197 0.16553097509142778 0.48084307333925547
3 492 444 445 0.7130101987801197 0.16553097509142778 0.48084307333925547
3 480 493 445 0.7130101987801197 0.16553097509142778 0.48084307333925547
3 445 479 480 0.7130101987801197 0.16553097509142778 0.48084307333925547
3 445 493 505 0.7130101987801197 0.16553097509142778 0.48084307333925547
3 478 479 445 0.7130101987801197 0.16553097509142778 0.48084307333925547
3 445 444 478 0.7130101987801197 0.16553097509142778 0.48084307333925547
3 163 427 426 0.7130101987801197 0.16553097509142778 0.48084307333925547
3 88 89 13 0.7130101987801197 0.16553097509142778 0.48084307333925547
3 318 317 474 0.7130101987801197 0.16553097509142778 0.48084307333925547
3 442 317 318 0.7130101987801197 0.16553097509142778 0.48084307333925547
3 210 171 209 0.7130101987801197 0.16553097509142778 0.48084307333925547
3 210 270 271 0.7130101987801197 0.16553097509142778 0.48084307333925547
3 209 270 210 0.7130101987801197 0.16553097509142778 0.48084307333925547
3 320 477 478 0.7130101987801197 0.16553097509142778 0.48084307333925547
3 478 444 320 0.7130101987801197 0.16553097509142778 0.48084307333925547
3 320 444 443 0.7130101987801197 0.16553097509142778 0.48084307333925547
3 75 20 19 0.7130101987801197 0.16553097509142778 0.48084307333925547
3 352 256 121 0.7130101987801197 0.16553097509142778 0.48084307333925547
3 63 256 352 0.7130101987801197 0.16553097509142778 0.48084307333925547
3 121 86 352 0.7130101987801197 0.16553097509142778 0.48084307333925547
3 160 86 121 0.7130101987801197 0.16553097509142778 0.48084307333925547
3 40 414 68 0.7130101987801197 0.16553097509142778 0.48084307333925547
3 68 414 415 0.7130101987801197 0.16553097509142778 0.48084307333925547
3 489 328 490 0.7130101987801197 0.16553097509142778 0.48084307333925547
3 376 184 283 0.7130101987801197 0.16553097509142778 0.48084307333925547
3 283 335 376 0.7130101987801197 0.16553097509142778 0.48084307333925547
3 335 190 376 0.7130101987801197 0.16553097509142778 0.48084307333925547
3 190 194 376 0.7130101987801197 0.16553097509142778 0.48084307333925547
3 376 194 184 0.7130101987801197 0.16553097509142778 0.48084307333925547
3 374 380 187 0.7130101987801197 0.16553097509142778 0.48084307333925547
3 187 380 5 0.7130101987801197 0.16553097509142778 0.48084307333925547
3 333 380 374 0.7130101987801197 0.16553097509142778 0.48084307333925547
3 487 219 283 0.7130101987801197 0.16553097509142778 0.48084307333925547
3 283 282 487 0.7130101987801197 0.16553097509142778 0.48084307333925547
3 325 219 487 0.7130101987801197 0.16553097509142778 0.48084307333925547
3 499 193 381 0.7130101987801197 0.16553097509142778 0.48084307333925547
3 183 282 499 0.7130101987801197 0.16553097509142778 0.48084307333925547
3 486 487 282 0.7130101987801197 0.16553097509142778 0.48084307333925547
3 281 282 183 0.7130101987801197 0.16553097509142778 0.48084307333925547
3 281 333 374 0.7130101987801197 0.16553097509142778 0.48084307333925547
3 183 333 281 0.7130101987801197 0.16553097509142778 0.48084307333925547
3 281 486 282 0.7130101987801197 0.16553097509142778 0.48084307333925547
3 374 182 281 0.7130101987801197 0.16553097509142778 0.48084307333925547
3 281 182 280 0.7130101987801197 0.16553097509142778 0.48084307333925547
3 186 373 280 0.7130101987801197 0.16553097509142778 0.48084307333925547
3 280 182 186 0.7130101987801197 0.16553097509142778 0.48084307333925547
3 186 331 373 0.7130101987801197 0.16553097509142778 0.48084307333925547
3 186 182 5 0.7130101987801197 0.16553097509142778 0.48084307333925547
3 186 5 4 0.7130101987801197 0.16553097509142778 0.48084307333925547
3 4 331 186 0.7130101987801197 0.16553097509142778 0.48084307333925547
3 330 3 180 0.7130101987801197 0.16553097509142778 0.48084307333925547
3 180 496 330 0.7130101987801197 0.16553097509142778 0.48084307333925547
3 3 496 180 0.7130101987801197 0.16553097509142778 0.48084307333925547
3 57 483 482 0.7130101987801197 0.16553097509142778 0.48084307333925547
3 482 277 59 0.7130101987801197 0.16553097509142778 0.48084307333925547
3 59 57 482 0.7130101987801197 0.16553097509142778 0.48084307333925547
3 482 278 277 0.7130101987801197 0.16553097509142778 0.48084307333925547
3 482 483 278 0.7130101987801197 0.16553097509142778 0.48084307333925547
3 473 169 474 0.7130101987801197 0.16553097509142778 0.48084307333925547
3 168 169 473 0.7130101987801197 0.16553097509142778 0.48084307333925547
3 208 209 170 0.7130101987801197 0.16553097509142778 0.48084307333925547
3 170 169 208 0.7130101987801197 0.16553097509142778 0.48084307333925547
3 47 269 208 0.7130101987801197 0.16553097509142778 0.48084307333925547
3 208 269 209 0.7130101987801197 0.16553097509142778 0.48084307333925547
3 207 168 48 0.7130101987801197 0.16553097509142778 0.48084307333925547
3 207 169 168 0.7130101987801197 0.16553097509142778 0.48084307333925547
3 207 208 169 0.7130101987801197 0.16553097509142778 0.48084307333925547
3 207 48 47 0.7130101987801197 0.16553097509142778 0.48084307333925547
3 47 208 207 0.7130101987801197 0.16553097509142778 0.48084307333925547
3 365 267 268 0.7130101987801197 0.16553097509142778 0.48084307333925547
3 296 94 297 0.7130101987801197 0.16553097509142778 0.48084307333925547
3 469 302 506 0.7130101987801197 0.16553097509142778 0.48084307333925547
3 15 14 294 0.7130101987801197 0.16553097509142778 0.48084307333925547
3 14 295 294 0.7130101987801197 0.16553097509142778 0.48084307333925547
3 399 400 96 0.7130101987801197 0.16553097509142778 0.48084307333925547
3 457 400 399 0.7130101987801197 0.16553097509142778 0.48084307333925547
3 96 299 298 0.7130101987801197 0.16553097509142778 0.48084307333925547
3 468 299 300 0.7130101987801197 0.16553097509142778 0.48084307333925547
3 300 301 468 0.7130101987801197 0.16553097509142778 0.48084307333925547
3 468 301 302 0.7130101987801197 0.16553097509142778 0.48084307333925547
3 302 469 468 0.7130101987801197 0.16553097509142778 0.48084307333925547
3 12 149 150 0.7130101987801197 0.16553097509142778 0.48084307333925547
3 150 151 12 0.7130101987801197 0.16553097509142778 0.48084307333925547
3 454 389 492 0.7130101987801197 0.16553097509142778 0.48084307333925547
3 12 151 152 0.7130101987801197 0.16553097509142778 0.48084307333925547
3 151 150 289 0.7130101987801197 0.16553097509142778 0.48084307333925547
3 339 492 504 0.7130101987801197 0.16553097509142778 0.48084307333925547
3 492 389 504 0.7130101987801197 0.16553097509142778 0.48084307333925547
3 41 40 68 0.7130101987801197 0.16553097509142778 0.48084307333925547
3 18 17 71 0.7130101987801197 0.16553097509142778 0.48084307333925547
3 363 362 126 0.7130101987801197 0.16553097509142778 0.48084307333925547
3 33 402 117 0.7130101987801197 0.16553097509142778 0.48084307333925547
3 117 402 113 0.7130101987801197 0.16553097509142778 0.48084307333925547
3 113 156 117 0.7130101987801197 0.16553097509142778 0.48084307333925547
3 117 34 33 0.7130101987801197 0.16553097509142778 0.48084307333925547
3 117 156 34 0.7130101987801197 0.16553097509142778 0.48084307333925547
3 34 156 247 0.7130101987801197 0.16553097509142778 0.48084307333925547
3 247 253 34 0.7130101987801197 0.16553097509142778 0.48084307333925547
3 247 403 253 0.7130101987801197 0.16553097509142778 0.48084307333925547
3 247 113 25 0.7130101987801197 0.16553097509142778 0.48084307333925547
3 247 156 113 0.7130101987801197 0.16553097509142778 0.48084307333925547
3 24 23 102 0.7130101987801197 0.16553097509142778 0.48084307333925547
3 37 62 200 0.7130101987801197 0.16553097509142778 0.48084307333925547
3 38 37 200 0.7130101987801197 0.16553097509142778 0.48084307333925547
3 351 63 200 0.7130101987801197 0.16553097509142778 0.48084307333925547
3 200 62 351 0.7130101987801197 0.16553097509142778 0.48084307333925547
3 84 62 350 0.7130101987801197 0.16553097509142778 0.48084307333925547
3 350 62 36 0.7130101987801197 0.16553097509142778 0.48084307333925547
3 350 119 84 0.7130101987801197 0.16553097509142778 0.48084307333925547
3 85 159 256 0.7130101987801197 0.16553097509142778 0.48084307333925547
3 85 63 351 0.7130101987801197 0.16553097509142778 0.48084307333925547
3 85 256 63 0.7130101987801197 0.16553097509142778 0.48084307333925547
3 121 256 250 0.7130101987801197 0.16553097509142778 0.48084307333925547
3 256 159 250 0.7130101987801197 0.16553097509142778 0.48084307333925547
3 351 62 255 0.7130101987801197 0.16553097509142778 0.48084307333925547
3 255 62 84 0.7130101987801197 0.16553097509142778 0.48084307333925547
3 32 112 155 0.7130101987801197 0.16553097509142778 0.48084307333925547
3 155 112 246 0.7130101987801197 0.16553097509142778 0.48084307333925547
3 33 32 155 0.7130101987801197 0.16553097509142778 0.48084307333925547
3 155 246 33 0.7130101987801197 0.16553097509142778 0.48084307333925547
3 46 45 303 0.7130101987801197 0.16553097509142778 0.48084307333925547
3 45 304 303 0.7130101987801197 0.16553097509142778 0.48084307333925547
3 303 270 46 0.7130101987801197 0.16553097509142778 0.48084307333925547
3 271 270 303 0.7130101987801197 0.16553097509142778 0.48084307333925547
3 303 304 271 0.7130101987801197 0.16553097509142778 0.48084307333925547
3 305 304 45 0.7130101987801197 0.16553097509142778 0.48084307333925547
3 305 424 306 0.7130101987801197 0.16553097509142778 0.48084307333925547
3 45 424 305 0.7130101987801197 0.16553097509142778 0.48084307333925547
3 272 304 305 0.7130101987801197 0.16553097509142778 0.48084307333925547
3 306 273 305 0.7130101987801197 0.16553097509142778 0.48084307333925547
3 273 272 305 0.7130101987801197 0.16553097509142778 0.48084307333925547
3 44 424 45 0.7130101987801197 0.16553097509142778 0.48084307333925547
3 308 426 427 0.7130101987801197 0.16553097509142778 0.48084307333925547
3 275 274 308 0.7130101987801197 0.16553097509142778 0.48084307333925547
3 164 427 163 0.7130101987801197 0.16553097509142778 0.48084307333925547
3 164 428 427 0.7130101987801197 0.16553097509142778 0.48084307333925547
3 429 166 430 0.7130101987801197 0.16553097509142778 0.48084307333925547
3 392 91 393 0.7130101987801197 0.16553097509142778 0.48084307333925547
3 392 393 14 0.7130101987801197 0.16553097509142778 0.48084307333925547
3 13 89 90 0.7130101987801197 0.16553097509142778 0.48084307333925547
3 293 456 395 0.7130101987801197 0.16553097509142778 0.48084307333925547
3 505 456 293 0.7130101987801197 0.16553097509142778 0.48084307333925547
3 293 455 505 0.7130101987801197 0.16553097509142778 0.48084307333925547
3 477 320 476 0.7130101987801197 0.16553097509142778 0.48084307333925547
3 474 171 475 0.7130101987801197 0.16553097509142778 0.48084307333925547
3 475 318 474 0.7130101987801197 0.16553097509142778 0.48084307333925547
3 271 272 211 0.7130101987801197 0.16553097509142778 0.48084307333925547
3 211 210 271 0.7130101987801197 0.16553097509142778 0.48084307333925547
3 211 272 212 0.7130101987801197 0.16553097509142778 0.48084307333925547
3 342 111 21 0.7130101987801197 0.16553097509142778 0.48084307333925547
3 21 80 342 0.7130101987801197 0.16553097509142778 0.48084307333925547
3 241 343 251 0.7130101987801197 0.16553097509142778 0.48084307333925547
3 81 106 343 0.7130101987801197 0.16553097509142778 0.48084307333925547
3 201 352 86 0.7130101987801197 0.16553097509142778 0.48084307333925547
3 38 200 201 0.7130101987801197 0.16553097509142778 0.48084307333925547
3 63 352 201 0.7130101987801197 0.16553097509142778 0.48084307333925547
3 201 200 63 0.7130101987801197 0.16553097509142778 0.48084307333925547
3 21 111 79 0.7130101987801197 0.16553097509142778 0.48084307333925547
3 22 21 79 0.7130101987801197 0.16553097509142778 0.48084307333925547
3 79 341 22 0.7130101987801197 0.16553097509142778 0.48084307333925547
3 407 160 111 0.7130101987801197 0.16553097509142778 0.48084307333925547
3 407 241 251 0.7130101987801197 0.16553097509142778 0.48084307333925547
3 414 40 413 0.7130101987801197 0.16553097509142778 0.48084307333925547
3 413 39 66 0.7130101987801197 0.16553097509142778 0.48084307333925547
3 413 40 39 0.7130101987801197 0.16553097509142778 0.48084307333925547
3 67 202 354 0.7130101987801197 0.16553097509142778 0.48084307333925547
3 67 415 414 0.7130101987801197 0.16553097509142778 0.48084307333925547
3 66 202 67 0.7130101987801197 0.16553097509142778 0.48084307333925547
3 67 413 66 0.7130101987801197 0.16553097509142778 0.48084307333925547
3 414 413 67 0.7130101987801197 0.16553097509142778 0.48084307333925547
3 252 354 408 0.7130101987801197 0.16553097509142778 0.48084307333925547
3 385 139 336 0.7130101987801197 0.16553097509142778 0.48084307333925547
3 197 139 385 0.7130101987801197 0.16553097509142778 0.48084307333925547
3 450 142 199 0.7130101987801197 0.16553097509142778 0.48084307333925547
3 386 199 449 0.7130101987801197 0.16553097509142778 0.48084307333925547
3 199 142 449 0.7130101987801197 0.16553097509142778 0.48084307333925547
3 502 490 386 0.7130101987801197 0.16553097509142778 0.48084307333925547
3 489 490 502 0.7130101987801197 0.16553097509142778 0.48084307333925547
3 338 199 386 0.7130101987801197 0.16553097509142778 0.48084307333925547
3 386 490 338 0.7130101987801197 0.16553097509142778 0.48084307333925547
3 329 442 443 0.7130101987801197 0.16553097509142778 0.48084307333925547
3 329 328 442 0.7130101987801197 0.16553097509142778 0.48084307333925547
3 329 490 328 0.7130101987801197 0.16553097509142778 0.48084307333925547
3 488 219 326 0.7130101987801197 0.16553097509142778 0.48084307333925547
3 326 220 488 0.7130101987801197 0.16553097509142778 0.48084307333925547
3 313 312 51 0.7130101987801197 0.16553097509142778 0.48084307333925547
3 384 138 185 0.7130101987801197 0.16553097509142778 0.48084307333925547
3 446 9 8 0.7130101987801197 0.16553097509142778 0.48084307333925547
3 335 185 195 0.7130101987801197 0.16553097509142778 0.48084307333925547
3 185 138 195 0.7130101987801197 0.16553097509142778 0.48084307333925547
3 138 8 195 0.7130101987801197 0.16553097509142778 0.48084307333925547
3 7 193 382 0.7130101987801197 0.16553097509142778 0.48084307333925547
3 382 194 7 0.7130101987801197 0.16553097509142778 0.48084307333925547
3 184 194 382 0.7130101987801197 0.16553097509142778 0.48084307333925547
3 5 182 332 0.7130101987801197 0.16553097509142778 0.48084307333925547
3 332 187 5 0.7130101987801197 0.16553097509142778 0.48084307333925547
3 332 182 374 0.7130101987801197 0.16553097509142778 0.48084307333925547
3 374 187 332 0.7130101987801197 0.16553097509142778 0.48084307333925547
3 380 333 6 0.7130101987801197 0.16553097509142778 0.48084307333925547
3 381 193 6 0.7130101987801197 0.16553097509142778 0.48084307333925547
3 6 193 7 0.7130101987801197 0.16553097509142778 0.48084307333925547
3 5 380 6 0.7130101987801197 0.16553097509142778 0.48084307333925547
3 218 176 325 0.7130101987801197 0.16553097509142778 0.48084307333925547
3 325 487 218 0.7130101987801197 0.16553097509142778 0.48084307333925547
3 487 486 218 0.7130101987801197 0.16553097509142778 0.48084307333925547
3 334 282 184 0.7130101987801197 0.16553097509142778 0.48084307333925547
3 334 499 282 0.7130101987801197 0.16553097509142778 0.48084307333925547
3 184 382 334 0.7130101987801197 0.16553097509142778 0.48084307333925547
3 323 174 175 0.7130101987801197 0.16553097509142778 0.48084307333925547
3 323 217 216 0.7130101987801197 0.16553097509142778 0.48084307333925547
3 323 322 174 0.7130101987801197 0.16553097509142778 0.48084307333925547
3 216 322 323 0.7130101987801197 0.16553097509142778 0.48084307333925547
3 216 217 485 0.7130101987801197 0.16553097509142778 0.48084307333925547
3 217 486 485 0.7130101987801197 0.16553097509142778 0.48084307333925547
3 485 280 484 0.7130101987801197 0.16553097509142778 0.48084307333925547
3 484 216 485 0.7130101987801197 0.16553097509142778 0.48084307333925547
3 485 281 280 0.7130101987801197 0.16553097509142778 0.48084307333925547
3 486 281 485 0.7130101987801197 0.16553097509142778 0.48084307333925547
3 484 483 215 0.7130101987801197 0.16553097509142778 0.48084307333925547
3 215 216 484 0.7130101987801197 0.16553097509142778 0.48084307333925547
3 215 322 216 0.7130101987801197 0.16553097509142778 0.48084307333925547
3 131 317 316 0.7130101987801197 0.16553097509142778 0.48084307333925547
3 474 317 131 0.7130101987801197 0.16553097509142778 0.48084307333925547
3 131 473 474 0.7130101987801197 0.16553097509142778 0.48084307333925547
3 421 268 267 0.7130101987801197 0.16553097509142778 0.48084307333925547
3 506 481 434 0.7130101987801197 0.16553097509142778 0.48084307333925547
3 481 433 434 0.7130101987801197 0.16553097509142778 0.48084307333925547
3 434 433 369 0.7130101987801197 0.16553097509142778 0.48084307333925547
3 434 469 506 0.7130101987801197 0.16553097509142778 0.48084307333925547
3 369 469 434 0.7130101987801197 0.16553097509142778 0.48084307333925547
3 430 166 431 0.7130101987801197 0.16553097509142778 0.48084307333925547
3 94 296 93 0.7130101987801197 0.16553097509142778 0.48084307333925547
3 395 94 93 0.7130101987801197 0.16553097509142778 0.48084307333925547
3 412 421 359 0.7130101987801197 0.16553097509142778 0.48084307333925547
3 221 17 16 0.7130101987801197 0.16553097509142778 0.48084307333925547
3 295 296 101 0.7130101987801197 0.16553097509142778 0.48084307333925547
3 101 294 295 0.7130101987801197 0.16553097509142778 0.48084307333925547
3 101 296 297 0.7130101987801197 0.16553097509142778 0.48084307333925547
3 297 298 101 0.7130101987801197 0.16553097509142778 0.48084307333925547
3 398 397 457 0.7130101987801197 0.16553097509142778 0.48084307333925547
3 457 399 398 0.7130101987801197 0.16553097509142778 0.48084307333925547
3 96 397 398 0.7130101987801197 0.16553097509142778 0.48084307333925547
3 398 399 96 0.7130101987801197 0.16553097509142778 0.48084307333925547
3 96 298 95 0.7130101987801197 0.16553097509142778 0.48084307333925547
3 95 397 96 0.7130101987801197 0.16553097509142778 0.48084307333925547
3 297 94 95 0.7130101987801197 0.16553097509142778 0.48084307333925547
3 95 298 297 0.7130101987801197 0.16553097509142778 0.48084307333925547
3 95 396 397 0.7130101987801197 0.16553097509142778 0.48084307333925547
3 94 396 95 0.7130101987801197 0.16553097509142778 0.48084307333925547
3 423 469 369 0.7130101987801197 0.16553097509142778 0.48084307333925547
3 423 468 469 0.7130101987801197 0.16553097509142778 0.48084307333925547
3 467 468 423 0.7130101987801197 0.16553097509142778 0.48084307333925547
3 288 150 149 0.7130101987801197 0.16553097509142778 0.48084307333925547
3 288 452 148 0.7130101987801197 0.16553097509142778 0.48084307333925547
3 148 289 288 0.7130101987801197 0.16553097509142778 0.48084307333925547
3 288 289 150 0.7130101987801197 0.16553097509142778 0.48084307333925547
3 505 455 390 0.7130101987801197 0.16553097509142778 0.48084307333925547
3 390 445 505 0.7130101987801197 0.16553097509142778 0.48084307333925547
3 492 445 390 0.7130101987801197 0.16553097509142778 0.48084307333925547
3 390 454 492 0.7130101987801197 0.16553097509142778 0.48084307333925547
3 89 88 153 0.7130101987801197 0.16553097509142778 0.48084307333925547
3 12 152 87 0.7130101987801197 0.16553097509142778 0.48084307333925547
3 13 12 87 0.7130101987801197 0.16553097509142778 0.48084307333925547
3 87 88 13 0.7130101987801197 0.16553097509142778 0.48084307333925547
3 87 153 88 0.7130101987801197 0.16553097509142778 0.48084307333925547
3 152 153 87 0.7130101987801197 0.16553097509142778 0.48084307333925547
3 290 152 151 0.7130101987801197 0.16553097509142778 0.48084307333925547
3 151 289 290 0.7130101987801197 0.16553097509142778 0.48084307333925547
3 290 454 291 0.7130101987801197 0.16553097509142778 0.48084307333925547
3 389 454 290 0.7130101987801197 0.16553097509142778 0.48084307333925547
3 291 153 290 0.7130101987801197 0.16553097509142778 0.48084307333925547
3 290 153 152 0.7130101987801197 0.16553097509142778 0.48084307333925547
3 42 41 261 0.7130101987801197 0.16553097509142778 0.48084307333925547
3 416 417 70 0.7130101987801197 0.16553097509142778 0.48084307333925547
3 262 261 70 0.7130101987801197 0.16553097509142778 0.48084307333925547
3 42 261 262 0.7130101987801197 0.16553097509142778 0.48084307333925547
3 364 363 126 0.7130101987801197 0.16553097509142778 0.48084307333925547
3 126 267 364 0.7130101987801197 0.16553097509142778 0.48084307333925547
3 364 267 365 0.7130101987801197 0.16553097509142778 0.48084307333925547
3 365 164 364 0.7130101987801197 0.16553097509142778 0.48084307333925547
3 163 363 364 0.7130101987801197 0.16553097509142778 0.48084307333925547
3 364 164 163 0.7130101987801197 0.16553097509142778 0.48084307333925547
3 25 403 107 0.7130101987801197 0.16553097509142778 0.48084307333925547
3 107 247 25 0.7130101987801197 0.16553097509142778 0.48084307333925547
3 403 247 107 0.7130101987801197 0.16553097509142778 0.48084307333925547
3 83 157 248 0.7130101987801197 0.16553097509142778 0.48084307333925547
3 35 118 83 0.7130101987801197 0.16553097509142778 0.48084307333925547
3 118 157 83 0.7130101987801197 0.16553097509142778 0.48084307333925547
3 83 36 35 0.7130101987801197 0.16553097509142778 0.48084307333925547
3 84 119 158 0.7130101987801197 0.16553097509142778 0.48084307333925547
3 158 255 84 0.7130101987801197 0.16553097509142778 0.48084307333925547
3 249 255 158 0.7130101987801197 0.16553097509142778 0.48084307333925547
3 25 24 237 0.7130101987801197 0.16553097509142778 0.48084307333925547
3 404 24 102 0.7130101987801197 0.16553097509142778 0.48084307333925547
3 22 341 104 0.7130101987801197 0.16553097509142778 0.48084307333925547
3 22 104 406 0.7130101987801197 0.16553097509142778 0.48084307333925547
3 23 103 405 0.7130101987801197 0.16553097509142778 0.48084307333925547
3 22 406 110 0.7130101987801197 0.16553097509142778 0.48084307333925547
3 110 250 159 0.7130101987801197 0.16553097509142778 0.48084307333925547
3 110 406 250 0.7130101987801197 0.16553097509142778 0.48084307333925547
3 425 424 161 0.7130101987801197 0.16553097509142778 0.48084307333925547
3 424 44 161 0.7130101987801197 0.16553097509142778 0.48084307333925547
3 161 361 362 0.7130101987801197 0.16553097509142778 0.48084307333925547
3 44 361 161 0.7130101987801197 0.16553097509142778 0.48084307333925547
3 426 308 307 0.7130101987801197 0.16553097509142778 0.48084307333925547
3 306 425 307 0.7130101987801197 0.16553097509142778 0.48084307333925547
3 425 426 307 0.7130101987801197 0.16553097509142778 0.48084307333925547
3 307 274 306 0.7130101987801197 0.16553097509142778 0.48084307333925547
3 307 308 274 0.7130101987801197 0.16553097509142778 0.48084307333925547
3 427 428 309 0.7130101987801197 0.16553097509142778 0.48084307333925547
3 309 308 427 0.7130101987801197 0.16553097509142778 0.48084307333925547
3 428 429 309 0.7130101987801197 0.16553097509142778 0.48084307333925547
3 276 275 309 0.7130101987801197 0.16553097509142778 0.48084307333925547
3 275 308 309 0.7130101987801197 0.16553097509142778 0.48084307333925547
3 365 166 165 0.7130101987801197 0.16553097509142778 0.48084307333925547
3 165 164 365 0.7130101987801197 0.16553097509142778 0.48084307333925547
3 428 164 165 0.7130101987801197 0.16553097509142778 0.48084307333925547
3 165 429 428 0.7130101987801197 0.16553097509142778 0.48084307333925547
3 166 429 165 0.7130101987801197 0.16553097509142778 0.48084307333925547
3 266 267 126 0.7130101987801197 0.16553097509142778 0.48084307333925547
3 264 124 123 0.7130101987801197 0.16553097509142778 0.48084307333925547
3 265 124 264 0.7130101987801197 0.16553097509142778 0.48084307333925547
3 391 14 13 0.7130101987801197 0.16553097509142778 0.48084307333925547
3 391 392 14 0.7130101987801197 0.16553097509142778 0.48084307333925547
3 91 392 391 0.7130101987801197 0.16553097509142778 0.48084307333925547
3 13 90 391 0.7130101987801197 0.16553097509142778 0.48084307333925547
3 391 90 91 0.7130101987801197 0.16553097509142778 0.48084307333925547
3 91 90 292 0.7130101987801197 0.16553097509142778 0.48084307333925547
3 455 293 292 0.7130101987801197 0.16553097509142778 0.48084307333925547
3 292 293 91 0.7130101987801197 0.16553097509142778 0.48084307333925547
3 292 390 455 0.7130101987801197 0.16553097509142778 0.48084307333925547
3 291 454 292 0.7130101987801197 0.16553097509142778 0.48084307333925547
3 454 390 292 0.7130101987801197 0.16553097509142778 0.48084307333925547
3 394 293 395 0.7130101987801197 0.16553097509142778 0.48084307333925547
3 91 293 394 0.7130101987801197 0.16553097509142778 0.48084307333925547
3 393 91 394 0.7130101987801197 0.16553097509142778 0.48084307333925547
3 14 393 394 0.7130101987801197 0.16553097509142778 0.48084307333925547
3 443 442 319 0.7130101987801197 0.16553097509142778 0.48084307333925547
3 442 318 319 0.7130101987801197 0.16553097509142778 0.48084307333925547
3 319 320 443 0.7130101987801197 0.16553097509142778 0.48084307333925547
3 319 476 320 0.7130101987801197 0.16553097509142778 0.48084307333925547
3 318 475 319 0.7130101987801197 0.16553097509142778 0.48084307333925547
3 319 475 476 0.7130101987801197 0.16553097509142778 0.48084307333925547
3 172 475 171 0.7130101987801197 0.16553097509142778 0.48084307333925547
3 476 475 172 0.7130101987801197 0.16553097509142778 0.48084307333925547
3 171 210 172 0.7130101987801197 0.16553097509142778 0.48084307333925547
3 210 211 172 0.7130101987801197 0.16553097509142778 0.48084307333925547
3 172 211 212 0.7130101987801197 0.16553097509142778 0.48084307333925547
3 212 477 172 0.7130101987801197 0.16553097509142778 0.48084307333925547
3 477 476 172 0.7130101987801197 0.16553097509142778 0.48084307333925547
3 408 354 258 0.7130101987801197 0.16553097509142778 0.48084307333925547
3 258 106 408 0.7130101987801197 0.16553097509142778 0.48084307333925547
3 258 353 251 0.7130101987801197 0.16553097509142778 0.48084307333925547
3 251 343 258 0.7130101987801197 0.16553097509142778 0.48084307333925547
3 343 106 258 0.7130101987801197 0.16553097509142778 0.48084307333925547
3 354 202 258 0.7130101987801197 0.16553097509142778 0.48084307333925547
3 202 353 258 0.7130101987801197 0.16553097509142778 0.48084307333925547
3 408 106 242 0.7130101987801197 0.16553097509142778 0.48084307333925547
3 242 252 408 0.7130101987801197 0.16553097509142778 0.48084307333925547
3 343 241 229 0.7130101987801197 0.16553097509142778 0.48084307333925547
3 229 81 343 0.7130101987801197 0.16553097509142778 0.48084307333925547
3 229 241 80 0.7130101987801197 0.16553097509142778 0.48084307333925547
3 20 81 229 0.7130101987801197 0.16553097509142778 0.48084307333925547
3 21 20 229 0.7130101987801197 0.16553097509142778 0.48084307333925547
3 229 80 21 0.7130101987801197 0.16553097509142778 0.48084307333925547
3 106 81 230 0.7130101987801197 0.16553097509142778 0.48084307333925547
3 230 242 106 0.7130101987801197 0.16553097509142778 0.48084307333925547
3 20 75 230 0.7130101987801197 0.16553097509142778 0.48084307333925547
3 230 81 20 0.7130101987801197 0.16553097509142778 0.48084307333925547
3 65 39 38 0.7130101987801197 0.16553097509142778 0.48084307333925547
3 38 201 65 0.7130101987801197 0.16553097509142778 0.48084307333925547
3 66 39 65 0.7130101987801197 0.16553097509142778 0.48084307333925547
3 65 201 66 0.7130101987801197 0.16553097509142778 0.48084307333925547
3 111 342 105 0.7130101987801197 0.16553097509142778 0.48084307333925547
3 105 407 111 0.7130101987801197 0.16553097509142778 0.48084307333925547
3 241 407 105 0.7130101987801197 0.16553097509142778 0.48084307333925547
3 105 342 80 0.7130101987801197 0.16553097509142778 0.48084307333925547
3 80 241 105 0.7130101987801197 0.16553097509142778 0.48084307333925547
3 257 407 251 0.7130101987801197 0.16553097509142778 0.48084307333925547
3 251 353 257 0.7130101987801197 0.16553097509142778 0.48084307333925547
3 160 407 257 0.7130101987801197 0.16553097509142778 0.48084307333925547
3 86 160 257 0.7130101987801197 0.16553097509142778 0.48084307333925547
3 64 201 86 0.7130101987801197 0.16553097509142778 0.48084307333925547
3 86 257 64 0.7130101987801197 0.16553097509142778 0.48084307333925547
3 64 257 353 0.7130101987801197 0.16553097509142778 0.48084307333925547
3 64 353 202 0.7130101987801197 0.16553097509142778 0.48084307333925547
3 64 202 66 0.7130101987801197 0.16553097509142778 0.48084307333925547
3 66 201 64 0.7130101987801197 0.16553097509142778 0.48084307333925547
3 415 67 203 0.7130101987801197 0.16553097509142778 0.48084307333925547
3 203 67 354 0.7130101987801197 0.16553097509142778 0.48084307333925547
3 197 385 192 0.7130101987801197 0.16553097509142778 0.48084307333925547
3 192 502 337 0.7130101987801197 0.16553097509142778 0.48084307333925547
3 452 288 147 0.7130101987801197 0.16553097509142778 0.48084307333925547
3 388 451 503 0.7130101987801197 0.16553097509142778 0.48084307333925547
3 388 147 451 0.7130101987801197 0.16553097509142778 0.48084307333925547
3 339 452 388 0.7130101987801197 0.16553097509142778 0.48084307333925547
3 452 147 388 0.7130101987801197 0.16553097509142778 0.48084307333925547
3 503 451 146 0.7130101987801197 0.16553097509142778 0.48084307333925547
3 446 139 447 0.7130101987801197 0.16553097509142778 0.48084307333925547
3 447 9 446 0.7130101987801197 0.16553097509142778 0.48084307333925547
3 447 139 197 0.7130101987801197 0.16553097509142778 0.48084307333925547
3 143 144 10 0.7130101987801197 0.16553097509142778 0.48084307333925547
3 10 9 143 0.7130101987801197 0.16553097509142778 0.48084307333925547
3 10 144 145 0.7130101987801197 0.16553097509142778 0.48084307333925547
3 144 449 145 0.7130101987801197 0.16553097509142778 0.48084307333925547
3 145 449 142 0.7130101987801197 0.16553097509142778 0.48084307333925547
3 142 450 145 0.7130101987801197 0.16553097509142778 0.48084307333925547
3 387 338 503 0.7130101987801197 0.16553097509142778 0.48084307333925547
3 503 146 387 0.7130101987801197 0.16553097509142778 0.48084307333925547
3 387 146 450 0.7130101987801197 0.16553097509142778 0.48084307333925547
3 387 450 199 0.7130101987801197 0.16553097509142778 0.48084307333925547
3 199 338 387 0.7130101987801197 0.16553097509142778 0.48084307333925547
3 491 329 443 0.7130101987801197 0.16553097509142778 0.48084307333925547
3 443 492 491 0.7130101987801197 0.16553097509142778 0.48084307333925547
3 491 492 339 0.7130101987801197 0.16553097509142778 0.48084307333925547
3 339 388 491 0.7130101987801197 0.16553097509142778 0.48084307333925547
3 491 388 503 0.7130101987801197 0.16553097509142778 0.48084307333925547
3 503 338 491 0.7130101987801197 0.16553097509142778 0.48084307333925547
3 491 338 490 0.7130101987801197 0.16553097509142778 0.48084307333925547
3 490 329 491 0.7130101987801197 0.16553097509142778 0.48084307333925547
3 177 219 325 0.7130101987801197 0.16553097509142778 0.48084307333925547
3 177 326 219 0.7130101987801197 0.16553097509142778 0.48084307333925547
3 51 50 127 0.7130101987801197 0.16553097509142778 0.48084307333925547
3 127 313 51 0.7130101987801197 0.16553097509142778 0.48084307333925547
3 470 50 49 0.7130101987801197 0.16553097509142778 0.48084307333925547
3 168 473 472 0.7130101987801197 0.16553097509142778 0.48084307333925547
3 472 167 168 0.7130101987801197 0.16553097509142778 0.48084307333925547
3 441 328 440 0.7130101987801197 0.16553097509142778 0.48084307333925547
3 440 328 327 0.7130101987801197 0.16553097509142778 0.48084307333925547
3 440 316 441 0.7130101987801197 0.16553097509142778 0.48084307333925547
3 440 136 316 0.7130101987801197 0.16553097509142778 0.48084307333925547
3 327 220 178 0.7130101987801197 0.16553097509142778 0.48084307333925547
3 220 326 178 0.7130101987801197 0.16553097509142778 0.48084307333925547
3 178 440 327 0.7130101987801197 0.16553097509142778 0.48084307333925547
3 136 440 178 0.7130101987801197 0.16553097509142778 0.48084307333925547
3 316 136 315 0.7130101987801197 0.16553097509142778 0.48084307333925547
3 315 136 135 0.7130101987801197 0.16553097509142778 0.48084307333925547
3 191 185 501 0.7130101987801197 0.16553097509142778 0.48084307333925547
3 191 384 185 0.7130101987801197 0.16553097509142778 0.48084307333925547
3 191 501 336 0.7130101987801197 0.16553097509142778 0.48084307333925547
3 383 190 335 0.7130101987801197 0.16553097509142778 0.48084307333925547
3 335 195 383 0.7130101987801197 0.16553097509142778 0.48084307333925547
3 383 194 190 0.7130101987801197 0.16553097509142778 0.48084307333925547
3 188 333 183 0.7130101987801197 0.16553097509142778 0.48084307333925547
3 188 6 333 0.7130101987801197 0.16553097509142778 0.48084307333925547
3 381 6 188 0.7130101987801197 0.16553097509142778 0.48084307333925547
3 183 499 188 0.7130101987801197 0.16553097509142778 0.48084307333925547
3 188 499 381 0.7130101987801197 0.16553097509142778 0.48084307333925547
3 175 176 324 0.7130101987801197 0.16553097509142778 0.48084307333925547
3 176 218 324 0.7130101987801197 0.16553097509142778 0.48084307333925547
3 324 323 175 0.7130101987801197 0.16553097509142778 0.48084307333925547
3 217 323 324 0.7130101987801197 0.16553097509142778 0.48084307333925547
3 324 486 217 0.7130101987801197 0.16553097509142778 0.48084307333925547
3 324 218 486 0.7130101987801197 0.16553097509142778 0.48084307333925547
3 193 499 189 0.7130101987801197 0.16553097509142778 0.48084307333925547
3 499 334 189 0.7130101987801197 0.16553097509142778 0.48084307333925547
3 189 382 193 0.7130101987801197 0.16553097509142778 0.48084307333925547
3 189 334 382 0.7130101987801197 0.16553097509142778 0.48084307333925547
3 214 215 483 0.7130101987801197 0.16553097509142778 0.48084307333925547
3 56 215 214 0.7130101987801197 0.16553097509142778 0.48084307333925547
3 214 483 57 0.7130101987801197 0.16553097509142778 0.48084307333925547
3 57 56 214 0.7130101987801197 0.16553097509142778 0.48084307333925547
3 322 215 321 0.7130101987801197 0.16553097509142778 0.48084307333925547
3 321 215 56 0.7130101987801197 0.16553097509142778 0.48084307333925547
3 365 268 366 0.7130101987801197 0.16553097509142778 0.48084307333925547
3 268 367 366 0.7130101987801197 0.16553097509142778 0.48084307333925547
3 366 166 365 0.7130101987801197 0.16553097509142778 0.48084307333925547
3 366 367 166 0.7130101987801197 0.16553097509142778 0.48084307333925547
3 369 433 432 0.7130101987801197 0.16553097509142778 0.48084307333925547
3 432 431 166 0.7130101987801197 0.16553097509142778 0.48084307333925547
3 92 296 295 0.7130101987801197 0.16553097509142778 0.48084307333925547
3 92 93 296 0.7130101987801197 0.16553097509142778 0.48084307333925547
3 92 295 14 0.7130101987801197 0.16553097509142778 0.48084307333925547
3 14 394 92 0.7130101987801197 0.16553097509142778 0.48084307333925547
3 395 93 92 0.7130101987801197 0.16553097509142778 0.48084307333925547
3 92 394 395 0.7130101987801197 0.16553097509142778 0.48084307333925547
3 359 464 349 0.7130101987801197 0.16553097509142778 0.48084307333925547
3 349 412 359 0.7130101987801197 0.16553097509142778 0.48084307333925547
3 299 468 228 0.7130101987801197 0.16553097509142778 0.48084307333925547
3 228 298 299 0.7130101987801197 0.16553097509142778 0.48084307333925547
3 228 101 298 0.7130101987801197 0.16553097509142778 0.48084307333925547
3 228 468 467 0.7130101987801197 0.16553097509142778 0.48084307333925547
3 467 466 228 0.7130101987801197 0.16553097509142778 0.48084307333925547
3 368 423 369 0.7130101987801197 0.16553097509142778 0.48084307333925547
3 369 432 368 0.7130101987801197 0.16553097509142778 0.48084307333925547
3 166 367 368 0.7130101987801197 0.16553097509142778 0.48084307333925547
3 368 432 166 0.7130101987801197 0.16553097509142778 0.48084307333925547
3 422 367 268 0.7130101987801197 0.16553097509142778 0.48084307333925547
3 268 421 422 0.7130101987801197 0.16553097509142778 0.48084307333925547
3 422 368 367 0.7130101987801197 0.16553097509142778 0.48084307333925547
3 423 368 422 0.7130101987801197 0.16553097509142778 0.48084307333925547
3 421 412 422 0.7130101987801197 0.16553097509142778 0.48084307333925547
3 412 466 422 0.7130101987801197 0.16553097509142778 0.48084307333925547
3 467 423 422 0.7130101987801197 0.16553097509142778 0.48084307333925547
3 422 466 467 0.7130101987801197 0.16553097509142778 0.48084307333925547
3 389 290 453 0.7130101987801197 0.16553097509142778 0.48084307333925547
3 453 290 289 0.7130101987801197 0.16553097509142778 0.48084307333925547
3 453 504 389 0.7130101987801197 0.16553097509142778 0.48084307333925547
3 453 289 148 0.7130101987801197 0.16553097509142778 0.48084307333925547
3 453 148 339 0.7130101987801197 0.16553097509142778 0.48084307333925547
3 339 504 453 0.7130101987801197 0.16553097509142778 0.48084307333925547
3 69 261 41 0.7130101987801197 0.16553097509142778 0.48084307333925547
3 68 415 69 0.7130101987801197 0.16553097509142778 0.48084307333925547
3 69 41 68 0.7130101987801197 0.16553097509142778 0.48084307333925547
3 70 261 69 0.7130101987801197 0.16553097509142778 0.48084307333925547
3 69 416 70 0.7130101987801197 0.16553097509142778 0.48084307333925547
3 415 416 69 0.7130101987801197 0.16553097509142778 0.48084307333925547
3 77 458 459 0.7130101987801197 0.16553097509142778 0.48084307333925547
3 417 416 205 0.7130101987801197 0.16553097509142778 0.48084307333925547
3 356 205 204 0.7130101987801197 0.16553097509142778 0.48084307333925547
3 204 205 416 0.7130101987801197 0.16553097509142778 0.48084307333925547
3 204 416 415 0.7130101987801197 0.16553097509142778 0.48084307333925547
3 415 203 204 0.7130101987801197 0.16553097509142778 0.48084307333925547
3 42 262 122 0.7130101987801197 0.16553097509142778 0.48084307333925547
3 43 42 122 0.7130101987801197 0.16553097509142778 0.48084307333925547
3 122 123 43 0.7130101987801197 0.16553097509142778 0.48084307333925547
3 72 71 17 0.7130101987801197 0.16553097509142778 0.48084307333925547
3 463 223 464 0.7130101987801197 0.16553097509142778 0.48084307333925547
3 417 205 206 0.7130101987801197 0.16553097509142778 0.48084307333925547
3 254 83 248 0.7130101987801197 0.16553097509142778 0.48084307333925547
3 248 404 254 0.7130101987801197 0.16553097509142778 0.48084307333925547
3 254 404 119 0.7130101987801197 0.16553097509142778 0.48084307333925547
3 119 350 254 0.7130101987801197 0.16553097509142778 0.48084307333925547
3 254 350 36 0.7130101987801197 0.16553097509142778 0.48084307333925547
3 36 83 254 0.7130101987801197 0.16553097509142778 0.48084307333925547
3 248 157 114 0.7130101987801197 0.16553097509142778 0.48084307333925547
3 114 237 248 0.7130101987801197 0.16553097509142778 0.48084307333925547
3 118 403 114 0.7130101987801197 0.16553097509142778 0.48084307333925547
3 114 157 118 0.7130101987801197 0.16553097509142778 0.48084307333925547
3 114 403 25 0.7130101987801197 0.16553097509142778 0.48084307333925547
3 25 237 114 0.7130101987801197 0.16553097509142778 0.48084307333925547
3 249 158 109 0.7130101987801197 0.16553097509142778 0.48084307333925547
3 158 238 109 0.7130101987801197 0.16553097509142778 0.48084307333925547
3 23 405 109 0.7130101987801197 0.16553097509142778 0.48084307333925547
3 109 405 249 0.7130101987801197 0.16553097509142778 0.48084307333925547
3 102 23 109 0.7130101987801197 0.16553097509142778 0.48084307333925547
3 109 238 102 0.7130101987801197 0.16553097509142778 0.48084307333925547
3 248 237 108 0.7130101987801197 0.16553097509142778 0.48084307333925547
3 108 404 248 0.7130101987801197 0.16553097509142778 0.48084307333925547
3 108 237 24 0.7130101987801197 0.16553097509142778 0.48084307333925547
3 24 404 108 0.7130101987801197 0.16553097509142778 0.48084307333925547
3 115 158 119 0.7130101987801197 0.16553097509142778 0.48084307333925547
3 119 404 115 0.7130101987801197 0.16553097509142778 0.48084307333925547
3 115 238 158 0.7130101987801197 0.16553097509142778 0.48084307333925547
3 102 238 115 0.7130101987801197 0.16553097509142778 0.48084307333925547
3 115 404 102 0.7130101987801197 0.16553097509142778 0.48084307333925547
3 341 79 240 0.7130101987801197 0.16553097509142778 0.48084307333925547
3 240 104 341 0.7130101987801197 0.16553097509142778 0.48084307333925547
3 240 79 111 0.7130101987801197 0.16553097509142778 0.48084307333925547
3 240 160 121 0.7130101987801197 0.16553097509142778 0.48084307333925547
3 111 160 240 0.7130101987801197 0.16553097509142778 0.48084307333925547
3 121 250 240 0.7130101987801197 0.16553097509142778 0.48084307333925547
3 250 406 240 0.7130101987801197 0.16553097509142778 0.48084307333925547
3 240 406 104 0.7130101987801197 0.16553097509142778 0.48084307333925547
3 116 110 159 0.7130101987801197 0.16553097509142778 0.48084307333925547
3 120 85 351 0.7130101987801197 0.16553097509142778 0.48084307333925547
3 351 255 120 0.7130101987801197 0.16553097509142778 0.48084307333925547
3 405 116 120 0.7130101987801197 0.16553097509142778 0.48084307333925547
3 120 255 249 0.7130101987801197 0.16553097509142778 0.48084307333925547
3 249 405 120 0.7130101987801197 0.16553097509142778 0.48084307333925547
3 159 85 120 0.7130101987801197 0.16553097509142778 0.48084307333925547
3 120 116 159 0.7130101987801197 0.16553097509142778 0.48084307333925547
3 22 110 340 0.7130101987801197 0.16553097509142778 0.48084307333925547
3 340 23 22 0.7130101987801197 0.16553097509142778 0.48084307333925547
3 340 103 23 0.7130101987801197 0.16553097509142778 0.48084307333925547
3 425 161 162 0.7130101987801197 0.16553097509142778 0.48084307333925547
3 163 426 162 0.7130101987801197 0.16553097509142778 0.48084307333925547
3 162 426 425 0.7130101987801197 0.16553097509142778 0.48084307333925547
3 162 161 362 0.7130101987801197 0.16553097509142778 0.48084307333925547
3 162 363 163 0.7130101987801197 0.16553097509142778 0.48084307333925547
3 362 363 162 0.7130101987801197 0.16553097509142778 0.48084307333925547
3 310 429 430 0.7130101987801197 0.16553097509142778 0.48084307333925547
3 310 309 429 0.7130101987801197 0.16553097509142778 0.48084307333925547
3 276 309 310 0.7130101987801197 0.16553097509142778 0.48084307333925547
3 419 266 265 0.7130101987801197 0.16553097509142778 0.48084307333925547
3 125 124 265 0.7130101987801197 0.16553097509142778 0.48084307333925547
3 125 266 126 0.7130101987801197 0.16553097509142778 0.48084307333925547
3 265 266 125 0.7130101987801197 0.16553097509142778 0.48084307333925547
3 361 124 125 0.7130101987801197 0.16553097509142778 0.48084307333925547
3 126 362 125 0.7130101987801197 0.16553097509142778 0.48084307333925547
3 362 361 125 0.7130101987801197 0.16553097509142778 0.48084307333925547
3 360 124 361 0.7130101987801197 0.16553097509142778 0.48084307333925547
3 360 44 43 0.7130101987801197 0.16553097509142778 0.48084307333925547
3 360 361 44 0.7130101987801197 0.16553097509142778 0.48084307333925547
3 43 123 360 0.7130101987801197 0.16553097509142778 0.48084307333925547
3 123 124 360 0.7130101987801197 0.16553097509142778 0.48084307333925547
3 417 264 263 0.7130101987801197 0.16553097509142778 0.48084307333925547
3 70 417 263 0.7130101987801197 0.16553097509142778 0.48084307333925547
3 263 262 70 0.7130101987801197 0.16553097509142778 0.48084307333925547
3 263 122 262 0.7130101987801197 0.16553097509142778 0.48084307333925547
3 263 264 123 0.7130101987801197 0.16553097509142778 0.48084307333925547
3 123 122 263 0.7130101987801197 0.16553097509142778 0.48084307333925547
3 154 90 89 0.7130101987801197 0.16553097509142778 0.48084307333925547
3 154 292 90 0.7130101987801197 0.16553097509142778 0.48084307333925547
3 89 153 154 0.7130101987801197 0.16553097509142778 0.48084307333925547
3 154 153 291 0.7130101987801197 0.16553097509142778 0.48084307333925547
3 291 292 154 0.7130101987801197 0.16553097509142778 0.48084307333925547
3 284 385 336 0.7130101987801197 0.16553097509142778 0.48084307333925547
3 284 192 385 0.7130101987801197 0.16553097509142778 0.48084307333925547
3 336 501 284 0.7130101987801197 0.16553097509142778 0.48084307333925547
3 489 502 284 0.7130101987801197 0.16553097509142778 0.48084307333925547
3 502 192 284 0.7130101987801197 0.16553097509142778 0.48084307333925547
3 284 283 488 0.7130101987801197 0.16553097509142778 0.48084307333925547
3 284 185 283 0.7130101987801197 0.16553097509142778 0.48084307333925547
3 501 185 284 0.7130101987801197 0.16553097509142778 0.48084307333925547
3 488 220 284 0.7130101987801197 0.16553097509142778 0.48084307333925547
3 284 220 489 0.7130101987801197 0.16553097509142778 0.48084307333925547
3 287 147 288 0.7130101987801197 0.16553097509142778 0.48084307333925547
3 287 149 11 0.7130101987801197 0.16553097509142778 0.48084307333925547
3 287 288 149 0.7130101987801197 0.16553097509142778 0.48084307333925547
3 286 287 11 0.7130101987801197 0.16553097509142778 0.48084307333925547
3 286 146 451 0.7130101987801197 0.16553097509142778 0.48084307333925547
3 451 147 286 0.7130101987801197 0.16553097509142778 0.48084307333925547
3 147 287 286 0.7130101987801197 0.16553097509142778 0.48084307333925547
3 140 192 337 0.7130101987801197 0.16553097509142778 0.48084307333925547
3 197 192 140 0.7130101987801197 0.16553097509142778 0.48084307333925547
3 140 447 197 0.7130101987801197 0.16553097509142778 0.48084307333925547
3 9 447 140 0.7130101987801197 0.16553097509142778 0.48084307333925547
3 198 502 386 0.7130101987801197 0.16553097509142778 0.48084307333925547
3 337 502 198 0.7130101987801197 0.16553097509142778 0.48084307333925547
3 450 146 285 0.7130101987801197 0.16553097509142778 0.48084307333925547
3 285 145 450 0.7130101987801197 0.16553097509142778 0.48084307333925547
3 146 286 285 0.7130101987801197 0.16553097509142778 0.48084307333925547
3 10 145 285 0.7130101987801197 0.16553097509142778 0.48084307333925547
3 11 10 285 0.7130101987801197 0.16553097509142778 0.48084307333925547
3 285 286 11 0.7130101987801197 0.16553097509142778 0.48084307333925547
3 325 176 438 0.7130101987801197 0.16553097509142778 0.48084307333925547
3 438 177 325 0.7130101987801197 0.16553097509142778 0.48084307333925547
3 438 176 437 0.7130101987801197 0.16553097509142778 0.48084307333925547
3 135 177 438 0.7130101987801197 0.16553097509142778 0.48084307333925547
3 128 470 129 0.7130101987801197 0.16553097509142778 0.48084307333925547
3 128 127 50 0.7130101987801197 0.16553097509142778 0.48084307333925547
3 50 470 128 0.7130101987801197 0.16553097509142778 0.48084307333925547
3 473 131 130 0.7130101987801197 0.16553097509142778 0.48084307333925547
3 130 472 473 0.7130101987801197 0.16553097509142778 0.48084307333925547
3 130 131 316 0.7130101987801197 0.16553097509142778 0.48084307333925547
3 316 315 130 0.7130101987801197 0.16553097509142778 0.48084307333925547
3 130 315 129 0.7130101987801197 0.16553097509142778 0.48084307333925547
3 167 472 471 0.7130101987801197 0.16553097509142778 0.48084307333925547
3 49 167 471 0.7130101987801197 0.16553097509142778 0.48084307333925547
3 471 470 49 0.7130101987801197 0.16553097509142778 0.48084307333925547
3 129 470 471 0.7130101987801197 0.16553097509142778 0.48084307333925547
3 471 130 129 0.7130101987801197 0.16553097509142778 0.48084307333925547
3 472 130 471 0.7130101987801197 0.16553097509142778 0.48084307333925547
3 135 136 439 0.7130101987801197 0.16553097509142778 0.48084307333925547
3 136 178 439 0.7130101987801197 0.16553097509142778 0.48084307333925547
3 439 178 326 0.7130101987801197 0.16553097509142778 0.48084307333925547
3 439 177 135 0.7130101987801197 0.16553097509142778 0.48084307333925547
3 326 177 439 0.7130101987801197 0.16553097509142778 0.48084307333925547
3 196 191 336 0.7130101987801197 0.16553097509142778 0.48084307333925547
3 384 191 196 0.7130101987801197 0.16553097509142778 0.48084307333925547
3 336 139 196 0.7130101987801197 0.16553097509142778 0.48084307333925547
3 196 139 446 0.7130101987801197 0.16553097509142778 0.48084307333925547
3 138 384 196 0.7130101987801197 0.16553097509142778 0.48084307333925547
3 446 8 196 0.7130101987801197 0.16553097509142778 0.48084307333925547
3 196 8 138 0.7130101987801197 0.16553097509142778 0.48084307333925547
3 7 194 137 0.7130101987801197 0.16553097509142778 0.48084307333925547
3 194 383 137 0.7130101987801197 0.16553097509142778 0.48084307333925547
3 137 383 195 0.7130101987801197 0.16553097509142778 0.48084307333925547
3 137 8 7 0.7130101987801197 0.16553097509142778 0.48084307333925547
3 137 195 8 0.7130101987801197 0.16553097509142778 0.48084307333925547
3 173 322 55 0.7130101987801197 0.16553097509142778 0.48084307333925547
3 322 321 55 0.7130101987801197 0.16553097509142778 0.48084307333925547
3 55 54 173 0.7130101987801197 0.16553097509142778 0.48084307333925547
3 55 321 56 0.7130101987801197 0.16553097509142778 0.48084307333925547
3 465 466 412 0.7130101987801197 0.16553097509142778 0.48084307333925547
3 412 349 465 0.7130101987801197 0.16553097509142778 0.48084307333925547
3 465 226 466 0.7130101987801197 0.16553097509142778 0.48084307333925547
3 225 226 465 0.7130101987801197 0.16553097509142778 0.48084307333925547
3 465 349 464 0.7130101987801197 0.16553097509142778 0.48084307333925547
3 224 223 16 0.7130101987801197 0.16553097509142778 0.48084307333925547
3 464 223 224 0.7130101987801197 0.16553097509142778 0.48084307333925547
3 225 465 224 0.7130101987801197 0.16553097509142778 0.48084307333925547
3 224 465 464 0.7130101987801197 0.16553097509142778 0.48084307333925547
3 221 16 222 0.7130101987801197 0.16553097509142778 0.48084307333925547
3 16 223 222 0.7130101987801197 0.16553097509142778 0.48084307333925547
3 223 463 222 0.7130101987801197 0.16553097509142778 0.48084307333925547
3 232 77 345 0.7130101987801197 0.16553097509142778 0.48084307333925547
3 458 77 232 0.7130101987801197 0.16553097509142778 0.48084307333925547
3 252 242 344 0.7130101987801197 0.16553097509142778 0.48084307333925547
3 355 204 203 0.7130101987801197 0.16553097509142778 0.48084307333925547
3 354 252 355 0.7130101987801197 0.16553097509142778 0.48084307333925547
3 355 203 354 0.7130101987801197 0.16553097509142778 0.48084307333925547
3 73 72 17 0.7130101987801197 0.16553097509142778 0.48084307333925547
3 73 17 221 0.7130101987801197 0.16553097509142778 0.48084307333925547
3 236 463 464 0.7130101987801197 0.16553097509142778 0.48084307333925547
3 235 463 236 0.7130101987801197 0.16553097509142778 0.48084307333925547
3 418 264 417 0.7130101987801197 0.16553097509142778 0.48084307333925547
3 417 206 418 0.7130101987801197 0.16553097509142778 0.48084307333925547
3 265 264 418 0.7130101987801197 0.16553097509142778 0.48084307333925547
3 418 419 265 0.7130101987801197 0.16553097509142778 0.48084307333925547
3 260 205 356 0.7130101987801197 0.16553097509142778 0.48084307333925547
3 260 206 205 0.7130101987801197 0.16553097509142778 0.48084307333925547
3 356 409 260 0.7130101987801197 0.16553097509142778 0.48084307333925547
3 460 459 18 0.7130101987801197 0.16553097509142778 0.48084307333925547
3 18 71 460 0.7130101987801197 0.16553097509142778 0.48084307333925547
3 72 73 461 0.7130101987801197 0.16553097509142778 0.48084307333925547
3 235 347 461 0.7130101987801197 0.16553097509142778 0.48084307333925547
3 461 347 234 0.7130101987801197 0.16553097509142778 0.48084307333925547
3 234 460 461 0.7130101987801197 0.16553097509142778 0.48084307333925547
3 71 72 461 0.7130101987801197 0.16553097509142778 0.48084307333925547
3 461 460 71 0.7130101987801197 0.16553097509142778 0.48084307333925547
3 239 405 103 0.7130101987801197 0.16553097509142778 0.48084307333925547
3 239 116 405 0.7130101987801197 0.16553097509142778 0.48084307333925547
3 110 116 239 0.7130101987801197 0.16553097509142778 0.48084307333925547
3 103 340 239 0.7130101987801197 0.16553097509142778 0.48084307333925547
3 239 340 110 0.7130101987801197 0.16553097509142778 0.48084307333925547
3 430 431 311 0.7130101987801197 0.16553097509142778 0.48084307333925547
3 311 310 430 0.7130101987801197 0.16553097509142778 0.48084307333925547
3 431 432 311 0.7130101987801197 0.16553097509142778 0.48084307333925547
3 311 432 433 0.7130101987801197 0.16553097509142778 0.48084307333925547
3 481 480 311 0.7130101987801197 0.16553097509142778 0.48084307333925547
3 311 433 481 0.7130101987801197 0.16553097509142778 0.48084307333925547
3 311 480 276 0.7130101987801197 0.16553097509142778 0.48084307333925547
3 276 310 311 0.7130101987801197 0.16553097509142778 0.48084307333925547
3 386 449 141 0.7130101987801197 0.16553097509142778 0.48084307333925547
3 141 198 386 0.7130101987801197 0.16553097509142778 0.48084307333925547
3 141 449 144 0.7130101987801197 0.16553097509142778 0.48084307333925547
3 144 143 141 0.7130101987801197 0.16553097509142778 0.48084307333925547
3 448 143 9 0.7130101987801197 0.16553097509142778 0.48084307333925547
3 9 140 448 0.7130101987801197 0.16553097509142778 0.48084307333925547
3 448 141 143 0.7130101987801197 0.16553097509142778 0.48084307333925547
3 198 141 448 0.7130101987801197 0.16553097509142778 0.48084307333925547
3 448 140 337 0.7130101987801197 0.16553097509142778 0.48084307333925547
3 337 198 448 0.7130101987801197 0.16553097509142778 0.48084307333925547
3 135 438 134 0.7130101987801197 0.16553097509142778 0.48084307333925547
3 133 312 134 0.7130101987801197 0.16553097509142778 0.48084307333925547
3 312 313 134 0.7130101987801197 0.16553097509142778 0.48084307333925547
3 437 133 134 0.7130101987801197 0.16553097509142778 0.48084307333925547
3 134 438 437 0.7130101987801197 0.16553097509142778 0.48084307333925547
3 314 315 135 0.7130101987801197 0.16553097509142778 0.48084307333925547
3 129 315 314 0.7130101987801197 0.16553097509142778 0.48084307333925547
3 314 128 129 0.7130101987801197 0.16553097509142778 0.48084307333925547
3 135 134 314 0.7130101987801197 0.16553097509142778 0.48084307333925547
3 314 134 313 0.7130101987801197 0.16553097509142778 0.48084307333925547
3 313 127 314 0.7130101987801197 0.16553097509142778 0.48084307333925547
3 127 128 314 0.7130101987801197 0.16553097509142778 0.48084307333925547
3 99 98 15 0.7130101987801197 0.16553097509142778 0.48084307333925547
3 225 98 99 0.7130101987801197 0.16553097509142778 0.48084307333925547
3 99 226 225 0.7130101987801197 0.16553097509142778 0.48084307333925547
3 227 228 466 0.7130101987801197 0.16553097509142778 0.48084307333925547
3 466 226 227 0.7130101987801197 0.16553097509142778 0.48084307333925547
3 101 228 227 0.7130101987801197 0.16553097509142778 0.48084307333925547
3 97 224 16 0.7130101987801197 0.16553097509142778 0.48084307333925547
3 97 16 15 0.7130101987801197 0.16553097509142778 0.48084307333925547
3 15 98 97 0.7130101987801197 0.16553097509142778 0.48084307333925547
3 97 98 225 0.7130101987801197 0.16553097509142778 0.48084307333925547
3 225 224 97 0.7130101987801197 0.16553097509142778 0.48084307333925547
3 221 222 74 0.7130101987801197 0.16553097509142778 0.48084307333925547
3 74 222 463 0.7130101987801197 0.16553097509142778 0.48084307333925547
3 74 73 221 0.7130101987801197 0.16553097509142778 0.48084307333925547
3 76 75 19 0.7130101987801197 0.16553097509142778 0.48084307333925547
3 76 231 75 0.7130101987801197 0.16553097509142778 0.48084307333925547
3 19 458 76 0.7130101987801197 0.16553097509142778 0.48084307333925547
3 458 232 76 0.7130101987801197 0.16553097509142778 0.48084307333925547
3 82 344 242 0.7130101987801197 0.16553097509142778 0.48084307333925547
3 82 230 75 0.7130101987801197 0.16553097509142778 0.48084307333925547
3 242 230 82 0.7130101987801197 0.16553097509142778 0.48084307333925547
3 75 231 82 0.7130101987801197 0.16553097509142778 0.48084307333925547
3 231 344 82 0.7130101987801197 0.16553097509142778 0.48084307333925547
3 259 355 252 0.7130101987801197 0.16553097509142778 0.48084307333925547
3 259 409 356 0.7130101987801197 0.16553097509142778 0.48084307333925547
3 356 204 259 0.7130101987801197 0.16553097509142778 0.48084307333925547
3 204 355 259 0.7130101987801197 0.16553097509142778 0.48084307333925547
3 359 421 420 0.7130101987801197 0.16553097509142778 0.48084307333925547
3 420 421 267 0.7130101987801197 0.16553097509142778 0.48084307333925547
3 267 266 420 0.7130101987801197 0.16553097509142778 0.48084307333925547
3 266 419 420 0.7130101987801197 0.16553097509142778 0.48084307333925547
3 234 347 410 0.7130101987801197 0.16553097509142778 0.48084307333925547
3 234 410 346 0.7130101987801197 0.16553097509142778 0.48084307333925547
3 358 420 419 0.7130101987801197 0.16553097509142778 0.48084307333925547
3 235 461 462 0.7130101987801197 0.16553097509142778 0.48084307333925547
3 462 461 73 0.7130101987801197 0.16553097509142778 0.48084307333925547
3 73 74 462 0.7130101987801197 0.16553097509142778 0.48084307333925547
3 462 463 235 0.7130101987801197 0.16553097509142778 0.48084307333925547
3 462 74 463 0.7130101987801197 0.16553097509142778 0.48084307333925547
3 226 99 100 0.7130101987801197 0.16553097509142778 0.48084307333925547
3 101 227 100 0.7130101987801197 0.16553097509142778 0.48084307333925547
3 100 227 226 0.7130101987801197 0.16553097509142778 0.48084307333925547
3 100 99 15 0.7130101987801197 0.16553097509142778 0.48084307333925547
3 15 294 100 0.7130101987801197 0.16553097509142778 0.48084307333925547
3 294 101 100 0.7130101987801197 0.16553097509142778 0.48084307333925547
3 243 76 232 0.7130101987801197 0.16553097509142778 0.48084307333925547
3 243 232 345 0.7130101987801197 0.16553097509142778 0.48084307333925547
3 243 344 231 0.7130101987801197 0.16553097509142778 0.48084307333925547
3 231 76 243 0.7130101987801197 0.16553097509142778 0.48084307333925547
3 345 409 243 0.7130101987801197 0.16553097509142778 0.48084307333925547
3 252 344 243 0.7130101987801197 0.16553097509142778 0.48084307333925547
3 243 259 252 0.7130101987801197 0.16553097509142778 0.48084307333925547
3 409 259 243 0.7130101987801197 0.16553097509142778 0.48084307333925547
3 357 410 347 0.7130101987801197 0.16553097509142778 0.48084307333925547
3 347 358 357 0.7130101987801197 0.16553097509142778 0.48084307333925547
3 206 260 357 0.7130101987801197 0.16553097509142778 0.48084307333925547
3 357 358 419 0.7130101987801197 0.16553097509142778 0.48084307333925547
3 357 418 206 0.7130101987801197 0.16553097509142778 0.48084307333925547
3 419 418 357 0.7130101987801197 0.16553097509142778 0.48084307333925547
3 233 77 459 0.7130101987801197 0.16553097509142778 0.48084307333925547
3 345 77 233 0.7130101987801197 0.16553097509142778 0.48084307333925547
3 233 409 345 0.7130101987801197 0.16553097509142778 0.48084307333925547
3 233 260 409 0.7130101987801197 0.16553097509142778 0.48084307333925547
3 78 460 234 0.7130101987801197 0.16553097509142778 0.48084307333925547
3 234 346 78 0.7130101987801197 0.16553097509142778 0.48084307333925547
3 346 233 78 0.7130101987801197 0.16553097509142778 0.48084307333925547
3 459 460 78 0.7130101987801197 0.16553097509142778 0.48084307333925547
3 78 233 459 0.7130101987801197 0.16553097509142778 0.48084307333925547
3 359 420 411 0.7130101987801197 0.16553097509142778 0.48084307333925547
3 420 358 411 0.7130101987801197 0.16553097509142778 0.48084307333925547
3 235 236 411 0.7130101987801197 0.16553097509142778 0.48084307333925547
3 411 347 235 0.7130101987801197 0.16553097509142778 0.48084307333925547
3 411 358 347 0.7130101987801197 0.16553097509142778 0.48084307333925547
3 260 233 244 0.7130101987801197 0.16553097509142778 0.48084307333925547
3 244 233 346 0.7130101987801197 0.16553097509142778 0.48084307333925547
3 244 346 410 0.7130101987801197 0.16553097509142778 0.48084307333925547
3 244 357 260 0.7130101987801197 0.16553097509142778 0.48084307333925547
3 410 357 244 0.7130101987801197 0.16553097509142778 0.48084307333925547
3 359 411 348 0.7130101987801197 0.16553097509142778 0.48084307333925547
3 348 411 236 0.7130101987801197 0.16553097509142778 0.48084307333925547
3 348 464 359 0.7130101987801197 0.16553097509142778 0.48084307333925547
3 348 236 464 0.7130101987801197 0.16553097509142778 0.48084307333925547
