OFF
44 58 0


28.78 28.7992 6.7842
28.78 28.7992 6.7842
28.7833 28.896 6.7041
28.7862 28.9661 6.6464
28.7892 29.0296 6.5943
28.7928 29.0999 6.5369
28.7932 29.1811 6.4399
28.7959 29.1892 6.4489
28.7985 29.1974 6.4578
28.7932 29.1811 6.4399
28.7647 29.0571 6.3865
28.7452 28.97 6.3488
28.726 28.8829 6.311
28.6993 28.7589 6.2568
28.6993 28.7589 6.2568
28.7183 28.7732 6.3836
28.7325 28.782 6.4774
28.7456 28.7885 6.5629
28.7601 28.7942 6.657
28.78 28.7992 6.7842
28.7758 28.9053 6.6434
28.7799 28.9946 6.5702
28.7823 29.0956 6.467
28.7505 28.9546 6.4068
28.7201 28.8155 6.3475
28.7327 28.8243 6.4303
28.7508 28.834 6.5489
28.7733 28.841 6.6963
28.7779 28.9521 6.6049
28.7696 28.9381 6.5633
28.7822 29.0417 6.5318
28.7718 28.983 6.5266
28.7634 29.0126 6.4316
28.7623 28.9683 6.4765
28.7377 28.8968 6.3822
28.7495 28.9105 6.4522
28.7421 28.8298 6.4922
28.7517 28.8772 6.5069
28.7604 28.8377 6.6116
28.7608 28.8809 6.5664
28.7733 28.841 6.6963
28.7671 28.8825 6.6088
28.7613 28.924 6.5213
28.7613 28.924 6.5213
3 17 36 16 0.2591637917844537 0.5863958714661914 0.12229504707334726
3 25 15 16 0.2591637917844537 0.5863958714661914 0.12229504707334726
3 16 36 25 0.2591637917844537 0.5863958714661914 0.12229504707334726
3 0 2 40 0.2591637917844537 0.5863958714661914 0.12229504707334726
3 7 6 22 0.2591637917844537 0.5863958714661914 0.12229504707334726
3 8 7 5 0.2591637917844537 0.5863958714661914 0.12229504707334726
3 5 7 22 0.2591637917844537 0.5863958714661914 0.12229504707334726
3 24 15 25 0.2591637917844537 0.5863958714661914 0.12229504707334726
3 13 15 24 0.2591637917844537 0.5863958714661914 0.12229504707334726
3 24 12 13 0.2591637917844537 0.5863958714661914 0.12229504707334726
3 25 35 34 0.2591637917844537 0.5863958714661914 0.12229504707334726
3 34 24 25 0.2591637917844537 0.5863958714661914 0.12229504707334726
3 12 24 34 0.2591637917844537 0.5863958714661914 0.12229504707334726
3 11 12 34 0.2591637917844537 0.5863958714661914 0.12229504707334726
3 0 40 18 0.2591637917844537 0.5863958714661914 0.12229504707334726
3 20 2 3 0.2591637917844537 0.5863958714661914 0.12229504707334726
3 20 40 2 0.2591637917844537 0.5863958714661914 0.12229504707334726
3 20 41 40 0.2591637917844537 0.5863958714661914 0.12229504707334726
3 39 29 42 0.2591637917844537 0.5863958714661914 0.12229504707334726
3 41 29 39 0.2591637917844537 0.5863958714661914 0.12229504707334726
3 11 32 10 0.2591637917844537 0.5863958714661914 0.12229504707334726
3 10 32 22 0.2591637917844537 0.5863958714661914 0.12229504707334726
3 22 6 10 0.2591637917844537 0.5863958714661914 0.12229504707334726
3 23 32 11 0.2591637917844537 0.5863958714661914 0.12229504707334726
3 11 34 23 0.2591637917844537 0.5863958714661914 0.12229504707334726
3 23 34 35 0.2591637917844537 0.5863958714661914 0.12229504707334726
3 22 32 30 0.2591637917844537 0.5863958714661914 0.12229504707334726
3 30 5 22 0.2591637917844537 0.5863958714661914 0.12229504707334726
3 3 21 28 0.2591637917844537 0.5863958714661914 0.12229504707334726
3 21 29 28 0.2591637917844537 0.5863958714661914 0.12229504707334726
3 28 20 3 0.2591637917844537 0.5863958714661914 0.12229504707334726
3 28 29 41 0.2591637917844537 0.5863958714661914 0.12229504707334726
3 41 20 28 0.2591637917844537 0.5863958714661914 0.12229504707334726
3 4 21 3 0.2591637917844537 0.5863958714661914 0.12229504707334726
3 4 30 21 0.2591637917844537 0.5863958714661914 0.12229504707334726
3 5 30 4 0.2591637917844537 0.5863958714661914 0.12229504707334726
3 40 41 38 0.2591637917844537 0.5863958714661914 0.12229504707334726
3 38 18 40 0.2591637917844537 0.5863958714661914 0.12229504707334726
3 17 18 38 0.2591637917844537 0.5863958714661914 0.12229504707334726
3 41 39 38 0.2591637917844537 0.5863958714661914 0.12229504707334726
3 37 39 42 0.2591637917844537 0.5863958714661914 0.12229504707334726
3 42 35 37 0.2591637917844537 0.5863958714661914 0.12229504707334726
3 37 35 25 0.2591637917844537 0.5863958714661914 0.12229504707334726
3 25 36 37 0.2591637917844537 0.5863958714661914 0.12229504707334726
3 26 36 17 0.2591637917844537 0.5863958714661914 0.12229504707334726
3 17 38 26 0.2591637917844537 0.5863958714661914 0.12229504707334726
3 26 38 39 0.2591637917844537 0.5863958714661914 0.12229504707334726
3 26 37 36 0.2591637917844537 0.5863958714661914 0.12229504707334726
3 39 37 26 0.2591637917844537 0.5863958714661914 0.12229504707334726
3 32 23 33 0.2591637917844537 0.5863958714661914 0.12229504707334726
3 33 35 42 0.2591637917844537 0.5863958714661914 0.12229504707334726
3 33 23 35 0.2591637917844537 0.5863958714661914 0.12229504707334726
3 31 30 32 0.2591637917844537 0.5863958714661914 0.12229504707334726
3 32 33 31 0.2591637917844537 0.5863958714661914 0.12229504707334726
3 21 30 31 0.2591637917844537 0.5863958714661914 0.12229504707334726
3 31 29 21 0.2591637917844537 0.5863958714661914 0.12229504707334726
3 42 29 31 0.2591637917844537 0.5863958714661914 0.12229504707334726
3 31 33 42 0.2591637917844537 0.5863958714661914 0.12229504707334726
