OFF
370 660 0


28.3603 31.1763 5.5621
28.3603 31.1763 5.5621
28.2972 31.1242 5.4495
28.2446 31.0811 5.3546
28.1991 31.0439 5.2717
28.1582 31.0106 5.1966
28.1204 30.9798 5.1266
28.0844 30.9505 5.0593
28.049 30.9219 4.9928
28.0132 30.893 4.9253
27.9761 30.8631 4.8546
27.9364 30.8312 4.7784
27.8926 30.7961 4.6938
27.8425 30.756 4.5962
27.7831 30.7086 4.4793
27.7027 30.746 4.6088
27.6358 30.7767 4.7145
27.578 30.8029 4.8045
27.5263 30.8261 4.8838
27.4785 30.8473 4.9558
27.4333 30.8672 5.023
27.3893 30.8863 5.0874
27.3455 30.9051 5.1505
27.3007 30.9241 5.2139
27.2537 30.9438 5.2792
27.203 30.9648 5.3482
27.1466 30.9877 5.4232
27.0815 31.0136 5.5072
27.0031 31.0442 5.6048
26.9027 31.0821 5.7241
26.9027 31.0821 5.7241
26.9062 31.0854 5.732
26.9098 31.0888 5.74
26.9098 31.0888 5.74
27.0123 31.1252 5.8124
27.1051 31.1576 5.8743
27.1903 31.1869 5.9283
27.2698 31.2138 5.9765
27.3453 31.239 6.0204
27.4182 31.263 6.061
27.4897 31.2863 6.0994
27.561 31.3094 6.1363
27.6334 31.3325 6.1725
27.7081 31.3562 6.2086
27.7868 31.3809 6.2452
27.8711 31.4071 6.2832
27.9634 31.4356 6.3232
28.0668 31.4672 6.3665
28.1853 31.5031 6.4141
28.1853 31.5031 6.4141
28.1853 31.5031 6.4141
28.2357 31.4658 6.3117
28.2714 31.4396 6.2387
28.307 31.4136 6.1657
28.3571 31.3775 6.0627
28.359 31.3271 5.9396
28.3598 31.2917 5.8522
28.3603 31.26 5.7734
28.3606 31.2251 5.6858
28.3603 31.1763 5.5621
28.0756 30.9936 5.178
28.0325 31.007 5.2274
27.9909 31.0199 5.2749
28.0121 30.9426 5.0608
27.9768 30.9626 5.1259
27.9429 30.9818 5.1882
27.9476 30.8911 4.9405
27.9204 30.9179 5.0222
27.8943 30.9436 5.1001
27.5075 30.8743 5.0227
27.5356 30.9007 5.0878
27.5628 30.9267 5.1514
27.4263 30.908 5.1375
27.4626 30.9297 5.1868
27.4983 30.9511 5.2355
27.345 30.9412 5.2492
27.3889 30.9584 5.2842
27.4326 30.9756 5.3192
28.2897 31.2412 5.7496
28.2213 31.2231 5.7265
28.155 31.2057 5.7043
28.1454 31.0502 5.3058
28.0937 31.0563 5.3386
28.0439 31.0623 5.3702
27.9957 31.0681 5.4007
27.874 30.8327 4.8018
27.8563 30.8676 4.9036
27.8393 30.9008 5.0001
27.8231 30.9325 5.0917
27.5971 30.8363 4.8925
27.6153 30.8686 4.9769
27.6327 30.8999 5.0583
27.6492 30.9304 5.1369
27.2548 30.9772 5.369
27.3067 30.9898 5.3899
27.3588 31.0027 5.4109
27.4112 31.0157 5.4321
27.38 31.2263 5.9804
27.4153 31.2134 5.9396
27.4515 31.2004 5.8976
27.4887 31.1871 5.8545
27.5122 31.2691 6.0514
27.5351 31.2516 6.0025
27.5584 31.2339 5.9526
27.5821 31.216 5.9015
27.6434 31.3103 6.1162
27.6535 31.2879 6.0592
27.6636 31.2655 6.0015
27.6737 31.2429 5.9429
27.7827 31.3529 6.1796
27.7784 31.325 6.1139
27.7739 31.2973 6.0479
27.7692 31.2696 5.9815
27.9415 31.4002 6.2463
27.9195 31.3656 6.1703
27.8975 31.3315 6.0948
27.8754 31.2979 6.0198
28.2136 31.4007 6.1644
28.1573 31.3633 6.0924
28.1023 31.3273 6.0223
28.0484 31.2924 5.9539
28.2897 31.2692 5.8195
28.2217 31.2476 5.7879
28.1558 31.2269 5.7574
28.0916 31.207 5.7277
28.1858 31.0831 5.379
28.1292 31.085 5.4024
28.0744 31.087 5.4251
28.0216 31.0889 5.447
27.9704 31.0909 5.4681
27.7783 30.7575 4.6193
27.7736 30.8033 4.7495
27.7689 30.8465 4.8713
27.7642 30.8874 4.9858
27.7596 30.9265 5.094
27.7079 30.7884 4.7269
27.7125 30.8287 4.8383
27.7168 30.8671 4.9437
27.7206 30.9039 5.0438
27.724 30.9393 5.1394
27.1421 31.0208 5.5124
27.2034 31.0283 5.5177
27.2655 31.0361 5.5231
27.3286 31.0441 5.5286
27.3928 31.0526 5.5342
27.2378 31.1788 5.8969
27.2865 31.1706 5.8647
27.3364 31.1624 5.8316
27.3879 31.154 5.7975
27.4408 31.1456 5.7622
28.1381 31.4574 6.3219
28.092 31.4135 6.2324
28.0467 31.3711 6.1452
28.002 31.33 6.0598
27.9578 31.2901 5.9759
28.2881 31.345 6.0065
28.2212 31.314 5.9523
28.1562 31.2842 5.8997
28.0928 31.2555 5.8486
28.0309 31.2277 5.7989
28.2882 31.167 5.5624
28.2186 31.1582 5.5626
28.1515 31.1498 5.5629
28.0867 31.1418 5.5631
28.0239 31.1341 5.5634
28.2324 31.1211 5.4628
28.1699 31.1182 5.4756
28.1096 31.1155 5.488
28.0513 31.113 5.5
27.9948 31.1106 5.5116
27.9401 31.1083 5.5229
28.0435 30.9678 5.119
28.0044 30.9845 5.1762
27.9667 31.0006 5.2311
27.9304 31.0162 5.284
27.8953 31.0313 5.3348
27.8615 31.046 5.3839
27.9126 30.8633 4.8746
27.8898 30.8939 4.9658
27.8681 30.9231 5.0524
27.8472 30.9512 5.135
27.8272 30.9782 5.2139
27.8078 31.0043 5.2894
27.5506 30.8561 4.9605
27.574 30.8853 5.0346
27.5966 30.9138 5.1066
27.6184 30.9417 5.1765
27.6394 30.9691 5.2446
27.6599 30.9961 5.3112
27.3862 30.9245 5.193
27.4263 30.9439 5.2351
27.466 30.9632 5.2769
27.5053 30.9826 5.3184
27.5443 31.002 5.3596
27.583 31.0215 5.4007
27.0753 31.1222 5.791
27.1396 31.1193 5.7691
27.2056 31.1165 5.7466
27.2735 31.1138 5.7235
27.3434 31.1113 5.6995
27.4158 31.1089 5.6748
27.6487 30.8141 4.816
27.6608 30.85 4.9125
27.6722 30.8845 5.0048
27.6829 30.9179 5.0933
27.693 30.9503 5.1783
27.7025 30.9818 5.2604
27.7116 31.0124 5.3397
27.2025 30.9976 5.4364
27.2588 31.0078 5.4498
27.3157 31.0182 5.4633
27.3731 31.0289 5.4771
27.4312 31.04 5.491
27.4901 31.0513 5.5051
27.55 31.0631 5.5195
26.976 31.0824 5.7102
27.0506 31.0831 5.696
27.1269 31.0841 5.6814
27.2051 31.0853 5.6665
27.2855 31.0869 5.6511
27.3686 31.0889 5.6352
27.4547 31.0912 5.6187
27.3107 31.2034 5.9408
27.3526 31.1928 5.9041
27.3955 31.1821 5.8664
27.4395 31.1712 5.8276
27.4849 31.1602 5.7876
27.5317 31.1489 5.7462
27.5801 31.1373 5.7034
27.5774 31.2897 6.0842
27.594 31.2698 6.0313
27.6108 31.2498 5.9775
27.6278 31.2295 5.9227
27.645 31.209 5.8667
27.6625 31.1882 5.8095
27.6804 31.167 5.7508
27.8587 31.3757 6.2122
27.8461 31.3447 6.1416
27.8334 31.3139 6.0711
27.8204 31.2834 6.0006
27.8073 31.2531 5.9297
27.7938 31.2228 5.8584
27.78 31.1925 5.7865
28.1824 31.4241 6.2299
28.1304 31.3841 6.1506
28.0794 31.3454 6.0734
28.0293 31.308 5.9979
27.9799 31.2716 5.9238
27.931 31.2362 5.8508
27.8823 31.2015 5.7786
28.2893 31.3005 5.8972
28.2218 31.2751 5.8562
28.1562 31.2506 5.8164
28.0924 31.2271 5.7779
28.0301 31.2043 5.7403
27.9692 31.1824 5.7037
27.9095 31.1611 5.6679
28.1092 31.0208 5.2396
28.0619 31.0307 5.281
28.0164 31.0402 5.3208
27.9724 31.0496 5.3592
27.9299 31.0586 5.3962
27.8888 31.0675 5.4321
27.8489 31.0761 5.4668
27.8103 31.0845 5.5004
27.8301 30.7982 4.7184
27.8183 30.8379 4.8329
27.8069 30.8757 4.9408
27.7959 30.9116 5.0428
27.7853 30.9461 5.1396
27.7751 30.9791 5.2319
27.7651 31.011 5.3201
27.7553 31.0418 5.4047
27.3016 30.9586 5.3073
27.3495 30.9735 5.3353
27.3973 30.9886 5.3634
27.4451 31.0039 5.3916
27.493 31.0194 5.4199
27.5411 31.0351 5.4484
27.5894 31.0511 5.477
27.6379 31.0673 5.5059
27.1598 31.1519 5.8476
27.2159 31.1463 5.8203
27.2735 31.1407 5.7922
27.3328 31.1351 5.7632
27.3939 31.1294 5.7332
27.4571 31.1238 5.7022
27.5227 31.1181 5.67
27.5909 31.1124 5.6364
27.7114 31.3312 6.1478
27.7146 31.3062 6.0866
27.7177 31.2812 6.0248
27.7206 31.2561 5.9624
27.7235 31.2309 5.8991
27.7262 31.2055 5.8348
27.7289 31.1798 5.7694
27.7314 31.1539 5.7027
28.2447 31.3775 6.0988
28.1841 31.3427 6.0341
28.1249 31.3093 5.9713
28.0671 31.277 5.91
28.0103 31.2457 5.8501
27.9544 31.2153 5.7914
27.8992 31.1857 5.7337
27.8446 31.1568 5.6768
27.9805 30.9173 5.0019
27.9491 30.9406 5.075
27.919 30.963 5.1449
27.8901 30.9846 5.2119
27.8623 31.0055 5.2762
27.8355 31.0256 5.338
27.8095 31.0452 5.3976
27.7844 31.0642 5.4551
27.76 31.0827 5.5108
27.4664 30.8914 5.0811
27.4987 30.9154 5.1381
27.5303 30.9391 5.194
27.5612 30.9625 5.2489
27.5915 30.9858 5.303
27.6213 31.0089 5.3564
27.6506 31.0319 5.4092
27.6795 31.0549 5.4614
27.7081 31.0778 5.5132
27.0692 31.0483 5.6012
27.1364 31.0527 5.5975
27.2048 31.0574 5.5937
27.2746 31.0624 5.5899
27.346 31.0677 5.586
27.4192 31.0735 5.582
27.4946 31.0796 5.5778
27.5724 31.0862 5.5736
27.6528 31.0932 5.5692
27.4468 31.2481 6.017
27.4759 31.2329 5.9721
27.5056 31.2175 5.9261
27.5359 31.2019 5.879
27.567 31.186 5.8306
27.5989 31.1697 5.7807
27.6317 31.1531 5.7294
27.6654 31.1361 5.6764
27.7003 31.1187 5.6215
28.0335 31.4272 6.2826
28.0006 31.3883 6.2003
27.9679 31.3504 6.1194
27.9353 31.3133 6.0395
27.9028 31.2769 5.9602
27.8702 31.2411 5.8814
27.8373 31.2057 5.8027
27.8041 31.1706 5.7239
27.7705 31.1357 5.6446
28.2893 31.2102 5.6719
28.2205 31.196 5.6584
28.1538 31.1824 5.6454
28.0892 31.1693 5.6328
28.0265 31.1568 5.6207
27.9656 31.1447 5.6088
27.9062 31.1331 5.5974
27.8482 31.122 5.5862
27.7916 31.1112 5.5753
28.2882 31.167 5.5624
28.2186 31.1582 5.5626
28.1515 31.1498 5.5629
28.0867 31.1418 5.5631
28.0239 31.1341 5.5634
27.9631 31.1269 5.5636
27.904 31.1199 5.5639
27.8466 31.1132 5.5641
27.7908 31.1069 5.5644
27.7363 31.1007 5.5646
27.7363 31.1007 5.5646
3 222 38 37 0.4594145960876145 0.22550895433484452 0.45493977191521384
3 29 215 31 0.4594145960876145 0.22550895433484452 0.45493977191521384
3 215 32 31 0.4594145960876145 0.22550895433484452 0.45493977191521384
3 145 222 37 0.4594145960876145 0.22550895433484452 0.45493977191521384
3 34 32 215 0.4594145960876145 0.22550895433484452 0.45493977191521384
3 281 35 195 0.4594145960876145 0.22550895433484452 0.45493977191521384
3 35 34 195 0.4594145960876145 0.22550895433484452 0.45493977191521384
3 216 34 215 0.4594145960876145 0.22550895433484452 0.45493977191521384
3 216 195 34 0.4594145960876145 0.22550895433484452 0.45493977191521384
3 277 213 212 0.4594145960876145 0.22550895433484452 0.45493977191521384
3 53 297 54 0.4594145960876145 0.22550895433484452 0.45493977191521384
3 51 243 52 0.4594145960876145 0.22550895433484452 0.45493977191521384
3 16 15 135 0.4594145960876145 0.22550895433484452 0.45493977191521384
3 20 19 69 0.4594145960876145 0.22550895433484452 0.45493977191521384
3 2 165 3 0.4594145960876145 0.22550895433484452 0.45493977191521384
3 3 165 125 0.4594145960876145 0.22550895433484452 0.45493977191521384
3 10 177 11 0.4594145960876145 0.22550895433484452 0.45493977191521384
3 17 16 201 0.4594145960876145 0.22550895433484452 0.45493977191521384
3 201 16 135 0.4594145960876145 0.22550895433484452 0.45493977191521384
3 86 177 178 0.4594145960876145 0.22550895433484452 0.45493977191521384
3 180 181 269 0.4594145960876145 0.22550895433484452 0.45493977191521384
3 5 60 6 0.4594145960876145 0.22550895433484452 0.45493977191521384
3 7 6 171 0.4594145960876145 0.22550895433484452 0.45493977191521384
3 171 6 60 0.4594145960876145 0.22550895433484452 0.45493977191521384
3 257 5 4 0.4594145960876145 0.22550895433484452 0.45493977191521384
3 257 60 5 0.4594145960876145 0.22550895433484452 0.45493977191521384
3 36 145 37 0.4594145960876145 0.22550895433484452 0.45493977191521384
3 36 35 281 0.4594145960876145 0.22550895433484452 0.45493977191521384
3 281 145 36 0.4594145960876145 0.22550895433484452 0.45493977191521384
3 222 145 146 0.4594145960876145 0.22550895433484452 0.45493977191521384
3 223 146 147 0.4594145960876145 0.22550895433484452 0.45493977191521384
3 222 146 223 0.4594145960876145 0.22550895433484452 0.45493977191521384
3 224 223 147 0.4594145960876145 0.22550895433484452 0.45493977191521384
3 282 145 281 0.4594145960876145 0.22550895433484452 0.45493977191521384
3 282 146 145 0.4594145960876145 0.22550895433484452 0.45493977191521384
3 28 216 215 0.4594145960876145 0.22550895433484452 0.45493977191521384
3 28 215 29 0.4594145960876145 0.22550895433484452 0.45493977191521384
3 328 212 213 0.4594145960876145 0.22550895433484452 0.45493977191521384
3 221 328 329 0.4594145960876145 0.22550895433484452 0.45493977191521384
3 329 328 213 0.4594145960876145 0.22550895433484452 0.45493977191521384
3 368 340 331 0.4594145960876145 0.22550895433484452 0.45493977191521384
3 96 212 211 0.4594145960876145 0.22550895433484452 0.45493977191521384
3 277 212 96 0.4594145960876145 0.22550895433484452 0.45493977191521384
3 299 300 157 0.4594145960876145 0.22550895433484452 0.45493977191521384
3 78 58 57 0.4594145960876145 0.22550895433484452 0.45493977191521384
3 297 53 117 0.4594145960876145 0.22550895433484452 0.45493977191521384
3 117 243 244 0.4594145960876145 0.22550895433484452 0.45493977191521384
3 52 243 117 0.4594145960876145 0.22550895433484452 0.45493977191521384
3 117 53 52 0.4594145960876145 0.22550895433484452 0.45493977191521384
3 244 118 117 0.4594145960876145 0.22550895433484452 0.45493977191521384
3 117 118 297 0.4594145960876145 0.22550895433484452 0.45493977191521384
3 297 118 298 0.4594145960876145 0.22550895433484452 0.45493977191521384
3 245 118 244 0.4594145960876145 0.22550895433484452 0.45493977191521384
3 244 243 151 0.4594145960876145 0.22550895433484452 0.45493977191521384
3 236 44 109 0.4594145960876145 0.22550895433484452 0.45493977191521384
3 120 300 299 0.4594145960876145 0.22550895433484452 0.45493977191521384
3 247 300 120 0.4594145960876145 0.22550895433484452 0.45493977191521384
3 120 154 247 0.4594145960876145 0.22550895433484452 0.45493977191521384
3 240 241 346 0.4594145960876145 0.22550895433484452 0.45493977191521384
3 293 241 240 0.4594145960876145 0.22550895433484452 0.45493977191521384
3 303 256 255 0.4594145960876145 0.22550895433484452 0.45493977191521384
3 255 256 355 0.4594145960876145 0.22550895433484452 0.45493977191521384
3 252 157 158 0.4594145960876145 0.22550895433484452 0.45493977191521384
3 158 157 300 0.4594145960876145 0.22550895433484452 0.45493977191521384
3 355 256 356 0.4594145960876145 0.22550895433484452 0.45493977191521384
3 356 364 355 0.4594145960876145 0.22550895433484452 0.45493977191521384
3 304 356 256 0.4594145960876145 0.22550895433484452 0.45493977191521384
3 304 256 303 0.4594145960876145 0.22550895433484452 0.45493977191521384
3 12 265 13 0.4594145960876145 0.22550895433484452 0.45493977191521384
3 11 177 85 0.4594145960876145 0.22550895433484452 0.45493977191521384
3 85 12 11 0.4594145960876145 0.22550895433484452 0.45493977191521384
3 265 12 85 0.4594145960876145 0.22550895433484452 0.45493977191521384
3 266 86 132 0.4594145960876145 0.22550895433484452 0.45493977191521384
3 177 86 266 0.4594145960876145 0.22550895433484452 0.45493977191521384
3 266 85 177 0.4594145960876145 0.22550895433484452 0.45493977191521384
3 13 265 130 0.4594145960876145 0.22550895433484452 0.45493977191521384
3 14 13 130 0.4594145960876145 0.22550895433484452 0.45493977191521384
3 130 15 14 0.4594145960876145 0.22550895433484452 0.45493977191521384
3 135 15 130 0.4594145960876145 0.22550895433484452 0.45493977191521384
3 359 161 165 0.4594145960876145 0.22550895433484452 0.45493977191521384
3 165 2 359 0.4594145960876145 0.22550895433484452 0.45493977191521384
3 359 2 0 0.4594145960876145 0.22550895433484452 0.45493977191521384
3 359 351 161 0.4594145960876145 0.22550895433484452 0.45493977191521384
3 175 261 176 0.4594145960876145 0.22550895433484452 0.45493977191521384
3 312 264 313 0.4594145960876145 0.22550895433484452 0.45493977191521384
3 355 364 164 0.4594145960876145 0.22550895433484452 0.45493977191521384
3 178 177 66 0.4594145960876145 0.22550895433484452 0.45493977191521384
3 66 10 9 0.4594145960876145 0.22550895433484452 0.45493977191521384
3 177 10 66 0.4594145960876145 0.22550895433484452 0.45493977191521384
3 178 66 67 0.4594145960876145 0.22550895433484452 0.45493977191521384
3 136 201 135 0.4594145960876145 0.22550895433484452 0.45493977191521384
3 136 266 132 0.4594145960876145 0.22550895433484452 0.45493977191521384
3 132 86 267 0.4594145960876145 0.22550895433484452 0.45493977191521384
3 267 86 178 0.4594145960876145 0.22550895433484452 0.45493977191521384
3 175 309 174 0.4594145960876145 0.22550895433484452 0.45493977191521384
3 308 309 181 0.4594145960876145 0.22550895433484452 0.45493977191521384
3 308 307 65 0.4594145960876145 0.22550895433484452 0.45493977191521384
3 308 174 309 0.4594145960876145 0.22550895433484452 0.45493977191521384
3 181 180 308 0.4594145960876145 0.22550895433484452 0.45493977191521384
3 308 180 307 0.4594145960876145 0.22550895433484452 0.45493977191521384
3 172 171 60 0.4594145960876145 0.22550895433484452 0.45493977191521384
3 81 257 4 0.4594145960876145 0.22550895433484452 0.45493977191521384
3 4 3 81 0.4594145960876145 0.22550895433484452 0.45493977191521384
3 3 125 81 0.4594145960876145 0.22550895433484452 0.45493977191521384
3 221 329 287 0.4594145960876145 0.22550895433484452 0.45493977191521384
3 287 329 330 0.4594145960876145 0.22550895433484452 0.45493977191521384
3 98 224 99 0.4594145960876145 0.22550895433484452 0.45493977191521384
3 223 224 98 0.4594145960876145 0.22550895433484452 0.45493977191521384
3 148 224 147 0.4594145960876145 0.22550895433484452 0.45493977191521384
3 147 284 148 0.4594145960876145 0.22550895433484452 0.45493977191521384
3 148 285 149 0.4594145960876145 0.22550895433484452 0.45493977191521384
3 148 284 285 0.4594145960876145 0.22550895433484452 0.45493977191521384
3 99 224 225 0.4594145960876145 0.22550895433484452 0.45493977191521384
3 225 100 99 0.4594145960876145 0.22550895433484452 0.45493977191521384
3 224 148 225 0.4594145960876145 0.22550895433484452 0.45493977191521384
3 225 226 100 0.4594145960876145 0.22550895433484452 0.45493977191521384
3 225 148 149 0.4594145960876145 0.22550895433484452 0.45493977191521384
3 149 226 225 0.4594145960876145 0.22550895433484452 0.45493977191521384
3 346 241 347 0.4594145960876145 0.22550895433484452 0.45493977191521384
3 347 248 346 0.4594145960876145 0.22550895433484452 0.45493977191521384
3 249 248 347 0.4594145960876145 0.22550895433484452 0.45493977191521384
3 347 241 242 0.4594145960876145 0.22550895433484452 0.45493977191521384
3 294 241 293 0.4594145960876145 0.22550895433484452 0.45493977191521384
3 295 242 294 0.4594145960876145 0.22550895433484452 0.45493977191521384
3 242 241 294 0.4594145960876145 0.22550895433484452 0.45493977191521384
3 292 108 293 0.4594145960876145 0.22550895433484452 0.45493977191521384
3 292 240 112 0.4594145960876145 0.22550895433484452 0.45493977191521384
3 293 240 292 0.4594145960876145 0.22550895433484452 0.45493977191521384
3 293 108 233 0.4594145960876145 0.22550895433484452 0.45493977191521384
3 233 294 293 0.4594145960876145 0.22550895433484452 0.45493977191521384
3 147 146 283 0.4594145960876145 0.22550895433484452 0.45493977191521384
3 146 282 283 0.4594145960876145 0.22550895433484452 0.45493977191521384
3 283 284 147 0.4594145960876145 0.22550895433484452 0.45493977191521384
3 198 284 283 0.4594145960876145 0.22550895433484452 0.45493977191521384
3 283 197 198 0.4594145960876145 0.22550895433484452 0.45493977191521384
3 282 197 283 0.4594145960876145 0.22550895433484452 0.45493977191521384
3 195 216 196 0.4594145960876145 0.22550895433484452 0.45493977191521384
3 281 195 196 0.4594145960876145 0.22550895433484452 0.45493977191521384
3 196 282 281 0.4594145960876145 0.22550895433484452 0.45493977191521384
3 196 197 282 0.4594145960876145 0.22550895433484452 0.45493977191521384
3 186 205 187 0.4594145960876145 0.22550895433484452 0.45493977191521384
3 139 134 269 0.4594145960876145 0.22550895433484452 0.45493977191521384
3 314 20 69 0.4594145960876145 0.22550895433484452 0.45493977191521384
3 21 20 314 0.4594145960876145 0.22550895433484452 0.45493977191521384
3 212 328 144 0.4594145960876145 0.22550895433484452 0.45493977191521384
3 211 212 144 0.4594145960876145 0.22550895433484452 0.45493977191521384
3 144 143 211 0.4594145960876145 0.22550895433484452 0.45493977191521384
3 327 143 144 0.4594145960876145 0.22550895433484452 0.45493977191521384
3 144 328 327 0.4594145960876145 0.22550895433484452 0.45493977191521384
3 214 329 213 0.4594145960876145 0.22550895433484452 0.45493977191521384
3 330 329 214 0.4594145960876145 0.22550895433484452 0.45493977191521384
3 278 213 277 0.4594145960876145 0.22550895433484452 0.45493977191521384
3 278 214 213 0.4594145960876145 0.22550895433484452 0.45493977191521384
3 279 214 278 0.4594145960876145 0.22550895433484452 0.45493977191521384
3 210 209 94 0.4594145960876145 0.22550895433484452 0.45493977191521384
3 211 143 210 0.4594145960876145 0.22550895433484452 0.45493977191521384
3 275 96 95 0.4594145960876145 0.22550895433484452 0.45493977191521384
3 95 210 94 0.4594145960876145 0.22550895433484452 0.45493977191521384
3 95 96 211 0.4594145960876145 0.22550895433484452 0.45493977191521384
3 211 210 95 0.4594145960876145 0.22550895433484452 0.45493977191521384
3 275 95 274 0.4594145960876145 0.22550895433484452 0.45493977191521384
3 274 95 94 0.4594145960876145 0.22550895433484452 0.45493977191521384
3 277 96 276 0.4594145960876145 0.22550895433484452 0.45493977191521384
3 276 96 275 0.4594145960876145 0.22550895433484452 0.45493977191521384
3 252 122 251 0.4594145960876145 0.22550895433484452 0.45493977191521384
3 251 157 252 0.4594145960876145 0.22550895433484452 0.45493977191521384
3 80 124 353 0.4594145960876145 0.22550895433484452 0.45493977191521384
3 350 58 78 0.4594145960876145 0.22550895433484452 0.45493977191521384
3 351 359 350 0.4594145960876145 0.22550895433484452 0.45493977191521384
3 0 58 350 0.4594145960876145 0.22550895433484452 0.45493977191521384
3 350 359 0 0.4594145960876145 0.22550895433484452 0.45493977191521384
3 166 125 165 0.4594145960876145 0.22550895433484452 0.45493977191521384
3 166 361 167 0.4594145960876145 0.22550895433484452 0.45493977191521384
3 165 161 166 0.4594145960876145 0.22550895433484452 0.45493977191521384
3 161 361 166 0.4594145960876145 0.22550895433484452 0.45493977191521384
3 341 151 150 0.4594145960876145 0.22550895433484452 0.45493977191521384
3 150 51 49 0.4594145960876145 0.22550895433484452 0.45493977191521384
3 243 51 150 0.4594145960876145 0.22550895433484452 0.45493977191521384
3 150 151 243 0.4594145960876145 0.22550895433484452 0.45493977191521384
3 114 113 236 0.4594145960876145 0.22550895433484452 0.45493977191521384
3 46 113 341 0.4594145960876145 0.22550895433484452 0.45493977191521384
3 342 151 341 0.4594145960876145 0.22550895433484452 0.45493977191521384
3 341 113 342 0.4594145960876145 0.22550895433484452 0.45493977191521384
3 342 114 343 0.4594145960876145 0.22550895433484452 0.45493977191521384
3 113 114 342 0.4594145960876145 0.22550895433484452 0.45493977191521384
3 43 109 44 0.4594145960876145 0.22550895433484452 0.45493977191521384
3 290 105 106 0.4594145960876145 0.22550895433484452 0.45493977191521384
3 119 120 299 0.4594145960876145 0.22550895433484452 0.45493977191521384
3 299 298 119 0.4594145960876145 0.22550895433484452 0.45493977191521384
3 119 298 118 0.4594145960876145 0.22550895433484452 0.45493977191521384
3 118 245 119 0.4594145960876145 0.22550895433484452 0.45493977191521384
3 154 120 246 0.4594145960876145 0.22550895433484452 0.45493977191521384
3 246 344 154 0.4594145960876145 0.22550895433484452 0.45493977191521384
3 246 119 245 0.4594145960876145 0.22550895433484452 0.45493977191521384
3 120 119 246 0.4594145960876145 0.22550895433484452 0.45493977191521384
3 290 111 110 0.4594145960876145 0.22550895433484452 0.45493977191521384
3 110 111 238 0.4594145960876145 0.22550895433484452 0.45493977191521384
3 303 255 302 0.4594145960876145 0.22550895433484452 0.45493977191521384
3 302 249 303 0.4594145960876145 0.22550895433484452 0.45493977191521384
3 302 248 249 0.4594145960876145 0.22550895433484452 0.45493977191521384
3 353 124 254 0.4594145960876145 0.22550895433484452 0.45493977191521384
3 159 302 254 0.4594145960876145 0.22550895433484452 0.45493977191521384
3 254 302 255 0.4594145960876145 0.22550895433484452 0.45493977191521384
3 253 158 159 0.4594145960876145 0.22550895433484452 0.45493977191521384
3 253 254 124 0.4594145960876145 0.22550895433484452 0.45493977191521384
3 159 254 253 0.4594145960876145 0.22550895433484452 0.45493977191521384
3 252 158 253 0.4594145960876145 0.22550895433484452 0.45493977191521384
3 356 304 357 0.4594145960876145 0.22550895433484452 0.45493977191521384
3 357 358 366 0.4594145960876145 0.22550895433484452 0.45493977191521384
3 348 242 295 0.4594145960876145 0.22550895433484452 0.45493977191521384
3 348 347 242 0.4594145960876145 0.22550895433484452 0.45493977191521384
3 249 347 348 0.4594145960876145 0.22550895433484452 0.45493977191521384
3 303 249 348 0.4594145960876145 0.22550895433484452 0.45493977191521384
3 348 304 303 0.4594145960876145 0.22550895433484452 0.45493977191521384
3 349 340 368 0.4594145960876145 0.22550895433484452 0.45493977191521384
3 368 358 349 0.4594145960876145 0.22550895433484452 0.45493977191521384
3 304 348 349 0.4594145960876145 0.22550895433484452 0.45493977191521384
3 358 357 349 0.4594145960876145 0.22550895433484452 0.45493977191521384
3 349 357 304 0.4594145960876145 0.22550895433484452 0.45493977191521384
3 247 248 301 0.4594145960876145 0.22550895433484452 0.45493977191521384
3 301 300 247 0.4594145960876145 0.22550895433484452 0.45493977191521384
3 301 302 159 0.4594145960876145 0.22550895433484452 0.45493977191521384
3 248 302 301 0.4594145960876145 0.22550895433484452 0.45493977191521384
3 301 158 300 0.4594145960876145 0.22550895433484452 0.45493977191521384
3 159 158 301 0.4594145960876145 0.22550895433484452 0.45493977191521384
3 265 85 131 0.4594145960876145 0.22550895433484452 0.45493977191521384
3 85 266 131 0.4594145960876145 0.22550895433484452 0.45493977191521384
3 135 130 131 0.4594145960876145 0.22550895433484452 0.45493977191521384
3 131 130 265 0.4594145960876145 0.22550895433484452 0.45493977191521384
3 131 136 135 0.4594145960876145 0.22550895433484452 0.45493977191521384
3 266 136 131 0.4594145960876145 0.22550895433484452 0.45493977191521384
3 262 176 261 0.4594145960876145 0.22550895433484452 0.45493977191521384
3 262 261 129 0.4594145960876145 0.22550895433484452 0.45493977191521384
3 129 170 262 0.4594145960876145 0.22550895433484452 0.45493977191521384
3 364 356 365 0.4594145960876145 0.22550895433484452 0.45493977191521384
3 365 170 364 0.4594145960876145 0.22550895433484452 0.45493977191521384
3 365 357 366 0.4594145960876145 0.22550895433484452 0.45493977191521384
3 356 357 365 0.4594145960876145 0.22550895433484452 0.45493977191521384
3 367 313 264 0.4594145960876145 0.22550895433484452 0.45493977191521384
3 366 358 367 0.4594145960876145 0.22550895433484452 0.45493977191521384
3 367 264 366 0.4594145960876145 0.22550895433484452 0.45493977191521384
3 367 358 368 0.4594145960876145 0.22550895433484452 0.45493977191521384
3 368 313 367 0.4594145960876145 0.22550895433484452 0.45493977191521384
3 279 320 321 0.4594145960876145 0.22550895433484452 0.45493977191521384
3 321 320 272 0.4594145960876145 0.22550895433484452 0.45493977191521384
3 321 272 312 0.4594145960876145 0.22550895433484452 0.45493977191521384
3 355 164 354 0.4594145960876145 0.22550895433484452 0.45493977191521384
3 354 255 355 0.4594145960876145 0.22550895433484452 0.45493977191521384
3 353 254 354 0.4594145960876145 0.22550895433484452 0.45493977191521384
3 354 254 255 0.4594145960876145 0.22550895433484452 0.45493977191521384
3 127 167 168 0.4594145960876145 0.22550895433484452 0.45493977191521384
3 168 128 127 0.4594145960876145 0.22550895433484452 0.45493977191521384
3 307 180 68 0.4594145960876145 0.22550895433484452 0.45493977191521384
3 63 8 7 0.4594145960876145 0.22550895433484452 0.45493977191521384
3 7 171 63 0.4594145960876145 0.22550895433484452 0.45493977191521384
3 70 314 69 0.4594145960876145 0.22550895433484452 0.45493977191521384
3 315 314 70 0.4594145960876145 0.22550895433484452 0.45493977191521384
3 201 136 202 0.4594145960876145 0.22550895433484452 0.45493977191521384
3 260 261 175 0.4594145960876145 0.22550895433484452 0.45493977191521384
3 175 174 260 0.4594145960876145 0.22550895433484452 0.45493977191521384
3 207 271 272 0.4594145960876145 0.22550895433484452 0.45493977191521384
3 272 320 207 0.4594145960876145 0.22550895433484452 0.45493977191521384
3 272 271 311 0.4594145960876145 0.22550895433484452 0.45493977191521384
3 312 272 311 0.4594145960876145 0.22550895433484452 0.45493977191521384
3 181 309 182 0.4594145960876145 0.22550895433484452 0.45493977191521384
3 62 260 174 0.4594145960876145 0.22550895433484452 0.45493977191521384
3 199 200 285 0.4594145960876145 0.22550895433484452 0.45493977191521384
3 199 284 198 0.4594145960876145 0.22550895433484452 0.45493977191521384
3 285 284 199 0.4594145960876145 0.22550895433484452 0.45493977191521384
3 149 285 286 0.4594145960876145 0.22550895433484452 0.45493977191521384
3 285 200 286 0.4594145960876145 0.22550895433484452 0.45493977191521384
3 286 200 221 0.4594145960876145 0.22550895433484452 0.45493977191521384
3 221 287 286 0.4594145960876145 0.22550895433484452 0.45493977191521384
3 338 235 337 0.4594145960876145 0.22550895433484452 0.45493977191521384
3 101 40 39 0.4594145960876145 0.22550895433484452 0.45493977191521384
3 100 226 336 0.4594145960876145 0.22550895433484452 0.45493977191521384
3 335 100 336 0.4594145960876145 0.22550895433484452 0.45493977191521384
3 337 336 227 0.4594145960876145 0.22550895433484452 0.45493977191521384
3 227 336 226 0.4594145960876145 0.22550895433484452 0.45493977191521384
3 227 286 287 0.4594145960876145 0.22550895433484452 0.45493977191521384
3 227 226 149 0.4594145960876145 0.22550895433484452 0.45493977191521384
3 149 286 227 0.4594145960876145 0.22550895433484452 0.45493977191521384
3 230 101 102 0.4594145960876145 0.22550895433484452 0.45493977191521384
3 232 233 108 0.4594145960876145 0.22550895433484452 0.45493977191521384
3 230 106 229 0.4594145960876145 0.22550895433484452 0.45493977191521384
3 229 106 105 0.4594145960876145 0.22550895433484452 0.45493977191521384
3 229 101 230 0.4594145960876145 0.22550895433484452 0.45493977191521384
3 229 40 101 0.4594145960876145 0.22550895433484452 0.45493977191521384
3 337 235 234 0.4594145960876145 0.22550895433484452 0.45493977191521384
3 234 336 337 0.4594145960876145 0.22550895433484452 0.45493977191521384
3 233 336 234 0.4594145960876145 0.22550895433484452 0.45493977191521384
3 294 233 234 0.4594145960876145 0.22550895433484452 0.45493977191521384
3 234 235 295 0.4594145960876145 0.22550895433484452 0.45493977191521384
3 295 294 234 0.4594145960876145 0.22550895433484452 0.45493977191521384
3 217 196 216 0.4594145960876145 0.22550895433484452 0.45493977191521384
3 197 196 217 0.4594145960876145 0.22550895433484452 0.45493977191521384
3 326 143 327 0.4594145960876145 0.22550895433484452 0.45493977191521384
3 206 187 205 0.4594145960876145 0.22550895433484452 0.45493977191521384
3 188 187 206 0.4594145960876145 0.22550895433484452 0.45493977191521384
3 206 207 188 0.4594145960876145 0.22550895433484452 0.45493977191521384
3 271 207 206 0.4594145960876145 0.22550895433484452 0.45493977191521384
3 134 139 204 0.4594145960876145 0.22550895433484452 0.45493977191521384
3 194 278 277 0.4594145960876145 0.22550895433484452 0.45493977191521384
3 279 278 194 0.4594145960876145 0.22550895433484452 0.45493977191521384
3 194 320 279 0.4594145960876145 0.22550895433484452 0.45493977191521384
3 273 274 94 0.4594145960876145 0.22550895433484452 0.45493977191521384
3 192 74 317 0.4594145960876145 0.22550895433484452 0.45493977191521384
3 74 316 317 0.4594145960876145 0.22550895433484452 0.45493977191521384
3 186 187 317 0.4594145960876145 0.22550895433484452 0.45493977191521384
3 317 316 186 0.4594145960876145 0.22550895433484452 0.45493977191521384
3 315 316 73 0.4594145960876145 0.22550895433484452 0.45493977191521384
3 73 316 74 0.4594145960876145 0.22550895433484452 0.45493977191521384
3 76 273 75 0.4594145960876145 0.22550895433484452 0.45493977191521384
3 274 273 76 0.4594145960876145 0.22550895433484452 0.45493977191521384
3 157 251 156 0.4594145960876145 0.22550895433484452 0.45493977191521384
3 299 157 156 0.4594145960876145 0.22550895433484452 0.45493977191521384
3 156 298 299 0.4594145960876145 0.22550895433484452 0.45493977191521384
3 121 57 56 0.4594145960876145 0.22550895433484452 0.45493977191521384
3 78 57 121 0.4594145960876145 0.22550895433484452 0.45493977191521384
3 121 122 78 0.4594145960876145 0.22550895433484452 0.45493977191521384
3 121 251 122 0.4594145960876145 0.22550895433484452 0.45493977191521384
3 79 80 351 0.4594145960876145 0.22550895433484452 0.45493977191521384
3 78 122 79 0.4594145960876145 0.22550895433484452 0.45493977191521384
3 79 350 78 0.4594145960876145 0.22550895433484452 0.45493977191521384
3 351 350 79 0.4594145960876145 0.22550895433484452 0.45493977191521384
3 352 80 353 0.4594145960876145 0.22550895433484452 0.45493977191521384
3 351 80 352 0.4594145960876145 0.22550895433484452 0.45493977191521384
3 353 361 352 0.4594145960876145 0.22550895433484452 0.45493977191521384
3 161 351 352 0.4594145960876145 0.22550895433484452 0.45493977191521384
3 352 361 161 0.4594145960876145 0.22550895433484452 0.45493977191521384
3 115 344 343 0.4594145960876145 0.22550895433484452 0.45493977191521384
3 343 114 115 0.4594145960876145 0.22550895433484452 0.45493977191521384
3 116 115 238 0.4594145960876145 0.22550895433484452 0.45493977191521384
3 344 115 116 0.4594145960876145 0.22550895433484452 0.45493977191521384
3 113 46 45 0.4594145960876145 0.22550895433484452 0.45493977191521384
3 45 44 236 0.4594145960876145 0.22550895433484452 0.45493977191521384
3 236 113 45 0.4594145960876145 0.22550895433484452 0.45493977191521384
3 341 150 47 0.4594145960876145 0.22550895433484452 0.45493977191521384
3 47 46 341 0.4594145960876145 0.22550895433484452 0.45493977191521384
3 47 150 49 0.4594145960876145 0.22550895433484452 0.45493977191521384
3 244 151 152 0.4594145960876145 0.22550895433484452 0.45493977191521384
3 151 342 152 0.4594145960876145 0.22550895433484452 0.45493977191521384
3 152 245 244 0.4594145960876145 0.22550895433484452 0.45493977191521384
3 152 342 343 0.4594145960876145 0.22550895433484452 0.45493977191521384
3 231 232 108 0.4594145960876145 0.22550895433484452 0.45493977191521384
3 103 232 231 0.4594145960876145 0.22550895433484452 0.45493977191521384
3 230 102 231 0.4594145960876145 0.22550895433484452 0.45493977191521384
3 231 102 103 0.4594145960876145 0.22550895433484452 0.45493977191521384
3 108 292 107 0.4594145960876145 0.22550895433484452 0.45493977191521384
3 107 231 108 0.4594145960876145 0.22550895433484452 0.45493977191521384
3 107 106 230 0.4594145960876145 0.22550895433484452 0.45493977191521384
3 230 231 107 0.4594145960876145 0.22550895433484452 0.45493977191521384
3 343 344 153 0.4594145960876145 0.22550895433484452 0.45493977191521384
3 344 246 153 0.4594145960876145 0.22550895433484452 0.45493977191521384
3 153 246 245 0.4594145960876145 0.22550895433484452 0.45493977191521384
3 153 152 343 0.4594145960876145 0.22550895433484452 0.45493977191521384
3 245 152 153 0.4594145960876145 0.22550895433484452 0.45493977191521384
3 109 43 289 0.4594145960876145 0.22550895433484452 0.45493977191521384
3 289 110 109 0.4594145960876145 0.22550895433484452 0.45493977191521384
3 290 110 289 0.4594145960876145 0.22550895433484452 0.45493977191521384
3 289 105 290 0.4594145960876145 0.22550895433484452 0.45493977191521384
3 42 105 289 0.4594145960876145 0.22550895433484452 0.45493977191521384
3 289 43 42 0.4594145960876145 0.22550895433484452 0.45493977191521384
3 340 349 296 0.4594145960876145 0.22550895433484452 0.45493977191521384
3 295 235 296 0.4594145960876145 0.22550895433484452 0.45493977191521384
3 296 348 295 0.4594145960876145 0.22550895433484452 0.45493977191521384
3 296 349 348 0.4594145960876145 0.22550895433484452 0.45493977191521384
3 263 262 170 0.4594145960876145 0.22550895433484452 0.45493977191521384
3 366 264 263 0.4594145960876145 0.22550895433484452 0.45493977191521384
3 263 264 312 0.4594145960876145 0.22550895433484452 0.45493977191521384
3 263 365 366 0.4594145960876145 0.22550895433484452 0.45493977191521384
3 170 365 263 0.4594145960876145 0.22550895433484452 0.45493977191521384
3 312 311 263 0.4594145960876145 0.22550895433484452 0.45493977191521384
3 176 262 263 0.4594145960876145 0.22550895433484452 0.45493977191521384
3 263 311 176 0.4594145960876145 0.22550895433484452 0.45493977191521384
3 279 321 280 0.4594145960876145 0.22550895433484452 0.45493977191521384
3 280 331 330 0.4594145960876145 0.22550895433484452 0.45493977191521384
3 330 214 280 0.4594145960876145 0.22550895433484452 0.45493977191521384
3 280 214 279 0.4594145960876145 0.22550895433484452 0.45493977191521384
3 164 168 362 0.4594145960876145 0.22550895433484452 0.45493977191521384
3 362 361 353 0.4594145960876145 0.22550895433484452 0.45493977191521384
3 167 361 362 0.4594145960876145 0.22550895433484452 0.45493977191521384
3 362 168 167 0.4594145960876145 0.22550895433484452 0.45493977191521384
3 353 354 362 0.4594145960876145 0.22550895433484452 0.45493977191521384
3 362 354 164 0.4594145960876145 0.22550895433484452 0.45493977191521384
3 129 128 169 0.4594145960876145 0.22550895433484452 0.45493977191521384
3 128 168 169 0.4594145960876145 0.22550895433484452 0.45493977191521384
3 169 170 129 0.4594145960876145 0.22550895433484452 0.45493977191521384
3 169 168 164 0.4594145960876145 0.22550895433484452 0.45493977191521384
3 364 170 169 0.4594145960876145 0.22550895433484452 0.45493977191521384
3 169 164 364 0.4594145960876145 0.22550895433484452 0.45493977191521384
3 8 63 305 0.4594145960876145 0.22550895433484452 0.45493977191521384
3 305 67 66 0.4594145960876145 0.22550895433484452 0.45493977191521384
3 9 8 305 0.4594145960876145 0.22550895433484452 0.45493977191521384
3 305 66 9 0.4594145960876145 0.22550895433484452 0.45493977191521384
3 67 305 306 0.4594145960876145 0.22550895433484452 0.45493977191521384
3 306 305 63 0.4594145960876145 0.22550895433484452 0.45493977191521384
3 307 68 306 0.4594145960876145 0.22550895433484452 0.45493977191521384
3 67 306 179 0.4594145960876145 0.22550895433484452 0.45493977191521384
3 179 306 68 0.4594145960876145 0.22550895433484452 0.45493977191521384
3 137 136 132 0.4594145960876145 0.22550895433484452 0.45493977191521384
3 137 202 136 0.4594145960876145 0.22550895433484452 0.45493977191521384
3 132 267 137 0.4594145960876145 0.22550895433484452 0.45493977191521384
3 69 19 183 0.4594145960876145 0.22550895433484452 0.45493977191521384
3 17 201 89 0.4594145960876145 0.22550895433484452 0.45493977191521384
3 201 202 89 0.4594145960876145 0.22550895433484452 0.45493977191521384
3 261 260 84 0.4594145960876145 0.22550895433484452 0.45493977191521384
3 129 261 84 0.4594145960876145 0.22550895433484452 0.45493977191521384
3 84 128 129 0.4594145960876145 0.22550895433484452 0.45493977191521384
3 310 311 271 0.4594145960876145 0.22550895433484452 0.45493977191521384
3 271 182 310 0.4594145960876145 0.22550895433484452 0.45493977191521384
3 176 311 310 0.4594145960876145 0.22550895433484452 0.45493977191521384
3 175 176 310 0.4594145960876145 0.22550895433484452 0.45493977191521384
3 310 309 175 0.4594145960876145 0.22550895433484452 0.45493977191521384
3 310 182 309 0.4594145960876145 0.22550895433484452 0.45493977191521384
3 173 62 174 0.4594145960876145 0.22550895433484452 0.45493977191521384
3 173 308 65 0.4594145960876145 0.22550895433484452 0.45493977191521384
3 174 308 173 0.4594145960876145 0.22550895433484452 0.45493977191521384
3 65 172 173 0.4594145960876145 0.22550895433484452 0.45493977191521384
3 126 81 125 0.4594145960876145 0.22550895433484452 0.45493977191521384
3 126 82 81 0.4594145960876145 0.22550895433484452 0.45493977191521384
3 127 82 126 0.4594145960876145 0.22550895433484452 0.45493977191521384
3 125 166 126 0.4594145960876145 0.22550895433484452 0.45493977191521384
3 126 167 127 0.4594145960876145 0.22550895433484452 0.45493977191521384
3 126 166 167 0.4594145960876145 0.22550895433484452 0.45493977191521384
3 260 62 259 0.4594145960876145 0.22550895433484452 0.45493977191521384
3 200 199 220 0.4594145960876145 0.22550895433484452 0.45493977191521384
3 327 328 220 0.4594145960876145 0.22550895433484452 0.45493977191521384
3 220 328 221 0.4594145960876145 0.22550895433484452 0.45493977191521384
3 221 200 220 0.4594145960876145 0.22550895433484452 0.45493977191521384
3 288 287 330 0.4594145960876145 0.22550895433484452 0.45493977191521384
3 288 331 340 0.4594145960876145 0.22550895433484452 0.45493977191521384
3 330 331 288 0.4594145960876145 0.22550895433484452 0.45493977191521384
3 97 39 38 0.4594145960876145 0.22550895433484452 0.45493977191521384
3 38 222 97 0.4594145960876145 0.22550895433484452 0.45493977191521384
3 222 223 97 0.4594145960876145 0.22550895433484452 0.45493977191521384
3 223 98 97 0.4594145960876145 0.22550895433484452 0.45493977191521384
3 228 338 337 0.4594145960876145 0.22550895433484452 0.45493977191521384
3 337 227 228 0.4594145960876145 0.22550895433484452 0.45493977191521384
3 228 227 287 0.4594145960876145 0.22550895433484452 0.45493977191521384
3 287 288 228 0.4594145960876145 0.22550895433484452 0.45493977191521384
3 101 39 332 0.4594145960876145 0.22550895433484452 0.45493977191521384
3 332 102 101 0.4594145960876145 0.22550895433484452 0.45493977191521384
3 332 97 98 0.4594145960876145 0.22550895433484452 0.45493977191521384
3 39 97 332 0.4594145960876145 0.22550895433484452 0.45493977191521384
3 334 100 335 0.4594145960876145 0.22550895433484452 0.45493977191521384
3 99 100 334 0.4594145960876145 0.22550895433484452 0.45493977191521384
3 104 232 103 0.4594145960876145 0.22550895433484452 0.45493977191521384
3 104 334 335 0.4594145960876145 0.22550895433484452 0.45493977191521384
3 103 334 104 0.4594145960876145 0.22550895433484452 0.45493977191521384
3 233 232 104 0.4594145960876145 0.22550895433484452 0.45493977191521384
3 335 336 104 0.4594145960876145 0.22550895433484452 0.45493977191521384
3 104 336 233 0.4594145960876145 0.22550895433484452 0.45493977191521384
3 40 229 41 0.4594145960876145 0.22550895433484452 0.45493977191521384
3 41 105 42 0.4594145960876145 0.22550895433484452 0.45493977191521384
3 41 229 105 0.4594145960876145 0.22550895433484452 0.45493977191521384
3 197 217 218 0.4594145960876145 0.22550895433484452 0.45493977191521384
3 198 197 218 0.4594145960876145 0.22550895433484452 0.45493977191521384
3 325 218 324 0.4594145960876145 0.22550895433484452 0.45493977191521384
3 324 218 217 0.4594145960876145 0.22550895433484452 0.45493977191521384
3 142 326 325 0.4594145960876145 0.22550895433484452 0.45493977191521384
3 143 326 142 0.4594145960876145 0.22550895433484452 0.45493977191521384
3 142 210 143 0.4594145960876145 0.22550895433484452 0.45493977191521384
3 209 210 142 0.4594145960876145 0.22550895433484452 0.45493977191521384
3 270 206 205 0.4594145960876145 0.22550895433484452 0.45493977191521384
3 269 181 270 0.4594145960876145 0.22550895433484452 0.45493977191521384
3 181 182 270 0.4594145960876145 0.22550895433484452 0.45493977191521384
3 270 139 269 0.4594145960876145 0.22550895433484452 0.45493977191521384
3 205 139 270 0.4594145960876145 0.22550895433484452 0.45493977191521384
3 270 182 271 0.4594145960876145 0.22550895433484452 0.45493977191521384
3 271 206 270 0.4594145960876145 0.22550895433484452 0.45493977191521384
3 320 194 319 0.4594145960876145 0.22550895433484452 0.45493977191521384
3 188 207 319 0.4594145960876145 0.22550895433484452 0.45493977191521384
3 319 207 320 0.4594145960876145 0.22550895433484452 0.45493977191521384
3 140 324 27 0.4594145960876145 0.22550895433484452 0.45493977191521384
3 140 27 26 0.4594145960876145 0.22550895433484452 0.45493977191521384
3 26 208 140 0.4594145960876145 0.22550895433484452 0.45493977191521384
3 25 208 26 0.4594145960876145 0.22550895433484452 0.45493977191521384
3 72 22 21 0.4594145960876145 0.22550895433484452 0.45493977191521384
3 21 314 72 0.4594145960876145 0.22550895433484452 0.45493977191521384
3 72 314 315 0.4594145960876145 0.22550895433484452 0.45493977191521384
3 315 73 72 0.4594145960876145 0.22550895433484452 0.45493977191521384
3 190 76 75 0.4594145960876145 0.22550895433484452 0.45493977191521384
3 190 73 74 0.4594145960876145 0.22550895433484452 0.45493977191521384
3 250 156 251 0.4594145960876145 0.22550895433484452 0.45493977191521384
3 56 55 250 0.4594145960876145 0.22550895433484452 0.45493977191521384
3 250 121 56 0.4594145960876145 0.22550895433484452 0.45493977191521384
3 251 121 250 0.4594145960876145 0.22550895433484452 0.45493977191521384
3 297 298 155 0.4594145960876145 0.22550895433484452 0.45493977191521384
3 298 156 155 0.4594145960876145 0.22550895433484452 0.45493977191521384
3 54 297 155 0.4594145960876145 0.22550895433484452 0.45493977191521384
3 155 55 54 0.4594145960876145 0.22550895433484452 0.45493977191521384
3 155 250 55 0.4594145960876145 0.22550895433484452 0.45493977191521384
3 156 250 155 0.4594145960876145 0.22550895433484452 0.45493977191521384
3 80 79 123 0.4594145960876145 0.22550895433484452 0.45493977191521384
3 252 253 123 0.4594145960876145 0.22550895433484452 0.45493977191521384
3 123 122 252 0.4594145960876145 0.22550895433484452 0.45493977191521384
3 123 79 122 0.4594145960876145 0.22550895433484452 0.45493977191521384
3 124 80 123 0.4594145960876145 0.22550895433484452 0.45493977191521384
3 123 253 124 0.4594145960876145 0.22550895433484452 0.45493977191521384
3 237 114 236 0.4594145960876145 0.22550895433484452 0.45493977191521384
3 237 115 114 0.4594145960876145 0.22550895433484452 0.45493977191521384
3 236 109 237 0.4594145960876145 0.22550895433484452 0.45493977191521384
3 109 110 237 0.4594145960876145 0.22550895433484452 0.45493977191521384
3 237 110 238 0.4594145960876145 0.22550895433484452 0.45493977191521384
3 238 115 237 0.4594145960876145 0.22550895433484452 0.45493977191521384
3 238 111 239 0.4594145960876145 0.22550895433484452 0.45493977191521384
3 239 116 238 0.4594145960876145 0.22550895433484452 0.45493977191521384
3 239 111 112 0.4594145960876145 0.22550895433484452 0.45493977191521384
3 112 240 239 0.4594145960876145 0.22550895433484452 0.45493977191521384
3 345 240 346 0.4594145960876145 0.22550895433484452 0.45493977191521384
3 345 239 240 0.4594145960876145 0.22550895433484452 0.45493977191521384
3 116 239 345 0.4594145960876145 0.22550895433484452 0.45493977191521384
3 247 154 345 0.4594145960876145 0.22550895433484452 0.45493977191521384
3 154 344 345 0.4594145960876145 0.22550895433484452 0.45493977191521384
3 344 116 345 0.4594145960876145 0.22550895433484452 0.45493977191521384
3 345 248 247 0.4594145960876145 0.22550895433484452 0.45493977191521384
3 346 248 345 0.4594145960876145 0.22550895433484452 0.45493977191521384
3 291 107 292 0.4594145960876145 0.22550895433484452 0.45493977191521384
3 291 292 112 0.4594145960876145 0.22550895433484452 0.45493977191521384
3 112 111 291 0.4594145960876145 0.22550895433484452 0.45493977191521384
3 291 111 290 0.4594145960876145 0.22550895433484452 0.45493977191521384
3 290 106 291 0.4594145960876145 0.22550895433484452 0.45493977191521384
3 106 107 291 0.4594145960876145 0.22550895433484452 0.45493977191521384
3 368 331 322 0.4594145960876145 0.22550895433484452 0.45493977191521384
3 331 280 322 0.4594145960876145 0.22550895433484452 0.45493977191521384
3 322 313 368 0.4594145960876145 0.22550895433484452 0.45493977191521384
3 322 280 321 0.4594145960876145 0.22550895433484452 0.45493977191521384
3 312 313 322 0.4594145960876145 0.22550895433484452 0.45493977191521384
3 322 321 312 0.4594145960876145 0.22550895433484452 0.45493977191521384
3 307 306 64 0.4594145960876145 0.22550895433484452 0.45493977191521384
3 65 307 64 0.4594145960876145 0.22550895433484452 0.45493977191521384
3 64 172 65 0.4594145960876145 0.22550895433484452 0.45493977191521384
3 171 172 64 0.4594145960876145 0.22550895433484452 0.45493977191521384
3 64 63 171 0.4594145960876145 0.22550895433484452 0.45493977191521384
3 64 306 63 0.4594145960876145 0.22550895433484452 0.45493977191521384
3 91 204 92 0.4594145960876145 0.22550895433484452 0.45493977191521384
3 92 185 91 0.4594145960876145 0.22550895433484452 0.45493977191521384
3 186 185 92 0.4594145960876145 0.22550895433484452 0.45493977191521384
3 92 205 186 0.4594145960876145 0.22550895433484452 0.45493977191521384
3 92 139 205 0.4594145960876145 0.22550895433484452 0.45493977191521384
3 92 204 139 0.4594145960876145 0.22550895433484452 0.45493977191521384
3 315 70 71 0.4594145960876145 0.22550895433484452 0.45493977191521384
3 70 185 71 0.4594145960876145 0.22550895433484452 0.45493977191521384
3 71 316 315 0.4594145960876145 0.22550895433484452 0.45493977191521384
3 186 316 71 0.4594145960876145 0.22550895433484452 0.45493977191521384
3 71 185 186 0.4594145960876145 0.22550895433484452 0.45493977191521384
3 178 67 87 0.4594145960876145 0.22550895433484452 0.45493977191521384
3 67 179 87 0.4594145960876145 0.22550895433484452 0.45493977191521384
3 87 179 268 0.4594145960876145 0.22550895433484452 0.45493977191521384
3 87 267 178 0.4594145960876145 0.22550895433484452 0.45493977191521384
3 88 68 180 0.4594145960876145 0.22550895433484452 0.45493977191521384
3 88 179 68 0.4594145960876145 0.22550895433484452 0.45493977191521384
3 268 179 88 0.4594145960876145 0.22550895433484452 0.45493977191521384
3 134 268 88 0.4594145960876145 0.22550895433484452 0.45493977191521384
3 269 134 88 0.4594145960876145 0.22550895433484452 0.45493977191521384
3 88 180 269 0.4594145960876145 0.22550895433484452 0.45493977191521384
3 133 137 267 0.4594145960876145 0.22550895433484452 0.45493977191521384
3 267 87 133 0.4594145960876145 0.22550895433484452 0.45493977191521384
3 133 87 268 0.4594145960876145 0.22550895433484452 0.45493977191521384
3 69 183 184 0.4594145960876145 0.22550895433484452 0.45493977191521384
3 184 70 69 0.4594145960876145 0.22550895433484452 0.45493977191521384
3 91 185 184 0.4594145960876145 0.22550895433484452 0.45493977191521384
3 184 185 70 0.4594145960876145 0.22550895433484452 0.45493977191521384
3 17 89 18 0.4594145960876145 0.22550895433484452 0.45493977191521384
3 18 183 19 0.4594145960876145 0.22550895433484452 0.45493977191521384
3 18 89 183 0.4594145960876145 0.22550895433484452 0.45493977191521384
3 61 173 172 0.4594145960876145 0.22550895433484452 0.45493977191521384
3 62 173 61 0.4594145960876145 0.22550895433484452 0.45493977191521384
3 61 172 60 0.4594145960876145 0.22550895433484452 0.45493977191521384
3 60 257 61 0.4594145960876145 0.22550895433484452 0.45493977191521384
3 83 84 260 0.4594145960876145 0.22550895433484452 0.45493977191521384
3 260 259 83 0.4594145960876145 0.22550895433484452 0.45493977191521384
3 83 259 82 0.4594145960876145 0.22550895433484452 0.45493977191521384
3 83 82 127 0.4594145960876145 0.22550895433484452 0.45493977191521384
3 127 128 83 0.4594145960876145 0.22550895433484452 0.45493977191521384
3 128 84 83 0.4594145960876145 0.22550895433484452 0.45493977191521384
3 219 220 199 0.4594145960876145 0.22550895433484452 0.45493977191521384
3 219 199 198 0.4594145960876145 0.22550895433484452 0.45493977191521384
3 219 326 327 0.4594145960876145 0.22550895433484452 0.45493977191521384
3 327 220 219 0.4594145960876145 0.22550895433484452 0.45493977191521384
3 198 218 219 0.4594145960876145 0.22550895433484452 0.45493977191521384
3 325 326 219 0.4594145960876145 0.22550895433484452 0.45493977191521384
3 219 218 325 0.4594145960876145 0.22550895433484452 0.45493977191521384
3 339 288 340 0.4594145960876145 0.22550895433484452 0.45493977191521384
3 340 296 339 0.4594145960876145 0.22550895433484452 0.45493977191521384
3 338 228 339 0.4594145960876145 0.22550895433484452 0.45493977191521384
3 339 228 288 0.4594145960876145 0.22550895433484452 0.45493977191521384
3 235 338 339 0.4594145960876145 0.22550895433484452 0.45493977191521384
3 339 296 235 0.4594145960876145 0.22550895433484452 0.45493977191521384
3 102 332 333 0.4594145960876145 0.22550895433484452 0.45493977191521384
3 103 102 333 0.4594145960876145 0.22550895433484452 0.45493977191521384
3 333 334 103 0.4594145960876145 0.22550895433484452 0.45493977191521384
3 333 332 98 0.4594145960876145 0.22550895433484452 0.45493977191521384
3 333 98 99 0.4594145960876145 0.22550895433484452 0.45493977191521384
3 99 334 333 0.4594145960876145 0.22550895433484452 0.45493977191521384
3 28 27 323 0.4594145960876145 0.22550895433484452 0.45493977191521384
3 27 324 323 0.4594145960876145 0.22550895433484452 0.45493977191521384
3 216 28 323 0.4594145960876145 0.22550895433484452 0.45493977191521384
3 323 217 216 0.4594145960876145 0.22550895433484452 0.45493977191521384
3 323 324 217 0.4594145960876145 0.22550895433484452 0.45493977191521384
3 193 319 194 0.4594145960876145 0.22550895433484452 0.45493977191521384
3 193 194 277 0.4594145960876145 0.22550895433484452 0.45493977191521384
3 277 276 193 0.4594145960876145 0.22550895433484452 0.45493977191521384
3 193 276 192 0.4594145960876145 0.22550895433484452 0.45493977191521384
3 325 324 141 0.4594145960876145 0.22550895433484452 0.45493977191521384
3 324 140 141 0.4594145960876145 0.22550895433484452 0.45493977191521384
3 141 142 325 0.4594145960876145 0.22550895433484452 0.45493977191521384
3 141 140 208 0.4594145960876145 0.22550895433484452 0.45493977191521384
3 141 208 209 0.4594145960876145 0.22550895433484452 0.45493977191521384
3 209 142 141 0.4594145960876145 0.22550895433484452 0.45493977191521384
3 93 273 94 0.4594145960876145 0.22550895433484452 0.45493977191521384
3 208 25 93 0.4594145960876145 0.22550895433484452 0.45493977191521384
3 94 209 93 0.4594145960876145 0.22550895433484452 0.45493977191521384
3 209 208 93 0.4594145960876145 0.22550895433484452 0.45493977191521384
3 24 23 75 0.4594145960876145 0.22550895433484452 0.45493977191521384
3 75 273 24 0.4594145960876145 0.22550895433484452 0.45493977191521384
3 273 93 24 0.4594145960876145 0.22550895433484452 0.45493977191521384
3 24 93 25 0.4594145960876145 0.22550895433484452 0.45493977191521384
3 189 72 73 0.4594145960876145 0.22550895433484452 0.45493977191521384
3 73 190 189 0.4594145960876145 0.22550895433484452 0.45493977191521384
3 22 72 189 0.4594145960876145 0.22550895433484452 0.45493977191521384
3 189 190 75 0.4594145960876145 0.22550895433484452 0.45493977191521384
3 75 23 189 0.4594145960876145 0.22550895433484452 0.45493977191521384
3 23 22 189 0.4594145960876145 0.22550895433484452 0.45493977191521384
3 76 190 191 0.4594145960876145 0.22550895433484452 0.45493977191521384
3 191 74 192 0.4594145960876145 0.22550895433484452 0.45493977191521384
3 191 190 74 0.4594145960876145 0.22550895433484452 0.45493977191521384
3 138 268 134 0.4594145960876145 0.22550895433484452 0.45493977191521384
3 138 133 268 0.4594145960876145 0.22550895433484452 0.45493977191521384
3 134 204 138 0.4594145960876145 0.22550895433484452 0.45493977191521384
3 138 204 91 0.4594145960876145 0.22550895433484452 0.45493977191521384
3 90 184 183 0.4594145960876145 0.22550895433484452 0.45493977191521384
3 90 89 202 0.4594145960876145 0.22550895433484452 0.45493977191521384
3 183 89 90 0.4594145960876145 0.22550895433484452 0.45493977191521384
3 91 184 90 0.4594145960876145 0.22550895433484452 0.45493977191521384
3 258 259 62 0.4594145960876145 0.22550895433484452 0.45493977191521384
3 62 61 258 0.4594145960876145 0.22550895433484452 0.45493977191521384
3 258 61 257 0.4594145960876145 0.22550895433484452 0.45493977191521384
3 82 259 258 0.4594145960876145 0.22550895433484452 0.45493977191521384
3 257 81 258 0.4594145960876145 0.22550895433484452 0.45493977191521384
3 81 82 258 0.4594145960876145 0.22550895433484452 0.45493977191521384
3 319 193 318 0.4594145960876145 0.22550895433484452 0.45493977191521384
3 188 319 318 0.4594145960876145 0.22550895433484452 0.45493977191521384
3 192 317 318 0.4594145960876145 0.22550895433484452 0.45493977191521384
3 318 193 192 0.4594145960876145 0.22550895433484452 0.45493977191521384
3 318 187 188 0.4594145960876145 0.22550895433484452 0.45493977191521384
3 318 317 187 0.4594145960876145 0.22550895433484452 0.45493977191521384
3 76 191 77 0.4594145960876145 0.22550895433484452 0.45493977191521384
3 275 274 77 0.4594145960876145 0.22550895433484452 0.45493977191521384
3 274 76 77 0.4594145960876145 0.22550895433484452 0.45493977191521384
3 77 191 192 0.4594145960876145 0.22550895433484452 0.45493977191521384
3 77 276 275 0.4594145960876145 0.22550895433484452 0.45493977191521384
3 192 276 77 0.4594145960876145 0.22550895433484452 0.45493977191521384
3 203 138 91 0.4594145960876145 0.22550895433484452 0.45493977191521384
3 91 90 203 0.4594145960876145 0.22550895433484452 0.45493977191521384
3 137 133 203 0.4594145960876145 0.22550895433484452 0.45493977191521384
3 133 138 203 0.4594145960876145 0.22550895433484452 0.45493977191521384
3 202 137 203 0.4594145960876145 0.22550895433484452 0.45493977191521384
3 203 90 202 0.4594145960876145 0.22550895433484452 0.45493977191521384
