OFF
50 45 0


30.1225 35.1825 6.6531
30.1225 35.1825 6.6531
30.0188 35.1359 6.6446
29.917 35.0914 6.6337
29.8163 35.0492 6.6201
29.7165 35.0093 6.603
29.6173 34.9721 6.5817
29.5189 34.9381 6.5554
29.4214 34.9079 6.523
29.3254 34.8822 6.4841
29.2317 34.8614 6.4385
29.141 34.8457 6.3864
29.0537 34.8348 6.3287
28.9701 34.8283 6.2664
28.8899 34.8255 6.2007
28.8128 34.8256 6.1324
28.7383 34.8282 6.0621
28.6658 34.8327 5.9902
28.5948 34.8388 5.9166
28.5246 34.8463 5.8414
28.4546 34.8549 5.7643
28.3842 34.8647 5.6848
28.3127 34.8756 5.6024
28.2395 34.8875 5.5164
28.1636 34.9007 5.4261
28.2875 34.9395 5.4663
28.3996 34.9739 5.5041
28.5026 35.0047 5.5401
28.5981 35.0327 5.5747
28.6879 35.0583 5.6082
28.7732 35.0822 5.641
28.855 35.1045 5.6734
28.9343 35.1256 5.7058
29.0119 35.1458 5.7384
29.0886 35.1652 5.7716
29.1652 35.1841 5.8056
29.2423 35.2025 5.8408
29.3207 35.2207 5.8776
29.4011 35.2387 5.9165
29.4845 35.2567 5.958
29.5716 35.2748 6.0027
29.6636 35.2931 6.0513
29.7618 35.3117 6.1048
29.8675 35.3307 6.1644
29.9826 35.35 6.2315
29.9826 35.35 6.2315
30.0245 35.3017 6.3545
30.0538 35.2669 6.4422
30.0827 35.232 6.5299
30.1225 35.1825 6.6531
3 36 12 37 0.32553772210528287 0.2788377515645316 0.10928428768263221
3 40 39 8 0.32553772210528287 0.2788377515645316 0.10928428768263221
3 13 12 36 0.32553772210528287 0.2788377515645316 0.10928428768263221
3 7 41 40 0.32553772210528287 0.2788377515645316 0.10928428768263221
3 40 8 7 0.32553772210528287 0.2788377515645316 0.10928428768263221
3 10 39 38 0.32553772210528287 0.2788377515645316 0.10928428768263221
3 27 26 21 0.32553772210528287 0.2788377515645316 0.10928428768263221
3 21 20 27 0.32553772210528287 0.2788377515645316 0.10928428768263221
3 18 29 19 0.32553772210528287 0.2788377515645316 0.10928428768263221
3 35 13 36 0.32553772210528287 0.2788377515645316 0.10928428768263221
3 14 13 35 0.32553772210528287 0.2788377515645316 0.10928428768263221
3 15 14 34 0.32553772210528287 0.2788377515645316 0.10928428768263221
3 34 33 15 0.32553772210528287 0.2788377515645316 0.10928428768263221
3 14 35 34 0.32553772210528287 0.2788377515645316 0.10928428768263221
3 30 29 18 0.32553772210528287 0.2788377515645316 0.10928428768263221
3 17 30 18 0.32553772210528287 0.2788377515645316 0.10928428768263221
3 31 30 17 0.32553772210528287 0.2788377515645316 0.10928428768263221
3 6 42 41 0.32553772210528287 0.2788377515645316 0.10928428768263221
3 41 7 6 0.32553772210528287 0.2788377515645316 0.10928428768263221
3 9 8 39 0.32553772210528287 0.2788377515645316 0.10928428768263221
3 39 10 9 0.32553772210528287 0.2788377515645316 0.10928428768263221
3 38 37 11 0.32553772210528287 0.2788377515645316 0.10928428768263221
3 11 10 38 0.32553772210528287 0.2788377515645316 0.10928428768263221
3 11 37 12 0.32553772210528287 0.2788377515645316 0.10928428768263221
3 24 23 25 0.32553772210528287 0.2788377515645316 0.10928428768263221
3 21 26 22 0.32553772210528287 0.2788377515645316 0.10928428768263221
3 26 25 22 0.32553772210528287 0.2788377515645316 0.10928428768263221
3 22 25 23 0.32553772210528287 0.2788377515645316 0.10928428768263221
3 28 27 20 0.32553772210528287 0.2788377515645316 0.10928428768263221
3 28 19 29 0.32553772210528287 0.2788377515645316 0.10928428768263221
3 20 19 28 0.32553772210528287 0.2788377515645316 0.10928428768263221
3 32 31 16 0.32553772210528287 0.2788377515645316 0.10928428768263221
3 31 17 16 0.32553772210528287 0.2788377515645316 0.10928428768263221
3 15 33 16 0.32553772210528287 0.2788377515645316 0.10928428768263221
3 16 33 32 0.32553772210528287 0.2788377515645316 0.10928428768263221
3 42 6 5 0.32553772210528287 0.2788377515645316 0.10928428768263221
3 5 43 42 0.32553772210528287 0.2788377515645316 0.10928428768263221
3 4 43 5 0.32553772210528287 0.2788377515645316 0.10928428768263221
3 46 43 4 0.32553772210528287 0.2788377515645316 0.10928428768263221
3 4 47 46 0.32553772210528287 0.2788377515645316 0.10928428768263221
3 44 43 46 0.32553772210528287 0.2788377515645316 0.10928428768263221
3 48 2 0 0.32553772210528287 0.2788377515645316 0.10928428768263221
3 3 47 4 0.32553772210528287 0.2788377515645316 0.10928428768263221
3 3 48 47 0.32553772210528287 0.2788377515645316 0.10928428768263221
3 2 48 3 0.32553772210528287 0.2788377515645316 0.10928428768263221
