OFF
78 71 0


32.6585 34.313 10.663
32.6585 34.313 10.663
32.7049 34.417 10.7554
32.7402 34.4952 10.8251
32.7704 34.5618 10.8847
32.7992 34.625 10.9414
32.8297 34.6913 11.001
32.8655 34.769 11.0709
32.9134 34.872 11.1639
32.9134 34.872 11.1639
32.8041 34.8496 11.0687
32.7035 34.8293 10.9812
32.6102 34.8107 10.9002
32.5229 34.7937 10.8247
32.4407 34.7779 10.7536
32.3628 34.7631 10.6864
32.2884 34.7493 10.6224
32.2169 34.7363 10.561
32.1479 34.724 10.5019
32.0809 34.7122 10.4446
32.0155 34.701 10.3888
31.9512 34.6902 10.3341
31.8878 34.6797 10.2803
31.8248 34.6696 10.227
31.7621 34.6598 10.174
31.6992 34.6503 10.121
31.6358 34.641 10.0678
31.5717 34.6318 10.0141
31.5064 34.6228 9.9597
31.4397 34.6139 9.9042
31.3711 34.6052 9.8474
31.3002 34.5966 9.7889
31.2266 34.588 9.7284
31.1497 34.5796 9.6655
31.069 34.5713 9.5997
30.9837 34.5632 9.5305
30.8931 34.5552 9.4574
30.7963 34.5474 9.3797
30.6921 34.5399 9.2965
30.5803 34.5229 9.2024
30.6808 34.4383 9.232
30.7697 34.3614 9.2571
30.8498 34.2901 9.2787
30.9233 34.2231 9.2975
30.9918 34.159 9.3142
31.0568 34.0968 9.3292
31.1192 34.0355 9.3429
31.1802 33.9742 9.3554
31.2406 33.912 9.3669
31.3011 33.848 9.3776
31.3628 33.7811 9.3876
31.4264 33.7101 9.3967
31.4929 33.6337 9.4051
31.5634 33.5501 9.4126
31.6391 33.4573 9.4189
31.7215 33.3524 9.4237
31.7215 33.3524 9.4237
31.7925 33.4528 9.5328
31.8526 33.5318 9.6218
31.9052 33.5972 9.6978
31.9527 33.6536 9.7648
31.9967 33.7036 9.8257
32.0381 33.7492 9.8822
32.078 33.7918 9.9359
32.1171 33.8322 9.9878
32.156 33.8715 10.0389
32.1955 33.9104 10.0902
32.2362 33.9495 10.1426
32.2789 33.9895 10.197
32.3246 34.0313 10.2547
32.3744 34.0759 10.317
32.4299 34.1244 10.3857
32.4933 34.1783 10.4635
32.5678 34.2401 10.5541
32.6585 34.313 10.663
30.5792 34.5327 9.207
30.5797 34.5278 9.2047
30.5803 34.5229 9.2024
3 65 66 25 0.08357854429087719 0.8849803403745975 0.3715055494902727
3 25 64 65 0.08357854429087719 0.8849803403745975 0.3715055494902727
3 62 27 28 0.08357854429087719 0.8849803403745975 0.3715055494902727
3 26 64 25 0.08357854429087719 0.8849803403745975 0.3715055494902727
3 63 27 62 0.08357854429087719 0.8849803403745975 0.3715055494902727
3 64 26 63 0.08357854429087719 0.8849803403745975 0.3715055494902727
3 63 26 27 0.08357854429087719 0.8849803403745975 0.3715055494902727
3 47 31 32 0.08357854429087719 0.8849803403745975 0.3715055494902727
3 29 50 61 0.08357854429087719 0.8849803403745975 0.3715055494902727
3 62 28 61 0.08357854429087719 0.8849803403745975 0.3715055494902727
3 61 28 29 0.08357854429087719 0.8849803403745975 0.3715055494902727
3 49 50 29 0.08357854429087719 0.8849803403745975 0.3715055494902727
3 12 13 4 0.08357854429087719 0.8849803403745975 0.3715055494902727
3 25 66 24 0.08357854429087719 0.8849803403745975 0.3715055494902727
3 23 68 22 0.08357854429087719 0.8849803403745975 0.3715055494902727
3 20 21 70 0.08357854429087719 0.8849803403745975 0.3715055494902727
3 70 19 20 0.08357854429087719 0.8849803403745975 0.3715055494902727
3 70 21 69 0.08357854429087719 0.8849803403745975 0.3715055494902727
3 21 22 69 0.08357854429087719 0.8849803403745975 0.3715055494902727
3 69 22 68 0.08357854429087719 0.8849803403745975 0.3715055494902727
3 67 68 23 0.08357854429087719 0.8849803403745975 0.3715055494902727
3 67 24 66 0.08357854429087719 0.8849803403745975 0.3715055494902727
3 23 24 67 0.08357854429087719 0.8849803403745975 0.3715055494902727
3 72 17 18 0.08357854429087719 0.8849803403745975 0.3715055494902727
3 52 59 51 0.08357854429087719 0.8849803403745975 0.3715055494902727
3 58 59 52 0.08357854429087719 0.8849803403745975 0.3715055494902727
3 52 53 58 0.08357854429087719 0.8849803403745975 0.3715055494902727
3 30 49 29 0.08357854429087719 0.8849803403745975 0.3715055494902727
3 48 31 47 0.08357854429087719 0.8849803403745975 0.3715055494902727
3 48 30 31 0.08357854429087719 0.8849803403745975 0.3715055494902727
3 49 30 48 0.08357854429087719 0.8849803403745975 0.3715055494902727
3 33 45 46 0.08357854429087719 0.8849803403745975 0.3715055494902727
3 47 32 46 0.08357854429087719 0.8849803403745975 0.3715055494902727
3 46 32 33 0.08357854429087719 0.8849803403745975 0.3715055494902727
3 42 43 36 0.08357854429087719 0.8849803403745975 0.3715055494902727
3 11 12 5 0.08357854429087719 0.8849803403745975 0.3715055494902727
3 12 4 5 0.08357854429087719 0.8849803403745975 0.3715055494902727
3 14 15 2 0.08357854429087719 0.8849803403745975 0.3715055494902727
3 2 15 0 0.08357854429087719 0.8849803403745975 0.3715055494902727
3 18 19 71 0.08357854429087719 0.8849803403745975 0.3715055494902727
3 71 72 18 0.08357854429087719 0.8849803403745975 0.3715055494902727
3 71 19 70 0.08357854429087719 0.8849803403745975 0.3715055494902727
3 16 17 73 0.08357854429087719 0.8849803403745975 0.3715055494902727
3 17 72 73 0.08357854429087719 0.8849803403745975 0.3715055494902727
3 73 15 16 0.08357854429087719 0.8849803403745975 0.3715055494902727
3 0 15 73 0.08357854429087719 0.8849803403745975 0.3715055494902727
3 60 51 59 0.08357854429087719 0.8849803403745975 0.3715055494902727
3 60 61 50 0.08357854429087719 0.8849803403745975 0.3715055494902727
3 50 51 60 0.08357854429087719 0.8849803403745975 0.3715055494902727
3 57 53 54 0.08357854429087719 0.8849803403745975 0.3715055494902727
3 57 58 53 0.08357854429087719 0.8849803403745975 0.3715055494902727
3 57 54 55 0.08357854429087719 0.8849803403745975 0.3715055494902727
3 37 41 42 0.08357854429087719 0.8849803403745975 0.3715055494902727
3 42 36 37 0.08357854429087719 0.8849803403745975 0.3715055494902727
3 35 43 44 0.08357854429087719 0.8849803403745975 0.3715055494902727
3 35 36 43 0.08357854429087719 0.8849803403745975 0.3715055494902727
3 6 10 11 0.08357854429087719 0.8849803403745975 0.3715055494902727
3 11 5 6 0.08357854429087719 0.8849803403745975 0.3715055494902727
3 3 4 13 0.08357854429087719 0.8849803403745975 0.3715055494902727
3 3 13 14 0.08357854429087719 0.8849803403745975 0.3715055494902727
3 14 2 3 0.08357854429087719 0.8849803403745975 0.3715055494902727
3 40 41 38 0.08357854429087719 0.8849803403745975 0.3715055494902727
3 41 37 38 0.08357854429087719 0.8849803403745975 0.3715055494902727
3 75 76 38 0.08357854429087719 0.8849803403745975 0.3715055494902727
3 77 40 38 0.08357854429087719 0.8849803403745975 0.3715055494902727
3 38 76 77 0.08357854429087719 0.8849803403745975 0.3715055494902727
3 34 35 44 0.08357854429087719 0.8849803403745975 0.3715055494902727
3 34 45 33 0.08357854429087719 0.8849803403745975 0.3715055494902727
3 44 45 34 0.08357854429087719 0.8849803403745975 0.3715055494902727
3 8 10 7 0.08357854429087719 0.8849803403745975 0.3715055494902727
3 10 6 7 0.08357854429087719 0.8849803403745975 0.3715055494902727
