OFF
192 331 0


28.8688 33.7786 11.7364
28.8688 33.7786 11.7364
28.817 33.765 11.8546
28.7798 33.7547 11.9403
28.7478 33.7455 12.0144
28.7161 33.7361 12.0885
28.6795 33.7249 12.1744
28.6295 33.7091 12.293
28.7669 33.7433 12.306
28.8852 33.7721 12.316
28.9901 33.7971 12.3239
29.0857 33.8195 12.3302
29.175 33.84 12.3354
29.2605 33.8593 12.3397
29.3443 33.8778 12.3433
29.4281 33.8959 12.3462
29.514 33.9141 12.3485
29.604 33.9328 12.3501
29.7005 33.9524 12.351
29.8067 33.9734 12.351
29.9266 33.9964 12.3498
30.0661 34.0224 12.3468
30.0661 34.0224 12.3468
29.9532 34.004 12.2726
29.8538 33.987 12.21
29.7638 33.971 12.1556
29.6802 33.9556 12.1071
29.6007 33.9404 12.0628
29.5231 33.9252 12.0213
29.4458 33.9095 11.9817
29.367 33.893 11.943
29.2848 33.8753 11.9045
29.1969 33.8559 11.8654
29.1009 33.834 11.825
28.9931 33.8087 11.7823
28.8688 33.7786 11.7364
28.8211 33.7635 12.031
28.8924 33.7808 12.0472
28.8477 33.7712 11.9666
28.9142 33.7871 11.9921
28.9794 33.8025 12.0171
28.765 33.7466 12.1694
28.8473 33.7671 12.1645
28.9268 33.7867 12.1597
29.1134 33.8268 12.3045
29.1405 33.8339 12.2792
29.1673 33.8409 12.2544
29.265 33.8612 12.3132
29.2693 33.863 12.2869
29.2737 33.8648 12.261
29.4108 33.8931 12.319
29.3937 33.8903 12.2921
29.3768 33.8875 12.2655
29.5637 33.9254 12.3225
29.524 33.9181 12.2951
29.4849 33.9107 12.2681
29.6322 33.9458 12.1108
29.5843 33.9359 12.1145
29.5365 33.9258 12.1181
29.4953 33.919 12.0353
29.4672 33.9128 12.0494
29.4391 33.9064 12.0636
29.3582 33.8907 11.9664
29.3494 33.8884 11.9899
29.3405 33.886 12.0137
29.2088 33.8582 11.8985
29.2207 33.8605 11.9317
29.2327 33.8627 11.9651
28.879 33.78 11.8916
28.94 33.7944 11.9279
29.0001 33.8084 11.9635
29.0596 33.822 11.9986
28.8404 33.7622 12.2825
28.9112 33.7802 12.2598
28.9796 33.7973 12.2379
29.0458 33.8137 12.2165
29.0309 33.8077 12.2987
29.0709 33.8179 12.2741
29.1099 33.8277 12.25
29.1482 33.8373 12.2264
29.739 33.961 12.3231
29.6728 33.9487 12.2956
29.6079 33.9364 12.2685
29.544 33.924 12.2417
29.9603 34.0038 12.3188
29.8586 33.9854 12.2916
29.7603 33.9671 12.265
29.6645 33.9488 12.2389
29.8659 33.988 12.2551
29.7809 33.972 12.2378
29.6977 33.9561 12.2208
29.6158 33.94 12.2039
29.7045 33.9593 12.1534
29.6456 33.9475 12.1511
29.5871 33.9356 12.1487
29.5288 33.9235 12.1463
29.0306 33.8174 11.8268
29.068 33.8258 11.871
29.1054 33.8341 11.915
29.1428 33.8422 11.959
28.7247 33.7338 12.2708
28.8154 33.757 12.2497
28.9022 33.7789 12.2293
28.9857 33.7996 12.2096
29.0662 33.8192 12.1905
29.3378 33.8773 12.3164
29.3314 33.8767 12.2898
29.3251 33.8762 12.2635
29.3189 33.8756 12.2375
29.3128 33.875 12.2117
29.6474 33.9426 12.3232
29.5952 33.9329 12.2958
29.5438 33.9231 12.2686
29.4931 33.9132 12.2418
29.4429 33.9033 12.2151
29.7816 33.9733 12.2008
29.7106 33.9595 12.1917
29.6404 33.9456 12.1825
29.5709 33.9316 12.1734
29.5018 33.9173 12.1642
29.4275 33.9052 12.0004
29.409 33.9008 12.0193
29.3904 33.8964 12.0383
29.3716 33.8919 12.0574
29.3527 33.8873 12.0768
28.7949 33.7557 12.0953
28.8712 33.7745 12.1018
28.9455 33.7924 12.108
29.0179 33.8097 12.114
29.0888 33.8263 12.1198
29.1584 33.8424 12.1253
29.1907 33.8445 12.3092
29.2062 33.8489 12.2835
29.2214 33.8531 12.258
29.2365 33.8573 12.233
29.2513 33.8614 12.2082
29.266 33.8654 12.1838
29.2859 33.8752 11.9326
29.2871 33.875 11.9609
29.2883 33.8748 11.9894
29.2896 33.8746 12.0181
29.2908 33.8742 12.0471
29.2921 33.8739 12.0764
28.9231 33.7917 11.788
28.9767 33.8043 11.8388
29.0298 33.8165 11.8889
29.0826 33.8284 11.9385
29.1353 33.8399 11.9879
29.1882 33.8512 12.0371
28.9231 33.7917 11.788
28.9767 33.8043 11.8388
29.0298 33.8165 11.8889
29.0826 33.8284 11.9385
29.1353 33.8399 11.9879
29.1882 33.8512 12.0371
29.2412 33.8622 12.0864
28.941 33.7864 12.2915
28.9952 33.8001 12.2678
29.048 33.8134 12.2446
29.0995 33.8261 12.222
29.1497 33.8384 12.1998
29.199 33.8503 12.1781
29.2473 33.8619 12.1568
29.4855 33.9091 12.321
29.4574 33.904 12.2939
29.4296 33.8989 12.267
29.4022 33.8938 12.2404
29.375 33.8886 12.214
29.348 33.8835 12.1878
29.3213 33.8783 12.1617
29.8418 33.9812 12.3218
29.7595 33.9661 12.2943
29.6792 33.9509 12.2674
29.6005 33.9357 12.2408
29.5231 33.9204 12.2145
29.4466 33.9049 12.1883
29.3706 33.8891 12.1621
29.563 33.9324 12.0718
29.5253 33.9244 12.0809
29.4874 33.9162 12.09
29.4494 33.9078 12.0991
29.4112 33.8994 12.1082
29.3727 33.8908 12.1174
29.3339 33.882 12.1266
29.1246 33.8392 11.8634
29.1484 33.8443 11.9019
29.1723 33.8493 11.9404
29.1964 33.8542 11.979
29.2206 33.859 12.0178
29.2451 33.8638 12.0568
29.2698 33.8684 12.0962
29.2948 33.8731 12.1358
3 7 100 8 0.13339076986012532 0.07763791438923062 0.24100428649092975
3 72 8 101 0.13339076986012532 0.07763791438923062 0.24100428649092975
3 101 8 100 0.13339076986012532 0.07763791438923062 0.24100428649092975
3 72 101 102 0.13339076986012532 0.07763791438923062 0.24100428649092975
3 102 101 42 0.13339076986012532 0.07763791438923062 0.24100428649092975
3 38 69 39 0.13339076986012532 0.07763791438923062 0.24100428649092975
3 68 69 38 0.13339076986012532 0.07763791438923062 0.24100428649092975
3 38 3 68 0.13339076986012532 0.07763791438923062 0.24100428649092975
3 36 125 4 0.13339076986012532 0.07763791438923062 0.24100428649092975
3 4 3 36 0.13339076986012532 0.07763791438923062 0.24100428649092975
3 36 3 38 0.13339076986012532 0.07763791438923062 0.24100428649092975
3 4 125 5 0.13339076986012532 0.07763791438923062 0.24100428649092975
3 41 125 42 0.13339076986012532 0.07763791438923062 0.24100428649092975
3 42 101 41 0.13339076986012532 0.07763791438923062 0.24100428649092975
3 41 101 100 0.13339076986012532 0.07763791438923062 0.24100428649092975
3 41 5 125 0.13339076986012532 0.07763791438923062 0.24100428649092975
3 43 102 42 0.13339076986012532 0.07763791438923062 0.24100428649092975
3 34 33 96 0.13339076986012532 0.07763791438923062 0.24100428649092975
3 128 43 127 0.13339076986012532 0.07763791438923062 0.24100428649092975
3 127 40 128 0.13339076986012532 0.07763791438923062 0.24100428649092975
3 128 40 71 0.13339076986012532 0.07763791438923062 0.24100428649092975
3 2 68 3 0.13339076986012532 0.07763791438923062 0.24100428649092975
3 0 34 143 0.13339076986012532 0.07763791438923062 0.24100428649092975
3 143 2 0 0.13339076986012532 0.07763791438923062 0.24100428649092975
3 68 2 143 0.13339076986012532 0.07763791438923062 0.24100428649092975
3 141 124 142 0.13339076986012532 0.07763791438923062 0.24100428649092975
3 142 189 141 0.13339076986012532 0.07763791438923062 0.24100428649092975
3 148 189 155 0.13339076986012532 0.07763791438923062 0.24100428649092975
3 29 120 30 0.13339076986012532 0.07763791438923062 0.24100428649092975
3 184 33 32 0.13339076986012532 0.07763791438923062 0.24100428649092975
3 38 39 37 0.13339076986012532 0.07763791438923062 0.24100428649092975
3 37 36 38 0.13339076986012532 0.07763791438923062 0.24100428649092975
3 37 40 127 0.13339076986012532 0.07763791438923062 0.24100428649092975
3 39 40 37 0.13339076986012532 0.07763791438923062 0.24100428649092975
3 6 41 100 0.13339076986012532 0.07763791438923062 0.24100428649092975
3 5 41 6 0.13339076986012532 0.07763791438923062 0.24100428649092975
3 6 100 7 0.13339076986012532 0.07763791438923062 0.24100428649092975
3 10 76 11 0.13339076986012532 0.07763791438923062 0.24100428649092975
3 44 12 11 0.13339076986012532 0.07763791438923062 0.24100428649092975
3 157 76 10 0.13339076986012532 0.07763791438923062 0.24100428649092975
3 157 156 74 0.13339076986012532 0.07763791438923062 0.24100428649092975
3 10 156 157 0.13339076986012532 0.07763791438923062 0.24100428649092975
3 73 102 74 0.13339076986012532 0.07763791438923062 0.24100428649092975
3 74 156 73 0.13339076986012532 0.07763791438923062 0.24100428649092975
3 72 102 73 0.13339076986012532 0.07763791438923062 0.24100428649092975
3 20 84 21 0.13339076986012532 0.07763791438923062 0.24100428649092975
3 19 18 80 0.13339076986012532 0.07763791438923062 0.24100428649092975
3 60 120 29 0.13339076986012532 0.07763791438923062 0.24100428649092975
3 25 116 92 0.13339076986012532 0.07763791438923062 0.24100428649092975
3 92 116 117 0.13339076986012532 0.07763791438923062 0.24100428649092975
3 112 173 82 0.13339076986012532 0.07763791438923062 0.24100428649092975
3 81 80 18 0.13339076986012532 0.07763791438923062 0.24100428649092975
3 168 176 167 0.13339076986012532 0.07763791438923062 0.24100428649092975
3 181 176 182 0.13339076986012532 0.07763791438923062 0.24100428649092975
3 129 128 71 0.13339076986012532 0.07763791438923062 0.24100428649092975
3 104 128 129 0.13339076986012532 0.07763791438923062 0.24100428649092975
3 129 160 104 0.13339076986012532 0.07763791438923062 0.24100428649092975
3 43 128 103 0.13339076986012532 0.07763791438923062 0.24100428649092975
3 74 102 103 0.13339076986012532 0.07763791438923062 0.24100428649092975
3 102 43 103 0.13339076986012532 0.07763791438923062 0.24100428649092975
3 103 128 104 0.13339076986012532 0.07763791438923062 0.24100428649092975
3 144 145 69 0.13339076986012532 0.07763791438923062 0.24100428649092975
3 96 145 144 0.13339076986012532 0.07763791438923062 0.24100428649092975
3 69 68 144 0.13339076986012532 0.07763791438923062 0.24100428649092975
3 68 143 144 0.13339076986012532 0.07763791438923062 0.24100428649092975
3 34 96 144 0.13339076986012532 0.07763791438923062 0.24100428649092975
3 144 143 34 0.13339076986012532 0.07763791438923062 0.24100428649092975
3 136 162 191 0.13339076986012532 0.07763791438923062 0.24100428649092975
3 136 135 162 0.13339076986012532 0.07763791438923062 0.24100428649092975
3 48 133 49 0.13339076986012532 0.07763791438923062 0.24100428649092975
3 106 47 48 0.13339076986012532 0.07763791438923062 0.24100428649092975
3 13 12 131 0.13339076986012532 0.07763791438923062 0.24100428649092975
3 131 47 13 0.13339076986012532 0.07763791438923062 0.24100428649092975
3 105 47 106 0.13339076986012532 0.07763791438923062 0.24100428649092975
3 14 13 105 0.13339076986012532 0.07763791438923062 0.24100428649092975
3 13 47 105 0.13339076986012532 0.07763791438923062 0.24100428649092975
3 49 133 134 0.13339076986012532 0.07763791438923062 0.24100428649092975
3 134 135 49 0.13339076986012532 0.07763791438923062 0.24100428649092975
3 191 142 183 0.13339076986012532 0.07763791438923062 0.24100428649092975
3 183 142 124 0.13339076986012532 0.07763791438923062 0.24100428649092975
3 124 182 183 0.13339076986012532 0.07763791438923062 0.24100428649092975
3 183 182 176 0.13339076986012532 0.07763791438923062 0.24100428649092975
3 130 155 162 0.13339076986012532 0.07763791438923062 0.24100428649092975
3 160 129 130 0.13339076986012532 0.07763791438923062 0.24100428649092975
3 148 155 130 0.13339076986012532 0.07763791438923062 0.24100428649092975
3 130 129 148 0.13339076986012532 0.07763791438923062 0.24100428649092975
3 189 142 190 0.13339076986012532 0.07763791438923062 0.24100428649092975
3 190 155 189 0.13339076986012532 0.07763791438923062 0.24100428649092975
3 190 142 191 0.13339076986012532 0.07763791438923062 0.24100428649092975
3 191 162 190 0.13339076986012532 0.07763791438923062 0.24100428649092975
3 162 155 190 0.13339076986012532 0.07763791438923062 0.24100428649092975
3 181 182 123 0.13339076986012532 0.07763791438923062 0.24100428649092975
3 123 182 124 0.13339076986012532 0.07763791438923062 0.24100428649092975
3 66 187 186 0.13339076986012532 0.07763791438923062 0.24100428649092975
3 153 187 148 0.13339076986012532 0.07763791438923062 0.24100428649092975
3 148 129 153 0.13339076986012532 0.07763791438923062 0.24100428649092975
3 153 129 71 0.13339076986012532 0.07763791438923062 0.24100428649092975
3 188 189 148 0.13339076986012532 0.07763791438923062 0.24100428649092975
3 148 187 188 0.13339076986012532 0.07763791438923062 0.24100428649092975
3 122 63 121 0.13339076986012532 0.07763791438923062 0.24100428649092975
3 125 36 126 0.13339076986012532 0.07763791438923062 0.24100428649092975
3 36 37 126 0.13339076986012532 0.07763791438923062 0.24100428649092975
3 42 125 126 0.13339076986012532 0.07763791438923062 0.24100428649092975
3 126 37 127 0.13339076986012532 0.07763791438923062 0.24100428649092975
3 127 43 126 0.13339076986012532 0.07763791438923062 0.24100428649092975
3 126 43 42 0.13339076986012532 0.07763791438923062 0.24100428649092975
3 76 157 158 0.13339076986012532 0.07763791438923062 0.24100428649092975
3 158 157 74 0.13339076986012532 0.07763791438923062 0.24100428649092975
3 46 134 133 0.13339076986012532 0.07763791438923062 0.24100428649092975
3 72 73 9 0.13339076986012532 0.07763791438923062 0.24100428649092975
3 9 73 156 0.13339076986012532 0.07763791438923062 0.24100428649092975
3 9 156 10 0.13339076986012532 0.07763791438923062 0.24100428649092975
3 9 8 72 0.13339076986012532 0.07763791438923062 0.24100428649092975
3 170 20 19 0.13339076986012532 0.07763791438923062 0.24100428649092975
3 85 20 170 0.13339076986012532 0.07763791438923062 0.24100428649092975
3 84 20 23 0.13339076986012532 0.07763791438923062 0.24100428649092975
3 23 20 85 0.13339076986012532 0.07763791438923062 0.24100428649092975
3 21 84 23 0.13339076986012532 0.07763791438923062 0.24100428649092975
3 25 24 115 0.13339076986012532 0.07763791438923062 0.24100428649092975
3 115 24 89 0.13339076986012532 0.07763791438923062 0.24100428649092975
3 115 116 25 0.13339076986012532 0.07763791438923062 0.24100428649092975
3 115 89 116 0.13339076986012532 0.07763791438923062 0.24100428649092975
3 19 80 171 0.13339076986012532 0.07763791438923062 0.24100428649092975
3 171 170 19 0.13339076986012532 0.07763791438923062 0.24100428649092975
3 85 170 171 0.13339076986012532 0.07763791438923062 0.24100428649092975
3 86 89 171 0.13339076986012532 0.07763791438923062 0.24100428649092975
3 171 89 85 0.13339076986012532 0.07763791438923062 0.24100428649092975
3 174 119 95 0.13339076986012532 0.07763791438923062 0.24100428649092975
3 167 176 175 0.13339076986012532 0.07763791438923062 0.24100428649092975
3 175 176 181 0.13339076986012532 0.07763791438923062 0.24100428649092975
3 175 119 174 0.13339076986012532 0.07763791438923062 0.24100428649092975
3 181 123 61 0.13339076986012532 0.07763791438923062 0.24100428649092975
3 61 123 122 0.13339076986012532 0.07763791438923062 0.24100428649092975
3 122 121 61 0.13339076986012532 0.07763791438923062 0.24100428649092975
3 120 60 61 0.13339076986012532 0.07763791438923062 0.24100428649092975
3 61 121 120 0.13339076986012532 0.07763791438923062 0.24100428649092975
3 56 57 27 0.13339076986012532 0.07763791438923062 0.24100428649092975
3 173 112 83 0.13339076986012532 0.07763791438923062 0.24100428649092975
3 16 15 163 0.13339076986012532 0.07763791438923062 0.24100428649092975
3 17 16 53 0.13339076986012532 0.07763791438923062 0.24100428649092975
3 90 89 86 0.13339076986012532 0.07763791438923062 0.24100428649092975
3 116 89 90 0.13339076986012532 0.07763791438923062 0.24100428649092975
3 117 116 90 0.13339076986012532 0.07763791438923062 0.24100428649092975
3 110 18 17 0.13339076986012532 0.07763791438923062 0.24100428649092975
3 110 81 18 0.13339076986012532 0.07763791438923062 0.24100428649092975
3 82 81 110 0.13339076986012532 0.07763791438923062 0.24100428649092975
3 108 168 167 0.13339076986012532 0.07763791438923062 0.24100428649092975
3 167 52 108 0.13339076986012532 0.07763791438923062 0.24100428649092975
3 69 145 70 0.13339076986012532 0.07763791438923062 0.24100428649092975
3 70 39 69 0.13339076986012532 0.07763791438923062 0.24100428649092975
3 70 40 39 0.13339076986012532 0.07763791438923062 0.24100428649092975
3 71 40 70 0.13339076986012532 0.07763791438923062 0.24100428649092975
3 97 96 33 0.13339076986012532 0.07763791438923062 0.24100428649092975
3 97 145 96 0.13339076986012532 0.07763791438923062 0.24100428649092975
3 97 33 184 0.13339076986012532 0.07763791438923062 0.24100428649092975
3 169 136 191 0.13339076986012532 0.07763791438923062 0.24100428649092975
3 191 183 169 0.13339076986012532 0.07763791438923062 0.24100428649092975
3 176 168 169 0.13339076986012532 0.07763791438923062 0.24100428649092975
3 169 183 176 0.13339076986012532 0.07763791438923062 0.24100428649092975
3 47 131 132 0.13339076986012532 0.07763791438923062 0.24100428649092975
3 133 48 132 0.13339076986012532 0.07763791438923062 0.24100428649092975
3 132 48 47 0.13339076986012532 0.07763791438923062 0.24100428649092975
3 132 46 133 0.13339076986012532 0.07763791438923062 0.24100428649092975
3 131 46 132 0.13339076986012532 0.07763791438923062 0.24100428649092975
3 161 130 162 0.13339076986012532 0.07763791438923062 0.24100428649092975
3 160 130 161 0.13339076986012532 0.07763791438923062 0.24100428649092975
3 162 135 161 0.13339076986012532 0.07763791438923062 0.24100428649092975
3 135 134 161 0.13339076986012532 0.07763791438923062 0.24100428649092975
3 134 46 161 0.13339076986012532 0.07763791438923062 0.24100428649092975
3 64 63 122 0.13339076986012532 0.07763791438923062 0.24100428649092975
3 122 123 64 0.13339076986012532 0.07763791438923062 0.24100428649092975
3 64 124 141 0.13339076986012532 0.07763791438923062 0.24100428649092975
3 64 123 124 0.13339076986012532 0.07763791438923062 0.24100428649092975
3 66 186 65 0.13339076986012532 0.07763791438923062 0.24100428649092975
3 99 186 187 0.13339076986012532 0.07763791438923062 0.24100428649092975
3 187 153 99 0.13339076986012532 0.07763791438923062 0.24100428649092975
3 141 189 140 0.13339076986012532 0.07763791438923062 0.24100428649092975
3 189 188 140 0.13339076986012532 0.07763791438923062 0.24100428649092975
3 140 64 141 0.13339076986012532 0.07763791438923062 0.24100428649092975
3 63 138 62 0.13339076986012532 0.07763791438923062 0.24100428649092975
3 62 30 120 0.13339076986012532 0.07763791438923062 0.24100428649092975
3 120 121 62 0.13339076986012532 0.07763791438923062 0.24100428649092975
3 62 121 63 0.13339076986012532 0.07763791438923062 0.24100428649092975
3 67 188 187 0.13339076986012532 0.07763791438923062 0.24100428649092975
3 67 187 66 0.13339076986012532 0.07763791438923062 0.24100428649092975
3 104 160 159 0.13339076986012532 0.07763791438923062 0.24100428649092975
3 76 158 77 0.13339076986012532 0.07763791438923062 0.24100428649092975
3 44 11 77 0.13339076986012532 0.07763791438923062 0.24100428649092975
3 77 11 76 0.13339076986012532 0.07763791438923062 0.24100428649092975
3 77 78 44 0.13339076986012532 0.07763791438923062 0.24100428649092975
3 77 159 78 0.13339076986012532 0.07763791438923062 0.24100428649092975
3 158 159 77 0.13339076986012532 0.07763791438923062 0.24100428649092975
3 74 103 75 0.13339076986012532 0.07763791438923062 0.24100428649092975
3 75 158 74 0.13339076986012532 0.07763791438923062 0.24100428649092975
3 75 103 104 0.13339076986012532 0.07763791438923062 0.24100428649092975
3 104 159 75 0.13339076986012532 0.07763791438923062 0.24100428649092975
3 75 159 158 0.13339076986012532 0.07763791438923062 0.24100428649092975
3 79 159 160 0.13339076986012532 0.07763791438923062 0.24100428649092975
3 78 159 79 0.13339076986012532 0.07763791438923062 0.24100428649092975
3 160 161 79 0.13339076986012532 0.07763791438923062 0.24100428649092975
3 79 161 46 0.13339076986012532 0.07763791438923062 0.24100428649092975
3 44 78 45 0.13339076986012532 0.07763791438923062 0.24100428649092975
3 45 46 131 0.13339076986012532 0.07763791438923062 0.24100428649092975
3 78 79 45 0.13339076986012532 0.07763791438923062 0.24100428649092975
3 45 79 46 0.13339076986012532 0.07763791438923062 0.24100428649092975
3 45 12 44 0.13339076986012532 0.07763791438923062 0.24100428649092975
3 45 131 12 0.13339076986012532 0.07763791438923062 0.24100428649092975
3 88 23 85 0.13339076986012532 0.07763791438923062 0.24100428649092975
3 24 23 88 0.13339076986012532 0.07763791438923062 0.24100428649092975
3 85 89 88 0.13339076986012532 0.07763791438923062 0.24100428649092975
3 89 24 88 0.13339076986012532 0.07763791438923062 0.24100428649092975
3 50 15 14 0.13339076986012532 0.07763791438923062 0.24100428649092975
3 166 52 167 0.13339076986012532 0.07763791438923062 0.24100428649092975
3 58 95 179 0.13339076986012532 0.07763791438923062 0.24100428649092975
3 179 95 119 0.13339076986012532 0.07763791438923062 0.24100428649092975
3 93 92 117 0.13339076986012532 0.07763791438923062 0.24100428649092975
3 164 55 163 0.13339076986012532 0.07763791438923062 0.24100428649092975
3 165 55 164 0.13339076986012532 0.07763791438923062 0.24100428649092975
3 164 50 165 0.13339076986012532 0.07763791438923062 0.24100428649092975
3 163 15 164 0.13339076986012532 0.07763791438923062 0.24100428649092975
3 15 50 164 0.13339076986012532 0.07763791438923062 0.24100428649092975
3 112 55 113 0.13339076986012532 0.07763791438923062 0.24100428649092975
3 113 83 112 0.13339076986012532 0.07763791438923062 0.24100428649092975
3 174 83 113 0.13339076986012532 0.07763791438923062 0.24100428649092975
3 113 175 174 0.13339076986012532 0.07763791438923062 0.24100428649092975
3 111 112 82 0.13339076986012532 0.07763791438923062 0.24100428649092975
3 111 53 112 0.13339076986012532 0.07763791438923062 0.24100428649092975
3 17 53 111 0.13339076986012532 0.07763791438923062 0.24100428649092975
3 111 110 17 0.13339076986012532 0.07763791438923062 0.24100428649092975
3 82 110 111 0.13339076986012532 0.07763791438923062 0.24100428649092975
3 54 16 163 0.13339076986012532 0.07763791438923062 0.24100428649092975
3 54 53 16 0.13339076986012532 0.07763791438923062 0.24100428649092975
3 112 53 54 0.13339076986012532 0.07763791438923062 0.24100428649092975
3 163 55 54 0.13339076986012532 0.07763791438923062 0.24100428649092975
3 54 55 112 0.13339076986012532 0.07763791438923062 0.24100428649092975
3 174 95 118 0.13339076986012532 0.07763791438923062 0.24100428649092975
3 118 83 174 0.13339076986012532 0.07763791438923062 0.24100428649092975
3 173 83 118 0.13339076986012532 0.07763791438923062 0.24100428649092975
3 118 91 173 0.13339076986012532 0.07763791438923062 0.24100428649092975
3 172 90 86 0.13339076986012532 0.07763791438923062 0.24100428649092975
3 86 171 172 0.13339076986012532 0.07763791438923062 0.24100428649092975
3 172 81 82 0.13339076986012532 0.07763791438923062 0.24100428649092975
3 80 81 172 0.13339076986012532 0.07763791438923062 0.24100428649092975
3 172 171 80 0.13339076986012532 0.07763791438923062 0.24100428649092975
3 107 52 106 0.13339076986012532 0.07763791438923062 0.24100428649092975
3 107 108 52 0.13339076986012532 0.07763791438923062 0.24100428649092975
3 49 108 107 0.13339076986012532 0.07763791438923062 0.24100428649092975
3 107 48 49 0.13339076986012532 0.07763791438923062 0.24100428649092975
3 106 48 107 0.13339076986012532 0.07763791438923062 0.24100428649092975
3 136 169 109 0.13339076986012532 0.07763791438923062 0.24100428649092975
3 135 136 109 0.13339076986012532 0.07763791438923062 0.24100428649092975
3 168 108 109 0.13339076986012532 0.07763791438923062 0.24100428649092975
3 109 169 168 0.13339076986012532 0.07763791438923062 0.24100428649092975
3 49 135 109 0.13339076986012532 0.07763791438923062 0.24100428649092975
3 109 108 49 0.13339076986012532 0.07763791438923062 0.24100428649092975
3 31 65 32 0.13339076986012532 0.07763791438923062 0.24100428649092975
3 66 65 31 0.13339076986012532 0.07763791438923062 0.24100428649092975
3 186 99 185 0.13339076986012532 0.07763791438923062 0.24100428649092975
3 184 32 185 0.13339076986012532 0.07763791438923062 0.24100428649092975
3 32 65 185 0.13339076986012532 0.07763791438923062 0.24100428649092975
3 185 65 186 0.13339076986012532 0.07763791438923062 0.24100428649092975
3 145 97 146 0.13339076986012532 0.07763791438923062 0.24100428649092975
3 146 153 71 0.13339076986012532 0.07763791438923062 0.24100428649092975
3 146 99 153 0.13339076986012532 0.07763791438923062 0.24100428649092975
3 71 70 146 0.13339076986012532 0.07763791438923062 0.24100428649092975
3 146 70 145 0.13339076986012532 0.07763791438923062 0.24100428649092975
3 139 67 138 0.13339076986012532 0.07763791438923062 0.24100428649092975
3 139 138 63 0.13339076986012532 0.07763791438923062 0.24100428649092975
3 139 140 188 0.13339076986012532 0.07763791438923062 0.24100428649092975
3 188 67 139 0.13339076986012532 0.07763791438923062 0.24100428649092975
3 63 64 139 0.13339076986012532 0.07763791438923062 0.24100428649092975
3 64 140 139 0.13339076986012532 0.07763791438923062 0.24100428649092975
3 165 50 51 0.13339076986012532 0.07763791438923062 0.24100428649092975
3 51 166 165 0.13339076986012532 0.07763791438923062 0.24100428649092975
3 52 166 51 0.13339076986012532 0.07763791438923062 0.24100428649092975
3 51 105 106 0.13339076986012532 0.07763791438923062 0.24100428649092975
3 106 52 51 0.13339076986012532 0.07763791438923062 0.24100428649092975
3 14 105 51 0.13339076986012532 0.07763791438923062 0.24100428649092975
3 51 50 14 0.13339076986012532 0.07763791438923062 0.24100428649092975
3 165 166 114 0.13339076986012532 0.07763791438923062 0.24100428649092975
3 175 113 114 0.13339076986012532 0.07763791438923062 0.24100428649092975
3 167 175 114 0.13339076986012532 0.07763791438923062 0.24100428649092975
3 114 166 167 0.13339076986012532 0.07763791438923062 0.24100428649092975
3 114 55 165 0.13339076986012532 0.07763791438923062 0.24100428649092975
3 114 113 55 0.13339076986012532 0.07763791438923062 0.24100428649092975
3 180 61 60 0.13339076986012532 0.07763791438923062 0.24100428649092975
3 60 179 180 0.13339076986012532 0.07763791438923062 0.24100428649092975
3 181 61 180 0.13339076986012532 0.07763791438923062 0.24100428649092975
3 180 179 119 0.13339076986012532 0.07763791438923062 0.24100428649092975
3 180 175 181 0.13339076986012532 0.07763791438923062 0.24100428649092975
3 119 175 180 0.13339076986012532 0.07763791438923062 0.24100428649092975
3 177 28 27 0.13339076986012532 0.07763791438923062 0.24100428649092975
3 27 57 177 0.13339076986012532 0.07763791438923062 0.24100428649092975
3 177 57 58 0.13339076986012532 0.07763791438923062 0.24100428649092975
3 59 179 60 0.13339076986012532 0.07763791438923062 0.24100428649092975
3 59 60 29 0.13339076986012532 0.07763791438923062 0.24100428649092975
3 29 28 59 0.13339076986012532 0.07763791438923062 0.24100428649092975
3 92 93 26 0.13339076986012532 0.07763791438923062 0.24100428649092975
3 26 93 56 0.13339076986012532 0.07763791438923062 0.24100428649092975
3 25 92 26 0.13339076986012532 0.07763791438923062 0.24100428649092975
3 26 56 27 0.13339076986012532 0.07763791438923062 0.24100428649092975
3 58 57 94 0.13339076986012532 0.07763791438923062 0.24100428649092975
3 94 95 58 0.13339076986012532 0.07763791438923062 0.24100428649092975
3 94 118 95 0.13339076986012532 0.07763791438923062 0.24100428649092975
3 57 56 94 0.13339076986012532 0.07763791438923062 0.24100428649092975
3 56 93 94 0.13339076986012532 0.07763791438923062 0.24100428649092975
3 94 93 117 0.13339076986012532 0.07763791438923062 0.24100428649092975
3 117 91 94 0.13339076986012532 0.07763791438923062 0.24100428649092975
3 91 118 94 0.13339076986012532 0.07763791438923062 0.24100428649092975
3 82 173 87 0.13339076986012532 0.07763791438923062 0.24100428649092975
3 87 172 82 0.13339076986012532 0.07763791438923062 0.24100428649092975
3 173 91 87 0.13339076986012532 0.07763791438923062 0.24100428649092975
3 90 172 87 0.13339076986012532 0.07763791438923062 0.24100428649092975
3 87 91 117 0.13339076986012532 0.07763791438923062 0.24100428649092975
3 117 90 87 0.13339076986012532 0.07763791438923062 0.24100428649092975
3 137 31 30 0.13339076986012532 0.07763791438923062 0.24100428649092975
3 30 62 137 0.13339076986012532 0.07763791438923062 0.24100428649092975
3 137 62 138 0.13339076986012532 0.07763791438923062 0.24100428649092975
3 66 31 137 0.13339076986012532 0.07763791438923062 0.24100428649092975
3 137 67 66 0.13339076986012532 0.07763791438923062 0.24100428649092975
3 138 67 137 0.13339076986012532 0.07763791438923062 0.24100428649092975
3 98 97 184 0.13339076986012532 0.07763791438923062 0.24100428649092975
3 98 146 97 0.13339076986012532 0.07763791438923062 0.24100428649092975
3 184 185 98 0.13339076986012532 0.07763791438923062 0.24100428649092975
3 98 185 99 0.13339076986012532 0.07763791438923062 0.24100428649092975
3 99 146 98 0.13339076986012532 0.07763791438923062 0.24100428649092975
3 179 59 178 0.13339076986012532 0.07763791438923062 0.24100428649092975
3 58 179 178 0.13339076986012532 0.07763791438923062 0.24100428649092975
3 178 177 58 0.13339076986012532 0.07763791438923062 0.24100428649092975
3 28 177 178 0.13339076986012532 0.07763791438923062 0.24100428649092975
3 178 59 28 0.13339076986012532 0.07763791438923062 0.24100428649092975
