OFF
22 14 0


28.3646 35.2584 9.1585
28.3646 35.2584 9.1585
28.4971 35.283 9.182
28.5869 35.3 9.1939
28.6628 35.3145 9.2015
28.7389 35.3291 9.2069
28.8293 35.3468 9.2104
28.6979 35.3085 9.3898
28.8256 35.3374 9.3369
28.9537 35.3663 9.2849
28.9537 35.3663 9.2849
28.9537 35.3663 9.2849
28.9585 35.3698 9.2474
28.6979 35.3085 9.3898
28.6979 35.3085 9.3898
28.6334 35.2981 9.3556
28.569 35.2877 9.3214
28.5045 35.2773 9.2873
28.44 35.2669 9.2531
28.3755 35.2564 9.2189
28.3701 35.2574 9.1887
28.3646 35.2584 9.1585
3 12 6 10 0.7967107001381324 0.48772558497375607 0.689085928203399
3 5 15 7 0.7967107001381324 0.48772558497375607 0.689085928203399
3 4 15 5 0.7967107001381324 0.48772558497375607 0.689085928203399
3 2 18 17 0.7967107001381324 0.48772558497375607 0.689085928203399
3 16 15 4 0.7967107001381324 0.48772558497375607 0.689085928203399
3 8 5 7 0.7967107001381324 0.48772558497375607 0.689085928203399
3 6 5 8 0.7967107001381324 0.48772558497375607 0.689085928203399
3 8 10 6 0.7967107001381324 0.48772558497375607 0.689085928203399
3 20 19 18 0.7967107001381324 0.48772558497375607 0.689085928203399
3 18 2 20 0.7967107001381324 0.48772558497375607 0.689085928203399
3 20 2 0 0.7967107001381324 0.48772558497375607 0.689085928203399
3 3 2 17 0.7967107001381324 0.48772558497375607 0.689085928203399
3 17 16 3 0.7967107001381324 0.48772558497375607 0.689085928203399
3 3 16 4 0.7967107001381324 0.48772558497375607 0.689085928203399
