OFF
151 254 0


28.6433 36.8505 3.4978
28.6433 36.8505 3.4978
28.7333 36.9271 3.4196
28.8085 36.9921 3.3526
28.8736 37.0493 3.2933
28.9319 37.101 3.2392
28.9859 37.1494 3.1883
29.0372 37.1958 3.1392
29.0875 37.2417 3.0905
29.1381 37.2882 3.0408
29.1904 37.3368 2.9887
29.2461 37.3889 2.9326
29.3073 37.4466 2.8702
29.3767 37.5128 2.7983
29.4585 37.5915 2.7122
29.4585 37.5915 2.7122
29.4431 37.5223 2.8376
29.4303 37.4657 2.9402
29.4193 37.417 3.0283
29.4094 37.3734 3.1075
29.4001 37.3327 3.1813
29.391 37.2934 3.2526
29.3819 37.2541 3.3239
29.3725 37.2135 3.3977
29.3622 37.1699 3.4769
29.3508 37.1214 3.5652
29.3373 37.065 3.6678
29.3207 36.9962 3.7931
29.1904 36.965 3.7412
29.0963 36.9434 3.7022
29.0174 36.9259 3.6686
28.9429 36.9099 3.6361
28.8643 36.8936 3.601
28.7711 36.8749 3.5582
28.6433 36.8505 3.4978
28.9675 37.1137 3.2445
29.0031 37.1263 3.25
29.0556 37.1926 3.1617
29.0739 37.1894 3.1841
29.1393 37.2689 3.0809
29.1406 37.2499 3.1203
29.2283 37.3513 2.9927
29.2109 37.3146 3.0513
29.3712 37.3748 3.071
29.3241 37.3335 3.1128
29.3565 37.306 3.1967
29.3134 37.2796 3.2119
29.3425 37.2412 3.3152
29.3031 37.2283 3.3064
29.3271 37.171 3.4436
29.2916 37.1722 3.41
29.0372 36.9646 3.6072
29.0575 37.0045 3.5441
28.9082 36.9377 3.5494
28.9532 36.983 3.4967
28.8634 37.0222 3.3393
28.9188 37.0525 3.3259
28.9747 37.0832 3.3124
29.3346 37.4514 2.8844
29.294 37.3925 2.9674
29.2549 37.3356 3.0475
29.389 37.4595 2.9162
29.3369 37.3989 2.9922
29.2866 37.3405 3.0656
29.3074 37.0825 3.6057
29.2766 37.1004 3.5422
29.2451 37.1187 3.4772
29.1039 36.9793 3.6359
29.1117 37.0163 3.5676
29.1197 37.0544 3.4972
28.723 36.9022 3.4614
28.8042 36.9548 3.4245
28.8869 37.0085 3.3872
28.7997 36.9673 3.3955
28.8669 37.0079 3.3712
28.935 37.0492 3.3467
29.0041 37.0911 3.322
29.0128 37.154 3.2023
29.0395 37.1586 3.2163
29.0661 37.1632 3.2303
29.0927 37.1677 3.2442
29.1825 37.3087 3.0384
29.1748 37.2812 3.087
29.1672 37.2543 3.1346
29.1598 37.228 3.1813
29.4005 37.5145 2.8158
29.345 37.4409 2.9147
29.292 37.3706 3.0096
29.2411 37.3033 3.1005
29.3795 37.4141 2.9992
29.3301 37.364 3.0566
29.2821 37.3152 3.1125
29.2353 37.2679 3.167
29.3637 37.3393 3.1359
29.3186 37.3058 3.1638
29.2743 37.2728 3.1914
29.2307 37.2403 3.2186
29.3351 37.2075 3.377
29.2976 37.2014 3.3561
29.2599 37.1953 3.3352
29.2219 37.1892 3.3142
29.294 37.0237 3.7133
29.2664 37.0522 3.631
29.2378 37.0816 3.5459
29.2081 37.1122 3.4578
28.9743 36.9513 3.5794
29.0066 36.9938 3.5213
29.0398 37.0375 3.4615
29.074 37.0826 3.4001
28.9184 37.0703 3.2897
28.9634 37.0914 3.286
29.0086 37.1126 3.2824
29.054 37.1339 3.2789
29.0996 37.1553 3.2754
29.0974 37.2306 3.1216
29.1073 37.2196 3.1524
29.117 37.2087 3.1828
29.1266 37.1979 3.2129
29.136 37.1873 3.2426
29.2782 37.3981 2.9422
29.25 37.3511 3.0121
29.2227 37.3056 3.0799
29.1962 37.2614 3.1458
29.1704 37.2185 3.2097
29.3496 37.2737 3.2558
29.3083 37.2541 3.2589
29.2673 37.2346 3.2622
29.2265 37.2153 3.2654
29.1858 37.196 3.2687
29.3181 37.1302 3.5183
29.2848 37.1392 3.4707
29.2509 37.1483 3.4223
29.2164 37.1577 3.373
29.1812 37.1671 3.3229
29.1836 36.9974 3.6692
29.1765 37.0309 3.5949
29.1691 37.0655 3.5181
29.1615 37.1013 3.4388
29.1536 37.1384 3.3568
28.8299 36.9223 3.5129
28.8901 36.9707 3.4668
28.9516 37.0203 3.4196
29.0146 37.0711 3.3715
29.0791 37.1233 3.3223
28.723 36.9022 3.4614
28.8042 36.9548 3.4245
28.8869 37.0085 3.3872
28.9712 37.0634 3.3494
29.0573 37.1194 3.311
29.1454 37.1768 3.272
29.1454 37.1768 3.272
3 31 30 105 0.18493564666849827 0.2724221019362303 0.11070269389610621
3 29 67 30 0.18493564666849827 0.2724221019362303 0.11070269389610621
3 20 45 21 0.18493564666849827 0.2724221019362303 0.11070269389610621
3 93 45 20 0.18493564666849827 0.2724221019362303 0.11070269389610621
3 21 45 124 0.18493564666849827 0.2724221019362303 0.11070269389610621
3 135 102 103 0.18493564666849827 0.2724221019362303 0.11070269389610621
3 141 140 54 0.18493564666849827 0.2724221019362303 0.11070269389610621
3 27 26 101 0.18493564666849827 0.2724221019362303 0.11070269389610621
3 26 102 101 0.18493564666849827 0.2724221019362303 0.11070269389610621
3 12 58 13 0.18493564666849827 0.2724221019362303 0.11070269389610621
3 11 119 12 0.18493564666849827 0.2724221019362303 0.11070269389610621
3 12 86 58 0.18493564666849827 0.2724221019362303 0.11070269389610621
3 119 86 12 0.18493564666849827 0.2724221019362303 0.11070269389610621
3 122 83 84 0.18493564666849827 0.2724221019362303 0.11070269389610621
3 122 96 92 0.18493564666849827 0.2724221019362303 0.11070269389610621
3 84 96 122 0.18493564666849827 0.2724221019362303 0.11070269389610621
3 8 114 40 0.18493564666849827 0.2724221019362303 0.11070269389610621
3 84 83 40 0.18493564666849827 0.2724221019362303 0.11070269389610621
3 46 124 45 0.18493564666849827 0.2724221019362303 0.11070269389610621
3 71 2 70 0.18493564666849827 0.2724221019362303 0.11070269389610621
3 70 2 0 0.18493564666849827 0.2724221019362303 0.11070269389610621
3 0 33 70 0.18493564666849827 0.2724221019362303 0.11070269389610621
3 139 33 32 0.18493564666849827 0.2724221019362303 0.11070269389610621
3 139 140 71 0.18493564666849827 0.2724221019362303 0.11070269389610621
3 71 70 139 0.18493564666849827 0.2724221019362303 0.11070269389610621
3 139 70 33 0.18493564666849827 0.2724221019362303 0.11070269389610621
3 50 99 132 0.18493564666849827 0.2724221019362303 0.11070269389610621
3 138 108 137 0.18493564666849827 0.2724221019362303 0.11070269389610621
3 137 108 69 0.18493564666849827 0.2724221019362303 0.11070269389610621
3 137 132 138 0.18493564666849827 0.2724221019362303 0.11070269389610621
3 147 75 141 0.18493564666849827 0.2724221019362303 0.11070269389610621
3 4 3 55 0.18493564666849827 0.2724221019362303 0.11070269389610621
3 55 3 74 0.18493564666849827 0.2724221019362303 0.11070269389610621
3 141 75 146 0.18493564666849827 0.2724221019362303 0.11070269389610621
3 146 140 141 0.18493564666849827 0.2724221019362303 0.11070269389610621
3 146 55 74 0.18493564666849827 0.2724221019362303 0.11070269389610621
3 75 55 146 0.18493564666849827 0.2724221019362303 0.11070269389610621
3 71 140 146 0.18493564666849827 0.2724221019362303 0.11070269389610621
3 146 74 71 0.18493564666849827 0.2724221019362303 0.11070269389610621
3 109 5 4 0.18493564666849827 0.2724221019362303 0.11070269389610621
3 71 74 73 0.18493564666849827 0.2724221019362303 0.11070269389610621
3 74 3 73 0.18493564666849827 0.2724221019362303 0.11070269389610621
3 73 2 71 0.18493564666849827 0.2724221019362303 0.11070269389610621
3 73 3 2 0.18493564666849827 0.2724221019362303 0.11070269389610621
3 123 96 84 0.18493564666849827 0.2724221019362303 0.11070269389610621
3 84 117 123 0.18493564666849827 0.2724221019362303 0.11070269389610621
3 123 117 118 0.18493564666849827 0.2724221019362303 0.11070269389610621
3 126 99 48 0.18493564666849827 0.2724221019362303 0.11070269389610621
3 136 135 103 0.18493564666849827 0.2724221019362303 0.11070269389610621
3 136 137 69 0.18493564666849827 0.2724221019362303 0.11070269389610621
3 105 30 51 0.18493564666849827 0.2724221019362303 0.11070269389610621
3 30 67 51 0.18493564666849827 0.2724221019362303 0.11070269389610621
3 106 54 105 0.18493564666849827 0.2724221019362303 0.11070269389610621
3 105 51 106 0.18493564666849827 0.2724221019362303 0.11070269389610621
3 106 51 52 0.18493564666849827 0.2724221019362303 0.11070269389610621
3 69 52 68 0.18493564666849827 0.2724221019362303 0.11070269389610621
3 68 136 69 0.18493564666849827 0.2724221019362303 0.11070269389610621
3 135 136 68 0.18493564666849827 0.2724221019362303 0.11070269389610621
3 67 135 68 0.18493564666849827 0.2724221019362303 0.11070269389610621
3 68 51 67 0.18493564666849827 0.2724221019362303 0.11070269389610621
3 52 51 68 0.18493564666849827 0.2724221019362303 0.11070269389610621
3 102 135 134 0.18493564666849827 0.2724221019362303 0.11070269389610621
3 134 101 102 0.18493564666849827 0.2724221019362303 0.11070269389610621
3 134 135 67 0.18493564666849827 0.2724221019362303 0.11070269389610621
3 67 29 134 0.18493564666849827 0.2724221019362303 0.11070269389610621
3 89 18 17 0.18493564666849827 0.2724221019362303 0.11070269389610621
3 89 86 62 0.18493564666849827 0.2724221019362303 0.11070269389610621
3 18 89 43 0.18493564666849827 0.2724221019362303 0.11070269389610621
3 62 90 43 0.18493564666849827 0.2724221019362303 0.11070269389610621
3 43 89 62 0.18493564666849827 0.2724221019362303 0.11070269389610621
3 87 120 60 0.18493564666849827 0.2724221019362303 0.11070269389610621
3 87 90 62 0.18493564666849827 0.2724221019362303 0.11070269389610621
3 93 43 44 0.18493564666849827 0.2724221019362303 0.11070269389610621
3 44 43 90 0.18493564666849827 0.2724221019362303 0.11070269389610621
3 63 87 60 0.18493564666849827 0.2724221019362303 0.11070269389610621
3 90 87 63 0.18493564666849827 0.2724221019362303 0.11070269389610621
3 63 44 90 0.18493564666849827 0.2724221019362303 0.11070269389610621
3 91 44 63 0.18493564666849827 0.2724221019362303 0.11070269389610621
3 14 13 85 0.18493564666849827 0.2724221019362303 0.11070269389610621
3 85 16 14 0.18493564666849827 0.2724221019362303 0.11070269389610621
3 13 58 85 0.18493564666849827 0.2724221019362303 0.11070269389610621
3 58 86 61 0.18493564666849827 0.2724221019362303 0.11070269389610621
3 61 85 58 0.18493564666849827 0.2724221019362303 0.11070269389610621
3 61 89 17 0.18493564666849827 0.2724221019362303 0.11070269389610621
3 86 89 61 0.18493564666849827 0.2724221019362303 0.11070269389610621
3 17 16 61 0.18493564666849827 0.2724221019362303 0.11070269389610621
3 16 85 61 0.18493564666849827 0.2724221019362303 0.11070269389610621
3 84 40 115 0.18493564666849827 0.2724221019362303 0.11070269389610621
3 115 40 114 0.18493564666849827 0.2724221019362303 0.11070269389610621
3 7 114 8 0.18493564666849827 0.2724221019362303 0.11070269389610621
3 92 91 88 0.18493564666849827 0.2724221019362303 0.11070269389610621
3 88 122 92 0.18493564666849827 0.2724221019362303 0.11070269389610621
3 88 63 60 0.18493564666849827 0.2724221019362303 0.11070269389610621
3 91 63 88 0.18493564666849827 0.2724221019362303 0.11070269389610621
3 118 117 80 0.18493564666849827 0.2724221019362303 0.11070269389610621
3 80 117 38 0.18493564666849827 0.2724221019362303 0.11070269389610621
3 143 108 138 0.18493564666849827 0.2724221019362303 0.11070269389610621
3 92 96 95 0.18493564666849827 0.2724221019362303 0.11070269389610621
3 95 91 92 0.18493564666849827 0.2724221019362303 0.11070269389610621
3 95 96 126 0.18493564666849827 0.2724221019362303 0.11070269389610621
3 53 139 32 0.18493564666849827 0.2724221019362303 0.11070269389610621
3 53 31 105 0.18493564666849827 0.2724221019362303 0.11070269389610621
3 32 31 53 0.18493564666849827 0.2724221019362303 0.11070269389610621
3 105 54 53 0.18493564666849827 0.2724221019362303 0.11070269389610621
3 53 54 140 0.18493564666849827 0.2724221019362303 0.11070269389610621
3 140 139 53 0.18493564666849827 0.2724221019362303 0.11070269389610621
3 149 138 133 0.18493564666849827 0.2724221019362303 0.11070269389610621
3 138 132 133 0.18493564666849827 0.2724221019362303 0.11070269389610621
3 132 137 104 0.18493564666849827 0.2724221019362303 0.11070269389610621
3 137 136 104 0.18493564666849827 0.2724221019362303 0.11070269389610621
3 103 66 104 0.18493564666849827 0.2724221019362303 0.11070269389610621
3 104 136 103 0.18493564666849827 0.2724221019362303 0.11070269389610621
3 76 147 142 0.18493564666849827 0.2724221019362303 0.11070269389610621
3 108 143 142 0.18493564666849827 0.2724221019362303 0.11070269389610621
3 142 147 141 0.18493564666849827 0.2724221019362303 0.11070269389610621
3 4 55 56 0.18493564666849827 0.2724221019362303 0.11070269389610621
3 56 55 75 0.18493564666849827 0.2724221019362303 0.11070269389610621
3 56 109 4 0.18493564666849827 0.2724221019362303 0.11070269389610621
3 128 118 149 0.18493564666849827 0.2724221019362303 0.11070269389610621
3 128 123 118 0.18493564666849827 0.2724221019362303 0.11070269389610621
3 149 133 128 0.18493564666849827 0.2724221019362303 0.11070269389610621
3 98 99 50 0.18493564666849827 0.2724221019362303 0.11070269389610621
3 98 48 99 0.18493564666849827 0.2724221019362303 0.11070269389610621
3 21 124 22 0.18493564666849827 0.2724221019362303 0.11070269389610621
3 126 48 125 0.18493564666849827 0.2724221019362303 0.11070269389610621
3 124 46 125 0.18493564666849827 0.2724221019362303 0.11070269389610621
3 125 95 126 0.18493564666849827 0.2724221019362303 0.11070269389610621
3 46 95 125 0.18493564666849827 0.2724221019362303 0.11070269389610621
3 141 54 107 0.18493564666849827 0.2724221019362303 0.11070269389610621
3 54 106 107 0.18493564666849827 0.2724221019362303 0.11070269389610621
3 107 142 141 0.18493564666849827 0.2724221019362303 0.11070269389610621
3 108 142 107 0.18493564666849827 0.2724221019362303 0.11070269389610621
3 69 108 107 0.18493564666849827 0.2724221019362303 0.11070269389610621
3 107 52 69 0.18493564666849827 0.2724221019362303 0.11070269389610621
3 107 106 52 0.18493564666849827 0.2724221019362303 0.11070269389610621
3 27 101 28 0.18493564666849827 0.2724221019362303 0.11070269389610621
3 101 134 28 0.18493564666849827 0.2724221019362303 0.11070269389610621
3 28 134 29 0.18493564666849827 0.2724221019362303 0.11070269389610621
3 59 41 120 0.18493564666849827 0.2724221019362303 0.11070269389610621
3 120 87 59 0.18493564666849827 0.2724221019362303 0.11070269389610621
3 59 119 11 0.18493564666849827 0.2724221019362303 0.11070269389610621
3 11 41 59 0.18493564666849827 0.2724221019362303 0.11070269389610621
3 59 87 62 0.18493564666849827 0.2724221019362303 0.11070269389610621
3 62 86 59 0.18493564666849827 0.2724221019362303 0.11070269389610621
3 59 86 119 0.18493564666849827 0.2724221019362303 0.11070269389610621
3 93 20 19 0.18493564666849827 0.2724221019362303 0.11070269389610621
3 19 43 93 0.18493564666849827 0.2724221019362303 0.11070269389610621
3 18 43 19 0.18493564666849827 0.2724221019362303 0.11070269389610621
3 94 44 91 0.18493564666849827 0.2724221019362303 0.11070269389610621
3 91 95 94 0.18493564666849827 0.2724221019362303 0.11070269389610621
3 94 95 46 0.18493564666849827 0.2724221019362303 0.11070269389610621
3 94 46 45 0.18493564666849827 0.2724221019362303 0.11070269389610621
3 94 45 93 0.18493564666849827 0.2724221019362303 0.11070269389610621
3 93 44 94 0.18493564666849827 0.2724221019362303 0.11070269389610621
3 38 117 116 0.18493564666849827 0.2724221019362303 0.11070269389610621
3 116 115 38 0.18493564666849827 0.2724221019362303 0.11070269389610621
3 116 117 84 0.18493564666849827 0.2724221019362303 0.11070269389610621
3 84 115 116 0.18493564666849827 0.2724221019362303 0.11070269389610621
3 38 115 37 0.18493564666849827 0.2724221019362303 0.11070269389610621
3 37 115 114 0.18493564666849827 0.2724221019362303 0.11070269389610621
3 114 7 37 0.18493564666849827 0.2724221019362303 0.11070269389610621
3 121 88 60 0.18493564666849827 0.2724221019362303 0.11070269389610621
3 149 118 113 0.18493564666849827 0.2724221019362303 0.11070269389610621
3 118 80 113 0.18493564666849827 0.2724221019362303 0.11070269389610621
3 113 138 149 0.18493564666849827 0.2724221019362303 0.11070269389610621
3 113 143 138 0.18493564666849827 0.2724221019362303 0.11070269389610621
3 113 80 112 0.18493564666849827 0.2724221019362303 0.11070269389610621
3 112 143 113 0.18493564666849827 0.2724221019362303 0.11070269389610621
3 148 143 112 0.18493564666849827 0.2724221019362303 0.11070269389610621
3 76 142 148 0.18493564666849827 0.2724221019362303 0.11070269389610621
3 148 142 143 0.18493564666849827 0.2724221019362303 0.11070269389610621
3 6 5 35 0.18493564666849827 0.2724221019362303 0.11070269389610621
3 35 36 6 0.18493564666849827 0.2724221019362303 0.11070269389610621
3 112 36 111 0.18493564666849827 0.2724221019362303 0.11070269389610621
3 76 148 111 0.18493564666849827 0.2724221019362303 0.11070269389610621
3 111 148 112 0.18493564666849827 0.2724221019362303 0.11070269389610621
3 36 35 111 0.18493564666849827 0.2724221019362303 0.11070269389610621
3 6 36 77 0.18493564666849827 0.2724221019362303 0.11070269389610621
3 77 7 6 0.18493564666849827 0.2724221019362303 0.11070269389610621
3 77 37 7 0.18493564666849827 0.2724221019362303 0.11070269389610621
3 100 132 99 0.18493564666849827 0.2724221019362303 0.11070269389610621
3 100 133 132 0.18493564666849827 0.2724221019362303 0.11070269389610621
3 100 128 133 0.18493564666849827 0.2724221019362303 0.11070269389610621
3 50 130 49 0.18493564666849827 0.2724221019362303 0.11070269389610621
3 49 130 24 0.18493564666849827 0.2724221019362303 0.11070269389610621
3 49 24 23 0.18493564666849827 0.2724221019362303 0.11070269389610621
3 50 132 131 0.18493564666849827 0.2724221019362303 0.11070269389610621
3 132 104 131 0.18493564666849827 0.2724221019362303 0.11070269389610621
3 131 104 66 0.18493564666849827 0.2724221019362303 0.11070269389610621
3 131 130 50 0.18493564666849827 0.2724221019362303 0.11070269389610621
3 66 130 131 0.18493564666849827 0.2724221019362303 0.11070269389610621
3 109 56 57 0.18493564666849827 0.2724221019362303 0.11070269389610621
3 57 147 76 0.18493564666849827 0.2724221019362303 0.11070269389610621
3 75 147 57 0.18493564666849827 0.2724221019362303 0.11070269389610621
3 57 56 75 0.18493564666849827 0.2724221019362303 0.11070269389610621
3 76 111 57 0.18493564666849827 0.2724221019362303 0.11070269389610621
3 96 123 127 0.18493564666849827 0.2724221019362303 0.11070269389610621
3 123 128 127 0.18493564666849827 0.2724221019362303 0.11070269389610621
3 126 96 127 0.18493564666849827 0.2724221019362303 0.11070269389610621
3 128 100 127 0.18493564666849827 0.2724221019362303 0.11070269389610621
3 127 99 126 0.18493564666849827 0.2724221019362303 0.11070269389610621
3 127 100 99 0.18493564666849827 0.2724221019362303 0.11070269389610621
3 47 22 124 0.18493564666849827 0.2724221019362303 0.11070269389610621
3 124 125 47 0.18493564666849827 0.2724221019362303 0.11070269389610621
3 47 125 48 0.18493564666849827 0.2724221019362303 0.11070269389610621
3 48 98 47 0.18493564666849827 0.2724221019362303 0.11070269389610621
3 83 122 82 0.18493564666849827 0.2724221019362303 0.11070269389610621
3 82 40 83 0.18493564666849827 0.2724221019362303 0.11070269389610621
3 122 88 82 0.18493564666849827 0.2724221019362303 0.11070269389610621
3 88 121 82 0.18493564666849827 0.2724221019362303 0.11070269389610621
3 38 37 78 0.18493564666849827 0.2724221019362303 0.11070269389610621
3 37 77 78 0.18493564666849827 0.2724221019362303 0.11070269389610621
3 78 36 112 0.18493564666849827 0.2724221019362303 0.11070269389610621
3 78 77 36 0.18493564666849827 0.2724221019362303 0.11070269389610621
3 65 66 103 0.18493564666849827 0.2724221019362303 0.11070269389610621
3 65 130 66 0.18493564666849827 0.2724221019362303 0.11070269389610621
3 24 130 129 0.18493564666849827 0.2724221019362303 0.11070269389610621
3 129 25 24 0.18493564666849827 0.2724221019362303 0.11070269389610621
3 130 65 129 0.18493564666849827 0.2724221019362303 0.11070269389610621
3 129 65 25 0.18493564666849827 0.2724221019362303 0.11070269389610621
3 109 57 110 0.18493564666849827 0.2724221019362303 0.11070269389610621
3 5 109 110 0.18493564666849827 0.2724221019362303 0.11070269389610621
3 110 35 5 0.18493564666849827 0.2724221019362303 0.11070269389610621
3 110 111 35 0.18493564666849827 0.2724221019362303 0.11070269389610621
3 110 57 111 0.18493564666849827 0.2724221019362303 0.11070269389610621
3 97 47 98 0.18493564666849827 0.2724221019362303 0.11070269389610621
3 97 98 50 0.18493564666849827 0.2724221019362303 0.11070269389610621
3 23 22 97 0.18493564666849827 0.2724221019362303 0.11070269389610621
3 22 47 97 0.18493564666849827 0.2724221019362303 0.11070269389610621
3 50 49 97 0.18493564666849827 0.2724221019362303 0.11070269389610621
3 97 49 23 0.18493564666849827 0.2724221019362303 0.11070269389610621
3 8 40 39 0.18493564666849827 0.2724221019362303 0.11070269389610621
3 40 82 39 0.18493564666849827 0.2724221019362303 0.11070269389610621
3 79 80 38 0.18493564666849827 0.2724221019362303 0.11070269389610621
3 38 78 79 0.18493564666849827 0.2724221019362303 0.11070269389610621
3 112 80 79 0.18493564666849827 0.2724221019362303 0.11070269389610621
3 79 78 112 0.18493564666849827 0.2724221019362303 0.11070269389610621
3 25 65 64 0.18493564666849827 0.2724221019362303 0.11070269389610621
3 64 102 26 0.18493564666849827 0.2724221019362303 0.11070269389610621
3 26 25 64 0.18493564666849827 0.2724221019362303 0.11070269389610621
3 103 102 64 0.18493564666849827 0.2724221019362303 0.11070269389610621
3 64 65 103 0.18493564666849827 0.2724221019362303 0.11070269389610621
3 42 82 121 0.18493564666849827 0.2724221019362303 0.11070269389610621
3 42 81 82 0.18493564666849827 0.2724221019362303 0.11070269389610621
3 42 121 60 0.18493564666849827 0.2724221019362303 0.11070269389610621
3 60 120 42 0.18493564666849827 0.2724221019362303 0.11070269389610621
3 120 41 42 0.18493564666849827 0.2724221019362303 0.11070269389610621
3 8 39 9 0.18493564666849827 0.2724221019362303 0.11070269389610621
3 9 39 82 0.18493564666849827 0.2724221019362303 0.11070269389610621
3 82 81 9 0.18493564666849827 0.2724221019362303 0.11070269389610621
3 10 41 11 0.18493564666849827 0.2724221019362303 0.11070269389610621
3 10 9 81 0.18493564666849827 0.2724221019362303 0.11070269389610621
3 10 42 41 0.18493564666849827 0.2724221019362303 0.11070269389610621
3 81 42 10 0.18493564666849827 0.2724221019362303 0.11070269389610621
