OFF
65 59 0


31.5415 28.5594 9.1066
31.5415 28.5594 9.1066
31.5562 28.5035 9.0806
31.571 28.4477 9.0546
31.5857 28.3918 9.0286
31.6005 28.336 9.0026
31.6005 28.336 9.0026
31.6234 28.2483 9.0184
31.6462 28.1605 9.0341
31.6691 28.0728 9.0499
31.692 27.9851 9.0657
31.7148 27.8973 9.0814
31.7377 27.8096 9.0972
31.7605 27.7219 9.113
31.7834 27.6341 9.1287
31.8063 27.5464 9.1445
31.8291 27.4587 9.1603
31.852 27.3709 9.176
31.8749 27.2832 9.1918
31.8977 27.1955 9.2076
31.9206 27.1077 9.2233
31.9434 27.02 9.2391
31.9663 26.9323 9.2549
31.9348 27.0504 9.3557
31.907 27.1545 9.4438
31.8822 27.2478 9.5219
31.8596 27.3325 9.5922
31.8388 27.4105 9.6564
31.8195 27.4832 9.7158
31.8012 27.5517 9.7712
31.7839 27.6169 9.8235
31.7672 27.6796 9.8733
31.751 27.7405 9.9213
31.7351 27.8001 9.9678
31.7194 27.8591 10.0134
31.7038 27.9179 10.0584
31.688 27.9771 10.1032
31.672 28.0372 10.1483
31.6556 28.0989 10.1939
31.6386 28.1628 10.2405
31.6209 28.2296 10.2885
31.6021 28.3004 10.3386
31.5819 28.3761 10.3912
31.5601 28.4584 10.4471
31.536 28.5492 10.5072
31.5089 28.6512 10.5728
31.4778 28.7684 10.6454
31.441 28.9072 10.7274
31.441 28.9072 10.7274
31.4445 28.897 10.593
31.4484 28.8845 10.4726
31.4527 28.8706 10.363
31.4573 28.8556 10.2618
31.462 28.8396 10.167
31.4669 28.8228 10.0769
31.472 28.8051 9.99
31.4774 28.7865 9.9048
31.4831 28.7667 9.82
31.4891 28.7456 9.7345
31.4956 28.7227 9.6466
31.5027 28.6976 9.555
31.5106 28.6697 9.4578
31.5194 28.6381 9.3528
31.5296 28.6019 9.237
31.5415 28.5594 9.1066
3 9 61 34 0.21307808962867758 0.2629389079543475 0.7756272666068986
3 1 63 2 0.21307808962867758 0.2629389079543475 0.7756272666068986
3 47 46 49 0.21307808962867758 0.2629389079543475 0.7756272666068986
3 43 42 53 0.21307808962867758 0.2629389079543475 0.7756272666068986
3 59 37 36 0.21307808962867758 0.2629389079543475 0.7756272666068986
3 57 40 39 0.21307808962867758 0.2629389079543475 0.7756272666068986
3 33 9 34 0.21307808962867758 0.2629389079543475 0.7756272666068986
3 10 9 33 0.21307808962867758 0.2629389079543475 0.7756272666068986
3 61 9 62 0.21307808962867758 0.2629389079543475 0.7756272666068986
3 14 28 15 0.21307808962867758 0.2629389079543475 0.7756272666068986
3 28 27 15 0.21307808962867758 0.2629389079543475 0.7756272666068986
3 45 44 51 0.21307808962867758 0.2629389079543475 0.7756272666068986
3 34 61 35 0.21307808962867758 0.2629389079543475 0.7756272666068986
3 59 36 60 0.21307808962867758 0.2629389079543475 0.7756272666068986
3 60 35 61 0.21307808962867758 0.2629389079543475 0.7756272666068986
3 36 35 60 0.21307808962867758 0.2629389079543475 0.7756272666068986
3 56 40 57 0.21307808962867758 0.2629389079543475 0.7756272666068986
3 56 41 40 0.21307808962867758 0.2629389079543475 0.7756272666068986
3 21 23 22 0.21307808962867758 0.2629389079543475 0.7756272666068986
3 21 20 23 0.21307808962867758 0.2629389079543475 0.7756272666068986
3 29 28 14 0.21307808962867758 0.2629389079543475 0.7756272666068986
3 30 12 31 0.21307808962867758 0.2629389079543475 0.7756272666068986
3 4 7 5 0.21307808962867758 0.2629389079543475 0.7756272666068986
3 8 62 9 0.21307808962867758 0.2629389079543475 0.7756272666068986
3 63 62 8 0.21307808962867758 0.2629389079543475 0.7756272666068986
3 8 7 63 0.21307808962867758 0.2629389079543475 0.7756272666068986
3 16 15 27 0.21307808962867758 0.2629389079543475 0.7756272666068986
3 52 51 44 0.21307808962867758 0.2629389079543475 0.7756272666068986
3 52 44 43 0.21307808962867758 0.2629389079543475 0.7756272666068986
3 43 53 52 0.21307808962867758 0.2629389079543475 0.7756272666068986
3 50 46 45 0.21307808962867758 0.2629389079543475 0.7756272666068986
3 45 51 50 0.21307808962867758 0.2629389079543475 0.7756272666068986
3 50 49 46 0.21307808962867758 0.2629389079543475 0.7756272666068986
3 58 37 59 0.21307808962867758 0.2629389079543475 0.7756272666068986
3 58 38 37 0.21307808962867758 0.2629389079543475 0.7756272666068986
3 57 39 58 0.21307808962867758 0.2629389079543475 0.7756272666068986
3 39 38 58 0.21307808962867758 0.2629389079543475 0.7756272666068986
3 42 41 55 0.21307808962867758 0.2629389079543475 0.7756272666068986
3 41 56 55 0.21307808962867758 0.2629389079543475 0.7756272666068986
3 13 29 14 0.21307808962867758 0.2629389079543475 0.7756272666068986
3 13 12 30 0.21307808962867758 0.2629389079543475 0.7756272666068986
3 30 29 13 0.21307808962867758 0.2629389079543475 0.7756272666068986
3 10 33 32 0.21307808962867758 0.2629389079543475 0.7756272666068986
3 11 31 12 0.21307808962867758 0.2629389079543475 0.7756272666068986
3 10 32 11 0.21307808962867758 0.2629389079543475 0.7756272666068986
3 11 32 31 0.21307808962867758 0.2629389079543475 0.7756272666068986
3 3 2 63 0.21307808962867758 0.2629389079543475 0.7756272666068986
3 63 7 3 0.21307808962867758 0.2629389079543475 0.7756272666068986
3 7 4 3 0.21307808962867758 0.2629389079543475 0.7756272666068986
3 54 53 42 0.21307808962867758 0.2629389079543475 0.7756272666068986
3 42 55 54 0.21307808962867758 0.2629389079543475 0.7756272666068986
3 25 18 17 0.21307808962867758 0.2629389079543475 0.7756272666068986
3 24 19 18 0.21307808962867758 0.2629389079543475 0.7756272666068986
3 18 25 24 0.21307808962867758 0.2629389079543475 0.7756272666068986
3 23 20 24 0.21307808962867758 0.2629389079543475 0.7756272666068986
3 20 19 24 0.21307808962867758 0.2629389079543475 0.7756272666068986
3 17 16 26 0.21307808962867758 0.2629389079543475 0.7756272666068986
3 26 25 17 0.21307808962867758 0.2629389079543475 0.7756272666068986
3 26 16 27 0.21307808962867758 0.2629389079543475 0.7756272666068986
