OFF
11 7 0


28.1481 32.0571 10.9602
28.1481 32.0571 10.9602
28.1408 32.0767 10.964
28.1236 32.0816 10.9723
28.1359 32.0693 10.9662
28.1481 32.0571 10.9602
28.1236 32.0816 10.9723
28.1236 32.0816 10.9723
28.1285 32.089 10.9701
28.1428 32.0644 10.9628
28.1375 32.0718 10.9655
3 8 3 2 0.1523739747402243 0.731683309419573 0.7991496269334937
3 3 10 2 0.1523739747402243 0.731683309419573 0.7991496269334937
3 4 10 3 0.1523739747402243 0.731683309419573 0.7991496269334937
3 0 2 9 0.1523739747402243 0.731683309419573 0.7991496269334937
3 9 2 10 0.1523739747402243 0.731683309419573 0.7991496269334937
3 9 4 0 0.1523739747402243 0.731683309419573 0.7991496269334937
3 10 4 9 0.1523739747402243 0.731683309419573 0.7991496269334937
