OFF
531 967 0


26.5979 27.8129 9.6288
26.5979 27.8129 9.6288
26.5297 27.6775 9.6424
26.4721 27.562 9.6538
26.4218 27.4607 9.6636
26.3768 27.3696 9.6723
26.3355 27.2857 9.6803
26.2969 27.2069 9.6877
26.2601 27.1315 9.6947
26.2244 27.0579 9.7015
26.189 26.985 9.7082
26.1534 26.9114 9.7149
26.1169 26.8357 9.7217
26.0788 26.7565 9.7288
26.0383 26.6721 9.7363
25.9944 26.5802 9.7444
25.9457 26.478 9.7534
25.8903 26.3614 9.7635
25.8255 26.2247 9.7753
25.8255 26.2247 9.7753
25.8682 26.3643 9.8516
25.9052 26.4857 9.9188
25.9379 26.5931 9.9792
25.9672 26.6897 10.0342
25.9939 26.7777 10.085
26.0185 26.859 10.1326
26.0414 26.9349 10.1776
26.0629 27.0066 10.2207
26.0835 27.075 10.2623
26.1032 27.1409 10.3029
26.1224 27.205 10.3429
26.1412 27.2678 10.3827
26.1597 27.3301 10.4227
26.1782 27.3923 10.4632
26.1967 27.455 10.5046
26.2156 27.5187 10.5474
26.2348 27.5842 10.5921
26.2548 27.6522 10.6394
26.2756 27.7234 10.6899
26.2975 27.7989 10.7446
26.321 27.88 10.8049
26.3464 27.9683 10.8723
26.3743 28.0661 10.9494
26.4056 28.1766 11.0397
26.4415 28.3046 11.1492
26.4415 28.3046 11.1492
26.4791 28.373 11.1309
26.5168 28.4414 11.1126
26.5168 28.4414 11.1126
26.5666 28.4785 10.9808
26.6021 28.5035 10.8854
26.6509 28.536 10.752
26.6509 28.536 10.752
26.6549 28.4745 10.6155
26.6601 28.4141 10.4785
26.6509 28.3326 10.3601
26.6438 28.2682 10.2672
26.6379 28.2134 10.1887
26.6327 28.1639 10.1183
26.6277 28.1167 10.0515
26.6229 28.0693 9.9848
26.6179 28.0192 9.9147
26.6123 27.9634 9.8368
26.6059 27.8973 9.7451
26.5979 27.8129 9.6288
26.2623 27.1608 9.7366
26.2644 27.1895 9.7777
26.2666 27.2178 9.8182
26.2687 27.2456 9.8579
26.1974 27.0279 9.7501
26.2056 27.0699 9.7911
26.2137 27.1109 9.8311
26.2216 27.1509 9.8703
26.1319 26.8933 9.7637
26.1466 26.9493 9.8045
26.1609 27.0037 9.8441
26.1749 27.0566 9.8827
26.082 27.0467 10.218
26.1007 27.0861 10.2154
26.1191 27.1247 10.2129
26.1372 27.1627 10.2104
26.1184 27.1687 10.2936
26.1335 27.1962 10.2843
26.1483 27.2233 10.2752
26.163 27.2501 10.2662
26.1529 27.2847 10.3672
26.1646 27.3014 10.3518
26.1762 27.318 10.3366
26.1877 27.3345 10.3215
26.1867 27.399 10.4418
26.1952 27.4056 10.4204
26.2037 27.4123 10.3992
26.2122 27.4189 10.378
26.221 27.5156 10.5201
26.2264 27.5125 10.4928
26.2319 27.5093 10.4655
26.2374 27.5062 10.4381
26.3314 27.3014 9.7221
26.3274 27.317 9.7635
26.3235 27.3324 9.8043
26.3196 27.3476 9.8447
26.3158 27.3626 9.8846
26.0611 26.7469 9.7784
26.0831 26.819 9.8189
26.1045 26.8887 9.8581
26.1252 26.956 9.8959
26.1453 27.0211 9.9325
25.9782 26.5746 9.7955
26.0094 26.667 9.8357
26.0394 26.7554 9.8742
26.0682 26.8402 9.9112
26.0959 26.9216 9.9467
26.02 26.8405 10.0944
26.0455 26.9015 10.1035
26.0702 26.9608 10.1123
26.0944 27.0185 10.1209
26.1179 27.0747 10.1293
26.0626 26.9819 10.1786
26.0833 27.0278 10.1797
26.1037 27.0728 10.1806
26.1237 27.1169 10.1816
26.1433 27.1601 10.1826
26.2571 27.6392 10.6059
26.2594 27.6261 10.5722
26.2618 27.613 10.5385
26.2642 27.5998 10.5045
26.2667 27.5866 10.4704
26.4645 28.311 11.0655
26.4499 28.2485 10.9997
26.4355 28.1854 10.9333
26.4211 28.1215 10.866
26.4068 28.0567 10.7978
26.6039 28.0724 10.0609
26.5797 28.0275 10.0706
26.5552 27.9819 10.0803
26.5305 27.9356 10.0903
26.5053 27.8886 10.1004
26.5941 27.9808 9.9341
26.5702 27.9419 9.9537
26.546 27.9026 9.9736
26.5217 27.8629 9.9937
26.497 27.8226 10.0141
26.3694 27.3783 9.7142
26.3621 27.3869 9.7556
26.3549 27.3955 9.7967
26.3478 27.404 9.8373
26.3409 27.4124 9.8777
26.334 27.4208 9.9177
25.9415 26.5809 9.9447
25.9763 26.6721 9.9695
26.0097 26.7595 9.9933
26.0419 26.8434 10.0161
26.0729 26.9241 10.0382
26.1028 27.0018 10.0594
25.9963 26.7618 10.0484
26.0244 26.8316 10.0621
26.0518 26.8992 10.0754
26.0783 26.9647 10.0883
26.1041 27.0282 10.1008
26.1292 27.0899 10.113
26.2965 27.7755 10.7042
26.2956 27.7519 10.6635
26.2946 27.7282 10.6226
26.2938 27.7043 10.5812
26.293 27.6802 10.5396
26.2922 27.6558 10.4975
26.6137 28.1634 10.1887
26.5892 28.1126 10.1886
26.5644 28.061 10.1886
26.5391 28.0083 10.1886
26.5134 27.9547 10.1886
26.4873 27.8999 10.1887
26.4109 27.4621 9.7054
26.4001 27.4634 9.747
26.3895 27.4647 9.7883
26.379 27.466 9.8293
26.3685 27.4673 9.8701
26.3582 27.4686 9.9107
26.348 27.4699 9.9511
25.8719 26.3523 9.8173
25.9157 26.4728 9.857
25.9574 26.5868 9.8946
25.997 26.6951 9.9304
26.0348 26.798 9.9644
26.071 26.8961 9.9968
26.1056 26.9897 10.0278
25.909 26.4742 9.8848
25.9479 26.5787 9.9164
25.9851 26.6783 9.9465
26.0208 26.7734 9.9754
26.0549 26.8644 10.003
26.0878 26.9517 10.0295
26.1194 27.0354 10.055
26.3417 27.9333 10.8236
26.337 27.898 10.7745
26.3324 27.8624 10.7249
26.3278 27.8264 10.6748
26.3233 27.79 10.6242
26.3188 27.7531 10.5729
26.3144 27.7157 10.5208
26.5799 28.4351 10.8388
26.5576 28.3658 10.7915
26.5352 28.2954 10.7436
26.5126 28.2236 10.6948
26.4897 28.1503 10.645
26.4665 28.0753 10.5941
26.4428 27.9983 10.5419
26.6194 28.215 10.2618
26.5946 28.1609 10.2564
26.5695 28.1059 10.2509
26.544 28.0497 10.2453
26.518 27.9923 10.2397
26.4915 27.9336 10.2339
26.4645 27.8736 10.228
26.5822 27.8664 9.7776
26.5584 27.8354 9.8103
26.5346 27.8042 9.8432
26.5106 27.7729 9.8764
26.4866 27.7413 9.9098
26.4624 27.7094 9.9436
26.4381 27.6773 9.9776
26.5108 27.6621 9.6843
26.492 27.6467 9.7262
26.4733 27.6314 9.7681
26.4546 27.616 9.81
26.436 27.6007 9.8518
26.4175 27.5854 9.8937
26.399 27.5702 9.9357
26.3805 27.5548 9.9778
26.2296 27.094 9.7434
26.2348 27.1293 9.7845
26.2399 27.1639 9.8247
26.2449 27.1978 9.8642
26.2499 27.2311 9.9029
26.2549 27.2638 9.941
26.2598 27.296 9.9783
26.2646 27.3275 10.0151
26.0976 26.8223 9.7708
26.1157 26.886 9.8115
26.1334 26.9477 9.8509
26.1506 27.0076 9.8891
26.1674 27.0656 9.9262
26.1837 27.122 9.9623
26.1997 27.1769 9.9974
26.2153 27.2303 10.0315
26.1358 27.2272 10.3305
26.1491 27.2492 10.3181
26.1623 27.2709 10.3059
26.1754 27.2925 10.2938
26.1884 27.3138 10.2818
26.2012 27.335 10.27
26.214 27.356 10.2583
26.2266 27.3767 10.2466
26.2037 27.4567 10.4803
26.2107 27.4585 10.456
26.2177 27.4602 10.4317
26.2247 27.462 10.4075
26.2317 27.4637 10.3833
26.2387 27.4655 10.3591
26.2458 27.4672 10.3349
26.2528 27.469 10.3108
26.5465 28.411 10.9272
26.5264 28.3428 10.8731
26.5062 28.2736 10.8182
26.4859 28.2032 10.7625
26.4654 28.1315 10.7058
26.4448 28.0582 10.6478
26.4238 27.9831 10.5884
26.4025 27.9059 10.5275
25.929 26.4719 9.8056
25.966 26.577 9.8456
26.0012 26.6771 9.8837
26.035 26.7726 9.9201
26.0674 26.8638 9.9549
26.0985 26.9513 9.9883
26.1284 27.0352 10.0204
26.1573 27.1158 10.0512
26.1852 27.1934 10.0809
25.9703 26.676 9.9988
26.0015 26.7557 10.0177
26.0317 26.8325 10.0359
26.0609 26.9067 10.0535
26.0892 26.9783 10.0706
26.1165 27.0475 10.0871
26.1431 27.1146 10.1031
26.169 27.1796 10.1186
26.1941 27.2427 10.1337
26.2762 27.7053 10.6531
26.277 27.6871 10.616
26.2777 27.6688 10.5788
26.2786 27.6503 10.5413
26.2794 27.6318 10.5035
26.2804 27.6131 10.4655
26.2813 27.5943 10.4272
26.2824 27.5753 10.3886
26.2834 27.5562 10.3496
26.3964 28.1275 10.98
26.3872 28.0781 10.9198
26.3782 28.0281 10.859
26.3691 27.9776 10.7975
26.3602 27.9264 10.7352
26.3512 27.8744 10.6719
26.3423 27.8214 10.6076
26.3334 27.7675 10.542
26.3245 27.7124 10.4751
26.4996 28.3752 11.0491
26.4825 28.3085 10.985
26.4655 28.2411 10.9203
26.4485 28.1728 10.8548
26.4315 28.1033 10.7882
26.4144 28.0326 10.7205
26.3972 27.9603 10.6512
26.3798 27.8862 10.5803
26.3622 27.81 10.5074
26.6298 28.4089 10.5872
26.6045 28.3422 10.5585
26.5788 28.2741 10.5293
26.5527 28.2046 10.4995
26.5262 28.1334 10.469
26.4991 28.0604 10.4378
26.4715 27.9853 10.4057
26.4431 27.908 10.3728
26.4141 27.8282 10.3388
26.6261 28.2757 10.3485
26.601 28.2177 10.3368
26.5756 28.1586 10.325
26.5496 28.0983 10.3129
26.5232 28.0365 10.3005
26.4963 27.9734 10.2879
26.4688 27.9086 10.275
26.4407 27.8421 10.2618
26.4119 27.7737 10.2483
26.5991 28.0278 9.999
26.5751 27.9858 10.0135
26.5508 27.9433 10.0281
26.5262 27.9002 10.043
26.5013 27.8564 10.0581
26.4761 27.8119 10.0735
26.4505 27.7668 10.0892
26.4246 27.7209 10.1052
26.3983 27.6741 10.1215
26.4574 27.5554 9.6956
26.4428 27.5488 9.7373
26.4284 27.5422 9.7789
26.414 27.5357 9.8203
26.3998 27.5292 9.8616
26.3856 27.5227 9.9028
26.3715 27.5162 9.944
26.3575 27.5098 9.985
26.3436 27.5034 10.0261
26.3297 27.497 10.0671
26.165 26.9614 9.7568
26.1764 27.0102 9.7977
26.1875 27.0578 9.8376
26.1984 27.1041 9.8764
26.2091 27.1494 9.9144
26.2196 27.1936 9.9515
26.2299 27.2369 9.9878
26.2401 27.2791 10.0232
26.25 27.3205 10.058
26.2598 27.361 10.092
26.1006 27.1088 10.2562
26.1174 27.142 10.2502
26.1339 27.1747 10.2443
26.1503 27.207 10.2385
26.1664 27.2388 10.2328
26.1823 27.2701 10.2272
26.198 27.301 10.2217
26.2136 27.3315 10.2162
26.2289 27.3615 10.2108
26.244 27.3912 10.2055
26.2387 27.5762 10.5618
26.2426 27.5681 10.5314
26.2466 27.5601 10.5009
26.2506 27.552 10.4703
26.2546 27.5438 10.4397
26.2587 27.5357 10.4089
26.2628 27.5275 10.378
26.2669 27.5193 10.347
26.2711 27.5111 10.3159
26.2753 27.5029 10.2847
26.3675 28.0245 10.8957
26.3607 27.9826 10.8415
26.354 27.9402 10.7867
26.3473 27.8973 10.7314
26.3407 27.8539 10.6753
26.3341 27.8099 10.6185
26.3276 27.7652 10.5608
26.321 27.7197 10.5021
26.3145 27.6734 10.4423
26.308 27.6261 10.3813
26.5741 27.7876 9.6709
26.5504 27.7622 9.7131
26.5267 27.7369 9.7553
26.503 27.7115 9.7977
26.4794 27.686 9.8402
26.4557 27.6605 9.883
26.432 27.6349 9.9259
26.4083 27.6091 9.9691
26.3845 27.5832 10.0126
26.3606 27.5572 10.0564
26.0217 26.6651 9.7865
26.048 26.7467 9.8269
26.0734 26.8251 9.8658
26.0979 26.9007 9.9032
26.1216 26.9735 9.9393
26.1446 27.0437 9.9742
26.1669 27.1117 10.0079
26.1885 27.1774 10.0406
26.2095 27.2411 10.0722
26.23 27.3029 10.103
26.2499 27.3629 10.1328
26.042 26.9135 10.1376
26.065 26.9666 10.1425
26.0875 27.0184 10.1472
26.1094 27.069 10.1519
26.1309 27.1185 10.1565
26.152 27.1668 10.161
26.1726 27.2141 10.1654
26.1928 27.2603 10.1697
26.2126 27.3056 10.1739
26.2321 27.35 10.1781
26.2512 27.3934 10.1821
26.6259 28.4663 10.7147
26.6006 28.3954 10.6768
26.5751 28.3233 10.6383
26.5492 28.2497 10.5991
26.523 28.1744 10.559
26.4962 28.0971 10.5179
26.469 28.0177 10.4757
26.4411 27.9358 10.4323
26.4124 27.8512 10.3874
26.3829 27.7635 10.341
26.3525 27.6723 10.2928
26.6087 28.1168 10.1231
26.5843 28.069 10.1279
26.5597 28.0205 10.1329
26.5347 27.9711 10.138
26.5093 27.9208 10.1432
26.4835 27.8695 10.1485
26.4572 27.8172 10.154
26.4305 27.7639 10.1596
26.4033 27.7094 10.1654
26.3755 27.6536 10.1713
26.3471 27.5965 10.1774
26.296 27.2295 9.7295
26.2951 27.2517 9.7708
26.2942 27.2736 9.8114
26.2934 27.2952 9.8515
26.2927 27.3165 9.891
26.292 27.3376 9.93
26.2913 27.3583 9.9685
26.2907 27.3788 10.0065
26.2902 27.3991 10.0441
26.2897 27.4191 10.0812
26.2892 27.4389 10.1179
26.2887 27.4585 10.1542
26.1698 27.3418 10.4042
26.1799 27.3534 10.3859
26.1899 27.365 10.3676
26.1999 27.3765 10.3494
26.2099 27.388 10.3314
26.2198 27.3994 10.3134
26.2297 27.4108 10.2956
26.2396 27.4221 10.2778
26.2494 27.4333 10.2601
26.2592 27.4445 10.2425
26.2689 27.4557 10.2249
26.2787 27.4668 10.2075
26.3182 27.851 10.7606
26.3155 27.8218 10.7159
26.3128 27.7923 10.6708
26.3101 27.7626 10.6254
26.3075 27.7325 10.5794
26.305 27.7022 10.533
26.3025 27.6714 10.486
26.3 27.6403 10.4384
26.2976 27.6088 10.3902
26.2952 27.5768 10.3414
26.2929 27.5444 10.2917
26.2906 27.5114 10.2414
26.4294 28.2467 11.082
26.4175 28.1885 11.0143
26.4057 28.1298 10.9461
26.3939 28.0704 10.8771
26.3823 28.0102 10.8072
26.3707 27.949 10.7363
26.3591 27.8868 10.664
26.3475 27.8231 10.5902
26.3359 27.758 10.5147
26.3242 27.6912 10.4372
26.3124 27.6224 10.3575
26.3004 27.5514 10.2752
26.6348 28.3523 10.4592
26.6092 28.2893 10.4397
26.5831 28.2251 10.4197
26.5567 28.1595 10.3994
26.5297 28.0924 10.3786
26.5022 28.0235 10.3574
26.4741 27.9528 10.3356
26.4453 27.88 10.3132
26.4158 27.805 10.2901
26.3854 27.7276 10.2664
26.3541 27.6474 10.2419
26.3218 27.5643 10.2165
26.5886 27.9284 9.8621
26.5648 27.8931 9.8877
26.5408 27.8575 9.9135
26.5166 27.8215 9.9395
26.4923 27.7852 9.9659
26.4677 27.7485 9.9926
26.4429 27.7113 10.0196
26.4179 27.6737 10.0469
26.3926 27.6357 10.0747
26.367 27.5971 10.1029
26.3411 27.558 10.1315
26.3149 27.5182 10.1606
26.5741 27.7876 9.6709
26.5504 27.7622 9.7131
26.5267 27.7369 9.7553
26.503 27.7115 9.7977
26.4794 27.686 9.8402
26.4557 27.6605 9.883
26.432 27.6349 9.9259
26.4083 27.6091 9.9691
26.3845 27.5832 10.0126
26.3606 27.5572 10.0564
26.3367 27.5309 10.1006
26.3126 27.5045 10.1451
26.2884 27.4779 10.1901
26.2884 27.4779 10.1901
3 305 49 48 0.23797801147173558 0.10757186407473884 0.373547671474303
3 48 46 305 0.23797801147173558 0.10757186407473884 0.373547671474303
3 51 50 200 0.23797801147173558 0.10757186407473884 0.373547671474303
3 323 324 56 0.23797801147173558 0.10757186407473884 0.373547671474303
3 56 55 323 0.23797801147173558 0.10757186407473884 0.373547671474303
3 57 166 58 0.23797801147173558 0.10757186407473884 0.373547671474303
3 468 529 480 0.23797801147173558 0.10757186407473884 0.373547671474303
3 85 32 31 0.23797801147173558 0.10757186407473884 0.373547671474303
3 32 85 457 0.23797801147173558 0.10757186407473884 0.373547671474303
3 457 85 86 0.23797801147173558 0.10757186407473884 0.373547671474303
3 49 305 261 0.23797801147173558 0.10757186407473884 0.373547671474303
3 262 200 261 0.23797801147173558 0.10757186407473884 0.373547671474303
3 261 50 49 0.23797801147173558 0.10757186407473884 0.373547671474303
3 261 200 50 0.23797801147173558 0.10757186407473884 0.373547671474303
3 17 16 269 0.23797801147173558 0.10757186407473884 0.373547671474303
3 494 323 55 0.23797801147173558 0.10757186407473884 0.373547671474303
3 166 57 207 0.23797801147173558 0.10757186407473884 0.373547671474303
3 56 324 207 0.23797801147173558 0.10757186407473884 0.373547671474303
3 207 57 56 0.23797801147173558 0.10757186407473884 0.373547671474303
3 219 396 218 0.23797801147173558 0.10757186407473884 0.373547671474303
3 218 510 219 0.23797801147173558 0.10757186407473884 0.373547671474303
3 519 221 392 0.23797801147173558 0.10757186407473884 0.373547671474303
3 519 216 394 0.23797801147173558 0.10757186407473884 0.373547671474303
3 222 519 394 0.23797801147173558 0.10757186407473884 0.373547671474303
3 221 519 222 0.23797801147173558 0.10757186407473884 0.373547671474303
3 391 214 392 0.23797801147173558 0.10757186407473884 0.373547671474303
3 0 391 2 0.23797801147173558 0.10757186407473884 0.373547671474303
3 392 221 2 0.23797801147173558 0.10757186407473884 0.373547671474303
3 2 391 392 0.23797801147173558 0.10757186407473884 0.373547671474303
3 3 2 221 0.23797801147173558 0.10757186407473884 0.373547671474303
3 221 222 3 0.23797801147173558 0.10757186407473884 0.373547671474303
3 478 491 477 0.23797801147173558 0.10757186407473884 0.373547671474303
3 477 491 390 0.23797801147173558 0.10757186407473884 0.373547671474303
3 458 457 86 0.23797801147173558 0.10757186407473884 0.373547671474303
3 172 5 4 0.23797801147173558 0.10757186407473884 0.373547671474303
3 5 172 142 0.23797801147173558 0.10757186407473884 0.373547671474303
3 51 200 423 0.23797801147173558 0.10757186407473884 0.373547671474303
3 423 53 51 0.23797801147173558 0.10757186407473884 0.373547671474303
3 424 53 423 0.23797801147173558 0.10757186407473884 0.373547671474303
3 201 200 262 0.23797801147173558 0.10757186407473884 0.373547671474303
3 201 423 200 0.23797801147173558 0.10757186407473884 0.373547671474303
3 424 423 201 0.23797801147173558 0.10757186407473884 0.373547671474303
3 449 234 68 0.23797801147173558 0.10757186407473884 0.373547671474303
3 493 55 54 0.23797801147173558 0.10757186407473884 0.373547671474303
3 493 494 55 0.23797801147173558 0.10757186407473884 0.373547671474303
3 324 323 495 0.23797801147173558 0.10757186407473884 0.373547671474303
3 323 494 495 0.23797801147173558 0.10757186407473884 0.373547671474303
3 495 496 324 0.23797801147173558 0.10757186407473884 0.373547671474303
3 317 496 495 0.23797801147173558 0.10757186407473884 0.373547671474303
3 166 207 208 0.23797801147173558 0.10757186407473884 0.373547671474303
3 209 167 208 0.23797801147173558 0.10757186407473884 0.373547671474303
3 208 167 166 0.23797801147173558 0.10757186407473884 0.373547671474303
3 394 216 217 0.23797801147173558 0.10757186407473884 0.373547671474303
3 521 218 396 0.23797801147173558 0.10757186407473884 0.373547671474303
3 394 217 521 0.23797801147173558 0.10757186407473884 0.373547671474303
3 521 217 218 0.23797801147173558 0.10757186407473884 0.373547671474303
3 392 214 215 0.23797801147173558 0.10757186407473884 0.373547671474303
3 215 519 392 0.23797801147173558 0.10757186407473884 0.373547671474303
3 216 519 215 0.23797801147173558 0.10757186407473884 0.373547671474303
3 215 506 216 0.23797801147173558 0.10757186407473884 0.373547671474303
3 62 214 63 0.23797801147173558 0.10757186407473884 0.373547671474303
3 63 391 0 0.23797801147173558 0.10757186407473884 0.373547671474303
3 214 391 63 0.23797801147173558 0.10757186407473884 0.373547671474303
3 321 499 320 0.23797801147173558 0.10757186407473884 0.373547671474303
3 499 321 500 0.23797801147173558 0.10757186407473884 0.373547671474303
3 320 499 498 0.23797801147173558 0.10757186407473884 0.373547671474303
3 434 167 435 0.23797801147173558 0.10757186407473884 0.373547671474303
3 434 59 58 0.23797801147173558 0.10757186407473884 0.373547671474303
3 58 166 434 0.23797801147173558 0.10757186407473884 0.373547671474303
3 166 167 434 0.23797801147173558 0.10757186407473884 0.373547671474303
3 141 508 140 0.23797801147173558 0.10757186407473884 0.373547671474303
3 139 335 140 0.23797801147173558 0.10757186407473884 0.373547671474303
3 140 336 141 0.23797801147173558 0.10757186407473884 0.373547671474303
3 335 336 140 0.23797801147173558 0.10757186407473884 0.373547671474303
3 510 218 509 0.23797801147173558 0.10757186407473884 0.373547671474303
3 141 510 509 0.23797801147173558 0.10757186407473884 0.373547671474303
3 509 508 141 0.23797801147173558 0.10757186407473884 0.373547671474303
3 218 217 509 0.23797801147173558 0.10757186407473884 0.373547671474303
3 509 217 508 0.23797801147173558 0.10757186407473884 0.373547671474303
3 505 214 62 0.23797801147173558 0.10757186407473884 0.373547671474303
3 505 215 214 0.23797801147173558 0.10757186407473884 0.373547671474303
3 506 215 505 0.23797801147173558 0.10757186407473884 0.373547671474303
3 216 506 507 0.23797801147173558 0.10757186407473884 0.373547671474303
3 507 217 216 0.23797801147173558 0.10757186407473884 0.373547671474303
3 508 217 507 0.23797801147173558 0.10757186407473884 0.373547671474303
3 507 506 139 0.23797801147173558 0.10757186407473884 0.373547671474303
3 139 140 507 0.23797801147173558 0.10757186407473884 0.373547671474303
3 507 140 508 0.23797801147173558 0.10757186407473884 0.373547671474303
3 320 498 319 0.23797801147173558 0.10757186407473884 0.373547671474303
3 319 498 497 0.23797801147173558 0.10757186407473884 0.373547671474303
3 4 3 341 0.23797801147173558 0.10757186407473884 0.373547671474303
3 341 172 4 0.23797801147173558 0.10757186407473884 0.373547671474303
3 342 172 341 0.23797801147173558 0.10757186407473884 0.373547671474303
3 341 3 222 0.23797801147173558 0.10757186407473884 0.373547671474303
3 378 379 295 0.23797801147173558 0.10757186407473884 0.373547671474303
3 346 347 177 0.23797801147173558 0.10757186407473884 0.373547671474303
3 228 524 399 0.23797801147173558 0.10757186407473884 0.373547671474303
3 220 524 397 0.23797801147173558 0.10757186407473884 0.373547671474303
3 219 220 397 0.23797801147173558 0.10757186407473884 0.373547671474303
3 397 396 219 0.23797801147173558 0.10757186407473884 0.373547671474303
3 84 365 366 0.23797801147173558 0.10757186407473884 0.373547671474303
3 366 248 84 0.23797801147173558 0.10757186407473884 0.373547671474303
3 86 85 247 0.23797801147173558 0.10757186407473884 0.373547671474303
3 247 84 248 0.23797801147173558 0.10757186407473884 0.373547671474303
3 65 8 7 0.23797801147173558 0.10757186407473884 0.373547671474303
3 68 67 447 0.23797801147173558 0.10757186407473884 0.373547671474303
3 447 67 446 0.23797801147173558 0.10757186407473884 0.373547671474303
3 6 5 97 0.23797801147173558 0.10757186407473884 0.373547671474303
3 5 142 97 0.23797801147173558 0.10757186407473884 0.373547671474303
3 317 495 316 0.23797801147173558 0.10757186407473884 0.373547671474303
3 316 495 494 0.23797801147173558 0.10757186407473884 0.373547671474303
3 494 493 316 0.23797801147173558 0.10757186407473884 0.373547671474303
3 17 269 179 0.23797801147173558 0.10757186407473884 0.373547671474303
3 269 20 179 0.23797801147173558 0.10757186407473884 0.373547671474303
3 18 17 179 0.23797801147173558 0.10757186407473884 0.373547671474303
3 179 20 18 0.23797801147173558 0.10757186407473884 0.373547671474303
3 186 20 180 0.23797801147173558 0.10757186407473884 0.373547671474303
3 180 20 269 0.23797801147173558 0.10757186407473884 0.373547671474303
3 81 362 363 0.23797801147173558 0.10757186407473884 0.373547671474303
3 29 362 81 0.23797801147173558 0.10757186407473884 0.373547671474303
3 446 67 66 0.23797801147173558 0.10757186407473884 0.373547671474303
3 54 53 314 0.23797801147173558 0.10757186407473884 0.373547671474303
3 314 53 424 0.23797801147173558 0.10757186407473884 0.373547671474303
3 424 425 314 0.23797801147173558 0.10757186407473884 0.373547671474303
3 224 521 396 0.23797801147173558 0.10757186407473884 0.373547671474303
3 136 336 335 0.23797801147173558 0.10757186407473884 0.373547671474303
3 335 135 136 0.23797801147173558 0.10757186407473884 0.373547671474303
3 433 390 491 0.23797801147173558 0.10757186407473884 0.373547671474303
3 510 338 511 0.23797801147173558 0.10757186407473884 0.373547671474303
3 219 510 511 0.23797801147173558 0.10757186407473884 0.373547671474303
3 511 220 219 0.23797801147173558 0.10757186407473884 0.373547671474303
3 337 510 141 0.23797801147173558 0.10757186407473884 0.373547671474303
3 337 338 510 0.23797801147173558 0.10757186407473884 0.373547671474303
3 141 336 337 0.23797801147173558 0.10757186407473884 0.373547671474303
3 337 136 439 0.23797801147173558 0.10757186407473884 0.373547671474303
3 336 136 337 0.23797801147173558 0.10757186407473884 0.373547671474303
3 441 331 442 0.23797801147173558 0.10757186407473884 0.373547671474303
3 442 340 339 0.23797801147173558 0.10757186407473884 0.373547671474303
3 339 441 442 0.23797801147173558 0.10757186407473884 0.373547671474303
3 338 441 339 0.23797801147173558 0.10757186407473884 0.373547671474303
3 339 511 338 0.23797801147173558 0.10757186407473884 0.373547671474303
3 513 340 514 0.23797801147173558 0.10757186407473884 0.373547671474303
3 514 444 515 0.23797801147173558 0.10757186407473884 0.373547671474303
3 325 207 324 0.23797801147173558 0.10757186407473884 0.373547671474303
3 325 208 207 0.23797801147173558 0.10757186407473884 0.373547671474303
3 324 496 325 0.23797801147173558 0.10757186407473884 0.373547671474303
3 209 208 325 0.23797801147173558 0.10757186407473884 0.373547671474303
3 325 326 209 0.23797801147173558 0.10757186407473884 0.373547671474303
3 325 496 497 0.23797801147173558 0.10757186407473884 0.373547671474303
3 497 326 325 0.23797801147173558 0.10757186407473884 0.373547671474303
3 435 133 132 0.23797801147173558 0.10757186407473884 0.373547671474303
3 132 434 435 0.23797801147173558 0.10757186407473884 0.373547671474303
3 59 434 132 0.23797801147173558 0.10757186407473884 0.373547671474303
3 139 506 138 0.23797801147173558 0.10757186407473884 0.373547671474303
3 506 505 138 0.23797801147173558 0.10757186407473884 0.373547671474303
3 320 319 429 0.23797801147173558 0.10757186407473884 0.373547671474303
3 429 319 428 0.23797801147173558 0.10757186407473884 0.373547671474303
3 428 319 318 0.23797801147173558 0.10757186407473884 0.373547671474303
3 318 496 317 0.23797801147173558 0.10757186407473884 0.373547671474303
3 497 496 318 0.23797801147173558 0.10757186407473884 0.373547671474303
3 318 319 497 0.23797801147173558 0.10757186407473884 0.373547671474303
3 317 427 318 0.23797801147173558 0.10757186407473884 0.373547671474303
3 318 427 428 0.23797801147173558 0.10757186407473884 0.373547671474303
3 430 321 320 0.23797801147173558 0.10757186407473884 0.373547671474303
3 320 429 430 0.23797801147173558 0.10757186407473884 0.373547671474303
3 262 261 306 0.23797801147173558 0.10757186407473884 0.373547671474303
3 306 261 305 0.23797801147173558 0.10757186407473884 0.373547671474303
3 91 458 459 0.23797801147173558 0.10757186407473884 0.373547671474303
3 92 91 459 0.23797801147173558 0.10757186407473884 0.373547671474303
3 257 92 258 0.23797801147173558 0.10757186407473884 0.373547671474303
3 258 92 462 0.23797801147173558 0.10757186407473884 0.373547671474303
3 380 379 260 0.23797801147173558 0.10757186407473884 0.373547671474303
3 477 390 476 0.23797801147173558 0.10757186407473884 0.373547671474303
3 147 177 178 0.23797801147173558 0.10757186407473884 0.373547671474303
3 178 177 347 0.23797801147173558 0.10757186407473884 0.373547671474303
3 178 452 147 0.23797801147173558 0.10757186407473884 0.373547671474303
3 346 177 176 0.23797801147173558 0.10757186407473884 0.373547671474303
3 480 529 516 0.23797801147173558 0.10757186407473884 0.373547671474303
3 529 528 516 0.23797801147173558 0.10757186407473884 0.373547671474303
3 516 528 515 0.23797801147173558 0.10757186407473884 0.373547671474303
3 350 455 454 0.23797801147173558 0.10757186407473884 0.373547671474303
3 528 455 350 0.23797801147173558 0.10757186407473884 0.373547671474303
3 248 88 87 0.23797801147173558 0.10757186407473884 0.373547671474303
3 86 247 87 0.23797801147173558 0.10757186407473884 0.373547671474303
3 87 247 248 0.23797801147173558 0.10757186407473884 0.373547671474303
3 87 458 86 0.23797801147173558 0.10757186407473884 0.373547671474303
3 459 458 87 0.23797801147173558 0.10757186407473884 0.373547671474303
3 87 88 459 0.23797801147173558 0.10757186407473884 0.373547671474303
3 250 88 249 0.23797801147173558 0.10757186407473884 0.373547671474303
3 249 88 248 0.23797801147173558 0.10757186407473884 0.373547671474303
3 249 248 366 0.23797801147173558 0.10757186407473884 0.373547671474303
3 364 365 83 0.23797801147173558 0.10757186407473884 0.373547671474303
3 365 84 83 0.23797801147173558 0.10757186407473884 0.373547671474303
3 465 252 370 0.23797801147173558 0.10757186407473884 0.373547671474303
3 370 252 369 0.23797801147173558 0.10757186407473884 0.373547671474303
3 369 422 370 0.23797801147173558 0.10757186407473884 0.373547671474303
3 454 455 411 0.23797801147173558 0.10757186407473884 0.373547671474303
3 411 455 422 0.23797801147173558 0.10757186407473884 0.373547671474303
3 448 447 99 0.23797801147173558 0.10757186407473884 0.373547671474303
3 448 449 68 0.23797801147173558 0.10757186407473884 0.373547671474303
3 68 447 448 0.23797801147173558 0.10757186407473884 0.373547671474303
3 446 97 98 0.23797801147173558 0.10757186407473884 0.373547671474303
3 99 447 98 0.23797801147173558 0.10757186407473884 0.373547671474303
3 98 447 446 0.23797801147173558 0.10757186407473884 0.373547671474303
3 98 143 99 0.23797801147173558 0.10757186407473884 0.373547671474303
3 98 97 142 0.23797801147173558 0.10757186407473884 0.373547671474303
3 142 143 98 0.23797801147173558 0.10757186407473884 0.373547671474303
3 99 143 144 0.23797801147173558 0.10757186407473884 0.373547671474303
3 144 143 174 0.23797801147173558 0.10757186407473884 0.373547671474303
3 173 142 172 0.23797801147173558 0.10757186407473884 0.373547671474303
3 173 143 142 0.23797801147173558 0.10757186407473884 0.373547671474303
3 174 143 173 0.23797801147173558 0.10757186407473884 0.373547671474303
3 173 172 342 0.23797801147173558 0.10757186407473884 0.373547671474303
3 102 14 13 0.23797801147173558 0.10757186407473884 0.373547671474303
3 73 12 11 0.23797801147173558 0.10757186407473884 0.373547671474303
3 446 66 445 0.23797801147173558 0.10757186407473884 0.373547671474303
3 445 97 446 0.23797801147173558 0.10757186407473884 0.373547671474303
3 65 7 445 0.23797801147173558 0.10757186407473884 0.373547671474303
3 445 66 65 0.23797801147173558 0.10757186407473884 0.373547671474303
3 445 7 6 0.23797801147173558 0.10757186407473884 0.373547671474303
3 6 97 445 0.23797801147173558 0.10757186407473884 0.373547671474303
3 453 350 454 0.23797801147173558 0.10757186407473884 0.373547671474303
3 452 178 453 0.23797801147173558 0.10757186407473884 0.373547671474303
3 359 358 236 0.23797801147173558 0.10757186407473884 0.373547671474303
3 358 235 236 0.23797801147173558 0.10757186407473884 0.373547671474303
3 236 453 359 0.23797801147173558 0.10757186407473884 0.373547671474303
3 452 453 236 0.23797801147173558 0.10757186407473884 0.373547671474303
3 450 235 234 0.23797801147173558 0.10757186407473884 0.373547671474303
3 234 449 450 0.23797801147173558 0.10757186407473884 0.373547671474303
3 449 101 450 0.23797801147173558 0.10757186407473884 0.373547671474303
3 450 101 147 0.23797801147173558 0.10757186407473884 0.373547671474303
3 147 101 146 0.23797801147173558 0.10757186407473884 0.373547671474303
3 146 101 145 0.23797801147173558 0.10757186407473884 0.373547671474303
3 145 176 146 0.23797801147173558 0.10757186407473884 0.373547671474303
3 146 177 147 0.23797801147173558 0.10757186407473884 0.373547671474303
3 146 176 177 0.23797801147173558 0.10757186407473884 0.373547671474303
3 145 101 100 0.23797801147173558 0.10757186407473884 0.373547671474303
3 99 144 100 0.23797801147173558 0.10757186407473884 0.373547671474303
3 100 144 145 0.23797801147173558 0.10757186407473884 0.373547671474303
3 100 448 99 0.23797801147173558 0.10757186407473884 0.373547671474303
3 100 101 449 0.23797801147173558 0.10757186407473884 0.373547671474303
3 449 448 100 0.23797801147173558 0.10757186407473884 0.373547671474303
3 315 316 493 0.23797801147173558 0.10757186407473884 0.373547671474303
3 315 493 54 0.23797801147173558 0.10757186407473884 0.373547671474303
3 54 314 315 0.23797801147173558 0.10757186407473884 0.373547671474303
3 315 314 425 0.23797801147173558 0.10757186407473884 0.373547671474303
3 223 224 342 0.23797801147173558 0.10757186407473884 0.373547671474303
3 342 341 223 0.23797801147173558 0.10757186407473884 0.373547671474303
3 223 341 222 0.23797801147173558 0.10757186407473884 0.373547671474303
3 223 222 394 0.23797801147173558 0.10757186407473884 0.373547671474303
3 394 521 223 0.23797801147173558 0.10757186407473884 0.373547671474303
3 521 224 223 0.23797801147173558 0.10757186407473884 0.373547671474303
3 342 224 343 0.23797801147173558 0.10757186407473884 0.373547671474303
3 343 224 344 0.23797801147173558 0.10757186407473884 0.373547671474303
3 343 173 342 0.23797801147173558 0.10757186407473884 0.373547671474303
3 343 344 174 0.23797801147173558 0.10757186407473884 0.373547671474303
3 174 173 343 0.23797801147173558 0.10757186407473884 0.373547671474303
3 209 326 210 0.23797801147173558 0.10757186407473884 0.373547671474303
3 211 210 327 0.23797801147173558 0.10757186407473884 0.373547671474303
3 327 210 326 0.23797801147173558 0.10757186407473884 0.373547671474303
3 327 326 497 0.23797801147173558 0.10757186407473884 0.373547671474303
3 497 498 327 0.23797801147173558 0.10757186407473884 0.373547671474303
3 442 331 502 0.23797801147173558 0.10757186407473884 0.373547671474303
3 432 433 502 0.23797801147173558 0.10757186407473884 0.373547671474303
3 443 340 442 0.23797801147173558 0.10757186407473884 0.373547671474303
3 443 514 340 0.23797801147173558 0.10757186407473884 0.373547671474303
3 444 514 443 0.23797801147173558 0.10757186407473884 0.373547671474303
3 492 380 480 0.23797801147173558 0.10757186407473884 0.373547671474303
3 338 337 440 0.23797801147173558 0.10757186407473884 0.373547671474303
3 440 441 338 0.23797801147173558 0.10757186407473884 0.373547671474303
3 440 337 439 0.23797801147173558 0.10757186407473884 0.373547671474303
3 439 213 440 0.23797801147173558 0.10757186407473884 0.373547671474303
3 331 441 440 0.23797801147173558 0.10757186407473884 0.373547671474303
3 511 339 512 0.23797801147173558 0.10757186407473884 0.373547671474303
3 220 511 512 0.23797801147173558 0.10757186407473884 0.373547671474303
3 512 340 513 0.23797801147173558 0.10757186407473884 0.373547671474303
3 512 339 340 0.23797801147173558 0.10757186407473884 0.373547671474303
3 512 524 220 0.23797801147173558 0.10757186407473884 0.373547671474303
3 512 513 399 0.23797801147173558 0.10757186407473884 0.373547671474303
3 399 524 512 0.23797801147173558 0.10757186407473884 0.373547671474303
3 330 500 322 0.23797801147173558 0.10757186407473884 0.373547671474303
3 331 440 330 0.23797801147173558 0.10757186407473884 0.373547671474303
3 330 440 213 0.23797801147173558 0.10757186407473884 0.373547671474303
3 499 500 329 0.23797801147173558 0.10757186407473884 0.373547671474303
3 500 330 329 0.23797801147173558 0.10757186407473884 0.373547671474303
3 329 330 213 0.23797801147173558 0.10757186407473884 0.373547671474303
3 134 135 334 0.23797801147173558 0.10757186407473884 0.373547671474303
3 334 135 335 0.23797801147173558 0.10757186407473884 0.373547671474303
3 334 335 139 0.23797801147173558 0.10757186407473884 0.373547671474303
3 139 138 334 0.23797801147173558 0.10757186407473884 0.373547671474303
3 332 132 133 0.23797801147173558 0.10757186407473884 0.373547671474303
3 428 427 205 0.23797801147173558 0.10757186407473884 0.373547671474303
3 128 306 127 0.23797801147173558 0.10757186407473884 0.373547671474303
3 127 306 305 0.23797801147173558 0.10757186407473884 0.373547671474303
3 127 46 44 0.23797801147173558 0.10757186407473884 0.373547671474303
3 127 305 46 0.23797801147173558 0.10757186407473884 0.373547671474303
3 296 482 43 0.23797801147173558 0.10757186407473884 0.373547671474303
3 460 92 459 0.23797801147173558 0.10757186407473884 0.373547671474303
3 459 88 460 0.23797801147173558 0.10757186407473884 0.373547671474303
3 378 258 259 0.23797801147173558 0.10757186407473884 0.373547671474303
3 259 379 378 0.23797801147173558 0.10757186407473884 0.373547671474303
3 260 379 259 0.23797801147173558 0.10757186407473884 0.373547671474303
3 259 258 462 0.23797801147173558 0.10757186407473884 0.373547671474303
3 378 295 377 0.23797801147173558 0.10757186407473884 0.373547671474303
3 377 258 378 0.23797801147173558 0.10757186407473884 0.373547671474303
3 257 258 377 0.23797801147173558 0.10757186407473884 0.373547671474303
3 477 476 293 0.23797801147173558 0.10757186407473884 0.373547671474303
3 126 375 293 0.23797801147173558 0.10757186407473884 0.373547671474303
3 293 375 376 0.23797801147173558 0.10757186407473884 0.373547671474303
3 390 433 490 0.23797801147173558 0.10757186407473884 0.373547671474303
3 490 433 432 0.23797801147173558 0.10757186407473884 0.373547671474303
3 175 176 145 0.23797801147173558 0.10757186407473884 0.373547671474303
3 175 144 174 0.23797801147173558 0.10757186407473884 0.373547671474303
3 145 144 175 0.23797801147173558 0.10757186407473884 0.373547671474303
3 174 344 175 0.23797801147173558 0.10757186407473884 0.373547671474303
3 422 455 456 0.23797801147173558 0.10757186407473884 0.373547671474303
3 529 468 456 0.23797801147173558 0.10757186407473884 0.373547671474303
3 468 422 456 0.23797801147173558 0.10757186407473884 0.373547671474303
3 456 528 529 0.23797801147173558 0.10757186407473884 0.373547671474303
3 456 455 528 0.23797801147173558 0.10757186407473884 0.373547671474303
3 347 228 348 0.23797801147173558 0.10757186407473884 0.373547671474303
3 348 178 347 0.23797801147173558 0.10757186407473884 0.373547671474303
3 515 528 527 0.23797801147173558 0.10757186407473884 0.373547671474303
3 528 350 527 0.23797801147173558 0.10757186407473884 0.373547671474303
3 527 514 515 0.23797801147173558 0.10757186407473884 0.373547671474303
3 227 397 524 0.23797801147173558 0.10757186407473884 0.373547671474303
3 227 226 397 0.23797801147173558 0.10757186407473884 0.373547671474303
3 524 228 227 0.23797801147173558 0.10757186407473884 0.373547671474303
3 346 226 227 0.23797801147173558 0.10757186407473884 0.373547671474303
3 227 347 346 0.23797801147173558 0.10757186407473884 0.373547671474303
3 227 228 347 0.23797801147173558 0.10757186407473884 0.373547671474303
3 345 226 346 0.23797801147173558 0.10757186407473884 0.373547671474303
3 346 176 345 0.23797801147173558 0.10757186407473884 0.373547671474303
3 345 175 344 0.23797801147173558 0.10757186407473884 0.373547671474303
3 176 175 345 0.23797801147173558 0.10757186407473884 0.373547671474303
3 344 224 225 0.23797801147173558 0.10757186407473884 0.373547671474303
3 225 345 344 0.23797801147173558 0.10757186407473884 0.373547671474303
3 226 345 225 0.23797801147173558 0.10757186407473884 0.373547671474303
3 225 224 396 0.23797801147173558 0.10757186407473884 0.373547671474303
3 396 397 225 0.23797801147173558 0.10757186407473884 0.373547671474303
3 397 226 225 0.23797801147173558 0.10757186407473884 0.373547671474303
3 82 363 364 0.23797801147173558 0.10757186407473884 0.373547671474303
3 364 83 82 0.23797801147173558 0.10757186407473884 0.373547671474303
3 81 363 82 0.23797801147173558 0.10757186407473884 0.373547671474303
3 84 247 246 0.23797801147173558 0.10757186407473884 0.373547671474303
3 246 83 84 0.23797801147173558 0.10757186407473884 0.373547671474303
3 246 85 31 0.23797801147173558 0.10757186407473884 0.373547671474303
3 246 247 85 0.23797801147173558 0.10757186407473884 0.373547671474303
3 463 259 462 0.23797801147173558 0.10757186407473884 0.373547671474303
3 260 259 463 0.23797801147173558 0.10757186407473884 0.373547671474303
3 466 465 370 0.23797801147173558 0.10757186407473884 0.373547671474303
3 466 380 260 0.23797801147173558 0.10757186407473884 0.373547671474303
3 260 465 466 0.23797801147173558 0.10757186407473884 0.373547671474303
3 251 369 252 0.23797801147173558 0.10757186407473884 0.373547671474303
3 251 463 462 0.23797801147173558 0.10757186407473884 0.373547671474303
3 252 463 251 0.23797801147173558 0.10757186407473884 0.373547671474303
3 367 249 366 0.23797801147173558 0.10757186407473884 0.373547671474303
3 250 249 367 0.23797801147173558 0.10757186407473884 0.373547671474303
3 422 369 421 0.23797801147173558 0.10757186407473884 0.373547671474303
3 421 411 422 0.23797801147173558 0.10757186407473884 0.373547671474303
3 15 14 401 0.23797801147173558 0.10757186407473884 0.373547671474303
3 14 102 401 0.23797801147173558 0.10757186407473884 0.373547671474303
3 401 102 402 0.23797801147173558 0.10757186407473884 0.373547671474303
3 402 108 401 0.23797801147173558 0.10757186407473884 0.373547671474303
3 270 180 269 0.23797801147173558 0.10757186407473884 0.373547671474303
3 186 180 270 0.23797801147173558 0.10757186407473884 0.373547671474303
3 279 154 23 0.23797801147173558 0.10757186407473884 0.373547671474303
3 23 154 24 0.23797801147173558 0.10757186407473884 0.373547671474303
3 109 403 272 0.23797801147173558 0.10757186407473884 0.373547671474303
3 402 403 109 0.23797801147173558 0.10757186407473884 0.373547671474303
3 73 74 238 0.23797801147173558 0.10757186407473884 0.373547671474303
3 402 102 103 0.23797801147173558 0.10757186407473884 0.373547671474303
3 103 403 402 0.23797801147173558 0.10757186407473884 0.373547671474303
3 358 409 244 0.23797801147173558 0.10757186407473884 0.373547671474303
3 231 66 67 0.23797801147173558 0.10757186407473884 0.373547671474303
3 112 25 24 0.23797801147173558 0.10757186407473884 0.373547671474303
3 454 411 360 0.23797801147173558 0.10757186407473884 0.373547671474303
3 360 453 454 0.23797801147173558 0.10757186407473884 0.373547671474303
3 359 453 360 0.23797801147173558 0.10757186407473884 0.373547671474303
3 349 453 178 0.23797801147173558 0.10757186407473884 0.373547671474303
3 350 453 349 0.23797801147173558 0.10757186407473884 0.373547671474303
3 178 348 349 0.23797801147173558 0.10757186407473884 0.373547671474303
3 349 348 228 0.23797801147173558 0.10757186407473884 0.373547671474303
3 451 236 235 0.23797801147173558 0.10757186407473884 0.373547671474303
3 235 450 451 0.23797801147173558 0.10757186407473884 0.373547671474303
3 452 236 451 0.23797801147173558 0.10757186407473884 0.373547671474303
3 147 452 451 0.23797801147173558 0.10757186407473884 0.373547671474303
3 451 450 147 0.23797801147173558 0.10757186407473884 0.373547671474303
3 171 213 439 0.23797801147173558 0.10757186407473884 0.373547671474303
3 438 136 135 0.23797801147173558 0.10757186407473884 0.373547671474303
3 170 171 438 0.23797801147173558 0.10757186407473884 0.373547671474303
3 439 136 438 0.23797801147173558 0.10757186407473884 0.373547671474303
3 438 171 439 0.23797801147173558 0.10757186407473884 0.373547671474303
3 134 133 436 0.23797801147173558 0.10757186407473884 0.373547671474303
3 436 133 435 0.23797801147173558 0.10757186407473884 0.373547671474303
3 431 432 322 0.23797801147173558 0.10757186407473884 0.373547671474303
3 321 430 431 0.23797801147173558 0.10757186407473884 0.373547671474303
3 322 500 431 0.23797801147173558 0.10757186407473884 0.373547671474303
3 431 500 321 0.23797801147173558 0.10757186407473884 0.373547671474303
3 503 502 433 0.23797801147173558 0.10757186407473884 0.373547671474303
3 444 443 503 0.23797801147173558 0.10757186407473884 0.373547671474303
3 442 502 503 0.23797801147173558 0.10757186407473884 0.373547671474303
3 503 443 442 0.23797801147173558 0.10757186407473884 0.373547671474303
3 478 492 503 0.23797801147173558 0.10757186407473884 0.373547671474303
3 491 478 503 0.23797801147173558 0.10757186407473884 0.373547671474303
3 503 433 491 0.23797801147173558 0.10757186407473884 0.373547671474303
3 478 295 479 0.23797801147173558 0.10757186407473884 0.373547671474303
3 479 492 478 0.23797801147173558 0.10757186407473884 0.373547671474303
3 479 295 379 0.23797801147173558 0.10757186407473884 0.373547671474303
3 379 380 479 0.23797801147173558 0.10757186407473884 0.373547671474303
3 380 492 479 0.23797801147173558 0.10757186407473884 0.373547671474303
3 501 330 322 0.23797801147173558 0.10757186407473884 0.373547671474303
3 331 330 501 0.23797801147173558 0.10757186407473884 0.373547671474303
3 322 432 501 0.23797801147173558 0.10757186407473884 0.373547671474303
3 501 502 331 0.23797801147173558 0.10757186407473884 0.373547671474303
3 432 502 501 0.23797801147173558 0.10757186407473884 0.373547671474303
3 499 329 328 0.23797801147173558 0.10757186407473884 0.373547671474303
3 211 327 328 0.23797801147173558 0.10757186407473884 0.373547671474303
3 328 498 499 0.23797801147173558 0.10757186407473884 0.373547671474303
3 328 327 498 0.23797801147173558 0.10757186407473884 0.373547671474303
3 333 133 134 0.23797801147173558 0.10757186407473884 0.373547671474303
3 333 332 133 0.23797801147173558 0.10757186407473884 0.373547671474303
3 134 334 333 0.23797801147173558 0.10757186407473884 0.373547671474303
3 333 334 138 0.23797801147173558 0.10757186407473884 0.373547671474303
3 59 132 60 0.23797801147173558 0.10757186407473884 0.373547671474303
3 132 332 60 0.23797801147173558 0.10757186407473884 0.373547671474303
3 332 61 60 0.23797801147173558 0.10757186407473884 0.373547671474303
3 310 311 266 0.23797801147173558 0.10757186407473884 0.373547671474303
3 268 431 430 0.23797801147173558 0.10757186407473884 0.373547671474303
3 204 205 427 0.23797801147173558 0.10757186407473884 0.373547671474303
3 266 205 204 0.23797801147173558 0.10757186407473884 0.373547671474303
3 266 311 267 0.23797801147173558 0.10757186407473884 0.373547671474303
3 267 205 266 0.23797801147173558 0.10757186407473884 0.373547671474303
3 267 311 312 0.23797801147173558 0.10757186407473884 0.373547671474303
3 312 268 267 0.23797801147173558 0.10757186407473884 0.373547671474303
3 262 306 307 0.23797801147173558 0.10757186407473884 0.373547671474303
3 307 306 128 0.23797801147173558 0.10757186407473884 0.373547671474303
3 128 127 481 0.23797801147173558 0.10757186407473884 0.373547671474303
3 481 482 128 0.23797801147173558 0.10757186407473884 0.373547671474303
3 481 43 482 0.23797801147173558 0.10757186407473884 0.373547671474303
3 481 127 44 0.23797801147173558 0.10757186407473884 0.373547671474303
3 44 43 481 0.23797801147173558 0.10757186407473884 0.373547671474303
3 253 34 33 0.23797801147173558 0.10757186407473884 0.373547671474303
3 165 476 475 0.23797801147173558 0.10757186407473884 0.373547671474303
3 125 291 124 0.23797801147173558 0.10757186407473884 0.373547671474303
3 125 373 126 0.23797801147173558 0.10757186407473884 0.373547671474303
3 126 293 292 0.23797801147173558 0.10757186407473884 0.373547671474303
3 292 293 476 0.23797801147173558 0.10757186407473884 0.373547671474303
3 292 125 126 0.23797801147173558 0.10757186407473884 0.373547671474303
3 291 125 292 0.23797801147173558 0.10757186407473884 0.373547671474303
3 476 165 292 0.23797801147173558 0.10757186407473884 0.373547671474303
3 292 165 291 0.23797801147173558 0.10757186407473884 0.373547671474303
3 94 373 93 0.23797801147173558 0.10757186407473884 0.373547671474303
3 94 253 95 0.23797801147173558 0.10757186407473884 0.373547671474303
3 93 34 94 0.23797801147173558 0.10757186407473884 0.373547671474303
3 34 253 94 0.23797801147173558 0.10757186407473884 0.373547671474303
3 93 373 372 0.23797801147173558 0.10757186407473884 0.373547671474303
3 372 125 124 0.23797801147173558 0.10757186407473884 0.373547671474303
3 373 125 372 0.23797801147173558 0.10757186407473884 0.373547671474303
3 256 255 91 0.23797801147173558 0.10757186407473884 0.373547671474303
3 256 92 257 0.23797801147173558 0.10757186407473884 0.373547671474303
3 91 92 256 0.23797801147173558 0.10757186407473884 0.373547671474303
3 91 255 90 0.23797801147173558 0.10757186407473884 0.373547671474303
3 458 91 90 0.23797801147173558 0.10757186407473884 0.373547671474303
3 457 458 90 0.23797801147173558 0.10757186407473884 0.373547671474303
3 461 460 88 0.23797801147173558 0.10757186407473884 0.373547671474303
3 461 88 250 0.23797801147173558 0.10757186407473884 0.373547671474303
3 462 92 461 0.23797801147173558 0.10757186407473884 0.373547671474303
3 92 460 461 0.23797801147173558 0.10757186407473884 0.373547671474303
3 461 251 462 0.23797801147173558 0.10757186407473884 0.373547671474303
3 250 251 461 0.23797801147173558 0.10757186407473884 0.373547671474303
3 95 375 374 0.23797801147173558 0.10757186407473884 0.373547671474303
3 374 94 95 0.23797801147173558 0.10757186407473884 0.373547671474303
3 373 94 374 0.23797801147173558 0.10757186407473884 0.373547671474303
3 126 373 374 0.23797801147173558 0.10757186407473884 0.373547671474303
3 374 375 126 0.23797801147173558 0.10757186407473884 0.373547671474303
3 294 293 376 0.23797801147173558 0.10757186407473884 0.373547671474303
3 294 377 295 0.23797801147173558 0.10757186407473884 0.373547671474303
3 376 377 294 0.23797801147173558 0.10757186407473884 0.373547671474303
3 477 293 294 0.23797801147173558 0.10757186407473884 0.373547671474303
3 294 478 477 0.23797801147173558 0.10757186407473884 0.373547671474303
3 294 295 478 0.23797801147173558 0.10757186407473884 0.373547671474303
3 389 476 390 0.23797801147173558 0.10757186407473884 0.373547671474303
3 390 490 389 0.23797801147173558 0.10757186407473884 0.373547671474303
3 475 476 389 0.23797801147173558 0.10757186407473884 0.373547671474303
3 304 490 432 0.23797801147173558 0.10757186407473884 0.373547671474303
3 304 388 475 0.23797801147173558 0.10757186407473884 0.373547671474303
3 475 389 304 0.23797801147173558 0.10757186407473884 0.373547671474303
3 304 389 490 0.23797801147173558 0.10757186407473884 0.373547671474303
3 81 82 30 0.23797801147173558 0.10757186407473884 0.373547671474303
3 30 29 81 0.23797801147173558 0.10757186407473884 0.373547671474303
3 252 465 464 0.23797801147173558 0.10757186407473884 0.373547671474303
3 464 463 252 0.23797801147173558 0.10757186407473884 0.373547671474303
3 464 465 260 0.23797801147173558 0.10757186407473884 0.373547671474303
3 260 463 464 0.23797801147173558 0.10757186407473884 0.373547671474303
3 467 466 370 0.23797801147173558 0.10757186407473884 0.373547671474303
3 467 422 468 0.23797801147173558 0.10757186407473884 0.373547671474303
3 370 422 467 0.23797801147173558 0.10757186407473884 0.373547671474303
3 467 468 480 0.23797801147173558 0.10757186407473884 0.373547671474303
3 480 380 467 0.23797801147173558 0.10757186407473884 0.373547671474303
3 380 466 467 0.23797801147173558 0.10757186407473884 0.373547671474303
3 368 421 369 0.23797801147173558 0.10757186407473884 0.373547671474303
3 369 251 368 0.23797801147173558 0.10757186407473884 0.373547671474303
3 368 251 250 0.23797801147173558 0.10757186407473884 0.373547671474303
3 250 367 368 0.23797801147173558 0.10757186407473884 0.373547671474303
3 411 421 420 0.23797801147173558 0.10757186407473884 0.373547671474303
3 420 368 367 0.23797801147173558 0.10757186407473884 0.373547671474303
3 421 368 420 0.23797801147173558 0.10757186407473884 0.373547671474303
3 107 269 16 0.23797801147173558 0.10757186407473884 0.373547671474303
3 107 270 269 0.23797801147173558 0.10757186407473884 0.373547671474303
3 107 16 15 0.23797801147173558 0.10757186407473884 0.373547671474303
3 15 401 107 0.23797801147173558 0.10757186407473884 0.373547671474303
3 107 401 108 0.23797801147173558 0.10757186407473884 0.373547671474303
3 108 270 107 0.23797801147173558 0.10757186407473884 0.373547671474303
3 351 73 11 0.23797801147173558 0.10757186407473884 0.373547671474303
3 351 74 73 0.23797801147173558 0.10757186407473884 0.373547671474303
3 11 10 351 0.23797801147173558 0.10757186407473884 0.373547671474303
3 403 103 104 0.23797801147173558 0.10757186407473884 0.373547671474303
3 104 103 238 0.23797801147173558 0.10757186407473884 0.373547671474303
3 237 102 13 0.23797801147173558 0.10757186407473884 0.373547671474303
3 237 103 102 0.23797801147173558 0.10757186407473884 0.373547671474303
3 13 12 237 0.23797801147173558 0.10757186407473884 0.373547671474303
3 238 103 237 0.23797801147173558 0.10757186407473884 0.373547671474303
3 12 73 237 0.23797801147173558 0.10757186407473884 0.373547671474303
3 73 238 237 0.23797801147173558 0.10757186407473884 0.373547671474303
3 277 409 286 0.23797801147173558 0.10757186407473884 0.373547671474303
3 408 244 277 0.23797801147173558 0.10757186407473884 0.373547671474303
3 277 244 409 0.23797801147173558 0.10757186407473884 0.373547671474303
3 418 365 364 0.23797801147173558 0.10757186407473884 0.373547671474303
3 418 121 417 0.23797801147173558 0.10757186407473884 0.373547671474303
3 9 8 229 0.23797801147173558 0.10757186407473884 0.373547671474303
3 229 8 65 0.23797801147173558 0.10757186407473884 0.373547671474303
3 232 67 68 0.23797801147173558 0.10757186407473884 0.373547671474303
3 232 231 67 0.23797801147173558 0.10757186407473884 0.373547671474303
3 362 29 361 0.23797801147173558 0.10757186407473884 0.373547671474303
3 29 28 361 0.23797801147173558 0.10757186407473884 0.373547671474303
3 280 154 279 0.23797801147173558 0.10757186407473884 0.373547671474303
3 279 150 280 0.23797801147173558 0.10757186407473884 0.373547671474303
3 273 184 190 0.23797801147173558 0.10757186407473884 0.373547671474303
3 25 112 113 0.23797801147173558 0.10757186407473884 0.373547671474303
3 113 112 156 0.23797801147173558 0.10757186407473884 0.373547671474303
3 526 228 399 0.23797801147173558 0.10757186407473884 0.373547671474303
3 526 349 228 0.23797801147173558 0.10757186407473884 0.373547671474303
3 514 527 526 0.23797801147173558 0.10757186407473884 0.373547671474303
3 526 527 350 0.23797801147173558 0.10757186407473884 0.373547671474303
3 350 349 526 0.23797801147173558 0.10757186407473884 0.373547671474303
3 399 513 526 0.23797801147173558 0.10757186407473884 0.373547671474303
3 513 514 526 0.23797801147173558 0.10757186407473884 0.373547671474303
3 212 171 170 0.23797801147173558 0.10757186407473884 0.373547671474303
3 212 170 211 0.23797801147173558 0.10757186407473884 0.373547671474303
3 212 329 213 0.23797801147173558 0.10757186407473884 0.373547671474303
3 213 171 212 0.23797801147173558 0.10757186407473884 0.373547671474303
3 211 328 212 0.23797801147173558 0.10757186407473884 0.373547671474303
3 212 328 329 0.23797801147173558 0.10757186407473884 0.373547671474303
3 170 438 437 0.23797801147173558 0.10757186407473884 0.373547671474303
3 437 438 135 0.23797801147173558 0.10757186407473884 0.373547671474303
3 437 135 134 0.23797801147173558 0.10757186407473884 0.373547671474303
3 134 436 437 0.23797801147173558 0.10757186407473884 0.373547671474303
3 211 170 169 0.23797801147173558 0.10757186407473884 0.373547671474303
3 169 210 211 0.23797801147173558 0.10757186407473884 0.373547671474303
3 170 437 169 0.23797801147173558 0.10757186407473884 0.373547671474303
3 169 437 436 0.23797801147173558 0.10757186407473884 0.373547671474303
3 313 268 312 0.23797801147173558 0.10757186407473884 0.373547671474303
3 431 268 313 0.23797801147173558 0.10757186407473884 0.373547671474303
3 432 431 313 0.23797801147173558 0.10757186407473884 0.373547671474303
3 313 304 432 0.23797801147173558 0.10757186407473884 0.373547671474303
3 444 503 504 0.23797801147173558 0.10757186407473884 0.373547671474303
3 504 503 492 0.23797801147173558 0.10757186407473884 0.373547671474303
3 504 492 480 0.23797801147173558 0.10757186407473884 0.373547671474303
3 480 516 504 0.23797801147173558 0.10757186407473884 0.373547671474303
3 515 444 504 0.23797801147173558 0.10757186407473884 0.373547671474303
3 504 516 515 0.23797801147173558 0.10757186407473884 0.373547671474303
3 137 61 332 0.23797801147173558 0.10757186407473884 0.373547671474303
3 137 333 138 0.23797801147173558 0.10757186407473884 0.373547671474303
3 332 333 137 0.23797801147173558 0.10757186407473884 0.373547671474303
3 137 138 505 0.23797801147173558 0.10757186407473884 0.373547671474303
3 137 505 62 0.23797801147173558 0.10757186407473884 0.373547671474303
3 62 61 137 0.23797801147173558 0.10757186407473884 0.373547671474303
3 311 310 486 0.23797801147173558 0.10757186407473884 0.373547671474303
3 486 300 311 0.23797801147173558 0.10757186407473884 0.373547671474303
3 486 383 300 0.23797801147173558 0.10757186407473884 0.373547671474303
3 426 204 427 0.23797801147173558 0.10757186407473884 0.373547671474303
3 426 315 425 0.23797801147173558 0.10757186407473884 0.373547671474303
3 316 315 426 0.23797801147173558 0.10757186407473884 0.373547671474303
3 426 427 317 0.23797801147173558 0.10757186407473884 0.373547671474303
3 317 316 426 0.23797801147173558 0.10757186407473884 0.373547671474303
3 202 425 424 0.23797801147173558 0.10757186407473884 0.373547671474303
3 424 201 202 0.23797801147173558 0.10757186407473884 0.373547671474303
3 205 267 206 0.23797801147173558 0.10757186407473884 0.373547671474303
3 206 429 428 0.23797801147173558 0.10757186407473884 0.373547671474303
3 428 205 206 0.23797801147173558 0.10757186407473884 0.373547671474303
3 206 267 268 0.23797801147173558 0.10757186407473884 0.373547671474303
3 206 430 429 0.23797801147173558 0.10757186407473884 0.373547671474303
3 206 268 430 0.23797801147173558 0.10757186407473884 0.373547671474303
3 296 43 42 0.23797801147173558 0.10757186407473884 0.373547671474303
3 483 296 42 0.23797801147173558 0.10757186407473884 0.373547671474303
3 308 307 129 0.23797801147173558 0.10757186407473884 0.373547671474303
3 129 296 483 0.23797801147173558 0.10757186407473884 0.373547671474303
3 129 482 296 0.23797801147173558 0.10757186407473884 0.373547671474303
3 128 482 129 0.23797801147173558 0.10757186407473884 0.373547671474303
3 129 307 128 0.23797801147173558 0.10757186407473884 0.373547671474303
3 95 253 254 0.23797801147173558 0.10757186407473884 0.373547671474303
3 254 90 255 0.23797801147173558 0.10757186407473884 0.373547671474303
3 93 372 35 0.23797801147173558 0.10757186407473884 0.373547671474303
3 35 34 93 0.23797801147173558 0.10757186407473884 0.373547671474303
3 96 256 257 0.23797801147173558 0.10757186407473884 0.373547671474303
3 257 377 96 0.23797801147173558 0.10757186407473884 0.373547671474303
3 96 377 376 0.23797801147173558 0.10757186407473884 0.373547671474303
3 96 375 95 0.23797801147173558 0.10757186407473884 0.373547671474303
3 376 375 96 0.23797801147173558 0.10757186407473884 0.373547671474303
3 255 256 96 0.23797801147173558 0.10757186407473884 0.373547671474303
3 95 254 96 0.23797801147173558 0.10757186407473884 0.373547671474303
3 96 254 255 0.23797801147173558 0.10757186407473884 0.373547671474303
3 245 30 82 0.23797801147173558 0.10757186407473884 0.373547671474303
3 245 82 83 0.23797801147173558 0.10757186407473884 0.373547671474303
3 83 246 245 0.23797801147173558 0.10757186407473884 0.373547671474303
3 245 246 31 0.23797801147173558 0.10757186407473884 0.373547671474303
3 31 30 245 0.23797801147173558 0.10757186407473884 0.373547671474303
3 419 418 286 0.23797801147173558 0.10757186407473884 0.373547671474303
3 419 367 366 0.23797801147173558 0.10757186407473884 0.373547671474303
3 419 420 367 0.23797801147173558 0.10757186407473884 0.373547671474303
3 366 365 419 0.23797801147173558 0.10757186407473884 0.373547671474303
3 365 418 419 0.23797801147173558 0.10757186407473884 0.373547671474303
3 286 409 410 0.23797801147173558 0.10757186407473884 0.373547671474303
3 410 419 286 0.23797801147173558 0.10757186407473884 0.373547671474303
3 420 419 410 0.23797801147173558 0.10757186407473884 0.373547671474303
3 411 420 410 0.23797801147173558 0.10757186407473884 0.373547671474303
3 410 358 359 0.23797801147173558 0.10757186407473884 0.373547671474303
3 410 409 358 0.23797801147173558 0.10757186407473884 0.373547671474303
3 359 360 410 0.23797801147173558 0.10757186407473884 0.373547671474303
3 410 360 411 0.23797801147173558 0.10757186407473884 0.373547671474303
3 271 108 402 0.23797801147173558 0.10757186407473884 0.373547671474303
3 402 109 271 0.23797801147173558 0.10757186407473884 0.373547671474303
3 149 188 150 0.23797801147173558 0.10757186407473884 0.373547671474303
3 404 104 239 0.23797801147173558 0.10757186407473884 0.373547671474303
3 239 238 74 0.23797801147173558 0.10757186407473884 0.373547671474303
3 239 104 238 0.23797801147173558 0.10757186407473884 0.373547671474303
3 74 351 352 0.23797801147173558 0.10757186407473884 0.373547671474303
3 80 363 362 0.23797801147173558 0.10757186407473884 0.373547671474303
3 364 363 80 0.23797801147173558 0.10757186407473884 0.373547671474303
3 80 418 364 0.23797801147173558 0.10757186407473884 0.373547671474303
3 121 418 80 0.23797801147173558 0.10757186407473884 0.373547671474303
3 408 277 276 0.23797801147173558 0.10757186407473884 0.373547671474303
3 232 356 355 0.23797801147173558 0.10757186407473884 0.373547671474303
3 183 280 189 0.23797801147173558 0.10757186407473884 0.373547671474303
3 189 280 150 0.23797801147173558 0.10757186407473884 0.373547671474303
3 272 183 189 0.23797801147173558 0.10757186407473884 0.373547671474303
3 151 280 183 0.23797801147173558 0.10757186407473884 0.373547671474303
3 151 273 190 0.23797801147173558 0.10757186407473884 0.373547671474303
3 183 273 151 0.23797801147173558 0.10757186407473884 0.373547671474303
3 156 280 151 0.23797801147173558 0.10757186407473884 0.373547671474303
3 156 112 155 0.23797801147173558 0.10757186407473884 0.373547671474303
3 155 280 156 0.23797801147173558 0.10757186407473884 0.373547671474303
3 155 112 24 0.23797801147173558 0.10757186407473884 0.373547671474303
3 24 154 155 0.23797801147173558 0.10757186407473884 0.373547671474303
3 154 280 155 0.23797801147173558 0.10757186407473884 0.373547671474303
3 110 273 183 0.23797801147173558 0.10757186407473884 0.373547671474303
3 272 403 110 0.23797801147173558 0.10757186407473884 0.373547671474303
3 110 183 272 0.23797801147173558 0.10757186407473884 0.373547671474303
3 404 273 110 0.23797801147173558 0.10757186407473884 0.373547671474303
3 110 104 404 0.23797801147173558 0.10757186407473884 0.373547671474303
3 403 104 110 0.23797801147173558 0.10757186407473884 0.373547671474303
3 210 169 168 0.23797801147173558 0.10757186407473884 0.373547671474303
3 168 167 209 0.23797801147173558 0.10757186407473884 0.373547671474303
3 209 210 168 0.23797801147173558 0.10757186407473884 0.373547671474303
3 435 167 168 0.23797801147173558 0.10757186407473884 0.373547671474303
3 168 436 435 0.23797801147173558 0.10757186407473884 0.373547671474303
3 168 169 436 0.23797801147173558 0.10757186407473884 0.373547671474303
3 485 298 382 0.23797801147173558 0.10757186407473884 0.373547671474303
3 383 486 299 0.23797801147173558 0.10757186407473884 0.373547671474303
3 485 382 299 0.23797801147173558 0.10757186407473884 0.373547671474303
3 299 310 485 0.23797801147173558 0.10757186407473884 0.373547671474303
3 299 486 310 0.23797801147173558 0.10757186407473884 0.373547671474303
3 311 300 487 0.23797801147173558 0.10757186407473884 0.373547671474303
3 312 311 487 0.23797801147173558 0.10757186407473884 0.373547671474303
3 487 302 312 0.23797801147173558 0.10757186407473884 0.373547671474303
3 130 309 308 0.23797801147173558 0.10757186407473884 0.373547671474303
3 130 129 483 0.23797801147173558 0.10757186407473884 0.373547671474303
3 308 129 130 0.23797801147173558 0.10757186407473884 0.373547671474303
3 204 426 203 0.23797801147173558 0.10757186407473884 0.373547671474303
3 203 426 425 0.23797801147173558 0.10757186407473884 0.373547671474303
3 425 202 203 0.23797801147173558 0.10757186407473884 0.373547671474303
3 263 201 262 0.23797801147173558 0.10757186407473884 0.373547671474303
3 263 202 201 0.23797801147173558 0.10757186407473884 0.373547671474303
3 262 307 263 0.23797801147173558 0.10757186407473884 0.373547671474303
3 263 307 308 0.23797801147173558 0.10757186407473884 0.373547671474303
3 484 298 131 0.23797801147173558 0.10757186407473884 0.373547671474303
3 131 130 484 0.23797801147173558 0.10757186407473884 0.373547671474303
3 309 130 131 0.23797801147173558 0.10757186407473884 0.373547671474303
3 131 298 485 0.23797801147173558 0.10757186407473884 0.373547671474303
3 485 310 131 0.23797801147173558 0.10757186407473884 0.373547671474303
3 310 309 131 0.23797801147173558 0.10757186407473884 0.373547671474303
3 483 42 297 0.23797801147173558 0.10757186407473884 0.373547671474303
3 297 130 483 0.23797801147173558 0.10757186407473884 0.373547671474303
3 484 130 297 0.23797801147173558 0.10757186407473884 0.373547671474303
3 90 254 89 0.23797801147173558 0.10757186407473884 0.373547671474303
3 457 90 89 0.23797801147173558 0.10757186407473884 0.373547671474303
3 89 253 33 0.23797801147173558 0.10757186407473884 0.373547671474303
3 89 254 253 0.23797801147173558 0.10757186407473884 0.373547671474303
3 33 32 89 0.23797801147173558 0.10757186407473884 0.373547671474303
3 32 457 89 0.23797801147173558 0.10757186407473884 0.373547671474303
3 36 35 371 0.23797801147173558 0.10757186407473884 0.373547671474303
3 371 35 372 0.23797801147173558 0.10757186407473884 0.373547671474303
3 371 372 124 0.23797801147173558 0.10757186407473884 0.373547671474303
3 124 123 371 0.23797801147173558 0.10757186407473884 0.373547671474303
3 371 123 36 0.23797801147173558 0.10757186407473884 0.373547671474303
3 182 109 272 0.23797801147173558 0.10757186407473884 0.373547671474303
3 182 271 109 0.23797801147173558 0.10757186407473884 0.373547671474303
3 188 271 182 0.23797801147173558 0.10757186407473884 0.373547671474303
3 272 189 182 0.23797801147173558 0.10757186407473884 0.373547671474303
3 150 188 182 0.23797801147173558 0.10757186407473884 0.373547671474303
3 182 189 150 0.23797801147173558 0.10757186407473884 0.373547671474303
3 111 273 404 0.23797801147173558 0.10757186407473884 0.373547671474303
3 184 273 111 0.23797801147173558 0.10757186407473884 0.373547671474303
3 105 239 240 0.23797801147173558 0.10757186407473884 0.373547671474303
3 240 405 105 0.23797801147173558 0.10757186407473884 0.373547671474303
3 404 239 105 0.23797801147173558 0.10757186407473884 0.373547671474303
3 105 111 404 0.23797801147173558 0.10757186407473884 0.373547671474303
3 405 111 105 0.23797801147173558 0.10757186407473884 0.373547671474303
3 106 405 240 0.23797801147173558 0.10757186407473884 0.373547671474303
3 75 239 74 0.23797801147173558 0.10757186407473884 0.373547671474303
3 74 352 75 0.23797801147173558 0.10757186407473884 0.373547671474303
3 240 239 75 0.23797801147173558 0.10757186407473884 0.373547671474303
3 69 351 10 0.23797801147173558 0.10757186407473884 0.373547671474303
3 69 352 351 0.23797801147173558 0.10757186407473884 0.373547671474303
3 69 10 9 0.23797801147173558 0.10757186407473884 0.373547671474303
3 9 229 69 0.23797801147173558 0.10757186407473884 0.373547671474303
3 231 232 72 0.23797801147173558 0.10757186407473884 0.373547671474303
3 232 355 72 0.23797801147173558 0.10757186407473884 0.373547671474303
3 285 276 277 0.23797801147173558 0.10757186407473884 0.373547671474303
3 285 418 417 0.23797801147173558 0.10757186407473884 0.373547671474303
3 285 277 286 0.23797801147173558 0.10757186407473884 0.373547671474303
3 286 418 285 0.23797801147173558 0.10757186407473884 0.373547671474303
3 406 106 241 0.23797801147173558 0.10757186407473884 0.373547671474303
3 406 185 405 0.23797801147173558 0.10757186407473884 0.373547671474303
3 405 106 406 0.23797801147173558 0.10757186407473884 0.373547671474303
3 283 276 159 0.23797801147173558 0.10757186407473884 0.373547671474303
3 234 356 233 0.23797801147173558 0.10757186407473884 0.373547671474303
3 233 356 232 0.23797801147173558 0.10757186407473884 0.373547671474303
3 68 234 233 0.23797801147173558 0.10757186407473884 0.373547671474303
3 233 232 68 0.23797801147173558 0.10757186407473884 0.373547671474303
3 357 356 234 0.23797801147173558 0.10757186407473884 0.373547671474303
3 358 244 357 0.23797801147173558 0.10757186407473884 0.373547671474303
3 234 235 357 0.23797801147173558 0.10757186407473884 0.373547671474303
3 357 235 358 0.23797801147173558 0.10757186407473884 0.373547671474303
3 243 244 408 0.23797801147173558 0.10757186407473884 0.373547671474303
3 243 357 244 0.23797801147173558 0.10757186407473884 0.373547671474303
3 356 357 243 0.23797801147173558 0.10757186407473884 0.373547671474303
3 388 304 489 0.23797801147173558 0.10757186407473884 0.373547671474303
3 304 313 489 0.23797801147173558 0.10757186407473884 0.373547671474303
3 488 313 312 0.23797801147173558 0.10757186407473884 0.373547671474303
3 312 302 488 0.23797801147173558 0.10757186407473884 0.373547671474303
3 291 165 290 0.23797801147173558 0.10757186407473884 0.373547671474303
3 124 291 290 0.23797801147173558 0.10757186407473884 0.373547671474303
3 290 123 124 0.23797801147173558 0.10757186407473884 0.373547671474303
3 290 289 123 0.23797801147173558 0.10757186407473884 0.373547671474303
3 388 489 199 0.23797801147173558 0.10757186407473884 0.373547671474303
3 475 388 199 0.23797801147173558 0.10757186407473884 0.373547671474303
3 193 382 41 0.23797801147173558 0.10757186407473884 0.373547671474303
3 41 40 193 0.23797801147173558 0.10757186407473884 0.373547671474303
3 383 299 193 0.23797801147173558 0.10757186407473884 0.373547671474303
3 193 299 382 0.23797801147173558 0.10757186407473884 0.373547671474303
3 300 383 194 0.23797801147173558 0.10757186407473884 0.373547671474303
3 383 193 194 0.23797801147173558 0.10757186407473884 0.373547671474303
3 194 193 40 0.23797801147173558 0.10757186407473884 0.373547671474303
3 39 38 160 0.23797801147173558 0.10757186407473884 0.373547671474303
3 385 302 301 0.23797801147173558 0.10757186407473884 0.373547671474303
3 302 487 301 0.23797801147173558 0.10757186407473884 0.373547671474303
3 204 203 265 0.23797801147173558 0.10757186407473884 0.373547671474303
3 266 204 265 0.23797801147173558 0.10757186407473884 0.373547671474303
3 265 310 266 0.23797801147173558 0.10757186407473884 0.373547671474303
3 265 309 310 0.23797801147173558 0.10757186407473884 0.373547671474303
3 381 297 42 0.23797801147173558 0.10757186407473884 0.373547671474303
3 381 42 41 0.23797801147173558 0.10757186407473884 0.373547671474303
3 381 298 484 0.23797801147173558 0.10757186407473884 0.373547671474303
3 484 297 381 0.23797801147173558 0.10757186407473884 0.373547671474303
3 41 382 381 0.23797801147173558 0.10757186407473884 0.373547671474303
3 381 382 298 0.23797801147173558 0.10757186407473884 0.373547671474303
3 23 22 278 0.23797801147173558 0.10757186407473884 0.373547671474303
3 278 22 149 0.23797801147173558 0.10757186407473884 0.373547671474303
3 279 23 278 0.23797801147173558 0.10757186407473884 0.373547671474303
3 278 150 279 0.23797801147173558 0.10757186407473884 0.373547671474303
3 278 149 150 0.23797801147173558 0.10757186407473884 0.373547671474303
3 21 20 186 0.23797801147173558 0.10757186407473884 0.373547671474303
3 188 149 148 0.23797801147173558 0.10757186407473884 0.373547671474303
3 149 22 148 0.23797801147173558 0.10757186407473884 0.373547671474303
3 22 21 148 0.23797801147173558 0.10757186407473884 0.373547671474303
3 70 69 229 0.23797801147173558 0.10757186407473884 0.373547671474303
3 352 69 70 0.23797801147173558 0.10757186407473884 0.373547671474303
3 190 184 281 0.23797801147173558 0.10757186407473884 0.373547671474303
3 184 152 281 0.23797801147173558 0.10757186407473884 0.373547671474303
3 281 151 190 0.23797801147173558 0.10757186407473884 0.373547671474303
3 156 151 281 0.23797801147173558 0.10757186407473884 0.373547671474303
3 156 281 157 0.23797801147173558 0.10757186407473884 0.373547671474303
3 157 281 152 0.23797801147173558 0.10757186407473884 0.373547671474303
3 157 113 156 0.23797801147173558 0.10757186407473884 0.373547671474303
3 152 191 157 0.23797801147173558 0.10757186407473884 0.373547671474303
3 25 113 412 0.23797801147173558 0.10757186407473884 0.373547671474303
3 121 80 79 0.23797801147173558 0.10757186407473884 0.373547671474303
3 79 120 121 0.23797801147173558 0.10757186407473884 0.373547671474303
3 79 80 362 0.23797801147173558 0.10757186407473884 0.373547671474303
3 362 361 79 0.23797801147173558 0.10757186407473884 0.373547671474303
3 283 159 116 0.23797801147173558 0.10757186407473884 0.373547671474303
3 415 115 116 0.23797801147173558 0.10757186407473884 0.373547671474303
3 276 285 284 0.23797801147173558 0.10757186407473884 0.373547671474303
3 284 159 276 0.23797801147173558 0.10757186407473884 0.373547671474303
3 284 285 417 0.23797801147173558 0.10757186407473884 0.373547671474303
3 242 355 356 0.23797801147173558 0.10757186407473884 0.373547671474303
3 356 243 242 0.23797801147173558 0.10757186407473884 0.373547671474303
3 242 406 241 0.23797801147173558 0.10757186407473884 0.373547671474303
3 303 489 313 0.23797801147173558 0.10757186407473884 0.373547671474303
3 313 488 303 0.23797801147173558 0.10757186407473884 0.373547671474303
3 303 488 387 0.23797801147173558 0.10757186407473884 0.373547671474303
3 303 199 489 0.23797801147173558 0.10757186407473884 0.373547671474303
3 197 471 472 0.23797801147173558 0.10757186407473884 0.373547671474303
3 288 162 287 0.23797801147173558 0.10757186407473884 0.373547671474303
3 287 37 288 0.23797801147173558 0.10757186407473884 0.373547671474303
3 38 37 287 0.23797801147173558 0.10757186407473884 0.373547671474303
3 36 123 122 0.23797801147173558 0.10757186407473884 0.373547671474303
3 122 37 36 0.23797801147173558 0.10757186407473884 0.373547671474303
3 123 289 122 0.23797801147173558 0.10757186407473884 0.373547671474303
3 122 289 288 0.23797801147173558 0.10757186407473884 0.373547671474303
3 288 37 122 0.23797801147173558 0.10757186407473884 0.373547671474303
3 288 289 163 0.23797801147173558 0.10757186407473884 0.373547671474303
3 163 162 288 0.23797801147173558 0.10757186407473884 0.373547671474303
3 470 196 385 0.23797801147173558 0.10757186407473884 0.373547671474303
3 39 160 470 0.23797801147173558 0.10757186407473884 0.373547671474303
3 471 196 470 0.23797801147173558 0.10757186407473884 0.373547671474303
3 470 160 471 0.23797801147173558 0.10757186407473884 0.373547671474303
3 386 302 385 0.23797801147173558 0.10757186407473884 0.373547671474303
3 385 196 386 0.23797801147173558 0.10757186407473884 0.373547671474303
3 386 488 302 0.23797801147173558 0.10757186407473884 0.373547671474303
3 386 471 197 0.23797801147173558 0.10757186407473884 0.373547671474303
3 386 196 471 0.23797801147173558 0.10757186407473884 0.373547671474303
3 197 387 386 0.23797801147173558 0.10757186407473884 0.373547671474303
3 387 488 386 0.23797801147173558 0.10757186407473884 0.373547671474303
3 385 301 195 0.23797801147173558 0.10757186407473884 0.373547671474303
3 195 470 385 0.23797801147173558 0.10757186407473884 0.373547671474303
3 264 265 203 0.23797801147173558 0.10757186407473884 0.373547671474303
3 264 263 308 0.23797801147173558 0.10757186407473884 0.373547671474303
3 308 309 264 0.23797801147173558 0.10757186407473884 0.373547671474303
3 309 265 264 0.23797801147173558 0.10757186407473884 0.373547671474303
3 264 203 202 0.23797801147173558 0.10757186407473884 0.373547671474303
3 202 263 264 0.23797801147173558 0.10757186407473884 0.373547671474303
3 181 271 188 0.23797801147173558 0.10757186407473884 0.373547671474303
3 181 270 108 0.23797801147173558 0.10757186407473884 0.373547671474303
3 108 271 181 0.23797801147173558 0.10757186407473884 0.373547671474303
3 186 270 181 0.23797801147173558 0.10757186407473884 0.373547671474303
3 274 152 184 0.23797801147173558 0.10757186407473884 0.373547671474303
3 274 191 152 0.23797801147173558 0.10757186407473884 0.373547671474303
3 184 111 274 0.23797801147173558 0.10757186407473884 0.373547671474303
3 274 111 405 0.23797801147173558 0.10757186407473884 0.373547671474303
3 405 185 274 0.23797801147173558 0.10757186407473884 0.373547671474303
3 185 191 274 0.23797801147173558 0.10757186407473884 0.373547671474303
3 230 70 229 0.23797801147173558 0.10757186407473884 0.373547671474303
3 230 229 65 0.23797801147173558 0.10757186407473884 0.373547671474303
3 65 66 230 0.23797801147173558 0.10757186407473884 0.373547671474303
3 66 231 230 0.23797801147173558 0.10757186407473884 0.373547671474303
3 353 75 352 0.23797801147173558 0.10757186407473884 0.373547671474303
3 352 70 353 0.23797801147173558 0.10757186407473884 0.373547671474303
3 185 406 275 0.23797801147173558 0.10757186407473884 0.373547671474303
3 282 157 191 0.23797801147173558 0.10757186407473884 0.373547671474303
3 282 191 185 0.23797801147173558 0.10757186407473884 0.373547671474303
3 185 153 282 0.23797801147173558 0.10757186407473884 0.373547671474303
3 115 157 282 0.23797801147173558 0.10757186407473884 0.373547671474303
3 26 412 413 0.23797801147173558 0.10757186407473884 0.373547671474303
3 25 412 26 0.23797801147173558 0.10757186407473884 0.373547671474303
3 413 412 114 0.23797801147173558 0.10757186407473884 0.373547671474303
3 114 115 413 0.23797801147173558 0.10757186407473884 0.373547671474303
3 114 157 115 0.23797801147173558 0.10757186407473884 0.373547671474303
3 113 157 114 0.23797801147173558 0.10757186407473884 0.373547671474303
3 114 412 113 0.23797801147173558 0.10757186407473884 0.373547671474303
3 78 361 28 0.23797801147173558 0.10757186407473884 0.373547671474303
3 78 79 361 0.23797801147173558 0.10757186407473884 0.373547671474303
3 120 79 78 0.23797801147173558 0.10757186407473884 0.373547671474303
3 283 116 158 0.23797801147173558 0.10757186407473884 0.373547671474303
3 158 116 115 0.23797801147173558 0.10757186407473884 0.373547671474303
3 158 282 153 0.23797801147173558 0.10757186407473884 0.373547671474303
3 115 282 158 0.23797801147173558 0.10757186407473884 0.373547671474303
3 416 116 159 0.23797801147173558 0.10757186407473884 0.373547671474303
3 159 284 416 0.23797801147173558 0.10757186407473884 0.373547671474303
3 416 120 415 0.23797801147173558 0.10757186407473884 0.373547671474303
3 415 116 416 0.23797801147173558 0.10757186407473884 0.373547671474303
3 416 284 417 0.23797801147173558 0.10757186407473884 0.373547671474303
3 417 121 416 0.23797801147173558 0.10757186407473884 0.373547671474303
3 121 120 416 0.23797801147173558 0.10757186407473884 0.373547671474303
3 406 242 407 0.23797801147173558 0.10757186407473884 0.373547671474303
3 276 275 407 0.23797801147173558 0.10757186407473884 0.373547671474303
3 407 275 406 0.23797801147173558 0.10757186407473884 0.373547671474303
3 407 242 243 0.23797801147173558 0.10757186407473884 0.373547671474303
3 408 276 407 0.23797801147173558 0.10757186407473884 0.373547671474303
3 407 243 408 0.23797801147173558 0.10757186407473884 0.373547671474303
3 473 472 162 0.23797801147173558 0.10757186407473884 0.373547671474303
3 162 163 473 0.23797801147173558 0.10757186407473884 0.373547671474303
3 162 472 161 0.23797801147173558 0.10757186407473884 0.373547671474303
3 38 287 161 0.23797801147173558 0.10757186407473884 0.373547671474303
3 161 287 162 0.23797801147173558 0.10757186407473884 0.373547671474303
3 161 472 471 0.23797801147173558 0.10757186407473884 0.373547671474303
3 161 160 38 0.23797801147173558 0.10757186407473884 0.373547671474303
3 471 160 161 0.23797801147173558 0.10757186407473884 0.373547671474303
3 289 290 164 0.23797801147173558 0.10757186407473884 0.373547671474303
3 164 163 289 0.23797801147173558 0.10757186407473884 0.373547671474303
3 164 290 165 0.23797801147173558 0.10757186407473884 0.373547671474303
3 164 165 475 0.23797801147173558 0.10757186407473884 0.373547671474303
3 384 195 301 0.23797801147173558 0.10757186407473884 0.373547671474303
3 384 487 300 0.23797801147173558 0.10757186407473884 0.373547671474303
3 384 301 487 0.23797801147173558 0.10757186407473884 0.373547671474303
3 300 194 384 0.23797801147173558 0.10757186407473884 0.373547671474303
3 194 195 384 0.23797801147173558 0.10757186407473884 0.373547671474303
3 39 470 469 0.23797801147173558 0.10757186407473884 0.373547671474303
3 470 195 469 0.23797801147173558 0.10757186407473884 0.373547671474303
3 469 40 39 0.23797801147173558 0.10757186407473884 0.373547671474303
3 469 194 40 0.23797801147173558 0.10757186407473884 0.373547671474303
3 469 195 194 0.23797801147173558 0.10757186407473884 0.373547671474303
3 188 148 187 0.23797801147173558 0.10757186407473884 0.373547671474303
3 187 181 188 0.23797801147173558 0.10757186407473884 0.373547671474303
3 187 148 21 0.23797801147173558 0.10757186407473884 0.373547671474303
3 187 21 186 0.23797801147173558 0.10757186407473884 0.373547671474303
3 186 181 187 0.23797801147173558 0.10757186407473884 0.373547671474303
3 240 75 76 0.23797801147173558 0.10757186407473884 0.373547671474303
3 75 353 76 0.23797801147173558 0.10757186407473884 0.373547671474303
3 241 106 76 0.23797801147173558 0.10757186407473884 0.373547671474303
3 76 106 240 0.23797801147173558 0.10757186407473884 0.373547671474303
3 70 230 71 0.23797801147173558 0.10757186407473884 0.373547671474303
3 71 353 70 0.23797801147173558 0.10757186407473884 0.373547671474303
3 231 72 71 0.23797801147173558 0.10757186407473884 0.373547671474303
3 71 230 231 0.23797801147173558 0.10757186407473884 0.373547671474303
3 192 153 185 0.23797801147173558 0.10757186407473884 0.373547671474303
3 185 275 192 0.23797801147173558 0.10757186407473884 0.373547671474303
3 283 158 192 0.23797801147173558 0.10757186407473884 0.373547671474303
3 192 158 153 0.23797801147173558 0.10757186407473884 0.373547671474303
3 192 276 283 0.23797801147173558 0.10757186407473884 0.373547671474303
3 192 275 276 0.23797801147173558 0.10757186407473884 0.373547671474303
3 413 115 414 0.23797801147173558 0.10757186407473884 0.373547671474303
3 414 115 415 0.23797801147173558 0.10757186407473884 0.373547671474303
3 415 118 414 0.23797801147173558 0.10757186407473884 0.373547671474303
3 27 118 77 0.23797801147173558 0.10757186407473884 0.373547671474303
3 28 27 77 0.23797801147173558 0.10757186407473884 0.373547671474303
3 77 78 28 0.23797801147173558 0.10757186407473884 0.373547671474303
3 415 120 119 0.23797801147173558 0.10757186407473884 0.373547671474303
3 120 78 119 0.23797801147173558 0.10757186407473884 0.373547671474303
3 78 77 119 0.23797801147173558 0.10757186407473884 0.373547671474303
3 119 118 415 0.23797801147173558 0.10757186407473884 0.373547671474303
3 119 77 118 0.23797801147173558 0.10757186407473884 0.373547671474303
3 472 473 198 0.23797801147173558 0.10757186407473884 0.373547671474303
3 198 387 197 0.23797801147173558 0.10757186407473884 0.373547671474303
3 197 472 198 0.23797801147173558 0.10757186407473884 0.373547671474303
3 198 473 199 0.23797801147173558 0.10757186407473884 0.373547671474303
3 198 303 387 0.23797801147173558 0.10757186407473884 0.373547671474303
3 199 303 198 0.23797801147173558 0.10757186407473884 0.373547671474303
3 163 164 474 0.23797801147173558 0.10757186407473884 0.373547671474303
3 199 473 474 0.23797801147173558 0.10757186407473884 0.373547671474303
3 474 473 163 0.23797801147173558 0.10757186407473884 0.373547671474303
3 475 199 474 0.23797801147173558 0.10757186407473884 0.373547671474303
3 474 164 475 0.23797801147173558 0.10757186407473884 0.373547671474303
3 354 76 353 0.23797801147173558 0.10757186407473884 0.373547671474303
3 353 71 354 0.23797801147173558 0.10757186407473884 0.373547671474303
3 354 71 72 0.23797801147173558 0.10757186407473884 0.373547671474303
3 354 72 355 0.23797801147173558 0.10757186407473884 0.373547671474303
3 241 76 354 0.23797801147173558 0.10757186407473884 0.373547671474303
3 354 242 241 0.23797801147173558 0.10757186407473884 0.373547671474303
3 355 242 354 0.23797801147173558 0.10757186407473884 0.373547671474303
3 413 414 117 0.23797801147173558 0.10757186407473884 0.373547671474303
3 117 414 118 0.23797801147173558 0.10757186407473884 0.373547671474303
3 117 118 27 0.23797801147173558 0.10757186407473884 0.373547671474303
3 117 26 413 0.23797801147173558 0.10757186407473884 0.373547671474303
3 27 26 117 0.23797801147173558 0.10757186407473884 0.373547671474303
