OFF
22 24 0


26.9709 33.142 8.4787
26.9709 33.142 8.4787
26.97 33.1411 8.4788
26.9709 33.142 8.4787
26.9709 33.142 8.4787
27.0762 33.2192 8.5472
27.181 33.2962 8.6164
27.181 33.2962 8.6164
27.0898 33.2091 8.6084
27.0231 33.1464 8.6008
26.9561 33.0842 8.5918
26.8636 32.9994 8.5773
26.9163 33.0697 8.5279
26.9691 33.1401 8.4789
26.9919 33.1506 8.5101
27.0446 33.1893 8.5439
27.0995 33.2297 8.5797
27.0518 33.1845 8.5752
26.9844 33.1217 8.5661
26.9396 33.0807 8.5585
26.991 33.1496 8.5102
27.0124 33.1589 8.5407
3 10 19 11 0.09908423909035802 0.338077140868387 0.4255590630872831
3 9 18 10 0.09908423909035802 0.338077140868387 0.4255590630872831
3 10 18 19 0.09908423909035802 0.338077140868387 0.4255590630872831
3 11 19 12 0.09908423909035802 0.338077140868387 0.4255590630872831
3 12 19 13 0.09908423909035802 0.338077140868387 0.4255590630872831
3 21 18 9 0.09908423909035802 0.338077140868387 0.4255590630872831
3 6 5 16 0.09908423909035802 0.338077140868387 0.4255590630872831
3 16 8 6 0.09908423909035802 0.338077140868387 0.4255590630872831
3 17 21 9 0.09908423909035802 0.338077140868387 0.4255590630872831
3 9 8 17 0.09908423909035802 0.338077140868387 0.4255590630872831
3 17 16 5 0.09908423909035802 0.338077140868387 0.4255590630872831
3 8 16 17 0.09908423909035802 0.338077140868387 0.4255590630872831
3 18 21 20 0.09908423909035802 0.338077140868387 0.4255590630872831
3 13 19 20 0.09908423909035802 0.338077140868387 0.4255590630872831
3 19 18 20 0.09908423909035802 0.338077140868387 0.4255590630872831
3 20 2 13 0.09908423909035802 0.338077140868387 0.4255590630872831
3 0 2 20 0.09908423909035802 0.338077140868387 0.4255590630872831
3 15 17 5 0.09908423909035802 0.338077140868387 0.4255590630872831
3 21 17 15 0.09908423909035802 0.338077140868387 0.4255590630872831
3 15 5 0 0.09908423909035802 0.338077140868387 0.4255590630872831
3 14 20 21 0.09908423909035802 0.338077140868387 0.4255590630872831
3 21 15 14 0.09908423909035802 0.338077140868387 0.4255590630872831
3 0 20 14 0.09908423909035802 0.338077140868387 0.4255590630872831
3 14 15 0 0.09908423909035802 0.338077140868387 0.4255590630872831
