OFF
71 64 0


30.6174 32.7881 8.6756
30.6174 32.7881 8.6756
30.735 32.7164 8.7126
30.8225 32.6638 8.7396
30.8989 32.6183 8.7629
30.9755 32.5731 8.786
31.0639 32.5216 8.8122
31.1837 32.4526 8.8471
31.1837 32.4526 8.8471
31.1792 32.4322 8.8615
31.1747 32.4117 8.876
31.1747 32.4117 8.876
31.106 32.3262 8.9416
31.0437 32.2457 9.003
30.9869 32.1695 9.0611
30.9347 32.0965 9.1164
30.8866 32.0261 9.1695
30.8418 31.9577 9.2209
30.8001 31.8907 9.271
30.761 31.8248 9.3202
30.7242 31.7594 9.3687
30.6894 31.6941 9.4169
30.6565 31.6286 9.4651
30.6252 31.5625 9.5136
30.5954 31.4953 9.5626
30.5669 31.4268 9.6125
30.5396 31.3563 9.6635
30.5133 31.2834 9.7161
30.488 31.2077 9.7705
30.4636 31.1283 9.8274
30.4399 31.0447 9.887
30.4169 30.9559 9.9502
30.3944 30.8608 10.0176
30.3724 30.7581 10.0901
30.2355 30.7907 10.0819
30.1248 30.8162 10.0757
30.0295 30.8377 10.0708
29.9429 30.8568 10.0667
29.8603 30.8746 10.063
29.7776 30.892 10.0595
29.6908 30.9099 10.0562
29.595 30.9292 10.0528
29.4833 30.9511 10.0493
29.3449 30.9773 10.0456
29.3449 30.9773 10.0456
29.4223 31.0687 9.975
29.4926 31.1529 9.9102
29.5571 31.2312 9.85
29.6168 31.3046 9.7936
29.6724 31.3741 9.7404
29.7246 31.4402 9.6897
29.774 31.5038 9.6412
29.8211 31.5652 9.5943
29.8661 31.625 9.5488
29.9096 31.6836 9.5042
29.9518 31.7413 9.4604
29.993 31.7986 9.4169
30.0335 31.8558 9.3736
30.0734 31.9132 9.3302
30.1132 31.9713 9.2864
30.1529 32.0302 9.242
30.1929 32.0906 9.1966
30.2334 32.1527 9.1499
30.2747 32.217 9.1016
30.3171 32.2841 9.0514
30.3609 32.3546 8.9986
30.4065 32.4291 8.9429
30.4543 32.5086 8.8836
30.505 32.5941 8.8199
30.5591 32.6867 8.751
30.6174 32.7881 8.6756
3 34 31 35 0.9496501090913493 0.3642621100791781 0.5989183348734468
3 57 22 58 0.9496501090913493 0.3642621100791781 0.5989183348734468
3 50 29 28 0.9496501090913493 0.3642621100791781 0.5989183348734468
3 12 11 6 0.9496501090913493 0.3642621100791781 0.5989183348734468
3 6 5 12 0.9496501090913493 0.3642621100791781 0.5989183348734468
3 7 6 9 0.9496501090913493 0.3642621100791781 0.5989183348734468
3 6 11 9 0.9496501090913493 0.3642621100791781 0.5989183348734468
3 58 22 21 0.9496501090913493 0.3642621100791781 0.5989183348734468
3 18 62 61 0.9496501090913493 0.3642621100791781 0.5989183348734468
3 61 19 18 0.9496501090913493 0.3642621100791781 0.5989183348734468
3 50 28 51 0.9496501090913493 0.3642621100791781 0.5989183348734468
3 65 16 15 0.9496501090913493 0.3642621100791781 0.5989183348734468
3 64 16 65 0.9496501090913493 0.3642621100791781 0.5989183348734468
3 43 42 45 0.9496501090913493 0.3642621100791781 0.5989183348734468
3 42 41 45 0.9496501090913493 0.3642621100791781 0.5989183348734468
3 4 68 67 0.9496501090913493 0.3642621100791781 0.5989183348734468
3 29 37 30 0.9496501090913493 0.3642621100791781 0.5989183348734468
3 32 34 33 0.9496501090913493 0.3642621100791781 0.5989183348734468
3 31 34 32 0.9496501090913493 0.3642621100791781 0.5989183348734468
3 52 51 27 0.9496501090913493 0.3642621100791781 0.5989183348734468
3 27 51 28 0.9496501090913493 0.3642621100791781 0.5989183348734468
3 55 24 56 0.9496501090913493 0.3642621100791781 0.5989183348734468
3 23 57 56 0.9496501090913493 0.3642621100791781 0.5989183348734468
3 56 24 23 0.9496501090913493 0.3642621100791781 0.5989183348734468
3 22 57 23 0.9496501090913493 0.3642621100791781 0.5989183348734468
3 54 26 25 0.9496501090913493 0.3642621100791781 0.5989183348734468
3 25 55 54 0.9496501090913493 0.3642621100791781 0.5989183348734468
3 24 55 25 0.9496501090913493 0.3642621100791781 0.5989183348734468
3 69 2 0 0.9496501090913493 0.3642621100791781 0.5989183348734468
3 3 68 4 0.9496501090913493 0.3642621100791781 0.5989183348734468
3 3 69 68 0.9496501090913493 0.3642621100791781 0.5989183348734468
3 2 69 3 0.9496501090913493 0.3642621100791781 0.5989183348734468
3 53 26 54 0.9496501090913493 0.3642621100791781 0.5989183348734468
3 52 27 53 0.9496501090913493 0.3642621100791781 0.5989183348734468
3 53 27 26 0.9496501090913493 0.3642621100791781 0.5989183348734468
3 58 21 59 0.9496501090913493 0.3642621100791781 0.5989183348734468
3 59 21 20 0.9496501090913493 0.3642621100791781 0.5989183348734468
3 16 64 17 0.9496501090913493 0.3642621100791781 0.5989183348734468
3 38 37 49 0.9496501090913493 0.3642621100791781 0.5989183348734468
3 49 48 38 0.9496501090913493 0.3642621100791781 0.5989183348734468
3 49 29 50 0.9496501090913493 0.3642621100791781 0.5989183348734468
3 49 37 29 0.9496501090913493 0.3642621100791781 0.5989183348734468
3 46 45 41 0.9496501090913493 0.3642621100791781 0.5989183348734468
3 46 40 47 0.9496501090913493 0.3642621100791781 0.5989183348734468
3 41 40 46 0.9496501090913493 0.3642621100791781 0.5989183348734468
3 14 67 66 0.9496501090913493 0.3642621100791781 0.5989183348734468
3 65 15 66 0.9496501090913493 0.3642621100791781 0.5989183348734468
3 66 15 14 0.9496501090913493 0.3642621100791781 0.5989183348734468
3 35 31 36 0.9496501090913493 0.3642621100791781 0.5989183348734468
3 31 30 36 0.9496501090913493 0.3642621100791781 0.5989183348734468
3 36 30 37 0.9496501090913493 0.3642621100791781 0.5989183348734468
3 13 12 5 0.9496501090913493 0.3642621100791781 0.5989183348734468
3 13 5 4 0.9496501090913493 0.3642621100791781 0.5989183348734468
3 4 67 13 0.9496501090913493 0.3642621100791781 0.5989183348734468
3 13 67 14 0.9496501090913493 0.3642621100791781 0.5989183348734468
3 47 40 39 0.9496501090913493 0.3642621100791781 0.5989183348734468
3 38 48 39 0.9496501090913493 0.3642621100791781 0.5989183348734468
3 39 48 47 0.9496501090913493 0.3642621100791781 0.5989183348734468
3 60 59 20 0.9496501090913493 0.3642621100791781 0.5989183348734468
3 20 19 60 0.9496501090913493 0.3642621100791781 0.5989183348734468
3 19 61 60 0.9496501090913493 0.3642621100791781 0.5989183348734468
3 63 17 64 0.9496501090913493 0.3642621100791781 0.5989183348734468
3 63 62 18 0.9496501090913493 0.3642621100791781 0.5989183348734468
3 18 17 63 0.9496501090913493 0.3642621100791781 0.5989183348734468
