OFF
37 31 0


27.0893 36.5672 10.119
27.0893 36.5672 10.119
27.15 36.5107 10.0862
27.2107 36.4542 10.0534
27.2715 36.3977 10.0206
27.3322 36.3412 9.9878
27.3929 36.2847 9.9549
27.4537 36.2282 9.9221
27.5144 36.1717 9.8893
27.5751 36.1152 9.8565
27.6359 36.0586 9.8237
27.6966 36.0021 9.7909
27.7573 35.9456 9.7581
27.818 35.8891 9.7253
27.9239 35.8338 9.6719
28.0307 35.7804 9.6181
28.0307 35.7804 9.6181
28.0307 35.7804 9.6181
27.9503 35.8852 9.6641
27.879 35.9757 9.7047
27.8147 36.0556 9.7411
27.7555 36.1279 9.7746
27.6999 36.1945 9.8059
27.6468 36.2572 9.8357
27.5953 36.3172 9.8646
27.5443 36.3758 9.893
27.4931 36.434 9.9216
27.4407 36.4929 9.9508
27.3861 36.5535 9.9811
27.3281 36.6171 10.0132
27.2654 36.6852 10.0479
27.1961 36.7596 10.0862
27.1176 36.8429 10.1295
27.0265 36.9384 10.1796
27.0482 36.8026 10.158
27.0651 36.7023 10.1417
27.0893 36.5672 10.119
3 34 32 33 0.3985440441505732 0.6795416198419703 0.13597289614048946
3 18 19 13 0.3985440441505732 0.6795416198419703 0.13597289614048946
3 26 27 5 0.3985440441505732 0.6795416198419703 0.13597289614048946
3 5 27 4 0.3985440441505732 0.6795416198419703 0.13597289614048946
3 2 3 29 0.3985440441505732 0.6795416198419703 0.13597289614048946
3 32 34 35 0.3985440441505732 0.6795416198419703 0.13597289614048946
3 35 31 32 0.3985440441505732 0.6795416198419703 0.13597289614048946
3 15 18 14 0.3985440441505732 0.6795416198419703 0.13597289614048946
3 18 13 14 0.3985440441505732 0.6795416198419703 0.13597289614048946
3 22 23 9 0.3985440441505732 0.6795416198419703 0.13597289614048946
3 29 3 28 0.3985440441505732 0.6795416198419703 0.13597289614048946
3 3 4 28 0.3985440441505732 0.6795416198419703 0.13597289614048946
3 28 4 27 0.3985440441505732 0.6795416198419703 0.13597289614048946
3 30 2 29 0.3985440441505732 0.6795416198419703 0.13597289614048946
3 1 2 30 0.3985440441505732 0.6795416198419703 0.13597289614048946
3 30 35 1 0.3985440441505732 0.6795416198419703 0.13597289614048946
3 31 35 30 0.3985440441505732 0.6795416198419703 0.13597289614048946
3 10 21 22 0.3985440441505732 0.6795416198419703 0.13597289614048946
3 22 9 10 0.3985440441505732 0.6795416198419703 0.13597289614048946
3 25 26 6 0.3985440441505732 0.6795416198419703 0.13597289614048946
3 6 26 5 0.3985440441505732 0.6795416198419703 0.13597289614048946
3 23 24 8 0.3985440441505732 0.6795416198419703 0.13597289614048946
3 8 9 23 0.3985440441505732 0.6795416198419703 0.13597289614048946
3 20 21 11 0.3985440441505732 0.6795416198419703 0.13597289614048946
3 21 10 11 0.3985440441505732 0.6795416198419703 0.13597289614048946
3 7 8 24 0.3985440441505732 0.6795416198419703 0.13597289614048946
3 7 24 25 0.3985440441505732 0.6795416198419703 0.13597289614048946
3 25 6 7 0.3985440441505732 0.6795416198419703 0.13597289614048946
3 20 11 12 0.3985440441505732 0.6795416198419703 0.13597289614048946
3 12 19 20 0.3985440441505732 0.6795416198419703 0.13597289614048946
3 12 13 19 0.3985440441505732 0.6795416198419703 0.13597289614048946
