OFF
51 45 0


32.8218 29.4493 8.2894
32.8218 29.4493 8.2894
32.7209 29.4051 8.3603
32.6291 29.3617 8.424
32.5447 29.3188 8.4819
32.4661 29.2762 8.5351
32.3921 29.2336 8.5846
32.3216 29.1907 8.6311
32.2537 29.1473 8.6753
32.1876 29.1028 8.7179
32.1225 29.057 8.7593
32.0578 29.0093 8.7999
31.9926 28.9592 8.8404
31.9262 28.9061 8.881
31.8577 28.8492 8.9224
31.7863 28.7875 8.9649
31.7107 28.7197 9.0093
31.6297 28.6444 9.0563
31.5415 28.5594 9.1066
31.5415 28.5594 9.1066
31.5562 28.5035 9.0806
31.571 28.4477 9.0546
31.5857 28.3918 9.0286
31.6005 28.336 9.0026
31.6696 28.3641 8.9534
31.7388 28.3921 8.9043
31.8079 28.4202 8.8551
31.877 28.4482 8.806
31.9462 28.4762 8.7568
32.0153 28.5043 8.7077
32.0845 28.5323 8.6585
32.1536 28.5604 8.6094
32.2227 28.5884 8.5602
32.2919 28.6165 8.5111
32.361 28.6445 8.4619
32.4301 28.6726 8.4128
32.4993 28.7006 8.3636
32.5684 28.7287 8.3145
32.6375 28.7567 8.2653
32.7067 28.7848 8.2162
32.7758 28.8128 8.167
32.845 28.8409 8.1179
32.845 28.8409 8.1179
32.8421 28.9169 8.1393
32.8392 28.993 8.1608
32.8363 29.069 8.1822
32.8334 29.1451 8.2036
32.8305 29.2212 8.2251
32.8276 29.2972 8.2465
32.8247 29.3733 8.268
32.8218 29.4493 8.2894
3 11 31 32 0.5776496775119573 0.09401668713909994 0.7076703043646937
3 33 10 32 0.5776496775119573 0.09401668713909994 0.7076703043646937
3 32 10 11 0.5776496775119573 0.09401668713909994 0.7076703043646937
3 14 15 28 0.5776496775119573 0.09401668713909994 0.7076703043646937
3 17 21 25 0.5776496775119573 0.09401668713909994 0.7076703043646937
3 28 15 27 0.5776496775119573 0.09401668713909994 0.7076703043646937
3 44 39 40 0.5776496775119573 0.09401668713909994 0.7076703043646937
3 9 10 33 0.5776496775119573 0.09401668713909994 0.7076703043646937
3 45 39 44 0.5776496775119573 0.09401668713909994 0.7076703043646937
3 25 21 24 0.5776496775119573 0.09401668713909994 0.7076703043646937
3 12 31 11 0.5776496775119573 0.09401668713909994 0.7076703043646937
3 29 14 28 0.5776496775119573 0.09401668713909994 0.7076703043646937
3 20 17 18 0.5776496775119573 0.09401668713909994 0.7076703043646937
3 21 17 20 0.5776496775119573 0.09401668713909994 0.7076703043646937
3 16 27 15 0.5776496775119573 0.09401668713909994 0.7076703043646937
3 43 40 41 0.5776496775119573 0.09401668713909994 0.7076703043646937
3 44 40 43 0.5776496775119573 0.09401668713909994 0.7076703043646937
3 34 35 8 0.5776496775119573 0.09401668713909994 0.7076703043646937
3 8 9 34 0.5776496775119573 0.09401668713909994 0.7076703043646937
3 34 9 33 0.5776496775119573 0.09401668713909994 0.7076703043646937
3 37 5 6 0.5776496775119573 0.09401668713909994 0.7076703043646937
3 6 36 37 0.5776496775119573 0.09401668713909994 0.7076703043646937
3 0 2 49 0.5776496775119573 0.09401668713909994 0.7076703043646937
3 2 48 49 0.5776496775119573 0.09401668713909994 0.7076703043646937
3 3 48 2 0.5776496775119573 0.09401668713909994 0.7076703043646937
3 39 45 38 0.5776496775119573 0.09401668713909994 0.7076703043646937
3 38 45 5 0.5776496775119573 0.09401668713909994 0.7076703043646937
3 38 5 37 0.5776496775119573 0.09401668713909994 0.7076703043646937
3 23 24 22 0.5776496775119573 0.09401668713909994 0.7076703043646937
3 22 24 21 0.5776496775119573 0.09401668713909994 0.7076703043646937
3 27 16 26 0.5776496775119573 0.09401668713909994 0.7076703043646937
3 26 17 25 0.5776496775119573 0.09401668713909994 0.7076703043646937
3 26 16 17 0.5776496775119573 0.09401668713909994 0.7076703043646937
3 14 29 13 0.5776496775119573 0.09401668713909994 0.7076703043646937
3 30 13 29 0.5776496775119573 0.09401668713909994 0.7076703043646937
3 31 12 30 0.5776496775119573 0.09401668713909994 0.7076703043646937
3 12 13 30 0.5776496775119573 0.09401668713909994 0.7076703043646937
3 36 6 7 0.5776496775119573 0.09401668713909994 0.7076703043646937
3 8 35 7 0.5776496775119573 0.09401668713909994 0.7076703043646937
3 35 36 7 0.5776496775119573 0.09401668713909994 0.7076703043646937
3 5 45 4 0.5776496775119573 0.09401668713909994 0.7076703043646937
3 48 3 47 0.5776496775119573 0.09401668713909994 0.7076703043646937
3 46 4 45 0.5776496775119573 0.09401668713909994 0.7076703043646937
3 3 4 46 0.5776496775119573 0.09401668713909994 0.7076703043646937
3 46 47 3 0.5776496775119573 0.09401668713909994 0.7076703043646937
