OFF
549 994 0


32.509 31.4326 8.4445
32.509 31.4326 8.4445
32.4539 31.56 8.4704
32.4105 31.6571 8.4901
32.3723 31.7404 8.507
32.3352 31.8193 8.5231
32.2956 31.9019 8.5399
32.2488 31.9974 8.5594
32.1862 32.1216 8.5847
32.1862 32.1216 8.5847
32.0873 32.1394 8.4928
32.0012 32.1551 8.414
31.924 32.1693 8.3447
31.8533 32.1825 8.282
31.7869 32.1949 8.2241
31.7232 32.2069 8.1695
31.661 32.2188 8.117
31.5989 32.2308 8.0654
31.5357 32.2431 8.0138
31.4702 32.2559 7.9613
31.4008 32.2697 7.9068
31.3258 32.2847 7.8492
31.243 32.3015 7.7869
31.1494 32.3207 7.7184
31.0408 32.3432 7.6412
31.0113 32.2512 7.5497
30.9868 32.1669 7.4695
30.9661 32.088 7.3976
30.9483 32.0128 7.332
30.9329 31.94 7.271
30.9195 31.8683 7.2133
30.9076 31.7964 7.1579
30.8973 31.7231 7.1038
30.8883 31.6471 7.0503
30.8806 31.5671 6.9965
30.8744 31.4814 6.9418
30.8699 31.3882 6.8854
30.8675 31.2849 6.8266
30.8677 31.1686 6.7646
30.8677 31.1686 6.7646
30.8677 31.1686 6.7646
30.9702 31.0854 6.7972
31.054 31.0129 6.8232
31.1263 30.9466 6.8451
31.1921 30.8829 6.8645
31.2548 30.819 6.8825
31.3175 30.7517 6.9
31.383 30.6775 6.9177
31.4548 30.5912 6.9365
31.5377 30.4854 6.9572
31.6434 30.3999 7.0084
31.7204 30.3372 7.0471
31.7852 30.2842 7.0805
31.8465 30.234 7.1126
31.9108 30.1811 7.1471
31.9867 30.1184 7.1886
32.0893 30.0334 7.2459
32.0893 30.0334 7.2459
32.104 30.1468 7.3102
32.119 30.25 7.3714
32.1344 30.345 7.4306
32.1504 30.4334 7.4884
32.167 30.5162 7.5453
32.1844 30.5946 7.602
32.2026 30.6692 7.6589
32.2218 30.741 7.7164
32.2421 30.8103 7.7749
32.2636 30.878 7.8349
32.2865 30.9445 7.8968
32.3109 31.0104 7.9612
32.3371 31.0763 8.0286
32.3654 31.1429 8.0999
32.3962 31.2108 8.1758
32.43 31.2811 8.2575
32.4673 31.3545 8.3465
32.509 31.4326 8.4445
32.2581 31.7606 8.3971
32.1899 31.7087 8.2869
32.1288 31.6624 8.1892
31.7842 32.0949 8.1462
31.7812 32.0047 8.0763
31.7781 31.9223 8.013
31.6734 32.1189 8.0542
31.6843 32.028 7.9974
31.6938 31.9444 7.9457
31.5628 32.1423 7.9643
31.587 32.0502 7.9194
31.6088 31.9652 7.8784
31.8395 30.3718 7.168
31.8324 30.4942 7.2179
31.8251 30.6048 7.2637
32.2907 31.6926 8.3842
32.2184 31.6504 8.2765
32.1536 31.6124 8.1808
32.0947 31.578 8.0949
32.1819 31.9126 8.425
32.1233 31.8386 8.3086
32.071 31.773 8.2062
32.0237 31.714 8.1149
31.9701 32.0535 8.3054
31.9422 31.9634 8.2098
31.9168 31.8827 8.1247
31.8933 31.8094 8.0479
31.8422 32.0822 8.1953
31.8317 31.9921 8.1179
31.8219 31.9102 8.0481
31.8124 31.8351 7.9845
31.4437 32.1668 7.87
31.4822 32.0727 7.8367
31.5171 31.9859 7.8064
31.5492 31.9049 7.7784
31.0097 31.8185 7.2524
31.0925 31.772 7.2889
31.1695 31.7281 7.3233
31.2417 31.6862 7.3563
30.9884 31.6892 7.1534
31.0722 31.6574 7.1997
31.1503 31.6272 7.2435
31.2238 31.5982 7.2854
31.7854 30.4127 7.1383
31.7847 30.5277 7.1907
31.7833 30.6323 7.2389
31.7811 30.7287 7.2841
31.9619 30.2798 7.2379
31.9392 30.4206 7.2815
31.918 30.5458 7.321
31.8979 30.6591 7.3574
32.064 30.3043 7.3444
32.028 30.4422 7.3749
31.9948 30.5651 7.4026
31.9639 30.6765 7.4283
32.0928 30.4669 7.4488
32.0545 30.5767 7.4655
32.0187 30.677 7.4813
31.985 30.7697 7.4962
32.1232 30.6122 7.5503
32.0822 30.7006 7.5552
32.0435 30.7826 7.56
32.0067 30.8595 7.5648
32.1557 30.7457 7.6519
32.1114 30.8168 7.6456
32.0693 30.8836 7.6399
32.0292 30.9466 7.6346
32.1909 30.871 7.7559
32.1425 30.9277 7.7382
32.0965 30.9811 7.7217
32.0525 31.0317 7.7061
32.2295 30.9914 7.8645
32.1759 31.0353 7.8344
32.125 31.0764 7.8061
32.0766 31.1152 7.7795
32.2725 31.1102 7.9805
32.2122 31.1416 7.9359
32.1554 31.1707 7.8943
32.1018 31.198 7.8554
32.3242 31.6208 8.3703
32.2477 31.5885 8.2651
32.179 31.5593 8.1714
32.1166 31.5328 8.0871
32.0592 31.5084 8.0105
32.0436 32.0367 8.3697
32.0049 31.9466 8.2626
31.9701 31.8665 8.168
31.9384 31.7943 8.0833
31.9091 31.7285 8.0068
31.3052 32.1944 7.7637
31.361 32.0969 7.7429
31.4116 32.0073 7.7242
31.4578 31.9239 7.7071
31.5006 31.8455 7.6914
31.0767 32.079 7.4827
31.1577 31.9988 7.4951
31.2317 31.9245 7.5068
31.3 31.8549 7.5181
31.3637 31.789 7.529
31.0382 31.9457 7.3595
31.1202 31.8837 7.3851
31.1959 31.8255 7.4093
31.2664 31.7705 7.4323
31.3329 31.7177 7.4546
30.9735 31.5496 7.0568
31.0587 31.533 7.1129
31.1379 31.517 7.1659
31.2124 31.5013 7.2166
31.2833 31.486 7.2656
31.1924 30.9918 6.9189
31.253 31.0333 6.9879
31.3094 31.072 7.0532
31.3625 31.1085 7.1159
31.413 31.1433 7.1766
31.3072 30.8762 6.952
31.3554 30.9292 7.0172
31.4003 30.9789 7.0792
31.4426 31.026 7.1389
31.4828 31.0712 7.1968
31.4232 30.7499 6.9849
31.46 30.8169 7.0477
31.4941 30.8796 7.1073
31.5259 30.939 7.1644
31.5558 30.9958 7.2197
31.7278 30.4566 7.1073
31.7337 30.5642 7.1622
31.7383 30.6625 7.2131
31.7418 30.7537 7.2608
31.7444 30.8392 7.3062
32.3212 31.231 8.1075
32.2522 31.2492 8.0452
32.1882 31.2658 7.9878
32.1284 31.281 7.9347
32.0722 31.2951 7.8851
32.3778 31.3582 8.251
32.2973 31.3613 8.1657
32.224 31.3638 8.0888
32.1567 31.3659 8.0188
32.0944 31.3675 7.9545
32.3622 31.5367 8.3538
32.2808 31.5159 8.2511
32.2077 31.497 8.1597
32.1412 31.4796 8.0773
32.0801 31.4636 8.0024
32.0235 31.4485 7.9337
31.1307 32.2278 7.6344
31.2102 32.1243 7.6287
31.2815 32.0301 7.6239
31.3462 31.9432 7.6199
31.4057 31.8621 7.6165
31.461 31.7855 7.6136
30.9658 31.3894 6.9579
31.0531 31.39 7.025
31.1336 31.3901 7.0879
31.209 31.3897 7.1477
31.2804 31.3889 7.2053
31.3488 31.3877 7.2615
30.9687 31.1942 6.853
31.059 31.2167 6.9334
31.1411 31.2369 7.0079
31.2171 31.2553 7.0779
31.2884 31.2722 7.1449
31.3563 31.288 7.2098
31.1287 31.0522 6.9003
31.1969 31.0881 6.972
31.2601 31.1212 7.0396
31.3195 31.1523 7.1041
31.3758 31.1817 7.1666
31.4299 31.2099 7.2277
31.5641 30.5828 7.0239
31.5876 30.6717 7.0855
31.6086 30.7538 7.1432
31.6278 30.8307 7.1978
31.6453 30.9036 7.2503
31.6616 30.9734 7.3012
31.6186 32.1306 8.0094
31.6361 32.0392 7.9587
31.6517 31.9549 7.9123
31.6657 31.8767 7.8696
31.6784 31.8033 7.8299
31.69 31.734 7.7928
31.7006 31.6682 7.7578
32.127 32.0174 8.4436
32.0753 31.9272 8.3222
32.0294 31.8478 8.2163
31.9882 31.777 8.1224
31.9505 31.7129 8.0382
31.9157 31.6543 7.9618
31.8832 31.6001 7.8918
31.8526 31.5495 7.8271
31.7283 32.1071 8.0995
31.7324 32.0166 8.0364
31.7357 31.9336 7.9791
31.7383 31.8569 7.9264
31.7403 31.7854 7.8777
31.7418 31.7181 7.8322
31.7429 31.6545 7.7895
31.7435 31.5938 7.7492
31.3777 32.1801 7.8189
31.4243 32.0845 7.7917
31.4667 31.9964 7.767
31.5054 31.9143 7.7443
31.5413 31.8371 7.7232
31.5747 31.7639 7.7036
31.6061 31.6939 7.6852
31.6358 31.6264 7.6677
31.1013 32.1508 7.5539
31.1816 32.0597 7.5581
31.2544 31.9761 7.5623
31.3211 31.8983 7.5664
31.383 31.8251 7.5707
31.4409 31.7555 7.575
31.4956 31.6886 7.5795
31.5479 31.6237 7.5841
31.0229 31.8819 7.3045
31.1053 31.8278 7.3357
31.1817 31.7769 7.3653
31.2531 31.7286 7.3934
31.3207 31.6821 7.4206
31.3852 31.6369 7.4471
31.4473 31.5927 7.4731
31.5077 31.549 7.4989
30.9801 31.6213 7.1051
31.0646 31.5969 7.1563
31.1432 31.5737 7.2047
31.2172 31.5512 7.2509
31.2876 31.5292 7.2957
31.3553 31.5075 7.3394
31.421 31.4859 7.3826
31.4854 31.4642 7.4256
31.3638 30.8158 6.9681
31.4063 30.8753 7.032
31.4458 30.9311 7.0927
31.483 30.984 7.151
31.5182 31.0347 7.2077
31.552 31.0837 7.2632
31.5846 31.1317 7.3182
31.6165 31.1791 7.3733
32.05 30.2143 7.2899
32.015 30.3696 7.3285
31.9831 30.5061 7.363
31.9536 30.6282 7.3945
31.9256 30.7393 7.4237
31.8989 30.842 7.4513
31.8729 30.9383 7.4778
31.8472 31.0297 7.5034
32.1078 30.5413 7.4997
32.0682 30.6398 7.5104
32.031 30.7305 7.5205
31.9957 30.815 7.5303
31.962 30.8943 7.5398
31.9293 30.9695 7.5491
31.8975 31.0413 7.5583
31.8663 31.1104 7.5674
32.1729 30.8091 7.7035
32.1267 30.8728 7.6916
32.0827 30.9327 7.6805
32.0407 30.9894 7.6702
32.0003 31.0433 7.6605
31.9612 31.0948 7.6513
31.9232 31.1443 7.6426
31.886 31.1921 7.6344
32.2504 31.0508 7.9214
32.1936 31.0884 7.8844
32.14 31.1236 7.8497
32.0891 31.1567 7.8171
32.0405 31.1879 7.7863
31.9939 31.2175 7.7571
31.9491 31.2458 7.7292
31.9057 31.2728 7.7025
32.3484 31.2934 8.1768
32.274 31.3044 8.1037
32.2056 31.3143 8.0372
32.1423 31.3231 7.976
32.0831 31.3311 7.9194
32.0275 31.3384 7.8666
31.9749 31.3451 7.8171
31.9248 31.3513 7.7705
30.9656 31.2973 6.9064
31.0542 31.308 6.9797
31.1355 31.3175 7.0481
31.2112 31.3259 7.1129
31.2827 31.3335 7.175
31.351 31.3403 7.2355
31.4171 31.3466 7.2951
31.4818 31.3524 7.3544
31.5459 31.3577 7.4143
31.2509 30.934 6.9358
31.305 30.9811 7.0027
31.3554 31.0252 7.0663
31.4029 31.067 7.1273
31.4482 31.1069 7.1866
31.4917 31.1455 7.2448
31.5341 31.1833 7.3025
31.5756 31.2205 7.3603
31.6168 31.2575 7.4188
31.659 30.5094 7.0714
31.6724 30.6087 7.1292
31.684 30.7 7.1829
31.6942 30.785 7.2337
31.7031 30.8652 7.2821
31.711 30.9417 7.329
31.718 31.0154 7.3748
31.7242 31.0874 7.42
31.7297 31.1582 7.4651
32.0783 30.3882 7.3971
32.0411 30.511 7.4205
32.0067 30.622 7.442
31.9743 30.7236 7.4622
31.9435 30.8178 7.4813
31.9139 30.906 7.4997
31.885 30.9897 7.5175
31.8566 31.0699 7.5349
31.8284 31.1473 7.5522
32.4101 31.4262 8.3314
32.3224 31.4204 8.2319
32.2435 31.4148 8.1432
32.1719 31.4096 8.0633
32.106 31.4045 7.9907
32.045 31.3996 7.924
31.988 31.3948 7.8623
31.9343 31.3901 7.8048
31.8834 31.3855 7.7507
32.2232 31.8313 8.4102
32.1593 31.7693 8.2973
32.1023 31.7141 8.1974
32.0506 31.6642 8.1081
32.0033 31.6188 8.0274
31.9596 31.5769 7.9537
31.9187 31.5379 7.8858
31.8803 31.5013 7.8227
31.8437 31.4667 7.7637
31.8088 31.4338 7.708
31.5049 32.1543 7.9181
31.536 32.0614 7.879
31.5642 31.9755 7.8433
31.5899 31.8955 7.8103
31.6136 31.8203 7.7796
31.6355 31.7491 7.7509
31.656 31.6811 7.7238
31.6751 31.6158 7.698
31.6932 31.5527 7.6734
31.7104 31.4912 7.6498
31.056 32.0111 7.4185
31.1375 31.9404 7.4379
31.2124 31.8745 7.4562
31.2819 31.8124 7.4736
31.3471 31.7533 7.4905
31.4089 31.6964 7.5069
31.468 31.6411 7.5231
31.525 31.5869 7.5391
31.5805 31.5333 7.5551
31.6349 31.4799 7.5713
30.9686 31.4728 7.0079
31.0547 31.4644 7.0693
31.1346 31.4561 7.1271
31.2095 31.4478 7.1822
31.2807 31.4395 7.2355
31.3491 31.4309 7.2874
31.4155 31.4222 7.3388
31.4806 31.4131 7.39
31.5452 31.4036 7.4416
31.6099 31.3936 7.4941
31.896 30.3292 7.1998
31.8819 30.4598 7.247
31.8683 30.577 7.2899
31.855 30.6839 7.3297
31.8419 30.7827 7.3671
31.8288 30.8754 7.4027
31.8155 30.9634 7.4371
31.802 31.048 7.4707
31.7881 31.1301 7.5038
31.7736 31.2109 7.537
32.2097 30.9316 7.8095
32.1589 30.9818 7.7858
32.1105 31.029 7.7635
32.0644 31.0736 7.7425
32.0202 31.116 7.7227
31.9775 31.1565 7.7038
31.9361 31.1953 7.6857
31.8959 31.2327 7.6684
31.8566 31.2689 7.6517
31.818 31.3039 7.6356
31.9036 32.0685 8.2479
31.885 31.9784 8.162
31.8677 31.8971 8.085
31.8516 31.8229 8.0152
31.8363 31.7544 7.9513
31.8218 31.6908 7.8923
31.8078 31.6311 7.8374
31.7942 31.5746 7.786
31.781 31.5209 7.7374
31.768 31.4695 7.6912
31.7552 31.4198 7.6471
31.2239 32.2101 7.7028
31.2904 32.1101 7.6891
31.3504 32.0185 7.6769
31.4052 31.9335 7.666
31.4558 31.8539 7.6561
31.5029 31.7785 7.647
31.5472 31.7064 7.6387
31.5892 31.6368 7.631
31.6294 31.5691 7.6238
31.6681 31.5027 7.6171
31.7057 31.4371 7.6107
30.9982 31.7546 7.2023
31.0815 31.7155 7.2437
31.159 31.6785 7.2829
31.2319 31.643 7.3204
31.3011 31.6086 7.3567
31.3675 31.575 7.392
31.4318 31.5418 7.4269
31.4946 31.5087 7.4616
31.5565 31.4754 7.4964
31.6181 31.4417 7.5316
31.6799 31.4072 7.5675
31.056 31.1184 6.8789
31.1337 31.148 6.9542
31.2052 31.1752 7.0247
31.2719 31.2003 7.0917
31.335 31.2239 7.1561
31.3954 31.2464 7.2189
31.4539 31.2679 7.2809
31.5112 31.2889 7.3429
31.568 31.3095 7.4054
31.6251 31.33 7.4693
31.6829 31.3506 7.5354
31.4886 30.6742 7.0031
31.5193 30.7506 7.0652
31.5473 30.8218 7.1237
31.5732 30.8889 7.1796
31.5975 30.9529 7.2336
31.6203 31.0146 7.2862
31.6421 31.0747 7.3381
31.6631 31.1337 7.3898
31.6834 31.1924 7.4418
31.7032 31.2512 7.4945
31.7229 31.3107 7.5486
32.1391 30.6802 7.601
32.0966 30.7595 7.6002
32.0563 30.8336 7.5998
32.0178 30.9033 7.5995
31.9809 30.9694 7.5995
31.9451 31.0324 7.5997
31.9103 31.0929 7.6001
31.8761 31.1513 7.6006
31.8425 31.208 7.6013
31.8091 31.2634 7.6023
31.7758 31.3178 7.6033
32.296 31.1701 8.0423
32.2316 31.195 7.9894
32.1715 31.2181 7.9403
32.1149 31.2394 7.8945
32.0614 31.2593 7.8516
32.0106 31.278 7.8112
31.962 31.2956 7.7729
31.9153 31.3123 7.7365
31.8702 31.3281 7.7016
31.8266 31.3432 7.6681
31.784 31.3577 7.6358
32.4101 31.4262 8.3314
32.3224 31.4204 8.2319
32.2435 31.4148 8.1432
32.1719 31.4096 8.0633
32.106 31.4045 7.9907
32.045 31.3996 7.924
31.988 31.3948 7.8623
31.9343 31.3901 7.8048
31.8834 31.3855 7.7507
31.8346 31.3809 7.6997
31.7878 31.3763 7.6511
31.7424 31.3716 7.6046
31.7424 31.3716 7.6046
3 221 23 24 0.4455082632815458 0.31928235465853205 0.38583008615932923
3 270 463 106 0.4455082632815458 0.31928235465853205 0.38583008615932923
3 1 390 74 0.4455082632815458 0.31928235465853205 0.38583008615932923
3 2 390 1 0.4455082632815458 0.31928235465853205 0.38583008615932923
3 25 221 24 0.4455082632815458 0.31928235465853205 0.38583008615932923
3 222 221 282 0.4455082632815458 0.31928235465853205 0.38583008615932923
3 282 25 26 0.4455082632815458 0.31928235465853205 0.38583008615932923
3 221 25 282 0.4455082632815458 0.31928235465853205 0.38583008615932923
3 18 85 17 0.4455082632815458 0.31928235465853205 0.38583008615932923
3 409 85 18 0.4455082632815458 0.31928235465853205 0.38583008615932923
3 20 21 274 0.4455082632815458 0.31928235465853205 0.38583008615932923
3 61 381 60 0.4455082632815458 0.31928235465853205 0.38583008615932923
3 58 55 56 0.4455082632815458 0.31928235465853205 0.38583008615932923
3 51 52 119 0.4455082632815458 0.31928235465853205 0.38583008615932923
3 127 60 381 0.4455082632815458 0.31928235465853205 0.38583008615932923
3 59 60 127 0.4455082632815458 0.31928235465853205 0.38583008615932923
3 128 381 131 0.4455082632815458 0.31928235465853205 0.38583008615932923
3 131 382 128 0.4455082632815458 0.31928235465853205 0.38583008615932923
3 131 381 61 0.4455082632815458 0.31928235465853205 0.38583008615932923
3 382 131 322 0.4455082632815458 0.31928235465853205 0.38583008615932923
3 322 131 61 0.4455082632815458 0.31928235465853205 0.38583008615932923
3 17 82 16 0.4455082632815458 0.31928235465853205 0.38583008615932923
3 14 15 79 0.4455082632815458 0.31928235465853205 0.38583008615932923
3 92 93 156 0.4455082632815458 0.31928235465853205 0.38583008615932923
3 162 261 260 0.4455082632815458 0.31928235465853205 0.38583008615932923
3 160 10 11 0.4455082632815458 0.31928235465853205 0.38583008615932923
3 162 260 161 0.4455082632815458 0.31928235465853205 0.38583008615932923
3 161 260 259 0.4455082632815458 0.31928235465853205 0.38583008615932923
3 259 160 161 0.4455082632815458 0.31928235465853205 0.38583008615932923
3 164 463 263 0.4455082632815458 0.31928235465853205 0.38583008615932923
3 547 513 524 0.4455082632815458 0.31928235465853205 0.38583008615932923
3 524 513 523 0.4455082632815458 0.31928235465853205 0.38583008615932923
3 391 216 538 0.4455082632815458 0.31928235465853205 0.38583008615932923
3 390 391 210 0.4455082632815458 0.31928235465853205 0.38583008615932923
3 73 74 210 0.4455082632815458 0.31928235465853205 0.38583008615932923
3 210 74 390 0.4455082632815458 0.31928235465853205 0.38583008615932923
3 115 481 31 0.4455082632815458 0.31928235465853205 0.38583008615932923
3 115 116 481 0.4455082632815458 0.31928235465853205 0.38583008615932923
3 233 37 38 0.4455082632815458 0.31928235465853205 0.38583008615932923
3 251 82 17 0.4455082632815458 0.31928235465853205 0.38583008615932923
3 17 85 251 0.4455082632815458 0.31928235465853205 0.38583008615932923
3 252 82 251 0.4455082632815458 0.31928235465853205 0.38583008615932923
3 274 21 165 0.4455082632815458 0.31928235465853205 0.38583008615932923
3 21 22 165 0.4455082632815458 0.31928235465853205 0.38583008615932923
3 107 20 274 0.4455082632815458 0.31928235465853205 0.38583008615932923
3 409 18 19 0.4455082632815458 0.31928235465853205 0.38583008615932923
3 19 107 409 0.4455082632815458 0.31928235465853205 0.38583008615932923
3 20 107 19 0.4455082632815458 0.31928235465853205 0.38583008615932923
3 475 288 476 0.4455082632815458 0.31928235465853205 0.38583008615932923
3 289 288 425 0.4455082632815458 0.31928235465853205 0.38583008615932923
3 477 476 289 0.4455082632815458 0.31928235465853205 0.38583008615932923
3 289 476 288 0.4455082632815458 0.31928235465853205 0.38583008615932923
3 425 288 424 0.4455082632815458 0.31928235465853205 0.38583008615932923
3 174 423 424 0.4455082632815458 0.31928235465853205 0.38583008615932923
3 264 263 464 0.4455082632815458 0.31928235465853205 0.38583008615932923
3 464 263 463 0.4455082632815458 0.31928235465853205 0.38583008615932923
3 464 463 270 0.4455082632815458 0.31928235465853205 0.38583008615932923
3 252 251 86 0.4455082632815458 0.31928235465853205 0.38583008615932923
3 86 251 85 0.4455082632815458 0.31928235465853205 0.38583008615932923
3 543 406 407 0.4455082632815458 0.31928235465853205 0.38583008615932923
3 27 28 419 0.4455082632815458 0.31928235465853205 0.38583008615932923
3 111 30 31 0.4455082632815458 0.31928235465853205 0.38583008615932923
3 31 481 111 0.4455082632815458 0.31928235465853205 0.38583008615932923
3 166 471 472 0.4455082632815458 0.31928235465853205 0.38583008615932923
3 274 165 166 0.4455082632815458 0.31928235465853205 0.38583008615932923
3 166 165 471 0.4455082632815458 0.31928235465853205 0.38583008615932923
3 472 471 223 0.4455082632815458 0.31928235465853205 0.38583008615932923
3 223 224 472 0.4455082632815458 0.31928235465853205 0.38583008615932923
3 284 224 223 0.4455082632815458 0.31928235465853205 0.38583008615932923
3 223 471 222 0.4455082632815458 0.31928235465853205 0.38583008615932923
3 246 503 245 0.4455082632815458 0.31928235465853205 0.38583008615932923
3 49 372 245 0.4455082632815458 0.31928235465853205 0.38583008615932923
3 245 373 246 0.4455082632815458 0.31928235465853205 0.38583008615932923
3 372 373 245 0.4455082632815458 0.31928235465853205 0.38583008615932923
3 48 503 47 0.4455082632815458 0.31928235465853205 0.38583008615932923
3 49 245 48 0.4455082632815458 0.31928235465853205 0.38583008615932923
3 48 245 503 0.4455082632815458 0.31928235465853205 0.38583008615932923
3 200 51 119 0.4455082632815458 0.31928235465853205 0.38583008615932923
3 50 372 49 0.4455082632815458 0.31928235465853205 0.38583008615932923
3 50 200 372 0.4455082632815458 0.31928235465853205 0.38583008615932923
3 51 200 50 0.4455082632815458 0.31928235465853205 0.38583008615932923
3 119 52 88 0.4455082632815458 0.31928235465853205 0.38583008615932923
3 123 127 315 0.4455082632815458 0.31928235465853205 0.38583008615932923
3 315 381 128 0.4455082632815458 0.31928235465853205 0.38583008615932923
3 315 127 381 0.4455082632815458 0.31928235465853205 0.38583008615932923
3 53 88 52 0.4455082632815458 0.31928235465853205 0.38583008615932923
3 439 88 53 0.4455082632815458 0.31928235465853205 0.38583008615932923
3 314 58 59 0.4455082632815458 0.31928235465853205 0.38583008615932923
3 59 127 314 0.4455082632815458 0.31928235465853205 0.38583008615932923
3 314 127 123 0.4455082632815458 0.31928235465853205 0.38583008615932923
3 314 123 55 0.4455082632815458 0.31928235465853205 0.38583008615932923
3 55 58 314 0.4455082632815458 0.31928235465853205 0.38583008615932923
3 63 64 514 0.4455082632815458 0.31928235465853205 0.38583008615932923
3 382 322 132 0.4455082632815458 0.31928235465853205 0.38583008615932923
3 62 322 61 0.4455082632815458 0.31928235465853205 0.38583008615932923
3 384 134 318 0.4455082632815458 0.31928235465853205 0.38583008615932923
3 133 136 324 0.4455082632815458 0.31928235465853205 0.38583008615932923
3 324 384 133 0.4455082632815458 0.31928235465853205 0.38583008615932923
3 134 384 324 0.4455082632815458 0.31928235465853205 0.38583008615932923
3 324 136 137 0.4455082632815458 0.31928235465853205 0.38583008615932923
3 137 134 324 0.4455082632815458 0.31928235465853205 0.38583008615932923
3 385 319 318 0.4455082632815458 0.31928235465853205 0.38583008615932923
3 318 134 385 0.4455082632815458 0.31928235465853205 0.38583008615932923
3 128 382 316 0.4455082632815458 0.31928235465853205 0.38583008615932923
3 459 12 13 0.4455082632815458 0.31928235465853205 0.38583008615932923
3 266 79 15 0.4455082632815458 0.31928235465853205 0.38583008615932923
3 266 16 82 0.4455082632815458 0.31928235465853205 0.38583008615932923
3 15 16 266 0.4455082632815458 0.31928235465853205 0.38583008615932923
3 83 82 252 0.4455082632815458 0.31928235465853205 0.38583008615932923
3 93 92 78 0.4455082632815458 0.31928235465853205 0.38583008615932923
3 401 402 78 0.4455082632815458 0.31928235465853205 0.38583008615932923
3 99 161 160 0.4455082632815458 0.31928235465853205 0.38583008615932923
3 99 12 459 0.4455082632815458 0.31928235465853205 0.38583008615932923
3 11 12 99 0.4455082632815458 0.31928235465853205 0.38583008615932923
3 99 160 11 0.4455082632815458 0.31928235465853205 0.38583008615932923
3 8 10 258 0.4455082632815458 0.31928235465853205 0.38583008615932923
3 10 160 258 0.4455082632815458 0.31928235465853205 0.38583008615932923
3 258 160 259 0.4455082632815458 0.31928235465853205 0.38583008615932923
3 313 312 510 0.4455082632815458 0.31928235465853205 0.38583008615932923
3 370 312 313 0.4455082632815458 0.31928235465853205 0.38583008615932923
3 217 538 216 0.4455082632815458 0.31928235465853205 0.38583008615932923
3 391 538 211 0.4455082632815458 0.31928235465853205 0.38583008615932923
3 211 210 391 0.4455082632815458 0.31928235465853205 0.38583008615932923
3 393 217 218 0.4455082632815458 0.31928235465853205 0.38583008615932923
3 538 217 393 0.4455082632815458 0.31928235465853205 0.38583008615932923
3 71 72 205 0.4455082632815458 0.31928235465853205 0.38583008615932923
3 2 3 155 0.4455082632815458 0.31928235465853205 0.38583008615932923
3 155 92 156 0.4455082632815458 0.31928235465853205 0.38583008615932923
3 481 116 482 0.4455082632815458 0.31928235465853205 0.38583008615932923
3 482 111 481 0.4455082632815458 0.31928235465853205 0.38583008615932923
3 32 33 298 0.4455082632815458 0.31928235465853205 0.38583008615932923
3 298 115 32 0.4455082632815458 0.31928235465853205 0.38583008615932923
3 32 115 31 0.4455082632815458 0.31928235465853205 0.38583008615932923
3 470 165 22 0.4455082632815458 0.31928235465853205 0.38583008615932923
3 23 221 470 0.4455082632815458 0.31928235465853205 0.38583008615932923
3 470 22 23 0.4455082632815458 0.31928235465853205 0.38583008615932923
3 470 221 222 0.4455082632815458 0.31928235465853205 0.38583008615932923
3 222 471 470 0.4455082632815458 0.31928235465853205 0.38583008615932923
3 471 165 470 0.4455082632815458 0.31928235465853205 0.38583008615932923
3 118 484 483 0.4455082632815458 0.31928235465853205 0.38583008615932923
3 184 433 434 0.4455082632815458 0.31928235465853205 0.38583008615932923
3 486 304 487 0.4455082632815458 0.31928235465853205 0.38583008615932923
3 429 34 35 0.4455082632815458 0.31928235465853205 0.38583008615932923
3 354 36 37 0.4455082632815458 0.31928235465853205 0.38583008615932923
3 37 233 354 0.4455082632815458 0.31928235465853205 0.38583008615932923
3 434 433 232 0.4455082632815458 0.31928235465853205 0.38583008615932923
3 510 312 509 0.4455082632815458 0.31928235465853205 0.38583008615932923
3 509 379 510 0.4455082632815458 0.31928235465853205 0.38583008615932923
3 310 309 199 0.4455082632815458 0.31928235465853205 0.38583008615932923
3 194 309 310 0.4455082632815458 0.31928235465853205 0.38583008615932923
3 453 334 146 0.4455082632815458 0.31928235465853205 0.38583008615932923
3 453 454 335 0.4455082632815458 0.31928235465853205 0.38583008615932923
3 335 334 453 0.4455082632815458 0.31928235465853205 0.38583008615932923
3 546 469 547 0.4455082632815458 0.31928235465853205 0.38583008615932923
3 353 352 543 0.4455082632815458 0.31928235465853205 0.38583008615932923
3 344 532 345 0.4455082632815458 0.31928235465853205 0.38583008615932923
3 280 476 477 0.4455082632815458 0.31928235465853205 0.38583008615932923
3 174 424 287 0.4455082632815458 0.31928235465853205 0.38583008615932923
3 287 424 288 0.4455082632815458 0.31928235465853205 0.38583008615932923
3 179 424 423 0.4455082632815458 0.31928235465853205 0.38583008615932923
3 477 289 478 0.4455082632815458 0.31928235465853205 0.38583008615932923
3 271 464 270 0.4455082632815458 0.31928235465853205 0.38583008615932923
3 84 254 269 0.4455082632815458 0.31928235465853205 0.38583008615932923
3 270 106 269 0.4455082632815458 0.31928235465853205 0.38583008615932923
3 87 411 412 0.4455082632815458 0.31928235465853205 0.38583008615932923
3 412 254 87 0.4455082632815458 0.31928235465853205 0.38583008615932923
3 252 86 87 0.4455082632815458 0.31928235465853205 0.38583008615932923
3 87 86 411 0.4455082632815458 0.31928235465853205 0.38583008615932923
3 468 469 408 0.4455082632815458 0.31928235465853205 0.38583008615932923
3 408 546 545 0.4455082632815458 0.31928235465853205 0.38583008615932923
3 469 546 408 0.4455082632815458 0.31928235465853205 0.38583008615932923
3 265 407 406 0.4455082632815458 0.31928235465853205 0.38583008615932923
3 264 464 465 0.4455082632815458 0.31928235465853205 0.38583008615932923
3 465 265 264 0.4455082632815458 0.31928235465853205 0.38583008615932923
3 466 265 465 0.4455082632815458 0.31928235465853205 0.38583008615932923
3 272 466 465 0.4455082632815458 0.31928235465853205 0.38583008615932923
3 465 271 272 0.4455082632815458 0.31928235465853205 0.38583008615932923
3 464 271 465 0.4455082632815458 0.31928235465853205 0.38583008615932923
3 468 408 467 0.4455082632815458 0.31928235465853205 0.38583008615932923
3 467 408 407 0.4455082632815458 0.31928235465853205 0.38583008615932923
3 407 265 467 0.4455082632815458 0.31928235465853205 0.38583008615932923
3 467 265 466 0.4455082632815458 0.31928235465853205 0.38583008615932923
3 396 406 543 0.4455082632815458 0.31928235465853205 0.38583008615932923
3 395 220 396 0.4455082632815458 0.31928235465853205 0.38583008615932923
3 543 352 396 0.4455082632815458 0.31928235465853205 0.38583008615932923
3 264 265 405 0.4455082632815458 0.31928235465853205 0.38583008615932923
3 405 265 406 0.4455082632815458 0.31928235465853205 0.38583008615932923
3 406 396 405 0.4455082632815458 0.31928235465853205 0.38583008615932923
3 405 396 220 0.4455082632815458 0.31928235465853205 0.38583008615932923
3 285 224 284 0.4455082632815458 0.31928235465853205 0.38583008615932923
3 419 171 170 0.4455082632815458 0.31928235465853205 0.38583008615932923
3 170 282 26 0.4455082632815458 0.31928235465853205 0.38583008615932923
3 26 27 170 0.4455082632815458 0.31928235465853205 0.38583008615932923
3 170 27 419 0.4455082632815458 0.31928235465853205 0.38583008615932923
3 420 171 419 0.4455082632815458 0.31928235465853205 0.38583008615932923
3 222 282 283 0.4455082632815458 0.31928235465853205 0.38583008615932923
3 283 171 284 0.4455082632815458 0.31928235465853205 0.38583008615932923
3 282 170 283 0.4455082632815458 0.31928235465853205 0.38583008615932923
3 283 170 171 0.4455082632815458 0.31928235465853205 0.38583008615932923
3 283 223 222 0.4455082632815458 0.31928235465853205 0.38583008615932923
3 284 223 283 0.4455082632815458 0.31928235465853205 0.38583008615932923
3 30 111 290 0.4455082632815458 0.31928235465853205 0.38583008615932923
3 290 29 30 0.4455082632815458 0.31928235465853205 0.38583008615932923
3 487 304 305 0.4455082632815458 0.31928235465853205 0.38583008615932923
3 409 107 108 0.4455082632815458 0.31928235465853205 0.38583008615932923
3 472 224 473 0.4455082632815458 0.31928235465853205 0.38583008615932923
3 412 411 110 0.4455082632815458 0.31928235465853205 0.38583008615932923
3 123 439 54 0.4455082632815458 0.31928235465853205 0.38583008615932923
3 439 53 54 0.4455082632815458 0.31928235465853205 0.38583008615932923
3 55 123 54 0.4455082632815458 0.31928235465853205 0.38583008615932923
3 189 244 243 0.4455082632815458 0.31928235465853205 0.38583008615932923
3 47 503 195 0.4455082632815458 0.31928235465853205 0.38583008615932923
3 195 46 47 0.4455082632815458 0.31928235465853205 0.38583008615932923
3 248 249 506 0.4455082632815458 0.31928235465853205 0.38583008615932923
3 135 514 136 0.4455082632815458 0.31928235465853205 0.38583008615932923
3 63 514 135 0.4455082632815458 0.31928235465853205 0.38583008615932923
3 135 62 63 0.4455082632815458 0.31928235465853205 0.38583008615932923
3 322 62 135 0.4455082632815458 0.31928235465853205 0.38583008615932923
3 444 319 320 0.4455082632815458 0.31928235465853205 0.38583008615932923
3 130 384 318 0.4455082632815458 0.31928235465853205 0.38583008615932923
3 317 383 130 0.4455082632815458 0.31928235465853205 0.38583008615932923
3 133 384 130 0.4455082632815458 0.31928235465853205 0.38583008615932923
3 130 383 133 0.4455082632815458 0.31928235465853205 0.38583008615932923
3 320 319 386 0.4455082632815458 0.31928235465853205 0.38583008615932923
3 319 385 386 0.4455082632815458 0.31928235465853205 0.38583008615932923
3 325 134 137 0.4455082632815458 0.31928235465853205 0.38583008615932923
3 325 385 134 0.4455082632815458 0.31928235465853205 0.38583008615932923
3 119 88 89 0.4455082632815458 0.31928235465853205 0.38583008615932923
3 459 13 103 0.4455082632815458 0.31928235465853205 0.38583008615932923
3 79 104 103 0.4455082632815458 0.31928235465853205 0.38583008615932923
3 14 79 103 0.4455082632815458 0.31928235465853205 0.38583008615932923
3 103 13 14 0.4455082632815458 0.31928235465853205 0.38583008615932923
3 100 99 459 0.4455082632815458 0.31928235465853205 0.38583008615932923
3 161 99 100 0.4455082632815458 0.31928235465853205 0.38583008615932923
3 162 161 100 0.4455082632815458 0.31928235465853205 0.38583008615932923
3 81 269 106 0.4455082632815458 0.31928235465853205 0.38583008615932923
3 98 402 401 0.4455082632815458 0.31928235465853205 0.38583008615932923
3 403 402 98 0.4455082632815458 0.31928235465853205 0.38583008615932923
3 93 78 94 0.4455082632815458 0.31928235465853205 0.38583008615932923
3 94 78 402 0.4455082632815458 0.31928235465853205 0.38583008615932923
3 403 159 94 0.4455082632815458 0.31928235465853205 0.38583008615932923
3 94 402 403 0.4455082632815458 0.31928235465853205 0.38583008615932923
3 401 400 97 0.4455082632815458 0.31928235465853205 0.38583008615932923
3 97 260 261 0.4455082632815458 0.31928235465853205 0.38583008615932923
3 97 98 401 0.4455082632815458 0.31928235465853205 0.38583008615932923
3 261 98 97 0.4455082632815458 0.31928235465853205 0.38583008615932923
3 401 78 77 0.4455082632815458 0.31928235465853205 0.38583008615932923
3 77 400 401 0.4455082632815458 0.31928235465853205 0.38583008615932923
3 77 78 92 0.4455082632815458 0.31928235465853205 0.38583008615932923
3 95 258 259 0.4455082632815458 0.31928235465853205 0.38583008615932923
3 163 102 164 0.4455082632815458 0.31928235465853205 0.38583008615932923
3 163 261 162 0.4455082632815458 0.31928235465853205 0.38583008615932923
3 460 103 104 0.4455082632815458 0.31928235465853205 0.38583008615932923
3 459 103 460 0.4455082632815458 0.31928235465853205 0.38583008615932923
3 460 100 459 0.4455082632815458 0.31928235465853205 0.38583008615932923
3 8 258 7 0.4455082632815458 0.31928235465853205 0.38583008615932923
3 7 95 6 0.4455082632815458 0.31928235465853205 0.38583008615932923
3 258 95 7 0.4455082632815458 0.31928235465853205 0.38583008615932923
3 320 321 445 0.4455082632815458 0.31928235465853205 0.38583008615932923
3 445 444 320 0.4455082632815458 0.31928235465853205 0.38583008615932923
3 377 444 445 0.4455082632815458 0.31928235465853205 0.38583008615932923
3 380 379 447 0.4455082632815458 0.31928235465853205 0.38583008615932923
3 510 379 380 0.4455082632815458 0.31928235465853205 0.38583008615932923
3 522 389 521 0.4455082632815458 0.31928235465853205 0.38583008615932923
3 522 457 523 0.4455082632815458 0.31928235465853205 0.38583008615932923
3 447 389 448 0.4455082632815458 0.31928235465853205 0.38583008615932923
3 448 380 447 0.4455082632815458 0.31928235465853205 0.38583008615932923
3 512 380 448 0.4455082632815458 0.31928235465853205 0.38583008615932923
3 523 513 448 0.4455082632815458 0.31928235465853205 0.38583008615932923
3 513 512 448 0.4455082632815458 0.31928235465853205 0.38583008615932923
3 448 522 523 0.4455082632815458 0.31928235465853205 0.38583008615932923
3 389 522 448 0.4455082632815458 0.31928235465853205 0.38583008615932923
3 67 143 66 0.4455082632815458 0.31928235465853205 0.38583008615932923
3 66 330 65 0.4455082632815458 0.31928235465853205 0.38583008615932923
3 66 143 330 0.4455082632815458 0.31928235465853205 0.38583008615932923
3 518 334 519 0.4455082632815458 0.31928235465853205 0.38583008615932923
3 519 327 518 0.4455082632815458 0.31928235465853205 0.38583008615932923
3 328 327 519 0.4455082632815458 0.31928235465853205 0.38583008615932923
3 519 520 328 0.4455082632815458 0.31928235465853205 0.38583008615932923
3 519 334 335 0.4455082632815458 0.31928235465853205 0.38583008615932923
3 335 520 519 0.4455082632815458 0.31928235465853205 0.38583008615932923
3 148 149 451 0.4455082632815458 0.31928235465853205 0.38583008615932923
3 68 69 338 0.4455082632815458 0.31928235465853205 0.38583008615932923
3 338 147 68 0.4455082632815458 0.31928235465853205 0.38583008615932923
3 450 147 148 0.4455082632815458 0.31928235465853205 0.38583008615932923
3 148 451 450 0.4455082632815458 0.31928235465853205 0.38583008615932923
3 210 211 346 0.4455082632815458 0.31928235465853205 0.38583008615932923
3 73 210 346 0.4455082632815458 0.31928235465853205 0.38583008615932923
3 346 72 73 0.4455082632815458 0.31928235465853205 0.38583008615932923
3 346 205 72 0.4455082632815458 0.31928235465853205 0.38583008615932923
3 346 211 347 0.4455082632815458 0.31928235465853205 0.38583008615932923
3 347 205 346 0.4455082632815458 0.31928235465853205 0.38583008615932923
3 540 214 213 0.4455082632815458 0.31928235465853205 0.38583008615932923
3 213 393 540 0.4455082632815458 0.31928235465853205 0.38583008615932923
3 540 393 218 0.4455082632815458 0.31928235465853205 0.38583008615932923
3 395 214 540 0.4455082632815458 0.31928235465853205 0.38583008615932923
3 538 393 212 0.4455082632815458 0.31928235465853205 0.38583008615932923
3 212 348 347 0.4455082632815458 0.31928235465853205 0.38583008615932923
3 213 348 212 0.4455082632815458 0.31928235465853205 0.38583008615932923
3 212 393 213 0.4455082632815458 0.31928235465853205 0.38583008615932923
3 347 211 212 0.4455082632815458 0.31928235465853205 0.38583008615932923
3 212 211 538 0.4455082632815458 0.31928235465853205 0.38583008615932923
3 338 69 151 0.4455082632815458 0.31928235465853205 0.38583008615932923
3 69 70 151 0.4455082632815458 0.31928235465853205 0.38583008615932923
3 213 214 349 0.4455082632815458 0.31928235465853205 0.38583008615932923
3 349 348 213 0.4455082632815458 0.31928235465853205 0.38583008615932923
3 390 2 215 0.4455082632815458 0.31928235465853205 0.38583008615932923
3 2 155 215 0.4455082632815458 0.31928235465853205 0.38583008615932923
3 215 391 390 0.4455082632815458 0.31928235465853205 0.38583008615932923
3 215 216 391 0.4455082632815458 0.31928235465853205 0.38583008615932923
3 156 216 215 0.4455082632815458 0.31928235465853205 0.38583008615932923
3 215 155 156 0.4455082632815458 0.31928235465853205 0.38583008615932923
3 111 482 112 0.4455082632815458 0.31928235465853205 0.38583008615932923
3 112 482 483 0.4455082632815458 0.31928235465853205 0.38583008615932923
3 294 486 295 0.4455082632815458 0.31928235465853205 0.38583008615932923
3 295 179 294 0.4455082632815458 0.31928235465853205 0.38583008615932923
3 424 179 295 0.4455082632815458 0.31928235465853205 0.38583008615932923
3 425 424 295 0.4455082632815458 0.31928235465853205 0.38583008615932923
3 295 486 487 0.4455082632815458 0.31928235465853205 0.38583008615932923
3 485 486 294 0.4455082632815458 0.31928235465853205 0.38583008615932923
3 294 114 485 0.4455082632815458 0.31928235465853205 0.38583008615932923
3 485 114 484 0.4455082632815458 0.31928235465853205 0.38583008615932923
3 485 118 302 0.4455082632815458 0.31928235465853205 0.38583008615932923
3 484 118 485 0.4455082632815458 0.31928235465853205 0.38583008615932923
3 304 486 303 0.4455082632815458 0.31928235465853205 0.38583008615932923
3 303 485 302 0.4455082632815458 0.31928235465853205 0.38583008615932923
3 486 485 303 0.4455082632815458 0.31928235465853205 0.38583008615932923
3 303 184 434 0.4455082632815458 0.31928235465853205 0.38583008615932923
3 302 184 303 0.4455082632815458 0.31928235465853205 0.38583008615932923
3 35 36 227 0.4455082632815458 0.31928235465853205 0.38583008615932923
3 227 429 35 0.4455082632815458 0.31928235465853205 0.38583008615932923
3 36 354 227 0.4455082632815458 0.31928235465853205 0.38583008615932923
3 228 429 227 0.4455082632815458 0.31928235465853205 0.38583008615932923
3 34 429 180 0.4455082632815458 0.31928235465853205 0.38583008615932923
3 298 33 180 0.4455082632815458 0.31928235465853205 0.38583008615932923
3 33 34 180 0.4455082632815458 0.31928235465853205 0.38583008615932923
3 117 118 483 0.4455082632815458 0.31928235465853205 0.38583008615932923
3 483 482 117 0.4455082632815458 0.31928235465853205 0.38583008615932923
3 117 482 116 0.4455082632815458 0.31928235465853205 0.38583008615932923
3 299 115 298 0.4455082632815458 0.31928235465853205 0.38583008615932923
3 116 115 299 0.4455082632815458 0.31928235465853205 0.38583008615932923
3 433 184 183 0.4455082632815458 0.31928235465853205 0.38583008615932923
3 234 354 233 0.4455082632815458 0.31928235465853205 0.38583008615932923
3 234 492 493 0.4455082632815458 0.31928235465853205 0.38583008615932923
3 233 492 234 0.4455082632815458 0.31928235465853205 0.38583008615932923
3 369 312 370 0.4455082632815458 0.31928235465853205 0.38583008615932923
3 379 509 378 0.4455082632815458 0.31928235465853205 0.38583008615932923
3 377 445 378 0.4455082632815458 0.31928235465853205 0.38583008615932923
3 311 509 312 0.4455082632815458 0.31928235465853205 0.38583008615932923
3 311 310 199 0.4455082632815458 0.31928235465853205 0.38583008615932923
3 194 310 311 0.4455082632815458 0.31928235465853205 0.38583008615932923
3 312 369 311 0.4455082632815458 0.31928235465853205 0.38583008615932923
3 335 454 336 0.4455082632815458 0.31928235465853205 0.38583008615932923
3 454 455 336 0.4455082632815458 0.31928235465853205 0.38583008615932923
3 336 520 335 0.4455082632815458 0.31928235465853205 0.38583008615932923
3 521 520 336 0.4455082632815458 0.31928235465853205 0.38583008615932923
3 454 453 342 0.4455082632815458 0.31928235465853205 0.38583008615932923
3 531 530 352 0.4455082632815458 0.31928235465853205 0.38583008615932923
3 352 353 531 0.4455082632815458 0.31928235465853205 0.38583008615932923
3 531 353 532 0.4455082632815458 0.31928235465853205 0.38583008615932923
3 531 532 344 0.4455082632815458 0.31928235465853205 0.38583008615932923
3 458 524 523 0.4455082632815458 0.31928235465853205 0.38583008615932923
3 523 457 458 0.4455082632815458 0.31928235465853205 0.38583008615932923
3 533 345 532 0.4455082632815458 0.31928235465853205 0.38583008615932923
3 457 345 533 0.4455082632815458 0.31928235465853205 0.38583008615932923
3 544 408 545 0.4455082632815458 0.31928235465853205 0.38583008615932923
3 407 408 544 0.4455082632815458 0.31928235465853205 0.38583008615932923
3 545 533 544 0.4455082632815458 0.31928235465853205 0.38583008615932923
3 543 407 544 0.4455082632815458 0.31928235465853205 0.38583008615932923
3 544 353 543 0.4455082632815458 0.31928235465853205 0.38583008615932923
3 532 353 544 0.4455082632815458 0.31928235465853205 0.38583008615932923
3 544 533 532 0.4455082632815458 0.31928235465853205 0.38583008615932923
3 416 478 417 0.4455082632815458 0.31928235465853205 0.38583008615932923
3 270 269 255 0.4455082632815458 0.31928235465853205 0.38583008615932923
3 255 269 254 0.4455082632815458 0.31928235465853205 0.38583008615932923
3 278 169 475 0.4455082632815458 0.31928235465853205 0.38583008615932923
3 278 277 169 0.4455082632815458 0.31928235465853205 0.38583008615932923
3 278 110 277 0.4455082632815458 0.31928235465853205 0.38583008615932923
3 256 271 270 0.4455082632815458 0.31928235465853205 0.38583008615932923
3 270 255 256 0.4455082632815458 0.31928235465853205 0.38583008615932923
3 253 254 84 0.4455082632815458 0.31928235465853205 0.38583008615932923
3 253 87 254 0.4455082632815458 0.31928235465853205 0.38583008615932923
3 252 87 253 0.4455082632815458 0.31928235465853205 0.38583008615932923
3 253 83 252 0.4455082632815458 0.31928235465853205 0.38583008615932923
3 84 83 253 0.4455082632815458 0.31928235465853205 0.38583008615932923
3 404 263 264 0.4455082632815458 0.31928235465853205 0.38583008615932923
3 264 405 404 0.4455082632815458 0.31928235465853205 0.38583008615932923
3 403 263 404 0.4455082632815458 0.31928235465853205 0.38583008615932923
3 404 159 403 0.4455082632815458 0.31928235465853205 0.38583008615932923
3 404 220 159 0.4455082632815458 0.31928235465853205 0.38583008615932923
3 404 405 220 0.4455082632815458 0.31928235465853205 0.38583008615932923
3 173 285 172 0.4455082632815458 0.31928235465853205 0.38583008615932923
3 172 285 284 0.4455082632815458 0.31928235465853205 0.38583008615932923
3 284 171 172 0.4455082632815458 0.31928235465853205 0.38583008615932923
3 171 420 172 0.4455082632815458 0.31928235465853205 0.38583008615932923
3 421 420 176 0.4455082632815458 0.31928235465853205 0.38583008615932923
3 176 177 421 0.4455082632815458 0.31928235465853205 0.38583008615932923
3 421 172 420 0.4455082632815458 0.31928235465853205 0.38583008615932923
3 173 172 421 0.4455082632815458 0.31928235465853205 0.38583008615932923
3 175 290 176 0.4455082632815458 0.31928235465853205 0.38583008615932923
3 175 420 419 0.4455082632815458 0.31928235465853205 0.38583008615932923
3 176 420 175 0.4455082632815458 0.31928235465853205 0.38583008615932923
3 419 28 175 0.4455082632815458 0.31928235465853205 0.38583008615932923
3 28 29 175 0.4455082632815458 0.31928235465853205 0.38583008615932923
3 29 290 175 0.4455082632815458 0.31928235465853205 0.38583008615932923
3 502 512 513 0.4455082632815458 0.31928235465853205 0.38583008615932923
3 502 513 547 0.4455082632815458 0.31928235465853205 0.38583008615932923
3 362 438 437 0.4455082632815458 0.31928235465853205 0.38583008615932923
3 427 478 289 0.4455082632815458 0.31928235465853205 0.38583008615932923
3 360 232 359 0.4455082632815458 0.31928235465853205 0.38583008615932923
3 437 305 436 0.4455082632815458 0.31928235465853205 0.38583008615932923
3 436 362 437 0.4455082632815458 0.31928235465853205 0.38583008615932923
3 361 362 436 0.4455082632815458 0.31928235465853205 0.38583008615932923
3 436 305 304 0.4455082632815458 0.31928235465853205 0.38583008615932923
3 109 110 411 0.4455082632815458 0.31928235465853205 0.38583008615932923
3 277 110 109 0.4455082632815458 0.31928235465853205 0.38583008615932923
3 275 107 274 0.4455082632815458 0.31928235465853205 0.38583008615932923
3 275 108 107 0.4455082632815458 0.31928235465853205 0.38583008615932923
3 274 166 275 0.4455082632815458 0.31928235465853205 0.38583008615932923
3 409 108 410 0.4455082632815458 0.31928235465853205 0.38583008615932923
3 410 85 409 0.4455082632815458 0.31928235465853205 0.38583008615932923
3 410 86 85 0.4455082632815458 0.31928235465853205 0.38583008615932923
3 411 86 410 0.4455082632815458 0.31928235465853205 0.38583008615932923
3 410 109 411 0.4455082632815458 0.31928235465853205 0.38583008615932923
3 108 109 410 0.4455082632815458 0.31928235465853205 0.38583008615932923
3 169 277 168 0.4455082632815458 0.31928235465853205 0.38583008615932923
3 224 285 225 0.4455082632815458 0.31928235465853205 0.38583008615932923
3 225 473 224 0.4455082632815458 0.31928235465853205 0.38583008615932923
3 250 249 377 0.4455082632815458 0.31928235465853205 0.38583008615932923
3 377 378 250 0.4455082632815458 0.31928235465853205 0.38583008615932923
3 250 378 509 0.4455082632815458 0.31928235465853205 0.38583008615932923
3 377 249 376 0.4455082632815458 0.31928235465853205 0.38583008615932923
3 376 249 248 0.4455082632815458 0.31928235465853205 0.38583008615932923
3 246 373 374 0.4455082632815458 0.31928235465853205 0.38583008615932923
3 374 247 246 0.4455082632815458 0.31928235465853205 0.38583008615932923
3 504 195 503 0.4455082632815458 0.31928235465853205 0.38583008615932923
3 504 503 246 0.4455082632815458 0.31928235465853205 0.38583008615932923
3 246 247 504 0.4455082632815458 0.31928235465853205 0.38583008615932923
3 44 185 43 0.4455082632815458 0.31928235465853205 0.38583008615932923
3 195 504 196 0.4455082632815458 0.31928235465853205 0.38583008615932923
3 507 506 249 0.4455082632815458 0.31928235465853205 0.38583008615932923
3 249 250 507 0.4455082632815458 0.31928235465853205 0.38583008615932923
3 199 309 198 0.4455082632815458 0.31928235465853205 0.38583008615932923
3 198 507 199 0.4455082632815458 0.31928235465853205 0.38583008615932923
3 506 507 198 0.4455082632815458 0.31928235465853205 0.38583008615932923
3 197 506 198 0.4455082632815458 0.31928235465853205 0.38583008615932923
3 308 197 198 0.4455082632815458 0.31928235465853205 0.38583008615932923
3 198 309 308 0.4455082632815458 0.31928235465853205 0.38583008615932923
3 505 506 197 0.4455082632815458 0.31928235465853205 0.38583008615932923
3 505 504 247 0.4455082632815458 0.31928235465853205 0.38583008615932923
3 505 247 248 0.4455082632815458 0.31928235465853205 0.38583008615932923
3 248 506 505 0.4455082632815458 0.31928235465853205 0.38583008615932923
3 197 196 505 0.4455082632815458 0.31928235465853205 0.38583008615932923
3 505 196 504 0.4455082632815458 0.31928235465853205 0.38583008615932923
3 330 140 139 0.4455082632815458 0.31928235465853205 0.38583008615932923
3 65 330 139 0.4455082632815458 0.31928235465853205 0.38583008615932923
3 139 64 65 0.4455082632815458 0.31928235465853205 0.38583008615932923
3 139 514 64 0.4455082632815458 0.31928235465853205 0.38583008615932923
3 141 140 331 0.4455082632815458 0.31928235465853205 0.38583008615932923
3 144 332 331 0.4455082632815458 0.31928235465853205 0.38583008615932923
3 331 332 141 0.4455082632815458 0.31928235465853205 0.38583008615932923
3 331 140 330 0.4455082632815458 0.31928235465853205 0.38583008615932923
3 331 143 144 0.4455082632815458 0.31928235465853205 0.38583008615932923
3 330 143 331 0.4455082632815458 0.31928235465853205 0.38583008615932923
3 141 332 142 0.4455082632815458 0.31928235465853205 0.38583008615932923
3 129 383 317 0.4455082632815458 0.31928235465853205 0.38583008615932923
3 129 316 382 0.4455082632815458 0.31928235465853205 0.38583008615932923
3 382 132 129 0.4455082632815458 0.31928235465853205 0.38583008615932923
3 132 383 129 0.4455082632815458 0.31928235465853205 0.38583008615932923
3 323 132 322 0.4455082632815458 0.31928235465853205 0.38583008615932923
3 322 135 323 0.4455082632815458 0.31928235465853205 0.38583008615932923
3 133 383 323 0.4455082632815458 0.31928235465853205 0.38583008615932923
3 323 383 132 0.4455082632815458 0.31928235465853205 0.38583008615932923
3 323 136 133 0.4455082632815458 0.31928235465853205 0.38583008615932923
3 323 135 136 0.4455082632815458 0.31928235465853205 0.38583008615932923
3 317 130 126 0.4455082632815458 0.31928235465853205 0.38583008615932923
3 318 442 126 0.4455082632815458 0.31928235465853205 0.38583008615932923
3 126 130 318 0.4455082632815458 0.31928235465853205 0.38583008615932923
3 387 328 321 0.4455082632815458 0.31928235465853205 0.38583008615932923
3 387 327 328 0.4455082632815458 0.31928235465853205 0.38583008615932923
3 387 321 320 0.4455082632815458 0.31928235465853205 0.38583008615932923
3 320 386 387 0.4455082632815458 0.31928235465853205 0.38583008615932923
3 387 386 327 0.4455082632815458 0.31928235465853205 0.38583008615932923
3 326 386 385 0.4455082632815458 0.31928235465853205 0.38583008615932923
3 385 325 326 0.4455082632815458 0.31928235465853205 0.38583008615932923
3 518 327 326 0.4455082632815458 0.31928235465853205 0.38583008615932923
3 327 386 326 0.4455082632815458 0.31928235465853205 0.38583008615932923
3 138 325 137 0.4455082632815458 0.31928235465853205 0.38583008615932923
3 138 326 325 0.4455082632815458 0.31928235465853205 0.38583008615932923
3 440 88 439 0.4455082632815458 0.31928235465853205 0.38583008615932923
3 440 89 88 0.4455082632815458 0.31928235465853205 0.38583008615932923
3 120 200 119 0.4455082632815458 0.31928235465853205 0.38583008615932923
3 119 89 120 0.4455082632815458 0.31928235465853205 0.38583008615932923
3 84 269 268 0.4455082632815458 0.31928235465853205 0.38583008615932923
3 269 81 268 0.4455082632815458 0.31928235465853205 0.38583008615932923
3 268 83 84 0.4455082632815458 0.31928235465853205 0.38583008615932923
3 461 460 104 0.4455082632815458 0.31928235465853205 0.38583008615932923
3 79 266 80 0.4455082632815458 0.31928235465853205 0.38583008615932923
3 80 104 79 0.4455082632815458 0.31928235465853205 0.38583008615932923
3 218 217 158 0.4455082632815458 0.31928235465853205 0.38583008615932923
3 158 159 218 0.4455082632815458 0.31928235465853205 0.38583008615932923
3 158 94 159 0.4455082632815458 0.31928235465853205 0.38583008615932923
3 400 77 76 0.4455082632815458 0.31928235465853205 0.38583008615932923
3 96 95 259 0.4455082632815458 0.31928235465853205 0.38583008615932923
3 259 260 96 0.4455082632815458 0.31928235465853205 0.38583008615932923
3 260 97 96 0.4455082632815458 0.31928235465853205 0.38583008615932923
3 96 97 400 0.4455082632815458 0.31928235465853205 0.38583008615932923
3 262 98 261 0.4455082632815458 0.31928235465853205 0.38583008615932923
3 261 163 262 0.4455082632815458 0.31928235465853205 0.38583008615932923
3 262 163 164 0.4455082632815458 0.31928235465853205 0.38583008615932923
3 403 98 262 0.4455082632815458 0.31928235465853205 0.38583008615932923
3 262 263 403 0.4455082632815458 0.31928235465853205 0.38583008615932923
3 164 263 262 0.4455082632815458 0.31928235465853205 0.38583008615932923
3 328 520 329 0.4455082632815458 0.31928235465853205 0.38583008615932923
3 521 389 329 0.4455082632815458 0.31928235465853205 0.38583008615932923
3 329 520 521 0.4455082632815458 0.31928235465853205 0.38583008615932923
3 446 445 321 0.4455082632815458 0.31928235465853205 0.38583008615932923
3 447 379 446 0.4455082632815458 0.31928235465853205 0.38583008615932923
3 379 378 446 0.4455082632815458 0.31928235465853205 0.38583008615932923
3 446 378 445 0.4455082632815458 0.31928235465853205 0.38583008615932923
3 511 380 512 0.4455082632815458 0.31928235465853205 0.38583008615932923
3 511 313 510 0.4455082632815458 0.31928235465853205 0.38583008615932923
3 510 380 511 0.4455082632815458 0.31928235465853205 0.38583008615932923
3 457 522 337 0.4455082632815458 0.31928235465853205 0.38583008615932923
3 337 522 521 0.4455082632815458 0.31928235465853205 0.38583008615932923
3 521 336 337 0.4455082632815458 0.31928235465853205 0.38583008615932923
3 337 336 455 0.4455082632815458 0.31928235465853205 0.38583008615932923
3 145 332 144 0.4455082632815458 0.31928235465853205 0.38583008615932923
3 144 450 145 0.4455082632815458 0.31928235465853205 0.38583008615932923
3 145 450 451 0.4455082632815458 0.31928235465853205 0.38583008615932923
3 145 451 146 0.4455082632815458 0.31928235465853205 0.38583008615932923
3 452 451 149 0.4455082632815458 0.31928235465853205 0.38583008615932923
3 452 453 146 0.4455082632815458 0.31928235465853205 0.38583008615932923
3 146 451 452 0.4455082632815458 0.31928235465853205 0.38583008615932923
3 147 450 449 0.4455082632815458 0.31928235465853205 0.38583008615932923
3 67 68 449 0.4455082632815458 0.31928235465853205 0.38583008615932923
3 449 68 147 0.4455082632815458 0.31928235465853205 0.38583008615932923
3 449 143 67 0.4455082632815458 0.31928235465853205 0.38583008615932923
3 144 143 449 0.4455082632815458 0.31928235465853205 0.38583008615932923
3 449 450 144 0.4455082632815458 0.31928235465853205 0.38583008615932923
3 218 159 219 0.4455082632815458 0.31928235465853205 0.38583008615932923
3 219 540 218 0.4455082632815458 0.31928235465853205 0.38583008615932923
3 159 220 219 0.4455082632815458 0.31928235465853205 0.38583008615932923
3 219 220 395 0.4455082632815458 0.31928235465853205 0.38583008615932923
3 395 540 219 0.4455082632815458 0.31928235465853205 0.38583008615932923
3 341 149 340 0.4455082632815458 0.31928235465853205 0.38583008615932923
3 340 149 148 0.4455082632815458 0.31928235465853205 0.38583008615932923
3 154 342 341 0.4455082632815458 0.31928235465853205 0.38583008615932923
3 341 340 154 0.4455082632815458 0.31928235465853205 0.38583008615932923
3 154 340 153 0.4455082632815458 0.31928235465853205 0.38583008615932923
3 525 70 71 0.4455082632815458 0.31928235465853205 0.38583008615932923
3 525 151 70 0.4455082632815458 0.31928235465853205 0.38583008615932923
3 525 526 151 0.4455082632815458 0.31928235465853205 0.38583008615932923
3 71 205 525 0.4455082632815458 0.31928235465853205 0.38583008615932923
3 348 349 207 0.4455082632815458 0.31928235465853205 0.38583008615932923
3 527 526 207 0.4455082632815458 0.31928235465853205 0.38583008615932923
3 113 112 483 0.4455082632815458 0.31928235465853205 0.38583008615932923
3 292 112 113 0.4455082632815458 0.31928235465853205 0.38583008615932923
3 483 484 113 0.4455082632815458 0.31928235465853205 0.38583008615932923
3 484 114 113 0.4455082632815458 0.31928235465853205 0.38583008615932923
3 291 290 111 0.4455082632815458 0.31928235465853205 0.38583008615932923
3 111 112 291 0.4455082632815458 0.31928235465853205 0.38583008615932923
3 176 290 291 0.4455082632815458 0.31928235465853205 0.38583008615932923
3 291 112 292 0.4455082632815458 0.31928235465853205 0.38583008615932923
3 291 177 176 0.4455082632815458 0.31928235465853205 0.38583008615932923
3 292 177 291 0.4455082632815458 0.31928235465853205 0.38583008615932923
3 41 492 233 0.4455082632815458 0.31928235465853205 0.38583008615932923
3 42 492 41 0.4455082632815458 0.31928235465853205 0.38583008615932923
3 41 233 38 0.4455082632815458 0.31928235465853205 0.38583008615932923
3 239 492 42 0.4455082632815458 0.31928235465853205 0.38583008615932923
3 42 43 239 0.4455082632815458 0.31928235465853205 0.38583008615932923
3 239 43 185 0.4455082632815458 0.31928235465853205 0.38583008615932923
3 493 492 239 0.4455082632815458 0.31928235465853205 0.38583008615932923
3 178 179 423 0.4455082632815458 0.31928235465853205 0.38583008615932923
3 178 177 292 0.4455082632815458 0.31928235465853205 0.38583008615932923
3 425 295 296 0.4455082632815458 0.31928235465853205 0.38583008615932923
3 296 295 487 0.4455082632815458 0.31928235465853205 0.38583008615932923
3 228 229 430 0.4455082632815458 0.31928235465853205 0.38583008615932923
3 430 429 228 0.4455082632815458 0.31928235465853205 0.38583008615932923
3 430 180 429 0.4455082632815458 0.31928235465853205 0.38583008615932923
3 301 184 302 0.4455082632815458 0.31928235465853205 0.38583008615932923
3 301 183 184 0.4455082632815458 0.31928235465853205 0.38583008615932923
3 302 118 301 0.4455082632815458 0.31928235465853205 0.38583008615932923
3 118 117 301 0.4455082632815458 0.31928235465853205 0.38583008615932923
3 354 234 355 0.4455082632815458 0.31928235465853205 0.38583008615932923
3 228 227 355 0.4455082632815458 0.31928235465853205 0.38583008615932923
3 355 227 354 0.4455082632815458 0.31928235465853205 0.38583008615932923
3 244 369 498 0.4455082632815458 0.31928235465853205 0.38583008615932923
3 361 360 498 0.4455082632815458 0.31928235465853205 0.38583008615932923
3 368 369 244 0.4455082632815458 0.31928235465853205 0.38583008615932923
3 244 189 368 0.4455082632815458 0.31928235465853205 0.38583008615932923
3 194 311 368 0.4455082632815458 0.31928235465853205 0.38583008615932923
3 368 311 369 0.4455082632815458 0.31928235465853205 0.38583008615932923
3 231 232 433 0.4455082632815458 0.31928235465853205 0.38583008615932923
3 359 232 231 0.4455082632815458 0.31928235465853205 0.38583008615932923
3 231 358 359 0.4455082632815458 0.31928235465853205 0.38583008615932923
3 359 358 238 0.4455082632815458 0.31928235465853205 0.38583008615932923
3 238 360 359 0.4455082632815458 0.31928235465853205 0.38583008615932923
3 432 183 182 0.4455082632815458 0.31928235465853205 0.38583008615932923
3 433 183 432 0.4455082632815458 0.31928235465853205 0.38583008615932923
3 432 231 433 0.4455082632815458 0.31928235465853205 0.38583008615932923
3 343 342 530 0.4455082632815458 0.31928235465853205 0.38583008615932923
3 343 531 344 0.4455082632815458 0.31928235465853205 0.38583008615932923
3 530 531 343 0.4455082632815458 0.31928235465853205 0.38583008615932923
3 454 342 343 0.4455082632815458 0.31928235465853205 0.38583008615932923
3 344 455 343 0.4455082632815458 0.31928235465853205 0.38583008615932923
3 343 455 454 0.4455082632815458 0.31928235465853205 0.38583008615932923
3 524 458 535 0.4455082632815458 0.31928235465853205 0.38583008615932923
3 547 524 535 0.4455082632815458 0.31928235465853205 0.38583008615932923
3 535 546 547 0.4455082632815458 0.31928235465853205 0.38583008615932923
3 273 466 272 0.4455082632815458 0.31928235465853205 0.38583008615932923
3 273 416 417 0.4455082632815458 0.31928235465853205 0.38583008615932923
3 417 467 273 0.4455082632815458 0.31928235465853205 0.38583008615932923
3 273 467 466 0.4455082632815458 0.31928235465853205 0.38583008615932923
3 281 280 477 0.4455082632815458 0.31928235465853205 0.38583008615932923
3 477 478 281 0.4455082632815458 0.31928235465853205 0.38583008615932923
3 478 416 281 0.4455082632815458 0.31928235465853205 0.38583008615932923
3 280 281 415 0.4455082632815458 0.31928235465853205 0.38583008615932923
3 415 281 416 0.4455082632815458 0.31928235465853205 0.38583008615932923
3 413 254 412 0.4455082632815458 0.31928235465853205 0.38583008615932923
3 413 255 254 0.4455082632815458 0.31928235465853205 0.38583008615932923
3 412 110 413 0.4455082632815458 0.31928235465853205 0.38583008615932923
3 110 278 413 0.4455082632815458 0.31928235465853205 0.38583008615932923
3 491 502 547 0.4455082632815458 0.31928235465853205 0.38583008615932923
3 438 502 491 0.4455082632815458 0.31928235465853205 0.38583008615932923
3 438 362 501 0.4455082632815458 0.31928235465853205 0.38583008615932923
3 512 502 501 0.4455082632815458 0.31928235465853205 0.38583008615932923
3 501 502 438 0.4455082632815458 0.31928235465853205 0.38583008615932923
3 499 362 361 0.4455082632815458 0.31928235465853205 0.38583008615932923
3 361 498 499 0.4455082632815458 0.31928235465853205 0.38583008615932923
3 499 369 370 0.4455082632815458 0.31928235465853205 0.38583008615932923
3 499 498 369 0.4455082632815458 0.31928235465853205 0.38583008615932923
3 437 438 489 0.4455082632815458 0.31928235465853205 0.38583008615932923
3 489 305 437 0.4455082632815458 0.31928235465853205 0.38583008615932923
3 426 289 425 0.4455082632815458 0.31928235465853205 0.38583008615932923
3 426 427 289 0.4455082632815458 0.31928235465853205 0.38583008615932923
3 425 296 426 0.4455082632815458 0.31928235465853205 0.38583008615932923
3 434 232 435 0.4455082632815458 0.31928235465853205 0.38583008615932923
3 232 360 435 0.4455082632815458 0.31928235465853205 0.38583008615932923
3 435 303 434 0.4455082632815458 0.31928235465853205 0.38583008615932923
3 304 303 435 0.4455082632815458 0.31928235465853205 0.38583008615932923
3 435 436 304 0.4455082632815458 0.31928235465853205 0.38583008615932923
3 435 360 361 0.4455082632815458 0.31928235465853205 0.38583008615932923
3 361 436 435 0.4455082632815458 0.31928235465853205 0.38583008615932923
3 276 109 108 0.4455082632815458 0.31928235465853205 0.38583008615932923
3 108 275 276 0.4455082632815458 0.31928235465853205 0.38583008615932923
3 277 109 276 0.4455082632815458 0.31928235465853205 0.38583008615932923
3 276 168 277 0.4455082632815458 0.31928235465853205 0.38583008615932923
3 226 288 475 0.4455082632815458 0.31928235465853205 0.38583008615932923
3 226 287 288 0.4455082632815458 0.31928235465853205 0.38583008615932923
3 474 168 473 0.4455082632815458 0.31928235465853205 0.38583008615932923
3 473 225 474 0.4455082632815458 0.31928235465853205 0.38583008615932923
3 169 168 474 0.4455082632815458 0.31928235465853205 0.38583008615932923
3 225 226 474 0.4455082632815458 0.31928235465853205 0.38583008615932923
3 475 169 474 0.4455082632815458 0.31928235465853205 0.38583008615932923
3 474 226 475 0.4455082632815458 0.31928235465853205 0.38583008615932923
3 174 287 286 0.4455082632815458 0.31928235465853205 0.38583008615932923
3 286 225 285 0.4455082632815458 0.31928235465853205 0.38583008615932923
3 287 226 286 0.4455082632815458 0.31928235465853205 0.38583008615932923
3 286 226 225 0.4455082632815458 0.31928235465853205 0.38583008615932923
3 173 174 286 0.4455082632815458 0.31928235465853205 0.38583008615932923
3 286 285 173 0.4455082632815458 0.31928235465853205 0.38583008615932923
3 509 311 508 0.4455082632815458 0.31928235465853205 0.38583008615932923
3 508 250 509 0.4455082632815458 0.31928235465853205 0.38583008615932923
3 508 311 199 0.4455082632815458 0.31928235465853205 0.38583008615932923
3 199 507 508 0.4455082632815458 0.31928235465853205 0.38583008615932923
3 508 507 250 0.4455082632815458 0.31928235465853205 0.38583008615932923
3 204 444 377 0.4455082632815458 0.31928235465853205 0.38583008615932923
3 377 376 204 0.4455082632815458 0.31928235465853205 0.38583008615932923
3 308 309 193 0.4455082632815458 0.31928235465853205 0.38583008615932923
3 193 309 194 0.4455082632815458 0.31928235465853205 0.38583008615932923
3 188 189 243 0.4455082632815458 0.31928235465853205 0.38583008615932923
3 188 366 189 0.4455082632815458 0.31928235465853205 0.38583008615932923
3 189 366 367 0.4455082632815458 0.31928235465853205 0.38583008615932923
3 194 368 367 0.4455082632815458 0.31928235465853205 0.38583008615932923
3 367 368 189 0.4455082632815458 0.31928235465853205 0.38583008615932923
3 367 193 194 0.4455082632815458 0.31928235465853205 0.38583008615932923
3 366 193 367 0.4455082632815458 0.31928235465853205 0.38583008615932923
3 365 188 187 0.4455082632815458 0.31928235465853205 0.38583008615932923
3 366 188 365 0.4455082632815458 0.31928235465853205 0.38583008615932923
3 187 364 365 0.4455082632815458 0.31928235465853205 0.38583008615932923
3 365 364 191 0.4455082632815458 0.31928235465853205 0.38583008615932923
3 195 196 306 0.4455082632815458 0.31928235465853205 0.38583008615932923
3 46 195 306 0.4455082632815458 0.31928235465853205 0.38583008615932923
3 515 139 140 0.4455082632815458 0.31928235465853205 0.38583008615932923
3 137 136 515 0.4455082632815458 0.31928235465853205 0.38583008615932923
3 136 514 515 0.4455082632815458 0.31928235465853205 0.38583008615932923
3 514 139 515 0.4455082632815458 0.31928235465853205 0.38583008615932923
3 333 142 332 0.4455082632815458 0.31928235465853205 0.38583008615932923
3 333 145 146 0.4455082632815458 0.31928235465853205 0.38583008615932923
3 332 145 333 0.4455082632815458 0.31928235465853205 0.38583008615932923
3 146 334 333 0.4455082632815458 0.31928235465853205 0.38583008615932923
3 333 334 518 0.4455082632815458 0.31928235465853205 0.38583008615932923
3 518 142 333 0.4455082632815458 0.31928235465853205 0.38583008615932923
3 441 126 442 0.4455082632815458 0.31928235465853205 0.38583008615932923
3 89 440 441 0.4455082632815458 0.31928235465853205 0.38583008615932923
3 516 138 137 0.4455082632815458 0.31928235465853205 0.38583008615932923
3 516 140 141 0.4455082632815458 0.31928235465853205 0.38583008615932923
3 137 515 516 0.4455082632815458 0.31928235465853205 0.38583008615932923
3 516 515 140 0.4455082632815458 0.31928235465853205 0.38583008615932923
3 141 142 517 0.4455082632815458 0.31928235465853205 0.38583008615932923
3 517 516 141 0.4455082632815458 0.31928235465853205 0.38583008615932923
3 138 516 517 0.4455082632815458 0.31928235465853205 0.38583008615932923
3 517 142 518 0.4455082632815458 0.31928235465853205 0.38583008615932923
3 518 326 517 0.4455082632815458 0.31928235465853205 0.38583008615932923
3 326 138 517 0.4455082632815458 0.31928235465853205 0.38583008615932923
3 124 440 439 0.4455082632815458 0.31928235465853205 0.38583008615932923
3 124 439 123 0.4455082632815458 0.31928235465853205 0.38583008615932923
3 123 315 124 0.4455082632815458 0.31928235465853205 0.38583008615932923
3 124 315 128 0.4455082632815458 0.31928235465853205 0.38583008615932923
3 128 316 124 0.4455082632815458 0.31928235465853205 0.38583008615932923
3 200 120 201 0.4455082632815458 0.31928235465853205 0.38583008615932923
3 201 373 372 0.4455082632815458 0.31928235465853205 0.38583008615932923
3 372 200 201 0.4455082632815458 0.31928235465853205 0.38583008615932923
3 105 461 104 0.4455082632815458 0.31928235465853205 0.38583008615932923
3 104 80 105 0.4455082632815458 0.31928235465853205 0.38583008615932923
3 105 80 81 0.4455082632815458 0.31928235465853205 0.38583008615932923
3 105 81 106 0.4455082632815458 0.31928235465853205 0.38583008615932923
3 102 461 462 0.4455082632815458 0.31928235465853205 0.38583008615932923
3 462 106 463 0.4455082632815458 0.31928235465853205 0.38583008615932923
3 462 105 106 0.4455082632815458 0.31928235465853205 0.38583008615932923
3 461 105 462 0.4455082632815458 0.31928235465853205 0.38583008615932923
3 462 463 164 0.4455082632815458 0.31928235465853205 0.38583008615932923
3 164 102 462 0.4455082632815458 0.31928235465853205 0.38583008615932923
3 460 461 101 0.4455082632815458 0.31928235465853205 0.38583008615932923
3 162 100 101 0.4455082632815458 0.31928235465853205 0.38583008615932923
3 100 460 101 0.4455082632815458 0.31928235465853205 0.38583008615932923
3 101 163 162 0.4455082632815458 0.31928235465853205 0.38583008615932923
3 102 163 101 0.4455082632815458 0.31928235465853205 0.38583008615932923
3 101 461 102 0.4455082632815458 0.31928235465853205 0.38583008615932923
3 267 268 81 0.4455082632815458 0.31928235465853205 0.38583008615932923
3 81 80 267 0.4455082632815458 0.31928235465853205 0.38583008615932923
3 83 268 267 0.4455082632815458 0.31928235465853205 0.38583008615932923
3 267 80 266 0.4455082632815458 0.31928235465853205 0.38583008615932923
3 267 266 82 0.4455082632815458 0.31928235465853205 0.38583008615932923
3 82 83 267 0.4455082632815458 0.31928235465853205 0.38583008615932923
3 93 94 157 0.4455082632815458 0.31928235465853205 0.38583008615932923
3 94 158 157 0.4455082632815458 0.31928235465853205 0.38583008615932923
3 157 158 217 0.4455082632815458 0.31928235465853205 0.38583008615932923
3 156 93 157 0.4455082632815458 0.31928235465853205 0.38583008615932923
3 157 216 156 0.4455082632815458 0.31928235465853205 0.38583008615932923
3 157 217 216 0.4455082632815458 0.31928235465853205 0.38583008615932923
3 91 77 92 0.4455082632815458 0.31928235465853205 0.38583008615932923
3 91 76 77 0.4455082632815458 0.31928235465853205 0.38583008615932923
3 92 155 91 0.4455082632815458 0.31928235465853205 0.38583008615932923
3 4 76 91 0.4455082632815458 0.31928235465853205 0.38583008615932923
3 91 3 4 0.4455082632815458 0.31928235465853205 0.38583008615932923
3 91 155 3 0.4455082632815458 0.31928235465853205 0.38583008615932923
3 5 76 4 0.4455082632815458 0.31928235465853205 0.38583008615932923
3 95 96 399 0.4455082632815458 0.31928235465853205 0.38583008615932923
3 6 95 399 0.4455082632815458 0.31928235465853205 0.38583008615932923
3 400 76 399 0.4455082632815458 0.31928235465853205 0.38583008615932923
3 399 96 400 0.4455082632815458 0.31928235465853205 0.38583008615932923
3 399 5 6 0.4455082632815458 0.31928235465853205 0.38583008615932923
3 76 5 399 0.4455082632815458 0.31928235465853205 0.38583008615932923
3 321 328 388 0.4455082632815458 0.31928235465853205 0.38583008615932923
3 328 329 388 0.4455082632815458 0.31928235465853205 0.38583008615932923
3 447 446 388 0.4455082632815458 0.31928235465853205 0.38583008615932923
3 388 446 321 0.4455082632815458 0.31928235465853205 0.38583008615932923
3 388 389 447 0.4455082632815458 0.31928235465853205 0.38583008615932923
3 388 329 389 0.4455082632815458 0.31928235465853205 0.38583008615932923
3 456 345 457 0.4455082632815458 0.31928235465853205 0.38583008615932923
3 457 337 456 0.4455082632815458 0.31928235465853205 0.38583008615932923
3 456 337 455 0.4455082632815458 0.31928235465853205 0.38583008615932923
3 456 455 344 0.4455082632815458 0.31928235465853205 0.38583008615932923
3 344 345 456 0.4455082632815458 0.31928235465853205 0.38583008615932923
3 150 149 341 0.4455082632815458 0.31928235465853205 0.38583008615932923
3 150 452 149 0.4455082632815458 0.31928235465853205 0.38583008615932923
3 453 452 150 0.4455082632815458 0.31928235465853205 0.38583008615932923
3 341 342 150 0.4455082632815458 0.31928235465853205 0.38583008615932923
3 150 342 453 0.4455082632815458 0.31928235465853205 0.38583008615932923
3 339 340 148 0.4455082632815458 0.31928235465853205 0.38583008615932923
3 339 147 338 0.4455082632815458 0.31928235465853205 0.38583008615932923
3 148 147 339 0.4455082632815458 0.31928235465853205 0.38583008615932923
3 153 340 339 0.4455082632815458 0.31928235465853205 0.38583008615932923
3 527 207 208 0.4455082632815458 0.31928235465853205 0.38583008615932923
3 208 207 349 0.4455082632815458 0.31928235465853205 0.38583008615932923
3 348 207 206 0.4455082632815458 0.31928235465853205 0.38583008615932923
3 206 207 526 0.4455082632815458 0.31928235465853205 0.38583008615932923
3 347 348 206 0.4455082632815458 0.31928235465853205 0.38583008615932923
3 206 205 347 0.4455082632815458 0.31928235465853205 0.38583008615932923
3 206 525 205 0.4455082632815458 0.31928235465853205 0.38583008615932923
3 526 525 206 0.4455082632815458 0.31928235465853205 0.38583008615932923
3 294 179 293 0.4455082632815458 0.31928235465853205 0.38583008615932923
3 179 178 293 0.4455082632815458 0.31928235465853205 0.38583008615932923
3 293 114 294 0.4455082632815458 0.31928235465853205 0.38583008615932923
3 293 178 292 0.4455082632815458 0.31928235465853205 0.38583008615932923
3 292 113 293 0.4455082632815458 0.31928235465853205 0.38583008615932923
3 293 113 114 0.4455082632815458 0.31928235465853205 0.38583008615932923
3 422 178 423 0.4455082632815458 0.31928235465853205 0.38583008615932923
3 422 174 173 0.4455082632815458 0.31928235465853205 0.38583008615932923
3 422 423 174 0.4455082632815458 0.31928235465853205 0.38583008615932923
3 173 421 422 0.4455082632815458 0.31928235465853205 0.38583008615932923
3 422 421 177 0.4455082632815458 0.31928235465853205 0.38583008615932923
3 177 178 422 0.4455082632815458 0.31928235465853205 0.38583008615932923
3 431 430 229 0.4455082632815458 0.31928235465853205 0.38583008615932923
3 431 432 182 0.4455082632815458 0.31928235465853205 0.38583008615932923
3 180 430 181 0.4455082632815458 0.31928235465853205 0.38583008615932923
3 298 180 181 0.4455082632815458 0.31928235465853205 0.38583008615932923
3 181 299 298 0.4455082632815458 0.31928235465853205 0.38583008615932923
3 182 299 181 0.4455082632815458 0.31928235465853205 0.38583008615932923
3 181 431 182 0.4455082632815458 0.31928235465853205 0.38583008615932923
3 430 431 181 0.4455082632815458 0.31928235465853205 0.38583008615932923
3 300 301 117 0.4455082632815458 0.31928235465853205 0.38583008615932923
3 300 299 182 0.4455082632815458 0.31928235465853205 0.38583008615932923
3 182 183 300 0.4455082632815458 0.31928235465853205 0.38583008615932923
3 183 301 300 0.4455082632815458 0.31928235465853205 0.38583008615932923
3 300 117 116 0.4455082632815458 0.31928235465853205 0.38583008615932923
3 116 299 300 0.4455082632815458 0.31928235465853205 0.38583008615932923
3 357 229 356 0.4455082632815458 0.31928235465853205 0.38583008615932923
3 356 229 228 0.4455082632815458 0.31928235465853205 0.38583008615932923
3 228 355 356 0.4455082632815458 0.31928235465853205 0.38583008615932923
3 497 498 360 0.4455082632815458 0.31928235465853205 0.38583008615932923
3 360 238 497 0.4455082632815458 0.31928235465853205 0.38583008615932923
3 244 498 497 0.4455082632815458 0.31928235465853205 0.38583008615932923
3 243 244 497 0.4455082632815458 0.31928235465853205 0.38583008615932923
3 497 496 243 0.4455082632815458 0.31928235465853205 0.38583008615932923
3 238 496 497 0.4455082632815458 0.31928235465853205 0.38583008615932923
3 357 356 236 0.4455082632815458 0.31928235465853205 0.38583008615932923
3 230 229 357 0.4455082632815458 0.31928235465853205 0.38583008615932923
3 231 432 230 0.4455082632815458 0.31928235465853205 0.38583008615932923
3 230 431 229 0.4455082632815458 0.31928235465853205 0.38583008615932923
3 432 431 230 0.4455082632815458 0.31928235465853205 0.38583008615932923
3 357 358 230 0.4455082632815458 0.31928235465853205 0.38583008615932923
3 358 231 230 0.4455082632815458 0.31928235465853205 0.38583008615932923
3 534 535 458 0.4455082632815458 0.31928235465853205 0.38583008615932923
3 534 533 545 0.4455082632815458 0.31928235465853205 0.38583008615932923
3 545 546 534 0.4455082632815458 0.31928235465853205 0.38583008615932923
3 546 535 534 0.4455082632815458 0.31928235465853205 0.38583008615932923
3 534 458 457 0.4455082632815458 0.31928235465853205 0.38583008615932923
3 457 533 534 0.4455082632815458 0.31928235465853205 0.38583008615932923
3 257 415 416 0.4455082632815458 0.31928235465853205 0.38583008615932923
3 257 273 272 0.4455082632815458 0.31928235465853205 0.38583008615932923
3 416 273 257 0.4455082632815458 0.31928235465853205 0.38583008615932923
3 256 415 257 0.4455082632815458 0.31928235465853205 0.38583008615932923
3 272 271 257 0.4455082632815458 0.31928235465853205 0.38583008615932923
3 271 256 257 0.4455082632815458 0.31928235465853205 0.38583008615932923
3 414 415 256 0.4455082632815458 0.31928235465853205 0.38583008615932923
3 414 256 255 0.4455082632815458 0.31928235465853205 0.38583008615932923
3 255 413 414 0.4455082632815458 0.31928235465853205 0.38583008615932923
3 280 415 414 0.4455082632815458 0.31928235465853205 0.38583008615932923
3 417 478 479 0.4455082632815458 0.31928235465853205 0.38583008615932923
3 500 501 362 0.4455082632815458 0.31928235465853205 0.38583008615932923
3 500 499 370 0.4455082632815458 0.31928235465853205 0.38583008615932923
3 362 499 500 0.4455082632815458 0.31928235465853205 0.38583008615932923
3 427 489 490 0.4455082632815458 0.31928235465853205 0.38583008615932923
3 438 491 490 0.4455082632815458 0.31928235465853205 0.38583008615932923
3 490 489 438 0.4455082632815458 0.31928235465853205 0.38583008615932923
3 305 489 488 0.4455082632815458 0.31928235465853205 0.38583008615932923
3 487 305 488 0.4455082632815458 0.31928235465853205 0.38583008615932923
3 488 296 487 0.4455082632815458 0.31928235465853205 0.38583008615932923
3 167 276 275 0.4455082632815458 0.31928235465853205 0.38583008615932923
3 167 166 472 0.4455082632815458 0.31928235465853205 0.38583008615932923
3 167 275 166 0.4455082632815458 0.31928235465853205 0.38583008615932923
3 472 473 167 0.4455082632815458 0.31928235465853205 0.38583008615932923
3 473 168 167 0.4455082632815458 0.31928235465853205 0.38583008615932923
3 168 276 167 0.4455082632815458 0.31928235465853205 0.38583008615932923
3 443 204 122 0.4455082632815458 0.31928235465853205 0.38583008615932923
3 444 204 443 0.4455082632815458 0.31928235465853205 0.38583008615932923
3 122 442 443 0.4455082632815458 0.31928235465853205 0.38583008615932923
3 443 442 318 0.4455082632815458 0.31928235465853205 0.38583008615932923
3 318 319 443 0.4455082632815458 0.31928235465853205 0.38583008615932923
3 319 444 443 0.4455082632815458 0.31928235465853205 0.38583008615932923
3 375 204 376 0.4455082632815458 0.31928235465853205 0.38583008615932923
3 375 376 248 0.4455082632815458 0.31928235465853205 0.38583008615932923
3 248 247 375 0.4455082632815458 0.31928235465853205 0.38583008615932923
3 247 374 375 0.4455082632815458 0.31928235465853205 0.38583008615932923
3 187 241 186 0.4455082632815458 0.31928235465853205 0.38583008615932923
3 186 364 187 0.4455082632815458 0.31928235465853205 0.38583008615932923
3 363 185 44 0.4455082632815458 0.31928235465853205 0.38583008615932923
3 44 45 363 0.4455082632815458 0.31928235465853205 0.38583008615932923
3 363 186 185 0.4455082632815458 0.31928235465853205 0.38583008615932923
3 364 186 363 0.4455082632815458 0.31928235465853205 0.38583008615932923
3 192 365 191 0.4455082632815458 0.31928235465853205 0.38583008615932923
3 308 193 192 0.4455082632815458 0.31928235465853205 0.38583008615932923
3 192 193 366 0.4455082632815458 0.31928235465853205 0.38583008615932923
3 366 365 192 0.4455082632815458 0.31928235465853205 0.38583008615932923
3 191 306 307 0.4455082632815458 0.31928235465853205 0.38583008615932923
3 307 306 196 0.4455082632815458 0.31928235465853205 0.38583008615932923
3 308 192 307 0.4455082632815458 0.31928235465853205 0.38583008615932923
3 307 192 191 0.4455082632815458 0.31928235465853205 0.38583008615932923
3 307 197 308 0.4455082632815458 0.31928235465853205 0.38583008615932923
3 307 196 197 0.4455082632815458 0.31928235465853205 0.38583008615932923
3 317 126 125 0.4455082632815458 0.31928235465853205 0.38583008615932923
3 126 441 125 0.4455082632815458 0.31928235465853205 0.38583008615932923
3 125 129 317 0.4455082632815458 0.31928235465853205 0.38583008615932923
3 316 129 125 0.4455082632815458 0.31928235465853205 0.38583008615932923
3 125 441 440 0.4455082632815458 0.31928235465853205 0.38583008615932923
3 125 124 316 0.4455082632815458 0.31928235465853205 0.38583008615932923
3 440 124 125 0.4455082632815458 0.31928235465853205 0.38583008615932923
3 121 442 122 0.4455082632815458 0.31928235465853205 0.38583008615932923
3 121 201 120 0.4455082632815458 0.31928235465853205 0.38583008615932923
3 153 339 152 0.4455082632815458 0.31928235465853205 0.38583008615932923
3 527 153 152 0.4455082632815458 0.31928235465853205 0.38583008615932923
3 152 526 527 0.4455082632815458 0.31928235465853205 0.38583008615932923
3 151 526 152 0.4455082632815458 0.31928235465853205 0.38583008615932923
3 338 151 152 0.4455082632815458 0.31928235465853205 0.38583008615932923
3 152 339 338 0.4455082632815458 0.31928235465853205 0.38583008615932923
3 527 208 528 0.4455082632815458 0.31928235465853205 0.38583008615932923
3 528 153 527 0.4455082632815458 0.31928235465853205 0.38583008615932923
3 528 154 153 0.4455082632815458 0.31928235465853205 0.38583008615932923
3 395 396 351 0.4455082632815458 0.31928235465853205 0.38583008615932923
3 352 530 351 0.4455082632815458 0.31928235465853205 0.38583008615932923
3 351 396 352 0.4455082632815458 0.31928235465853205 0.38583008615932923
3 237 358 357 0.4455082632815458 0.31928235465853205 0.38583008615932923
3 357 236 237 0.4455082632815458 0.31928235465853205 0.38583008615932923
3 237 238 358 0.4455082632815458 0.31928235465853205 0.38583008615932923
3 237 496 238 0.4455082632815458 0.31928235465853205 0.38583008615932923
3 494 236 235 0.4455082632815458 0.31928235465853205 0.38583008615932923
3 235 236 356 0.4455082632815458 0.31928235465853205 0.38583008615932923
3 493 494 235 0.4455082632815458 0.31928235465853205 0.38583008615932923
3 235 234 493 0.4455082632815458 0.31928235465853205 0.38583008615932923
3 235 355 234 0.4455082632815458 0.31928235465853205 0.38583008615932923
3 235 356 355 0.4455082632815458 0.31928235465853205 0.38583008615932923
3 496 237 495 0.4455082632815458 0.31928235465853205 0.38583008615932923
3 495 237 236 0.4455082632815458 0.31928235465853205 0.38583008615932923
3 494 241 495 0.4455082632815458 0.31928235465853205 0.38583008615932923
3 495 236 494 0.4455082632815458 0.31928235465853205 0.38583008615932923
3 279 413 278 0.4455082632815458 0.31928235465853205 0.38583008615932923
3 279 414 413 0.4455082632815458 0.31928235465853205 0.38583008615932923
3 280 414 279 0.4455082632815458 0.31928235465853205 0.38583008615932923
3 476 280 279 0.4455082632815458 0.31928235465853205 0.38583008615932923
3 475 476 279 0.4455082632815458 0.31928235465853205 0.38583008615932923
3 279 278 475 0.4455082632815458 0.31928235465853205 0.38583008615932923
3 547 469 480 0.4455082632815458 0.31928235465853205 0.38583008615932923
3 480 491 547 0.4455082632815458 0.31928235465853205 0.38583008615932923
3 417 479 418 0.4455082632815458 0.31928235465853205 0.38583008615932923
3 468 467 418 0.4455082632815458 0.31928235465853205 0.38583008615932923
3 418 467 417 0.4455082632815458 0.31928235465853205 0.38583008615932923
3 479 480 418 0.4455082632815458 0.31928235465853205 0.38583008615932923
3 418 469 468 0.4455082632815458 0.31928235465853205 0.38583008615932923
3 418 480 469 0.4455082632815458 0.31928235465853205 0.38583008615932923
3 501 500 371 0.4455082632815458 0.31928235465853205 0.38583008615932923
3 371 511 512 0.4455082632815458 0.31928235465853205 0.38583008615932923
3 512 501 371 0.4455082632815458 0.31928235465853205 0.38583008615932923
3 371 500 370 0.4455082632815458 0.31928235465853205 0.38583008615932923
3 370 313 371 0.4455082632815458 0.31928235465853205 0.38583008615932923
3 313 511 371 0.4455082632815458 0.31928235465853205 0.38583008615932923
3 427 490 428 0.4455082632815458 0.31928235465853205 0.38583008615932923
3 478 427 428 0.4455082632815458 0.31928235465853205 0.38583008615932923
3 428 479 478 0.4455082632815458 0.31928235465853205 0.38583008615932923
3 428 490 491 0.4455082632815458 0.31928235465853205 0.38583008615932923
3 491 480 428 0.4455082632815458 0.31928235465853205 0.38583008615932923
3 428 480 479 0.4455082632815458 0.31928235465853205 0.38583008615932923
3 297 488 489 0.4455082632815458 0.31928235465853205 0.38583008615932923
3 297 489 427 0.4455082632815458 0.31928235465853205 0.38583008615932923
3 427 426 297 0.4455082632815458 0.31928235465853205 0.38583008615932923
3 297 426 296 0.4455082632815458 0.31928235465853205 0.38583008615932923
3 296 488 297 0.4455082632815458 0.31928235465853205 0.38583008615932923
3 122 204 203 0.4455082632815458 0.31928235465853205 0.38583008615932923
3 204 375 203 0.4455082632815458 0.31928235465853205 0.38583008615932923
3 203 375 374 0.4455082632815458 0.31928235465853205 0.38583008615932923
3 240 239 185 0.4455082632815458 0.31928235465853205 0.38583008615932923
3 185 186 240 0.4455082632815458 0.31928235465853205 0.38583008615932923
3 493 239 240 0.4455082632815458 0.31928235465853205 0.38583008615932923
3 240 186 241 0.4455082632815458 0.31928235465853205 0.38583008615932923
3 240 494 493 0.4455082632815458 0.31928235465853205 0.38583008615932923
3 240 241 494 0.4455082632815458 0.31928235465853205 0.38583008615932923
3 191 364 190 0.4455082632815458 0.31928235465853205 0.38583008615932923
3 364 363 190 0.4455082632815458 0.31928235465853205 0.38583008615932923
3 190 306 191 0.4455082632815458 0.31928235465853205 0.38583008615932923
3 190 363 45 0.4455082632815458 0.31928235465853205 0.38583008615932923
3 190 45 46 0.4455082632815458 0.31928235465853205 0.38583008615932923
3 46 306 190 0.4455082632815458 0.31928235465853205 0.38583008615932923
3 201 121 202 0.4455082632815458 0.31928235465853205 0.38583008615932923
3 202 374 373 0.4455082632815458 0.31928235465853205 0.38583008615932923
3 373 201 202 0.4455082632815458 0.31928235465853205 0.38583008615932923
3 202 203 374 0.4455082632815458 0.31928235465853205 0.38583008615932923
3 202 121 122 0.4455082632815458 0.31928235465853205 0.38583008615932923
3 122 203 202 0.4455082632815458 0.31928235465853205 0.38583008615932923
3 90 121 120 0.4455082632815458 0.31928235465853205 0.38583008615932923
3 90 120 89 0.4455082632815458 0.31928235465853205 0.38583008615932923
3 89 441 90 0.4455082632815458 0.31928235465853205 0.38583008615932923
3 90 441 442 0.4455082632815458 0.31928235465853205 0.38583008615932923
3 442 121 90 0.4455082632815458 0.31928235465853205 0.38583008615932923
3 209 528 208 0.4455082632815458 0.31928235465853205 0.38583008615932923
3 496 495 242 0.4455082632815458 0.31928235465853205 0.38583008615932923
3 243 496 242 0.4455082632815458 0.31928235465853205 0.38583008615932923
3 242 188 243 0.4455082632815458 0.31928235465853205 0.38583008615932923
3 242 495 241 0.4455082632815458 0.31928235465853205 0.38583008615932923
3 242 241 187 0.4455082632815458 0.31928235465853205 0.38583008615932923
3 187 188 242 0.4455082632815458 0.31928235465853205 0.38583008615932923
3 350 209 208 0.4455082632815458 0.31928235465853205 0.38583008615932923
3 350 349 214 0.4455082632815458 0.31928235465853205 0.38583008615932923
3 350 208 349 0.4455082632815458 0.31928235465853205 0.38583008615932923
3 351 209 350 0.4455082632815458 0.31928235465853205 0.38583008615932923
3 350 214 395 0.4455082632815458 0.31928235465853205 0.38583008615932923
3 395 351 350 0.4455082632815458 0.31928235465853205 0.38583008615932923
3 154 528 529 0.4455082632815458 0.31928235465853205 0.38583008615932923
3 528 209 529 0.4455082632815458 0.31928235465853205 0.38583008615932923
3 530 342 529 0.4455082632815458 0.31928235465853205 0.38583008615932923
3 342 154 529 0.4455082632815458 0.31928235465853205 0.38583008615932923
3 529 351 530 0.4455082632815458 0.31928235465853205 0.38583008615932923
3 529 209 351 0.4455082632815458 0.31928235465853205 0.38583008615932923
