OFF
112 178 0


32.1655 32.8117 9.262
32.1655 32.8117 9.262
32.077 32.7186 9.1951
32.0083 32.6481 9.1441
31.9485 32.588 9.1003
31.891 32.5312 9.0587
31.83 32.4721 9.0152
31.7584 32.4042 8.9647
31.6638 32.3164 8.8991
31.7742 32.2755 8.8348
31.8558 32.2452 8.7867
31.9265 32.2189 8.7444
31.9969 32.1926 8.7017
32.0777 32.1624 8.6522
32.1862 32.1216 8.5847
32.1862 32.1216 8.5847
32.3247 32.1616 8.5905
32.4211 32.1904 8.5947
32.5174 32.2198 8.5991
32.6549 32.2629 8.6056
32.6549 32.2629 8.6056
32.594 32.3443 8.7032
32.5422 32.4101 8.7821
32.4954 32.4668 8.85
32.4509 32.5187 8.9122
32.4063 32.5688 8.9721
32.3592 32.6198 9.0331
32.3066 32.6746 9.0985
32.2444 32.7367 9.1727
32.1655 32.8117 9.262
32.0454 32.6049 9.0944
32.0823 32.5621 9.0448
31.9515 32.5116 9.0262
32.0118 32.4923 8.9938
31.8462 32.41 8.9511
31.9331 32.4159 8.9375
31.9241 32.2833 8.809
31.9916 32.3212 8.831
32.0367 32.2416 8.7414
32.0761 32.2902 8.7804
32.3737 32.2408 8.6577
32.3274 32.2903 8.7189
32.4702 32.4149 8.8057
32.3994 32.4198 8.8288
32.3984 32.5015 8.9089
32.3464 32.4846 8.9056
32.3255 32.5822 9.0054
32.292 32.5451 8.9778
32.2339 32.675 9.1167
32.2235 32.6142 9.0611
32.1005 32.6608 9.1348
32.1237 32.6037 9.075
32.1467 32.5473 9.0152
31.9029 32.4644 8.9914
31.9754 32.4568 8.9676
32.0476 32.4494 8.9438
31.8592 32.3074 8.8476
31.9432 32.3392 8.8599
32.0264 32.371 8.872
32.1012 32.2177 8.7022
32.1244 32.2725 8.7513
32.1472 32.3269 8.7998
32.2974 32.2178 8.654
32.2707 32.273 8.716
32.2443 32.3275 8.7767
32.557 32.2987 8.6677
32.4625 32.3336 8.7273
32.3707 32.3678 8.7848
32.5104 32.3628 8.7437
32.4289 32.381 8.783
32.3489 32.3991 8.8212
32.363 32.5415 8.9567
32.32 32.5146 8.9413
32.2773 32.4879 8.926
31.9975 32.557 9.0595
32.0463 32.5263 9.0187
32.0949 32.4958 8.9778
32.1436 32.4655 8.9367
31.7719 32.34 8.899
31.8782 32.3635 8.8985
31.9832 32.3871 8.8978
32.0877 32.4109 8.8967
31.9805 32.2624 8.7753
32.0339 32.3056 8.8057
32.0869 32.3488 8.8358
32.1397 32.3919 8.8657
32.1876 32.1859 8.6492
32.189 32.2491 8.7123
32.1902 32.3115 8.7741
32.1913 32.3735 8.8351
32.4496 32.2643 8.6616
32.3835 32.3079 8.7222
32.3188 32.3507 8.7811
32.2552 32.3931 8.8387
32.4335 32.4601 8.8595
32.3724 32.4536 8.8688
32.3119 32.4473 8.8778
32.2519 32.4411 8.8867
32.2836 32.6258 9.0576
32.2607 32.5776 9.0169
32.2379 32.5298 8.9764
32.2151 32.4824 8.9359
32.1712 32.7338 9.1874
32.1767 32.6577 9.1139
32.1821 32.5829 9.041
32.1873 32.5088 8.9683
32.1712 32.7338 9.1874
32.1767 32.6577 9.1139
32.1821 32.5829 9.041
32.1873 32.5088 8.9683
32.1923 32.4351 8.8954
32.1923 32.4351 8.8954
3 82 11 12 0.8248426474526932 0.4091979177154683 0.15025256652894936
3 82 12 38 0.8248426474526932 0.4091979177154683 0.15025256652894936
3 21 65 19 0.8248426474526932 0.4091979177154683 0.15025256652894936
3 68 21 22 0.8248426474526932 0.4091979177154683 0.15025256652894936
3 65 21 68 0.8248426474526932 0.4091979177154683 0.15025256652894936
3 22 23 42 0.8248426474526932 0.4091979177154683 0.15025256652894936
3 42 68 22 0.8248426474526932 0.4091979177154683 0.15025256652894936
3 69 68 42 0.8248426474526932 0.4091979177154683 0.15025256652894936
3 34 6 7 0.8248426474526932 0.4091979177154683 0.15025256652894936
3 4 74 30 0.8248426474526932 0.4091979177154683 0.15025256652894936
3 4 30 3 0.8248426474526932 0.4091979177154683 0.15025256652894936
3 3 30 50 0.8248426474526932 0.4091979177154683 0.15025256652894936
3 106 28 0 0.8248426474526932 0.4091979177154683 0.15025256652894936
3 18 90 17 0.8248426474526932 0.4091979177154683 0.15025256652894936
3 65 90 18 0.8248426474526932 0.4091979177154683 0.15025256652894936
3 19 65 18 0.8248426474526932 0.4091979177154683 0.15025256652894936
3 17 90 40 0.8248426474526932 0.4091979177154683 0.15025256652894936
3 40 16 17 0.8248426474526932 0.4091979177154683 0.15025256652894936
3 62 16 40 0.8248426474526932 0.4091979177154683 0.15025256652894936
3 40 90 91 0.8248426474526932 0.4091979177154683 0.15025256652894936
3 91 69 67 0.8248426474526932 0.4091979177154683 0.15025256652894936
3 71 44 25 0.8248426474526932 0.4091979177154683 0.15025256652894936
3 95 44 45 0.8248426474526932 0.4091979177154683 0.15025256652894936
3 72 73 45 0.8248426474526932 0.4091979177154683 0.15025256652894936
3 45 71 72 0.8248426474526932 0.4091979177154683 0.15025256652894936
3 44 71 45 0.8248426474526932 0.4091979177154683 0.15025256652894936
3 25 44 24 0.8248426474526932 0.4091979177154683 0.15025256652894936
3 103 106 50 0.8248426474526932 0.4091979177154683 0.15025256652894936
3 66 69 91 0.8248426474526932 0.4091979177154683 0.15025256652894936
3 66 68 69 0.8248426474526932 0.4091979177154683 0.15025256652894936
3 91 90 66 0.8248426474526932 0.4091979177154683 0.15025256652894936
3 66 90 65 0.8248426474526932 0.4091979177154683 0.15025256652894936
3 65 68 66 0.8248426474526932 0.4091979177154683 0.15025256652894936
3 94 42 23 0.8248426474526932 0.4091979177154683 0.15025256652894936
3 94 44 95 0.8248426474526932 0.4091979177154683 0.15025256652894936
3 23 24 94 0.8248426474526932 0.4091979177154683 0.15025256652894936
3 94 24 44 0.8248426474526932 0.4091979177154683 0.15025256652894936
3 80 54 35 0.8248426474526932 0.4091979177154683 0.15025256652894936
3 55 54 80 0.8248426474526932 0.4091979177154683 0.15025256652894936
3 36 57 56 0.8248426474526932 0.4091979177154683 0.15025256652894936
3 36 11 82 0.8248426474526932 0.4091979177154683 0.15025256652894936
3 78 34 7 0.8248426474526932 0.4091979177154683 0.15025256652894936
3 78 9 56 0.8248426474526932 0.4091979177154683 0.15025256652894936
3 78 7 8 0.8248426474526932 0.4091979177154683 0.15025256652894936
3 8 9 78 0.8248426474526932 0.4091979177154683 0.15025256652894936
3 56 57 79 0.8248426474526932 0.4091979177154683 0.15025256652894936
3 79 78 56 0.8248426474526932 0.4091979177154683 0.15025256652894936
3 34 78 79 0.8248426474526932 0.4091979177154683 0.15025256652894936
3 35 34 79 0.8248426474526932 0.4091979177154683 0.15025256652894936
3 79 80 35 0.8248426474526932 0.4091979177154683 0.15025256652894936
3 57 80 79 0.8248426474526932 0.4091979177154683 0.15025256652894936
3 56 9 10 0.8248426474526932 0.4091979177154683 0.15025256652894936
3 11 36 10 0.8248426474526932 0.4091979177154683 0.15025256652894936
3 10 36 56 0.8248426474526932 0.4091979177154683 0.15025256652894936
3 75 76 31 0.8248426474526932 0.4091979177154683 0.15025256652894936
3 31 74 75 0.8248426474526932 0.4091979177154683 0.15025256652894936
3 31 30 74 0.8248426474526932 0.4091979177154683 0.15025256652894936
3 2 3 50 0.8248426474526932 0.4091979177154683 0.15025256652894936
3 50 106 2 0.8248426474526932 0.4091979177154683 0.15025256652894936
3 2 106 0 0.8248426474526932 0.4091979177154683 0.15025256652894936
3 82 38 83 0.8248426474526932 0.4091979177154683 0.15025256652894936
3 81 84 85 0.8248426474526932 0.4091979177154683 0.15025256652894936
3 85 89 110 0.8248426474526932 0.4091979177154683 0.15025256652894936
3 64 63 41 0.8248426474526932 0.4091979177154683 0.15025256652894936
3 41 40 91 0.8248426474526932 0.4091979177154683 0.15025256652894936
3 62 40 41 0.8248426474526932 0.4091979177154683 0.15025256652894936
3 41 63 62 0.8248426474526932 0.4091979177154683 0.15025256652894936
3 89 85 61 0.8248426474526932 0.4091979177154683 0.15025256652894936
3 61 85 84 0.8248426474526932 0.4091979177154683 0.15025256652894936
3 62 63 87 0.8248426474526932 0.4091979177154683 0.15025256652894936
3 43 67 69 0.8248426474526932 0.4091979177154683 0.15025256652894936
3 43 94 95 0.8248426474526932 0.4091979177154683 0.15025256652894936
3 69 42 43 0.8248426474526932 0.4091979177154683 0.15025256652894936
3 42 94 43 0.8248426474526932 0.4091979177154683 0.15025256652894936
3 89 64 93 0.8248426474526932 0.4091979177154683 0.15025256652894936
3 110 89 93 0.8248426474526932 0.4091979177154683 0.15025256652894936
3 93 97 110 0.8248426474526932 0.4091979177154683 0.15025256652894936
3 28 106 48 0.8248426474526932 0.4091979177154683 0.15025256652894936
3 106 103 48 0.8248426474526932 0.4091979177154683 0.15025256652894936
3 27 28 48 0.8248426474526932 0.4091979177154683 0.15025256652894936
3 25 26 46 0.8248426474526932 0.4091979177154683 0.15025256652894936
3 46 71 25 0.8248426474526932 0.4091979177154683 0.15025256652894936
3 33 54 55 0.8248426474526932 0.4091979177154683 0.15025256652894936
3 33 76 75 0.8248426474526932 0.4091979177154683 0.15025256652894936
3 55 76 33 0.8248426474526932 0.4091979177154683 0.15025256652894936
3 75 74 33 0.8248426474526932 0.4091979177154683 0.15025256652894936
3 53 5 6 0.8248426474526932 0.4091979177154683 0.15025256652894936
3 35 54 53 0.8248426474526932 0.4091979177154683 0.15025256652894936
3 53 34 35 0.8248426474526932 0.4091979177154683 0.15025256652894936
3 6 34 53 0.8248426474526932 0.4091979177154683 0.15025256652894936
3 108 103 51 0.8248426474526932 0.4091979177154683 0.15025256652894936
3 51 103 50 0.8248426474526932 0.4091979177154683 0.15025256652894936
3 50 30 51 0.8248426474526932 0.4091979177154683 0.15025256652894936
3 30 31 51 0.8248426474526932 0.4091979177154683 0.15025256652894936
3 37 36 82 0.8248426474526932 0.4091979177154683 0.15025256652894936
3 82 83 37 0.8248426474526932 0.4091979177154683 0.15025256652894936
3 57 36 37 0.8248426474526932 0.4091979177154683 0.15025256652894936
3 59 38 12 0.8248426474526932 0.4091979177154683 0.15025256652894936
3 12 13 59 0.8248426474526932 0.4091979177154683 0.15025256652894936
3 88 64 89 0.8248426474526932 0.4091979177154683 0.15025256652894936
3 89 61 88 0.8248426474526932 0.4091979177154683 0.15025256652894936
3 88 63 64 0.8248426474526932 0.4091979177154683 0.15025256652894936
3 88 87 63 0.8248426474526932 0.4091979177154683 0.15025256652894936
3 97 93 96 0.8248426474526932 0.4091979177154683 0.15025256652894936
3 95 45 96 0.8248426474526932 0.4091979177154683 0.15025256652894936
3 96 73 97 0.8248426474526932 0.4091979177154683 0.15025256652894936
3 96 45 73 0.8248426474526932 0.4091979177154683 0.15025256652894936
3 92 93 64 0.8248426474526932 0.4091979177154683 0.15025256652894936
3 64 41 92 0.8248426474526932 0.4091979177154683 0.15025256652894936
3 91 67 92 0.8248426474526932 0.4091979177154683 0.15025256652894936
3 92 41 91 0.8248426474526932 0.4091979177154683 0.15025256652894936
3 108 99 49 0.8248426474526932 0.4091979177154683 0.15025256652894936
3 49 103 108 0.8248426474526932 0.4091979177154683 0.15025256652894936
3 49 48 103 0.8248426474526932 0.4091979177154683 0.15025256652894936
3 47 46 99 0.8248426474526932 0.4091979177154683 0.15025256652894936
3 47 73 72 0.8248426474526932 0.4091979177154683 0.15025256652894936
3 72 71 47 0.8248426474526932 0.4091979177154683 0.15025256652894936
3 71 46 47 0.8248426474526932 0.4091979177154683 0.15025256652894936
3 76 105 52 0.8248426474526932 0.4091979177154683 0.15025256652894936
3 52 31 76 0.8248426474526932 0.4091979177154683 0.15025256652894936
3 108 51 52 0.8248426474526932 0.4091979177154683 0.15025256652894936
3 52 51 31 0.8248426474526932 0.4091979177154683 0.15025256652894936
3 110 97 101 0.8248426474526932 0.4091979177154683 0.15025256652894936
3 97 73 101 0.8248426474526932 0.4091979177154683 0.15025256652894936
3 77 105 76 0.8248426474526932 0.4091979177154683 0.15025256652894936
3 110 101 77 0.8248426474526932 0.4091979177154683 0.15025256652894936
3 77 101 105 0.8248426474526932 0.4091979177154683 0.15025256652894936
3 77 85 110 0.8248426474526932 0.4091979177154683 0.15025256652894936
3 81 85 77 0.8248426474526932 0.4091979177154683 0.15025256652894936
3 77 55 81 0.8248426474526932 0.4091979177154683 0.15025256652894936
3 77 76 55 0.8248426474526932 0.4091979177154683 0.15025256652894936
3 5 53 32 0.8248426474526932 0.4091979177154683 0.15025256652894936
3 32 33 74 0.8248426474526932 0.4091979177154683 0.15025256652894936
3 54 33 32 0.8248426474526932 0.4091979177154683 0.15025256652894936
3 32 53 54 0.8248426474526932 0.4091979177154683 0.15025256652894936
3 32 74 4 0.8248426474526932 0.4091979177154683 0.15025256652894936
3 4 5 32 0.8248426474526932 0.4091979177154683 0.15025256652894936
3 58 83 84 0.8248426474526932 0.4091979177154683 0.15025256652894936
3 58 37 83 0.8248426474526932 0.4091979177154683 0.15025256652894936
3 58 84 81 0.8248426474526932 0.4091979177154683 0.15025256652894936
3 58 80 57 0.8248426474526932 0.4091979177154683 0.15025256652894936
3 57 37 58 0.8248426474526932 0.4091979177154683 0.15025256652894936
3 81 55 58 0.8248426474526932 0.4091979177154683 0.15025256652894936
3 55 80 58 0.8248426474526932 0.4091979177154683 0.15025256652894936
3 38 59 60 0.8248426474526932 0.4091979177154683 0.15025256652894936
3 60 59 87 0.8248426474526932 0.4091979177154683 0.15025256652894936
3 60 88 61 0.8248426474526932 0.4091979177154683 0.15025256652894936
3 87 88 60 0.8248426474526932 0.4091979177154683 0.15025256652894936
3 87 59 86 0.8248426474526932 0.4091979177154683 0.15025256652894936
3 62 87 86 0.8248426474526932 0.4091979177154683 0.15025256652894936
3 86 13 14 0.8248426474526932 0.4091979177154683 0.15025256652894936
3 86 59 13 0.8248426474526932 0.4091979177154683 0.15025256652894936
3 14 16 86 0.8248426474526932 0.4091979177154683 0.15025256652894936
3 86 16 62 0.8248426474526932 0.4091979177154683 0.15025256652894936
3 70 96 93 0.8248426474526932 0.4091979177154683 0.15025256652894936
3 93 92 70 0.8248426474526932 0.4091979177154683 0.15025256652894936
3 70 92 67 0.8248426474526932 0.4091979177154683 0.15025256652894936
3 67 43 70 0.8248426474526932 0.4091979177154683 0.15025256652894936
3 70 43 95 0.8248426474526932 0.4091979177154683 0.15025256652894936
3 95 96 70 0.8248426474526932 0.4091979177154683 0.15025256652894936
3 98 49 99 0.8248426474526932 0.4091979177154683 0.15025256652894936
3 98 26 27 0.8248426474526932 0.4091979177154683 0.15025256652894936
3 27 48 98 0.8248426474526932 0.4091979177154683 0.15025256652894936
3 48 49 98 0.8248426474526932 0.4091979177154683 0.15025256652894936
3 98 46 26 0.8248426474526932 0.4091979177154683 0.15025256652894936
3 99 46 98 0.8248426474526932 0.4091979177154683 0.15025256652894936
3 100 47 99 0.8248426474526932 0.4091979177154683 0.15025256652894936
3 100 99 108 0.8248426474526932 0.4091979177154683 0.15025256652894936
3 105 101 100 0.8248426474526932 0.4091979177154683 0.15025256652894936
3 108 52 100 0.8248426474526932 0.4091979177154683 0.15025256652894936
3 100 52 105 0.8248426474526932 0.4091979177154683 0.15025256652894936
3 73 47 100 0.8248426474526932 0.4091979177154683 0.15025256652894936
3 100 101 73 0.8248426474526932 0.4091979177154683 0.15025256652894936
3 39 83 38 0.8248426474526932 0.4091979177154683 0.15025256652894936
3 38 60 39 0.8248426474526932 0.4091979177154683 0.15025256652894936
3 39 60 61 0.8248426474526932 0.4091979177154683 0.15025256652894936
3 84 83 39 0.8248426474526932 0.4091979177154683 0.15025256652894936
3 39 61 84 0.8248426474526932 0.4091979177154683 0.15025256652894936
