OFF
37 32 0


29.2475 30.7222 13.0363
29.2475 30.7222 13.0363
29.315 30.7288 12.9213
29.3731 30.7312 12.8252
29.4251 30.7311 12.7412
29.4736 30.7291 12.6644
29.5206 30.7256 12.5913
29.568 30.7207 12.5188
29.6179 30.7141 12.4437
29.6726 30.7055 12.3625
29.7356 30.6939 12.2705
29.8119 30.6778 12.1607
29.7977 30.5829 12.265
29.7846 30.5023 12.355
29.7723 30.4318 12.4352
29.7606 30.3682 12.5084
29.7493 30.3095 12.577
29.738 30.2539 12.6429
29.7265 30.1999 12.7075
29.7146 30.1465 12.7725
29.7021 30.0922 12.8392
29.6885 30.0359 12.9093
29.6734 29.976 12.9848
29.6563 29.9107 13.0684
29.6363 29.8376 13.1634
29.6121 29.753 13.2748
29.6121 29.753 13.2748
29.5536 29.893 13.2498
29.5103 29.999 13.2292
29.4752 30.0867 13.211
29.4447 30.1645 13.1938
29.4166 30.2378 13.1767
29.3891 30.311 13.1587
29.3607 30.3883 13.1385
29.3297 30.4753 13.1143
29.2935 30.5807 13.0827
29.2475 30.7222 13.0363
3 34 3 35 0.7554540622172451 0.4444889114441055 0.3789900371020758
3 18 34 33 0.7554540622172451 0.4444889114441055 0.3789900371020758
3 0 35 2 0.7554540622172451 0.4444889114441055 0.3789900371020758
3 2 35 3 0.7554540622172451 0.4444889114441055 0.3789900371020758
3 4 3 34 0.7554540622172451 0.4444889114441055 0.3789900371020758
3 31 20 32 0.7554540622172451 0.4444889114441055 0.3789900371020758
3 29 28 22 0.7554540622172451 0.4444889114441055 0.3789900371020758
3 5 16 6 0.7554540622172451 0.4444889114441055 0.3789900371020758
3 6 16 15 0.7554540622172451 0.4444889114441055 0.3789900371020758
3 17 34 18 0.7554540622172451 0.4444889114441055 0.3789900371020758
3 17 4 34 0.7554540622172451 0.4444889114441055 0.3789900371020758
3 17 5 4 0.7554540622172451 0.4444889114441055 0.3789900371020758
3 16 5 17 0.7554540622172451 0.4444889114441055 0.3789900371020758
3 19 32 20 0.7554540622172451 0.4444889114441055 0.3789900371020758
3 18 33 19 0.7554540622172451 0.4444889114441055 0.3789900371020758
3 33 32 19 0.7554540622172451 0.4444889114441055 0.3789900371020758
3 25 24 27 0.7554540622172451 0.4444889114441055 0.3789900371020758
3 22 28 23 0.7554540622172451 0.4444889114441055 0.3789900371020758
3 28 27 23 0.7554540622172451 0.4444889114441055 0.3789900371020758
3 23 27 24 0.7554540622172451 0.4444889114441055 0.3789900371020758
3 21 29 22 0.7554540622172451 0.4444889114441055 0.3789900371020758
3 10 12 11 0.7554540622172451 0.4444889114441055 0.3789900371020758
3 9 12 10 0.7554540622172451 0.4444889114441055 0.3789900371020758
3 13 12 9 0.7554540622172451 0.4444889114441055 0.3789900371020758
3 13 8 14 0.7554540622172451 0.4444889114441055 0.3789900371020758
3 9 8 13 0.7554540622172451 0.4444889114441055 0.3789900371020758
3 14 8 7 0.7554540622172451 0.4444889114441055 0.3789900371020758
3 6 15 7 0.7554540622172451 0.4444889114441055 0.3789900371020758
3 7 15 14 0.7554540622172451 0.4444889114441055 0.3789900371020758
3 29 21 30 0.7554540622172451 0.4444889114441055 0.3789900371020758
3 30 20 31 0.7554540622172451 0.4444889114441055 0.3789900371020758
3 30 21 20 0.7554540622172451 0.4444889114441055 0.3789900371020758
