OFF
71 65 0


30.09 35.2892 8.9989
30.09 35.2892 8.9989
29.9496 35.2949 9.0324
29.8347 35.3002 9.0601
29.7355 35.3054 9.0843
29.6459 35.3105 9.1064
29.5616 35.3158 9.1275
29.4789 35.3214 9.1482
29.3946 35.3275 9.1696
29.3053 35.3344 9.1925
29.2067 35.3426 9.2181
29.0926 35.3528 9.248
28.9537 35.3663 9.2849
28.916 35.4837 9.3497
28.8918 35.5654 9.3944
28.8715 35.6389 9.4342
28.8504 35.7215 9.4786
28.8227 35.8421 9.5428
28.8227 35.8421 9.5428
28.8864 35.9463 9.579
28.9487 36.0435 9.6122
29.0098 36.1344 9.6427
29.0698 36.22 9.6707
29.1289 36.3008 9.6967
29.1874 36.3776 9.7209
29.2454 36.4508 9.7435
29.303 36.521 9.7647
29.3604 36.5887 9.7847
29.4178 36.6541 9.8037
29.4753 36.7179 9.8218
29.5333 36.7802 9.8391
29.592 36.8416 9.8558
29.6515 36.9023 9.872
29.7122 36.9626 9.8878
29.7744 37.0231 9.9033
29.8384 37.0839 9.9186
29.9047 37.1456 9.9338
29.9738 37.2085 9.949
30.0461 37.2731 9.9643
30.1223 37.3398 9.9798
30.2032 37.4094 9.9956
30.2896 37.4824 10.0118
30.3826 37.5597 10.0287
30.4837 37.6423 10.0463
30.4837 37.6423 10.0463
30.473 37.516 9.9878
30.4626 37.4004 9.9344
30.4523 37.2935 9.8851
30.4422 37.1938 9.8393
30.4322 37.1 9.7963
30.4222 37.011 9.7557
30.4121 36.9261 9.717
30.4019 36.8443 9.6798
30.3916 36.765 9.6439
30.381 36.6877 9.609
30.3701 36.6118 9.5748
30.3588 36.5369 9.5411
30.3471 36.4623 9.5078
30.3349 36.3877 9.4745
30.322 36.3126 9.4412
30.3084 36.2366 9.4075
30.294 36.1592 9.3734
30.2785 36.0798 9.3385
30.2619 35.9979 9.3027
30.2439 35.9129 9.2657
30.2243 35.824 9.2272
30.2028 35.7306 9.1869
30.1791 35.6316 9.1444
30.1527 35.526 9.0993
30.1233 35.4124 9.051
30.09 35.2892 8.9989
3 9 8 20 0.10899541213858677 0.027532890751790662 0.9044494822532658
3 6 65 7 0.10899541213858677 0.027532890751790662 0.9044494822532658
3 65 22 7 0.10899541213858677 0.027532890751790662 0.9044494822532658
3 25 24 62 0.10899541213858677 0.027532890751790662 0.9044494822532658
3 62 61 25 0.10899541213858677 0.027532890751790662 0.9044494822532658
3 21 20 8 0.10899541213858677 0.027532890751790662 0.9044494822532658
3 21 7 22 0.10899541213858677 0.027532890751790662 0.9044494822532658
3 8 7 21 0.10899541213858677 0.027532890751790662 0.9044494822532658
3 15 10 9 0.10899541213858677 0.027532890751790662 0.9044494822532658
3 9 20 15 0.10899541213858677 0.027532890751790662 0.9044494822532658
3 28 27 59 0.10899541213858677 0.027532890751790662 0.9044494822532658
3 55 54 32 0.10899541213858677 0.027532890751790662 0.9044494822532658
3 11 13 12 0.10899541213858677 0.027532890751790662 0.9044494822532658
3 66 65 6 0.10899541213858677 0.027532890751790662 0.9044494822532658
3 4 3 68 0.10899541213858677 0.027532890751790662 0.9044494822532658
3 68 67 4 0.10899541213858677 0.027532890751790662 0.9044494822532658
3 59 27 60 0.10899541213858677 0.027532890751790662 0.9044494822532658
3 26 25 61 0.10899541213858677 0.027532890751790662 0.9044494822532658
3 26 60 27 0.10899541213858677 0.027532890751790662 0.9044494822532658
3 61 60 26 0.10899541213858677 0.027532890751790662 0.9044494822532658
3 62 24 63 0.10899541213858677 0.027532890751790662 0.9044494822532658
3 24 23 63 0.10899541213858677 0.027532890751790662 0.9044494822532658
3 20 19 16 0.10899541213858677 0.027532890751790662 0.9044494822532658
3 16 15 20 0.10899541213858677 0.027532890751790662 0.9044494822532658
3 16 19 18 0.10899541213858677 0.027532890751790662 0.9044494822532658
3 10 15 14 0.10899541213858677 0.027532890751790662 0.9044494822532658
3 14 11 10 0.10899541213858677 0.027532890751790662 0.9044494822532658
3 13 11 14 0.10899541213858677 0.027532890751790662 0.9044494822532658
3 36 50 37 0.10899541213858677 0.027532890751790662 0.9044494822532658
3 58 28 59 0.10899541213858677 0.027532890751790662 0.9044494822532658
3 29 28 58 0.10899541213858677 0.027532890751790662 0.9044494822532658
3 51 50 36 0.10899541213858677 0.027532890751790662 0.9044494822532658
3 34 53 52 0.10899541213858677 0.027532890751790662 0.9044494822532658
3 68 3 2 0.10899541213858677 0.027532890751790662 0.9044494822532658
3 2 69 68 0.10899541213858677 0.027532890751790662 0.9044494822532658
3 0 69 2 0.10899541213858677 0.027532890751790662 0.9044494822532658
3 67 66 5 0.10899541213858677 0.027532890751790662 0.9044494822532658
3 5 4 67 0.10899541213858677 0.027532890751790662 0.9044494822532658
3 5 66 6 0.10899541213858677 0.027532890751790662 0.9044494822532658
3 64 63 23 0.10899541213858677 0.027532890751790662 0.9044494822532658
3 64 22 65 0.10899541213858677 0.027532890751790662 0.9044494822532658
3 64 23 22 0.10899541213858677 0.027532890751790662 0.9044494822532658
3 42 45 43 0.10899541213858677 0.027532890751790662 0.9044494822532658
3 40 47 46 0.10899541213858677 0.027532890751790662 0.9044494822532658
3 49 48 38 0.10899541213858677 0.027532890751790662 0.9044494822532658
3 49 37 50 0.10899541213858677 0.027532890751790662 0.9044494822532658
3 38 37 49 0.10899541213858677 0.027532890751790662 0.9044494822532658
3 38 48 39 0.10899541213858677 0.027532890751790662 0.9044494822532658
3 39 47 40 0.10899541213858677 0.027532890751790662 0.9044494822532658
3 39 48 47 0.10899541213858677 0.027532890751790662 0.9044494822532658
3 31 55 32 0.10899541213858677 0.027532890751790662 0.9044494822532658
3 29 58 57 0.10899541213858677 0.027532890751790662 0.9044494822532658
3 57 30 29 0.10899541213858677 0.027532890751790662 0.9044494822532658
3 35 34 52 0.10899541213858677 0.027532890751790662 0.9044494822532658
3 35 51 36 0.10899541213858677 0.027532890751790662 0.9044494822532658
3 52 51 35 0.10899541213858677 0.027532890751790662 0.9044494822532658
3 54 53 33 0.10899541213858677 0.027532890751790662 0.9044494822532658
3 53 34 33 0.10899541213858677 0.027532890751790662 0.9044494822532658
3 32 54 33 0.10899541213858677 0.027532890751790662 0.9044494822532658
3 40 46 41 0.10899541213858677 0.027532890751790662 0.9044494822532658
3 45 42 41 0.10899541213858677 0.027532890751790662 0.9044494822532658
3 41 46 45 0.10899541213858677 0.027532890751790662 0.9044494822532658
3 56 31 30 0.10899541213858677 0.027532890751790662 0.9044494822532658
3 30 57 56 0.10899541213858677 0.027532890751790662 0.9044494822532658
3 55 31 56 0.10899541213858677 0.027532890751790662 0.9044494822532658
