OFF
69 62 0


31.6005 28.336 9.0026
31.6005 28.336 9.0026
31.6234 28.2483 9.0184
31.6462 28.1605 9.0341
31.6691 28.0728 9.0499
31.692 27.9851 9.0657
31.7148 27.8973 9.0814
31.7377 27.8096 9.0972
31.7605 27.7219 9.113
31.7834 27.6341 9.1287
31.8063 27.5464 9.1445
31.8291 27.4587 9.1603
31.852 27.3709 9.176
31.8749 27.2832 9.1918
31.8977 27.1955 9.2076
31.9206 27.1077 9.2233
31.9434 27.02 9.2391
31.9663 26.9323 9.2549
31.9663 26.9323 9.2549
31.827 26.9112 9.2202
31.7236 26.8969 9.1944
31.5839 26.8795 9.1592
31.5839 26.8795 9.1592
31.4991 26.9076 9.1336
31.4143 26.9357 9.108
31.3294 26.9638 9.0824
31.2446 26.9919 9.0568
31.1598 27.02 9.0311
31.0749 27.0481 9.0055
30.9901 27.0762 8.9799
30.9053 27.1043 8.9543
30.8204 27.1324 8.9287
30.7356 27.1605 8.9031
30.6508 27.1886 8.8774
30.5659 27.2167 8.8518
30.4811 27.2448 8.8262
30.3963 27.2729 8.8006
30.3114 27.301 8.775
30.2266 27.3291 8.7493
30.1417 27.3572 8.7237
30.0569 27.3852 8.6981
29.9721 27.4133 8.6725
29.8872 27.4414 8.6469
29.8024 27.4695 8.6213
29.8802 27.514 8.637
29.958 27.5585 8.6527
30.0358 27.6029 8.6685
30.1137 27.6474 8.6842
30.1915 27.6918 8.6999
30.2693 27.7363 8.7157
30.3471 27.7807 8.7314
30.4249 27.8252 8.7471
30.5027 27.8697 8.7629
30.5805 27.9141 8.7786
30.6584 27.9586 8.7943
30.7362 28.003 8.8101
30.814 28.0475 8.8258
30.8918 28.092 8.8415
30.9696 28.1364 8.8573
31.0474 28.1809 8.873
31.1252 28.2253 8.8887
31.2031 28.2698 8.9044
31.2809 28.3143 8.9202
31.3587 28.3587 8.9359
31.4365 28.4032 8.9516
31.4365 28.4032 8.9516
31.4912 28.3808 8.9686
31.5458 28.3584 8.9856
31.6005 28.336 9.0026
3 17 16 19 0.3883405057786735 0.36868625176547987 0.5161587214724982
3 30 56 31 0.3883405057786735 0.36868625176547987 0.5161587214724982
3 48 39 38 0.3883405057786735 0.36868625176547987 0.5161587214724982
3 30 29 57 0.3883405057786735 0.36868625176547987 0.5161587214724982
3 57 56 30 0.3883405057786735 0.36868625176547987 0.5161587214724982
3 37 50 49 0.3883405057786735 0.36868625176547987 0.5161587214724982
3 49 38 37 0.3883405057786735 0.36868625176547987 0.5161587214724982
3 48 38 49 0.3883405057786735 0.36868625176547987 0.5161587214724982
3 42 44 43 0.3883405057786735 0.36868625176547987 0.5161587214724982
3 54 33 32 0.3883405057786735 0.36868625176547987 0.5161587214724982
3 55 31 56 0.3883405057786735 0.36868625176547987 0.5161587214724982
3 54 32 55 0.3883405057786735 0.36868625176547987 0.5161587214724982
3 55 32 31 0.3883405057786735 0.36868625176547987 0.5161587214724982
3 58 57 29 0.3883405057786735 0.36868625176547987 0.5161587214724982
3 53 33 54 0.3883405057786735 0.36868625176547987 0.5161587214724982
3 36 50 37 0.3883405057786735 0.36868625176547987 0.5161587214724982
3 51 35 52 0.3883405057786735 0.36868625176547987 0.5161587214724982
3 50 36 51 0.3883405057786735 0.36868625176547987 0.5161587214724982
3 51 36 35 0.3883405057786735 0.36868625176547987 0.5161587214724982
3 44 42 45 0.3883405057786735 0.36868625176547987 0.5161587214724982
3 40 39 47 0.3883405057786735 0.36868625176547987 0.5161587214724982
3 47 46 40 0.3883405057786735 0.36868625176547987 0.5161587214724982
3 47 39 48 0.3883405057786735 0.36868625176547987 0.5161587214724982
3 52 35 34 0.3883405057786735 0.36868625176547987 0.5161587214724982
3 33 53 34 0.3883405057786735 0.36868625176547987 0.5161587214724982
3 34 53 52 0.3883405057786735 0.36868625176547987 0.5161587214724982
3 21 20 23 0.3883405057786735 0.36868625176547987 0.5161587214724982
3 20 14 23 0.3883405057786735 0.36868625176547987 0.5161587214724982
3 64 63 66 0.3883405057786735 0.36868625176547987 0.5161587214724982
3 63 2 66 0.3883405057786735 0.36868625176547987 0.5161587214724982
3 59 5 60 0.3883405057786735 0.36868625176547987 0.5161587214724982
3 6 5 59 0.3883405057786735 0.36868625176547987 0.5161587214724982
3 59 58 6 0.3883405057786735 0.36868625176547987 0.5161587214724982
3 3 63 62 0.3883405057786735 0.36868625176547987 0.5161587214724982
3 3 2 63 0.3883405057786735 0.36868625176547987 0.5161587214724982
3 29 8 7 0.3883405057786735 0.36868625176547987 0.5161587214724982
3 7 58 29 0.3883405057786735 0.36868625176547987 0.5161587214724982
3 7 6 58 0.3883405057786735 0.36868625176547987 0.5161587214724982
3 15 19 16 0.3883405057786735 0.36868625176547987 0.5161587214724982
3 15 20 19 0.3883405057786735 0.36868625176547987 0.5161587214724982
3 15 14 20 0.3883405057786735 0.36868625176547987 0.5161587214724982
3 40 46 41 0.3883405057786735 0.36868625176547987 0.5161587214724982
3 46 45 41 0.3883405057786735 0.36868625176547987 0.5161587214724982
3 41 45 42 0.3883405057786735 0.36868625176547987 0.5161587214724982
3 28 8 29 0.3883405057786735 0.36868625176547987 0.5161587214724982
3 67 2 0 0.3883405057786735 0.36868625176547987 0.5161587214724982
3 67 66 2 0.3883405057786735 0.36868625176547987 0.5161587214724982
3 4 60 5 0.3883405057786735 0.36868625176547987 0.5161587214724982
3 8 28 9 0.3883405057786735 0.36868625176547987 0.5161587214724982
3 9 28 27 0.3883405057786735 0.36868625176547987 0.5161587214724982
3 25 11 26 0.3883405057786735 0.36868625176547987 0.5161587214724982
3 12 11 25 0.3883405057786735 0.36868625176547987 0.5161587214724982
3 25 24 12 0.3883405057786735 0.36868625176547987 0.5161587214724982
3 60 4 61 0.3883405057786735 0.36868625176547987 0.5161587214724982
3 61 3 62 0.3883405057786735 0.36868625176547987 0.5161587214724982
3 61 4 3 0.3883405057786735 0.36868625176547987 0.5161587214724982
3 10 26 11 0.3883405057786735 0.36868625176547987 0.5161587214724982
3 10 9 27 0.3883405057786735 0.36868625176547987 0.5161587214724982
3 27 26 10 0.3883405057786735 0.36868625176547987 0.5161587214724982
3 13 23 14 0.3883405057786735 0.36868625176547987 0.5161587214724982
3 13 24 23 0.3883405057786735 0.36868625176547987 0.5161587214724982
3 13 12 24 0.3883405057786735 0.36868625176547987 0.5161587214724982
