OFF
309 548 0


28.1629 28.3726 8.9643
28.1629 28.3726 8.9643
28.2483 28.4472 8.8877
28.3343 28.5208 8.8108
28.3343 28.5208 8.8108
28.3259 28.5478 8.7904
28.3175 28.5748 8.7699
28.3175 28.5748 8.7699
28.1944 28.5639 8.803
28.0811 28.5515 8.8347
27.976 28.5376 8.8653
27.8775 28.5225 8.8951
27.7844 28.5063 8.9243
27.6959 28.489 8.953
27.6109 28.4707 8.9815
27.5287 28.4512 9.0099
27.4485 28.4307 9.0385
27.3696 28.4089 9.0674
27.2915 28.3859 9.0968
27.2134 28.3613 9.127
27.1347 28.3351 9.1582
27.0547 28.307 9.1907
26.9726 28.2766 9.2248
26.8875 28.2435 9.2609
26.7986 28.2073 9.2996
26.7046 28.1673 9.3414
26.6041 28.1227 9.387
26.4954 28.0725 9.4374
26.5329 27.9777 9.5076
26.5604 27.908 9.559
26.5979 27.8129 9.6288
26.5979 27.8129 9.6288
26.7255 27.864 9.5754
26.8366 27.9078 9.5288
26.9356 27.9464 9.4872
27.0257 27.981 9.4492
27.1094 28.0128 9.4139
27.1885 28.0424 9.3805
27.2645 28.0705 9.3484
27.3389 28.0977 9.3169
27.4128 28.1243 9.2855
27.4874 28.1508 9.2538
27.5639 28.1776 9.2213
27.6437 28.205 9.1872
27.7283 28.2337 9.1511
27.8197 28.2641 9.1119
27.9203 28.2968 9.0688
28.0332 28.3326 9.0202
28.1629 28.3726 8.9643
28.2306 28.5429 8.8132
28.1445 28.5114 8.8554
26.6659 27.9496 9.5155
26.7664 27.9893 9.4735
26.8624 28.0273 9.4329
27.284 28.091 9.3297
27.3031 28.1111 9.3114
27.3219 28.1309 9.2933
27.4162 28.1387 9.2737
27.4197 28.153 9.2621
27.423 28.167 9.2505
27.6726 28.4677 8.9739
27.649 28.4461 8.995
27.625 28.4242 9.0164
27.6006 28.4021 9.0379
27.5209 28.4335 9.0253
27.5131 28.4155 9.0409
27.5051 28.3972 9.0566
27.497 28.3787 9.0726
27.3768 28.395 9.0774
27.3841 28.3809 9.0876
27.3915 28.3666 9.0978
27.3989 28.3522 9.1082
27.2358 28.3517 9.1316
27.2583 28.342 9.1361
27.281 28.3322 9.1407
27.3039 28.3224 9.1453
27.0934 28.3024 9.1893
27.1321 28.2979 9.1879
27.1709 28.2933 9.1864
27.2097 28.2888 9.1848
26.9447 28.2452 9.2528
27.0015 28.2469 9.2446
27.0578 28.2486 9.2362
27.1138 28.2504 9.2276
26.9937 27.982 9.4524
27.0499 28.0165 9.4186
27.1043 28.05 9.3856
27.1571 28.0825 9.3534
27.1465 28.04 9.3879
27.1826 28.0667 9.3624
27.218 28.0928 9.3373
27.2525 28.1183 9.3127
27.5516 28.1862 9.2163
27.5395 28.1949 9.2114
27.5274 28.2034 9.2065
27.5155 28.2119 9.2016
27.6994 28.2365 9.1535
27.6706 28.2393 9.1559
27.642 28.2421 9.1582
27.6136 28.2449 9.1605
28.0202 28.5232 8.869
27.959 28.495 8.9029
27.8975 28.4667 8.9367
27.8354 28.4382 8.9703
27.7728 28.4096 9.0039
27.8369 28.4978 8.9222
27.7959 28.4728 8.9493
27.7545 28.4476 8.9765
27.7124 28.4221 9.0039
27.6698 28.3963 9.0314
26.7841 28.1771 9.3249
26.8619 28.1868 9.3084
26.9383 28.1963 9.2919
27.0134 28.2058 9.2753
27.0874 28.2152 9.2587
26.6033 28.0935 9.41
26.7074 28.1138 9.383
26.8079 28.1335 9.3564
26.9054 28.1527 9.33
27.0002 28.1716 9.3038
26.8112 27.9108 9.5294
26.8931 27.9557 9.485
26.9714 27.9986 9.4422
27.0465 28.04 9.4008
27.1187 28.0798 9.3605
27.8719 28.2931 9.0801
27.8239 28.2894 9.0911
27.776 28.2858 9.102
27.7285 28.2822 9.1126
27.6811 28.2787 9.1231
28.1665 28.4279 8.919
28.0856 28.4088 8.9494
28.0054 28.39 8.9792
27.9256 28.3714 9.0082
27.8461 28.353 9.0367
27.7667 28.3346 9.0647
28.1214 28.5339 8.8415
28.0484 28.504 8.8793
27.9755 28.4742 8.9167
27.9022 28.4445 8.9537
27.8285 28.4146 8.9904
27.7541 28.3846 9.0269
26.6395 28.0103 9.4711
26.7415 28.0416 9.4356
26.8395 28.0718 9.4009
26.9339 28.101 9.367
27.0252 28.1293 9.3337
27.1136 28.1569 9.301
27.2164 28.0661 9.3583
27.2438 28.0894 9.3365
27.2707 28.1122 9.315
27.2971 28.1346 9.2938
27.3229 28.1567 9.273
27.3483 28.1783 9.2524
27.483 28.1623 9.2454
27.4787 28.1737 9.2371
27.4744 28.1851 9.2288
27.4702 28.1963 9.2206
27.466 28.2074 9.2125
27.4619 28.2184 9.2045
28.0892 28.3609 8.9873
28.0164 28.3494 9.0098
27.9442 28.338 9.0317
27.8725 28.3268 9.0531
27.8012 28.3157 9.074
27.7301 28.3048 9.0945
28.0892 28.3609 8.9873
28.0164 28.3494 9.0098
27.9442 28.338 9.0317
27.8725 28.3268 9.0531
27.8012 28.3157 9.074
27.7301 28.3048 9.0945
27.6591 28.2939 9.1146
28.2442 28.4939 8.8505
28.1551 28.4674 8.8891
28.0668 28.4413 8.9267
27.9789 28.4155 8.9634
27.8913 28.3898 8.9995
27.8035 28.3643 9.0349
27.7154 28.3388 9.0699
27.7528 28.4833 8.9482
27.7208 28.46 8.9722
27.6883 28.4364 8.9964
27.6553 28.4125 9.0208
27.6219 28.3883 9.0455
27.5879 28.3638 9.0704
27.5533 28.3388 9.0956
27.4482 28.4148 9.0512
27.448 28.3987 9.064
27.4477 28.3824 9.077
27.4474 28.3658 9.0902
27.4471 28.349 9.1036
27.4468 28.332 9.1171
27.4465 28.3148 9.1308
27.165 28.3279 9.1599
27.1955 28.3207 9.1615
27.2261 28.3134 9.1631
27.2569 28.3061 9.1647
27.2878 28.2988 9.1662
27.319 28.2914 9.1676
27.3503 28.284 9.1691
26.8663 28.2128 9.2876
26.9332 28.2182 9.2754
26.9991 28.2236 9.2631
27.0644 28.229 9.2508
27.129 28.2344 9.2382
27.193 28.2398 9.2256
27.2566 28.2452 9.2127
26.9074 27.9486 9.4888
26.9754 27.9878 9.4501
27.041 28.0257 9.4126
27.1043 28.0623 9.376
27.1654 28.0978 9.3404
27.2247 28.1323 9.3055
27.2822 28.1658 9.2715
27.7816 28.2637 9.1186
27.7436 28.2634 9.1251
27.7059 28.2631 9.1314
27.6683 28.2628 9.1377
27.6309 28.2626 9.1438
27.5936 28.2623 9.1499
27.5565 28.2621 9.1558
27.5955 28.4511 8.9996
27.5799 28.4313 9.0179
27.5641 28.4112 9.0364
27.548 28.3908 9.0552
27.5316 28.3701 9.0741
27.515 28.349 9.0934
27.4981 28.3277 9.1128
27.4809 28.306 9.1326
27.0202 28.2749 9.2202
27.0676 28.2734 9.2155
27.1149 28.2718 9.2107
27.1621 28.2703 9.2057
27.2093 28.2687 9.2006
27.2564 28.2673 9.1954
27.3036 28.2658 9.19
27.3508 28.2643 9.1845
26.7018 27.8672 9.5755
26.8 27.9188 9.5245
26.8933 27.9678 9.4756
26.9821 28.0147 9.4285
27.067 28.0595 9.383
27.1483 28.1027 9.3388
27.2265 28.1443 9.2959
27.302 28.1845 9.2541
27.0727 28.0122 9.4191
27.1184 28.0426 9.3896
27.1629 28.0722 9.3607
27.2062 28.101 9.3325
27.2484 28.1292 9.3048
27.2896 28.1568 9.2775
27.3299 28.1837 9.2508
27.3693 28.2101 9.2245
27.6233 28.2108 9.1859
27.6031 28.2166 9.1845
27.583 28.2223 9.1831
27.563 28.228 9.1817
27.5431 28.2337 9.1803
27.5234 28.2393 9.1788
27.5038 28.2449 9.1774
27.4843 28.2504 9.1759
27.3062 28.374 9.1041
27.321 28.362 9.1115
27.336 28.3499 9.119
27.3512 28.3377 9.1265
27.3665 28.3253 9.1341
27.382 28.3129 9.1417
27.3976 28.3002 9.1494
27.4134 28.2875 9.1572
27.4294 28.2745 9.1651
26.6968 28.1376 9.3655
26.787 28.1522 9.3441
26.8748 28.1665 9.3229
26.9606 28.1805 9.3016
27.0446 28.1943 9.2804
27.1271 28.208 9.2592
27.2083 28.2215 9.2379
27.2883 28.2349 9.2164
27.3673 28.2482 9.1948
27.3502 28.115 9.3017
27.3614 28.1322 9.2867
27.3725 28.1491 9.2719
27.3833 28.1658 9.2573
27.3941 28.1822 9.2428
27.4046 28.1985 9.2285
27.4151 28.2145 9.2144
27.4254 28.2304 9.2005
27.4356 28.246 9.1866
27.9732 28.3252 9.0369
27.9137 28.3178 9.0531
27.8546 28.3105 9.0691
27.7958 28.3034 9.0847
27.7372 28.2963 9.1001
27.6788 28.2892 9.1151
27.6206 28.2822 9.1299
27.5623 28.2753 9.1445
27.504 28.2684 9.1588
27.9257 28.5111 8.8958
27.8751 28.4845 8.9262
27.824 28.4577 8.9566
27.7723 28.4307 8.9871
27.7201 28.4035 9.0176
27.667 28.3759 9.0482
27.6132 28.3479 9.079
27.5584 28.3196 9.11
27.5026 28.2908 9.1413
27.4456 28.2615 9.173
27.4456 28.2615 9.173
3 52 51 239 0.8671439389584973 0.04383306430364131 0.5624945235105333
3 186 305 304 0.8671439389584973 0.04383306430364131 0.5624945235105333
3 51 28 29 0.8671439389584973 0.04383306430364131 0.5624945235105333
3 142 28 51 0.8671439389584973 0.04383306430364131 0.5624945235105333
3 27 28 142 0.8671439389584973 0.04383306430364131 0.5624945235105333
3 142 51 52 0.8671439389584973 0.04383306430364131 0.5624945235105333
3 52 143 142 0.8671439389584973 0.04383306430364131 0.5624945235105333
3 238 29 30 0.8671439389584973 0.04383306430364131 0.5624945235105333
3 51 29 238 0.8671439389584973 0.04383306430364131 0.5624945235105333
3 271 26 116 0.8671439389584973 0.04383306430364131 0.5624945235105333
3 36 246 35 0.8671439389584973 0.04383306430364131 0.5624945235105333
3 246 85 35 0.8671439389584973 0.04383306430364131 0.5624945235105333
3 35 85 210 0.8671439389584973 0.04383306430364131 0.5624945235105333
3 52 240 53 0.8671439389584973 0.04383306430364131 0.5624945235105333
3 53 143 52 0.8671439389584973 0.04383306430364131 0.5624945235105333
3 144 143 53 0.8671439389584973 0.04383306430364131 0.5624945235105333
3 52 239 121 0.8671439389584973 0.04383306430364131 0.5624945235105333
3 121 240 52 0.8671439389584973 0.04383306430364131 0.5624945235105333
3 121 239 33 0.8671439389584973 0.04383306430364131 0.5624945235105333
3 86 246 36 0.8671439389584973 0.04383306430364131 0.5624945235105333
3 303 304 179 0.8671439389584973 0.04383306430364131 0.5624945235105333
3 179 302 303 0.8671439389584973 0.04383306430364131 0.5624945235105333
3 304 303 184 0.8671439389584973 0.04383306430364131 0.5624945235105333
3 32 239 51 0.8671439389584973 0.04383306430364131 0.5624945235105333
3 51 238 32 0.8671439389584973 0.04383306430364131 0.5624945235105333
3 32 238 30 0.8671439389584973 0.04383306430364131 0.5624945235105333
3 115 142 143 0.8671439389584973 0.04383306430364131 0.5624945235105333
3 143 116 115 0.8671439389584973 0.04383306430364131 0.5624945235105333
3 115 116 26 0.8671439389584973 0.04383306430364131 0.5624945235105333
3 115 26 27 0.8671439389584973 0.04383306430364131 0.5624945235105333
3 27 142 115 0.8671439389584973 0.04383306430364131 0.5624945235105333
3 122 53 240 0.8671439389584973 0.04383306430364131 0.5624945235105333
3 34 35 84 0.8671439389584973 0.04383306430364131 0.5624945235105333
3 25 26 271 0.8671439389584973 0.04383306430364131 0.5624945235105333
3 246 86 242 0.8671439389584973 0.04383306430364131 0.5624945235105333
3 271 116 272 0.8671439389584973 0.04383306430364131 0.5624945235105333
3 272 25 271 0.8671439389584973 0.04383306430364131 0.5624945235105333
3 110 25 272 0.8671439389584973 0.04383306430364131 0.5624945235105333
3 3 5 49 0.8671439389584973 0.04383306430364131 0.5624945235105333
3 49 5 7 0.8671439389584973 0.04383306430364131 0.5624945235105333
3 7 8 49 0.8671439389584973 0.04383306430364131 0.5624945235105333
3 175 138 176 0.8671439389584973 0.04383306430364131 0.5624945235105333
3 247 86 36 0.8671439389584973 0.04383306430364131 0.5624945235105333
3 21 230 231 0.8671439389584973 0.04383306430364131 0.5624945235105333
3 76 20 21 0.8671439389584973 0.04383306430364131 0.5624945235105333
3 21 231 76 0.8671439389584973 0.04383306430364131 0.5624945235105333
3 76 231 232 0.8671439389584973 0.04383306430364131 0.5624945235105333
3 71 266 267 0.8671439389584973 0.04383306430364131 0.5624945235105333
3 193 71 267 0.8671439389584973 0.04383306430364131 0.5624945235105333
3 228 306 305 0.8671439389584973 0.04383306430364131 0.5624945235105333
3 229 306 228 0.8671439389584973 0.04383306430364131 0.5624945235105333
3 67 226 66 0.8671439389584973 0.04383306430364131 0.5624945235105333
3 66 188 67 0.8671439389584973 0.04383306430364131 0.5624945235105333
3 67 188 189 0.8671439389584973 0.04383306430364131 0.5624945235105333
3 109 303 302 0.8671439389584973 0.04383306430364131 0.5624945235105333
3 109 182 183 0.8671439389584973 0.04383306430364131 0.5624945235105333
3 183 184 109 0.8671439389584973 0.04383306430364131 0.5624945235105333
3 109 184 303 0.8671439389584973 0.04383306430364131 0.5624945235105333
3 107 301 106 0.8671439389584973 0.04383306430364131 0.5624945235105333
3 106 301 300 0.8671439389584973 0.04383306430364131 0.5624945235105333
3 180 12 13 0.8671439389584973 0.04383306430364131 0.5624945235105333
3 107 106 180 0.8671439389584973 0.04383306430364131 0.5624945235105333
3 180 106 12 0.8671439389584973 0.04383306430364131 0.5624945235105333
3 11 12 105 0.8671439389584973 0.04383306430364131 0.5624945235105333
3 105 106 300 0.8671439389584973 0.04383306430364131 0.5624945235105333
3 12 106 105 0.8671439389584973 0.04383306430364131 0.5624945235105333
3 223 63 62 0.8671439389584973 0.04383306430364131 0.5624945235105333
3 62 184 183 0.8671439389584973 0.04383306430364131 0.5624945235105333
3 62 63 184 0.8671439389584973 0.04383306430364131 0.5624945235105333
3 33 239 120 0.8671439389584973 0.04383306430364131 0.5624945235105333
3 120 32 33 0.8671439389584973 0.04383306430364131 0.5624945235105333
3 239 32 120 0.8671439389584973 0.04383306430364131 0.5624945235105333
3 160 0 131 0.8671439389584973 0.04383306430364131 0.5624945235105333
3 53 122 241 0.8671439389584973 0.04383306430364131 0.5624945235105333
3 241 122 84 0.8671439389584973 0.04383306430364131 0.5624945235105333
3 241 35 210 0.8671439389584973 0.04383306430364131 0.5624945235105333
3 84 35 241 0.8671439389584973 0.04383306430364131 0.5624945235105333
3 240 121 208 0.8671439389584973 0.04383306430364131 0.5624945235105333
3 208 34 240 0.8671439389584973 0.04383306430364131 0.5624945235105333
3 208 121 33 0.8671439389584973 0.04383306430364131 0.5624945235105333
3 33 34 208 0.8671439389584973 0.04383306430364131 0.5624945235105333
3 209 122 240 0.8671439389584973 0.04383306430364131 0.5624945235105333
3 240 34 209 0.8671439389584973 0.04383306430364131 0.5624945235105333
3 84 122 209 0.8671439389584973 0.04383306430364131 0.5624945235105333
3 209 34 84 0.8671439389584973 0.04383306430364131 0.5624945235105333
3 24 25 110 0.8671439389584973 0.04383306430364131 0.5624945235105333
3 124 242 211 0.8671439389584973 0.04383306430364131 0.5624945235105333
3 211 242 86 0.8671439389584973 0.04383306430364131 0.5624945235105333
3 211 247 124 0.8671439389584973 0.04383306430364131 0.5624945235105333
3 86 247 211 0.8671439389584973 0.04383306430364131 0.5624945235105333
3 246 242 123 0.8671439389584973 0.04383306430364131 0.5624945235105333
3 210 85 123 0.8671439389584973 0.04383306430364131 0.5624945235105333
3 123 85 246 0.8671439389584973 0.04383306430364131 0.5624945235105333
3 123 241 210 0.8671439389584973 0.04383306430364131 0.5624945235105333
3 274 203 112 0.8671439389584973 0.04383306430364131 0.5624945235105333
3 117 272 116 0.8671439389584973 0.04383306430364131 0.5624945235105333
3 117 143 144 0.8671439389584973 0.04383306430364131 0.5624945235105333
3 117 116 143 0.8671439389584973 0.04383306430364131 0.5624945235105333
3 114 147 276 0.8671439389584973 0.04383306430364131 0.5624945235105333
3 22 230 21 0.8671439389584973 0.04383306430364131 0.5624945235105333
3 298 10 11 0.8671439389584973 0.04383306430364131 0.5624945235105333
3 300 301 103 0.8671439389584973 0.04383306430364131 0.5624945235105333
3 103 301 140 0.8671439389584973 0.04383306430364131 0.5624945235105333
3 103 140 177 0.8671439389584973 0.04383306430364131 0.5624945235105333
3 173 174 2 0.8671439389584973 0.04383306430364131 0.5624945235105333
3 173 2 3 0.8671439389584973 0.04383306430364131 0.5624945235105333
3 3 49 173 0.8671439389584973 0.04383306430364131 0.5624945235105333
3 78 195 194 0.8671439389584973 0.04383306430364131 0.5624945235105333
3 19 20 194 0.8671439389584973 0.04383306430364131 0.5624945235105333
3 194 195 19 0.8671439389584973 0.04383306430364131 0.5624945235105333
3 79 195 78 0.8671439389584973 0.04383306430364131 0.5624945235105333
3 205 114 276 0.8671439389584973 0.04383306430364131 0.5624945235105333
3 77 76 232 0.8671439389584973 0.04383306430364131 0.5624945235105333
3 77 233 78 0.8671439389584973 0.04383306430364131 0.5624945235105333
3 232 233 77 0.8671439389584973 0.04383306430364131 0.5624945235105333
3 20 76 77 0.8671439389584973 0.04383306430364131 0.5624945235105333
3 78 194 77 0.8671439389584973 0.04383306430364131 0.5624945235105333
3 77 194 20 0.8671439389584973 0.04383306430364131 0.5624945235105333
3 263 75 264 0.8671439389584973 0.04383306430364131 0.5624945235105333
3 267 266 200 0.8671439389584973 0.04383306430364131 0.5624945235105333
3 264 70 69 0.8671439389584973 0.04383306430364131 0.5624945235105333
3 69 263 264 0.8671439389584973 0.04383306430364131 0.5624945235105333
3 68 263 69 0.8671439389584973 0.04383306430364131 0.5624945235105333
3 70 189 69 0.8671439389584973 0.04383306430364131 0.5624945235105333
3 189 188 69 0.8671439389584973 0.04383306430364131 0.5624945235105333
3 69 188 68 0.8671439389584973 0.04383306430364131 0.5624945235105333
3 266 71 265 0.8671439389584973 0.04383306430364131 0.5624945235105333
3 264 75 265 0.8671439389584973 0.04383306430364131 0.5624945235105333
3 75 266 265 0.8671439389584973 0.04383306430364131 0.5624945235105333
3 265 70 264 0.8671439389584973 0.04383306430364131 0.5624945235105333
3 265 71 70 0.8671439389584973 0.04383306430364131 0.5624945235105333
3 223 15 64 0.8671439389584973 0.04383306430364131 0.5624945235105333
3 64 15 16 0.8671439389584973 0.04383306430364131 0.5624945235105333
3 16 65 64 0.8671439389584973 0.04383306430364131 0.5624945235105333
3 192 193 229 0.8671439389584973 0.04383306430364131 0.5624945235105333
3 229 228 192 0.8671439389584973 0.04383306430364131 0.5624945235105333
3 192 228 191 0.8671439389584973 0.04383306430364131 0.5624945235105333
3 191 71 192 0.8671439389584973 0.04383306430364131 0.5624945235105333
3 71 193 192 0.8671439389584973 0.04383306430364131 0.5624945235105333
3 187 188 66 0.8671439389584973 0.04383306430364131 0.5624945235105333
3 187 65 16 0.8671439389584973 0.04383306430364131 0.5624945235105333
3 66 65 187 0.8671439389584973 0.04383306430364131 0.5624945235105333
3 16 17 187 0.8671439389584973 0.04383306430364131 0.5624945235105333
3 68 188 187 0.8671439389584973 0.04383306430364131 0.5624945235105333
3 187 17 68 0.8671439389584973 0.04383306430364131 0.5624945235105333
3 226 67 227 0.8671439389584973 0.04383306430364131 0.5624945235105333
3 186 226 227 0.8671439389584973 0.04383306430364131 0.5624945235105333
3 191 228 227 0.8671439389584973 0.04383306430364131 0.5624945235105333
3 227 305 186 0.8671439389584973 0.04383306430364131 0.5624945235105333
3 227 228 305 0.8671439389584973 0.04383306430364131 0.5624945235105333
3 190 67 189 0.8671439389584973 0.04383306430364131 0.5624945235105333
3 190 189 70 0.8671439389584973 0.04383306430364131 0.5624945235105333
3 191 227 190 0.8671439389584973 0.04383306430364131 0.5624945235105333
3 190 227 67 0.8671439389584973 0.04383306430364131 0.5624945235105333
3 190 71 191 0.8671439389584973 0.04383306430364131 0.5624945235105333
3 70 71 190 0.8671439389584973 0.04383306430364131 0.5624945235105333
3 107 180 181 0.8671439389584973 0.04383306430364131 0.5624945235105333
3 181 180 13 0.8671439389584973 0.04383306430364131 0.5624945235105333
3 47 0 160 0.8671439389584973 0.04383306430364131 0.5624945235105333
3 178 135 170 0.8671439389584973 0.04383306430364131 0.5624945235105333
3 170 135 292 0.8671439389584973 0.04383306430364131 0.5624945235105333
3 292 126 170 0.8671439389584973 0.04383306430364131 0.5624945235105333
3 126 291 170 0.8671439389584973 0.04383306430364131 0.5624945235105333
3 289 162 290 0.8671439389584973 0.04383306430364131 0.5624945235105333
3 141 135 178 0.8671439389584973 0.04383306430364131 0.5624945235105333
3 141 302 179 0.8671439389584973 0.04383306430364131 0.5624945235105333
3 179 135 141 0.8671439389584973 0.04383306430364131 0.5624945235105333
3 178 140 104 0.8671439389584973 0.04383306430364131 0.5624945235105333
3 140 301 104 0.8671439389584973 0.04383306430364131 0.5624945235105333
3 104 141 178 0.8671439389584973 0.04383306430364131 0.5624945235105333
3 302 141 104 0.8671439389584973 0.04383306430364131 0.5624945235105333
3 108 109 302 0.8671439389584973 0.04383306430364131 0.5624945235105333
3 182 109 108 0.8671439389584973 0.04383306430364131 0.5624945235105333
3 108 181 182 0.8671439389584973 0.04383306430364131 0.5624945235105333
3 107 181 108 0.8671439389584973 0.04383306430364131 0.5624945235105333
3 108 301 107 0.8671439389584973 0.04383306430364131 0.5624945235105333
3 302 104 108 0.8671439389584973 0.04383306430364131 0.5624945235105333
3 108 104 301 0.8671439389584973 0.04383306430364131 0.5624945235105333
3 224 63 223 0.8671439389584973 0.04383306430364131 0.5624945235105333
3 223 64 224 0.8671439389584973 0.04383306430364131 0.5624945235105333
3 224 64 65 0.8671439389584973 0.04383306430364131 0.5624945235105333
3 63 224 225 0.8671439389584973 0.04383306430364131 0.5624945235105333
3 66 226 225 0.8671439389584973 0.04383306430364131 0.5624945235105333
3 225 65 66 0.8671439389584973 0.04383306430364131 0.5624945235105333
3 225 224 65 0.8671439389584973 0.04383306430364131 0.5624945235105333
3 304 184 185 0.8671439389584973 0.04383306430364131 0.5624945235105333
3 184 63 185 0.8671439389584973 0.04383306430364131 0.5624945235105333
3 63 225 185 0.8671439389584973 0.04383306430364131 0.5624945235105333
3 186 304 185 0.8671439389584973 0.04383306430364131 0.5624945235105333
3 185 226 186 0.8671439389584973 0.04383306430364131 0.5624945235105333
3 185 225 226 0.8671439389584973 0.04383306430364131 0.5624945235105333
3 299 105 300 0.8671439389584973 0.04383306430364131 0.5624945235105333
3 300 103 299 0.8671439389584973 0.04383306430364131 0.5624945235105333
3 299 103 102 0.8671439389584973 0.04383306430364131 0.5624945235105333
3 11 105 299 0.8671439389584973 0.04383306430364131 0.5624945235105333
3 299 298 11 0.8671439389584973 0.04383306430364131 0.5624945235105333
3 102 298 299 0.8671439389584973 0.04383306430364131 0.5624945235105333
3 223 62 222 0.8671439389584973 0.04383306430364131 0.5624945235105333
3 222 15 223 0.8671439389584973 0.04383306430364131 0.5624945235105333
3 222 14 15 0.8671439389584973 0.04383306430364131 0.5624945235105333
3 14 222 61 0.8671439389584973 0.04383306430364131 0.5624945235105333
3 61 222 62 0.8671439389584973 0.04383306430364131 0.5624945235105333
3 183 182 61 0.8671439389584973 0.04383306430364131 0.5624945235105333
3 61 62 183 0.8671439389584973 0.04383306430364131 0.5624945235105333
3 130 131 0 0.8671439389584973 0.04383306430364131 0.5624945235105333
3 130 0 2 0.8671439389584973 0.04383306430364131 0.5624945235105333
3 2 174 130 0.8671439389584973 0.04383306430364131 0.5624945235105333
3 130 174 175 0.8671439389584973 0.04383306430364131 0.5624945235105333
3 175 131 130 0.8671439389584973 0.04383306430364131 0.5624945235105333
3 146 119 274 0.8671439389584973 0.04383306430364131 0.5624945235105333
3 146 123 242 0.8671439389584973 0.04383306430364131 0.5624945235105333
3 146 242 124 0.8671439389584973 0.04383306430364131 0.5624945235105333
3 124 147 146 0.8671439389584973 0.04383306430364131 0.5624945235105333
3 23 24 201 0.8671439389584973 0.04383306430364131 0.5624945235105333
3 147 114 275 0.8671439389584973 0.04383306430364131 0.5624945235105333
3 275 146 147 0.8671439389584973 0.04383306430364131 0.5624945235105333
3 119 146 275 0.8671439389584973 0.04383306430364131 0.5624945235105333
3 82 231 230 0.8671439389584973 0.04383306430364131 0.5624945235105333
3 80 22 23 0.8671439389584973 0.04383306430364131 0.5624945235105333
3 101 102 138 0.8671439389584973 0.04383306430364131 0.5624945235105333
3 101 298 102 0.8671439389584973 0.04383306430364131 0.5624945235105333
3 10 298 101 0.8671439389584973 0.04383306430364131 0.5624945235105333
3 139 103 177 0.8671439389584973 0.04383306430364131 0.5624945235105333
3 102 103 139 0.8671439389584973 0.04383306430364131 0.5624945235105333
3 177 176 139 0.8671439389584973 0.04383306430364131 0.5624945235105333
3 138 102 139 0.8671439389584973 0.04383306430364131 0.5624945235105333
3 139 176 138 0.8671439389584973 0.04383306430364131 0.5624945235105333
3 50 49 8 0.8671439389584973 0.04383306430364131 0.5624945235105333
3 174 173 50 0.8671439389584973 0.04383306430364131 0.5624945235105333
3 50 173 49 0.8671439389584973 0.04383306430364131 0.5624945235105333
3 100 9 10 0.8671439389584973 0.04383306430364131 0.5624945235105333
3 100 101 138 0.8671439389584973 0.04383306430364131 0.5624945235105333
3 10 101 100 0.8671439389584973 0.04383306430364131 0.5624945235105333
3 95 259 260 0.8671439389584973 0.04383306430364131 0.5624945235105333
3 258 259 95 0.8671439389584973 0.04383306430364131 0.5624945235105333
3 95 94 258 0.8671439389584973 0.04383306430364131 0.5624945235105333
3 258 94 257 0.8671439389584973 0.04383306430364131 0.5624945235105333
3 257 221 258 0.8671439389584973 0.04383306430364131 0.5624945235105333
3 258 221 259 0.8671439389584973 0.04383306430364131 0.5624945235105333
3 19 195 72 0.8671439389584973 0.04383306430364131 0.5624945235105333
3 72 18 19 0.8671439389584973 0.04383306430364131 0.5624945235105333
3 72 73 18 0.8671439389584973 0.04383306430364131 0.5624945235105333
3 198 75 74 0.8671439389584973 0.04383306430364131 0.5624945235105333
3 75 263 74 0.8671439389584973 0.04383306430364131 0.5624945235105333
3 78 233 234 0.8671439389584973 0.04383306430364131 0.5624945235105333
3 234 79 78 0.8671439389584973 0.04383306430364131 0.5624945235105333
3 195 79 196 0.8671439389584973 0.04383306430364131 0.5624945235105333
3 196 72 195 0.8671439389584973 0.04383306430364131 0.5624945235105333
3 73 72 196 0.8671439389584973 0.04383306430364131 0.5624945235105333
3 83 233 232 0.8671439389584973 0.04383306430364131 0.5624945235105333
3 83 205 233 0.8671439389584973 0.04383306430364131 0.5624945235105333
3 232 231 83 0.8671439389584973 0.04383306430364131 0.5624945235105333
3 231 82 83 0.8671439389584973 0.04383306430364131 0.5624945235105333
3 114 205 83 0.8671439389584973 0.04383306430364131 0.5624945235105333
3 199 75 198 0.8671439389584973 0.04383306430364131 0.5624945235105333
3 199 266 75 0.8671439389584973 0.04383306430364131 0.5624945235105333
3 199 200 266 0.8671439389584973 0.04383306430364131 0.5624945235105333
3 279 286 287 0.8671439389584973 0.04383306430364131 0.5624945235105333
3 262 263 68 0.8671439389584973 0.04383306430364131 0.5624945235105333
3 68 17 262 0.8671439389584973 0.04383306430364131 0.5624945235105333
3 262 17 18 0.8671439389584973 0.04383306430364131 0.5624945235105333
3 262 74 263 0.8671439389584973 0.04383306430364131 0.5624945235105333
3 18 73 262 0.8671439389584973 0.04383306430364131 0.5624945235105333
3 73 74 262 0.8671439389584973 0.04383306430364131 0.5624945235105333
3 193 269 270 0.8671439389584973 0.04383306430364131 0.5624945235105333
3 307 229 270 0.8671439389584973 0.04383306430364131 0.5624945235105333
3 229 193 270 0.8671439389584973 0.04383306430364131 0.5624945235105333
3 270 269 279 0.8671439389584973 0.04383306430364131 0.5624945235105333
3 268 193 267 0.8671439389584973 0.04383306430364131 0.5624945235105333
3 268 269 193 0.8671439389584973 0.04383306430364131 0.5624945235105333
3 267 200 268 0.8671439389584973 0.04383306430364131 0.5624945235105333
3 200 269 268 0.8671439389584973 0.04383306430364131 0.5624945235105333
3 160 131 132 0.8671439389584973 0.04383306430364131 0.5624945235105333
3 175 176 132 0.8671439389584973 0.04383306430364131 0.5624945235105333
3 132 131 175 0.8671439389584973 0.04383306430364131 0.5624945235105333
3 46 47 289 0.8671439389584973 0.04383306430364131 0.5624945235105333
3 289 290 46 0.8671439389584973 0.04383306430364131 0.5624945235105333
3 178 170 134 0.8671439389584973 0.04383306430364131 0.5624945235105333
3 134 170 291 0.8671439389584973 0.04383306430364131 0.5624945235105333
3 134 291 163 0.8671439389584973 0.04383306430364131 0.5624945235105333
3 134 163 177 0.8671439389584973 0.04383306430364131 0.5624945235105333
3 177 140 134 0.8671439389584973 0.04383306430364131 0.5624945235105333
3 134 140 178 0.8671439389584973 0.04383306430364131 0.5624945235105333
3 13 14 60 0.8671439389584973 0.04383306430364131 0.5624945235105333
3 14 61 60 0.8671439389584973 0.04383306430364131 0.5624945235105333
3 60 61 182 0.8671439389584973 0.04383306430364131 0.5624945235105333
3 60 181 13 0.8671439389584973 0.04383306430364131 0.5624945235105333
3 182 181 60 0.8671439389584973 0.04383306430364131 0.5624945235105333
3 124 247 88 0.8671439389584973 0.04383306430364131 0.5624945235105333
3 88 247 36 0.8671439389584973 0.04383306430364131 0.5624945235105333
3 36 37 88 0.8671439389584973 0.04383306430364131 0.5624945235105333
3 41 57 40 0.8671439389584973 0.04383306430364131 0.5624945235105333
3 280 39 40 0.8671439389584973 0.04383306430364131 0.5624945235105333
3 243 147 124 0.8671439389584973 0.04383306430364131 0.5624945235105333
3 243 213 147 0.8671439389584973 0.04383306430364131 0.5624945235105333
3 276 147 244 0.8671439389584973 0.04383306430364131 0.5624945235105333
3 147 213 244 0.8671439389584973 0.04383306430364131 0.5624945235105333
3 274 112 118 0.8671439389584973 0.04383306430364131 0.5624945235105333
3 118 112 273 0.8671439389584973 0.04383306430364131 0.5624945235105333
3 118 117 144 0.8671439389584973 0.04383306430364131 0.5624945235105333
3 273 117 118 0.8671439389584973 0.04383306430364131 0.5624945235105333
3 241 123 145 0.8671439389584973 0.04383306430364131 0.5624945235105333
3 123 146 145 0.8671439389584973 0.04383306430364131 0.5624945235105333
3 145 118 144 0.8671439389584973 0.04383306430364131 0.5624945235105333
3 145 146 274 0.8671439389584973 0.04383306430364131 0.5624945235105333
3 274 118 145 0.8671439389584973 0.04383306430364131 0.5624945235105333
3 144 53 145 0.8671439389584973 0.04383306430364131 0.5624945235105333
3 53 241 145 0.8671439389584973 0.04383306430364131 0.5624945235105333
3 273 112 111 0.8671439389584973 0.04383306430364131 0.5624945235105333
3 112 201 111 0.8671439389584973 0.04383306430364131 0.5624945235105333
3 111 201 24 0.8671439389584973 0.04383306430364131 0.5624945235105333
3 111 24 110 0.8671439389584973 0.04383306430364131 0.5624945235105333
3 110 272 111 0.8671439389584973 0.04383306430364131 0.5624945235105333
3 272 117 111 0.8671439389584973 0.04383306430364131 0.5624945235105333
3 111 117 273 0.8671439389584973 0.04383306430364131 0.5624945235105333
3 81 82 230 0.8671439389584973 0.04383306430364131 0.5624945235105333
3 230 22 81 0.8671439389584973 0.04383306430364131 0.5624945235105333
3 81 80 203 0.8671439389584973 0.04383306430364131 0.5624945235105333
3 22 80 81 0.8671439389584973 0.04383306430364131 0.5624945235105333
3 119 275 113 0.8671439389584973 0.04383306430364131 0.5624945235105333
3 113 203 274 0.8671439389584973 0.04383306430364131 0.5624945235105333
3 274 119 113 0.8671439389584973 0.04383306430364131 0.5624945235105333
3 202 112 203 0.8671439389584973 0.04383306430364131 0.5624945235105333
3 203 80 202 0.8671439389584973 0.04383306430364131 0.5624945235105333
3 202 80 23 0.8671439389584973 0.04383306430364131 0.5624945235105333
3 23 201 202 0.8671439389584973 0.04383306430364131 0.5624945235105333
3 202 201 112 0.8671439389584973 0.04383306430364131 0.5624945235105333
3 8 9 136 0.8671439389584973 0.04383306430364131 0.5624945235105333
3 136 50 8 0.8671439389584973 0.04383306430364131 0.5624945235105333
3 259 221 297 0.8671439389584973 0.04383306430364131 0.5624945235105333
3 297 260 259 0.8671439389584973 0.04383306430364131 0.5624945235105333
3 261 260 297 0.8671439389584973 0.04383306430364131 0.5624945235105333
3 307 261 297 0.8671439389584973 0.04383306430364131 0.5624945235105333
3 297 229 307 0.8671439389584973 0.04383306430364131 0.5624945235105333
3 297 306 229 0.8671439389584973 0.04383306430364131 0.5624945235105333
3 41 42 92 0.8671439389584973 0.04383306430364131 0.5624945235105333
3 79 234 235 0.8671439389584973 0.04383306430364131 0.5624945235105333
3 197 74 73 0.8671439389584973 0.04383306430364131 0.5624945235105333
3 73 196 197 0.8671439389584973 0.04383306430364131 0.5624945235105333
3 198 74 197 0.8671439389584973 0.04383306430364131 0.5624945235105333
3 197 235 198 0.8671439389584973 0.04383306430364131 0.5624945235105333
3 197 196 79 0.8671439389584973 0.04383306430364131 0.5624945235105333
3 79 235 197 0.8671439389584973 0.04383306430364131 0.5624945235105333
3 114 83 204 0.8671439389584973 0.04383306430364131 0.5624945235105333
3 204 83 82 0.8671439389584973 0.04383306430364131 0.5624945235105333
3 204 275 114 0.8671439389584973 0.04383306430364131 0.5624945235105333
3 204 113 275 0.8671439389584973 0.04383306430364131 0.5624945235105333
3 203 113 204 0.8671439389584973 0.04383306430364131 0.5624945235105333
3 204 81 203 0.8671439389584973 0.04383306430364131 0.5624945235105333
3 82 81 204 0.8671439389584973 0.04383306430364131 0.5624945235105333
3 200 199 237 0.8671439389584973 0.04383306430364131 0.5624945235105333
3 279 269 237 0.8671439389584973 0.04383306430364131 0.5624945235105333
3 237 269 200 0.8671439389584973 0.04383306430364131 0.5624945235105333
3 159 287 286 0.8671439389584973 0.04383306430364131 0.5624945235105333
3 159 260 261 0.8671439389584973 0.04383306430364131 0.5624945235105333
3 95 260 159 0.8671439389584973 0.04383306430364131 0.5624945235105333
3 41 92 154 0.8671439389584973 0.04383306430364131 0.5624945235105333
3 156 94 95 0.8671439389584973 0.04383306430364131 0.5624945235105333
3 95 157 156 0.8671439389584973 0.04383306430364131 0.5624945235105333
3 253 286 279 0.8671439389584973 0.04383306430364131 0.5624945235105333
3 280 40 281 0.8671439389584973 0.04383306430364131 0.5624945235105333
3 179 304 172 0.8671439389584973 0.04383306430364131 0.5624945235105333
3 295 304 305 0.8671439389584973 0.04383306430364131 0.5624945235105333
3 295 172 304 0.8671439389584973 0.04383306430364131 0.5624945235105333
3 279 287 288 0.8671439389584973 0.04383306430364131 0.5624945235105333
3 288 270 279 0.8671439389584973 0.04383306430364131 0.5624945235105333
3 307 270 288 0.8671439389584973 0.04383306430364131 0.5624945235105333
3 287 159 288 0.8671439389584973 0.04383306430364131 0.5624945235105333
3 288 261 307 0.8671439389584973 0.04383306430364131 0.5624945235105333
3 288 159 261 0.8671439389584973 0.04383306430364131 0.5624945235105333
3 289 47 161 0.8671439389584973 0.04383306430364131 0.5624945235105333
3 161 162 289 0.8671439389584973 0.04383306430364131 0.5624945235105333
3 161 47 160 0.8671439389584973 0.04383306430364131 0.5624945235105333
3 160 132 161 0.8671439389584973 0.04383306430364131 0.5624945235105333
3 133 132 176 0.8671439389584973 0.04383306430364131 0.5624945235105333
3 133 176 177 0.8671439389584973 0.04383306430364131 0.5624945235105333
3 162 161 133 0.8671439389584973 0.04383306430364131 0.5624945235105333
3 133 161 132 0.8671439389584973 0.04383306430364131 0.5624945235105333
3 133 290 162 0.8671439389584973 0.04383306430364131 0.5624945235105333
3 177 163 133 0.8671439389584973 0.04383306430364131 0.5624945235105333
3 163 290 133 0.8671439389584973 0.04383306430364131 0.5624945235105333
3 125 290 163 0.8671439389584973 0.04383306430364131 0.5624945235105333
3 125 46 290 0.8671439389584973 0.04383306430364131 0.5624945235105333
3 163 291 125 0.8671439389584973 0.04383306430364131 0.5624945235105333
3 45 46 125 0.8671439389584973 0.04383306430364131 0.5624945235105333
3 125 126 45 0.8671439389584973 0.04383306430364131 0.5624945235105333
3 125 291 126 0.8671439389584973 0.04383306430364131 0.5624945235105333
3 148 37 38 0.8671439389584973 0.04383306430364131 0.5624945235105333
3 276 244 277 0.8671439389584973 0.04383306430364131 0.5624945235105333
3 38 39 54 0.8671439389584973 0.04383306430364131 0.5624945235105333
3 250 244 213 0.8671439389584973 0.04383306430364131 0.5624945235105333
3 55 54 39 0.8671439389584973 0.04383306430364131 0.5624945235105333
3 150 54 55 0.8671439389584973 0.04383306430364131 0.5624945235105333
3 9 100 137 0.8671439389584973 0.04383306430364131 0.5624945235105333
3 137 136 9 0.8671439389584973 0.04383306430364131 0.5624945235105333
3 137 138 175 0.8671439389584973 0.04383306430364131 0.5624945235105333
3 137 100 138 0.8671439389584973 0.04383306430364131 0.5624945235105333
3 50 136 137 0.8671439389584973 0.04383306430364131 0.5624945235105333
3 175 174 137 0.8671439389584973 0.04383306430364131 0.5624945235105333
3 174 50 137 0.8671439389584973 0.04383306430364131 0.5624945235105333
3 45 126 127 0.8671439389584973 0.04383306430364131 0.5624945235105333
3 127 126 292 0.8671439389584973 0.04383306430364131 0.5624945235105333
3 292 135 127 0.8671439389584973 0.04383306430364131 0.5624945235105333
3 215 44 45 0.8671439389584973 0.04383306430364131 0.5624945235105333
3 215 216 44 0.8671439389584973 0.04383306430364131 0.5624945235105333
3 45 127 215 0.8671439389584973 0.04383306430364131 0.5624945235105333
3 215 127 216 0.8671439389584973 0.04383306430364131 0.5624945235105333
3 254 42 43 0.8671439389584973 0.04383306430364131 0.5624945235105333
3 254 255 42 0.8671439389584973 0.04383306430364131 0.5624945235105333
3 99 255 254 0.8671439389584973 0.04383306430364131 0.5624945235105333
3 256 255 99 0.8671439389584973 0.04383306430364131 0.5624945235105333
3 257 92 256 0.8671439389584973 0.04383306430364131 0.5624945235105333
3 42 255 256 0.8671439389584973 0.04383306430364131 0.5624945235105333
3 256 92 42 0.8671439389584973 0.04383306430364131 0.5624945235105333
3 257 94 93 0.8671439389584973 0.04383306430364131 0.5624945235105333
3 93 92 257 0.8671439389584973 0.04383306430364131 0.5624945235105333
3 93 154 92 0.8671439389584973 0.04383306430364131 0.5624945235105333
3 236 199 198 0.8671439389584973 0.04383306430364131 0.5624945235105333
3 198 235 236 0.8671439389584973 0.04383306430364131 0.5624945235105333
3 236 237 199 0.8671439389584973 0.04383306430364131 0.5624945235105333
3 158 157 95 0.8671439389584973 0.04383306430364131 0.5624945235105333
3 95 159 158 0.8671439389584973 0.04383306430364131 0.5624945235105333
3 286 157 158 0.8671439389584973 0.04383306430364131 0.5624945235105333
3 158 159 286 0.8671439389584973 0.04383306430364131 0.5624945235105333
3 94 156 155 0.8671439389584973 0.04383306430364131 0.5624945235105333
3 155 93 94 0.8671439389584973 0.04383306430364131 0.5624945235105333
3 154 93 155 0.8671439389584973 0.04383306430364131 0.5624945235105333
3 43 44 96 0.8671439389584973 0.04383306430364131 0.5624945235105333
3 96 97 43 0.8671439389584973 0.04383306430364131 0.5624945235105333
3 43 97 98 0.8671439389584973 0.04383306430364131 0.5624945235105333
3 98 254 43 0.8671439389584973 0.04383306430364131 0.5624945235105333
3 99 254 98 0.8671439389584973 0.04383306430364131 0.5624945235105333
3 171 135 179 0.8671439389584973 0.04383306430364131 0.5624945235105333
3 220 256 99 0.8671439389584973 0.04383306430364131 0.5624945235105333
3 220 221 257 0.8671439389584973 0.04383306430364131 0.5624945235105333
3 257 256 220 0.8671439389584973 0.04383306430364131 0.5624945235105333
3 248 88 37 0.8671439389584973 0.04383306430364131 0.5624945235105333
3 124 88 248 0.8671439389584973 0.04383306430364131 0.5624945235105333
3 206 205 276 0.8671439389584973 0.04383306430364131 0.5624945235105333
3 276 277 206 0.8671439389584973 0.04383306430364131 0.5624945235105333
3 233 205 206 0.8671439389584973 0.04383306430364131 0.5624945235105333
3 206 234 233 0.8671439389584973 0.04383306430364131 0.5624945235105333
3 207 235 234 0.8671439389584973 0.04383306430364131 0.5624945235105333
3 234 206 207 0.8671439389584973 0.04383306430364131 0.5624945235105333
3 207 206 277 0.8671439389584973 0.04383306430364131 0.5624945235105333
3 153 253 252 0.8671439389584973 0.04383306430364131 0.5624945235105333
3 253 153 284 0.8671439389584973 0.04383306430364131 0.5624945235105333
3 284 153 283 0.8671439389584973 0.04383306430364131 0.5624945235105333
3 44 216 217 0.8671439389584973 0.04383306430364131 0.5624945235105333
3 217 96 44 0.8671439389584973 0.04383306430364131 0.5624945235105333
3 99 98 219 0.8671439389584973 0.04383306430364131 0.5624945235105333
3 219 220 99 0.8671439389584973 0.04383306430364131 0.5624945235105333
3 295 220 219 0.8671439389584973 0.04383306430364131 0.5624945235105333
3 172 295 219 0.8671439389584973 0.04383306430364131 0.5624945235105333
3 221 220 296 0.8671439389584973 0.04383306430364131 0.5624945235105333
3 305 306 296 0.8671439389584973 0.04383306430364131 0.5624945235105333
3 296 295 305 0.8671439389584973 0.04383306430364131 0.5624945235105333
3 296 220 295 0.8671439389584973 0.04383306430364131 0.5624945235105333
3 306 297 296 0.8671439389584973 0.04383306430364131 0.5624945235105333
3 296 297 221 0.8671439389584973 0.04383306430364131 0.5624945235105333
3 213 243 212 0.8671439389584973 0.04383306430364131 0.5624945235105333
3 212 249 213 0.8671439389584973 0.04383306430364131 0.5624945235105333
3 37 148 89 0.8671439389584973 0.04383306430364131 0.5624945235105333
3 89 248 37 0.8671439389584973 0.04383306430364131 0.5624945235105333
3 249 212 89 0.8671439389584973 0.04383306430364131 0.5624945235105333
3 91 250 213 0.8671439389584973 0.04383306430364131 0.5624945235105333
3 150 250 91 0.8671439389584973 0.04383306430364131 0.5624945235105333
3 149 148 38 0.8671439389584973 0.04383306430364131 0.5624945235105333
3 150 91 149 0.8671439389584973 0.04383306430364131 0.5624945235105333
3 38 54 149 0.8671439389584973 0.04383306430364131 0.5624945235105333
3 149 54 150 0.8671439389584973 0.04383306430364131 0.5624945235105333
3 245 207 277 0.8671439389584973 0.04383306430364131 0.5624945235105333
3 150 55 151 0.8671439389584973 0.04383306430364131 0.5624945235105333
3 151 250 150 0.8671439389584973 0.04383306430364131 0.5624945235105333
3 151 251 250 0.8671439389584973 0.04383306430364131 0.5624945235105333
3 283 153 282 0.8671439389584973 0.04383306430364131 0.5624945235105333
3 57 283 282 0.8671439389584973 0.04383306430364131 0.5624945235105333
3 282 40 57 0.8671439389584973 0.04383306430364131 0.5624945235105333
3 282 281 40 0.8671439389584973 0.04383306430364131 0.5624945235105333
3 251 151 152 0.8671439389584973 0.04383306430364131 0.5624945235105333
3 281 282 152 0.8671439389584973 0.04383306430364131 0.5624945235105333
3 152 282 153 0.8671439389584973 0.04383306430364131 0.5624945235105333
3 152 153 252 0.8671439389584973 0.04383306430364131 0.5624945235105333
3 252 245 152 0.8671439389584973 0.04383306430364131 0.5624945235105333
3 152 245 251 0.8671439389584973 0.04383306430364131 0.5624945235105333
3 286 253 285 0.8671439389584973 0.04383306430364131 0.5624945235105333
3 253 284 285 0.8671439389584973 0.04383306430364131 0.5624945235105333
3 285 157 286 0.8671439389584973 0.04383306430364131 0.5624945235105333
3 58 283 57 0.8671439389584973 0.04383306430364131 0.5624945235105333
3 58 57 41 0.8671439389584973 0.04383306430364131 0.5624945235105333
3 41 154 58 0.8671439389584973 0.04383306430364131 0.5624945235105333
3 128 217 216 0.8671439389584973 0.04383306430364131 0.5624945235105333
3 217 128 129 0.8671439389584973 0.04383306430364131 0.5624945235105333
3 87 212 243 0.8671439389584973 0.04383306430364131 0.5624945235105333
3 87 243 124 0.8671439389584973 0.04383306430364131 0.5624945235105333
3 124 248 87 0.8671439389584973 0.04383306430364131 0.5624945235105333
3 248 89 87 0.8671439389584973 0.04383306430364131 0.5624945235105333
3 87 89 212 0.8671439389584973 0.04383306430364131 0.5624945235105333
3 213 249 90 0.8671439389584973 0.04383306430364131 0.5624945235105333
3 90 91 213 0.8671439389584973 0.04383306430364131 0.5624945235105333
3 90 149 91 0.8671439389584973 0.04383306430364131 0.5624945235105333
3 148 149 90 0.8671439389584973 0.04383306430364131 0.5624945235105333
3 90 89 148 0.8671439389584973 0.04383306430364131 0.5624945235105333
3 249 89 90 0.8671439389584973 0.04383306430364131 0.5624945235105333
3 214 245 277 0.8671439389584973 0.04383306430364131 0.5624945235105333
3 251 245 214 0.8671439389584973 0.04383306430364131 0.5624945235105333
3 214 277 244 0.8671439389584973 0.04383306430364131 0.5624945235105333
3 244 250 214 0.8671439389584973 0.04383306430364131 0.5624945235105333
3 250 251 214 0.8671439389584973 0.04383306430364131 0.5624945235105333
3 207 245 278 0.8671439389584973 0.04383306430364131 0.5624945235105333
3 278 236 235 0.8671439389584973 0.04383306430364131 0.5624945235105333
3 235 207 278 0.8671439389584973 0.04383306430364131 0.5624945235105333
3 278 245 252 0.8671439389584973 0.04383306430364131 0.5624945235105333
3 252 253 278 0.8671439389584973 0.04383306430364131 0.5624945235105333
3 278 253 279 0.8671439389584973 0.04383306430364131 0.5624945235105333
3 279 237 278 0.8671439389584973 0.04383306430364131 0.5624945235105333
3 237 236 278 0.8671439389584973 0.04383306430364131 0.5624945235105333
3 56 151 55 0.8671439389584973 0.04383306430364131 0.5624945235105333
3 56 39 280 0.8671439389584973 0.04383306430364131 0.5624945235105333
3 56 55 39 0.8671439389584973 0.04383306430364131 0.5624945235105333
3 56 152 151 0.8671439389584973 0.04383306430364131 0.5624945235105333
3 280 281 56 0.8671439389584973 0.04383306430364131 0.5624945235105333
3 281 152 56 0.8671439389584973 0.04383306430364131 0.5624945235105333
3 59 156 157 0.8671439389584973 0.04383306430364131 0.5624945235105333
3 157 285 59 0.8671439389584973 0.04383306430364131 0.5624945235105333
3 59 155 156 0.8671439389584973 0.04383306430364131 0.5624945235105333
3 59 285 284 0.8671439389584973 0.04383306430364131 0.5624945235105333
3 154 155 59 0.8671439389584973 0.04383306430364131 0.5624945235105333
3 59 58 154 0.8671439389584973 0.04383306430364131 0.5624945235105333
3 59 284 283 0.8671439389584973 0.04383306430364131 0.5624945235105333
3 283 58 59 0.8671439389584973 0.04383306430364131 0.5624945235105333
3 216 127 293 0.8671439389584973 0.04383306430364131 0.5624945235105333
3 293 128 216 0.8671439389584973 0.04383306430364131 0.5624945235105333
3 171 128 293 0.8671439389584973 0.04383306430364131 0.5624945235105333
3 293 127 135 0.8671439389584973 0.04383306430364131 0.5624945235105333
3 135 171 293 0.8671439389584973 0.04383306430364131 0.5624945235105333
3 172 219 218 0.8671439389584973 0.04383306430364131 0.5624945235105333
3 218 129 172 0.8671439389584973 0.04383306430364131 0.5624945235105333
3 218 98 97 0.8671439389584973 0.04383306430364131 0.5624945235105333
3 218 219 98 0.8671439389584973 0.04383306430364131 0.5624945235105333
3 217 129 218 0.8671439389584973 0.04383306430364131 0.5624945235105333
3 97 96 218 0.8671439389584973 0.04383306430364131 0.5624945235105333
3 96 217 218 0.8671439389584973 0.04383306430364131 0.5624945235105333
3 294 128 171 0.8671439389584973 0.04383306430364131 0.5624945235105333
3 294 129 128 0.8671439389584973 0.04383306430364131 0.5624945235105333
3 172 129 294 0.8671439389584973 0.04383306430364131 0.5624945235105333
3 179 172 294 0.8671439389584973 0.04383306430364131 0.5624945235105333
3 294 171 179 0.8671439389584973 0.04383306430364131 0.5624945235105333
