OFF
61 55 0


27.5516 34.3884 8.678
27.5516 34.3884 8.678
27.491 34.4784 8.7336
27.435 34.5656 8.7878
27.3833 34.6508 8.841
27.3359 34.7344 8.8935
27.2928 34.8169 8.9456
27.2539 34.8985 8.9976
27.2194 34.9795 9.0495
27.1891 35.0599 9.1015
27.1631 35.1398 9.1535
27.141 35.2193 9.2055
27.1227 35.2982 9.2576
27.1078 35.3766 9.3096
27.0958 35.4545 9.3616
27.0863 35.5322 9.4136
27.0791 35.6097 9.4657
27.0738 35.6873 9.5181
27.0702 35.7653 9.5709
27.0679 35.8441 9.6244
27.067 35.9242 9.6788
27.0671 36.0058 9.7344
27.0684 36.0897 9.7917
27.0706 36.1764 9.8509
27.0737 36.2665 9.9127
27.0779 36.3611 9.9775
27.083 36.4609 10.0459
27.0893 36.5672 10.119
27.0893 36.5672 10.119
27.15 36.5107 10.0862
27.2107 36.4542 10.0534
27.2715 36.3977 10.0206
27.3322 36.3412 9.9878
27.3929 36.2847 9.9549
27.4537 36.2282 9.9221
27.5144 36.1717 9.8893
27.5751 36.1152 9.8565
27.6359 36.0586 9.8237
27.6966 36.0021 9.7909
27.7573 35.9456 9.7581
27.818 35.8891 9.7253
27.8577 35.7818 9.6559
27.8892 35.688 9.595
27.9151 35.6036 9.5399
27.9369 35.5254 9.4887
27.9556 35.451 9.4398
27.972 35.3782 9.3917
27.9866 35.3051 9.3433
27.9995 35.2299 9.2932
28.0108 35.1504 9.2401
28.0204 35.0641 9.1822
28.0278 34.9679 9.1174
28.032 34.8578 9.0428
28.032 34.8578 9.0428
27.9466 34.77 8.975
27.8808 34.7036 8.9235
27.8236 34.6468 8.8795
27.7688 34.5931 8.8378
27.7106 34.5371 8.7942
27.6422 34.4723 8.7437
27.5516 34.3884 8.678
3 12 11 46 0.40904607594930364 0.6056716344839109 0.3425018870557266
3 8 49 9 0.40904607594930364 0.6056716344839109 0.3425018870557266
3 45 12 46 0.40904607594930364 0.6056716344839109 0.3425018870557266
3 14 43 15 0.40904607594930364 0.6056716344839109 0.3425018870557266
3 46 11 47 0.40904607594930364 0.6056716344839109 0.3425018870557266
3 12 45 13 0.40904607594930364 0.6056716344839109 0.3425018870557266
3 10 47 11 0.40904607594930364 0.6056716344839109 0.3425018870557266
3 34 33 23 0.40904607594930364 0.6056716344839109 0.3425018870557266
3 39 41 40 0.40904607594930364 0.6056716344839109 0.3425018870557266
3 18 41 39 0.40904607594930364 0.6056716344839109 0.3425018870557266
3 20 36 21 0.40904607594930364 0.6056716344839109 0.3425018870557266
3 37 36 20 0.40904607594930364 0.6056716344839109 0.3425018870557266
3 44 43 14 0.40904607594930364 0.6056716344839109 0.3425018870557266
3 14 13 44 0.40904607594930364 0.6056716344839109 0.3425018870557266
3 44 13 45 0.40904607594930364 0.6056716344839109 0.3425018870557266
3 42 15 43 0.40904607594930364 0.6056716344839109 0.3425018870557266
3 52 51 54 0.40904607594930364 0.6056716344839109 0.3425018870557266
3 54 51 7 0.40904607594930364 0.6056716344839109 0.3425018870557266
3 8 7 50 0.40904607594930364 0.6056716344839109 0.3425018870557266
3 7 51 50 0.40904607594930364 0.6056716344839109 0.3425018870557266
3 50 49 8 0.40904607594930364 0.6056716344839109 0.3425018870557266
3 5 4 56 0.40904607594930364 0.6056716344839109 0.3425018870557266
3 47 10 48 0.40904607594930364 0.6056716344839109 0.3425018870557266
3 48 9 49 0.40904607594930364 0.6056716344839109 0.3425018870557266
3 48 10 9 0.40904607594930364 0.6056716344839109 0.3425018870557266
3 34 23 22 0.40904607594930364 0.6056716344839109 0.3425018870557266
3 18 39 38 0.40904607594930364 0.6056716344839109 0.3425018870557266
3 17 41 18 0.40904607594930364 0.6056716344839109 0.3425018870557266
3 17 42 41 0.40904607594930364 0.6056716344839109 0.3425018870557266
3 56 4 57 0.40904607594930364 0.6056716344839109 0.3425018870557266
3 4 58 57 0.40904607594930364 0.6056716344839109 0.3425018870557266
3 55 5 56 0.40904607594930364 0.6056716344839109 0.3425018870557266
3 25 31 30 0.40904607594930364 0.6056716344839109 0.3425018870557266
3 34 22 35 0.40904607594930364 0.6056716344839109 0.3425018870557266
3 21 36 35 0.40904607594930364 0.6056716344839109 0.3425018870557266
3 35 22 21 0.40904607594930364 0.6056716344839109 0.3425018870557266
3 37 20 19 0.40904607594930364 0.6056716344839109 0.3425018870557266
3 19 38 37 0.40904607594930364 0.6056716344839109 0.3425018870557266
3 18 38 19 0.40904607594930364 0.6056716344839109 0.3425018870557266
3 15 42 16 0.40904607594930364 0.6056716344839109 0.3425018870557266
3 42 17 16 0.40904607594930364 0.6056716344839109 0.3425018870557266
3 59 2 0 0.40904607594930364 0.6056716344839109 0.3425018870557266
3 3 58 4 0.40904607594930364 0.6056716344839109 0.3425018870557266
3 3 59 58 0.40904607594930364 0.6056716344839109 0.3425018870557266
3 2 59 3 0.40904607594930364 0.6056716344839109 0.3425018870557266
3 5 55 6 0.40904607594930364 0.6056716344839109 0.3425018870557266
3 6 54 7 0.40904607594930364 0.6056716344839109 0.3425018870557266
3 6 55 54 0.40904607594930364 0.6056716344839109 0.3425018870557266
3 25 30 26 0.40904607594930364 0.6056716344839109 0.3425018870557266
3 24 31 25 0.40904607594930364 0.6056716344839109 0.3425018870557266
3 24 32 31 0.40904607594930364 0.6056716344839109 0.3425018870557266
3 24 23 33 0.40904607594930364 0.6056716344839109 0.3425018870557266
3 33 32 24 0.40904607594930364 0.6056716344839109 0.3425018870557266
3 27 26 29 0.40904607594930364 0.6056716344839109 0.3425018870557266
3 29 26 30 0.40904607594930364 0.6056716344839109 0.3425018870557266
