OFF
13 10 0


29.2192 34.2643 9.734
29.2192 34.2643 9.734
29.2574 34.2729 9.6982
29.2085 34.3013 9.679
29.252 34.2915 9.6706
29.2955 34.2817 9.6622
29.2085 34.3013 9.679
29.2138 34.2828 9.7065
29.2192 34.2643 9.734
29.231 34.2702 9.7175
29.2691 34.2789 9.6816
29.231 34.2702 9.7175
29.2428 34.2762 9.7009
3 10 2 5 0.8833645371481005 0.8812703587047908 0.20801926981437813
3 5 4 10 0.8833645371481005 0.8812703587047908 0.20801926981437813
3 10 4 2 0.8833645371481005 0.8812703587047908 0.20801926981437813
3 0 2 9 0.8833645371481005 0.8812703587047908 0.20801926981437813
3 9 7 0 0.8833645371481005 0.8812703587047908 0.20801926981437813
3 12 9 2 0.8833645371481005 0.8812703587047908 0.20801926981437813
3 7 9 12 0.8833645371481005 0.8812703587047908 0.20801926981437813
3 2 4 12 0.8833645371481005 0.8812703587047908 0.20801926981437813
3 12 4 3 0.8833645371481005 0.8812703587047908 0.20801926981437813
3 3 7 12 0.8833645371481005 0.8812703587047908 0.20801926981437813
