OFF
19 19 0


28.7385 31.2072 10.9095
28.7385 31.2072 10.9095
28.8173 31.1141 10.8724
28.8961 31.0207 10.8361
28.8961 31.0207 10.8361
28.9658 31.0052 10.8966
29.0354 30.9893 10.9572
28.9272 31.0676 10.9368
28.8463 31.127 10.9238
28.7385 31.2072 10.9095
28.8323 31.1106 10.885
28.8715 31.0643 10.8671
28.9418 31.0481 10.9272
28.8874 31.0873 10.9172
28.8468 31.1171 10.9107
28.7929 31.1572 10.9034
28.7929 31.1572 10.9034
28.8472 31.1072 10.8976
28.8472 31.1072 10.8976
3 11 2 3 0.4710490229730804 0.27010854194643175 0.9730043601317105
3 16 8 0 0.4710490229730804 0.27010854194643175 0.9730043601317105
3 0 2 16 0.4710490229730804 0.27010854194643175 0.9730043601317105
3 10 11 17 0.4710490229730804 0.27010854194643175 0.9730043601317105
3 2 11 10 0.4710490229730804 0.27010854194643175 0.9730043601317105
3 10 16 2 0.4710490229730804 0.27010854194643175 0.9730043601317105
3 3 5 12 0.4710490229730804 0.27010854194643175 0.9730043601317105
3 12 11 3 0.4710490229730804 0.27010854194643175 0.9730043601317105
3 12 5 6 0.4710490229730804 0.27010854194643175 0.9730043601317105
3 6 7 12 0.4710490229730804 0.27010854194643175 0.9730043601317105
3 14 10 17 0.4710490229730804 0.27010854194643175 0.9730043601317105
3 8 16 14 0.4710490229730804 0.27010854194643175 0.9730043601317105
3 16 10 14 0.4710490229730804 0.27010854194643175 0.9730043601317105
3 17 11 13 0.4710490229730804 0.27010854194643175 0.9730043601317105
3 13 14 17 0.4710490229730804 0.27010854194643175 0.9730043601317105
3 11 12 13 0.4710490229730804 0.27010854194643175 0.9730043601317105
3 13 12 7 0.4710490229730804 0.27010854194643175 0.9730043601317105
3 13 7 8 0.4710490229730804 0.27010854194643175 0.9730043601317105
3 8 14 13 0.4710490229730804 0.27010854194643175 0.9730043601317105
