OFF
69 64 0


27.2273 35.4421 6.2843
27.2273 35.4421 6.2843
27.2337 35.3849 6.3476
27.2401 35.3277 6.411
27.2466 35.2705 6.4743
27.253 35.2133 6.5376
27.2595 35.1561 6.601
27.2659 35.0989 6.6643
27.2724 35.0417 6.7276
27.2788 34.9845 6.791
27.2852 34.9273 6.8543
27.2917 34.8701 6.9176
27.2981 34.8129 6.981
27.3046 34.7557 7.0443
27.3515 34.7515 7.1601
27.3965 34.7496 7.2693
27.4398 34.7499 7.3728
27.482 34.7523 7.4715
27.5231 34.7567 7.5661
27.5635 34.7632 7.6574
27.6034 34.7718 7.7456
27.643 34.7824 7.8314
27.6824 34.7951 7.9151
27.7218 34.8098 7.9969
27.7613 34.8266 8.0774
27.801 34.8454 8.1566
27.8411 34.8663 8.2351
27.8818 34.8892 8.313
27.923 34.9143 8.3907
27.9651 34.9415 8.4686
28.0083 34.971 8.5471
28.0527 35.0029 8.6266
28.0986 35.0373 8.7076
28.1464 35.0745 8.7907
28.1963 35.1147 8.8765
28.249 35.1585 8.9658
28.3048 35.2061 9.0594
28.3646 35.2584 9.1585
28.3646 35.2584 9.1585
28.3227 35.2883 9.0333
28.283 35.3156 8.9156
28.2452 35.3406 8.8041
28.2088 35.3635 8.698
28.1737 35.3844 8.5963
28.1394 35.4035 8.4985
28.1059 35.4209 8.4038
28.073 35.4365 8.3118
28.0403 35.4506 8.222
28.0079 35.463 8.1341
27.9756 35.4739 8.0477
27.9433 35.4832 7.9625
27.9108 35.491 7.8783
27.8781 35.4973 7.7947
27.8451 35.5022 7.7117
27.8117 35.5058 7.6288
27.7778 35.5081 7.5458
27.7433 35.5091 7.4625
27.7082 35.509 7.3786
27.6723 35.5079 7.2937
27.6355 35.5057 7.2075
27.5976 35.5025 7.1195
27.5585 35.4984 7.0294
27.518 35.4934 6.9367
27.4757 35.4875 6.8406
27.4315 35.4805 6.7407
27.385 35.4726 6.6361
27.3358 35.4636 6.5259
27.2834 35.4535 6.4091
27.2273 35.4421 6.2843
3 49 26 48 0.24270080586207454 0.47676767493955874 0.4052819552331862
3 25 26 49 0.24270080586207454 0.47676767493955874 0.4052819552331862
3 25 49 50 0.24270080586207454 0.47676767493955874 0.4052819552331862
3 28 46 47 0.24270080586207454 0.47676767493955874 0.4052819552331862
3 48 26 27 0.24270080586207454 0.47676767493955874 0.4052819552331862
3 27 47 48 0.24270080586207454 0.47676767493955874 0.4052819552331862
3 28 47 27 0.24270080586207454 0.47676767493955874 0.4052819552331862
3 32 43 31 0.24270080586207454 0.47676767493955874 0.4052819552331862
3 29 46 28 0.24270080586207454 0.47676767493955874 0.4052819552331862
3 29 45 46 0.24270080586207454 0.47676767493955874 0.4052819552331862
3 30 45 29 0.24270080586207454 0.47676767493955874 0.4052819552331862
3 60 61 11 0.24270080586207454 0.47676767493955874 0.4052819552331862
3 9 61 62 0.24270080586207454 0.47676767493955874 0.4052819552331862
3 62 8 9 0.24270080586207454 0.47676767493955874 0.4052819552331862
3 10 61 9 0.24270080586207454 0.47676767493955874 0.4052819552331862
3 11 61 10 0.24270080586207454 0.47676767493955874 0.4052819552331862
3 5 66 4 0.24270080586207454 0.47676767493955874 0.4052819552331862
3 25 50 24 0.24270080586207454 0.47676767493955874 0.4052819552331862
3 24 50 51 0.24270080586207454 0.47676767493955874 0.4052819552331862
3 57 58 17 0.24270080586207454 0.47676767493955874 0.4052819552331862
3 44 31 43 0.24270080586207454 0.47676767493955874 0.4052819552331862
3 44 45 30 0.24270080586207454 0.47676767493955874 0.4052819552331862
3 30 31 44 0.24270080586207454 0.47676767493955874 0.4052819552331862
3 40 35 39 0.24270080586207454 0.47676767493955874 0.4052819552331862
3 42 43 32 0.24270080586207454 0.47676767493955874 0.4052819552331862
3 34 35 40 0.24270080586207454 0.47676767493955874 0.4052819552331862
3 40 41 34 0.24270080586207454 0.47676767493955874 0.4052819552331862
3 8 62 63 0.24270080586207454 0.47676767493955874 0.4052819552331862
3 63 64 7 0.24270080586207454 0.47676767493955874 0.4052819552331862
3 7 8 63 0.24270080586207454 0.47676767493955874 0.4052819552331862
3 7 64 6 0.24270080586207454 0.47676767493955874 0.4052819552331862
3 66 5 65 0.24270080586207454 0.47676767493955874 0.4052819552331862
3 65 6 64 0.24270080586207454 0.47676767493955874 0.4052819552331862
3 5 6 65 0.24270080586207454 0.47676767493955874 0.4052819552331862
3 2 67 0 0.24270080586207454 0.47676767493955874 0.4052819552331862
3 54 55 20 0.24270080586207454 0.47676767493955874 0.4052819552331862
3 16 58 59 0.24270080586207454 0.47676767493955874 0.4052819552331862
3 16 17 58 0.24270080586207454 0.47676767493955874 0.4052819552331862
3 37 39 36 0.24270080586207454 0.47676767493955874 0.4052819552331862
3 36 39 35 0.24270080586207454 0.47676767493955874 0.4052819552331862
3 41 42 33 0.24270080586207454 0.47676767493955874 0.4052819552331862
3 33 34 41 0.24270080586207454 0.47676767493955874 0.4052819552331862
3 33 42 32 0.24270080586207454 0.47676767493955874 0.4052819552331862
3 4 66 3 0.24270080586207454 0.47676767493955874 0.4052819552331862
3 66 67 3 0.24270080586207454 0.47676767493955874 0.4052819552331862
3 67 2 3 0.24270080586207454 0.47676767493955874 0.4052819552331862
3 53 54 21 0.24270080586207454 0.47676767493955874 0.4052819552331862
3 54 20 21 0.24270080586207454 0.47676767493955874 0.4052819552331862
3 19 55 56 0.24270080586207454 0.47676767493955874 0.4052819552331862
3 19 20 55 0.24270080586207454 0.47676767493955874 0.4052819552331862
3 59 60 15 0.24270080586207454 0.47676767493955874 0.4052819552331862
3 15 16 59 0.24270080586207454 0.47676767493955874 0.4052819552331862
3 15 60 11 0.24270080586207454 0.47676767493955874 0.4052819552331862
3 22 52 53 0.24270080586207454 0.47676767493955874 0.4052819552331862
3 53 21 22 0.24270080586207454 0.47676767493955874 0.4052819552331862
3 56 57 18 0.24270080586207454 0.47676767493955874 0.4052819552331862
3 18 19 56 0.24270080586207454 0.47676767493955874 0.4052819552331862
3 57 17 18 0.24270080586207454 0.47676767493955874 0.4052819552331862
3 11 12 14 0.24270080586207454 0.47676767493955874 0.4052819552331862
3 14 15 11 0.24270080586207454 0.47676767493955874 0.4052819552331862
3 14 12 13 0.24270080586207454 0.47676767493955874 0.4052819552331862
3 51 52 23 0.24270080586207454 0.47676767493955874 0.4052819552331862
3 52 22 23 0.24270080586207454 0.47676767493955874 0.4052819552331862
3 23 24 51 0.24270080586207454 0.47676767493955874 0.4052819552331862
