OFF
110 101 0


31.4365 28.4032 8.9516
31.4365 28.4032 8.9516
31.41 28.462 8.8833
31.3835 28.5208 8.8149
31.357 28.5797 8.7466
31.3305 28.6385 8.6782
31.3041 28.6973 8.6098
31.2776 28.7562 8.5415
31.2511 28.815 8.4731
31.2246 28.8738 8.4047
31.1981 28.9327 8.3364
31.1716 28.9915 8.268
31.1451 29.0504 8.1996
31.1187 29.1092 8.1313
31.0922 29.168 8.0629
31.0657 29.2269 7.9945
31.0392 29.2857 7.9262
31.0127 29.3445 7.8578
30.9862 29.4034 7.7894
30.9597 29.4622 7.7211
30.9332 29.521 7.6527
30.9068 29.5799 7.5843
30.8803 29.6387 7.516
30.8538 29.6975 7.4476
30.7506 29.6976 7.3765
30.6524 29.6954 7.3107
30.5581 29.6912 7.2493
30.4671 29.6848 7.192
30.3787 29.6764 7.1383
30.2925 29.6659 7.0879
30.2081 29.6535 7.0404
30.1252 29.639 6.9956
30.0434 29.6227 6.9531
29.9625 29.6045 6.9128
29.8821 29.5847 6.8744
29.802 29.5632 6.8375
29.7218 29.54 6.802
29.6412 29.5153 6.7676
29.5597 29.4889 6.7339
29.4769 29.4608 6.7008
29.3921 29.4308 6.6679
29.3048 29.3989 6.6349
29.2142 29.3647 6.6017
29.1194 29.3279 6.5677
29.0195 29.2882 6.5327
28.913 29.2449 6.4962
28.7985 29.1974 6.4578
28.7985 29.1974 6.4578
28.7928 29.0999 6.5369
28.7892 29.0296 6.5943
28.7862 28.9661 6.6464
28.7833 28.896 6.7041
28.78 28.7992 6.7842
28.78 28.7992 6.7842
28.78 28.7992 6.7842
28.7951 28.7351 6.8493
28.8103 28.671 6.9143
28.8254 28.6069 6.9794
28.8406 28.5427 7.0445
28.8557 28.4786 7.1095
28.8709 28.4145 7.1746
28.886 28.3504 7.2396
28.9012 28.2863 7.3047
28.9163 28.2222 7.3697
28.9315 28.158 7.4348
28.9466 28.0939 7.4998
28.9618 28.0298 7.5649
28.9769 27.9657 7.6299
28.9921 27.9016 7.695
29.0072 27.8375 7.7601
29.0224 27.7733 7.8251
29.0375 27.7092 7.8902
29.0527 27.6451 7.9552
29.0678 27.581 8.0203
29.083 27.5169 8.0853
29.0981 27.4528 8.1504
29.1133 27.3886 8.2154
29.1284 27.3245 8.2805
29.1436 27.2604 8.3455
29.2168 27.2837 8.3762
29.29 27.3069 8.4068
29.3632 27.3301 8.4375
29.4364 27.3534 8.4681
29.5096 27.3766 8.4987
29.5828 27.3998 8.5294
29.656 27.4231 8.56
29.7292 27.4463 8.5906
29.8024 27.4695 8.6213
29.8024 27.4695 8.6213
29.8802 27.514 8.637
29.958 27.5585 8.6527
30.0358 27.6029 8.6685
30.1137 27.6474 8.6842
30.1915 27.6918 8.6999
30.2693 27.7363 8.7157
30.3471 27.7807 8.7314
30.4249 27.8252 8.7471
30.5027 27.8697 8.7629
30.5805 27.9141 8.7786
30.6584 27.9586 8.7943
30.7362 28.003 8.8101
30.814 28.0475 8.8258
30.8918 28.092 8.8415
30.9696 28.1364 8.8573
31.0474 28.1809 8.873
31.1252 28.2253 8.8887
31.2031 28.2698 8.9044
31.2809 28.3143 8.9202
31.3587 28.3587 8.9359
31.4365 28.4032 8.9516
3 64 30 31 0.45917878323146444 0.2900342500383002 0.4782090906520088
3 75 76 81 0.45917878323146444 0.2900342500383002 0.4782090906520088
3 16 30 64 0.45917878323146444 0.2900342500383002 0.4782090906520088
3 40 56 57 0.45917878323146444 0.2900342500383002 0.4782090906520088
3 41 56 40 0.45917878323146444 0.2900342500383002 0.4782090906520088
3 55 56 41 0.45917878323146444 0.2900342500383002 0.4782090906520088
3 78 79 77 0.45917878323146444 0.2900342500383002 0.4782090906520088
3 81 76 80 0.45917878323146444 0.2900342500383002 0.4782090906520088
3 76 77 80 0.45917878323146444 0.2900342500383002 0.4782090906520088
3 80 77 79 0.45917878323146444 0.2900342500383002 0.4782090906520088
3 17 29 30 0.45917878323146444 0.2900342500383002 0.4782090906520088
3 30 16 17 0.45917878323146444 0.2900342500383002 0.4782090906520088
3 28 29 17 0.45917878323146444 0.2900342500383002 0.4782090906520088
3 65 16 64 0.45917878323146444 0.2900342500383002 0.4782090906520088
3 8 9 101 0.45917878323146444 0.2900342500383002 0.4782090906520088
3 35 60 61 0.45917878323146444 0.2900342500383002 0.4782090906520088
3 61 34 35 0.45917878323146444 0.2900342500383002 0.4782090906520088
3 36 60 35 0.45917878323146444 0.2900342500383002 0.4782090906520088
3 36 37 60 0.45917878323146444 0.2900342500383002 0.4782090906520088
3 60 37 59 0.45917878323146444 0.2900342500383002 0.4782090906520088
3 59 37 38 0.45917878323146444 0.2900342500383002 0.4782090906520088
3 38 58 59 0.45917878323146444 0.2900342500383002 0.4782090906520088
3 39 58 38 0.45917878323146444 0.2900342500383002 0.4782090906520088
3 39 40 57 0.45917878323146444 0.2900342500383002 0.4782090906520088
3 57 58 39 0.45917878323146444 0.2900342500383002 0.4782090906520088
3 82 83 74 0.45917878323146444 0.2900342500383002 0.4782090906520088
3 82 75 81 0.45917878323146444 0.2900342500383002 0.4782090906520088
3 74 75 82 0.45917878323146444 0.2900342500383002 0.4782090906520088
3 74 83 73 0.45917878323146444 0.2900342500383002 0.4782090906520088
3 71 72 85 0.45917878323146444 0.2900342500383002 0.4782090906520088
3 89 90 71 0.45917878323146444 0.2900342500383002 0.4782090906520088
3 86 88 89 0.45917878323146444 0.2900342500383002 0.4782090906520088
3 86 71 85 0.45917878323146444 0.2900342500383002 0.4782090906520088
3 89 71 86 0.45917878323146444 0.2900342500383002 0.4782090906520088
3 103 6 7 0.45917878323146444 0.2900342500383002 0.4782090906520088
3 104 6 103 0.45917878323146444 0.2900342500383002 0.4782090906520088
3 105 4 5 0.45917878323146444 0.2900342500383002 0.4782090906520088
3 5 104 105 0.45917878323146444 0.2900342500383002 0.4782090906520088
3 6 104 5 0.45917878323146444 0.2900342500383002 0.4782090906520088
3 66 95 15 0.45917878323146444 0.2900342500383002 0.4782090906520088
3 15 65 66 0.45917878323146444 0.2900342500383002 0.4782090906520088
3 16 65 15 0.45917878323146444 0.2900342500383002 0.4782090906520088
3 97 13 96 0.45917878323146444 0.2900342500383002 0.4782090906520088
3 93 67 68 0.45917878323146444 0.2900342500383002 0.4782090906520088
3 8 101 102 0.45917878323146444 0.2900342500383002 0.4782090906520088
3 102 7 8 0.45917878323146444 0.2900342500383002 0.4782090906520088
3 103 7 102 0.45917878323146444 0.2900342500383002 0.4782090906520088
3 100 9 10 0.45917878323146444 0.2900342500383002 0.4782090906520088
3 100 101 9 0.45917878323146444 0.2900342500383002 0.4782090906520088
3 10 99 100 0.45917878323146444 0.2900342500383002 0.4782090906520088
3 32 33 63 0.45917878323146444 0.2900342500383002 0.4782090906520088
3 64 31 63 0.45917878323146444 0.2900342500383002 0.4782090906520088
3 63 31 32 0.45917878323146444 0.2900342500383002 0.4782090906520088
3 33 34 62 0.45917878323146444 0.2900342500383002 0.4782090906520088
3 34 61 62 0.45917878323146444 0.2900342500383002 0.4782090906520088
3 62 63 33 0.45917878323146444 0.2900342500383002 0.4782090906520088
3 45 49 44 0.45917878323146444 0.2900342500383002 0.4782090906520088
3 45 48 49 0.45917878323146444 0.2900342500383002 0.4782090906520088
3 46 48 45 0.45917878323146444 0.2900342500383002 0.4782090906520088
3 44 49 50 0.45917878323146444 0.2900342500383002 0.4782090906520088
3 50 43 44 0.45917878323146444 0.2900342500383002 0.4782090906520088
3 50 51 43 0.45917878323146444 0.2900342500383002 0.4782090906520088
3 43 51 42 0.45917878323146444 0.2900342500383002 0.4782090906520088
3 42 51 55 0.45917878323146444 0.2900342500383002 0.4782090906520088
3 42 55 41 0.45917878323146444 0.2900342500383002 0.4782090906520088
3 85 72 84 0.45917878323146444 0.2900342500383002 0.4782090906520088
3 72 73 84 0.45917878323146444 0.2900342500383002 0.4782090906520088
3 84 73 83 0.45917878323146444 0.2900342500383002 0.4782090906520088
3 70 90 91 0.45917878323146444 0.2900342500383002 0.4782090906520088
3 70 71 90 0.45917878323146444 0.2900342500383002 0.4782090906520088
3 106 4 105 0.45917878323146444 0.2900342500383002 0.4782090906520088
3 2 108 0 0.45917878323146444 0.2900342500383002 0.4782090906520088
3 107 108 2 0.45917878323146444 0.2900342500383002 0.4782090906520088
3 28 17 18 0.45917878323146444 0.2900342500383002 0.4782090906520088
3 14 15 95 0.45917878323146444 0.2900342500383002 0.4782090906520088
3 95 96 14 0.45917878323146444 0.2900342500383002 0.4782090906520088
3 14 96 13 0.45917878323146444 0.2900342500383002 0.4782090906520088
3 92 93 68 0.45917878323146444 0.2900342500383002 0.4782090906520088
3 66 67 94 0.45917878323146444 0.2900342500383002 0.4782090906520088
3 67 93 94 0.45917878323146444 0.2900342500383002 0.4782090906520088
3 94 95 66 0.45917878323146444 0.2900342500383002 0.4782090906520088
3 11 99 10 0.45917878323146444 0.2900342500383002 0.4782090906520088
3 11 98 99 0.45917878323146444 0.2900342500383002 0.4782090906520088
3 69 70 91 0.45917878323146444 0.2900342500383002 0.4782090906520088
3 69 92 68 0.45917878323146444 0.2900342500383002 0.4782090906520088
3 91 92 69 0.45917878323146444 0.2900342500383002 0.4782090906520088
3 107 2 3 0.45917878323146444 0.2900342500383002 0.4782090906520088
3 4 106 3 0.45917878323146444 0.2900342500383002 0.4782090906520088
3 3 106 107 0.45917878323146444 0.2900342500383002 0.4782090906520088
3 19 26 27 0.45917878323146444 0.2900342500383002 0.4782090906520088
3 28 18 27 0.45917878323146444 0.2900342500383002 0.4782090906520088
3 27 18 19 0.45917878323146444 0.2900342500383002 0.4782090906520088
3 25 21 24 0.45917878323146444 0.2900342500383002 0.4782090906520088
3 20 21 25 0.45917878323146444 0.2900342500383002 0.4782090906520088
3 25 26 20 0.45917878323146444 0.2900342500383002 0.4782090906520088
3 20 26 19 0.45917878323146444 0.2900342500383002 0.4782090906520088
3 98 11 12 0.45917878323146444 0.2900342500383002 0.4782090906520088
3 12 13 97 0.45917878323146444 0.2900342500383002 0.4782090906520088
3 97 98 12 0.45917878323146444 0.2900342500383002 0.4782090906520088
3 23 24 22 0.45917878323146444 0.2900342500383002 0.4782090906520088
3 22 24 21 0.45917878323146444 0.2900342500383002 0.4782090906520088
