OFF
40 35 0


30.5078 38.8369 10.3349
30.5078 38.8369 10.3349
30.6049 38.7405 10.3593
30.6893 38.6591 10.381
30.7648 38.588 10.4009
30.8344 38.5239 10.4196
30.9003 38.4647 10.4375
30.9643 38.4084 10.4552
31.028 38.3535 10.4732
31.0931 38.2987 10.4918
31.1613 38.2425 10.5116
31.2347 38.1837 10.5333
31.3159 38.1203 10.5577
31.4083 38.0504 10.5859
31.5168 37.9712 10.6198
31.3993 37.9427 10.5566
31.3007 37.9172 10.5032
31.2145 37.8939 10.4564
31.1365 37.8717 10.4137
31.0634 37.85 10.3735
30.9927 37.8282 10.3344
30.9222 37.8056 10.2952
30.8498 37.7814 10.2548
30.7732 37.7547 10.2117
30.6893 37.724 10.1642
30.5946 37.6876 10.1101
30.4837 37.6423 10.0463
30.4837 37.6423 10.0463
30.4893 37.7786 10.0806
30.4932 37.8914 10.1086
30.4962 37.989 10.1327
30.4985 38.077 10.1542
30.5004 38.1593 10.1742
30.502 38.2388 10.1934
30.5034 38.3183 10.2126
30.5046 38.4005 10.2322
30.5057 38.4886 10.2531
30.5066 38.5864 10.2763
30.5073 38.6996 10.3029
30.5078 38.8369 10.3349
3 2 37 3 0.7519201523952894 0.4069359138887161 0.9914362296977647
3 7 33 32 0.7519201523952894 0.4069359138887161 0.9914362296977647
3 38 2 0 0.7519201523952894 0.4069359138887161 0.9914362296977647
3 37 2 38 0.7519201523952894 0.4069359138887161 0.9914362296977647
3 6 33 7 0.7519201523952894 0.4069359138887161 0.9914362296977647
3 4 35 5 0.7519201523952894 0.4069359138887161 0.9914362296977647
3 33 6 34 0.7519201523952894 0.4069359138887161 0.9914362296977647
3 5 35 34 0.7519201523952894 0.4069359138887161 0.9914362296977647
3 34 6 5 0.7519201523952894 0.4069359138887161 0.9914362296977647
3 35 4 36 0.7519201523952894 0.4069359138887161 0.9914362296977647
3 3 37 36 0.7519201523952894 0.4069359138887161 0.9914362296977647
3 36 4 3 0.7519201523952894 0.4069359138887161 0.9914362296977647
3 14 13 15 0.7519201523952894 0.4069359138887161 0.9914362296977647
3 20 9 8 0.7519201523952894 0.4069359138887161 0.9914362296977647
3 7 32 8 0.7519201523952894 0.4069359138887161 0.9914362296977647
3 30 23 22 0.7519201523952894 0.4069359138887161 0.9914362296977647
3 11 17 12 0.7519201523952894 0.4069359138887161 0.9914362296977647
3 16 12 17 0.7519201523952894 0.4069359138887161 0.9914362296977647
3 16 15 13 0.7519201523952894 0.4069359138887161 0.9914362296977647
3 13 12 16 0.7519201523952894 0.4069359138887161 0.9914362296977647
3 18 17 11 0.7519201523952894 0.4069359138887161 0.9914362296977647
3 11 10 18 0.7519201523952894 0.4069359138887161 0.9914362296977647
3 25 28 26 0.7519201523952894 0.4069359138887161 0.9914362296977647
3 29 23 30 0.7519201523952894 0.4069359138887161 0.9914362296977647
3 30 22 31 0.7519201523952894 0.4069359138887161 0.9914362296977647
3 20 8 21 0.7519201523952894 0.4069359138887161 0.9914362296977647
3 21 8 32 0.7519201523952894 0.4069359138887161 0.9914362296977647
3 32 31 21 0.7519201523952894 0.4069359138887161 0.9914362296977647
3 21 31 22 0.7519201523952894 0.4069359138887161 0.9914362296977647
3 19 10 9 0.7519201523952894 0.4069359138887161 0.9914362296977647
3 19 18 10 0.7519201523952894 0.4069359138887161 0.9914362296977647
3 19 9 20 0.7519201523952894 0.4069359138887161 0.9914362296977647
3 23 29 24 0.7519201523952894 0.4069359138887161 0.9914362296977647
3 28 25 24 0.7519201523952894 0.4069359138887161 0.9914362296977647
3 24 29 28 0.7519201523952894 0.4069359138887161 0.9914362296977647
