OFF
64 55 0


30.549 34.9045 9.05
30.549 34.9045 9.05
30.5523 34.8987 8.9604
30.5555 34.8929 8.8708
30.5588 34.8871 8.7813
30.5621 34.8813 8.6917
30.5654 34.8755 8.6021
30.5686 34.8697 8.5126
30.5719 34.864 8.423
30.5752 34.8582 8.3334
30.5785 34.8524 8.2439
30.5817 34.8466 8.1543
30.585 34.8408 8.0648
30.5883 34.835 7.9752
30.5883 34.835 7.9752
30.5881 34.8322 7.8893
30.5884 34.8291 7.8033
30.5884 34.8291 7.8033
30.5716 34.839 7.6765
30.56 34.8453 7.5743
30.5512 34.8497 7.4854
30.5442 34.8528 7.4022
30.5382 34.855 7.3189
30.5331 34.8563 7.2296
30.5287 34.8565 7.1268
30.5254 34.8549 6.9984
30.44 34.9246 6.9327
30.3758 34.9769 6.8808
30.32 35.0223 6.8339
30.2647 35.0672 6.7856
30.2027 35.1176 6.7293
30.1225 35.1825 6.6531
30.1225 35.1825 6.6531
30.1296 35.1809 6.7811
30.1341 35.1811 6.8985
30.1364 35.1828 7.0074
30.1368 35.1859 7.1095
30.1356 35.1902 7.2064
30.133 35.1956 7.2993
30.1289 35.202 7.3892
30.1235 35.2096 7.4772
30.1167 35.2182 7.5641
30.1085 35.228 7.6507
30.0988 35.2392 7.738
30.0874 35.2517 7.8267
30.0742 35.266 7.9178
30.0588 35.2822 8.0123
30.0408 35.3007 8.1113
30.0198 35.3219 8.216
29.9952 35.3464 8.3281
29.9661 35.375 8.4495
29.9661 35.375 8.4495
29.9978 35.3528 8.5826
30.0202 35.3372 8.6795
30.04 35.3236 8.7674
30.0613 35.3089 8.8646
30.09 35.2892 8.9989
30.09 35.2892 8.9989
30.1876 35.2074 9.0085
30.2585 35.148 9.0159
30.3196 35.0967 9.0226
30.3807 35.0455 9.0295
30.4515 34.9861 9.0379
30.549 34.9045 9.05
3 8 48 9 0.7382716260532209 0.6655782012161245 0.5177327059022662
3 13 44 15 0.7382716260532209 0.6655782012161245 0.5177327059022662
3 15 43 16 0.7382716260532209 0.6655782012161245 0.5177327059022662
3 44 43 15 0.7382716260532209 0.6655782012161245 0.5177327059022662
3 45 44 13 0.7382716260532209 0.6655782012161245 0.5177327059022662
3 49 48 8 0.7382716260532209 0.6655782012161245 0.5177327059022662
3 49 52 50 0.7382716260532209 0.6655782012161245 0.5177327059022662
3 20 19 41 0.7382716260532209 0.6655782012161245 0.5177327059022662
3 24 26 25 0.7382716260532209 0.6655782012161245 0.5177327059022662
3 36 26 24 0.7382716260532209 0.6655782012161245 0.5177327059022662
3 41 19 42 0.7382716260532209 0.6655782012161245 0.5177327059022662
3 36 24 37 0.7382716260532209 0.6655782012161245 0.5177327059022662
3 37 24 23 0.7382716260532209 0.6655782012161245 0.5177327059022662
3 12 45 13 0.7382716260532209 0.6655782012161245 0.5177327059022662
3 46 45 12 0.7382716260532209 0.6655782012161245 0.5177327059022662
3 12 11 46 0.7382716260532209 0.6655782012161245 0.5177327059022662
3 46 11 47 0.7382716260532209 0.6655782012161245 0.5177327059022662
3 56 55 58 0.7382716260532209 0.6655782012161245 0.5177327059022662
3 54 53 5 0.7382716260532209 0.6655782012161245 0.5177327059022662
3 27 26 36 0.7382716260532209 0.6655782012161245 0.5177327059022662
3 18 42 19 0.7382716260532209 0.6655782012161245 0.5177327059022662
3 16 43 18 0.7382716260532209 0.6655782012161245 0.5177327059022662
3 43 42 18 0.7382716260532209 0.6655782012161245 0.5177327059022662
3 40 20 41 0.7382716260532209 0.6655782012161245 0.5177327059022662
3 21 20 40 0.7382716260532209 0.6655782012161245 0.5177327059022662
3 23 22 38 0.7382716260532209 0.6655782012161245 0.5177327059022662
3 38 37 23 0.7382716260532209 0.6655782012161245 0.5177327059022662
3 10 47 11 0.7382716260532209 0.6655782012161245 0.5177327059022662
3 10 9 48 0.7382716260532209 0.6655782012161245 0.5177327059022662
3 48 47 10 0.7382716260532209 0.6655782012161245 0.5177327059022662
3 54 5 59 0.7382716260532209 0.6655782012161245 0.5177327059022662
3 59 5 60 0.7382716260532209 0.6655782012161245 0.5177327059022662
3 59 55 54 0.7382716260532209 0.6655782012161245 0.5177327059022662
3 59 58 55 0.7382716260532209 0.6655782012161245 0.5177327059022662
3 6 5 53 0.7382716260532209 0.6655782012161245 0.5177327059022662
3 0 62 2 0.7382716260532209 0.6655782012161245 0.5177327059022662
3 35 34 28 0.7382716260532209 0.6655782012161245 0.5177327059022662
3 35 27 36 0.7382716260532209 0.6655782012161245 0.5177327059022662
3 28 27 35 0.7382716260532209 0.6655782012161245 0.5177327059022662
3 31 30 33 0.7382716260532209 0.6655782012161245 0.5177327059022662
3 28 34 29 0.7382716260532209 0.6655782012161245 0.5177327059022662
3 29 33 30 0.7382716260532209 0.6655782012161245 0.5177327059022662
3 34 33 29 0.7382716260532209 0.6655782012161245 0.5177327059022662
3 21 40 39 0.7382716260532209 0.6655782012161245 0.5177327059022662
3 39 22 21 0.7382716260532209 0.6655782012161245 0.5177327059022662
3 39 38 22 0.7382716260532209 0.6655782012161245 0.5177327059022662
3 7 53 52 0.7382716260532209 0.6655782012161245 0.5177327059022662
3 7 6 53 0.7382716260532209 0.6655782012161245 0.5177327059022662
3 7 49 8 0.7382716260532209 0.6655782012161245 0.5177327059022662
3 52 49 7 0.7382716260532209 0.6655782012161245 0.5177327059022662
3 62 61 3 0.7382716260532209 0.6655782012161245 0.5177327059022662
3 3 2 62 0.7382716260532209 0.6655782012161245 0.5177327059022662
3 4 3 61 0.7382716260532209 0.6655782012161245 0.5177327059022662
3 60 5 4 0.7382716260532209 0.6655782012161245 0.5177327059022662
3 4 61 60 0.7382716260532209 0.6655782012161245 0.5177327059022662
