OFF
12 7 0


30.6936 32.5222 7.241
30.6936 32.5222 7.241
30.7553 32.5775 7.1725
30.8171 32.6332 7.1044
30.8171 32.6332 7.1044
30.7534 32.5348 7.1037
30.7092 32.465 7.1003
30.6478 32.3655 7.0916
30.6592 32.4047 7.129
30.6707 32.4439 7.1663
30.6822 32.4831 7.2037
30.6936 32.5222 7.241
3 2 5 3 0.3861264800993657 0.0029450515064913807 0.9786147622137775
3 10 6 5 0.3861264800993657 0.0029450515064913807 0.9786147622137775
3 10 2 0 0.3861264800993657 0.0029450515064913807 0.9786147622137775
3 5 2 10 0.3861264800993657 0.0029450515064913807 0.9786147622137775
3 10 9 6 0.3861264800993657 0.0029450515064913807 0.9786147622137775
3 7 6 8 0.3861264800993657 0.0029450515064913807 0.9786147622137775
3 6 9 8 0.3861264800993657 0.0029450515064913807 0.9786147622137775
