OFF
72 64 0


32.845 28.8409 8.1179
32.845 28.8409 8.1179
32.8195 28.8712 8.0851
32.794 28.9014 8.0523
32.7686 28.9317 8.0195
32.845 28.8409 8.1179
32.845 28.8409 8.1179
32.7758 28.8128 8.167
32.7067 28.7848 8.2162
32.6375 28.7567 8.2653
32.5684 28.7287 8.3145
32.4993 28.7006 8.3636
32.4301 28.6726 8.4128
32.361 28.6445 8.4619
32.2919 28.6165 8.5111
32.2227 28.5884 8.5602
32.1536 28.5604 8.6094
32.0845 28.5323 8.6585
32.0153 28.5043 8.7077
31.9462 28.4762 8.7568
31.877 28.4482 8.806
31.8079 28.4202 8.8551
31.7388 28.3921 8.9043
31.6696 28.3641 8.9534
31.6005 28.336 9.0026
31.6005 28.336 9.0026
31.5458 28.3584 8.9856
31.4912 28.3808 8.9686
31.4365 28.4032 8.9516
31.4365 28.4032 8.9516
31.41 28.462 8.8833
31.3835 28.5208 8.8149
31.357 28.5797 8.7466
31.3305 28.6385 8.6782
31.3041 28.6973 8.6098
31.2776 28.7562 8.5415
31.2511 28.815 8.4731
31.2246 28.8738 8.4047
31.1981 28.9327 8.3364
31.1716 28.9915 8.268
31.1451 29.0504 8.1996
31.1187 29.1092 8.1313
31.0922 29.168 8.0629
31.0657 29.2269 7.9945
31.0392 29.2857 7.9262
31.0127 29.3445 7.8578
30.9862 29.4034 7.7894
30.9597 29.4622 7.7211
30.9332 29.521 7.6527
30.9068 29.5799 7.5843
30.8803 29.6387 7.516
30.8538 29.6975 7.4476
30.8538 29.6975 7.4476
31.0225 29.6497 7.4733
31.1564 29.6082 7.4983
31.2688 29.5709 7.5222
31.3669 29.5369 7.5451
31.4549 29.5051 7.567
31.5359 29.475 7.5883
31.6118 29.446 7.6092
31.6843 29.4178 7.63
31.7546 29.3899 7.6507
31.8239 29.3619 7.6717
31.8933 29.3336 7.6932
31.9636 29.3044 7.7155
32.0359 29.274 7.739
32.1115 29.2418 7.7639
32.1917 29.2074 7.7909
32.2781 29.1698 7.8205
32.373 29.1281 7.8535
32.4792 29.081 7.891
32.6006 29.0266 7.9347
3 50 53 51 0.9794759273774069 0.21211921218462126 0.5073322271469063
3 31 22 21 0.9794759273774069 0.21211921218462126 0.5073322271469063
3 68 13 69 0.9794759273774069 0.21211921218462126 0.5073322271469063
3 68 14 13 0.9794759273774069 0.21211921218462126 0.5073322271469063
3 15 66 37 0.9794759273774069 0.21211921218462126 0.5073322271469063
3 37 65 38 0.9794759273774069 0.21211921218462126 0.5073322271469063
3 66 65 37 0.9794759273774069 0.21211921218462126 0.5073322271469063
3 32 31 21 0.9794759273774069 0.21211921218462126 0.5073322271469063
3 38 65 64 0.9794759273774069 0.21211921218462126 0.5073322271469063
3 53 48 54 0.9794759273774069 0.21211921218462126 0.5073322271469063
3 62 40 63 0.9794759273774069 0.21211921218462126 0.5073322271469063
3 41 40 62 0.9794759273774069 0.21211921218462126 0.5073322271469063
3 53 50 49 0.9794759273774069 0.21211921218462126 0.5073322271469063
3 49 48 53 0.9794759273774069 0.21211921218462126 0.5073322271469063
3 14 68 67 0.9794759273774069 0.21211921218462126 0.5073322271469063
3 67 66 15 0.9794759273774069 0.21211921218462126 0.5073322271469063
3 15 14 67 0.9794759273774069 0.21211921218462126 0.5073322271469063
3 24 23 26 0.9794759273774069 0.21211921218462126 0.5073322271469063
3 22 31 30 0.9794759273774069 0.21211921218462126 0.5073322271469063
3 30 23 22 0.9794759273774069 0.21211921218462126 0.5073322271469063
3 35 17 36 0.9794759273774069 0.21211921218462126 0.5073322271469063
3 71 8 4 0.9794759273774069 0.21211921218462126 0.5073322271469063
3 7 4 8 0.9794759273774069 0.21211921218462126 0.5073322271469063
3 69 13 12 0.9794759273774069 0.21211921218462126 0.5073322271469063
3 12 11 69 0.9794759273774069 0.21211921218462126 0.5073322271469063
3 69 11 70 0.9794759273774069 0.21211921218462126 0.5073322271469063
3 9 8 71 0.9794759273774069 0.21211921218462126 0.5073322271469063
3 39 64 63 0.9794759273774069 0.21211921218462126 0.5073322271469063
3 63 40 39 0.9794759273774069 0.21211921218462126 0.5073322271469063
3 38 64 39 0.9794759273774069 0.21211921218462126 0.5073322271469063
3 58 57 44 0.9794759273774069 0.21211921218462126 0.5073322271469063
3 44 43 58 0.9794759273774069 0.21211921218462126 0.5073322271469063
3 58 43 59 0.9794759273774069 0.21211921218462126 0.5073322271469063
3 27 26 23 0.9794759273774069 0.21211921218462126 0.5073322271469063
3 23 30 27 0.9794759273774069 0.21211921218462126 0.5073322271469063
3 27 30 28 0.9794759273774069 0.21211921218462126 0.5073322271469063
3 16 36 17 0.9794759273774069 0.21211921218462126 0.5073322271469063
3 15 37 16 0.9794759273774069 0.21211921218462126 0.5073322271469063
3 37 36 16 0.9794759273774069 0.21211921218462126 0.5073322271469063
3 18 17 35 0.9794759273774069 0.21211921218462126 0.5073322271469063
3 34 18 35 0.9794759273774069 0.21211921218462126 0.5073322271469063
3 19 18 34 0.9794759273774069 0.21211921218462126 0.5073322271469063
3 20 32 21 0.9794759273774069 0.21211921218462126 0.5073322271469063
3 2 7 0 0.9794759273774069 0.21211921218462126 0.5073322271469063
3 10 70 11 0.9794759273774069 0.21211921218462126 0.5073322271469063
3 71 70 10 0.9794759273774069 0.21211921218462126 0.5073322271469063
3 10 9 71 0.9794759273774069 0.21211921218462126 0.5073322271469063
3 47 54 48 0.9794759273774069 0.21211921218462126 0.5073322271469063
3 44 57 45 0.9794759273774069 0.21211921218462126 0.5073322271469063
3 54 47 55 0.9794759273774069 0.21211921218462126 0.5073322271469063
3 55 47 46 0.9794759273774069 0.21211921218462126 0.5073322271469063
3 41 62 61 0.9794759273774069 0.21211921218462126 0.5073322271469063
3 61 60 41 0.9794759273774069 0.21211921218462126 0.5073322271469063
3 59 43 42 0.9794759273774069 0.21211921218462126 0.5073322271469063
3 42 60 59 0.9794759273774069 0.21211921218462126 0.5073322271469063
3 41 60 42 0.9794759273774069 0.21211921218462126 0.5073322271469063
3 19 34 33 0.9794759273774069 0.21211921218462126 0.5073322271469063
3 32 20 33 0.9794759273774069 0.21211921218462126 0.5073322271469063
3 33 20 19 0.9794759273774069 0.21211921218462126 0.5073322271469063
3 4 7 3 0.9794759273774069 0.21211921218462126 0.5073322271469063
3 7 2 3 0.9794759273774069 0.21211921218462126 0.5073322271469063
3 56 45 57 0.9794759273774069 0.21211921218462126 0.5073322271469063
3 46 45 56 0.9794759273774069 0.21211921218462126 0.5073322271469063
3 56 55 46 0.9794759273774069 0.21211921218462126 0.5073322271469063
